<?xml version="1.0" encoding="utf-8"?>
<COLLADA xmlns="http://www.collada.org/2005/11/COLLADASchema" version="1.4.1" xmlns:xsi="http://www.w3.org/2001/XMLSchema-instance">
  <asset>
    <contributor>
      <author>Blender User</author>
      <authoring_tool>Blender 4.3.1 commit date:2024-12-10, commit time:07:46, hash:33d812126174</authoring_tool>
    </contributor>
    <created>2026-08-29T11:34:36</created>
    <modified>2026-08-29T11:34:36</modified>
    <unit name="meter" meter="1"/>
    <up_axis>Z_UP</up_axis>
  </asset>
  <library_effects>
    <effect id="A_A_A-Textura_garamante-effect">
      <profile_COMMON>
        <newparam sid="gara_struct_png-surface">
          <surface type="2D">
            <init_from>gara_struct_png</init_from>
          </surface>
        </newparam>
        <newparam sid="gara_struct_png-sampler">
          <sampler2D>
            <source>gara_struct_png-surface</source>
          </sampler2D>
        </newparam>
        <technique sid="common">
          <lambert>
            <emission>
              <color sid="emission">0 0 0 1</color>
            </emission>
            <diffuse>
              <texture texture="gara_struct_png-sampler" texcoord="MapaUV"/>
            </diffuse>
            <index_of_refraction>
              <float sid="ior">1.45</float>
            </index_of_refraction>
          </lambert>
        </technique>
      </profile_COMMON>
    </effect>
  </library_effects>
  <library_images>
    <image id="gara_struct_png" name="gara_struct_png">
      <init_from>gara_struct.png</init_from>
    </image>
  </library_images>
  <library_materials>
    <material id="A_A_A-Textura_garamante-material" name="A A A-Textura garamante">
      <instance_effect url="#A_A_A-Textura_garamante-effect"/>
    </material>
  </library_materials>
  <library_geometries>
    <geometry id="Esfera_596-mesh" name="Esfera.596">
      <mesh>
        <source id="Esfera_596-mesh-positions">
          <float_array id="Esfera_596-mesh-positions-array" count="672">-4.223167 -4.235994 -2.944563 -4.223597 4.228437 -2.944563 -4.223167 -4.235994 2.306521 4.25861 -4.2359 -2.944563 4.25861 -4.2359 2.306521 4.258186 4.228533 2.306521 -4.223597 4.228437 2.306521 4.258186 4.228533 -2.944563 -3.243759 -3.911663 2.231577 -3.975042 -3.178982 2.231577 -3.76082 -3.625709 2.231577 -3.975826 3.128476 2.231577 -3.24468 3.861174 2.231577 -3.761707 3.575211 2.231577 3.99016 -3.178803 2.231577 3.259008 -3.911501 2.231577 3.776035 -3.625539 2.231577 3.258087 3.861335 2.231577 3.98937 3.128654 2.231577 3.775154 3.575382 2.231577 -3.008572 -3.465069 11.67075 -3.524454 -3.178823 11.67075 -3.738716 -2.732386 11.67075 3.505171 -3.178652 11.67075 2.989351 -3.46491 11.67075 3.719318 -2.732206 11.67075 -3.525307 3.25517 11.67075 -3.00951 3.541124 11.67075 -3.739477 2.808432 11.67075 3.504278 3.255341 11.67075 3.718557 2.808612 11.67075 2.988419 3.541283 11.67075 -2.905289 -3.123545 11.9396 -3.230913 -2.944518 11.9396 -3.37262 -2.664725 11.9396 3.21159 -2.944374 11.9396 2.886045 -3.123389 11.9396 3.353205 -2.664609 11.9396 -3.231737 3.020891 11.9396 -2.90621 3.199603 11.9396 -3.373358 2.740835 11.9396 3.210737 3.021036 11.9396 3.352461 2.74095 11.9396 2.88513 3.199759 11.9396 -3.008371 -3.46507 11.00037 -3.524454 -3.178876 11.00037 -3.738716 -2.732386 11.00037 2.989151 -3.46491 11.00037 3.505182 -3.178703 11.00037 3.719324 -2.732206 11.00037 -3.00931 3.541124 11.00037 -3.525318 3.255168 11.00037 -3.739477 2.808432 11.00037 3.718557 2.808611 11.00037 3.50429 3.25534 11.00037 2.988218 3.541285 11.00037 -2.485279 -2.540395 11.8287 -2.233337 -2.396929 11.82874 -2.233337 -2.679895 11.82877 -2.233486 -2.679655 13.89027 -2.485422 -2.540156 13.89019 -2.233486 -2.396688 13.89023 2.224571 -2.391741 11.8287 2.472136 -2.54263 11.82874 2.2246 -2.679722 11.82877 2.224737 -2.679477 13.89027 2.224714 -2.391495 13.89019 2.472273 -2.542386 13.89023 -2.23605 -2.395067 13.5467 -2.235952 -2.684993 13.54682 -2.235952 -2.544869 13.79265 2.228044 -2.544861 13.79264 2.227953 -2.395059 13.54668 2.228044 -2.684983 13.5468 -2.26672 -2.540395 11.95609 -2.050083 -2.396929 11.82748 -2.05006 -2.679894 11.82751 -0.9975758 -2.679655 13.60009 -1.214235 -2.540156 13.72867 -0.9975872 -2.396688 13.60006 -0.22229 -2.540395 11.82528 -0.006277084 -2.396929 11.95495 -0.00629425 -2.679894 11.95497 -1.067099 -2.679655 13.72258 -1.283094 -2.540156 13.59289 -1.067087 -2.396688 13.72256 -0.04419136 -2.540395 11.95609 0.1724624 -2.396929 11.82748 0.1724681 -2.679894 11.82751 1.224958 -2.679655 13.60009 1.008305 -2.540156 13.72867 1.224947 -2.396688 13.60006 2.000244 -2.540395 11.82528 2.216257 -2.396929 11.95495 2.21624 -2.679894 11.95497 1.155424 -2.679655 13.72258 0.9394341 -2.540156 13.59289 1.155447 -2.396688 13.72256 -2.6338 2.482927 11.8287 -2.490343 2.230986 11.82874 -2.77331 2.230988 11.82877 -2.773069 2.231137 13.89027 -2.63356 2.483075 13.89019 -2.490103 2.231134 13.89023 -2.485153 -2.226917 11.8287 -2.636038 -2.474481 11.82874 -2.773132 -2.226941 11.82877 -2.772892 -2.227078 13.89027 -2.484913 -2.227054 13.89019 -2.635803 -2.474618 13.89023 -2.488478 2.233701 13.5467 -2.778402 2.233613 13.54682 -2.638281 2.233611 13.79265 -2.638292 -2.230391 13.79264 -2.488489 -2.230301 13.54668 -2.778414 -2.230391 13.5468 -2.6338 2.264372 11.95609 -2.490332 2.047729 11.82748 -2.773298 2.047715 11.82751 -2.773069 0.9952247 13.60009 -2.633572 1.211881 13.72867 -2.490103 0.9952383 13.60006 -2.633812 0.2199461 11.82528 -2.490343 0.003933906 11.95495 -2.77331 0.003953218 11.95497 -2.773058 1.064763 13.72258 -2.63356 1.280755 13.59289 -2.490091 1.064744 13.72256 -2.6338 0.04183888 11.95609 -2.490332 -0.1748042 11.82748 -2.773298 -0.174817 11.82751 -2.773069 -1.227308 13.60009 -2.633572 -1.010651 13.72867 -2.490103 -1.227294 13.60006 -2.633812 -2.002588 11.82528 -2.490343 -2.2186 11.95495 -2.77331 -2.218581 11.95497 -2.773058 -1.157772 13.72258 -2.63356 -0.9417794 13.59289 -2.490091 -1.157791 13.72256 2.628576 2.482927 11.8287 2.772045 2.230986 11.82874 2.489078 2.230988 11.82877 2.489319 2.231137 13.89027 2.628817 2.483075 13.89019 2.772285 2.231134 13.89023 2.777206 -2.226917 11.8287 2.626316 -2.474481 11.82874 2.489222 -2.226941 11.82877 2.489468 -2.227078 13.89027 2.777452 -2.227054 13.89019 2.626556 -2.474618 13.89023 2.773899 2.233701 13.5467 2.483974 2.233613 13.54682 2.624096 2.233611 13.79265 2.624084 -2.230391 13.79264 2.773882 -2.230301 13.54668 2.483963 -2.230391 13.5468 2.628559 2.264372 11.95609 2.772022 2.047729 11.82748 2.489056 2.047715 11.82751 2.48929 0.9952247 13.60009 2.628794 1.211881 13.72867 2.772257 0.9952383 13.60006 2.628553 0.2199461 11.82528 2.772022 0.003933906 11.95495 2.48905 0.003953218 11.95497 2.489296 1.064763 13.72258 2.628799 1.280755 13.59289 2.772263 1.064744 13.72256 2.628559 0.04183888 11.95609 2.772022 -0.1748042 11.82748 2.489056 -0.174817 11.82751 2.48929 -1.227308 13.60009 2.628794 -1.010651 13.72867 2.772257 -1.227294 13.60006 2.628553 -2.002588 11.82528 2.772022 -2.2186 11.95495 2.48905 -2.218581 11.95497 2.489296 -1.157772 13.72258 2.628799 -0.9417794 13.59289 2.772263 -1.157791 13.72256 -2.485279 2.523981 11.8287 -2.233337 2.667448 11.82874 -2.233337 2.384482 11.82877 -2.233486 2.384721 13.89027 -2.485422 2.524221 13.89019 -2.233486 2.667687 13.89023 2.224571 2.672635 11.8287 2.472136 2.521746 11.82874 2.2246 2.384655 11.82877 2.224737 2.384899 13.89027 2.224714 2.672881 13.89019 2.472273 2.52199 13.89023 -2.23605 2.669307 13.5467 -2.235952 2.379383 13.54682 -2.235952 2.519506 13.79265 2.228044 2.519515 13.79264 2.227953 2.669317 13.54668 2.228044 2.379392 13.5468 -2.26672 2.523982 11.95609 -2.050083 2.667448 11.82748 -2.05006 2.384482 11.82751 -0.9975758 2.384721 13.60009 -1.214235 2.524221 13.72867 -0.9975872 2.667687 13.60006 -0.22229 2.523982 11.82528 -0.006277084 2.667448 11.95495 -0.00629425 2.384482 11.95497 -1.067099 2.384721 13.72258 -1.283094 2.524221 13.59289 -1.067087 2.667687 13.72256 -0.04419136 2.523982 11.95609 0.1724624 2.667448 11.82748 0.1724681 2.384482 11.82751 1.224958 2.384721 13.60009 1.008305 2.524221 13.72867 1.224947 2.667687 13.60006 2.000244 2.523982 11.82528 2.216257 2.667448 11.95495 2.21624 2.384482 11.95497 1.155424 2.384721 13.72258 0.9394341 2.524221 13.59289 1.155447 2.667687 13.72256</float_array>
          <technique_common>
            <accessor source="#Esfera_596-mesh-positions-array" count="224" stride="3">
              <param name="X" type="float"/>
              <param name="Y" type="float"/>
              <param name="Z" type="float"/>
            </accessor>
          </technique_common>
        </source>
        <source id="Esfera_596-mesh-normals">
          <float_array id="Esfera_596-mesh-normals-array" count="1416">1 5.00359e-5 0 1 5.00359e-5 0 0 0 1 0 0 1 0 0 1 -1.12438e-5 1 0 -1.12438e-5 1 0 1.11314e-5 -1 0 -1 -5.0667e-5 0 -1 -5.06922e-5 0 -1 -5.07225e-5 0 0.9998782 1.37877e-4 0.01561605 1 1.38307e-4 7.88138e-6 0.999877 1.35724e-4 0.01568746 0.2485879 0.9683705 0.02150893 -0.2523036 0.9667326 0.04208403 -0.2489486 0.9682886 0.0210244 0.24905 -0.96807 0.02854198 -0.2505695 -0.9680987 -1.32603e-5 -0.2492995 -0.96802 0.02805709 -0.7286067 -0.6843864 0.02734184 -0.7277078 -0.6858873 4.36269e-5 -0.9013262 -0.4325346 0.02291029 0.2521429 -0.96601 0.05699771 0.7284947 -0.6844463 0.0287885 0.7241271 -0.6872753 0.0573821 0.9013896 -0.4323062 0.02466344 -0.728027 0.6851835 0.02236688 -0.7256241 0.6866431 0.04462039 -0.9015611 0.4321944 0.01989454 0.9014394 0.432363 0.02166575 0.7258045 0.6862617 0.04746425 0.7277276 0.6854529 0.02381116 0.252824 0.9665526 0.04308605 -0.9999064 -1.34739e-4 0.01368701 -0.999637 -1.28961e-4 0.02694422 -0.9996369 -1.2424e-4 0.02694737 -0.2529157 -0.2530128 0.9338191 -0.1530872 -0.5827296 0.7981169 -0.1459284 -0.5843022 0.7983081 -0.3370591 -0.08067911 0.9380203 -0.4288983 -0.3984801 0.8107156 0.2529515 -0.2529776 0.933819 0.1531193 -0.5827158 0.7981208 0.4289433 -0.3984073 0.8107277 0.3370801 -0.08059394 0.9380201 0.5716444 -0.1275522 0.8105265 -0.2529799 0.2530571 0.9337899 -0.1529848 0.5827874 0.7980944 -0.4289107 0.3984278 0.8107348 -0.3370696 0.08052921 0.9380294 -0.5716493 0.1274964 0.8105319 0.3370498 0.08061647 0.9380291 0.4288653 0.3984968 0.810725 0.2529284 0.253093 0.933794 0.1529532 0.5827976 0.798093 0.1456991 0.5843647 0.7983043 -0.5716217 -0.1276924 0.8105204 0.1459653 -0.5842881 0.7983117 -0.1457426 0.5843524 0.7983053 0.5716305 0.1276355 0.8105232 -1 -1.37359e-4 0 -0.9999072 -1.37366e-4 0.0136249 0.2503769 0.9681484 -3.029e-5 0.727618 0.6859825 1.10199e-5 0.9016452 0.4324767 8.39909e-6 -0.9017341 0.4322914 8.24927e-6 -0.7277125 0.6858823 1.11757e-5 -0.2504368 0.968133 -3.24876e-5 0.9016475 -0.4324717 3.20029e-5 0.7277947 -0.6857951 6.49384e-5 0.2506285 -0.9680833 -1.33197e-5 -0.7238107 -0.6878387 0.05455303 -0.9007206 -0.4319273 0.04627335 -0.2515372 -0.9662262 0.05600106 0.9995235 1.29903e-4 0.03086841 0.9995236 1.25192e-4 0.03086525 -1.43397e-6 0 1 0 0 1 1 1.4092e-6 7.21674e-5 1 -7.38745e-7 7.21675e-5 1 1.63486e-6 7.21674e-5 -0.4844037 -0.8748446 6.70059e-5 -0.4844074 -0.8748427 6.7787e-5 -0.4844078 -0.8748424 6.78708e-5 -0.4948478 0.8689797 -1.35328e-4 -0.4948375 0.8689856 -1.36859e-4 -0.4948489 0.8689792 -1.35163e-4 2.27412e-4 -1.04478e-4 -1 -2.27417e-4 1.11219e-4 1 0.4844859 -0.8747992 7.1564e-5 0.4844865 -0.8747988 7.15299e-5 0.4844858 -0.8747992 7.15675e-5 -1 -8.05137e-5 6.6871e-5 -1 -9.72951e-5 6.91583e-5 -1 -7.87132e-5 6.66256e-5 0.5204554 0.8538889 -1.36196e-4 0.5204458 0.8538948 -1.37844e-4 0.5204448 0.8538954 -1.38023e-4 1.33775e-5 -2.48368e-4 -1 -1.33776e-5 2.51678e-4 1 3.23668e-6 -0.8687825 0.4951938 3.57152e-6 -0.8687809 0.495197 3.5862e-6 -0.8687807 0.4951971 1.80536e-7 0.8540574 0.5201787 3.62783e-7 0.8540579 0.5201781 1.72398e-7 0.8540574 0.5201787 -3.68117e-6 -4.01306e-4 -1 -3.33162e-6 -4.01305e-4 -1 -3.3159e-6 -4.01305e-4 -1 -1 -3.36105e-4 1.91197e-4 1 3.16039e-4 -1.79949e-4 0.8598511 -1.02975e-5 -0.5105448 0.8598495 1.61763e-5 -0.5105478 0.8598492 1.89577e-5 -0.5105481 -0.416462 -0.8748456 0.2473959 -0.4164623 -0.8748453 0.2473961 -0.416462 -0.8748456 0.2473959 -0.4255377 0.8689854 0.2525512 -0.4255459 0.8689804 0.2525544 -0.4255468 0.8689799 0.2525548 -0.5104098 -1.25414e-4 -0.8599313 0.5104005 1.01583e-4 0.8599368 0.8574428 1.05718e-5 0.5145794 0.8574413 -3.56549e-6 0.5145819 0.8574411 -5.05081e-6 0.5145822 -0.4153988 -0.8748458 -0.2491763 -0.4153992 -0.8748455 -0.249177 -0.4153993 -0.8748454 -0.249177 -0.4242504 0.8689805 -0.2547245 -0.424242 0.8689855 -0.2547215 -0.4242513 0.86898 -0.2547248 0.5147151 -1.09239e-4 -0.8573613 -0.5147262 9.86578e-5 0.8573547 0.8598504 -1.47818e-5 -0.5105462 0.8598515 -3.09897e-5 -0.5105443 0.8598517 -3.26926e-5 -0.510544 -0.416467 -0.8748418 0.2474007 -0.4164617 -0.8748451 0.247398 -0.4164676 -0.8748415 0.2474009 -0.4255428 0.8689827 0.2525523 -0.4255284 0.8689913 0.2525464 -0.4255269 0.8689923 0.2525458 -0.5103944 -9.43976e-5 -0.8599405 0.5104101 1.01585e-4 0.8599312 0.8574405 -2.06261e-5 0.5145832 0.857441 -6.87657e-6 0.5145823 0.8574411 -5.43199e-6 0.5145822 -0.4153981 -0.8748455 -0.2491788 -0.4154043 -0.8748417 -0.2491814 -0.4154049 -0.8748413 -0.2491817 -0.4242444 0.8689844 -0.2547216 -0.4242415 0.8689858 -0.2547213 -0.4242446 0.8689842 -0.2547216 0.5147151 -1.09527e-4 -0.8573613 -0.5147255 1.19978e-4 0.8573552 -8.01449e-6 -1 7.21702e-5 -1.21916e-5 -1 7.12168e-5 -7.57562e-6 -1 7.22704e-5 -0.8748288 0.4844323 6.70483e-5 -0.8748289 0.4844321 6.71552e-5 -0.874829 0.4844321 6.71666e-5 0.8689982 0.4948154 -1.36803e-4 0.8689979 0.4948158 -1.36825e-4 0.8689978 0.4948158 -1.36827e-4 -1.07019e-4 -2.26046e-4 -1 1.07018e-4 2.26098e-4 1 -0.8747989 -0.4844863 6.95185e-5 -0.8748064 -0.4844726 6.75438e-5 -0.8747981 -0.4844877 6.9726e-5 -8.44295e-5 1 6.67214e-5 -8.44296e-5 1 6.66714e-5 -8.44296e-5 1 6.6666e-5 0.8538947 -0.5204458 -1.33992e-4 0.8539012 -0.5204353 -1.3214e-4 0.8538941 -0.520447 -1.34192e-4 -2.51032e-4 -1.81229e-5 -1 2.46168e-4 1.22462e-5 1 -0.868785 5.12025e-7 0.4951897 -0.8687849 5.63968e-7 0.4951898 -0.868785 5.09749e-7 0.4951897 0.8540548 -4.02309e-6 0.520183 0.8540548 -3.98892e-6 0.5201832 0.8540549 -4.02461e-6 0.520183 -4.00848e-4 3.41918e-6 -1 -4.00643e-4 3.41922e-6 -1 -4.00634e-4 3.41922e-6 -1 -3.0584e-4 1 1.79758e-4 3.10779e-4 -1 -1.78086e-4 -9.58178e-6 -0.8598504 -0.5105462 -7.41727e-6 -0.8598503 -0.5105463 -9.80919e-6 -0.8598504 -0.5105461 -0.8748449 0.416465 0.2473935 -0.8748458 0.4164633 0.247393 -0.8748448 0.4164652 0.2473935 0.8689795 0.4255444 0.2525601 0.8689808 0.4255425 0.2525593 0.8689809 0.4255423 0.2525592 -1.07019e-4 0.5104096 -0.8599315 1.07019e-4 -0.5104074 0.8599328 -1.29626e-5 -0.8574412 0.514582 -1.18552e-5 -0.8574411 0.5145823 -1.30789e-5 -0.8574413 0.5145819 -0.8748458 0.4154009 -0.2491727 -0.8748447 0.415403 -0.2491729 -0.8748446 0.4154033 -0.249173 0.8689802 0.4242475 -0.2547301 0.8689819 0.4242448 -0.2547293 0.8689801 0.4242478 -0.2547302 -1.07018e-4 -0.5147202 -0.8573582 1.13708e-4 0.5147197 0.8573586 -9.2411e-6 -0.8598503 -0.5105463 -3.83407e-6 -0.8598505 -0.5105462 -9.80919e-6 -0.8598504 -0.5105464 -0.8748447 0.4164649 0.2473937 -0.8748459 0.4164633 0.247393 -0.8748447 0.4164651 0.2473937 0.8689789 0.4255455 0.2525606 0.8689807 0.4255425 0.2525593 -1.0033e-4 0.5104101 -0.8599312 1.07019e-4 -0.5104081 0.8599323 -9.97672e-6 -0.8574414 0.5145817 -1.15713e-5 -0.8574413 0.5145818 -9.80919e-6 -0.8574414 0.5145817 -0.8748459 0.4154008 -0.2491724 -0.8748456 0.4154017 -0.2491722 -0.8748455 0.4154018 -0.2491722 0.8689817 0.4242454 -0.2547289 0.8689813 0.4242457 -0.2547295 0.8689817 0.4242454 -0.2547287 -1.07018e-4 -0.5147203 -0.8573582 1.13707e-4 0.5147184 0.8573594 -8.01448e-6 -1 7.21701e-5 -1.21916e-5 -1 7.12169e-5 -7.57561e-6 -1 7.22702e-5 -0.8748459 0.4844017 6.70496e-5 -0.8748461 0.4844012 6.71565e-5 -0.8748461 0.4844012 6.71679e-5 0.8689811 0.4948455 -1.368e-4 0.8689807 0.4948461 -1.36822e-4 0.8689807 0.4948461 -1.36824e-4 -1.07019e-4 -2.26051e-4 -1 1.07018e-4 2.26103e-4 1 -0.8747995 -0.4844852 7.19162e-5 -0.8748064 -0.484473 6.99909e-5 -0.8747988 -0.4844865 7.21185e-5 -8.44277e-5 1 6.66822e-5 -8.44279e-5 1 6.66663e-5 -8.44279e-5 1 6.66646e-5 0.8538855 -0.5204609 -1.36322e-4 0.8538926 -0.5204493 -1.34437e-4 0.8538848 -0.5204621 -1.36526e-4 -2.51027e-4 -1.81205e-5 -1 2.46163e-4 1.22435e-5 1 -0.868785 4.96768e-7 0.4951897 -0.8687849 5.63328e-7 0.4951898 -0.868785 4.93851e-7 0.4951897 0.8540633 -4.04996e-6 0.5201692 0.8540551 -4.9665e-6 0.5201826 0.8540636 -4.00903e-6 0.5201686 -4.00855e-4 3.41922e-6 -1 -4.00643e-4 3.41969e-6 -1 -4.00634e-4 3.41971e-6 -1 3.10785e-4 -1 -1.78089e-4 -9.58179e-6 -0.85985 -0.5105468 -7.41727e-6 -0.8598501 -0.5105466 -9.8092e-6 -0.8598501 -0.5105469 -0.8748369 0.4164757 0.2474035 -0.8748374 0.4164752 0.2474028 -0.8748369 0.4164758 0.2474036 0.8689881 0.4255326 0.2525504 0.8689894 0.4255304 0.2525497 0.8689895 0.4255303 0.2525496 1.07019e-4 -0.5104082 0.8599323 -1.29623e-5 -0.857441 0.5145823 -1.18552e-5 -0.8574411 0.5145822 -1.30787e-5 -0.857441 0.5145823 -0.8748373 0.4154128 -0.2491825 -0.8748369 0.4154136 -0.2491831 -0.8748368 0.4154136 -0.2491831 0.8689882 0.4242369 -0.2547209 0.8689826 0.4242459 -0.2547246 0.8689887 0.4242359 -0.2547205 -1.07016e-4 -0.5147205 -0.857358 1.13708e-4 0.5147199 0.8573585 -9.24111e-6 -0.8598499 -0.510547 -3.83408e-6 -0.8598502 -0.5105464 -9.8092e-6 -0.8598499 -0.5105471 -0.8748369 0.4164758 0.2474036 -0.8748373 0.4164752 0.2474029 -0.8748368 0.4164758 0.2474036 0.8689875 0.4255337 0.2525509 0.8689893 0.4255306 0.2525497 0.8689895 0.4255303 0.2525495 1.07019e-4 -0.5104088 0.859932 -9.97655e-6 -0.8574411 0.5145822 -1.15713e-5 -0.8574414 0.5145817 -9.809e-6 -0.8574411 0.5145822 -0.8748374 0.4154127 -0.2491824 -0.8748376 0.4154123 -0.2491822 -0.8748377 0.4154122 -0.2491822 0.8689895 0.4242349 -0.2547196 0.8689821 0.4242469 -0.2547249 0.8689903 0.4242336 -0.254719 -1.07016e-4 -0.5147209 -0.8573579 1 1.4092e-6 7.21675e-5 1 -7.38744e-7 7.21675e-5 1 1.63487e-6 7.21675e-5 -0.4844005 -0.8748463 6.66173e-5 -0.4844104 -0.874841 6.81119e-5 -0.4844115 -0.8748403 6.82723e-5 -0.4948444 0.8689817 -1.35765e-4 -0.4948389 0.8689848 -1.36721e-4 -0.494845 0.8689814 -1.35661e-4 2.30757e-4 -1.04479e-4 -1 0.484484 -0.8748002 7.12868e-5 0.4844846 -0.8747998 7.18735e-5 0.484484 -0.8748003 7.12252e-5 -1 -8.05137e-5 6.68708e-5 -1 -9.72953e-5 6.91583e-5 -1 -7.87133e-5 6.66254e-5 0.5204554 0.8538889 -1.36155e-4 0.5204458 0.8538948 -1.3802e-4 0.5204448 0.8538954 -1.38222e-4 2.00663e-5 -2.48369e-4 -1 -1.33776e-5 2.51679e-4 1 3.36599e-6 -0.8687821 0.4951947 3.39614e-6 -0.8687832 0.4951926 3.39746e-6 -0.8687834 0.4951926 0 0.8540569 0.5201796 0 0.8540588 0.5201765 0 0.8540568 0.5201798 -3.42715e-6 -4.01306e-4 -1 -3.3207e-6 -4.01307e-4 -1 -3.31592e-6 -4.01307e-4 -1 -1 -3.36107e-4 1.91197e-4 1 3.16039e-4 -1.7995e-4 0.8598514 -1.02975e-5 -0.5105443 0.8598495 1.61762e-5 -0.5105478 0.8598493 1.89577e-5 -0.5105481 -0.4164652 -0.8748435 0.2473977 -0.416464 -0.8748443 0.2473969 -0.4164653 -0.8748434 0.2473977 -0.4255347 0.8689871 0.2525503 -0.4255456 0.8689806 0.2525542 -0.4255469 0.86898 0.2525546 -0.5104115 -1.25414e-4 -0.8599303 0.5103998 1.01583e-4 0.8599373 0.8574428 1.05718e-5 0.5145793 0.8574416 -3.56549e-6 0.5145815 0.8574414 -5.05081e-6 0.5145817 -0.4154009 -0.8748447 -0.2491769 -0.4154022 -0.8748436 -0.2491784 -0.4154024 -0.8748435 -0.2491785 -0.4242474 0.8689823 -0.2547234 -0.4242418 0.8689858 -0.2547206 -0.424248 0.8689819 -0.2547237 0.5147168 -1.09239e-4 -0.8573603 -0.5147279 9.86575e-5 0.8573536 0.8598508 -1.47818e-5 -0.5105457 0.8598514 -3.09896e-5 -0.5105445 0.8598515 -3.26925e-5 -0.5105444 -0.4164704 -0.8748399 0.2474017 -0.4164634 -0.874844 0.2473995 -0.4164711 -0.8748395 0.247402 -0.4255397 0.8689844 0.2525513 -0.4255282 0.8689917 0.2525458 -0.4255269 0.8689925 0.2525452 -0.5103968 -9.43974e-5 -0.859939 0.5104109 1.01585e-4 0.8599308 0.8574401 -2.06261e-5 0.5145838 0.8574413 -6.87656e-6 0.5145819 0.8574414 -5.43198e-6 0.5145817 -0.4154 -0.8748443 -0.2491794 -0.4154074 -0.87484 -0.2491823 -0.4154081 -0.8748395 -0.2491826 -0.4242412 0.868986 -0.2547212 -0.4242413 0.8689861 -0.2547204 -0.4242411 0.8689858 -0.2547212 0.5147168 -1.09526e-4 -0.8573603 -0.5147286 1.19978e-4 0.8573532 0 0 1 -1 -5.06367e-5 0 1 1.37358e-4 0 -0.901545 -0.4326854 0 0.9006467 -0.4316889 0.04980367 -0.9010468 0.4318691 0.04004871 0.9008339 0.4319705 0.04358714 -1 -1.37358e-4 0 1.72973e-6 0 1 -1.56827e-6 0 1 1 -9.64414e-7 7.21675e-5 -0.4844033 -0.8748449 6.69221e-5 -0.4948364 0.8689861 -1.37024e-4 0.4844865 -0.8747987 7.15263e-5 -1 -9.90955e-5 6.94037e-5 0.5204564 0.8538883 -1.36018e-4 3.222e-6 -0.8687827 0.4951937 3.70921e-7 0.8540579 0.5201781 -3.6969e-6 -4.01306e-4 -1 0.8598513 -1.30789e-5 -0.5105445 -0.4164624 -0.8748453 0.2473961 -0.4255368 0.868986 0.2525508 0.8574429 1.20571e-5 0.5145791 -0.4153988 -0.8748458 -0.2491762 -0.4242411 0.8689861 -0.2547212 0.8598503 -1.30789e-5 -0.5105464 -0.4164611 -0.8748455 0.2473977 -0.4255443 0.8689817 0.2525529 0.8574404 -2.20706e-5 0.5145834 -0.4153973 -0.8748458 -0.2491785 -0.4242412 0.8689859 -0.2547212 -1.26305e-5 -1 7.11166e-5 -0.8748288 0.4844323 6.70369e-5 0.8689982 0.4948153 -1.368e-4 -0.8748073 -0.4844713 6.73364e-5 -8.44295e-5 1 6.67268e-5 0.8539018 -0.5204342 -1.3194e-4 -0.8687848 5.66244e-7 0.4951898 0.8540548 -3.9874e-6 0.5201832 -4.00857e-4 3.41917e-6 -1 -7.18985e-6 -0.8598503 -0.5105464 -0.8748459 0.416463 0.247393 0.8689795 0.4255446 0.2525601 -1.17388e-5 -0.8574411 0.5145823 -0.8748459 0.4154007 -0.2491726 0.868982 0.4242445 -0.2547292 -3.26599e-6 -0.8598504 -0.5105461 -0.8748459 0.416463 0.247393 0.8689786 0.4255458 0.2525607 -1.17388e-5 -0.8574413 0.5145818 -0.874846 0.4154008 -0.2491725 0.8689814 0.4242458 -0.2547295 -1.26305e-5 -1 7.11167e-5 -0.8748458 0.4844016 6.70382e-5 0.868981 0.4948455 -1.36797e-4 -0.874807 -0.4844717 6.97887e-5 -8.44277e-5 1 6.66839e-5 0.8538934 -0.520448 -1.34233e-4 0.8540548 -5.00743e-6 0.5201832 -4.00865e-4 3.4192e-6 -1 -7.18986e-6 -0.8598501 -0.5105466 -0.8748373 0.4164751 0.2474027 0.868988 0.4255329 0.2525505 -1.17388e-5 -0.8574411 0.5145822 -0.8748373 0.4154127 -0.2491825 0.868982 0.4242469 -0.254725 -3.26599e-6 -0.8598504 -0.5105464 -0.8748373 0.4164751 0.2474028 0.8689873 0.4255341 0.252551 -1.17388e-5 -0.8574415 0.5145817 -0.8748373 0.4154127 -0.2491824 0.8689813 0.4242482 -0.2547254 -0.4843995 -0.874847 6.64569e-5 -0.4948382 0.8689852 -1.36824e-4 0.4844847 -0.8747997 7.19351e-5 -1 -9.90957e-5 6.94038e-5 0.5204564 0.8538883 -1.35953e-4 3.36467e-6 -0.8687821 0.4951948 0 0.8540589 0.5201764 -3.43194e-6 -4.01306e-4 -1 0.8598517 -1.30789e-5 -0.510544 -0.4164639 -0.8748444 0.2473968 -0.4255335 0.8689879 0.2525498 -0.4154008 -0.8748447 -0.2491768 -0.4242411 0.8689862 -0.2547202 0.8598506 -1.30789e-5 -0.5105457 -0.4164626 -0.8748444 0.2473992 -0.425541 0.8689836 0.2525519 0.85744 -2.20706e-5 0.514584 -0.4153993 -0.8748448 -0.2491791 -0.4242413 0.8689861 -0.2547203</float_array>
          <technique_common>
            <accessor source="#Esfera_596-mesh-normals-array" count="472" stride="3">
              <param name="X" type="float"/>
              <param name="Y" type="float"/>
              <param name="Z" type="float"/>
            </accessor>
          </technique_common>
        </source>
        <source id="Esfera_596-mesh-map-0">
          <float_array id="Esfera_596-mesh-map-0-array" count="1896">0.3854644 0.609721 0.5275191 0.244165 0.5275185 0.6093944 0.6163883 0.5775473 0.4261446 0.3111562 0.6163883 0.3111562 0.5273835 0.2444917 0.3854836 0.6100477 0.3854829 0.2448183 0.3854836 0.6095741 0.5273835 0.244018 0.5273831 0.6092475 0.5275185 0.2448183 0.3854655 0.6103745 0.3854645 0.2451451 0.4102205 0.9077553 0.6471555 0.9686054 0.6479362 0.907741 0.646512 0.9964857 0.4266625 0.6276212 0.4279252 0.996498 0.4018847 0.9077379 0.6559784 0.9685589 0.6562867 0.9077221 0.6559784 0.9685589 0.6725727 0.9095228 0.6562867 0.9077221 0.3856152 0.9687365 0.4102434 0.9077916 0.3856149 0.909597 0.4266574 0.6277927 0.4139269 0.9978769 0.4279201 0.9964697 0.6604858 0.6358824 0.6393282 0.9964721 0.6604877 0.9978769 0.4266625 0.6276212 0.4139319 0.9979058 0.4279252 0.996498 0.660521 0.6357147 0.639362 0.9965004 0.6605229 0.9979058 0.4350821 0.9964833 0.4139217 0.6357977 0.4139226 0.9978913 0.6605053 0.9978912 0.6477717 0.6276981 0.646512 0.9964857 0.4351018 0.9965116 0.6425529 0.6276106 0.431908 0.6275373 0.6216421 0.9378412 0.6180926 0.961232 0.6168308 0.9457538 0.6237009 0.9196767 0.6252647 0.9502093 0.6216421 0.9378412 0.4594271 0.937842 0.4629769 0.9612319 0.4558048 0.9502093 0.4573686 0.9196791 0.4558048 0.9502093 0.452834 0.9235984 0.6216424 0.6760573 0.6180926 0.6526674 0.6252647 0.6636902 0.6237009 0.6942201 0.6252647 0.6636902 0.6282355 0.690301 0.4573687 0.6942226 0.4558048 0.66369 0.4594274 0.6760581 0.4594274 0.6760581 0.4629769 0.6526674 0.4642388 0.6681455 0.6237009 0.6942201 0.6282355 0.9235985 0.6237009 0.9196767 0.4642381 0.9457538 0.6180926 0.961232 0.4629769 0.9612319 0.6168313 0.6681455 0.4629769 0.6526674 0.6180926 0.6526674 0.4573686 0.9196791 0.452834 0.690301 0.4573687 0.6942226 0.411025 0.9687326 0.6479757 0.9077773 0.4102434 0.9077916 0.6725836 0.9095599 0.6559889 0.968649 0.6725841 0.9686464 0.4110019 0.9686425 0.3855936 0.9095599 0.3855938 0.9686464 0.6726042 0.9095786 0.6471948 0.9686955 0.6726046 0.9686915 0.4021998 0.9686888 0.3856043 0.9095786 0.3856046 0.9686915 0.6725631 0.9095415 0.6471555 0.9686054 0.6725636 0.9686014 0.4021937 0.9685987 0.3855986 0.9095415 0.3855989 0.9686014 0.41394 0.63563 0.4351018 0.9965116 0.431908 0.6275373 0.6477625 0.6278696 0.6604959 0.9978622 0.660494 0.6359654 0.6477625 0.6278696 0.4279201 0.9964697 0.6465027 0.9964574 0.6559889 0.968649 0.4018907 0.9077741 0.4021998 0.9686888 0.4318885 0.6277088 0.6393282 0.9964721 0.6425188 0.6277821 0.6168313 0.6681455 0.6237009 0.9196767 0.6168308 0.9457538 0.2562425 0.0846256 8.46098e-4 0.01429241 0.2561881 0.01424372 0.2568563 0.08654755 9.29676e-4 0.01444977 9.39868e-4 0.08654588 7.51536e-4 0.08678334 0.2566559 0.01465141 7.50087e-4 0.01466196 0.4414631 0.2359114 0.4411777 0.1842424 0.4610059 0.2100657 0.4609215 0.210415 0.4414336 0.2359002 0.4412392 0.1842687 0.2562425 0.0846256 8.46098e-4 0.01429241 0.2561881 0.01424372 9.39868e-4 0.08654588 0.2568532 0.01440376 9.29676e-4 0.01444977 7.50087e-4 0.01466196 0.2566313 0.08673894 0.2566559 0.01465141 0.4414631 0.2359114 0.4411777 0.1842424 0.4610059 0.2100657 0.4609215 0.210415 0.4414336 0.2359002 0.4412392 0.1842687 8.51164e-4 0.08464521 0.2561881 0.01424372 0.2562425 0.0846256 9.39868e-4 0.08654588 0.2568532 0.01440376 9.29676e-4 0.01444977 7.50087e-4 0.01466196 0.2566313 0.08673894 0.2566559 0.01465141 0.4414631 0.2359114 0.4411777 0.1842424 0.4610059 0.2100657 0.4609215 0.210415 0.4414336 0.2359002 0.4412392 0.1842687 8.51164e-4 0.08464521 0.2561881 0.01424372 0.2562425 0.0846256 9.39868e-4 0.08654588 0.2568532 0.01440376 9.29676e-4 0.01444977 7.50087e-4 0.01466196 0.2566313 0.08673894 0.2566559 0.01465141 0.4414631 0.2359114 0.4411777 0.1842424 0.4610059 0.2100657 0.4609215 0.210415 0.4414336 0.2359002 0.4412392 0.1842687 8.51164e-4 0.08464521 0.2561881 0.01424372 0.2562425 0.0846256 0.2568563 0.08654755 9.29676e-4 0.01444977 9.39868e-4 0.08654588 7.51536e-4 0.08678334 0.2566559 0.01465141 7.50087e-4 0.01466196 0.4414631 0.2359114 0.4411777 0.1842424 0.4610059 0.2100657 0.4609215 0.210415 0.4414336 0.2359002 0.4412392 0.1842687 8.51164e-4 0.08464521 0.2561881 0.01424372 0.2562425 0.0846256 9.39868e-4 0.08654588 0.2568532 0.01440376 9.29676e-4 0.01444977 7.50087e-4 0.01466196 0.2566313 0.08673894 0.2566559 0.01465141 0.4414631 0.2359114 0.4411777 0.1842424 0.4610059 0.2100657 0.4609215 0.210415 0.4414336 0.2359002 0.4412392 0.1842687 8.51164e-4 0.08464521 0.2561881 0.01424372 0.2562425 0.0846256 0.2568563 0.08654755 9.29676e-4 0.01444977 9.39868e-4 0.08654588 7.51536e-4 0.08678334 0.2566559 0.01465141 7.50087e-4 0.01466196 0.4414631 0.2359114 0.4411777 0.1842424 0.4610059 0.2100657 0.4609215 0.210415 0.4414336 0.2359002 0.4412392 0.1842687 0.2562425 0.0846256 8.46098e-4 0.01429241 0.2561881 0.01424372 0.2568563 0.08654755 9.29676e-4 0.01444977 9.39868e-4 0.08654588 7.50087e-4 0.01466196 0.2566313 0.08673894 0.2566559 0.01465141 0.4414631 0.2359114 0.4411777 0.1842424 0.4610059 0.2100657 0.4609215 0.210415 0.4414336 0.2359002 0.4412392 0.1842687 0.2562425 0.0846256 8.46098e-4 0.01429241 0.2561881 0.01424372 0.2568563 0.08654755 9.29676e-4 0.01444977 9.39868e-4 0.08654588 7.51536e-4 0.08678334 0.2566559 0.01465141 7.50087e-4 0.01466196 0.4414631 0.2359114 0.4411777 0.1842424 0.4610059 0.2100657 0.4609215 0.210415 0.4414336 0.2359002 0.4412392 0.1842687 0.2562425 0.0846256 8.46098e-4 0.01429241 0.2561881 0.01424372 9.39868e-4 0.08654588 0.2568532 0.01440376 9.29676e-4 0.01444977 7.50087e-4 0.01466196 0.2566313 0.08673894 0.2566559 0.01465141 0.4414631 0.2359114 0.4411777 0.1842424 0.4610059 0.2100657 0.4609215 0.210415 0.4414336 0.2359002 0.4412392 0.1842687 0.2562425 0.0846256 8.46098e-4 0.01429241 0.2561881 0.01424372 9.39868e-4 0.08654588 0.2568532 0.01440376 9.29676e-4 0.01444977 7.50087e-4 0.01466196 0.2566313 0.08673894 0.2566559 0.01465141 0.4414631 0.2359114 0.4411777 0.1842424 0.4610059 0.2100657 0.4609215 0.210415 0.4414336 0.2359002 0.4412392 0.1842687 0.2562425 0.0846256 8.46098e-4 0.01429241 0.2561881 0.01424372 0.2568563 0.08654755 9.29676e-4 0.01444977 9.39868e-4 0.08654588 7.51536e-4 0.08678334 0.2566559 0.01465141 7.50087e-4 0.01466196 0.4414631 0.2359114 0.4411777 0.1842424 0.4610059 0.2100657 0.4609215 0.210415 0.4414336 0.2359002 0.4412392 0.1842687 0.2562425 0.0846256 8.46098e-4 0.01429241 0.2561881 0.01424372 9.39868e-4 0.08654588 0.2568532 0.01440376 9.29676e-4 0.01444977 7.50087e-4 0.01466196 0.2566313 0.08673894 0.2566559 0.01465141 0.4414631 0.2359114 0.4411777 0.1842424 0.4610059 0.2100657 0.4609215 0.210415 0.4414336 0.2359002 0.4412392 0.1842687 0.2562425 0.0846256 8.46098e-4 0.01429241 0.2561881 0.01424372 0.2568563 0.08654755 9.29676e-4 0.01444977 9.39868e-4 0.08654588 7.51536e-4 0.08678334 0.2566559 0.01465141 7.50087e-4 0.01466196 0.4414631 0.2359114 0.4411777 0.1842424 0.4610059 0.2100657 0.4609215 0.210415 0.4414336 0.2359002 0.4412392 0.1842687 0.2562425 0.0846256 8.46098e-4 0.01429241 0.2561881 0.01424372 0.2568563 0.08654755 9.29676e-4 0.01444977 9.39868e-4 0.08654588 7.50087e-4 0.01466196 0.2566313 0.08673894 0.2566559 0.01465141 0.4414631 0.2359114 0.4411777 0.1842424 0.4610059 0.2100657 0.4609215 0.210415 0.4414336 0.2359002 0.4412392 0.1842687 0.2562425 0.0846256 8.46098e-4 0.01429241 0.2561881 0.01424372 0.2568563 0.08654755 9.29676e-4 0.01444977 9.39868e-4 0.08654588 7.51536e-4 0.08678334 0.2566559 0.01465141 7.50087e-4 0.01466196 0.4414631 0.2359114 0.4411777 0.1842424 0.4610059 0.2100657 0.4609215 0.210415 0.4414336 0.2359002 0.4412392 0.1842687 0.2562425 0.0846256 8.46098e-4 0.01429241 0.2561881 0.01424372 9.39868e-4 0.08654588 0.2568532 0.01440376 9.29676e-4 0.01444977 7.50087e-4 0.01466196 0.2566313 0.08673894 0.2566559 0.01465141 0.4414631 0.2359114 0.4411777 0.1842424 0.4610059 0.2100657 0.4609215 0.210415 0.4414336 0.2359002 0.4412392 0.1842687 0.2562425 0.0846256 8.46098e-4 0.01429241 0.2561881 0.01424372 9.39868e-4 0.08654588 0.2568532 0.01440376 9.29676e-4 0.01444977 7.50087e-4 0.01466196 0.2566313 0.08673894 0.2566559 0.01465141 0.4414631 0.2359114 0.4411777 0.1842424 0.4610059 0.2100657 0.4609215 0.210415 0.4414336 0.2359002 0.4412392 0.1842687 0.2562425 0.0846256 8.46098e-4 0.01429241 0.2561881 0.01424372 0.2568563 0.08654755 9.29676e-4 0.01444977 9.39868e-4 0.08654588 7.51536e-4 0.08678334 0.2566559 0.01465141 7.50087e-4 0.01466196 0.4414631 0.2359114 0.4411777 0.1842424 0.4610059 0.2100657 0.4609215 0.210415 0.4414336 0.2359002 0.4412392 0.1842687 0.2562425 0.0846256 8.46098e-4 0.01429241 0.2561881 0.01424372 9.39868e-4 0.08654588 0.2568532 0.01440376 9.29676e-4 0.01444977 7.50087e-4 0.01466196 0.2566313 0.08673894 0.2566559 0.01465141 0.4414631 0.2359114 0.4411777 0.1842424 0.4610059 0.2100657 0.4609215 0.210415 0.4414336 0.2359002 0.4412392 0.1842687 0.2562425 0.0846256 8.46098e-4 0.01429241 0.2561881 0.01424372 0.2568563 0.08654755 9.29676e-4 0.01444977 9.39868e-4 0.08654588 7.51536e-4 0.08678334 0.2566559 0.01465141 7.50087e-4 0.01466196 0.4414631 0.2359114 0.4411777 0.1842424 0.4610059 0.2100657 0.4609215 0.210415 0.4414336 0.2359002 0.4412392 0.1842687 0.2562425 0.0846256 8.46098e-4 0.01429241 0.2561881 0.01424372 0.2568563 0.08654755 9.29676e-4 0.01444977 9.39868e-4 0.08654588 7.51536e-4 0.08678334 0.2566559 0.01465141 7.50087e-4 0.01466196 0.4414631 0.2359114 0.4411777 0.1842424 0.4610059 0.2100657 0.4609215 0.210415 0.4414336 0.2359002 0.4412392 0.1842687 0.2562425 0.0846256 8.46098e-4 0.01429241 0.2561881 0.01424372 9.39868e-4 0.08654588 0.2568532 0.01440376 9.29676e-4 0.01444977 7.50087e-4 0.01466196 0.2566313 0.08673894 0.2566559 0.01465141 0.4414631 0.2359114 0.4411777 0.1842424 0.4610059 0.2100657 0.4609215 0.210415 0.4414336 0.2359002 0.4412392 0.1842687 8.51164e-4 0.08464521 0.2561881 0.01424372 0.2562425 0.0846256 9.39868e-4 0.08654588 0.2568532 0.01440376 9.29676e-4 0.01444977 7.50087e-4 0.01466196 0.2566313 0.08673894 0.2566559 0.01465141 0.4414631 0.2359114 0.4411777 0.1842424 0.4610059 0.2100657 0.4609215 0.210415 0.4414336 0.2359002 0.4412392 0.1842687 8.51164e-4 0.08464521 0.2561881 0.01424372 0.2562425 0.0846256 9.39868e-4 0.08654588 0.2568532 0.01440376 9.29676e-4 0.01444977 7.50087e-4 0.01466196 0.2566313 0.08673894 0.2566559 0.01465141 0.4414631 0.2359114 0.4411777 0.1842424 0.4610059 0.2100657 0.4609215 0.210415 0.4414336 0.2359002 0.4412392 0.1842687 8.51164e-4 0.08464521 0.2561881 0.01424372 0.2562425 0.0846256 0.2568563 0.08654755 9.29676e-4 0.01444977 9.39868e-4 0.08654588 7.51536e-4 0.08678334 0.2566559 0.01465141 7.50087e-4 0.01466196 0.4414631 0.2359114 0.4411777 0.1842424 0.4610059 0.2100657 0.4609215 0.210415 0.4414336 0.2359002 0.4412392 0.1842687 8.51164e-4 0.08464521 0.2561881 0.01424372 0.2562425 0.0846256 9.39868e-4 0.08654588 0.2568532 0.01440376 9.29676e-4 0.01444977 7.50087e-4 0.01466196 0.2566313 0.08673894 0.2566559 0.01465141 0.4414631 0.2359114 0.4411777 0.1842424 0.4610059 0.2100657 0.4609215 0.210415 0.4414336 0.2359002 0.4412392 0.1842687 8.51164e-4 0.08464521 0.2561881 0.01424372 0.2562425 0.0846256 0.2568563 0.08654755 9.29676e-4 0.01444977 9.39868e-4 0.08654588 7.51536e-4 0.08678334 0.2566559 0.01465141 7.50087e-4 0.01466196 0.4414631 0.2359114 0.4411777 0.1842424 0.4610059 0.2100657 0.4609215 0.210415 0.4414336 0.2359002 0.4412392 0.1842687 0.3854644 0.609721 0.3854634 0.2444917 0.5275191 0.244165 0.6163883 0.5775473 0.4261446 0.5775473 0.4261446 0.3111562 0.5273835 0.2444917 0.5273831 0.609721 0.3854836 0.6100477 0.3854836 0.6095741 0.3854829 0.2443447 0.5273835 0.244018 0.5275185 0.2448183 0.5275178 0.6100477 0.3854655 0.6103745 0.4102205 0.9077553 0.4110019 0.9686425 0.6471555 0.9686054 0.646512 0.9964857 0.6477717 0.6276981 0.4266625 0.6276212 0.4018847 0.9077379 0.4021937 0.9685987 0.6559784 0.9685589 0.6559784 0.9685589 0.6725732 0.9685564 0.6725727 0.9095228 0.3856152 0.9687365 0.411025 0.9687326 0.4102434 0.9077916 0.4266574 0.6277927 0.413926 0.6358824 0.4139269 0.9978769 0.6604858 0.6358824 0.6425188 0.6277821 0.6393282 0.9964721 0.4266625 0.6276212 0.4139308 0.6357147 0.4139319 0.9979058 0.660521 0.6357147 0.6425529 0.6276106 0.639362 0.9965004 0.4350821 0.9964833 0.4318885 0.6277088 0.4139217 0.6357977 0.6605053 0.9978912 0.6605033 0.6357976 0.6477717 0.6276981 0.4351018 0.9965116 0.639362 0.9965004 0.6425529 0.6276106 0.6216421 0.9378412 0.6252647 0.9502093 0.6180926 0.961232 0.6237009 0.9196767 0.6282355 0.9235985 0.6252647 0.9502093 0.4594271 0.937842 0.4642381 0.9457538 0.4629769 0.9612319 0.4573686 0.9196791 0.4594271 0.937842 0.4558048 0.9502093 0.6216424 0.6760573 0.6168313 0.6681455 0.6180926 0.6526674 0.6237009 0.6942201 0.6216424 0.6760573 0.6252647 0.6636902 0.4573687 0.6942226 0.452834 0.690301 0.4558048 0.66369 0.4594274 0.6760581 0.4558048 0.66369 0.4629769 0.6526674 0.6237009 0.6942201 0.6282355 0.690301 0.6282355 0.9235985 0.4642381 0.9457538 0.6168308 0.9457538 0.6180926 0.961232 0.6168313 0.6681455 0.4642388 0.6681455 0.4629769 0.6526674 0.4573686 0.9196791 0.452834 0.9235984 0.452834 0.690301 0.411025 0.9687326 0.6471948 0.9686955 0.6479757 0.9077773 0.6725836 0.9095599 0.6562973 0.9077584 0.6559889 0.968649 0.4110019 0.9686425 0.4102205 0.9077553 0.3855936 0.9095599 0.6726042 0.9095786 0.6479757 0.9077773 0.6471948 0.9686955 0.4021998 0.9686888 0.4018907 0.9077741 0.3856043 0.9095786 0.6725631 0.9095415 0.6479362 0.907741 0.6471555 0.9686054 0.4021937 0.9685987 0.4018847 0.9077379 0.3855986 0.9095415 0.41394 0.63563 0.413941 0.9979202 0.4351018 0.9965116 0.6477625 0.6278696 0.6465027 0.9964574 0.6604959 0.9978622 0.6477625 0.6278696 0.4266574 0.6277927 0.4279201 0.9964697 0.6559889 0.968649 0.6562973 0.9077584 0.4018907 0.9077741 0.4318885 0.6277088 0.4350821 0.9964833 0.6393282 0.9964721 0.4594271 0.937842 0.4573686 0.9196791 0.4642381 0.9457538 0.4573686 0.9196791 0.4573687 0.6942226 0.4642381 0.9457538 0.4573687 0.6942226 0.4594274 0.6760581 0.4642388 0.6681455 0.4642388 0.6681455 0.6168313 0.6681455 0.6168308 0.9457538 0.6168313 0.6681455 0.6216424 0.6760573 0.6237009 0.6942201 0.6237009 0.9196767 0.6168313 0.6681455 0.6237009 0.6942201 0.6237009 0.9196767 0.6216421 0.9378412 0.6168308 0.9457538 0.6168308 0.9457538 0.4642381 0.9457538 0.4642388 0.6681455 0.4642388 0.6681455 0.4642381 0.9457538 0.4573687 0.6942226 0.2562425 0.0846256 8.51164e-4 0.08464521 8.46098e-4 0.01429241 0.2568563 0.08654755 0.2568532 0.01440376 9.29676e-4 0.01444977 7.51536e-4 0.08678334 0.2566313 0.08673894 0.2566559 0.01465141 0.2562425 0.0846256 8.51164e-4 0.08464521 8.46098e-4 0.01429241 9.39868e-4 0.08654588 0.2568563 0.08654755 0.2568532 0.01440376 7.50087e-4 0.01466196 7.51536e-4 0.08678334 0.2566313 0.08673894 8.51164e-4 0.08464521 8.46098e-4 0.01429241 0.2561881 0.01424372 9.39868e-4 0.08654588 0.2568563 0.08654755 0.2568532 0.01440376 7.50087e-4 0.01466196 7.51536e-4 0.08678334 0.2566313 0.08673894 8.51164e-4 0.08464521 8.46098e-4 0.01429241 0.2561881 0.01424372 9.39868e-4 0.08654588 0.2568563 0.08654755 0.2568532 0.01440376 7.50087e-4 0.01466196 7.51536e-4 0.08678334 0.2566313 0.08673894 8.51164e-4 0.08464521 8.46098e-4 0.01429241 0.2561881 0.01424372 0.2568563 0.08654755 0.2568532 0.01440376 9.29676e-4 0.01444977 7.51536e-4 0.08678334 0.2566313 0.08673894 0.2566559 0.01465141 8.51164e-4 0.08464521 8.46098e-4 0.01429241 0.2561881 0.01424372 9.39868e-4 0.08654588 0.2568563 0.08654755 0.2568532 0.01440376 7.50087e-4 0.01466196 7.51536e-4 0.08678334 0.2566313 0.08673894 8.51164e-4 0.08464521 8.46098e-4 0.01429241 0.2561881 0.01424372 0.2568563 0.08654755 0.2568532 0.01440376 9.29676e-4 0.01444977 7.51536e-4 0.08678334 0.2566313 0.08673894 0.2566559 0.01465141 0.2562425 0.0846256 8.51164e-4 0.08464521 8.46098e-4 0.01429241 0.2568563 0.08654755 0.2568532 0.01440376 9.29676e-4 0.01444977 7.50087e-4 0.01466196 7.51536e-4 0.08678334 0.2566313 0.08673894 0.2562425 0.0846256 8.51164e-4 0.08464521 8.46098e-4 0.01429241 0.2568563 0.08654755 0.2568532 0.01440376 9.29676e-4 0.01444977 7.51536e-4 0.08678334 0.2566313 0.08673894 0.2566559 0.01465141 0.2562425 0.0846256 8.51164e-4 0.08464521 8.46098e-4 0.01429241 9.39868e-4 0.08654588 0.2568563 0.08654755 0.2568532 0.01440376 7.50087e-4 0.01466196 7.51536e-4 0.08678334 0.2566313 0.08673894 0.2562425 0.0846256 8.51164e-4 0.08464521 8.46098e-4 0.01429241 9.39868e-4 0.08654588 0.2568563 0.08654755 0.2568532 0.01440376 7.50087e-4 0.01466196 7.51536e-4 0.08678334 0.2566313 0.08673894 0.2562425 0.0846256 8.51164e-4 0.08464521 8.46098e-4 0.01429241 0.2568563 0.08654755 0.2568532 0.01440376 9.29676e-4 0.01444977 7.51536e-4 0.08678334 0.2566313 0.08673894 0.2566559 0.01465141 0.2562425 0.0846256 8.51164e-4 0.08464521 8.46098e-4 0.01429241 9.39868e-4 0.08654588 0.2568563 0.08654755 0.2568532 0.01440376 7.50087e-4 0.01466196 7.51536e-4 0.08678334 0.2566313 0.08673894 0.2562425 0.0846256 8.51164e-4 0.08464521 8.46098e-4 0.01429241 0.2568563 0.08654755 0.2568532 0.01440376 9.29676e-4 0.01444977 7.51536e-4 0.08678334 0.2566313 0.08673894 0.2566559 0.01465141 0.2562425 0.0846256 8.51164e-4 0.08464521 8.46098e-4 0.01429241 0.2568563 0.08654755 0.2568532 0.01440376 9.29676e-4 0.01444977 7.50087e-4 0.01466196 7.51536e-4 0.08678334 0.2566313 0.08673894 0.2562425 0.0846256 8.51164e-4 0.08464521 8.46098e-4 0.01429241 0.2568563 0.08654755 0.2568532 0.01440376 9.29676e-4 0.01444977 7.51536e-4 0.08678334 0.2566313 0.08673894 0.2566559 0.01465141 0.2562425 0.0846256 8.51164e-4 0.08464521 8.46098e-4 0.01429241 9.39868e-4 0.08654588 0.2568563 0.08654755 0.2568532 0.01440376 7.50087e-4 0.01466196 7.51536e-4 0.08678334 0.2566313 0.08673894 0.2562425 0.0846256 8.51164e-4 0.08464521 8.46098e-4 0.01429241 9.39868e-4 0.08654588 0.2568563 0.08654755 0.2568532 0.01440376 7.50087e-4 0.01466196 7.51536e-4 0.08678334 0.2566313 0.08673894 0.2562425 0.0846256 8.51164e-4 0.08464521 8.46098e-4 0.01429241 0.2568563 0.08654755 0.2568532 0.01440376 9.29676e-4 0.01444977 7.51536e-4 0.08678334 0.2566313 0.08673894 0.2566559 0.01465141 0.2562425 0.0846256 8.51164e-4 0.08464521 8.46098e-4 0.01429241 9.39868e-4 0.08654588 0.2568563 0.08654755 0.2568532 0.01440376 7.50087e-4 0.01466196 7.51536e-4 0.08678334 0.2566313 0.08673894 0.2562425 0.0846256 8.51164e-4 0.08464521 8.46098e-4 0.01429241 0.2568563 0.08654755 0.2568532 0.01440376 9.29676e-4 0.01444977 7.51536e-4 0.08678334 0.2566313 0.08673894 0.2566559 0.01465141 0.2562425 0.0846256 8.51164e-4 0.08464521 8.46098e-4 0.01429241 0.2568563 0.08654755 0.2568532 0.01440376 9.29676e-4 0.01444977 7.51536e-4 0.08678334 0.2566313 0.08673894 0.2566559 0.01465141 0.2562425 0.0846256 8.51164e-4 0.08464521 8.46098e-4 0.01429241 9.39868e-4 0.08654588 0.2568563 0.08654755 0.2568532 0.01440376 7.50087e-4 0.01466196 7.51536e-4 0.08678334 0.2566313 0.08673894 8.51164e-4 0.08464521 8.46098e-4 0.01429241 0.2561881 0.01424372 9.39868e-4 0.08654588 0.2568563 0.08654755 0.2568532 0.01440376 7.50087e-4 0.01466196 7.51536e-4 0.08678334 0.2566313 0.08673894 8.51164e-4 0.08464521 8.46098e-4 0.01429241 0.2561881 0.01424372 9.39868e-4 0.08654588 0.2568563 0.08654755 0.2568532 0.01440376 7.50087e-4 0.01466196 7.51536e-4 0.08678334 0.2566313 0.08673894 8.51164e-4 0.08464521 8.46098e-4 0.01429241 0.2561881 0.01424372 0.2568563 0.08654755 0.2568532 0.01440376 9.29676e-4 0.01444977 7.51536e-4 0.08678334 0.2566313 0.08673894 0.2566559 0.01465141 8.51164e-4 0.08464521 8.46098e-4 0.01429241 0.2561881 0.01424372 9.39868e-4 0.08654588 0.2568563 0.08654755 0.2568532 0.01440376 7.50087e-4 0.01466196 7.51536e-4 0.08678334 0.2566313 0.08673894 8.51164e-4 0.08464521 8.46098e-4 0.01429241 0.2561881 0.01424372 0.2568563 0.08654755 0.2568532 0.01440376 9.29676e-4 0.01444977 7.51536e-4 0.08678334 0.2566313 0.08673894 0.2566559 0.01465141</float_array>
          <technique_common>
            <accessor source="#Esfera_596-mesh-map-0-array" count="948" stride="2">
              <param name="S" type="float"/>
              <param name="T" type="float"/>
            </accessor>
          </technique_common>
        </source>
        <vertices id="Esfera_596-mesh-vertices">
          <input semantic="POSITION" source="#Esfera_596-mesh-positions"/>
        </vertices>
        <triangles material="A_A_A-Textura_garamante-material" count="316">
          <input semantic="VERTEX" source="#Esfera_596-mesh-vertices" offset="0"/>
          <input semantic="NORMAL" source="#Esfera_596-mesh-normals" offset="1"/>
          <input semantic="TEXCOORD" source="#Esfera_596-mesh-map-0" offset="2" set="0"/>
          <p>7 0 0 4 0 1 3 1 2 2 2 3 5 3 4 6 4 5 5 5 6 1 5 7 6 6 8 3 7 9 2 7 10 0 7 11 6 8 12 0 9 13 2 10 14 53 11 15 25 12 16 49 13 17 55 14 18 12 15 19 50 16 20 47 17 21 20 18 22 44 19 23 20 18 24 45 20 25 44 19 26 21 21 27 46 22 28 45 20 29 15 23 30 48 24 31 47 17 32 16 25 33 49 26 34 48 24 35 12 15 36 51 27 37 50 16 38 13 28 39 52 29 40 51 27 41 53 30 42 19 31 43 54 32 44 54 32 45 17 33 46 55 14 47 46 34 48 11 35 49 9 36 50 33 37 51 20 38 52 32 39 53 34 40 54 21 41 55 33 37 56 35 42 57 24 43 58 23 44 59 37 45 60 23 44 61 25 46 62 38 47 63 27 48 64 26 49 65 40 50 66 26 49 67 28 51 68 42 52 69 29 53 70 41 54 71 41 54 72 31 55 73 43 56 74 40 50 75 22 57 76 34 40 77 36 58 78 20 38 79 24 43 80 39 59 81 31 55 82 27 48 83 37 45 84 30 60 85 42 52 86 22 61 87 52 62 88 46 34 89 54 32 90 31 63 91 29 64 92 30 65 93 54 32 94 29 64 95 51 27 96 28 66 97 26 67 98 27 68 99 51 27 100 26 67 101 48 24 102 25 69 103 23 70 104 24 71 105 48 24 106 23 70 107 10 72 108 46 22 109 9 73 110 8 74 111 45 20 112 10 72 113 8 74 114 47 17 115 44 19 116 31 63 117 50 16 118 27 68 119 18 75 120 49 13 121 14 76 122 39 77 123 34 40 124 32 78 125 57 79 126 59 80 127 58 81 128 56 82 129 59 83 130 60 84 131 61 85 132 56 86 133 60 87 134 57 88 135 58 88 136 56 88 137 61 89 138 60 89 139 59 89 140 63 90 141 65 91 142 64 92 143 66 93 144 64 94 145 65 95 146 66 96 147 63 97 148 62 98 149 63 99 150 64 99 151 62 99 152 67 100 153 66 100 154 65 100 155 73 101 156 70 102 157 69 103 158 72 104 159 70 105 160 71 106 161 72 107 162 69 108 163 68 109 164 69 110 165 70 110 166 68 110 167 73 111 168 72 111 169 71 111 170 79 112 171 76 113 172 75 114 173 78 115 174 76 116 175 77 117 176 78 118 177 75 119 178 74 120 179 75 121 180 76 121 181 74 121 182 79 122 183 78 122 184 77 122 185 85 123 186 82 124 187 81 125 188 80 126 189 83 127 190 84 128 191 85 129 192 80 130 193 84 131 194 81 132 195 82 132 196 80 132 197 85 133 198 84 133 199 83 133 200 91 134 201 88 135 202 87 136 203 90 137 204 88 138 205 89 139 206 90 140 207 87 141 208 86 142 209 87 143 210 88 143 211 86 143 212 91 144 213 90 144 214 89 144 215 97 145 216 94 146 217 93 147 218 92 148 219 95 149 220 96 150 221 97 151 222 92 152 223 96 153 224 93 154 225 94 154 226 92 154 227 97 155 228 96 155 229 95 155 230 99 156 231 101 157 232 100 158 233 98 159 234 101 160 235 102 161 236 102 162 237 99 163 238 98 164 239 99 165 240 100 165 241 98 165 242 103 166 243 102 166 244 101 166 245 105 167 246 107 168 247 106 169 248 104 170 249 107 171 250 108 172 251 109 173 252 104 174 253 108 175 254 105 176 255 106 176 256 104 176 257 109 177 258 108 177 259 107 177 260 111 178 261 113 179 262 112 180 263 114 181 264 112 182 265 113 183 266 114 184 267 111 185 268 110 186 269 111 187 270 112 187 271 110 187 272 115 188 273 114 188 274 113 188 275 117 189 276 119 190 277 118 191 278 120 192 279 118 193 280 119 194 281 120 195 282 117 196 283 116 197 284 117 198 285 118 198 286 116 198 287 121 199 288 120 199 289 119 199 290 123 200 291 125 201 292 124 202 293 122 203 294 125 204 295 126 205 296 127 206 297 122 207 298 126 208 299 123 209 300 124 209 301 122 209 302 127 210 303 126 210 304 125 210 305 129 211 306 131 212 307 130 213 308 132 214 309 130 215 310 131 216 311 132 217 312 129 218 313 128 197 314 129 219 315 130 219 316 128 219 317 133 220 318 132 220 319 131 220 320 135 221 321 137 222 322 136 223 323 134 224 324 137 225 325 138 226 326 139 227 327 134 228 328 138 229 329 135 230 330 136 230 331 134 230 332 139 231 333 138 231 334 137 231 335 141 232 336 143 233 337 142 234 338 140 235 339 143 236 340 144 237 341 144 238 342 141 239 343 140 240 344 141 241 345 142 241 346 140 241 347 145 242 348 144 242 349 143 242 350 147 243 351 149 244 352 148 245 353 146 246 354 149 247 355 150 248 356 151 249 357 146 250 358 150 251 359 147 252 360 148 252 361 146 252 362 151 253 363 150 253 364 149 253 365 153 254 366 155 255 367 154 256 368 156 257 369 154 258 370 155 259 371 156 260 372 153 261 373 152 262 374 153 187 375 154 187 376 152 187 377 157 263 378 156 263 379 155 263 380 159 264 381 161 265 382 160 266 383 162 267 384 160 268 385 161 269 386 162 270 387 159 271 388 158 272 389 159 198 390 160 198 391 158 198 392 163 273 393 162 273 394 161 273 395 165 274 396 167 275 397 166 276 398 164 277 399 167 278 400 168 279 401 169 280 402 164 281 403 168 282 404 165 283 405 166 283 406 164 283 407 169 284 408 168 284 409 167 284 410 171 285 411 173 286 412 172 287 413 174 288 414 172 289 415 173 290 416 174 291 417 171 292 418 170 293 419 171 219 420 172 219 421 170 219 422 175 294 423 174 294 424 173 294 425 177 295 426 179 296 427 178 297 428 176 298 429 179 299 430 180 300 431 181 301 432 176 302 433 180 303 434 177 304 435 178 304 436 176 304 437 181 231 438 180 231 439 179 231 440 183 305 441 185 306 442 184 307 443 182 308 444 185 309 445 186 310 446 187 311 447 182 312 448 186 313 449 183 314 450 184 314 451 182 314 452 187 89 453 186 89 454 185 89 455 189 315 456 191 316 457 190 317 458 192 318 459 190 319 460 191 320 461 192 321 462 189 322 463 188 323 464 189 324 465 190 324 466 188 324 467 193 325 468 192 325 469 191 325 470 199 326 471 196 327 472 195 328 473 198 329 474 196 330 475 197 331 476 198 332 477 195 333 478 194 334 479 195 335 480 196 335 481 194 335 482 199 336 483 198 336 484 197 336 485 205 337 486 202 338 487 201 339 488 204 340 489 202 341 490 203 342 491 204 343 492 201 344 493 200 345 494 201 346 495 202 346 496 200 346 497 205 347 498 204 347 499 203 347 500 211 348 501 208 349 502 207 350 503 206 351 504 209 352 505 210 353 506 211 354 507 206 355 508 210 356 509 207 357 510 208 357 511 206 357 512 211 358 513 210 358 514 209 358 515 217 359 516 214 360 517 213 361 518 216 362 519 214 363 520 215 364 521 216 365 522 213 366 523 212 367 524 213 368 525 214 368 526 212 368 527 217 369 528 216 369 529 215 369 530 223 370 531 220 371 532 219 372 533 218 373 534 221 374 535 222 375 536 223 376 537 218 377 538 222 378 539 219 379 540 220 379 541 218 379 542 223 380 543 222 380 544 221 380 545 7 0 546 5 1 547 4 0 548 2 2 549 4 381 550 5 3 551 5 5 552 7 5 553 1 5 554 3 7 555 4 7 556 2 7 557 6 8 558 1 382 559 0 9 560 53 11 561 30 383 562 25 12 563 55 14 564 17 33 565 12 15 566 47 17 567 24 71 568 20 18 569 20 18 570 21 21 571 45 20 572 21 21 573 22 384 574 46 22 575 15 23 576 16 25 577 48 24 578 16 25 579 14 385 580 49 26 581 12 15 582 13 28 583 51 27 584 13 28 585 11 386 586 52 29 587 53 30 588 18 387 589 19 31 590 54 32 591 19 31 592 17 33 593 46 34 594 52 62 595 11 35 596 33 37 597 21 41 598 20 38 599 34 40 600 22 57 601 21 41 602 35 42 603 36 58 604 24 43 605 37 45 606 35 42 607 23 44 608 38 47 609 39 59 610 27 48 611 40 50 612 38 47 613 26 49 614 42 52 615 30 60 616 29 53 617 41 54 618 29 53 619 31 55 620 40 50 621 28 51 622 22 57 623 36 58 624 32 39 625 20 38 626 39 59 627 43 56 628 31 55 629 37 45 630 25 46 631 30 60 632 22 61 633 28 388 634 52 62 635 54 32 636 55 14 637 31 63 638 30 65 639 53 30 640 54 32 641 51 27 642 52 29 643 28 66 644 27 68 645 50 16 646 51 27 647 48 24 648 49 26 649 25 69 650 24 71 651 47 17 652 48 24 653 10 72 654 45 20 655 46 22 656 8 74 657 44 19 658 45 20 659 8 74 660 15 23 661 47 17 662 31 63 663 55 14 664 50 16 665 18 75 666 53 11 667 49 13 668 35 42 669 37 45 670 36 389 671 37 45 672 42 52 673 36 389 674 42 52 675 41 54 676 43 390 677 43 390 678 39 77 679 32 78 680 39 77 681 38 47 682 40 50 683 34 40 684 39 77 685 40 50 686 34 40 687 33 37 688 32 78 689 32 78 690 36 389 691 43 390 692 43 390 693 36 389 694 42 52 695 57 79 696 61 391 697 59 80 698 56 82 699 58 392 700 59 83 701 61 85 702 57 393 703 56 86 704 63 90 705 67 394 706 65 91 707 66 93 708 62 395 709 64 94 710 66 96 711 67 396 712 63 97 713 73 101 714 71 397 715 70 102 716 72 104 717 68 398 718 70 105 719 72 107 720 73 399 721 69 108 722 79 112 723 77 400 724 76 113 725 78 115 726 74 401 727 76 116 728 78 118 729 79 402 730 75 119 731 85 123 732 83 403 733 82 124 734 80 126 735 82 404 736 83 127 737 85 129 738 81 405 739 80 130 740 91 134 741 89 406 742 88 135 743 90 137 744 86 407 745 88 138 746 90 140 747 91 408 748 87 141 749 97 145 750 95 409 751 94 146 752 92 148 753 94 410 754 95 149 755 97 151 756 93 411 757 92 152 758 99 156 759 103 412 760 101 157 761 98 159 762 100 413 763 101 160 764 102 162 765 103 414 766 99 163 767 105 167 768 109 415 769 107 168 770 104 170 771 106 416 772 107 171 773 109 173 774 105 417 775 104 174 776 111 178 777 115 418 778 113 179 779 114 181 780 110 419 781 112 182 782 114 184 783 115 420 784 111 185 785 117 189 786 121 421 787 119 190 788 120 192 789 116 422 790 118 193 791 120 195 792 121 423 793 117 196 794 123 200 795 127 424 796 125 201 797 122 203 798 124 425 799 125 204 800 127 206 801 123 426 802 122 207 803 129 211 804 133 427 805 131 212 806 132 214 807 128 428 808 130 215 809 132 217 810 133 429 811 129 218 812 135 221 813 139 430 814 137 222 815 134 224 816 136 431 817 137 225 818 139 227 819 135 432 820 134 228 821 141 232 822 145 433 823 143 233 824 140 235 825 142 434 826 143 236 827 144 238 828 145 435 829 141 239 830 147 243 831 151 436 832 149 244 833 146 246 834 148 437 835 149 247 836 151 249 837 147 438 838 146 250 839 153 254 840 157 418 841 155 255 842 156 257 843 152 439 844 154 258 845 156 260 846 157 440 847 153 261 848 159 264 849 163 441 850 161 265 851 162 267 852 158 442 853 160 268 854 162 270 855 163 443 856 159 271 857 165 274 858 169 444 859 167 275 860 164 277 861 166 445 862 167 278 863 169 280 864 165 446 865 164 281 866 171 285 867 175 447 868 173 286 869 174 288 870 170 448 871 172 289 872 174 291 873 175 449 874 171 292 875 177 295 876 181 450 877 179 296 878 176 298 879 178 451 880 179 299 881 181 301 882 177 452 883 176 302 884 183 305 885 187 391 886 185 306 887 182 308 888 184 453 889 185 309 890 187 311 891 183 454 892 182 312 893 189 315 894 193 455 895 191 316 896 192 318 897 188 456 898 190 319 899 192 321 900 193 457 901 189 322 902 199 326 903 197 458 904 196 327 905 198 329 906 194 459 907 196 330 908 198 332 909 199 460 910 195 333 911 205 337 912 203 461 913 202 338 914 204 340 915 200 462 916 202 341 917 204 343 918 205 463 919 201 344 920 211 348 921 209 403 922 208 349 923 206 351 924 208 464 925 209 352 926 211 354 927 207 465 928 206 355 929 217 359 930 215 466 931 214 360 932 216 362 933 212 467 934 214 363 935 216 365 936 217 468 937 213 366 938 223 370 939 221 469 940 220 371 941 218 373 942 220 470 943 221 374 944 223 376 945 219 471 946 218 377 947</p>
        </triangles>
      </mesh>
    </geometry>
  </library_geometries>
  <library_visual_scenes>
    <visual_scene id="Scene" name="Scene">
      <node id="wall_tower" name="wall_tower" type="NODE">
        <matrix sid="transform">1 0 0 0 0 1 0 0 0 0 1 0 0 0 0 1</matrix>
        <instance_geometry url="#Esfera_596-mesh" name="wall_tower">
          <bind_material>
            <technique_common>
              <instance_material symbol="A_A_A-Textura_garamante-material" target="#A_A_A-Textura_garamante-material">
                <bind_vertex_input semantic="MapaUV" input_semantic="TEXCOORD" input_set="0"/>
              </instance_material>
            </technique_common>
          </bind_material>
        </instance_geometry>
      </node>
    </visual_scene>
  </library_visual_scenes>
  <scene>
    <instance_visual_scene url="#Scene"/>
  </scene>
</COLLADA>