<?xml version="1.0" encoding="utf-8"?>
<COLLADA xmlns="http://www.collada.org/2005/11/COLLADASchema" version="1.4.1" xmlns:xsi="http://www.w3.org/2001/XMLSchema-instance">
  <asset>
    <contributor>
      <author>Blender User</author>
      <authoring_tool>Blender 4.3.1 commit date:2024-12-10, commit time:07:46, hash:33d812126174</authoring_tool>
    </contributor>
    <created>2026-08-20T09:36:42</created>
    <modified>2026-08-20T09:36:42</modified>
    <unit name="meter" meter="1"/>
    <up_axis>Z_UP</up_axis>
  </asset>
  <library_effects>
    <effect id="A-exturas_soninké-effect">
      <profile_COMMON>
        <technique sid="common">
          <lambert>
            <emission>
              <color sid="emission">0 0 0 1</color>
            </emission>
            <diffuse>
              <color sid="diffuse">0.8 0.8 0.8 1</color>
            </diffuse>
            <index_of_refraction>
              <float sid="ior">1.45</float>
            </index_of_refraction>
          </lambert>
        </technique>
      </profile_COMMON>
    </effect>
  </library_effects>
  <library_images/>
  <library_materials>
    <material id="A-exturas_soninké-material" name="A-exturas soninké">
      <instance_effect url="#A-exturas_soninké-effect"/>
    </material>
  </library_materials>
  <library_geometries>
    <geometry id="Cubo_244-mesh" name="Cubo.244">
      <mesh>
        <source id="Cubo_244-mesh-positions">
          <float_array id="Cubo_244-mesh-positions-array" count="567">-3.923514 3.273375 1.017881 -4.324836 -1.112339 1.017881 -2.046267 4.924023 1.017881 -3.872979 3.207579 -9.123705 -4.526448 1.439198 1.017881 -4.469067 1.416623 -9.123705 -4.2606 -1.091691 -9.123705 -4.350837 -2.53014 -9.123705 -3.87564 -4.457904 -9.123705 -4.406937 -2.573718 1.017881 -1.43874 -4.424406 1.017881 -3.923613 -4.524411 1.017881 0.07010072 4.55247 1.017881 1.046127 -4.813713 1.017881 -1.428246 -4.350876 -9.123705 1.019142 -4.733163 -9.123705 2.485434 -3.861849 -9.123705 3.95172 -3.816933 -9.123705 2.520241 -3.9345 1.017881 4.236963 -1.491568 1.017881 1.91272 4.565781 1.017881 3.994353 -3.881685 1.017881 4.117452 2.521347 1.017881 3.755334 4.144143 1.017881 1.886999 4.490406 -9.123705 3.71526 4.076592 -9.123705 4.071372 2.48057 -9.123705 4.603278 0.8845466 -9.123705 4.655364 0.8985502 1.017881 4.189602 -1.466194 -9.123705 0.05873674 4.469277 -9.123705 -2.02668 4.849527 -9.123705 -3.331581 2.787648 0.8859465 -2.3615 1.556349 13.0092 3.201495 3.636216 0.8859465 2.290169 2.400922 13.0092 -3.366261 -3.84876 0.8859465 -2.487722 -2.549039 13.0092 3.405933 -3.228237 0.8859465 2.425781 -2.053462 13.0092 0.04954141 3.922518 0.8859465 0.03722763 2.571738 13.0092 0.884325 -4.025394 0.8859465 0.7500916 -2.667881 13.0092 3.996729 0.8602767 0.8859465 2.897833 0.8806557 13.0092 -3.627612 -0.8596287 0.8859465 -2.480701 -0.8748552 13.0092 0.02886772 3.1596 13.0092 2.809044 2.973092 13.0092 3.520866 0.759048 13.0092 2.98823 -2.588046 13.0092 0.7521916 -3.277326 13.0092 -2.938231 -3.192186 13.0092 -3.087897 -0.7271832 13.0092 -2.878298 2.140909 13.0092 0.7500916 -2.667881 11.69436 0.03722763 2.571738 11.69436 2.897833 0.8806557 11.69436 -2.480701 -0.8748552 11.69436 2.290169 2.400922 11.69436 2.425781 -2.053462 11.69436 -2.487722 -2.549039 11.69436 -2.3615 1.556349 11.69436 -3.288357 2.731371 6.982296 3.16722 3.578439 6.982296 3.369468 -3.172854 6.982296 -3.32523 -3.791877 6.982296 0.8612481 -3.956499 6.982296 -3.572667 -0.8419677 6.982296 3.952176 0.8482992 6.982296 -1.760582 4.366179 0.8859465 -1.093019 -2.990098 13.0092 -1.544277 3.661353 13.0092 -1.240969 -3.692421 0.8859465 -0.8688183 -2.363803 13.0092 -1.281698 3.075141 13.0092 -0.8688183 -2.363803 11.69436 -1.281698 3.075141 11.69436 -1.743828 4.302465 6.982296 1.418953 3.283818 13.0092 2.145132 -3.626817 0.8859465 1.625519 3.99684 0.8859465 1.870211 -2.519487 13.0092 1.163698 2.703803 13.0092 1.587936 -1.947473 13.0092 1.163698 2.703803 11.69436 1.587936 -1.947473 11.69436 2.115355 -3.151479 6.982296 1.603518 3.932373 6.982296 3.511218 2.248246 0.8859465 -3.385368 1.065542 13.0092 3.077058 1.866071 13.0092 -3.881871 1.322688 0.8859465 -2.823378 0.6994255 13.0092 2.506102 1.640789 13.0092 -2.823378 0.6994255 11.69436 2.506102 1.640789 11.69436 3.471807 2.213369 6.982296 -3.832785 1.303381 6.982296 3.166656 -0.9144987 13.0092 -3.779652 -2.109538 0.8859465 3.613431 -1.18398 0.8859465 -3.295779 -1.715027 13.0092 2.573908 -0.5864022 13.0092 -2.76693 -1.46729 13.0092 2.573908 -0.5864022 11.69436 -2.76693 -1.46729 11.69436 -3.731667 -2.072266 6.982296 1.567475 -3.532239 10.68166 1.582827 3.969627 10.68166 1.567475 -3.532239 11.20351 2.089291 -3.531273 10.68166 2.089291 -3.531273 11.20351 2.104649 3.970593 11.20351 1.582827 3.969627 11.20351 2.104649 3.970593 10.68166 -0.4605558 -4.18668 10.68166 -0.4605558 4.107903 10.68166 -0.4605558 -4.18668 11.20351 0.06130021 -4.18668 10.68166 0.06130021 -4.18668 11.20351 0.06130021 4.107903 11.20351 -0.4605558 4.107903 11.20351 0.06130021 4.107903 10.68166 -2.637652 -4.050768 10.68166 -2.637652 3.745113 10.68166 -2.637652 -4.050768 11.20351 -2.115795 -4.050768 10.68166 -2.115795 -4.050768 11.20351 -2.115795 3.745113 11.20351 -2.637652 3.745113 11.20351 -2.115795 3.745113 10.68166 4.164477 -0.2564134 10.68166 -4.211346 -0.2555565 10.68166 4.164477 -0.2564134 11.20351 4.164528 0.2654428 10.68166 4.164528 0.2654428 11.20351 -4.211289 0.2663012 10.68166 -4.211289 0.2663012 11.20351 -4.211346 -0.2555565 11.20351 3.748764 -2.68425 10.68166 -4.021026 -2.683455 10.68166 3.748764 -2.68425 11.20351 3.748815 -2.162394 10.68166 3.748815 -2.162394 11.20351 -4.020972 -2.161599 10.68166 -4.020972 -2.161599 11.20351 -4.021026 -2.683455 11.20351 3.731496 1.626379 10.68166 -3.777942 1.627146 10.68166 3.731496 1.626379 11.20351 3.731553 2.148235 10.68166 3.731553 2.148235 11.20351 -3.777888 2.149004 10.68166 -3.777888 2.149004 11.20351 -3.777942 1.627146 11.20351 -3.43308 2.56052 -0.03453749 -3.392997 2.523538 6.488001 -4.062039 3.137082 -0.03254479 -2.60614 3.462612 -0.03466337 -4.023429 3.101472 6.060024 -3.235107 4.039176 -0.0326696 -3.196488 4.003566 6.059897 -2.566063 3.425631 6.487875 -2.598026 -3.77745 -0.03453749 -2.564696 -3.734283 6.488001 -3.117273 -4.454502 -0.03254479 -3.569085 -3.032715 -0.03466337 -3.085185 -4.412916 6.060024 -3.535761 -2.989547 6.487875 -4.056249 -3.668178 6.059897 -4.08834 -3.709764 -0.0326696 3.536763 -2.424112 -0.03453749 3.502407 -2.381759 6.488001 4.076421 -3.085014 -0.03254479 2.58886 -3.198117 -0.03466337 4.043319 -3.044229 6.060024 3.128517 -3.859017 -0.0326696 3.095415 -3.818232 6.059897 2.554505 -3.15576 6.487875 2.602444 3.724476 -0.03453749 2.559185 3.691266 6.488001 3.277587 4.246206 -0.03254479 3.350739 2.756151 -0.03466337 3.235926 4.214211 6.060024 3.307479 2.722943 6.487875 3.984219 3.245886 6.059897 4.025883 3.277881 -0.0326696</float_array>
          <technique_common>
            <accessor source="#Cubo_244-mesh-positions-array" count="189" stride="3">
              <param name="X" type="float"/>
              <param name="Y" type="float"/>
              <param name="Z" type="float"/>
            </accessor>
          </technique_common>
        </source>
        <source id="Cubo_244-mesh-normals">
          <float_array id="Cubo_244-mesh-normals-array" count="1128">0 0 1 0 0 1 0 0 1 -2.49888e-7 0 1 -0.664667 0.7470775 -0.009653329 -0.6603062 0.7509522 -0.00816226 -0.6601561 0.75111 -0.005283594 -0.9928161 0.1194899 -0.006194114 -0.9499676 0.3122754 -0.006759583 -0.9489476 0.315374 -0.006153523 -0.9999211 -0.01130056 -0.005505621 -0.9928703 0.1190324 -0.006324529 -0.9999276 -0.01022571 -0.006354212 -0.9959821 -0.08932858 -0.006327509 -0.9709166 -0.2393326 -0.006399214 -0.9956024 -0.09350043 -0.005803346 0 0 1 0 0 1 -0.9708448 -0.2396256 -0.006341159 -0.970631 -0.240494 -0.006168484 -0.9955973 -0.09355449 -0.00579977 -0.05718272 -0.998342 -0.006583809 0.04021221 -0.999171 -0.006362199 0.04315751 -0.9990434 -0.007070302 -0.1544568 -0.9879722 -0.007355093 -0.1547788 -0.9879212 -0.007434844 -0.05724376 -0.9983358 -0.006985902 -0.1543264 -0.9879928 -0.007322907 -0.05563265 -0.9984247 -0.007296442 0.2799145 -0.9599919 -0.007969319 0.5120459 -0.8589214 -0.007946014 0.5108266 -0.8596448 -0.008186995 0.03109169 -0.9994907 -0.007197916 0.2824949 -0.959238 -0.00769037 0.2798261 -0.9600239 -0.007181465 0.5122268 -0.8588138 -0.007910251 0 0 1 0 0 1 0 0 1 -1.2522e-7 0 1 0.03110784 -0.9994902 -0.007196068 0.03580445 -0.9993376 -0.006531178 0.2824383 -0.9592564 -0.007477462 0.9905872 -0.1367982 -0.004847824 0.9948762 -0.1009857 -0.004826962 0.9949024 -0.1007246 -0.00488758 0 0 1 0.08334344 0.9964941 -0.007321476 0.1086345 0.9940537 -0.007469296 0.1054378 0.9943937 -0.008009433 0.2230546 0.9747781 -0.007374167 0.2210218 0.9752381 -0.007757723 0.9759824 0.2177848 -0.005307137 0.963814 0.2665229 -0.005327403 0.9759864 0.2177668 -0.005310058 0.963804 0.2665588 -0.005331099 0.9635704 0.2673996 -0.005453228 0.9972797 0.07351028 -0.005443036 0.9972833 0.07347589 -0.005223333 0.9905406 -0.1371299 -0.004968881 -2.42708e-7 0 1 0.08432263 0.9964042 -0.008268117 0.178517 0.9839037 -0.008089005 -0.6645278 0.7472329 -0.00677222 0.172913 0.9849129 -0.006900668 0.003575205 0.9980799 0.06183677 0.2172546 0.9697943 0.1109024 0.2205516 0.9735184 0.06015926 -0.1144327 0.9886965 0.09687334 0.06265509 0.9921005 0.1086785 0.003499031 0.9980801 0.06183803 0.9896739 -0.1426936 0.01356858 0.9985153 0.034666 0.04202055 0.9859072 -0.1547054 0.06366509 -0.9870682 0.1303782 0.09326231 -0.8374279 0.5436162 0.05653351 -0.9913797 0.1234881 0.04378342 -0.1236298 -0.9923285 0 -0.07290989 -0.9973386 0 -0.07291263 -0.9973384 0 0.1846009 0.9828136 0 0.03586578 0.9993566 0 0.03585946 0.9993569 0 0.5396168 -0.8374283 0.08676248 0.5546951 -0.824984 0.1082348 0.1416028 -0.9869592 0.0765528 -0.04035198 -0.9989844 0.02004754 0.1415523 -0.9869682 0.07653003 -0.02772653 -0.9954079 0.0916211 0.8492653 -0.5279665 1.54786e-6 0.815013 -0.5794429 0 -0.9619398 -0.2732614 0 -0.9300218 -0.3675047 -2.27586e-7 -0.9300314 -0.3674803 -1.63708e-5 -0.996699 -0.01192992 0.08030515 -0.9992287 0.004645645 0.03899365 -0.9975934 -0.05492717 0.0423156 0.9601475 0.2762782 0.04227572 0.9275296 0.3649734 0.08051955 -0.9619401 -0.2732605 0 -0.9300304 -0.3674827 -8.9556e-6 0.949 0.3050273 0.07973444 0.927521 0.3649939 0.08052492 0.9682673 0.249917 0 0.9682674 0.2499169 0 0.9682673 0.249917 0 1.76235e-7 0 1 7.6295e-7 0 1 0 0 1 -5.54354e-7 0 1 -0.9764806 0.2156059 0 -0.9873907 0.1583026 -2.02842e-6 0.9682672 0.2499172 0 0.1255024 0.9920934 0 0.1255025 0.9920934 0 0.1255024 0.9920934 0 0.9771196 0.2126913 0 0.9771195 0.2126913 0 0.9771194 0.2126917 0 -0.9873921 0.1582939 2.82342e-7 -0.9873912 0.1582995 0 0.9615725 0.2744464 0.007595598 0.9971007 0.07572972 0.007435679 -0.9999668 0.002723932 0.0076828 -0.9983623 -0.05663943 0.008051395 0.9761422 -0.2066028 0.06679713 0.3387719 -0.9406458 0.02047818 0.07573598 -0.997061 0.01155453 -0.8407315 0.541352 0.01042813 -0.9925332 0.1216874 0.008376896 -0.123629 -0.9923285 2.93281e-6 -0.07960355 0.9966519 0.0186634 0.08882474 0.995991 0.01059037 0.2230479 0.9747511 0.01049196 0.9917123 -0.1057317 0.07299119 0.9989468 -0.02721911 0.03693974 -0.7097088 0.7044088 0.01103895 -5.51483e-7 0 1 1.76637e-7 0 1 5.6716e-7 0 1 7.57323e-7 0 1 -0.3565861 -0.9342626 0 -0.830608 0.5473847 0.1022761 -0.7158647 0.6956806 0.05971831 -0.1136787 0.9935176 0 0.2167977 0.9698845 0.1110082 0.00502628 -0.9966207 0.08198803 0.2617411 -0.9649454 0.01928871 0.301412 -0.9534367 0.01046454 -0.6519675 0.7582468 0 -0.6519677 0.7582468 0 -0.6519672 0.7582473 0 -0.05537486 -0.9933559 0.1008851 -0.01952105 -0.9960107 0.08707225 -0.07295441 -0.9973354 7.27177e-6 -0.2596536 -0.9657019 0 -0.07954996 0.9966561 0.01866799 -0.9966293 0.01902747 0.07980078 0.975116 0.2175783 0.04252833 0.9759675 0.2177854 0.007551133 0.8802748 -0.4744641 0 0.8492683 -0.5279616 0 0.8492804 -0.5279421 0 0.3388321 -0.940624 0.02047705 0.9695932 0.2321745 0.07735675 -0.9300206 -0.3675075 9.31323e-7 -0.8889048 -0.458092 0 -9.36702e-7 0 1 5.42146e-7 0 1 1.31798e-7 0 1 -0.1529105 -0.9823285 0.1079318 0.3709912 0.9269133 0.05654388 0.3208234 0.9433601 0.0845232 0.2688565 0.9629914 0.01907247 -0.9721311 -0.2298881 0.04596406 -0.9728588 -0.2312362 0.008705317 -0.9949415 0.1004574 0 -0.9949415 0.1004573 0 0.9004176 -0.4350267 0 0.9004175 -0.4350271 0 0.9004177 -0.4350264 0 0.8150134 -0.5794422 0 8.12658e-7 0 1 -1.55819e-7 0 1 2.99524e-7 0 1 -0.9687072 -0.2335105 0.08413833 3.09774e-7 0 1 0.5396195 -0.8374261 0.08676767 0.557746 -0.8228276 0.1089694 0.5547116 -0.8249725 0.1082384 -3.73707e-6 0 1 8.03028e-6 0 1 0.1846008 0.9828137 0 0.1084123 -0.9898831 0.09153431 0.1816169 -0.9819539 0.05274409 0.9771196 0.2126909 0 0.1255025 0.9920934 0 0.9948647 -0.1009819 0.006868124 2.32343e-6 0 1 -0.3565861 -0.9342625 0 -0.123691 -0.9923208 1.21668e-5 -0.7483139 0.6565621 0.09461832 -0.651968 0.7582466 0 -0.06088966 -0.9929555 0.1016464 -0.2596539 -0.9657018 0 0.880275 -0.4744639 0 -0.8889045 -0.4580928 0 0 0 1 -5.83595e-7 0 1 1.33131e-6 0 1 8.00613e-7 0 1 5.2422e-7 0 1 -4.72469e-7 0 1 -1.04419e-6 0 1 0.238043 0.9712082 0.009495913 0.3709635 0.9269235 0.05655938 0.302609 0.9487697 0.0909059 0.3208172 0.9433622 0.08452332 0.9004173 -0.4350273 0 -1.05195e-6 0 1 -8.98311e-7 0 1 0 0 1 5.63188e-7 0 1 2.04136e-7 0 1 4.20314e-7 0 1 -1.32573e-7 0 1 1.06371e-6 0 1 7.30014e-7 0 1 -4.63224e-7 0 1 -3.84123e-7 0 1 -3.2545e-7 0 1 0.07336014 -0.9972667 0.008811354 -0.999998 0.002046406 0 -0.999998 0.002046465 0 -0.999998 0.002046406 0 0.00185132 -0.9999983 0 0.999998 -0.002047181 0 0.999998 -0.002047181 0 0 0 1 -2.40246e-6 0 1 -2.51329e-6 0 1 -0.9999979 0.002046465 0 -0.001850843 0.9999984 0 -0.001850843 0.9999983 0 -0.001850843 0.9999984 0 -1 0 0 0 -1 0 1 0 0 0 1 0 -1.02304e-4 -1 0 -1.02303e-4 -1 0 -1.02304e-4 -1 0 1 -9.71765e-5 0 1 -9.6301e-5 0 1 -9.80519e-5 0 -1 1.09433e-4 0 -1 1.08557e-4 0 -1 1.10308e-4 0 1.02478e-4 1 0 1.02478e-4 1 0 1.02478e-4 1 0 0 0 1 0 0 1 2.07045e-7 0 1 -1.02303e-4 -1 0 1.02478e-4 1 0 2.18184e-7 0 1 -1.02366e-4 -1 0 -1.02366e-4 -1 0 -1.02366e-4 -1 0 1 -9.76142e-5 0 1 -9.71765e-5 0 -1 1.03305e-4 0 -1 1.05056e-4 0 -1 1.01554e-4 0 1.02366e-4 1 0 0 0 1 -1.27248e-7 0 1 2.19731e-7 0 1 1.02366e-4 1 0 2.35201e-7 0 1 -1.02264e-4 -1 0 1 -1.09433e-4 0 1 -1.10308e-4 0 1 -1.08557e-4 0 -1 1.03305e-4 0 -1 1.03304e-4 0 -1 1.03305e-4 0 1.02486e-4 1 0 1.02486e-4 1 0 1.02486e-4 1 0 -1.62348e-7 0 1 -1.8109e-7 0 1 2.24613e-7 0 1 1.02487e-4 1 0 2.43356e-7 0 1 0.7371213 -0.6757088 -0.008360385 0.737119 -0.6757113 -0.008360862 0.7371193 -0.675711 -0.008360803 -0.6757354 -0.7371443 -2.62882e-5 -0.6757384 -0.7371415 -2.68245e-5 -0.6757382 -0.7371417 -2.67844e-5 -0.6757351 -0.7371446 -2.62364e-5 0.6757422 0.7371381 2.71155e-5 0.675733 0.7371465 2.54032e-5 0.675732 0.7371474 2.52244e-5 -0.7371177 0.6757094 0.008621573 -0.7371172 0.6757099 0.008621692 -0.7371205 0.6757064 0.008620798 -0.737121 0.6757058 0.008620679 -0.3298169 0.3024648 0.8942795 -0.3298174 0.3024648 0.8942795 -0.3298155 0.3024648 0.8942801 0.6757429 0.7371374 2.72538e-5 -0.3298187 0.3024647 0.8942789 0.7371216 -0.6757085 -0.008360326 0.6085413 0.7934782 -0.008360922 0.608541 0.7934784 -0.008361041 0.6085425 0.7934772 -0.008360445 0.7935074 -0.6085606 -2.54646e-5 0.7934997 -0.6085708 -2.72966e-5 0.7935003 -0.60857 -2.71597e-5 0.7935082 -0.6085596 -2.52876e-5 0.6085427 0.7934771 -0.008360385 -0.2724099 -0.3550448 0.8942796 -0.2724093 -0.3550447 0.8942799 -0.2724101 -0.3550449 0.8942795 -0.2724107 -0.355045 0.8942794 -0.7934991 0.6085715 2.63194e-5 -0.7934989 0.6085718 2.63659e-5 -0.7935019 0.6085678 2.57433e-5 -0.608541 -0.7934756 0.008621156 -0.6085402 -0.7934763 0.008621275 -0.6085413 -0.7934756 0.008621156 -0.7935022 0.6085675 2.56831e-5 -0.6085401 -0.7934765 0.008621275 -0.6324534 0.7745534 -0.008361041 -0.6324547 0.7745524 -0.008360624 -0.6324545 0.7745524 -0.008360683 0.7745782 0.6324783 -2.56175e-5 0.7745842 0.632471 -2.68674e-5 0.7745838 0.6324715 -2.6774e-5 0.7745776 0.632479 -2.54967e-5 -0.7745848 -0.6324703 2.73291e-5 -0.7745777 -0.6324788 2.56727e-5 -0.774577 -0.6324797 2.54997e-5 0.6324522 -0.7745515 0.008621156 0.6324522 -0.7745516 0.008621156 0.6324525 -0.7745512 0.008621215 0.6324526 -0.7745512 0.008621215 0.2829663 -0.3466891 0.89428 0.2829666 -0.3466891 0.8942799 0.2829656 -0.3466891 0.8942803 -0.7745853 -0.6324695 2.74629e-5 0.2829673 -0.3466891 0.8942797 -0.6324532 0.7745535 -0.008361101 -0.7912405 -0.6114481 -0.008360862 -0.7912404 -0.6114482 -0.008360862 -0.7912405 -0.6114481 -0.008360803 -0.611468 0.7912693 -2.6011e-5 -0.6114642 0.7912723 -2.64383e-5 -0.6114645 0.7912719 -2.64063e-5 -0.6114683 0.791269 -2.59697e-5 -0.7912405 -0.6114481 -0.008360803 0.3541561 0.2735652 0.8942794 0.3541554 0.2735653 0.8942796 0.3541563 0.2735652 0.8942793 0.3541569 0.2735652 0.8942791 0.6114642 -0.7912722 2.68531e-5 0.6114639 -0.7912724 2.69051e-5 0.6114675 -0.7912696 2.62089e-5 0.7912395 0.6114456 0.008621513 0.7912387 0.6114469 0.008621811 0.7912397 0.6114454 0.008621454 0.6114679 -0.7912694 2.61417e-5 0.7912384 0.6114471 0.008621871</float_array>
          <technique_common>
            <accessor source="#Cubo_244-mesh-normals-array" count="376" stride="3">
              <param name="X" type="float"/>
              <param name="Y" type="float"/>
              <param name="Z" type="float"/>
            </accessor>
          </technique_common>
        </source>
        <source id="Cubo_244-mesh-map-0">
          <float_array id="Cubo_244-mesh-map-0-array" count="1692">0.9289786 0.4549152 0.9537837 0.4549152 0.9289786 0.4013047 0.9537837 0.4549152 0.9289786 0.4549152 0.9413812 0.4549152 0.9896657 0.3680812 0.9896614 0.2593722 0.9639862 0.2593794 0.9126333 0.2593338 0.8869592 0.2593356 0.8869596 0.3680499 0.9383075 0.259332 0.9126333 0.2593338 0.9126349 0.3680492 0.9126333 0.2593338 0.8869596 0.3680499 0.9126349 0.3680492 0.9383075 0.259332 0.9126349 0.3680492 0.93831 0.3680484 0.9639852 0.3680475 0.9383075 0.259332 0.93831 0.3680484 0.9896603 0.3680467 0.9639816 0.2593301 0.9639852 0.3680475 0.9639852 0.3680475 0.9639816 0.2593301 0.9383075 0.259332 0.9785887 0.4013047 0.9537837 0.4549152 0.9661862 0.4549152 0.9785887 0.4013047 0.9661862 0.4549152 0.9785887 0.4549152 0.9896603 0.3680467 0.9896554 0.2593283 0.9639816 0.2593301 0.9126433 0.2595273 0.8869535 0.2595444 0.8869545 0.3681501 0.9289786 0.4013047 0.9785887 0.4013047 0.9289786 0.347694 0.9785887 0.347694 0.9289786 0.347694 0.9785887 0.4013047 0.9785887 0.4013047 0.9289786 0.4013047 0.9537837 0.4549152 0.9383386 0.3681351 0.9383332 0.2595102 0.9126433 0.2595273 0.9383386 0.3681351 0.9126433 0.2595273 0.9126465 0.3681426 0.9126433 0.2595273 0.8869545 0.3681501 0.9126465 0.3681426 0.9640308 0.3681277 0.9383332 0.2595102 0.9383386 0.3681351 0.9897229 0.3681202 0.9640229 0.2594931 0.9640308 0.3681277 0.9640308 0.3681277 0.9640229 0.2594931 0.9383332 0.2595102 0.96619 0.2404283 0.9289786 0.2940836 0.9785887 0.2940836 0.96619 0.2404283 0.9785887 0.2940836 0.9785887 0.240473 0.9289786 0.347694 0.9785887 0.2940836 0.9289786 0.2940836 0.9785887 0.2940836 0.9289786 0.347694 0.9785887 0.347694 0.9897229 0.3681202 0.9897127 0.259476 0.9640229 0.2594931 0.9126421 0.2593709 0.8869504 0.2593067 0.8869494 0.3680312 0.9413849 0.2404283 0.9289786 0.2940836 0.96619 0.2404283 0.9289786 0.240473 0.9289786 0.2940836 0.9413849 0.2404283 0.9383112 0.2593866 0.912636 0.2593938 0.9126374 0.3680906 0.912636 0.2593938 0.8869609 0.2594009 0.8869614 0.3680937 0.912636 0.2593938 0.8869614 0.3680937 0.9126374 0.3680906 0.9897375 0.3680641 0.9897488 0.2593823 0.9640413 0.2594086 0.9897375 0.3680641 0.9640413 0.2594086 0.9640364 0.3680785 0.9640413 0.2594086 0.9383353 0.3680929 0.9640364 0.3680785 0.9383353 0.3680929 0.9383337 0.259435 0.9126421 0.2593709 0.9640413 0.2594086 0.9383337 0.259435 0.9383353 0.3680929 0.9383353 0.3680929 0.9126421 0.2593709 0.9126424 0.368062 0.9126421 0.2593709 0.8869494 0.3680312 0.9126424 0.368062 0.9413849 0.2404283 0.96619 0.2404283 0.9537913 0.2403837 0.9383112 0.2593866 0.9126374 0.3680906 0.9383134 0.3680874 0.9639896 0.3680843 0.9383112 0.2593866 0.9383134 0.3680874 0.9896657 0.3680812 0.9639862 0.2593794 0.9639896 0.3680843 0.9639896 0.3680843 0.9639862 0.2593794 0.9383112 0.2593866 0.1469407 0.7848213 0.1110545 0.9909505 0.1110541 0.7848252 0.1828305 0.9909528 0.1469424 0.9909516 0.1469407 0.8541601 0.1469472 0.649826 0.182858 0.7848243 0.1469482 0.9909093 0.1469392 0.9909233 0.1110517 0.784771 0.1469371 0.7847699 0.1339628 0.6714266 0.1148228 0.6496731 0.1327587 0.6318165 0.04751116 0.667142 0.06704163 0.6963798 0.04933601 0.7133632 0.2187715 0.7848673 0.1828703 0.9909179 0.1828625 0.7848767 0.1469489 0.6500203 0.1828625 0.7848767 0.1469582 0.9909151 0.1340446 0.7569463 0.1155359 0.6968513 0.1340036 0.7141864 0.1315546 0.5922063 0.1028792 0.6256505 0.111906 0.5898746 0.2187128 0.990924 0.1828223 0.7847689 0.2187076 0.7847679 0.2187793 0.7848064 0.1828604 0.9909063 0.182858 0.7848243 0.1315546 0.5922063 0.1141332 0.626986 0.1028792 0.6256505 0.2187793 0.7848064 0.2187727 0.9909033 0.1828604 0.9909063 0.05116087 0.7595846 0.06808686 0.7228536 0.07900047 0.7228811 0.4070488 0.7765301 0.4078099 0.6959584 0.6341157 0.7863504 0.4118417 0.8824683 0.4070488 0.7765301 0.6341157 0.7863504 0.09225744 0.5875428 0.09162533 0.624315 0.07897686 0.6269759 0.05116087 0.7595846 0.07900047 0.7228811 0.07021534 0.7596327 0.04809087 0.5968346 0.06616246 0.6497715 0.04780095 0.6319882 0.08926987 0.7596809 0.1027367 0.7221256 0.1116572 0.7583136 0.09225744 0.5875428 0.07897686 0.6269759 0.07017415 0.5921887 0.2187861 0.649873 0.182858 0.8541631 0.1828555 0.6499056 0.2187076 0.8541067 0.1828187 0.6497777 0.2187025 0.6497755 0.182858 0.7848243 0.1828604 0.9909063 0.1469482 0.9909093 0.2187603 0.6499778 0.1828625 0.8542156 0.1828547 0.6499991 0.1469371 0.8541087 0.1110512 0.6497824 0.1469349 0.6497801 0.1339628 0.6714266 0.1155125 0.6723603 0.1148228 0.6496731 0.182824 0.6498456 0.1828305 0.9909528 0.1469407 0.8541601 0.1469388 0.6498545 0.1110541 0.854164 0.1110535 0.6498634 0.1469482 0.9909093 0.111036 0.9909123 0.1110374 0.8540863 0.2546004 0.8541485 0.2187092 0.6498367 0.2545945 0.6498278 0.6341157 0.7863504 0.6342233 0.8843552 0.6343306 0.9823601 0.4078099 0.6959584 0.4085711 0.6153868 0.4665735 0.6047385 0.5167289 0.9886274 0.4166349 0.9884066 0.4118417 0.8824683 0.1340036 0.7141864 0.1155125 0.6723603 0.1339628 0.6714266 0.2546063 0.9909552 0.2187138 0.7848135 0.2546004 0.7848097 0.04933601 0.7133632 0.06808686 0.7228536 0.05116087 0.7595846 0.1828555 0.6499056 0.182858 0.7848243 0.1469472 0.649826 0.1469407 0.7848213 0.1469424 0.9909516 0.1110545 0.9909505 0.2546804 0.8541969 0.2187603 0.6499778 0.254666 0.6499565 0.04780095 0.6319882 0.06599646 0.6699062 0.04751116 0.667142 0.6343306 0.9823601 0.5167289 0.9886274 0.4118417 0.8824683 0.2546004 0.8541485 0.2187138 0.8541523 0.2187092 0.6498367 0.1828547 0.6499991 0.1828625 0.7848767 0.1469489 0.6500203 0.2546948 0.9909232 0.2187715 0.7848673 0.2546804 0.7848582 0.1327587 0.6318165 0.1141332 0.626986 0.1315546 0.5922063 0.1469388 0.6498545 0.182824 0.6498456 0.1469407 0.8541601 0.2187128 0.990924 0.1828259 0.9909236 0.1828223 0.7847689 0.1828187 0.6497777 0.1469371 0.8541087 0.1469349 0.6497801 0.2547008 0.8541274 0.2187861 0.649873 0.2547166 0.6498402 0.1116572 0.7583136 0.1155593 0.7213425 0.1340446 0.7569463 0.6341157 0.7863504 0.6343306 0.9823601 0.4118417 0.8824683 0.2187603 0.6499778 0.2187715 0.8542062 0.1828625 0.8542156 0.2187076 0.8541067 0.1828223 0.8541078 0.1828187 0.6497777 0.1469371 0.8541087 0.1110517 0.8541098 0.1110512 0.6497824 0.2546849 0.9909004 0.2187793 0.7848064 0.2547008 0.7847886 0.111906 0.5898746 0.09162533 0.624315 0.09225744 0.5875428 0.1828223 0.7847689 0.1469392 0.9909233 0.1469371 0.7847699 0.5095549 0.5896974 0.5604781 0.5896974 0.5118149 0.6280693 0.1828625 0.7848767 0.1828703 0.9909179 0.1469582 0.9909151 0.2187138 0.7848135 0.1828305 0.9909528 0.182824 0.6498456 0.2545929 0.8541058 0.2187025 0.6497755 0.2545863 0.6497732 0.07017415 0.5921887 0.06632846 0.629637 0.04809087 0.5968346 0.07021534 0.7596327 0.08991414 0.7229088 0.08926987 0.7596809 0.1340446 0.7569463 0.1155593 0.7213425 0.1155359 0.6968513 0.1469472 0.649826 0.1469482 0.9909093 0.1110374 0.8540863 0.5604782 0.9411181 0.5095549 0.9411181 0.5472106 0.8999612 0.1469388 0.6498545 0.1469407 0.8541601 0.1110541 0.854164 0.2545996 0.9909242 0.2187076 0.7847679 0.2545929 0.7847669 0.1469392 0.9909233 0.1110524 0.9909231 0.1110517 0.784771 0.6277906 0.604779 0.6309533 0.6955647 0.5761833 0.5994347 0.2187715 0.7848673 0.2187826 0.9909205 0.1828703 0.9909179 0.6343306 0.9823601 0.5755298 0.9854937 0.5167289 0.9886274 0.5167289 0.9886274 0.4666818 0.988517 0.4166349 0.9884066 0.04751116 0.667142 0.06599646 0.6699062 0.06704163 0.6963798 0.2187861 0.649873 0.2187793 0.8541452 0.182858 0.8541631 0.1469582 0.9909151 0.111046 0.9909124 0.1110447 0.854234 0.08926987 0.7596809 0.08991414 0.7229088 0.1027367 0.7221256 0.04809087 0.5968346 0.06632846 0.629637 0.06616246 0.6497715 0.1110388 0.6497464 0.1469472 0.649826 0.1110374 0.8540863 0.6309533 0.6955647 0.6341157 0.7863504 0.4078099 0.6959584 0.5761833 0.5994347 0.6309533 0.6955647 0.4665735 0.6047385 0.4665735 0.6047385 0.5245757 0.5940903 0.5761833 0.5994347 0.4665735 0.6047385 0.6309533 0.6955647 0.4078099 0.6959584 0.1340036 0.7141864 0.1155359 0.6968513 0.1155125 0.6723603 0.2546063 0.9909552 0.2187184 0.990954 0.2187138 0.7848135 0.04933601 0.7133632 0.06704163 0.6963798 0.06808686 0.7228536 0.2546804 0.8541969 0.2187715 0.8542062 0.2187603 0.6499778 0.04780095 0.6319882 0.06616246 0.6497715 0.06599646 0.6699062 0.2546948 0.9909232 0.2187826 0.9909205 0.2187715 0.7848673 0.1327587 0.6318165 0.1148228 0.6496731 0.1141332 0.626986 0.1828187 0.6497777 0.1828223 0.8541078 0.1469371 0.8541087 0.2547008 0.8541274 0.2187793 0.8541452 0.2187861 0.649873 0.1116572 0.7583136 0.1027367 0.7221256 0.1155593 0.7213425 0.2546849 0.9909004 0.2187727 0.9909033 0.2187793 0.7848064 0.111906 0.5898746 0.1028792 0.6256505 0.09162533 0.624315 0.1828223 0.7847689 0.1828259 0.9909236 0.1469392 0.9909233 0.6114015 0.5896974 0.583514 0.6354943 0.5604781 0.5896974 0.583514 0.6354943 0.5476645 0.6317818 0.5604781 0.5896974 0.5118149 0.6280693 0.4715232 0.6354662 0.4586316 0.5896974 0.4715232 0.6354662 0.4312313 0.6428631 0.4586316 0.5896974 0.4586316 0.5896974 0.4312313 0.6428631 0.4077084 0.5896974 0.5476645 0.6317818 0.5118149 0.6280693 0.5604781 0.5896974 0.4586316 0.5896974 0.5095549 0.5896974 0.5118149 0.6280693 0.182824 0.6498456 0.2187092 0.6498367 0.2187138 0.7848135 0.2187138 0.7848135 0.2187184 0.990954 0.1828305 0.9909528 0.2545929 0.8541058 0.2187076 0.8541067 0.2187025 0.6497755 0.07017415 0.5921887 0.07897686 0.6269759 0.06632846 0.629637 0.07021534 0.7596327 0.07900047 0.7228811 0.08991414 0.7229088 0.5879825 0.8297043 0.5879078 0.7616244 0.6114015 0.7654078 0.5879078 0.7616244 0.585711 0.6985594 0.6114015 0.7654078 0.585711 0.6985594 0.583514 0.6354943 0.6114013 0.6775525 0.583514 0.6354943 0.6114015 0.5896974 0.6114013 0.6775525 0.6114013 0.6775525 0.6114015 0.7654078 0.585711 0.6985594 0.6114013 0.853263 0.6114015 0.9411181 0.588057 0.8977842 0.6114015 0.9411181 0.5604782 0.9411181 0.5472106 0.8999612 0.588057 0.8977842 0.6114015 0.9411181 0.5472106 0.8999612 0.5095549 0.9411181 0.4586315 0.9411181 0.4715983 0.9020613 0.4586315 0.9411181 0.4077084 0.9411181 0.4368327 0.9019847 0.4715983 0.9020613 0.4586315 0.9411181 0.4368327 0.9019847 0.4077084 0.853263 0.4077084 0.7654078 0.4335032 0.8283936 0.4077084 0.7654078 0.4077083 0.6775525 0.4301737 0.7548025 0.4077083 0.6775525 0.4077084 0.5896974 0.4312313 0.6428631 0.4312313 0.6428631 0.4307025 0.6988329 0.4077083 0.6775525 0.4307025 0.6988329 0.4301737 0.7548025 0.4077083 0.6775525 0.4301737 0.7548025 0.4335032 0.8283936 0.4077084 0.7654078 0.4335032 0.8283936 0.4368327 0.9019847 0.4077084 0.853263 0.4077084 0.853263 0.4368327 0.9019847 0.4077084 0.9411181 0.4715983 0.9020613 0.5063639 0.9021381 0.5095549 0.9411181 0.5063639 0.9021381 0.5472106 0.8999612 0.5095549 0.9411181 0.5879825 0.8297043 0.6114015 0.7654078 0.6114013 0.853263 0.5879825 0.8297043 0.6114013 0.853263 0.588057 0.8977842 0.2545996 0.9909242 0.2187128 0.990924 0.2187076 0.7847679 0.1110433 0.6500416 0.1469489 0.6500203 0.1110447 0.854234 0.1469489 0.6500203 0.1469582 0.9909151 0.1110447 0.854234 0.02119636 0.0182563 0.1532728 0.08526122 0.021196 0.08524566 0.4563809 0.2314967 0.4379351 0.2314965 0.4379349 0.1886191 0.4563809 0.2314967 0.4379349 0.1886191 0.4563809 0.1886177 0.02119636 0.01825648 0.1532732 0.01827633 0.1532728 0.08526039 0.1532561 0.08532905 0.02117449 0.01815927 0.153252 0.01817554 0.1532561 0.08532905 0.02114719 0.08531653 0.02117449 0.01815927 0.02119636 0.0182563 0.1532732 0.01827609 0.1532728 0.08526122 0.4563811 0.2314929 0.4379334 0.1886135 0.4563811 0.1886283 0.4563811 0.2314929 0.437933 0.2314949 0.4379334 0.1886135 0.02119636 0.01825648 0.1532728 0.08526039 0.021196 0.08524507 0.02119636 0.0182563 0.1532728 0.08526122 0.021196 0.08524566 0.4563809 0.2314967 0.4379351 0.2314965 0.4379349 0.1886191 0.4563809 0.2314967 0.4379349 0.1886191 0.4563809 0.1886177 0.02119636 0.01825648 0.1532732 0.01827633 0.1532728 0.08526039 0.1532561 0.08532905 0.02117449 0.01815927 0.153252 0.01817554 0.1532561 0.08532905 0.02114719 0.08531653 0.02117449 0.01815927 0.02119636 0.0182563 0.1532732 0.01827609 0.1532728 0.08526122 0.4563811 0.2314929 0.4379334 0.1886135 0.4563811 0.1886283 0.4563811 0.2314929 0.437933 0.2314949 0.4379334 0.1886135 0.02119636 0.01825648 0.1532728 0.08526039 0.021196 0.08524507 0.02119636 0.0182563 0.1532728 0.08526122 0.021196 0.08524566 0.4563809 0.2314967 0.4379351 0.2314965 0.4379349 0.1886191 0.4563809 0.2314967 0.4379349 0.1886191 0.4563809 0.1886177 0.02119636 0.01825648 0.1532732 0.01827633 0.1532728 0.08526039 0.1532561 0.08532905 0.02117449 0.01815927 0.153252 0.01817554 0.1532561 0.08532905 0.02114719 0.08531653 0.02117449 0.01815927 0.02119636 0.0182563 0.1532732 0.01827609 0.1532728 0.08526122 0.4563811 0.2314929 0.4379334 0.1886135 0.4563811 0.1886283 0.4563811 0.2314929 0.437933 0.2314949 0.4379334 0.1886135 0.02119636 0.01825648 0.1532728 0.08526039 0.021196 0.08524507 0.02119636 0.0182563 0.1532728 0.08526122 0.021196 0.08524566 0.4563809 0.2314967 0.4379351 0.2314965 0.4379349 0.1886191 0.4563809 0.2314967 0.4379349 0.1886191 0.4563809 0.1886177 0.4563811 0.2314929 0.4379334 0.1886135 0.4563811 0.1886283 0.4563811 0.2314929 0.437933 0.2314949 0.4379334 0.1886135 0.02119636 0.01825648 0.1532728 0.08526039 0.021196 0.08524507 0.153252 0.01817554 0.1532561 0.08532905 0.02114719 0.08531653 0.02119636 0.0182563 0.1532732 0.01827609 0.1532728 0.08526122 0.02119636 0.01825648 0.1532732 0.01827633 0.1532728 0.08526039 0.153252 0.01817554 0.02114719 0.08531653 0.02117449 0.01815927 0.02119636 0.0182563 0.1532728 0.08526122 0.021196 0.08524566 0.4563809 0.2314967 0.4379351 0.2314965 0.4379349 0.1886191 0.4563809 0.2314967 0.4379349 0.1886191 0.4563809 0.1886177 0.4563811 0.2314929 0.4379334 0.1886135 0.4563811 0.1886283 0.4563811 0.2314929 0.437933 0.2314949 0.4379334 0.1886135 0.02119636 0.01825648 0.1532728 0.08526039 0.021196 0.08524507 0.153252 0.01817554 0.1532561 0.08532905 0.02114719 0.08531653 0.02119636 0.0182563 0.1532732 0.01827609 0.1532728 0.08526122 0.02119636 0.01825648 0.1532732 0.01827633 0.1532728 0.08526039 0.153252 0.01817554 0.02114719 0.08531653 0.02117449 0.01815927 0.02119636 0.0182563 0.1532728 0.08526122 0.021196 0.08524566 0.4563809 0.2314967 0.4379351 0.2314965 0.4379349 0.1886191 0.4563809 0.2314967 0.4379349 0.1886191 0.4563809 0.1886177 0.4563811 0.2314929 0.4379334 0.1886135 0.4563811 0.1886283 0.4563811 0.2314929 0.437933 0.2314949 0.4379334 0.1886135 0.02119636 0.01825648 0.1532728 0.08526039 0.021196 0.08524507 0.153252 0.01817554 0.1532561 0.08532905 0.02114719 0.08531653 0.02119636 0.0182563 0.1532732 0.01827609 0.1532728 0.08526122 0.02119636 0.01825648 0.1532732 0.01827633 0.1532728 0.08526039 0.153252 0.01817554 0.02114719 0.08531653 0.02117449 0.01815927 0.2018595 0.9778278 0.2228153 0.9778806 0.2235479 0.6454191 0.2025773 0.6454106 0.2018476 0.9778257 0.2228164 0.9778782 0.2025773 0.6454106 0.2228164 0.9778782 0.2235496 0.6454191 0.2235472 0.6454191 0.2018613 0.9778282 0.2228135 0.9778803 0.2007202 0.9774013 0.22415 0.9773427 0.2248355 0.6454867 0.2007202 0.9774013 0.2248355 0.6454867 0.2013981 0.6455599 0.5254333 0.8065221 0.5006171 0.8547438 0.5254333 0.8547416 0.2235472 0.6454191 0.2025874 0.6454105 0.2018613 0.9778282 0.5254333 0.8065221 0.5006176 0.8065053 0.5006171 0.8547438 0.2018595 0.9778278 0.2235479 0.6454191 0.2025921 0.6454105 0.2025921 0.6454105 0.2018595 0.9778278 0.2228153 0.9778806 0.2025773 0.6454106 0.2018476 0.9778257 0.2228164 0.9778782 0.2025773 0.6454106 0.2228164 0.9778782 0.2235496 0.6454191 0.2025921 0.6454105 0.2228153 0.9778806 0.2235479 0.6454191 0.5254333 0.8547416 0.5254333 0.8065221 0.5006176 0.8065053 0.5254333 0.8547416 0.5006176 0.8065053 0.5006171 0.8547438 0.2235472 0.6454191 0.2025874 0.6454105 0.2018613 0.9778282 0.22415 0.9773427 0.2013981 0.6455599 0.2007202 0.9774013 0.2235472 0.6454191 0.2018613 0.9778282 0.2228135 0.9778803 0.22415 0.9773427 0.2248355 0.6454867 0.2013981 0.6455599 0.2018595 0.9778278 0.2228153 0.9778806 0.2235479 0.6454191 0.2025773 0.6454106 0.2018476 0.9778257 0.2228164 0.9778782 0.2025773 0.6454106 0.2228164 0.9778782 0.2235496 0.6454191 0.2235472 0.6454191 0.2018613 0.9778282 0.2228135 0.9778803 0.2007202 0.9774013 0.22415 0.9773427 0.2248355 0.6454867 0.2007202 0.9774013 0.2248355 0.6454867 0.2013981 0.6455599 0.5254333 0.8065221 0.5006171 0.8547438 0.5254333 0.8547416 0.2235472 0.6454191 0.2025874 0.6454105 0.2018613 0.9778282 0.5254333 0.8065221 0.5006176 0.8065053 0.5006171 0.8547438 0.2018595 0.9778278 0.2235479 0.6454191 0.2025921 0.6454105 0.2025921 0.6454105 0.2018595 0.9778278 0.2228153 0.9778806 0.2025773 0.6454106 0.2018476 0.9778257 0.2228164 0.9778782 0.2025773 0.6454106 0.2228164 0.9778782 0.2235496 0.6454191 0.2025921 0.6454105 0.2228153 0.9778806 0.2235479 0.6454191 0.5254333 0.8547416 0.5254333 0.8065221 0.5006176 0.8065053 0.5254333 0.8547416 0.5006176 0.8065053 0.5006171 0.8547438 0.2235472 0.6454191 0.2025874 0.6454105 0.2018613 0.9778282 0.22415 0.9773427 0.2013981 0.6455599 0.2007202 0.9774013 0.2235472 0.6454191 0.2018613 0.9778282 0.2228135 0.9778803 0.22415 0.9773427 0.2248355 0.6454867 0.2013981 0.6455599</float_array>
          <technique_common>
            <accessor source="#Cubo_244-mesh-map-0-array" count="846" stride="2">
              <param name="S" type="float"/>
              <param name="T" type="float"/>
            </accessor>
          </technique_common>
        </source>
        <source id="Cubo_244-mesh-map-1">
          <float_array id="Cubo_244-mesh-map-1-array" count="1692">0.4855279 0.05044507 0.4897037 0.1768231 0.4345958 0 0.4897037 0.1768231 0.4855279 0.05044507 0.4997158 0.1040244 0.4108672 0.9160189 0.4089395 0.6248931 0.4625641 0.6254717 0.8007259 0.5678625 0.8532243 0.5675948 0.8513265 0.8587211 0.7276289 0.5677729 0.8007259 0.5678625 0.8000656 0.8589857 0.8007259 0.5678625 0.8513265 0.8587211 0.8000656 0.8589857 0.7276289 0.5677729 0.8000656 0.8589857 0.7282062 0.8588931 0.6870102 0.8589332 0.7276289 0.5677729 0.7282062 0.8588931 0.6317626 0.8587222 0.6857755 0.5678094 0.6870102 0.8589332 0.6870102 0.8589332 0.6857755 0.5678094 0.7276289 0.5677729 0.4016633 0.2669419 0.4897037 0.1768231 0.4896189 0.2188479 0.4016633 0.2669419 0.4896189 0.2188479 0.4725514 0.2739545 0.6317626 0.8587222 0.6298707 0.5675948 0.6857755 0.5678094 0.7862664 0.275094 0.8573632 0.2750188 0.8557385 0.5661036 0.4345958 0 0.4016633 0.2669419 0.3734601 0.007118582 0.3299608 0.2739545 0.3734601 0.007118582 0.4016633 0.2669419 0.4016633 0.2669419 0.4345958 0 0.4897037 0.1768231 0.7170662 0.5665305 0.7165961 0.275458 0.7862664 0.275094 0.7170662 0.5665305 0.7862664 0.275094 0.7856891 0.5661727 0.7862664 0.275094 0.8557385 0.5661036 0.7856891 0.5661727 0.6727449 0.5660955 0.7165961 0.275458 0.7170662 0.5665305 0.6308328 0.5661482 0.6720288 0.2750188 0.6727449 0.5660955 0.6727449 0.5660955 0.6720288 0.2750188 0.7165961 0.275458 0.2442489 0.1734071 0.3207927 0.003662526 0.2892721 0.2462938 0.2442489 0.1734071 0.2892721 0.2462938 0.2472079 0.2423203 0.3734601 0.007118582 0.2892721 0.2462938 0.3207927 0.003662526 0.2892721 0.2462938 0.3734601 0.007118582 0.3299608 0.2739545 0.6308328 0.5661482 0.6298707 0.2750673 0.6720288 0.2750188 0.1617101 0.3500463 0.2299842 0.3499289 0.2281225 0.6410724 0.2543458 0.05858373 0.3207927 0.003662526 0.2442489 0.1734071 0.2674016 0.01267349 0.3207927 0.003662526 0.2543458 0.05858373 0.5232163 0.6252256 0.5759935 0.6251469 0.5757377 0.9162723 0.5759935 0.6251469 0.6288089 0.6248931 0.6281413 0.9160223 0.5759935 0.6251469 0.6281413 0.9160223 0.5757377 0.9162723 0.001928508 0.6410719 0 0.3499289 0.04671794 0.3500463 0.001928508 0.6410719 0.04671794 0.3500463 0.04787564 0.6411874 0.04671794 0.3500463 0.09394383 0.6413687 0.04787564 0.6411874 0.09394383 0.6413687 0.09355688 0.3502296 0.1617101 0.3500463 0.04671794 0.3500463 0.09355688 0.3502296 0.09394383 0.6413687 0.09394383 0.6413687 0.1617101 0.3500463 0.1609727 0.6411876 0.1617101 0.3500463 0.2281225 0.6410724 0.1609727 0.6411876 0.2543458 0.05858373 0.2442489 0.1734071 0.2362631 0.1042007 0.5232163 0.6252256 0.5757377 0.9162723 0.5233724 0.9163472 0.4636061 0.9165954 0.5232163 0.6252256 0.5233724 0.9163472 0.4108672 0.9160189 0.4625641 0.6254717 0.4636061 0.9165954 0.4636061 0.9165954 0.4625641 0.6254717 0.5232163 0.6252256 0.3329194 0.7979596 0.3677915 0.6246003 0.3777405 0.7978858 0.2881419 0.6245533 0.3279471 0.6246643 0.3329194 0.7979596 0.3745729 0.6233211 0.316593 0.4484499 0.3665118 0.2751058 0.1418663 5.83311e-4 0.1890258 0.1737127 0.1481575 0.1738255 0.7426007 0.1979878 0.7800707 0.2307494 0.7424177 0.2305483 0.2001968 0.7354065 0.1623209 0.6889778 0.1999787 0.6888981 0.4704464 0.4484167 0.509524 0.2753719 0.5085287 0.4487863 0.5677939 0.6234586 0.5085287 0.4487863 0.5612649 0.2750517 0.7425221 0.1177518 0.7804635 0.160721 0.7428054 0.1606029 0.8919432 0.8843974 0.8543715 0.8625752 0.8920285 0.8625588 0.06221669 2.92329e-4 0.08669197 0.1735162 0.05146235 0.1734756 0.2771736 0.4482865 0.3188335 0.2752586 0.316593 0.4484499 0.8919432 0.8843974 0.8542861 0.8844138 0.8543715 0.8625752 0.2771736 0.4482865 0.2868285 0.2751058 0.3188335 0.2752586 0.7428054 0 0.7804635 1.18049e-4 0.7802715 0.03136014 0.04556202 0.7966981 0.02493321 0.7726368 0.08828037 0.6510376 0.0927149 0.7950447 0.04556202 0.7966981 0.08828037 0.6510376 0.8921918 0.840709 0.8545348 0.8407254 0.8543715 0.7986243 0.7428054 0 0.7802715 0.03136014 0.7426134 0.03124213 0.2000493 0.7834641 0.1622993 0.7594785 0.1999571 0.7593988 0.7426732 0.04804998 0.7800758 0.09359121 0.7424176 0.09347319 0.8921918 0.840709 0.8543715 0.7986243 0.8920285 0.7986079 0.2762207 0.6233242 0.316593 0.4484499 0.3162994 0.6234892 0.05146235 0.1734756 0.08563417 0.3485545 0.04984235 0.3485091 0.316593 0.4484499 0.3188335 0.2752586 0.3665118 0.2751058 0.4711174 0.6236983 0.5085287 0.4487863 0.5082056 0.6238287 0.1481575 0.1738255 0.190085 0.3487525 0.1481583 0.3488646 0.7426007 0.1979878 0.7802537 0.1981889 0.7800707 0.2307494 0.2881504 0.9729074 0.2881419 0.6245533 0.3329194 0.7979596 0.3332847 0.9730064 0.3777405 0.7978858 0.3784578 0.9729306 0.3665118 0.2751058 0.4143111 0.2750188 0.4313379 0.4481832 0.1890258 0.1737127 0.2352013 0.3481973 0.190085 0.3487525 0.08828037 0.6510376 0.1277952 0.6424331 0.1518428 0.6902004 0.02493321 0.7726368 7.5084e-4 0.7720339 0.002864599 0.729751 0.1447639 0.7597271 0.1377635 0.8072812 0.0927149 0.7950447 0.7424177 0.1617853 0.7802537 0.1981889 0.7426007 0.1979878 0.1726366 4.5522e-4 0.2339307 0.1731685 0.1890258 0.1737127 0.1999787 0.6888981 0.1622993 0.6425128 0.1999571 0.6424331 0.3162994 0.6234892 0.316593 0.4484499 0.3745729 0.6233211 0.3329194 0.7979596 0.3279471 0.6246643 0.3677915 0.6246003 0.4347734 0.4485322 0.4711174 0.6236983 0.4340294 0.6235678 0.1999571 0.7593988 0.162539 0.7354862 0.2001968 0.7354065 0.1518428 0.6902004 0.1447639 0.7597271 0.0927149 0.7950447 0.1890258 0.1737127 0.2339307 0.1731685 0.2352013 0.3481973 0.5082056 0.6238287 0.5085287 0.4487863 0.5677939 0.6234586 0.4437994 0.2751509 0.4704464 0.4484167 0.4347734 0.4485322 0.7424177 0.2305483 0.7801502 0.2620403 0.7424973 0.2618392 0.3332847 0.9730064 0.2881504 0.9729074 0.3329194 0.7979596 0.06221669 2.92329e-4 0.09049868 2.89216e-4 0.08669197 0.1735162 0.08563417 0.3485545 0.1481575 0.1738255 0.1481583 0.3488646 0.2378752 0.448189 0.2762207 0.6233242 0.236263 0.623225 0.7424176 0.09347319 0.7801803 0.1178699 0.7425221 0.1177518 0.08828037 0.6510376 0.1518428 0.6902004 0.0927149 0.7950447 0.4711174 0.6236983 0.4704464 0.4484167 0.5085287 0.4487863 0.05146235 0.1734756 0.08669197 0.1735162 0.08563417 0.3485545 0.1481575 0.1738255 0.1890258 0.1737127 0.190085 0.3487525 0.2549445 0.2750188 0.2771736 0.4482865 0.2378752 0.448189 0.8920285 0.8625588 0.8545348 0.8407254 0.8921918 0.840709 0.08669197 0.1735162 0.1418663 5.83311e-4 0.1481575 0.1738255 0.5805404 0.1984407 0.5491334 0.1849686 0.5774697 0.1804766 0.5085287 0.4487863 0.509524 0.2753719 0.5612649 0.2750517 0.2370079 0.7979616 0.2881419 0.6245533 0.2881504 0.9729074 0.002182126 0.1731397 0.04984235 0.3485091 0 0.3481684 0.8920285 0.7986079 0.8542861 0.7565119 0.8919432 0.7564955 0.7426134 0.03124213 0.7803313 0.048168 0.7426732 0.04804998 0.7425221 0.1177518 0.7801803 0.1178699 0.7804635 0.160721 0.3745729 0.6233211 0.3665118 0.2751058 0.4313379 0.4481832 0.5763263 0 0.6274654 0.009725689 0.5864389 0.01637387 0.3332847 0.9730064 0.3329194 0.7979596 0.3777405 0.7978858 0.0198841 0 0.05146235 0.1734756 0.002182126 0.1731397 0.1418663 5.83311e-4 0.1726366 4.5522e-4 0.1890258 0.1737127 0.02374559 0.6461751 0.05694812 0.6424331 0.01436197 0.6668216 0.4704464 0.4484167 0.4754569 0.2750188 0.509524 0.2753719 0.1518428 0.6902004 0.1612377 0.7165162 0.1447639 0.7597271 0.1447639 0.7597271 0.150322 0.7777779 0.1377635 0.8072812 0.2001968 0.7354065 0.162539 0.7354862 0.1623209 0.6889778 0.2762207 0.6233242 0.2771736 0.4482865 0.316593 0.4484499 0.5612649 0.2750517 0.6144324 0.2750188 0.6273403 0.4483457 0.7426732 0.04804998 0.7803313 0.048168 0.7800758 0.09359121 0.2000493 0.7834641 0.1623916 0.7835438 0.1622993 0.7594785 0.4329676 0.6232187 0.3745729 0.6233211 0.4313379 0.4481832 0.05694812 0.6424331 0.08828037 0.6510376 0.02493321 0.7726368 0.01436197 0.6668216 0.05694812 0.6424331 0.002864599 0.729751 0.002864599 0.729751 0 0.6867104 0.01436197 0.6668216 0.002864599 0.729751 0.05694812 0.6424331 0.02493321 0.7726368 0.7424177 0.1617853 0.7800707 0.1619864 0.7802537 0.1981889 0.1726366 4.5522e-4 0.2161039 0 0.2339307 0.1731685 0.1999787 0.6888981 0.1623209 0.6889778 0.1622993 0.6425128 0.4347734 0.4485322 0.4704464 0.4484167 0.4711174 0.6236983 0.1999571 0.7593988 0.1622993 0.7594785 0.162539 0.7354862 0.4437994 0.2751509 0.4754569 0.2750188 0.4704464 0.4484167 0.7424177 0.2305483 0.7800707 0.2307494 0.7801502 0.2620403 0.08563417 0.3485545 0.08669197 0.1735162 0.1481575 0.1738255 0.2378752 0.448189 0.2771736 0.4482865 0.2762207 0.6233242 0.7424176 0.09347319 0.7800758 0.09359121 0.7801803 0.1178699 0.2549445 0.2750188 0.2868285 0.2751058 0.2771736 0.4482865 0.8920285 0.8625588 0.8543715 0.8625752 0.8545348 0.8407254 0.08669197 0.1735162 0.09049868 2.89216e-4 0.1418663 5.83311e-4 0.5176103 0.1765425 0.5343375 0.1620274 0.5491334 0.1849686 0.5343375 0.1620274 0.5559616 0.1687289 0.5491334 0.1849686 0.5774697 0.1804766 0.6196936 0.17215 0.6286973 0.1893815 0.6196936 0.17215 0.6618015 0.1688695 0.6286973 0.1893815 0.6286973 0.1893815 0.6618015 0.1688695 0.676738 0.1853681 0.5559616 0.1687289 0.5774697 0.1804766 0.5491334 0.1849686 0.6286973 0.1893815 0.5805404 0.1984407 0.5774697 0.1804766 0.2881504 0.9729074 0.2362631 0.9730064 0.2370079 0.7979616 0.2370079 0.7979616 0.2430372 0.6246861 0.2881419 0.6245533 0.002182126 0.1731397 0.05146235 0.1734756 0.04984235 0.3485091 0.8920285 0.7986079 0.8543715 0.7986243 0.8542861 0.7565119 0.7426134 0.03124213 0.7802715 0.03136014 0.7803313 0.048168 0.5173906 0.05905348 0.5309345 0.09724551 0.5141063 0.09661632 0.5309345 0.09724551 0.5264085 0.1294925 0.5141063 0.09661632 0.5264085 0.1294925 0.5343375 0.1620274 0.5096309 0.1364353 0.5343375 0.1620274 0.5176103 0.1765425 0.5096309 0.1364353 0.5096309 0.1364353 0.5141063 0.09661632 0.5264085 0.1294925 0.5007776 0.0511282 0.5451976 0.01384299 0.5615953 0.02906429 0.5451976 0.01384299 0.5763263 0 0.5864389 0.01637387 0.5615953 0.02906429 0.5451976 0.01384299 0.5864389 0.01637387 0.6274654 0.009725689 0.6558902 0.00441271 0.6484467 0.01942884 0.6558902 0.00441271 0.6979532 0.0156539 0.6792387 0.02815955 0.6484467 0.01942884 0.6558902 0.00441271 0.6792387 0.02815955 0.6909472 0.06848537 0.6979532 0.1216408 0.6728649 0.07450622 0.6979532 0.1216408 0.6755135 0.1532309 0.6805028 0.121177 0.6755135 0.1532309 0.676738 0.1853681 0.6618015 0.1688695 0.6618015 0.1688695 0.65932 0.1447497 0.6755135 0.1532309 0.65932 0.1447497 0.6805028 0.121177 0.6755135 0.1532309 0.6805028 0.121177 0.6728649 0.07450622 0.6979532 0.1216408 0.6728649 0.07450622 0.6792387 0.02815955 0.6909472 0.06848537 0.6909472 0.06848537 0.6792387 0.02815955 0.6979532 0.0156539 0.6484467 0.01942884 0.6312929 0.02725255 0.6274654 0.009725689 0.6312929 0.02725255 0.5864389 0.01637387 0.6274654 0.009725689 0.5173906 0.05905348 0.5141063 0.09661632 0.5007776 0.0511282 0.5173906 0.05905348 0.5007776 0.0511282 0.5615953 0.02906429 0.0198841 0 0.06221669 2.92329e-4 0.05146235 0.1734756 0.6288089 0.6233758 0.5677939 0.6234586 0.6273403 0.4483457 0.5677939 0.6234586 0.5612649 0.2750517 0.6273403 0.4483457 0.1622993 0.9999989 0.1772453 0.7846091 0.1772453 1 0.5774289 0.2518011 0.5923007 0.2517702 0.5923007 0.2667505 0.5774289 0.2518011 0.5923007 0.2667505 0.5774289 0.2667813 0.178307 0.9999276 0.178307 0.7846081 0.1932534 0.7846132 0.9884042 0.7843272 0.9734576 0.9996604 0.9734576 0.7842687 0.9884042 0.7843272 0.988404 0.9997189 0.9734576 0.9996604 0.1622993 0.9999989 0.1622993 0.7846081 0.1772453 0.7846091 0.5923752 0.2357226 0.577429 0.2507059 0.577429 0.2357236 0.5923752 0.2357226 0.5923752 0.2507049 0.577429 0.2507059 0.178307 0.9999276 0.1932534 0.7846132 0.1932534 0.9999327 0.9223147 0.8057469 0.9372606 0.5675953 0.9372606 0.8057474 0.5933624 0.2518017 0.6082324 0.2517703 0.6082324 0.2667505 0.5933624 0.2518017 0.6082324 0.2667505 0.5933624 0.266782 0.9260962 0.2380839 0.9260962 0 0.9410426 4.69479e-6 0.9319515 0.2750188 0.9170039 0.5131702 0.9170039 0.2750188 0.9319515 0.2750188 0.9319515 0.5131703 0.9170039 0.5131702 0.9223147 0.8057469 0.9223147 0.5675948 0.9372606 0.5675953 0.5413196 0.199505 0.5263734 0.2144891 0.5263734 0.1995057 0.5413196 0.199505 0.5413196 0.2144884 0.5263734 0.2144891 0.9260962 0.2380839 0.9410426 4.69479e-6 0.9410426 0.2380886 0.9530413 0.4988523 0.9679872 0.2750193 0.9679872 0.4988528 0.5903967 0.2155849 0.6052666 0.2155534 0.6052666 0.2305336 0.5903967 0.2155849 0.6052666 0.2305336 0.5903967 0.2305651 0.9574495 0.7913641 0.9574495 0.5675947 0.972396 0.5675994 0.957052 0 0.9421043 0.2238329 0.9421043 0 0.957052 0 0.957052 0.2238329 0.9421043 0.2238329 0.9530413 0.4988523 0.9530413 0.2750188 0.9679872 0.2750193 0.5573247 0.2155534 0.5423785 0.2305374 0.5423785 0.215554 0.5573247 0.2155534 0.5573247 0.2305367 0.5423785 0.2305374 0.9574495 0.7913641 0.972396 0.5675994 0.972396 0.7913689 0.9009977 0.5142533 0.9159421 0.2750505 0.9159422 0.5142849 0.5263733 0.2155581 0.5413167 0.2155534 0.5413167 0.2305355 0.5263733 0.2155581 0.5413167 0.2305355 0.5263733 0.2305403 0.5733349 0.199505 0.5583896 0.2144885 0.558389 0.199505 0.5733349 0.199505 0.5733354 0.2144885 0.5583896 0.2144885 0.9046821 0 0.8897359 0.2404846 0.8897359 6.50091e-7 0.8849883 0.275019 0.8999359 0.2750188 0.8999359 0.515504 0.9009977 0.5142533 0.9009977 0.2750188 0.9159421 0.2750505 0.9046821 0 0.9046821 0.2404839 0.8897359 0.2404846 0.8849883 0.275019 0.8999359 0.515504 0.8849883 0.515504 0.9690492 0.4969434 0.9839937 0.2750505 0.9839937 0.4969751 0.5583864 0.2155581 0.5733298 0.2155534 0.5733298 0.2305356 0.5583864 0.2155581 0.5733298 0.2305356 0.5583864 0.2305403 0.5893431 0.199505 0.5743977 0.2144885 0.5743972 0.199505 0.5893431 0.199505 0.5893436 0.2144885 0.5743977 0.2144885 0.9532687 0.7562186 0.9383225 0.9793031 0.9383225 0.7562193 0.9581137 0 0.9730614 0 0.9730614 0.2230848 0.9690492 0.4969434 0.9690492 0.2750188 0.9839937 0.2750505 0.9532687 0.7562186 0.9532687 0.9793025 0.9383225 0.9793031 0.9581137 0 0.9730614 0.2230848 0.9581137 0.2230848 0.9850555 0.4895071 1 0.2750505 1 0.4895387 0.5743916 0.2155581 0.5893349 0.2155534 0.5893349 0.2305356 0.5743916 0.2155581 0.5893349 0.2305356 0.5743916 0.2305403 0.5423814 0.2144885 0.5573273 0.1995056 0.5573273 0.214489 0.5423814 0.2144885 0.5423814 0.199505 0.5573273 0.1995056 0.9890694 0 0.9741232 0.2156094 0.9741232 6.60663e-7 0.9734577 0.5675948 0.9884054 0.5675948 0.9884054 0.7832044 0.9850555 0.4895071 0.9850555 0.2750188 1 0.2750505 0.9890694 0 0.9890694 0.2156088 0.9741232 0.2156094 0.9734577 0.5675948 0.9884054 0.7832044 0.9734578 0.7832046 0.8804761 0.5682184 0.8804762 0.7554312 0.8542861 0.7548076 0.699015 0.1872724 0.699015 0 0.7155374 0.0126602 0.699015 0.1872724 0.7155374 0.0126602 0.7155681 0.1875882 0.9383562 0.5802249 0.9563876 0.7548688 0.9383223 0.7551543 0.7155374 0.0126602 0.7413254 0.0124427 0.741356 0.1873707 0.7155374 0.0126602 0.741356 0.1873707 0.7155681 0.1875882 0.5519043 0.270859 0.576367 0.2357434 0.5763671 0.2708799 0.9383562 0.5802249 0.9563876 0.5675947 0.9563876 0.7548688 0.5519043 0.270859 0.5519043 0.2357226 0.576367 0.2357434 0.8804761 0.5682184 0.8542861 0.7548076 0.8542861 0.5675948 0.7815254 4.44283e-4 0.809404 0 0.8094038 0.1872407 0.901958 0.9434497 0.901958 0.7562006 0.9209539 0.7684105 0.901958 0.9434497 0.9209539 0.7684105 0.9209894 0.9433159 0.7815254 4.44283e-4 0.8094038 0.1872407 0.7815254 0.1876849 0.525299 0.2708905 0.5007775 0.270859 0.5007775 0.2357226 0.525299 0.2708905 0.5007775 0.2357226 0.5252989 0.2357541 0.8815741 0.5802414 0.9008963 0.5675948 0.9008963 0.7548654 0.8839263 0.2750188 0.858425 0.4502783 0.858425 0.2753611 0.8815741 0.5802414 0.9008963 0.7548654 0.881538 0.7551676 0.8839263 0.2750188 0.8839265 0.449936 0.858425 0.4502783 0.8375459 4.52535e-4 0.8375459 0.1876937 0.8104657 0.1872412 0.9019581 0.7548694 0.901958 0.5675947 0.9212172 0.5802063 0.9019581 0.7548694 0.9212172 0.5802063 0.9212529 0.7551363 0.9330485 0.2871895 0.9519796 0.4622591 0.9330134 0.4620866 0.2012585 0.6424331 0.2305266 0.6426972 0.2305266 0.8176167 0.2012585 0.6424331 0.2305266 0.8176167 0.2012585 0.8173527 0.5253117 0.199505 0.5007776 0.2346583 0.5007776 0.1995217 0.9330485 0.2871895 0.9519796 0.2750187 0.9519796 0.4622591 0.5253117 0.199505 0.5253117 0.2346415 0.5007776 0.2346583 0.8375459 4.52535e-4 0.8104657 0.1872412 0.8104657 0 0.3795196 0.6245535 0.407301 0.6250225 0.4073011 0.8122574 0.905744 0.1872732 0.905744 0 0.9249987 0.01262599 0.905744 0.1872732 0.9249987 0.01262599 0.9250344 0.1875546 0.3795196 0.6245535 0.4073011 0.8122574 0.3795196 0.8117883 0.5263608 0.2357606 0.5508426 0.2357226 0.5508425 0.2708589 0.5263608 0.2357606 0.5508425 0.2708589 0.5263608 0.270897 0.8679522 0.01216614 0.8886742 0 0.8886742 0.1872219 0.8668516 1.31117e-4 0.8386078 0.1749321 0.8386077 0 0.8679522 0.01216614 0.8886742 0.1872219 0.8679135 0.187046 0.8668516 1.31117e-4 0.8668516 0.1750631 0.8386078 0.1749321</float_array>
          <technique_common>
            <accessor source="#Cubo_244-mesh-map-1-array" count="846" stride="2">
              <param name="S" type="float"/>
              <param name="T" type="float"/>
            </accessor>
          </technique_common>
        </source>
        <vertices id="Cubo_244-mesh-vertices">
          <input semantic="POSITION" source="#Cubo_244-mesh-positions"/>
        </vertices>
        <triangles material="A-exturas_soninké-material" count="282">
          <input semantic="VERTEX" source="#Cubo_244-mesh-vertices" offset="0"/>
          <input semantic="NORMAL" source="#Cubo_244-mesh-normals" offset="1"/>
          <input semantic="TEXCOORD" source="#Cubo_244-mesh-map-0" offset="2" set="0"/>
          <input semantic="TEXCOORD" source="#Cubo_244-mesh-map-1" offset="2" set="1"/>
          <p>0 0 0 1 1 1 2 2 2 1 1 3 0 0 4 4 3 5 3 4 6 0 5 7 2 6 8 4 7 9 0 8 10 3 9 11 1 10 12 4 7 13 5 11 14 4 7 15 3 9 16 5 11 17 1 10 18 5 11 19 6 12 20 7 13 21 1 10 22 6 12 23 8 14 24 9 15 25 7 13 26 7 13 27 9 15 28 1 10 29 10 16 30 1 1 31 9 17 32 10 16 33 9 17 34 11 2 35 8 18 36 11 19 37 9 20 38 10 21 39 11 22 40 8 23 41 2 2 42 10 16 43 12 2 44 13 2 45 12 2 46 10 16 47 10 16 48 2 2 49 1 1 50 15 24 51 13 25 52 10 26 53 15 27 54 10 21 55 14 28 56 10 21 57 8 23 58 14 28 59 16 29 60 13 30 61 15 31 62 17 32 63 18 33 64 16 34 65 16 34 66 18 33 67 13 35 68 19 36 69 20 37 70 18 38 71 19 36 72 18 38 73 21 39 74 12 2 75 18 38 76 20 37 77 18 38 78 12 2 79 13 2 80 17 40 81 21 41 82 18 42 83 19 43 84 21 44 85 17 45 86 22 46 87 20 37 88 19 36 89 23 2 90 20 37 91 22 46 92 12 47 93 20 48 94 24 49 95 20 48 96 23 50 97 25 51 98 20 48 99 25 51 100 24 49 101 25 52 102 23 52 103 22 53 104 25 54 105 22 55 106 26 56 107 22 55 108 27 57 109 26 56 110 27 57 111 28 58 112 19 43 113 22 55 114 28 58 115 27 57 116 27 57 117 19 43 118 29 59 119 19 43 120 17 45 121 29 59 122 22 46 123 19 36 124 28 60 125 12 47 126 24 49 127 30 61 128 31 62 129 12 47 130 30 61 131 3 4 132 2 6 133 31 63 134 31 62 135 2 64 136 12 47 137 89 65 138 49 66 139 65 67 140 48 68 141 80 69 142 89 70 143 102 71 144 70 72 145 100 73 146 91 74 147 64 75 148 99 76 149 41 77 150 86 78 151 84 79 152 43 80 153 77 81 154 75 82 155 88 83 156 52 84 157 68 85 158 74 86 159 68 87 160 72 88 161 33 89 162 78 90 163 76 90 164 35 91 165 97 92 166 95 93 167 103 94 168 69 95 169 108 96 170 98 97 171 50 98 172 70 72 173 35 99 174 60 99 175 97 100 176 98 97 177 92 101 178 50 102 179 37 103 180 62 104 181 107 105 182 56 106 183 87 107 184 57 108 185 77 109 186 56 106 187 57 108 188 45 110 189 58 110 190 106 111 191 37 103 192 107 105 193 105 112 194 39 113 195 87 114 196 85 115 197 47 116 198 96 117 199 94 118 200 45 110 201 106 119 202 104 120 203 90 121 204 70 72 205 44 122 206 108 96 207 46 123 208 101 124 209 70 72 210 50 125 211 100 73 212 81 126 213 68 87 214 42 127 215 99 76 216 32 128 217 93 129 218 41 77 219 57 130 220 86 78 221 40 131 222 48 68 223 89 70 224 82 132 225 65 67 226 34 133 227 100 73 228 51 134 229 66 135 230 64 75 231 71 136 232 32 128 233 57 108 234 78 2 235 63 137 236 87 107 237 61 2 238 106 138 239 59 139 240 62 140 241 77 109 242 76 141 243 57 130 244 41 77 245 55 142 246 79 143 247 64 75 248 75 82 249 62 144 250 37 144 251 44 122 252 70 72 253 102 71 254 89 70 255 80 69 256 49 145 257 66 146 258 81 147 259 38 148 260 85 149 261 56 150 262 43 151 263 63 137 264 59 139 265 77 109 266 64 75 267 79 143 268 71 136 269 42 127 270 68 87 271 74 86 272 51 152 273 88 153 274 66 146 275 84 154 276 60 155 277 35 155 278 82 132 279 40 156 280 89 65 281 103 94 282 54 157 283 69 95 284 46 123 285 99 76 286 93 129 287 65 158 288 90 121 289 34 159 290 94 160 291 63 161 292 33 162 293 57 108 294 63 137 295 77 109 296 81 163 297 88 83 298 68 85 299 108 96 300 69 95 301 46 123 302 99 76 303 64 75 304 32 128 305 49 164 306 98 97 307 65 158 308 95 165 309 58 166 310 45 166 311 69 95 312 91 74 313 99 76 314 50 167 315 92 168 316 45 169 317 68 87 318 52 170 319 72 88 320 79 171 321 48 172 322 40 173 323 67 174 324 101 124 325 36 175 326 104 120 327 61 176 328 39 177 329 105 178 330 59 179 331 47 180 332 33 162 333 63 161 334 78 181 335 102 71 336 100 73 337 66 135 338 91 182 339 54 183 340 94 184 341 82 132 342 89 65 343 65 67 344 53 185 345 108 96 346 67 174 347 91 74 348 55 142 349 64 75 350 60 2 351 86 2 352 97 186 353 88 187 354 83 188 355 52 189 356 63 137 357 96 190 358 59 139 359 59 139 360 107 191 361 62 140 362 43 80 363 56 192 364 77 81 365 90 121 366 98 97 367 70 72 368 72 88 369 53 193 370 67 194 371 47 116 372 59 195 373 96 117 374 39 113 375 61 196 376 87 114 377 38 197 378 102 71 379 66 135 380 86 2 381 57 108 382 87 107 383 97 186 384 86 2 385 106 138 386 106 138 387 58 198 388 97 186 389 106 138 390 86 2 391 87 107 392 76 199 393 78 199 394 57 200 395 55 142 396 73 201 397 79 143 398 75 82 399 77 81 400 62 144 401 66 146 402 88 153 403 81 147 404 85 149 405 87 202 406 56 150 407 51 152 408 83 203 409 88 153 410 84 79 411 86 78 412 60 204 413 46 123 414 69 95 415 99 76 416 65 158 417 98 97 418 90 121 419 94 160 420 96 205 421 63 161 422 49 164 423 92 101 424 98 97 425 95 93 426 97 92 427 58 206 428 69 95 429 54 157 430 91 74 431 49 207 432 35 208 433 92 168 434 35 208 435 95 209 436 92 168 437 45 169 438 104 210 439 100 211 440 104 210 441 39 212 442 100 211 443 100 211 444 39 212 445 51 213 446 95 209 447 45 169 448 92 168 449 100 211 450 50 167 451 45 169 452 40 173 453 71 214 454 79 171 455 79 215 456 73 216 457 48 217 458 67 174 459 108 96 460 101 124 461 104 120 462 106 119 463 61 176 464 105 178 465 107 218 466 59 179 467 76 2 468 41 2 469 48 2 470 41 2 471 84 219 472 48 2 473 84 219 474 35 208 475 80 220 476 35 208 477 49 207 478 80 220 479 80 220 480 48 2 481 84 219 482 73 221 483 55 222 484 33 223 485 55 222 486 91 182 487 94 184 488 33 223 489 55 222 490 94 184 491 54 183 492 103 224 493 105 225 494 103 224 495 53 226 496 37 227 497 105 225 498 103 224 499 37 227 500 72 228 501 52 2 502 75 229 503 52 2 504 83 2 505 43 2 506 83 2 507 51 213 508 39 212 509 39 212 510 85 2 511 83 2 512 85 2 513 43 2 514 83 2 515 43 2 516 75 229 517 52 2 518 75 229 519 37 227 520 72 228 521 72 228 522 37 227 523 53 226 524 105 225 525 47 230 526 54 183 527 47 230 528 94 184 529 54 183 530 76 2 531 48 2 532 73 221 533 76 2 534 73 221 535 33 223 536 53 185 537 103 94 538 108 96 539 36 231 540 74 86 541 67 194 542 74 86 543 72 88 544 67 194 545 111 232 546 110 233 547 109 234 548 113 235 549 111 235 550 109 235 551 113 235 552 109 235 553 112 235 554 114 236 555 113 237 556 112 236 557 115 238 558 113 239 559 114 2 560 115 238 561 111 240 562 113 239 563 111 232 564 115 241 565 110 233 566 115 242 567 116 242 568 110 243 569 115 242 570 114 244 571 116 242 572 114 236 573 112 236 574 116 237 575 119 245 576 118 245 577 117 245 578 121 246 579 119 246 580 117 246 581 121 246 582 117 246 583 120 246 584 122 247 585 121 247 586 120 247 587 123 2 588 121 2 589 122 2 590 123 2 591 119 2 592 121 2 593 119 245 594 123 245 595 118 245 596 123 248 597 124 248 598 118 248 599 123 248 600 122 248 601 124 248 602 122 247 603 120 247 604 124 247 605 127 245 606 126 245 607 125 245 608 129 246 609 127 246 610 125 246 611 129 246 612 125 246 613 128 246 614 130 247 615 129 247 616 128 247 617 131 2 618 129 2 619 130 2 620 131 2 621 127 2 622 129 2 623 127 245 624 131 245 625 126 245 626 131 248 627 132 248 628 126 248 629 131 248 630 130 248 631 132 248 632 130 247 633 128 247 634 132 247 635 135 249 636 134 250 637 133 251 638 137 252 639 135 253 640 133 252 641 137 252 642 133 252 643 136 254 644 140 255 645 138 255 646 134 256 647 140 255 648 139 257 649 138 255 650 139 258 651 136 259 652 138 260 653 139 261 654 140 262 655 135 263 656 135 249 657 140 264 658 134 250 659 139 258 660 137 265 661 136 259 662 139 261 663 135 263 664 137 266 665 143 267 666 142 268 667 141 269 668 145 270 669 143 271 670 141 270 671 145 270 672 141 270 673 144 254 674 148 272 675 146 272 676 142 273 677 148 272 678 147 274 679 146 272 680 147 275 681 144 275 682 146 275 683 147 276 684 148 277 685 143 278 686 143 267 687 148 268 688 142 268 689 147 275 690 145 279 691 144 275 692 147 276 693 143 278 694 145 280 695 151 281 696 150 281 697 149 281 698 153 282 699 151 283 700 149 282 701 153 282 702 149 282 703 152 284 704 156 285 705 154 285 706 150 286 707 156 285 708 155 287 709 154 285 710 155 288 711 152 289 712 154 290 713 155 291 714 156 292 715 151 293 716 151 281 717 156 281 718 150 281 719 155 288 720 153 294 721 152 289 722 155 291 723 151 293 724 153 295 725 158 296 726 157 297 727 160 298 728 157 299 729 158 300 730 161 301 731 157 299 732 161 301 733 159 302 734 163 303 735 160 304 736 162 305 737 161 306 738 163 307 739 162 308 740 161 306 741 162 308 742 159 309 743 158 310 744 163 311 745 161 312 746 163 303 747 164 313 748 160 304 749 158 310 750 164 314 751 163 311 752 158 296 753 160 298 754 164 315 755 170 316 756 166 317 757 165 318 758 165 319 759 166 320 760 169 321 761 165 319 762 169 321 763 167 322 764 170 316 765 165 318 766 168 323 767 169 324 768 166 325 769 170 326 770 169 324 771 170 326 772 171 327 773 171 328 774 170 329 775 168 330 776 171 331 777 167 332 778 169 333 779 171 328 780 168 330 781 172 334 782 171 331 783 172 335 784 167 332 785 174 336 786 173 337 787 176 338 788 173 339 789 174 340 790 177 341 791 173 339 792 177 341 793 175 342 794 179 343 795 176 344 796 178 345 797 177 346 798 179 347 799 178 348 800 177 346 801 178 348 802 175 349 803 174 350 804 179 351 805 177 352 806 179 343 807 180 353 808 176 344 809 174 350 810 180 354 811 179 351 812 174 336 813 176 338 814 180 355 815 186 356 816 182 357 817 181 358 818 181 359 819 182 360 820 185 361 821 181 359 822 185 361 823 183 362 824 186 356 825 181 358 826 184 363 827 185 364 828 182 365 829 186 366 830 185 364 831 186 366 832 187 367 833 187 368 834 186 369 835 184 370 836 187 371 837 183 372 838 185 373 839 187 368 840 184 370 841 188 374 842 187 371 843 188 375 844 183 372 845</p>
        </triangles>
      </mesh>
    </geometry>
  </library_geometries>
  <library_visual_scenes>
    <visual_scene id="Scene" name="Scene">
      <node id="prop_projectile" name="prop_projectile" type="NODE">
        <matrix sid="transform">1 0 0 0.06445789 0 1 0 0.0551548 0 0 1 15.0092 0 0 0 1</matrix>
      </node>
      <node id="prop_garrisoned" name="prop_garrisoned" type="NODE">
        <matrix sid="transform">1 0 0 0.06445789 0 1 0 0.0551548 0 0 1 0.1 0 0 0 1</matrix>
      </node>
      <node id="wall_tower" name="wall_tower" type="NODE">
        <matrix sid="transform">1 0 0 0 0 1 0 0 0 0 1 0 0 0 0 1</matrix>
        <instance_geometry url="#Cubo_244-mesh" name="wall_tower">
          <bind_material>
            <technique_common>
              <instance_material symbol="A-exturas_soninké-material" target="#A-exturas_soninké-material">
                <bind_vertex_input semantic="Cubo_244-mesh-map-0" input_semantic="TEXCOORD" input_set="0"/>
                <bind_vertex_input semantic="UVMap_2" input_semantic="TEXCOORD" input_set="1"/>
              </instance_material>
            </technique_common>
          </bind_material>
        </instance_geometry>
      </node>
    </visual_scene>
  </library_visual_scenes>
  <scene>
    <instance_visual_scene url="#Scene"/>
  </scene>
</COLLADA>