<?xml version="1.0" encoding="utf-8"?>
<COLLADA xmlns="http://www.collada.org/2005/11/COLLADASchema" version="1.4.1" xmlns:xsi="http://www.w3.org/2001/XMLSchema-instance">
  <asset>
    <contributor>
      <author>Blender User</author>
      <authoring_tool>Blender 4.3.1 commit date:2024-12-10, commit time:07:46, hash:33d812126174</authoring_tool>
    </contributor>
    <created>2026-09-19T15:30:52</created>
    <modified>2026-09-19T15:30:52</modified>
    <unit name="meter" meter="1"/>
    <up_axis>Z_UP</up_axis>
  </asset>
  <library_effects>
    <effect id="text_armas_e_esducos_mapu_003-effect">
      <profile_COMMON>
        <newparam sid="cloak_chibc_01_01_png-surface">
          <surface type="2D">
            <init_from>cloak_chibc_01_01_png</init_from>
          </surface>
        </newparam>
        <newparam sid="cloak_chibc_01_01_png-sampler">
          <sampler2D>
            <source>cloak_chibc_01_01_png-surface</source>
          </sampler2D>
        </newparam>
        <technique sid="common">
          <lambert>
            <emission>
              <color sid="emission">0 0 0 1</color>
            </emission>
            <diffuse>
              <texture texture="cloak_chibc_01_01_png-sampler" texcoord="Cubo_990-mesh-map-0"/>
            </diffuse>
            <index_of_refraction>
              <float sid="ior">1.45</float>
            </index_of_refraction>
          </lambert>
        </technique>
      </profile_COMMON>
    </effect>
  </library_effects>
  <library_images>
    <image id="cloak_chibc_01_01_png" name="cloak_chibc_01_01_png">
      <init_from>/home/welton/snap/0ad/743/.local/share/0ad/mods/Endovelico/art/textures/skins/props/cloak/cloak_chibc_01_01.png</init_from>
    </image>
  </library_images>
  <library_materials>
    <material id="text_armas_e_esducos_mapu_003-material" name="text armas e esducos mapu.003">
      <instance_effect url="#text_armas_e_esducos_mapu_003-effect"/>
    </material>
  </library_materials>
  <library_geometries>
    <geometry id="Cubo_990-mesh" name="Cubo.990">
      <mesh>
        <source id="Cubo_990-mesh-positions">
          <float_array id="Cubo_990-mesh-positions-array" count="120">-0.210185 -0.342548 -0.0195899 -0.210185 0.2898004 -0.04184043 0.2101868 -0.342548 -0.0195899 0.2101868 0.2898004 -0.04184043 -0.210185 -0.001898109 0.1971887 0.2101868 -0.001898109 0.1971887 -0.210185 0.1439511 0.1971887 0.2101868 0.1439511 0.1971887 0.2101868 0.2898004 -1.43234 -0.210185 0.2898004 -1.43234 -0.210185 -0.5315905 -0.2752423 0.2101868 -0.5315905 -0.2752423 0.2101868 0.1426283 0.1675324 0.2101868 -0.001210451 0.1675324 -0.210185 -0.001210451 0.1675324 -0.210185 0.1426283 0.1675324 0.2101868 -0.3171238 -0.0379669 -0.210185 -0.3171238 -0.0379669 0.2101868 0.2601131 -0.05444705 -0.210185 0.2601131 -0.05444705 -0.210185 0.2601131 -1.43234 0.2101868 0.2601131 -1.43234 0.2101868 -0.5051248 -0.2906793 -0.210185 -0.5051248 -0.2906793 9.38773e-7 0.2898004 -0.04184043 9.53674e-7 0.2898004 -0.7370902 -0.210185 0.2898004 -0.7370902 9.53674e-7 0.2601131 -0.05444705 -0.210185 0.2601131 -0.7433935 9.53674e-7 0.2601131 -0.7433935 -0.210185 0.2868834 -0.7433935 -0.210185 0.2868834 -0.04814374 0.2101868 0.2868834 -0.04814374 9.53674e-7 0.2898004 -1.43234 -0.210185 0.2868834 -1.43234 0.2101868 0.2868834 -1.43234 0.2101868 0.2868834 -0.7433935 0.2101868 0.2601131 -0.7433935 0.2101868 0.2898004 -0.7370902 9.38773e-7 0.2601131 -1.43234</float_array>
          <technique_common>
            <accessor source="#Cubo_990-mesh-positions-array" count="40" stride="3">
              <param name="X" type="float"/>
              <param name="Y" type="float"/>
              <param name="Z" type="float"/>
            </accessor>
          </technique_common>
        </source>
        <source id="Cubo_990-mesh-normals">
          <float_array id="Cubo_990-mesh-normals-array" count="120">-0.611781 0.3871827 0.6897925 0.6492583 -0.2126521 0.7302347 0.6117696 0.387178 0.6898052 -0.6492379 -0.2126573 0.7302514 0.6681956 -0.507348 0.5441623 0 0.9627135 0.2705234 -0.6509824 0.7307892 0.2053512 0.6509937 0.7307789 0.205352 0 1 0 -0.6681997 -0.50735 0.5441555 0.5718368 -0.8035215 -0.165396 0.7770661 0.1789996 -0.6034297 -0.8434552 -0.2771256 -0.4602007 0.8434484 -0.2771242 -0.460214 0.7490245 0.4535263 -0.4829868 -0.77705 0.1790053 -0.6034489 0 -0.9705258 -0.2409971 0.7655832 -0.6243746 -0.1550444 -0.5773608 -0.5773317 -0.5773586 0 -1 0 -0.7071185 -0.7070951 0 0.5834265 0.1626138 -0.79572 -0.7490278 0.4535275 -0.4829806 -0.577363 0.5773296 -0.5773583 -1 -3.95868e-7 0 -0.7071163 0.7070973 0 1 4.93707e-6 0 -0.5718403 -0.8035145 -0.1654183 -0.583436 0.1626065 -0.7957146 0 0.7070979 -0.7071158 -0.7071098 0 -0.7071039 0.5773541 0.5773493 -0.5773475 1 3.6873e-6 0 0.7071096 0 -0.7071039 0.7071202 0.7070934 0 -0.7655758 -0.6243842 -0.1550421 0 -0.7070981 -0.7071155 0.5773503 -0.5773503 -0.5773503 0.7071185 -0.7070951 0 -1 -4.16588e-7 0</float_array>
          <technique_common>
            <accessor source="#Cubo_990-mesh-normals-array" count="40" stride="3">
              <param name="X" type="float"/>
              <param name="Y" type="float"/>
              <param name="Z" type="float"/>
            </accessor>
          </technique_common>
        </source>
        <source id="Cubo_990-mesh-map-0">
          <float_array id="Cubo_990-mesh-map-0-array" count="456">0.3549179 0.7733241 0.004388988 0.5382471 0.004367589 0.7714911 0.3549368 0.5400801 0.004431843 0.2746586 0.004388988 0.5382471 0.004367589 0.7714911 0.1796227 1.005652 0.3548991 1.006568 0.3607912 0.01131451 0.5360676 0.4935634 0.5360676 0.01018708 0.3549747 0.2746586 0.004431843 0.01356959 0.004431843 0.2764906 0.004388988 0.5382471 0.3549179 0.7733241 0.004367589 0.7714911 0.004431843 0.2746586 0.3549368 0.5400801 0.004388988 0.5382471 0.004367589 0.7714911 0.1796227 1.005652 0.004346311 1.004736 0.711344 0.9758122 0.5360676 0.4935634 0.711344 0.4924359 0.004431843 0.01356959 0.3549747 0.2746586 0.004431843 0.2764906 0.711344 0.9758122 0.711344 0.4924359 0.711344 0.4924359 0.004346311 1.004736 0.004346311 1.004736 0.004346311 1.004736 0.3549747 0.01173549 0.3549747 0.2746586 0.3549747 0.01173549 0.004388988 0.5382471 0.004367589 0.7714911 0.004367589 0.7714911 0.5360676 0.9769395 0.711344 0.9758122 0.711344 0.9758122 0.004431843 0.2746586 0.004388988 0.5382471 0.004388988 0.5382471 0.3549747 0.01173549 0.004431843 0.01356959 0.004431843 0.01356959 0.3607912 0.9780668 0.3607912 0.4946907 0.3607912 0.9780668 0.3548991 1.006568 0.3549179 0.7733241 0.3549179 0.7733241 0.3549368 0.5400801 0.3549179 0.7733241 0.3549368 0.5400801 0.004431843 0.01356959 0.004431843 0.2764906 0.004431843 0.2764906 0.3549747 0.2764906 0.3549368 0.5400801 0.3549747 0.2764906 0.3549179 0.7733241 0.3549368 0.5400801 0.004388988 0.5382471 0.3549368 0.5400801 0.3549747 0.2764906 0.004431843 0.2746586 0.3548991 1.006568 0.3549179 0.7733241 0.004367589 0.7714911 0.3607912 0.01131451 0.3607912 0.4946907 0.5360676 0.4935634 0.3549747 0.2746586 0.3549747 0.01173549 0.004431843 0.01356959 0.004388988 0.5382471 0.3549368 0.5400801 0.3549179 0.7733241 0.004431843 0.2746586 0.3549747 0.2764906 0.3549368 0.5400801 0.004367589 0.7714911 0.3549179 0.7733241 0.3548991 1.006568 0.711344 0.9758122 0.5360676 0.9769395 0.5360676 0.4935634 0.004431843 0.01356959 0.3549747 0.01173549 0.3549747 0.2746586 0.711344 0.9758122 0.711344 0.9758122 0.711344 0.4924359 0.004346311 1.004736 0.004367589 0.7714911 0.004367589 0.7714911 0.3549747 0.01173549 0.3549747 0.2746586 0.3549747 0.2746586 0.004388988 0.5382471 0.004388988 0.5382471 0.004367589 0.7714911 0.3607912 0.9780668 0.3607912 0.9780668 0.5360676 0.9769395 0.004431843 0.2746586 0.004431843 0.2746586 0.004388988 0.5382471 0.3549747 0.01173549 0.3549747 0.01173549 0.004431843 0.01356959 0.3607912 0.9780668 0.3607912 0.4946907 0.3607912 0.4946907 0.3548991 1.006568 0.3548991 1.006568 0.3549179 0.7733241 0.3549368 0.5400801 0.3549179 0.7733241 0.3549179 0.7733241 0.004431843 0.01356959 0.004431843 0.01356959 0.004431843 0.2764906 0.3549747 0.2764906 0.3549368 0.5400801 0.3549368 0.5400801 0.3607912 0.4946907 0.3607912 0.01131451 0.3607912 0.01131451 0.3607912 0.4946907 0.3607912 0.4946907 0.3607912 0.01131451 0.3607912 0.4946907 0.3607912 0.01131451 0.3607912 0.01131451 0.3607912 0.9780668 0.5360676 0.9769395 0.711344 0.9758122 0.711344 0.4924359 0.711344 0.4924359 0.711344 0.009059727 0.711344 0.4924359 0.711344 0.9758122 0.711344 0.4924359 0.711344 0.9758122 0.711344 0.9758122 0.711344 0.4924359 0.5360676 0.4935634 0.3607912 0.4946907 0.3607912 0.01131451 0.5360676 0.4935634 0.5360676 0.9769395 0.3607912 0.4946907 0.5360676 0.9769395 0.3607912 0.9780668 0.3607912 0.4946907 0.5360676 0.4935634 0.5360676 0.9769395 0.711344 0.9758122 0.5360676 0.4935634 0.3607912 0.4946907 0.5360676 0.9769395 0.3607912 0.4946907 0.3607912 0.9780668 0.5360676 0.9769395 0.3607912 0.9780668 0.3607912 0.4946907 0.3607912 0.9780668 0.3607912 0.9780668 0.3607912 0.4946907 0.3607912 0.4946907 0.3607912 0.4946907 0.3607912 0.01131451 0.3607912 0.4946907 0.711344 0.9758122 0.5360676 0.9769395 0.3607912 0.9780668 0.711344 0.4924359 0.711344 0.009059727 0.711344 0.009059727 0.711344 0.4924359 0.711344 0.4924359 0.711344 0.009059727 0.711344 0.4924359 0.711344 0.009059727 0.711344 0.009059727 0.711344 0.4924359 0.5360676 0.01018708 0.711344 0.009059727 0.711344 0.4924359 0.5360676 0.4935634 0.5360676 0.01018708 0.5360676 0.4935634 0.3607912 0.01131451 0.5360676 0.01018708 0.5360676 0.01018708 0.711344 0.4924359 0.711344 0.009059727 0.5360676 0.01018708 0.5360676 0.4935634 0.711344 0.4924359 0.5360676 0.4935634 0.711344 0.9758122 0.711344 0.4924359 0.004367589 0.7714911 0.004346311 1.004736 0.1796227 1.005652 0.004367589 0.7714911 0.3548991 1.006568 0.1796227 1.005652 0.004346311 1.004736 0.004367589 0.7714911 0.004346311 1.004736 0.3548991 1.006568 0.3548991 1.006568 0.3548991 1.006568 0.3607912 0.9780668 0.3607912 0.9780668 0.5360676 0.9769395 0.711344 0.9758122 0.711344 0.9758122 0.5360676 0.9769395</float_array>
          <technique_common>
            <accessor source="#Cubo_990-mesh-map-0-array" count="228" stride="2">
              <param name="S" type="float"/>
              <param name="T" type="float"/>
            </accessor>
          </technique_common>
        </source>
        <vertices id="Cubo_990-mesh-vertices">
          <input semantic="POSITION" source="#Cubo_990-mesh-positions"/>
        </vertices>
        <triangles material="text_armas_e_esducos_mapu_003-material" count="76">
          <input semantic="VERTEX" source="#Cubo_990-mesh-vertices" offset="0"/>
          <input semantic="NORMAL" source="#Cubo_990-mesh-normals" offset="1"/>
          <input semantic="TEXCOORD" source="#Cubo_990-mesh-map-0" offset="2" set="0"/>
          <p>6 0 0 5 1 1 7 2 2 4 3 3 2 4 4 5 1 5 7 2 6 24 5 7 1 6 8 3 7 9 25 8 10 24 5 11 0 9 12 11 10 13 2 4 14 13 11 15 15 12 16 12 13 17 16 14 18 14 15 19 13 11 20 12 13 21 27 16 22 18 17 23 20 18 24 29 19 25 28 20 26 22 21 27 17 22 28 16 14 29 9 23 30 30 24 31 26 25 32 3 7 33 18 17 34 32 26 35 10 27 36 17 22 37 23 28 38 5 1 39 12 13 40 7 2 41 33 29 42 34 30 43 9 23 44 2 4 45 13 11 46 5 1 47 10 27 48 22 21 49 11 10 50 8 31 51 36 32 52 35 33 53 1 6 54 15 12 55 6 0 56 4 3 57 15 12 58 14 15 59 11 10 60 16 14 61 2 4 62 0 9 63 14 15 64 17 22 65 6 0 66 4 3 67 5 1 68 4 3 69 0 9 70 2 4 71 1 6 72 6 0 73 7 2 74 3 7 75 38 34 76 25 8 77 0 9 78 10 27 79 11 10 80 13 11 81 14 15 82 15 12 83 16 14 84 17 22 85 14 15 86 12 13 87 15 12 88 19 35 89 20 18 90 39 36 91 29 19 92 22 21 93 23 28 94 17 22 95 9 23 96 34 30 97 30 24 98 3 7 99 7 2 100 12 13 101 10 27 102 0 9 103 17 22 104 5 1 105 13 11 106 12 13 107 35 33 108 21 37 109 39 36 110 2 4 111 16 14 112 13 11 113 10 27 114 23 28 115 22 21 116 8 31 117 38 34 118 36 32 119 1 6 120 19 35 121 15 12 122 4 3 123 6 0 124 15 12 125 11 10 126 22 21 127 16 14 128 0 9 129 4 3 130 14 15 131 36 32 132 32 26 133 18 17 134 36 32 135 38 34 136 32 26 137 38 34 138 3 7 139 32 26 140 8 31 141 39 36 142 20 18 143 30 24 144 28 20 145 19 35 146 30 24 147 34 30 148 28 20 149 34 30 150 20 18 151 28 20 152 29 19 153 37 38 154 18 17 155 29 19 156 39 36 157 37 38 158 39 36 159 21 37 160 37 38 161 25 8 162 33 29 163 9 23 164 25 8 165 38 34 166 33 29 167 38 34 168 8 31 169 33 29 170 35 33 171 37 38 172 21 37 173 35 33 174 36 32 175 37 38 176 36 32 177 18 17 178 37 38 179 20 18 180 33 29 181 8 31 182 26 25 183 31 39 184 1 6 185 26 25 186 30 24 187 31 39 188 30 24 189 19 35 190 31 39 191 28 20 192 27 16 193 19 35 194 28 20 195 29 19 196 27 16 197 29 19 198 18 17 199 27 16 200 24 5 201 26 25 202 1 6 203 24 5 204 25 8 205 26 25 206 25 8 207 9 23 208 26 25 209 7 2 210 3 7 211 24 5 212 12 13 213 19 35 214 27 16 215 3 7 216 12 13 217 18 17 218 1 6 219 31 39 220 19 35 221 8 31 222 35 33 223 39 36 224 20 18 225 34 30 226 33 29 227</p>
        </triangles>
      </mesh>
    </geometry>
  </library_geometries>
  <library_visual_scenes>
    <visual_scene id="Scene" name="Scene">
      <node id="prop_cloak_01" name="prop_cloak_01" type="NODE">
        <matrix sid="transform">1 0 0 0 0 1 0 0 0 0 1 0 0 0 0 1</matrix>
        <instance_geometry url="#Cubo_990-mesh" name="prop_cloak_01">
          <bind_material>
            <technique_common>
              <instance_material symbol="text_armas_e_esducos_mapu_003-material" target="#text_armas_e_esducos_mapu_003-material">
                <bind_vertex_input semantic="Cubo_990-mesh-map-0" input_semantic="TEXCOORD" input_set="0"/>
              </instance_material>
            </technique_common>
          </bind_material>
        </instance_geometry>
      </node>
    </visual_scene>
  </library_visual_scenes>
  <scene>
    <instance_visual_scene url="#Scene"/>
  </scene>
</COLLADA>