<?xml version="1.0" encoding="utf-8"?>
<COLLADA xmlns="http://www.collada.org/2005/11/COLLADASchema" version="1.4.1" xmlns:xsi="http://www.w3.org/2001/XMLSchema-instance">
  <asset>
    <contributor>
      <author>Blender User</author>
      <authoring_tool>Blender 4.3.1 commit date:2024-12-10, commit time:07:46, hash:33d812126174</authoring_tool>
    </contributor>
    <created>2026-08-08T10:46:15</created>
    <modified>2026-08-08T10:46:15</modified>
    <unit name="meter" meter="1"/>
    <up_axis>Z_UP</up_axis>
  </asset>
  <library_effects>
    <effect id="pluma__-effect">
      <profile_COMMON>
        <newparam sid="feather_ostrich_white_png-surface">
          <surface type="2D">
            <init_from>feather_ostrich_white_png</init_from>
          </surface>
        </newparam>
        <newparam sid="feather_ostrich_white_png-sampler">
          <sampler2D>
            <source>feather_ostrich_white_png-surface</source>
          </sampler2D>
        </newparam>
        <technique sid="common">
          <lambert>
            <emission>
              <color sid="emission">0 0 0 1</color>
            </emission>
            <diffuse>
              <texture texture="feather_ostrich_white_png-sampler" texcoord="Circle_028-mesh-map-0"/>
            </diffuse>
            <index_of_refraction>
              <float sid="ior">1.45</float>
            </index_of_refraction>
          </lambert>
        </technique>
      </profile_COMMON>
    </effect>
  </library_effects>
  <library_images/>
  <library_materials>
    <material id="pluma__-material" name="pluma  ">
      <instance_effect url="#pluma__-effect"/>
    </material>
  </library_materials>
  <library_geometries>
    <geometry id="Circle_017-mesh" name="Circle.017">
      <mesh>
        <source id="Circle_017-mesh-positions">
          <float_array id="Circle_017-mesh-positions-array" count="72">0.1620442 -0.2184133 1.001987 0.00143969 -0.220267 1.199763 0.1604893 -0.04258584 0.884079 -6.15801e-4 0.07540333 0.9654665 0.1595154 0.07610142 0.6325243 -0.001708149 0.2171069 0.3991375 0.1596016 0.07531416 0.3468461 -0.001599013 0.2138643 0.6820676 -0.157843 0.0737462 0.6315062 -0.1584692 0.07296538 0.3513241 -0.1573175 -0.04396116 0.8866959 -0.1574147 -0.2209315 1.002734 0.001462638 -0.2221451 1.197141 0.1588283 -0.04389917 0.8829725 0.1603745 -0.2193434 1.000622 -5.78764e-4 0.07288074 0.9634712 0.1579228 0.07437396 0.6321402 -0.001672565 0.213962 0.3991265 -0.001561701 0.2107099 0.681309 0.158052 0.07354938 0.3468509 -0.1562182 0.07204926 0.6311269 -0.1568796 0.07123649 0.3513255 -0.1556301 -0.04524958 0.8855958 -0.1557227 -0.2218251 1.001373</float_array>
          <technique_common>
            <accessor source="#Circle_017-mesh-positions-array" count="24" stride="3">
              <param name="X" type="float"/>
              <param name="Y" type="float"/>
              <param name="Z" type="float"/>
            </accessor>
          </technique_common>
        </source>
        <source id="Circle_017-mesh-normals">
          <float_array id="Circle_017-mesh-normals-array" count="186">0.6788825 0.4385626 0.5888814 0.7110165 0.3959619 0.5810937 0.6761208 0.5691773 0.4678651 0.6662803 0.5874583 0.4593077 0.6694121 0.72599 0.157563 0.6564131 0.7543982 0.00233525 0.6704747 0.7205968 0.1766464 0.6598649 0.7513821 -0.001871466 -0.6854915 0.7114012 0.1549514 -0.6881588 0.7039853 0.1756198 -0.6736738 0.7390216 0.003282189 -0.6764971 0.5781862 0.4561278 -0.6767675 0.7361966 -5.39366e-4 -0.6855044 0.5596256 0.4657285 -0.6871109 0.4261698 0.5884368 -0.720564 0.3804835 0.5796723 -0.6791263 -0.4382631 -0.5888234 -0.6761096 -0.5691826 -0.467875 -0.7113257 -0.3957723 -0.5808444 -0.6662957 -0.5874243 -0.4593287 -0.6694139 -0.7260066 -0.1574785 -0.6564244 -0.7543883 -0.002323091 -0.6704714 -0.7205901 -0.1766864 -0.6598965 -0.7513542 0.001872599 0.685493 -0.7114155 -0.1548787 0.673684 -0.7390123 -0.00327742 0.688161 -0.703969 -0.1756764 0.6764425 -0.5782225 -0.4561628 0.6768001 -0.7361668 5.38748e-4 0.6854228 -0.5596874 -0.4657742 0.6873156 -0.4258971 -0.5883952 0.7208683 -0.3802924 -0.5794193 -0.2994507 -0.9237054 0.2389512 -0.5800095 -0.6654545 0.4698503 -0.5809437 -0.6640928 0.4706223 0.751361 -0.6598877 0.002246677 0.7433472 -0.6527146 -0.1462829 0.7514461 -0.6597907 0.002247452 0.1640485 0.1482172 -0.9752537 -0.01145726 0.00409764 -0.999926 0.1631656 0.1491986 -0.9752522 0.3163046 -0.9170796 0.2427269 0.5895969 -0.6549896 0.4726141 0.314368 -0.9181708 0.2411125 -0.1815852 0.1549508 -0.9710907 -0.01229047 0.003348588 -0.9999189 0.7432284 -0.6528026 -0.1464934 0.7187862 -0.5240323 -0.4568772 -0.6933839 -0.3948478 -0.6027554 -0.7085633 -0.5344883 -0.4607173 -0.6933802 -0.3948498 -0.6027584 0.7031717 -0.3917084 -0.593392 0.7187299 -0.5246565 -0.4562489 -0.7305745 -0.6674725 -0.1440187 -0.7084997 -0.5351843 -0.4600065 -0.7360783 -0.6768863 0.003705084 -0.7306881 -0.6674526 -0.1435336 -0.2974615 -0.9247683 0.2373188 0.5904927 -0.6536301 0.4733773 -0.1806721 0.1560129 -0.9710909 0.7031654 -0.3917121 -0.5933973 -0.7361536 -0.6768044 0.003705978</float_array>
          <technique_common>
            <accessor source="#Circle_017-mesh-normals-array" count="62" stride="3">
              <param name="X" type="float"/>
              <param name="Y" type="float"/>
              <param name="Z" type="float"/>
            </accessor>
          </technique_common>
        </source>
        <source id="Circle_017-mesh-map-0">
          <float_array id="Circle_017-mesh-map-0-array" count="264">0.4961408 0.9516549 0.953041 0.9516549 0.953041 0.6456935 0.4961408 0.9516549 0.953041 0.6456935 0.4961408 0.6456935 0.4961408 0.6456935 0.953041 0.6456935 0.953041 0.3397324 0.4961408 0.03377139 0.4961408 0.3397324 0.953041 0.3397324 0.4961408 0.03377139 0.953041 0.3397324 0.953041 0.03377139 0.4961408 0.6456935 0.953041 0.3397324 0.4961408 0.3397324 0.03923982 0.3397324 0.4961408 0.3397324 0.4961408 0.03377139 0.03923982 0.3397324 0.4961408 0.6456935 0.4961408 0.3397324 0.03923982 0.3397324 0.4961408 0.03377139 0.03923982 0.03377139 0.03923982 0.3397324 0.03923982 0.6456935 0.4961408 0.6456935 0.03923982 0.6456935 0.4961408 0.9516549 0.4961408 0.6456935 0.03923982 0.6456935 0.03923982 0.9516549 0.4961408 0.9516549 0.4961408 0.9516549 0.953041 0.6456935 0.953041 0.9516549 0.4961408 0.9516549 0.4961408 0.6456935 0.953041 0.6456935 0.4961408 0.6456935 0.953041 0.3397324 0.953041 0.6456935 0.4961408 0.03377139 0.953041 0.3397324 0.4961408 0.3397324 0.4961408 0.03377139 0.953041 0.03377139 0.953041 0.3397324 0.4961408 0.6456935 0.4961408 0.3397324 0.953041 0.3397324 0.03923982 0.3397324 0.4961408 0.03377139 0.4961408 0.3397324 0.03923982 0.3397324 0.4961408 0.3397324 0.4961408 0.6456935 0.03923982 0.3397324 0.03923982 0.03377139 0.4961408 0.03377139 0.03923982 0.3397324 0.4961408 0.6456935 0.03923982 0.6456935 0.03923982 0.6456935 0.4961408 0.6456935 0.4961408 0.9516549 0.03923982 0.6456935 0.4961408 0.9516549 0.03923982 0.9516549 0.03923982 0.9516549 0.4961408 0.9516549 0.4961408 0.9516549 0.953041 0.03377139 0.953041 0.3397324 0.953041 0.03377139 0.03923982 0.03377139 0.4961408 0.03377139 0.03923982 0.03377139 0.953041 0.9516549 0.4961408 0.9516549 0.953041 0.9516549 0.953041 0.03377139 0.4961408 0.03377139 0.4961408 0.03377139 0.953041 0.3397324 0.953041 0.6456935 0.953041 0.3397324 0.03923982 0.9516549 0.03923982 0.6456935 0.03923982 0.9516549 0.953041 0.9516549 0.953041 0.6456935 0.953041 0.6456935 0.03923982 0.3397324 0.03923982 0.6456935 0.03923982 0.6456935 0.03923982 0.03377139 0.03923982 0.3397324 0.03923982 0.3397324 0.03923982 0.9516549 0.03923982 0.9516549 0.4961408 0.9516549 0.953041 0.03377139 0.953041 0.3397324 0.953041 0.3397324 0.03923982 0.03377139 0.4961408 0.03377139 0.4961408 0.03377139 0.953041 0.9516549 0.4961408 0.9516549 0.4961408 0.9516549 0.953041 0.03377139 0.953041 0.03377139 0.4961408 0.03377139 0.953041 0.3397324 0.953041 0.6456935 0.953041 0.6456935 0.03923982 0.9516549 0.03923982 0.6456935 0.03923982 0.6456935 0.953041 0.9516549 0.953041 0.9516549 0.953041 0.6456935 0.03923982 0.3397324 0.03923982 0.3397324 0.03923982 0.6456935 0.03923982 0.03377139 0.03923982 0.03377139 0.03923982 0.3397324</float_array>
          <technique_common>
            <accessor source="#Circle_017-mesh-map-0-array" count="132" stride="2">
              <param name="S" type="float"/>
              <param name="T" type="float"/>
            </accessor>
          </technique_common>
        </source>
        <vertices id="Circle_017-mesh-vertices">
          <input semantic="POSITION" source="#Circle_017-mesh-positions"/>
        </vertices>
        <triangles material="pluma__-material" count="44">
          <input semantic="VERTEX" source="#Circle_017-mesh-vertices" offset="0"/>
          <input semantic="NORMAL" source="#Circle_017-mesh-normals" offset="1"/>
          <input semantic="TEXCOORD" source="#Circle_017-mesh-map-0" offset="2" set="0"/>
          <p>1 0 0 0 1 1 2 2 2 1 0 3 2 2 4 3 3 5 3 3 6 2 2 7 4 4 8 5 5 9 7 6 10 4 4 11 5 5 12 4 4 13 6 7 14 3 3 15 4 4 16 7 6 17 8 8 18 7 9 19 5 10 20 8 8 21 3 11 22 7 9 23 8 8 24 5 10 25 9 12 26 8 8 27 10 13 28 3 11 29 10 13 30 1 14 31 3 11 32 10 13 33 11 15 34 1 14 35 12 16 36 13 17 37 14 18 38 12 16 39 15 19 40 13 17 41 15 19 42 16 20 43 13 17 44 17 21 45 16 20 46 18 22 47 17 21 48 19 23 49 16 20 50 15 19 51 18 22 52 16 20 53 20 24 54 17 25 55 18 26 56 20 24 57 18 26 58 15 27 59 20 24 60 21 28 61 17 25 62 20 24 63 15 27 64 22 29 65 22 29 66 15 27 67 12 30 68 22 29 69 12 30 70 23 31 71 11 32 72 12 33 73 1 34 74 6 35 75 16 36 76 19 37 77 9 38 78 17 39 79 21 40 80 0 41 81 12 42 82 14 43 83 6 44 84 17 39 85 5 45 86 4 46 87 13 47 88 16 36 89 11 48 90 22 49 91 23 50 92 0 51 93 13 47 94 2 52 95 8 53 96 22 49 97 10 54 98 9 55 99 20 56 100 8 53 101 11 32 102 23 57 103 12 33 104 6 35 105 4 46 106 16 36 107 9 38 108 5 45 109 17 39 110 0 41 111 1 58 112 12 42 113 6 44 114 19 59 115 17 39 116 4 46 117 2 52 118 13 47 119 11 48 120 10 54 121 22 49 122 0 51 123 14 60 124 13 47 125 8 53 126 20 56 127 22 49 128 9 55 129 21 61 130 20 56 131</p>
        </triangles>
      </mesh>
    </geometry>
  </library_geometries>
  <library_visual_scenes>
    <visual_scene id="Scene" name="Scene">
      <node id="a-feathers_lib_01_01" name="a-feathers_lib_01_01" type="NODE">
        <matrix sid="transform">1 0 0 0 0 1 0 0 0 0 1 0 0 0 0 1</matrix>
        <instance_geometry url="#Circle_017-mesh" name="a-feathers_lib_01_01">
          <bind_material>
            <technique_common>
              <instance_material symbol="pluma__-material" target="#pluma__-material">
                <bind_vertex_input semantic="Circle_028-mesh-map-0" input_semantic="TEXCOORD" input_set="0"/>
              </instance_material>
            </technique_common>
          </bind_material>
        </instance_geometry>
      </node>
    </visual_scene>
  </library_visual_scenes>
  <scene>
    <instance_visual_scene url="#Scene"/>
  </scene>
</COLLADA>