<?xml version="1.0" encoding="utf-8"?>
<COLLADA xmlns="http://www.collada.org/2005/11/COLLADASchema" version="1.4.1" xmlns:xsi="http://www.w3.org/2001/XMLSchema-instance">
  <asset>
    <contributor>
      <author>Blender User</author>
      <authoring_tool>Blender 4.3.1 commit date:2024-12-10, commit time:07:46, hash:33d812126174</authoring_tool>
    </contributor>
    <created>2026-08-08T10:49:43</created>
    <modified>2026-08-08T10:49:43</modified>
    <unit name="meter" meter="1"/>
    <up_axis>Z_UP</up_axis>
  </asset>
  <library_effects>
    <effect id="pluma__-effect">
      <profile_COMMON>
        <newparam sid="feather_png-surface">
          <surface type="2D">
            <init_from>feather_png</init_from>
          </surface>
        </newparam>
        <newparam sid="feather_png-sampler">
          <sampler2D>
            <source>feather_png-surface</source>
          </sampler2D>
        </newparam>
        <technique sid="common">
          <lambert>
            <emission>
              <color sid="emission">0 0 0 1</color>
            </emission>
            <diffuse>
              <texture texture="feather_png-sampler" texcoord="Circle_028-mesh-map-0"/>
            </diffuse>
            <index_of_refraction>
              <float sid="ior">1.45</float>
            </index_of_refraction>
          </lambert>
        </technique>
      </profile_COMMON>
    </effect>
  </library_effects>
  <library_images>
    <image id="feather_png" name="feather_png">
      <init_from>/home/welton/Downloads/feather.png</init_from>
    </image>
  </library_images>
  <library_materials>
    <material id="pluma__-material" name="pluma  ">
      <instance_effect url="#pluma__-effect"/>
    </material>
  </library_materials>
  <library_geometries>
    <geometry id="Circle_013-mesh" name="Circle.013">
      <mesh>
        <source id="Circle_013-mesh-positions">
          <float_array id="Circle_013-mesh-positions-array" count="72">-0.1582149 0.8137295 0.4077425 0.002399146 0.9879978 0.5012648 -0.1580268 0.6263883 0.5063486 0.002156436 0.6412784 0.6499443 -0.1579754 0.348655 0.4911292 0.002147078 0.07569772 0.5052781 -0.1580557 0.09772336 0.3545785 0.002063214 0.3261288 0.6369758 0.1593916 0.347706 0.4907436 0.1600238 0.1016036 0.3568173 0.1597812 0.6281694 0.5085561 0.161254 0.8144037 0.4080672 0.002390861 0.9865845 0.4983654 -0.1563557 0.6260333 0.504678 -0.156538 0.8129651 0.4062867 0.002138853 0.6407228 0.6467764 -0.1563695 0.3491324 0.4894381 0.002135932 0.0771839 0.5025067 0.002050518 0.3269618 0.6338401 -0.1564924 0.09856069 0.3530393 0.1577802 0.3481853 0.4890592 0.1584479 0.1024329 0.3552861 0.1581038 0.6278206 0.5068884 0.1595688 0.8136373 0.4066219</float_array>
          <technique_common>
            <accessor source="#Circle_013-mesh-positions-array" count="24" stride="3">
              <param name="X" type="float"/>
              <param name="Y" type="float"/>
              <param name="Z" type="float"/>
            </accessor>
          </technique_common>
        </source>
        <source id="Circle_013-mesh-normals">
          <float_array id="Circle_013-mesh-normals-array" count="186">-0.6822706 0.3119808 0.661192 -0.7140734 0.3255079 0.6197934 -0.6805235 0.1434008 0.718557 -0.6708253 0.1271433 0.7306354 -0.675035 -0.2041621 0.708975 -0.6622576 -0.3542706 0.6602328 -0.6760565 -0.1848059 0.7132983 -0.6656854 -0.356524 0.655556 0.6799404 -0.2045307 0.7041651 0.6826655 -0.1828325 0.7074886 0.6679081 -0.3510429 0.6562528 0.6719819 0.1237919 0.7301479 0.6710235 -0.3530727 0.6519718 0.6811333 0.1410307 0.7184481 0.6837778 0.3124333 0.659419 0.7175852 0.3263259 0.6152909 0.6825122 -0.3120735 -0.6608988 0.6805135 -0.1434081 -0.7185649 0.7143799 -0.3253799 -0.6195073 0.6708416 -0.1271786 -0.7306142 0.6750367 0.2042441 -0.7089498 0.6622683 0.3542764 -0.6602188 0.6760517 0.1847677 -0.7133127 0.6657172 0.3565117 -0.6555305 -0.679942 0.2046014 -0.7041429 -0.667919 0.3510422 -0.6562421 -0.6826682 0.1827744 -0.7075011 -0.6719265 -0.1238058 -0.7301965 -0.6710569 0.3530575 -0.6519457 -0.6810511 -0.1410419 -0.7185238 -0.6839848 -0.3125268 -0.65916 -0.7178924 -0.3261945 -0.6150022 0.7358173 0.1879979 -0.6505611 0.712643 -0.1537344 -0.6844748 0.7125838 -0.1527841 -0.6847491 0.7413734 0.3223979 -0.5885788 0.735931 0.1884199 -0.6503103 0.3066549 0.6483816 -0.6968244 0.5851864 0.727644 -0.3578984 0.5861104 0.7276719 -0.3563259 -0.7461082 0.318614 -0.5846433 -0.7382112 0.1844791 -0.6488541 -0.7461937 0.3185692 -0.5845586 -0.165181 -0.9277964 -0.3345285 0.01141577 -0.8815525 -0.4719482 -0.164305 -0.9282653 -0.3336578 -0.3091592 0.6508094 -0.6934463 -0.5844787 0.7294113 -0.3554489 -0.3072142 0.649901 -0.6951606 -0.7380926 0.1843188 -0.6490347 -0.7148243 -0.1500214 -0.6830226 0.1803044 -0.9286501 -0.3241906 0.01225614 -0.8811926 -0.4725987 0.6965038 -0.3449963 -0.6291741 0.6965009 -0.3449977 -0.6291766 -0.7001267 -0.3330979 -0.6315603 -0.7147639 -0.1491673 -0.6832728 0.7414479 0.3223595 -0.588506 0.3046717 0.6474575 -0.6985514 -0.5853845 0.7294393 -0.3538973 0.1793819 -0.9291525 -0.3232613 -0.7001195 -0.3331012 -0.6315667</float_array>
          <technique_common>
            <accessor source="#Circle_013-mesh-normals-array" count="62" stride="3">
              <param name="X" type="float"/>
              <param name="Y" type="float"/>
              <param name="Z" type="float"/>
            </accessor>
          </technique_common>
        </source>
        <source id="Circle_013-mesh-map-0">
          <float_array id="Circle_013-mesh-map-0-array" count="264">0.4961408 0.9516549 0.953041 0.9516549 0.953041 0.6456935 0.4961408 0.9516549 0.953041 0.6456935 0.4961408 0.6456935 0.4961408 0.6456935 0.953041 0.6456935 0.953041 0.3397324 0.4961408 0.03377139 0.4961408 0.3397324 0.953041 0.3397324 0.4961408 0.03377139 0.953041 0.3397324 0.953041 0.03377139 0.4961408 0.6456935 0.953041 0.3397324 0.4961408 0.3397324 0.03923982 0.3397324 0.4961408 0.3397324 0.4961408 0.03377139 0.03923982 0.3397324 0.4961408 0.6456935 0.4961408 0.3397324 0.03923982 0.3397324 0.4961408 0.03377139 0.03923982 0.03377139 0.03923982 0.3397324 0.03923982 0.6456935 0.4961408 0.6456935 0.03923982 0.6456935 0.4961408 0.9516549 0.4961408 0.6456935 0.03923982 0.6456935 0.03923982 0.9516549 0.4961408 0.9516549 0.4961408 0.9516549 0.953041 0.6456935 0.953041 0.9516549 0.4961408 0.9516549 0.4961408 0.6456935 0.953041 0.6456935 0.4961408 0.6456935 0.953041 0.3397324 0.953041 0.6456935 0.4961408 0.03377139 0.953041 0.3397324 0.4961408 0.3397324 0.4961408 0.03377139 0.953041 0.03377139 0.953041 0.3397324 0.4961408 0.6456935 0.4961408 0.3397324 0.953041 0.3397324 0.03923982 0.3397324 0.4961408 0.03377139 0.4961408 0.3397324 0.03923982 0.3397324 0.4961408 0.3397324 0.4961408 0.6456935 0.03923982 0.3397324 0.03923982 0.03377139 0.4961408 0.03377139 0.03923982 0.3397324 0.4961408 0.6456935 0.03923982 0.6456935 0.03923982 0.6456935 0.4961408 0.6456935 0.4961408 0.9516549 0.03923982 0.6456935 0.4961408 0.9516549 0.03923982 0.9516549 0.03923982 0.3397324 0.03923982 0.6456935 0.03923982 0.6456935 0.03923982 0.03377139 0.03923982 0.3397324 0.03923982 0.3397324 0.03923982 0.9516549 0.4961408 0.9516549 0.4961408 0.9516549 0.953041 0.03377139 0.953041 0.3397324 0.953041 0.03377139 0.03923982 0.03377139 0.4961408 0.03377139 0.03923982 0.03377139 0.953041 0.9516549 0.4961408 0.9516549 0.953041 0.9516549 0.953041 0.3397324 0.953041 0.6456935 0.953041 0.3397324 0.953041 0.03377139 0.4961408 0.03377139 0.4961408 0.03377139 0.03923982 0.9516549 0.03923982 0.6456935 0.03923982 0.9516549 0.953041 0.9516549 0.953041 0.6456935 0.953041 0.6456935 0.03923982 0.3397324 0.03923982 0.3397324 0.03923982 0.6456935 0.03923982 0.03377139 0.03923982 0.03377139 0.03923982 0.3397324 0.03923982 0.9516549 0.03923982 0.9516549 0.4961408 0.9516549 0.953041 0.03377139 0.953041 0.3397324 0.953041 0.3397324 0.03923982 0.03377139 0.4961408 0.03377139 0.4961408 0.03377139 0.953041 0.9516549 0.4961408 0.9516549 0.4961408 0.9516549 0.953041 0.3397324 0.953041 0.6456935 0.953041 0.6456935 0.953041 0.03377139 0.953041 0.03377139 0.4961408 0.03377139 0.03923982 0.9516549 0.03923982 0.6456935 0.03923982 0.6456935 0.953041 0.9516549 0.953041 0.9516549 0.953041 0.6456935</float_array>
          <technique_common>
            <accessor source="#Circle_013-mesh-map-0-array" count="132" stride="2">
              <param name="S" type="float"/>
              <param name="T" type="float"/>
            </accessor>
          </technique_common>
        </source>
        <vertices id="Circle_013-mesh-vertices">
          <input semantic="POSITION" source="#Circle_013-mesh-positions"/>
        </vertices>
        <triangles material="pluma__-material" count="44">
          <input semantic="VERTEX" source="#Circle_013-mesh-vertices" offset="0"/>
          <input semantic="NORMAL" source="#Circle_013-mesh-normals" offset="1"/>
          <input semantic="TEXCOORD" source="#Circle_013-mesh-map-0" offset="2" set="0"/>
          <p>1 0 0 0 1 1 2 2 2 1 0 3 2 2 4 3 3 5 3 3 6 2 2 7 4 4 8 5 5 9 7 6 10 4 4 11 5 5 12 4 4 13 6 7 14 3 3 15 4 4 16 7 6 17 8 8 18 7 9 19 5 10 20 8 8 21 3 11 22 7 9 23 8 8 24 5 10 25 9 12 26 8 8 27 10 13 28 3 11 29 10 13 30 1 14 31 3 11 32 10 13 33 11 15 34 1 14 35 12 16 36 13 17 37 14 18 38 12 16 39 15 19 40 13 17 41 15 19 42 16 20 43 13 17 44 17 21 45 16 20 46 18 22 47 17 21 48 19 23 49 16 20 50 15 19 51 18 22 52 16 20 53 20 24 54 17 25 55 18 26 56 20 24 57 18 26 58 15 27 59 20 24 60 21 28 61 17 25 62 20 24 63 15 27 64 22 29 65 22 29 66 15 27 67 12 30 68 22 29 69 12 30 70 23 31 71 8 32 72 22 33 73 10 34 74 9 35 75 20 36 76 8 32 77 11 37 78 12 38 79 1 39 80 6 40 81 16 41 82 19 42 83 9 43 84 17 44 85 21 45 86 0 46 87 12 47 88 14 48 89 4 49 90 13 50 91 16 41 92 6 51 93 17 44 94 5 52 95 11 53 96 22 33 97 23 54 98 0 55 99 13 50 100 2 56 101 8 32 102 20 36 103 22 33 104 9 35 105 21 57 106 20 36 107 11 37 108 23 58 109 12 38 110 6 40 111 4 49 112 16 41 113 9 43 114 5 52 115 17 44 116 0 46 117 1 59 118 12 47 119 4 49 120 2 56 121 13 50 122 6 51 123 19 60 124 17 44 125 11 53 126 10 34 127 22 33 128 0 55 129 14 61 130 13 50 131</p>
        </triangles>
      </mesh>
    </geometry>
  </library_geometries>
  <library_visual_scenes>
    <visual_scene id="Scene" name="Scene">
      <node id="a-feathers_lib_01_03" name="a-feathers_lib_01_03" type="NODE">
        <matrix sid="transform">1 0 0 0 0 1 0 0 0 0 1 0 0 0 0 1</matrix>
        <instance_geometry url="#Circle_013-mesh" name="a-feathers_lib_01_03">
          <bind_material>
            <technique_common>
              <instance_material symbol="pluma__-material" target="#pluma__-material">
                <bind_vertex_input semantic="Circle_028-mesh-map-0" input_semantic="TEXCOORD" input_set="0"/>
              </instance_material>
            </technique_common>
          </bind_material>
        </instance_geometry>
      </node>
    </visual_scene>
  </library_visual_scenes>
  <scene>
    <instance_visual_scene url="#Scene"/>
  </scene>
</COLLADA>