<?xml version="1.0" encoding="utf-8"?>
<COLLADA xmlns="http://www.collada.org/2005/11/COLLADASchema" version="1.4.1" xmlns:xsi="http://www.w3.org/2001/XMLSchema-instance">
  <asset>
    <contributor>
      <author>Blender User</author>
      <authoring_tool>Blender 4.3.1 commit date:2024-12-10, commit time:07:46, hash:33d812126174</authoring_tool>
    </contributor>
    <created>2026-08-08T10:52:56</created>
    <modified>2026-08-08T10:52:56</modified>
    <unit name="meter" meter="1"/>
    <up_axis>Z_UP</up_axis>
  </asset>
  <library_effects>
    <effect id="PLUMA_DORADA-effect">
      <profile_COMMON>
        <newparam sid="textura_auxiliar_libio_pluma_AMARILLO_png-surface">
          <surface type="2D">
            <init_from>textura_auxiliar_libio_pluma_AMARILLO_png</init_from>
          </surface>
        </newparam>
        <newparam sid="textura_auxiliar_libio_pluma_AMARILLO_png-sampler">
          <sampler2D>
            <source>textura_auxiliar_libio_pluma_AMARILLO_png-surface</source>
          </sampler2D>
        </newparam>
        <technique sid="common">
          <lambert>
            <emission>
              <color sid="emission">0 0 0 1</color>
            </emission>
            <diffuse>
              <texture texture="textura_auxiliar_libio_pluma_AMARILLO_png-sampler" texcoord="Circle_028-mesh-map-0"/>
            </diffuse>
            <index_of_refraction>
              <float sid="ior">1.45</float>
            </index_of_refraction>
          </lambert>
        </technique>
      </profile_COMMON>
    </effect>
  </library_effects>
  <library_images/>
  <library_materials>
    <material id="PLUMA_DORADA-material" name="PLUMA DORADA">
      <instance_effect url="#PLUMA_DORADA-effect"/>
    </material>
  </library_materials>
  <library_geometries>
    <geometry id="Circle_086-mesh" name="Circle.086">
      <mesh>
        <source id="Circle_086-mesh-positions">
          <float_array id="Circle_086-mesh-positions-array" count="144">0.2786203 0.5996955 -0.05363273 0.5214882 0.6601768 -0.1012759 0.2359499 0.5408512 0.1452054 0.4286684 0.5332807 0.2416555 0.1086847 0.3662118 0.3203392 0.1244608 0.1160567 0.5140371 -0.0549609 0.1418981 0.3875434 0.2858356 0.337535 0.4435711 0.3645611 0.178462 0.3206902 0.2046381 -0.04195535 0.3865984 0.4944009 0.3558838 0.1456468 0.5371853 0.4120652 -0.05384397 -0.4667536 0.4587762 -0.05363368 -0.4139117 0.7034199 -0.1012773 -0.4327632 0.3945266 0.1452045 -0.3409663 0.5641464 0.2416541 -0.3321622 0.2032806 0.3203383 -0.1006969 0.1071032 0.5140359 -0.2030263 -0.04252481 0.3875423 -0.2282895 0.3496205 0.4435697 -0.05080217 0.3501116 0.3206887 0.07647866 0.1093654 0.3865972 -0.1527647 0.5448948 0.1456456 -0.184315 0.6080726 -0.0538454 -0.6348136 0.03104305 -0.05363368 -0.7764024 0.2374297 -0.1012773 -0.5647637 0.01164305 0.1452043 -0.6250599 0.1948423 0.2416543 -0.356647 -0.04652082 0.320338 -0.127801 0.05573272 0.5140357 -0.0892713 -0.121398 0.3875423 -0.3917265 0.1294744 0.4435699 -0.2702239 0.2588542 0.320689 -0.007800161 0.1861017 0.3865974 -0.4818473 0.3184567 0.1456453 -0.5494425 0.3388947 -0.0538454 0.5652983 0.3428733 -0.05363368 0.7935653 0.2402229 -0.1012773 0.495377 0.3230141 0.145204 0.6421504 0.1978935 0.2416539 0.2873687 0.2644639 0.3203378 0.1450794 0.05811476 0.5140355 0.02005344 0.1893719 0.387542 0.4088571 0.1323827 0.4435697 0.3723606 -0.04131233 0.3206887 0.1103799 -0.1156442 0.3865969 0.5841123 0.01783263 0.1456451 0.6524767 0.03552854 -0.05384588</float_array>
          <technique_common>
            <accessor source="#Circle_086-mesh-positions-array" count="48" stride="3">
              <param name="X" type="float"/>
              <param name="Y" type="float"/>
              <param name="Z" type="float"/>
            </accessor>
          </technique_common>
        </source>
        <source id="Circle_086-mesh-normals">
          <float_array id="Circle_086-mesh-normals-array" count="192">-0.1535998 0.9474189 0.2807213 -0.1897596 0.9518046 0.2409548 -0.2031254 0.8765271 0.4363949 -0.1976124 0.8676262 0.456261 -0.3542625 0.6599147 0.6625788 -0.428766 0.5360399 0.7272009 -0.344925 0.6744542 0.6527928 -0.4343695 0.5341731 0.7252464 0.738542 -0.1411786 0.6592605 0.7515339 -0.1279843 0.6471607 0.6458912 -0.2478327 0.7220828 0.8857674 0.07425928 0.4581506 0.6458293 -0.2532065 0.7202716 0.8960639 0.07284814 0.4379071 0.9497122 0.1419422 0.2791042 0.9656472 0.1064136 0.2370691 -0.9180302 0.2800288 0.2807214 -0.9379154 0.2495107 0.2409547 -0.8762508 0.2043127 0.4363955 -0.8658309 0.2053345 0.4562615 -0.7485096 -0.02687078 0.6625793 -0.6701972 -0.1483735 0.7272008 -0.7574403 -0.01207673 0.6527929 -0.6709935 -0.1542268 0.7252461 0.4524534 0.6005511 0.6592605 0.4463425 0.6180307 0.6471604 0.5073068 0.4703574 0.722083 0.3240407 0.8277052 0.4581506 0.5121021 0.4679318 0.7202718 0.3298487 0.8363236 0.4379075 0.2915017 0.9149468 0.2791042 0.3304164 0.9135773 0.2370686 -0.8338984 -0.4751935 0.2807216 -0.8253628 -0.5106049 0.2409541 -0.750164 -0.4968028 0.4363955 -0.7437527 -0.4885255 0.456262 -0.4943769 -0.5626549 0.6625791 -0.3522701 -0.5891388 0.727201 -0.5112642 -0.5589911 0.6527925 -0.3485618 -0.5937358 0.7252466 -0.125985 0.7412848 0.6592608 -0.142889 0.748843 0.6471608 0.006333768 0.6917765 0.7220839 -0.3793035 0.8038828 0.4581501 0.01138913 0.6935973 0.7202729 -0.381582 0.814023 0.4379062 -0.4650735 0.8401237 0.2791039 -0.4373598 0.8674762 0.2370683 0.4651422 0.8395461 0.2807228 0.4394366 0.8653529 0.2409564 0.3823834 0.8144579 0.4363959 0.3812119 0.804054 0.4562616 0.1296598 0.737684 0.6625789 -0.005491673 0.6864026 0.7272011 0.145989 0.7433368 0.6527922 -0.01104938 0.6884005 0.7252467 0.4931109 -0.5676417 0.6592606 0.51148 -0.5653064 0.6471606 0.3543456 -0.5941674 0.7220833 0.7420338 -0.4893711 0.4581505 0.3509742 -0.5983521 0.7202722 0.7492532 -0.4968476 0.4379066 0.8341398 -0.4757226 0.2791036 0.8246926 -0.513499 0.2370672</float_array>
          <technique_common>
            <accessor source="#Circle_086-mesh-normals-array" count="64" stride="3">
              <param name="X" type="float"/>
              <param name="Y" type="float"/>
              <param name="Z" type="float"/>
            </accessor>
          </technique_common>
        </source>
        <source id="Circle_086-mesh-map-0">
          <float_array id="Circle_086-mesh-map-0-array" count="288">0.4961408 0.9516549 0.953041 0.9516549 0.953041 0.6456935 0.4961408 0.9516549 0.953041 0.6456935 0.4961408 0.6456935 0.4961408 0.6456935 0.953041 0.6456935 0.953041 0.3397324 0.4961408 0.03377139 0.4961408 0.3397324 0.953041 0.3397324 0.4961408 0.03377139 0.953041 0.3397324 0.953041 0.03377139 0.4961408 0.6456935 0.953041 0.3397324 0.4961408 0.3397324 0.03923982 0.3397324 0.4961408 0.3397324 0.4961408 0.03377139 0.03923982 0.3397324 0.4961408 0.6456935 0.4961408 0.3397324 0.03923982 0.3397324 0.4961408 0.03377139 0.03923982 0.03377139 0.03923982 0.3397324 0.03923982 0.6456935 0.4961408 0.6456935 0.03923982 0.6456935 0.4961408 0.9516549 0.4961408 0.6456935 0.03923982 0.6456935 0.03923982 0.9516549 0.4961408 0.9516549 0.4961408 0.9516549 0.953041 0.9516549 0.953041 0.6456935 0.4961408 0.9516549 0.953041 0.6456935 0.4961408 0.6456935 0.4961408 0.6456935 0.953041 0.6456935 0.953041 0.3397324 0.4961408 0.03377139 0.4961408 0.3397324 0.953041 0.3397324 0.4961408 0.03377139 0.953041 0.3397324 0.953041 0.03377139 0.4961408 0.6456935 0.953041 0.3397324 0.4961408 0.3397324 0.03923982 0.3397324 0.4961408 0.3397324 0.4961408 0.03377139 0.03923982 0.3397324 0.4961408 0.6456935 0.4961408 0.3397324 0.03923982 0.3397324 0.4961408 0.03377139 0.03923982 0.03377139 0.03923982 0.3397324 0.03923982 0.6456935 0.4961408 0.6456935 0.03923982 0.6456935 0.4961408 0.9516549 0.4961408 0.6456935 0.03923982 0.6456935 0.03923982 0.9516549 0.4961408 0.9516549 0.4961408 0.9516549 0.953041 0.9516549 0.953041 0.6456935 0.4961408 0.9516549 0.953041 0.6456935 0.4961408 0.6456935 0.4961408 0.6456935 0.953041 0.6456935 0.953041 0.3397324 0.4961408 0.03377139 0.4961408 0.3397324 0.953041 0.3397324 0.4961408 0.03377139 0.953041 0.3397324 0.953041 0.03377139 0.4961408 0.6456935 0.953041 0.3397324 0.4961408 0.3397324 0.03923982 0.3397324 0.4961408 0.3397324 0.4961408 0.03377139 0.03923982 0.3397324 0.4961408 0.6456935 0.4961408 0.3397324 0.03923982 0.3397324 0.4961408 0.03377139 0.03923982 0.03377139 0.03923982 0.3397324 0.03923982 0.6456935 0.4961408 0.6456935 0.03923982 0.6456935 0.4961408 0.9516549 0.4961408 0.6456935 0.03923982 0.6456935 0.03923982 0.9516549 0.4961408 0.9516549 0.4961408 0.9516549 0.953041 0.9516549 0.953041 0.6456935 0.4961408 0.9516549 0.953041 0.6456935 0.4961408 0.6456935 0.4961408 0.6456935 0.953041 0.6456935 0.953041 0.3397324 0.4961408 0.03377139 0.4961408 0.3397324 0.953041 0.3397324 0.4961408 0.03377139 0.953041 0.3397324 0.953041 0.03377139 0.4961408 0.6456935 0.953041 0.3397324 0.4961408 0.3397324 0.03923982 0.3397324 0.4961408 0.3397324 0.4961408 0.03377139 0.03923982 0.3397324 0.4961408 0.6456935 0.4961408 0.3397324 0.03923982 0.3397324 0.4961408 0.03377139 0.03923982 0.03377139 0.03923982 0.3397324 0.03923982 0.6456935 0.4961408 0.6456935 0.03923982 0.6456935 0.4961408 0.9516549 0.4961408 0.6456935 0.03923982 0.6456935 0.03923982 0.9516549 0.4961408 0.9516549</float_array>
          <technique_common>
            <accessor source="#Circle_086-mesh-map-0-array" count="144" stride="2">
              <param name="S" type="float"/>
              <param name="T" type="float"/>
            </accessor>
          </technique_common>
        </source>
        <vertices id="Circle_086-mesh-vertices">
          <input semantic="POSITION" source="#Circle_086-mesh-positions"/>
        </vertices>
        <triangles material="PLUMA_DORADA-material" count="48">
          <input semantic="VERTEX" source="#Circle_086-mesh-vertices" offset="0"/>
          <input semantic="NORMAL" source="#Circle_086-mesh-normals" offset="1"/>
          <input semantic="TEXCOORD" source="#Circle_086-mesh-map-0" offset="2" set="0"/>
          <p>1 0 0 0 1 1 2 2 2 1 0 3 2 2 4 3 3 5 3 3 6 2 2 7 4 4 8 5 5 9 7 6 10 4 4 11 5 5 12 4 4 13 6 7 14 3 3 15 4 4 16 7 6 17 8 8 18 7 9 19 5 10 20 8 8 21 3 11 22 7 9 23 8 8 24 5 10 25 9 12 26 8 8 27 10 13 28 3 11 29 10 13 30 1 14 31 3 11 32 10 13 33 11 15 34 1 14 35 13 16 36 12 17 37 14 18 38 13 16 39 14 18 40 15 19 41 15 19 42 14 18 43 16 20 44 17 21 45 19 22 46 16 20 47 17 21 48 16 20 49 18 23 50 15 19 51 16 20 52 19 22 53 20 24 54 19 25 55 17 26 56 20 24 57 15 27 58 19 25 59 20 24 60 17 26 61 21 28 62 20 24 63 22 29 64 15 27 65 22 29 66 13 30 67 15 27 68 22 29 69 23 31 70 13 30 71 25 32 72 24 33 73 26 34 74 25 32 75 26 34 76 27 35 77 27 35 78 26 34 79 28 36 80 29 37 81 31 38 82 28 36 83 29 37 84 28 36 85 30 39 86 27 35 87 28 36 88 31 38 89 32 40 90 31 41 91 29 42 92 32 40 93 27 43 94 31 41 95 32 40 96 29 42 97 33 44 98 32 40 99 34 45 100 27 43 101 34 45 102 25 46 103 27 43 104 34 45 105 35 47 106 25 46 107 37 48 108 36 49 109 38 50 110 37 48 111 38 50 112 39 51 113 39 51 114 38 50 115 40 52 116 41 53 117 43 54 118 40 52 119 41 53 120 40 52 121 42 55 122 39 51 123 40 52 124 43 54 125 44 56 126 43 57 127 41 58 128 44 56 129 39 59 130 43 57 131 44 56 132 41 58 133 45 60 134 44 56 135 46 61 136 39 59 137 46 61 138 37 62 139 39 59 140 46 61 141 47 63 142 37 62 143</p>
        </triangles>
      </mesh>
    </geometry>
  </library_geometries>
  <library_visual_scenes>
    <visual_scene id="Scene" name="Scene">
      <node id="a-feathers_lib_03_03" name="a-feathers_lib_03_03" type="NODE">
        <matrix sid="transform">1 0 0 0 0 1 0 0 0 0 1 0 0 0 0 1</matrix>
        <instance_geometry url="#Circle_086-mesh" name="a-feathers_lib_03_03">
          <bind_material>
            <technique_common>
              <instance_material symbol="PLUMA_DORADA-material" target="#PLUMA_DORADA-material">
                <bind_vertex_input semantic="Circle_028-mesh-map-0" input_semantic="TEXCOORD" input_set="0"/>
              </instance_material>
            </technique_common>
          </bind_material>
        </instance_geometry>
      </node>
    </visual_scene>
  </library_visual_scenes>
  <scene>
    <instance_visual_scene url="#Scene"/>
  </scene>
</COLLADA>