<?xml version="1.0" encoding="utf-8"?>
<COLLADA xmlns="http://www.collada.org/2005/11/COLLADASchema" version="1.4.1" xmlns:xsi="http://www.w3.org/2001/XMLSchema-instance">
  <asset>
    <contributor>
      <author>Blender User</author>
      <authoring_tool>Blender 4.3.1 commit date:2024-12-10, commit time:07:46, hash:33d812126174</authoring_tool>
    </contributor>
    <created>2026-08-20T09:13:44</created>
    <modified>2026-08-20T09:13:44</modified>
    <unit name="meter" meter="1"/>
    <up_axis>Z_UP</up_axis>
  </asset>
  <library_effects>
    <effect id="A-textura_nok__General-effect">
      <profile_COMMON>
        <newparam sid="nok_png-surface">
          <surface type="2D">
            <init_from>nok_png</init_from>
          </surface>
        </newparam>
        <newparam sid="nok_png-sampler">
          <sampler2D>
            <source>nok_png-surface</source>
          </sampler2D>
        </newparam>
        <technique sid="common">
          <lambert>
            <emission>
              <color sid="emission">0 0 0 1</color>
            </emission>
            <diffuse>
              <texture texture="nok_png-sampler" texcoord="MapaUV"/>
            </diffuse>
            <index_of_refraction>
              <float sid="ior">1.45</float>
            </index_of_refraction>
          </lambert>
        </technique>
      </profile_COMMON>
    </effect>
  </library_effects>
  <library_images>
    <image id="nok_png" name="nok_png">
      <init_from>nok.png</init_from>
    </image>
  </library_images>
  <library_materials>
    <material id="A-textura_nok__General-material" name="A-textura nok  General">
      <instance_effect url="#A-textura_nok__General-effect"/>
    </material>
  </library_materials>
  <library_geometries>
    <geometry id="Cubo_113-mesh" name="Cubo.113">
      <mesh>
        <source id="Cubo_113-mesh-positions">
          <float_array id="Cubo_113-mesh-positions-array" count="36">-0.356315 -0.3154878 0.3089492 -0.356315 0.3154878 0.9248724 0.356315 -0.3154878 0.3089492 0.356315 0.3154878 0.9248724 0 0.3154878 0.9248724 0 -0.3154878 0.3089492 0 0.3294582 0.9105606 0 -0.3015174 0.2946374 -0.356315 -0.3015174 0.2946374 -0.356315 0.3294582 0.9105606 0.356315 0.3294582 0.9105606 0.356315 -0.3015174 0.2946374</float_array>
          <technique_common>
            <accessor source="#Cubo_113-mesh-positions-array" count="12" stride="3">
              <param name="X" type="float"/>
              <param name="Y" type="float"/>
              <param name="Z" type="float"/>
            </accessor>
          </technique_common>
        </source>
        <source id="Cubo_113-mesh-normals">
          <float_array id="Cubo_113-mesh-normals-array" count="60">0 -0.6985198 0.7155907 0 -0.6985198 0.7155907 0 0.6985198 -0.7155907 0 0.6985198 -0.7155907 0 0.71559 0.6985206 1 0 0 -1 0 0 0 -0.7155906 -0.6985199 0 -0.7155906 -0.6985199 0 0.71559 0.6985206 0 -0.6985198 0.7155907 0 -0.6985198 0.7155907 0 0.6985198 -0.7155907 0 0.6985198 -0.7155907 0 0.71559 0.6985206 1 0 0 -1 0 0 0 -0.7155906 -0.6985199 0 -0.7155906 -0.6985199 0 0.71559 0.6985206</float_array>
          <technique_common>
            <accessor source="#Cubo_113-mesh-normals-array" count="20" stride="3">
              <param name="X" type="float"/>
              <param name="Y" type="float"/>
              <param name="Z" type="float"/>
            </accessor>
          </technique_common>
        </source>
        <source id="Cubo_113-mesh-map-0">
          <float_array id="Cubo_113-mesh-map-0-array" count="120">0.4259986 0.2467887 0.4073332 0.1792071 0.4073333 0.2467887 0.4073333 0.2467887 0.3886679 0.1792071 0.3886679 0.2467887 0.4073332 0.1792071 0.4259986 0.2467887 0.4073333 0.2467887 0.3886679 0.1792071 0.4073333 0.2467887 0.3886679 0.2467887 0.4073333 0.2467887 0.4259986 0.2467887 0.4259986 0.2467887 0.3886679 0.1792071 0.3886679 0.2467887 0.3886679 0.2467887 0.4259985 0.1792071 0.4259986 0.2467887 0.4259985 0.1792071 0.4073332 0.1792071 0.3886679 0.1792071 0.3886679 0.1792071 0.4259985 0.1792071 0.4073332 0.1792071 0.4073332 0.1792071 0.3886679 0.2467887 0.4073333 0.2467887 0.4073333 0.2467887 0.4259986 0.2467887 0.4259985 0.1792071 0.4073332 0.1792071 0.4073333 0.2467887 0.4073332 0.1792071 0.3886679 0.1792071 0.4073332 0.1792071 0.4259985 0.1792071 0.4259986 0.2467887 0.3886679 0.1792071 0.4073332 0.1792071 0.4073333 0.2467887 0.4073333 0.2467887 0.4073333 0.2467887 0.4259986 0.2467887 0.3886679 0.1792071 0.3886679 0.1792071 0.3886679 0.2467887 0.4259985 0.1792071 0.4259986 0.2467887 0.4259986 0.2467887 0.4073332 0.1792071 0.4073332 0.1792071 0.3886679 0.1792071 0.4259985 0.1792071 0.4259985 0.1792071 0.4073332 0.1792071 0.3886679 0.2467887 0.3886679 0.2467887 0.4073333 0.2467887</float_array>
          <technique_common>
            <accessor source="#Cubo_113-mesh-map-0-array" count="60" stride="2">
              <param name="S" type="float"/>
              <param name="T" type="float"/>
            </accessor>
          </technique_common>
        </source>
        <vertices id="Cubo_113-mesh-vertices">
          <input semantic="POSITION" source="#Cubo_113-mesh-positions"/>
        </vertices>
        <triangles material="A-textura_nok__General-material" count="20">
          <input semantic="VERTEX" source="#Cubo_113-mesh-vertices" offset="0"/>
          <input semantic="NORMAL" source="#Cubo_113-mesh-normals" offset="1"/>
          <input semantic="TEXCOORD" source="#Cubo_113-mesh-map-0" offset="2" set="0"/>
          <p>1 0 0 5 0 1 4 0 2 4 1 3 2 1 4 3 1 5 7 2 6 9 2 7 6 2 8 11 3 9 6 3 10 10 3 11 4 4 12 9 4 13 1 4 14 2 5 15 10 5 16 3 5 17 0 6 18 9 6 19 8 6 20 5 7 21 11 7 22 2 7 23 0 8 24 7 8 25 5 8 26 3 9 27 6 9 28 4 9 29 1 10 30 0 10 31 5 10 32 4 11 33 5 11 34 2 11 35 7 12 36 8 12 37 9 12 38 11 13 39 7 13 40 6 13 41 4 14 42 6 14 43 9 14 44 2 15 45 11 15 46 10 15 47 0 16 48 1 16 49 9 16 50 5 17 51 7 17 52 11 17 53 0 18 54 8 18 55 7 18 56 3 19 57 10 19 58 6 19 59</p>
        </triangles>
      </mesh>
    </geometry>
  </library_geometries>
  <library_visual_scenes>
    <visual_scene id="Scene" name="Scene">
      <node id="a_feather_nok_01" name="a_feather_nok_01" type="NODE">
        <matrix sid="transform">1 0 0 0 0 1 0 0 0 0 1 0 0 0 0 1</matrix>
        <instance_geometry url="#Cubo_113-mesh" name="a_feather_nok_01">
          <bind_material>
            <technique_common>
              <instance_material symbol="A-textura_nok__General-material" target="#A-textura_nok__General-material">
                <bind_vertex_input semantic="MapaUV" input_semantic="TEXCOORD" input_set="0"/>
              </instance_material>
            </technique_common>
          </bind_material>
        </instance_geometry>
      </node>
    </visual_scene>
  </library_visual_scenes>
  <scene>
    <instance_visual_scene url="#Scene"/>
  </scene>
</COLLADA>