<?xml version="1.0" encoding="utf-8"?>
<COLLADA xmlns="http://www.collada.org/2005/11/COLLADASchema" version="1.4.1" xmlns:xsi="http://www.w3.org/2001/XMLSchema-instance">
  <asset>
    <contributor>
      <author>Blender User</author>
      <authoring_tool>Blender 4.3.1 commit date:2024-12-10, commit time:07:46, hash:33d812126174</authoring_tool>
    </contributor>
    <created>2026-08-20T09:13:44</created>
    <modified>2026-08-20T09:13:44</modified>
    <unit name="meter" meter="1"/>
    <up_axis>Z_UP</up_axis>
  </asset>
  <library_effects>
    <effect id="A-textura_nok__General-effect">
      <profile_COMMON>
        <newparam sid="nok_png-surface">
          <surface type="2D">
            <init_from>nok_png</init_from>
          </surface>
        </newparam>
        <newparam sid="nok_png-sampler">
          <sampler2D>
            <source>nok_png-surface</source>
          </sampler2D>
        </newparam>
        <technique sid="common">
          <lambert>
            <emission>
              <color sid="emission">0 0 0 1</color>
            </emission>
            <diffuse>
              <texture texture="nok_png-sampler" texcoord="MapaUV"/>
            </diffuse>
            <index_of_refraction>
              <float sid="ior">1.45</float>
            </index_of_refraction>
          </lambert>
        </technique>
      </profile_COMMON>
    </effect>
  </library_effects>
  <library_images>
    <image id="nok_png" name="nok_png">
      <init_from>nok.png</init_from>
    </image>
  </library_images>
  <library_materials>
    <material id="A-textura_nok__General-material" name="A-textura nok  General">
      <instance_effect url="#A-textura_nok__General-effect"/>
    </material>
  </library_materials>
  <library_geometries>
    <geometry id="Cubo_084-mesh" name="Cubo.084">
      <mesh>
        <source id="Cubo_084-mesh-positions">
          <float_array id="Cubo_084-mesh-positions-array" count="624">-0.06464064 -0.06464064 0.5472126 -0.06464064 -0.06464064 0.6764939 -0.06464064 0.06464064 0.5472126 -0.06464064 0.06464064 0.6764939 0.06464064 -0.06464064 0.5472126 0.06464064 -0.06464064 0.6764939 0.06464064 0.06464064 0.5472126 0.06464064 0.06464064 0.6764939 -0.09317582 -0.09317582 0.6118531 -0.09317582 0.09317582 0.6118531 0.09317582 0.09317582 0.6118531 0.09317582 -0.09317582 0.6118531 -0.08707135 0 0.5247817 -0.08707135 0 0.6989246 0.08707135 0 0.5247817 0.08707135 0 0.6989246 0.1255085 0 0.6118531 -0.1255084 0 0.6118531 0 0.08981472 0.5220385 0 0.08981472 0.701668 0 -0.08981472 0.5220385 0 -0.08981472 0.701668 0 -0.1294629 0.6118531 0 0.1294628 0.6118531 0 0 0.7328341 0 0 0.4908722 -0.06464064 0.2320449 0.416512 -0.06464064 0.2320449 0.5457933 -0.06464064 0.3613262 0.416512 -0.06464064 0.3613262 0.5457933 0.06464064 0.2320449 0.416512 0.06464064 0.2320449 0.5457933 0.06464064 0.3613262 0.416512 0.06464064 0.3613262 0.5457933 -0.09317582 0.2035096 0.4811525 -0.09317582 0.3898614 0.4811525 0.09317582 0.3898614 0.4811525 0.09317582 0.2035096 0.4811525 -0.08707135 0.2966855 0.3940811 -0.08707135 0.2966855 0.568224 0.08707135 0.2966855 0.3940811 0.08707135 0.2966855 0.568224 0.1255085 0.2966855 0.4811525 -0.1255084 0.2966855 0.4811525 0 0.3865002 0.3913379 0 0.3865002 0.5709672 0 0.2068707 0.3913379 0 0.2068707 0.5709672 0 0.1672226 0.4811525 0 0.4261484 0.4811525 0 0.2966855 0.6021335 0 0.2966855 0.3601713 -0.06464064 -0.3275343 0.416512 -0.06464064 -0.3275343 0.5457933 -0.06464064 -0.1982529 0.416512 -0.06464064 -0.1982529 0.5457933 0.06464064 -0.3275343 0.416512 0.06464064 -0.3275343 0.5457933 0.06464064 -0.1982529 0.416512 0.06464064 -0.1982529 0.5457933 -0.09317582 -0.3560695 0.4811525 -0.09317582 -0.1697177 0.4811525 0.09317582 -0.1697177 0.4811525 0.09317582 -0.3560695 0.4811525 -0.08707135 -0.2628936 0.3940811 -0.08707135 -0.2628936 0.568224 0.08707135 -0.2628936 0.3940811 0.08707135 -0.2628936 0.568224 0.1255085 -0.2628936 0.4811525 -0.1255084 -0.2628936 0.4811525 0 -0.1730788 0.3913379 0 -0.1730788 0.5709672 0 -0.3527083 0.3913379 0 -0.3527083 0.5709672 0 -0.3923565 0.4811525 0 -0.1334307 0.4811525 0 -0.2628936 0.6021335 0 -0.2628936 0.3601713 0.1472839 -0.1953324 0.3097401 0.1472839 -0.1953324 0.4390211 0.1472839 -0.06605106 0.3097401 0.1472839 -0.06605106 0.4390211 0.2765652 -0.1953324 0.3097401 0.2765652 -0.1953324 0.4390211 0.2765652 -0.06605106 0.3097401 0.2765652 -0.06605106 0.4390211 0.1187487 -0.2238676 0.3743806 0.1187487 -0.03751587 0.3743806 0.3051005 -0.03751587 0.3743806 0.3051005 -0.2238676 0.3743806 0.1248532 -0.1306917 0.2873092 0.1248532 -0.1306917 0.461452 0.298996 -0.1306917 0.2873092 0.298996 -0.1306917 0.461452 0.3374331 -0.1306918 0.3743806 0.08641612 -0.1306918 0.3743806 0.2119246 -0.04087698 0.2845659 0.2119246 -0.04087698 0.4641953 0.2119246 -0.2205065 0.2845659 0.2119246 -0.2205065 0.4641953 0.2119246 -0.2601547 0.3743806 0.2119246 -0.001228868 0.3743806 0.2119246 -0.1306918 0.4953616 0.2119246 -0.1306918 0.2533994 0.1472839 0.09110701 0.3097401 0.1472839 0.09110701 0.4390211 0.1472839 0.2203883 0.3097401 0.1472839 0.2203883 0.4390211 0.2765652 0.09110701 0.3097401 0.2765652 0.09110701 0.4390211 0.2765652 0.2203883 0.3097401 0.2765652 0.2203883 0.4390211 0.1187487 0.06257182 0.3743806 0.1187487 0.2489235 0.3743806 0.3051005 0.2489235 0.3743806 0.3051005 0.06257182 0.3743806 0.1248532 0.1557477 0.2873092 0.1248532 0.1557477 0.461452 0.298996 0.1557477 0.2873092 0.298996 0.1557477 0.461452 0.3374331 0.1557477 0.3743806 0.08641612 0.1557477 0.3743806 0.2119246 0.2455624 0.2845659 0.2119246 0.2455624 0.4641953 0.2119246 0.06593292 0.2845659 0.2119246 0.06593292 0.4641953 0.2119246 0.02628475 0.3743806 0.2119246 0.2852106 0.3743806 0.2119246 0.1557477 0.4953616 0.2119246 0.1557477 0.2533994 -0.2713593 -0.1953324 0.3097401 -0.2713593 -0.1953324 0.4390211 -0.2713593 -0.06605106 0.3097401 -0.2713593 -0.06605106 0.4390211 -0.142078 -0.1953324 0.3097401 -0.142078 -0.1953324 0.4390211 -0.142078 -0.06605106 0.3097401 -0.142078 -0.06605106 0.4390211 -0.2998945 -0.2238676 0.3743806 -0.2998945 -0.03751587 0.3743806 -0.1135428 -0.03751587 0.3743806 -0.1135428 -0.2238676 0.3743806 -0.2937901 -0.1306917 0.2873092 -0.2937901 -0.1306917 0.461452 -0.1196473 -0.1306917 0.2873092 -0.1196473 -0.1306917 0.461452 -0.08121013 -0.1306918 0.3743806 -0.3322272 -0.1306918 0.3743806 -0.2067186 -0.04087698 0.2845659 -0.2067186 -0.04087698 0.4641953 -0.2067186 -0.2205065 0.2845659 -0.2067186 -0.2205065 0.4641953 -0.2067186 -0.2601547 0.3743806 -0.2067186 -0.001228868 0.3743806 -0.2067186 -0.1306918 0.4953616 -0.2067186 -0.1306918 0.2533994 -0.2713593 0.09110701 0.3097401 -0.2713593 0.09110701 0.4390211 -0.2713593 0.2203883 0.3097401 -0.2713593 0.2203883 0.4390211 -0.142078 0.09110701 0.3097401 -0.142078 0.09110701 0.4390211 -0.142078 0.2203883 0.3097401 -0.142078 0.2203883 0.4390211 -0.2998945 0.06257182 0.3743806 -0.2998945 0.2489235 0.3743806 -0.1135428 0.2489235 0.3743806 -0.1135428 0.06257182 0.3743806 -0.2937901 0.1557477 0.2873092 -0.2937901 0.1557477 0.461452 -0.1196473 0.1557477 0.2873092 -0.1196473 0.1557477 0.461452 -0.08121013 0.1557477 0.3743806 -0.3322272 0.1557477 0.3743806 -0.2067186 0.2455624 0.2845659 -0.2067186 0.2455624 0.4641953 -0.2067186 0.06593292 0.2845659 -0.2067186 0.06593292 0.4641953 -0.2067186 0.02628475 0.3743806 -0.2067186 0.2852106 0.3743806 -0.2067186 0.1557477 0.4953616 -0.2067186 0.1557477 0.2533994 -0.06464064 0.2320449 0.1392235 -0.06464064 0.2320449 0.2685046 -0.06464064 0.3613262 0.1392235 -0.06464064 0.3613262 0.2685046 0.06464064 0.2320449 0.1392235 0.06464064 0.2320449 0.2685046 0.06464064 0.3613262 0.1392235 0.06464064 0.3613262 0.2685046 -0.09317582 0.2035096 0.203864 -0.09317582 0.3898614 0.203864 0.09317582 0.3898614 0.203864 0.09317582 0.2035096 0.203864 -0.08707135 0.2966855 0.1167926 -0.08707135 0.2966855 0.2909355 0.08707135 0.2966855 0.1167926 0.08707135 0.2966855 0.2909355 0.1255085 0.2966855 0.203864 -0.1255084 0.2966855 0.203864 0 0.3865002 0.1140489 0 0.3865002 0.2936788 0 0.2068707 0.1140489 0 0.2068707 0.2936788 0 0.1672226 0.203864 0 0.4261484 0.203864 0 0.2966855 0.3248453 0 0.2966855 0.08288288</float_array>
          <technique_common>
            <accessor source="#Cubo_084-mesh-positions-array" count="208" stride="3">
              <param name="X" type="float"/>
              <param name="Y" type="float"/>
              <param name="Z" type="float"/>
            </accessor>
          </technique_common>
        </source>
        <source id="Cubo_084-mesh-normals">
          <float_array id="Cubo_084-mesh-normals-array" count="1152">-0.823668 0.2858183 0.4897744 0.3150674 0.8090126 0.4962168 0.8236676 -0.2858184 0.489775 -0.3150675 -0.8090124 0.4962171 0.4440554 -0.2937355 -0.8464835 -0.4440549 -0.2937334 0.8464846 -0.4568326 -0.8137871 -0.3592416 0.8318718 -0.4160956 -0.3672246 0.4568325 0.8137872 -0.3592415 -0.8318721 0.4160953 -0.3672242 -0.831872 -0.4160954 -0.3672243 0.8318718 0.4160956 -0.3672245 -0.4440547 0.2937334 0.8464845 0.4440553 0.2937355 -0.8464835 0.8236677 0.2858184 0.4897748 -0.8236679 -0.2858183 0.4897745 -0.3310222 0.4098191 -0.8499839 0.3310227 0.4098166 0.8499849 -0.4568324 0.8137874 -0.3592414 0.4568328 -0.8137869 -0.3592417 0.3310228 -0.4098166 0.8499848 -0.3310223 -0.4098191 -0.8499838 0.3150675 -0.8090123 0.4962173 -0.3150674 0.8090127 0.4962167 -0.823668 0.2858182 0.4897744 0.3150672 0.8090127 0.4962169 0.8236676 -0.2858184 0.489775 -0.3150674 -0.8090124 0.4962171 0.4440558 -0.2937374 -0.8464826 -0.4440527 -0.2937358 0.8464848 -0.4568326 -0.8137871 -0.3592416 0.8318717 -0.4160955 -0.3672246 0.4568325 0.8137873 -0.3592413 -0.8318721 0.4160953 -0.3672241 -0.831872 -0.4160953 -0.3672243 0.8318718 0.4160956 -0.3672244 -0.4440526 0.2937359 0.8464848 0.4440557 0.2937375 -0.8464826 0.8236677 0.2858183 0.4897748 -0.8236679 -0.2858183 0.4897745 -0.3310242 0.4098196 -0.8499829 0.3310228 0.4098166 0.8499849 -0.4568323 0.8137874 -0.3592412 0.4568328 -0.813787 -0.3592417 0.3310228 -0.4098165 0.8499849 -0.3310242 -0.4098194 -0.8499829 0.3150674 -0.8090123 0.4962173 -0.3150672 0.8090128 0.4962168 -0.823668 0.2858182 0.4897745 0.3150672 0.8090126 0.496217 0.8236676 -0.2858185 0.489775 -0.3150673 -0.8090125 0.4962171 0.4440558 -0.2937374 -0.8464826 -0.4440527 -0.2937358 0.8464848 -0.4568326 -0.8137871 -0.3592414 0.8318717 -0.4160956 -0.3672246 0.4568326 0.8137872 -0.3592413 -0.8318721 0.4160953 -0.3672241 -0.8318719 -0.4160954 -0.3672243 0.8318718 0.4160955 -0.3672244 -0.4440527 0.2937358 0.8464848 0.4440557 0.2937374 -0.8464826 0.8236677 0.2858183 0.4897749 -0.8236679 -0.2858183 0.4897745 -0.3310242 0.4098195 -0.8499829 0.3310228 0.4098166 0.8499849 -0.4568325 0.8137874 -0.3592412 0.4568327 -0.8137871 -0.3592416 0.3310228 -0.4098166 0.8499849 -0.3310242 -0.4098195 -0.8499829 0.3150674 -0.8090124 0.4962173 -0.3150671 0.8090127 0.4962169 -0.8236672 0.2858179 0.4897758 0.315067 0.8090119 0.4962183 0.8236669 -0.2858178 0.4897765 -0.315067 -0.8090118 0.4962185 0.4440559 -0.2937373 -0.8464825 -0.4440553 -0.2937354 0.8464835 -0.4568328 -0.8137872 -0.3592412 0.8318717 -0.4160955 -0.3672246 0.4568325 0.8137872 -0.3592414 -0.8318721 0.4160953 -0.3672242 -0.8318719 -0.4160954 -0.3672242 0.8318718 0.4160954 -0.3672245 -0.4440552 0.2937355 0.8464837 0.4440557 0.2937373 -0.8464826 0.823667 0.2858178 0.4897764 -0.8236672 -0.285818 0.489776 -0.3310242 0.4098195 -0.849983 0.3310223 0.4098191 0.8499838 -0.4568324 0.8137874 -0.3592413 0.4568329 -0.8137871 -0.3592413 0.3310224 -0.4098193 0.8499836 -0.3310243 -0.4098196 -0.8499829 0.3150669 -0.8090116 0.4962187 -0.3150671 0.8090119 0.4962182 -0.8236672 0.2858179 0.4897758 0.3150668 0.8090119 0.4962184 0.8236669 -0.2858178 0.4897765 -0.3150672 -0.8090117 0.4962185 0.4440559 -0.2937374 -0.8464826 -0.4440552 -0.2937354 0.8464835 -0.4568327 -0.8137871 -0.3592415 0.8318718 -0.4160954 -0.3672246 0.4568326 0.8137873 -0.3592412 -0.831872 0.4160954 -0.3672241 -0.831872 -0.4160953 -0.3672243 0.8318718 0.4160955 -0.3672245 -0.4440552 0.2937354 0.8464836 0.4440558 0.2937373 -0.8464826 0.8236669 0.2858178 0.4897764 -0.8236672 -0.2858179 0.489776 -0.3310242 0.4098196 -0.8499829 0.3310223 0.4098193 0.8499838 -0.4568324 0.8137874 -0.3592411 0.4568328 -0.813787 -0.3592416 0.3310225 -0.4098192 0.8499838 -0.3310244 -0.4098195 -0.8499829 0.3150671 -0.8090115 0.4962186 -0.3150669 0.809012 0.4962182 -0.8236673 0.2858179 0.4897758 0.3150671 0.8090119 0.4962182 0.8236669 -0.2858182 0.4897762 -0.315067 -0.8090118 0.4962185 0.4440559 -0.2937373 -0.8464826 -0.4440552 -0.2937354 0.8464837 -0.4568327 -0.8137872 -0.3592413 0.8318717 -0.4160955 -0.3672246 0.4568324 0.8137872 -0.3592414 -0.8318721 0.4160954 -0.367224 -0.8318719 -0.4160954 -0.3672241 0.8318718 0.4160954 -0.3672245 -0.4440551 0.2937355 0.8464836 0.4440557 0.2937374 -0.8464827 0.823667 0.2858182 0.4897761 -0.8236672 -0.2858179 0.4897759 -0.3310241 0.4098196 -0.849983 0.3310223 0.4098191 0.8499838 -0.4568322 0.8137874 -0.3592414 0.4568328 -0.8137871 -0.3592414 0.3310224 -0.4098192 0.8499838 -0.3310242 -0.4098196 -0.8499829 0.3150671 -0.8090116 0.4962186 -0.315067 0.809012 0.4962182 -0.8236672 0.2858179 0.4897758 0.3150669 0.8090119 0.4962183 0.8236669 -0.2858181 0.4897762 -0.3150672 -0.8090117 0.4962185 0.4440557 -0.2937373 -0.8464827 -0.4440551 -0.2937354 0.8464837 -0.4568326 -0.8137872 -0.3592416 0.8318718 -0.4160954 -0.3672246 0.4568325 0.8137874 -0.3592413 -0.831872 0.4160954 -0.367224 -0.8318721 -0.4160954 -0.3672242 0.8318718 0.4160955 -0.3672245 -0.4440551 0.2937355 0.8464836 0.4440557 0.2937374 -0.8464827 0.823667 0.2858182 0.4897761 -0.8236672 -0.2858179 0.4897759 -0.3310241 0.4098196 -0.8499829 0.3310223 0.4098192 0.8499838 -0.4568324 0.8137875 -0.3592411 0.4568328 -0.813787 -0.3592416 0.3310225 -0.4098191 0.8499838 -0.3310243 -0.4098194 -0.8499829 0.3150672 -0.8090116 0.4962186 -0.3150668 0.809012 0.4962182 -0.8236672 0.285818 0.4897758 0.3150669 0.8090119 0.4962183 0.8236669 -0.2858182 0.4897763 -0.3150671 -0.8090117 0.4962185 0.44406 -0.2937326 -0.846482 -0.4440556 -0.2937372 0.8464827 -0.4568344 -0.8137869 -0.3592396 0.8318717 -0.4160955 -0.3672246 0.4568343 0.8137872 -0.3592393 -0.8318721 0.4160953 -0.3672241 -0.831872 -0.4160953 -0.3672243 0.8318718 0.4160956 -0.3672244 -0.4440556 0.2937374 0.8464828 0.4440599 0.2937328 -0.846482 0.823667 0.2858181 0.4897762 -0.8236672 -0.285818 0.4897759 -0.3310242 0.4098196 -0.8499829 0.3310244 0.4098196 0.8499829 -0.4568341 0.8137873 -0.3592392 0.4568346 -0.8137868 -0.3592396 0.3310243 -0.4098195 0.8499829 -0.3310242 -0.4098194 -0.8499829 0.3150672 -0.8090116 0.4962186 -0.3150669 0.809012 0.4962182 -0.8318725 0.4160942 0.3672243 0.4568324 0.8137876 0.3592408 0.8318722 -0.4160944 0.3672248 -0.4568325 -0.8137875 0.3592408 0.3310224 -0.4098192 -0.8499838 -0.3310227 -0.4098165 0.8499849 -0.3150672 -0.8090116 -0.4962185 0.8236669 -0.2858181 -0.4897763 0.3150671 0.8090119 -0.4962183 -0.8236672 0.285818 -0.4897758 -0.8236672 -0.285818 -0.4897759 0.823667 0.2858181 -0.4897762 -0.3310226 0.4098165 0.849985 0.3310223 0.4098192 -0.8499838 0.8318723 0.4160944 0.3672246 -0.8318725 -0.4160943 0.3672245 -0.4440551 0.2937354 -0.8464837 0.4440549 0.2937335 0.8464844 -0.3150671 0.8090119 -0.4962182 0.3150672 -0.8090116 -0.4962186 0.444055 -0.2937335 0.8464844 -0.4440552 -0.2937354 -0.8464836 0.4568327 -0.8137874 0.3592409 -0.4568321 0.8137878 0.3592406 -0.8318725 0.4160942 0.3672243 0.4568314 0.8137878 0.3592416 0.8318722 -0.4160944 0.3672248 -0.4568316 -0.8137876 0.3592417 0.3310243 -0.4098195 -0.8499828 -0.3310227 -0.4098165 0.849985 -0.3150671 -0.8090117 -0.4962185 0.8236669 -0.2858181 -0.4897763 0.3150669 0.8090119 -0.4962183 -0.8236672 0.285818 -0.4897758 -0.8236672 -0.285818 -0.4897759 0.823667 0.2858181 -0.4897762 -0.3310227 0.4098166 0.849985 0.3310244 0.4098196 -0.8499829 0.8318722 0.4160944 0.3672246 -0.8318724 -0.4160942 0.3672245 -0.4440555 0.2937374 -0.8464828 0.4440528 0.2937359 0.8464847 -0.3150669 0.809012 -0.4962182 0.3150672 -0.8090116 -0.4962186 0.4440529 -0.2937358 0.8464847 -0.4440556 -0.2937372 -0.8464827 0.4568318 -0.8137875 0.3592419 -0.4568312 0.8137879 0.3592414 -0.8318726 0.4160942 0.3672243 0.4568316 0.8137877 0.3592416 0.8318722 -0.4160945 0.3672248 -0.4568315 -0.8137877 0.3592416 0.3310244 -0.4098196 -0.8499829 -0.3310227 -0.4098166 0.849985 -0.3150671 -0.8090118 -0.4962185 0.8236669 -0.2858182 -0.4897763 0.3150669 0.8090118 -0.4962184 -0.8236672 0.2858179 -0.4897758 -0.8236672 -0.285818 -0.4897759 0.823667 0.285818 -0.4897762 -0.3310227 0.4098165 0.849985 0.3310243 0.4098195 -0.8499828 0.8318723 0.4160944 0.3672246 -0.8318724 -0.4160943 0.3672245 -0.4440556 0.2937373 -0.8464828 0.4440529 0.2937359 0.8464847 -0.3150669 0.8090119 -0.4962183 0.3150671 -0.8090116 -0.4962186 0.4440529 -0.2937359 0.8464847 -0.4440556 -0.2937373 -0.8464827 0.4568317 -0.8137875 0.3592417 -0.4568314 0.8137879 0.3592414 -0.8318721 0.4160953 0.3672242 0.4568325 0.8137872 0.3592415 0.8318718 -0.4160956 0.3672246 -0.4568327 -0.8137872 0.3592413 0.3310244 -0.4098196 -0.8499827 -0.3310224 -0.4098192 0.8499838 -0.315067 -0.8090118 -0.4962185 0.8236669 -0.2858178 -0.4897765 0.315067 0.8090119 -0.4962183 -0.8236672 0.2858179 -0.4897758 -0.8236672 -0.285818 -0.489776 0.823667 0.2858178 -0.4897764 -0.3310223 0.4098191 0.8499839 0.3310243 0.4098195 -0.8499829 0.8318718 0.4160954 0.3672245 -0.8318719 -0.4160954 0.3672242 -0.4440556 0.2937374 -0.8464828 0.4440553 0.2937354 0.8464835 -0.3150671 0.8090119 -0.4962182 0.315067 -0.8090116 -0.4962187 0.4440555 -0.2937354 0.8464835 -0.4440557 -0.2937374 -0.8464827 0.456833 -0.813787 0.3592414 -0.4568324 0.8137874 0.3592413 -0.8318721 0.4160953 0.3672242 0.4568327 0.8137873 0.3592412 0.8318718 -0.4160955 0.3672246 -0.4568327 -0.8137871 0.3592415 0.3310244 -0.4098195 -0.8499829 -0.3310224 -0.4098191 0.8499838 -0.3150672 -0.8090117 -0.4962185 0.8236669 -0.2858178 -0.4897764 0.3150668 0.8090119 -0.4962184 -0.8236672 0.285818 -0.4897758 -0.8236672 -0.2858179 -0.489776 0.8236669 0.2858178 -0.4897764 -0.3310223 0.4098191 0.8499838 0.3310243 0.4098196 -0.8499829 0.8318718 0.4160955 0.3672245 -0.8318721 -0.4160953 0.3672243 -0.4440556 0.2937374 -0.8464828 0.4440554 0.2937354 0.8464835 -0.3150669 0.809012 -0.4962182 0.3150672 -0.8090116 -0.4962186 0.4440554 -0.2937354 0.8464835 -0.4440556 -0.2937374 -0.8464827 0.4568328 -0.8137869 0.3592416 -0.4568324 0.8137874 0.3592411 -0.8318721 0.4160954 0.367224 0.4568324 0.8137872 0.3592414 0.8318718 -0.4160956 0.3672246 -0.4568327 -0.8137873 0.3592413 0.3310244 -0.4098196 -0.8499829 -0.3310223 -0.4098192 0.8499838 -0.315067 -0.8090118 -0.4962185 0.8236669 -0.2858182 -0.4897763 0.3150671 0.8090119 -0.4962183 -0.8236672 0.2858179 -0.4897758 -0.8236672 -0.2858179 -0.489776 0.823667 0.2858182 -0.4897761 -0.3310222 0.4098191 0.8499839 0.3310242 0.4098195 -0.8499829 0.8318718 0.4160954 0.3672245 -0.8318719 -0.4160954 0.3672241 -0.4440555 0.2937374 -0.8464828 0.4440553 0.2937354 0.8464835 -0.315067 0.809012 -0.4962182 0.3150671 -0.8090116 -0.4962186 0.4440554 -0.2937354 0.8464835 -0.4440557 -0.2937374 -0.8464827 0.4568328 -0.8137871 0.3592414 -0.4568322 0.8137874 0.3592413 -0.8318721 0.4160954 0.367224 0.4568325 0.8137874 0.3592413 0.8318718 -0.4160955 0.3672246 -0.4568326 -0.8137872 0.3592415 0.3310244 -0.4098195 -0.8499828 -0.3310223 -0.4098191 0.8499838 -0.3150672 -0.8090117 -0.4962185 0.823667 -0.2858181 -0.4897762 0.3150669 0.8090119 -0.4962183 -0.8236672 0.2858179 -0.4897758 -0.8236672 -0.2858179 -0.489776 0.823667 0.2858182 -0.4897761 -0.3310222 0.4098192 0.8499839 0.3310242 0.4098196 -0.8499829 0.8318718 0.4160955 0.3672245 -0.8318721 -0.4160954 0.3672242 -0.4440555 0.2937374 -0.8464827 0.4440553 0.2937354 0.8464835 -0.3150668 0.809012 -0.4962182 0.3150672 -0.8090116 -0.4962186 0.4440554 -0.2937354 0.8464835 -0.4440556 -0.2937374 -0.8464827 0.4568328 -0.8137869 0.3592416 -0.4568324 0.8137875 0.3592411 -0.8318721 0.4160953 0.367224 0.4568325 0.8137873 0.3592414 0.8318717 -0.4160956 0.3672246 -0.4568326 -0.8137872 0.3592415 0.3310243 -0.4098195 -0.8499828 -0.3310242 -0.4098194 0.8499829 -0.3150671 -0.8090117 -0.4962185 0.8236669 -0.2858181 -0.4897763 0.3150669 0.8090119 -0.4962183 -0.8236672 0.285818 -0.4897758 -0.8236672 -0.285818 -0.4897759 0.823667 0.2858181 -0.4897762 -0.3310242 0.4098195 0.8499829 0.3310244 0.4098196 -0.8499829 0.8318718 0.4160956 0.3672244 -0.831872 -0.4160953 0.3672243 -0.4440597 0.2937327 -0.8464822 0.4440557 0.2937375 0.8464826 -0.3150669 0.809012 -0.4962182 0.3150672 -0.8090116 -0.4962186 0.4440559 -0.2937374 0.8464826 -0.4440598 -0.2937325 -0.8464822 0.4568328 -0.813787 0.3592416 -0.4568322 0.8137875 0.3592412</float_array>
          <technique_common>
            <accessor source="#Cubo_084-mesh-normals-array" count="384" stride="3">
              <param name="X" type="float"/>
              <param name="Y" type="float"/>
              <param name="Z" type="float"/>
            </accessor>
          </technique_common>
        </source>
        <source id="Cubo_084-mesh-map-0">
          <float_array id="Cubo_084-mesh-map-0-array" count="2304">0.5118961 0.4585174 0.5179663 0.4645876 0.5118961 0.4645876 0.5118961 0.4706578 0.5179663 0.4767279 0.5118961 0.4767279 0.5118961 0.482798 0.5179663 0.4888683 0.5118961 0.4888683 0.5118961 0.4949384 0.5179663 0.5010086 0.5118961 0.5010086 0.4997557 0.4827981 0.5058259 0.4888683 0.4997557 0.4888683 0.5240364 0.4827981 0.5301066 0.4888683 0.5240364 0.4888683 0.5118961 0.4949384 0.5058259 0.5010086 0.5058259 0.4949384 0.5118961 0.482798 0.5058259 0.4888683 0.5058259 0.4827982 0.5118961 0.4706578 0.5058259 0.4767279 0.5058259 0.4706578 0.5118961 0.4585174 0.5058259 0.4645876 0.5058259 0.4585174 0.5058259 0.4524472 0.5118961 0.4585174 0.5058259 0.4585174 0.5058259 0.4767279 0.5118961 0.482798 0.5058259 0.4827982 0.5301066 0.4767279 0.5240364 0.4827981 0.5240364 0.4767279 0.5058259 0.4767279 0.4997557 0.4827981 0.4997557 0.4767279 0.5179663 0.4767279 0.5118961 0.482798 0.5118961 0.4767279 0.5179663 0.4524472 0.5118961 0.4585174 0.5118961 0.4524472 0.4936855 0.4767279 0.4997557 0.4827981 0.4936855 0.4827981 0.5179663 0.4767279 0.5240364 0.4827981 0.5179663 0.4827981 0.5058259 0.4645876 0.5118961 0.4706578 0.5058259 0.4706578 0.5058259 0.4888683 0.5118961 0.4949384 0.5058259 0.4949384 0.5240364 0.4827981 0.5179663 0.4888683 0.5179663 0.4827981 0.4997557 0.4827981 0.4936855 0.4888683 0.4936855 0.4827981 0.5179663 0.4888683 0.5118961 0.4949384 0.5118961 0.4888683 0.5179663 0.4645876 0.5118961 0.4706578 0.5118961 0.4645876 0.5118961 0.4585174 0.5179663 0.4645876 0.5118961 0.4645876 0.5118961 0.4706578 0.5179663 0.4767279 0.5118961 0.4767279 0.5118961 0.482798 0.5179663 0.4888683 0.5118961 0.4888683 0.5118961 0.4949384 0.5179663 0.5010086 0.5118961 0.5010086 0.4997557 0.4827981 0.5058259 0.4888683 0.4997557 0.4888683 0.5240364 0.4827981 0.5301066 0.4888683 0.5240364 0.4888683 0.5118961 0.4949384 0.5058259 0.5010086 0.5058259 0.4949384 0.5118961 0.482798 0.5058259 0.4888683 0.5058259 0.4827982 0.5118961 0.4706578 0.5058259 0.4767279 0.5058259 0.4706578 0.5118961 0.4585174 0.5058259 0.4645876 0.5058259 0.4585174 0.5058259 0.4524472 0.5118961 0.4585174 0.5058259 0.4585174 0.5058259 0.4767279 0.5118961 0.482798 0.5058259 0.4827982 0.5301066 0.4767279 0.5240364 0.4827981 0.5240364 0.4767279 0.5058259 0.4767279 0.4997557 0.4827981 0.4997557 0.4767279 0.5179663 0.4767279 0.5118961 0.482798 0.5118961 0.4767279 0.5179663 0.4524472 0.5118961 0.4585174 0.5118961 0.4524472 0.4936855 0.4767279 0.4997557 0.4827981 0.4936855 0.4827981 0.5179663 0.4767279 0.5240364 0.4827981 0.5179663 0.4827981 0.5058259 0.4645876 0.5118961 0.4706578 0.5058259 0.4706578 0.5058259 0.4888683 0.5118961 0.4949384 0.5058259 0.4949384 0.5240364 0.4827981 0.5179663 0.4888683 0.5179663 0.4827981 0.4997557 0.4827981 0.4936855 0.4888683 0.4936855 0.4827981 0.5179663 0.4888683 0.5118961 0.4949384 0.5118961 0.4888683 0.5179663 0.4645876 0.5118961 0.4706578 0.5118961 0.4645876 0.5118961 0.4585174 0.5179663 0.4645876 0.5118961 0.4645876 0.5118961 0.4706578 0.5179663 0.4767279 0.5118961 0.4767279 0.5118961 0.482798 0.5179663 0.4888683 0.5118961 0.4888683 0.5118961 0.4949384 0.5179663 0.5010086 0.5118961 0.5010086 0.4997557 0.4827981 0.5058259 0.4888683 0.4997557 0.4888683 0.5240364 0.4827981 0.5301066 0.4888683 0.5240364 0.4888683 0.5118961 0.4949384 0.5058259 0.5010086 0.5058259 0.4949384 0.5118961 0.482798 0.5058259 0.4888683 0.5058259 0.4827982 0.5118961 0.4706578 0.5058259 0.4767279 0.5058259 0.4706578 0.5118961 0.4585174 0.5058259 0.4645876 0.5058259 0.4585174 0.5058259 0.4524472 0.5118961 0.4585174 0.5058259 0.4585174 0.5058259 0.4767279 0.5118961 0.482798 0.5058259 0.4827982 0.5301066 0.4767279 0.5240364 0.4827981 0.5240364 0.4767279 0.5058259 0.4767279 0.4997557 0.4827981 0.4997557 0.4767279 0.5179663 0.4767279 0.5118961 0.482798 0.5118961 0.4767279 0.5179663 0.4524472 0.5118961 0.4585174 0.5118961 0.4524472 0.4936855 0.4767279 0.4997557 0.4827981 0.4936855 0.4827981 0.5179663 0.4767279 0.5240364 0.4827981 0.5179663 0.4827981 0.5058259 0.4645876 0.5118961 0.4706578 0.5058259 0.4706578 0.5058259 0.4888683 0.5118961 0.4949384 0.5058259 0.4949384 0.5240364 0.4827981 0.5179663 0.4888683 0.5179663 0.4827981 0.4997557 0.4827981 0.4936855 0.4888683 0.4936855 0.4827981 0.5179663 0.4888683 0.5118961 0.4949384 0.5118961 0.4888683 0.5179663 0.4645876 0.5118961 0.4706578 0.5118961 0.4645876 0.5118961 0.4585174 0.5179663 0.4645876 0.5118961 0.4645876 0.5118961 0.4706578 0.5179663 0.4767279 0.5118961 0.4767279 0.5118961 0.482798 0.5179663 0.4888683 0.5118961 0.4888683 0.5118961 0.4949384 0.5179663 0.5010086 0.5118961 0.5010086 0.4997557 0.4827981 0.5058259 0.4888683 0.4997557 0.4888683 0.5240364 0.4827981 0.5301066 0.4888683 0.5240364 0.4888683 0.5118961 0.4949384 0.5058259 0.5010086 0.5058259 0.4949384 0.5118961 0.482798 0.5058259 0.4888683 0.5058259 0.4827982 0.5118961 0.4706578 0.5058259 0.4767279 0.5058259 0.4706578 0.5118961 0.4585174 0.5058259 0.4645876 0.5058259 0.4585174 0.5058259 0.4524472 0.5118961 0.4585174 0.5058259 0.4585174 0.5058259 0.4767279 0.5118961 0.482798 0.5058259 0.4827982 0.5301066 0.4767279 0.5240364 0.4827981 0.5240364 0.4767279 0.5058259 0.4767279 0.4997557 0.4827981 0.4997557 0.4767279 0.5179663 0.4767279 0.5118961 0.482798 0.5118961 0.4767279 0.5179663 0.4524472 0.5118961 0.4585174 0.5118961 0.4524472 0.4936855 0.4767279 0.4997557 0.4827981 0.4936855 0.4827981 0.5179663 0.4767279 0.5240364 0.4827981 0.5179663 0.4827981 0.5058259 0.4645876 0.5118961 0.4706578 0.5058259 0.4706578 0.5058259 0.4888683 0.5118961 0.4949384 0.5058259 0.4949384 0.5240364 0.4827981 0.5179663 0.4888683 0.5179663 0.4827981 0.4997557 0.4827981 0.4936855 0.4888683 0.4936855 0.4827981 0.5179663 0.4888683 0.5118961 0.4949384 0.5118961 0.4888683 0.5179663 0.4645876 0.5118961 0.4706578 0.5118961 0.4645876 0.5118961 0.4585174 0.5179663 0.4645876 0.5118961 0.4645876 0.5118961 0.4706578 0.5179663 0.4767279 0.5118961 0.4767279 0.5118961 0.482798 0.5179663 0.4888683 0.5118961 0.4888683 0.5118961 0.4949384 0.5179663 0.5010086 0.5118961 0.5010086 0.4997557 0.4827981 0.5058259 0.4888683 0.4997557 0.4888683 0.5240364 0.4827981 0.5301066 0.4888683 0.5240364 0.4888683 0.5118961 0.4949384 0.5058259 0.5010086 0.5058259 0.4949384 0.5118961 0.482798 0.5058259 0.4888683 0.5058259 0.4827982 0.5118961 0.4706578 0.5058259 0.4767279 0.5058259 0.4706578 0.5118961 0.4585174 0.5058259 0.4645876 0.5058259 0.4585174 0.5058259 0.4524472 0.5118961 0.4585174 0.5058259 0.4585174 0.5058259 0.4767279 0.5118961 0.482798 0.5058259 0.4827982 0.5301066 0.4767279 0.5240364 0.4827981 0.5240364 0.4767279 0.5058259 0.4767279 0.4997557 0.4827981 0.4997557 0.4767279 0.5179663 0.4767279 0.5118961 0.482798 0.5118961 0.4767279 0.5179663 0.4524472 0.5118961 0.4585174 0.5118961 0.4524472 0.4936855 0.4767279 0.4997557 0.4827981 0.4936855 0.4827981 0.5179663 0.4767279 0.5240364 0.4827981 0.5179663 0.4827981 0.5058259 0.4645876 0.5118961 0.4706578 0.5058259 0.4706578 0.5058259 0.4888683 0.5118961 0.4949384 0.5058259 0.4949384 0.5240364 0.4827981 0.5179663 0.4888683 0.5179663 0.4827981 0.4997557 0.4827981 0.4936855 0.4888683 0.4936855 0.4827981 0.5179663 0.4888683 0.5118961 0.4949384 0.5118961 0.4888683 0.5179663 0.4645876 0.5118961 0.4706578 0.5118961 0.4645876 0.5118961 0.4585174 0.5179663 0.4645876 0.5118961 0.4645876 0.5118961 0.4706578 0.5179663 0.4767279 0.5118961 0.4767279 0.5118961 0.482798 0.5179663 0.4888683 0.5118961 0.4888683 0.5118961 0.4949384 0.5179663 0.5010086 0.5118961 0.5010086 0.4997557 0.4827981 0.5058259 0.4888683 0.4997557 0.4888683 0.5240364 0.4827981 0.5301066 0.4888683 0.5240364 0.4888683 0.5118961 0.4949384 0.5058259 0.5010086 0.5058259 0.4949384 0.5118961 0.482798 0.5058259 0.4888683 0.5058259 0.4827982 0.5118961 0.4706578 0.5058259 0.4767279 0.5058259 0.4706578 0.5118961 0.4585174 0.5058259 0.4645876 0.5058259 0.4585174 0.5058259 0.4524472 0.5118961 0.4585174 0.5058259 0.4585174 0.5058259 0.4767279 0.5118961 0.482798 0.5058259 0.4827982 0.5301066 0.4767279 0.5240364 0.4827981 0.5240364 0.4767279 0.5058259 0.4767279 0.4997557 0.4827981 0.4997557 0.4767279 0.5179663 0.4767279 0.5118961 0.482798 0.5118961 0.4767279 0.5179663 0.4524472 0.5118961 0.4585174 0.5118961 0.4524472 0.4936855 0.4767279 0.4997557 0.4827981 0.4936855 0.4827981 0.5179663 0.4767279 0.5240364 0.4827981 0.5179663 0.4827981 0.5058259 0.4645876 0.5118961 0.4706578 0.5058259 0.4706578 0.5058259 0.4888683 0.5118961 0.4949384 0.5058259 0.4949384 0.5240364 0.4827981 0.5179663 0.4888683 0.5179663 0.4827981 0.4997557 0.4827981 0.4936855 0.4888683 0.4936855 0.4827981 0.5179663 0.4888683 0.5118961 0.4949384 0.5118961 0.4888683 0.5179663 0.4645876 0.5118961 0.4706578 0.5118961 0.4645876 0.5118961 0.4585174 0.5179663 0.4645876 0.5118961 0.4645876 0.5118961 0.4706578 0.5179663 0.4767279 0.5118961 0.4767279 0.5118961 0.482798 0.5179663 0.4888683 0.5118961 0.4888683 0.5118961 0.4949384 0.5179663 0.5010086 0.5118961 0.5010086 0.4997557 0.4827981 0.5058259 0.4888683 0.4997557 0.4888683 0.5240364 0.4827981 0.5301066 0.4888683 0.5240364 0.4888683 0.5118961 0.4949384 0.5058259 0.5010086 0.5058259 0.4949384 0.5118961 0.482798 0.5058259 0.4888683 0.5058259 0.4827982 0.5118961 0.4706578 0.5058259 0.4767279 0.5058259 0.4706578 0.5118961 0.4585174 0.5058259 0.4645876 0.5058259 0.4585174 0.5058259 0.4524472 0.5118961 0.4585174 0.5058259 0.4585174 0.5058259 0.4767279 0.5118961 0.482798 0.5058259 0.4827982 0.5301066 0.4767279 0.5240364 0.4827981 0.5240364 0.4767279 0.5058259 0.4767279 0.4997557 0.4827981 0.4997557 0.4767279 0.5179663 0.4767279 0.5118961 0.482798 0.5118961 0.4767279 0.5179663 0.4524472 0.5118961 0.4585174 0.5118961 0.4524472 0.4936855 0.4767279 0.4997557 0.4827981 0.4936855 0.4827981 0.5179663 0.4767279 0.5240364 0.4827981 0.5179663 0.4827981 0.5058259 0.4645876 0.5118961 0.4706578 0.5058259 0.4706578 0.5058259 0.4888683 0.5118961 0.4949384 0.5058259 0.4949384 0.5240364 0.4827981 0.5179663 0.4888683 0.5179663 0.4827981 0.4997557 0.4827981 0.4936855 0.4888683 0.4936855 0.4827981 0.5179663 0.4888683 0.5118961 0.4949384 0.5118961 0.4888683 0.5179663 0.4645876 0.5118961 0.4706578 0.5118961 0.4645876 0.5118961 0.4585174 0.5179663 0.4645876 0.5118961 0.4645876 0.5118961 0.4706578 0.5179663 0.4767279 0.5118961 0.4767279 0.5118961 0.482798 0.5179663 0.4888683 0.5118961 0.4888683 0.5118961 0.4949384 0.5179663 0.5010086 0.5118961 0.5010086 0.4997557 0.4827981 0.5058259 0.4888683 0.4997557 0.4888683 0.5240364 0.4827981 0.5301066 0.4888683 0.5240364 0.4888683 0.5118961 0.4949384 0.5058259 0.5010086 0.5058259 0.4949384 0.5118961 0.482798 0.5058259 0.4888683 0.5058259 0.4827982 0.5118961 0.4706578 0.5058259 0.4767279 0.5058259 0.4706578 0.5118961 0.4585174 0.5058259 0.4645876 0.5058259 0.4585174 0.5058259 0.4524472 0.5118961 0.4585174 0.5058259 0.4585174 0.5058259 0.4767279 0.5118961 0.482798 0.5058259 0.4827982 0.5301066 0.4767279 0.5240364 0.4827981 0.5240364 0.4767279 0.5058259 0.4767279 0.4997557 0.4827981 0.4997557 0.4767279 0.5179663 0.4767279 0.5118961 0.482798 0.5118961 0.4767279 0.5179663 0.4524472 0.5118961 0.4585174 0.5118961 0.4524472 0.4936855 0.4767279 0.4997557 0.4827981 0.4936855 0.4827981 0.5179663 0.4767279 0.5240364 0.4827981 0.5179663 0.4827981 0.5058259 0.4645876 0.5118961 0.4706578 0.5058259 0.4706578 0.5058259 0.4888683 0.5118961 0.4949384 0.5058259 0.4949384 0.5240364 0.4827981 0.5179663 0.4888683 0.5179663 0.4827981 0.4997557 0.4827981 0.4936855 0.4888683 0.4936855 0.4827981 0.5179663 0.4888683 0.5118961 0.4949384 0.5118961 0.4888683 0.5179663 0.4645876 0.5118961 0.4706578 0.5118961 0.4645876 0.5118961 0.4585174 0.5179663 0.4585174 0.5179663 0.4645876 0.5118961 0.4706578 0.5179663 0.4706578 0.5179663 0.4767279 0.5118961 0.482798 0.5179663 0.4827981 0.5179663 0.4888683 0.5118961 0.4949384 0.5179663 0.4949384 0.5179663 0.5010086 0.4997557 0.4827981 0.5058259 0.4827982 0.5058259 0.4888683 0.5240364 0.4827981 0.5301066 0.4827981 0.5301066 0.4888683 0.5118961 0.4949384 0.5118961 0.5010086 0.5058259 0.5010086 0.5118961 0.482798 0.5118961 0.4888683 0.5058259 0.4888683 0.5118961 0.4706578 0.5118961 0.4767279 0.5058259 0.4767279 0.5118961 0.4585174 0.5118961 0.4645876 0.5058259 0.4645876 0.5058259 0.4524472 0.5118961 0.4524472 0.5118961 0.4585174 0.5058259 0.4767279 0.5118961 0.4767279 0.5118961 0.482798 0.5301066 0.4767279 0.5301066 0.4827981 0.5240364 0.4827981 0.5058259 0.4767279 0.5058259 0.4827982 0.4997557 0.4827981 0.5179663 0.4767279 0.5179663 0.4827981 0.5118961 0.482798 0.5179663 0.4524472 0.5179663 0.4585174 0.5118961 0.4585174 0.4936855 0.4767279 0.4997557 0.4767279 0.4997557 0.4827981 0.5179663 0.4767279 0.5240364 0.4767279 0.5240364 0.4827981 0.5058259 0.4645876 0.5118961 0.4645876 0.5118961 0.4706578 0.5058259 0.4888683 0.5118961 0.4888683 0.5118961 0.4949384 0.5240364 0.4827981 0.5240364 0.4888683 0.5179663 0.4888683 0.4997557 0.4827981 0.4997557 0.4888683 0.4936855 0.4888683 0.5179663 0.4888683 0.5179663 0.4949384 0.5118961 0.4949384 0.5179663 0.4645876 0.5179663 0.4706578 0.5118961 0.4706578 0.5118961 0.4585174 0.5179663 0.4585174 0.5179663 0.4645876 0.5118961 0.4706578 0.5179663 0.4706578 0.5179663 0.4767279 0.5118961 0.482798 0.5179663 0.4827981 0.5179663 0.4888683 0.5118961 0.4949384 0.5179663 0.4949384 0.5179663 0.5010086 0.4997557 0.4827981 0.5058259 0.4827982 0.5058259 0.4888683 0.5240364 0.4827981 0.5301066 0.4827981 0.5301066 0.4888683 0.5118961 0.4949384 0.5118961 0.5010086 0.5058259 0.5010086 0.5118961 0.482798 0.5118961 0.4888683 0.5058259 0.4888683 0.5118961 0.4706578 0.5118961 0.4767279 0.5058259 0.4767279 0.5118961 0.4585174 0.5118961 0.4645876 0.5058259 0.4645876 0.5058259 0.4524472 0.5118961 0.4524472 0.5118961 0.4585174 0.5058259 0.4767279 0.5118961 0.4767279 0.5118961 0.482798 0.5301066 0.4767279 0.5301066 0.4827981 0.5240364 0.4827981 0.5058259 0.4767279 0.5058259 0.4827982 0.4997557 0.4827981 0.5179663 0.4767279 0.5179663 0.4827981 0.5118961 0.482798 0.5179663 0.4524472 0.5179663 0.4585174 0.5118961 0.4585174 0.4936855 0.4767279 0.4997557 0.4767279 0.4997557 0.4827981 0.5179663 0.4767279 0.5240364 0.4767279 0.5240364 0.4827981 0.5058259 0.4645876 0.5118961 0.4645876 0.5118961 0.4706578 0.5058259 0.4888683 0.5118961 0.4888683 0.5118961 0.4949384 0.5240364 0.4827981 0.5240364 0.4888683 0.5179663 0.4888683 0.4997557 0.4827981 0.4997557 0.4888683 0.4936855 0.4888683 0.5179663 0.4888683 0.5179663 0.4949384 0.5118961 0.4949384 0.5179663 0.4645876 0.5179663 0.4706578 0.5118961 0.4706578 0.5118961 0.4585174 0.5179663 0.4585174 0.5179663 0.4645876 0.5118961 0.4706578 0.5179663 0.4706578 0.5179663 0.4767279 0.5118961 0.482798 0.5179663 0.4827981 0.5179663 0.4888683 0.5118961 0.4949384 0.5179663 0.4949384 0.5179663 0.5010086 0.4997557 0.4827981 0.5058259 0.4827982 0.5058259 0.4888683 0.5240364 0.4827981 0.5301066 0.4827981 0.5301066 0.4888683 0.5118961 0.4949384 0.5118961 0.5010086 0.5058259 0.5010086 0.5118961 0.482798 0.5118961 0.4888683 0.5058259 0.4888683 0.5118961 0.4706578 0.5118961 0.4767279 0.5058259 0.4767279 0.5118961 0.4585174 0.5118961 0.4645876 0.5058259 0.4645876 0.5058259 0.4524472 0.5118961 0.4524472 0.5118961 0.4585174 0.5058259 0.4767279 0.5118961 0.4767279 0.5118961 0.482798 0.5301066 0.4767279 0.5301066 0.4827981 0.5240364 0.4827981 0.5058259 0.4767279 0.5058259 0.4827982 0.4997557 0.4827981 0.5179663 0.4767279 0.5179663 0.4827981 0.5118961 0.482798 0.5179663 0.4524472 0.5179663 0.4585174 0.5118961 0.4585174 0.4936855 0.4767279 0.4997557 0.4767279 0.4997557 0.4827981 0.5179663 0.4767279 0.5240364 0.4767279 0.5240364 0.4827981 0.5058259 0.4645876 0.5118961 0.4645876 0.5118961 0.4706578 0.5058259 0.4888683 0.5118961 0.4888683 0.5118961 0.4949384 0.5240364 0.4827981 0.5240364 0.4888683 0.5179663 0.4888683 0.4997557 0.4827981 0.4997557 0.4888683 0.4936855 0.4888683 0.5179663 0.4888683 0.5179663 0.4949384 0.5118961 0.4949384 0.5179663 0.4645876 0.5179663 0.4706578 0.5118961 0.4706578 0.5118961 0.4585174 0.5179663 0.4585174 0.5179663 0.4645876 0.5118961 0.4706578 0.5179663 0.4706578 0.5179663 0.4767279 0.5118961 0.482798 0.5179663 0.4827981 0.5179663 0.4888683 0.5118961 0.4949384 0.5179663 0.4949384 0.5179663 0.5010086 0.4997557 0.4827981 0.5058259 0.4827982 0.5058259 0.4888683 0.5240364 0.4827981 0.5301066 0.4827981 0.5301066 0.4888683 0.5118961 0.4949384 0.5118961 0.5010086 0.5058259 0.5010086 0.5118961 0.482798 0.5118961 0.4888683 0.5058259 0.4888683 0.5118961 0.4706578 0.5118961 0.4767279 0.5058259 0.4767279 0.5118961 0.4585174 0.5118961 0.4645876 0.5058259 0.4645876 0.5058259 0.4524472 0.5118961 0.4524472 0.5118961 0.4585174 0.5058259 0.4767279 0.5118961 0.4767279 0.5118961 0.482798 0.5301066 0.4767279 0.5301066 0.4827981 0.5240364 0.4827981 0.5058259 0.4767279 0.5058259 0.4827982 0.4997557 0.4827981 0.5179663 0.4767279 0.5179663 0.4827981 0.5118961 0.482798 0.5179663 0.4524472 0.5179663 0.4585174 0.5118961 0.4585174 0.4936855 0.4767279 0.4997557 0.4767279 0.4997557 0.4827981 0.5179663 0.4767279 0.5240364 0.4767279 0.5240364 0.4827981 0.5058259 0.4645876 0.5118961 0.4645876 0.5118961 0.4706578 0.5058259 0.4888683 0.5118961 0.4888683 0.5118961 0.4949384 0.5240364 0.4827981 0.5240364 0.4888683 0.5179663 0.4888683 0.4997557 0.4827981 0.4997557 0.4888683 0.4936855 0.4888683 0.5179663 0.4888683 0.5179663 0.4949384 0.5118961 0.4949384 0.5179663 0.4645876 0.5179663 0.4706578 0.5118961 0.4706578 0.5118961 0.4585174 0.5179663 0.4585174 0.5179663 0.4645876 0.5118961 0.4706578 0.5179663 0.4706578 0.5179663 0.4767279 0.5118961 0.482798 0.5179663 0.4827981 0.5179663 0.4888683 0.5118961 0.4949384 0.5179663 0.4949384 0.5179663 0.5010086 0.4997557 0.4827981 0.5058259 0.4827982 0.5058259 0.4888683 0.5240364 0.4827981 0.5301066 0.4827981 0.5301066 0.4888683 0.5118961 0.4949384 0.5118961 0.5010086 0.5058259 0.5010086 0.5118961 0.482798 0.5118961 0.4888683 0.5058259 0.4888683 0.5118961 0.4706578 0.5118961 0.4767279 0.5058259 0.4767279 0.5118961 0.4585174 0.5118961 0.4645876 0.5058259 0.4645876 0.5058259 0.4524472 0.5118961 0.4524472 0.5118961 0.4585174 0.5058259 0.4767279 0.5118961 0.4767279 0.5118961 0.482798 0.5301066 0.4767279 0.5301066 0.4827981 0.5240364 0.4827981 0.5058259 0.4767279 0.5058259 0.4827982 0.4997557 0.4827981 0.5179663 0.4767279 0.5179663 0.4827981 0.5118961 0.482798 0.5179663 0.4524472 0.5179663 0.4585174 0.5118961 0.4585174 0.4936855 0.4767279 0.4997557 0.4767279 0.4997557 0.4827981 0.5179663 0.4767279 0.5240364 0.4767279 0.5240364 0.4827981 0.5058259 0.4645876 0.5118961 0.4645876 0.5118961 0.4706578 0.5058259 0.4888683 0.5118961 0.4888683 0.5118961 0.4949384 0.5240364 0.4827981 0.5240364 0.4888683 0.5179663 0.4888683 0.4997557 0.4827981 0.4997557 0.4888683 0.4936855 0.4888683 0.5179663 0.4888683 0.5179663 0.4949384 0.5118961 0.4949384 0.5179663 0.4645876 0.5179663 0.4706578 0.5118961 0.4706578 0.5118961 0.4585174 0.5179663 0.4585174 0.5179663 0.4645876 0.5118961 0.4706578 0.5179663 0.4706578 0.5179663 0.4767279 0.5118961 0.482798 0.5179663 0.4827981 0.5179663 0.4888683 0.5118961 0.4949384 0.5179663 0.4949384 0.5179663 0.5010086 0.4997557 0.4827981 0.5058259 0.4827982 0.5058259 0.4888683 0.5240364 0.4827981 0.5301066 0.4827981 0.5301066 0.4888683 0.5118961 0.4949384 0.5118961 0.5010086 0.5058259 0.5010086 0.5118961 0.482798 0.5118961 0.4888683 0.5058259 0.4888683 0.5118961 0.4706578 0.5118961 0.4767279 0.5058259 0.4767279 0.5118961 0.4585174 0.5118961 0.4645876 0.5058259 0.4645876 0.5058259 0.4524472 0.5118961 0.4524472 0.5118961 0.4585174 0.5058259 0.4767279 0.5118961 0.4767279 0.5118961 0.482798 0.5301066 0.4767279 0.5301066 0.4827981 0.5240364 0.4827981 0.5058259 0.4767279 0.5058259 0.4827982 0.4997557 0.4827981 0.5179663 0.4767279 0.5179663 0.4827981 0.5118961 0.482798 0.5179663 0.4524472 0.5179663 0.4585174 0.5118961 0.4585174 0.4936855 0.4767279 0.4997557 0.4767279 0.4997557 0.4827981 0.5179663 0.4767279 0.5240364 0.4767279 0.5240364 0.4827981 0.5058259 0.4645876 0.5118961 0.4645876 0.5118961 0.4706578 0.5058259 0.4888683 0.5118961 0.4888683 0.5118961 0.4949384 0.5240364 0.4827981 0.5240364 0.4888683 0.5179663 0.4888683 0.4997557 0.4827981 0.4997557 0.4888683 0.4936855 0.4888683 0.5179663 0.4888683 0.5179663 0.4949384 0.5118961 0.4949384 0.5179663 0.4645876 0.5179663 0.4706578 0.5118961 0.4706578 0.5118961 0.4585174 0.5179663 0.4585174 0.5179663 0.4645876 0.5118961 0.4706578 0.5179663 0.4706578 0.5179663 0.4767279 0.5118961 0.482798 0.5179663 0.4827981 0.5179663 0.4888683 0.5118961 0.4949384 0.5179663 0.4949384 0.5179663 0.5010086 0.4997557 0.4827981 0.5058259 0.4827982 0.5058259 0.4888683 0.5240364 0.4827981 0.5301066 0.4827981 0.5301066 0.4888683 0.5118961 0.4949384 0.5118961 0.5010086 0.5058259 0.5010086 0.5118961 0.482798 0.5118961 0.4888683 0.5058259 0.4888683 0.5118961 0.4706578 0.5118961 0.4767279 0.5058259 0.4767279 0.5118961 0.4585174 0.5118961 0.4645876 0.5058259 0.4645876 0.5058259 0.4524472 0.5118961 0.4524472 0.5118961 0.4585174 0.5058259 0.4767279 0.5118961 0.4767279 0.5118961 0.482798 0.5301066 0.4767279 0.5301066 0.4827981 0.5240364 0.4827981 0.5058259 0.4767279 0.5058259 0.4827982 0.4997557 0.4827981 0.5179663 0.4767279 0.5179663 0.4827981 0.5118961 0.482798 0.5179663 0.4524472 0.5179663 0.4585174 0.5118961 0.4585174 0.4936855 0.4767279 0.4997557 0.4767279 0.4997557 0.4827981 0.5179663 0.4767279 0.5240364 0.4767279 0.5240364 0.4827981 0.5058259 0.4645876 0.5118961 0.4645876 0.5118961 0.4706578 0.5058259 0.4888683 0.5118961 0.4888683 0.5118961 0.4949384 0.5240364 0.4827981 0.5240364 0.4888683 0.5179663 0.4888683 0.4997557 0.4827981 0.4997557 0.4888683 0.4936855 0.4888683 0.5179663 0.4888683 0.5179663 0.4949384 0.5118961 0.4949384 0.5179663 0.4645876 0.5179663 0.4706578 0.5118961 0.4706578 0.5118961 0.4585174 0.5179663 0.4585174 0.5179663 0.4645876 0.5118961 0.4706578 0.5179663 0.4706578 0.5179663 0.4767279 0.5118961 0.482798 0.5179663 0.4827981 0.5179663 0.4888683 0.5118961 0.4949384 0.5179663 0.4949384 0.5179663 0.5010086 0.4997557 0.4827981 0.5058259 0.4827982 0.5058259 0.4888683 0.5240364 0.4827981 0.5301066 0.4827981 0.5301066 0.4888683 0.5118961 0.4949384 0.5118961 0.5010086 0.5058259 0.5010086 0.5118961 0.482798 0.5118961 0.4888683 0.5058259 0.4888683 0.5118961 0.4706578 0.5118961 0.4767279 0.5058259 0.4767279 0.5118961 0.4585174 0.5118961 0.4645876 0.5058259 0.4645876 0.5058259 0.4524472 0.5118961 0.4524472 0.5118961 0.4585174 0.5058259 0.4767279 0.5118961 0.4767279 0.5118961 0.482798 0.5301066 0.4767279 0.5301066 0.4827981 0.5240364 0.4827981 0.5058259 0.4767279 0.5058259 0.4827982 0.4997557 0.4827981 0.5179663 0.4767279 0.5179663 0.4827981 0.5118961 0.482798 0.5179663 0.4524472 0.5179663 0.4585174 0.5118961 0.4585174 0.4936855 0.4767279 0.4997557 0.4767279 0.4997557 0.4827981 0.5179663 0.4767279 0.5240364 0.4767279 0.5240364 0.4827981 0.5058259 0.4645876 0.5118961 0.4645876 0.5118961 0.4706578 0.5058259 0.4888683 0.5118961 0.4888683 0.5118961 0.4949384 0.5240364 0.4827981 0.5240364 0.4888683 0.5179663 0.4888683 0.4997557 0.4827981 0.4997557 0.4888683 0.4936855 0.4888683 0.5179663 0.4888683 0.5179663 0.4949384 0.5118961 0.4949384 0.5179663 0.4645876 0.5179663 0.4706578 0.5118961 0.4706578</float_array>
          <technique_common>
            <accessor source="#Cubo_084-mesh-map-0-array" count="1152" stride="2">
              <param name="S" type="float"/>
              <param name="T" type="float"/>
            </accessor>
          </technique_common>
        </source>
        <vertices id="Cubo_084-mesh-vertices">
          <input semantic="POSITION" source="#Cubo_084-mesh-positions"/>
        </vertices>
        <triangles material="A-textura_nok__General-material" count="384">
          <input semantic="VERTEX" source="#Cubo_084-mesh-vertices" offset="0"/>
          <input semantic="NORMAL" source="#Cubo_084-mesh-normals" offset="1"/>
          <input semantic="TEXCOORD" source="#Cubo_084-mesh-map-0" offset="2" set="0"/>
          <p>17 0 0 3 0 1 9 0 2 23 1 3 7 1 4 10 1 5 16 2 6 5 2 7 11 2 8 22 3 9 1 3 10 8 3 11 25 4 12 4 4 13 20 4 14 24 5 15 1 5 16 21 5 17 22 6 18 0 6 19 20 6 20 16 7 21 4 7 22 14 7 23 23 8 24 6 8 25 18 8 26 17 9 27 2 9 28 12 9 29 0 10 30 17 10 31 12 10 32 6 11 33 16 11 34 14 11 35 3 12 36 24 12 37 19 12 38 6 13 39 25 13 40 18 13 41 7 14 42 16 14 43 10 14 44 1 15 45 17 15 46 8 15 47 2 16 48 25 16 49 12 16 50 7 17 51 24 17 52 15 17 53 2 18 54 23 18 55 18 18 56 4 19 57 22 19 58 20 19 59 24 20 60 5 20 61 15 20 62 25 21 63 0 21 64 12 21 65 5 22 66 22 22 67 11 22 68 3 23 69 23 23 70 9 23 71 43 24 72 29 24 73 35 24 74 49 25 75 33 25 76 36 25 77 42 26 78 31 26 79 37 26 80 48 27 81 27 27 82 34 27 83 51 28 84 30 28 85 46 28 86 50 29 87 27 29 88 47 29 89 48 30 90 26 30 91 46 30 92 42 31 93 30 31 94 40 31 95 49 32 96 32 32 97 44 32 98 43 33 99 28 33 100 38 33 101 26 34 102 43 34 103 38 34 104 32 35 105 42 35 106 40 35 107 29 36 108 50 36 109 45 36 110 32 37 111 51 37 112 44 37 113 33 38 114 42 38 115 36 38 116 27 39 117 43 39 118 34 39 119 28 40 120 51 40 121 38 40 122 33 41 123 50 41 124 41 41 125 28 42 126 49 42 127 44 42 128 30 43 129 48 43 130 46 43 131 50 44 132 31 44 133 41 44 134 51 45 135 26 45 136 38 45 137 31 46 138 48 46 139 37 46 140 29 47 141 49 47 142 35 47 143 69 48 144 55 48 145 61 48 146 75 49 147 59 49 148 62 49 149 68 50 150 57 50 151 63 50 152 74 51 153 53 51 154 60 51 155 77 52 156 56 52 157 72 52 158 76 53 159 53 53 160 73 53 161 74 54 162 52 54 163 72 54 164 68 55 165 56 55 166 66 55 167 75 56 168 58 56 169 70 56 170 69 57 171 54 57 172 64 57 173 52 58 174 69 58 175 64 58 176 58 59 177 68 59 178 66 59 179 55 60 180 76 60 181 71 60 182 58 61 183 77 61 184 70 61 185 59 62 186 68 62 187 62 62 188 53 63 189 69 63 190 60 63 191 54 64 192 77 64 193 64 64 194 59 65 195 76 65 196 67 65 197 54 66 198 75 66 199 70 66 200 56 67 201 74 67 202 72 67 203 76 68 204 57 68 205 67 68 206 77 69 207 52 69 208 64 69 209 57 70 210 74 70 211 63 70 212 55 71 213 75 71 214 61 71 215 95 72 216 81 72 217 87 72 218 101 73 219 85 73 220 88 73 221 94 74 222 83 74 223 89 74 224 100 75 225 79 75 226 86 75 227 103 76 228 82 76 229 98 76 230 102 77 231 79 77 232 99 77 233 100 78 234 78 78 235 98 78 236 94 79 237 82 79 238 92 79 239 101 80 240 84 80 241 96 80 242 95 81 243 80 81 244 90 81 245 78 82 246 95 82 247 90 82 248 84 83 249 94 83 250 92 83 251 81 84 252 102 84 253 97 84 254 84 85 255 103 85 256 96 85 257 85 86 258 94 86 259 88 86 260 79 87 261 95 87 262 86 87 263 80 88 264 103 88 265 90 88 266 85 89 267 102 89 268 93 89 269 80 90 270 101 90 271 96 90 272 82 91 273 100 91 274 98 91 275 102 92 276 83 92 277 93 92 278 103 93 279 78 93 280 90 93 281 83 94 282 100 94 283 89 94 284 81 95 285 101 95 286 87 95 287 121 96 288 107 96 289 113 96 290 127 97 291 111 97 292 114 97 293 120 98 294 109 98 295 115 98 296 126 99 297 105 99 298 112 99 299 129 100 300 108 100 301 124 100 302 128 101 303 105 101 304 125 101 305 126 102 306 104 102 307 124 102 308 120 103 309 108 103 310 118 103 311 127 104 312 110 104 313 122 104 314 121 105 315 106 105 316 116 105 317 104 106 318 121 106 319 116 106 320 110 107 321 120 107 322 118 107 323 107 108 324 128 108 325 123 108 326 110 109 327 129 109 328 122 109 329 111 110 330 120 110 331 114 110 332 105 111 333 121 111 334 112 111 335 106 112 336 129 112 337 116 112 338 111 113 339 128 113 340 119 113 341 106 114 342 127 114 343 122 114 344 108 115 345 126 115 346 124 115 347 128 116 348 109 116 349 119 116 350 129 117 351 104 117 352 116 117 353 109 118 354 126 118 355 115 118 356 107 119 357 127 119 358 113 119 359 147 120 360 133 120 361 139 120 362 153 121 363 137 121 364 140 121 365 146 122 366 135 122 367 141 122 368 152 123 369 131 123 370 138 123 371 155 124 372 134 124 373 150 124 374 154 125 375 131 125 376 151 125 377 152 126 378 130 126 379 150 126 380 146 127 381 134 127 382 144 127 383 153 128 384 136 128 385 148 128 386 147 129 387 132 129 388 142 129 389 130 130 390 147 130 391 142 130 392 136 131 393 146 131 394 144 131 395 133 132 396 154 132 397 149 132 398 136 133 399 155 133 400 148 133 401 137 134 402 146 134 403 140 134 404 131 135 405 147 135 406 138 135 407 132 136 408 155 136 409 142 136 410 137 137 411 154 137 412 145 137 413 132 138 414 153 138 415 148 138 416 134 139 417 152 139 418 150 139 419 154 140 420 135 140 421 145 140 422 155 141 423 130 141 424 142 141 425 135 142 426 152 142 427 141 142 428 133 143 429 153 143 430 139 143 431 173 144 432 159 144 433 165 144 434 179 145 435 163 145 436 166 145 437 172 146 438 161 146 439 167 146 440 178 147 441 157 147 442 164 147 443 181 148 444 160 148 445 176 148 446 180 149 447 157 149 448 177 149 449 178 150 450 156 150 451 176 150 452 172 151 453 160 151 454 170 151 455 179 152 456 162 152 457 174 152 458 173 153 459 158 153 460 168 153 461 156 154 462 173 154 463 168 154 464 162 155 465 172 155 466 170 155 467 159 156 468 180 156 469 175 156 470 162 157 471 181 157 472 174 157 473 163 158 474 172 158 475 166 158 476 157 159 477 173 159 478 164 159 479 158 160 480 181 160 481 168 160 482 163 161 483 180 161 484 171 161 485 158 162 486 179 162 487 174 162 488 160 163 489 178 163 490 176 163 491 180 164 492 161 164 493 171 164 494 181 165 495 156 165 496 168 165 497 161 166 498 178 166 499 167 166 500 159 167 501 179 167 502 165 167 503 199 168 504 185 168 505 191 168 506 205 169 507 189 169 508 192 169 509 198 170 510 187 170 511 193 170 512 204 171 513 183 171 514 190 171 515 207 172 516 186 172 517 202 172 518 206 173 519 183 173 520 203 173 521 204 174 522 182 174 523 202 174 524 198 175 525 186 175 526 196 175 527 205 176 528 188 176 529 200 176 530 199 177 531 184 177 532 194 177 533 182 178 534 199 178 535 194 178 536 188 179 537 198 179 538 196 179 539 185 180 540 206 180 541 201 180 542 188 181 543 207 181 544 200 181 545 189 182 546 198 182 547 192 182 548 183 183 549 199 183 550 190 183 551 184 184 552 207 184 553 194 184 554 189 185 555 206 185 556 197 185 557 184 186 558 205 186 559 200 186 560 186 187 561 204 187 562 202 187 563 206 188 564 187 188 565 197 188 566 207 189 567 182 189 568 194 189 569 187 190 570 204 190 571 193 190 572 185 191 573 205 191 574 191 191 575 17 192 576 13 192 577 3 192 578 23 193 579 19 193 580 7 193 581 16 194 582 15 194 583 5 194 584 22 195 585 21 195 586 1 195 587 25 196 588 14 196 589 4 196 590 24 197 591 13 197 592 1 197 593 22 198 594 8 198 595 0 198 596 16 199 597 11 199 598 4 199 599 23 200 600 10 200 601 6 200 602 17 201 603 9 201 604 2 201 605 0 202 606 8 202 607 17 202 608 6 203 609 10 203 610 16 203 611 3 204 612 13 204 613 24 204 614 6 205 615 14 205 616 25 205 617 7 206 618 15 206 619 16 206 620 1 207 621 13 207 622 17 207 623 2 208 624 18 208 625 25 208 626 7 209 627 19 209 628 24 209 629 2 210 630 9 210 631 23 210 632 4 211 633 11 211 634 22 211 635 24 212 636 21 212 637 5 212 638 25 213 639 20 213 640 0 213 641 5 214 642 21 214 643 22 214 644 3 215 645 19 215 646 23 215 647 43 216 648 39 216 649 29 216 650 49 217 651 45 217 652 33 217 653 42 218 654 41 218 655 31 218 656 48 219 657 47 219 658 27 219 659 51 220 660 40 220 661 30 220 662 50 221 663 39 221 664 27 221 665 48 222 666 34 222 667 26 222 668 42 223 669 37 223 670 30 223 671 49 224 672 36 224 673 32 224 674 43 225 675 35 225 676 28 225 677 26 226 678 34 226 679 43 226 680 32 227 681 36 227 682 42 227 683 29 228 684 39 228 685 50 228 686 32 229 687 40 229 688 51 229 689 33 230 690 41 230 691 42 230 692 27 231 693 39 231 694 43 231 695 28 232 696 44 232 697 51 232 698 33 233 699 45 233 700 50 233 701 28 234 702 35 234 703 49 234 704 30 235 705 37 235 706 48 235 707 50 236 708 47 236 709 31 236 710 51 237 711 46 237 712 26 237 713 31 238 714 47 238 715 48 238 716 29 239 717 45 239 718 49 239 719 69 240 720 65 240 721 55 240 722 75 241 723 71 241 724 59 241 725 68 242 726 67 242 727 57 242 728 74 243 729 73 243 730 53 243 731 77 244 732 66 244 733 56 244 734 76 245 735 65 245 736 53 245 737 74 246 738 60 246 739 52 246 740 68 247 741 63 247 742 56 247 743 75 248 744 62 248 745 58 248 746 69 249 747 61 249 748 54 249 749 52 250 750 60 250 751 69 250 752 58 251 753 62 251 754 68 251 755 55 252 756 65 252 757 76 252 758 58 253 759 66 253 760 77 253 761 59 254 762 67 254 763 68 254 764 53 255 765 65 255 766 69 255 767 54 256 768 70 256 769 77 256 770 59 257 771 71 257 772 76 257 773 54 258 774 61 258 775 75 258 776 56 259 777 63 259 778 74 259 779 76 260 780 73 260 781 57 260 782 77 261 783 72 261 784 52 261 785 57 262 786 73 262 787 74 262 788 55 263 789 71 263 790 75 263 791 95 264 792 91 264 793 81 264 794 101 265 795 97 265 796 85 265 797 94 266 798 93 266 799 83 266 800 100 267 801 99 267 802 79 267 803 103 268 804 92 268 805 82 268 806 102 269 807 91 269 808 79 269 809 100 270 810 86 270 811 78 270 812 94 271 813 89 271 814 82 271 815 101 272 816 88 272 817 84 272 818 95 273 819 87 273 820 80 273 821 78 274 822 86 274 823 95 274 824 84 275 825 88 275 826 94 275 827 81 276 828 91 276 829 102 276 830 84 277 831 92 277 832 103 277 833 85 278 834 93 278 835 94 278 836 79 279 837 91 279 838 95 279 839 80 280 840 96 280 841 103 280 842 85 281 843 97 281 844 102 281 845 80 282 846 87 282 847 101 282 848 82 283 849 89 283 850 100 283 851 102 284 852 99 284 853 83 284 854 103 285 855 98 285 856 78 285 857 83 286 858 99 286 859 100 286 860 81 287 861 97 287 862 101 287 863 121 288 864 117 288 865 107 288 866 127 289 867 123 289 868 111 289 869 120 290 870 119 290 871 109 290 872 126 291 873 125 291 874 105 291 875 129 292 876 118 292 877 108 292 878 128 293 879 117 293 880 105 293 881 126 294 882 112 294 883 104 294 884 120 295 885 115 295 886 108 295 887 127 296 888 114 296 889 110 296 890 121 297 891 113 297 892 106 297 893 104 298 894 112 298 895 121 298 896 110 299 897 114 299 898 120 299 899 107 300 900 117 300 901 128 300 902 110 301 903 118 301 904 129 301 905 111 302 906 119 302 907 120 302 908 105 303 909 117 303 910 121 303 911 106 304 912 122 304 913 129 304 914 111 305 915 123 305 916 128 305 917 106 306 918 113 306 919 127 306 920 108 307 921 115 307 922 126 307 923 128 308 924 125 308 925 109 308 926 129 309 927 124 309 928 104 309 929 109 310 930 125 310 931 126 310 932 107 311 933 123 311 934 127 311 935 147 312 936 143 312 937 133 312 938 153 313 939 149 313 940 137 313 941 146 314 942 145 314 943 135 314 944 152 315 945 151 315 946 131 315 947 155 316 948 144 316 949 134 316 950 154 317 951 143 317 952 131 317 953 152 318 954 138 318 955 130 318 956 146 319 957 141 319 958 134 319 959 153 320 960 140 320 961 136 320 962 147 321 963 139 321 964 132 321 965 130 322 966 138 322 967 147 322 968 136 323 969 140 323 970 146 323 971 133 324 972 143 324 973 154 324 974 136 325 975 144 325 976 155 325 977 137 326 978 145 326 979 146 326 980 131 327 981 143 327 982 147 327 983 132 328 984 148 328 985 155 328 986 137 329 987 149 329 988 154 329 989 132 330 990 139 330 991 153 330 992 134 331 993 141 331 994 152 331 995 154 332 996 151 332 997 135 332 998 155 333 999 150 333 1000 130 333 1001 135 334 1002 151 334 1003 152 334 1004 133 335 1005 149 335 1006 153 335 1007 173 336 1008 169 336 1009 159 336 1010 179 337 1011 175 337 1012 163 337 1013 172 338 1014 171 338 1015 161 338 1016 178 339 1017 177 339 1018 157 339 1019 181 340 1020 170 340 1021 160 340 1022 180 341 1023 169 341 1024 157 341 1025 178 342 1026 164 342 1027 156 342 1028 172 343 1029 167 343 1030 160 343 1031 179 344 1032 166 344 1033 162 344 1034 173 345 1035 165 345 1036 158 345 1037 156 346 1038 164 346 1039 173 346 1040 162 347 1041 166 347 1042 172 347 1043 159 348 1044 169 348 1045 180 348 1046 162 349 1047 170 349 1048 181 349 1049 163 350 1050 171 350 1051 172 350 1052 157 351 1053 169 351 1054 173 351 1055 158 352 1056 174 352 1057 181 352 1058 163 353 1059 175 353 1060 180 353 1061 158 354 1062 165 354 1063 179 354 1064 160 355 1065 167 355 1066 178 355 1067 180 356 1068 177 356 1069 161 356 1070 181 357 1071 176 357 1072 156 357 1073 161 358 1074 177 358 1075 178 358 1076 159 359 1077 175 359 1078 179 359 1079 199 360 1080 195 360 1081 185 360 1082 205 361 1083 201 361 1084 189 361 1085 198 362 1086 197 362 1087 187 362 1088 204 363 1089 203 363 1090 183 363 1091 207 364 1092 196 364 1093 186 364 1094 206 365 1095 195 365 1096 183 365 1097 204 366 1098 190 366 1099 182 366 1100 198 367 1101 193 367 1102 186 367 1103 205 368 1104 192 368 1105 188 368 1106 199 369 1107 191 369 1108 184 369 1109 182 370 1110 190 370 1111 199 370 1112 188 371 1113 192 371 1114 198 371 1115 185 372 1116 195 372 1117 206 372 1118 188 373 1119 196 373 1120 207 373 1121 189 374 1122 197 374 1123 198 374 1124 183 375 1125 195 375 1126 199 375 1127 184 376 1128 200 376 1129 207 376 1130 189 377 1131 201 377 1132 206 377 1133 184 378 1134 191 378 1135 205 378 1136 186 379 1137 193 379 1138 204 379 1139 206 380 1140 203 380 1141 187 380 1142 207 381 1143 202 381 1144 182 381 1145 187 382 1146 203 382 1147 204 382 1148 185 383 1149 201 383 1150 205 383 1151</p>
        </triangles>
      </mesh>
    </geometry>
  </library_geometries>
  <library_visual_scenes>
    <visual_scene id="Scene" name="Scene">
      <node id="a_hair_female_01" name="a_hair_female_01" type="NODE">
        <matrix sid="transform">1 0 0 0 0 1 0 0 0 0 1 0 0 0 0 1</matrix>
        <instance_geometry url="#Cubo_084-mesh" name="a_hair_female_01">
          <bind_material>
            <technique_common>
              <instance_material symbol="A-textura_nok__General-material" target="#A-textura_nok__General-material">
                <bind_vertex_input semantic="MapaUV" input_semantic="TEXCOORD" input_set="0"/>
              </instance_material>
            </technique_common>
          </bind_material>
        </instance_geometry>
      </node>
    </visual_scene>
  </library_visual_scenes>
  <scene>
    <instance_visual_scene url="#Scene"/>
  </scene>
</COLLADA>