<?xml version="1.0" encoding="utf-8"?>
<COLLADA xmlns="http://www.collada.org/2005/11/COLLADASchema" version="1.4.1" xmlns:xsi="http://www.w3.org/2001/XMLSchema-instance">
  <asset>
    <contributor>
      <author>Blender User</author>
      <authoring_tool>Blender 4.3.1 commit date:2024-12-10, commit time:07:46, hash:33d812126174</authoring_tool>
    </contributor>
    <created>2026-08-20T09:13:44</created>
    <modified>2026-08-20T09:13:44</modified>
    <unit name="meter" meter="1"/>
    <up_axis>Z_UP</up_axis>
  </asset>
  <library_effects>
    <effect id="A-textura_nok__General-effect">
      <profile_COMMON>
        <newparam sid="nok_png-surface">
          <surface type="2D">
            <init_from>nok_png</init_from>
          </surface>
        </newparam>
        <newparam sid="nok_png-sampler">
          <sampler2D>
            <source>nok_png-surface</source>
          </sampler2D>
        </newparam>
        <technique sid="common">
          <lambert>
            <emission>
              <color sid="emission">0 0 0 1</color>
            </emission>
            <diffuse>
              <texture texture="nok_png-sampler" texcoord="MapaUV"/>
            </diffuse>
            <index_of_refraction>
              <float sid="ior">1.45</float>
            </index_of_refraction>
          </lambert>
        </technique>
      </profile_COMMON>
    </effect>
  </library_effects>
  <library_images>
    <image id="nok_png" name="nok_png">
      <init_from>nok.png</init_from>
    </image>
  </library_images>
  <library_materials>
    <material id="A-textura_nok__General-material" name="A-textura nok  General">
      <instance_effect url="#A-textura_nok__General-effect"/>
    </material>
  </library_materials>
  <library_geometries>
    <geometry id="Cubo_096-mesh" name="Cubo.096">
      <mesh>
        <source id="Cubo_096-mesh-positions">
          <float_array id="Cubo_096-mesh-positions-array" count="186">-0.1177291 0.1254267 0.3981159 -0.1177291 0.1254267 0.6389992 -0.1177291 0.3663106 0.3981159 -0.1177291 0.3663106 0.6389992 0.1231536 0.1254267 0.3981159 0.1231536 0.1254267 0.6389992 0.1231536 0.3663106 0.3981159 0.1231536 0.3663106 0.6389992 -0.1708965 0.07225847 0.5185573 -0.1708965 0.4194789 0.5185573 0.176321 0.4194789 0.5185573 0.176321 0.07225847 0.5185573 -0.159523 0.2458686 0.3563216 -0.159523 0.2458686 0.6807933 0.1649475 0.2458686 0.3563216 0.1649475 0.2458686 0.6807933 0.2365665 0.2458686 0.5185573 -0.231142 0.2458686 0.5185573 0.002712249 0.4132161 0.3512097 0.002712249 0.4132161 0.6859048 0.002712249 0.07852125 0.3512097 0.002712249 0.07852125 0.6859048 0.002712249 0.004646301 0.5185573 0.002712249 0.4870906 0.5185573 0.002712249 0.2458686 0.7439754 0.002712249 0.2458686 0.293139 -0.1745281 0.14577 0.2241873 -0.2372913 0.1457505 0.2235341 -0.1769657 0.06738662 0.4607828 -0.2397289 0.06736755 0.4601297 -0.1744556 -0.09077548 0.2243771 -0.2372207 -0.09079456 0.2237234 -0.1769409 -0.01201438 0.4608464 -0.239706 -0.01203346 0.4601934 -0.1757583 0.1458644 0.3424535 -0.2385215 0.1458454 0.3418002 -0.1756877 -0.09068107 0.3426433 -0.2384529 -0.09070014 0.34199 -0.1769542 0.02768611 0.4608145 -0.2397193 0.02766704 0.4601615 -0.1828708 0.02747631 0.2016334 -0.2456359 0.02745771 0.2009801 -0.2384872 0.02757263 0.3418954 -0.1757221 0.0275917 0.3425481 0.2376308 0.14577 0.2241873 0.1748676 0.1457505 0.2235341 0.2351932 0.06738662 0.4607828 0.17243 0.06736755 0.4601297 0.2377014 -0.09077548 0.2243771 0.1749382 -0.09079456 0.2237234 0.235218 -0.01201438 0.4608464 0.1724529 -0.01203346 0.4601934 0.2364006 0.1458644 0.3424535 0.1736373 0.1458454 0.3418002 0.2364711 -0.09068107 0.3426433 0.173706 -0.09070014 0.34199 0.2352046 0.02768611 0.4608145 0.1724395 0.02766704 0.4601615 0.2292861 0.02747631 0.2016334 0.1665229 0.02745771 0.2009801 0.1736717 0.02757263 0.3418954 0.2364368 0.0275917 0.3425481</float_array>
          <technique_common>
            <accessor source="#Cubo_096-mesh-positions-array" count="62" stride="3">
              <param name="X" type="float"/>
              <param name="Y" type="float"/>
              <param name="Z" type="float"/>
            </accessor>
          </technique_common>
        </source>
        <source id="Cubo_096-mesh-normals">
          <float_array id="Cubo_096-mesh-normals-array" count="336">-0.8236671 0.2858256 0.4897718 0.3150688 0.8090127 0.4962159 0.8236671 -0.2858256 0.4897718 -0.3150706 -0.8090117 0.4962163 0.4440587 -0.2937349 -0.846482 -0.4440546 -0.2937355 0.8464839 -0.4568341 -0.8137859 -0.3592424 0.8318704 -0.4160939 -0.3672295 0.4568338 0.8137869 -0.3592407 -0.8318704 0.4160939 -0.3672295 -0.8318704 -0.4160939 -0.3672295 0.8318704 0.4160939 -0.3672295 -0.4440546 0.2937355 0.8464839 0.4440587 0.2937348 -0.846482 0.8236671 0.2858256 0.4897718 -0.8236671 -0.2858256 0.4897718 -0.3310261 0.4098182 -0.8499827 0.3310243 0.4098164 0.8499844 -0.4568338 0.8137869 -0.3592406 0.4568341 -0.8137859 -0.3592424 0.3310243 -0.4098164 0.8499844 -0.3310261 -0.4098181 -0.8499828 0.3150707 -0.8090116 0.4962163 -0.3150688 0.8090126 0.4962159 -0.006003439 0.8333885 0.5526552 -0.01040399 8.01185e-4 0.9999455 2.95539e-4 -0.9999997 8.01395e-4 0.01016694 0.186585 -0.9823862 0.9968408 0.0612027 -0.05062085 -0.9968773 0.06068921 0.05052286 -0.9999458 -2.48526e-4 -0.01041764 0.9999458 3.44669e-4 0.01041752 -0.005510866 -0.8325045 0.5539909 -2.95555e-4 0.9999997 -8.0139e-4 0.9999458 3.14723e-4 0.0104115 -0.9999459 -2.98589e-4 -0.01040214 -0.9999457 -2.98601e-4 -0.01041758 0.9999459 3.14715e-4 0.01040148 0.01028627 -0.1881552 -0.9820854 -0.01040428 7.95679e-4 0.9999455 -0.006003439 0.8333885 0.5526552 -0.01040399 8.01185e-4 0.9999455 2.95546e-4 -0.9999997 8.0139e-4 0.01016694 0.1865848 -0.9823863 0.9968403 0.06120008 -0.05063426 -0.9968773 0.06068921 0.05052286 -0.9999458 -2.48526e-4 -0.01041764 0.9999458 3.44669e-4 0.01041752 -0.005510866 -0.8325045 0.5539909 -2.95555e-4 0.9999997 -8.0139e-4 0.9999458 3.14723e-4 0.0104115 -0.9999459 -2.98589e-4 -0.01040214 -0.9999457 -2.98601e-4 -0.01041758 0.9999459 3.14715e-4 0.01040148 0.01028662 -0.1881552 -0.9820854 -0.01040428 7.95679e-4 0.9999455 -0.8318709 0.4160932 0.3672292 0.4568322 0.8137875 0.3592414 0.8318709 -0.4160932 0.3672292 -0.4568325 -0.8137865 0.3592432 0.3310261 -0.4098181 -0.8499827 -0.3310243 -0.4098164 0.8499844 -0.3150703 -0.8090109 -0.4962178 0.8236662 -0.2858253 -0.4897732 0.3150686 0.8090119 -0.4962174 -0.8236662 0.2858253 -0.4897732 -0.8236662 -0.2858253 -0.4897732 0.8236662 0.2858253 -0.4897732 -0.3310243 0.4098164 0.8499844 0.3310261 0.4098181 -0.8499827 0.8318709 0.4160932 0.3672292 -0.8318709 -0.4160932 0.3672292 -0.4440587 0.2937348 -0.846482 0.4440546 0.2937355 0.8464839 -0.3150686 0.8090119 -0.4962174 0.3150703 -0.8090109 -0.4962178 0.4440546 -0.2937355 0.8464839 -0.4440587 -0.2937348 -0.846482 0.4568325 -0.8137865 0.3592432 -0.4568322 0.8137875 0.3592414 -0.006005525 0.833389 0.5526544 -0.01040399 8.01185e-4 0.9999455 2.95546e-4 -0.9999997 8.01392e-4 0.0101695 0.1865861 -0.982386 0.9999458 2.98644e-4 0.01041758 -0.9999459 -2.98631e-4 -0.01040148 -0.9999459 -2.9863e-4 -0.01040077 0.9999459 2.98631e-4 0.01040214 -0.005512952 -0.8325051 0.55399 -3.03109e-4 0.9999997 -8.05501e-4 0.9999458 2.96566e-4 0.01041758 -0.9999458 -3.44669e-4 -0.01041758 -0.9968409 -0.0612027 0.05062043 0.9968782 -0.0606727 -0.05052292 0.01027739 -0.1881513 -0.9820863 -0.01040399 7.96179e-4 0.9999455 -0.006005525 0.833389 0.5526544 -0.01040399 8.01185e-4 0.9999455 2.95548e-4 -0.9999997 8.01392e-4 0.0101698 0.186586 -0.982386 0.9999459 2.98631e-4 0.01040148 -0.9999459 -2.98631e-4 -0.01040148 -0.9999459 -2.9863e-4 -0.01040077 0.9999459 2.98631e-4 0.01040214 -0.005512952 -0.8325051 0.55399 -3.03109e-4 0.9999997 -8.05501e-4 0.9999458 2.96566e-4 0.01041758 -0.9999458 -3.44669e-4 -0.01041758 -0.9968409 -0.0612027 0.05062043 0.9968768 -0.06068617 -0.05053633 0.01027768 -0.1881512 -0.9820863 -0.01040399 7.96179e-4 0.9999455</float_array>
          <technique_common>
            <accessor source="#Cubo_096-mesh-normals-array" count="112" stride="3">
              <param name="X" type="float"/>
              <param name="Y" type="float"/>
              <param name="Z" type="float"/>
            </accessor>
          </technique_common>
        </source>
        <source id="Cubo_096-mesh-map-0">
          <float_array id="Cubo_096-mesh-map-0-array" count="672">0.5118961 0.4585174 0.5179663 0.4645876 0.5118961 0.4645876 0.5118961 0.4706578 0.5179663 0.4767279 0.5118961 0.4767279 0.5118961 0.482798 0.5179663 0.4888683 0.5118961 0.4888683 0.5118961 0.4949384 0.5179663 0.5010086 0.5118961 0.5010086 0.4997557 0.4827981 0.5058259 0.4888683 0.4997557 0.4888683 0.5240364 0.4827981 0.5301066 0.4888683 0.5240364 0.4888683 0.5118961 0.4949384 0.5058259 0.5010086 0.5058259 0.4949384 0.5118961 0.482798 0.5058259 0.4888683 0.5058259 0.4827982 0.5118961 0.4706578 0.5058259 0.4767279 0.5058259 0.4706578 0.5118961 0.4585174 0.5058259 0.4645876 0.5058259 0.4585174 0.5058259 0.4524472 0.5118961 0.4585174 0.5058259 0.4585174 0.5058259 0.4767279 0.5118961 0.482798 0.5058259 0.4827982 0.5301066 0.4767279 0.5240364 0.4827981 0.5240364 0.4767279 0.5058259 0.4767279 0.4997557 0.4827981 0.4997557 0.4767279 0.5179663 0.4767279 0.5118961 0.482798 0.5118961 0.4767279 0.5179663 0.4524472 0.5118961 0.4585174 0.5118961 0.4524472 0.4936855 0.4767279 0.4997557 0.4827981 0.4936855 0.4827981 0.5179663 0.4767279 0.5240364 0.4827981 0.5179663 0.4827981 0.5058259 0.4645876 0.5118961 0.4706578 0.5058259 0.4706578 0.5058259 0.4888683 0.5118961 0.4949384 0.5058259 0.4949384 0.5240364 0.4827981 0.5179663 0.4888683 0.5179663 0.4827981 0.4997557 0.4827981 0.4936855 0.4888683 0.4936855 0.4827981 0.5179663 0.4888683 0.5118961 0.4949384 0.5118961 0.4888683 0.5179663 0.4645876 0.5118961 0.4706578 0.5118961 0.4645876 0.5058259 0.4585174 0.5179663 0.4645876 0.5058259 0.4645876 0.5058259 0.4706578 0.5179663 0.4767279 0.5058259 0.4767279 0.5058259 0.4827981 0.5179663 0.4888683 0.5058259 0.4888683 0.5058259 0.4949384 0.5179663 0.5010086 0.5058259 0.5010086 0.4997557 0.4827981 0.5058259 0.4888683 0.4997557 0.4888683 0.5240365 0.4827981 0.5301066 0.4888683 0.5240365 0.4888683 0.5301066 0.4767279 0.5240365 0.4827981 0.5240365 0.4767279 0.5058259 0.4767279 0.4997557 0.4827981 0.4997557 0.4767279 0.5179663 0.4767279 0.5058259 0.4827981 0.5058259 0.4767279 0.5058259 0.4524472 0.5179663 0.4585174 0.5058259 0.4585174 0.4936855 0.4767279 0.4997557 0.4827981 0.4936855 0.4827981 0.5179663 0.4767279 0.5240365 0.4827981 0.5179663 0.4827981 0.5240365 0.4827981 0.5179663 0.4888683 0.5179663 0.4827981 0.4997557 0.4827981 0.4936855 0.4888683 0.4936855 0.4827981 0.5179663 0.4888683 0.5058259 0.4949384 0.5058259 0.4888683 0.5179663 0.4645876 0.5058259 0.4706578 0.5058259 0.4645876 0.5058259 0.4585174 0.5179663 0.4645876 0.5058259 0.4645876 0.5058259 0.4706578 0.5179663 0.4767279 0.5058259 0.4767279 0.5179663 0.4827981 0.5058259 0.4888683 0.5058259 0.4827981 0.5058259 0.4949384 0.5179663 0.5010086 0.5058259 0.5010086 0.4997557 0.4827981 0.5058259 0.4888683 0.4997557 0.4888683 0.5240365 0.4827981 0.5301066 0.4888683 0.5240365 0.4888683 0.5301066 0.4767279 0.5240365 0.4827981 0.5240365 0.4767279 0.5058259 0.4767279 0.4997557 0.4827981 0.4997557 0.4767279 0.5179663 0.4767279 0.5058259 0.4827981 0.5058259 0.4767279 0.5058259 0.4524472 0.5179663 0.4585174 0.5058259 0.4585174 0.4936855 0.4767279 0.4997557 0.4827981 0.4936855 0.4827981 0.5179663 0.4767279 0.5240365 0.4827981 0.5179663 0.4827981 0.5240365 0.4827981 0.5179663 0.4888683 0.5179663 0.4827981 0.4997557 0.4827981 0.4936855 0.4888683 0.4936855 0.4827981 0.5179663 0.4888683 0.5058259 0.4949384 0.5058259 0.4888683 0.5179663 0.4645876 0.5058259 0.4706578 0.5058259 0.4645876 0.5118961 0.4585174 0.5179663 0.4585174 0.5179663 0.4645876 0.5118961 0.4706578 0.5179663 0.4706578 0.5179663 0.4767279 0.5118961 0.482798 0.5179663 0.4827981 0.5179663 0.4888683 0.5118961 0.4949384 0.5179663 0.4949384 0.5179663 0.5010086 0.4997557 0.4827981 0.5058259 0.4827982 0.5058259 0.4888683 0.5240364 0.4827981 0.5301066 0.4827981 0.5301066 0.4888683 0.5118961 0.4949384 0.5118961 0.5010086 0.5058259 0.5010086 0.5118961 0.482798 0.5118961 0.4888683 0.5058259 0.4888683 0.5118961 0.4706578 0.5118961 0.4767279 0.5058259 0.4767279 0.5118961 0.4585174 0.5118961 0.4645876 0.5058259 0.4645876 0.5058259 0.4524472 0.5118961 0.4524472 0.5118961 0.4585174 0.5058259 0.4767279 0.5118961 0.4767279 0.5118961 0.482798 0.5301066 0.4767279 0.5301066 0.4827981 0.5240364 0.4827981 0.5058259 0.4767279 0.5058259 0.4827982 0.4997557 0.4827981 0.5179663 0.4767279 0.5179663 0.4827981 0.5118961 0.482798 0.5179663 0.4524472 0.5179663 0.4585174 0.5118961 0.4585174 0.4936855 0.4767279 0.4997557 0.4767279 0.4997557 0.4827981 0.5179663 0.4767279 0.5240364 0.4767279 0.5240364 0.4827981 0.5058259 0.4645876 0.5118961 0.4645876 0.5118961 0.4706578 0.5058259 0.4888683 0.5118961 0.4888683 0.5118961 0.4949384 0.5240364 0.4827981 0.5240364 0.4888683 0.5179663 0.4888683 0.4997557 0.4827981 0.4997557 0.4888683 0.4936855 0.4888683 0.5179663 0.4888683 0.5179663 0.4949384 0.5118961 0.4949384 0.5179663 0.4645876 0.5179663 0.4706578 0.5118961 0.4706578 0.5058259 0.4585174 0.5179663 0.4585174 0.5179663 0.4645876 0.5058259 0.4706578 0.5179663 0.4706578 0.5179663 0.4767279 0.5058259 0.4827981 0.5179663 0.4827981 0.5179663 0.4888683 0.5058259 0.4949384 0.5179663 0.4949384 0.5179663 0.5010086 0.4997557 0.4827981 0.5058259 0.4827981 0.5058259 0.4888683 0.5240365 0.4827981 0.5301066 0.4827981 0.5301066 0.4888683 0.5301066 0.4767279 0.5301066 0.4827981 0.5240365 0.4827981 0.5058259 0.4767279 0.5058259 0.4827981 0.4997557 0.4827981 0.5179663 0.4767279 0.5179663 0.4827981 0.5058259 0.4827981 0.5058259 0.4524472 0.5179663 0.4524472 0.5179663 0.4585174 0.4936855 0.4767279 0.4997557 0.4767279 0.4997557 0.4827981 0.5179663 0.4767279 0.5240365 0.4767279 0.5240365 0.4827981 0.5240365 0.4827981 0.5240365 0.4888683 0.5179663 0.4888683 0.4997557 0.4827981 0.4997557 0.4888683 0.4936855 0.4888683 0.5179663 0.4888683 0.5179663 0.4949384 0.5058259 0.4949384 0.5179663 0.4645876 0.5179663 0.4706578 0.5058259 0.4706578 0.5058259 0.4585174 0.5179663 0.4585174 0.5179663 0.4645876 0.5058259 0.4706578 0.5179663 0.4706578 0.5179663 0.4767279 0.5179663 0.4827981 0.5179663 0.4888683 0.5058259 0.4888683 0.5058259 0.4949384 0.5179663 0.4949384 0.5179663 0.5010086 0.4997557 0.4827981 0.5058259 0.4827981 0.5058259 0.4888683 0.5240365 0.4827981 0.5301066 0.4827981 0.5301066 0.4888683 0.5301066 0.4767279 0.5301066 0.4827981 0.5240365 0.4827981 0.5058259 0.4767279 0.5058259 0.4827981 0.4997557 0.4827981 0.5179663 0.4767279 0.5179663 0.4827981 0.5058259 0.4827981 0.5058259 0.4524472 0.5179663 0.4524472 0.5179663 0.4585174 0.4936855 0.4767279 0.4997557 0.4767279 0.4997557 0.4827981 0.5179663 0.4767279 0.5240365 0.4767279 0.5240365 0.4827981 0.5240365 0.4827981 0.5240365 0.4888683 0.5179663 0.4888683 0.4997557 0.4827981 0.4997557 0.4888683 0.4936855 0.4888683 0.5179663 0.4888683 0.5179663 0.4949384 0.5058259 0.4949384 0.5179663 0.4645876 0.5179663 0.4706578 0.5058259 0.4706578</float_array>
          <technique_common>
            <accessor source="#Cubo_096-mesh-map-0-array" count="336" stride="2">
              <param name="S" type="float"/>
              <param name="T" type="float"/>
            </accessor>
          </technique_common>
        </source>
        <vertices id="Cubo_096-mesh-vertices">
          <input semantic="POSITION" source="#Cubo_096-mesh-positions"/>
        </vertices>
        <triangles material="A-textura_nok__General-material" count="112">
          <input semantic="VERTEX" source="#Cubo_096-mesh-vertices" offset="0"/>
          <input semantic="NORMAL" source="#Cubo_096-mesh-normals" offset="1"/>
          <input semantic="TEXCOORD" source="#Cubo_096-mesh-map-0" offset="2" set="0"/>
          <p>17 0 0 3 0 1 9 0 2 23 1 3 7 1 4 10 1 5 16 2 6 5 2 7 11 2 8 22 3 9 1 3 10 8 3 11 25 4 12 4 4 13 20 4 14 24 5 15 1 5 16 21 5 17 22 6 18 0 6 19 20 6 20 16 7 21 4 7 22 14 7 23 23 8 24 6 8 25 18 8 26 17 9 27 2 9 28 12 9 29 0 10 30 17 10 31 12 10 32 6 11 33 16 11 34 14 11 35 3 12 36 24 12 37 19 12 38 6 13 39 25 13 40 18 13 41 7 14 42 16 14 43 10 14 44 1 15 45 17 15 46 8 15 47 2 16 48 25 16 49 12 16 50 7 17 51 24 17 52 15 17 53 2 18 54 23 18 55 18 18 56 4 19 57 22 19 58 20 19 59 24 20 60 5 20 61 15 20 62 25 21 63 0 21 64 12 21 65 5 22 66 22 22 67 11 22 68 3 23 69 23 23 70 9 23 71 34 24 72 29 24 73 28 24 74 38 25 75 33 25 76 32 25 77 36 26 78 31 26 79 30 26 80 40 27 81 27 27 82 26 27 83 43 28 84 30 28 85 40 28 86 42 29 87 27 29 88 41 29 89 29 30 90 42 30 91 39 30 92 32 31 93 43 31 94 38 31 95 33 32 96 36 32 97 32 32 98 26 33 99 35 33 100 34 33 101 28 34 102 43 34 103 34 34 104 33 35 105 42 35 106 37 35 107 42 36 108 31 36 109 37 36 110 43 37 111 26 37 112 34 37 113 31 38 114 40 38 115 30 38 116 29 39 117 38 39 118 28 39 119 52 40 120 47 40 121 46 40 122 56 41 123 51 41 124 50 41 125 55 42 126 48 42 127 54 42 128 58 43 129 45 43 130 44 43 131 61 44 132 48 44 133 58 44 134 60 45 135 45 45 136 59 45 137 47 46 138 60 46 139 57 46 140 50 47 141 61 47 142 56 47 143 51 48 144 54 48 145 50 48 146 44 49 147 53 49 148 52 49 149 46 50 150 61 50 151 52 50 152 51 51 153 60 51 154 55 51 155 60 52 156 49 52 157 55 52 158 61 53 159 44 53 160 52 53 161 49 54 162 58 54 163 48 54 164 47 55 165 56 55 166 46 55 167 17 56 168 13 56 169 3 56 170 23 57 171 19 57 172 7 57 173 16 58 174 15 58 175 5 58 176 22 59 177 21 59 178 1 59 179 25 60 180 14 60 181 4 60 182 24 61 183 13 61 184 1 61 185 22 62 186 8 62 187 0 62 188 16 63 189 11 63 190 4 63 191 23 64 192 10 64 193 6 64 194 17 65 195 9 65 196 2 65 197 0 66 198 8 66 199 17 66 200 6 67 201 10 67 202 16 67 203 3 68 204 13 68 205 24 68 206 6 69 207 14 69 208 25 69 209 7 70 210 15 70 211 16 70 212 1 71 213 13 71 214 17 71 215 2 72 216 18 72 217 25 72 218 7 73 219 19 73 220 24 73 221 2 74 222 9 74 223 23 74 224 4 75 225 11 75 226 22 75 227 24 76 228 21 76 229 5 76 230 25 77 231 20 77 232 0 77 233 5 78 234 21 78 235 22 78 236 3 79 237 19 79 238 23 79 239 34 80 240 35 80 241 29 80 242 38 81 243 39 81 244 33 81 245 36 82 246 37 82 247 31 82 248 40 83 249 41 83 250 27 83 251 43 84 252 36 84 253 30 84 254 42 85 255 35 85 256 27 85 257 29 86 258 35 86 259 42 86 260 32 87 261 36 87 262 43 87 263 33 88 264 37 88 265 36 88 266 26 89 267 27 89 268 35 89 269 28 90 270 38 90 271 43 90 272 33 91 273 39 91 274 42 91 275 42 92 276 41 92 277 31 92 278 43 93 279 40 93 280 26 93 281 31 94 282 41 94 283 40 94 284 29 95 285 39 95 286 38 95 287 52 96 288 53 96 289 47 96 290 56 97 291 57 97 292 51 97 293 55 98 294 49 98 295 48 98 296 58 99 297 59 99 298 45 99 299 61 100 300 54 100 301 48 100 302 60 101 303 53 101 304 45 101 305 47 102 306 53 102 307 60 102 308 50 103 309 54 103 310 61 103 311 51 104 312 55 104 313 54 104 314 44 105 315 45 105 316 53 105 317 46 106 318 56 106 319 61 106 320 51 107 321 57 107 322 60 107 323 60 108 324 59 108 325 49 108 326 61 109 327 58 109 328 44 109 329 49 110 330 59 110 331 58 110 332 47 111 333 57 111 334 56 111 335</p>
        </triangles>
      </mesh>
    </geometry>
  </library_geometries>
  <library_visual_scenes>
    <visual_scene id="Scene" name="Scene">
      <node id="a_hair_female_05" name="a_hair_female_05" type="NODE">
        <matrix sid="transform">1 0 0 0 0 1 0 0 0 0 1 0 0 0 0 1</matrix>
        <instance_geometry url="#Cubo_096-mesh" name="a_hair_female_05">
          <bind_material>
            <technique_common>
              <instance_material symbol="A-textura_nok__General-material" target="#A-textura_nok__General-material">
                <bind_vertex_input semantic="MapaUV" input_semantic="TEXCOORD" input_set="0"/>
              </instance_material>
            </technique_common>
          </bind_material>
        </instance_geometry>
      </node>
    </visual_scene>
  </library_visual_scenes>
  <scene>
    <instance_visual_scene url="#Scene"/>
  </scene>
</COLLADA>