<?xml version="1.0" encoding="utf-8"?>
<COLLADA xmlns="http://www.collada.org/2005/11/COLLADASchema" version="1.4.1" xmlns:xsi="http://www.w3.org/2001/XMLSchema-instance">
  <asset>
    <contributor>
      <author>Blender User</author>
      <authoring_tool>Blender 4.3.1 commit date:2024-12-10, commit time:07:46, hash:33d812126174</authoring_tool>
    </contributor>
    <created>2026-08-20T09:13:44</created>
    <modified>2026-08-20T09:13:44</modified>
    <unit name="meter" meter="1"/>
    <up_axis>Z_UP</up_axis>
  </asset>
  <library_effects>
    <effect id="A-textura_nok__General-effect">
      <profile_COMMON>
        <newparam sid="nok_png-surface">
          <surface type="2D">
            <init_from>nok_png</init_from>
          </surface>
        </newparam>
        <newparam sid="nok_png-sampler">
          <sampler2D>
            <source>nok_png-surface</source>
          </sampler2D>
        </newparam>
        <technique sid="common">
          <lambert>
            <emission>
              <color sid="emission">0 0 0 1</color>
            </emission>
            <diffuse>
              <texture texture="nok_png-sampler" texcoord="MapaUV"/>
            </diffuse>
            <index_of_refraction>
              <float sid="ior">1.45</float>
            </index_of_refraction>
          </lambert>
        </technique>
      </profile_COMMON>
    </effect>
  </library_effects>
  <library_images>
    <image id="nok_png" name="nok_png">
      <init_from>nok.png</init_from>
    </image>
  </library_images>
  <library_materials>
    <material id="A-textura_nok__General-material" name="A-textura nok  General">
      <instance_effect url="#A-textura_nok__General-effect"/>
    </material>
  </library_materials>
  <library_geometries>
    <geometry id="Cubo_120-mesh" name="Cubo.120">
      <mesh>
        <source id="Cubo_120-mesh-positions">
          <float_array id="Cubo_120-mesh-positions-array" count="312">-0.2060561 -0.2047876 0.3887699 -0.2060561 -0.2047876 0.5180512 -0.2060561 -0.07550626 0.3887699 -0.2060561 -0.07550626 0.5180512 -0.07677483 -0.2047876 0.3887699 -0.07677483 -0.2047876 0.5180512 -0.07677483 -0.07550626 0.3887699 -0.07677483 -0.07550626 0.5180512 -0.2345913 -0.2333227 0.4534104 -0.2345913 -0.04697108 0.4534104 -0.04823958 -0.04697108 0.4534104 -0.04823958 -0.2333227 0.4534104 -0.2284868 -0.1401469 0.366339 -0.2284868 -0.1401469 0.5404821 -0.05434405 -0.1401469 0.366339 -0.05434405 -0.1401469 0.5404821 -0.01590692 -0.1401469 0.4534104 -0.266924 -0.1401469 0.4534104 -0.1414154 -0.05033218 0.3635957 -0.1414154 -0.05033218 0.5432253 -0.1414154 -0.2299616 0.3635957 -0.1414154 -0.2299616 0.5432253 -0.1414154 -0.2696098 0.4534104 -0.1414154 -0.01068401 0.4534104 -0.1414154 -0.1401469 0.5743916 -0.1414154 -0.1401469 0.3324294 0.07677531 0.0755065 0.3887699 0.07677531 0.0755065 0.5180512 0.07677531 0.2047878 0.3887699 0.07677531 0.2047878 0.5180512 0.2060565 0.0755065 0.3887699 0.2060565 0.0755065 0.5180512 0.2060565 0.2047878 0.3887699 0.2060565 0.2047878 0.5180512 0.04824006 0.04697126 0.4534104 0.04824006 0.233323 0.4534104 0.2345918 0.233323 0.4534104 0.2345918 0.04697126 0.4534104 0.05434453 0.1401472 0.366339 0.05434453 0.1401472 0.5404821 0.2284873 0.1401472 0.366339 0.2284873 0.1401472 0.5404821 0.2669245 0.1401471 0.4534104 0.01590746 0.1401471 0.4534104 0.1414159 0.2299619 0.3635957 0.1414159 0.2299619 0.5432253 0.1414159 0.05033236 0.3635957 0.1414159 0.05033236 0.5432253 0.141416 0.01068419 0.4534104 0.141416 0.26961 0.4534104 0.141416 0.1401472 0.5743916 0.141416 0.1401472 0.3324294 -0.2060571 0.0755065 0.3887699 -0.2060571 0.0755065 0.5180512 -0.2060571 0.2047878 0.3887699 -0.2060571 0.2047878 0.5180512 -0.07677578 0.0755065 0.3887699 -0.07677578 0.0755065 0.5180512 -0.07677578 0.2047878 0.3887699 -0.07677578 0.2047878 0.5180512 -0.2345923 0.04697126 0.4534104 -0.2345923 0.233323 0.4534104 -0.0482406 0.233323 0.4534104 -0.0482406 0.04697126 0.4534104 -0.2284878 0.1401472 0.366339 -0.2284878 0.1401472 0.5404821 -0.05434507 0.1401472 0.366339 -0.05434507 0.1401472 0.5404821 -0.01590794 0.1401471 0.4534104 -0.2669249 0.1401471 0.4534104 -0.1414164 0.2299619 0.3635957 -0.1414164 0.2299619 0.5432253 -0.1414164 0.05033236 0.3635957 -0.1414164 0.05033236 0.5432253 -0.1414164 0.01068419 0.4534104 -0.1414164 0.26961 0.4534104 -0.1414164 0.1401472 0.5743916 -0.1414164 0.1401472 0.3324294 0.07677531 -0.204788 0.3887699 0.07677531 -0.204788 0.5180512 0.07677531 -0.07550674 0.3887699 0.07677531 -0.07550674 0.5180512 0.2060565 -0.204788 0.3887699 0.2060565 -0.204788 0.5180512 0.2060565 -0.07550674 0.3887699 0.2060565 -0.07550674 0.5180512 0.04824006 -0.2333232 0.4534104 0.04824006 -0.04697155 0.4534104 0.2345918 -0.04697155 0.4534104 0.2345918 -0.2333232 0.4534104 0.05434453 -0.1401474 0.366339 0.05434453 -0.1401474 0.5404821 0.2284873 -0.1401474 0.366339 0.2284873 -0.1401474 0.5404821 0.2669245 -0.1401474 0.4534104 0.01590746 -0.1401474 0.4534104 0.1414159 -0.05033266 0.3635957 0.1414159 -0.05033266 0.5432253 0.1414159 -0.2299622 0.3635957 0.1414159 -0.2299622 0.5432253 0.141416 -0.2696103 0.4534104 0.141416 -0.01068454 0.4534104 0.141416 -0.1401474 0.5743916 0.141416 -0.1401474 0.3324294</float_array>
          <technique_common>
            <accessor source="#Cubo_120-mesh-positions-array" count="104" stride="3">
              <param name="X" type="float"/>
              <param name="Y" type="float"/>
              <param name="Z" type="float"/>
            </accessor>
          </technique_common>
        </source>
        <source id="Cubo_120-mesh-normals">
          <float_array id="Cubo_120-mesh-normals-array" count="576">-0.8236679 0.2858183 0.4897745 0.3150674 0.8090127 0.4962168 0.8236676 -0.2858184 0.489775 -0.3150674 -0.8090124 0.4962171 0.4440554 -0.2937354 -0.8464835 -0.4440553 -0.2937354 0.8464835 -0.4568328 -0.8137871 -0.3592414 0.8318717 -0.4160956 -0.3672246 0.4568325 0.8137872 -0.3592414 -0.8318721 0.4160953 -0.3672243 -0.8318719 -0.4160954 -0.3672244 0.8318718 0.4160956 -0.3672245 -0.4440552 0.2937355 0.8464837 0.4440553 0.2937354 -0.8464835 0.8236677 0.2858184 0.4897748 -0.8236679 -0.2858183 0.4897746 -0.3310223 0.4098191 -0.8499839 0.3310223 0.4098191 0.8499838 -0.4568324 0.8137874 -0.3592413 0.456833 -0.813787 -0.3592415 0.3310224 -0.4098193 0.8499838 -0.3310224 -0.4098191 -0.8499838 0.3150674 -0.8090123 0.4962173 -0.3150673 0.8090127 0.4962167 -0.823668 0.285818 0.4897745 0.3150672 0.8090127 0.496217 0.8236677 -0.2858182 0.4897751 -0.3150674 -0.8090124 0.4962171 0.4440554 -0.2937355 -0.8464835 -0.4440553 -0.2937352 0.8464836 -0.4568327 -0.8137871 -0.3592414 0.8318717 -0.4160955 -0.3672246 0.4568324 0.8137874 -0.3592414 -0.8318721 0.4160953 -0.367224 -0.8318719 -0.4160954 -0.3672242 0.8318719 0.4160954 -0.3672245 -0.4440551 0.2937353 0.8464837 0.4440553 0.2937356 -0.8464835 0.8236678 0.2858181 0.4897749 -0.8236679 -0.2858181 0.4897747 -0.3310223 0.4098191 -0.8499839 0.3310225 0.4098191 0.8499838 -0.4568324 0.8137874 -0.3592411 0.4568328 -0.813787 -0.3592416 0.3310225 -0.4098192 0.8499837 -0.3310222 -0.4098191 -0.8499839 0.3150674 -0.8090123 0.4962174 -0.3150671 0.8090128 0.4962168 -0.823668 0.2858182 0.4897744 0.3150672 0.8090127 0.4962169 0.8236676 -0.2858184 0.4897749 -0.3150674 -0.8090124 0.4962171 0.4440554 -0.2937353 -0.8464835 -0.4440552 -0.2937353 0.8464837 -0.4568327 -0.8137872 -0.3592415 0.8318716 -0.4160956 -0.3672246 0.4568325 0.8137873 -0.3592413 -0.8318721 0.4160951 -0.3672243 -0.8318719 -0.4160951 -0.3672245 0.8318718 0.4160955 -0.3672244 -0.4440551 0.2937355 0.8464837 0.4440553 0.2937355 -0.8464835 0.8236677 0.2858183 0.4897748 -0.823668 -0.2858183 0.4897745 -0.3310224 0.409819 -0.8499839 0.3310224 0.4098191 0.8499838 -0.4568322 0.8137875 -0.3592413 0.4568328 -0.813787 -0.3592416 0.3310223 -0.4098191 0.8499838 -0.3310224 -0.409819 -0.8499839 0.3150675 -0.8090123 0.4962173 -0.3150672 0.8090128 0.4962167 -0.823668 0.2858181 0.4897745 0.3150674 0.8090126 0.496217 0.8236677 -0.2858182 0.4897751 -0.3150673 -0.8090125 0.4962171 0.4440554 -0.2937355 -0.8464834 -0.4440553 -0.2937353 0.8464836 -0.4568328 -0.8137872 -0.3592412 0.8318717 -0.4160955 -0.3672246 0.4568324 0.8137873 -0.3592416 -0.8318721 0.4160954 -0.367224 -0.8318719 -0.4160954 -0.3672241 0.8318718 0.4160954 -0.3672245 -0.4440552 0.2937353 0.8464837 0.4440553 0.2937356 -0.8464835 0.8236677 0.2858182 0.4897749 -0.823668 -0.2858181 0.4897747 -0.3310222 0.4098191 -0.8499839 0.3310223 0.4098191 0.8499838 -0.4568324 0.8137873 -0.3592413 0.4568328 -0.8137871 -0.3592414 0.3310225 -0.4098193 0.8499837 -0.3310223 -0.4098192 -0.8499838 0.3150673 -0.8090124 0.4962173 -0.3150672 0.8090127 0.4962168 -0.8318725 0.4160951 0.3672235 0.4568324 0.8137876 0.3592407 0.8318722 -0.4160955 0.3672237 -0.4568327 -0.8137875 0.3592406 0.3310224 -0.4098193 -0.8499838 -0.3310224 -0.4098192 0.8499838 -0.3150671 -0.8090117 -0.4962185 0.8236669 -0.2858181 -0.4897763 0.3150671 0.8090119 -0.4962183 -0.8236672 0.285818 -0.4897758 -0.8236672 -0.285818 -0.489776 0.823667 0.2858181 -0.4897762 -0.3310223 0.4098191 0.8499838 0.3310223 0.4098191 -0.8499838 0.8318722 0.4160953 0.3672237 -0.8318724 -0.4160952 0.3672236 -0.4440552 0.2937355 -0.8464837 0.4440553 0.2937354 0.8464835 -0.3150671 0.8090119 -0.4962182 0.3150672 -0.8090116 -0.4962186 0.4440554 -0.2937354 0.8464835 -0.4440553 -0.2937354 -0.8464835 0.4568328 -0.8137874 0.3592407 -0.4568322 0.8137878 0.3592405 -0.8318725 0.4160953 0.3672232 0.4568323 0.8137877 0.3592407 0.8318722 -0.4160954 0.3672239 -0.4568326 -0.8137875 0.3592406 0.3310224 -0.4098191 -0.8499837 -0.3310222 -0.4098192 0.8499839 -0.3150671 -0.8090117 -0.4962185 0.8236669 -0.2858179 -0.4897764 0.3150669 0.8090119 -0.4962183 -0.8236673 0.2858178 -0.4897758 -0.8236672 -0.2858179 -0.489776 0.823667 0.2858179 -0.4897763 -0.3310223 0.4098191 0.8499839 0.3310225 0.4098191 -0.8499838 0.8318723 0.4160953 0.3672236 -0.8318724 -0.4160953 0.3672234 -0.4440551 0.2937353 -0.8464837 0.4440553 0.2937356 0.8464835 -0.3150668 0.809012 -0.4962182 0.3150671 -0.8090116 -0.4962187 0.4440554 -0.2937355 0.8464835 -0.4440553 -0.2937352 -0.8464836 0.4568327 -0.8137874 0.3592408 -0.4568322 0.8137878 0.3592404 -0.8318725 0.416095 0.3672235 0.4568323 0.8137877 0.3592406 0.8318721 -0.4160954 0.3672238 -0.4568325 -0.8137875 0.3592407 0.3310223 -0.4098192 -0.8499838 -0.3310223 -0.409819 0.8499838 -0.3150671 -0.8090117 -0.4962185 0.8236669 -0.2858181 -0.4897763 0.3150669 0.8090119 -0.4962183 -0.8236673 0.285818 -0.4897757 -0.8236672 -0.285818 -0.4897758 0.8236671 0.2858181 -0.4897762 -0.3310224 0.409819 0.8499838 0.3310224 0.4098192 -0.8499838 0.8318722 0.4160953 0.3672236 -0.8318724 -0.416095 0.3672236 -0.4440551 0.2937355 -0.8464837 0.4440553 0.2937355 0.8464835 -0.3150669 0.809012 -0.4962181 0.3150672 -0.8090116 -0.4962186 0.4440554 -0.2937353 0.8464835 -0.4440552 -0.2937354 -0.8464837 0.4568327 -0.8137874 0.3592408 -0.4568321 0.8137879 0.3592405 -0.8318725 0.4160953 0.3672232 0.4568323 0.8137876 0.3592408 0.8318722 -0.4160954 0.3672237 -0.4568327 -0.8137876 0.3592404 0.3310225 -0.4098193 -0.8499837 -0.3310223 -0.4098192 0.8499838 -0.315067 -0.8090118 -0.4962185 0.8236669 -0.2858179 -0.4897764 0.315067 0.8090119 -0.4962183 -0.8236673 0.2858179 -0.4897758 -0.8236672 -0.2858179 -0.489776 0.823667 0.2858179 -0.4897763 -0.3310222 0.4098191 0.8499839 0.3310224 0.4098191 -0.8499838 0.8318722 0.4160953 0.3672237 -0.8318725 -0.4160953 0.3672233 -0.4440551 0.2937353 -0.8464837 0.4440553 0.2937356 0.8464835 -0.315067 0.809012 -0.4962182 0.315067 -0.8090116 -0.4962186 0.4440554 -0.2937355 0.8464834 -0.4440553 -0.2937353 -0.8464835 0.4568328 -0.8137875 0.3592407 -0.4568321 0.8137878 0.3592405</float_array>
          <technique_common>
            <accessor source="#Cubo_120-mesh-normals-array" count="192" stride="3">
              <param name="X" type="float"/>
              <param name="Y" type="float"/>
              <param name="Z" type="float"/>
            </accessor>
          </technique_common>
        </source>
        <source id="Cubo_120-mesh-map-0">
          <float_array id="Cubo_120-mesh-map-0-array" count="1152">0.5118961 0.4585174 0.5179663 0.4645876 0.5118961 0.4645876 0.5118961 0.4706578 0.5179663 0.4767279 0.5118961 0.4767279 0.5118961 0.482798 0.5179663 0.4888683 0.5118961 0.4888683 0.5118961 0.4949384 0.5179663 0.5010086 0.5118961 0.5010086 0.4997557 0.4827981 0.5058259 0.4888683 0.4997557 0.4888683 0.5240364 0.4827981 0.5301066 0.4888683 0.5240364 0.4888683 0.5118961 0.4949384 0.5058259 0.5010086 0.5058259 0.4949384 0.5118961 0.482798 0.5058259 0.4888683 0.5058259 0.4827982 0.5118961 0.4706578 0.5058259 0.4767279 0.5058259 0.4706578 0.5118961 0.4585174 0.5058259 0.4645876 0.5058259 0.4585174 0.5058259 0.4524472 0.5118961 0.4585174 0.5058259 0.4585174 0.5058259 0.4767279 0.5118961 0.482798 0.5058259 0.4827982 0.5301066 0.4767279 0.5240364 0.4827981 0.5240364 0.4767279 0.5058259 0.4767279 0.4997557 0.4827981 0.4997557 0.4767279 0.5179663 0.4767279 0.5118961 0.482798 0.5118961 0.4767279 0.5179663 0.4524472 0.5118961 0.4585174 0.5118961 0.4524472 0.4936855 0.4767279 0.4997557 0.4827981 0.4936855 0.4827981 0.5179663 0.4767279 0.5240364 0.4827981 0.5179663 0.4827981 0.5058259 0.4645876 0.5118961 0.4706578 0.5058259 0.4706578 0.5058259 0.4888683 0.5118961 0.4949384 0.5058259 0.4949384 0.5240364 0.4827981 0.5179663 0.4888683 0.5179663 0.4827981 0.4997557 0.4827981 0.4936855 0.4888683 0.4936855 0.4827981 0.5179663 0.4888683 0.5118961 0.4949384 0.5118961 0.4888683 0.5179663 0.4645876 0.5118961 0.4706578 0.5118961 0.4645876 0.5118961 0.4585174 0.5179663 0.4645876 0.5118961 0.4645876 0.5118961 0.4706578 0.5179663 0.4767279 0.5118961 0.4767279 0.5118961 0.482798 0.5179663 0.4888683 0.5118961 0.4888683 0.5118961 0.4949384 0.5179663 0.5010086 0.5118961 0.5010086 0.4997557 0.4827981 0.5058259 0.4888683 0.4997557 0.4888683 0.5240364 0.4827981 0.5301066 0.4888683 0.5240364 0.4888683 0.5118961 0.4949384 0.5058259 0.5010086 0.5058259 0.4949384 0.5118961 0.482798 0.5058259 0.4888683 0.5058259 0.4827982 0.5118961 0.4706578 0.5058259 0.4767279 0.5058259 0.4706578 0.5118961 0.4585174 0.5058259 0.4645876 0.5058259 0.4585174 0.5058259 0.4524472 0.5118961 0.4585174 0.5058259 0.4585174 0.5058259 0.4767279 0.5118961 0.482798 0.5058259 0.4827982 0.5301066 0.4767279 0.5240364 0.4827981 0.5240364 0.4767279 0.5058259 0.4767279 0.4997557 0.4827981 0.4997557 0.4767279 0.5179663 0.4767279 0.5118961 0.482798 0.5118961 0.4767279 0.5179663 0.4524472 0.5118961 0.4585174 0.5118961 0.4524472 0.4936855 0.4767279 0.4997557 0.4827981 0.4936855 0.4827981 0.5179663 0.4767279 0.5240364 0.4827981 0.5179663 0.4827981 0.5058259 0.4645876 0.5118961 0.4706578 0.5058259 0.4706578 0.5058259 0.4888683 0.5118961 0.4949384 0.5058259 0.4949384 0.5240364 0.4827981 0.5179663 0.4888683 0.5179663 0.4827981 0.4997557 0.4827981 0.4936855 0.4888683 0.4936855 0.4827981 0.5179663 0.4888683 0.5118961 0.4949384 0.5118961 0.4888683 0.5179663 0.4645876 0.5118961 0.4706578 0.5118961 0.4645876 0.5118961 0.4585174 0.5179663 0.4645876 0.5118961 0.4645876 0.5118961 0.4706578 0.5179663 0.4767279 0.5118961 0.4767279 0.5118961 0.482798 0.5179663 0.4888683 0.5118961 0.4888683 0.5118961 0.4949384 0.5179663 0.5010086 0.5118961 0.5010086 0.4997557 0.4827981 0.5058259 0.4888683 0.4997557 0.4888683 0.5240364 0.4827981 0.5301066 0.4888683 0.5240364 0.4888683 0.5118961 0.4949384 0.5058259 0.5010086 0.5058259 0.4949384 0.5118961 0.482798 0.5058259 0.4888683 0.5058259 0.4827982 0.5118961 0.4706578 0.5058259 0.4767279 0.5058259 0.4706578 0.5118961 0.4585174 0.5058259 0.4645876 0.5058259 0.4585174 0.5058259 0.4524472 0.5118961 0.4585174 0.5058259 0.4585174 0.5058259 0.4767279 0.5118961 0.482798 0.5058259 0.4827982 0.5301066 0.4767279 0.5240364 0.4827981 0.5240364 0.4767279 0.5058259 0.4767279 0.4997557 0.4827981 0.4997557 0.4767279 0.5179663 0.4767279 0.5118961 0.482798 0.5118961 0.4767279 0.5179663 0.4524472 0.5118961 0.4585174 0.5118961 0.4524472 0.4936855 0.4767279 0.4997557 0.4827981 0.4936855 0.4827981 0.5179663 0.4767279 0.5240364 0.4827981 0.5179663 0.4827981 0.5058259 0.4645876 0.5118961 0.4706578 0.5058259 0.4706578 0.5058259 0.4888683 0.5118961 0.4949384 0.5058259 0.4949384 0.5240364 0.4827981 0.5179663 0.4888683 0.5179663 0.4827981 0.4997557 0.4827981 0.4936855 0.4888683 0.4936855 0.4827981 0.5179663 0.4888683 0.5118961 0.4949384 0.5118961 0.4888683 0.5179663 0.4645876 0.5118961 0.4706578 0.5118961 0.4645876 0.5118961 0.4585174 0.5179663 0.4645876 0.5118961 0.4645876 0.5118961 0.4706578 0.5179663 0.4767279 0.5118961 0.4767279 0.5118961 0.482798 0.5179663 0.4888683 0.5118961 0.4888683 0.5118961 0.4949384 0.5179663 0.5010086 0.5118961 0.5010086 0.4997557 0.4827981 0.5058259 0.4888683 0.4997557 0.4888683 0.5240364 0.4827981 0.5301066 0.4888683 0.5240364 0.4888683 0.5118961 0.4949384 0.5058259 0.5010086 0.5058259 0.4949384 0.5118961 0.482798 0.5058259 0.4888683 0.5058259 0.4827982 0.5118961 0.4706578 0.5058259 0.4767279 0.5058259 0.4706578 0.5118961 0.4585174 0.5058259 0.4645876 0.5058259 0.4585174 0.5058259 0.4524472 0.5118961 0.4585174 0.5058259 0.4585174 0.5058259 0.4767279 0.5118961 0.482798 0.5058259 0.4827982 0.5301066 0.4767279 0.5240364 0.4827981 0.5240364 0.4767279 0.5058259 0.4767279 0.4997557 0.4827981 0.4997557 0.4767279 0.5179663 0.4767279 0.5118961 0.482798 0.5118961 0.4767279 0.5179663 0.4524472 0.5118961 0.4585174 0.5118961 0.4524472 0.4936855 0.4767279 0.4997557 0.4827981 0.4936855 0.4827981 0.5179663 0.4767279 0.5240364 0.4827981 0.5179663 0.4827981 0.5058259 0.4645876 0.5118961 0.4706578 0.5058259 0.4706578 0.5058259 0.4888683 0.5118961 0.4949384 0.5058259 0.4949384 0.5240364 0.4827981 0.5179663 0.4888683 0.5179663 0.4827981 0.4997557 0.4827981 0.4936855 0.4888683 0.4936855 0.4827981 0.5179663 0.4888683 0.5118961 0.4949384 0.5118961 0.4888683 0.5179663 0.4645876 0.5118961 0.4706578 0.5118961 0.4645876 0.5118961 0.4585174 0.5179663 0.4585174 0.5179663 0.4645876 0.5118961 0.4706578 0.5179663 0.4706578 0.5179663 0.4767279 0.5118961 0.482798 0.5179663 0.4827981 0.5179663 0.4888683 0.5118961 0.4949384 0.5179663 0.4949384 0.5179663 0.5010086 0.4997557 0.4827981 0.5058259 0.4827982 0.5058259 0.4888683 0.5240364 0.4827981 0.5301066 0.4827981 0.5301066 0.4888683 0.5118961 0.4949384 0.5118961 0.5010086 0.5058259 0.5010086 0.5118961 0.482798 0.5118961 0.4888683 0.5058259 0.4888683 0.5118961 0.4706578 0.5118961 0.4767279 0.5058259 0.4767279 0.5118961 0.4585174 0.5118961 0.4645876 0.5058259 0.4645876 0.5058259 0.4524472 0.5118961 0.4524472 0.5118961 0.4585174 0.5058259 0.4767279 0.5118961 0.4767279 0.5118961 0.482798 0.5301066 0.4767279 0.5301066 0.4827981 0.5240364 0.4827981 0.5058259 0.4767279 0.5058259 0.4827982 0.4997557 0.4827981 0.5179663 0.4767279 0.5179663 0.4827981 0.5118961 0.482798 0.5179663 0.4524472 0.5179663 0.4585174 0.5118961 0.4585174 0.4936855 0.4767279 0.4997557 0.4767279 0.4997557 0.4827981 0.5179663 0.4767279 0.5240364 0.4767279 0.5240364 0.4827981 0.5058259 0.4645876 0.5118961 0.4645876 0.5118961 0.4706578 0.5058259 0.4888683 0.5118961 0.4888683 0.5118961 0.4949384 0.5240364 0.4827981 0.5240364 0.4888683 0.5179663 0.4888683 0.4997557 0.4827981 0.4997557 0.4888683 0.4936855 0.4888683 0.5179663 0.4888683 0.5179663 0.4949384 0.5118961 0.4949384 0.5179663 0.4645876 0.5179663 0.4706578 0.5118961 0.4706578 0.5118961 0.4585174 0.5179663 0.4585174 0.5179663 0.4645876 0.5118961 0.4706578 0.5179663 0.4706578 0.5179663 0.4767279 0.5118961 0.482798 0.5179663 0.4827981 0.5179663 0.4888683 0.5118961 0.4949384 0.5179663 0.4949384 0.5179663 0.5010086 0.4997557 0.4827981 0.5058259 0.4827982 0.5058259 0.4888683 0.5240364 0.4827981 0.5301066 0.4827981 0.5301066 0.4888683 0.5118961 0.4949384 0.5118961 0.5010086 0.5058259 0.5010086 0.5118961 0.482798 0.5118961 0.4888683 0.5058259 0.4888683 0.5118961 0.4706578 0.5118961 0.4767279 0.5058259 0.4767279 0.5118961 0.4585174 0.5118961 0.4645876 0.5058259 0.4645876 0.5058259 0.4524472 0.5118961 0.4524472 0.5118961 0.4585174 0.5058259 0.4767279 0.5118961 0.4767279 0.5118961 0.482798 0.5301066 0.4767279 0.5301066 0.4827981 0.5240364 0.4827981 0.5058259 0.4767279 0.5058259 0.4827982 0.4997557 0.4827981 0.5179663 0.4767279 0.5179663 0.4827981 0.5118961 0.482798 0.5179663 0.4524472 0.5179663 0.4585174 0.5118961 0.4585174 0.4936855 0.4767279 0.4997557 0.4767279 0.4997557 0.4827981 0.5179663 0.4767279 0.5240364 0.4767279 0.5240364 0.4827981 0.5058259 0.4645876 0.5118961 0.4645876 0.5118961 0.4706578 0.5058259 0.4888683 0.5118961 0.4888683 0.5118961 0.4949384 0.5240364 0.4827981 0.5240364 0.4888683 0.5179663 0.4888683 0.4997557 0.4827981 0.4997557 0.4888683 0.4936855 0.4888683 0.5179663 0.4888683 0.5179663 0.4949384 0.5118961 0.4949384 0.5179663 0.4645876 0.5179663 0.4706578 0.5118961 0.4706578 0.5118961 0.4585174 0.5179663 0.4585174 0.5179663 0.4645876 0.5118961 0.4706578 0.5179663 0.4706578 0.5179663 0.4767279 0.5118961 0.482798 0.5179663 0.4827981 0.5179663 0.4888683 0.5118961 0.4949384 0.5179663 0.4949384 0.5179663 0.5010086 0.4997557 0.4827981 0.5058259 0.4827982 0.5058259 0.4888683 0.5240364 0.4827981 0.5301066 0.4827981 0.5301066 0.4888683 0.5118961 0.4949384 0.5118961 0.5010086 0.5058259 0.5010086 0.5118961 0.482798 0.5118961 0.4888683 0.5058259 0.4888683 0.5118961 0.4706578 0.5118961 0.4767279 0.5058259 0.4767279 0.5118961 0.4585174 0.5118961 0.4645876 0.5058259 0.4645876 0.5058259 0.4524472 0.5118961 0.4524472 0.5118961 0.4585174 0.5058259 0.4767279 0.5118961 0.4767279 0.5118961 0.482798 0.5301066 0.4767279 0.5301066 0.4827981 0.5240364 0.4827981 0.5058259 0.4767279 0.5058259 0.4827982 0.4997557 0.4827981 0.5179663 0.4767279 0.5179663 0.4827981 0.5118961 0.482798 0.5179663 0.4524472 0.5179663 0.4585174 0.5118961 0.4585174 0.4936855 0.4767279 0.4997557 0.4767279 0.4997557 0.4827981 0.5179663 0.4767279 0.5240364 0.4767279 0.5240364 0.4827981 0.5058259 0.4645876 0.5118961 0.4645876 0.5118961 0.4706578 0.5058259 0.4888683 0.5118961 0.4888683 0.5118961 0.4949384 0.5240364 0.4827981 0.5240364 0.4888683 0.5179663 0.4888683 0.4997557 0.4827981 0.4997557 0.4888683 0.4936855 0.4888683 0.5179663 0.4888683 0.5179663 0.4949384 0.5118961 0.4949384 0.5179663 0.4645876 0.5179663 0.4706578 0.5118961 0.4706578 0.5118961 0.4585174 0.5179663 0.4585174 0.5179663 0.4645876 0.5118961 0.4706578 0.5179663 0.4706578 0.5179663 0.4767279 0.5118961 0.482798 0.5179663 0.4827981 0.5179663 0.4888683 0.5118961 0.4949384 0.5179663 0.4949384 0.5179663 0.5010086 0.4997557 0.4827981 0.5058259 0.4827982 0.5058259 0.4888683 0.5240364 0.4827981 0.5301066 0.4827981 0.5301066 0.4888683 0.5118961 0.4949384 0.5118961 0.5010086 0.5058259 0.5010086 0.5118961 0.482798 0.5118961 0.4888683 0.5058259 0.4888683 0.5118961 0.4706578 0.5118961 0.4767279 0.5058259 0.4767279 0.5118961 0.4585174 0.5118961 0.4645876 0.5058259 0.4645876 0.5058259 0.4524472 0.5118961 0.4524472 0.5118961 0.4585174 0.5058259 0.4767279 0.5118961 0.4767279 0.5118961 0.482798 0.5301066 0.4767279 0.5301066 0.4827981 0.5240364 0.4827981 0.5058259 0.4767279 0.5058259 0.4827982 0.4997557 0.4827981 0.5179663 0.4767279 0.5179663 0.4827981 0.5118961 0.482798 0.5179663 0.4524472 0.5179663 0.4585174 0.5118961 0.4585174 0.4936855 0.4767279 0.4997557 0.4767279 0.4997557 0.4827981 0.5179663 0.4767279 0.5240364 0.4767279 0.5240364 0.4827981 0.5058259 0.4645876 0.5118961 0.4645876 0.5118961 0.4706578 0.5058259 0.4888683 0.5118961 0.4888683 0.5118961 0.4949384 0.5240364 0.4827981 0.5240364 0.4888683 0.5179663 0.4888683 0.4997557 0.4827981 0.4997557 0.4888683 0.4936855 0.4888683 0.5179663 0.4888683 0.5179663 0.4949384 0.5118961 0.4949384 0.5179663 0.4645876 0.5179663 0.4706578 0.5118961 0.4706578</float_array>
          <technique_common>
            <accessor source="#Cubo_120-mesh-map-0-array" count="576" stride="2">
              <param name="S" type="float"/>
              <param name="T" type="float"/>
            </accessor>
          </technique_common>
        </source>
        <vertices id="Cubo_120-mesh-vertices">
          <input semantic="POSITION" source="#Cubo_120-mesh-positions"/>
        </vertices>
        <triangles material="A-textura_nok__General-material" count="192">
          <input semantic="VERTEX" source="#Cubo_120-mesh-vertices" offset="0"/>
          <input semantic="NORMAL" source="#Cubo_120-mesh-normals" offset="1"/>
          <input semantic="TEXCOORD" source="#Cubo_120-mesh-map-0" offset="2" set="0"/>
          <p>17 0 0 3 0 1 9 0 2 23 1 3 7 1 4 10 1 5 16 2 6 5 2 7 11 2 8 22 3 9 1 3 10 8 3 11 25 4 12 4 4 13 20 4 14 24 5 15 1 5 16 21 5 17 22 6 18 0 6 19 20 6 20 16 7 21 4 7 22 14 7 23 23 8 24 6 8 25 18 8 26 17 9 27 2 9 28 12 9 29 0 10 30 17 10 31 12 10 32 6 11 33 16 11 34 14 11 35 3 12 36 24 12 37 19 12 38 6 13 39 25 13 40 18 13 41 7 14 42 16 14 43 10 14 44 1 15 45 17 15 46 8 15 47 2 16 48 25 16 49 12 16 50 7 17 51 24 17 52 15 17 53 2 18 54 23 18 55 18 18 56 4 19 57 22 19 58 20 19 59 24 20 60 5 20 61 15 20 62 25 21 63 0 21 64 12 21 65 5 22 66 22 22 67 11 22 68 3 23 69 23 23 70 9 23 71 43 24 72 29 24 73 35 24 74 49 25 75 33 25 76 36 25 77 42 26 78 31 26 79 37 26 80 48 27 81 27 27 82 34 27 83 51 28 84 30 28 85 46 28 86 50 29 87 27 29 88 47 29 89 48 30 90 26 30 91 46 30 92 42 31 93 30 31 94 40 31 95 49 32 96 32 32 97 44 32 98 43 33 99 28 33 100 38 33 101 26 34 102 43 34 103 38 34 104 32 35 105 42 35 106 40 35 107 29 36 108 50 36 109 45 36 110 32 37 111 51 37 112 44 37 113 33 38 114 42 38 115 36 38 116 27 39 117 43 39 118 34 39 119 28 40 120 51 40 121 38 40 122 33 41 123 50 41 124 41 41 125 28 42 126 49 42 127 44 42 128 30 43 129 48 43 130 46 43 131 50 44 132 31 44 133 41 44 134 51 45 135 26 45 136 38 45 137 31 46 138 48 46 139 37 46 140 29 47 141 49 47 142 35 47 143 69 48 144 55 48 145 61 48 146 75 49 147 59 49 148 62 49 149 68 50 150 57 50 151 63 50 152 74 51 153 53 51 154 60 51 155 77 52 156 56 52 157 72 52 158 76 53 159 53 53 160 73 53 161 74 54 162 52 54 163 72 54 164 68 55 165 56 55 166 66 55 167 75 56 168 58 56 169 70 56 170 69 57 171 54 57 172 64 57 173 52 58 174 69 58 175 64 58 176 58 59 177 68 59 178 66 59 179 55 60 180 76 60 181 71 60 182 58 61 183 77 61 184 70 61 185 59 62 186 68 62 187 62 62 188 53 63 189 69 63 190 60 63 191 54 64 192 77 64 193 64 64 194 59 65 195 76 65 196 67 65 197 54 66 198 75 66 199 70 66 200 56 67 201 74 67 202 72 67 203 76 68 204 57 68 205 67 68 206 77 69 207 52 69 208 64 69 209 57 70 210 74 70 211 63 70 212 55 71 213 75 71 214 61 71 215 95 72 216 81 72 217 87 72 218 101 73 219 85 73 220 88 73 221 94 74 222 83 74 223 89 74 224 100 75 225 79 75 226 86 75 227 103 76 228 82 76 229 98 76 230 102 77 231 79 77 232 99 77 233 100 78 234 78 78 235 98 78 236 94 79 237 82 79 238 92 79 239 101 80 240 84 80 241 96 80 242 95 81 243 80 81 244 90 81 245 78 82 246 95 82 247 90 82 248 84 83 249 94 83 250 92 83 251 81 84 252 102 84 253 97 84 254 84 85 255 103 85 256 96 85 257 85 86 258 94 86 259 88 86 260 79 87 261 95 87 262 86 87 263 80 88 264 103 88 265 90 88 266 85 89 267 102 89 268 93 89 269 80 90 270 101 90 271 96 90 272 82 91 273 100 91 274 98 91 275 102 92 276 83 92 277 93 92 278 103 93 279 78 93 280 90 93 281 83 94 282 100 94 283 89 94 284 81 95 285 101 95 286 87 95 287 17 96 288 13 96 289 3 96 290 23 97 291 19 97 292 7 97 293 16 98 294 15 98 295 5 98 296 22 99 297 21 99 298 1 99 299 25 100 300 14 100 301 4 100 302 24 101 303 13 101 304 1 101 305 22 102 306 8 102 307 0 102 308 16 103 309 11 103 310 4 103 311 23 104 312 10 104 313 6 104 314 17 105 315 9 105 316 2 105 317 0 106 318 8 106 319 17 106 320 6 107 321 10 107 322 16 107 323 3 108 324 13 108 325 24 108 326 6 109 327 14 109 328 25 109 329 7 110 330 15 110 331 16 110 332 1 111 333 13 111 334 17 111 335 2 112 336 18 112 337 25 112 338 7 113 339 19 113 340 24 113 341 2 114 342 9 114 343 23 114 344 4 115 345 11 115 346 22 115 347 24 116 348 21 116 349 5 116 350 25 117 351 20 117 352 0 117 353 5 118 354 21 118 355 22 118 356 3 119 357 19 119 358 23 119 359 43 120 360 39 120 361 29 120 362 49 121 363 45 121 364 33 121 365 42 122 366 41 122 367 31 122 368 48 123 369 47 123 370 27 123 371 51 124 372 40 124 373 30 124 374 50 125 375 39 125 376 27 125 377 48 126 378 34 126 379 26 126 380 42 127 381 37 127 382 30 127 383 49 128 384 36 128 385 32 128 386 43 129 387 35 129 388 28 129 389 26 130 390 34 130 391 43 130 392 32 131 393 36 131 394 42 131 395 29 132 396 39 132 397 50 132 398 32 133 399 40 133 400 51 133 401 33 134 402 41 134 403 42 134 404 27 135 405 39 135 406 43 135 407 28 136 408 44 136 409 51 136 410 33 137 411 45 137 412 50 137 413 28 138 414 35 138 415 49 138 416 30 139 417 37 139 418 48 139 419 50 140 420 47 140 421 31 140 422 51 141 423 46 141 424 26 141 425 31 142 426 47 142 427 48 142 428 29 143 429 45 143 430 49 143 431 69 144 432 65 144 433 55 144 434 75 145 435 71 145 436 59 145 437 68 146 438 67 146 439 57 146 440 74 147 441 73 147 442 53 147 443 77 148 444 66 148 445 56 148 446 76 149 447 65 149 448 53 149 449 74 150 450 60 150 451 52 150 452 68 151 453 63 151 454 56 151 455 75 152 456 62 152 457 58 152 458 69 153 459 61 153 460 54 153 461 52 154 462 60 154 463 69 154 464 58 155 465 62 155 466 68 155 467 55 156 468 65 156 469 76 156 470 58 157 471 66 157 472 77 157 473 59 158 474 67 158 475 68 158 476 53 159 477 65 159 478 69 159 479 54 160 480 70 160 481 77 160 482 59 161 483 71 161 484 76 161 485 54 162 486 61 162 487 75 162 488 56 163 489 63 163 490 74 163 491 76 164 492 73 164 493 57 164 494 77 165 495 72 165 496 52 165 497 57 166 498 73 166 499 74 166 500 55 167 501 71 167 502 75 167 503 95 168 504 91 168 505 81 168 506 101 169 507 97 169 508 85 169 509 94 170 510 93 170 511 83 170 512 100 171 513 99 171 514 79 171 515 103 172 516 92 172 517 82 172 518 102 173 519 91 173 520 79 173 521 100 174 522 86 174 523 78 174 524 94 175 525 89 175 526 82 175 527 101 176 528 88 176 529 84 176 530 95 177 531 87 177 532 80 177 533 78 178 534 86 178 535 95 178 536 84 179 537 88 179 538 94 179 539 81 180 540 91 180 541 102 180 542 84 181 543 92 181 544 103 181 545 85 182 546 93 182 547 94 182 548 79 183 549 91 183 550 95 183 551 80 184 552 96 184 553 103 184 554 85 185 555 97 185 556 102 185 557 80 186 558 87 186 559 101 186 560 82 187 561 89 187 562 100 187 563 102 188 564 99 188 565 83 188 566 103 189 567 98 189 568 78 189 569 83 190 570 99 190 571 100 190 572 81 191 573 97 191 574 101 191 575</p>
        </triangles>
      </mesh>
    </geometry>
  </library_geometries>
  <library_visual_scenes>
    <visual_scene id="Scene" name="Scene">
      <node id="a_hair_female_04" name="a_hair_female_04" type="NODE">
        <matrix sid="transform">1 0 0 0 0 1 0 0 0 0 1 0 0 0 0 1</matrix>
        <instance_geometry url="#Cubo_120-mesh" name="a_hair_female_04">
          <bind_material>
            <technique_common>
              <instance_material symbol="A-textura_nok__General-material" target="#A-textura_nok__General-material">
                <bind_vertex_input semantic="MapaUV" input_semantic="TEXCOORD" input_set="0"/>
              </instance_material>
            </technique_common>
          </bind_material>
        </instance_geometry>
      </node>
    </visual_scene>
  </library_visual_scenes>
  <scene>
    <instance_visual_scene url="#Scene"/>
  </scene>
</COLLADA>