<?xml version="1.0" encoding="utf-8"?>
<COLLADA xmlns="http://www.collada.org/2005/11/COLLADASchema" version="1.4.1" xmlns:xsi="http://www.w3.org/2001/XMLSchema-instance">
  <asset>
    <contributor>
      <author>Blender User</author>
      <authoring_tool>Blender 4.3.1 commit date:2024-12-10, commit time:07:46, hash:33d812126174</authoring_tool>
    </contributor>
    <created>2026-08-20T09:13:44</created>
    <modified>2026-08-20T09:13:44</modified>
    <unit name="meter" meter="1"/>
    <up_axis>Z_UP</up_axis>
  </asset>
  <library_effects>
    <effect id="A-textura_nok__General-effect">
      <profile_COMMON>
        <newparam sid="nok_png-surface">
          <surface type="2D">
            <init_from>nok_png</init_from>
          </surface>
        </newparam>
        <newparam sid="nok_png-sampler">
          <sampler2D>
            <source>nok_png-surface</source>
          </sampler2D>
        </newparam>
        <technique sid="common">
          <lambert>
            <emission>
              <color sid="emission">0 0 0 1</color>
            </emission>
            <diffuse>
              <texture texture="nok_png-sampler" texcoord="MapaUV"/>
            </diffuse>
            <index_of_refraction>
              <float sid="ior">1.45</float>
            </index_of_refraction>
          </lambert>
        </technique>
      </profile_COMMON>
    </effect>
  </library_effects>
  <library_images>
    <image id="nok_png" name="nok_png">
      <init_from>nok.png</init_from>
    </image>
  </library_images>
  <library_materials>
    <material id="A-textura_nok__General-material" name="A-textura nok  General">
      <instance_effect url="#A-textura_nok__General-effect"/>
    </material>
  </library_materials>
  <library_geometries>
    <geometry id="Cubo_034-mesh" name="Cubo.034">
      <mesh>
        <source id="Cubo_034-mesh-positions">
          <float_array id="Cubo_034-mesh-positions-array" count="171">-0.06141591 -0.2436198 0.4679965 -0.06141591 -0.2146584 0.5873654 7.58589e-5 0.6891211 0.8346418 7.58589e-5 0.6890853 0.8344943 0.06141591 -0.2436198 0.4679965 0.06141591 -0.2146584 0.5873654 -7.58629e-5 0.6891167 0.8346429 -7.58629e-5 0.6890809 0.8344954 -0.1148444 -0.03891837 0.3633531 -0.1148444 0.0152378 0.5865661 0.1148444 -0.03891837 0.3633531 0.1148444 0.0152378 0.5865661 -0.09748286 -0.1464314 0.4073032 -0.09748286 -0.1004621 0.5967722 0.09748286 -0.1004621 0.5967722 0.09748286 -0.1464314 0.4073032 -0.07003784 0.1816366 0.5355643 -0.07003784 0.1869186 0.3955882 0.07003784 0.1869186 0.3955882 0.07003784 0.1816366 0.5355643 0 0.188066 0.3651833 0 0.1804893 0.5659692 0 -0.1564166 0.3661478 0 -0.09047698 0.6379277 0 0.02700132 0.6350513 0 -0.05068194 0.3148679 0 -0.2499107 0.4420679 0 -0.2083675 0.6132941 0 0.6891267 0.8346744 0 0.6890754 0.8344628 -0.1292234 -0.1234468 0.5020378 -0.09284228 0.1842777 0.4655762 0.09284228 0.1842777 0.4655762 0.1292234 -0.1234468 0.5020378 0.1522378 -0.01184028 0.4749596 -0.1522378 -0.01184028 0.4749596 -0.08141303 -0.2291391 0.5276809 0.08141303 -0.2291391 0.5276809 1.00559e-4 0.689104 0.8345679 -1.00563e-4 0.6890981 0.8345693 0 -0.275514 0.5389325 -0.03498095 0.364369 0.5496037 -0.03498095 0.3904792 0.4846966 0.03498095 0.3904792 0.4846966 0.03498095 0.364369 0.5496037 0 0.3586974 0.5637025 0 0.3961508 0.4705978 0.0463708 0.3774241 0.5171502 -0.0463708 0.3774241 0.5171502 -0.01745253 0.5192901 0.649607 0.01745253 0.5192879 0.6496062 -0.01745253 0.5472369 0.6286706 0.01745253 0.5472347 0.6286699 0 0.5132185 0.6541543 0 0.5533063 0.6241225 0.02313512 0.533261 0.6391379 -0.02313512 0.5332639 0.6391388</float_array>
          <technique_common>
            <accessor source="#Cubo_034-mesh-positions-array" count="57" stride="3">
              <param name="X" type="float"/>
              <param name="Y" type="float"/>
              <param name="Z" type="float"/>
            </accessor>
          </technique_common>
        </source>
        <source id="Cubo_034-mesh-normals">
          <float_array id="Cubo_034-mesh-normals-array" count="414">-0.9475037 0.1057338 0.301757 -0.9247028 0.2403487 0.2952241 -0.9508535 0.07796734 0.2996646 0.9508535 0.07796728 0.2996645 0.9132484 -0.2005291 0.3546343 0.9122896 -0.2039595 0.3551453 -0.358293 -0.775413 0.5199623 -0.353837 -0.7744598 0.5244151 -0.4989653 -0.7889519 0.3585926 0.3907992 -0.4016715 -0.8282125 0.3812653 -0.4892791 -0.7843742 0.3907997 -0.4016715 -0.8282124 -0.3982949 0.1886821 0.8976416 -0.3812649 -0.07542574 0.9213837 -0.394428 0.1997586 0.8969522 -0.3925091 0.2119774 0.8949874 -0.3848586 0.2097413 0.8988285 0.3787479 0.3045476 -0.873957 0.3703916 0.1947255 -0.9082357 0.3649482 0.1919938 -0.9110166 0.9247029 0.2403486 0.2952241 0.9475037 0.1057338 0.301757 -0.9132485 -0.2005291 0.3546342 -0.9122896 -0.2039595 0.3551453 -0.8773062 -0.3074396 0.3685305 -0.8773064 -0.3074398 0.3685303 0.877306 -0.4421426 -0.1866663 0.9122896 -0.3440337 -0.2221904 0.8773059 -0.4421427 -0.1866664 -0.3652079 -0.586831 -0.7226706 -0.3811663 -0.4900174 -0.7839612 -0.3812653 -0.4892791 -0.7843742 0.3652079 -0.1904076 0.9112454 0.3811661 -0.07627123 0.9213551 0.3812649 -0.07542574 0.9213837 -0.9317563 0.2884567 -0.2205065 -0.918529 0.27395 -0.2850542 -0.9341609 0.2883311 -0.2102585 0.3858719 0.5341281 -0.7522034 0.3842993 0.3108863 -0.8692893 -0.3984954 -0.2177099 0.8909568 -0.3948112 -0.2277137 0.8900958 0.9411195 0.0386247 0.3358607 0.9183081 0.2431211 0.3124139 0.3984957 -0.2177106 0.8909564 0.3848586 0.2097413 0.8988285 0.3925091 0.2119775 0.8949874 -0.385872 0.5341282 -0.7522034 -0.3842992 0.3108863 -0.8692892 -0.3891465 0.5391561 -0.7469108 -0.3652079 -0.1904076 0.9112454 -0.3811661 -0.07627129 0.9213551 -0.3652089 -0.1904074 0.9112451 0.3652079 -0.586831 -0.7226706 0.3811663 -0.4900174 -0.7839612 0.3652081 -0.5868309 -0.7226705 -0.3787479 0.3045476 -0.873957 -0.3703916 0.1947255 -0.9082357 0.394428 0.1997586 0.8969522 0.3982949 0.1886821 0.8976416 -0.3907992 -0.4016715 -0.8282125 0.3538372 -0.7744598 0.5244151 0.3582931 -0.775413 0.5199623 0.4989653 -0.7889519 0.3585928 0.3538365 -0.9286736 -0.1111988 0.3582924 -0.9274802 -0.1068043 0.2026233 -0.9467431 -0.2502429 0.931756 0.2884578 -0.2205061 0.918529 0.27395 -0.2850543 0.9153328 0.2668437 -0.3015962 -0.9411194 0.0386244 0.3358609 -0.9183081 0.2431211 0.3124139 -0.9391224 0.02764809 0.3424688 0.8773062 -0.3074396 0.3685305 -0.877306 -0.4421426 -0.1866663 -0.9122896 -0.3440337 -0.2221904 -0.9132484 -0.3407505 -0.2233082 -0.9505548 0.003131449 -0.3105412 -0.9499189 -0.02956157 -0.3110956 0.9505548 0.003131449 -0.3105412 0.9499188 -0.02956157 -0.3110957 -0.3582925 -0.9274802 -0.1068043 -0.3538366 -0.9286736 -0.1111987 -0.2026233 -0.9467431 -0.2502429 0.9132484 -0.3407505 -0.2233082 -0.9153329 0.2668437 -0.3015962 -0.9416963 -0.1543837 0.2989545 -0.9389275 -0.1497136 0.3098405 0.948423 0.283156 -0.1425366 0.9341608 0.2883323 -0.2102578 -0.3970637 0.7125834 -0.5784162 -0.3982033 0.7077952 -0.5834897 0.3884313 -0.5682347 0.7254174 0.3948108 -0.2277148 0.8900958 0.9417037 -0.1543565 0.2989451 0.9391224 0.02764803 0.3424686 -0.3884974 -0.5682052 0.7254052 -0.3860406 -0.5615107 0.7319006 0.3971176 0.7125765 -0.5783878 0.3891477 0.539156 -0.7469103 -0.9484203 0.28316 -0.1425467 -0.9495602 0.2791754 -0.1428163 0.6742091 -0.633602 0.3794611 -0.1013227 -0.8360055 0.5392854 -0.1129468 -0.8349548 0.5386034 0.1782047 0.716328 -0.6746239 -0.8665686 0.3347211 -0.3701631 -0.8692224 0.3308656 -0.3673971 -0.2291353 0.7059733 -0.6701483 -0.235625 0.7045222 -0.6694247 0.2677702 0.7945972 0.5448985 -0.6538572 -0.6479492 0.3906823 -0.6645926 -0.6405732 0.3846853 0.8579052 0.3470878 -0.3788518 -0.03007841 0.9718261 -0.2337722 -0.03006023 0.9710127 -0.2371307 -0.2026233 -0.726801 0.6562805 -0.3652081 -0.5868309 -0.7226705 0.3652089 -0.1904074 0.9112451 -0.3649482 0.1919938 -0.9110166 -0.3907997 -0.4016715 -0.8282124 0.2026236 -0.726801 0.6562804 0.4989644 -0.8655637 0.04282754 0.8773064 -0.3074398 0.3685303 -0.8773059 -0.4421427 -0.1866664 -0.4989645 -0.8655636 0.04282772 0.9495632 0.2791707 -0.1428061 0.386006 -0.5615269 0.7319064 0.9389264 -0.1497178 0.3098418 0.3982589 0.7077799 -0.5834702 0.6842545 -0.6262966 0.373562 0.1865582 0.7147858 -0.6740009 0.1026306 0.9926731 0.06377375 0.860856 0.3429589 -0.3759071 -0.03009688 0.9718938 -0.2334884 -0.02967292 0.9720205 -0.2330146 -0.0300486 0.971167 -0.2364988 -0.03014457 0.9711624 -0.2365057</float_array>
          <technique_common>
            <accessor source="#Cubo_034-mesh-normals-array" count="138" stride="3">
              <param name="X" type="float"/>
              <param name="Y" type="float"/>
              <param name="Z" type="float"/>
            </accessor>
          </technique_common>
        </source>
        <source id="Cubo_034-mesh-map-0">
          <float_array id="Cubo_034-mesh-map-0-array" count="660">0.5179663 0.4585174 0.5118961 0.4645876 0.5118961 0.4585174 0.5118961 0.4827981 0.5179663 0.4888683 0.5118961 0.4888683 0.5118961 0.4949384 0.5145741 0.4976164 0.5118961 0.4976164 0.5058259 0.4827981 0.4997557 0.4888683 0.4997557 0.4827981 0.5301066 0.4827981 0.5240365 0.4888683 0.5240365 0.4827981 0.5301066 0.4767279 0.5240365 0.4827981 0.5240365 0.4767279 0.4997557 0.4767279 0.5058259 0.4827981 0.4997557 0.4827981 0.5118961 0.4767279 0.5179663 0.4827981 0.5118961 0.4827981 0.5179663 0.4524472 0.5118961 0.4585174 0.5118961 0.4524472 0.5145741 0.4976164 0.5118961 0.5010086 0.5118961 0.4976164 0.5092181 0.4922605 0.5118961 0.4888683 0.5118961 0.4922605 0.5092181 0.4949384 0.5058259 0.5010086 0.5058259 0.4949384 0.5145741 0.4949384 0.5179663 0.4888683 0.5179663 0.4949384 0.5106685 0.4687895 0.5118961 0.4580178 0.5118961 0.4687895 0.5106685 0.4706578 0.5058259 0.4832977 0.5058259 0.4706578 0.5131238 0.4687895 0.5179663 0.4706578 0.5131238 0.4706578 0.5118961 0.472526 0.5179663 0.4832977 0.5118961 0.4832977 0.5131238 0.472526 0.5179663 0.4706578 0.5179663 0.4832977 0.5106685 0.4706578 0.5058259 0.4580178 0.5106685 0.4687895 0.5145741 0.4949384 0.5179663 0.5010086 0.5145741 0.4976164 0.5092181 0.4949384 0.5058259 0.4888683 0.5092181 0.4922605 0.4997557 0.4767279 0.4936855 0.4827981 0.4936855 0.4767279 0.5179663 0.4767279 0.5240365 0.4827981 0.5179663 0.4827981 0.5179663 0.4827981 0.5240365 0.4888683 0.5179663 0.4888683 0.4936855 0.4827981 0.4997557 0.4888683 0.4936855 0.4888683 0.5145741 0.4922605 0.5118961 0.4949384 0.5118961 0.4922605 0.5092181 0.4922605 0.5118961 0.4949384 0.5092181 0.4949384 0.5106685 0.472526 0.5118961 0.4832977 0.5058259 0.4832977 0.5118961 0.4687895 0.5179663 0.4580178 0.5131238 0.4687895 0.5145741 0.4922605 0.5118961 0.4888683 0.5179663 0.4888683 0.5092181 0.4976164 0.5118961 0.5010086 0.5058259 0.5010086 0.5058259 0.4524472 0.5118961 0.4585174 0.5058259 0.4585174 0.5058259 0.4767279 0.5118961 0.4827981 0.5058259 0.4827981 0.5118961 0.4949384 0.5092181 0.4976164 0.5092181 0.4949384 0.5118961 0.4827981 0.5058259 0.4888683 0.5058259 0.4827981 0.5118961 0.4585174 0.5058259 0.4645876 0.5058259 0.4585174 0.5118961 0.4658103 0.5171409 0.4630398 0.515557 0.4658103 0.5082353 0.4755052 0.5118961 0.4782757 0.5066515 0.4782757 0.5082353 0.4706578 0.5066515 0.4630397 0.5082353 0.4658102 0.5155569 0.4755052 0.5171409 0.4706578 0.5171409 0.4782758 0.5118961 0.4755052 0.5171409 0.4782758 0.5118961 0.4782757 0.515557 0.4658103 0.5171409 0.4706578 0.5155569 0.4706578 0.5082353 0.4706578 0.5066515 0.4782757 0.5066515 0.4706578 0.5082353 0.4658102 0.5118961 0.4630398 0.5118961 0.4658103 0.5118961 0.4685808 0.5082353 0.4658102 0.5118961 0.4658103 0.5098192 0.4727348 0.5082353 0.4706578 0.5098192 0.4706578 0.5139731 0.4706578 0.515557 0.4658103 0.5155569 0.4706578 0.5139731 0.4727348 0.5118961 0.4755052 0.5118961 0.4727348 0.5139731 0.4706578 0.5155569 0.4755052 0.5139731 0.4727348 0.5098192 0.4685808 0.5082353 0.4706578 0.5082353 0.4658102 0.5118961 0.4727348 0.5082353 0.4755052 0.5098192 0.4727348 0.5139731 0.4685808 0.5118961 0.4658103 0.515557 0.4658103 0.5098192 0.4685808 0.5118961 0.4685808 0.5098192 0.4727348 0.5179663 0.4585174 0.5179663 0.4645876 0.5118961 0.4645876 0.5118961 0.4827981 0.5179663 0.4827981 0.5179663 0.4888683 0.5118961 0.4949384 0.5145741 0.4949384 0.5145741 0.4976164 0.5058259 0.4827981 0.5058259 0.4888683 0.4997557 0.4888683 0.5301066 0.4827981 0.5301066 0.4888683 0.5240365 0.4888683 0.5301066 0.4767279 0.5301066 0.4827981 0.5240365 0.4827981 0.4997557 0.4767279 0.5058259 0.4767279 0.5058259 0.4827981 0.5118961 0.4767279 0.5179663 0.4767279 0.5179663 0.4827981 0.5179663 0.4524472 0.5179663 0.4585174 0.5118961 0.4585174 0.5145741 0.4976164 0.5179663 0.5010086 0.5118961 0.5010086 0.5092181 0.4922605 0.5058259 0.4888683 0.5118961 0.4888683 0.5092181 0.4949384 0.5092181 0.4976164 0.5058259 0.5010086 0.5145741 0.4949384 0.5145741 0.4922605 0.5179663 0.4888683 0.5106685 0.4687895 0.5058259 0.4580178 0.5118961 0.4580178 0.5106685 0.4706578 0.5106685 0.472526 0.5058259 0.4832977 0.5131238 0.4687895 0.5179663 0.4580178 0.5179663 0.4706578 0.5118961 0.472526 0.5131238 0.472526 0.5179663 0.4832977 0.5131238 0.472526 0.5131238 0.4706578 0.5179663 0.4706578 0.5106685 0.4706578 0.5058259 0.4706578 0.5058259 0.4580178 0.5145741 0.4949384 0.5179663 0.4949384 0.5179663 0.5010086 0.5092181 0.4949384 0.5058259 0.4949384 0.5058259 0.4888683 0.4997557 0.4767279 0.4997557 0.4827981 0.4936855 0.4827981 0.5179663 0.4767279 0.5240365 0.4767279 0.5240365 0.4827981 0.5179663 0.4827981 0.5240365 0.4827981 0.5240365 0.4888683 0.4936855 0.4827981 0.4997557 0.4827981 0.4997557 0.4888683 0.5145741 0.4922605 0.5145741 0.4949384 0.5118961 0.4949384 0.5092181 0.4922605 0.5118961 0.4922605 0.5118961 0.4949384 0.5106685 0.472526 0.5118961 0.472526 0.5118961 0.4832977 0.5118961 0.4687895 0.5118961 0.4580178 0.5179663 0.4580178 0.5145741 0.4922605 0.5118961 0.4922605 0.5118961 0.4888683 0.5092181 0.4976164 0.5118961 0.4976164 0.5118961 0.5010086 0.5058259 0.4524472 0.5118961 0.4524472 0.5118961 0.4585174 0.5058259 0.4767279 0.5118961 0.4767279 0.5118961 0.4827981 0.5118961 0.4949384 0.5118961 0.4976164 0.5092181 0.4976164 0.5118961 0.4827981 0.5118961 0.4888683 0.5058259 0.4888683 0.5118961 0.4585174 0.5118961 0.4645876 0.5058259 0.4645876 0.5118961 0.4658103 0.5118961 0.4630398 0.5171409 0.4630398 0.5082353 0.4755052 0.5118961 0.4755052 0.5118961 0.4782757 0.5082353 0.4706578 0.5066515 0.4706578 0.5066515 0.4630397 0.5155569 0.4755052 0.5155569 0.4706578 0.5171409 0.4706578 0.5118961 0.4755052 0.5155569 0.4755052 0.5171409 0.4782758 0.515557 0.4658103 0.5171409 0.4630398 0.5171409 0.4706578 0.5082353 0.4706578 0.5082353 0.4755052 0.5066515 0.4782757 0.5082353 0.4658102 0.5066515 0.4630397 0.5118961 0.4630398 0.5118961 0.4685808 0.5098192 0.4685808 0.5082353 0.4658102 0.5098192 0.4727348 0.5082353 0.4755052 0.5082353 0.4706578 0.5139731 0.4706578 0.5139731 0.4685808 0.515557 0.4658103 0.5139731 0.4727348 0.5155569 0.4755052 0.5118961 0.4755052 0.5139731 0.4706578 0.5155569 0.4706578 0.5155569 0.4755052 0.5098192 0.4685808 0.5098192 0.4706578 0.5082353 0.4706578 0.5118961 0.4727348 0.5118961 0.4755052 0.5082353 0.4755052 0.5139731 0.4685808 0.5118961 0.4685808 0.5118961 0.4658103 0.5139731 0.4685808 0.5139731 0.4706578 0.5139731 0.4727348 0.5139731 0.4727348 0.5118961 0.4727348 0.5139731 0.4685808 0.5118961 0.4727348 0.5098192 0.4727348 0.5118961 0.4685808 0.5139731 0.4685808 0.5118961 0.4727348 0.5118961 0.4685808 0.5098192 0.4727348 0.5098192 0.4706578 0.5098192 0.4685808</float_array>
          <technique_common>
            <accessor source="#Cubo_034-mesh-map-0-array" count="330" stride="2">
              <param name="S" type="float"/>
              <param name="T" type="float"/>
            </accessor>
          </technique_common>
        </source>
        <vertices id="Cubo_034-mesh-vertices">
          <input semantic="POSITION" source="#Cubo_034-mesh-positions"/>
        </vertices>
        <triangles material="A-textura_nok__General-material" count="110">
          <input semantic="VERTEX" source="#Cubo_034-mesh-vertices" offset="0"/>
          <input semantic="NORMAL" source="#Cubo_034-mesh-normals" offset="1"/>
          <input semantic="TEXCOORD" source="#Cubo_034-mesh-map-0" offset="2" set="0"/>
          <p>9 0 0 31 1 1 35 2 2 34 3 3 14 4 4 33 5 5 40 6 6 1 7 7 36 8 8 10 9 9 22 10 10 25 11 11 9 12 12 23 13 13 24 14 14 16 15 15 24 14 16 21 16 17 20 17 18 10 18 19 25 19 20 32 20 21 11 21 22 34 3 23 13 22 24 35 2 25 30 23 26 1 24 27 30 23 28 36 25 29 4 26 30 33 27 31 37 28 32 26 29 33 12 30 34 22 31 35 27 32 36 14 33 37 23 34 38 42 35 39 31 36 40 48 37 41 46 38 42 18 39 43 20 17 44 41 40 45 21 16 46 45 41 47 47 42 48 19 43 49 32 20 50 44 44 51 21 45 52 19 46 53 46 47 54 17 48 55 42 49 56 27 50 57 13 51 58 1 52 59 26 53 60 15 54 61 4 55 62 20 56 63 8 57 64 17 48 65 19 46 66 24 58 67 11 59 68 11 59 69 23 34 70 14 33 71 8 60 72 22 31 73 12 30 74 5 61 75 40 62 76 37 63 77 4 64 78 40 65 79 26 66 80 43 67 81 32 68 82 18 69 83 48 70 84 16 71 85 41 72 86 5 73 87 33 5 88 14 4 89 0 74 90 30 75 91 12 76 92 12 76 93 35 77 94 8 78 95 18 69 96 34 79 97 10 80 98 40 81 99 0 82 100 26 83 101 34 79 102 15 84 103 10 80 104 35 77 105 17 85 106 8 78 107 56 86 108 41 72 109 49 87 110 52 88 111 47 89 112 43 67 113 54 90 114 42 49 115 51 91 116 50 92 117 45 93 118 44 44 119 55 94 120 44 95 121 47 42 122 49 96 123 45 41 124 53 97 125 54 98 126 43 99 127 46 38 128 51 100 129 48 37 130 56 101 131 38 102 132 51 100 133 56 101 134 6 103 135 54 98 136 28 104 137 29 105 138 49 96 139 53 97 140 7 106 141 55 94 142 39 107 143 29 108 144 50 92 145 7 109 146 2 110 147 54 90 148 51 91 149 39 111 150 52 88 151 6 112 152 3 113 153 56 86 154 49 87 155 2 110 156 38 114 157 6 115 158 9 0 159 16 71 160 31 1 161 34 3 162 11 21 163 14 4 164 40 6 165 27 116 166 1 7 167 10 9 168 15 54 169 22 10 170 9 12 171 13 51 172 23 13 173 16 15 174 9 12 175 24 14 176 20 17 177 18 39 178 10 18 179 32 20 180 19 43 181 11 21 182 13 22 183 9 0 184 35 2 185 1 24 186 13 22 187 30 23 188 4 26 189 15 84 190 33 27 191 26 29 192 0 117 193 12 30 194 27 32 195 5 118 196 14 33 197 42 35 198 17 85 199 31 36 200 46 38 201 43 99 202 18 39 203 41 40 204 16 15 205 21 16 206 47 42 207 44 95 208 19 43 209 44 44 210 45 93 211 21 45 212 46 47 213 20 56 214 17 48 215 27 50 216 23 13 217 13 51 218 26 53 219 22 10 220 15 54 221 20 56 222 25 119 223 8 57 224 19 46 225 21 45 226 24 58 227 11 59 228 24 58 229 23 34 230 8 60 231 25 120 232 22 31 233 5 61 234 27 121 235 40 62 236 4 64 237 37 122 238 40 65 239 43 67 240 47 89 241 32 68 242 48 70 243 31 1 244 16 71 245 5 73 246 37 123 247 33 5 248 0 74 249 36 124 250 30 75 251 12 76 252 30 75 253 35 77 254 18 69 255 32 68 256 34 79 257 40 81 258 36 125 259 0 82 260 34 79 261 33 27 262 15 84 263 35 77 264 31 36 265 17 85 266 56 86 267 48 70 268 41 72 269 52 88 270 55 126 271 47 89 272 54 90 273 46 47 274 42 49 275 50 92 276 53 127 277 45 93 278 55 94 279 50 128 280 44 95 281 49 96 282 41 40 283 45 41 284 54 98 285 52 129 286 43 99 287 51 100 288 42 35 289 48 37 290 38 102 291 2 130 292 51 100 293 6 103 294 52 129 295 54 98 296 29 105 297 3 131 298 49 96 299 7 106 300 50 128 301 55 94 302 29 108 303 53 127 304 50 92 305 2 110 306 28 132 307 54 90 308 39 111 309 55 126 310 52 88 311 3 113 312 38 133 313 56 86 314 3 134 315 29 135 316 7 136 317 7 136 318 39 137 319 3 134 320 39 137 321 6 115 322 38 114 323 3 134 324 39 137 325 38 114 326 6 115 327 28 132 328 2 110 329</p>
        </triangles>
      </mesh>
    </geometry>
  </library_geometries>
  <library_visual_scenes>
    <visual_scene id="Scene" name="Scene">
      <node id="a_hair_nok_02" name="a_hair_nok_02" type="NODE">
        <matrix sid="transform">1 0 0 0 0 1 0 0 0 0 1 0 0 0 0 1</matrix>
        <instance_geometry url="#Cubo_034-mesh" name="a_hair_nok_02">
          <bind_material>
            <technique_common>
              <instance_material symbol="A-textura_nok__General-material" target="#A-textura_nok__General-material">
                <bind_vertex_input semantic="MapaUV" input_semantic="TEXCOORD" input_set="0"/>
              </instance_material>
            </technique_common>
          </bind_material>
        </instance_geometry>
      </node>
    </visual_scene>
  </library_visual_scenes>
  <scene>
    <instance_visual_scene url="#Scene"/>
  </scene>
</COLLADA>