<?xml version="1.0" encoding="utf-8"?>
<COLLADA xmlns="http://www.collada.org/2005/11/COLLADASchema" version="1.4.1" xmlns:xsi="http://www.w3.org/2001/XMLSchema-instance">
  <asset>
    <contributor>
      <author>Blender User</author>
      <authoring_tool>Blender 4.3.1 commit date:2024-12-10, commit time:07:46, hash:33d812126174</authoring_tool>
    </contributor>
    <created>2026-08-20T09:13:44</created>
    <modified>2026-08-20T09:13:44</modified>
    <unit name="meter" meter="1"/>
    <up_axis>Z_UP</up_axis>
  </asset>
  <library_effects>
    <effect id="A-textura_nok__General-effect">
      <profile_COMMON>
        <newparam sid="nok_png-surface">
          <surface type="2D">
            <init_from>nok_png</init_from>
          </surface>
        </newparam>
        <newparam sid="nok_png-sampler">
          <sampler2D>
            <source>nok_png-surface</source>
          </sampler2D>
        </newparam>
        <technique sid="common">
          <lambert>
            <emission>
              <color sid="emission">0 0 0 1</color>
            </emission>
            <diffuse>
              <texture texture="nok_png-sampler" texcoord="MapaUV"/>
            </diffuse>
            <index_of_refraction>
              <float sid="ior">1.45</float>
            </index_of_refraction>
          </lambert>
        </technique>
      </profile_COMMON>
    </effect>
  </library_effects>
  <library_images>
    <image id="nok_png" name="nok_png">
      <init_from>nok.png</init_from>
    </image>
  </library_images>
  <library_materials>
    <material id="A-textura_nok__General-material" name="A-textura nok  General">
      <instance_effect url="#A-textura_nok__General-effect"/>
    </material>
  </library_materials>
  <library_geometries>
    <geometry id="Cubo_102-mesh" name="Cubo.102">
      <mesh>
        <source id="Cubo_102-mesh-positions">
          <float_array id="Cubo_102-mesh-positions-array" count="144">0.2112636 0.08079385 0.4690359 0.2108306 0.2731352 0.5016513 -0.2011928 0.07956409 0.4707997 -0.2016258 0.2719054 0.5034151 0.2103958 0.1760063 0.3324969 0.2108306 0.2730956 0.5017085 -0.2020606 0.1747765 0.3342607 -0.2016258 0.2718654 0.5034723 -0.08249855 0.1146264 0.4944949 -0.08293151 0.3881116 0.5836945 -0.08336639 0.2098383 0.3579559 -0.08293151 0.3880715 0.5837517 0.07404136 0.1150932 0.4938254 0.07360839 0.3885388 0.5830822 0.07360839 0.3885784 0.583025 0.07317352 0.2103056 0.3572865 0.2402439 -0.07230138 0.448153 0.2398109 0.01096296 0.624579 -0.230175 -0.07475376 0.448153 -0.2306118 0.008510112 0.6245785 0.2393779 0.09415674 0.4481528 0.2398109 0.01089286 0.624579 -0.2310447 0.09170436 0.4481528 -0.2306118 0.008440017 0.624579 -0.09480094 -0.07404804 0.4904673 -0.09523582 0.009215831 0.7658172 -0.09566879 0.09240961 0.4904676 -0.09523391 0.009146213 0.7658177 0.08373832 -0.07311677 0.4904666 0.08330345 0.01007699 0.7658179 0.08330154 0.01014661 0.7658177 0.08287048 0.09334135 0.4904671 0.1783485 0.1583719 0.3512032 0.1779136 0.3481507 0.2261004 -0.1682796 0.1587457 0.3529711 -0.1687126 0.3485236 0.227868 0.1774806 0.1240344 0.1883249 0.1779136 0.348165 0.2261686 -0.1691493 0.1244082 0.1900925 -0.1687126 0.3485379 0.2279372 -0.06852912 0.2082743 0.3419983 -0.06896018 0.5140948 0.1924324 -0.06939506 0.1739363 0.17912 -0.06896018 0.5141091 0.192501 0.06302642 0.2081322 0.341327 0.06259346 0.513967 0.1918296 0.06259155 0.5139527 0.191761 0.06215667 0.1737952 0.1784486</float_array>
          <technique_common>
            <accessor source="#Cubo_102-mesh-positions-array" count="48" stride="3">
              <param name="X" type="float"/>
              <param name="Y" type="float"/>
              <param name="Z" type="float"/>
            </accessor>
          </technique_common>
        </source>
        <source id="Cubo_102-mesh-normals">
          <float_array id="Cubo_102-mesh-normals-array" count="198">-0.145757 -0.1657174 0.9753423 -0.9999864 -0.002976775 0.00428009 0.1258093 0.860334 -0.493961 0.9999864 0.002976775 -0.00428009 -0.2946607 -0.78472 -0.5453344 0.3357847 -0.7716323 -0.540215 -0.1550785 0.8570451 -0.4913495 0.004990577 -0.3100711 0.9507003 0.1351538 -0.1653542 0.9769296 0 -0.8202616 -0.5719885 -0.004992842 0.7849227 -0.6195736 -0.1275604 -0.897078 0.4230595 -0.9999864 -0.005224943 -9.78002e-6 0.1099501 0.8989658 0.4239947 0.9999865 0.005202054 1.02644e-6 -0.2609871 -0.001357853 -0.9653413 0.2983308 0.001556694 -0.9544613 -0.1369033 0.895699 0.4230612 0.004993796 -0.9571802 0.2894496 0.119311 -0.8977706 0.4239963 -4.01351e-6 1.41138e-6 -1 -0.004994392 0.9571793 0.2894528 -0.178365 0.5412719 0.8217121 -0.9999864 0.001085758 0.005110859 0.15429 0.1642066 -0.9742847 0.9999865 -0.001070201 -0.005102455 -0.4026334 -0.8952388 0.1908769 0.4532799 -0.8726798 0.1815685 -0.187891 0.1638855 -0.9684206 0.005059003 0.4393376 0.8983078 0.1638644 0.5432009 0.823457 -4.13334e-6 -0.9784918 0.2062857 -0.005057394 0.0393114 -0.9992142 -0.3209283 -0.2941391 0.9002706 0.9999969 -0.002017617 -0.001412332 0.2807313 0.7531 -0.5950044 -0.999997 0.002030909 0.001404702 -0.2946607 -0.78472 -0.5453344 0.3357819 -0.7716344 -0.5402138 -0.3303633 0.7411665 -0.5844076 0.004990518 -0.3100711 0.9507003 0.2902947 -0.2963138 0.909905 2.37701e-6 -0.8202602 -0.5719904 -0.004992842 0.7849227 -0.6195736 -0.284308 -0.9178174 0.2770926 0.999997 -1.67483e-5 -0.002461969 0.2479006 0.927423 0.2800571 -0.999997 0 -0.002454042 -0.2609882 -0.001359045 -0.965341 0.29833 0.001557409 -0.9544615 -0.2938605 0.9148037 0.2770925 0.004989326 -0.9571795 0.2894523 0.257554 -0.9247891 0.2800555 -2.68565e-6 2.85061e-6 -1 -0.004990518 0.95718 0.2894505 -0.3787602 0.4061737 0.8316031 0.9999979 0.002007603 -4.15371e-4 0.3332098 0.03663218 -0.9421408 -0.9999979 -0.002013027 4.22325e-4 -0.4026309 -0.8952394 0.1908791 0.4532625 -0.8726912 0.1815575 -0.3880872 0.03672015 -0.9208909 0.005059123 0.4393375 0.8983078 0.3427234 0.4131228 0.843724 2.93069e-6 -0.978493 0.2062801 -0.005057036 0.03931158 -0.9992142</float_array>
          <technique_common>
            <accessor source="#Cubo_102-mesh-normals-array" count="66" stride="3">
              <param name="X" type="float"/>
              <param name="Y" type="float"/>
              <param name="Z" type="float"/>
            </accessor>
          </technique_common>
        </source>
        <source id="Cubo_102-mesh-map-0">
          <float_array id="Cubo_102-mesh-map-0-array" count="396">0.1829493 0.832244 0.2005984 0.7759892 0.2006887 0.8322384 0.1735621 0.7759892 0.1827391 0.8322273 0.1735854 0.8322384 0.1907544 0.8322189 0.2006838 0.7759669 0.2007741 0.8322162 0.1918928 0.8322162 0.2010232 0.7759557 0.2010465 0.8322049 0.1895812 0.7762179 0.1918928 0.8322162 0.1918696 0.7762152 0.1827391 0.8322273 0.1872928 0.7762207 0.1827159 0.7762264 0.1652047 0.775978 0.1830346 0.8322217 0.165295 0.8322273 0.1740796 0.8322468 0.182859 0.7759948 0.1829493 0.832244 0.1651195 0.7760004 0.1740796 0.8322468 0.1652099 0.8322497 0.187316 0.8322217 0.1895812 0.7762179 0.1872928 0.7762207 0.1829442 0.7759724 0.1907544 0.8322189 0.1830346 0.8322217 0.1829493 0.832244 0.2005984 0.7759892 0.2006887 0.8322384 0.1735621 0.7759892 0.1827391 0.8322273 0.1735854 0.8322384 0.1907544 0.8322189 0.2006838 0.7759669 0.2007741 0.8322162 0.1918695 0.7759669 0.2010465 0.8322049 0.1918928 0.8322162 0.1907544 0.8322189 0.1918696 0.7762152 0.1895812 0.7762179 0.1827159 0.7762264 0.187316 0.8322217 0.1872928 0.7762207 0.1652047 0.775978 0.1830346 0.8322217 0.165295 0.8322273 0.1739892 0.7759976 0.1829493 0.832244 0.1740796 0.8322468 0.1651195 0.7760004 0.1740796 0.8322468 0.1652099 0.8322497 0.187316 0.8322217 0.1895812 0.7762179 0.1872928 0.7762207 0.1830346 0.8322217 0.191814 0.7759696 0.1907544 0.8322189 0.1829493 0.832244 0.2005984 0.7759892 0.2006887 0.8322384 0.1735854 0.8322384 0.1827158 0.775978 0.1827391 0.8322273 0.1907544 0.8322189 0.2006838 0.7759669 0.2007741 0.8322162 0.1918695 0.7759669 0.2010465 0.8322049 0.1918928 0.8322162 0.1895812 0.7762179 0.1918928 0.8322162 0.1918696 0.7762152 0.1827159 0.7762264 0.187316 0.8322217 0.1872928 0.7762207 0.1652047 0.775978 0.1830346 0.8322217 0.165295 0.8322273 0.1739892 0.7759976 0.1829493 0.832244 0.1740796 0.8322468 0.1651195 0.7760004 0.1740796 0.8322468 0.1652099 0.8322497 0.187316 0.8322217 0.1895812 0.7762179 0.1872928 0.7762207 0.1829442 0.7759724 0.1907544 0.8322189 0.1830346 0.8322217 0.1829493 0.832244 0.182859 0.7759948 0.2005984 0.7759892 0.1735621 0.7759892 0.1827158 0.775978 0.1827391 0.8322273 0.1907544 0.8322189 0.191814 0.7759696 0.2006838 0.7759669 0.1918928 0.8322162 0.1918695 0.7759669 0.2010232 0.7759557 0.1895812 0.7762179 0.1907544 0.8322189 0.1918928 0.8322162 0.1827391 0.8322273 0.187316 0.8322217 0.1872928 0.7762207 0.1652047 0.775978 0.1829442 0.7759724 0.1830346 0.8322217 0.1740796 0.8322468 0.1739892 0.7759976 0.182859 0.7759948 0.1651195 0.7760004 0.1739892 0.7759976 0.1740796 0.8322468 0.187316 0.8322217 0.1907544 0.8322189 0.1895812 0.7762179 0.1829442 0.7759724 0.191814 0.7759696 0.1907544 0.8322189 0.1829493 0.832244 0.182859 0.7759948 0.2005984 0.7759892 0.1735621 0.7759892 0.1827158 0.775978 0.1827391 0.8322273 0.1907544 0.8322189 0.191814 0.7759696 0.2006838 0.7759669 0.1918695 0.7759669 0.2010232 0.7759557 0.2010465 0.8322049 0.1907544 0.8322189 0.1918928 0.8322162 0.1918696 0.7762152 0.1827159 0.7762264 0.1827391 0.8322273 0.187316 0.8322217 0.1652047 0.775978 0.1829442 0.7759724 0.1830346 0.8322217 0.1739892 0.7759976 0.182859 0.7759948 0.1829493 0.832244 0.1651195 0.7760004 0.1739892 0.7759976 0.1740796 0.8322468 0.187316 0.8322217 0.1907544 0.8322189 0.1895812 0.7762179 0.1830346 0.8322217 0.1829442 0.7759724 0.191814 0.7759696 0.1829493 0.832244 0.182859 0.7759948 0.2005984 0.7759892 0.1735854 0.8322384 0.1735621 0.7759892 0.1827158 0.775978 0.1907544 0.8322189 0.191814 0.7759696 0.2006838 0.7759669 0.1918695 0.7759669 0.2010232 0.7759557 0.2010465 0.8322049 0.1895812 0.7762179 0.1907544 0.8322189 0.1918928 0.8322162 0.1827159 0.7762264 0.1827391 0.8322273 0.187316 0.8322217 0.1652047 0.775978 0.1829442 0.7759724 0.1830346 0.8322217 0.1739892 0.7759976 0.182859 0.7759948 0.1829493 0.832244 0.1651195 0.7760004 0.1739892 0.7759976 0.1740796 0.8322468 0.187316 0.8322217 0.1907544 0.8322189 0.1895812 0.7762179 0.1829442 0.7759724 0.191814 0.7759696 0.1907544 0.8322189</float_array>
          <technique_common>
            <accessor source="#Cubo_102-mesh-map-0-array" count="198" stride="2">
              <param name="S" type="float"/>
              <param name="T" type="float"/>
            </accessor>
          </technique_common>
        </source>
        <vertices id="Cubo_102-mesh-vertices">
          <input semantic="POSITION" source="#Cubo_102-mesh-positions"/>
        </vertices>
        <triangles material="A-textura_nok__General-material" count="66">
          <input semantic="VERTEX" source="#Cubo_102-mesh-vertices" offset="0"/>
          <input semantic="NORMAL" source="#Cubo_102-mesh-normals" offset="1"/>
          <input semantic="TEXCOORD" source="#Cubo_102-mesh-map-0" offset="2" set="0"/>
          <p>8 0 0 3 0 1 2 0 2 3 1 3 6 1 4 2 1 5 15 2 6 5 2 7 4 2 8 4 3 9 1 3 10 0 3 11 12 4 12 4 4 13 0 4 14 6 5 15 8 5 16 2 5 17 7 6 18 10 6 19 6 6 20 12 7 21 9 7 22 8 7 23 1 8 24 12 8 25 0 8 26 10 9 27 12 9 28 8 9 29 11 10 30 15 10 31 10 10 32 24 11 33 19 11 34 18 11 35 19 12 36 22 12 37 18 12 38 31 13 39 21 13 40 20 13 41 21 14 42 16 14 43 20 14 44 31 15 45 16 15 46 28 15 47 18 16 48 26 16 49 24 16 50 23 17 51 26 17 52 22 17 53 30 18 54 24 18 55 28 18 56 17 19 57 28 19 58 16 19 59 26 20 60 28 20 61 24 20 62 26 21 63 29 21 64 31 21 65 40 22 66 35 22 67 34 22 68 34 23 69 39 23 70 38 23 71 47 24 72 37 24 73 36 24 74 37 25 75 32 25 76 36 25 77 44 26 78 36 26 79 32 26 80 34 27 81 42 27 82 40 27 83 39 28 84 42 28 85 38 28 86 46 29 87 40 29 88 44 29 89 33 30 90 44 30 91 32 30 92 42 31 93 44 31 94 40 31 95 43 32 96 47 32 97 42 32 98 8 33 99 9 33 100 3 33 101 3 34 102 7 34 103 6 34 104 15 35 105 13 35 106 5 35 107 4 36 108 5 36 109 1 36 110 12 37 111 15 37 112 4 37 113 6 38 114 10 38 115 8 38 116 7 39 117 11 39 118 10 39 119 12 40 120 14 40 121 9 40 122 1 41 123 14 41 124 12 41 125 10 42 126 15 42 127 12 42 128 11 43 129 13 43 130 15 43 131 24 44 132 25 44 133 19 44 134 19 45 135 23 45 136 22 45 137 31 46 138 29 46 139 21 46 140 21 47 141 17 47 142 16 47 143 31 48 144 20 48 145 16 48 146 18 49 147 22 49 148 26 49 149 23 50 150 27 50 151 26 50 152 30 51 153 25 51 154 24 51 155 17 52 156 30 52 157 28 52 158 26 53 159 31 53 160 28 53 161 26 54 162 27 54 163 29 54 164 40 55 165 41 55 166 35 55 167 34 56 168 35 56 169 39 56 170 47 57 171 45 57 172 37 57 173 37 58 174 33 58 175 32 58 176 44 59 177 47 59 178 36 59 179 34 60 180 38 60 181 42 60 182 39 61 183 43 61 184 42 61 185 46 62 186 41 62 187 40 62 188 33 63 189 46 63 190 44 63 191 42 64 192 47 64 193 44 64 194 43 65 195 45 65 196 47 65 197</p>
        </triangles>
      </mesh>
    </geometry>
  </library_geometries>
  <library_visual_scenes>
    <visual_scene id="Scene" name="Scene">
      <node id="a_hair_female_07" name="a_hair_female_07" type="NODE">
        <matrix sid="transform">1 0 0 0 0 1 0 0 0 0 1 0 0 0 0 1</matrix>
        <instance_geometry url="#Cubo_102-mesh" name="a_hair_female_07">
          <bind_material>
            <technique_common>
              <instance_material symbol="A-textura_nok__General-material" target="#A-textura_nok__General-material">
                <bind_vertex_input semantic="MapaUV" input_semantic="TEXCOORD" input_set="0"/>
              </instance_material>
            </technique_common>
          </bind_material>
        </instance_geometry>
      </node>
    </visual_scene>
  </library_visual_scenes>
  <scene>
    <instance_visual_scene url="#Scene"/>
  </scene>
</COLLADA>