<?xml version="1.0" encoding="utf-8"?>
<COLLADA xmlns="http://www.collada.org/2005/11/COLLADASchema" version="1.4.1" xmlns:xsi="http://www.w3.org/2001/XMLSchema-instance">
  <asset>
    <contributor>
      <author>Blender User</author>
      <authoring_tool>Blender 4.3.1 commit date:2024-12-10, commit time:07:46, hash:33d812126174</authoring_tool>
    </contributor>
    <created>2026-08-20T09:13:44</created>
    <modified>2026-08-20T09:13:44</modified>
    <unit name="meter" meter="1"/>
    <up_axis>Z_UP</up_axis>
  </asset>
  <library_effects>
    <effect id="A-textura_nok__General-effect">
      <profile_COMMON>
        <newparam sid="nok_png-surface">
          <surface type="2D">
            <init_from>nok_png</init_from>
          </surface>
        </newparam>
        <newparam sid="nok_png-sampler">
          <sampler2D>
            <source>nok_png-surface</source>
          </sampler2D>
        </newparam>
        <technique sid="common">
          <lambert>
            <emission>
              <color sid="emission">0 0 0 1</color>
            </emission>
            <diffuse>
              <texture texture="nok_png-sampler" texcoord="MapaUV"/>
            </diffuse>
            <index_of_refraction>
              <float sid="ior">1.45</float>
            </index_of_refraction>
          </lambert>
        </technique>
      </profile_COMMON>
    </effect>
  </library_effects>
  <library_images>
    <image id="nok_png" name="nok_png">
      <init_from>nok.png</init_from>
    </image>
  </library_images>
  <library_materials>
    <material id="A-textura_nok__General-material" name="A-textura nok  General">
      <instance_effect url="#A-textura_nok__General-effect"/>
    </material>
  </library_materials>
  <library_geometries>
    <geometry id="Cubo_070-mesh" name="Cubo.070">
      <mesh>
        <source id="Cubo_070-mesh-positions">
          <float_array id="Cubo_070-mesh-positions-array" count="132">-0.06463813 0.2253732 0.2879291 -0.06463813 0.2253732 0.4172104 -0.06463813 0.3546543 0.2879291 -0.06463813 0.3546543 0.4172104 0.06464195 0.2253732 0.2879291 0.06464195 0.2253732 0.4172104 0.06464195 0.3546543 0.2879291 0.06464195 0.3546543 0.4172104 -0.09317398 0.1968383 0.3525698 -0.09317398 0.3831892 0.3525698 0.09317779 0.3831892 0.3525698 0.09317779 0.1968383 0.3525698 -0.08707046 0.2900133 0.2654982 -0.08707046 0.2900133 0.4396412 0.08707427 0.2900133 0.2654982 0.08707427 0.2900133 0.4396412 0.1255092 0.2900133 0.3525698 -0.1255054 0.2900133 0.3525698 1.90735e-6 0.3798285 0.2627549 1.90735e-6 0.3798285 0.4423845 1.90735e-6 0.2001981 0.2627549 1.90735e-6 0.2001981 0.4423845 1.90735e-6 0.160551 0.3525698 1.90735e-6 0.4194765 0.3525698 1.90735e-6 0.2900133 0.4735508 1.90735e-6 0.2900133 0.2315888 -0.1182727 -0.2124834 0.3760583 -0.1182727 -0.2360639 0.4378069 -0.03970146 0.07959461 0.4875963 -0.03970146 0.05601406 0.5493448 0.1182708 -0.2124834 0.3760583 0.1182708 -0.2360639 0.4378069 0.03969764 0.07959461 0.4875963 0.03969764 0.05601406 0.5493448 -0.1182727 -0.06644439 0.4318276 -0.1182727 -0.09002494 0.4935756 0.1182708 -0.06644439 0.4318276 0.1182708 -0.09002494 0.4935756 -1.90735e-6 0.07959461 0.4875963 -1.90735e-6 0.05601406 0.5493448 -1.90735e-6 -0.243577 0.3738961 -1.90735e-6 -0.2671566 0.4356444 -1.90735e-6 -0.09002494 0.4935756 -1.90735e-6 -0.06644439 0.4318276</float_array>
          <technique_common>
            <accessor source="#Cubo_070-mesh-positions-array" count="44" stride="3">
              <param name="X" type="float"/>
              <param name="Y" type="float"/>
              <param name="Z" type="float"/>
            </accessor>
          </technique_common>
        </source>
        <source id="Cubo_070-mesh-normals">
          <float_array id="Cubo_070-mesh-normals-array" count="240">-0.8236688 0.285808 0.4897792 0.3150691 0.8090112 0.4962182 0.8236675 -0.2858105 0.4897797 -0.3150691 -0.8090112 0.4962182 0.4440616 -0.2937313 -0.8464817 -0.444062 -0.2937332 0.8464809 -0.4568444 -0.8137855 -0.3592303 0.8318726 -0.4161126 -0.3672034 0.4568361 0.8137862 -0.3592393 -0.8318748 0.4161075 -0.3672043 -0.8318726 -0.4161126 -0.3672034 0.8318747 0.4161075 -0.3672043 -0.4440585 0.2937337 0.8464824 0.4440581 0.2937318 -0.8464834 0.8236688 0.285808 0.4897792 -0.8236675 -0.2858105 0.4897797 -0.3310164 0.4098231 -0.8499842 0.3310184 0.4098234 0.8499833 -0.4568361 0.8137862 -0.3592393 0.4568444 -0.8137855 -0.3592303 0.3310176 -0.4098285 0.8499811 -0.3310156 -0.4098281 -0.8499821 0.315069 -0.8090112 0.4962182 -0.315069 0.8090112 0.4962182 -0.8934907 0.4195316 0.1602109 0 0.934199 0.3567524 1 0 0 -0.2444739 -0.9058516 -0.3459271 -0.06421256 0.3102073 -0.9484978 -0.06420928 -0.3102077 0.948498 0 -0.356751 0.9341995 0 0.3567483 -0.9342005 0.8934863 0.4195398 0.1602141 -1 0 0 0 0.3567484 -0.9342005 0 -0.356751 0.9341995 0 -0.3567484 0.9342006 0 0.356751 -0.9341995 0.2444702 -0.9058524 -0.3459274 0 0.934199 0.3567524 -0.8318742 0.4161077 0.3672052 0.4568362 0.8137858 0.3592401 0.8318722 -0.4161128 0.3672042 -0.4568446 -0.8137851 0.3592311 0.3310156 -0.4098281 -0.8499821 -0.3310176 -0.4098285 0.8499811 -0.3150693 -0.8090119 -0.4962168 0.8236683 -0.2858108 -0.4897784 0.3150693 0.8090119 -0.4962168 -0.8236694 0.2858083 -0.4897778 -0.8236683 -0.2858108 -0.4897784 0.8236694 0.2858083 -0.4897778 -0.3310184 0.4098235 0.8499833 0.3310164 0.4098231 -0.8499842 0.8318742 0.4161077 0.3672052 -0.8318722 -0.4161128 0.3672042 -0.4440581 0.2937318 -0.8464834 0.4440585 0.2937337 0.8464824 -0.3150693 0.8090119 -0.4962168 0.3150693 -0.8090119 -0.4962168 0.4440619 -0.2937332 0.8464808 -0.4440616 -0.2937313 -0.8464818 0.4568446 -0.8137851 0.3592311 -0.4568362 0.8137858 0.3592401 -0.8934909 0.4195308 0.1602119 0 0.934199 0.3567524 1 0 0 -0.2444686 -0.9058569 -0.3459165 0 0.356751 -0.9341995 0 -0.3567484 0.9342005 0 -0.356751 0.9341995 0 0.3567484 -0.9342006 0.8934865 0.4195389 0.160215 -1 0 0 0 0.3567483 -0.9342005 0 -0.356751 0.9341995 0.06420826 -0.3102077 0.948498 0.06421363 0.3102073 -0.9484978 0.2444649 -0.9058578 -0.3459168 0 0.934199 0.3567524</float_array>
          <technique_common>
            <accessor source="#Cubo_070-mesh-normals-array" count="80" stride="3">
              <param name="X" type="float"/>
              <param name="Y" type="float"/>
              <param name="Z" type="float"/>
            </accessor>
          </technique_common>
        </source>
        <source id="Cubo_070-mesh-map-0">
          <float_array id="Cubo_070-mesh-map-0-array" count="480">0.5118961 0.4585174 0.5179663 0.4645876 0.5118961 0.4645876 0.5118961 0.4706578 0.5179663 0.4767279 0.5118961 0.4767279 0.5118961 0.482798 0.5179663 0.4888683 0.5118961 0.4888683 0.5118961 0.4949384 0.5179663 0.5010086 0.5118961 0.5010086 0.4997557 0.4827981 0.5058259 0.4888683 0.4997557 0.4888683 0.5240364 0.4827981 0.5301066 0.4888683 0.5240364 0.4888683 0.5118961 0.4949384 0.5058259 0.5010086 0.5058259 0.4949384 0.5118961 0.482798 0.5058259 0.4888683 0.5058259 0.4827982 0.5118961 0.4706578 0.5058259 0.4767279 0.5058259 0.4706578 0.5118961 0.4585174 0.5058259 0.4645876 0.5058259 0.4585174 0.5058259 0.4524472 0.5118961 0.4585174 0.5058259 0.4585174 0.5058259 0.4767279 0.5118961 0.482798 0.5058259 0.4827982 0.5301066 0.4767279 0.5240364 0.4827981 0.5240364 0.4767279 0.5058259 0.4767279 0.4997557 0.4827981 0.4997557 0.4767279 0.5179663 0.4767279 0.5118961 0.482798 0.5118961 0.4767279 0.5179663 0.4524472 0.5118961 0.4585174 0.5118961 0.4524472 0.4936855 0.4767279 0.4997557 0.4827981 0.4936855 0.4827981 0.5179663 0.4767279 0.5240364 0.4827981 0.5179663 0.4827981 0.5058259 0.4645876 0.5118961 0.4706578 0.5058259 0.4706578 0.5058259 0.4888683 0.5118961 0.4949384 0.5058259 0.4949384 0.5240364 0.4827981 0.5179663 0.4888683 0.5179663 0.4827981 0.4997557 0.4827981 0.4936855 0.4888683 0.4936855 0.4827981 0.5179663 0.4888683 0.5118961 0.4949384 0.5118961 0.4888683 0.5179663 0.4645876 0.5118961 0.4706578 0.5118961 0.4645876 0.5058259 0.4585174 0.5179663 0.4645876 0.5058259 0.4645876 0.5179663 0.4706578 0.5058259 0.4767279 0.5058259 0.4706578 0.5179663 0.4827981 0.5058259 0.4888683 0.5058259 0.4827981 0.5058259 0.4949384 0.5179663 0.5010086 0.5058259 0.5010086 0.4997557 0.4827981 0.5058259 0.4888683 0.4997557 0.4888683 0.5240365 0.4827981 0.5301066 0.4888683 0.5240365 0.4888683 0.5301066 0.4767279 0.5240365 0.4827981 0.5240365 0.4767279 0.5058259 0.4767279 0.4997557 0.4827981 0.4997557 0.4767279 0.5179663 0.4767279 0.5058259 0.4827981 0.5058259 0.4767279 0.5058259 0.4524472 0.5179663 0.4585174 0.5058259 0.4585174 0.4936855 0.4767279 0.4997557 0.4827981 0.4936855 0.4827981 0.5179663 0.4767279 0.5240365 0.4827981 0.5179663 0.4827981 0.5240365 0.4827981 0.5179663 0.4888683 0.5179663 0.4827981 0.4997557 0.4827981 0.4936855 0.4888683 0.4936855 0.4827981 0.5179663 0.4888683 0.5058259 0.4949384 0.5058259 0.4888683 0.5179663 0.4645876 0.5058259 0.4706578 0.5058259 0.4645876 0.5118961 0.4585174 0.5179663 0.4585174 0.5179663 0.4645876 0.5118961 0.4706578 0.5179663 0.4706578 0.5179663 0.4767279 0.5118961 0.482798 0.5179663 0.4827981 0.5179663 0.4888683 0.5118961 0.4949384 0.5179663 0.4949384 0.5179663 0.5010086 0.4997557 0.4827981 0.5058259 0.4827982 0.5058259 0.4888683 0.5240364 0.4827981 0.5301066 0.4827981 0.5301066 0.4888683 0.5118961 0.4949384 0.5118961 0.5010086 0.5058259 0.5010086 0.5118961 0.482798 0.5118961 0.4888683 0.5058259 0.4888683 0.5118961 0.4706578 0.5118961 0.4767279 0.5058259 0.4767279 0.5118961 0.4585174 0.5118961 0.4645876 0.5058259 0.4645876 0.5058259 0.4524472 0.5118961 0.4524472 0.5118961 0.4585174 0.5058259 0.4767279 0.5118961 0.4767279 0.5118961 0.482798 0.5301066 0.4767279 0.5301066 0.4827981 0.5240364 0.4827981 0.5058259 0.4767279 0.5058259 0.4827982 0.4997557 0.4827981 0.5179663 0.4767279 0.5179663 0.4827981 0.5118961 0.482798 0.5179663 0.4524472 0.5179663 0.4585174 0.5118961 0.4585174 0.4936855 0.4767279 0.4997557 0.4767279 0.4997557 0.4827981 0.5179663 0.4767279 0.5240364 0.4767279 0.5240364 0.4827981 0.5058259 0.4645876 0.5118961 0.4645876 0.5118961 0.4706578 0.5058259 0.4888683 0.5118961 0.4888683 0.5118961 0.4949384 0.5240364 0.4827981 0.5240364 0.4888683 0.5179663 0.4888683 0.4997557 0.4827981 0.4997557 0.4888683 0.4936855 0.4888683 0.5179663 0.4888683 0.5179663 0.4949384 0.5118961 0.4949384 0.5179663 0.4645876 0.5179663 0.4706578 0.5118961 0.4706578 0.5058259 0.4585174 0.5179663 0.4585174 0.5179663 0.4645876 0.5179663 0.4706578 0.5179663 0.4767279 0.5058259 0.4767279 0.5179663 0.4827981 0.5179663 0.4888683 0.5058259 0.4888683 0.5058259 0.4949384 0.5179663 0.4949384 0.5179663 0.5010086 0.4997557 0.4827981 0.5058259 0.4827981 0.5058259 0.4888683 0.5240365 0.4827981 0.5301066 0.4827981 0.5301066 0.4888683 0.5301066 0.4767279 0.5301066 0.4827981 0.5240365 0.4827981 0.5058259 0.4767279 0.5058259 0.4827981 0.4997557 0.4827981 0.5179663 0.4767279 0.5179663 0.4827981 0.5058259 0.4827981 0.5058259 0.4524472 0.5179663 0.4524472 0.5179663 0.4585174 0.4936855 0.4767279 0.4997557 0.4767279 0.4997557 0.4827981 0.5179663 0.4767279 0.5240365 0.4767279 0.5240365 0.4827981 0.5240365 0.4827981 0.5240365 0.4888683 0.5179663 0.4888683 0.4997557 0.4827981 0.4997557 0.4888683 0.4936855 0.4888683 0.5179663 0.4888683 0.5179663 0.4949384 0.5058259 0.4949384 0.5179663 0.4645876 0.5179663 0.4706578 0.5058259 0.4706578</float_array>
          <technique_common>
            <accessor source="#Cubo_070-mesh-map-0-array" count="240" stride="2">
              <param name="S" type="float"/>
              <param name="T" type="float"/>
            </accessor>
          </technique_common>
        </source>
        <vertices id="Cubo_070-mesh-vertices">
          <input semantic="POSITION" source="#Cubo_070-mesh-positions"/>
        </vertices>
        <triangles material="A-textura_nok__General-material" count="80">
          <input semantic="VERTEX" source="#Cubo_070-mesh-vertices" offset="0"/>
          <input semantic="NORMAL" source="#Cubo_070-mesh-normals" offset="1"/>
          <input semantic="TEXCOORD" source="#Cubo_070-mesh-map-0" offset="2" set="0"/>
          <p>17 0 0 3 0 1 9 0 2 23 1 3 7 1 4 10 1 5 16 2 6 5 2 7 11 2 8 22 3 9 1 3 10 8 3 11 25 4 12 4 4 13 20 4 14 24 5 15 1 5 16 21 5 17 22 6 18 0 6 19 20 6 20 16 7 21 4 7 22 14 7 23 23 8 24 6 8 25 18 8 26 17 9 27 2 9 28 12 9 29 0 10 30 17 10 31 12 10 32 6 11 33 16 11 34 14 11 35 3 12 36 24 12 37 19 12 38 6 13 39 25 13 40 18 13 41 7 14 42 16 14 43 10 14 44 1 15 45 17 15 46 8 15 47 2 16 48 25 16 49 12 16 50 7 17 51 24 17 52 15 17 53 2 18 54 23 18 55 18 18 56 4 19 57 22 19 58 20 19 59 24 20 60 5 20 61 15 20 62 25 21 63 0 21 64 12 21 65 5 22 66 22 22 67 11 22 68 3 23 69 23 23 70 9 23 71 34 24 72 29 24 73 28 24 74 39 25 75 32 25 76 38 25 77 37 26 78 30 26 79 36 26 80 40 27 81 27 27 82 26 27 83 43 28 84 30 28 85 40 28 86 42 29 87 27 29 88 41 29 89 29 30 90 42 30 91 39 30 92 32 31 93 43 31 94 38 31 95 33 32 96 36 32 97 32 32 98 26 33 99 35 33 100 34 33 101 28 34 102 43 34 103 34 34 104 33 35 105 42 35 106 37 35 107 42 36 108 31 36 109 37 36 110 43 37 111 26 37 112 34 37 113 31 38 114 40 38 115 30 38 116 29 39 117 38 39 118 28 39 119 17 40 120 13 40 121 3 40 122 23 41 123 19 41 124 7 41 125 16 42 126 15 42 127 5 42 128 22 43 129 21 43 130 1 43 131 25 44 132 14 44 133 4 44 134 24 45 135 13 45 136 1 45 137 22 46 138 8 46 139 0 46 140 16 47 141 11 47 142 4 47 143 23 48 144 10 48 145 6 48 146 17 49 147 9 49 148 2 49 149 0 50 150 8 50 151 17 50 152 6 51 153 10 51 154 16 51 155 3 52 156 13 52 157 24 52 158 6 53 159 14 53 160 25 53 161 7 54 162 15 54 163 16 54 164 1 55 165 13 55 166 17 55 167 2 56 168 18 56 169 25 56 170 7 57 171 19 57 172 24 57 173 2 58 174 9 58 175 23 58 176 4 59 177 11 59 178 22 59 179 24 60 180 21 60 181 5 60 182 25 61 183 20 61 184 0 61 185 5 62 186 21 62 187 22 62 188 3 63 189 19 63 190 23 63 191 34 64 192 35 64 193 29 64 194 39 65 195 33 65 196 32 65 197 37 66 198 31 66 199 30 66 200 40 67 201 41 67 202 27 67 203 43 68 204 36 68 205 30 68 206 42 69 207 35 69 208 27 69 209 29 70 210 35 70 211 42 70 212 32 71 213 36 71 214 43 71 215 33 72 216 37 72 217 36 72 218 26 73 219 27 73 220 35 73 221 28 74 222 38 74 223 43 74 224 33 75 225 39 75 226 42 75 227 42 76 228 41 76 229 31 76 230 43 77 231 40 77 232 26 77 233 31 78 234 41 78 235 40 78 236 29 79 237 39 79 238 38 79 239</p>
        </triangles>
      </mesh>
    </geometry>
  </library_geometries>
  <library_visual_scenes>
    <visual_scene id="Scene" name="Scene">
      <node id="a_hair_female_03" name="a_hair_female_03" type="NODE">
        <matrix sid="transform">1 0 0 0 0 1 0 0 0 0 1 0 0 0 0 1</matrix>
        <instance_geometry url="#Cubo_070-mesh" name="a_hair_female_03">
          <bind_material>
            <technique_common>
              <instance_material symbol="A-textura_nok__General-material" target="#A-textura_nok__General-material">
                <bind_vertex_input semantic="MapaUV" input_semantic="TEXCOORD" input_set="0"/>
              </instance_material>
            </technique_common>
          </bind_material>
        </instance_geometry>
      </node>
    </visual_scene>
  </library_visual_scenes>
  <scene>
    <instance_visual_scene url="#Scene"/>
  </scene>
</COLLADA>