<?xml version="1.0" encoding="utf-8"?>
<COLLADA xmlns="http://www.collada.org/2005/11/COLLADASchema" version="1.4.1" xmlns:xsi="http://www.w3.org/2001/XMLSchema-instance">
  <asset>
    <contributor>
      <author>Blender User</author>
      <authoring_tool>Blender 4.3.1 commit date:2024-12-10, commit time:07:46, hash:33d812126174</authoring_tool>
    </contributor>
    <created>2026-08-20T09:13:44</created>
    <modified>2026-08-20T09:13:44</modified>
    <unit name="meter" meter="1"/>
    <up_axis>Z_UP</up_axis>
  </asset>
  <library_effects>
    <effect id="A-textura_nok__General-effect">
      <profile_COMMON>
        <newparam sid="nok_png-surface">
          <surface type="2D">
            <init_from>nok_png</init_from>
          </surface>
        </newparam>
        <newparam sid="nok_png-sampler">
          <sampler2D>
            <source>nok_png-surface</source>
          </sampler2D>
        </newparam>
        <technique sid="common">
          <lambert>
            <emission>
              <color sid="emission">0 0 0 1</color>
            </emission>
            <diffuse>
              <texture texture="nok_png-sampler" texcoord="MapaUV"/>
            </diffuse>
            <index_of_refraction>
              <float sid="ior">1.45</float>
            </index_of_refraction>
          </lambert>
        </technique>
      </profile_COMMON>
    </effect>
  </library_effects>
  <library_images>
    <image id="nok_png" name="nok_png">
      <init_from>nok.png</init_from>
    </image>
  </library_images>
  <library_materials>
    <material id="A-textura_nok__General-material" name="A-textura nok  General">
      <instance_effect url="#A-textura_nok__General-effect"/>
    </material>
  </library_materials>
  <library_geometries>
    <geometry id="Cubo_033-mesh" name="Cubo.033">
      <mesh>
        <source id="Cubo_033-mesh-positions">
          <float_array id="Cubo_033-mesh-positions-array" count="174">-0.1090102 -0.1950002 0.3999935 -0.05932414 -0.2396553 0.6479887 -0.1090102 0.1532129 0.3999935 -0.05932414 0.2396553 0.6479887 0.1090102 -0.1950002 0.3999935 0.05932432 -0.2396553 0.6479887 0.1090102 0.1532129 0.3999935 0.05932432 0.2396553 0.6479887 -0.1090102 0 0.3457471 -0.1257833 -4.04991e-4 0.4723142 0.1090103 0 0.3457471 0.1257833 -4.04991e-4 0.4723142 -0.1090102 -0.07181423 0.3457471 0.1257833 -0.1225652 0.5054759 -0.1257833 -0.1225652 0.5054759 0.1090103 -0.07181423 0.3457471 -0.1257833 0.1348566 0.492123 0.1090103 0.07181423 0.3457471 -0.1090102 0.07181423 0.3457471 0.1257833 0.1348566 0.492123 -0.1128802 -0.1900767 0.4824467 -0.1128802 0.1900767 0.4824467 0.1128803 0.1900767 0.4824467 0.1128803 -0.1900767 0.4824467 0.165542 0 0.4198547 -0.165542 0 0.4198547 -0.165542 -0.1089428 0.4358504 0.165542 -0.1089428 0.4358504 0.165542 0.1089428 0.4358504 -0.165542 0.1089428 0.4358504 0 0.1950002 0.3999935 0 0.1314162 0.7969377 0 -0.1950002 0.3999935 0 -0.1314162 0.7969377 0 -4.04991e-4 0.4732132 0 0 0.3457471 0 -0.1409044 0.5547961 0 -0.07181423 0.3457471 0 0.07181423 0.3457471 0 0.1525883 0.5414432 0 -0.2717768 0.4824467 0 0.2717768 0.4824467 -0.1090102 -0.09855562 0.3457471 0.09255385 -0.1634141 0.5909604 -0.09255373 -0.1634141 0.5909604 0.1090103 -0.09855562 0.3457471 -0.1392111 -0.1495097 0.4591485 0.1392111 -0.1495097 0.4591485 0 -0.1659832 0.6540532 0 -0.09855568 0.3457471 -0.09255373 0.175098 0.5776075 0.1090103 0.09855562 0.3457471 -0.1090102 0.09855562 0.3457471 0.09255385 0.175098 0.5776075 0.1392111 0.1495097 0.4591485 -0.1392111 0.1495097 0.4591485 0 0.1659832 0.6540532 0 0.09855568 0.3457471</float_array>
          <technique_common>
            <accessor source="#Cubo_033-mesh-positions-array" count="58" stride="3">
              <param name="X" type="float"/>
              <param name="Y" type="float"/>
              <param name="Z" type="float"/>
            </accessor>
          </technique_common>
        </source>
        <source id="Cubo_033-mesh-normals">
          <float_array id="Cubo_033-mesh-normals-array" count="408">-0.9387627 0.236223 0.2508449 -0.887533 0.3867293 0.2504512 -0.8772591 0.2612835 0.4026754 -2.57282e-7 0.9982068 0.0598613 -0.3006098 0.9103657 0.2843734 0.5854982 0.8089489 -0.05285483 0.9370424 -0.2434054 0.2504107 0.8823916 -0.4374915 0.1731659 0.9080728 -0.4143884 0.06071507 -3.0406e-7 -0.9982068 0.0598613 0.3006112 -0.9103652 0.2843735 -0.5854985 -0.8089486 -0.05285429 0 -0.2533948 -0.9673629 2.49397e-7 -0.4902365 -0.8715895 0 -0.4902364 -0.8715896 -0.7706418 0.6037725 0.2038873 -0.7096223 0.5335388 0.4601876 -0.7637044 0.6274654 -0.151798 -0.1749853 -0.2940841 0.9396247 0 -0.2724243 0.9621772 0 -0.4072995 0.9132947 -1.6995e-7 0 -1 0 0 -1 0 0 -1 0.8138666 -0.01303207 0.5809057 0.8089827 0.01268076 0.5876956 0.7969726 -3.10437e-4 0.6040155 -0.8553741 0.001052141 0.5180097 -0.8089821 0.01268082 0.5876964 -0.7969719 -3.10371e-4 0.6040164 -0.9080724 -0.4143891 0.06071519 -0.9135754 -0.06229317 0.4018703 0 0.3854482 0.9227295 -0.152836 0.3964454 0.905247 0 0.5021471 0.8647822 -3.40131e-7 0 -1 0 0 -1 0.8553746 0.00105226 0.5180088 0.8772597 0.2612824 0.4026747 0.8905393 0.01860976 0.4545256 -2.87854e-7 0 -1 0 0 -1 -0.1086171 -0.9445359 0.3099266 0 -0.9668945 0.2551767 0 -0.9929998 0.1181169 -0.8138661 -0.01303184 0.5809065 -0.817767 0 -0.5755496 -0.8273695 0.02577352 -0.5610665 -0.7950751 0 -0.6065111 0.8362357 0.1852689 -0.5161253 0.7418389 0.4197654 -0.5229457 0.8273699 0.02577352 -0.5610659 0.8177674 0 -0.575549 0.8273699 -0.02577352 -0.5610658 0.7950755 0 -0.6065105 -0.8596443 -0.1510753 -0.4880452 -0.7418383 -0.4197657 -0.5229462 -0.8273695 -0.02577352 -0.5610665 -0.3334633 -0.8510038 -0.405703 -0.2515158 -0.923643 -0.2891774 -4.13726e-7 -0.998222 0.05960631 0.9220886 -0.3086822 -0.2333838 0.8596447 -0.1510751 -0.4880445 0 0.6894 -0.7243809 0.5008963 0.7401203 -0.4486925 0.5195362 0.6488934 -0.5558954 -0.6984124 0.6090267 -0.3759077 -0.519536 0.6488932 -0.5558956 -0.8362354 0.1852691 -0.5161259 -0.5008963 0.7401202 -0.4486925 0.2515155 -0.923643 -0.2891773 0.3334632 -0.8510038 -0.4057033 4.24133e-7 -0.998222 0.05960631 0.1086169 -0.9445359 0.3099266 0.04614168 -0.8967696 0.4400857 2.87854e-7 0 -1 1.6995e-7 0 -1 3.40132e-7 0 -1 0 0 -1 0.1528359 0.3964453 0.9052472 0.00689733 0.2619726 0.9650508 0.1749851 -0.2940841 0.9396249 0.007071197 -0.1448984 0.9894214 0.7706409 0.603774 0.2038868 0.7096213 0.53354 0.4601877 0.5199022 0.3546805 0.7771122 -2.49398e-7 -0.4902365 -0.8715895 2.76454e-7 -0.2533923 -0.9673636 -0.3006098 -0.9103657 0.2843735 0.5854981 -0.8089489 -0.05285477 0.3006112 0.9103652 0.2843735 -0.5854985 0.8089488 -0.05285429 0 0.9439088 0.3302062 0.08253097 0.9270302 0.365792 0.04387712 0.8946669 0.4445739 0.7418389 -0.4197654 -0.5229457 -0.9220884 -0.3086823 -0.2333843 -0.8823914 -0.4374918 0.1731663 -0.9370421 -0.2434056 0.2504112 -0.08253109 0.9270302 0.365792 0 0.9695317 0.244966 -2.76454e-7 -0.2533923 -0.9673636 0.9135756 -0.06229257 0.4018696 0 0.5786399 -0.8155832 -2.07707e-7 0.7044346 -0.709769 0.7315102 -0.5566331 0.3937672 0.7764112 -0.6132401 0.1453356 0.6002911 -0.4277545 0.6757786 -0.7418382 0.4197658 -0.5229462 0.698413 0.6090263 -0.3759074 -0.731511 -0.5566319 0.3937671 -0.7764121 -0.6132387 0.1453361 -0.7637044 -0.6274654 -0.151798 0.8875334 0.3867287 0.2504506 0.9387631 0.2362226 0.2508443 -0.8905389 0.01861 0.4545264 -0.944442 0.2272093 0.237498 0 0.9131781 0.4075608 0.9431186 -0.2356103 0.2345529 0 -0.9131781 0.4075608 -0.519903 0.3546797 0.7771123 -0.007071197 -0.1448983 0.9894214 0 0 -1 -0.006897389 0.2619726 0.9650507 -0.04614174 -0.8967694 0.440086 -0.468084 -0.6467245 -0.6022 0.4680837 0.6467245 -0.6022002 -0.468084 0.6467245 -0.6022 0.4680837 -0.6467245 -0.6022002 0.7637035 0.6274667 -0.1517984 -0.9431185 -0.2356105 0.2345535 -0.04387718 0.8946668 0.4445741 0.7637035 -0.6274667 -0.1517984 -0.6002919 -0.4277536 0.6757786 2.07707e-7 0.7044345 -0.709769 0.9444423 0.2272089 0.2374975</float_array>
          <technique_common>
            <accessor source="#Cubo_033-mesh-normals-array" count="136" stride="3">
              <param name="X" type="float"/>
              <param name="Y" type="float"/>
              <param name="Z" type="float"/>
            </accessor>
          </technique_common>
        </source>
        <source id="Cubo_033-mesh-map-0">
          <float_array id="Cubo_033-mesh-map-0-array" count="672">0.5179664 0.46307 0.5118961 0.4645875 0.5118961 0.46307 0.5118961 0.4706578 0.5179663 0.4767279 0.5118962 0.476728 0.5179663 0.4873508 0.5118961 0.4888683 0.5118961 0.4873507 0.5118961 0.4949384 0.5179663 0.5010086 0.5118961 0.5010086 0.4997556 0.4873507 0.5058259 0.4888683 0.4997557 0.4888683 0.5240365 0.4873508 0.5301066 0.4888683 0.5240365 0.4888683 0.5301066 0.479763 0.5240365 0.4827981 0.5240365 0.479763 0.5058259 0.479763 0.4997557 0.4827981 0.4997557 0.479763 0.5118961 0.479763 0.5179663 0.4827981 0.5118961 0.482798 0.5118961 0.4554823 0.5179663 0.4585174 0.5118961 0.4585174 0.5118961 0.4539648 0.5179663 0.4554823 0.5118961 0.4554823 0.5240365 0.4827981 0.5301066 0.4858332 0.5240365 0.4858332 0.4997557 0.4827981 0.5058259 0.4858332 0.4997557 0.4858332 0.5179663 0.4827981 0.5118961 0.4858332 0.5118961 0.482798 0.5118961 0.4782455 0.5179663 0.479763 0.5118961 0.479763 0.5058259 0.4782455 0.4997557 0.479763 0.4997557 0.4782454 0.5301066 0.4782455 0.5240365 0.479763 0.5240365 0.4782454 0.5179663 0.4585174 0.5118961 0.4615525 0.5118961 0.4585174 0.5118961 0.4585174 0.5058259 0.4615525 0.5058259 0.4585174 0.5058259 0.4782455 0.5118961 0.479763 0.5058259 0.479763 0.5118961 0.482798 0.5058259 0.4858332 0.5058259 0.4827981 0.5058259 0.4539648 0.5118961 0.4554823 0.5058259 0.4554823 0.5058259 0.4554823 0.5118961 0.4585174 0.5058259 0.4585174 0.5058259 0.479763 0.5118961 0.482798 0.5058259 0.4827981 0.5058259 0.4949384 0.5118961 0.5010086 0.5058259 0.5010086 0.5118961 0.4873507 0.5058259 0.4888683 0.5058259 0.4873508 0.5058259 0.4706578 0.5118962 0.476728 0.5058259 0.4767279 0.5118961 0.46307 0.5058259 0.4645876 0.5058259 0.4630701 0.5118961 0.4645875 0.5058259 0.4706578 0.5058259 0.4645876 0.5118961 0.4888683 0.5058259 0.4949384 0.5058259 0.4888683 0.5179663 0.4782454 0.5240365 0.479763 0.5179663 0.479763 0.4936855 0.4782455 0.4997557 0.479763 0.4936855 0.479763 0.4997557 0.4827981 0.4936855 0.4858332 0.4936855 0.4827981 0.5240365 0.4827981 0.5179663 0.4858332 0.5179663 0.4827981 0.4936855 0.479763 0.4997557 0.4827981 0.4936855 0.4827981 0.5179663 0.479763 0.5240365 0.4827981 0.5179663 0.4827981 0.5240365 0.4873508 0.5179663 0.4888683 0.5179663 0.4873508 0.4997556 0.4873507 0.4936855 0.4888683 0.4936855 0.4873508 0.5179663 0.4888683 0.5118961 0.4949384 0.5118961 0.4888683 0.5179663 0.4645876 0.5118961 0.4706578 0.5118961 0.4645875 0.4997557 0.4858332 0.4936855 0.4873508 0.4936855 0.4858332 0.5240365 0.4858332 0.5179663 0.4873508 0.5179663 0.4858332 0.5118961 0.4858332 0.5058259 0.4873508 0.5058259 0.4858332 0.5058259 0.4524472 0.5118961 0.4539648 0.5058259 0.4539648 0.5118961 0.4524472 0.5179664 0.4539648 0.5118961 0.4539648 0.5240365 0.4858332 0.5301066 0.4873508 0.5240365 0.4873508 0.4997557 0.4858332 0.5058259 0.4873508 0.4997556 0.4873507 0.5179663 0.4858332 0.5118961 0.4873507 0.5118961 0.4858332 0.4936855 0.4767279 0.4997557 0.4782454 0.4936855 0.4782455 0.5179663 0.4767279 0.5240365 0.4782454 0.5179663 0.4782454 0.5118961 0.4615525 0.5058259 0.4630701 0.5058259 0.4615525 0.5058259 0.4767279 0.5118961 0.4782455 0.5058259 0.4782455 0.5301066 0.4767279 0.5240365 0.4782454 0.5240365 0.4767279 0.5058259 0.4767279 0.4997557 0.4782454 0.4997557 0.4767279 0.5118962 0.476728 0.5179663 0.4782454 0.5118961 0.4782455 0.5179663 0.4615525 0.5118961 0.46307 0.5118961 0.4615525 0.5179664 0.46307 0.5179663 0.4645876 0.5118961 0.4645875 0.5118961 0.4706578 0.5179663 0.4706578 0.5179663 0.4767279 0.5179663 0.4873508 0.5179663 0.4888683 0.5118961 0.4888683 0.5118961 0.4949384 0.5179663 0.4949384 0.5179663 0.5010086 0.4997556 0.4873507 0.5058259 0.4873508 0.5058259 0.4888683 0.5240365 0.4873508 0.5301066 0.4873508 0.5301066 0.4888683 0.5301066 0.479763 0.5301066 0.4827981 0.5240365 0.4827981 0.5058259 0.479763 0.5058259 0.4827981 0.4997557 0.4827981 0.5118961 0.479763 0.5179663 0.479763 0.5179663 0.4827981 0.5118961 0.4554823 0.5179663 0.4554823 0.5179663 0.4585174 0.5118961 0.4539648 0.5179664 0.4539648 0.5179663 0.4554823 0.5240365 0.4827981 0.5301066 0.4827981 0.5301066 0.4858332 0.4997557 0.4827981 0.5058259 0.4827981 0.5058259 0.4858332 0.5179663 0.4827981 0.5179663 0.4858332 0.5118961 0.4858332 0.5118961 0.4782455 0.5179663 0.4782454 0.5179663 0.479763 0.5058259 0.4782455 0.5058259 0.479763 0.4997557 0.479763 0.5301066 0.4782455 0.5301066 0.479763 0.5240365 0.479763 0.5179663 0.4585174 0.5179663 0.4615525 0.5118961 0.4615525 0.5118961 0.4585174 0.5118961 0.4615525 0.5058259 0.4615525 0.5058259 0.4782455 0.5118961 0.4782455 0.5118961 0.479763 0.5118961 0.482798 0.5118961 0.4858332 0.5058259 0.4858332 0.5058259 0.4539648 0.5118961 0.4539648 0.5118961 0.4554823 0.5058259 0.4554823 0.5118961 0.4554823 0.5118961 0.4585174 0.5058259 0.479763 0.5118961 0.479763 0.5118961 0.482798 0.5058259 0.4949384 0.5118961 0.4949384 0.5118961 0.5010086 0.5118961 0.4873507 0.5118961 0.4888683 0.5058259 0.4888683 0.5058259 0.4706578 0.5118961 0.4706578 0.5118962 0.476728 0.5118961 0.46307 0.5118961 0.4645875 0.5058259 0.4645876 0.5118961 0.4645875 0.5118961 0.4706578 0.5058259 0.4706578 0.5118961 0.4888683 0.5118961 0.4949384 0.5058259 0.4949384 0.5179663 0.4782454 0.5240365 0.4782454 0.5240365 0.479763 0.4936855 0.4782455 0.4997557 0.4782454 0.4997557 0.479763 0.4997557 0.4827981 0.4997557 0.4858332 0.4936855 0.4858332 0.5240365 0.4827981 0.5240365 0.4858332 0.5179663 0.4858332 0.4936855 0.479763 0.4997557 0.479763 0.4997557 0.4827981 0.5179663 0.479763 0.5240365 0.479763 0.5240365 0.4827981 0.5240365 0.4873508 0.5240365 0.4888683 0.5179663 0.4888683 0.4997556 0.4873507 0.4997557 0.4888683 0.4936855 0.4888683 0.5179663 0.4888683 0.5179663 0.4949384 0.5118961 0.4949384 0.5179663 0.4645876 0.5179663 0.4706578 0.5118961 0.4706578 0.4997557 0.4858332 0.4997556 0.4873507 0.4936855 0.4873508 0.5240365 0.4858332 0.5240365 0.4873508 0.5179663 0.4873508 0.5118961 0.4858332 0.5118961 0.4873507 0.5058259 0.4873508 0.5058259 0.4524472 0.5118961 0.4524472 0.5118961 0.4539648 0.5118961 0.4524472 0.5179663 0.4524472 0.5179664 0.4539648 0.5240365 0.4858332 0.5301066 0.4858332 0.5301066 0.4873508 0.4997557 0.4858332 0.5058259 0.4858332 0.5058259 0.4873508 0.5179663 0.4858332 0.5179663 0.4873508 0.5118961 0.4873507 0.4936855 0.4767279 0.4997557 0.4767279 0.4997557 0.4782454 0.5179663 0.4767279 0.5240365 0.4767279 0.5240365 0.4782454 0.5118961 0.4615525 0.5118961 0.46307 0.5058259 0.4630701 0.5058259 0.4767279 0.5118962 0.476728 0.5118961 0.4782455 0.5301066 0.4767279 0.5301066 0.4782455 0.5240365 0.4782454 0.5058259 0.4767279 0.5058259 0.4782455 0.4997557 0.4782454 0.5118962 0.476728 0.5179663 0.4767279 0.5179663 0.4782454 0.5179663 0.4615525 0.5179664 0.46307 0.5118961 0.46307</float_array>
          <technique_common>
            <accessor source="#Cubo_033-mesh-map-0-array" count="336" stride="2">
              <param name="S" type="float"/>
              <param name="T" type="float"/>
            </accessor>
          </technique_common>
        </source>
        <vertices id="Cubo_033-mesh-vertices">
          <input semantic="POSITION" source="#Cubo_033-mesh-positions"/>
        </vertices>
        <triangles material="A-textura_nok__General-material" count="112">
          <input semantic="VERTEX" source="#Cubo_033-mesh-vertices" offset="0"/>
          <input semantic="NORMAL" source="#Cubo_033-mesh-normals" offset="1"/>
          <input semantic="TEXCOORD" source="#Cubo_033-mesh-map-0" offset="2" set="0"/>
          <p>50 0 0 21 1 1 55 2 2 41 3 3 7 4 4 22 5 5 43 6 6 23 7 7 47 8 8 40 9 9 1 10 10 20 11 11 49 12 12 4 13 13 32 14 14 48 15 15 1 16 16 33 17 17 16 18 18 34 19 19 39 20 20 17 21 21 35 22 22 38 23 23 28 24 24 11 25 25 24 26 26 26 27 27 9 28 28 25 29 29 46 30 30 14 31 31 26 27 32 34 32 33 14 33 34 36 34 35 35 22 36 15 35 37 37 36 38 11 25 39 27 37 40 24 26 41 54 38 42 19 39 43 28 24 44 51 40 45 38 23 46 57 41 47 50 42 48 39 43 49 56 44 50 9 28 51 29 45 52 25 29 53 25 46 54 18 47 55 8 48 56 51 49 57 28 50 58 17 51 59 24 52 60 15 53 61 10 54 62 42 55 63 26 56 64 12 57 65 12 57 66 25 46 67 8 48 68 17 51 69 24 52 70 10 54 71 32 58 72 20 59 73 0 60 74 47 8 75 4 61 76 45 62 77 30 63 78 22 64 79 6 65 80 55 66 81 2 67 82 52 68 83 21 69 84 30 63 85 2 67 86 23 70 87 32 71 88 4 72 89 53 73 90 39 43 91 19 74 92 52 75 93 38 23 94 18 76 95 35 22 96 12 77 97 8 78 98 34 32 99 13 79 100 11 80 101 18 76 102 35 22 103 8 78 104 19 81 105 34 19 106 11 82 107 48 83 108 5 84 109 43 85 110 49 12 111 0 86 112 42 87 113 5 88 114 40 9 115 23 89 116 3 90 117 41 3 118 21 91 119 37 36 120 42 87 121 12 77 122 36 92 123 43 93 124 13 94 125 27 95 126 45 62 127 15 53 128 0 96 129 46 30 130 42 55 131 20 97 132 44 98 133 46 30 134 36 92 135 44 99 136 48 100 137 37 36 138 45 101 139 49 12 140 13 102 141 47 8 142 27 37 143 2 67 144 57 103 145 52 104 146 7 105 147 56 106 148 53 107 149 29 108 150 52 68 151 18 47 152 6 65 153 54 109 154 51 49 155 3 110 156 56 111 157 31 112 158 6 65 159 57 103 160 30 63 161 22 113 162 53 114 163 54 38 164 16 115 165 55 2 166 29 45 167 50 0 168 3 116 169 21 1 170 41 3 171 31 117 172 7 4 173 43 6 174 5 118 175 23 7 176 40 9 177 33 119 178 1 10 179 49 12 180 45 101 181 4 13 182 48 15 183 44 120 184 1 16 185 16 18 186 9 121 187 34 19 188 17 21 189 10 122 190 35 22 191 28 24 192 19 39 193 11 25 194 26 27 195 14 31 196 9 28 197 46 30 198 44 98 199 14 31 200 34 32 201 9 123 202 14 33 203 35 22 204 10 122 205 15 35 206 11 25 207 13 102 208 27 37 209 54 38 210 53 114 211 19 39 212 51 40 213 17 21 214 38 23 215 50 42 216 16 124 217 39 43 218 9 28 219 16 115 220 29 45 221 25 46 222 29 108 223 18 47 224 51 49 225 54 109 226 28 50 227 24 52 228 27 95 229 15 53 230 42 55 231 46 30 232 26 56 233 12 57 234 26 56 235 25 46 236 17 51 237 28 50 238 24 52 239 32 58 240 40 125 241 20 59 242 47 8 243 23 7 244 4 61 245 30 63 246 41 126 247 22 64 248 55 66 249 21 69 250 2 67 251 21 69 252 41 127 253 30 63 254 23 70 255 40 128 256 32 71 257 53 73 258 56 44 259 39 43 260 52 75 261 57 41 262 38 23 263 35 22 264 37 36 265 12 77 266 34 32 267 36 34 268 13 79 269 18 76 270 38 23 271 35 22 272 19 81 273 39 20 274 34 19 275 48 83 276 33 129 277 5 84 278 49 12 279 32 14 280 0 86 281 5 88 282 33 119 283 40 9 284 3 90 285 31 117 286 41 3 287 37 36 288 49 12 289 42 87 290 36 92 291 48 100 292 43 93 293 27 95 294 47 8 295 45 62 296 0 96 297 20 97 298 46 30 299 20 97 300 1 130 301 44 98 302 36 92 303 14 131 304 44 99 305 37 36 306 15 35 307 45 101 308 13 102 309 43 6 310 47 8 311 2 67 312 30 63 313 57 103 314 7 105 315 31 132 316 56 106 317 29 108 318 55 66 319 52 68 320 6 65 321 22 64 322 54 109 323 3 110 324 50 133 325 56 111 326 6 65 327 51 134 328 57 103 329 22 113 330 7 135 331 53 114 332 16 115 333 50 0 334 55 2 335</p>
        </triangles>
      </mesh>
    </geometry>
  </library_geometries>
  <library_visual_scenes>
    <visual_scene id="Scene" name="Scene">
      <node id="a_hair_nok_01" name="a_hair_nok_01" type="NODE">
        <matrix sid="transform">1 0 0 0 0 1 0 0 0 0 1 0 0 0 0 1</matrix>
        <instance_geometry url="#Cubo_033-mesh" name="a_hair_nok_01">
          <bind_material>
            <technique_common>
              <instance_material symbol="A-textura_nok__General-material" target="#A-textura_nok__General-material">
                <bind_vertex_input semantic="MapaUV" input_semantic="TEXCOORD" input_set="0"/>
              </instance_material>
            </technique_common>
          </bind_material>
        </instance_geometry>
      </node>
    </visual_scene>
  </library_visual_scenes>
  <scene>
    <instance_visual_scene url="#Scene"/>
  </scene>
</COLLADA>