<?xml version="1.0" encoding="utf-8"?>
<COLLADA xmlns="http://www.collada.org/2005/11/COLLADASchema" version="1.4.1" xmlns:xsi="http://www.w3.org/2001/XMLSchema-instance">
  <asset>
    <contributor>
      <author>Blender User</author>
      <authoring_tool>Blender 4.3.1 commit date:2024-12-10, commit time:07:46, hash:33d812126174</authoring_tool>
    </contributor>
    <created>2026-08-20T09:13:44</created>
    <modified>2026-08-20T09:13:44</modified>
    <unit name="meter" meter="1"/>
    <up_axis>Z_UP</up_axis>
  </asset>
  <library_effects>
    <effect id="A-textura_nok__General-effect">
      <profile_COMMON>
        <newparam sid="nok_png-surface">
          <surface type="2D">
            <init_from>nok_png</init_from>
          </surface>
        </newparam>
        <newparam sid="nok_png-sampler">
          <sampler2D>
            <source>nok_png-surface</source>
          </sampler2D>
        </newparam>
        <technique sid="common">
          <lambert>
            <emission>
              <color sid="emission">0 0 0 1</color>
            </emission>
            <diffuse>
              <texture texture="nok_png-sampler" texcoord="MapaUV"/>
            </diffuse>
            <index_of_refraction>
              <float sid="ior">1.45</float>
            </index_of_refraction>
          </lambert>
        </technique>
      </profile_COMMON>
    </effect>
  </library_effects>
  <library_images>
    <image id="nok_png" name="nok_png">
      <init_from>nok.png</init_from>
    </image>
  </library_images>
  <library_materials>
    <material id="A-textura_nok__General-material" name="A-textura nok  General">
      <instance_effect url="#A-textura_nok__General-effect"/>
    </material>
  </library_materials>
  <library_geometries>
    <geometry id="Cubo_083-mesh" name="Cubo.083">
      <mesh>
        <source id="Cubo_083-mesh-positions">
          <float_array id="Cubo_083-mesh-positions-array" count="216">-0.2063744 -0.03940868 -0.1939978 -0.2063744 -0.03940868 0.2716827 -0.2063744 0.07055509 -0.1939978 -0.2063744 0.07055509 0.2716827 0.2063749 -0.03940868 -0.1939978 0.2063749 -0.03940868 0.2716827 0.2063749 0.07055509 -0.1939978 0.2063749 0.07055509 0.2716827 2.18366e-7 0.2327048 -0.1939978 2.18366e-7 0.2327048 0.2716827 -0.1377762 0.195516 -0.1939978 -0.1377762 0.195516 0.2716827 0.1377761 0.195516 0.2716827 0.1377761 0.195516 -0.1939978 -0.04879087 0.03918194 0.4476733 -0.04879087 0.2543889 0.6330216 -0.04879087 0.1268607 0.4043698 -0.04879087 0.240734 0.5361903 0.04899847 0.03918194 0.4476733 0.04899847 0.2543889 0.6330216 0.04899847 0.1268607 0.4043698 0.04899847 0.240734 0.5361903 1.03817e-4 0.1467813 0.3945313 1.03817e-4 0.2376316 0.5141903 1.03817e-4 0.01926136 0.4575118 1.03817e-4 0.2574912 0.6550216 -0.06393915 0.08302134 0.4260215 -0.06393915 0.2475614 0.584606 0.06414723 0.08302134 0.4260215 0.06414723 0.2475614 0.584606 -0.04879087 0.1757763 0.5034116 -0.04879087 0.08809739 0.5467151 0.04899847 0.1757763 0.5034116 0.04899847 0.08809739 0.5467151 1.03817e-4 0.06817686 0.5565536 1.03817e-4 0.1956968 0.4935731 0.06414723 0.1319369 0.5250633 -0.06393915 0.1319369 0.5250633 -0.04879087 0.1589407 0.6135041 -0.06393915 0.1801036 0.5694266 0.06414723 0.1801036 0.5694266 1.03817e-4 0.2108829 0.5053204 1.03817e-4 0.1493244 0.6335328 0.04899847 0.1589407 0.6135041 0.04899847 0.2012665 0.5253491 -0.04879087 0.2012665 0.5253491 -0.06462967 0.2231562 0.5488386 -0.06462967 0.2732421 0.6680236 -0.06462967 0.3423412 0.4987527 -0.06462967 0.3924271 0.6179377 0.0646516 0.2231562 0.5488386 0.0646516 0.2732421 0.6680236 0.0646516 0.3423412 0.4987527 0.0646516 0.3924271 0.6179377 -0.09316486 0.2218924 0.6194862 -0.09316486 0.3936908 0.5472902 0.09318685 0.3936908 0.5472902 0.09318685 0.2218924 0.6194862 -0.08706039 0.2740586 0.5031167 -0.08706039 0.3415247 0.6636596 0.08708238 0.2740586 0.5031167 0.08708238 0.3415247 0.6636596 0.1255195 0.3077916 0.5833882 -0.1254975 0.3077916 0.5833882 1.09927e-5 0.3557964 0.4657917 1.09927e-5 0.4253881 0.6313928 1.09927e-5 0.1901952 0.5353834 1.09927e-5 0.2597869 0.7009846 1.10141e-5 0.1884392 0.6335445 1.10141e-5 0.427144 0.5332319 1.10034e-5 0.3546619 0.6949211 1.10034e-5 0.2609214 0.4718552</float_array>
          <technique_common>
            <accessor source="#Cubo_083-mesh-positions-array" count="72" stride="3">
              <param name="X" type="float"/>
              <param name="Y" type="float"/>
              <param name="Z" type="float"/>
            </accessor>
          </technique_common>
        </source>
        <source id="Cubo_083-mesh-normals">
          <float_array id="Cubo_083-mesh-normals-array" count="525">-1 0 0 -0.9686583 0.2483975 0 0.8766002 0.4812197 0 0.9686606 0.2483885 0 0.8766002 0.4812195 0 0.9686578 0.2483991 0 1 0 0 -0.2605952 0.9654482 0 -0.2605952 0.9654483 0 -0.2605952 0.9654482 0 -0.9686609 0.2483869 0 -0.8766017 0.4812167 0 0.2605962 0.9654479 0 0.2605961 0.9654479 0 -0.9535396 0.1395401 -0.2670035 -0.9511746 0.07328885 -0.299826 -0.9551084 0.1410683 -0.2605146 0.4005565 0.2698804 -0.875625 0.3991336 0.4309628 -0.8092982 0.4133648 0.4295592 -0.8028752 0.9508531 -0.06372946 0.303013 0.9543705 -0.1370349 0.265327 0.9551296 -0.1394041 0.2613312 -0.4113246 -0.4179811 0.8100025 -0.3967689 -0.1802682 0.9000432 -0.4134968 -0.4215351 0.8070493 -0.9552075 0.2653396 -0.1310479 -0.9541327 0.2336846 -0.1871431 -0.9552075 0.2653396 -0.1310478 0.4136913 0.816288 -0.4031543 0.4074286 0.7271692 -0.5524736 0.4136912 0.8162881 -0.4031544 0.9537736 -0.2371394 0.1846098 0.955205 -0.2653471 0.1310515 0.955205 -0.2653471 0.1310515 -0.4136927 -0.8162875 0.4031539 -0.4085627 -0.7296847 0.5483037 -0.4136933 -0.8162873 0.4031538 0.3967697 -0.1802681 0.9000429 0.4113247 -0.417981 0.8100024 0.4134968 -0.4215351 0.8070493 -0.3991338 0.4309628 -0.8092981 -0.4005566 0.2698804 -0.875625 -0.4133653 0.4295592 -0.8028751 0.4085624 -0.7296848 0.5483037 0.4136924 -0.8162876 0.403154 0.413693 -0.8162873 0.4031539 -0.4074286 0.7271692 -0.5524735 -0.4136915 0.8162879 -0.4031543 -0.4136915 0.8162879 -0.4031543 0.95413 0.2336912 -0.1871485 0.9552049 0.2653471 -0.1310515 0.955205 0.2653471 -0.1310515 -0.9552075 -0.2653396 0.1310478 -0.9537762 -0.2371328 0.1846046 -0.9552075 -0.2653396 0.1310479 0.9511719 0.07329094 -0.2998344 0.9535369 0.1395441 -0.2670111 0.9551057 0.1410723 -0.2605221 -0.9543732 -0.1370311 0.2653196 -0.950856 -0.06372767 0.3030045 -0.9551322 -0.1394002 0.2613239 -0.9540997 -0.2437098 0.1740674 0.954029 0.2430542 -0.1753665 -0.4142172 0.7022793 -0.5789889 0.4087952 -0.7386977 0.5359219 -0.4087954 -0.7386977 0.5359218 0.954097 -0.2437165 0.1740722 0.4142169 0.7022794 -0.5789889 -0.9540316 0.2430473 -0.1753615 -0.8309994 0.490593 0.2622185 -0.831035 0.4908986 0.2615326 -0.8236678 0.4532443 0.3407946 0.3867872 0.9185768 0.08131659 0.3872171 0.91843 0.0809285 0.3150665 0.9380756 0.1440392 0.8309986 -0.1560151 0.5339482 0.8310343 -0.156719 0.5336864 0.8236669 -0.07374942 0.562258 -0.3867884 -0.5847465 0.7130682 -0.3872181 -0.5849211 0.7126918 -0.3150685 -0.5535876 0.7708909 0.3894387 -0.6544839 -0.648065 0.3893067 -0.6546106 -0.6480164 0.4440551 -0.5987391 -0.6665782 -0.3894391 0.004911363 0.9210392 -0.389307 0.004787921 0.9210956 -0.4440552 0.05714678 0.8941753 -0.3867869 -0.9185769 -0.08131647 -0.3872167 -0.9184302 -0.08092838 -0.4568316 -0.8894109 -0.0159102 0.8309988 -0.4905937 -0.2622188 0.8310346 -0.4908993 -0.2615329 0.8318718 -0.5258693 -0.1773437 0.3867871 0.5847472 -0.7130684 0.3872169 0.5849217 -0.7126919 0.4568322 0.6110578 -0.6464617 -0.8309993 0.1560149 -0.5339471 -0.8310351 0.1567187 -0.5336854 -0.8318725 0.2413297 -0.4997481 -0.8310348 -0.490899 -0.2615327 -0.8309991 -0.4905933 -0.2622186 -0.8318721 -0.5258691 -0.1773434 0.8310348 0.1567187 -0.5336858 0.8309991 0.1560149 -0.5339474 0.8318724 0.2413297 -0.4997483 -0.389306 0.654611 0.6480165 -0.3894379 0.6544843 0.6480651 -0.4440537 0.5987401 0.6665783 0.3893063 -0.004788458 -0.921096 0.3894382 -0.00491178 -0.9210395 0.4440535 -0.0571472 -0.894176 0.8310349 0.4908989 0.2615328 0.8309993 0.4905933 0.2622187 0.8236677 0.4532448 0.3407944 -0.8310346 -0.1567189 0.5336861 -0.830999 -0.156015 0.5339477 -0.8236674 -0.07374918 0.5622574 -0.3893064 -0.004788577 -0.9210959 -0.3894384 -0.004911959 -0.9210395 -0.3310241 0.04851293 -0.9423745 0.389306 0.6546109 0.6480166 0.3894379 0.6544843 0.6480652 0.3310233 0.7071118 0.6248332 -0.3872166 0.584922 -0.7126919 -0.3867869 0.5847475 -0.7130683 -0.4568318 0.6110581 -0.6464617 0.3872168 -0.9184302 -0.08092862 0.386787 -0.9185768 -0.08131676 0.456832 -0.8894108 -0.01591032 0.3894392 0.004911243 0.9210391 0.3893073 0.004787862 0.9210955 0.331024 -0.04851365 0.9423744 -0.3894385 -0.6544837 -0.6480653 -0.3893066 -0.6546105 -0.6480166 -0.3310235 -0.707112 -0.6248329 0.387218 -0.5849208 0.7126921 0.3867883 -0.5847463 0.7130685 0.3150684 -0.5535872 0.7708912 -0.3872168 0.9184302 0.0809279 -0.3867871 0.918577 0.08131599 -0.3150663 0.9380758 0.1440384 0.2605962 0.965448 0 -0.9492856 0.06902396 -0.306745 0.3849308 0.2444659 -0.8899801 0.9499542 -0.06258332 0.3060565 -0.3942205 -0.1790755 0.9014002 0.3942215 -0.1790754 0.9013997 -0.384931 0.2444659 -0.8899801 0.9492828 0.06902587 -0.3067535 -0.9499571 -0.06258159 0.3060477 -0.8318725 0.5258685 0.1773428 0.4568327 0.8894104 0.0159102 0.8318719 -0.24133 0.4997489 -0.4568329 -0.6110572 0.6464617 0.3310235 -0.7071118 -0.6248331 -0.3310239 -0.04851359 0.9423745 -0.3150669 -0.9380754 -0.144039 0.8236677 -0.453245 -0.3407943 0.3150666 0.5535882 -0.7708911 -0.8236678 0.07374924 -0.5622566 -0.8236678 -0.4532445 -0.3407942 0.8236674 0.0737493 -0.5622571 -0.3310233 0.7071118 0.6248332 0.3310241 0.04851305 -0.9423745 0.8318724 0.5258685 0.1773434 -0.8318722 -0.2413299 0.4997486 -0.4440539 -0.05714738 -0.8941758 0.4440537 0.5987399 0.6665785 -0.3150666 0.5535884 -0.770891 0.3150667 -0.9380756 -0.1440394 0.4440556 0.05714666 0.8941751 -0.4440547 -0.5987388 -0.6665788 0.4568328 -0.611057 0.6464621 -0.4568324 0.8894105 0.01590973</float_array>
          <technique_common>
            <accessor source="#Cubo_083-mesh-normals-array" count="175" stride="3">
              <param name="X" type="float"/>
              <param name="Y" type="float"/>
              <param name="Z" type="float"/>
            </accessor>
          </technique_common>
        </source>
        <source id="Cubo_083-mesh-map-0">
          <float_array id="Cubo_083-mesh-map-0-array" count="648">0.4937089 0.4473573 0.5006316 0.4933637 0.4938046 0.4934523 0.5174835 0.4472023 0.5233404 0.4932752 0.5176632 0.4932973 0.5231609 0.4471802 0.5300834 0.4931866 0.5233404 0.4932752 0.506129 0.4472466 0.511986 0.4933195 0.5063089 0.4933416 0.5004518 0.4472687 0.5063089 0.4933416 0.5006316 0.4933637 0.5118063 0.4472244 0.5176632 0.4932973 0.511986 0.4933195 0.5020751 0.463413 0.5053492 0.4500991 0.5053489 0.4634133 0.508623 0.4500993 0.5118964 0.4634137 0.5086227 0.4634135 0.5151705 0.4500998 0.518444 0.4634142 0.5151702 0.463414 0.5217178 0.4634144 0.5249918 0.4501006 0.5249915 0.4634147 0.5020741 0.5033556 0.5053486 0.4767274 0.5053479 0.5033558 0.5086217 0.503356 0.5118961 0.4767279 0.5118954 0.5033562 0.5151699 0.4767282 0.5184429 0.5033567 0.5151692 0.5033565 0.5217167 0.5033569 0.5249912 0.4767289 0.5249904 0.5033572 0.5184443 0.4501 0.5217178 0.4634144 0.518444 0.4634142 0.5053489 0.4634133 0.508623 0.4500993 0.5086227 0.4634135 0.5184436 0.4767284 0.5217167 0.5033569 0.5184429 0.5033567 0.5053486 0.4767274 0.5086217 0.503356 0.5053479 0.5033558 0.5118961 0.4767279 0.5151692 0.5033565 0.5118954 0.5033562 0.4988003 0.5033553 0.5020748 0.4767272 0.5020741 0.5033556 0.5118967 0.4500995 0.5151702 0.463414 0.5118964 0.4634137 0.4988014 0.4634128 0.5020754 0.4500988 0.5020751 0.463413 0.4988014 0.4634128 0.5020748 0.4767272 0.4988011 0.476727 0.5118961 0.4767279 0.5151702 0.463414 0.5151699 0.4767282 0.5053489 0.4634133 0.5086224 0.4767277 0.5053486 0.4767274 0.5184436 0.4767284 0.5217178 0.4634144 0.5217174 0.4767286 0.5217178 0.4634144 0.5249912 0.4767289 0.5217174 0.4767286 0.5151699 0.4767282 0.518444 0.4634142 0.5184436 0.4767284 0.5086224 0.4767277 0.5118964 0.4634137 0.5118961 0.4767279 0.5020751 0.463413 0.5053486 0.4767274 0.5020748 0.4767272 0.5118961 0.4585174 0.5179663 0.4645876 0.5118961 0.4645876 0.5118961 0.4706578 0.5179663 0.4767279 0.5118961 0.4767279 0.5118961 0.482798 0.5179663 0.4888683 0.5118961 0.4888683 0.5118961 0.4949384 0.5179663 0.5010086 0.5118961 0.5010086 0.4997557 0.4827981 0.5058259 0.4888683 0.4997557 0.4888683 0.5240364 0.4827981 0.5301066 0.4888683 0.5240364 0.4888683 0.5118961 0.4949384 0.5058259 0.5010086 0.5058259 0.4949384 0.5118961 0.482798 0.5058259 0.4888683 0.5058259 0.4827982 0.5118961 0.4706578 0.5058259 0.4767279 0.5058259 0.4706578 0.5118961 0.4585174 0.5058259 0.4645876 0.5058259 0.4585174 0.5058259 0.4524472 0.5118961 0.4585174 0.5058259 0.4585174 0.5058259 0.4767279 0.5118961 0.482798 0.5058259 0.4827982 0.5301066 0.4767279 0.5240364 0.4827981 0.5240364 0.4767279 0.5058259 0.4767279 0.4997557 0.4827981 0.4997557 0.4767279 0.5179663 0.4767279 0.5118961 0.482798 0.5118961 0.4767279 0.5179663 0.4524472 0.5118961 0.4585174 0.5118961 0.4524472 0.4936855 0.4767279 0.4997557 0.4827981 0.4936855 0.4827981 0.5179663 0.4767279 0.5240364 0.4827981 0.5179663 0.4827981 0.5058259 0.4645876 0.5118961 0.4706578 0.5058259 0.4706578 0.5058259 0.4888683 0.5118961 0.4949384 0.5058259 0.4949384 0.5240364 0.4827981 0.5179663 0.4888683 0.5179663 0.4827981 0.4997557 0.4827981 0.4936855 0.4888683 0.4936855 0.4827981 0.5179663 0.4888683 0.5118961 0.4949384 0.5118961 0.4888683 0.5179663 0.4645876 0.5118961 0.4706578 0.5118961 0.4645876 0.4937089 0.4473573 0.5004518 0.4472687 0.5006316 0.4933637 0.5174835 0.4472023 0.5231609 0.4471802 0.5233404 0.4932752 0.5231609 0.4471802 0.5299877 0.4470916 0.5300834 0.4931866 0.506129 0.4472466 0.5118063 0.4472244 0.511986 0.4933195 0.5004518 0.4472687 0.506129 0.4472466 0.5063089 0.4933416 0.5118063 0.4472244 0.5174835 0.4472023 0.5176632 0.4932973 0.5020751 0.463413 0.5020754 0.4500988 0.5053492 0.4500991 0.508623 0.4500993 0.5118967 0.4500995 0.5118964 0.4634137 0.5151705 0.4500998 0.5184443 0.4501 0.518444 0.4634142 0.5217178 0.4634144 0.5217181 0.4501003 0.5249918 0.4501006 0.5020741 0.5033556 0.5020748 0.4767272 0.5053486 0.4767274 0.5086217 0.503356 0.5086224 0.4767277 0.5118961 0.4767279 0.5151699 0.4767282 0.5184436 0.4767284 0.5184429 0.5033567 0.5217167 0.5033569 0.5217174 0.4767286 0.5249912 0.4767289 0.5184443 0.4501 0.5217181 0.4501003 0.5217178 0.4634144 0.5053489 0.4634133 0.5053492 0.4500991 0.508623 0.4500993 0.5184436 0.4767284 0.5217174 0.4767286 0.5217167 0.5033569 0.5053486 0.4767274 0.5086224 0.4767277 0.5086217 0.503356 0.5118961 0.4767279 0.5151699 0.4767282 0.5151692 0.5033565 0.4988003 0.5033553 0.4988011 0.476727 0.5020748 0.4767272 0.5118967 0.4500995 0.5151705 0.4500998 0.5151702 0.463414 0.4988014 0.4634128 0.4988017 0.4500986 0.5020754 0.4500988 0.4988014 0.4634128 0.5020751 0.463413 0.5020748 0.4767272 0.5118961 0.4767279 0.5118964 0.4634137 0.5151702 0.463414 0.5053489 0.4634133 0.5086227 0.4634135 0.5086224 0.4767277 0.5184436 0.4767284 0.518444 0.4634142 0.5217178 0.4634144 0.5217178 0.4634144 0.5249915 0.4634147 0.5249912 0.4767289 0.5151699 0.4767282 0.5151702 0.463414 0.518444 0.4634142 0.5086224 0.4767277 0.5086227 0.4634135 0.5118964 0.4634137 0.5020751 0.463413 0.5053489 0.4634133 0.5053486 0.4767274 0.5118961 0.4585174 0.5179663 0.4585174 0.5179663 0.4645876 0.5118961 0.4706578 0.5179663 0.4706578 0.5179663 0.4767279 0.5118961 0.482798 0.5179663 0.4827981 0.5179663 0.4888683 0.5118961 0.4949384 0.5179663 0.4949384 0.5179663 0.5010086 0.4997557 0.4827981 0.5058259 0.4827982 0.5058259 0.4888683 0.5240364 0.4827981 0.5301066 0.4827981 0.5301066 0.4888683 0.5118961 0.4949384 0.5118961 0.5010086 0.5058259 0.5010086 0.5118961 0.482798 0.5118961 0.4888683 0.5058259 0.4888683 0.5118961 0.4706578 0.5118961 0.4767279 0.5058259 0.4767279 0.5118961 0.4585174 0.5118961 0.4645876 0.5058259 0.4645876 0.5058259 0.4524472 0.5118961 0.4524472 0.5118961 0.4585174 0.5058259 0.4767279 0.5118961 0.4767279 0.5118961 0.482798 0.5301066 0.4767279 0.5301066 0.4827981 0.5240364 0.4827981 0.5058259 0.4767279 0.5058259 0.4827982 0.4997557 0.4827981 0.5179663 0.4767279 0.5179663 0.4827981 0.5118961 0.482798 0.5179663 0.4524472 0.5179663 0.4585174 0.5118961 0.4585174 0.4936855 0.4767279 0.4997557 0.4767279 0.4997557 0.4827981 0.5179663 0.4767279 0.5240364 0.4767279 0.5240364 0.4827981 0.5058259 0.4645876 0.5118961 0.4645876 0.5118961 0.4706578 0.5058259 0.4888683 0.5118961 0.4888683 0.5118961 0.4949384 0.5240364 0.4827981 0.5240364 0.4888683 0.5179663 0.4888683 0.4997557 0.4827981 0.4997557 0.4888683 0.4936855 0.4888683 0.5179663 0.4888683 0.5179663 0.4949384 0.5118961 0.4949384 0.5179663 0.4645876 0.5179663 0.4706578 0.5118961 0.4706578</float_array>
          <technique_common>
            <accessor source="#Cubo_083-mesh-map-0-array" count="324" stride="2">
              <param name="S" type="float"/>
              <param name="T" type="float"/>
            </accessor>
          </technique_common>
        </source>
        <vertices id="Cubo_083-mesh-vertices">
          <input semantic="POSITION" source="#Cubo_083-mesh-positions"/>
        </vertices>
        <triangles material="A-textura_nok__General-material" count="108">
          <input semantic="VERTEX" source="#Cubo_083-mesh-vertices" offset="0"/>
          <input semantic="NORMAL" source="#Cubo_083-mesh-normals" offset="1"/>
          <input semantic="TEXCOORD" source="#Cubo_083-mesh-map-0" offset="2" set="0"/>
          <p>1 0 0 2 1 1 0 0 2 12 2 3 6 3 4 13 4 5 7 5 6 4 6 7 6 3 8 11 7 9 8 8 10 10 9 11 3 10 12 10 11 13 2 1 14 9 12 15 13 13 16 8 13 17 39 14 18 17 15 19 45 16 20 23 17 21 44 18 22 41 19 23 29 20 24 43 21 25 40 22 26 42 23 27 15 24 28 38 25 29 26 26 30 30 27 31 16 28 32 22 29 33 32 30 34 20 31 35 36 32 36 18 33 37 28 34 38 24 35 39 31 36 40 14 37 41 19 38 42 42 39 43 43 40 44 45 41 45 23 42 46 41 43 47 33 44 48 24 45 49 18 46 50 30 47 51 22 48 52 16 49 53 32 50 54 28 51 55 20 52 56 14 53 57 37 54 58 26 55 59 21 56 60 40 57 61 44 58 62 38 59 63 27 60 64 39 61 65 38 59 66 37 54 67 31 62 68 32 50 69 40 57 70 36 63 71 45 41 72 35 64 73 30 47 74 33 44 75 42 39 76 34 65 77 42 23 78 31 36 79 34 66 80 36 32 81 43 21 82 33 67 83 35 68 84 44 18 85 32 30 86 39 14 87 30 27 88 37 69 89 63 70 90 49 71 91 55 72 92 69 73 93 53 74 94 56 75 95 62 76 96 51 77 97 57 78 98 68 79 99 47 80 100 54 81 101 71 82 102 50 83 103 66 84 104 70 85 105 47 86 106 67 87 107 68 88 108 46 89 109 66 90 110 62 91 111 50 92 112 60 93 113 69 94 114 52 95 115 64 96 116 63 97 117 48 98 118 58 99 119 46 100 120 63 101 121 58 102 122 52 103 123 62 104 124 60 105 125 49 106 126 70 107 127 65 108 128 52 109 129 71 110 130 64 111 131 53 112 132 62 113 133 56 114 134 47 115 135 63 116 136 54 117 137 48 118 138 71 119 139 58 120 140 53 121 141 70 122 142 61 123 143 48 124 144 69 125 145 64 126 146 50 127 147 68 128 148 66 129 149 70 130 150 51 131 151 61 132 152 71 133 153 46 134 154 58 135 155 51 136 156 68 137 157 57 138 158 49 139 159 69 140 160 55 141 161 1 0 162 3 10 163 2 1 164 12 2 165 7 5 166 6 3 167 7 5 168 5 6 169 4 6 170 11 7 171 9 7 172 8 8 173 3 10 174 11 11 175 10 11 176 9 12 177 12 142 178 13 13 179 39 14 180 27 143 181 17 15 182 23 17 183 21 144 184 44 18 185 29 20 186 19 145 187 43 21 188 42 23 189 25 146 190 15 24 191 26 26 192 37 69 193 30 27 194 22 29 195 35 68 196 32 30 197 36 32 198 33 67 199 18 33 200 24 35 201 34 66 202 31 36 203 19 38 204 25 147 205 42 39 206 45 41 207 17 148 208 23 42 209 33 44 210 34 65 211 24 45 212 30 47 213 35 64 214 22 48 215 32 50 216 36 63 217 28 51 218 14 53 219 31 62 220 37 54 221 21 56 222 29 149 223 40 57 224 38 59 225 15 150 226 27 60 227 38 59 228 39 61 229 37 54 230 32 50 231 44 58 232 40 57 233 45 41 234 41 43 235 35 64 236 33 44 237 43 40 238 42 39 239 42 23 240 38 25 241 31 36 242 36 32 243 40 22 244 43 21 245 35 68 246 41 19 247 44 18 248 39 14 249 45 16 250 30 27 251 63 70 252 59 151 253 49 71 254 69 73 255 65 152 256 53 74 257 62 76 258 61 153 259 51 77 260 68 79 261 67 154 262 47 80 263 71 82 264 60 155 265 50 83 266 70 85 267 59 156 268 47 86 269 68 88 270 54 157 271 46 89 272 62 91 273 57 158 274 50 92 275 69 94 276 56 159 277 52 95 278 63 97 279 55 160 280 48 98 281 46 100 282 54 161 283 63 101 284 52 103 285 56 162 286 62 104 287 49 106 288 59 163 289 70 107 290 52 109 291 60 164 292 71 110 293 53 112 294 61 165 295 62 113 296 47 115 297 59 166 298 63 116 299 48 118 300 64 167 301 71 119 302 53 121 303 65 168 304 70 122 305 48 124 306 55 169 307 69 125 308 50 127 309 57 170 310 68 128 311 70 130 312 67 171 313 51 131 314 71 133 315 66 172 316 46 134 317 51 136 318 67 173 319 68 137 320 49 139 321 65 174 322 69 140 323</p>
        </triangles>
      </mesh>
    </geometry>
  </library_geometries>
  <library_visual_scenes>
    <visual_scene id="Scene" name="Scene">
      <node id="a_hair_nok_04" name="a_hair_nok_04" type="NODE">
        <matrix sid="transform">1 0 0 0 0 1 0 0 0 0 1 0 0 0 0 1</matrix>
        <instance_geometry url="#Cubo_083-mesh" name="a_hair_nok_04">
          <bind_material>
            <technique_common>
              <instance_material symbol="A-textura_nok__General-material" target="#A-textura_nok__General-material">
                <bind_vertex_input semantic="MapaUV" input_semantic="TEXCOORD" input_set="0"/>
              </instance_material>
            </technique_common>
          </bind_material>
        </instance_geometry>
      </node>
    </visual_scene>
  </library_visual_scenes>
  <scene>
    <instance_visual_scene url="#Scene"/>
  </scene>
</COLLADA>