<?xml version="1.0" encoding="utf-8"?>
<COLLADA xmlns="http://www.collada.org/2005/11/COLLADASchema" version="1.4.1" xmlns:xsi="http://www.w3.org/2001/XMLSchema-instance">
  <asset>
    <contributor>
      <author>Blender User</author>
      <authoring_tool>Blender 4.3.1 commit date:2024-12-10, commit time:07:46, hash:33d812126174</authoring_tool>
    </contributor>
    <created>2026-08-20T09:13:44</created>
    <modified>2026-08-20T09:13:44</modified>
    <unit name="meter" meter="1"/>
    <up_axis>Z_UP</up_axis>
  </asset>
  <library_effects>
    <effect id="A-textura_nok__General-effect">
      <profile_COMMON>
        <newparam sid="nok_png-surface">
          <surface type="2D">
            <init_from>nok_png</init_from>
          </surface>
        </newparam>
        <newparam sid="nok_png-sampler">
          <sampler2D>
            <source>nok_png-surface</source>
          </sampler2D>
        </newparam>
        <technique sid="common">
          <lambert>
            <emission>
              <color sid="emission">0 0 0 1</color>
            </emission>
            <diffuse>
              <texture texture="nok_png-sampler" texcoord="MapaUV"/>
            </diffuse>
            <index_of_refraction>
              <float sid="ior">1.45</float>
            </index_of_refraction>
          </lambert>
        </technique>
      </profile_COMMON>
    </effect>
  </library_effects>
  <library_images>
    <image id="nok_png" name="nok_png">
      <init_from>nok.png</init_from>
    </image>
  </library_images>
  <library_materials>
    <material id="A-textura_nok__General-material" name="A-textura nok  General">
      <instance_effect url="#A-textura_nok__General-effect"/>
    </material>
  </library_materials>
  <library_geometries>
    <geometry id="Cubo_014-mesh" name="Cubo.014">
      <mesh>
        <source id="Cubo_014-mesh-positions">
          <float_array id="Cubo_014-mesh-positions-array" count="342">-0.07723617 -0.1633502 0.4423876 -0.05785369 -0.1118489 0.5522037 0.4125595 0.6996678 0.5957337 0.4125366 0.6996049 0.5955978 0.03257369 -0.2180329 0.4486523 0.05195617 -0.1665316 0.5584684 0.4124222 0.6997317 0.5957279 0.4123993 0.6996678 0.595592 -0.03965377 0.01495063 0.2923746 -0.003410339 0.1112555 0.497725 0.1656856 -0.08730226 0.3040891 0.2019271 0.009001612 0.5094395 -0.06955718 -0.07636553 0.3598967 -0.03879356 0.005380511 0.5342035 0.1355018 -0.08141428 0.544147 0.1047401 -0.1631604 0.3698402 0.1078777 0.2244367 0.4134503 0.1026058 0.1980981 0.2759738 0.2278308 0.1357383 0.2831183 0.2331047 0.1620768 0.4205942 0.164072 0.1611966 0.2496843 0.1716365 0.1989774 0.4468842 0.01091003 -0.137519 0.3270063 0.05503654 -0.02026087 0.5770373 0.1071319 0.08104789 0.5481877 0.05514526 -0.05709463 0.2536264 -0.02654075 -0.2018786 0.4216662 0.001260757 -0.1280032 0.5791898 0.4124966 0.6997136 0.5957604 0.4124622 0.699622 0.5955658 -0.08255195 -0.02136141 0.4454312 0.08485412 0.2214192 0.3435488 0.2508545 0.1387557 0.3530192 0.1484966 -0.1364175 0.4586125 0.2172355 -0.05579668 0.4086714 -0.05496215 0.07974994 0.3931427 -0.08542251 -0.1286975 0.4962759 0.06014251 -0.2011843 0.50458 0.412571 0.6996259 0.5956669 0.4123879 0.6997107 0.5956593 -0.0326538 -0.2026978 0.521667 0.2212562 0.3704995 0.3883915 0.2293357 0.3788184 0.3193975 0.2918816 0.3476724 0.3229656 0.283802 0.3393535 0.3919597 0.2507744 0.3531197 0.4051623 0.2623634 0.3650521 0.3061948 0.2980232 0.3384427 0.3580437 0.2151145 0.3797292 0.3533135 0.3112774 0.5192221 0.4523149 0.3424816 0.5036811 0.4540949 0.322567 0.5388488 0.4257307 0.3537712 0.5233067 0.4275107 0.3244267 0.5071887 0.4589791 0.340622 0.5353412 0.4208465 0.3532066 0.5109643 0.4410925 0.311842 0.5315656 0.4387331 -0.03311157 -0.2181206 0.4486408 -0.05262756 -0.1666451 0.5584455 -0.4121094 0.7000417 0.5954456 -0.4120865 0.6999787 0.5953097 0.0767765 -0.1635686 0.4425974 0.05726051 -0.112093 0.552402 -0.4122429 0.6999711 0.5954552 -0.41222 0.6999081 0.5953193 -0.1658039 -0.08716493 0.3038979 -0.2022972 0.009092211 0.5092263 0.03967857 0.01484477 0.2925978 0.003185272 0.111102 0.4979262 -0.1050682 -0.1631251 0.3697243 -0.1360435 -0.08142 0.5440126 0.03837585 0.005167841 0.53442 0.06935119 -0.07653719 0.3601322 -0.2331275 0.1622447 0.420394 -0.227642 0.1359614 0.2829156 -0.1023273 0.1981715 0.2760244 -0.1078147 0.2244548 0.4135027 -0.1637916 0.1613568 0.2496075 -0.1716632 0.1990594 0.4468107 -0.01112937 -0.137579 0.3270702 -0.05556297 -0.02037817 0.5770741 -0.1074829 0.08100593 0.5481768 -0.05513572 -0.05706888 0.2536473 0.02607154 -0.2020264 0.4217677 -0.001922607 -0.1281882 0.5792747 -0.4121819 0.7000207 0.59548 -0.4121475 0.6999291 0.5952849 -0.1489524 -0.1363688 0.4584298 -0.2507858 0.138975 0.352777 -0.08466911 0.2214412 0.3436413 0.08226013 -0.02158838 0.4457145 0.05488586 0.07958018 0.3934221 -0.2175045 -0.05564314 0.408402 -0.06075859 -0.2012645 0.5045266 0.08490753 -0.1289502 0.4965158 -0.412077 0.7000226 0.595376 -0.4122543 0.6999282 0.5953889 0.03200531 -0.2028971 0.5217795 -0.2835598 0.3395957 0.3917484 -0.2915058 0.3479546 0.3227434 -0.2289161 0.3790263 0.3193016 -0.2209701 0.3706664 0.3883062 -0.2505398 0.3533152 0.4050164 -0.2619362 0.3653058 0.3060336 -0.2147541 0.3799046 0.3532434 -0.2977219 0.3387164 0.3578062 -0.3421517 0.5039681 0.4538522 -0.3109245 0.5194682 0.4521346 -0.3533707 0.5236205 0.4272571 -0.3221436 0.5391206 0.4255395 -0.3241024 0.50745 0.4587703 -0.3401947 0.5356387 0.4206214 -0.311451 0.5318173 0.4385576 -0.3528462 0.5112714 0.4408341</float_array>
          <technique_common>
            <accessor source="#Cubo_014-mesh-positions-array" count="114" stride="3">
              <param name="X" type="float"/>
              <param name="Y" type="float"/>
              <param name="Z" type="float"/>
            </accessor>
          </technique_common>
        </source>
        <source id="Cubo_014-mesh-normals">
          <float_array id="Cubo_014-mesh-normals-array" count="660">-0.6849577 0.7184299 0.1212084 0.8045246 -0.4364025 0.4028561 -0.7774391 -0.3832706 0.4986905 0.1256201 -0.7054945 -0.6974934 -0.2892414 0.396808 0.8711388 -0.1078059 0.6810874 0.7242222 0.3620501 -0.1971148 -0.9110793 0.9706932 -0.1060476 0.2156581 -0.8655471 0.3952435 0.3075886 -0.9009664 0.205191 0.382304 0.5774825 -0.8154712 -0.03899657 -0.6268414 -0.5062924 -0.5922314 0.2914255 -0.1265121 0.9481908 -0.7220383 0.6137979 -0.3192378 0.4699673 0.01803576 -0.8824995 -0.27691 0.380942 0.8821588 0.9203599 -0.2254416 0.3195524 0.4084967 0.03052937 0.9122491 -0.2102328 0.36532 -0.9068316 -0.3615619 0.1986567 0.9109383 0.02613306 -0.8314598 -0.55497 -0.308177 0.1553281 -0.9385628 0.5600259 0.3275968 0.7609542 0.4095022 0.04885482 0.9110001 -0.5731171 -0.3575465 -0.7373584 0.1146914 -0.8275384 0.549569 -0.25357 -0.9670335 -0.02342265 0.9283179 -0.2248921 -0.2960563 -0.7311159 0.6173435 0.2904419 0.6676324 -0.575926 0.4717798 -0.9911164 -0.03435122 -0.1284844 -0.9615303 0.1401988 -0.2362282 0.8915635 -0.281753 -0.3545841 -0.6158555 -0.7866244 -0.04409122 0.7085517 -0.6914374 -0.1409572 -0.7254617 0.5234873 -0.4468404 -0.8656347 0.387905 0.3165537 0.9536167 -0.204604 -0.2207995 -0.101676 0.5909722 -0.8002586 0.188521 -0.4055205 0.8944344 0.8255504 -0.4363387 0.3578757 -0.4974036 -0.06440854 0.865125 0.5854302 0.2501633 -0.7711613 -0.7396996 0.6193156 -0.263235 -0.7232389 0.6503685 -0.2322635 -0.4422311 -0.5557691 0.7039548 -0.6113144 -0.2526538 0.7499738 -0.6320019 0.5999255 -0.4905742 0.07063198 0.5672205 -0.8205317 -0.03969496 0.7362897 -0.6755011 -0.8582862 -0.1747671 0.482495 -0.9154623 0.3160048 0.2491378 0.3938596 0.8071181 -0.4398126 -0.9712065 -0.1049556 0.2138745 0.8654758 0.3940567 0.3093075 -0.1166729 -0.827643 0.548994 0.5740133 -0.3579032 -0.7364876 -0.4110738 0.04894167 0.9102874 -0.5415416 0.3585023 0.7604004 0.2923312 0.1278921 -0.9477268 0.6856118 0.717543 0.1227539 -0.8057698 -0.4356086 0.4012235 -0.6691719 -0.575337 0.470315 0.991306 -0.03550517 -0.1266953 -0.0261498 -0.8311765 -0.5553935 0.3601649 0.1978073 0.9116762 -0.9496266 -0.2174655 -0.2256502 0.1884806 0.3450834 -0.9194523 -0.390078 0.04965412 0.919442 0.7596882 0.6099824 0.2253783 0.3022501 0.3842477 0.8723523 -0.4977077 0.01299607 -0.8672475 -0.2932749 -0.1265708 0.9476126 0.6272962 -0.5067843 -0.5913285 -0.392261 -0.1932825 -0.8993181 0.1432822 0.6775709 0.7213653 0.2881588 0.396067 0.8718345 -0.1252208 -0.7050322 -0.6980325 0.7760914 -0.3844349 0.4998918 0.6149811 -0.7873498 -0.04334187 0.7089474 0.5890362 -0.3878529 -0.9033321 -0.1951807 0.3819628 0.9005331 0.2039162 0.3840031 -0.5784031 -0.8147504 -0.04039323 -0.7091279 -0.690522 -0.1425383 0.7268972 0.5228012 -0.445308 0.252431 -0.967332 -0.02339845 0.9621184 0.1391406 -0.2344526 -0.8912631 -0.2805153 -0.356316 -0.7991725 -0.4397192 0.4098418 0.7146958 0.6248039 -0.3143725 -0.6025988 0.2405078 -0.7609407 0.5155607 -0.05511635 0.8550786 0.8740012 0.4088174 0.2626599 -0.1695995 -0.3957138 0.9025777 0.08304512 0.5822357 -0.8087677 -0.9595887 -0.2256367 -0.1681592 -0.9716489 -0.1923761 -0.1374405 0.2417358 -0.6553424 0.7156048 -0.0984708 -0.6052761 0.7899015 -0.9022096 -0.1721205 -0.3954649 -0.4826058 0.3619788 -0.7975357 -0.6698463 0.3832474 -0.6359461 -0.326367 -0.766755 0.5527852 -0.7778959 -0.5258406 0.3440487 -0.4467233 0.7878662 -0.4239166 -0.6332138 0.7536938 0.1760284 0.8045215 -0.4364116 0.4028525 -0.4686694 -0.3955029 0.7898901 0.1256179 -0.7054898 -0.6974986 -0.2892403 0.3968086 0.8711389 -0.143756 0.678065 0.7208065 0.3936424 -0.1941611 -0.8985249 0.9627993 -0.04108601 0.267076 -0.8655481 0.3952418 0.3075879 -0.9009681 0.2051877 0.3823016 0.577482 -0.8154723 -0.03898125 -0.6268488 -0.5062914 -0.5922244 0.2914236 -0.1265055 0.9481923 -0.707535 0.5897209 -0.3893885 0.4992856 0.01199597 -0.8663544 -0.303339 0.3850012 0.8716419 0.9024153 -0.1961018 0.3836544 0.3884864 0.04959738 0.9201187 -0.1864071 0.344895 -0.9199455 -0.3615589 0.1986579 0.9109391 0.02613091 -0.8314574 -0.5549737 -0.290472 0.1278197 -0.948308 0.5406033 0.3581974 0.7612114 0.4095035 0.04884791 0.9109999 -0.5731167 -0.3575464 -0.7373586 -0.1063827 -0.5759139 0.810559 0.06342393 -0.9637718 0.2590779 0.9497682 -0.2187157 -0.2238388 -0.7593501 0.6110079 0.2237336 0.6676292 -0.5759343 0.4717742 -0.9911178 -0.03435152 -0.1284741 -0.961528 0.1402005 -0.236237 0.9242288 -0.2437771 -0.2938943 -0.8287137 -0.5195143 0.2081795 0.7085512 -0.691439 -0.1409516 -0.7203164 0.5751655 -0.3877227 -0.8739784 0.4099931 0.2608975 0.9596166 -0.226893 -0.1662996 -0.08089131 0.5819734 -0.8091747 0.1674635 -0.3955008 0.9030698 0.7979274 -0.4404992 0.4114273 -0.5171598 -0.05410444 0.8541771 0.6042785 0.239421 -0.7599508 -0.7133821 0.6255226 -0.315923 0.3469841 -0.7660899 0.5410252 0.6714933 0.3821186 -0.6348876 0.4379945 0.3954224 -0.8073425 0.7766606 -0.5266185 0.3456462 0.09626764 -0.6050295 0.7903618 -0.1890523 -0.6756261 0.7125928 0.9716602 -0.1936368 -0.1355774 0.902163 -0.1708105 -0.3961384 0.3843992 0.7962163 -0.4672012 0.3878429 0.8054653 -0.4481109 0.3922472 0.8064182 -0.4425291 0.3926773 0.8075699 -0.4400402 0.3919018 0.8019137 -0.4509406 -0.9633231 -0.04001563 0.2653438 0.8654738 0.3940597 0.3093088 0.1042309 -0.5764071 0.810488 0.5740121 -0.357903 -0.7364886 -0.4110726 0.04894804 0.9102876 -0.5609887 0.3279446 0.7600948 0.3100527 0.1553755 -0.937937 0.6338016 0.7528522 0.177508 -0.805769 -0.4356108 0.4012226 -0.6691774 -0.5753228 0.4703246 0.9913018 -0.03550428 -0.1267287 -0.02615302 -0.8311799 -0.555388 0.3601602 0.1978092 0.9116776 -0.9280633 -0.2236334 -0.297803 0.2123021 0.3654689 -0.9062893 -0.4101003 0.03061097 0.9115266 0.7313403 0.6163225 0.2920413 0.2757913 0.380215 0.8828226 -0.4683575 0.01900649 -0.8833347 -0.2932763 -0.1265757 0.9476115 0.6272993 -0.5067839 -0.5913254 -0.3606491 -0.1962689 -0.9118173 0.1073464 0.680634 0.7247166 0.2881596 0.3960666 0.8718345 -0.1252203 -0.7050312 -0.6980337 0.4667679 -0.3964252 0.7905535 0.827715 -0.5206018 0.2094317 0.7233514 0.6130595 -0.3176801 -0.9211971 -0.2244688 0.3178202 0.9005397 0.2039038 0.3839942 -0.5784032 -0.8147503 -0.04039549 -0.7091277 -0.6905226 -0.142536 0.7217083 0.5744644 -0.3861707 -0.06504595 -0.9638122 0.2585251 0.9621165 0.1391419 -0.2344595 -0.9240036 -0.2425119 -0.2956438 -0.826709 -0.4355005 0.3562182 0.7409402 0.6185335 -0.2615796 -0.5837316 0.2512239 -0.7721037 0.4957365 -0.06541979 0.8660055 0.8655452 0.3867472 0.3182108 -0.1906268 -0.4056909 0.8939107 0.1038659 0.5912228 -0.7997922 -0.9534658 -0.2033421 -0.2226096 0.884024 -0.1329046 0.4481495 0.04185158 0.7365623 -0.6750738 -0.115136 0.5539733 -0.8245346 0.9153994 0.3148234 0.2508586 0.6096041 -0.2537819 0.7509844 0.4834548 -0.5296521 0.6969506 0.7244715 0.6495745 -0.2306386 0.6354101 0.5986853 -0.4876781 -0.4406396 0.7716602 -0.458669 -0.4435027 0.7792118 -0.4428704 -0.4483164 0.7836556 -0.4299958 -0.4450281 0.7749061 -0.4488546 -0.4406396 0.7716602 -0.458669</float_array>
          <technique_common>
            <accessor source="#Cubo_014-mesh-normals-array" count="220" stride="3">
              <param name="X" type="float"/>
              <param name="Y" type="float"/>
              <param name="Z" type="float"/>
            </accessor>
          </technique_common>
        </source>
        <source id="Cubo_014-mesh-map-0">
          <float_array id="Cubo_014-mesh-map-0-array" count="1320">0.5179663 0.4585174 0.5118961 0.4645876 0.5118961 0.4585174 0.5118961 0.4827981 0.5179663 0.4888683 0.5118961 0.4888683 0.5118961 0.4949384 0.5145741 0.4976164 0.5118961 0.4976164 0.5058259 0.4827981 0.4997557 0.4888683 0.4997557 0.4827981 0.5301066 0.4827981 0.5240365 0.4888683 0.5240365 0.4827981 0.5301066 0.4767279 0.5240365 0.4827981 0.5240365 0.4767279 0.4997557 0.4767279 0.5058259 0.4827981 0.4997557 0.4827981 0.5118961 0.4767279 0.5179663 0.4827981 0.5118961 0.4827981 0.5179663 0.4524472 0.5118961 0.4585174 0.5118961 0.4524472 0.5145741 0.4976164 0.5118961 0.5010086 0.5118961 0.4976164 0.5092181 0.4922605 0.5118961 0.4888683 0.5118961 0.4922605 0.5092181 0.4949384 0.5058259 0.5010086 0.5058259 0.4949384 0.5145741 0.4949384 0.5179663 0.4888683 0.5179663 0.4949384 0.5106685 0.4687895 0.5118961 0.4580178 0.5118961 0.4687895 0.5106685 0.4706578 0.5058259 0.4832977 0.5058259 0.4706578 0.5131238 0.4687895 0.5179663 0.4706578 0.5131238 0.4706578 0.5118961 0.472526 0.5179663 0.4832977 0.5118961 0.4832977 0.5131238 0.472526 0.5179663 0.4706578 0.5179663 0.4832977 0.5106685 0.4706578 0.5058259 0.4580178 0.5106685 0.4687895 0.5145741 0.4949384 0.5179663 0.5010086 0.5145741 0.4976164 0.5092181 0.4949384 0.5058259 0.4888683 0.5092181 0.4922605 0.4997557 0.4767279 0.4936855 0.4827981 0.4936855 0.4767279 0.5179663 0.4767279 0.5240365 0.4827981 0.5179663 0.4827981 0.5179663 0.4827981 0.5240365 0.4888683 0.5179663 0.4888683 0.4936855 0.4827981 0.4997557 0.4888683 0.4936855 0.4888683 0.5145741 0.4922605 0.5118961 0.4949384 0.5118961 0.4922605 0.5092181 0.4922605 0.5118961 0.4949384 0.5092181 0.4949384 0.5106685 0.472526 0.5118961 0.4832977 0.5058259 0.4832977 0.5118961 0.4687895 0.5179663 0.4580178 0.5131238 0.4687895 0.5145741 0.4922605 0.5118961 0.4888683 0.5179663 0.4888683 0.5092181 0.4976164 0.5118961 0.5010086 0.5058259 0.5010086 0.5058259 0.4524472 0.5118961 0.4585174 0.5058259 0.4585174 0.5058259 0.4767279 0.5118961 0.4827981 0.5058259 0.4827981 0.5118961 0.4949384 0.5092181 0.4976164 0.5092181 0.4949384 0.5118961 0.4827981 0.5058259 0.4888683 0.5058259 0.4827981 0.5118961 0.4585174 0.5058259 0.4645876 0.5058259 0.4585174 0.5118961 0.4658103 0.5171409 0.4630398 0.515557 0.4658103 0.5082353 0.4755052 0.5118961 0.4782757 0.5066515 0.4782757 0.5082353 0.4706578 0.5066515 0.4630397 0.5082353 0.4658102 0.5155569 0.4755052 0.5171409 0.4706578 0.5171409 0.4782758 0.5118961 0.4755052 0.5171409 0.4782758 0.5118961 0.4782757 0.515557 0.4658103 0.5171409 0.4706578 0.5155569 0.4706578 0.5082353 0.4706578 0.5066515 0.4782757 0.5066515 0.4706578 0.5082353 0.4658102 0.5118961 0.4630398 0.5118961 0.4658103 0.5118961 0.4685808 0.5082353 0.4658102 0.5118961 0.4658103 0.5098192 0.4727348 0.5082353 0.4706578 0.5098192 0.4706578 0.5139731 0.4706578 0.515557 0.4658103 0.5155569 0.4706578 0.5139731 0.4727348 0.5118961 0.4755052 0.5118961 0.4727348 0.5139731 0.4706578 0.5155569 0.4755052 0.5139731 0.4727348 0.5098192 0.4685808 0.5082353 0.4706578 0.5082353 0.4658102 0.5118961 0.4727348 0.5082353 0.4755052 0.5098192 0.4727348 0.5139731 0.4685808 0.5118961 0.4658103 0.515557 0.4658103 0.5098192 0.4685808 0.5118961 0.4685808 0.5098192 0.4727348 0.5179663 0.4585174 0.5118961 0.4645876 0.5118961 0.4585174 0.5118961 0.4827981 0.5179663 0.4888683 0.5118961 0.4888683 0.5118961 0.4949384 0.5145741 0.4976164 0.5118961 0.4976164 0.5058259 0.4827981 0.4997557 0.4888683 0.4997557 0.4827981 0.5301066 0.4827981 0.5240365 0.4888683 0.5240365 0.4827981 0.5301066 0.4767279 0.5240365 0.4827981 0.5240365 0.4767279 0.4997557 0.4767279 0.5058259 0.4827981 0.4997557 0.4827981 0.5118961 0.4767279 0.5179663 0.4827981 0.5118961 0.4827981 0.5179663 0.4524472 0.5118961 0.4585174 0.5118961 0.4524472 0.5145741 0.4976164 0.5118961 0.5010086 0.5118961 0.4976164 0.5092181 0.4922605 0.5118961 0.4888683 0.5118961 0.4922605 0.5092181 0.4949384 0.5058259 0.5010086 0.5058259 0.4949384 0.5145741 0.4949384 0.5179663 0.4888683 0.5179663 0.4949384 0.5106685 0.4687895 0.5118961 0.4580178 0.5118961 0.4687895 0.5106685 0.4706578 0.5058259 0.4832977 0.5058259 0.4706578 0.5131238 0.4687895 0.5179663 0.4706578 0.5131238 0.4706578 0.5118961 0.472526 0.5179663 0.4832977 0.5118961 0.4832977 0.5131238 0.472526 0.5179663 0.4706578 0.5179663 0.4832977 0.5106685 0.4706578 0.5058259 0.4580178 0.5106685 0.4687895 0.5145741 0.4949384 0.5179663 0.5010086 0.5145741 0.4976164 0.5092181 0.4949384 0.5058259 0.4888683 0.5092181 0.4922605 0.4997557 0.4767279 0.4936855 0.4827981 0.4936855 0.4767279 0.5179663 0.4767279 0.5240365 0.4827981 0.5179663 0.4827981 0.5179663 0.4827981 0.5240365 0.4888683 0.5179663 0.4888683 0.4936855 0.4827981 0.4997557 0.4888683 0.4936855 0.4888683 0.5145741 0.4922605 0.5118961 0.4949384 0.5118961 0.4922605 0.5092181 0.4922605 0.5118961 0.4949384 0.5092181 0.4949384 0.5106685 0.472526 0.5118961 0.4832977 0.5058259 0.4832977 0.5118961 0.4687895 0.5179663 0.4580178 0.5131238 0.4687895 0.5145741 0.4922605 0.5118961 0.4888683 0.5179663 0.4888683 0.5092181 0.4976164 0.5118961 0.5010086 0.5058259 0.5010086 0.5058259 0.4524472 0.5118961 0.4585174 0.5058259 0.4585174 0.5058259 0.4767279 0.5118961 0.4827981 0.5058259 0.4827981 0.5118961 0.4949384 0.5092181 0.4976164 0.5092181 0.4949384 0.5118961 0.4827981 0.5058259 0.4888683 0.5058259 0.4827981 0.5118961 0.4585174 0.5058259 0.4645876 0.5058259 0.4585174 0.5118961 0.4658103 0.5171409 0.4630398 0.515557 0.4658103 0.5082353 0.4755052 0.5118961 0.4782757 0.5066515 0.4782757 0.5082353 0.4706578 0.5066515 0.4630397 0.5082353 0.4658102 0.5155569 0.4755052 0.5171409 0.4706578 0.5171409 0.4782758 0.5118961 0.4755052 0.5171409 0.4782758 0.5118961 0.4782757 0.515557 0.4658103 0.5171409 0.4706578 0.5155569 0.4706578 0.5082353 0.4706578 0.5066515 0.4782757 0.5066515 0.4706578 0.5082353 0.4658102 0.5118961 0.4630398 0.5118961 0.4658103 0.5118961 0.4685808 0.5082353 0.4658102 0.5118961 0.4658103 0.5098192 0.4727348 0.5082353 0.4706578 0.5098192 0.4706578 0.5139731 0.4706578 0.515557 0.4658103 0.5155569 0.4706578 0.5139731 0.4727348 0.5118961 0.4755052 0.5118961 0.4727348 0.5139731 0.4706578 0.5155569 0.4755052 0.5139731 0.4727348 0.5098192 0.4685808 0.5082353 0.4706578 0.5082353 0.4658102 0.5118961 0.4727348 0.5082353 0.4755052 0.5098192 0.4727348 0.5139731 0.4685808 0.5118961 0.4658103 0.515557 0.4658103 0.5098192 0.4685808 0.5118961 0.4685808 0.5098192 0.4727348 0.5179663 0.4585174 0.5179663 0.4645876 0.5118961 0.4645876 0.5118961 0.4827981 0.5179663 0.4827981 0.5179663 0.4888683 0.5118961 0.4949384 0.5145741 0.4949384 0.5145741 0.4976164 0.5058259 0.4827981 0.5058259 0.4888683 0.4997557 0.4888683 0.5301066 0.4827981 0.5301066 0.4888683 0.5240365 0.4888683 0.5301066 0.4767279 0.5301066 0.4827981 0.5240365 0.4827981 0.4997557 0.4767279 0.5058259 0.4767279 0.5058259 0.4827981 0.5118961 0.4767279 0.5179663 0.4767279 0.5179663 0.4827981 0.5179663 0.4524472 0.5179663 0.4585174 0.5118961 0.4585174 0.5145741 0.4976164 0.5179663 0.5010086 0.5118961 0.5010086 0.5092181 0.4922605 0.5058259 0.4888683 0.5118961 0.4888683 0.5092181 0.4949384 0.5092181 0.4976164 0.5058259 0.5010086 0.5145741 0.4949384 0.5145741 0.4922605 0.5179663 0.4888683 0.5106685 0.4687895 0.5058259 0.4580178 0.5118961 0.4580178 0.5106685 0.4706578 0.5106685 0.472526 0.5058259 0.4832977 0.5131238 0.4687895 0.5179663 0.4580178 0.5179663 0.4706578 0.5118961 0.472526 0.5131238 0.472526 0.5179663 0.4832977 0.5131238 0.472526 0.5131238 0.4706578 0.5179663 0.4706578 0.5106685 0.4706578 0.5058259 0.4706578 0.5058259 0.4580178 0.5145741 0.4949384 0.5179663 0.4949384 0.5179663 0.5010086 0.5092181 0.4949384 0.5058259 0.4949384 0.5058259 0.4888683 0.4997557 0.4767279 0.4997557 0.4827981 0.4936855 0.4827981 0.5179663 0.4767279 0.5240365 0.4767279 0.5240365 0.4827981 0.5179663 0.4827981 0.5240365 0.4827981 0.5240365 0.4888683 0.4936855 0.4827981 0.4997557 0.4827981 0.4997557 0.4888683 0.5145741 0.4922605 0.5145741 0.4949384 0.5118961 0.4949384 0.5092181 0.4922605 0.5118961 0.4922605 0.5118961 0.4949384 0.5106685 0.472526 0.5118961 0.472526 0.5118961 0.4832977 0.5118961 0.4687895 0.5118961 0.4580178 0.5179663 0.4580178 0.5145741 0.4922605 0.5118961 0.4922605 0.5118961 0.4888683 0.5092181 0.4976164 0.5118961 0.4976164 0.5118961 0.5010086 0.5058259 0.4524472 0.5118961 0.4524472 0.5118961 0.4585174 0.5058259 0.4767279 0.5118961 0.4767279 0.5118961 0.4827981 0.5118961 0.4949384 0.5118961 0.4976164 0.5092181 0.4976164 0.5118961 0.4827981 0.5118961 0.4888683 0.5058259 0.4888683 0.5118961 0.4585174 0.5118961 0.4645876 0.5058259 0.4645876 0.5118961 0.4658103 0.5118961 0.4630398 0.5171409 0.4630398 0.5082353 0.4755052 0.5118961 0.4755052 0.5118961 0.4782757 0.5082353 0.4706578 0.5066515 0.4706578 0.5066515 0.4630397 0.5155569 0.4755052 0.5155569 0.4706578 0.5171409 0.4706578 0.5118961 0.4755052 0.5155569 0.4755052 0.5171409 0.4782758 0.515557 0.4658103 0.5171409 0.4630398 0.5171409 0.4706578 0.5082353 0.4706578 0.5082353 0.4755052 0.5066515 0.4782757 0.5082353 0.4658102 0.5066515 0.4630397 0.5118961 0.4630398 0.5118961 0.4685808 0.5098192 0.4685808 0.5082353 0.4658102 0.5098192 0.4727348 0.5082353 0.4755052 0.5082353 0.4706578 0.5139731 0.4706578 0.5139731 0.4685808 0.515557 0.4658103 0.5139731 0.4727348 0.5155569 0.4755052 0.5118961 0.4755052 0.5139731 0.4706578 0.5155569 0.4706578 0.5155569 0.4755052 0.5098192 0.4685808 0.5098192 0.4706578 0.5082353 0.4706578 0.5118961 0.4727348 0.5118961 0.4755052 0.5082353 0.4755052 0.5139731 0.4685808 0.5118961 0.4685808 0.5118961 0.4658103 0.5139731 0.4685808 0.5139731 0.4706578 0.5139731 0.4727348 0.5139731 0.4727348 0.5118961 0.4727348 0.5139731 0.4685808 0.5118961 0.4727348 0.5098192 0.4727348 0.5118961 0.4685808 0.5139731 0.4685808 0.5118961 0.4727348 0.5118961 0.4685808 0.5098192 0.4727348 0.5098192 0.4706578 0.5098192 0.4685808 0.5179663 0.4585174 0.5179663 0.4645876 0.5118961 0.4645876 0.5118961 0.4827981 0.5179663 0.4827981 0.5179663 0.4888683 0.5118961 0.4949384 0.5145741 0.4949384 0.5145741 0.4976164 0.5058259 0.4827981 0.5058259 0.4888683 0.4997557 0.4888683 0.5301066 0.4827981 0.5301066 0.4888683 0.5240365 0.4888683 0.5301066 0.4767279 0.5301066 0.4827981 0.5240365 0.4827981 0.4997557 0.4767279 0.5058259 0.4767279 0.5058259 0.4827981 0.5118961 0.4767279 0.5179663 0.4767279 0.5179663 0.4827981 0.5179663 0.4524472 0.5179663 0.4585174 0.5118961 0.4585174 0.5145741 0.4976164 0.5179663 0.5010086 0.5118961 0.5010086 0.5092181 0.4922605 0.5058259 0.4888683 0.5118961 0.4888683 0.5092181 0.4949384 0.5092181 0.4976164 0.5058259 0.5010086 0.5145741 0.4949384 0.5145741 0.4922605 0.5179663 0.4888683 0.5106685 0.4687895 0.5058259 0.4580178 0.5118961 0.4580178 0.5106685 0.4706578 0.5106685 0.472526 0.5058259 0.4832977 0.5131238 0.4687895 0.5179663 0.4580178 0.5179663 0.4706578 0.5118961 0.472526 0.5131238 0.472526 0.5179663 0.4832977 0.5131238 0.472526 0.5131238 0.4706578 0.5179663 0.4706578 0.5106685 0.4706578 0.5058259 0.4706578 0.5058259 0.4580178 0.5145741 0.4949384 0.5179663 0.4949384 0.5179663 0.5010086 0.5092181 0.4949384 0.5058259 0.4949384 0.5058259 0.4888683 0.4997557 0.4767279 0.4997557 0.4827981 0.4936855 0.4827981 0.5179663 0.4767279 0.5240365 0.4767279 0.5240365 0.4827981 0.5179663 0.4827981 0.5240365 0.4827981 0.5240365 0.4888683 0.4936855 0.4827981 0.4997557 0.4827981 0.4997557 0.4888683 0.5145741 0.4922605 0.5145741 0.4949384 0.5118961 0.4949384 0.5092181 0.4922605 0.5118961 0.4922605 0.5118961 0.4949384 0.5106685 0.472526 0.5118961 0.472526 0.5118961 0.4832977 0.5118961 0.4687895 0.5118961 0.4580178 0.5179663 0.4580178 0.5145741 0.4922605 0.5118961 0.4922605 0.5118961 0.4888683 0.5092181 0.4976164 0.5118961 0.4976164 0.5118961 0.5010086 0.5058259 0.4524472 0.5118961 0.4524472 0.5118961 0.4585174 0.5058259 0.4767279 0.5118961 0.4767279 0.5118961 0.4827981 0.5118961 0.4949384 0.5118961 0.4976164 0.5092181 0.4976164 0.5118961 0.4827981 0.5118961 0.4888683 0.5058259 0.4888683 0.5118961 0.4585174 0.5118961 0.4645876 0.5058259 0.4645876 0.5118961 0.4658103 0.5118961 0.4630398 0.5171409 0.4630398 0.5082353 0.4755052 0.5118961 0.4755052 0.5118961 0.4782757 0.5082353 0.4706578 0.5066515 0.4706578 0.5066515 0.4630397 0.5155569 0.4755052 0.5155569 0.4706578 0.5171409 0.4706578 0.5118961 0.4755052 0.5155569 0.4755052 0.5171409 0.4782758 0.515557 0.4658103 0.5171409 0.4630398 0.5171409 0.4706578 0.5082353 0.4706578 0.5082353 0.4755052 0.5066515 0.4782757 0.5082353 0.4658102 0.5066515 0.4630397 0.5118961 0.4630398 0.5118961 0.4685808 0.5098192 0.4685808 0.5082353 0.4658102 0.5098192 0.4727348 0.5082353 0.4755052 0.5082353 0.4706578 0.5139731 0.4706578 0.5139731 0.4685808 0.515557 0.4658103 0.5139731 0.4727348 0.5155569 0.4755052 0.5118961 0.4755052 0.5139731 0.4706578 0.5155569 0.4706578 0.5155569 0.4755052 0.5098192 0.4685808 0.5098192 0.4706578 0.5082353 0.4706578 0.5118961 0.4727348 0.5118961 0.4755052 0.5082353 0.4755052 0.5139731 0.4685808 0.5118961 0.4685808 0.5118961 0.4658103 0.5139731 0.4685808 0.5139731 0.4706578 0.5139731 0.4727348 0.5139731 0.4727348 0.5118961 0.4727348 0.5139731 0.4685808 0.5118961 0.4727348 0.5098192 0.4727348 0.5118961 0.4685808 0.5139731 0.4685808 0.5118961 0.4727348 0.5118961 0.4685808 0.5098192 0.4727348 0.5098192 0.4706578 0.5098192 0.4685808</float_array>
          <technique_common>
            <accessor source="#Cubo_014-mesh-map-0-array" count="660" stride="2">
              <param name="S" type="float"/>
              <param name="T" type="float"/>
            </accessor>
          </technique_common>
        </source>
        <vertices id="Cubo_014-mesh-vertices">
          <input semantic="POSITION" source="#Cubo_014-mesh-positions"/>
        </vertices>
        <triangles material="A-textura_nok__General-material" count="220">
          <input semantic="VERTEX" source="#Cubo_014-mesh-vertices" offset="0"/>
          <input semantic="NORMAL" source="#Cubo_014-mesh-normals" offset="1"/>
          <input semantic="TEXCOORD" source="#Cubo_014-mesh-map-0" offset="2" set="0"/>
          <p>9 0 0 31 0 1 35 0 2 34 1 3 14 1 4 33 1 5 40 2 6 1 2 7 36 2 8 10 3 9 22 3 10 25 3 11 9 4 12 23 4 13 24 4 14 16 5 15 24 5 16 21 5 17 20 6 18 10 6 19 25 6 20 32 7 21 11 7 22 34 7 23 13 8 24 35 8 25 30 8 26 1 9 27 30 9 28 36 9 29 4 10 30 33 10 31 37 10 32 26 11 33 12 11 34 22 11 35 27 12 36 14 12 37 23 12 38 42 13 39 31 13 40 48 13 41 46 14 42 18 14 43 20 14 44 41 15 45 21 15 46 45 15 47 47 16 48 19 16 49 32 16 50 44 17 51 21 17 52 19 17 53 46 18 54 17 18 55 42 18 56 27 19 57 13 19 58 1 19 59 26 20 60 15 20 61 4 20 62 20 21 63 8 21 64 17 21 65 19 22 66 24 22 67 11 22 68 11 23 69 23 23 70 14 23 71 8 24 72 22 24 73 12 24 74 5 25 75 40 25 76 37 25 77 4 26 78 40 26 79 26 26 80 43 27 81 32 27 82 18 27 83 48 28 84 16 28 85 41 28 86 5 29 87 33 29 88 14 29 89 0 30 90 30 30 91 12 30 92 12 31 93 35 31 94 8 31 95 18 32 96 34 32 97 10 32 98 40 33 99 0 33 100 26 33 101 34 34 102 15 34 103 10 34 104 35 35 105 17 35 106 8 35 107 56 36 108 41 36 109 49 36 110 52 37 111 47 37 112 43 37 113 54 38 114 42 38 115 51 38 116 50 39 117 45 39 118 44 39 119 55 40 120 44 40 121 47 40 122 49 41 123 45 41 124 53 41 125 54 42 126 43 42 127 46 42 128 51 43 129 48 43 130 56 43 131 38 44 132 51 44 133 56 44 134 6 45 135 54 45 136 28 45 137 29 46 138 49 46 139 53 46 140 7 47 141 55 47 142 39 47 143 29 48 144 50 48 145 7 48 146 2 49 147 54 49 148 51 49 149 39 50 150 52 50 151 6 50 152 3 51 153 56 51 154 49 51 155 2 52 156 38 52 157 6 52 158 66 53 159 88 53 160 92 53 161 91 54 162 71 54 163 90 54 164 97 55 165 58 55 166 93 55 167 67 56 168 79 56 169 82 56 170 66 57 171 80 57 172 81 57 173 73 58 174 81 58 175 78 58 176 77 59 177 67 59 178 82 59 179 89 60 180 68 60 181 91 60 182 70 61 183 92 61 184 87 61 185 58 62 186 87 62 187 93 62 188 61 63 189 90 63 190 94 63 191 83 64 192 69 64 193 79 64 194 84 65 195 71 65 196 80 65 197 99 66 198 88 66 199 105 66 200 103 67 201 75 67 202 77 67 203 98 68 204 78 68 205 102 68 206 104 69 207 76 69 208 89 69 209 101 70 210 78 70 211 76 70 212 103 71 213 74 71 214 99 71 215 84 72 216 70 72 217 58 72 218 83 73 219 72 73 220 61 73 221 77 74 222 65 74 223 74 74 224 76 75 225 81 75 226 68 75 227 68 76 228 80 76 229 71 76 230 65 77 231 79 77 232 69 77 233 62 78 234 97 78 235 94 78 236 61 79 237 97 79 238 83 79 239 100 80 240 89 80 241 75 80 242 105 81 243 73 81 244 98 81 245 62 82 246 90 82 247 71 82 248 57 83 249 87 83 250 69 83 251 69 84 252 92 84 253 65 84 254 75 85 255 91 85 256 67 85 257 97 86 258 57 86 259 83 86 260 91 87 261 72 87 262 67 87 263 92 88 264 74 88 265 65 88 266 113 89 267 98 89 268 106 89 269 109 90 270 104 90 271 100 90 272 111 91 273 99 91 274 108 91 275 107 92 276 102 92 277 101 92 278 112 93 279 101 93 280 104 93 281 106 94 282 102 94 283 110 94 284 111 95 285 100 95 286 103 95 287 108 96 288 105 96 289 113 96 290 95 97 291 108 97 292 113 97 293 63 98 294 111 98 295 85 98 296 86 99 297 106 99 298 110 99 299 64 100 300 112 100 301 96 100 302 86 101 303 107 101 304 64 101 305 59 102 306 111 102 307 108 102 308 96 103 309 109 103 310 63 103 311 60 104 312 113 104 313 106 104 314 59 105 315 95 105 316 63 105 317 9 106 318 16 106 319 31 106 320 34 107 321 11 107 322 14 107 323 40 108 324 27 108 325 1 108 326 10 109 327 15 109 328 22 109 329 9 110 330 13 110 331 23 110 332 16 111 333 9 111 334 24 111 335 20 112 336 18 112 337 10 112 338 32 113 339 19 113 340 11 113 341 13 114 342 9 114 343 35 114 344 1 115 345 13 115 346 30 115 347 4 116 348 15 116 349 33 116 350 26 117 351 0 117 352 12 117 353 27 118 354 5 118 355 14 118 356 42 119 357 17 119 358 31 119 359 46 120 360 43 120 361 18 120 362 41 121 363 16 121 364 21 121 365 47 122 366 44 122 367 19 122 368 44 123 369 45 123 370 21 123 371 46 124 372 20 124 373 17 124 374 27 125 375 23 125 376 13 125 377 26 126 378 22 126 379 15 126 380 20 127 381 25 127 382 8 127 383 19 128 384 21 128 385 24 128 386 11 129 387 24 129 388 23 129 389 8 130 390 25 130 391 22 130 392 5 131 393 27 131 394 40 131 395 4 132 396 37 132 397 40 132 398 43 133 399 47 133 400 32 133 401 48 134 402 31 134 403 16 134 404 5 135 405 37 135 406 33 135 407 0 136 408 36 136 409 30 136 410 12 137 411 30 137 412 35 137 413 18 138 414 32 138 415 34 138 416 40 139 417 36 139 418 0 139 419 34 140 420 33 140 421 15 140 422 35 141 423 31 141 424 17 141 425 56 142 426 48 142 427 41 142 428 52 143 429 55 143 430 47 143 431 54 144 432 46 144 433 42 144 434 50 145 435 53 145 436 45 145 437 55 146 438 50 146 439 44 146 440 49 147 441 41 147 442 45 147 443 54 148 444 52 148 445 43 148 446 51 149 447 42 149 448 48 149 449 38 150 450 2 150 451 51 150 452 6 151 453 52 151 454 54 151 455 29 152 456 3 152 457 49 152 458 7 153 459 50 153 460 55 153 461 29 154 462 53 154 463 50 154 464 2 155 465 28 155 466 54 155 467 39 156 468 55 156 469 52 156 470 3 157 471 38 157 472 56 157 473 3 158 474 29 158 475 7 158 476 7 159 477 39 159 478 3 159 479 39 160 480 6 160 481 38 160 482 3 161 483 39 161 484 38 161 485 6 162 486 28 162 487 2 162 488 66 163 489 73 163 490 88 163 491 91 164 492 68 164 493 71 164 494 97 165 495 84 165 496 58 165 497 67 166 498 72 166 499 79 166 500 66 167 501 70 167 502 80 167 503 73 168 504 66 168 505 81 168 506 77 169 507 75 169 508 67 169 509 89 170 510 76 170 511 68 170 512 70 171 513 66 171 514 92 171 515 58 172 516 70 172 517 87 172 518 61 173 519 72 173 520 90 173 521 83 174 522 57 174 523 69 174 524 84 175 525 62 175 526 71 175 527 99 176 528 74 176 529 88 176 530 103 177 531 100 177 532 75 177 533 98 178 534 73 178 535 78 178 536 104 179 537 101 179 538 76 179 539 101 180 540 102 180 541 78 180 542 103 181 543 77 181 544 74 181 545 84 182 546 80 182 547 70 182 548 83 183 549 79 183 550 72 183 551 77 184 552 82 184 553 65 184 554 76 185 555 78 185 556 81 185 557 68 186 558 81 186 559 80 186 560 65 187 561 82 187 562 79 187 563 62 188 564 84 188 565 97 188 566 61 189 567 94 189 568 97 189 569 100 190 570 104 190 571 89 190 572 105 191 573 88 191 574 73 191 575 62 192 576 94 192 577 90 192 578 57 193 579 93 193 580 87 193 581 69 194 582 87 194 583 92 194 584 75 195 585 89 195 586 91 195 587 97 196 588 93 196 589 57 196 590 91 197 591 90 197 592 72 197 593 92 198 594 88 198 595 74 198 596 113 199 597 105 199 598 98 199 599 109 200 600 112 200 601 104 200 602 111 201 603 103 201 604 99 201 605 107 202 606 110 202 607 102 202 608 112 203 609 107 203 610 101 203 611 106 204 612 98 204 613 102 204 614 111 205 615 109 205 616 100 205 617 108 206 618 99 206 619 105 206 620 95 207 621 59 207 622 108 207 623 63 208 624 109 208 625 111 208 626 86 209 627 60 209 628 106 209 629 64 210 630 107 210 631 112 210 632 86 211 633 110 211 634 107 211 635 59 212 636 85 212 637 111 212 638 96 213 639 112 213 640 109 213 641 60 214 642 95 214 643 113 214 644 60 215 645 86 215 646 64 215 647 64 216 648 96 216 649 60 216 650 96 217 651 63 217 652 95 217 653 60 218 654 96 218 655 95 218 656 63 219 657 85 219 658 59 219 659</p>
        </triangles>
      </mesh>
    </geometry>
  </library_geometries>
  <library_visual_scenes>
    <visual_scene id="Scene" name="Scene">
      <node id="a_hair_female_02" name="a_hair_female_02" type="NODE">
        <matrix sid="transform">1 0 0 0 0 1 0 0 0 0 1 0 0 0 0 1</matrix>
        <instance_geometry url="#Cubo_014-mesh" name="a_hair_female_02">
          <bind_material>
            <technique_common>
              <instance_material symbol="A-textura_nok__General-material" target="#A-textura_nok__General-material">
                <bind_vertex_input semantic="MapaUV" input_semantic="TEXCOORD" input_set="0"/>
              </instance_material>
            </technique_common>
          </bind_material>
        </instance_geometry>
      </node>
    </visual_scene>
  </library_visual_scenes>
  <scene>
    <instance_visual_scene url="#Scene"/>
  </scene>
</COLLADA>