<?xml version="1.0" encoding="utf-8"?>
<COLLADA xmlns="http://www.collada.org/2005/11/COLLADASchema" version="1.4.1" xmlns:xsi="http://www.w3.org/2001/XMLSchema-instance">
  <asset>
    <contributor>
      <author>Blender User</author>
      <authoring_tool>Blender 4.3.1 commit date:2024-12-10, commit time:07:46, hash:33d812126174</authoring_tool>
    </contributor>
    <created>2026-08-20T09:13:44</created>
    <modified>2026-08-20T09:13:44</modified>
    <unit name="meter" meter="1"/>
    <up_axis>Z_UP</up_axis>
  </asset>
  <library_effects>
    <effect id="A-textura_nok__General-effect">
      <profile_COMMON>
        <newparam sid="nok_png-surface">
          <surface type="2D">
            <init_from>nok_png</init_from>
          </surface>
        </newparam>
        <newparam sid="nok_png-sampler">
          <sampler2D>
            <source>nok_png-surface</source>
          </sampler2D>
        </newparam>
        <technique sid="common">
          <lambert>
            <emission>
              <color sid="emission">0 0 0 1</color>
            </emission>
            <diffuse>
              <texture texture="nok_png-sampler" texcoord="MapaUV"/>
            </diffuse>
            <index_of_refraction>
              <float sid="ior">1.45</float>
            </index_of_refraction>
          </lambert>
        </technique>
      </profile_COMMON>
    </effect>
  </library_effects>
  <library_images>
    <image id="nok_png" name="nok_png">
      <init_from>nok.png</init_from>
    </image>
  </library_images>
  <library_materials>
    <material id="A-textura_nok__General-material" name="A-textura nok  General">
      <instance_effect url="#A-textura_nok__General-effect"/>
    </material>
  </library_materials>
  <library_geometries>
    <geometry id="Cubo_078-mesh" name="Cubo.078">
      <mesh>
        <source id="Cubo_078-mesh-positions">
          <float_array id="Cubo_078-mesh-positions-array" count="312">-0.05797034 -0.1039909 0.4655877 -0.05797034 -0.1039909 0.5815286 -0.05797034 0.01194983 0.4655877 -0.05797034 0.01194983 0.5815286 0.05797034 -0.1039909 0.4655877 0.05797034 -0.1039909 0.5815286 0.05797034 0.01194983 0.4655877 0.05797034 0.01194983 0.5815286 -0.083561 -0.1295815 0.5235581 -0.083561 0.03754049 0.5235581 0.083561 0.03754049 0.5235581 0.083561 -0.1295815 0.5235581 -0.07808649 -0.0460205 0.4454717 -0.07808649 -0.0460205 0.6016446 0.07808649 -0.0460205 0.4454717 0.07808649 -0.0460205 0.6016446 0.1125573 -0.0460205 0.5235581 -0.1125572 -0.0460205 0.5235581 0 0.03452622 0.4430114 0 0.03452622 0.6041049 0 -0.1265673 0.4430114 0 -0.1265673 0.6041049 0 -0.1621242 0.5235581 0 0.07008302 0.5235581 0 -0.0460205 0.6320552 0 -0.0460205 0.4150611 -0.05797082 0.1838698 0.406463 -0.05797082 0.1838698 0.5224038 -0.05797082 0.2998107 0.406463 -0.05797082 0.2998107 0.5224038 0.05796992 0.1838698 0.406463 0.05796992 0.1838698 0.5224038 0.05796992 0.2998107 0.406463 0.05796992 0.2998107 0.5224038 -0.08356142 0.1582792 0.4644334 -0.08356142 0.3254013 0.4644334 0.08356058 0.3254013 0.4644334 0.08356058 0.1582792 0.4644334 -0.07808691 0.2418403 0.3863469 -0.07808691 0.2418403 0.5425199 0.07808601 0.2418403 0.3863469 0.07808601 0.2418403 0.5425199 0.1125568 0.2418402 0.4644334 -0.1125577 0.2418402 0.4644334 -4.31514e-7 0.322387 0.3838866 -4.31514e-7 0.322387 0.5449802 -4.31514e-7 0.1612935 0.3838866 -4.31514e-7 0.1612935 0.5449802 -4.1231e-7 0.1257365 0.4644334 -4.1231e-7 0.3579438 0.4644334 -4.21912e-7 0.2418403 0.5729305 -4.21912e-7 0.2418403 0.3559364 -0.05797082 0.2629683 0.1473092 -0.05797082 0.2629683 0.26325 -0.05797082 0.378909 0.1473092 -0.05797082 0.378909 0.26325 0.05796992 0.2629683 0.1473092 0.05796992 0.2629683 0.26325 0.05796992 0.378909 0.1473092 0.05796992 0.378909 0.26325 -0.08356142 0.2373775 0.2052796 -0.08356142 0.4044997 0.2052796 0.08356058 0.4044997 0.2052796 0.08356058 0.2373775 0.2052796 -0.07808691 0.3209387 0.1271931 -0.07808691 0.3209387 0.2833662 0.07808601 0.3209387 0.1271931 0.07808601 0.3209387 0.2833662 0.1125568 0.3209386 0.2052796 -0.1125577 0.3209386 0.2052796 -4.31514e-7 0.4014854 0.1247329 -4.31514e-7 0.4014854 0.2858264 -4.31514e-7 0.2403918 0.1247329 -4.31514e-7 0.2403918 0.2858264 -4.1231e-7 0.2048349 0.2052796 -4.1231e-7 0.4370422 0.2052796 -4.21912e-7 0.3209387 0.3137767 -4.21912e-7 0.3209387 0.09678256 -0.05797082 -0.3391719 0.376561 -0.05797082 -0.3391719 0.4925017 -0.05797082 -0.2232311 0.376561 -0.05797082 -0.2232311 0.4925017 0.05796992 -0.3391719 0.376561 0.05796992 -0.3391719 0.4925017 0.05796992 -0.2232311 0.376561 0.05796992 -0.2232311 0.4925017 -0.08356142 -0.3647626 0.4345314 -0.08356142 -0.1976405 0.4345314 0.08356058 -0.1976405 0.4345314 0.08356058 -0.3647626 0.4345314 -0.07808691 -0.2812016 0.3564449 -0.07808691 -0.2812016 0.5126179 0.07808601 -0.2812016 0.3564449 0.07808601 -0.2812016 0.5126179 0.1125568 -0.2812016 0.4345314 -0.1125577 -0.2812016 0.4345314 -4.31514e-7 -0.2006548 0.3539846 -4.31514e-7 -0.2006548 0.5150781 -4.31514e-7 -0.3617483 0.3539846 -4.31514e-7 -0.3617483 0.5150781 -4.1231e-7 -0.3973052 0.4345314 -4.1231e-7 -0.165098 0.4345314 -4.21912e-7 -0.2812016 0.5430284 -4.21912e-7 -0.2812016 0.3260343</float_array>
          <technique_common>
            <accessor source="#Cubo_078-mesh-positions-array" count="104" stride="3">
              <param name="X" type="float"/>
              <param name="Y" type="float"/>
              <param name="Z" type="float"/>
            </accessor>
          </technique_common>
        </source>
        <source id="Cubo_078-mesh-normals">
          <float_array id="Cubo_078-mesh-normals-array" count="1140">-0.8309994 0.3506916 0.431805 -0.831035 0.3512392 0.4312911 -0.8236679 0.2858179 0.4897748 0.3867872 0.8153363 0.4308391 0.3872171 0.8153514 0.4304244 0.3150672 0.8090124 0.4962174 0.8309987 -0.3506921 0.4318057 0.8310344 -0.3512396 0.4312918 0.8236674 -0.2858185 0.4897754 -0.3867875 -0.8153362 0.4308391 -0.3872172 -0.8153513 0.4304244 -0.3150682 -0.8090122 0.4962173 0.3894381 -0.3522993 -0.8510131 0.3893062 -0.3524349 -0.8510173 0.4440542 -0.2937355 -0.8464842 -0.3894386 -0.3522991 0.851013 -0.3893066 -0.3524348 0.8510172 -0.4440544 -0.2937356 0.846484 -0.3867872 -0.8153363 -0.4308392 -0.387217 -0.8153513 -0.4304246 -0.456832 -0.8137876 -0.3592413 0.830999 -0.3506918 -0.4318054 0.8310347 -0.3512393 -0.4312915 0.831872 -0.4160949 -0.3672248 0.3867873 0.8153363 -0.4308391 0.3872171 0.8153514 -0.4304245 0.4568317 0.8137878 -0.3592413 -0.8309991 0.3506918 -0.4318051 -0.8310348 0.3512393 -0.4312912 -0.8318723 0.4160948 -0.3672243 -0.8310349 -0.3512392 -0.4312911 -0.8309993 -0.3506917 -0.431805 -0.8318723 -0.4160948 -0.3672243 0.8310346 0.3512395 -0.4312916 0.8309989 0.350692 -0.4318056 0.8318721 0.416095 -0.3672247 -0.3893066 0.3524348 0.8510172 -0.3894386 0.3522991 0.851013 -0.4440543 0.2937358 0.846484 0.389306 0.352435 -0.8510174 0.3894379 0.3522994 -0.8510132 0.4440535 0.2937357 -0.8464845 0.8310347 0.3512394 0.4312914 0.8309991 0.3506919 0.4318054 0.8236677 0.2858183 0.4897751 -0.8310347 -0.3512395 0.4312916 -0.8309989 -0.350692 0.4318055 -0.8236675 -0.2858182 0.4897755 -0.3893058 0.3524349 -0.8510174 -0.3894377 0.3522993 -0.8510132 -0.3310235 0.4098176 -0.8499841 0.3893068 0.3524348 0.8510171 0.3894387 0.3522993 0.8510129 0.3310241 0.4098174 0.8499841 -0.3872166 0.8153516 -0.4304243 -0.386787 0.8153365 -0.430839 -0.4568313 0.8137881 -0.3592413 0.3872169 -0.8153512 -0.4304249 0.3867872 -0.8153361 -0.4308395 0.4568319 -0.8137875 -0.3592417 0.3894387 -0.3522992 0.8510128 0.3893067 -0.3524348 0.851017 0.3310239 -0.4098173 0.8499841 -0.389438 -0.3522992 -0.8510131 -0.389306 -0.3524349 -0.8510173 -0.3310232 -0.4098178 -0.8499842 0.3872175 -0.815351 0.4304248 0.3867878 -0.8153359 0.4308394 0.3150683 -0.8090118 0.4962176 -0.3872169 0.8153516 0.4304243 -0.3867871 0.8153365 0.430839 -0.3150671 0.8090127 0.4962171 -0.8309994 0.3506914 0.4318051 -0.831035 0.3512389 0.4312912 -0.8236677 0.2858178 0.4897753 0.3867874 0.8153363 0.4308392 0.3872172 0.8153513 0.4304245 0.3150671 0.8090124 0.4962176 0.830999 -0.3506919 0.4318056 0.8310346 -0.3512394 0.4312916 0.8236671 -0.2858185 0.4897758 -0.3867879 -0.815336 0.4308394 -0.3872177 -0.815351 0.4304247 -0.3150671 -0.8090121 0.4962179 0.3894392 -0.3522993 -0.8510126 0.3893073 -0.3524349 -0.8510168 0.4440559 -0.2937356 -0.8464833 -0.3894382 -0.3522996 0.851013 -0.3893061 -0.3524352 0.8510171 -0.4440541 -0.2937356 0.8464841 -0.3867877 -0.8153361 -0.4308394 -0.3872174 -0.8153511 -0.4304248 -0.4568327 -0.8137872 -0.3592413 0.8309989 -0.3506919 -0.4318057 0.8310345 -0.3512394 -0.4312917 0.8318721 -0.4160948 -0.3672249 0.3867873 0.8153363 -0.4308393 0.3872171 0.8153514 -0.4304246 0.4568324 0.8137874 -0.3592413 -0.8309991 0.3506917 -0.4318055 -0.8310347 0.3512391 -0.4312916 -0.8318723 0.4160946 -0.3672245 -0.8310347 -0.3512392 -0.4312915 -0.8309991 -0.3506917 -0.4318054 -0.8318721 -0.4160946 -0.3672247 0.8310344 0.3512394 -0.4312919 0.8309988 0.3506919 -0.431806 0.8318719 0.4160947 -0.3672252 -0.3893062 0.3524352 0.8510172 -0.3894381 0.3522995 0.851013 -0.4440545 0.2937359 0.846484 0.389307 0.3524351 -0.8510169 0.3894389 0.3522995 -0.8510126 0.444055 0.2937358 -0.8464836 0.8310347 0.3512391 0.4312915 0.8309991 0.3506917 0.4318054 0.8236675 0.2858181 0.4897753 -0.831035 -0.351239 0.4312912 -0.8309994 -0.3506915 0.4318052 -0.8236675 -0.2858181 0.4897753 -0.3893067 0.3524349 -0.851017 -0.3894386 0.3522993 -0.8510128 -0.3310235 0.4098176 -0.8499842 0.3893063 0.3524354 0.851017 0.3894383 0.3522998 0.8510128 0.3310233 0.4098184 0.8499839 -0.3872169 0.8153514 -0.4304245 -0.3867871 0.8153364 -0.4308391 -0.4568323 0.8137876 -0.3592408 0.3872174 -0.815351 -0.4304251 0.3867876 -0.8153358 -0.4308397 0.4568327 -0.8137872 -0.3592415 0.3894382 -0.3522996 0.851013 0.3893063 -0.3524352 0.8510171 0.3310231 -0.4098181 0.8499841 -0.3894391 -0.3522994 -0.8510125 -0.3893072 -0.352435 -0.8510168 -0.3310239 -0.4098181 -0.8499838 0.3872176 -0.8153508 0.4304251 0.3867879 -0.8153358 0.4308398 0.3150669 -0.8090118 0.4962185 -0.3872171 0.8153513 0.4304244 -0.3867874 0.8153363 0.4308391 -0.3150671 0.8090121 0.4962177 -0.8309994 0.3506916 0.4318048 -0.8310351 0.3512391 0.4312909 -0.8236677 0.2858179 0.4897752 0.3867872 0.8153363 0.4308391 0.387217 0.8153513 0.4304245 0.3150669 0.8090123 0.4962178 0.8309988 -0.3506919 0.4318058 0.8310345 -0.3512393 0.4312918 0.8236671 -0.2858182 0.4897759 -0.3867877 -0.815336 0.4308394 -0.3872174 -0.815351 0.4304248 -0.3150672 -0.8090121 0.4962179 0.3894387 -0.3522993 -0.8510128 0.3893068 -0.3524349 -0.8510171 0.4440551 -0.2937358 -0.8464835 -0.389438 -0.3522993 0.8510131 -0.3893061 -0.3524349 0.8510173 -0.4440542 -0.2937356 0.8464841 -0.3867877 -0.8153361 -0.4308394 -0.3872174 -0.8153511 -0.4304246 0.8309988 -0.3506919 -0.4318059 0.8310344 -0.3512394 -0.4312918 0.8318719 -0.416095 -0.3672249 0.3867872 0.8153364 -0.430839 0.387217 0.8153514 -0.4304242 0.4568324 0.8137878 -0.3592408 -0.8309994 0.3506917 -0.4318047 -0.8310351 0.3512392 -0.4312908 -0.8318727 0.4160946 -0.3672237 -0.8310347 -0.3512392 -0.4312916 -0.8309991 -0.3506917 -0.4318056 -0.8318721 -0.4160946 -0.3672251 0.8310347 0.3512393 -0.4312914 0.830999 0.3506918 -0.4318054 0.8318724 0.4160948 -0.3672242 -0.3893061 0.3524349 0.8510172 -0.3894381 0.3522993 0.8510131 -0.4440544 0.2937358 0.846484 0.3893067 0.3524351 -0.8510169 0.3894386 0.3522996 -0.8510127 0.4440546 0.2937359 -0.8464838 0.8310346 0.3512393 0.4312915 0.830999 0.3506919 0.4318055 0.8236672 0.2858182 0.4897758 -0.8310347 -0.351239 0.4312916 -0.830999 -0.3506916 0.4318056 -0.8236675 -0.2858179 0.4897754 -0.3893064 0.3524349 -0.8510172 -0.3894383 0.3522993 -0.851013 -0.3310234 0.4098175 -0.8499843 0.3893064 0.3524352 0.8510171 0.3894384 0.3522996 0.8510129 0.3310233 0.409818 0.8499841 -0.3872169 0.8153515 -0.4304245 -0.3867871 0.8153364 -0.4308391 -0.4568322 0.8137879 -0.3592404 0.3872175 -0.8153509 -0.4304248 0.3867877 -0.815336 -0.4308395 0.456833 -0.8137872 -0.3592413 0.3894383 -0.3522993 0.8510131 0.3893063 -0.3524349 0.8510172 0.3310229 -0.4098175 0.8499845 -0.3894385 -0.3522992 -0.851013 -0.3893065 -0.3524348 -0.8510171 -0.3310235 -0.4098176 -0.8499841 0.3872175 -0.8153508 0.4304251 0.3867878 -0.8153358 0.4308397 0.3150673 -0.8090118 0.4962184 -0.3872168 0.8153515 0.4304246 -0.3867871 0.8153364 0.4308392 -0.3150666 0.8090121 0.4962183 -0.8309995 0.3506916 0.4318049 -0.8310351 0.351239 0.4312909 -0.8236681 0.2858179 0.4897747 0.3867873 0.8153361 0.4308395 0.3872171 0.8153512 0.4304248 0.3150675 0.8090119 0.4962179 0.830999 -0.3506919 0.4318056 0.8310347 -0.3512394 0.4312916 0.8236675 -0.285818 0.4897754 -0.3867874 -0.815336 0.4308397 -0.3872171 -0.8153511 0.4304251 -0.3150674 -0.809012 0.496218 0.3894389 -0.3522993 -0.8510128 0.389307 -0.3524349 -0.8510169 0.4440552 -0.2937358 -0.8464836 -0.3894385 -0.3522993 0.8510128 -0.3893066 -0.3524349 0.8510171 -0.4440551 -0.2937356 0.8464835 -0.3867876 -0.815336 -0.4308394 -0.3872174 -0.815351 -0.4304248 -0.4568324 -0.8137874 -0.3592416 0.8309988 -0.3506919 -0.4318058 0.8310344 -0.3512394 -0.4312918 0.8318722 -0.4160947 -0.3672246 0.3867874 0.8153363 -0.4308393 0.3872171 0.8153513 -0.4304245 0.4568326 0.8137874 -0.3592411 -0.8309993 0.3506916 -0.431805 -0.831035 0.3512392 -0.431291 -0.8318725 0.4160944 -0.3672243 -0.8310348 -0.3512392 -0.4312915 -0.8309991 -0.3506917 -0.4318054 -0.8318725 -0.4160943 -0.3672243 0.8310348 0.3512393 -0.4312912 0.8309992 0.3506919 -0.4318053 0.8318721 0.4160948 -0.3672248 -0.3893064 0.3524352 0.8510171 -0.3894383 0.3522996 0.8510128 -0.4440544 0.2937358 0.8464839 0.389307 0.3524351 -0.8510168 0.3894391 0.3522994 -0.8510127 0.4440552 0.2937359 -0.8464835 0.8310347 0.3512395 0.4312912 0.8309992 0.350692 0.4318052 0.8236678 0.2858182 0.4897749 -0.8310349 -0.3512391 0.4312914 -0.8309993 -0.3506916 0.4318053 -0.8236677 -0.2858178 0.4897751 -0.3893069 0.352435 -0.8510169 -0.3894389 0.3522993 -0.8510127 -0.331024 0.4098178 -0.8499839 0.3893065 0.3524352 0.8510169 0.3894385 0.3522996 0.8510128 -0.3872171 0.8153514 -0.4304243 -0.3867873 0.8153365 -0.430839 -0.4568325 0.8137876 -0.3592409 0.3872175 -0.8153511 -0.4304245 0.3867878 -0.8153361 -0.4308392 0.4568325 -0.8137872 -0.3592416 0.3894387 -0.3522994 0.8510127 0.3893068 -0.352435 0.8510169 0.3310232 -0.4098177 0.8499842 -0.3894388 -0.3522992 -0.8510128 -0.3893068 -0.3524348 -0.8510171 -0.3310237 -0.4098174 -0.8499842 0.3872174 -0.8153511 0.4304248 0.3867875 -0.8153359 0.4308394 0.3150677 -0.8090122 0.4962174 -0.3872169 0.8153513 0.4304245 -0.3867872 0.8153364 0.4308391 -0.3150675 0.8090122 0.4962175 -0.8318723 0.4160947 0.3672243 0.4568321 0.8137876 0.3592413 0.8318718 -0.4160952 0.3672252 -0.4568316 -0.8137878 0.3592416 0.3310232 -0.4098179 -0.8499841 -0.3310239 -0.4098173 0.8499841 -0.3150672 -0.8090122 -0.4962176 0.8236676 -0.285818 -0.4897752 0.3150676 0.8090122 -0.4962175 -0.8236677 0.2858182 -0.4897752 -0.8236678 -0.2858179 -0.489775 0.8236674 0.2858183 -0.4897757 -0.331024 0.4098172 0.8499842 0.3310236 0.4098179 -0.8499841 0.8318721 0.4160948 0.3672248 -0.8318721 -0.4160951 0.3672247 -0.4440532 0.2937356 -0.8464846 0.4440545 0.2937359 0.846484 -0.3150672 0.8090125 -0.4962173 0.3150672 -0.8090121 -0.4962179 0.4440547 -0.2937358 0.8464838 -0.444054 -0.2937355 -0.8464844 0.456832 -0.8137875 0.3592417 -0.4568319 0.8137878 0.3592413 -0.8318726 0.4160943 0.367224 0.4568324 0.8137874 0.3592413 0.8318724 -0.4160946 0.3672245 -0.4568332 -0.8137869 0.3592412 0.3310237 -0.4098177 -0.849984 -0.3310232 -0.4098184 0.8499838 -0.3150671 -0.8090121 -0.4962179 0.8236674 -0.2858184 -0.4897756 0.3150668 0.8090124 -0.4962176 -0.8236674 0.285818 -0.4897757 -0.8236675 -0.2858181 -0.4897753 0.8236672 0.2858185 -0.4897758 -0.3310229 0.4098179 0.8499843 0.3310239 0.4098179 -0.8499838 0.8318722 0.4160944 0.3672248 -0.8318726 -0.4160943 0.3672242 -0.444055 0.2937358 -0.8464837 -0.3150666 0.8090123 -0.4962179 0.3150672 -0.8090118 -0.4962184 0.4440545 -0.2937358 0.846484 -0.4440554 -0.2937354 -0.8464835 0.4568334 -0.8137868 0.3592413 -0.4568323 0.8137876 0.3592408 -0.8318727 0.4160946 0.3672237 0.4568323 0.8137877 0.3592409 0.8318721 -0.4160947 0.3672248 -0.4568327 -0.8137872 0.3592414 0.3310233 -0.4098173 -0.8499843 -0.331023 -0.4098177 0.8499843 -0.3150672 -0.8090122 -0.4962178 0.8236673 -0.2858182 -0.4897758 0.3150669 0.8090125 -0.4962176 -0.8236678 0.2858181 -0.489775 -0.8236676 -0.2858181 -0.4897753 0.8236675 0.2858181 -0.4897756 -0.3310229 0.4098176 0.8499844 0.3310238 0.4098179 -0.8499839 0.8318724 0.4160948 0.3672242 -0.8318722 -0.4160946 0.3672249 -0.4440544 0.2937358 -0.846484 0.4440546 0.2937359 0.8464838 -0.3150667 0.809012 -0.4962182 0.3150672 -0.8090119 -0.4962182 0.4440548 -0.2937359 0.8464837 -0.4440547 -0.2937356 -0.846484 0.4568329 -0.8137871 0.3592414 -0.4568321 0.8137878 0.3592405 -0.8318724 0.4160946 0.3672242 0.4568318 0.8137876 0.3592415 0.8318719 -0.416095 0.3672248 -0.456832 -0.8137874 0.3592419 0.3310238 -0.4098175 -0.8499841 -0.3150676 -0.8090121 -0.4962178 0.8236671 -0.2858184 -0.4897761 0.3150668 0.8090123 -0.4962178 -0.8236677 0.2858183 -0.4897748 -0.8236674 -0.2858183 -0.4897757 0.8236678 0.2858182 -0.4897749 -0.3310233 0.4098181 0.8499841 0.331024 0.4098177 -0.8499839 0.8318721 0.416095 0.3672247 -0.8318722 -0.4160948 0.3672245 -0.444055 0.2937357 -0.8464837 0.4440547 0.293736 0.8464838 -0.3150668 0.8090125 -0.4962175 0.3150678 -0.8090123 -0.4962172 0.4440554 -0.2937358 0.8464834 -0.4440549 -0.2937357 -0.8464838 0.4568322 -0.8137872 0.3592419 -0.4568316 0.8137878 0.3592413</float_array>
          <technique_common>
            <accessor source="#Cubo_078-mesh-normals-array" count="380" stride="3">
              <param name="X" type="float"/>
              <param name="Y" type="float"/>
              <param name="Z" type="float"/>
            </accessor>
          </technique_common>
        </source>
        <source id="Cubo_078-mesh-map-0">
          <float_array id="Cubo_078-mesh-map-0-array" count="1152">0.5118961 0.4585174 0.5179663 0.4645876 0.5118961 0.4645876 0.5118961 0.4706578 0.5179663 0.4767279 0.5118961 0.4767279 0.5118961 0.482798 0.5179663 0.4888683 0.5118961 0.4888683 0.5118961 0.4949384 0.5179663 0.5010086 0.5118961 0.5010086 0.4997557 0.4827981 0.5058259 0.4888683 0.4997557 0.4888683 0.5240364 0.4827981 0.5301066 0.4888683 0.5240364 0.4888683 0.5118961 0.4949384 0.5058259 0.5010086 0.5058259 0.4949384 0.5118961 0.482798 0.5058259 0.4888683 0.5058259 0.4827982 0.5118961 0.4706578 0.5058259 0.4767279 0.5058259 0.4706578 0.5118961 0.4585174 0.5058259 0.4645876 0.5058259 0.4585174 0.5058259 0.4524472 0.5118961 0.4585174 0.5058259 0.4585174 0.5058259 0.4767279 0.5118961 0.482798 0.5058259 0.4827982 0.5301066 0.4767279 0.5240364 0.4827981 0.5240364 0.4767279 0.5058259 0.4767279 0.4997557 0.4827981 0.4997557 0.4767279 0.5179663 0.4767279 0.5118961 0.482798 0.5118961 0.4767279 0.5179663 0.4524472 0.5118961 0.4585174 0.5118961 0.4524472 0.4936855 0.4767279 0.4997557 0.4827981 0.4936855 0.4827981 0.5179663 0.4767279 0.5240364 0.4827981 0.5179663 0.4827981 0.5058259 0.4645876 0.5118961 0.4706578 0.5058259 0.4706578 0.5058259 0.4888683 0.5118961 0.4949384 0.5058259 0.4949384 0.5240364 0.4827981 0.5179663 0.4888683 0.5179663 0.4827981 0.4997557 0.4827981 0.4936855 0.4888683 0.4936855 0.4827981 0.5179663 0.4888683 0.5118961 0.4949384 0.5118961 0.4888683 0.5179663 0.4645876 0.5118961 0.4706578 0.5118961 0.4645876 0.5118961 0.4585174 0.5179663 0.4645876 0.5118961 0.4645876 0.5118961 0.4706578 0.5179663 0.4767279 0.5118961 0.4767279 0.5118961 0.482798 0.5179663 0.4888683 0.5118961 0.4888683 0.5118961 0.4949384 0.5179663 0.5010086 0.5118961 0.5010086 0.4997557 0.4827981 0.5058259 0.4888683 0.4997557 0.4888683 0.5240364 0.4827981 0.5301066 0.4888683 0.5240364 0.4888683 0.5118961 0.4949384 0.5058259 0.5010086 0.5058259 0.4949384 0.5118961 0.482798 0.5058259 0.4888683 0.5058259 0.4827982 0.5118961 0.4706578 0.5058259 0.4767279 0.5058259 0.4706578 0.5118961 0.4585174 0.5058259 0.4645876 0.5058259 0.4585174 0.5058259 0.4524472 0.5118961 0.4585174 0.5058259 0.4585174 0.5058259 0.4767279 0.5118961 0.482798 0.5058259 0.4827982 0.5301066 0.4767279 0.5240364 0.4827981 0.5240364 0.4767279 0.5058259 0.4767279 0.4997557 0.4827981 0.4997557 0.4767279 0.5179663 0.4767279 0.5118961 0.482798 0.5118961 0.4767279 0.5179663 0.4524472 0.5118961 0.4585174 0.5118961 0.4524472 0.4936855 0.4767279 0.4997557 0.4827981 0.4936855 0.4827981 0.5179663 0.4767279 0.5240364 0.4827981 0.5179663 0.4827981 0.5058259 0.4645876 0.5118961 0.4706578 0.5058259 0.4706578 0.5058259 0.4888683 0.5118961 0.4949384 0.5058259 0.4949384 0.5240364 0.4827981 0.5179663 0.4888683 0.5179663 0.4827981 0.4997557 0.4827981 0.4936855 0.4888683 0.4936855 0.4827981 0.5179663 0.4888683 0.5118961 0.4949384 0.5118961 0.4888683 0.5179663 0.4645876 0.5118961 0.4706578 0.5118961 0.4645876 0.5118961 0.4585174 0.5179663 0.4645876 0.5118961 0.4645876 0.5118961 0.4706578 0.5179663 0.4767279 0.5118961 0.4767279 0.5118961 0.482798 0.5179663 0.4888683 0.5118961 0.4888683 0.5118961 0.4949384 0.5179663 0.5010086 0.5118961 0.5010086 0.4997557 0.4827981 0.5058259 0.4888683 0.4997557 0.4888683 0.5240364 0.4827981 0.5301066 0.4888683 0.5240364 0.4888683 0.5118961 0.4949384 0.5058259 0.5010086 0.5058259 0.4949384 0.5118961 0.482798 0.5058259 0.4888683 0.5058259 0.4827982 0.5118961 0.4706578 0.5058259 0.4767279 0.5058259 0.4706578 0.5118961 0.4585174 0.5058259 0.4645876 0.5058259 0.4585174 0.5058259 0.4524472 0.5118961 0.4585174 0.5058259 0.4585174 0.5058259 0.4767279 0.5118961 0.482798 0.5058259 0.4827982 0.5301066 0.4767279 0.5240364 0.4827981 0.5240364 0.4767279 0.5058259 0.4767279 0.4997557 0.4827981 0.4997557 0.4767279 0.5179663 0.4767279 0.5118961 0.482798 0.5118961 0.4767279 0.5179663 0.4524472 0.5118961 0.4585174 0.5118961 0.4524472 0.4936855 0.4767279 0.4997557 0.4827981 0.4936855 0.4827981 0.5179663 0.4767279 0.5240364 0.4827981 0.5179663 0.4827981 0.5058259 0.4645876 0.5118961 0.4706578 0.5058259 0.4706578 0.5058259 0.4888683 0.5118961 0.4949384 0.5058259 0.4949384 0.5240364 0.4827981 0.5179663 0.4888683 0.5179663 0.4827981 0.4997557 0.4827981 0.4936855 0.4888683 0.4936855 0.4827981 0.5179663 0.4888683 0.5118961 0.4949384 0.5118961 0.4888683 0.5179663 0.4645876 0.5118961 0.4706578 0.5118961 0.4645876 0.5118961 0.4585174 0.5179663 0.4645876 0.5118961 0.4645876 0.5118961 0.4706578 0.5179663 0.4767279 0.5118961 0.4767279 0.5118961 0.482798 0.5179663 0.4888683 0.5118961 0.4888683 0.5118961 0.4949384 0.5179663 0.5010086 0.5118961 0.5010086 0.4997557 0.4827981 0.5058259 0.4888683 0.4997557 0.4888683 0.5240364 0.4827981 0.5301066 0.4888683 0.5240364 0.4888683 0.5118961 0.4949384 0.5058259 0.5010086 0.5058259 0.4949384 0.5118961 0.482798 0.5058259 0.4888683 0.5058259 0.4827982 0.5118961 0.4706578 0.5058259 0.4767279 0.5058259 0.4706578 0.5118961 0.4585174 0.5058259 0.4645876 0.5058259 0.4585174 0.5058259 0.4524472 0.5118961 0.4585174 0.5058259 0.4585174 0.5058259 0.4767279 0.5118961 0.482798 0.5058259 0.4827982 0.5301066 0.4767279 0.5240364 0.4827981 0.5240364 0.4767279 0.5058259 0.4767279 0.4997557 0.4827981 0.4997557 0.4767279 0.5179663 0.4767279 0.5118961 0.482798 0.5118961 0.4767279 0.5179663 0.4524472 0.5118961 0.4585174 0.5118961 0.4524472 0.4936855 0.4767279 0.4997557 0.4827981 0.4936855 0.4827981 0.5179663 0.4767279 0.5240364 0.4827981 0.5179663 0.4827981 0.5058259 0.4645876 0.5118961 0.4706578 0.5058259 0.4706578 0.5058259 0.4888683 0.5118961 0.4949384 0.5058259 0.4949384 0.5240364 0.4827981 0.5179663 0.4888683 0.5179663 0.4827981 0.4997557 0.4827981 0.4936855 0.4888683 0.4936855 0.4827981 0.5179663 0.4888683 0.5118961 0.4949384 0.5118961 0.4888683 0.5179663 0.4645876 0.5118961 0.4706578 0.5118961 0.4645876 0.5118961 0.4585174 0.5179663 0.4585174 0.5179663 0.4645876 0.5118961 0.4706578 0.5179663 0.4706578 0.5179663 0.4767279 0.5118961 0.482798 0.5179663 0.4827981 0.5179663 0.4888683 0.5118961 0.4949384 0.5179663 0.4949384 0.5179663 0.5010086 0.4997557 0.4827981 0.5058259 0.4827982 0.5058259 0.4888683 0.5240364 0.4827981 0.5301066 0.4827981 0.5301066 0.4888683 0.5118961 0.4949384 0.5118961 0.5010086 0.5058259 0.5010086 0.5118961 0.482798 0.5118961 0.4888683 0.5058259 0.4888683 0.5118961 0.4706578 0.5118961 0.4767279 0.5058259 0.4767279 0.5118961 0.4585174 0.5118961 0.4645876 0.5058259 0.4645876 0.5058259 0.4524472 0.5118961 0.4524472 0.5118961 0.4585174 0.5058259 0.4767279 0.5118961 0.4767279 0.5118961 0.482798 0.5301066 0.4767279 0.5301066 0.4827981 0.5240364 0.4827981 0.5058259 0.4767279 0.5058259 0.4827982 0.4997557 0.4827981 0.5179663 0.4767279 0.5179663 0.4827981 0.5118961 0.482798 0.5179663 0.4524472 0.5179663 0.4585174 0.5118961 0.4585174 0.4936855 0.4767279 0.4997557 0.4767279 0.4997557 0.4827981 0.5179663 0.4767279 0.5240364 0.4767279 0.5240364 0.4827981 0.5058259 0.4645876 0.5118961 0.4645876 0.5118961 0.4706578 0.5058259 0.4888683 0.5118961 0.4888683 0.5118961 0.4949384 0.5240364 0.4827981 0.5240364 0.4888683 0.5179663 0.4888683 0.4997557 0.4827981 0.4997557 0.4888683 0.4936855 0.4888683 0.5179663 0.4888683 0.5179663 0.4949384 0.5118961 0.4949384 0.5179663 0.4645876 0.5179663 0.4706578 0.5118961 0.4706578 0.5118961 0.4585174 0.5179663 0.4585174 0.5179663 0.4645876 0.5118961 0.4706578 0.5179663 0.4706578 0.5179663 0.4767279 0.5118961 0.482798 0.5179663 0.4827981 0.5179663 0.4888683 0.5118961 0.4949384 0.5179663 0.4949384 0.5179663 0.5010086 0.4997557 0.4827981 0.5058259 0.4827982 0.5058259 0.4888683 0.5240364 0.4827981 0.5301066 0.4827981 0.5301066 0.4888683 0.5118961 0.4949384 0.5118961 0.5010086 0.5058259 0.5010086 0.5118961 0.482798 0.5118961 0.4888683 0.5058259 0.4888683 0.5118961 0.4706578 0.5118961 0.4767279 0.5058259 0.4767279 0.5118961 0.4585174 0.5118961 0.4645876 0.5058259 0.4645876 0.5058259 0.4524472 0.5118961 0.4524472 0.5118961 0.4585174 0.5058259 0.4767279 0.5118961 0.4767279 0.5118961 0.482798 0.5301066 0.4767279 0.5301066 0.4827981 0.5240364 0.4827981 0.5058259 0.4767279 0.5058259 0.4827982 0.4997557 0.4827981 0.5179663 0.4767279 0.5179663 0.4827981 0.5118961 0.482798 0.5179663 0.4524472 0.5179663 0.4585174 0.5118961 0.4585174 0.4936855 0.4767279 0.4997557 0.4767279 0.4997557 0.4827981 0.5179663 0.4767279 0.5240364 0.4767279 0.5240364 0.4827981 0.5058259 0.4645876 0.5118961 0.4645876 0.5118961 0.4706578 0.5058259 0.4888683 0.5118961 0.4888683 0.5118961 0.4949384 0.5240364 0.4827981 0.5240364 0.4888683 0.5179663 0.4888683 0.4997557 0.4827981 0.4997557 0.4888683 0.4936855 0.4888683 0.5179663 0.4888683 0.5179663 0.4949384 0.5118961 0.4949384 0.5179663 0.4645876 0.5179663 0.4706578 0.5118961 0.4706578 0.5118961 0.4585174 0.5179663 0.4585174 0.5179663 0.4645876 0.5118961 0.4706578 0.5179663 0.4706578 0.5179663 0.4767279 0.5118961 0.482798 0.5179663 0.4827981 0.5179663 0.4888683 0.5118961 0.4949384 0.5179663 0.4949384 0.5179663 0.5010086 0.4997557 0.4827981 0.5058259 0.4827982 0.5058259 0.4888683 0.5240364 0.4827981 0.5301066 0.4827981 0.5301066 0.4888683 0.5118961 0.4949384 0.5118961 0.5010086 0.5058259 0.5010086 0.5118961 0.482798 0.5118961 0.4888683 0.5058259 0.4888683 0.5118961 0.4706578 0.5118961 0.4767279 0.5058259 0.4767279 0.5118961 0.4585174 0.5118961 0.4645876 0.5058259 0.4645876 0.5058259 0.4524472 0.5118961 0.4524472 0.5118961 0.4585174 0.5058259 0.4767279 0.5118961 0.4767279 0.5118961 0.482798 0.5301066 0.4767279 0.5301066 0.4827981 0.5240364 0.4827981 0.5058259 0.4767279 0.5058259 0.4827982 0.4997557 0.4827981 0.5179663 0.4767279 0.5179663 0.4827981 0.5118961 0.482798 0.5179663 0.4524472 0.5179663 0.4585174 0.5118961 0.4585174 0.4936855 0.4767279 0.4997557 0.4767279 0.4997557 0.4827981 0.5179663 0.4767279 0.5240364 0.4767279 0.5240364 0.4827981 0.5058259 0.4645876 0.5118961 0.4645876 0.5118961 0.4706578 0.5058259 0.4888683 0.5118961 0.4888683 0.5118961 0.4949384 0.5240364 0.4827981 0.5240364 0.4888683 0.5179663 0.4888683 0.4997557 0.4827981 0.4997557 0.4888683 0.4936855 0.4888683 0.5179663 0.4888683 0.5179663 0.4949384 0.5118961 0.4949384 0.5179663 0.4645876 0.5179663 0.4706578 0.5118961 0.4706578 0.5118961 0.4585174 0.5179663 0.4585174 0.5179663 0.4645876 0.5118961 0.4706578 0.5179663 0.4706578 0.5179663 0.4767279 0.5118961 0.482798 0.5179663 0.4827981 0.5179663 0.4888683 0.5118961 0.4949384 0.5179663 0.4949384 0.5179663 0.5010086 0.4997557 0.4827981 0.5058259 0.4827982 0.5058259 0.4888683 0.5240364 0.4827981 0.5301066 0.4827981 0.5301066 0.4888683 0.5118961 0.4949384 0.5118961 0.5010086 0.5058259 0.5010086 0.5118961 0.482798 0.5118961 0.4888683 0.5058259 0.4888683 0.5118961 0.4706578 0.5118961 0.4767279 0.5058259 0.4767279 0.5118961 0.4585174 0.5118961 0.4645876 0.5058259 0.4645876 0.5058259 0.4524472 0.5118961 0.4524472 0.5118961 0.4585174 0.5058259 0.4767279 0.5118961 0.4767279 0.5118961 0.482798 0.5301066 0.4767279 0.5301066 0.4827981 0.5240364 0.4827981 0.5058259 0.4767279 0.5058259 0.4827982 0.4997557 0.4827981 0.5179663 0.4767279 0.5179663 0.4827981 0.5118961 0.482798 0.5179663 0.4524472 0.5179663 0.4585174 0.5118961 0.4585174 0.4936855 0.4767279 0.4997557 0.4767279 0.4997557 0.4827981 0.5179663 0.4767279 0.5240364 0.4767279 0.5240364 0.4827981 0.5058259 0.4645876 0.5118961 0.4645876 0.5118961 0.4706578 0.5058259 0.4888683 0.5118961 0.4888683 0.5118961 0.4949384 0.5240364 0.4827981 0.5240364 0.4888683 0.5179663 0.4888683 0.4997557 0.4827981 0.4997557 0.4888683 0.4936855 0.4888683 0.5179663 0.4888683 0.5179663 0.4949384 0.5118961 0.4949384 0.5179663 0.4645876 0.5179663 0.4706578 0.5118961 0.4706578</float_array>
          <technique_common>
            <accessor source="#Cubo_078-mesh-map-0-array" count="576" stride="2">
              <param name="S" type="float"/>
              <param name="T" type="float"/>
            </accessor>
          </technique_common>
        </source>
        <vertices id="Cubo_078-mesh-vertices">
          <input semantic="POSITION" source="#Cubo_078-mesh-positions"/>
        </vertices>
        <triangles material="A-textura_nok__General-material" count="192">
          <input semantic="VERTEX" source="#Cubo_078-mesh-vertices" offset="0"/>
          <input semantic="NORMAL" source="#Cubo_078-mesh-normals" offset="1"/>
          <input semantic="TEXCOORD" source="#Cubo_078-mesh-map-0" offset="2" set="0"/>
          <p>17 0 0 3 1 1 9 2 2 23 3 3 7 4 4 10 5 5 16 6 6 5 7 7 11 8 8 22 9 9 1 10 10 8 11 11 25 12 12 4 13 13 20 14 14 24 15 15 1 16 16 21 17 17 22 18 18 0 19 19 20 20 20 16 21 21 4 22 22 14 23 23 23 24 24 6 25 25 18 26 26 17 27 27 2 28 28 12 29 29 0 30 30 17 31 31 12 32 32 6 33 33 16 34 34 14 35 35 3 36 36 24 37 37 19 38 38 6 39 39 25 40 40 18 41 41 7 42 42 16 43 43 10 44 44 1 45 45 17 46 46 8 47 47 2 48 48 25 49 49 12 50 50 7 51 51 24 52 52 15 53 53 2 54 54 23 55 55 18 56 56 4 57 57 22 58 58 20 59 59 24 60 60 5 61 61 15 62 62 25 63 63 0 64 64 12 65 65 5 66 66 22 67 67 11 68 68 3 69 69 23 70 70 9 71 71 43 72 72 29 73 73 35 74 74 49 75 75 33 76 76 36 77 77 42 78 78 31 79 79 37 80 80 48 81 81 27 82 82 34 83 83 51 84 84 30 85 85 46 86 86 50 87 87 27 88 88 47 89 89 48 90 90 26 91 91 46 92 92 42 93 93 30 94 94 40 95 95 49 96 96 32 97 97 44 98 98 43 99 99 28 100 100 38 101 101 26 102 102 43 103 103 38 104 104 32 105 105 42 106 106 40 107 107 29 108 108 50 109 109 45 110 110 32 111 111 51 112 112 44 113 113 33 114 114 42 115 115 36 116 116 27 117 117 43 118 118 34 119 119 28 120 120 51 121 121 38 122 122 33 123 123 50 124 124 41 125 125 28 126 126 49 127 127 44 128 128 30 129 129 48 130 130 46 131 131 50 132 132 31 133 133 41 134 134 51 135 135 26 136 136 38 137 137 31 138 138 48 139 139 37 140 140 29 141 141 49 142 142 35 143 143 69 144 144 55 145 145 61 146 146 75 147 147 59 148 148 62 149 149 68 150 150 57 151 151 63 152 152 74 153 153 53 154 154 60 155 155 77 156 156 56 157 157 72 158 158 76 159 159 53 160 160 73 161 161 74 162 162 52 163 163 72 92 164 68 164 165 56 165 166 66 166 167 75 167 168 58 168 169 70 169 170 69 170 171 54 171 172 64 172 173 52 173 174 69 174 175 64 175 176 58 176 177 68 177 178 66 178 179 55 179 180 76 180 181 71 181 182 58 182 183 77 183 184 70 184 185 59 185 186 68 186 187 62 187 188 53 188 189 69 189 190 60 190 191 54 191 192 77 192 193 64 193 194 59 194 195 76 195 196 67 196 197 54 197 198 75 198 199 70 199 200 56 200 201 74 201 202 72 202 203 76 203 204 57 204 205 67 205 206 77 206 207 52 207 208 64 208 209 57 209 210 74 210 211 63 211 212 55 212 213 75 213 214 61 214 215 95 215 216 81 216 217 87 217 218 101 218 219 85 219 220 88 220 221 94 221 222 83 222 223 89 223 224 100 224 225 79 225 226 86 226 227 103 227 228 82 228 229 98 229 230 102 230 231 79 231 232 99 232 233 100 233 234 78 234 235 98 235 236 94 236 237 82 237 238 92 238 239 101 239 240 84 240 241 96 241 242 95 242 243 80 243 244 90 244 245 78 245 246 95 246 247 90 247 248 84 248 249 94 249 250 92 250 251 81 251 252 102 252 253 97 253 254 84 254 255 103 255 256 96 256 257 85 257 258 94 258 259 88 259 260 79 260 261 95 261 262 86 262 263 80 263 264 103 264 265 90 265 266 85 266 267 102 267 268 93 196 269 80 268 270 101 269 271 96 270 272 82 271 273 100 272 274 98 273 275 102 274 276 83 275 277 93 276 278 103 277 279 78 278 280 90 279 281 83 280 282 100 281 283 89 282 284 81 283 285 101 284 286 87 285 287 17 0 288 13 286 289 3 1 290 23 3 291 19 287 292 7 4 293 16 6 294 15 288 295 5 7 296 22 9 297 21 289 298 1 10 299 25 12 300 14 290 301 4 13 302 24 15 303 13 291 304 1 16 305 22 18 306 8 292 307 0 19 308 16 21 309 11 293 310 4 22 311 23 24 312 10 294 313 6 25 314 17 27 315 9 295 316 2 28 317 0 30 318 8 296 319 17 31 320 6 33 321 10 297 322 16 34 323 3 36 324 13 298 325 24 37 326 6 39 327 14 299 328 25 40 329 7 42 330 15 300 331 16 43 332 1 45 333 13 301 334 17 46 335 2 48 336 18 302 337 25 49 338 7 51 339 19 303 340 24 52 341 2 54 342 9 304 343 23 55 344 4 57 345 11 305 346 22 58 347 24 60 348 21 306 349 5 61 350 25 63 351 20 307 352 0 64 353 5 66 354 21 308 355 22 67 356 3 69 357 19 309 358 23 70 359 43 72 360 39 310 361 29 73 362 49 75 363 45 311 364 33 76 365 42 78 366 41 312 367 31 79 368 48 81 369 47 313 370 27 82 371 51 84 372 40 314 373 30 85 374 50 87 375 39 315 376 27 88 377 48 90 378 34 316 379 26 91 380 42 93 381 37 317 382 30 94 383 49 96 384 36 318 385 32 97 386 43 99 387 35 319 388 28 100 389 26 102 390 34 320 391 43 103 392 32 105 393 36 321 394 42 106 395 29 108 396 39 322 397 50 109 398 32 111 399 40 323 400 51 112 401 33 114 402 41 324 403 42 115 404 27 117 405 39 325 406 43 118 407 28 120 408 44 326 409 51 121 410 33 123 411 45 303 412 50 124 413 28 126 414 35 327 415 49 127 416 30 129 417 37 328 418 48 130 419 50 132 420 47 329 421 31 133 422 51 135 423 46 330 424 26 136 425 31 138 426 47 331 427 48 139 428 29 141 429 45 332 430 49 142 431 69 144 432 65 333 433 55 145 434 75 147 435 71 334 436 59 148 437 68 150 438 67 335 439 57 151 440 74 153 441 73 336 442 53 154 443 77 156 444 66 337 445 56 157 446 76 159 447 65 338 448 53 160 449 74 162 450 60 339 451 52 163 452 68 164 453 63 340 454 56 165 455 75 167 456 62 341 457 58 168 458 69 170 459 61 342 460 54 171 461 52 173 462 60 343 463 69 174 464 58 176 465 62 344 466 68 177 467 55 179 468 65 345 469 76 180 470 58 182 471 66 346 472 77 183 473 59 185 474 67 347 475 68 186 476 53 188 477 65 348 478 69 189 479 54 191 480 70 349 481 77 192 482 59 194 483 71 350 484 76 195 485 54 197 486 61 351 487 75 198 488 56 200 489 63 352 490 74 201 491 76 203 492 73 353 493 57 204 494 77 206 495 72 354 496 52 207 497 57 209 498 73 355 499 74 210 500 55 212 501 71 356 502 75 213 503 95 215 504 91 357 505 81 216 506 101 218 507 97 358 508 85 219 509 94 221 510 93 359 511 83 222 512 100 224 513 99 360 514 79 225 515 103 227 516 92 361 517 82 228 518 102 230 519 91 338 520 79 231 521 100 233 522 86 362 523 78 234 524 94 236 525 89 363 526 82 237 527 101 239 528 88 364 529 84 240 530 95 242 531 87 365 532 80 243 533 78 245 534 86 366 535 95 246 536 84 248 537 88 367 538 94 249 539 81 251 540 91 368 541 102 252 542 84 254 543 92 369 544 103 255 545 85 257 546 93 370 547 94 258 548 79 260 549 91 371 550 95 261 551 80 263 552 96 372 553 103 264 554 85 266 555 97 373 556 102 267 557 80 268 558 87 374 559 101 269 560 82 271 561 89 375 562 100 272 563 102 274 564 99 376 565 83 275 566 103 277 567 98 377 568 78 278 569 83 280 570 99 378 571 100 281 572 81 283 573 97 379 574 101 284 575</p>
        </triangles>
      </mesh>
    </geometry>
  </library_geometries>
  <library_visual_scenes>
    <visual_scene id="Scene" name="Scene">
      <node id="a_hair_nok_03" name="a_hair_nok_03" type="NODE">
        <matrix sid="transform">1 0 0 0 0 1 0 0 0 0 1 0 0 0 0 1</matrix>
        <instance_geometry url="#Cubo_078-mesh" name="a_hair_nok_03">
          <bind_material>
            <technique_common>
              <instance_material symbol="A-textura_nok__General-material" target="#A-textura_nok__General-material">
                <bind_vertex_input semantic="MapaUV" input_semantic="TEXCOORD" input_set="0"/>
              </instance_material>
            </technique_common>
          </bind_material>
        </instance_geometry>
      </node>
    </visual_scene>
  </library_visual_scenes>
  <scene>
    <instance_visual_scene url="#Scene"/>
  </scene>
</COLLADA>