<?xml version="1.0" encoding="utf-8"?>
<COLLADA xmlns="http://www.collada.org/2005/11/COLLADASchema" version="1.4.1" xmlns:xsi="http://www.w3.org/2001/XMLSchema-instance">
  <asset>
    <contributor>
      <author>Blender User</author>
      <authoring_tool>Blender 4.3.1 commit date:2024-12-10, commit time:07:46, hash:33d812126174</authoring_tool>
    </contributor>
    <created>2026-08-20T09:13:44</created>
    <modified>2026-08-20T09:13:44</modified>
    <unit name="meter" meter="1"/>
    <up_axis>Z_UP</up_axis>
  </asset>
  <library_effects>
    <effect id="A-textura_nok__General-effect">
      <profile_COMMON>
        <newparam sid="nok_png-surface">
          <surface type="2D">
            <init_from>nok_png</init_from>
          </surface>
        </newparam>
        <newparam sid="nok_png-sampler">
          <sampler2D>
            <source>nok_png-surface</source>
          </sampler2D>
        </newparam>
        <technique sid="common">
          <lambert>
            <emission>
              <color sid="emission">0 0 0 1</color>
            </emission>
            <diffuse>
              <texture texture="nok_png-sampler" texcoord="MapaUV"/>
            </diffuse>
            <index_of_refraction>
              <float sid="ior">1.45</float>
            </index_of_refraction>
          </lambert>
        </technique>
      </profile_COMMON>
    </effect>
  </library_effects>
  <library_images>
    <image id="nok_png" name="nok_png">
      <init_from>nok.png</init_from>
    </image>
  </library_images>
  <library_materials>
    <material id="A-textura_nok__General-material" name="A-textura nok  General">
      <instance_effect url="#A-textura_nok__General-effect"/>
    </material>
  </library_materials>
  <library_geometries>
    <geometry id="Plano_117-mesh" name="Plano.117">
      <mesh>
        <source id="Plano_117-mesh-positions">
          <float_array id="Plano_117-mesh-positions-array" count="90">0.005668997 -0.1311002 0.7584871 0.005729734 -0.1311002 0.7584871 -0.4796468 -0.1311012 0.3982926 0.4930992 -0.1311012 0.3982926 0.005698442 -0.1310732 0.7584871 0 0.3307723 0.3982926 0.005721569 -0.1310811 0.7584871 0.3017126 0.2720458 0.3982926 -0.2874409 0.2720458 0.3982926 0.005677461 -0.1310811 0.7584871 0.005729854 -0.1311002 0.7584871 0.005669057 -0.1311002 0.7584871 0.4939061 -0.1311001 0.3982926 -0.47884 -0.1311007 0.3982926 0.005698442 -0.1311273 0.7584871 -1.21844e-5 -0.592974 0.3982926 0.005677223 -0.1311193 0.7584871 -0.2874531 -0.5342476 0.3982926 0.3017003 -0.5342473 0.3982926 0.00572139 -0.1311193 0.7584871 -0.4796468 -0.1311012 0.3158589 0.4930992 -0.1311012 0.3158589 0 0.3307723 0.3158589 0.3017126 0.2720458 0.3158589 -0.2874409 0.2720458 0.3158589 0.4939061 -0.1311001 0.3158589 -0.47884 -0.1311007 0.3158589 -1.21844e-5 -0.592974 0.3158589 -0.2874531 -0.5342476 0.3158589 0.3017003 -0.5342473 0.3158589</float_array>
          <technique_common>
            <accessor source="#Plano_117-mesh-positions-array" count="30" stride="3">
              <param name="X" type="float"/>
              <param name="Y" type="float"/>
              <param name="Z" type="float"/>
            </accessor>
          </technique_common>
        </source>
        <source id="Plano_117-mesh-normals">
          <float_array id="Plano_117-mesh-normals-array" count="159">0.5747556 0.2553817 0.777455 0.5720205 0.2715561 0.7739831 -0.19505 0.6016517 0.7745779 -0.003264367 0.6149529 0.7885572 -0.1244735 0.6092429 0.7831536 0.1792948 0.6064159 0.7746697 -0.009798943 0.6148806 0.7885594 -0.575341 0.2623885 0.774684 -0.5732844 0.2733212 0.7724252 -0.5765494 0.2557564 0.7760024 -0.5766528 -0.2557033 0.775943 -0.5740357 -0.2725133 0.7721526 0.1835505 -0.6059436 0.7740425 -0.00326538 -0.6149518 0.788558 0.1190297 -0.6115229 0.7822224 -0.1967858 -0.6014295 0.7743114 -0.007676243 -0.6148959 0.788571 0.5731678 -0.2616375 0.7765465 0.5712727 -0.2723619 0.7742522 0.5742777 -0.2551464 0.7778853 -0.2001724 -0.9797607 0 -0.00464189 -0.9999893 0 -0.2001724 -0.9797607 0 -0.004650831 -0.9999893 0 0.1910589 -0.9815786 0 0.9026599 -0.4303549 0 0.9026597 -0.4303551 0 0.9026598 -0.4303548 0 0.9033715 0.428859 0 0.9033715 0.4288589 0 0.9033715 0.4288591 0 0.1910585 0.9815788 0 -0.004651427 0.9999893 0 0.1910585 0.9815787 0 -0.004642486 0.9999893 0 -0.2001731 0.9797605 0 -0.9026596 0.4303552 0 -0.9026596 0.4303553 0 -0.9026597 0.4303553 0 -0.9033713 -0.4288594 0 -0.9033712 -0.4288595 0 -0.9033713 -0.4288594 0 0.576314 0.2456753 0.7794267 0.1190292 0.611522 0.7822231 -0.5732844 0.2733212 0.7724252 -0.5781383 -0.2455848 0.7781029 -0.1244723 -0.6092401 0.7831559 0.1910589 -0.9815786 0 0.9026597 -0.4303552 0 0.9033716 0.428859 0 -0.2001732 0.9797606 0 -0.9026595 0.4303554 0 -0.9033712 -0.4288595 0</float_array>
          <technique_common>
            <accessor source="#Plano_117-mesh-normals-array" count="53" stride="3">
              <param name="X" type="float"/>
              <param name="Y" type="float"/>
              <param name="Z" type="float"/>
            </accessor>
          </technique_common>
        </source>
        <source id="Plano_117-mesh-map-0">
          <float_array id="Plano_117-mesh-map-0-array" count="192">0.2751819 0.2801881 0.2851779 0.2411828 0.2751819 0.2411828 0.2551909 0.2801881 0.2651865 0.2411828 0.2551909 0.2411828 0.2751819 0.2801881 0.2651865 0.2411828 0.2651865 0.2801881 0.2551909 0.2801881 0.2451953 0.2411828 0.2451953 0.2801881 0.2751819 0.2801881 0.2851779 0.2411828 0.2751819 0.2411828 0.2551909 0.2801881 0.2651865 0.2411828 0.2551909 0.2411828 0.2751819 0.2801881 0.2651865 0.2411828 0.2651865 0.2801881 0.2551909 0.2801881 0.2451953 0.2411828 0.2451953 0.2801881 0.2751819 0.2453115 0.2651865 0.2411828 0.2751819 0.2411828 0.2651865 0.2453115 0.2551909 0.2411828 0.2651865 0.2411828 0.2551909 0.2453115 0.2451953 0.2411828 0.2551909 0.2411828 0.2851779 0.2452939 0.2751819 0.2411828 0.2851779 0.2411828 0.2751819 0.2452939 0.2651865 0.2411828 0.2751819 0.2411828 0.2651865 0.2452939 0.2551909 0.2411828 0.2651865 0.2411828 0.2551909 0.2452939 0.2451953 0.2411828 0.2551909 0.2411828 0.2851779 0.2453115 0.2751819 0.2411828 0.2851779 0.2411828 0.2751819 0.2801881 0.2851779 0.2801881 0.2851779 0.2411828 0.2551909 0.2801881 0.2651865 0.2801881 0.2651865 0.2411828 0.2751819 0.2801881 0.2751819 0.2411828 0.2651865 0.2411828 0.2551909 0.2801881 0.2551909 0.2411828 0.2451953 0.2411828 0.2751819 0.2801881 0.2851779 0.2801881 0.2851779 0.2411828 0.2551909 0.2801881 0.2651865 0.2801881 0.2651865 0.2411828 0.2751819 0.2801881 0.2751819 0.2411828 0.2651865 0.2411828 0.2551909 0.2801881 0.2551909 0.2411828 0.2451953 0.2411828 0.2751819 0.2453115 0.2651865 0.2453115 0.2651865 0.2411828 0.2651865 0.2453115 0.2551909 0.2453115 0.2551909 0.2411828 0.2551909 0.2453115 0.2451953 0.2453115 0.2451953 0.2411828 0.2851779 0.2452939 0.2751819 0.2452939 0.2751819 0.2411828 0.2751819 0.2452939 0.2651865 0.2452939 0.2651865 0.2411828 0.2651865 0.2452939 0.2551909 0.2452939 0.2551909 0.2411828 0.2551909 0.2452939 0.2451953 0.2452939 0.2451953 0.2411828 0.2851779 0.2453115 0.2751819 0.2453115 0.2751819 0.2411828</float_array>
          <technique_common>
            <accessor source="#Plano_117-mesh-map-0-array" count="96" stride="2">
              <param name="S" type="float"/>
              <param name="T" type="float"/>
            </accessor>
          </technique_common>
        </source>
        <vertices id="Plano_117-mesh-vertices">
          <input semantic="POSITION" source="#Plano_117-mesh-positions"/>
        </vertices>
        <triangles material="A-textura_nok__General-material" count="32">
          <input semantic="VERTEX" source="#Plano_117-mesh-vertices" offset="0"/>
          <input semantic="NORMAL" source="#Plano_117-mesh-normals" offset="1"/>
          <input semantic="TEXCOORD" source="#Plano_117-mesh-map-0" offset="2" set="0"/>
          <p>6 0 0 3 1 1 7 1 2 9 2 3 5 3 4 8 4 5 6 5 6 5 3 7 4 6 8 9 7 9 2 8 10 0 9 11 16 10 12 13 11 13 17 11 14 19 12 15 15 13 16 18 14 17 16 15 18 15 13 19 14 16 20 19 17 21 12 18 22 10 19 23 28 20 24 15 21 25 17 22 26 27 23 27 18 24 28 15 21 29 29 25 30 12 26 31 18 27 32 21 28 33 7 29 34 3 30 35 23 31 36 5 32 37 7 33 38 22 34 39 8 35 40 5 32 41 24 36 42 2 37 43 8 38 44 26 39 45 17 40 46 13 41 47 6 0 48 1 42 49 3 1 50 9 2 51 4 6 52 5 3 53 6 5 54 7 43 55 5 3 56 9 7 57 8 44 58 2 8 59 16 10 60 11 45 61 13 11 62 19 12 63 14 16 64 15 13 65 16 15 66 17 46 67 15 13 68 19 17 69 18 18 70 12 18 71 28 20 72 27 23 73 15 21 74 27 23 75 29 47 76 18 24 77 29 25 78 25 48 79 12 26 80 21 28 81 23 49 82 7 29 83 23 31 84 22 34 85 5 32 86 22 34 87 24 50 88 8 35 89 24 36 90 20 51 91 2 37 92 26 39 93 28 52 94 17 40 95</p>
        </triangles>
      </mesh>
    </geometry>
  </library_geometries>
  <library_visual_scenes>
    <visual_scene id="Scene" name="Scene">
      <node id="a_helmet_nok_02" name="a_helmet_nok_02" type="NODE">
        <matrix sid="transform">1 0 0 0 0 1 0 0 0 0 1 0 0 0 0 1</matrix>
        <instance_geometry url="#Plano_117-mesh" name="a_helmet_nok_02">
          <bind_material>
            <technique_common>
              <instance_material symbol="A-textura_nok__General-material" target="#A-textura_nok__General-material">
                <bind_vertex_input semantic="MapaUV" input_semantic="TEXCOORD" input_set="0"/>
              </instance_material>
            </technique_common>
          </bind_material>
        </instance_geometry>
      </node>
    </visual_scene>
  </library_visual_scenes>
  <scene>
    <instance_visual_scene url="#Scene"/>
  </scene>
</COLLADA>