<?xml version="1.0" encoding="utf-8"?>
<COLLADA xmlns="http://www.collada.org/2005/11/COLLADASchema" version="1.4.1" xmlns:xsi="http://www.w3.org/2001/XMLSchema-instance">
  <asset>
    <contributor>
      <author>Blender User</author>
      <authoring_tool>Blender 4.3.1 commit date:2024-12-10, commit time:07:46, hash:33d812126174</authoring_tool>
    </contributor>
    <created>2026-08-20T09:13:44</created>
    <modified>2026-08-20T09:13:44</modified>
    <unit name="meter" meter="1"/>
    <up_axis>Z_UP</up_axis>
  </asset>
  <library_effects>
    <effect id="A-textura_nok__General-effect">
      <profile_COMMON>
        <newparam sid="nok_png-surface">
          <surface type="2D">
            <init_from>nok_png</init_from>
          </surface>
        </newparam>
        <newparam sid="nok_png-sampler">
          <sampler2D>
            <source>nok_png-surface</source>
          </sampler2D>
        </newparam>
        <technique sid="common">
          <lambert>
            <emission>
              <color sid="emission">0 0 0 1</color>
            </emission>
            <diffuse>
              <texture texture="nok_png-sampler" texcoord="MapaUV"/>
            </diffuse>
            <index_of_refraction>
              <float sid="ior">1.45</float>
            </index_of_refraction>
          </lambert>
        </technique>
      </profile_COMMON>
    </effect>
  </library_effects>
  <library_images>
    <image id="nok_png" name="nok_png">
      <init_from>nok.png</init_from>
    </image>
  </library_images>
  <library_materials>
    <material id="A-textura_nok__General-material" name="A-textura nok  General">
      <instance_effect url="#A-textura_nok__General-effect"/>
    </material>
  </library_materials>
  <library_geometries>
    <geometry id="Plano_071-mesh" name="Plano.071">
      <mesh>
        <source id="Plano_071-mesh-positions">
          <float_array id="Plano_071-mesh-positions-array" count="120">-0.1092349 -0.02760571 0.4222536 0.1159929 -0.02760571 0.4222536 -0.2409588 -0.02760571 0.4222536 0.2477169 -0.02760571 0.4222536 0 0.04280936 0.4222536 0 0.206519 0.4222536 0.08576917 0.006143152 0.4222536 0.1515705 0.1698529 0.4222536 -0.1444009 0.1698529 0.4222536 -0.07781666 0.006143152 0.4222536 0.1163983 -0.02760511 0.4222536 -0.1088296 -0.02760529 0.4222536 0.2481222 -0.02760499 0.4222536 -0.2405535 -0.02760535 0.4222536 -6.184e-6 -0.206516 0.4222536 -6.12102e-6 -0.3702257 0.4222536 -0.07860577 -0.16985 0.4222536 -0.144407 -0.3335597 0.4222536 0.1515644 -0.3335595 0.4222536 0.08498007 -0.1698498 0.4222536 -0.2409588 -0.02760571 0.2707924 0.2477169 -0.02760571 0.2707924 0 0.206519 0.2707924 0.1515705 0.1698529 0.2707924 -0.1444009 0.1698529 0.2707924 0.2481222 -0.02760499 0.2707924 -0.2405535 -0.02760535 0.2707924 -6.12102e-6 -0.3702257 0.2707924 -0.144407 -0.3335597 0.2707924 0.1515644 -0.3335595 0.2707924 0.2312698 -0.159022 0.4222536 0.1006892 -0.1258514 0.4222536 0.2312698 -0.159022 0.2707924 -0.09371763 -0.1258516 0.4222536 -0.2239068 -0.1590223 0.4222536 -0.2239068 -0.1590223 0.2707924 0.2481222 -0.02760499 0.03094917 -0.2405535 -0.02760535 0.03094917 0.2312698 -0.159022 0.03094917 -0.2239068 -0.1590223 0.03094917</float_array>
          <technique_common>
            <accessor source="#Plano_071-mesh-positions-array" count="40" stride="3">
              <param name="X" type="float"/>
              <param name="Y" type="float"/>
              <param name="Z" type="float"/>
            </accessor>
          </technique_common>
        </source>
        <source id="Plano_071-mesh-normals">
          <float_array id="Plano_071-mesh-normals-array" count="144">2.02056e-7 0 1 4.23292e-7 0 1 2.84685e-7 0 1 0 0 1 -2.91171e-7 0 1 -2.02859e-7 0 1 0 0 1 -4.20579e-7 0 1 0 0 1 0 0 1 0 0 1 0 0 1 0 0 1 0 0 1 0 0 1 -0.2461084 -0.9692424 0 -0.005663871 -0.999984 0 -0.005649864 -0.999984 0 0.235127 -0.9719647 0 0.9742375 -0.2255247 0 0.9918778 -0.1271944 0 0.9616158 -0.2743996 0 0.899082 0.4377803 0 0.899082 0.4377804 0 0.2351264 0.9719649 0 -0.005650639 0.999984 0 0.2351264 0.9719648 0 -0.005664646 0.999984 0 -0.2461092 0.9692422 0 -0.8983438 0.4392932 0 -0.8983438 0.4392933 0 -0.974541 -0.2242096 0 -0.910043 -0.414514 0 -0.9619621 -0.2731833 0 0.9096381 -0.4154018 0 0.9096381 -0.4154019 0 1.4149e-7 0 1 -0.9920725 -0.1256671 0 -0.9920726 -0.125667 0 0 0 1 0.9918779 -0.1271945 0 0.9918779 -0.1271943 0 -0.9920725 -0.125667 0 0.899082 0.4377802 0 -0.2461092 0.9692421 0 -0.8983438 0.4392931 0 -0.9100431 -0.414514 0 0.9918778 -0.1271945 0</float_array>
          <technique_common>
            <accessor source="#Plano_071-mesh-normals-array" count="48" stride="3">
              <param name="X" type="float"/>
              <param name="Y" type="float"/>
              <param name="Z" type="float"/>
            </accessor>
          </technique_common>
        </source>
        <source id="Plano_071-mesh-map-0">
          <float_array id="Plano_071-mesh-map-0-array" count="264">0.4695125 0.4559223 0.4882596 0.4669288 0.4695125 0.4669288 0.4507653 0.4559223 0.4320181 0.4669288 0.4320181 0.4559223 0.4507653 0.4559223 0.4695125 0.4669288 0.4507653 0.4669288 0.4320181 0.4559223 0.413271 0.4669288 0.413271 0.4559223 0.4882596 0.4559223 0.478886 0.4669288 0.478886 0.4559223 0.4507653 0.4559223 0.4320181 0.4669288 0.4320181 0.4559223 0.4507653 0.4559223 0.4695125 0.4669288 0.4507653 0.4669288 0.4320181 0.4559223 0.4226446 0.4669289 0.4226446 0.4559223 0.4695125 0.4592548 0.4507653 0.4669288 0.4695125 0.4669288 0.4507653 0.4592548 0.4320181 0.4669288 0.4507653 0.4669288 0.4226446 0.4592548 0.413271 0.4669288 0.4226446 0.4669289 0.4882596 0.4592716 0.4695125 0.4669288 0.4882596 0.4669288 0.4695125 0.4592716 0.4507653 0.4669288 0.4695125 0.4669288 0.4507653 0.4592716 0.4320181 0.4669288 0.4507653 0.4669288 0.4320181 0.4592716 0.413271 0.4669288 0.4320181 0.4669288 0.478886 0.4592548 0.4695125 0.4669288 0.478886 0.4669288 0.4320181 0.4592548 0.4226446 0.4669289 0.4320181 0.4669288 0.413271 0.4559223 0.4226446 0.4669289 0.413271 0.4669288 0.4882596 0.4592548 0.478886 0.4669288 0.4882596 0.4669288 0.4695125 0.4559223 0.478886 0.4669288 0.4695125 0.4669288 0.4226446 0.4670122 0.413271 0.4553661 0.413271 0.4670122 0.4882596 0.4670122 0.478886 0.4553661 0.478886 0.4670122 0.4695125 0.4559223 0.4882596 0.4559223 0.4882596 0.4669288 0.4507653 0.4559223 0.4507653 0.4669288 0.4320181 0.4669288 0.4507653 0.4559223 0.4695125 0.4559223 0.4695125 0.4669288 0.4320181 0.4559223 0.4320181 0.4669288 0.413271 0.4669288 0.4882596 0.4559223 0.4882596 0.4669288 0.478886 0.4669288 0.4507653 0.4559223 0.4507653 0.4669288 0.4320181 0.4669288 0.4507653 0.4559223 0.4695125 0.4559223 0.4695125 0.4669288 0.4320181 0.4559223 0.4320181 0.4669288 0.4226446 0.4669289 0.4695125 0.4592548 0.4507653 0.4592548 0.4507653 0.4669288 0.4507653 0.4592548 0.4320181 0.4592548 0.4320181 0.4669288 0.4226446 0.4592548 0.413271 0.4592548 0.413271 0.4669288 0.4882596 0.4592716 0.4695125 0.4592716 0.4695125 0.4669288 0.4695125 0.4592716 0.4507653 0.4592716 0.4507653 0.4669288 0.4507653 0.4592716 0.4320181 0.4592716 0.4320181 0.4669288 0.4320181 0.4592716 0.413271 0.4592716 0.413271 0.4669288 0.478886 0.4592548 0.4695125 0.4592548 0.4695125 0.4669288 0.4320181 0.4592548 0.4226446 0.4592548 0.4226446 0.4669289 0.413271 0.4559223 0.4226446 0.4559223 0.4226446 0.4669289 0.4882596 0.4592548 0.478886 0.4592548 0.478886 0.4669288 0.4695125 0.4559223 0.478886 0.4559223 0.478886 0.4669288 0.4226446 0.4670122 0.4226446 0.4553661 0.413271 0.4553661 0.4882596 0.4670122 0.4882596 0.4553661 0.478886 0.4553661</float_array>
          <technique_common>
            <accessor source="#Plano_071-mesh-map-0-array" count="132" stride="2">
              <param name="S" type="float"/>
              <param name="T" type="float"/>
            </accessor>
          </technique_common>
        </source>
        <vertices id="Plano_071-mesh-vertices">
          <input semantic="POSITION" source="#Plano_071-mesh-positions"/>
        </vertices>
        <triangles material="A-textura_nok__General-material" count="44">
          <input semantic="VERTEX" source="#Plano_071-mesh-vertices" offset="0"/>
          <input semantic="NORMAL" source="#Plano_071-mesh-normals" offset="1"/>
          <input semantic="TEXCOORD" source="#Plano_071-mesh-map-0" offset="2" set="0"/>
          <p>6 0 0 3 1 1 7 2 2 4 3 3 8 4 4 9 5 5 4 3 6 7 2 7 5 6 8 9 5 9 2 7 10 0 8 11 11 9 12 34 10 13 33 11 14 14 8 15 18 8 16 19 12 17 14 8 18 17 8 19 15 8 20 19 12 21 30 13 22 31 14 23 28 15 24 15 16 25 17 15 26 27 17 27 18 18 28 15 16 29 32 19 30 12 20 31 30 21 32 21 22 33 7 22 34 3 23 35 23 24 36 5 25 37 7 26 38 22 27 39 8 28 40 5 25 41 24 29 42 2 29 43 8 30 44 35 31 45 17 32 46 34 33 47 29 34 48 30 21 49 18 35 50 10 36 51 30 13 52 12 8 53 26 37 54 34 33 55 13 38 56 16 39 57 34 10 58 17 8 59 32 19 60 36 40 61 25 41 62 26 37 63 39 42 64 35 31 65 6 0 66 1 8 67 3 1 68 4 3 69 5 6 70 8 4 71 4 3 72 6 0 73 7 2 74 9 5 75 8 4 76 2 7 77 11 9 78 13 8 79 34 10 80 14 8 81 15 8 82 18 8 83 14 8 84 16 39 85 17 8 86 19 12 87 18 8 88 30 13 89 28 15 90 27 17 91 15 16 92 27 17 93 29 18 94 18 18 95 32 19 96 25 41 97 12 20 98 21 22 99 23 43 100 7 22 101 23 24 102 22 27 103 5 25 104 22 27 105 24 44 106 8 28 107 24 29 108 20 45 109 2 29 110 35 31 111 28 46 112 17 32 113 29 34 114 32 19 115 30 21 116 10 36 117 31 14 118 30 13 119 26 37 120 35 31 121 34 33 122 16 39 123 33 11 124 34 10 125 32 19 126 38 47 127 36 40 128 26 37 129 37 42 130 39 42 131</p>
        </triangles>
      </mesh>
    </geometry>
  </library_geometries>
  <library_visual_scenes>
    <visual_scene id="Scene" name="Scene">
      <node id="a_helmet_nok_01" name="a_helmet_nok_01" type="NODE">
        <matrix sid="transform">1 0 0 0 0 1 0 0 0 0 1 0 0 0 0 1</matrix>
        <instance_geometry url="#Plano_071-mesh" name="a_helmet_nok_01">
          <bind_material>
            <technique_common>
              <instance_material symbol="A-textura_nok__General-material" target="#A-textura_nok__General-material">
                <bind_vertex_input semantic="MapaUV" input_semantic="TEXCOORD" input_set="0"/>
              </instance_material>
            </technique_common>
          </bind_material>
        </instance_geometry>
      </node>
    </visual_scene>
  </library_visual_scenes>
  <scene>
    <instance_visual_scene url="#Scene"/>
  </scene>
</COLLADA>