<?xml version="1.0" encoding="utf-8"?>
<COLLADA xmlns="http://www.collada.org/2005/11/COLLADASchema" version="1.4.1" xmlns:xsi="http://www.w3.org/2001/XMLSchema-instance">
  <asset>
    <contributor>
      <author>Blender User</author>
      <authoring_tool>Blender 4.3.1 commit date:2024-12-10, commit time:07:46, hash:33d812126174</authoring_tool>
    </contributor>
    <created>2026-08-20T09:13:44</created>
    <modified>2026-08-20T09:13:44</modified>
    <unit name="meter" meter="1"/>
    <up_axis>Z_UP</up_axis>
  </asset>
  <library_effects>
    <effect id="A-textura_nok__General-effect">
      <profile_COMMON>
        <newparam sid="nok_png-surface">
          <surface type="2D">
            <init_from>nok_png</init_from>
          </surface>
        </newparam>
        <newparam sid="nok_png-sampler">
          <sampler2D>
            <source>nok_png-surface</source>
          </sampler2D>
        </newparam>
        <technique sid="common">
          <lambert>
            <emission>
              <color sid="emission">0 0 0 1</color>
            </emission>
            <diffuse>
              <texture texture="nok_png-sampler" texcoord="MapaUV"/>
            </diffuse>
            <index_of_refraction>
              <float sid="ior">1.45</float>
            </index_of_refraction>
          </lambert>
        </technique>
      </profile_COMMON>
    </effect>
  </library_effects>
  <library_images>
    <image id="nok_png" name="nok_png">
      <init_from>nok.png</init_from>
    </image>
  </library_images>
  <library_materials>
    <material id="A-textura_nok__General-material" name="A-textura nok  General">
      <instance_effect url="#A-textura_nok__General-effect"/>
    </material>
  </library_materials>
  <library_geometries>
    <geometry id="Plano_046-mesh" name="Plano.046">
      <mesh>
        <source id="Plano_046-mesh-positions">
          <float_array id="Plano_046-mesh-positions-array" count="120">-0.2174403 -0.1311012 -0.1704847 0.2308927 -0.1311012 -0.1704847 -0.4796468 -0.1311012 -0.1704847 0.4930992 -0.1311012 -0.1704847 0 0.06856584 -0.1704847 0 0.3307723 -0.1704847 0.17073 0.009839236 -0.1704847 0.3017126 0.2720458 -0.1704847 -0.2874409 0.2720458 -0.1704847 -0.1549 0.009839236 -0.1704847 0.2316996 -0.1311002 -0.1704847 -0.2166334 -0.1311005 -0.1704847 0.4939061 -0.1311001 -0.1704847 -0.47884 -0.1311007 -0.1704847 -1.23097e-5 -0.3307675 -0.1704847 -1.21844e-5 -0.592974 -0.1704847 -0.1564707 -0.2720412 -0.1704847 -0.2874531 -0.5342476 -0.1704847 0.3017003 -0.5342473 -0.1704847 0.1691592 -0.2720409 -0.1704847 -0.2174403 -0.1311012 -0.2529185 0.2308927 -0.1311012 -0.2529185 -0.4796468 -0.1311012 -0.2529185 0.4930992 -0.1311012 -0.2529185 0 0.06856584 -0.2529185 0 0.3307723 -0.2529185 0.17073 0.009839236 -0.2529185 0.3017126 0.2720458 -0.2529185 -0.2874409 0.2720458 -0.2529185 -0.1549 0.009839236 -0.2529185 0.2316996 -0.1311002 -0.2529185 -0.2166334 -0.1311005 -0.2529185 0.4939061 -0.1311001 -0.2529185 -0.47884 -0.1311007 -0.2529185 -1.23097e-5 -0.3307675 -0.2529185 -1.21844e-5 -0.592974 -0.2529185 -0.1564707 -0.2720412 -0.2529185 -0.2874531 -0.5342476 -0.2529185 0.3017003 -0.5342473 -0.2529185 0.1691592 -0.2720409 -0.2529185</float_array>
          <technique_common>
            <accessor source="#Plano_046-mesh-positions-array" count="40" stride="3">
              <param name="X" type="float"/>
              <param name="Y" type="float"/>
              <param name="Z" type="float"/>
            </accessor>
          </technique_common>
        </source>
        <source id="Plano_046-mesh-normals">
          <float_array id="Plano_046-mesh-normals-array" count="183">0 0 1 0 0 1 0 0 1 0 0 1 0 0 1 0 0 1 0 0 1 0 0 1 0 0 1 0 0 1 0 0 1 0 0 1 0 0 1 0 0 1 0 0 1 0 0 1 0 0 1 0 0 1 1.83609e-7 0 1 0 0 1 0 0 1 0 0 1 0 0 1 0 0 1 -1.8265e-7 0 1 0 0 1 0 0 1 0 0 1 0 0 1 0 0 1 0 0 1 0 0 1 0 0 1 0 0 1 -0.2001725 -0.9797607 0 -0.00464189 -0.9999893 0 -0.004650831 -0.9999893 0 0.191059 -0.9815786 0 0.9026598 -0.430355 0 0.9026597 -0.430355 0 0.9026598 -0.430355 0 0.9033715 0.428859 0 0.9033715 0.4288588 0 0.9033715 0.4288591 0 0.1910583 0.9815787 0 -0.004651427 0.9999893 0 0.1910584 0.9815787 0 -0.004642486 0.9999893 0 -0.2001731 0.9797605 0 -0.9026596 0.4303552 0 -0.9026597 0.4303552 0 -0.9026597 0.4303553 0 -0.9033713 -0.4288594 0 -0.9033712 -0.4288597 0 -0.9033713 -0.4288594 0 0 0 1 0 0 1 0.191059 -0.9815786 0 0.9033716 0.4288588 0 -0.2001731 0.9797606 0 -0.9033712 -0.4288597 0</float_array>
          <technique_common>
            <accessor source="#Plano_046-mesh-normals-array" count="61" stride="3">
              <param name="X" type="float"/>
              <param name="Y" type="float"/>
              <param name="Z" type="float"/>
            </accessor>
          </technique_common>
        </source>
        <source id="Plano_046-mesh-map-0">
          <float_array id="Plano_046-mesh-map-0-array" count="288">0.4695125 0.4559223 0.4882596 0.4669288 0.4695125 0.4669288 0.4507653 0.4559223 0.4320181 0.4669288 0.4320181 0.4559223 0.4695125 0.4559223 0.4507653 0.4669288 0.4507653 0.4559223 0.4320181 0.4559223 0.413271 0.4669288 0.413271 0.4559223 0.4695125 0.4559223 0.4882596 0.4669288 0.4695125 0.4669288 0.4320181 0.4559223 0.4507653 0.4669288 0.4320181 0.4669288 0.4507653 0.4559223 0.4695125 0.4669288 0.4507653 0.4669288 0.4320181 0.4559223 0.413271 0.4669288 0.413271 0.4559223 0.4695125 0.4559223 0.4882596 0.4669288 0.4695125 0.4669288 0.4507653 0.4559223 0.4320181 0.4669288 0.4320181 0.4559223 0.4695125 0.4559223 0.4507653 0.4669288 0.4507653 0.4559223 0.4320181 0.4559223 0.413271 0.4669288 0.413271 0.4559223 0.4695125 0.4559223 0.4882596 0.4669288 0.4695125 0.4669288 0.4320181 0.4559223 0.4507653 0.4669288 0.4320181 0.4669288 0.4507653 0.4559223 0.4695125 0.4669288 0.4507653 0.4669288 0.4320181 0.4559223 0.413271 0.4669288 0.413271 0.4559223 0.4695125 0.4592548 0.4507653 0.4669288 0.4695125 0.4669288 0.4507653 0.4592548 0.4320181 0.4669288 0.4507653 0.4669288 0.4320181 0.4592548 0.413271 0.4669288 0.4320181 0.4669288 0.4882596 0.4592716 0.4695125 0.4669288 0.4882596 0.4669288 0.4695125 0.4592716 0.4507653 0.4669288 0.4695125 0.4669288 0.4507653 0.4592716 0.4320181 0.4669288 0.4507653 0.4669288 0.4320181 0.4592716 0.413271 0.4669288 0.4320181 0.4669288 0.4882596 0.4592548 0.4695125 0.4669288 0.4882596 0.4669288 0.4695125 0.4559223 0.4882596 0.4559223 0.4882596 0.4669288 0.4507653 0.4559223 0.4507653 0.4669288 0.4320181 0.4669288 0.4695125 0.4559223 0.4695125 0.4669288 0.4507653 0.4669288 0.4320181 0.4559223 0.4320181 0.4669288 0.413271 0.4669288 0.4695125 0.4559223 0.4882596 0.4559223 0.4882596 0.4669288 0.4320181 0.4559223 0.4507653 0.4559223 0.4507653 0.4669288 0.4507653 0.4559223 0.4695125 0.4559223 0.4695125 0.4669288 0.4320181 0.4559223 0.4320181 0.4669288 0.413271 0.4669288 0.4695125 0.4559223 0.4882596 0.4559223 0.4882596 0.4669288 0.4507653 0.4559223 0.4507653 0.4669288 0.4320181 0.4669288 0.4695125 0.4559223 0.4695125 0.4669288 0.4507653 0.4669288 0.4320181 0.4559223 0.4320181 0.4669288 0.413271 0.4669288 0.4695125 0.4559223 0.4882596 0.4559223 0.4882596 0.4669288 0.4320181 0.4559223 0.4507653 0.4559223 0.4507653 0.4669288 0.4507653 0.4559223 0.4695125 0.4559223 0.4695125 0.4669288 0.4320181 0.4559223 0.4320181 0.4669288 0.413271 0.4669288 0.4695125 0.4592548 0.4507653 0.4592548 0.4507653 0.4669288 0.4507653 0.4592548 0.4320181 0.4592548 0.4320181 0.4669288 0.4320181 0.4592548 0.413271 0.4592548 0.413271 0.4669288 0.4882596 0.4592716 0.4695125 0.4592716 0.4695125 0.4669288 0.4695125 0.4592716 0.4507653 0.4592716 0.4507653 0.4669288 0.4507653 0.4592716 0.4320181 0.4592716 0.4320181 0.4669288 0.4320181 0.4592716 0.413271 0.4592716 0.413271 0.4669288 0.4882596 0.4592548 0.4695125 0.4592548 0.4695125 0.4669288</float_array>
          <technique_common>
            <accessor source="#Plano_046-mesh-map-0-array" count="144" stride="2">
              <param name="S" type="float"/>
              <param name="T" type="float"/>
            </accessor>
          </technique_common>
        </source>
        <vertices id="Plano_046-mesh-vertices">
          <input semantic="POSITION" source="#Plano_046-mesh-positions"/>
        </vertices>
        <triangles material="A-textura_nok__General-material" count="48">
          <input semantic="VERTEX" source="#Plano_046-mesh-vertices" offset="0"/>
          <input semantic="NORMAL" source="#Plano_046-mesh-normals" offset="1"/>
          <input semantic="TEXCOORD" source="#Plano_046-mesh-map-0" offset="2" set="0"/>
          <p>6 0 0 3 1 1 7 2 2 4 3 3 8 4 4 9 5 5 6 0 6 5 6 7 4 3 8 9 5 9 2 7 10 0 8 11 16 9 12 13 10 13 17 8 14 19 11 15 15 12 16 18 13 17 14 14 18 17 8 19 15 12 20 19 11 21 12 15 22 10 16 23 26 17 24 23 18 25 27 19 26 24 20 27 28 21 28 29 22 29 26 17 30 25 23 31 24 20 32 29 22 33 22 24 34 20 8 35 36 25 36 33 26 37 37 27 38 39 28 39 35 29 40 38 30 41 34 31 42 37 27 43 35 29 44 39 28 45 32 32 46 30 33 47 37 34 48 15 35 49 17 34 50 35 36 51 18 37 52 15 35 53 38 38 54 12 39 55 18 40 56 23 41 57 7 42 58 3 43 59 27 44 60 5 45 61 7 46 62 25 47 63 8 48 64 5 45 65 28 49 66 2 50 67 8 51 68 33 52 69 17 53 70 13 54 71 6 0 72 1 8 73 3 1 74 4 3 75 5 6 76 8 4 77 6 0 78 7 2 79 5 6 80 9 5 81 8 4 82 2 7 83 16 9 84 11 55 85 13 10 86 19 11 87 14 14 88 15 12 89 14 14 90 16 9 91 17 8 92 19 11 93 18 13 94 12 15 95 26 17 96 21 8 97 23 18 98 24 20 99 25 23 100 28 21 101 26 17 102 27 19 103 25 23 104 29 22 105 28 21 106 22 24 107 36 25 108 31 56 109 33 26 110 39 28 111 34 31 112 35 29 113 34 31 114 36 25 115 37 27 116 39 28 117 38 30 118 32 32 119 37 34 120 35 36 121 15 35 122 35 36 123 38 57 124 18 37 125 38 38 126 32 39 127 12 39 128 23 41 129 27 58 130 7 42 131 27 44 132 25 47 133 5 45 134 25 47 135 28 59 136 8 48 137 28 49 138 22 50 139 2 50 140 33 52 141 37 60 142 17 53 143</p>
        </triangles>
      </mesh>
    </geometry>
  </library_geometries>
  <library_visual_scenes>
    <visual_scene id="Scene" name="Scene">
      <node id="a_nok_dec_01" name="a_nok_dec_01" type="NODE">
        <matrix sid="transform">1 0 0 0 0 1 0 0 0 0 1 0 0 0 0 1</matrix>
        <instance_geometry url="#Plano_046-mesh" name="a_nok_dec_01">
          <bind_material>
            <technique_common>
              <instance_material symbol="A-textura_nok__General-material" target="#A-textura_nok__General-material">
                <bind_vertex_input semantic="MapaUV" input_semantic="TEXCOORD" input_set="0"/>
              </instance_material>
            </technique_common>
          </bind_material>
        </instance_geometry>
      </node>
    </visual_scene>
  </library_visual_scenes>
  <scene>
    <instance_visual_scene url="#Scene"/>
  </scene>
</COLLADA>