<?xml version="1.0" encoding="utf-8"?>
<COLLADA xmlns="http://www.collada.org/2005/11/COLLADASchema" version="1.4.1" xmlns:xsi="http://www.w3.org/2001/XMLSchema-instance">
  <asset>
    <contributor>
      <author>Blender User</author>
      <authoring_tool>Blender 4.3.1 commit date:2024-12-10, commit time:07:46, hash:33d812126174</authoring_tool>
    </contributor>
    <created>2026-08-08T10:54:03</created>
    <modified>2026-08-08T10:54:03</modified>
    <unit name="meter" meter="1"/>
    <up_axis>Z_UP</up_axis>
  </asset>
  <library_effects>
    <effect id="A-textura_libios_General-effect">
      <profile_COMMON>
        <newparam sid="hair_male_old_png-surface">
          <surface type="2D">
            <init_from>hair_male_old_png</init_from>
          </surface>
        </newparam>
        <newparam sid="hair_male_old_png-sampler">
          <sampler2D>
            <source>hair_male_old_png-surface</source>
          </sampler2D>
        </newparam>
        <technique sid="common">
          <lambert>
            <emission>
              <color sid="emission">0 0 0 1</color>
            </emission>
            <diffuse>
              <texture texture="hair_male_old_png-sampler" texcoord="MapaUV"/>
            </diffuse>
            <index_of_refraction>
              <float sid="ior">1.45</float>
            </index_of_refraction>
          </lambert>
        </technique>
      </profile_COMMON>
    </effect>
  </library_effects>
  <library_images>
    <image id="hair_male_old_png" name="hair_male_old_png">
      <init_from>/home/welton/.var/app/com.play0ad.zeroad/data/0ad/mods/Endovelico/art/textures/skins/props/head/hair_male_old.png</init_from>
    </image>
  </library_images>
  <library_materials>
    <material id="A-textura_libios_General-material" name="A-textura libios General">
      <instance_effect url="#A-textura_libios_General-effect"/>
    </material>
  </library_materials>
  <library_geometries>
    <geometry id="Esfera_013-mesh" name="Esfera.013">
      <mesh>
        <source id="Esfera_013-mesh-positions">
          <float_array id="Esfera_013-mesh-positions-array" count="555">-1.81874e-5 0.03108805 0.5262257 0 0.1935778 0.4293375 0 0.2803595 0.3774227 0 0.3103724 0.3145372 0 0.3201752 0.2398997 0 0.3093913 0.1362825 5.61541e-4 0.03101742 0.5262504 0.02818197 0.1901454 0.4305398 0.03586858 0.2736481 0.378953 0.03992933 0.3024806 0.3163366 0.04436749 0.3114063 0.2418991 0.04710006 0.3000823 0.1384052 0.001118957 0.03080832 0.5263237 0.05528086 0.1799803 0.4341006 0.07035905 0.2537718 0.383485 0.07832425 0.2791086 0.3216658 0.08702945 0.2854368 0.2478205 0.09239006 0.2725132 0.1446912 0.00163269 0.03046876 0.5264426 0.08025544 0.1634732 0.4398831 0.1021456 0.2214945 0.3908447 0.1137094 0.2411545 0.3303198 0.1263473 0.2432644 0.2574364 0.1341296 0.2277432 0.1548994 0.002083003 0.03001177 0.5266027 0.1021458 0.1412583 0.4476649 0.1300069 0.1780565 0.4007491 0.1447248 0.1900768 0.3419662 0.1608095 0.18651 0.2703771 0.1707143 0.1674931 0.1686372 0.002452552 0.02945494 0.5267978 0.1201107 0.1141893 0.4571471 0.152872 0.1251273 0.4128176 0.1701782 0.1278386 0.3561573 0.1890918 0.1173546 0.2861455 0.2007389 0.09407806 0.1853768 0.00272715 0.02881968 0.5270203 0.1334599 0.08330667 0.4679653 0.002896249 0.02813035 0.5272617 0.1416803 0.04979693 0.4797037 0.00295335 0.02741348 0.5275129 0.1444559 0.01494801 0.4919112 0.002896249 0.02669662 0.527764 0.1416803 -0.01990091 0.5041188 0.1803247 -0.04618918 0.4726012 0.2120394 -0.07444012 0.4264553 0.2230491 -0.103568 0.3642565 0.22745 -0.1324534 0.2682991 0.00272715 0.02600729 0.5280055 0.1334599 -0.05341058 0.5158572 0.1698622 -0.08883893 0.4875413 0.1997368 -0.1245909 0.444023 0.2101077 -0.1592925 0.3837767 0.2230491 -0.1916103 0.2890216 0.002452552 0.02537196 0.528228 0.1201107 -0.0842933 0.5266754 0.1528719 -0.1281452 0.5013102 0.1797583 -0.1708102 0.4602136 0.1890919 -0.2106486 0.4017667 0.2007389 -0.2461296 0.3081196 0.002083003 0.02481514 0.5284231 0.1021457 -0.1113622 0.5361576 0.1300069 -0.1625974 0.5133788 0.1528719 -0.2113217 0.4744047 0.1608095 -0.2556626 0.417535 0.1707144 -0.2939162 0.3107387 0.00163269 0.02435815 0.5285831 0.08025538 -0.1335771 0.5439394 0.1021457 -0.1908715 0.5232832 0.1201106 -0.2445686 0.486051 0.1263472 -0.2926046 0.4304758 0.1341294 -0.3331336 0.31318 0.001118957 0.02401858 0.5287021 0.05528086 -0.1500843 0.5497218 0.07035917 -0.2118812 0.5306429 0.08273363 -0.2692733 0.494705 0.08702945 -0.3200551 0.4400916 0.09238994 -0.3375627 0.3158574 5.61541e-4 0.02380949 0.5287753 0.02818191 -0.1602494 0.5532826 0.03586876 -0.2248188 0.5351749 0.0421772 -0.2844864 0.5000342 0.04436725 -0.3369589 0.446013 0.04709994 -0.3397693 0.3164955 -1.81871e-5 0.02373892 0.5288001 0 -0.1636817 0.554485 0 -0.2291873 0.5367051 0 -0.2896232 0.5018336 0 -0.3426666 0.4480124 0 -0.3458285 0.3157941 -5.97915e-4 0.02380949 0.5287753 -0.02818191 -0.1602494 0.5532826 -0.03586882 -0.2248188 0.5351749 -0.04217725 -0.2844863 0.5000342 -0.04436713 -0.3369589 0.446013 -0.04709994 -0.3397692 0.3164955 -0.001155316 0.02401858 0.5287021 -0.05528086 -0.1500843 0.5497218 -0.07035917 -0.2118812 0.5306429 -0.08273369 -0.2692732 0.494705 -0.08702939 -0.3200551 0.4400916 -0.09238988 -0.3375626 0.3158574 -0.001669108 0.02435815 0.5285831 -0.08025538 -0.1335771 0.5439394 -0.1021457 -0.1908715 0.5232832 -0.1201106 -0.2445684 0.486051 -0.1263471 -0.2926046 0.4304757 -0.1341294 -0.3331335 0.31318 -0.002119362 0.02481514 0.5284231 -0.1021457 -0.1113622 0.5361576 -0.1300069 -0.1625973 0.5133787 -0.1528719 -0.2113215 0.4744046 -0.1608093 -0.2556626 0.417535 -0.1707143 -0.2939161 0.3107387 -0.00248897 0.02537196 0.528228 -0.1201107 -0.0842933 0.5266754 -0.1528719 -0.1281451 0.5013102 -0.1797583 -0.1708101 0.4602135 -0.1890918 -0.2106486 0.4017667 -0.2007387 -0.2461295 0.3081195 -0.002763569 0.02600729 0.5280055 -0.1334598 -0.05341058 0.5158572 -0.1698622 -0.08883887 0.4875413 -0.1997367 -0.1245908 0.444023 -0.2101076 -0.1592925 0.3837767 -0.2230489 -0.1916102 0.2890215 -0.002932667 0.02669662 0.527764 -0.1416802 -0.01990085 0.5041188 -0.1803247 -0.04618912 0.4726011 -0.2120393 -0.07444 0.4264552 -0.223049 -0.103568 0.3642565 -0.2274499 -0.1324533 0.268299 -0.002989768 0.02741348 0.5275129 -0.1444559 0.01494801 0.4919112 -0.002932667 0.02813035 0.5272617 -0.1416802 0.04979693 0.4797037 -0.002763569 0.02881968 0.5270203 -0.1334598 0.08330661 0.4679653 -0.00248897 0.02945494 0.5267978 -0.1201106 0.1141893 0.4571471 -0.152872 0.1251273 0.4128176 -0.1701782 0.1278385 0.3561573 -0.1890918 0.1173545 0.2861455 -0.2007389 0.094078 0.1853768 -0.002119362 0.03001177 0.5266027 -0.1021457 0.1412582 0.4476649 -0.1300069 0.1780565 0.4007491 -0.1447243 0.1900767 0.3419662 -0.1608095 0.1865099 0.2703772 -0.1707143 0.1674929 0.1686372 -0.001669108 0.03046876 0.5264426 -0.08025532 0.1634731 0.4398831 -0.1021456 0.2214944 0.3908447 -0.1137094 0.2411543 0.3303198 -0.1263468 0.2432643 0.2574364 -0.1341291 0.227743 0.1548994 -0.001155316 0.03080832 0.5263237 -0.0552808 0.1799802 0.4341007 -0.07035905 0.2537717 0.3834851 -0.07832425 0.2791083 0.3216658 -0.08702945 0.2854365 0.2478206 -0.09238952 0.2725128 0.1446914 -5.97915e-4 0.03101742 0.5262504 -0.02818191 0.1901453 0.4305399 -0.03586858 0.2736479 0.378953 -0.03992933 0.3024802 0.3163367 -0.04436701 0.3114061 0.2418991 -0.04710006 0.300082 0.1384052 0 0.3093914 -0.02459949 0.04710006 0.3000824 -0.02460557 0.09239006 0.2725133 -0.02462351 0.1341296 0.2277433 -0.02465265 0.1707143 0.1674931 -0.02469187 0.2007389 0.09407806 -0.02473968 -0.2007387 -0.2461295 -0.02089053 0.2007389 -0.2461296 -0.02089053 0.2230491 -0.1916103 -0.02086937 0.22745 -0.1324535 -0.02084642 -0.2007389 0.094078 -0.02473968 -0.1707143 0.167493 -0.02469187 -0.1341291 0.227743 -0.02465265 -0.09238952 0.2725129 -0.02462351 -0.04710006 0.300082 -0.02460557 -0.2230489 -0.1916102 -0.02086937 -0.2274499 -0.1324533 -0.02084642</float_array>
          <technique_common>
            <accessor source="#Esfera_013-mesh-positions-array" count="185" stride="3">
              <param name="X" type="float"/>
              <param name="Y" type="float"/>
              <param name="Z" type="float"/>
            </accessor>
          </technique_common>
        </source>
        <source id="Esfera_013-mesh-normals">
          <float_array id="Esfera_013-mesh-normals-array" count="585">-4.32467e-6 0.9614801 0.2748747 0.3583884 0.9334073 0.01756578 -3.29841e-6 0.9999497 0.01003968 0.3687021 0.9284557 -0.04504466 -3.7967e-6 0.9987143 -0.0506944 -7.34107e-5 0.5121285 0.8589089 0.06370413 0.5218477 0.8506567 -4.5201e-7 0.5172224 0.8558511 0.1054027 0.5115483 0.8527653 -1.0949e-6 0.5133741 0.8581649 -2.39806e-6 0.9038848 0.4277762 0.3245755 0.9063031 0.2706761 0.3040839 0.859705 0.4104151 0.5750441 0.7758097 0.2596995 0.6243925 0.7802751 0.03612267 0.6385836 0.7689146 -0.03133046 0.05233711 0.5080234 0.8597518 0.1409035 0.531027 0.8355576 0.2168887 0.5073553 0.8339963 0.1022834 0.4959529 0.8623045 0.2426458 0.5339228 0.8099689 0.3469432 0.4990428 0.794095 0.5479656 0.7497543 0.3709479 0.7394981 0.6260617 0.247365 0.7875753 0.6133134 0.05976551 0.8019552 0.5971971 -0.01495492 0.8808882 0.4654726 0.08585739 0.8951178 0.4458276 0.001351535 0.1475123 0.4767689 0.8665631 0.3607361 0.517302 0.7760594 0.68967 0.4985113 0.5252065 0.7156936 0.6156011 0.3298758 0.8400664 0.4863176 0.2403824 0.1861225 0.4517136 0.8725327 0.345233 0.4935457 0.798265 0.7348694 0.4669618 0.4918472 0.8767094 0.4179026 0.2381977 0.9130724 0.3958032 0.09817838 0.9247577 0.3804305 0.009792566 0.2170627 0.4220727 0.8801923 0.2372766 0.3933864 0.8882269 0.2395184 0.3893026 0.8894237 0.2524362 0.3570516 0.8993276 0.2530552 0.3547267 0.9000734 0.2575784 0.3194467 0.911925 0.2530686 0.2844927 0.924673 0.4003109 0.2265455 0.8879349 0.2395453 0.2507986 0.9379329 0.4648392 0.1524428 0.872173 0.7472796 0.04883015 0.6627132 0.7298685 -0.005913317 0.683562 0.9051617 -0.07551616 0.4183057 0.8849596 -0.1400769 0.4441003 0.9720687 -0.1329717 0.193393 0.9433836 -0.2207372 0.2475936 0.9699891 -0.2283034 0.08365845 0.9975345 -0.06463104 0.02734619 0.4219282 0.09117084 0.9020336 0.6678161 -0.103829 0.7370491 0.8170218 -0.2591829 0.5150725 0.8819676 -0.3532121 0.3120488 0.8999453 -0.3967375 0.1808255 0.2171583 0.2194243 0.9511548 0.1861864 0.1915156 0.9636682 0.3633733 0.03600287 0.9309477 0.5807138 -0.1940296 0.7906479 0.7172483 -0.3704041 0.5902166 0.7861242 -0.4940172 0.3714241 0.7700231 -0.579218 0.2675275 0.4676412 -0.2730041 0.8407023 0.5827327 -0.4690065 0.6636683 0.637499 -0.6593601 0.3985466 0.4341065 -0.8421872 0.3198004 0.1474624 0.1681778 0.9746646 0.2897128 -0.01107102 0.9570496 0.1022866 0.1505555 0.9832957 0.2023671 -0.04763633 0.9781506 0.3295234 -0.3358484 0.8823946 0.4135506 -0.5480067 0.7270933 0.4649946 -0.8008978 0.3772837 0.146737 -0.9636277 0.2233605 0.1707364 -0.3768692 0.9103948 0.2153887 -0.5993973 0.7709284 0.2326948 -0.6919728 0.6833937 0.1246469 -0.9896081 0.07168757 0.05239397 0.13953 0.9888308 0.1042248 -0.07106769 0.9920114 -1.45764e-5 0.1357757 0.9907396 1.12573e-6 -0.07917308 0.996861 2.44165e-7 -0.3911945 0.9203081 0 -0.6172192 0.7867913 1.2403e-7 -0.7122337 0.7019425 0.2438251 -0.9694717 0.025963 -7.78813e-7 -0.9997049 0.02429348 -0.2326949 -0.691973 0.6833934 -0.2438254 -0.9694716 0.02596271 -0.1246476 -0.989608 0.07168734 -0.1042236 -0.07107156 0.9920113 -0.1707361 -0.3768694 0.9103949 -0.215389 -0.5993973 0.7709283 -0.05240982 0.1395209 0.9888313 -0.2023699 -0.04764479 0.9781496 -0.3295236 -0.3358486 0.8823944 -0.4135513 -0.5480064 0.7270931 -0.4649953 -0.8008974 0.3772835 -0.1467372 -0.9636277 0.2233605 -0.6374995 -0.6593598 0.3985462 -0.4341073 -0.8421867 0.3198008 -0.1023009 0.1505394 0.9832968 -0.2897208 -0.01108217 0.9570472 -0.4676424 -0.273004 0.8407018 -0.5827335 -0.4690066 0.6636676 -0.1474744 0.1681557 0.9746666 -0.3633866 0.03598898 0.9309431 -0.5807143 -0.1940296 0.7906475 -0.7172485 -0.3704044 0.5902162 -0.7861239 -0.4940176 0.371424 -0.7700233 -0.5792177 0.2675275 -0.8999454 -0.3967376 0.1808252 -0.1861764 0.191493 0.9636746 -0.4219475 0.09115749 0.9020259 -0.6678158 -0.1038292 0.7370493 -0.8170222 -0.2591829 0.5150721 -0.8819675 -0.3532125 0.3120488 -0.7298685 -0.005913257 0.683562 -0.8849598 -0.1400766 0.4440999 -0.9433837 -0.2207368 0.2475935 -0.9699891 -0.2283038 0.08365833 -0.2171535 0.2194042 0.9511604 -0.4648609 0.1524313 0.8721634 -0.2395853 0.2507804 0.9379277 -0.4003484 0.2265329 0.8879213 -0.7472795 0.04882907 0.6627135 -0.9051616 -0.07551652 0.4183057 -0.9720687 -0.1329715 0.1933932 -0.9975345 -0.06463247 0.02734643 -0.2531341 0.2844793 0.9246593 -0.2576404 0.3194413 0.9119094 -0.2531172 0.3547316 0.9000541 -0.2524957 0.3570556 0.8993093 -0.2395735 0.3893194 0.8894014 -0.2373288 0.3933988 0.8882075 -0.2171314 0.4220921 0.880166 -0.3452587 0.4935559 0.7982475 -0.9130713 0.395805 0.09817951 -0.8400666 0.4863175 0.240382 -0.880887 0.4654746 0.08585834 -0.8951165 0.4458305 0.001351058 -0.9247576 0.3804308 0.009792447 -0.1861762 0.4517398 0.8725076 -0.3607483 0.5173103 0.7760483 -0.7348691 0.466962 0.4918475 -0.6896709 0.4985124 0.5252042 -0.876708 0.4179072 0.238195 -0.1475746 0.4767966 0.8665372 -0.2426536 0.533931 0.809961 -0.3469432 0.4990425 0.794095 -0.7156959 0.6156001 0.3298726 -0.739499 0.626061 0.2473638 -0.7875747 0.6133143 0.05976349 -0.8019533 0.5971997 -0.01495605 -0.5750439 0.7758101 0.2596982 -0.6243925 0.7802752 0.03612112 -0.6385843 0.7689139 -0.03133159 -0.1023768 0.4959644 0.8622868 -0.1409052 0.5310338 0.8355531 -0.2168879 0.5073556 0.8339964 -0.5479656 0.7497552 0.370946 -0.05243241 0.5080296 0.8597423 -0.06370413 0.5218516 0.8506543 -0.1054035 0.5115486 0.852765 -0.304085 0.8597056 0.4104127 -0.3245788 0.9063019 0.270676 -0.3583896 0.933407 0.01756489 -0.368708 0.9284534 -0.04504436 0.9255863 0.3785367 0 0.8929544 0.4501471 0 0.7972874 0.6035999 3.0389e-7 0.6316281 0.7752717 5.75043e-7 -0.9733506 -0.2293223 0 0.3625479 0.9319652 7.50035e-7 -0.6316292 0.7752707 2.02436e-7 -4.57349e-6 1 8.60337e-7 -0.8929529 0.4501504 1.63954e-7 -0.7972848 0.6036035 2.14721e-7 0.9733505 -0.2293227 0 0.9972442 -0.0741893 0 -0.3625542 0.9319627 2.99506e-7 -0.9255862 0.3785369 1.23185e-7 0.925506 -0.3787331 0 -0.9255064 -0.378732 0 0.2575878 0.3194379 0.9119254 0 -0.9997142 0.02390766 -0.257647 0.3194342 0.91191 -0.9972442 -0.07418936 0</float_array>
          <technique_common>
            <accessor source="#Esfera_013-mesh-normals-array" count="195" stride="3">
              <param name="X" type="float"/>
              <param name="Y" type="float"/>
              <param name="Z" type="float"/>
            </accessor>
          </technique_common>
        </source>
        <source id="Esfera_013-mesh-map-0">
          <float_array id="Esfera_013-mesh-map-0-array" count="1704">0.03830987 0.5516622 0.1553691 0.6694904 0.03830665 0.6695236 0.03830665 0.6695236 0.1553488 0.787351 0.03830903 0.7873883 0.03830099 0.1834897 0.1553472 0.4615678 0.03830987 0.461567 0.03830903 0.3159353 0.1553318 0.4337627 0.0383107 0.4337975 0.0383107 0.4337975 0.1553375 0.5516266 0.03830987 0.5516622 0.1553318 0.4337627 0.2745112 0.5515902 0.1553375 0.5516266 0.1553375 0.5516266 0.2744868 0.6694532 0.1553691 0.6694904 0.1553691 0.6694904 0.2745031 0.7873162 0.1553488 0.787351 0.1554476 0.1834897 0.2745031 0.4615686 0.1553472 0.4615678 0.1553472 0.3158997 0.274516 0.4337279 0.1553318 0.4337627 0.2744286 0.1834889 0.3941535 0.4615702 0.2745031 0.4615686 0.2745031 0.3158633 0.3940887 0.4336915 0.274516 0.4337279 0.274516 0.4337279 0.3941114 0.5515546 0.2745112 0.5515902 0.2745112 0.5515902 0.394236 0.6694176 0.2744868 0.6694532 0.2744868 0.6694532 0.3941567 0.7872798 0.2745031 0.7873162 0.3941114 0.5515546 0.5117963 0.6693803 0.394236 0.6694176 0.394236 0.6694176 0.5117202 0.7872442 0.3941567 0.7872798 0.3945356 0.1834889 0.5117154 0.461571 0.3941535 0.4615702 0.3941535 0.3158285 0.5116522 0.4336567 0.3940887 0.4336915 0.3940887 0.4336915 0.5116749 0.5515173 0.3941114 0.5515546 0.512091 0.1834889 0.6315601 0.4615718 0.5117154 0.461571 0.5117154 0.3157929 0.6315131 0.4336203 0.5116522 0.4336567 0.5116522 0.4336567 0.631531 0.5514825 0.5116749 0.5515173 0.5116749 0.5515173 0.6316232 0.6693455 0.5117963 0.6693803 0.5117202 0.7872442 0.6316232 0.6693455 0.6315633 0.7872077 0.631845 0.1834889 0.754366 0.4615734 0.6315601 0.4615718 0.7545765 0.1834889 0.8645095 0.4615743 0.754366 0.4615734 0.8655084 0.1834889 0.9858 0.461575 0.8655684 0.4615743 0.03734898 0.4624429 0.1555002 0.1834306 0.1554937 0.4624437 0.1554937 0.4624437 0.274257 0.1834306 0.2742586 0.4624445 0.1555779 0.4048252 0.2742586 0.2869274 0.2742343 0.4047904 0.1552323 0.5226898 0.2742343 0.4047904 0.2743363 0.5226526 0.1548874 0.6405513 0.2743363 0.5226526 0.2744383 0.6405181 0.1548874 0.6405513 0.274414 0.7583795 0.1549708 0.7584143 0.2742343 0.4047904 0.3936402 0.2868925 0.3936241 0.4047539 0.2743363 0.5226526 0.3936241 0.4047539 0.3936888 0.5226162 0.2744383 0.6405181 0.3936888 0.5226162 0.3937552 0.6404808 0.2744383 0.6405181 0.393739 0.7583431 0.274414 0.7583795 0.2742586 0.4624445 0.3936386 0.1834306 0.3936402 0.4624461 0.3936402 0.4624461 0.512894 0.1834306 0.512894 0.4624469 0.3936241 0.4047539 0.512894 0.2868561 0.5128762 0.4047183 0.3936888 0.5226162 0.5128762 0.4047183 0.5129572 0.5225813 0.3937552 0.6404808 0.5129572 0.5225813 0.5130397 0.6404444 0.393739 0.7583431 0.5130397 0.6404444 0.5130203 0.7583075 0.5129572 0.5225813 0.6333507 0.4046835 0.6332924 0.5225458 0.5130397 0.6404444 0.6332924 0.5225458 0.6332309 0.640408 0.5130203 0.7583075 0.6332309 0.640408 0.6332455 0.7582718 0.512894 0.4624469 0.6333377 0.1834306 0.6333377 0.4624477 0.5128762 0.4047183 0.6333377 0.2868189 0.6333507 0.4046835 0.6333377 0.4624477 0.7537103 0.1834306 0.7537103 0.4624493 0.6333507 0.4046835 0.7537103 0.2867849 0.7537087 0.4046471 0.6332924 0.5225458 0.7537087 0.4046471 0.7537168 0.5225117 0.6332309 0.640408 0.7537168 0.5225117 0.7537233 0.6403716 0.6332309 0.640408 0.7537216 0.7582353 0.6332455 0.7582718 0.7537168 0.5225117 0.8646811 0.4046106 0.8645468 0.5224745 0.7537233 0.6403716 0.8645468 0.5224745 0.864414 0.6403368 0.7537233 0.6403716 0.8644464 0.7581998 0.7537216 0.7582353 0.7537103 0.4624493 0.864652 0.1834298 0.8646488 0.4624502 0.7537087 0.4046471 0.8646488 0.2867476 0.8646811 0.4046106 0.8646488 0.4624502 0.9819597 0.1834298 0.9819614 0.4624509 0.8646811 0.4046106 0.9819614 0.2867128 0.9819257 0.4045758 0.8645468 0.5224745 0.9819257 0.4045758 0.9820795 0.5224381 0.864414 0.6403368 0.9820795 0.5224381 0.9822333 0.6403011 0.864414 0.6403368 0.9821961 0.758165 0.8644464 0.7581998 0.03891378 0.5301924 0.1549853 0.6480133 0.03764367 0.6480554 0.03865796 0.7659177 0.1549853 0.6480133 0.1557592 0.7658764 0.03815203 0.183446 0.155276 0.4622178 0.0380249 0.4622162 0.0380249 0.2944671 0.1551788 0.4122881 0.03789865 0.4123293 0.03789865 0.4123293 0.1559535 0.5301519 0.03891378 0.5301924 0.1553731 0.183446 0.2745403 0.4622187 0.155276 0.4622178 0.1552751 0.294425 0.2745678 0.4122468 0.1551788 0.4122881 0.1551788 0.4122881 0.2743395 0.5301082 0.1559535 0.5301519 0.1559535 0.5301519 0.2746261 0.6479712 0.1549853 0.6480133 0.1557592 0.7658764 0.2746261 0.6479712 0.2743962 0.7658351 0.2743962 0.7658351 0.3940191 0.6479299 0.3938701 0.765793 0.2745112 0.183446 0.3939625 0.4622203 0.2745403 0.4622187 0.2745403 0.2943837 0.3939802 0.4122047 0.2745678 0.4122468 0.2745678 0.4122468 0.3938329 0.5300669 0.2743395 0.5301082 0.2743395 0.5301082 0.3940191 0.6479299 0.2746261 0.6479712 0.3939446 0.183446 0.513472 0.4622219 0.3939625 0.4622203 0.3939625 0.2943425 0.5134947 0.4121626 0.3939802 0.4122047 0.3939802 0.4122047 0.5133118 0.5300256 0.3938329 0.5300669 0.3938329 0.5300669 0.5135416 0.6478894 0.3940191 0.6479299 0.3940191 0.6479299 0.5133571 0.7657509 0.3938701 0.765793 0.5135416 0.6478894 0.6328731 0.7657129 0.5133571 0.7657509 0.5134493 0.1834452 0.6327889 0.4622226 0.513472 0.4622219 0.513472 0.2943004 0.6327728 0.4121213 0.5134947 0.4121626 0.5134947 0.4121626 0.6329071 0.5299844 0.5133118 0.5300256 0.5133118 0.5300256 0.6327387 0.6478482 0.5135416 0.6478894 0.6327889 0.2942582 0.7537896 0.4120808 0.6327728 0.4121213 0.6327728 0.4121213 0.7537751 0.5299447 0.6329071 0.5299844 0.6329071 0.5299844 0.7537944 0.6478061 0.6327387 0.6478482 0.6328731 0.7657129 0.7537944 0.6478061 0.7537783 0.7656691 0.6328067 0.1834452 0.753788 0.4622243 0.6327889 0.4622226 0.7537864 0.1834452 0.8628614 0.4622251 0.753788 0.4622243 0.753788 0.2942178 0.8628225 0.4120395 0.7537896 0.4120808 0.7537896 0.4120808 0.863122 0.5299001 0.7537751 0.5299447 0.7537751 0.5299447 0.862748 0.6477656 0.7537944 0.6478061 0.7537783 0.7656691 0.862748 0.6477656 0.8630475 0.765627 0.8628986 0.1834452 0.9843559 0.4622267 0.8628614 0.4622251 0.03831231 0.4622267 0.1553512 0.1834452 0.1553334 0.4622275 0.1553334 0.4622275 0.274482 0.1834452 0.2744966 0.4622291 0.2744966 0.4622291 0.3943591 0.1834452 0.3942878 0.46223 0.3944384 0.6475996 0.5119809 0.5296953 0.5120894 0.6475576 0.3944384 0.6475996 0.5120214 0.7654206 0.3943688 0.7654627 0.3942878 0.46223 0.51201 0.1834452 0.511942 0.4622316 0.3943073 0.4118728 0.511942 0.2939684 0.5119615 0.4118315 0.3943283 0.5297374 0.5119615 0.4118315 0.5119809 0.5296953 0.511942 0.4622316 0.6318564 0.1834444 0.6318046 0.4622332 0.5119615 0.4118315 0.6318046 0.2939272 0.6318191 0.411791 0.5119809 0.5296953 0.6318191 0.411791 0.6318337 0.529654 0.5120894 0.6475576 0.6318337 0.529654 0.6319163 0.6475163 0.5120214 0.7654206 0.6319163 0.6475163 0.6318644 0.7653785 0.6319163 0.6475163 0.7546202 0.5296111 0.7546817 0.6474742 0.6318644 0.7653785 0.7546817 0.6474742 0.7546429 0.7653372 0.6318046 0.4622332 0.7546364 0.1834444 0.7545975 0.462234 0.6318191 0.411791 0.7545975 0.2938859 0.7546089 0.4117489 0.6318337 0.529654 0.7546089 0.4117489 0.7546202 0.5296111 0.7545975 0.462234 0.866046 0.1834444 0.8658614 0.4622356 0.7546089 0.4117489 0.8658614 0.2938438 0.8659148 0.411706 0.7546202 0.5296111 0.8659148 0.411706 0.8659667 0.5295699 0.7546817 0.6474742 0.8659667 0.5295699 0.866258 0.6474337 0.7546429 0.7653372 0.866258 0.6474337 0.8660735 0.7652967 0.8660735 0.7652967 0.9865334 0.6473916 0.9863893 0.7652546 0.8658614 0.4622356 0.9863683 0.1834444 0.9862242 0.4622364 0.8659148 0.411706 0.9862242 0.2938017 0.9862663 0.4116647 0.8659667 0.5295699 0.9862663 0.4116647 0.9863068 0.5295294 0.866258 0.6474337 0.9863068 0.5295294 0.9865334 0.6473916 0.5117202 0.2997823 0.6315633 0.8691633 0.5117202 0.8693803 0.2745031 0.2999726 0.3941567 0.8695924 0.2745031 0.8698093 0.8630492 0.0381301 0.7537783 0.7656691 0.7537783 0.03817218 0.3941567 0.2998763 0.5117202 0.8693803 0.3941567 0.8695924 0.1553504 0.3000641 0.2745031 0.8698093 0.1553504 0.8700166 0.8660735 0.3000608 0.7546429 0.868417 0.7546429 0.3000592 0.03830987 0.3001628 0.1553504 0.8700166 0.03830987 0.8702384 0.6318644 0.3000576 0.5120214 0.868914 0.5120214 0.3000552 0.7546429 0.3000592 0.6318644 0.8686631 0.6318644 0.3000576 0.1549708 0.03091734 0.274414 0.7583795 0.1549708 0.7584143 0.9863893 0.3000633 0.8660735 0.8681758 0.8660735 0.3000608 0.5120214 0.3000552 0.3943688 0.8691641 0.3943688 0.3000527 0.274414 0.03088253 0.393739 0.7583431 0.274414 0.7583795 0.7537783 0.03817218 0.6328731 0.7657129 0.6328731 0.03821593 0.03830987 0.5516622 0.1553375 0.5516266 0.1553691 0.6694904 0.03830665 0.6695236 0.1553691 0.6694904 0.1553488 0.787351 0.03830099 0.1834897 0.1554476 0.1834897 0.1553472 0.4615678 0.03830903 0.3159353 0.1553472 0.3158997 0.1553318 0.4337627 0.0383107 0.4337975 0.1553318 0.4337627 0.1553375 0.5516266 0.1553318 0.4337627 0.274516 0.4337279 0.2745112 0.5515902 0.1553375 0.5516266 0.2745112 0.5515902 0.2744868 0.6694532 0.1553691 0.6694904 0.2744868 0.6694532 0.2745031 0.7873162 0.1554476 0.1834897 0.2744286 0.1834889 0.2745031 0.4615686 0.1553472 0.3158997 0.2745031 0.3158633 0.274516 0.4337279 0.2744286 0.1834889 0.3945356 0.1834889 0.3941535 0.4615702 0.2745031 0.3158633 0.3941535 0.3158285 0.3940887 0.4336915 0.274516 0.4337279 0.3940887 0.4336915 0.3941114 0.5515546 0.2745112 0.5515902 0.3941114 0.5515546 0.394236 0.6694176 0.2744868 0.6694532 0.394236 0.6694176 0.3941567 0.7872798 0.3941114 0.5515546 0.5116749 0.5515173 0.5117963 0.6693803 0.394236 0.6694176 0.5117963 0.6693803 0.5117202 0.7872442 0.3945356 0.1834889 0.512091 0.1834889 0.5117154 0.461571 0.3941535 0.3158285 0.5117154 0.3157929 0.5116522 0.4336567 0.3940887 0.4336915 0.5116522 0.4336567 0.5116749 0.5515173 0.512091 0.1834889 0.631845 0.1834889 0.6315601 0.4615718 0.5117154 0.3157929 0.6315601 0.3157572 0.6315131 0.4336203 0.5116522 0.4336567 0.6315131 0.4336203 0.631531 0.5514825 0.5116749 0.5515173 0.631531 0.5514825 0.6316232 0.6693455 0.5117202 0.7872442 0.5117963 0.6693803 0.6316232 0.6693455 0.631845 0.1834889 0.7545765 0.1834889 0.754366 0.4615734 0.7545765 0.1834889 0.8655084 0.1834889 0.8645095 0.4615743 0.8655084 0.1834889 0.9857531 0.1834889 0.9858 0.461575 0.03734898 0.4624429 0.03735786 0.1834306 0.1555002 0.1834306 0.1554937 0.4624437 0.1555002 0.1834306 0.274257 0.1834306 0.1555779 0.4048252 0.1554937 0.2869638 0.2742586 0.2869274 0.1552323 0.5226898 0.1555779 0.4048252 0.2742343 0.4047904 0.1548874 0.6405513 0.1552323 0.5226898 0.2743363 0.5226526 0.1548874 0.6405513 0.2744383 0.6405181 0.274414 0.7583795 0.2742343 0.4047904 0.2742586 0.2869274 0.3936402 0.2868925 0.2743363 0.5226526 0.2742343 0.4047904 0.3936241 0.4047539 0.2744383 0.6405181 0.2743363 0.5226526 0.3936888 0.5226162 0.2744383 0.6405181 0.3937552 0.6404808 0.393739 0.7583431 0.2742586 0.4624445 0.274257 0.1834306 0.3936386 0.1834306 0.3936402 0.4624461 0.3936386 0.1834306 0.512894 0.1834306 0.3936241 0.4047539 0.3936402 0.2868925 0.512894 0.2868561 0.3936888 0.5226162 0.3936241 0.4047539 0.5128762 0.4047183 0.3937552 0.6404808 0.3936888 0.5226162 0.5129572 0.5225813 0.393739 0.7583431 0.3937552 0.6404808 0.5130397 0.6404444 0.5129572 0.5225813 0.5128762 0.4047183 0.6333507 0.4046835 0.5130397 0.6404444 0.5129572 0.5225813 0.6332924 0.5225458 0.5130203 0.7583075 0.5130397 0.6404444 0.6332309 0.640408 0.512894 0.4624469 0.512894 0.1834306 0.6333377 0.1834306 0.5128762 0.4047183 0.512894 0.2868561 0.6333377 0.2868189 0.6333377 0.4624477 0.6333377 0.1834306 0.7537103 0.1834306 0.6333507 0.4046835 0.6333377 0.2868189 0.7537103 0.2867849 0.6332924 0.5225458 0.6333507 0.4046835 0.7537087 0.4046471 0.6332309 0.640408 0.6332924 0.5225458 0.7537168 0.5225117 0.6332309 0.640408 0.7537233 0.6403716 0.7537216 0.7582353 0.7537168 0.5225117 0.7537087 0.4046471 0.8646811 0.4046106 0.7537233 0.6403716 0.7537168 0.5225117 0.8645468 0.5224745 0.7537233 0.6403716 0.864414 0.6403368 0.8644464 0.7581998 0.7537103 0.4624493 0.7537103 0.1834306 0.864652 0.1834298 0.7537087 0.4046471 0.7537103 0.2867849 0.8646488 0.2867476 0.8646488 0.4624502 0.864652 0.1834298 0.9819597 0.1834298 0.8646811 0.4046106 0.8646488 0.2867476 0.9819614 0.2867128 0.8645468 0.5224745 0.8646811 0.4046106 0.9819257 0.4045758 0.864414 0.6403368 0.8645468 0.5224745 0.9820795 0.5224381 0.864414 0.6403368 0.9822333 0.6403011 0.9821961 0.758165 0.03891378 0.5301924 0.1559535 0.5301519 0.1549853 0.6480133 0.03865796 0.7659177 0.03764367 0.6480554 0.1549853 0.6480133 0.03815203 0.183446 0.1553731 0.183446 0.155276 0.4622178 0.0380249 0.2944671 0.1552751 0.294425 0.1551788 0.4122881 0.03789865 0.4123293 0.1551788 0.4122881 0.1559535 0.5301519 0.1553731 0.183446 0.2745112 0.183446 0.2745403 0.4622187 0.1552751 0.294425 0.2745403 0.2943837 0.2745678 0.4122468 0.1551788 0.4122881 0.2745678 0.4122468 0.2743395 0.5301082 0.1559535 0.5301519 0.2743395 0.5301082 0.2746261 0.6479712 0.1557592 0.7658764 0.1549853 0.6480133 0.2746261 0.6479712 0.2743962 0.7658351 0.2746261 0.6479712 0.3940191 0.6479299 0.2745112 0.183446 0.3939446 0.183446 0.3939625 0.4622203 0.2745403 0.2943837 0.3939625 0.2943425 0.3939802 0.4122047 0.2745678 0.4122468 0.3939802 0.4122047 0.3938329 0.5300669 0.2743395 0.5301082 0.3938329 0.5300669 0.3940191 0.6479299 0.3939446 0.183446 0.5134493 0.1834452 0.513472 0.4622219 0.3939625 0.2943425 0.513472 0.2943004 0.5134947 0.4121626 0.3939802 0.4122047 0.5134947 0.4121626 0.5133118 0.5300256 0.3938329 0.5300669 0.5133118 0.5300256 0.5135416 0.6478894 0.3940191 0.6479299 0.5135416 0.6478894 0.5133571 0.7657509 0.5135416 0.6478894 0.6327387 0.6478482 0.6328731 0.7657129 0.5134493 0.1834452 0.6328067 0.1834452 0.6327889 0.4622226 0.513472 0.2943004 0.6327889 0.2942582 0.6327728 0.4121213 0.5134947 0.4121626 0.6327728 0.4121213 0.6329071 0.5299844 0.5133118 0.5300256 0.6329071 0.5299844 0.6327387 0.6478482 0.6327889 0.2942582 0.753788 0.2942178 0.7537896 0.4120808 0.6327728 0.4121213 0.7537896 0.4120808 0.7537751 0.5299447 0.6329071 0.5299844 0.7537751 0.5299447 0.7537944 0.6478061 0.6328731 0.7657129 0.6327387 0.6478482 0.7537944 0.6478061 0.6328067 0.1834452 0.7537864 0.1834452 0.753788 0.4622243 0.7537864 0.1834452 0.8628986 0.1834452 0.8628614 0.4622251 0.753788 0.2942178 0.8628614 0.2941757 0.8628225 0.4120395 0.7537896 0.4120808 0.8628225 0.4120395 0.863122 0.5299001 0.7537751 0.5299447 0.863122 0.5299001 0.862748 0.6477656 0.7537783 0.7656691 0.7537944 0.6478061 0.862748 0.6477656 0.8628986 0.1834452 0.9843122 0.1834452 0.9843559 0.4622267 0.03831231 0.4622267 0.0383107 0.1834452 0.1553512 0.1834452 0.1553334 0.4622275 0.1553512 0.1834452 0.274482 0.1834452 0.2744966 0.4622291 0.274482 0.1834452 0.3943591 0.1834452 0.3944384 0.6475996 0.3943283 0.5297374 0.5119809 0.5296953 0.3944384 0.6475996 0.5120894 0.6475576 0.5120214 0.7654206 0.3942878 0.46223 0.3943591 0.1834452 0.51201 0.1834452 0.3943073 0.4118728 0.3942878 0.2940114 0.511942 0.2939684 0.3943283 0.5297374 0.3943073 0.4118728 0.5119615 0.4118315 0.511942 0.4622316 0.51201 0.1834452 0.6318564 0.1834444 0.5119615 0.4118315 0.511942 0.2939684 0.6318046 0.2939272 0.5119809 0.5296953 0.5119615 0.4118315 0.6318191 0.411791 0.5120894 0.6475576 0.5119809 0.5296953 0.6318337 0.529654 0.5120214 0.7654206 0.5120894 0.6475576 0.6319163 0.6475163 0.6319163 0.6475163 0.6318337 0.529654 0.7546202 0.5296111 0.6318644 0.7653785 0.6319163 0.6475163 0.7546817 0.6474742 0.6318046 0.4622332 0.6318564 0.1834444 0.7546364 0.1834444 0.6318191 0.411791 0.6318046 0.2939272 0.7545975 0.2938859 0.6318337 0.529654 0.6318191 0.411791 0.7546089 0.4117489 0.7545975 0.462234 0.7546364 0.1834444 0.866046 0.1834444 0.7546089 0.4117489 0.7545975 0.2938859 0.8658614 0.2938438 0.7546202 0.5296111 0.7546089 0.4117489 0.8659148 0.411706 0.7546817 0.6474742 0.7546202 0.5296111 0.8659667 0.5295699 0.7546429 0.7653372 0.7546817 0.6474742 0.866258 0.6474337 0.8660735 0.7652967 0.866258 0.6474337 0.9865334 0.6473916 0.8658614 0.4622356 0.866046 0.1834444 0.9863683 0.1834444 0.8659148 0.411706 0.8658614 0.2938438 0.9862242 0.2938017 0.8659667 0.5295699 0.8659148 0.411706 0.9862663 0.4116647 0.866258 0.6474337 0.8659667 0.5295699 0.9863068 0.5295294 0.5117202 0.2997823 0.6315633 0.299686 0.6315633 0.8691633 0.2745031 0.2999726 0.3941567 0.2998763 0.3941567 0.8695924 0.8630492 0.0381301 0.8630475 0.765627 0.7537783 0.7656691 0.3941567 0.2998763 0.5117202 0.2997823 0.5117202 0.8693803 0.1553504 0.3000641 0.2745031 0.2999726 0.2745031 0.8698093 0.8660735 0.3000608 0.8660735 0.8681758 0.7546429 0.868417 0.03830987 0.3001628 0.1553504 0.3000641 0.1553504 0.8700166 0.6318644 0.3000576 0.6318644 0.8686631 0.5120214 0.868914 0.7546429 0.3000592 0.7546429 0.868417 0.6318644 0.8686631 0.1549708 0.03091734 0.274414 0.03088253 0.274414 0.7583795 0.9863893 0.3000633 0.9863893 0.8679256 0.8660735 0.8681758 0.5120214 0.3000552 0.5120214 0.868914 0.3943688 0.8691641 0.274414 0.03088253 0.393739 0.03084611 0.393739 0.7583431 0.7537783 0.03817218 0.7537783 0.7656691 0.6328731 0.7657129</float_array>
          <technique_common>
            <accessor source="#Esfera_013-mesh-map-0-array" count="852" stride="2">
              <param name="S" type="float"/>
              <param name="T" type="float"/>
            </accessor>
          </technique_common>
        </source>
        <vertices id="Esfera_013-mesh-vertices">
          <input semantic="POSITION" source="#Esfera_013-mesh-positions"/>
        </vertices>
        <triangles material="A-textura_libios_General-material" count="284">
          <input semantic="VERTEX" source="#Esfera_013-mesh-vertices" offset="0"/>
          <input semantic="NORMAL" source="#Esfera_013-mesh-normals" offset="1"/>
          <input semantic="TEXCOORD" source="#Esfera_013-mesh-map-0" offset="2" set="0"/>
          <p>3 0 0 10 1 1 4 2 2 4 2 3 11 3 4 5 4 5 0 5 6 7 6 7 1 7 8 1 7 9 8 8 10 2 9 11 2 10 12 9 11 13 3 0 14 8 12 15 15 13 16 9 11 17 9 11 18 16 14 19 10 1 20 10 1 21 17 15 22 11 3 23 6 16 24 13 17 25 7 6 26 7 6 27 14 18 28 8 8 29 12 19 30 19 20 31 13 17 32 13 17 33 20 21 34 14 18 35 14 22 36 21 23 37 15 13 38 15 13 39 22 24 40 16 14 41 16 14 42 23 25 43 17 15 44 21 23 45 28 26 46 22 24 47 22 24 48 29 27 49 23 25 50 18 28 51 25 29 52 19 20 53 19 20 54 26 30 55 20 21 56 20 31 57 27 32 58 21 23 59 24 33 60 31 34 61 25 29 62 25 29 63 32 35 64 26 30 65 26 30 66 33 36 67 27 32 68 27 32 69 34 37 70 28 26 71 29 27 72 34 37 73 35 38 74 30 39 75 37 40 76 31 34 77 36 41 78 39 42 79 37 40 80 38 43 81 41 44 82 39 42 83 41 44 84 42 45 85 43 46 86 43 46 87 48 47 88 49 48 89 44 49 90 49 48 91 50 50 92 45 51 93 50 50 94 51 52 95 46 53 96 51 52 97 52 54 98 46 53 99 53 55 100 47 56 101 50 50 102 55 57 103 56 58 104 51 52 105 56 58 106 57 59 107 52 54 108 57 59 109 58 60 110 52 54 111 59 61 112 53 55 113 49 48 114 54 62 115 55 57 116 55 57 117 60 63 118 61 64 119 56 58 120 61 64 121 62 65 122 57 59 123 62 65 124 63 66 125 58 60 126 63 66 127 64 67 128 59 61 129 64 67 130 65 68 131 63 66 132 68 69 133 69 70 134 64 67 135 69 70 136 70 71 137 65 68 138 70 71 139 71 72 140 61 64 141 66 73 142 67 74 143 62 65 144 67 74 145 68 69 146 67 74 147 72 75 148 73 76 149 68 69 150 73 76 151 74 77 152 69 70 153 74 77 154 75 78 155 70 71 156 75 78 157 76 79 158 70 71 159 77 80 160 71 72 161 75 78 162 80 81 163 81 82 164 76 79 165 81 82 166 82 83 167 76 79 168 83 84 169 77 80 170 73 76 171 78 85 172 79 86 173 74 77 174 79 86 175 80 81 176 79 86 177 84 87 178 85 88 179 80 81 180 85 88 181 86 89 182 81 82 183 86 89 184 87 90 185 82 83 186 87 90 187 88 91 188 82 92 189 89 93 190 83 84 191 87 90 192 94 94 193 88 91 194 89 93 195 94 95 196 95 96 197 84 87 198 91 97 199 85 88 200 85 88 201 92 98 202 86 89 203 86 89 204 93 99 205 87 90 206 90 100 207 97 101 208 91 97 209 91 97 210 98 102 211 92 98 212 92 98 213 99 103 214 93 99 215 93 99 216 100 104 217 94 94 218 95 96 219 100 104 220 101 105 221 101 105 222 106 106 223 107 107 224 96 108 225 103 109 226 97 101 227 97 101 228 104 110 229 98 102 230 98 102 231 105 111 232 99 103 233 99 103 234 106 106 235 100 104 236 102 112 237 109 113 238 103 109 239 103 109 240 110 114 241 104 110 242 104 110 243 111 115 244 105 111 245 105 111 246 112 116 247 106 106 248 106 106 249 113 117 250 107 107 251 112 116 252 119 118 253 113 117 254 108 119 255 115 120 256 109 113 257 109 113 258 116 121 259 110 114 260 110 114 261 117 122 262 111 115 263 111 115 264 118 123 265 112 116 266 115 120 267 122 124 268 116 121 269 116 121 270 123 125 271 117 122 272 117 122 273 124 126 274 118 123 275 119 118 276 124 126 277 125 127 278 114 128 279 121 129 280 115 120 281 120 130 282 127 131 283 121 129 284 121 129 285 128 132 286 122 124 287 122 124 288 129 133 289 123 125 290 123 125 291 130 134 292 124 126 293 125 127 294 130 134 295 131 135 296 126 136 297 133 137 298 127 131 299 133 137 300 134 138 301 135 139 302 135 139 303 136 140 304 137 141 305 137 141 306 138 142 307 139 143 308 142 144 309 147 145 310 148 146 311 142 144 312 149 147 313 143 148 314 139 143 315 144 149 316 145 150 317 140 151 318 145 150 319 146 152 320 141 153 321 146 152 322 147 145 323 145 150 324 150 154 325 151 155 326 146 152 327 151 155 328 152 156 329 147 145 330 152 157 331 153 158 332 148 146 333 153 158 334 154 159 335 149 147 336 154 159 337 155 160 338 154 159 339 159 161 340 160 162 341 155 160 342 160 162 343 161 163 344 151 155 345 156 164 346 157 165 347 152 156 348 157 165 349 158 166 350 153 158 351 158 167 352 159 161 353 157 165 354 162 168 355 163 169 356 158 166 357 163 169 358 164 170 359 159 161 360 164 171 361 165 172 362 160 162 363 165 172 364 166 173 365 161 163 366 166 173 367 167 174 368 167 174 369 4 2 370 5 4 371 163 169 372 0 5 373 1 7 374 164 170 375 1 7 376 2 9 377 165 172 378 2 10 379 3 0 380 166 173 381 3 0 382 4 2 383 29 27 384 173 175 385 172 176 386 17 15 387 171 177 388 170 178 389 131 135 390 183 179 391 125 127 392 23 25 393 172 176 394 171 177 395 11 3 396 170 178 397 169 180 398 167 174 399 181 181 400 161 163 401 5 4 402 169 180 403 168 182 404 155 160 405 179 183 406 149 147 407 161 163 408 180 184 409 155 160 410 47 56 411 176 185 412 177 186 413 5 4 414 182 187 415 167 174 416 149 147 417 178 188 418 143 148 419 53 55 420 175 189 421 176 185 422 125 127 423 174 190 424 119 118 425 3 0 426 9 11 427 10 1 428 4 2 429 10 1 430 11 3 431 0 5 432 6 16 433 7 6 434 1 7 435 7 6 436 8 8 437 2 10 438 8 12 439 9 11 440 8 12 441 14 22 442 15 13 443 9 11 444 15 13 445 16 14 446 10 1 447 16 14 448 17 15 449 6 16 450 12 19 451 13 17 452 7 6 453 13 17 454 14 18 455 12 19 456 18 28 457 19 20 458 13 17 459 19 20 460 20 21 461 14 22 462 20 31 463 21 23 464 15 13 465 21 23 466 22 24 467 16 14 468 22 24 469 23 25 470 21 23 471 27 32 472 28 26 473 22 24 474 28 26 475 29 27 476 18 28 477 24 33 478 25 29 479 19 20 480 25 29 481 26 30 482 20 31 483 26 30 484 27 32 485 24 33 486 30 39 487 31 34 488 25 29 489 31 34 490 32 35 491 26 30 492 32 35 493 33 36 494 27 32 495 33 36 496 34 37 497 29 27 498 28 26 499 34 37 500 30 39 501 36 41 502 37 40 503 36 41 504 38 43 505 39 42 506 38 43 507 40 191 508 41 44 509 41 44 510 40 191 511 42 45 512 43 46 513 42 45 514 48 47 515 44 49 516 43 46 517 49 48 518 45 51 519 44 49 520 50 50 521 46 53 522 45 51 523 51 52 524 46 53 525 52 54 526 53 55 527 50 50 528 49 48 529 55 57 530 51 52 531 50 50 532 56 58 533 52 54 534 51 52 535 57 59 536 52 54 537 58 60 538 59 61 539 49 48 540 48 47 541 54 62 542 55 57 543 54 62 544 60 63 545 56 58 546 55 57 547 61 64 548 57 59 549 56 58 550 62 65 551 58 60 552 57 59 553 63 66 554 59 61 555 58 60 556 64 67 557 63 66 558 62 65 559 68 69 560 64 67 561 63 66 562 69 70 563 65 68 564 64 67 565 70 71 566 61 64 567 60 63 568 66 73 569 62 65 570 61 64 571 67 74 572 67 74 573 66 73 574 72 75 575 68 69 576 67 74 577 73 76 578 69 70 579 68 69 580 74 77 581 70 71 582 69 70 583 75 78 584 70 71 585 76 79 586 77 80 587 75 78 588 74 77 589 80 81 590 76 79 591 75 78 592 81 82 593 76 79 594 82 92 595 83 84 596 73 76 597 72 75 598 78 85 599 74 77 600 73 76 601 79 86 602 79 86 603 78 85 604 84 87 605 80 81 606 79 86 607 85 88 608 81 82 609 80 81 610 86 89 611 82 83 612 81 82 613 87 90 614 82 92 615 88 192 616 89 93 617 87 90 618 93 99 619 94 94 620 89 93 621 88 192 622 94 95 623 84 87 624 90 100 625 91 97 626 85 88 627 91 97 628 92 98 629 86 89 630 92 98 631 93 99 632 90 100 633 96 108 634 97 101 635 91 97 636 97 101 637 98 102 638 92 98 639 98 102 640 99 103 641 93 99 642 99 103 643 100 104 644 95 96 645 94 95 646 100 104 647 101 105 648 100 104 649 106 106 650 96 108 651 102 112 652 103 109 653 97 101 654 103 109 655 104 110 656 98 102 657 104 110 658 105 111 659 99 103 660 105 111 661 106 106 662 102 112 663 108 119 664 109 113 665 103 109 666 109 113 667 110 114 668 104 110 669 110 114 670 111 115 671 105 111 672 111 115 673 112 116 674 106 106 675 112 116 676 113 117 677 112 116 678 118 123 679 119 118 680 108 119 681 114 128 682 115 120 683 109 113 684 115 120 685 116 121 686 110 114 687 116 121 688 117 122 689 111 115 690 117 122 691 118 123 692 115 120 693 121 129 694 122 124 695 116 121 696 122 124 697 123 125 698 117 122 699 123 125 700 124 126 701 119 118 702 118 123 703 124 126 704 114 128 705 120 130 706 121 129 707 120 130 708 126 136 709 127 131 710 121 129 711 127 131 712 128 132 713 122 124 714 128 132 715 129 133 716 123 125 717 129 133 718 130 134 719 125 127 720 124 126 721 130 134 722 126 136 723 132 193 724 133 137 725 133 137 726 132 193 727 134 138 728 135 139 729 134 138 730 136 140 731 137 141 732 136 140 733 138 142 734 142 144 735 141 153 736 147 145 737 142 144 738 148 146 739 149 147 740 139 143 741 138 142 742 144 149 743 140 151 744 139 143 745 145 150 746 141 153 747 140 151 748 146 152 749 145 150 750 144 149 751 150 154 752 146 152 753 145 150 754 151 155 755 147 145 756 146 152 757 152 157 758 148 146 759 147 145 760 153 158 761 149 147 762 148 146 763 154 159 764 154 159 765 153 158 766 159 161 767 155 160 768 154 159 769 160 162 770 151 155 771 150 154 772 156 164 773 152 156 774 151 155 775 157 165 776 153 158 777 152 157 778 158 167 779 157 165 780 156 164 781 162 168 782 158 166 783 157 165 784 163 169 785 159 161 786 158 167 787 164 171 788 160 162 789 159 161 790 165 172 791 161 163 792 160 162 793 166 173 794 167 174 795 166 173 796 4 2 797 163 169 798 162 168 799 0 5 800 164 170 801 163 169 802 1 7 803 165 172 804 164 171 805 2 10 806 166 173 807 165 172 808 3 0 809 29 27 810 35 38 811 173 175 812 17 15 813 23 25 814 171 177 815 131 135 816 184 194 817 183 179 818 23 25 819 29 27 820 172 176 821 11 3 822 17 15 823 170 178 824 167 174 825 182 187 826 181 181 827 5 4 828 11 3 829 169 180 830 155 160 831 180 184 832 179 183 833 161 163 834 181 181 835 180 184 836 47 56 837 53 55 838 176 185 839 5 4 840 168 182 841 182 187 842 149 147 843 179 183 844 178 188 845 53 55 846 59 61 847 175 189 848 125 127 849 183 179 850 174 190 851</p>
        </triangles>
      </mesh>
    </geometry>
  </library_geometries>
  <library_visual_scenes>
    <visual_scene id="Scene" name="Scene">
      <node id="a-hair_lib_04" name="a-hair_lib_04" type="NODE">
        <matrix sid="transform">1 0 0 0 0 1 0 0 0 0 1 0 0 0 0 1</matrix>
        <instance_geometry url="#Esfera_013-mesh" name="a-hair_lib_04">
          <bind_material>
            <technique_common>
              <instance_material symbol="A-textura_libios_General-material" target="#A-textura_libios_General-material">
                <bind_vertex_input semantic="MapaUV" input_semantic="TEXCOORD" input_set="0"/>
              </instance_material>
            </technique_common>
          </bind_material>
        </instance_geometry>
      </node>
    </visual_scene>
  </library_visual_scenes>
  <scene>
    <instance_visual_scene url="#Scene"/>
  </scene>
</COLLADA>