<?xml version="1.0" encoding="utf-8"?>
<COLLADA xmlns="http://www.collada.org/2005/11/COLLADASchema" version="1.4.1" xmlns:xsi="http://www.w3.org/2001/XMLSchema-instance">
  <asset>
    <contributor>
      <author>Blender User</author>
      <authoring_tool>Blender 4.3.1 commit date:2024-12-10, commit time:07:46, hash:33d812126174</authoring_tool>
    </contributor>
    <created>2026-09-22T21:16:42</created>
    <modified>2026-09-22T21:16:42</modified>
    <unit name="meter" meter="1"/>
    <up_axis>Z_UP</up_axis>
  </asset>
  <library_effects>
    <effect id="A-textura_auxiliar_libi_cyrene_General-effect">
      <profile_COMMON>
        <technique sid="common">
          <lambert>
            <emission>
              <color sid="emission">0 0 0 1</color>
            </emission>
            <diffuse>
              <color sid="diffuse">0.8 0.8 0.8 1</color>
            </diffuse>
            <index_of_refraction>
              <float sid="ior">1.45</float>
            </index_of_refraction>
          </lambert>
        </technique>
      </profile_COMMON>
    </effect>
  </library_effects>
  <library_images/>
  <library_materials>
    <material id="A-textura_auxiliar_libi_cyrene_General-material" name="A-textura auxiliar libi cyrene General">
      <instance_effect url="#A-textura_auxiliar_libi_cyrene_General-effect"/>
    </material>
  </library_materials>
  <library_geometries>
    <geometry id="Cubo_144-mesh" name="Cubo.144">
      <mesh>
        <source id="Cubo_144-mesh-positions">
          <float_array id="Cubo_144-mesh-positions-array" count="831">0.05973112 0.3307256 0.08431768 0.05973112 0.2117869 0.09474831 0.006756305 -0.400937 0.30607 0.006756305 -0.3742486 0.319065 -0.05966413 0.3307256 0.08431768 -0.05966413 0.2117869 0.09474831 -0.00669068 -0.400937 0.30607 -0.00669068 -0.3742486 0.319065 0.05973112 0.3396556 0.2998558 0.05973112 0.2003527 0.2539225 -0.05966413 0.3396556 0.2998558 -0.05966413 0.2003527 0.2539225 0.05973112 -0.008217096 0.4791447 -0.05966413 -0.008217096 0.627637 0.05973112 -0.008217096 0.627637 -0.05966413 -0.008217096 0.4791447 0.05973112 0.2602173 0.5130221 -0.05966413 0.1656256 0.4262008 0.05973112 0.1656256 0.4262008 -0.05966413 0.2602173 0.5130221 0.05973112 -0.2681336 0.371839 -0.05966413 -0.3186888 0.4868892 0.05973112 -0.3186888 0.4868892 -0.05966413 -0.2681336 0.371839 0.05973112 0.3682514 -0.02761656 0.05973112 0.2762855 -0.04544991 -0.05966413 0.2762855 -0.04544991 -0.05966413 0.3682514 -0.02761656 0.05973112 -0.239877 0.5640249 -0.05966413 -0.2208066 0.4302834 0.05973112 -0.2208066 0.4302834 -0.05966413 -0.239877 0.5640249 0.0199663 0.4609475 -0.131553 0.0199663 0.4302403 -0.1375075 -0.0198993 0.4302403 -0.1375075 -0.0198993 0.4609475 -0.131553 3.27903e-5 -0.400937 0.30607 3.34979e-5 0.3307256 0.08431768 3.34979e-5 0.3396556 0.2998558 3.34979e-5 -0.008217096 0.627637 3.34979e-5 0.2602173 0.5130221 3.34979e-5 -0.3186888 0.4868892 3.34979e-5 0.3682514 -0.02761656 3.34979e-5 -0.239877 0.5640249 3.34979e-5 0.4609475 -0.131553 -0.1932669 -0.0918942 0.01443302 -0.1932669 -0.0918942 0.09440737 -0.1931142 -0.01130121 0.01443302 -0.1931142 -0.01130121 0.09440737 -0.1631227 -0.09195137 0.01443302 -0.1631227 -0.09195137 0.09440737 -0.1629699 -0.01135838 0.01443302 -0.1629699 -0.01135838 0.09440737 -0.1931906 -0.05159771 -0.001814782 -0.1931906 -0.05159771 0.1106553 -0.1630462 -0.05165487 -0.001814782 -0.1630462 -0.05165487 0.1106553 -0.193299 -0.1088104 0.05442023 -0.1930822 0.005614876 0.05442023 -0.1629378 0.005557775 0.05442023 -0.1631547 -0.1088675 0.05442023 -0.1931906 -0.05159771 -0.02753227 -0.1933013 -0.1100013 -0.003983438 -0.1933481 -0.1347084 0.05442023 -0.1933013 -0.1100013 0.112824 -0.1931906 -0.05159771 0.1363728 -0.1930799 0.006805837 0.112824 -0.193033 0.03151297 0.05442023 -0.1930799 0.006805837 -0.003983438 -0.1628887 0.03145581 0.05442023 -0.1629356 0.006748735 -0.003983438 -0.1630462 -0.05165487 -0.02753227 -0.1630462 -0.05165487 0.1363728 -0.163157 -0.1100585 0.112824 -0.1632038 -0.1347656 0.05442023 -0.163157 -0.1100585 -0.003983438 -0.1629356 0.006748735 0.112824 0.1673108 -0.0918942 0.01443302 0.1673108 -0.0918942 0.09440737 0.1674636 -0.01130121 0.01443302 0.1674636 -0.01130121 0.09440737 0.1974552 -0.09195137 0.01443302 0.1974552 -0.09195137 0.09440737 0.197608 -0.01135838 0.01443302 0.197608 -0.01135838 0.09440737 0.1673873 -0.05159771 -0.001814782 0.1673873 -0.05159771 0.1106553 0.1975316 -0.05165487 -0.001814782 0.1975316 -0.05165487 0.1106553 0.1672788 -0.1088104 0.05442023 0.1674957 0.005614876 0.05442023 0.1976401 0.005557775 0.05442023 0.1974232 -0.1088675 0.05442023 0.1673873 -0.05159771 -0.02753227 0.1672765 -0.1100013 -0.003983438 0.1672297 -0.1347084 0.05442023 0.1672765 -0.1100013 0.112824 0.1673873 -0.05159771 0.1363728 0.1674979 0.006805837 0.112824 0.1675447 0.03151297 0.05442023 0.1674979 0.006805837 -0.003983438 0.1976891 0.03145581 0.05442023 0.1976423 0.006748735 -0.003983438 0.1975316 -0.05165487 -0.02753227 0.1975316 -0.05165487 0.1363728 0.1974209 -0.1100585 0.112824 0.1973741 -0.1347656 0.05442023 0.1974209 -0.1100585 -0.003983438 0.1976423 0.006748735 0.112824 0.03283405 -0.3918807 0.2953093 0.03283405 -0.3746023 0.3477888 -0.03284949 -0.3913797 0.2951443 -0.03284949 -0.3741014 0.347624 0.03303122 -0.368545 0.2876263 0.03303122 -0.3512666 0.3401058 -0.03265225 -0.3680443 0.2874614 -0.03265225 -0.3507659 0.339941 -7.71245e-6 -0.3708415 0.3583684 1.89481e-4 -0.3475059 0.3506854 0.04662078 -0.3833466 0.3215836 -0.04663622 -0.3826356 0.3213495 -0.04643899 -0.3592999 0.3136666 0.04681795 -0.3600109 0.3139007 0.04759138 -0.3959719 0.2832612 0.0677278 -0.3835074 0.3216366 0.04759138 -0.370736 0.359911 -7.71262e-6 -0.3652852 0.3752444 -0.04760682 -0.3700101 0.359672 -0.06774324 -0.3824746 0.3212966 -0.04760682 -0.3952463 0.2830223 -0.06754601 -0.3591392 0.3136136 -0.04740965 -0.3719106 0.2753393 1.89481e-4 -0.3419498 0.3675613 0.04778861 -0.3474003 0.3522279 0.06792497 -0.3601719 0.3139536 0.04778861 -0.3726365 0.2755782 -0.04740965 -0.3466745 0.351989 0.01582789 -0.3956732 0.2629512 -0.0157411 -0.3954324 0.262872 0.01592266 -0.3844577 0.2592586 -0.01564633 -0.3842169 0.2591793 0.0229206 -0.3976395 0.2571607 -0.02283382 -0.3972908 0.2570458 -0.02273905 -0.3860753 0.2533532 0.02301537 -0.3864239 0.253468 0.1150636 -0.1443747 0.5295615 0.1150636 -0.1443747 0.4659671 0.1150636 -0.2079691 0.5295615 0.1150636 -0.2079691 0.4659671 0.0514692 -0.1443747 0.5295615 0.0514692 -0.1443747 0.4659671 0.0514692 -0.2079691 0.5295615 0.0514692 -0.2079691 0.4659671 0.1150636 0.09162485 0.5484347 0.1150636 0.09162485 0.4848403 0.1150636 0.02803045 0.5484347 0.1150636 0.02803045 0.4848403 0.0514692 0.09162485 0.5484347 0.0514692 0.09162485 0.4848403 0.0514692 0.02803045 0.5484347 0.0514692 0.02803045 0.4848403 0.1150636 0.2395451 0.3993172 0.1150636 0.2395451 0.3357228 0.1150636 0.1759508 0.3993172 0.1150636 0.1759508 0.3357228 0.0514692 0.2395451 0.3993172 0.0514692 0.2395451 0.3357228 0.0514692 0.1759508 0.3993172 0.0514692 0.1759508 0.3357228 0.03283405 0.38421 -0.1632782 0.03283405 0.3821144 -0.1080671 -0.03284949 0.384737 -0.1632581 -0.03284949 0.3826411 -0.1080471 0.03303122 0.4087601 -0.1623462 0.03303122 0.4066645 -0.1071351 -0.03265225 0.409287 -0.1623262 -0.03265225 0.4071912 -0.1071152 -7.71192e-6 0.3819518 -0.09684014 1.89481e-4 0.4065019 -0.09590828 0.04662078 0.3830516 -0.1356768 -0.04663622 0.3837997 -0.1356484 -0.04643899 0.4083497 -0.1347165 0.04681795 0.4076017 -0.1347448 0.04759138 0.3845744 -0.1759967 0.0677278 0.3828824 -0.1356832 0.04759138 0.3815132 -0.09535747 -7.71204e-6 0.381278 -0.07908588 -0.04760682 0.382277 -0.0953285 -0.06774324 0.383969 -0.1356419 -0.04760682 0.3853378 -0.1759676 -0.06754601 0.408519 -0.1347101 -0.04740965 0.4098879 -0.1750358 1.89481e-4 0.4058281 -0.07815402 0.04778861 0.4060633 -0.09442561 0.06792497 0.4074324 -0.1347513 0.04778861 0.4091244 -0.1750648 -0.04740965 0.406827 -0.09439665 0.01582789 0.391933 -0.194929 -0.0157411 0.3921864 -0.1949194 0.01592266 0.4037325 -0.1944811 -0.01564633 0.4039856 -0.1944715 0.0229206 0.3921082 -0.2010418 -0.02283382 0.3924752 -0.2010279 -0.02273905 0.4042745 -0.20058 0.02301537 0.4039076 -0.2005939 -0.04965782 -0.1443747 0.5295615 -0.04965782 -0.1443747 0.4659671 -0.04965782 -0.2079691 0.5295615 -0.04965782 -0.2079691 0.4659671 -0.1132522 -0.1443747 0.5295615 -0.1132522 -0.1443747 0.4659671 -0.1132522 -0.2079691 0.5295615 -0.1132522 -0.2079691 0.4659671 -0.04965782 0.09162485 0.5484347 -0.04965782 0.09162485 0.4848403 -0.04965782 0.02803045 0.5484347 -0.04965782 0.02803045 0.4848403 -0.1132522 0.09162485 0.5484347 -0.1132522 0.09162485 0.4848403 -0.1132522 0.02803045 0.5484347 -0.1132522 0.02803045 0.4848403 -0.04965782 0.2395451 0.3993172 -0.04965782 0.2395451 0.3357228 -0.04965782 0.1759508 0.3993172 -0.04965782 0.1759508 0.3357228 -0.1132522 0.2395451 0.3993172 -0.1132522 0.2395451 0.3357228 -0.1132522 0.1759508 0.3993172 -0.1132522 0.1759508 0.3357228 0.02376925 -0.2815201 0.03371751 0.02376925 -0.2742445 0.08000242 -0.02344501 -0.2811457 0.03365868 -0.02344501 -0.27387 0.07994353 0.02391099 -0.2640748 0.0309751 0.02391099 -0.256799 0.07726007 -0.02330327 -0.2637003 0.03091633 -0.02330327 -0.2564246 0.07720124 1.62111e-4 -0.2828111 0.0242846 1.62111e-4 -0.272579 0.08937644 3.03861e-4 -0.2653658 0.02154231 3.03861e-4 -0.2551337 0.08663403 0.03367936 -0.2779608 0.0568723 -0.03335511 -0.2774294 0.05678874 -0.03321337 -0.2599839 0.05404639 0.0338211 -0.2605153 0.05413001 1.62111e-4 -0.2851508 0.009400725 0.03437703 -0.2832797 0.02307218 0.04885137 -0.2780812 0.05689126 0.03437703 -0.2726529 0.09067422 1.62111e-4 -0.2702394 0.1042603 -0.03405284 -0.2721103 0.09058886 -0.04852718 -0.277309 0.05676984 -0.03405284 -0.2827373 0.02298688 -0.04838538 -0.2598635 0.05402749 -0.0339111 -0.2652918 0.02024453 3.03861e-4 -0.2677054 0.006658434 3.03861e-4 -0.2527939 0.101518 0.03451877 -0.2552075 0.08793181 0.04899311 -0.2606357 0.05414885 0.03451877 -0.2658345 0.02032983 -0.0339111 -0.2546651 0.08784651 0.1150636 0.2817454 0.1695582 0.1150636 0.2817454 0.1059639 0.1150636 0.2181511 0.1695582 0.1150636 0.2181511 0.1059639 0.0514692 0.2817454 0.1695582 0.0514692 0.2817454 0.1059639 0.0514692 0.2181511 0.1695582 0.0514692 0.2181511 0.1059639 -0.04965782 0.2817454 0.1695582 -0.04965782 0.2817454 0.1059639 -0.04965782 0.2181511 0.1695582 -0.04965782 0.2181511 0.1059639 -0.1132522 0.2817454 0.1695582 -0.1132522 0.2817454 0.1059639 -0.1132522 0.2181511 0.1695582 -0.1132522 0.2181511 0.1059639</float_array>
          <technique_common>
            <accessor source="#Cubo_144-mesh-positions-array" count="277" stride="3">
              <param name="X" type="float"/>
              <param name="Y" type="float"/>
              <param name="Z" type="float"/>
            </accessor>
          </technique_common>
        </source>
        <source id="Cubo_144-mesh-normals">
          <float_array id="Cubo_144-mesh-normals-array" count="867">-0.6782302 0.6343507 -0.3709489 -0.9493806 -0.03703373 0.3119376 -0.3833655 0.877874 -0.2869988 1 0 0 0.9137911 -0.4053436 0.02612131 0.6651948 -0.7374094 -0.1172323 0 -0.9900713 -0.1405666 0 -0.9875982 -0.1570025 0.628205 -0.5628871 -0.5371375 0 -0.7234657 -0.6903604 1 0 0 -0.7503337 -0.6544954 -0.09292507 -1 0 0 -0.6651942 -0.737411 -0.1172258 0.6548148 0.3764048 -0.6553908 1 0 0 0.6399127 -0.05204033 -0.7666835 4.68421e-7 0.264791 -0.9643059 0 0.4980255 -0.8671625 -0.6282016 -0.5628969 -0.5371313 -1 0 0 -0.6399147 -0.0520488 -0.7666813 -1 0 0 7.45359e-7 -0.3926787 -0.9196758 0.3833662 0.877873 -0.2870008 0 0.8187787 -0.5741094 0 0.9102572 -0.4140433 0.9493829 -0.0370326 0.3119307 0.6782341 0.6343478 -0.3709467 -1 0 0 -0.6548115 0.3764013 -0.6553961 0 -0.8648796 -0.5019795 0 -0.7463098 -0.6655989 0 -0.7463098 -0.6655988 1 0 0 0.9819974 -0.03595924 0.1854405 -1 0 0 -0.9819974 -0.03595918 0.1854405 -0.9955791 -0.01788055 0.09220969 0 -0.9310659 -0.3648514 1 0 0 -0.9489901 -0.06002336 0.30954 -0.94899 -0.06002324 0.3095404 0.996613 -0.01196169 0.08136045 0.9489902 -0.0600236 0.3095395 0 -0.8747121 -0.4846431 0 -0.7463097 -0.6655989 -0.6275721 0.7785585 0 0.6311379 0.5432041 0.5537095 0.6305049 0.7761853 0 -0.9278883 0.3436613 -0.1446385 0.8072785 0.5901708 -1.58459e-7 -0.8050419 0.5932181 -2.31595e-7 0.6275728 -0.7785579 0 -0.6311377 -0.543204 0.5537099 -0.630505 -0.7761853 0 -0.6318181 0.001203298 0.7751158 0.6290736 -0.5456016 0.5537016 0.6318183 -0.001203179 0.7751157 -0.6290738 0.5456014 0.5537015 -0.8036478 0.4179993 0.4235881 0.8052268 0.414946 0.4235916 -0.8017103 0.001521527 0.5977109 0.8017105 -0.001522302 0.5977107 -0.8052268 -0.414946 0.4235912 0.8036476 -0.4179995 0.4235882 -0.8072787 -0.5901704 -1.46535e-7 -0.8328158 -0.5095686 -0.2162352 0.830868 -0.5127359 -0.2162412 0.9278883 -0.343661 -0.144639 0.8050417 -0.5932182 -1.82838e-7 0.832816 0.5095686 -0.216235 -0.8308684 0.5127354 -0.2162411 -0.9999982 0.001895189 0 -0.9291872 -0.3401348 -0.1446353 0.9999983 -0.001895606 -1.67988e-7 0.9291873 0.3401347 -0.1446356 -0.9999982 0.001894891 0 0.9999982 -0.001895666 0 -0.6275728 0.778558 0 0.6311369 0.5432047 0.5537103 0.630505 0.7761852 0 -0.9278881 0.3436616 -0.1446385 0.8072779 0.5901716 -2.49877e-7 -0.805042 0.5932179 -2.07217e-7 0.6275731 -0.7785577 0 -0.6311379 -0.5432037 0.5537099 -0.6318179 0.001203298 0.775116 0.6290738 -0.545601 0.553702 0.631818 -0.00120306 0.7751159 -0.6290738 0.5456012 0.5537018 -0.8036477 0.4179998 0.4235877 0.8052269 0.4149467 0.4235905 -0.8017103 0.001522004 0.597711 0.8017103 -0.001522064 0.597711 -0.8052265 -0.4149466 0.4235915 0.8036492 -0.4179984 0.4235864 -0.8072785 -0.5901709 0 -0.8328161 -0.5095682 -0.2162354 0.8308682 -0.5127353 -0.2162419 0.9278892 -0.3436598 -0.1446364 0.8050411 -0.5932192 -1.70649e-7 0.8328146 0.50957 -0.216237 -0.8308683 0.5127354 -0.2162414 -0.9999982 0.001895546 0 -0.929187 -0.3401353 -0.1446357 0.9999983 -0.00189507 4.79555e-7 0.9291869 0.3401357 -0.144635 -0.9999982 0.001895487 0 0.9999982 -0.001895487 0 -0.3985417 -0.900179 -0.17562 0.006320595 0.5554334 -0.8315371 -0.3856508 0.6257563 -0.6780138 -0.7902966 -0.5819934 0.1916117 -0.5057329 0.7857179 0.3562046 -0.7224904 0.674913 -0.1500006 -0.6238103 -0.7423769 0.2444124 0.515861 0.7779284 0.3587688 0.7803597 -0.593968 0.1955529 0.7902957 0.5819944 -0.1916131 0.005145668 0.8488979 0.5285319 0.5057383 -0.4204264 0.7533063 -0.5158644 -0.4126399 0.7507412 -0.4692943 0.8162615 -0.3368681 -0.8974248 0.1386007 0.4188299 0.6238093 0.742377 -0.2444145 0.888798 0.1365275 0.4374909 0.8887984 0.1365278 0.4374902 0.8202913 -0.1851062 -0.5411636 0.8202947 -0.1851047 -0.5411589 0.3985497 0.6197744 -0.6760458 0.5619178 -0.7857051 0.2586815 -0.7990617 -0.1856272 -0.5718768 -0.8947294 -0.1328265 -0.4263995 -0.8329473 -0.1631216 -0.5287628 0.3856467 -0.9061574 -0.1736527 -0.005145549 -0.36885 0.9294747 0.04744416 -0.9668775 0.2507928 0.04172027 -0.9654673 0.2571621 -0.009167969 0.9563573 -0.2920562 -0.05413997 0.923438 -0.3799093 -0.04170721 0.9294024 -0.3667039 -0.00632447 -0.9407978 -0.3389094 0.008117675 -0.9432289 0.3320443 0.8918141 -0.4507929 -0.03812384 0.8344092 0.4371849 -0.3356049 0.01593327 0.2277063 -0.9735996 -0.8259543 0.4498427 -0.339766 -0.08667635 -0.9708637 0.2234075 -0.7490828 -0.6536714 -0.1076511 0.007567167 -0.7617335 -0.6478465 -0.7153764 -0.2130519 -0.6654664 0.1081952 -0.9776748 0.1801273 -0.8895316 0.1496388 0.4316732 -0.8819413 0.1541114 0.445454 -0.8867754 0.1520278 0.4364826 0.08672755 0.913375 -0.3977743 -0.007577776 0.2278744 -0.9736611 0.1527569 -0.8067458 -0.5708123 -0.7071268 -0.7070868 0 -0.5773721 0.5773394 -0.5773394 -0.5773285 -0.5773612 -0.5773611 -0.7070868 0.7071269 0 0.5773285 0.5773612 -0.5773611 0.7071268 0.7070868 0 0.5773721 -0.5773394 -0.5773394 0.7070868 -0.7071269 0 -0.7071269 -0.7070868 0 -0.5773721 0.5773394 -0.5773394 -0.5773285 -0.5773611 -0.5773612 -0.7070868 0.7071268 0 0.5773285 0.5773611 -0.5773612 0.7071269 0.7070868 0 0.5773721 -0.5773394 -0.5773394 0.7070868 -0.7071268 0 -0.5773285 -0.5773612 -0.5773612 0.5773285 0.5773612 -0.5773612 -0.3856394 0.8228331 -0.4174064 -0.006319522 -0.763681 -0.6455628 0.006320774 0.8104217 -0.585813 -0.5158625 -0.6484161 0.5598594 -0.780357 0.6248845 0.02371555 -0.7902959 -0.6122847 -0.02323627 -0.3985503 -0.7825217 -0.478349 -0.5619182 0.8265978 0.03137248 -0.6238144 -0.7810103 -0.02964091 0.7902948 0.6122862 0.02323997 0.5057326 -0.6566133 0.5595477 0.7224881 -0.6900796 0.04243886 -0.005144834 -0.6696864 0.7426263 0.5158672 0.6041085 0.6073994 0.005144774 0.6114513 0.7912654 -0.5057383 0.6123076 0.6077073 -0.8887976 -0.01025485 0.4581855 0.8866711 -0.02511912 0.4617179 0.894729 -0.02411466 0.4459581 0.8896729 -0.02431571 0.4559506 0.7980772 0.01652067 -0.6023287 0.8947289 0.009762048 -0.4465031 0.8334908 0.01354008 -0.5523675 0.6238133 0.7810112 0.02963858 0.3856477 -0.788817 -0.4785851 0.4692969 -0.8775788 -0.09806144 -0.8202919 0.0282706 -0.5712462 -0.8202962 0.02827054 -0.5712399 0.3985413 0.8165366 -0.4176519 0.0473386 -0.9936639 -0.1019369 0.04171377 -0.9945592 -0.09545642 -0.008642792 0.9983215 0.05726724 -0.04740279 0.9985272 -0.02639049 -0.04171609 0.9989336 -0.01978456 0.00877124 -0.9997916 -0.018435 0.8819447 -0.02495098 0.4706922 -0.1081904 0.9893682 -0.09718793 -0.08657747 -0.9878839 -0.1288015 -0.8344113 -0.5129289 -0.2016475 0.007573008 -0.4881885 -0.8727055 -0.007565677 0.5529354 -0.8331899 -0.01593488 -0.4879947 -0.8727012 0.1081916 -0.9791526 -0.1719151 0.7153733 0.02076596 -0.6984339 -0.8887974 -0.0102548 0.4581857 -0.8918132 0.4226796 -0.1612797 0.08655595 0.9948131 -0.05343383 0.7490864 0.5984272 -0.2841734 0.8918118 -0.409232 -0.1928757 -0.1527518 0.6174837 -0.7716093 -0.5773285 -0.5773611 -0.5773612 0.5773285 0.5773611 -0.5773612 -0.4229095 -0.8571354 -0.2940522 0.006436645 0.6991401 -0.7149558 -0.4100113 0.7321742 -0.5438857 -0.7824156 -0.615203 0.09670215 -0.5393257 0.7127435 0.4484691 -0.7723134 0.6275369 -0.09863942 -0.5981576 -0.7916576 0.1244423 0.5494363 0.7041152 0.449824 0.7723137 -0.6275363 0.09864044 0.7824144 0.6152045 -0.09670227 -0.005071699 -0.7445263 -0.6675738 0.5494499 0.5321393 -0.6441527 0.5393255 -0.712743 -0.44847 0.005071043 0.7445269 0.6675733 0.5393356 -0.5407714 0.6455102 -0.54945 -0.5321378 0.6441538 -0.5393356 0.5407723 -0.6455096 -0.5494354 -0.7041151 -0.4498254 -0.5852136 0.8010426 -0.1259205 -0.422918 -0.7255752 0.5428453 -0.4099987 0.8637384 0.2930138 -0.006436347 -0.6991412 0.7149547 0.4229084 0.8571357 0.2940527 0.006437003 0.8847832 0.4659586 0.5981585 0.7916568 -0.1244424 0.4100148 -0.7321728 0.5438851 0.4229136 0.7255775 -0.5428456 0.5852113 -0.8010444 0.1259203 0.4099994 -0.8637377 -0.293015 -0.005072414 -0.5037859 0.8638137 0.005071103 0.5037857 -0.8638138 -0.006436586 -0.8847827 -0.4659594 -0.5773721 0.5773394 -0.5773394 -0.5773285 -0.5773612 -0.5773612 0.5773285 0.5773612 -0.5773612 -0.9685867 0.2276661 0.1000408 0.9685882 0.2276608 0.1000384 0 -0.8747135 -0.4846403 0.9154345 -0.1923209 0.3535423 0.94899 -0.0600233 0.3095404 0 -0.7463098 -0.6655988 -0.8947289 0.1464684 0.4219091 -0.9145568 -0.03802549 -0.4026661 0.008030951 0.9498133 -0.3127145 0.05771958 0.9286437 -0.3664555 -0.008018553 -0.9498142 0.312712 -0.05770868 -0.964712 0.2569057 -0.6643412 -0.2958348 -0.6863909 0.1232319 -0.9790934 0.1618337 -0.8789068 0.1625378 0.4484466 0.900089 -0.01955384 0.4352672 0.9422747 -0.05527603 -0.3302469 0.008024454 0.9992483 0.03792947 0.05771458 0.9981364 -0.01982086 -0.008018493 -0.9992483 -0.03793114 -0.05770957 -0.9937618 -0.09543073 0.8759351 -0.02961277 0.4815194 -0.1225833 0.9858981 -0.1139228 0.122614 -0.9743525 -0.1886876 0.6139914 0.08057332 -0.7851895</float_array>
          <technique_common>
            <accessor source="#Cubo_144-mesh-normals-array" count="289" stride="3">
              <param name="X" type="float"/>
              <param name="Y" type="float"/>
              <param name="Z" type="float"/>
            </accessor>
          </technique_common>
        </source>
        <source id="Cubo_144-mesh-map-0">
          <float_array id="Cubo_144-mesh-map-0-array" count="2736">0.5063417 0.4440068 0.5173102 0.4449482 0.5063417 0.4449482 0.504733 0.4511073 0.4933917 0.4699344 0.5047494 0.4699295 0.5063417 0.4725875 0.5008574 0.4890246 0.5008574 0.4725875 0.5063417 0.4560132 0.5008574 0.4725875 0.5008574 0.4560132 0.5162144 0.4511023 0.5047494 0.4699295 0.5162166 0.4699245 0.4933887 0.4698144 0.5047804 0.4509971 0.5047641 0.4698194 0.52477 0.4699032 0.5084268 0.4510973 0.5086719 0.4699196 0.5063417 0.4457885 0.5008574 0.4685163 0.5008574 0.4457884 0.5162187 0.4698243 0.5276181 0.4510071 0.527661 0.4698293 0.5047641 0.4698194 0.5162211 0.4510021 0.5162187 0.4698243 0.5277416 0.4510973 0.5162166 0.4699245 0.5276989 0.4699196 0.5063417 0.4394392 0.5008574 0.4560132 0.5008574 0.4394392 0.5063417 0.4336895 0.5008574 0.4507606 0.5008574 0.4336895 0.5173102 0.4559167 0.5063417 0.4568581 0.5063417 0.4559167 0.5252336 0.4510235 0.5301882 0.469851 0.5249879 0.4698457 0.5008574 0.4890246 0.5063417 0.4890246 0.5008574 0.4890246 0.4933948 0.4511122 0.4933917 0.4699344 0.4933917 0.4699344 0.4933854 0.4509922 0.4933887 0.4698144 0.4933854 0.4509922 0.5063417 0.4890246 0.5008574 0.4890246 0.5008574 0.4890246 0.5091358 0.4510071 0.5249879 0.4698457 0.5088902 0.4698293 0.5063417 0.4384465 0.5008574 0.4457884 0.5008574 0.4384465 0.5299698 0.4698979 0.5245241 0.4510809 0.52477 0.4699032 0.4945477 0.4509922 0.4943022 0.4698144 0.4945477 0.4509922 0.4938383 0.4511122 0.4940837 0.4699344 0.4940837 0.4699344 0.5008574 0.4384465 0.4953731 0.4457883 0.4953731 0.4384465 0.5008574 0.4890246 0.4953731 0.4890246 0.4953731 0.4890246 0.5008574 0.4890246 0.4953731 0.4890246 0.4953731 0.4890246 0.4953731 0.4336895 0.5008574 0.4507606 0.4953731 0.4507606 0.5008574 0.4394392 0.4953731 0.4560132 0.4953731 0.4394392 0.5008574 0.4457884 0.4953731 0.4685162 0.4953731 0.4457883 0.5008574 0.4560132 0.4953731 0.4725875 0.4953731 0.4560132 0.5008574 0.4725875 0.4953731 0.4890246 0.4953731 0.4725875 0.434511 0.4441511 0.4357356 0.4466393 0.434511 0.4466393 0.4352558 0.4421491 0.434511 0.4487399 0.434511 0.4420506 0.434511 0.4491276 0.4357356 0.4516157 0.434511 0.4516157 0.4381847 0.4478834 0.4357356 0.4491276 0.4357356 0.4478834 0.4381847 0.4466393 0.4357356 0.4478834 0.4357356 0.4466393 0.434511 0.4487399 0.4337663 0.4421491 0.434511 0.4420506 0.4337663 0.4486414 0.4336708 0.442907 0.4337663 0.4421491 0.4336708 0.4478834 0.4337663 0.443665 0.4336708 0.442907 0.4337663 0.4471255 0.434511 0.4437634 0.4337663 0.443665 0.434511 0.4491276 0.4332865 0.4516157 0.4332865 0.4491276 0.4352558 0.4471255 0.434511 0.4437634 0.434511 0.447027 0.434511 0.4441511 0.4332865 0.4466393 0.4332865 0.4441511 0.4336708 0.442907 0.4332865 0.4416629 0.4337663 0.4421491 0.4352558 0.4421491 0.434511 0.4416629 0.4357356 0.4416629 0.4353513 0.442907 0.4357356 0.4441511 0.4352558 0.443665 0.4337663 0.443665 0.434511 0.4441511 0.4332865 0.4441511 0.4337663 0.4471255 0.434511 0.4466393 0.434511 0.447027 0.4336708 0.4478834 0.4332865 0.4466393 0.4337663 0.4471255 0.4353513 0.4478834 0.4357356 0.4491276 0.4352558 0.4486414 0.4337663 0.4486414 0.434511 0.4491276 0.4332865 0.4491276 0.4336708 0.442907 0.4332865 0.4441511 0.4332865 0.442907 0.4353513 0.442907 0.4357356 0.4416629 0.4357356 0.442907 0.4336708 0.4478834 0.4332865 0.4491276 0.4332865 0.4478834 0.4353513 0.4478834 0.4357356 0.4466393 0.4357356 0.4478834 0.4337663 0.4421491 0.434511 0.4416629 0.434511 0.4420506 0.4352558 0.443665 0.434511 0.4441511 0.434511 0.4437634 0.4352558 0.4471255 0.434511 0.4466393 0.4357356 0.4466393 0.4352558 0.4486414 0.434511 0.4491276 0.434511 0.4487399 0.434511 0.4441511 0.4357356 0.4466393 0.434511 0.4466393 0.4352558 0.4421491 0.434511 0.4487399 0.434511 0.4420506 0.434511 0.4491276 0.4357356 0.4516157 0.434511 0.4516157 0.4381847 0.4478834 0.4357356 0.4491276 0.4357356 0.4478834 0.4381847 0.4466393 0.4357356 0.4478834 0.4357356 0.4466393 0.434511 0.4487399 0.4337663 0.4421491 0.434511 0.4420506 0.4337663 0.4486414 0.4336708 0.442907 0.4337663 0.4421491 0.4336708 0.4478834 0.4337663 0.443665 0.4336708 0.442907 0.4337663 0.4471255 0.434511 0.4437634 0.4337663 0.443665 0.434511 0.4491276 0.4332865 0.4516157 0.4332865 0.4491276 0.4352558 0.4471255 0.434511 0.4437634 0.434511 0.447027 0.434511 0.4441511 0.4332865 0.4466393 0.4332865 0.4441511 0.4336708 0.442907 0.4332865 0.4416629 0.4337663 0.4421491 0.4352558 0.4421491 0.434511 0.4416629 0.4357356 0.4416629 0.4353513 0.442907 0.4357356 0.4441511 0.4352558 0.443665 0.4337663 0.443665 0.434511 0.4441511 0.4332865 0.4441511 0.4337663 0.4471255 0.434511 0.4466393 0.434511 0.447027 0.4336708 0.4478834 0.4332865 0.4466393 0.4337663 0.4471255 0.4353513 0.4478834 0.4357356 0.4491276 0.4352558 0.4486414 0.4337663 0.4486414 0.434511 0.4491276 0.4332865 0.4491276 0.4336708 0.442907 0.4332865 0.4441511 0.4332865 0.442907 0.4353513 0.442907 0.4357356 0.4416629 0.4357356 0.442907 0.4336708 0.4478834 0.4332865 0.4491276 0.4332865 0.4478834 0.4353513 0.4478834 0.4357356 0.4466393 0.4357356 0.4478834 0.4337663 0.4421491 0.434511 0.4416629 0.434511 0.4420506 0.4352558 0.443665 0.434511 0.4441511 0.434511 0.4437634 0.4352558 0.4471255 0.434511 0.4466393 0.4357356 0.4466393 0.4352558 0.4486414 0.434511 0.4491276 0.434511 0.4487399 0.4352558 0.4421491 0.4353513 0.4478834 0.4352558 0.4486414 0.434511 0.4441511 0.4357356 0.4466393 0.434511 0.4466393 0.4352558 0.4486414 0.434511 0.4420506 0.4352558 0.4421491 0.4357356 0.4491276 0.434511 0.4516157 0.434511 0.4491276 0.4357356 0.4478834 0.4381847 0.4491276 0.4357356 0.4491276 0.4381847 0.4466393 0.4357356 0.4478834 0.4357356 0.4466393 0.434511 0.4487399 0.4337663 0.4421491 0.434511 0.4420506 0.434511 0.447027 0.4337663 0.443665 0.4337663 0.4471255 0.434511 0.4491276 0.4332865 0.4516157 0.4332865 0.4491276 0.4352558 0.4471255 0.434511 0.4437634 0.434511 0.447027 0.4332865 0.4441511 0.434511 0.4466393 0.4332865 0.4466393 0.4353513 0.4478834 0.4352558 0.443665 0.4352558 0.4471255 0.434511 0.4420506 0.4357356 0.4416629 0.4352558 0.4421491 0.4352558 0.443665 0.4357356 0.442907 0.4357356 0.4441511 0.434511 0.4437634 0.4332865 0.4441511 0.4337663 0.443665 0.434511 0.447027 0.4332865 0.4466393 0.434511 0.4466393 0.4352558 0.4486414 0.4357356 0.4478834 0.4357356 0.4491276 0.434511 0.4487399 0.4332865 0.4491276 0.4337663 0.4486414 0.4352558 0.4421491 0.4357356 0.442907 0.4353513 0.442907 0.4352558 0.4471255 0.4357356 0.4478834 0.4353513 0.4478834 0.434511 0.4420506 0.4332865 0.4416629 0.434511 0.4416629 0.434511 0.4437634 0.4357356 0.4441511 0.434511 0.4441511 0.434511 0.447027 0.4357356 0.4466393 0.4352558 0.4471255 0.434511 0.4487399 0.4357356 0.4491276 0.434511 0.4491276 0.4337663 0.4471255 0.4337663 0.443665 0.4337663 0.4471255 0.4337663 0.4486414 0.4332865 0.4491276 0.4337663 0.4486414 0.4332865 0.4416629 0.4337663 0.4421491 0.4332865 0.4416629 0.4332865 0.4466393 0.4332865 0.4441511 0.4332865 0.4441511 0.4332865 0.4441511 0.4337663 0.443665 0.4337663 0.443665 0.4332865 0.4491276 0.4332865 0.4516157 0.4332865 0.4491276 0.4337663 0.4486414 0.4337663 0.4421491 0.4337663 0.4421491 0.4332865 0.4466393 0.4337663 0.4471255 0.4332865 0.4466393 0.4337663 0.4471255 0.4332865 0.4441511 0.4332865 0.4466393 0.4332865 0.4416629 0.4337663 0.4486414 0.4332865 0.4491276 0.4362761 0.4408154 0.4334571 0.4436344 0.4334571 0.4408154 0.4362761 0.4436344 0.4334571 0.4464535 0.4334571 0.4436344 0.4362761 0.4464535 0.4334571 0.4492725 0.4334571 0.4464535 0.4362761 0.4492725 0.4334571 0.4520915 0.4334571 0.4492725 0.4334571 0.4464535 0.4306381 0.4492725 0.4306381 0.4464535 0.4362761 0.4408154 0.4334571 0.4436344 0.4334571 0.4408154 0.4362761 0.4436344 0.4334571 0.4464535 0.4334571 0.4436344 0.4362761 0.4464535 0.4334571 0.4492725 0.4334571 0.4464535 0.4362761 0.4492725 0.4334571 0.4520915 0.4334571 0.4492725 0.4334571 0.4464535 0.4306381 0.4492725 0.4306381 0.4464535 0.4362761 0.4408154 0.4334571 0.4436344 0.4334571 0.4408154 0.4362761 0.4436344 0.4334571 0.4464535 0.4334571 0.4436344 0.4362761 0.4464535 0.4334571 0.4492725 0.4334571 0.4464535 0.4362761 0.4492725 0.4334571 0.4520915 0.4334571 0.4492725 0.4334571 0.4464535 0.4306381 0.4492725 0.4306381 0.4464535 0.4352558 0.4486414 0.4353513 0.442907 0.4353513 0.4478834 0.4357356 0.4441511 0.434511 0.4466393 0.434511 0.4441511 0.4352558 0.4421491 0.434511 0.4487399 0.434511 0.4420506 0.434511 0.4491276 0.4357356 0.4516157 0.434511 0.4516157 0.4381847 0.4478834 0.4357356 0.4491276 0.4357356 0.4478834 0.4357356 0.4466393 0.4381847 0.4478834 0.4357356 0.4478834 0.4337663 0.4486414 0.434511 0.4420506 0.434511 0.4487399 0.4337663 0.4471255 0.434511 0.4437634 0.4337663 0.443665 0.4332865 0.4491276 0.434511 0.4516157 0.4332865 0.4516157 0.434511 0.447027 0.4352558 0.443665 0.434511 0.4437634 0.434511 0.4441511 0.4332865 0.4466393 0.4332865 0.4441511 0.4352558 0.4471255 0.4353513 0.442907 0.4352558 0.443665 0.434511 0.4420506 0.4357356 0.4416629 0.4352558 0.4421491 0.4352558 0.443665 0.4357356 0.442907 0.4357356 0.4441511 0.434511 0.4437634 0.4332865 0.4441511 0.4337663 0.443665 0.434511 0.447027 0.4332865 0.4466393 0.434511 0.4466393 0.4352558 0.4486414 0.4357356 0.4478834 0.4357356 0.4491276 0.434511 0.4487399 0.4332865 0.4491276 0.4337663 0.4486414 0.4352558 0.4421491 0.4357356 0.442907 0.4353513 0.442907 0.4352558 0.4471255 0.4357356 0.4478834 0.4353513 0.4478834 0.434511 0.4420506 0.4332865 0.4416629 0.434511 0.4416629 0.434511 0.4437634 0.4357356 0.4441511 0.434511 0.4441511 0.434511 0.447027 0.4357356 0.4466393 0.4352558 0.4471255 0.434511 0.4487399 0.4357356 0.4491276 0.434511 0.4491276 0.4337663 0.443665 0.4337663 0.4471255 0.4337663 0.4471255 0.4332865 0.4491276 0.4337663 0.4486414 0.4337663 0.4486414 0.4332865 0.4416629 0.4337663 0.4421491 0.4332865 0.4416629 0.4332865 0.4441511 0.4332865 0.4466393 0.4332865 0.4441511 0.4332865 0.4441511 0.4337663 0.443665 0.4337663 0.443665 0.4332865 0.4516157 0.4332865 0.4491276 0.4332865 0.4491276 0.4337663 0.4421491 0.4337663 0.4486414 0.4337663 0.4421491 0.4332865 0.4466393 0.4337663 0.4471255 0.4332865 0.4466393 0.4332865 0.4466393 0.4337663 0.443665 0.4332865 0.4441511 0.4332865 0.4491276 0.4337663 0.4421491 0.4337663 0.4486414 0.4362761 0.4408154 0.4334571 0.4436344 0.4334571 0.4408154 0.4362761 0.4436344 0.4334571 0.4464535 0.4334571 0.4436344 0.4362761 0.4464535 0.4334571 0.4492725 0.4334571 0.4464535 0.4362761 0.4492725 0.4334571 0.4520915 0.4334571 0.4492725 0.4334571 0.4464535 0.4306381 0.4492725 0.4306381 0.4464535 0.4362761 0.4408154 0.4334571 0.4436344 0.4334571 0.4408154 0.4362761 0.4436344 0.4334571 0.4464535 0.4334571 0.4436344 0.4362761 0.4464535 0.4334571 0.4492725 0.4334571 0.4464535 0.4362761 0.4492725 0.4334571 0.4520915 0.4334571 0.4492725 0.4334571 0.4464535 0.4306381 0.4492725 0.4306381 0.4464535 0.4362761 0.4408154 0.4334571 0.4436344 0.4334571 0.4408154 0.4362761 0.4436344 0.4334571 0.4464535 0.4334571 0.4436344 0.4362761 0.4464535 0.4334571 0.4492725 0.4334571 0.4464535 0.4362761 0.4492725 0.4334571 0.4520915 0.4334571 0.4492725 0.4334571 0.4464535 0.4306381 0.4492725 0.4306381 0.4464535 0.4352558 0.4421491 0.4353513 0.4478834 0.4352558 0.4486414 0.434511 0.4441511 0.4357356 0.4466393 0.434511 0.4466393 0.4352558 0.4486414 0.434511 0.4420506 0.4352558 0.4421491 0.4357356 0.4491276 0.434511 0.4516157 0.434511 0.4491276 0.4308374 0.4478834 0.4332865 0.4491276 0.4308374 0.4491276 0.4357356 0.4478834 0.4381847 0.4491276 0.4357356 0.4491276 0.4381847 0.4466393 0.4357356 0.4478834 0.4357356 0.4466393 0.4332865 0.4466393 0.4308374 0.4478834 0.4308374 0.4466393 0.434511 0.4487399 0.4337663 0.4421491 0.434511 0.4420506 0.4337663 0.4486414 0.4336708 0.442907 0.4337663 0.4421491 0.4337663 0.4471255 0.4336708 0.442907 0.4336708 0.4478834 0.434511 0.447027 0.4337663 0.443665 0.4337663 0.4471255 0.434511 0.4491276 0.4332865 0.4516157 0.4332865 0.4491276 0.4352558 0.4471255 0.434511 0.4437634 0.434511 0.447027 0.4332865 0.4441511 0.434511 0.4466393 0.4332865 0.4466393 0.4353513 0.4478834 0.4352558 0.443665 0.4352558 0.4471255 0.4337663 0.4421491 0.4332865 0.442907 0.4332865 0.4416629 0.434511 0.4420506 0.4357356 0.4416629 0.4352558 0.4421491 0.4352558 0.443665 0.4357356 0.442907 0.4357356 0.4441511 0.434511 0.4437634 0.4332865 0.4441511 0.4337663 0.443665 0.434511 0.447027 0.4332865 0.4466393 0.434511 0.4466393 0.4337663 0.4471255 0.4332865 0.4478834 0.4332865 0.4466393 0.4352558 0.4486414 0.4357356 0.4478834 0.4357356 0.4491276 0.434511 0.4487399 0.4332865 0.4491276 0.4337663 0.4486414 0.4337663 0.443665 0.4332865 0.442907 0.4336708 0.442907 0.4352558 0.4421491 0.4357356 0.442907 0.4353513 0.442907 0.4337663 0.4486414 0.4332865 0.4478834 0.4336708 0.4478834 0.4352558 0.4471255 0.4357356 0.4478834 0.4353513 0.4478834 0.434511 0.4420506 0.4332865 0.4416629 0.434511 0.4416629 0.434511 0.4437634 0.4357356 0.4441511 0.434511 0.4441511 0.434511 0.447027 0.4357356 0.4466393 0.4352558 0.4471255 0.434511 0.4487399 0.4357356 0.4491276 0.434511 0.4491276 0.4362761 0.4408154 0.4334571 0.4436344 0.4334571 0.4408154 0.4362761 0.4436344 0.4334571 0.4464535 0.4334571 0.4436344 0.4362761 0.4464535 0.4334571 0.4492725 0.4334571 0.4464535 0.4362761 0.4492725 0.4334571 0.4520915 0.4334571 0.4492725 0.4334571 0.4464535 0.4306381 0.4492725 0.4306381 0.4464535 0.4362761 0.4408154 0.4334571 0.4436344 0.4334571 0.4408154 0.4362761 0.4436344 0.4334571 0.4464535 0.4334571 0.4436344 0.4362761 0.4464535 0.4334571 0.4492725 0.4334571 0.4464535 0.4362761 0.4492725 0.4334571 0.4520915 0.4334571 0.4492725 0.4334571 0.4464535 0.4306381 0.4492725 0.4306381 0.4464535 0.5063417 0.4440068 0.5173102 0.4440068 0.5173102 0.4449482 0.504733 0.4511073 0.4933948 0.4511122 0.4933917 0.4699344 0.5063417 0.4725875 0.5063417 0.4890246 0.5008574 0.4890246 0.5063417 0.4560132 0.5063417 0.4725875 0.5008574 0.4725875 0.5162144 0.4511023 0.504733 0.4511073 0.5047494 0.4699295 0.4933887 0.4698144 0.4933854 0.4509922 0.5047804 0.4509971 0.52477 0.4699032 0.5245241 0.4510809 0.5084268 0.4510973 0.5063417 0.4457885 0.5063417 0.4685162 0.5008574 0.4685163 0.5162187 0.4698243 0.5162211 0.4510021 0.5276181 0.4510071 0.5047641 0.4698194 0.5047804 0.4509971 0.5162211 0.4510021 0.5277416 0.4510973 0.5162144 0.4511023 0.5162166 0.4699245 0.5063417 0.4394392 0.5063417 0.4560132 0.5008574 0.4560132 0.5063417 0.4336895 0.5063417 0.4507606 0.5008574 0.4507606 0.5173102 0.4559167 0.5173102 0.4568581 0.5063417 0.4568581 0.5252336 0.4510235 0.5304341 0.4510288 0.5301882 0.469851 0.5008574 0.4890246 0.5063417 0.4890246 0.5063417 0.4890246 0.4933948 0.4511122 0.4933948 0.4511122 0.4933917 0.4699344 0.4933854 0.4509922 0.4933887 0.4698144 0.4933887 0.4698144 0.5063417 0.4890246 0.5063417 0.4890246 0.5008574 0.4890246 0.5091358 0.4510071 0.5252336 0.4510235 0.5249879 0.4698457 0.5063417 0.4384465 0.5063417 0.4457885 0.5008574 0.4457884 0.5299698 0.4698979 0.5297244 0.4510756 0.5245241 0.4510809 0.4945477 0.4509922 0.4943022 0.4698144 0.4943022 0.4698144 0.4938383 0.4511122 0.4938383 0.4511122 0.4940837 0.4699344 0.5008574 0.4384465 0.5008574 0.4457884 0.4953731 0.4457883 0.5008574 0.4890246 0.5008574 0.4890246 0.4953731 0.4890246 0.5008574 0.4890246 0.5008574 0.4890246 0.4953731 0.4890246 0.4953731 0.4336895 0.5008574 0.4336895 0.5008574 0.4507606 0.5008574 0.4394392 0.5008574 0.4560132 0.4953731 0.4560132 0.5008574 0.4457884 0.5008574 0.4685163 0.4953731 0.4685162 0.5008574 0.4560132 0.5008574 0.4725875 0.4953731 0.4725875 0.5008574 0.4725875 0.5008574 0.4890246 0.4953731 0.4890246 0.434511 0.4441511 0.4357356 0.4441511 0.4357356 0.4466393 0.4352558 0.4421491 0.4352558 0.4486414 0.434511 0.4487399 0.434511 0.4491276 0.4357356 0.4491276 0.4357356 0.4516157 0.4381847 0.4478834 0.4381847 0.4491276 0.4357356 0.4491276 0.4381847 0.4466393 0.4381847 0.4478834 0.4357356 0.4478834 0.434511 0.4487399 0.4337663 0.4486414 0.4337663 0.4421491 0.4337663 0.4486414 0.4336708 0.4478834 0.4336708 0.442907 0.4336708 0.4478834 0.4337663 0.4471255 0.4337663 0.443665 0.4337663 0.4471255 0.434511 0.447027 0.434511 0.4437634 0.434511 0.4491276 0.434511 0.4516157 0.4332865 0.4516157 0.4352558 0.4471255 0.4352558 0.443665 0.434511 0.4437634 0.434511 0.4441511 0.434511 0.4466393 0.4332865 0.4466393 0.4336708 0.442907 0.4332865 0.442907 0.4332865 0.4416629 0.4352558 0.4421491 0.434511 0.4420506 0.434511 0.4416629 0.4353513 0.442907 0.4357356 0.442907 0.4357356 0.4441511 0.4337663 0.443665 0.434511 0.4437634 0.434511 0.4441511 0.4337663 0.4471255 0.4332865 0.4466393 0.434511 0.4466393 0.4336708 0.4478834 0.4332865 0.4478834 0.4332865 0.4466393 0.4353513 0.4478834 0.4357356 0.4478834 0.4357356 0.4491276 0.4337663 0.4486414 0.434511 0.4487399 0.434511 0.4491276 0.4336708 0.442907 0.4337663 0.443665 0.4332865 0.4441511 0.4353513 0.442907 0.4352558 0.4421491 0.4357356 0.4416629 0.4336708 0.4478834 0.4337663 0.4486414 0.4332865 0.4491276 0.4353513 0.4478834 0.4352558 0.4471255 0.4357356 0.4466393 0.4337663 0.4421491 0.4332865 0.4416629 0.434511 0.4416629 0.4352558 0.443665 0.4357356 0.4441511 0.434511 0.4441511 0.4352558 0.4471255 0.434511 0.447027 0.434511 0.4466393 0.4352558 0.4486414 0.4357356 0.4491276 0.434511 0.4491276 0.434511 0.4441511 0.4357356 0.4441511 0.4357356 0.4466393 0.4352558 0.4421491 0.4352558 0.4486414 0.434511 0.4487399 0.434511 0.4491276 0.4357356 0.4491276 0.4357356 0.4516157 0.4381847 0.4478834 0.4381847 0.4491276 0.4357356 0.4491276 0.4381847 0.4466393 0.4381847 0.4478834 0.4357356 0.4478834 0.434511 0.4487399 0.4337663 0.4486414 0.4337663 0.4421491 0.4337663 0.4486414 0.4336708 0.4478834 0.4336708 0.442907 0.4336708 0.4478834 0.4337663 0.4471255 0.4337663 0.443665 0.4337663 0.4471255 0.434511 0.447027 0.434511 0.4437634 0.434511 0.4491276 0.434511 0.4516157 0.4332865 0.4516157 0.4352558 0.4471255 0.4352558 0.443665 0.434511 0.4437634 0.434511 0.4441511 0.434511 0.4466393 0.4332865 0.4466393 0.4336708 0.442907 0.4332865 0.442907 0.4332865 0.4416629 0.4352558 0.4421491 0.434511 0.4420506 0.434511 0.4416629 0.4353513 0.442907 0.4357356 0.442907 0.4357356 0.4441511 0.4337663 0.443665 0.434511 0.4437634 0.434511 0.4441511 0.4337663 0.4471255 0.4332865 0.4466393 0.434511 0.4466393 0.4336708 0.4478834 0.4332865 0.4478834 0.4332865 0.4466393 0.4353513 0.4478834 0.4357356 0.4478834 0.4357356 0.4491276 0.4337663 0.4486414 0.434511 0.4487399 0.434511 0.4491276 0.4336708 0.442907 0.4337663 0.443665 0.4332865 0.4441511 0.4353513 0.442907 0.4352558 0.4421491 0.4357356 0.4416629 0.4336708 0.4478834 0.4337663 0.4486414 0.4332865 0.4491276 0.4353513 0.4478834 0.4352558 0.4471255 0.4357356 0.4466393 0.4337663 0.4421491 0.4332865 0.4416629 0.434511 0.4416629 0.4352558 0.443665 0.4357356 0.4441511 0.434511 0.4441511 0.4352558 0.4471255 0.434511 0.447027 0.434511 0.4466393 0.4352558 0.4486414 0.4357356 0.4491276 0.434511 0.4491276 0.4352558 0.4421491 0.4353513 0.442907 0.4353513 0.4478834 0.434511 0.4441511 0.4357356 0.4441511 0.4357356 0.4466393 0.4352558 0.4486414 0.434511 0.4487399 0.434511 0.4420506 0.4357356 0.4491276 0.4357356 0.4516157 0.434511 0.4516157 0.4357356 0.4478834 0.4381847 0.4478834 0.4381847 0.4491276 0.4381847 0.4466393 0.4381847 0.4478834 0.4357356 0.4478834 0.434511 0.4487399 0.4337663 0.4486414 0.4337663 0.4421491 0.434511 0.447027 0.434511 0.4437634 0.4337663 0.443665 0.434511 0.4491276 0.434511 0.4516157 0.4332865 0.4516157 0.4352558 0.4471255 0.4352558 0.443665 0.434511 0.4437634 0.4332865 0.4441511 0.434511 0.4441511 0.434511 0.4466393 0.4353513 0.4478834 0.4353513 0.442907 0.4352558 0.443665 0.434511 0.4420506 0.434511 0.4416629 0.4357356 0.4416629 0.4352558 0.443665 0.4353513 0.442907 0.4357356 0.442907 0.434511 0.4437634 0.434511 0.4441511 0.4332865 0.4441511 0.434511 0.447027 0.4337663 0.4471255 0.4332865 0.4466393 0.4352558 0.4486414 0.4353513 0.4478834 0.4357356 0.4478834 0.434511 0.4487399 0.434511 0.4491276 0.4332865 0.4491276 0.4352558 0.4421491 0.4357356 0.4416629 0.4357356 0.442907 0.4352558 0.4471255 0.4357356 0.4466393 0.4357356 0.4478834 0.434511 0.4420506 0.4337663 0.4421491 0.4332865 0.4416629 0.434511 0.4437634 0.4352558 0.443665 0.4357356 0.4441511 0.434511 0.447027 0.434511 0.4466393 0.4357356 0.4466393 0.434511 0.4487399 0.4352558 0.4486414 0.4357356 0.4491276 0.4337663 0.4471255 0.4337663 0.443665 0.4337663 0.443665 0.4337663 0.4486414 0.4332865 0.4491276 0.4332865 0.4491276 0.4332865 0.4416629 0.4337663 0.4421491 0.4337663 0.4421491 0.4332865 0.4466393 0.4332865 0.4466393 0.4332865 0.4441511 0.4332865 0.4441511 0.4332865 0.4441511 0.4337663 0.443665 0.4332865 0.4491276 0.4332865 0.4516157 0.4332865 0.4516157 0.4337663 0.4486414 0.4337663 0.4486414 0.4337663 0.4421491 0.4332865 0.4466393 0.4337663 0.4471255 0.4337663 0.4471255 0.4337663 0.4471255 0.4337663 0.443665 0.4332865 0.4441511 0.4332865 0.4416629 0.4337663 0.4421491 0.4337663 0.4486414 0.4362761 0.4408154 0.4362761 0.4436344 0.4334571 0.4436344 0.4362761 0.4436344 0.4362761 0.4464535 0.4334571 0.4464535 0.4362761 0.4464535 0.4362761 0.4492725 0.4334571 0.4492725 0.4362761 0.4492725 0.4362761 0.4520915 0.4334571 0.4520915 0.4334571 0.4464535 0.4334571 0.4492725 0.4306381 0.4492725 0.4362761 0.4408154 0.4362761 0.4436344 0.4334571 0.4436344 0.4362761 0.4436344 0.4362761 0.4464535 0.4334571 0.4464535 0.4362761 0.4464535 0.4362761 0.4492725 0.4334571 0.4492725 0.4362761 0.4492725 0.4362761 0.4520915 0.4334571 0.4520915 0.4334571 0.4464535 0.4334571 0.4492725 0.4306381 0.4492725 0.4362761 0.4408154 0.4362761 0.4436344 0.4334571 0.4436344 0.4362761 0.4436344 0.4362761 0.4464535 0.4334571 0.4464535 0.4362761 0.4464535 0.4362761 0.4492725 0.4334571 0.4492725 0.4362761 0.4492725 0.4362761 0.4520915 0.4334571 0.4520915 0.4334571 0.4464535 0.4334571 0.4492725 0.4306381 0.4492725 0.4352558 0.4486414 0.4352558 0.4421491 0.4353513 0.442907 0.4357356 0.4441511 0.4357356 0.4466393 0.434511 0.4466393 0.4352558 0.4421491 0.4352558 0.4486414 0.434511 0.4487399 0.434511 0.4491276 0.4357356 0.4491276 0.4357356 0.4516157 0.4381847 0.4478834 0.4381847 0.4491276 0.4357356 0.4491276 0.4357356 0.4466393 0.4381847 0.4466393 0.4381847 0.4478834 0.4337663 0.4486414 0.4337663 0.4421491 0.434511 0.4420506 0.4337663 0.4471255 0.434511 0.447027 0.434511 0.4437634 0.4332865 0.4491276 0.434511 0.4491276 0.434511 0.4516157 0.434511 0.447027 0.4352558 0.4471255 0.4352558 0.443665 0.434511 0.4441511 0.434511 0.4466393 0.4332865 0.4466393 0.4352558 0.4471255 0.4353513 0.4478834 0.4353513 0.442907 0.434511 0.4420506 0.434511 0.4416629 0.4357356 0.4416629 0.4352558 0.443665 0.4353513 0.442907 0.4357356 0.442907 0.434511 0.4437634 0.434511 0.4441511 0.4332865 0.4441511 0.434511 0.447027 0.4337663 0.4471255 0.4332865 0.4466393 0.4352558 0.4486414 0.4353513 0.4478834 0.4357356 0.4478834 0.434511 0.4487399 0.434511 0.4491276 0.4332865 0.4491276 0.4352558 0.4421491 0.4357356 0.4416629 0.4357356 0.442907 0.4352558 0.4471255 0.4357356 0.4466393 0.4357356 0.4478834 0.434511 0.4420506 0.4337663 0.4421491 0.4332865 0.4416629 0.434511 0.4437634 0.4352558 0.443665 0.4357356 0.4441511 0.434511 0.447027 0.434511 0.4466393 0.4357356 0.4466393 0.434511 0.4487399 0.4352558 0.4486414 0.4357356 0.4491276 0.4337663 0.443665 0.4337663 0.443665 0.4337663 0.4471255 0.4332865 0.4491276 0.4332865 0.4491276 0.4337663 0.4486414 0.4332865 0.4416629 0.4337663 0.4421491 0.4337663 0.4421491 0.4332865 0.4441511 0.4332865 0.4466393 0.4332865 0.4466393 0.4332865 0.4441511 0.4332865 0.4441511 0.4337663 0.443665 0.4332865 0.4516157 0.4332865 0.4516157 0.4332865 0.4491276 0.4337663 0.4421491 0.4337663 0.4486414 0.4337663 0.4486414 0.4332865 0.4466393 0.4337663 0.4471255 0.4337663 0.4471255 0.4332865 0.4466393 0.4337663 0.4471255 0.4337663 0.443665 0.4332865 0.4491276 0.4332865 0.4416629 0.4337663 0.4421491 0.4362761 0.4408154 0.4362761 0.4436344 0.4334571 0.4436344 0.4362761 0.4436344 0.4362761 0.4464535 0.4334571 0.4464535 0.4362761 0.4464535 0.4362761 0.4492725 0.4334571 0.4492725 0.4362761 0.4492725 0.4362761 0.4520915 0.4334571 0.4520915 0.4334571 0.4464535 0.4334571 0.4492725 0.4306381 0.4492725 0.4362761 0.4408154 0.4362761 0.4436344 0.4334571 0.4436344 0.4362761 0.4436344 0.4362761 0.4464535 0.4334571 0.4464535 0.4362761 0.4464535 0.4362761 0.4492725 0.4334571 0.4492725 0.4362761 0.4492725 0.4362761 0.4520915 0.4334571 0.4520915 0.4334571 0.4464535 0.4334571 0.4492725 0.4306381 0.4492725 0.4362761 0.4408154 0.4362761 0.4436344 0.4334571 0.4436344 0.4362761 0.4436344 0.4362761 0.4464535 0.4334571 0.4464535 0.4362761 0.4464535 0.4362761 0.4492725 0.4334571 0.4492725 0.4362761 0.4492725 0.4362761 0.4520915 0.4334571 0.4520915 0.4334571 0.4464535 0.4334571 0.4492725 0.4306381 0.4492725 0.4352558 0.4421491 0.4353513 0.442907 0.4353513 0.4478834 0.434511 0.4441511 0.4357356 0.4441511 0.4357356 0.4466393 0.4352558 0.4486414 0.434511 0.4487399 0.434511 0.4420506 0.4357356 0.4491276 0.4357356 0.4516157 0.434511 0.4516157 0.4308374 0.4478834 0.4332865 0.4478834 0.4332865 0.4491276 0.4357356 0.4478834 0.4381847 0.4478834 0.4381847 0.4491276 0.4381847 0.4466393 0.4381847 0.4478834 0.4357356 0.4478834 0.4332865 0.4466393 0.4332865 0.4478834 0.4308374 0.4478834 0.434511 0.4487399 0.4337663 0.4486414 0.4337663 0.4421491 0.4337663 0.4486414 0.4336708 0.4478834 0.4336708 0.442907 0.4337663 0.4471255 0.4337663 0.443665 0.4336708 0.442907 0.434511 0.447027 0.434511 0.4437634 0.4337663 0.443665 0.434511 0.4491276 0.434511 0.4516157 0.4332865 0.4516157 0.4352558 0.4471255 0.4352558 0.443665 0.434511 0.4437634 0.4332865 0.4441511 0.434511 0.4441511 0.434511 0.4466393 0.4353513 0.4478834 0.4353513 0.442907 0.4352558 0.443665 0.4337663 0.4421491 0.4336708 0.442907 0.4332865 0.442907 0.434511 0.4420506 0.434511 0.4416629 0.4357356 0.4416629 0.4352558 0.443665 0.4353513 0.442907 0.4357356 0.442907 0.434511 0.4437634 0.434511 0.4441511 0.4332865 0.4441511 0.434511 0.447027 0.4337663 0.4471255 0.4332865 0.4466393 0.4337663 0.4471255 0.4336708 0.4478834 0.4332865 0.4478834 0.4352558 0.4486414 0.4353513 0.4478834 0.4357356 0.4478834 0.434511 0.4487399 0.434511 0.4491276 0.4332865 0.4491276 0.4337663 0.443665 0.4332865 0.4441511 0.4332865 0.442907 0.4352558 0.4421491 0.4357356 0.4416629 0.4357356 0.442907 0.4337663 0.4486414 0.4332865 0.4491276 0.4332865 0.4478834 0.4352558 0.4471255 0.4357356 0.4466393 0.4357356 0.4478834 0.434511 0.4420506 0.4337663 0.4421491 0.4332865 0.4416629 0.434511 0.4437634 0.4352558 0.443665 0.4357356 0.4441511 0.434511 0.447027 0.434511 0.4466393 0.4357356 0.4466393 0.434511 0.4487399 0.4352558 0.4486414 0.4357356 0.4491276 0.4362761 0.4408154 0.4362761 0.4436344 0.4334571 0.4436344 0.4362761 0.4436344 0.4362761 0.4464535 0.4334571 0.4464535 0.4362761 0.4464535 0.4362761 0.4492725 0.4334571 0.4492725 0.4362761 0.4492725 0.4362761 0.4520915 0.4334571 0.4520915 0.4334571 0.4464535 0.4334571 0.4492725 0.4306381 0.4492725 0.4362761 0.4408154 0.4362761 0.4436344 0.4334571 0.4436344 0.4362761 0.4436344 0.4362761 0.4464535 0.4334571 0.4464535 0.4362761 0.4464535 0.4362761 0.4492725 0.4334571 0.4492725 0.4362761 0.4492725 0.4362761 0.4520915 0.4334571 0.4520915 0.4334571 0.4464535 0.4334571 0.4492725 0.4306381 0.4492725</float_array>
          <technique_common>
            <accessor source="#Cubo_144-mesh-map-0-array" count="1368" stride="2">
              <param name="S" type="float"/>
              <param name="T" type="float"/>
            </accessor>
          </technique_common>
        </source>
        <vertices id="Cubo_144-mesh-vertices">
          <input semantic="POSITION" source="#Cubo_144-mesh-positions"/>
        </vertices>
        <triangles material="A-textura_auxiliar_libi_cyrene_General-material" count="456">
          <input semantic="VERTEX" source="#Cubo_144-mesh-vertices" offset="0"/>
          <input semantic="NORMAL" source="#Cubo_144-mesh-normals" offset="1"/>
          <input semantic="TEXCOORD" source="#Cubo_144-mesh-map-0" offset="2" set="0"/>
          <p>22 0 0 3 1 1 2 2 2 11 3 3 4 4 4 10 5 5 10 5 6 37 6 7 38 7 8 19 8 9 38 7 10 40 9 11 17 10 12 10 5 13 19 8 14 0 11 15 9 12 16 8 13 17 31 14 18 15 15 19 13 16 20 31 14 21 39 17 22 43 18 23 16 19 24 12 20 25 14 21 26 8 13 27 18 22 28 16 19 29 15 15 30 19 8 31 13 16 32 13 16 33 40 9 34 39 23 35 6 24 36 41 25 37 36 26 38 7 27 39 21 28 40 6 24 41 30 29 42 22 0 43 28 30 44 42 31 45 35 32 46 44 33 47 5 34 48 27 35 49 4 4 50 1 36 51 24 37 52 25 38 53 4 39 54 42 31 55 37 6 56 12 20 57 28 30 58 14 21 59 21 28 60 43 18 61 41 25 62 21 28 63 29 40 64 31 14 65 25 38 66 32 41 67 33 42 68 26 43 69 35 44 70 27 35 71 41 25 72 28 30 73 22 0 74 37 6 75 24 45 76 0 11 77 42 31 78 32 46 79 24 45 80 2 2 81 41 25 82 22 0 83 39 23 84 16 19 85 14 21 86 43 18 87 14 21 88 28 30 89 40 9 90 8 13 91 16 19 92 38 7 93 0 11 94 8 13 95 67 47 96 76 48 97 69 49 98 46 50 99 60 51 100 57 52 101 74 53 102 64 54 103 63 55 104 65 56 105 73 57 106 72 58 107 66 59 108 72 58 109 76 48 110 60 51 111 45 60 112 57 52 113 49 61 114 53 62 115 45 60 116 55 63 117 47 64 118 53 62 119 51 65 120 58 66 121 47 64 122 74 53 123 62 67 124 75 68 125 52 69 126 58 66 127 59 70 128 67 47 129 70 71 130 68 72 131 53 62 132 62 67 133 45 60 134 46 50 135 63 55 136 64 54 137 54 73 138 66 59 139 48 74 140 47 64 141 67 47 142 68 72 143 51 65 144 69 49 145 59 70 146 55 63 147 70 71 148 51 65 149 56 75 150 73 57 151 50 76 152 49 61 153 74 53 154 75 68 155 53 62 156 68 72 157 61 77 158 54 73 159 64 54 160 65 56 161 55 63 162 75 68 163 71 78 164 56 75 165 76 48 166 72 58 167 45 60 168 63 55 169 57 52 170 48 74 171 67 47 172 58 66 173 52 69 174 69 49 175 76 48 176 50 76 177 74 53 178 60 51 179 99 79 180 108 80 181 101 81 182 78 82 183 92 83 184 89 84 185 106 85 186 96 86 187 95 55 188 97 87 189 105 88 190 104 89 191 98 90 192 104 89 193 108 80 194 92 83 195 77 91 196 89 84 197 81 92 198 85 93 199 77 91 200 87 94 201 79 95 202 85 93 203 83 96 204 90 97 205 79 95 206 106 85 207 94 98 208 107 99 209 84 100 210 90 97 211 91 101 212 99 79 213 102 102 214 100 103 215 85 93 216 94 98 217 77 91 218 78 82 219 95 55 220 96 86 221 86 104 222 98 90 223 80 105 224 79 95 225 99 79 226 100 103 227 83 96 228 101 81 229 91 101 230 87 94 231 102 102 232 83 96 233 88 106 234 105 88 235 82 107 236 81 92 237 106 85 238 107 99 239 85 93 240 100 103 241 93 108 242 86 104 243 96 86 244 97 87 245 87 94 246 107 99 247 103 109 248 88 106 249 108 80 250 104 89 251 77 91 252 95 55 253 89 84 254 80 105 255 99 79 256 90 97 257 84 100 258 101 81 259 108 80 260 82 107 261 106 85 262 92 83 263 110 110 264 118 111 265 114 112 266 128 113 267 136 114 268 130 115 269 114 112 270 119 116 271 110 110 272 133 117 273 124 118 274 134 119 275 132 120 276 125 121 277 133 117 278 127 122 279 132 120 280 136 114 281 122 123 282 109 124 283 119 116 284 121 125 285 111 126 286 115 127 287 134 119 288 123 128 289 135 129 290 116 130 291 120 131 292 121 125 293 129 132 294 130 133 295 131 134 296 118 111 297 112 135 298 116 130 299 119 116 300 125 121 301 110 110 302 112 135 303 126 136 304 127 122 305 120 131 306 129 137 307 111 138 308 121 125 309 131 139 310 130 115 311 114 112 312 132 120 313 133 117 314 122 123 315 135 140 316 113 141 317 110 110 318 126 136 319 117 142 320 116 130 321 132 120 322 118 111 323 119 116 324 123 143 325 124 118 326 120 131 327 127 122 328 128 113 329 121 125 330 136 114 331 116 130 332 122 123 333 133 117 334 134 119 335 115 127 336 138 144 337 140 145 338 113 141 339 144 146 340 139 147 341 123 148 342 137 149 343 141 150 344 131 134 345 142 151 346 129 132 347 129 137 348 138 152 349 111 138 350 135 129 351 141 150 352 144 146 353 113 153 354 137 154 355 109 155 356 131 156 357 140 145 358 143 157 359 140 145 360 142 158 361 143 157 362 141 150 363 139 147 364 144 146 365 146 159 366 147 160 367 145 161 368 148 162 369 151 163 370 147 160 371 152 164 372 149 165 373 151 163 374 150 166 375 145 161 376 149 165 377 151 163 378 145 161 379 147 160 380 154 167 381 155 168 382 153 169 383 156 170 384 159 171 385 155 168 386 160 172 387 157 173 388 159 171 389 158 174 390 153 169 391 157 173 392 159 171 393 153 169 394 155 168 395 162 167 396 163 168 397 161 175 398 164 162 399 167 176 400 163 168 401 168 172 402 165 173 403 167 176 404 166 166 405 161 175 406 165 173 407 167 176 408 161 175 409 163 168 410 174 177 411 177 178 412 178 179 413 187 180 414 190 181 415 188 182 416 170 183 417 182 184 418 179 185 419 194 186 420 185 187 421 184 188 422 186 189 423 193 190 424 192 191 425 196 192 426 186 189 427 192 191 428 173 193 429 179 185 430 182 184 431 175 194 432 180 195 433 171 196 434 195 197 435 184 198 436 183 199 437 181 200 438 172 201 439 180 202 440 188 182 441 191 203 442 189 204 443 176 205 444 177 178 445 172 201 446 179 185 447 185 187 448 170 183 449 172 201 450 186 189 451 187 180 452 180 202 453 189 206 454 171 207 455 181 200 456 191 208 457 190 181 458 174 177 459 192 191 460 193 190 461 182 184 462 195 209 463 173 210 464 170 183 465 186 189 466 177 178 467 176 205 468 192 191 469 178 179 470 179 185 471 183 211 472 184 188 473 180 202 474 187 180 475 188 182 476 181 200 477 196 192 478 176 205 479 182 184 480 193 190 481 194 186 482 171 196 483 200 212 484 175 194 485 195 209 486 199 213 487 173 210 488 183 214 489 197 215 490 201 216 491 189 204 492 203 217 493 202 218 494 189 206 495 198 219 496 171 207 497 183 199 498 204 220 499 195 197 500 169 221 501 199 222 502 197 215 503 191 223 504 200 224 505 203 217 506 203 217 507 198 225 508 202 218 509 204 226 510 197 215 511 199 222 512 206 159 513 207 160 514 205 227 515 208 170 516 211 228 517 207 160 518 212 164 519 209 165 520 211 228 521 210 174 522 205 227 523 209 165 524 211 228 525 205 227 526 207 160 527 214 167 528 215 168 529 213 169 530 216 170 531 219 171 532 215 168 533 220 172 534 217 173 535 219 171 536 218 174 537 213 169 538 217 173 539 219 171 540 213 169 541 215 168 542 222 167 543 223 168 544 221 169 545 224 170 546 227 171 547 223 168 548 228 172 549 225 173 550 227 171 551 226 174 552 221 169 553 225 173 554 227 171 555 221 169 556 223 168 557 230 229 558 240 230 559 234 231 560 251 232 561 260 233 562 253 234 563 234 231 564 241 235 565 230 229 566 257 236 567 247 237 568 258 238 569 245 239 570 259 240 571 246 241 572 256 242 573 248 243 574 257 236 575 250 244 576 256 242 577 260 233 578 254 245 579 245 239 580 252 246 581 244 247 582 229 248 583 241 235 584 233 249 585 237 250 586 229 248 587 235 251 588 237 250 589 239 252 590 243 253 591 231 254 592 235 251 593 258 238 594 246 241 595 259 240 596 236 255 597 242 256 598 243 253 599 252 246 600 253 234 601 254 245 602 240 230 603 232 257 604 236 255 605 229 248 606 245 239 607 246 241 608 241 235 609 248 243 610 230 229 611 232 257 612 249 258 613 250 244 614 242 256 615 252 246 616 231 254 617 243 253 618 254 245 619 253 234 620 235 251 621 255 259 622 254 245 623 234 231 624 256 242 625 257 236 626 244 247 627 259 240 628 233 249 629 231 254 630 245 239 631 237 250 632 230 229 633 249 258 634 238 260 635 233 249 636 255 259 637 239 252 638 236 255 639 256 242 640 240 230 641 241 235 642 246 241 643 247 237 644 242 256 645 250 244 646 251 232 647 243 253 648 260 233 649 236 255 650 244 247 651 257 236 652 258 238 653 262 167 654 263 168 655 261 175 656 264 162 657 267 176 658 263 168 659 268 172 660 265 173 661 267 176 662 266 166 663 261 175 664 265 173 665 267 176 666 261 175 667 263 168 668 270 167 669 271 261 670 269 262 671 272 170 672 275 263 673 271 261 674 276 172 675 273 173 676 275 263 677 274 174 678 269 262 679 273 173 680 275 263 681 269 262 682 271 261 683 22 0 684 20 264 685 3 1 686 11 3 687 5 34 688 4 4 689 10 5 690 4 4 691 37 6 692 19 8 693 10 5 694 38 7 695 17 10 696 11 3 697 10 5 698 0 11 699 1 36 700 9 12 701 31 14 702 29 40 703 15 15 704 31 14 705 13 16 706 39 17 707 16 19 708 18 22 709 12 20 710 8 13 711 9 12 712 18 22 713 15 15 714 17 10 715 19 8 716 13 16 717 19 8 718 40 9 719 6 24 720 21 28 721 41 25 722 7 27 723 23 265 724 21 28 725 30 29 726 20 264 727 22 0 728 42 31 729 27 266 730 35 32 731 5 34 732 26 43 733 27 35 734 1 36 735 0 11 736 24 37 737 4 39 738 27 266 739 42 31 740 12 20 741 30 29 742 28 30 743 21 28 744 31 14 745 43 18 746 21 28 747 23 265 748 29 40 749 25 38 750 24 37 751 32 41 752 26 267 753 34 268 754 35 268 755 41 25 756 43 18 757 28 30 758 37 6 759 42 31 760 24 45 761 42 31 762 44 33 763 32 269 764 2 2 765 36 26 766 41 25 767 39 23 768 40 9 769 16 19 770 43 18 771 39 17 772 14 21 773 40 9 774 38 7 775 8 13 776 38 7 777 37 6 778 0 11 779 67 47 780 66 59 781 76 48 782 46 50 783 50 76 784 60 51 785 74 53 786 73 57 787 64 54 788 65 56 789 64 54 790 73 57 791 66 59 792 65 56 793 72 58 794 60 51 795 49 61 796 45 60 797 49 61 798 55 63 799 53 62 800 55 63 801 51 65 802 47 64 803 51 65 804 59 70 805 58 66 806 74 53 807 63 55 808 62 67 809 52 69 810 48 74 811 58 66 812 67 47 813 69 49 814 70 71 815 53 62 816 61 77 817 62 67 818 46 50 819 57 52 820 63 55 821 54 73 822 65 56 823 66 59 824 47 64 825 58 66 826 67 47 827 51 65 828 70 71 829 69 49 830 55 63 831 71 78 832 70 71 833 56 75 834 72 58 835 73 57 836 49 61 837 60 51 838 74 53 839 53 62 840 47 64 841 68 72 842 54 73 843 46 50 844 64 54 845 55 63 846 49 61 847 75 68 848 56 75 849 52 69 850 76 48 851 45 60 852 62 67 853 63 55 854 48 74 855 66 59 856 67 47 857 52 69 858 59 70 859 69 49 860 50 76 861 73 57 862 74 53 863 99 79 864 98 90 865 108 80 866 78 82 867 82 107 868 92 83 869 106 85 870 105 88 871 96 86 872 97 87 873 96 86 874 105 88 875 98 90 876 97 87 877 104 89 878 92 83 879 81 92 880 77 91 881 81 92 882 87 94 883 85 93 884 87 94 885 83 96 886 79 95 887 83 96 888 91 101 889 90 97 890 106 85 891 95 55 892 94 98 893 84 100 894 80 105 895 90 97 896 99 79 897 101 81 898 102 102 899 85 93 900 93 108 901 94 98 902 78 82 903 89 84 904 95 55 905 86 104 906 97 87 907 98 90 908 79 95 909 90 97 910 99 79 911 83 96 912 102 102 913 101 81 914 87 94 915 103 109 916 102 102 917 88 106 918 104 89 919 105 88 920 81 92 921 92 83 922 106 85 923 85 93 924 79 95 925 100 103 926 86 104 927 78 82 928 96 86 929 87 94 930 81 92 931 107 99 932 88 106 933 84 100 934 108 80 935 77 91 936 94 98 937 95 55 938 80 105 939 98 90 940 99 79 941 84 100 942 91 101 943 101 81 944 82 107 945 105 88 946 106 85 947 110 110 948 117 142 949 118 111 950 128 113 951 127 122 952 136 114 953 114 112 954 122 123 955 119 116 956 133 117 957 125 121 958 124 118 959 132 120 960 126 136 961 125 121 962 127 122 963 126 136 964 132 120 965 122 270 966 113 153 967 109 155 968 121 125 969 120 131 970 111 126 971 134 119 972 124 118 973 123 128 974 116 130 975 112 135 976 120 131 977 129 271 978 128 113 979 130 115 980 118 111 981 117 142 982 112 135 983 119 116 984 124 118 985 125 121 986 112 135 987 117 142 988 126 136 989 120 131 990 128 113 991 129 137 992 121 272 993 115 273 994 131 156 995 114 112 996 118 111 997 132 120 998 122 123 999 134 119 1000 135 140 1001 110 110 1002 125 121 1003 126 136 1004 116 130 1005 136 114 1006 132 120 1007 119 274 1008 109 275 1009 123 148 1010 120 131 1011 112 135 1012 127 122 1013 121 125 1014 130 115 1015 136 114 1016 122 123 1017 114 112 1018 133 117 1019 115 127 1020 111 126 1021 138 144 1022 113 141 1023 135 140 1024 144 146 1025 123 148 1026 109 275 1027 137 149 1028 131 276 1029 143 157 1030 142 158 1031 129 277 1032 142 158 1033 138 144 1034 135 129 1035 123 128 1036 141 150 1037 113 278 1038 139 147 1039 137 149 1040 131 156 1041 115 273 1042 140 145 1043 140 145 1044 138 144 1045 142 158 1046 141 150 1047 137 149 1048 139 147 1049 146 159 1050 148 162 1051 147 160 1052 148 162 1053 152 164 1054 151 163 1055 152 164 1056 150 166 1057 149 165 1058 150 166 1059 146 159 1060 145 161 1061 151 163 1062 149 165 1063 145 161 1064 154 167 1065 156 170 1066 155 168 1067 156 170 1068 160 172 1069 159 171 1070 160 172 1071 158 174 1072 157 173 1073 158 174 1074 154 167 1075 153 169 1076 159 171 1077 157 173 1078 153 169 1079 162 167 1080 164 162 1081 163 168 1082 164 162 1083 168 172 1084 167 176 1085 168 172 1086 166 166 1087 165 173 1088 166 166 1089 162 167 1090 161 175 1091 167 176 1092 165 173 1093 161 175 1094 174 177 1095 170 183 1096 177 178 1097 187 180 1098 196 192 1099 190 181 1100 170 183 1101 174 177 1102 182 184 1103 194 186 1104 193 190 1105 185 187 1106 186 189 1107 185 187 1108 193 190 1109 196 192 1110 187 180 1111 186 189 1112 173 193 1113 169 221 1114 179 185 1115 175 279 1116 181 200 1117 180 202 1118 195 280 1119 194 186 1120 184 188 1121 181 200 1122 176 205 1123 172 201 1124 188 182 1125 190 181 1126 191 203 1127 176 205 1128 178 179 1129 177 178 1130 179 185 1131 184 188 1132 185 187 1133 172 201 1134 177 178 1135 186 189 1136 180 202 1137 188 182 1138 189 206 1139 181 281 1140 175 282 1141 191 223 1142 174 177 1143 178 179 1144 192 191 1145 182 184 1146 194 186 1147 195 209 1148 170 183 1149 185 187 1150 186 189 1151 176 205 1152 196 192 1153 192 191 1154 179 283 1155 169 284 1156 183 214 1157 180 202 1158 172 201 1159 187 180 1160 181 200 1161 190 181 1162 196 192 1163 182 184 1164 174 177 1165 193 190 1166 171 285 1167 198 225 1168 200 224 1169 195 286 1170 204 226 1171 199 222 1172 183 214 1173 169 284 1174 197 215 1175 189 204 1176 191 203 1177 203 217 1178 189 287 1179 202 218 1180 198 225 1181 183 288 1182 201 216 1183 204 226 1184 169 221 1185 173 193 1186 199 222 1187 191 223 1188 175 282 1189 200 224 1190 203 217 1191 200 224 1192 198 225 1193 204 226 1194 201 216 1195 197 215 1196 206 159 1197 208 170 1198 207 160 1199 208 170 1200 212 164 1201 211 228 1202 212 164 1203 210 174 1204 209 165 1205 210 174 1206 206 159 1207 205 227 1208 211 228 1209 209 165 1210 205 227 1211 214 167 1212 216 170 1213 215 168 1214 216 170 1215 220 172 1216 219 171 1217 220 172 1218 218 174 1219 217 173 1220 218 174 1221 214 167 1222 213 169 1223 219 171 1224 217 173 1225 213 169 1226 222 167 1227 224 170 1228 223 168 1229 224 170 1230 228 172 1231 227 171 1232 228 172 1233 226 174 1234 225 173 1235 226 174 1236 222 167 1237 221 169 1238 227 171 1239 225 173 1240 221 169 1241 230 229 1242 238 260 1243 240 230 1244 251 232 1245 250 244 1246 260 233 1247 234 231 1248 244 247 1249 241 235 1250 257 236 1251 248 243 1252 247 237 1253 245 239 1254 255 259 1255 259 240 1256 256 242 1257 249 258 1258 248 243 1259 250 244 1260 249 258 1261 256 242 1262 254 245 1263 255 259 1264 245 239 1265 244 247 1266 233 249 1267 229 248 1268 233 249 1269 239 252 1270 237 250 1271 235 251 1272 231 254 1273 237 250 1274 243 253 1275 242 256 1276 231 254 1277 258 238 1278 247 237 1279 246 241 1280 236 255 1281 232 257 1282 242 256 1283 252 246 1284 251 232 1285 253 234 1286 240 230 1287 238 260 1288 232 257 1289 229 248 1290 237 250 1291 245 239 1292 241 235 1293 247 237 1294 248 243 1295 232 257 1296 238 260 1297 249 258 1298 242 256 1299 251 232 1300 252 246 1301 243 253 1302 235 251 1303 254 245 1304 235 251 1305 239 252 1306 255 259 1307 234 231 1308 240 230 1309 256 242 1310 244 247 1311 258 238 1312 259 240 1313 231 254 1314 252 246 1315 245 239 1316 230 229 1317 248 243 1318 249 258 1319 233 249 1320 259 240 1321 255 259 1322 236 255 1323 260 233 1324 256 242 1325 241 235 1326 229 248 1327 246 241 1328 242 256 1329 232 257 1330 250 244 1331 243 253 1332 253 234 1333 260 233 1334 244 247 1335 234 231 1336 257 236 1337 262 167 1338 264 162 1339 263 168 1340 264 162 1341 268 172 1342 267 176 1343 268 172 1344 266 166 1345 265 173 1346 266 166 1347 262 167 1348 261 175 1349 267 176 1350 265 173 1351 261 175 1352 270 167 1353 272 170 1354 271 261 1355 272 170 1356 276 172 1357 275 263 1358 276 172 1359 274 174 1360 273 173 1361 274 174 1362 270 167 1363 269 262 1364 275 263 1365 273 173 1366 269 262 1367</p>
        </triangles>
      </mesh>
    </geometry>
  </library_geometries>
  <library_visual_scenes>
    <visual_scene id="Scene" name="Scene">
      <node id="liby_hair_elite" name="liby_hair_elite" type="NODE">
        <matrix sid="transform">1 0 0 0 0 1 0 0 0 0 1 0 0 0 0 1</matrix>
        <instance_geometry url="#Cubo_144-mesh" name="liby_hair_elite">
          <bind_material>
            <technique_common>
              <instance_material symbol="A-textura_auxiliar_libi_cyrene_General-material" target="#A-textura_auxiliar_libi_cyrene_General-material">
                <bind_vertex_input semantic="Cubo_144-mesh-map-0" input_semantic="TEXCOORD" input_set="0"/>
              </instance_material>
            </technique_common>
          </bind_material>
        </instance_geometry>
      </node>
    </visual_scene>
  </library_visual_scenes>
  <scene>
    <instance_visual_scene url="#Scene"/>
  </scene>
</COLLADA>