<?xml version="1.0" encoding="utf-8"?>
<COLLADA xmlns="http://www.collada.org/2005/11/COLLADASchema" version="1.4.1" xmlns:xsi="http://www.w3.org/2001/XMLSchema-instance">
  <asset>
    <contributor>
      <author>Blender User</author>
      <authoring_tool>Blender 4.3.1 commit date:2024-12-10, commit time:07:46, hash:33d812126174</authoring_tool>
    </contributor>
    <created>2026-08-08T10:53:49</created>
    <modified>2026-08-08T10:53:49</modified>
    <unit name="meter" meter="1"/>
    <up_axis>Z_UP</up_axis>
  </asset>
  <library_effects>
    <effect id="A-textura_libios_General-effect">
      <profile_COMMON>
        <newparam sid="hair_male_old_png-surface">
          <surface type="2D">
            <init_from>hair_male_old_png</init_from>
          </surface>
        </newparam>
        <newparam sid="hair_male_old_png-sampler">
          <sampler2D>
            <source>hair_male_old_png-surface</source>
          </sampler2D>
        </newparam>
        <technique sid="common">
          <lambert>
            <emission>
              <color sid="emission">0 0 0 1</color>
            </emission>
            <diffuse>
              <texture texture="hair_male_old_png-sampler" texcoord="MapaUV"/>
            </diffuse>
            <index_of_refraction>
              <float sid="ior">1.45</float>
            </index_of_refraction>
          </lambert>
        </technique>
      </profile_COMMON>
    </effect>
  </library_effects>
  <library_images>
    <image id="hair_male_old_png" name="hair_male_old_png">
      <init_from>/home/welton/.var/app/com.play0ad.zeroad/data/0ad/mods/Endovelico/art/textures/skins/props/head/hair_male_old.png</init_from>
    </image>
  </library_images>
  <library_materials>
    <material id="A-textura_libios_General-material" name="A-textura libios General">
      <instance_effect url="#A-textura_libios_General-effect"/>
    </material>
  </library_materials>
  <library_geometries>
    <geometry id="Esfera_012-mesh" name="Esfera.012">
      <mesh>
        <source id="Esfera_012-mesh-positions">
          <float_array id="Esfera_012-mesh-positions-array" count="585">-1.81874e-5 0.03108805 0.5262257 0 0.1935778 0.4293375 0 0.2803595 0.3774227 0 0.3103724 0.3145372 0 0.3201752 0.2398997 0 0.3093913 0.1362825 5.61541e-4 0.03101742 0.5262504 0.02818197 0.1901454 0.4305398 0.03586888 0.2736481 0.378953 0.03992944 0.3024806 0.3163366 0.04436725 0.3114063 0.2418991 0.04709994 0.3000823 0.1384052 0.001118957 0.03080832 0.5263237 0.05528086 0.1799803 0.4341006 0.07035928 0.2537718 0.383485 0.07832443 0.2791086 0.3216658 0.08702945 0.2854368 0.2478205 0.09239006 0.2725132 0.1446912 0.00163269 0.03046876 0.5264426 0.08025544 0.1634732 0.4398831 0.1021457 0.2214945 0.3908447 0.1137095 0.2411545 0.3303198 0.1263472 0.2432644 0.2574364 0.1341295 0.2277432 0.1548994 0.002083003 0.03001177 0.5266027 0.1021458 0.1412583 0.4476649 0.1300069 0.1780565 0.4007491 0.1447248 0.1900768 0.3419662 0.1608095 0.18651 0.2703771 0.1707143 0.1674931 0.1686372 0.002452552 0.02945494 0.5267978 0.1201107 0.1141893 0.4571471 0.1528719 0.1251273 0.4128176 0.1701782 0.1278386 0.3561573 0.1890919 0.1173546 0.2861455 0.2007389 0.09407806 0.1853768 0.00272715 0.02881968 0.5270203 0.1334599 0.08330667 0.4679653 0.1698622 0.08516907 0.4265865 0.1997368 0.0800209 0.3723478 0.2101077 0.06805992 0.3041355 0.2142532 0.04974573 0.2044749 0.002896249 0.02813035 0.5272617 0.1416803 0.04979693 0.4797037 0.1803247 0.04251933 0.4415267 0.2120395 0.02987009 0.3899155 0.2230491 0.0123353 0.3236557 0.2367877 -0.009411096 0.2251974 0.00295335 0.02741348 0.5275129 0.1444559 0.01494801 0.4919112 0.1838575 -0.001834928 0.4570639 0.002896249 0.02669662 0.527764 0.1416803 -0.01990091 0.5041188 0.1803247 -0.04618918 0.4726012 0.00272715 0.02600729 0.5280055 0.1334599 -0.05341058 0.5158572 0.1698622 -0.08883893 0.4875413 0.1997368 -0.1245909 0.444023 0.2101077 -0.1592925 0.3837767 0.2230491 -0.1916103 0.2890216 0.002452552 0.02537196 0.528228 0.1201107 -0.0842933 0.5266754 0.1528719 -0.1281452 0.5013102 0.1797583 -0.1708102 0.4602136 0.1890919 -0.2106486 0.4017667 0.2007389 -0.2461296 0.3081196 0.002083003 0.02481514 0.5284231 0.1021457 -0.1113622 0.5361576 0.1300069 -0.1625974 0.5133788 0.1528719 -0.2113217 0.4744047 0.1608095 -0.2556626 0.417535 0.1707144 -0.2939162 0.3107387 0.00163269 0.02435815 0.5285831 0.08025538 -0.1335771 0.5439394 0.1021457 -0.1908715 0.5232832 0.1201106 -0.2445686 0.486051 0.1263472 -0.2926046 0.4304758 0.1341294 -0.3331336 0.31318 0.001118957 0.02401858 0.5287021 0.05528086 -0.1500843 0.5497218 0.07035917 -0.2118812 0.5306429 0.08273363 -0.2692733 0.494705 0.08702945 -0.3200551 0.4400916 0.09238994 -0.3375627 0.3158574 5.61541e-4 0.02380949 0.5287753 0.02818191 -0.1602494 0.5532826 0.03586876 -0.2248188 0.5351749 0.0421772 -0.2844864 0.5000342 0.04436725 -0.3369589 0.446013 0.04709994 -0.3397693 0.3164955 -1.81871e-5 0.02373892 0.5288001 0 -0.1636817 0.554485 0 -0.2291873 0.5367051 0 -0.2896232 0.5018336 0 -0.3426666 0.4480124 0 -0.3458285 0.3157941 -5.97915e-4 0.02380949 0.5287753 -0.02818191 -0.1602494 0.5532826 -0.03586882 -0.2248188 0.5351749 -0.04217725 -0.2844863 0.5000342 -0.04436713 -0.3369589 0.446013 -0.04709994 -0.3397692 0.3164955 -0.001155316 0.02401858 0.5287021 -0.05528086 -0.1500843 0.5497218 -0.07035917 -0.2118812 0.5306429 -0.08273369 -0.2692732 0.494705 -0.08702939 -0.3200551 0.4400916 -0.09238988 -0.3375626 0.3158574 -0.001669108 0.02435815 0.5285831 -0.08025538 -0.1335771 0.5439394 -0.1021457 -0.1908715 0.5232832 -0.1201106 -0.2445684 0.486051 -0.1263471 -0.2926046 0.4304757 -0.1341294 -0.3331335 0.31318 -0.002119362 0.02481514 0.5284231 -0.1021457 -0.1113622 0.5361576 -0.1300069 -0.1625973 0.5133787 -0.1528719 -0.2113215 0.4744046 -0.1608093 -0.2556626 0.417535 -0.1707143 -0.2939161 0.3107387 -0.00248897 0.02537196 0.528228 -0.1201107 -0.0842933 0.5266754 -0.1528719 -0.1281451 0.5013102 -0.1797583 -0.1708101 0.4602135 -0.1890918 -0.2106486 0.4017667 -0.2007387 -0.2461295 0.3081195 -0.002763569 0.02600729 0.5280055 -0.1334598 -0.05341058 0.5158572 -0.1698622 -0.08883887 0.4875413 -0.1997367 -0.1245908 0.444023 -0.2101076 -0.1592925 0.3837767 -0.2230489 -0.1916102 0.2890215 -0.002932667 0.02669662 0.527764 -0.1416802 -0.01990085 0.5041188 -0.1803247 -0.04618912 0.4726011 -0.002989768 0.02741348 0.5275129 -0.1444559 0.01494801 0.4919112 -0.1838575 -0.001834869 0.4570639 -0.002932667 0.02813035 0.5272617 -0.1416802 0.04979693 0.4797037 -0.1803247 0.04251933 0.4415267 -0.2120393 0.02987009 0.3899155 -0.223049 0.0123353 0.3236557 -0.2367874 -0.009411036 0.2251974 -0.002763569 0.02881968 0.5270203 -0.1334598 0.08330661 0.4679653 -0.1698621 0.08516907 0.4265865 -0.1997366 0.0800209 0.3723478 -0.2101076 0.06805986 0.3041355 -0.2142531 0.04974573 0.2044749 -0.00248897 0.02945494 0.5267978 -0.1201106 0.1141893 0.4571471 -0.1528719 0.1251273 0.4128176 -0.170178 0.1278385 0.3561573 -0.1890918 0.1173545 0.2861455 -0.2007386 0.094078 0.1853768 -0.002119362 0.03001177 0.5266027 -0.1021457 0.1412582 0.4476649 -0.1300069 0.1780565 0.4007491 -0.1447245 0.1900767 0.3419662 -0.1608093 0.1865099 0.2703772 -0.1707142 0.1674929 0.1686372 -0.001669108 0.03046876 0.5264426 -0.08025532 0.1634731 0.4398831 -0.1021456 0.2214944 0.3908447 -0.1137093 0.2411543 0.3303198 -0.1263471 0.2432643 0.2574364 -0.1341292 0.227743 0.1548994 -0.001155316 0.03080832 0.5263237 -0.0552808 0.1799802 0.4341007 -0.07035917 0.2537717 0.3834851 -0.07832425 0.2791083 0.3216658 -0.08702933 0.2854365 0.2478206 -0.09238982 0.2725128 0.1446914 -5.97915e-4 0.03101742 0.5262504 -0.02818191 0.1901453 0.4305399 -0.03586876 0.2736479 0.378953 -0.03992933 0.3024802 0.3163367 -0.04436713 0.3114061 0.2418991 -0.04709982 0.300082 0.1384052 0 0.3093914 -0.02459949 0.04709994 0.3000824 -0.02460557 0.09239006 0.2725133 -0.02462351 0.1341295 0.2277433 -0.02465265 0.1707143 0.1674931 -0.02469187 0.2007389 0.09407806 -0.02473968 0.2142532 0.04974573 -0.02479422 0.2367877 -0.009411096 -0.0248534 -0.2367874 -0.009411036 -0.0248534 -0.2142531 0.04974573 -0.02479422 -0.2007386 0.094078 -0.02473968 -0.1707142 0.167493 -0.02469187 -0.1341292 0.227743 -0.02465265 -0.09238982 0.2725129 -0.02462351 -0.04709982 0.300082 -0.02460557</float_array>
          <technique_common>
            <accessor source="#Esfera_012-mesh-positions-array" count="195" stride="3">
              <param name="X" type="float"/>
              <param name="Y" type="float"/>
              <param name="Z" type="float"/>
            </accessor>
          </technique_common>
        </source>
        <source id="Esfera_012-mesh-normals">
          <float_array id="Esfera_012-mesh-normals-array" count="615">-4.3743e-6 0.9614801 0.2748746 0.3583875 0.9334077 0.01756525 -2.69107e-6 0.9999497 0.01003956 0.3687018 0.9284558 -0.04504448 -4.01806e-6 0.9987142 -0.05069446 -7.34107e-5 0.5121285 0.8589089 0.06370407 0.5218476 0.8506568 -4.61501e-7 0.5172223 0.8558512 0.1054025 0.5115483 0.8527655 -1.15931e-6 0.513374 0.858165 -2.70172e-6 0.9038848 0.427776 0.3245753 0.9063034 0.2706754 0.3040837 0.859705 0.4104148 0.5750445 0.7758098 0.2596983 0.6243923 0.7802752 0.03612184 0.6385835 0.7689145 -0.03133034 0.05233711 0.5080234 0.8597518 0.1409034 0.5310267 0.8355578 0.2168887 0.5073549 0.8339967 0.1022834 0.4959529 0.8623045 0.2426458 0.5339226 0.8099691 0.3469434 0.499042 0.7940953 0.5479664 0.749754 0.3709473 0.7394988 0.6260612 0.2473638 0.7875754 0.6133134 0.05976438 0.8019552 0.597197 -0.01495498 0.8808876 0.4654735 0.08585685 0.8951176 0.4458283 0.001351237 0.1475123 0.4767689 0.8665631 0.3607364 0.5173019 0.7760593 0.6896705 0.4985103 0.5252068 0.7156949 0.6155998 0.3298755 0.8400667 0.486317 0.2403826 0.1861225 0.4517136 0.8725327 0.437796 0.4972905 0.749024 0.7345679 0.4879411 0.471512 0.855428 0.4738978 0.2089589 0.9132385 0.3979548 0.08733659 0.9416695 0.3362717 0.01341056 0.9325187 0.356384 0.05830413 0.9422549 0.3348959 -7.52927e-4 0.2170627 0.4220727 0.8801923 0.4772006 0.4289079 0.7670188 0.7477915 0.4264342 0.5088829 0.8785232 0.4250723 0.217969 0.2395184 0.3893026 0.8894237 0.4984063 0.3577905 0.789669 0.7472892 0.3441375 0.5684437 0.9120707 0.3154879 0.2619054 0.9624199 0.2570037 0.08773297 0.9427322 0.3334991 0.005869567 0.2530552 0.3547267 0.9000734 0.5032014 0.2870892 0.8150879 0.6981431 0.2343506 0.6765176 0.4919531 0.2182077 0.8428331 0.6804225 0.1371734 0.7198671 0.2530686 0.2844927 0.924673 0.2395453 0.2507986 0.9379329 0.4648392 0.1524428 0.872173 0.688475 -0.006992757 0.7252265 0.4219282 0.09117084 0.9020336 0.6678161 -0.103829 0.7370491 0.8493519 -0.1953704 0.4903386 0.8170218 -0.2591829 0.5150725 0.9184637 -0.2836073 0.2756655 0.8819676 -0.3532121 0.3120488 0.8824625 -0.4000638 0.2474042 0.9264611 -0.2990677 0.2285352 0.2171583 0.2194243 0.9511548 0.1861864 0.1915156 0.9636682 0.3633733 0.03600287 0.9309477 0.5807138 -0.1940296 0.7906479 0.7172483 -0.3704041 0.5902166 0.7861242 -0.4940172 0.3714241 0.7700231 -0.579218 0.2675275 0.4676412 -0.2730041 0.8407023 0.5827327 -0.4690065 0.6636683 0.637499 -0.6593601 0.3985466 0.4341065 -0.8421872 0.3198004 0.1474624 0.1681778 0.9746646 0.2897128 -0.01107102 0.9570496 0.1022866 0.1505555 0.9832957 0.2023671 -0.04763633 0.9781506 0.3295234 -0.3358484 0.8823946 0.4135506 -0.5480067 0.7270933 0.4649946 -0.8008978 0.3772837 0.146737 -0.9636277 0.2233605 0.1707364 -0.3768692 0.9103948 0.2153887 -0.5993973 0.7709284 0.2326948 -0.6919728 0.6833937 0.1246469 -0.9896081 0.07168757 0.05239397 0.13953 0.9888308 0.1042248 -0.07106769 0.9920114 -1.45764e-5 0.1357757 0.9907396 1.12573e-6 -0.07917308 0.996861 2.44165e-7 -0.3911945 0.9203081 0 -0.6172192 0.7867913 1.2403e-7 -0.7122337 0.7019425 0.2438251 -0.9694717 0.025963 -7.78813e-7 -0.9997049 0.02429348 -0.2326949 -0.691973 0.6833934 -0.2438254 -0.9694716 0.02596271 -0.1246476 -0.989608 0.07168734 -0.1042236 -0.07107156 0.9920113 -0.1707361 -0.3768694 0.9103949 -0.215389 -0.5993973 0.7709283 -0.05240982 0.1395209 0.9888313 -0.2023699 -0.04764479 0.9781496 -0.3295236 -0.3358486 0.8823944 -0.4135513 -0.5480064 0.7270931 -0.4649953 -0.8008974 0.3772835 -0.1467372 -0.9636277 0.2233605 -0.6374995 -0.6593598 0.3985462 -0.4341073 -0.8421867 0.3198008 -0.1023009 0.1505394 0.9832968 -0.2897208 -0.01108217 0.9570472 -0.4676424 -0.273004 0.8407018 -0.5827335 -0.4690066 0.6636676 -0.1474744 0.1681557 0.9746666 -0.3633866 0.03598898 0.9309431 -0.5807143 -0.1940296 0.7906475 -0.7172485 -0.3704044 0.5902162 -0.7861239 -0.4940176 0.371424 -0.7700233 -0.5792177 0.2675275 -0.8824627 -0.400064 0.2474038 -0.1861764 0.191493 0.9636746 -0.4219475 0.09115749 0.9020259 -0.6678158 -0.1038292 0.7370493 -0.8170222 -0.2591829 0.5150721 -0.8819675 -0.3532125 0.3120488 -0.6884748 -0.00699228 0.7252266 -0.8493524 -0.1953697 0.4903379 -0.9184638 -0.2836069 0.2756653 -0.9264613 -0.2990679 0.2285345 -0.2171535 0.2194042 0.9511604 -0.4648609 0.1524313 0.8721634 -0.2395853 0.2507804 0.9379277 -0.4919782 0.2181982 0.8428209 -0.6804224 0.1371731 0.7198674 -0.698143 0.2343515 0.6765174 -0.2531341 0.2844793 0.9246593 -0.5032269 0.2870845 0.8150737 -0.2531172 0.3547316 0.9000541 -0.4984309 0.3577895 0.7896541 -0.747289 0.3441383 0.5684435 -0.9120708 0.3154883 0.261905 -0.747792 0.4264341 0.5088824 -0.8785233 0.4250726 0.2179683 -0.9624199 0.2570039 0.08773285 -0.9325186 0.3563845 0.05830448 -0.9427325 0.3334984 0.005869507 -0.9422548 0.3348962 -7.53232e-4 -0.2395735 0.3893194 0.8894014 -0.4772229 0.428911 0.767003 -0.2171314 0.4220921 0.880166 -0.4378133 0.4972968 0.7490097 -0.7345686 0.4879409 0.4715111 -0.8554282 0.4738981 0.2089575 -0.9132382 0.3979554 0.08733713 -0.9416693 0.3362724 0.01340997 -0.8400667 0.4863173 0.2403817 -0.8808873 0.4654742 0.08585751 -0.8951174 0.4458287 0.00135076 -0.1861762 0.4517398 0.8725076 -0.3607487 0.5173103 0.776048 -0.6896713 0.498511 0.525205 -0.1475746 0.4767966 0.8665372 -0.2426536 0.533931 0.809961 -0.3469436 0.4990422 0.7940952 -0.7156956 0.6156005 0.3298727 -0.7394987 0.6260613 0.2473639 -0.7875749 0.613314 0.05976426 -0.8019545 0.5971981 -0.01495581 -0.575044 0.7758103 0.2596979 -0.6243919 0.7802757 0.03612136 -0.6385836 0.7689145 -0.03133112 -0.1023768 0.4959644 0.8622868 -0.1409052 0.5310338 0.8355531 -0.2168881 0.5073553 0.8339966 -0.547967 0.7497546 0.370945 -0.05243241 0.5080296 0.8597423 -0.06370407 0.5218517 0.8506543 -0.1054034 0.5115485 0.8527652 -0.3040851 0.8597059 0.4104122 -0.324579 0.9063019 0.270676 -0.3583902 0.9334066 0.01756507 -0.3687059 0.9284541 -0.04504495 -0.9344961 0.3559736 0 0.9344958 0.3559746 0 0.9460593 0.3239939 0 0.9420771 0.3353968 0 0.8929542 0.4501477 0 0.7972874 0.6035999 3.4089e-7 0.6316281 0.7752715 5.75043e-7 0.3625476 0.9319654 6.50199e-7 -0.6316279 0.7752718 2.23396e-7 -4.79588e-6 1 7.37435e-7 -0.8929539 0.4501481 1.72115e-7 -0.946059 0.3239947 0 -0.7972862 0.6036016 2.14722e-7 -0.3625523 0.9319635 2.99508e-7 -0.9420767 0.3353977 0 0.2575878 0.3194379 0.9119254 0 -0.9997142 0.02390766 -0.257647 0.3194342 0.91191</float_array>
          <technique_common>
            <accessor source="#Esfera_012-mesh-normals-array" count="205" stride="3">
              <param name="X" type="float"/>
              <param name="Y" type="float"/>
              <param name="Z" type="float"/>
            </accessor>
          </technique_common>
        </source>
        <source id="Esfera_012-mesh-map-0">
          <float_array id="Esfera_012-mesh-map-0-array" count="1872">0.03830987 0.5516622 0.1553691 0.6694904 0.03830665 0.6695236 0.03830665 0.6695236 0.1553488 0.787351 0.03830903 0.7873883 0.03830099 0.1834897 0.1553472 0.4615678 0.03830987 0.461567 0.03830903 0.3159353 0.1553318 0.4337627 0.0383107 0.4337975 0.0383107 0.4337975 0.1553375 0.5516266 0.03830987 0.5516622 0.1553318 0.4337627 0.2745112 0.5515902 0.1553375 0.5516266 0.1553375 0.5516266 0.2744868 0.6694532 0.1553691 0.6694904 0.1553691 0.6694904 0.2745031 0.7873162 0.1553488 0.787351 0.1554476 0.1834897 0.2745031 0.4615686 0.1553472 0.4615678 0.1553472 0.3158997 0.274516 0.4337279 0.1553318 0.4337627 0.2744286 0.1834889 0.3941535 0.4615702 0.2745031 0.4615686 0.2745031 0.3158633 0.3940887 0.4336915 0.274516 0.4337279 0.274516 0.4337279 0.3941114 0.5515546 0.2745112 0.5515902 0.2745112 0.5515902 0.394236 0.6694176 0.2744868 0.6694532 0.2744868 0.6694532 0.3941567 0.7872798 0.2745031 0.7873162 0.3941114 0.5515546 0.5117963 0.6693803 0.394236 0.6694176 0.394236 0.6694176 0.5117202 0.7872442 0.3941567 0.7872798 0.3945356 0.1834889 0.5117154 0.461571 0.3941535 0.4615702 0.3941535 0.3158285 0.5116522 0.4336567 0.3940887 0.4336915 0.3940887 0.4336915 0.5116749 0.5515173 0.3941114 0.5515546 0.512091 0.1834889 0.6315601 0.4615718 0.5117154 0.461571 0.5117154 0.3157929 0.6315131 0.4336203 0.5116522 0.4336567 0.5116522 0.4336567 0.631531 0.5514825 0.5116749 0.5515173 0.5116749 0.5515173 0.6316232 0.6693455 0.5117963 0.6693803 0.5117202 0.7872442 0.6316232 0.6693455 0.6315633 0.7872077 0.631531 0.5514825 0.7544113 0.6693107 0.6316232 0.6693455 0.6316232 0.6693455 0.7543692 0.7871738 0.6315633 0.7872077 0.631845 0.1834889 0.754366 0.4615734 0.6315601 0.4615718 0.6315601 0.3157572 0.7543304 0.4335838 0.6315131 0.4336203 0.6315131 0.4336203 0.7543433 0.5514469 0.631531 0.5514825 0.7545765 0.1834889 0.8645095 0.4615743 0.754366 0.4615734 0.754366 0.3157208 0.8643428 0.433549 0.7543304 0.4335838 0.7543304 0.4335838 0.8644011 0.5514104 0.7543433 0.5514469 0.7543433 0.5514469 0.8647265 0.6692743 0.7544113 0.6693107 0.8622753 0.6693107 0.9834816 0.7871373 0.8625991 0.7871738 0.8655084 0.1834889 0.9858 0.461575 0.8655684 0.4615743 0.8656267 0.433549 0.9858 0.3156496 0.9858453 0.4335118 0.03745907 0.4048616 0.1554937 0.2869638 0.1555779 0.4048252 0.03734898 0.4624429 0.1555002 0.1834306 0.1554937 0.4624437 0.1554937 0.4624437 0.274257 0.1834306 0.2742586 0.4624445 0.1555779 0.4048252 0.2742586 0.2869274 0.2742343 0.4047904 0.2742343 0.4047904 0.3936402 0.2868925 0.3936241 0.4047539 0.2743363 0.5226526 0.3936241 0.4047539 0.3936888 0.5226162 0.2744383 0.6405181 0.3936888 0.5226162 0.3937552 0.6404808 0.2744383 0.6405181 0.393739 0.7583431 0.274414 0.7583795 0.2742586 0.4624445 0.3936386 0.1834306 0.3936402 0.4624461 0.3936402 0.4624461 0.512894 0.1834306 0.512894 0.4624469 0.3936241 0.4047539 0.512894 0.2868561 0.5128762 0.4047183 0.3936888 0.5226162 0.5128762 0.4047183 0.5129572 0.5225813 0.3937552 0.6404808 0.5129572 0.5225813 0.5130397 0.6404444 0.393739 0.7583431 0.5130397 0.6404444 0.5130203 0.7583075 0.5129572 0.5225813 0.6333507 0.4046835 0.6332924 0.5225458 0.5130397 0.6404444 0.6332924 0.5225458 0.6332309 0.640408 0.5130203 0.7583075 0.6332309 0.640408 0.6332455 0.7582718 0.512894 0.4624469 0.6333377 0.1834306 0.6333377 0.4624477 0.5128762 0.4047183 0.6333377 0.2868189 0.6333507 0.4046835 0.6333377 0.4624477 0.7537103 0.1834306 0.7537103 0.4624493 0.6333507 0.4046835 0.7537103 0.2867849 0.7537087 0.4046471 0.6332924 0.5225458 0.7537087 0.4046471 0.7537168 0.5225117 0.6332309 0.640408 0.7537168 0.5225117 0.7537233 0.6403716 0.6332309 0.640408 0.7537216 0.7582353 0.6332455 0.7582718 0.7537168 0.5225117 0.8646811 0.4046106 0.8645468 0.5224745 0.7537233 0.6403716 0.8645468 0.5224745 0.864414 0.6403368 0.7537233 0.6403716 0.8644464 0.7581998 0.7537216 0.7582353 0.7537103 0.4624493 0.864652 0.1834298 0.8646488 0.4624502 0.7537087 0.4046471 0.8646488 0.2867476 0.8646811 0.4046106 0.8646488 0.4624502 0.9819597 0.1834298 0.9819614 0.4624509 0.8646811 0.4046106 0.9819614 0.2867128 0.9819257 0.4045758 0.8645468 0.5224745 0.9819257 0.4045758 0.9820795 0.5224381 0.864414 0.6403368 0.9820795 0.5224381 0.9822333 0.6403011 0.864414 0.6403368 0.9821961 0.758165 0.8644464 0.7581998 0.03891378 0.5301924 0.1549853 0.6480133 0.03764367 0.6480554 0.03865796 0.7659177 0.1549853 0.6480133 0.1557592 0.7658764 0.03815203 0.183446 0.155276 0.4622178 0.0380249 0.4622162 0.0380249 0.2944671 0.1551788 0.4122881 0.03789865 0.4123293 0.03789865 0.4123293 0.1559535 0.5301519 0.03891378 0.5301924 0.1553731 0.183446 0.2745403 0.4622187 0.155276 0.4622178 0.1552751 0.294425 0.2745678 0.4122468 0.1551788 0.4122881 0.1551788 0.4122881 0.2743395 0.5301082 0.1559535 0.5301519 0.1559535 0.5301519 0.2746261 0.6479712 0.1549853 0.6480133 0.1557592 0.7658764 0.2746261 0.6479712 0.2743962 0.7658351 0.2743962 0.7658351 0.3940191 0.6479299 0.3938701 0.765793 0.2745112 0.183446 0.3939625 0.4622203 0.2745403 0.4622187 0.2745403 0.2943837 0.3939802 0.4122047 0.2745678 0.4122468 0.2745678 0.4122468 0.3938329 0.5300669 0.2743395 0.5301082 0.2743395 0.5301082 0.3940191 0.6479299 0.2746261 0.6479712 0.3939446 0.183446 0.513472 0.4622219 0.3939625 0.4622203 0.3939625 0.2943425 0.5134947 0.4121626 0.3939802 0.4122047 0.3939802 0.4122047 0.5133118 0.5300256 0.3938329 0.5300669 0.3938329 0.5300669 0.5135416 0.6478894 0.3940191 0.6479299 0.3940191 0.6479299 0.5133571 0.7657509 0.3938701 0.765793 0.5135416 0.6478894 0.6328731 0.7657129 0.5133571 0.7657509 0.5134493 0.1834452 0.6327889 0.4622226 0.513472 0.4622219 0.513472 0.2943004 0.6327728 0.4121213 0.5134947 0.4121626 0.5134947 0.4121626 0.6329071 0.5299844 0.5133118 0.5300256 0.5133118 0.5300256 0.6327387 0.6478482 0.5135416 0.6478894 0.6327889 0.2942582 0.7537896 0.4120808 0.6327728 0.4121213 0.6327728 0.4121213 0.7537751 0.5299447 0.6329071 0.5299844 0.6329071 0.5299844 0.7537944 0.6478061 0.6327387 0.6478482 0.6328731 0.7657129 0.7537944 0.6478061 0.7537783 0.7656691 0.6328067 0.1834452 0.753788 0.4622243 0.6327889 0.4622226 0.7537864 0.1834452 0.8628614 0.4622251 0.753788 0.4622243 0.753788 0.2942178 0.8628225 0.4120395 0.7537896 0.4120808 0.8628614 0.2941757 0.9843996 0.4119974 0.8628225 0.4120395 0.8628986 0.1834452 0.9843559 0.4622267 0.8628614 0.4622251 0.03831231 0.4622267 0.1553512 0.1834452 0.1553334 0.4622275 0.03831231 0.2941352 0.1553383 0.4119545 0.03831231 0.4119966 0.155344 0.52982 0.2744917 0.4119165 0.2744868 0.5297779 0.1553723 0.6476814 0.2744868 0.5297779 0.2744658 0.647641 0.1553544 0.7655453 0.2744658 0.647641 0.2744804 0.7655048 0.1553334 0.4622275 0.274482 0.1834452 0.2744966 0.4622291 0.1553383 0.4119545 0.2744966 0.2940534 0.2744917 0.4119165 0.2744966 0.4622291 0.3943591 0.1834452 0.3942878 0.46223 0.2744917 0.4119165 0.3942878 0.2940114 0.3943073 0.4118728 0.2744868 0.5297779 0.3943073 0.4118728 0.3943283 0.5297374 0.2744658 0.647641 0.3943283 0.5297374 0.3944384 0.6475996 0.2744804 0.7655048 0.3944384 0.6475996 0.3943688 0.7654627 0.3944384 0.6475996 0.5119809 0.5296953 0.5120894 0.6475576 0.3944384 0.6475996 0.5120214 0.7654206 0.3943688 0.7654627 0.3942878 0.46223 0.51201 0.1834452 0.511942 0.4622316 0.3943073 0.4118728 0.511942 0.2939684 0.5119615 0.4118315 0.3943283 0.5297374 0.5119615 0.4118315 0.5119809 0.5296953 0.511942 0.4622316 0.6318564 0.1834444 0.6318046 0.4622332 0.5119615 0.4118315 0.6318046 0.2939272 0.6318191 0.411791 0.5119809 0.5296953 0.6318191 0.411791 0.6318337 0.529654 0.5120894 0.6475576 0.6318337 0.529654 0.6319163 0.6475163 0.5120214 0.7654206 0.6319163 0.6475163 0.6318644 0.7653785 0.6319163 0.6475163 0.7546202 0.5296111 0.7546817 0.6474742 0.6318644 0.7653785 0.7546817 0.6474742 0.7546429 0.7653372 0.6318046 0.4622332 0.7546364 0.1834444 0.7545975 0.462234 0.6318191 0.411791 0.7545975 0.2938859 0.7546089 0.4117489 0.6318337 0.529654 0.7546089 0.4117489 0.7546202 0.5296111 0.7545975 0.462234 0.866046 0.1834444 0.8658614 0.4622356 0.7546089 0.4117489 0.8658614 0.2938438 0.8659148 0.411706 0.7546202 0.5296111 0.8659148 0.411706 0.8659667 0.5295699 0.7546817 0.6474742 0.8659667 0.5295699 0.866258 0.6474337 0.7546429 0.7653372 0.866258 0.6474337 0.8660735 0.7652967 0.8660735 0.7652967 0.9865334 0.6473916 0.9863893 0.7652546 0.8658614 0.4622356 0.9863683 0.1834444 0.9862242 0.4622364 0.8659148 0.411706 0.9862242 0.2938017 0.9862663 0.4116647 0.8659667 0.5295699 0.9862663 0.4116647 0.9863068 0.5295294 0.866258 0.6474337 0.9863068 0.5295294 0.9865334 0.6473916 0.2744804 0.3000511 0.1553561 0.8696555 0.1553561 0.3000487 0.8625991 0.3028795 0.9834816 0.868744 0.8625991 0.868961 0.5117202 0.2997823 0.6315633 0.8691633 0.5117202 0.8693803 0.2745031 0.2999726 0.3941567 0.8695924 0.2745031 0.8698093 0.6315633 0.299686 0.7543692 0.868961 0.6315633 0.8691633 0.3941567 0.2998763 0.5117202 0.8693803 0.3941567 0.8695924 0.1553504 0.3000641 0.2745031 0.8698093 0.1553504 0.8700166 0.8660735 0.3000608 0.7546429 0.868417 0.7546429 0.3000592 0.03830987 0.3001628 0.1553504 0.8700166 0.03830987 0.8702384 0.6318644 0.3000576 0.5120214 0.868914 0.5120214 0.3000552 0.3943688 0.3000527 0.2744804 0.8694151 0.2744804 0.3000511 0.7546429 0.3000592 0.6318644 0.8686631 0.6318644 0.3000576 0.9863893 0.3000633 0.8660735 0.8681758 0.8660735 0.3000608 0.5120214 0.3000552 0.3943688 0.8691641 0.3943688 0.3000527 0.03830987 0.5516622 0.1553375 0.5516266 0.1553691 0.6694904 0.03830665 0.6695236 0.1553691 0.6694904 0.1553488 0.787351 0.03830099 0.1834897 0.1554476 0.1834897 0.1553472 0.4615678 0.03830903 0.3159353 0.1553472 0.3158997 0.1553318 0.4337627 0.0383107 0.4337975 0.1553318 0.4337627 0.1553375 0.5516266 0.1553318 0.4337627 0.274516 0.4337279 0.2745112 0.5515902 0.1553375 0.5516266 0.2745112 0.5515902 0.2744868 0.6694532 0.1553691 0.6694904 0.2744868 0.6694532 0.2745031 0.7873162 0.1554476 0.1834897 0.2744286 0.1834889 0.2745031 0.4615686 0.1553472 0.3158997 0.2745031 0.3158633 0.274516 0.4337279 0.2744286 0.1834889 0.3945356 0.1834889 0.3941535 0.4615702 0.2745031 0.3158633 0.3941535 0.3158285 0.3940887 0.4336915 0.274516 0.4337279 0.3940887 0.4336915 0.3941114 0.5515546 0.2745112 0.5515902 0.3941114 0.5515546 0.394236 0.6694176 0.2744868 0.6694532 0.394236 0.6694176 0.3941567 0.7872798 0.3941114 0.5515546 0.5116749 0.5515173 0.5117963 0.6693803 0.394236 0.6694176 0.5117963 0.6693803 0.5117202 0.7872442 0.3945356 0.1834889 0.512091 0.1834889 0.5117154 0.461571 0.3941535 0.3158285 0.5117154 0.3157929 0.5116522 0.4336567 0.3940887 0.4336915 0.5116522 0.4336567 0.5116749 0.5515173 0.512091 0.1834889 0.631845 0.1834889 0.6315601 0.4615718 0.5117154 0.3157929 0.6315601 0.3157572 0.6315131 0.4336203 0.5116522 0.4336567 0.6315131 0.4336203 0.631531 0.5514825 0.5116749 0.5515173 0.631531 0.5514825 0.6316232 0.6693455 0.5117202 0.7872442 0.5117963 0.6693803 0.6316232 0.6693455 0.631531 0.5514825 0.7543433 0.5514469 0.7544113 0.6693107 0.6316232 0.6693455 0.7544113 0.6693107 0.7543692 0.7871738 0.631845 0.1834889 0.7545765 0.1834889 0.754366 0.4615734 0.6315601 0.3157572 0.754366 0.3157208 0.7543304 0.4335838 0.6315131 0.4336203 0.7543304 0.4335838 0.7543433 0.5514469 0.7545765 0.1834889 0.8655084 0.1834889 0.8645095 0.4615743 0.754366 0.3157208 0.8645095 0.3156836 0.8643428 0.433549 0.7543304 0.4335838 0.8643428 0.433549 0.8644011 0.5514104 0.7543433 0.5514469 0.8644011 0.5514104 0.8647265 0.6692743 0.8622753 0.6693107 0.9832291 0.6692743 0.9834816 0.7871373 0.8655084 0.1834889 0.9857531 0.1834889 0.9858 0.461575 0.8656267 0.433549 0.8655684 0.3156836 0.9858 0.3156496 0.03745907 0.4048616 0.03734898 0.2869994 0.1554937 0.2869638 0.03734898 0.4624429 0.03735786 0.1834306 0.1555002 0.1834306 0.1554937 0.4624437 0.1555002 0.1834306 0.274257 0.1834306 0.1555779 0.4048252 0.1554937 0.2869638 0.2742586 0.2869274 0.2742343 0.4047904 0.2742586 0.2869274 0.3936402 0.2868925 0.2743363 0.5226526 0.2742343 0.4047904 0.3936241 0.4047539 0.2744383 0.6405181 0.2743363 0.5226526 0.3936888 0.5226162 0.2744383 0.6405181 0.3937552 0.6404808 0.393739 0.7583431 0.2742586 0.4624445 0.274257 0.1834306 0.3936386 0.1834306 0.3936402 0.4624461 0.3936386 0.1834306 0.512894 0.1834306 0.3936241 0.4047539 0.3936402 0.2868925 0.512894 0.2868561 0.3936888 0.5226162 0.3936241 0.4047539 0.5128762 0.4047183 0.3937552 0.6404808 0.3936888 0.5226162 0.5129572 0.5225813 0.393739 0.7583431 0.3937552 0.6404808 0.5130397 0.6404444 0.5129572 0.5225813 0.5128762 0.4047183 0.6333507 0.4046835 0.5130397 0.6404444 0.5129572 0.5225813 0.6332924 0.5225458 0.5130203 0.7583075 0.5130397 0.6404444 0.6332309 0.640408 0.512894 0.4624469 0.512894 0.1834306 0.6333377 0.1834306 0.5128762 0.4047183 0.512894 0.2868561 0.6333377 0.2868189 0.6333377 0.4624477 0.6333377 0.1834306 0.7537103 0.1834306 0.6333507 0.4046835 0.6333377 0.2868189 0.7537103 0.2867849 0.6332924 0.5225458 0.6333507 0.4046835 0.7537087 0.4046471 0.6332309 0.640408 0.6332924 0.5225458 0.7537168 0.5225117 0.6332309 0.640408 0.7537233 0.6403716 0.7537216 0.7582353 0.7537168 0.5225117 0.7537087 0.4046471 0.8646811 0.4046106 0.7537233 0.6403716 0.7537168 0.5225117 0.8645468 0.5224745 0.7537233 0.6403716 0.864414 0.6403368 0.8644464 0.7581998 0.7537103 0.4624493 0.7537103 0.1834306 0.864652 0.1834298 0.7537087 0.4046471 0.7537103 0.2867849 0.8646488 0.2867476 0.8646488 0.4624502 0.864652 0.1834298 0.9819597 0.1834298 0.8646811 0.4046106 0.8646488 0.2867476 0.9819614 0.2867128 0.8645468 0.5224745 0.8646811 0.4046106 0.9819257 0.4045758 0.864414 0.6403368 0.8645468 0.5224745 0.9820795 0.5224381 0.864414 0.6403368 0.9822333 0.6403011 0.9821961 0.758165 0.03891378 0.5301924 0.1559535 0.5301519 0.1549853 0.6480133 0.03865796 0.7659177 0.03764367 0.6480554 0.1549853 0.6480133 0.03815203 0.183446 0.1553731 0.183446 0.155276 0.4622178 0.0380249 0.2944671 0.1552751 0.294425 0.1551788 0.4122881 0.03789865 0.4123293 0.1551788 0.4122881 0.1559535 0.5301519 0.1553731 0.183446 0.2745112 0.183446 0.2745403 0.4622187 0.1552751 0.294425 0.2745403 0.2943837 0.2745678 0.4122468 0.1551788 0.4122881 0.2745678 0.4122468 0.2743395 0.5301082 0.1559535 0.5301519 0.2743395 0.5301082 0.2746261 0.6479712 0.1557592 0.7658764 0.1549853 0.6480133 0.2746261 0.6479712 0.2743962 0.7658351 0.2746261 0.6479712 0.3940191 0.6479299 0.2745112 0.183446 0.3939446 0.183446 0.3939625 0.4622203 0.2745403 0.2943837 0.3939625 0.2943425 0.3939802 0.4122047 0.2745678 0.4122468 0.3939802 0.4122047 0.3938329 0.5300669 0.2743395 0.5301082 0.3938329 0.5300669 0.3940191 0.6479299 0.3939446 0.183446 0.5134493 0.1834452 0.513472 0.4622219 0.3939625 0.2943425 0.513472 0.2943004 0.5134947 0.4121626 0.3939802 0.4122047 0.5134947 0.4121626 0.5133118 0.5300256 0.3938329 0.5300669 0.5133118 0.5300256 0.5135416 0.6478894 0.3940191 0.6479299 0.5135416 0.6478894 0.5133571 0.7657509 0.5135416 0.6478894 0.6327387 0.6478482 0.6328731 0.7657129 0.5134493 0.1834452 0.6328067 0.1834452 0.6327889 0.4622226 0.513472 0.2943004 0.6327889 0.2942582 0.6327728 0.4121213 0.5134947 0.4121626 0.6327728 0.4121213 0.6329071 0.5299844 0.5133118 0.5300256 0.6329071 0.5299844 0.6327387 0.6478482 0.6327889 0.2942582 0.753788 0.2942178 0.7537896 0.4120808 0.6327728 0.4121213 0.7537896 0.4120808 0.7537751 0.5299447 0.6329071 0.5299844 0.7537751 0.5299447 0.7537944 0.6478061 0.6328731 0.7657129 0.6327387 0.6478482 0.7537944 0.6478061 0.6328067 0.1834452 0.7537864 0.1834452 0.753788 0.4622243 0.7537864 0.1834452 0.8628986 0.1834452 0.8628614 0.4622251 0.753788 0.2942178 0.8628614 0.2941757 0.8628225 0.4120395 0.8628614 0.2941757 0.9843559 0.2941352 0.9843996 0.4119974 0.8628986 0.1834452 0.9843122 0.1834452 0.9843559 0.4622267 0.03831231 0.4622267 0.0383107 0.1834452 0.1553512 0.1834452 0.03831231 0.2941352 0.1553334 0.2940939 0.1553383 0.4119545 0.155344 0.52982 0.1553383 0.4119545 0.2744917 0.4119165 0.1553723 0.6476814 0.155344 0.52982 0.2744868 0.5297779 0.1553544 0.7655453 0.1553723 0.6476814 0.2744658 0.647641 0.1553334 0.4622275 0.1553512 0.1834452 0.274482 0.1834452 0.1553383 0.4119545 0.1553334 0.2940939 0.2744966 0.2940534 0.2744966 0.4622291 0.274482 0.1834452 0.3943591 0.1834452 0.2744917 0.4119165 0.2744966 0.2940534 0.3942878 0.2940114 0.2744868 0.5297779 0.2744917 0.4119165 0.3943073 0.4118728 0.2744658 0.647641 0.2744868 0.5297779 0.3943283 0.5297374 0.2744804 0.7655048 0.2744658 0.647641 0.3944384 0.6475996 0.3944384 0.6475996 0.3943283 0.5297374 0.5119809 0.5296953 0.3944384 0.6475996 0.5120894 0.6475576 0.5120214 0.7654206 0.3942878 0.46223 0.3943591 0.1834452 0.51201 0.1834452 0.3943073 0.4118728 0.3942878 0.2940114 0.511942 0.2939684 0.3943283 0.5297374 0.3943073 0.4118728 0.5119615 0.4118315 0.511942 0.4622316 0.51201 0.1834452 0.6318564 0.1834444 0.5119615 0.4118315 0.511942 0.2939684 0.6318046 0.2939272 0.5119809 0.5296953 0.5119615 0.4118315 0.6318191 0.411791 0.5120894 0.6475576 0.5119809 0.5296953 0.6318337 0.529654 0.5120214 0.7654206 0.5120894 0.6475576 0.6319163 0.6475163 0.6319163 0.6475163 0.6318337 0.529654 0.7546202 0.5296111 0.6318644 0.7653785 0.6319163 0.6475163 0.7546817 0.6474742 0.6318046 0.4622332 0.6318564 0.1834444 0.7546364 0.1834444 0.6318191 0.411791 0.6318046 0.2939272 0.7545975 0.2938859 0.6318337 0.529654 0.6318191 0.411791 0.7546089 0.4117489 0.7545975 0.462234 0.7546364 0.1834444 0.866046 0.1834444 0.7546089 0.4117489 0.7545975 0.2938859 0.8658614 0.2938438 0.7546202 0.5296111 0.7546089 0.4117489 0.8659148 0.411706 0.7546817 0.6474742 0.7546202 0.5296111 0.8659667 0.5295699 0.7546429 0.7653372 0.7546817 0.6474742 0.866258 0.6474337 0.8660735 0.7652967 0.866258 0.6474337 0.9865334 0.6473916 0.8658614 0.4622356 0.866046 0.1834444 0.9863683 0.1834444 0.8659148 0.411706 0.8658614 0.2938438 0.9862242 0.2938017 0.8659667 0.5295699 0.8659148 0.411706 0.9862663 0.4116647 0.866258 0.6474337 0.8659667 0.5295699 0.9863068 0.5295294 0.2744804 0.3000511 0.2744804 0.8694151 0.1553561 0.8696555 0.8625991 0.3028795 0.9834816 0.3027832 0.9834816 0.868744 0.5117202 0.2997823 0.6315633 0.299686 0.6315633 0.8691633 0.2745031 0.2999726 0.3941567 0.2998763 0.3941567 0.8695924 0.6315633 0.299686 0.7543692 0.299597 0.7543692 0.868961 0.3941567 0.2998763 0.5117202 0.2997823 0.5117202 0.8693803 0.1553504 0.3000641 0.2745031 0.2999726 0.2745031 0.8698093 0.8660735 0.3000608 0.8660735 0.8681758 0.7546429 0.868417 0.03830987 0.3001628 0.1553504 0.3000641 0.1553504 0.8700166 0.6318644 0.3000576 0.6318644 0.8686631 0.5120214 0.868914 0.3943688 0.3000527 0.3943688 0.8691641 0.2744804 0.8694151 0.7546429 0.3000592 0.7546429 0.868417 0.6318644 0.8686631 0.9863893 0.3000633 0.9863893 0.8679256 0.8660735 0.8681758 0.5120214 0.3000552 0.5120214 0.868914 0.3943688 0.8691641</float_array>
          <technique_common>
            <accessor source="#Esfera_012-mesh-map-0-array" count="936" stride="2">
              <param name="S" type="float"/>
              <param name="T" type="float"/>
            </accessor>
          </technique_common>
        </source>
        <vertices id="Esfera_012-mesh-vertices">
          <input semantic="POSITION" source="#Esfera_012-mesh-positions"/>
        </vertices>
        <triangles material="A-textura_libios_General-material" count="312">
          <input semantic="VERTEX" source="#Esfera_012-mesh-vertices" offset="0"/>
          <input semantic="NORMAL" source="#Esfera_012-mesh-normals" offset="1"/>
          <input semantic="TEXCOORD" source="#Esfera_012-mesh-map-0" offset="2" set="0"/>
          <p>3 0 0 10 1 1 4 2 2 4 2 3 11 3 4 5 4 5 0 5 6 7 6 7 1 7 8 1 7 9 8 8 10 2 9 11 2 10 12 9 11 13 3 0 14 8 12 15 15 13 16 9 11 17 9 11 18 16 14 19 10 1 20 10 1 21 17 15 22 11 3 23 6 16 24 13 17 25 7 6 26 7 6 27 14 18 28 8 8 29 12 19 30 19 20 31 13 17 32 13 17 33 20 21 34 14 18 35 14 22 36 21 23 37 15 13 38 15 13 39 22 24 40 16 14 41 16 14 42 23 25 43 17 15 44 21 23 45 28 26 46 22 24 47 22 24 48 29 27 49 23 25 50 18 28 51 25 29 52 19 20 53 19 20 54 26 30 55 20 21 56 20 31 57 27 32 58 21 23 59 24 33 60 31 34 61 25 29 62 25 29 63 32 35 64 26 30 65 26 30 66 33 36 67 27 32 68 27 32 69 34 37 70 28 26 71 29 27 72 34 37 73 35 38 74 33 36 75 40 39 76 34 37 77 34 37 78 41 40 79 35 38 80 30 41 81 37 42 82 31 34 83 31 34 84 38 43 85 32 35 86 32 35 87 39 44 88 33 36 89 36 45 90 43 46 91 37 42 92 37 42 93 44 47 94 38 43 95 38 43 96 45 48 97 39 44 98 39 44 99 46 49 100 40 39 101 40 39 102 47 50 103 41 40 104 42 51 105 49 52 106 43 46 107 44 47 108 49 52 109 50 53 110 50 53 111 52 54 112 53 55 113 49 52 114 51 56 115 52 54 116 52 54 117 54 57 118 55 58 119 53 55 120 55 58 121 56 59 122 56 59 123 61 60 124 62 61 125 57 62 126 62 61 127 63 63 128 58 64 129 63 63 130 64 65 131 58 64 132 65 66 133 59 67 134 55 58 135 60 68 136 61 60 137 61 60 138 66 69 139 67 70 140 62 61 141 67 70 142 68 71 143 63 63 144 68 71 145 69 72 146 64 65 147 69 72 148 70 73 149 65 66 150 70 73 151 71 74 152 69 72 153 74 75 154 75 76 155 70 73 156 75 76 157 76 77 158 71 74 159 76 77 160 77 78 161 67 70 162 72 79 163 73 80 164 68 71 165 73 80 166 74 75 167 73 80 168 78 81 169 79 82 170 74 75 171 79 82 172 80 83 173 75 76 174 80 83 175 81 84 176 76 77 177 81 84 178 82 85 179 76 77 180 83 86 181 77 78 182 81 84 183 86 87 184 87 88 185 82 85 186 87 88 187 88 89 188 82 85 189 89 90 190 83 86 191 79 82 192 84 91 193 85 92 194 80 83 195 85 92 196 86 87 197 85 92 198 90 93 199 91 94 200 86 87 201 91 94 202 92 95 203 87 88 204 92 95 205 93 96 206 88 89 207 93 96 208 94 97 209 88 98 210 95 99 211 89 90 212 93 96 213 100 100 214 94 97 215 95 99 216 100 101 217 101 102 218 90 93 219 97 103 220 91 94 221 91 94 222 98 104 223 92 95 224 92 95 225 99 105 226 93 96 227 96 106 228 103 107 229 97 103 230 97 103 231 104 108 232 98 104 233 98 104 234 105 109 235 99 105 236 99 105 237 106 110 238 100 100 239 101 102 240 106 110 241 107 111 242 107 111 243 112 112 244 113 113 245 102 114 246 109 115 247 103 107 248 103 107 249 110 116 250 104 108 251 104 108 252 111 117 253 105 109 254 105 109 255 112 112 256 106 110 257 108 118 258 115 119 259 109 115 260 109 115 261 116 120 262 110 116 263 110 116 264 117 121 265 111 117 266 111 117 267 118 122 268 112 112 269 112 112 270 119 123 271 113 113 272 118 122 273 125 124 274 119 123 275 114 125 276 121 126 277 115 119 278 115 119 279 122 127 280 116 120 281 116 120 282 123 128 283 117 121 284 117 121 285 124 129 286 118 122 287 121 126 288 128 130 289 122 127 290 122 127 291 129 131 292 123 128 293 123 128 294 130 132 295 124 129 296 125 124 297 130 132 298 131 133 299 120 134 300 127 135 301 121 126 302 126 136 303 133 137 304 127 135 305 127 135 306 134 138 307 128 130 308 133 137 309 137 139 310 134 138 311 132 140 312 136 141 313 133 137 314 136 141 315 138 142 316 139 143 317 136 141 318 140 144 319 137 139 320 141 145 321 146 146 322 147 147 323 142 148 324 147 147 325 148 149 326 143 150 327 148 149 328 149 151 329 139 143 330 144 152 331 145 153 332 140 144 333 145 153 334 146 146 335 145 153 336 150 154 337 151 155 338 146 146 339 151 155 340 152 156 341 147 147 342 152 156 343 153 157 344 148 149 345 153 157 346 154 158 347 149 151 348 154 158 349 155 159 350 154 158 351 159 160 352 160 161 353 154 158 354 161 162 355 155 159 356 151 155 357 156 163 358 157 164 359 152 156 360 157 164 361 158 165 362 153 157 363 158 165 364 159 160 365 157 164 366 162 166 367 163 167 368 158 165 369 163 167 370 164 168 371 159 160 372 164 169 373 165 170 374 160 161 375 165 170 376 166 171 377 161 162 378 166 171 379 167 172 380 166 171 381 171 173 382 172 174 383 167 172 384 172 174 385 173 175 386 163 167 387 168 176 388 169 177 389 164 168 390 169 177 391 170 178 392 165 170 393 170 179 394 171 173 395 169 177 396 174 180 397 175 181 398 170 178 399 175 181 400 176 182 401 171 173 402 176 183 403 177 184 404 172 174 405 177 184 406 178 185 407 173 175 408 178 185 409 179 186 410 179 186 411 4 2 412 5 4 413 175 181 414 0 5 415 1 7 416 176 182 417 1 7 418 2 9 419 177 184 420 2 10 421 3 0 422 178 185 423 3 0 424 4 2 425 149 151 426 188 187 427 143 150 428 41 40 429 187 188 430 186 189 431 29 27 432 185 190 433 184 191 434 17 15 435 183 192 436 182 193 437 35 38 438 186 189 439 185 190 440 23 25 441 184 191 442 183 192 443 11 3 444 182 193 445 181 194 446 179 186 447 193 195 448 173 175 449 5 4 450 181 194 451 180 196 452 167 172 453 191 197 454 161 162 455 155 159 456 189 198 457 149 151 458 173 175 459 192 199 460 167 172 461 5 4 462 194 200 463 179 186 464 161 162 465 190 201 466 155 159 467 3 0 468 9 11 469 10 1 470 4 2 471 10 1 472 11 3 473 0 5 474 6 16 475 7 6 476 1 7 477 7 6 478 8 8 479 2 10 480 8 12 481 9 11 482 8 12 483 14 22 484 15 13 485 9 11 486 15 13 487 16 14 488 10 1 489 16 14 490 17 15 491 6 16 492 12 19 493 13 17 494 7 6 495 13 17 496 14 18 497 12 19 498 18 28 499 19 20 500 13 17 501 19 20 502 20 21 503 14 22 504 20 31 505 21 23 506 15 13 507 21 23 508 22 24 509 16 14 510 22 24 511 23 25 512 21 23 513 27 32 514 28 26 515 22 24 516 28 26 517 29 27 518 18 28 519 24 33 520 25 29 521 19 20 522 25 29 523 26 30 524 20 31 525 26 30 526 27 32 527 24 33 528 30 41 529 31 34 530 25 29 531 31 34 532 32 35 533 26 30 534 32 35 535 33 36 536 27 32 537 33 36 538 34 37 539 29 27 540 28 26 541 34 37 542 33 36 543 39 44 544 40 39 545 34 37 546 40 39 547 41 40 548 30 41 549 36 45 550 37 42 551 31 34 552 37 42 553 38 43 554 32 35 555 38 43 556 39 44 557 36 45 558 42 51 559 43 46 560 37 42 561 43 46 562 44 47 563 38 43 564 44 47 565 45 48 566 39 44 567 45 48 568 46 49 569 40 39 570 46 49 571 47 50 572 42 51 573 48 202 574 49 52 575 44 47 576 43 46 577 49 52 578 50 53 579 49 52 580 52 54 581 49 52 582 48 202 583 51 56 584 52 54 585 51 56 586 54 57 587 53 55 588 52 54 589 55 58 590 56 59 591 55 58 592 61 60 593 57 62 594 56 59 595 62 61 596 58 64 597 57 62 598 63 63 599 58 64 600 64 65 601 65 66 602 55 58 603 54 57 604 60 68 605 61 60 606 60 68 607 66 69 608 62 61 609 61 60 610 67 70 611 63 63 612 62 61 613 68 71 614 64 65 615 63 63 616 69 72 617 65 66 618 64 65 619 70 73 620 69 72 621 68 71 622 74 75 623 70 73 624 69 72 625 75 76 626 71 74 627 70 73 628 76 77 629 67 70 630 66 69 631 72 79 632 68 71 633 67 70 634 73 80 635 73 80 636 72 79 637 78 81 638 74 75 639 73 80 640 79 82 641 75 76 642 74 75 643 80 83 644 76 77 645 75 76 646 81 84 647 76 77 648 82 85 649 83 86 650 81 84 651 80 83 652 86 87 653 82 85 654 81 84 655 87 88 656 82 85 657 88 98 658 89 90 659 79 82 660 78 81 661 84 91 662 80 83 663 79 82 664 85 92 665 85 92 666 84 91 667 90 93 668 86 87 669 85 92 670 91 94 671 87 88 672 86 87 673 92 95 674 88 89 675 87 88 676 93 96 677 88 98 678 94 203 679 95 99 680 93 96 681 99 105 682 100 100 683 95 99 684 94 203 685 100 101 686 90 93 687 96 106 688 97 103 689 91 94 690 97 103 691 98 104 692 92 95 693 98 104 694 99 105 695 96 106 696 102 114 697 103 107 698 97 103 699 103 107 700 104 108 701 98 104 702 104 108 703 105 109 704 99 105 705 105 109 706 106 110 707 101 102 708 100 101 709 106 110 710 107 111 711 106 110 712 112 112 713 102 114 714 108 118 715 109 115 716 103 107 717 109 115 718 110 116 719 104 108 720 110 116 721 111 117 722 105 109 723 111 117 724 112 112 725 108 118 726 114 125 727 115 119 728 109 115 729 115 119 730 116 120 731 110 116 732 116 120 733 117 121 734 111 117 735 117 121 736 118 122 737 112 112 738 118 122 739 119 123 740 118 122 741 124 129 742 125 124 743 114 125 744 120 134 745 121 126 746 115 119 747 121 126 748 122 127 749 116 120 750 122 127 751 123 128 752 117 121 753 123 128 754 124 129 755 121 126 756 127 135 757 128 130 758 122 127 759 128 130 760 129 131 761 123 128 762 129 131 763 130 132 764 125 124 765 124 129 766 130 132 767 120 134 768 126 136 769 127 135 770 126 136 771 132 140 772 133 137 773 127 135 774 133 137 775 134 138 776 133 137 777 136 141 778 137 139 779 132 140 780 135 204 781 136 141 782 136 141 783 135 204 784 138 142 785 136 141 786 139 143 787 140 144 788 141 145 789 140 144 790 146 146 791 142 148 792 141 145 793 147 147 794 143 150 795 142 148 796 148 149 797 139 143 798 138 142 799 144 152 800 140 144 801 139 143 802 145 153 803 145 153 804 144 152 805 150 154 806 146 146 807 145 153 808 151 155 809 147 147 810 146 146 811 152 156 812 148 149 813 147 147 814 153 157 815 149 151 816 148 149 817 154 158 818 154 158 819 153 157 820 159 160 821 154 158 822 160 161 823 161 162 824 151 155 825 150 154 826 156 163 827 152 156 828 151 155 829 157 164 830 153 157 831 152 156 832 158 165 833 157 164 834 156 163 835 162 166 836 158 165 837 157 164 838 163 167 839 159 160 840 158 165 841 164 169 842 160 161 843 159 160 844 165 170 845 161 162 846 160 161 847 166 171 848 166 171 849 165 170 850 171 173 851 167 172 852 166 171 853 172 174 854 163 167 855 162 166 856 168 176 857 164 168 858 163 167 859 169 177 860 165 170 861 164 169 862 170 179 863 169 177 864 168 176 865 174 180 866 170 178 867 169 177 868 175 181 869 171 173 870 170 179 871 176 183 872 172 174 873 171 173 874 177 184 875 173 175 876 172 174 877 178 185 878 179 186 879 178 185 880 4 2 881 175 181 882 174 180 883 0 5 884 176 182 885 175 181 886 1 7 887 177 184 888 176 183 889 2 10 890 178 185 891 177 184 892 3 0 893 149 151 894 189 198 895 188 187 896 41 40 897 47 50 898 187 188 899 29 27 900 35 38 901 185 190 902 17 15 903 23 25 904 183 192 905 35 38 906 41 40 907 186 189 908 23 25 909 29 27 910 184 191 911 11 3 912 17 15 913 182 193 914 179 186 915 194 200 916 193 195 917 5 4 918 11 3 919 181 194 920 167 172 921 192 199 922 191 197 923 155 159 924 190 201 925 189 198 926 173 175 927 193 195 928 192 199 929 5 4 930 180 196 931 194 200 932 161 162 933 191 197 934 190 201 935</p>
        </triangles>
      </mesh>
    </geometry>
  </library_geometries>
  <library_visual_scenes>
    <visual_scene id="Scene" name="Scene">
      <node id="a-hair_lib_03" name="a-hair_lib_03" type="NODE">
        <matrix sid="transform">1 0 0 0 0 1 0 0 0 0 1 0 0 0 0 1</matrix>
        <instance_geometry url="#Esfera_012-mesh" name="a-hair_lib_03">
          <bind_material>
            <technique_common>
              <instance_material symbol="A-textura_libios_General-material" target="#A-textura_libios_General-material">
                <bind_vertex_input semantic="MapaUV" input_semantic="TEXCOORD" input_set="0"/>
              </instance_material>
            </technique_common>
          </bind_material>
        </instance_geometry>
      </node>
    </visual_scene>
  </library_visual_scenes>
  <scene>
    <instance_visual_scene url="#Scene"/>
  </scene>
</COLLADA>