<?xml version="1.0" encoding="utf-8"?>
<COLLADA xmlns="http://www.collada.org/2005/11/COLLADASchema" version="1.4.1" xmlns:xsi="http://www.w3.org/2001/XMLSchema-instance">
  <asset>
    <contributor>
      <author>Blender User</author>
      <authoring_tool>Blender 4.3.1 commit date:2024-12-10, commit time:07:46, hash:33d812126174</authoring_tool>
    </contributor>
    <created>2026-08-08T11:11:54</created>
    <modified>2026-08-08T11:11:54</modified>
    <unit name="meter" meter="1"/>
    <up_axis>Z_UP</up_axis>
  </asset>
  <library_effects>
    <effect id="A-textura_Gétulos_General-effect">
      <profile_COMMON>
        <newparam sid="A-catálogo_unis_Gaetul-_FINAIS_png-surface">
          <surface type="2D">
            <init_from>A-catálogo_unis_Gaetul-_FINAIS_png</init_from>
          </surface>
        </newparam>
        <newparam sid="A-catálogo_unis_Gaetul-_FINAIS_png-sampler">
          <sampler2D>
            <source>A-catálogo_unis_Gaetul-_FINAIS_png-surface</source>
          </sampler2D>
        </newparam>
        <technique sid="common">
          <lambert>
            <emission>
              <color sid="emission">0 0 0 1</color>
            </emission>
            <diffuse>
              <texture texture="A-catálogo_unis_Gaetul-_FINAIS_png-sampler" texcoord="MapaUV"/>
            </diffuse>
            <index_of_refraction>
              <float sid="ior">1.45</float>
            </index_of_refraction>
          </lambert>
        </technique>
      </profile_COMMON>
    </effect>
  </library_effects>
  <library_images/>
  <library_materials>
    <material id="A-textura_Gétulos_General-material" name="A-textura Gétulos General">
      <instance_effect url="#A-textura_Gétulos_General-effect"/>
    </material>
  </library_materials>
  <library_geometries>
    <geometry id="Cubo_038-mesh" name="Cubo.038">
      <mesh>
        <source id="Cubo_038-mesh-positions">
          <float_array id="Cubo_038-mesh-positions-array" count="171">-0.8509609 -0.01264095 -0.6257395 -0.8509609 -0.2376706 1.37426 -0.8509609 0.3870732 -0.6257395 -0.8509609 0.3870732 1.37426 0.8509609 -0.01264095 -0.6257395 0.8509609 -0.2376706 1.37426 0.8509609 0.3870732 -0.6257395 0.8509609 0.3870732 1.37426 0 0.8602684 -0.6257395 0 0.8602684 1.37426 0 -0.09688496 1.37426 -0.4254804 0.7038405 -0.6257395 -0.4254804 -0.09688496 1.37426 -0.4254804 0.7038405 1.37426 0.4254804 0.7038405 1.37426 0.4254804 0.7038405 -0.6257395 0.4254804 -0.09677183 1.37426 -0.9551553 -0.3461909 0.3742603 -0.9551553 0.54901 0.3742604 0.9551553 0.54901 0.3742604 0.9551553 -0.3461909 0.3742604 0 1.080145 0.3742604 -0.4775776 0.9045633 0.3742604 0.4775776 0.9045633 0.3742604 -0.4926492 -1.442058 1.461088 -0.439358 -0.8075177 2.045883 0.4926409 -1.442058 1.461088 0.4393504 -0.8075177 2.045883 -4.15926e-6 -1.633908 1.633721 -3.8147e-6 -0.8304837 2.230654 -0.2463267 -1.633509 1.634137 -0.4443283 -0.7884464 1.936309 -0.2412465 -0.7086834 2.213227 0.4443204 -0.7884464 1.936309 0.2412388 -0.7086834 2.213227 0.1970038 -0.563179 2.153862 0.2463183 -1.633509 1.634137 -0.1970115 -0.563179 2.153862 -0.3096338 -1.225819 1.263771 -0.3158268 -0.440169 1.927117 0.3096258 -1.225819 1.263771 0.3158191 -0.440169 1.927117 -3.83673e-6 -0.4454454 2.045352 -0.1527765 -0.3923813 1.976912 0.1527688 -0.3923813 1.976912 -3.82571e-6 -0.6010697 2.15504 -0.4656162 -1.162871 1.806511 0.4656084 -1.162871 1.806511 0.358789 -0.6569134 2.038061 -0.5615559 -1.340538 1.368763 -3.94522e-6 -1.230632 2.108446 -0.2491175 -1.220698 2.118797 0.5615475 -1.340538 1.368763 -0.3587967 -0.6569134 2.038061 0.2491096 -1.220698 2.118797 0.3445543 -0.5421268 1.817738 -0.3445621 -0.5421268 1.817738</float_array>
          <technique_common>
            <accessor source="#Cubo_038-mesh-positions-array" count="57" stride="3">
              <param name="X" type="float"/>
              <param name="Y" type="float"/>
              <param name="Z" type="float"/>
            </accessor>
          </technique_common>
        </source>
        <source id="Cubo_038-mesh-normals">
          <float_array id="Cubo_038-mesh-normals-array" count="312">-0.9999666 0 0.00817275 -0.9946156 0 0.1036334 -1 0 3.07369e-6 0.4706215 0.8600287 0.1971455 0.5971693 0.8021153 0 0.4722253 0.881478 0 0.9946156 0 0.1036334 0.9999666 0 0.00817275 1 0 3.07502e-6 0 0 1 0 0 1 0 0 1 0 0 1 0 0 1 0 0 1 -0.4722253 0.881478 0 -0.3379466 0.9192077 0.202112 -0.345068 0.9385778 0 -0.5971693 0.8021153 0 -0.4706215 0.8600286 0.1971454 1.46323e-7 0 1 4.48465e-7 0 1 0.3379466 0.9192077 0.202112 0.3450679 0.9385778 0 0.3379466 0.9192077 -0.2021121 0.4706215 0.8600285 -0.1971455 -0.4706215 0.8600286 -0.1971455 -0.5864452 0.7877107 -0.1886637 -0.3379466 0.9192077 -0.2021121 0.9946157 0 -0.1036334 0.9946157 0 -0.1036334 0.5864452 0.7877106 -0.1886637 -0.9946157 0 -0.1036334 -0.9946157 0 -0.1036334 0.9621925 -0.2445456 -0.1199295 0.9542042 -0.2844042 -0.09278291 0.8926713 0.2637146 -0.3655032 -0.7600674 0.3467093 -0.5496276 -0.6898921 0.1945994 -0.6972662 -0.8926714 0.2637149 -0.3655027 0.03520625 0.254553 -0.9664179 -4.38676e-7 0.2105471 -0.9775837 -2.70815e-7 0.2920898 -0.9563909 0.6898925 0.1945989 -0.6972658 0.7600677 0.3467087 -0.5496275 0.9490371 -0.300439 -0.0952115 0.9070973 -0.3992233 -0.1333996 -0.6852964 -0.4307715 -0.5872008 -0.6869395 -0.4248844 -0.5895654 -0.6994599 -0.4047458 -0.5890134 -0.07712209 -0.3348839 -0.939098 0 -0.444303 -0.8958767 0 -0.3130324 -0.9497425 -0.03520691 0.254553 -0.9664177 -0.6179687 -0.5115497 -0.597019 -0.5265393 -0.6005721 -0.6017221 -0.04899209 -0.5055239 -0.8614206 0 -0.6653606 -0.7465221 0.04899209 -0.5055238 -0.8614206 -0.0554856 -0.7252898 -0.6862041 0.6179687 -0.5115497 -0.597019 0.5265395 -0.600572 -0.6017222 0.387652 -0.7097656 -0.5881826 -0.9070975 -0.3992232 -0.1333984 -0.9490373 -0.3004384 -0.09521025 -0.9621926 -0.2445459 -0.1199279 0.07712209 -0.3348839 -0.939098 0.6852964 -0.4307715 -0.5872008 0.6869395 -0.4248846 -0.5895653 -0.8742983 -0.3078279 0.3752928 -0.624127 -0.5919494 0.5099623 -0.5245729 -0.661868 0.5354942 -1.55016e-7 0.7614838 -0.648184 -9.33452e-4 0.7619259 -0.6476636 0 0.762129 -0.6474252 -0.9542043 -0.2844046 -0.09278106 0.7343934 0.5073202 -0.4508798 0.8217561 0.4100304 -0.3957174 9.33243e-4 0.7619258 -0.6476636 -0.9221776 0.2431343 -0.3007894 -0.8217561 0.4100309 -0.3957166 0.6241266 -0.5919499 0.5099623 0.8742982 -0.3078279 0.3752928 0.5245723 -0.6618687 0.5354941 -0.7343932 0.5073207 -0.4508796 0.9221773 0.2431341 -0.3007904 -0.9946156 -1.89786e-7 0.1036334 0.5864452 0.7877108 0.1886637 0.9946156 -1.89786e-7 0.1036334 -3.36349e-7 0 1 -0.5864452 0.7877107 0.1886636 -0.5986838 0.1363644 -0.7892923 0.1593682 0.1766813 -0.9712804 0.5986846 0.1363641 -0.7892919 0.9742686 -0.2194542 -0.05138891 -0.1593692 0.1766813 -0.9712803 -0.3876518 -0.7097659 -0.5881823 0.0554856 -0.7252898 -0.6862041 -0.9742687 -0.2194536 -0.0513876 0.69946 -0.4047456 -0.5890133 -0.9205958 -0.2163767 0.3250916 -0.003415584 0.7612849 -0.6484087 0.003415226 0.7612848 -0.6484085 0.920596 -0.2163764 0.3250916</float_array>
          <technique_common>
            <accessor source="#Cubo_038-mesh-normals-array" count="104" stride="3">
              <param name="X" type="float"/>
              <param name="Y" type="float"/>
              <param name="Z" type="float"/>
            </accessor>
          </technique_common>
        </source>
        <source id="Cubo_038-mesh-map-0">
          <float_array id="Cubo_038-mesh-map-0-array" count="480">0.1750928 0.812817 0.1914683 0.7990561 0.191468 0.812821 0.1925517 0.7990569 0.2018219 0.8128252 0.1925523 0.8128241 0.1750678 0.7990571 0.1914713 0.8128293 0.1750697 0.8128252 0.1771807 0.7988938 0.1991316 0.8058905 0.1771864 0.8058984 0.1771979 0.8199074 0.1991312 0.8128966 0.1991308 0.8199027 0.1740131 0.8128221 0.1832808 0.7990567 0.1832827 0.8128231 0.1647435 0.812821 0.17401 0.7990564 0.1740131 0.8128221 0.1771864 0.8058984 0.1991312 0.8128966 0.1771922 0.8129029 0.1772036 0.826912 0.1991308 0.8199027 0.1991304 0.8269087 0.1832808 0.7990567 0.1925523 0.8128241 0.1832827 0.8128231 0.1832845 0.8265896 0.1925523 0.8128241 0.1925529 0.8265914 0.1647435 0.812821 0.1740162 0.8265878 0.1647478 0.826586 0.1740131 0.8128221 0.1832845 0.8265896 0.1740162 0.8265878 0.1750697 0.8128252 0.1914711 0.8266004 0.1750716 0.8265932 0.1925529 0.8265914 0.2018219 0.8128252 0.2018213 0.8265932 0.1750947 0.8265788 0.191468 0.812821 0.1914677 0.826586 0.192556 0.81282 0.2018188 0.7990561 0.2018181 0.812821 0.1925523 0.8128242 0.2018226 0.7990571 0.2018219 0.8128252 0.1740131 0.8128222 0.1832808 0.7990567 0.1832827 0.8128232 0.1647391 0.7990561 0.1740131 0.8128222 0.1647435 0.812821 0.1833111 0.812819 0.2006545 0.7990557 0.2006557 0.81282 0.1652248 0.8199074 0.1743811 0.8269112 0.1652343 0.826912 0.1652057 0.8058984 0.1743671 0.8129013 0.1652153 0.8129029 0.1832808 0.7990567 0.1925523 0.8128242 0.1832827 0.8128232 0.1666079 0.8199062 0.1837494 0.8269103 0.166621 0.8269112 0.1665817 0.8058964 0.1837328 0.8128997 0.1665948 0.8129013 0.1666079 0.8199062 0.1837328 0.8128997 0.1837412 0.8199051 0.1665817 0.8058964 0.1837159 0.7988891 0.1837244 0.8058944 0.1658912 0.7990574 0.1832695 0.8128271 0.165897 0.812826 0.1652248 0.8199074 0.1743671 0.8129013 0.1743741 0.8199062 0.1652057 0.8058984 0.1743531 0.7988914 0.1743601 0.8058964 0.165897 0.812826 0.183273 0.8265967 0.1659029 0.826595 0.1832827 0.8128232 0.1925529 0.8265914 0.1832845 0.8265896 0.164713 0.7990571 0.1739945 0.812826 0.1647174 0.8128251 0.1647435 0.812821 0.1740162 0.8265878 0.1647478 0.826586 0.1740162 0.8265878 0.1832827 0.8128232 0.1832845 0.8265896 0.1647174 0.8128251 0.1739977 0.826595 0.1647218 0.8265932 0.1833146 0.8265824 0.2006557 0.81282 0.2006568 0.8265842 0.1925529 0.8265914 0.2018219 0.8128252 0.2018213 0.8265932 0.1925566 0.8265842 0.2018181 0.812821 0.2018175 0.826586 0.1750928 0.812817 0.1750908 0.7990551 0.1914683 0.7990561 0.1925517 0.7990569 0.2018226 0.7990571 0.2018219 0.8128252 0.1750678 0.7990571 0.1914716 0.7990581 0.1914713 0.8128293 0.1771807 0.7988938 0.1991319 0.7988844 0.1991316 0.8058905 0.1771979 0.8199074 0.1771922 0.8129029 0.1991312 0.8128966 0.1740131 0.8128221 0.17401 0.7990564 0.1832808 0.7990567 0.1647435 0.812821 0.1647391 0.7990561 0.17401 0.7990564 0.1771864 0.8058984 0.1991316 0.8058905 0.1991312 0.8128966 0.1772036 0.826912 0.1771979 0.8199074 0.1991308 0.8199027 0.1832808 0.7990567 0.1925517 0.7990569 0.1925523 0.8128241 0.1832845 0.8265896 0.1832827 0.8128231 0.1925523 0.8128241 0.1647435 0.812821 0.1740131 0.8128221 0.1740162 0.8265878 0.1740131 0.8128221 0.1832827 0.8128231 0.1832845 0.8265896 0.1750697 0.8128252 0.1914713 0.8128293 0.1914711 0.8266004 0.1925529 0.8265914 0.1925523 0.8128241 0.2018219 0.8128252 0.1750947 0.8265788 0.1750928 0.812817 0.191468 0.812821 0.192556 0.81282 0.1925553 0.7990557 0.2018188 0.7990561 0.1925523 0.8128242 0.1925517 0.7990569 0.2018226 0.7990571 0.1740131 0.8128222 0.17401 0.7990564 0.1832808 0.7990567 0.1647391 0.7990561 0.17401 0.7990564 0.1740131 0.8128222 0.1833111 0.812819 0.1833077 0.7990556 0.2006545 0.7990557 0.1652248 0.8199074 0.1743741 0.8199062 0.1743811 0.8269112 0.1652057 0.8058984 0.1743601 0.8058964 0.1743671 0.8129013 0.1832808 0.7990567 0.1925517 0.7990569 0.1925523 0.8128242 0.1666079 0.8199062 0.1837412 0.8199051 0.1837494 0.8269103 0.1665817 0.8058964 0.1837244 0.8058944 0.1837328 0.8128997 0.1666079 0.8199062 0.1665948 0.8129013 0.1837328 0.8128997 0.1665817 0.8058964 0.1665685 0.7988914 0.1837159 0.7988891 0.1658912 0.7990574 0.183266 0.7990576 0.1832695 0.8128271 0.1652248 0.8199074 0.1652153 0.8129029 0.1743671 0.8129013 0.1652057 0.8058984 0.1651961 0.7988938 0.1743531 0.7988914 0.165897 0.812826 0.1832695 0.8128271 0.183273 0.8265967 0.1832827 0.8128232 0.1925523 0.8128242 0.1925529 0.8265914 0.164713 0.7990571 0.1739914 0.7990574 0.1739945 0.812826 0.1647435 0.812821 0.1740131 0.8128222 0.1740162 0.8265878 0.1740162 0.8265878 0.1740131 0.8128222 0.1832827 0.8128232 0.1647174 0.8128251 0.1739945 0.812826 0.1739977 0.826595 0.1833146 0.8265824 0.1833111 0.812819 0.2006557 0.81282 0.1925529 0.8265914 0.1925523 0.8128242 0.2018219 0.8128252 0.1925566 0.8265842 0.192556 0.81282 0.2018181 0.812821</float_array>
          <technique_common>
            <accessor source="#Cubo_038-mesh-map-0-array" count="240" stride="2">
              <param name="S" type="float"/>
              <param name="T" type="float"/>
            </accessor>
          </technique_common>
        </source>
        <vertices id="Cubo_038-mesh-vertices">
          <input semantic="POSITION" source="#Cubo_038-mesh-positions"/>
        </vertices>
        <triangles material="A-textura_Gétulos_General-material" count="80">
          <input semantic="VERTEX" source="#Cubo_038-mesh-vertices" offset="0"/>
          <input semantic="NORMAL" source="#Cubo_038-mesh-normals" offset="1"/>
          <input semantic="TEXCOORD" source="#Cubo_038-mesh-map-0" offset="2" set="0"/>
          <p>17 0 0 3 1 1 18 2 2 14 3 3 19 4 4 23 5 5 7 6 6 20 7 7 19 8 8 3 9 9 12 10 10 13 11 11 14 12 12 10 13 13 16 14 14 22 15 15 9 16 16 21 17 17 18 18 18 13 19 19 22 15 20 13 11 21 10 13 22 9 11 23 7 20 24 16 14 25 5 21 26 9 22 27 23 5 28 21 23 29 8 24 30 23 5 31 15 25 32 18 18 33 11 26 34 2 27 35 22 15 36 8 28 37 11 26 38 19 8 39 4 29 40 6 30 41 15 25 42 19 4 43 6 31 44 0 32 45 18 2 46 2 33 47 31 34 48 25 35 49 46 36 50 54 37 51 27 38 52 47 39 53 51 40 54 29 41 55 50 42 56 25 43 57 51 44 58 46 36 59 56 45 60 53 46 61 31 34 62 34 47 63 48 48 64 27 49 65 32 50 66 45 51 67 29 52 68 29 41 69 54 53 70 50 42 71 35 54 72 41 55 73 48 48 74 37 56 75 42 57 76 45 51 77 35 58 78 42 57 79 44 59 80 37 60 81 39 61 82 43 62 83 48 63 84 55 64 85 33 65 86 34 66 87 45 51 88 35 58 89 32 67 90 53 68 91 37 60 92 33 69 93 40 70 94 52 71 95 50 72 96 36 73 97 28 74 98 27 75 99 33 65 100 47 39 101 46 36 102 30 76 103 24 77 104 30 78 105 50 72 106 28 74 107 47 39 108 52 79 109 26 80 110 38 81 111 31 82 112 49 83 113 36 84 114 47 39 115 26 80 116 49 85 117 46 36 118 24 77 119 17 0 120 1 86 121 3 1 122 14 3 123 7 87 124 19 4 125 7 6 126 5 88 127 20 7 128 3 9 129 1 89 130 12 10 131 14 12 132 9 11 133 10 13 134 22 15 135 13 19 136 9 16 137 18 18 138 3 90 139 13 19 140 13 11 141 12 10 142 10 13 143 7 20 144 14 12 145 16 14 146 9 22 147 14 3 148 23 5 149 8 24 150 21 23 151 23 5 152 18 18 153 22 15 154 11 26 155 22 15 156 21 17 157 8 28 158 19 8 159 20 7 160 4 29 161 15 25 162 23 5 163 19 4 164 0 32 165 17 0 166 18 2 167 31 34 168 53 46 169 25 35 170 54 37 171 34 91 172 27 38 173 51 40 174 32 92 175 29 41 176 25 43 177 32 93 178 51 44 179 56 45 180 39 94 181 53 46 182 34 47 183 35 54 184 48 48 185 32 50 186 37 56 187 45 51 188 29 41 189 34 95 190 54 53 191 35 54 192 44 96 193 41 55 194 37 56 195 43 97 196 42 57 197 35 58 198 45 51 199 42 57 200 37 60 201 53 68 202 39 61 203 48 63 204 41 98 205 55 64 206 34 66 207 29 52 208 45 51 209 32 67 210 25 99 211 53 68 212 33 69 213 55 100 214 40 70 215 50 72 216 54 101 217 36 73 218 27 75 219 48 63 220 33 65 221 46 36 222 51 44 223 30 76 224 30 78 225 51 102 226 50 72 227 47 39 228 33 65 229 52 79 230 38 81 231 56 103 232 31 82 233 36 84 234 54 37 235 47 39 236 49 85 237 31 34 238 46 36 239</p>
        </triangles>
      </mesh>
    </geometry>
  </library_geometries>
  <library_visual_scenes>
    <visual_scene id="Scene" name="Scene">
      <node id="a-hair_gaet_01" name="a-hair_gaet_01" type="NODE">
        <matrix sid="transform">0.2508832 0 0 0 0 0.2508832 0 0 0 0 0.2508832 -0.01007128 0 0 0 1</matrix>
        <instance_geometry url="#Cubo_038-mesh" name="a-hair_gaet_01">
          <bind_material>
            <technique_common>
              <instance_material symbol="A-textura_Gétulos_General-material" target="#A-textura_Gétulos_General-material">
                <bind_vertex_input semantic="MapaUV" input_semantic="TEXCOORD" input_set="0"/>
              </instance_material>
            </technique_common>
          </bind_material>
        </instance_geometry>
      </node>
    </visual_scene>
  </library_visual_scenes>
  <scene>
    <instance_visual_scene url="#Scene"/>
  </scene>
</COLLADA>