<?xml version="1.0" encoding="utf-8"?>
<COLLADA xmlns="http://www.collada.org/2005/11/COLLADASchema" version="1.4.1" xmlns:xsi="http://www.w3.org/2001/XMLSchema-instance">
  <asset>
    <contributor>
      <author>Blender User</author>
      <authoring_tool>Blender 4.3.1 commit date:2024-12-10, commit time:07:46, hash:33d812126174</authoring_tool>
    </contributor>
    <created>2026-08-08T11:12:25</created>
    <modified>2026-08-08T11:12:25</modified>
    <unit name="meter" meter="1"/>
    <up_axis>Z_UP</up_axis>
  </asset>
  <library_effects>
    <effect id="A-textura_Gétulos_General-effect">
      <profile_COMMON>
        <newparam sid="A-catálogo_unis_Gaetul-_FINAIS_png-surface">
          <surface type="2D">
            <init_from>A-catálogo_unis_Gaetul-_FINAIS_png</init_from>
          </surface>
        </newparam>
        <newparam sid="A-catálogo_unis_Gaetul-_FINAIS_png-sampler">
          <sampler2D>
            <source>A-catálogo_unis_Gaetul-_FINAIS_png-surface</source>
          </sampler2D>
        </newparam>
        <technique sid="common">
          <lambert>
            <emission>
              <color sid="emission">0 0 0 1</color>
            </emission>
            <diffuse>
              <texture texture="A-catálogo_unis_Gaetul-_FINAIS_png-sampler" texcoord="MapaUV"/>
            </diffuse>
            <index_of_refraction>
              <float sid="ior">1.45</float>
            </index_of_refraction>
          </lambert>
        </technique>
      </profile_COMMON>
    </effect>
  </library_effects>
  <library_images/>
  <library_materials>
    <material id="A-textura_Gétulos_General-material" name="A-textura Gétulos General">
      <instance_effect url="#A-textura_Gétulos_General-effect"/>
    </material>
  </library_materials>
  <library_geometries>
    <geometry id="Cubo_023-mesh" name="Cubo.023">
      <mesh>
        <source id="Cubo_023-mesh-positions">
          <float_array id="Cubo_023-mesh-positions-array" count="99">-1.224513 0.7503486 -0.868831 -1.092053 0.6099288 0.5521014 1.224511 0.7503486 -0.868831 1.092053 0.6099288 0.5521014 -8.56446e-7 1.435072 -0.8825005 0 0.9935181 0.7458016 -0.6122569 1.435072 -0.8815495 -1.104407 0.3720102 0.4434607 -0.5996296 0.7282181 0.8641929 1.104406 0.3720102 0.4434607 0.5996296 0.7282181 0.8641929 0.4896796 0.3404397 0.9597428 0.6122552 1.435072 -0.8815495 -0.4896797 0.3404397 0.9597428 -0.7696123 -0.02645105 -0.8566846 -0.7850054 -0.3118973 0.8303646 0.7696112 -0.02645105 -0.8566846 0.7850053 -0.3118973 0.8303646 0 -0.08448022 0.9650723 -0.3797298 -0.3118973 0.9442247 0.3797296 -0.3118973 0.9442247 0 0.4151726 0.9178621 -1.15732 0.8505334 -0.1387518 1.157319 0.8505334 -0.1387518 0.8918107 0.3071185 0.7148296 -1.395786 0.3862287 -0.8627578 -3.24424e-7 1.535257 0.1432378 -0.6191937 1.535257 0.1669075 1.395784 0.3862287 -0.8627578 -0.8918108 0.3071185 0.7148296 0.6191931 1.535257 0.1669075 0.8564291 -0.3176667 0.583701 -0.8564296 -0.3176667 0.583701</float_array>
          <technique_common>
            <accessor source="#Cubo_023-mesh-positions-array" count="33" stride="3">
              <param name="X" type="float"/>
              <param name="Y" type="float"/>
              <param name="Z" type="float"/>
            </accessor>
          </technique_common>
        </source>
        <source id="Cubo_023-mesh-normals">
          <float_array id="Cubo_023-mesh-normals-array" count="99">-0.9377115 -0.2254246 0.2643499 -0.8338863 0.2015601 0.5138164 -0.8921986 0.4345639 0.1230292 0.3950869 0.8658617 0.3069038 0.8338869 0.2015596 0.5138157 0.8921988 0.4345635 0.1230283 -0.395087 0.8658615 0.3069042 0 0.553242 0.8330206 0 0.9526913 0.3039398 -0.9579863 -0.228471 0.1733877 -0.678125 -0.03410661 0.7341548 0.3080596 0.3729128 0.8752346 0.6781254 -0.03410702 0.7341544 -0.3080596 0.3729128 0.8752346 0 0.193329 0.981134 0.2156836 0.09974324 0.9713557 0.692835 -0.06435853 0.7182184 -0.2156835 0.0997433 0.9713557 0 0.02041459 0.9997916 0.1642971 -0.05112552 0.9850852 -0.6928345 -0.06435823 0.7182189 -0.1642971 -0.05112552 0.9850852 0.9579864 -0.2284713 0.1733865 0.9377117 -0.2254255 0.2643489 0.6925339 -0.7201398 0.04237288 0.9505065 -0.2810964 0.1323719 0.4243415 0.9021198 -0.0781933 0 0.9952641 -0.09720844 -0.4243418 0.9021197 -0.07819294 -0.8413695 0.5404505 0.003272235 0.8413696 0.5404503 0.003271222 -0.6925336 -0.7201402 0.04237329 -0.9505064 -0.2810963 0.1323729</float_array>
          <technique_common>
            <accessor source="#Cubo_023-mesh-normals-array" count="33" stride="3">
              <param name="X" type="float"/>
              <param name="Y" type="float"/>
              <param name="Z" type="float"/>
            </accessor>
          </technique_common>
        </source>
        <source id="Cubo_023-mesh-map-0">
          <float_array id="Cubo_023-mesh-map-0-array" count="288">0.192556 0.81282 0.2018188 0.7990561 0.2018181 0.812821 0.1925523 0.8128242 0.2018226 0.7990571 0.2018219 0.8128252 0.1740131 0.8128222 0.1832808 0.7990567 0.1832827 0.8128232 0.1647391 0.7990561 0.1740131 0.8128222 0.1647435 0.812821 0.1833111 0.812819 0.2006545 0.7990557 0.2006557 0.81282 0.1652248 0.8199074 0.1743811 0.8269112 0.1652343 0.826912 0.1652057 0.8058984 0.1743671 0.8129013 0.1652153 0.8129029 0.1832808 0.7990567 0.1925523 0.8128242 0.1832827 0.8128232 0.1666079 0.8199062 0.1837494 0.8269103 0.166621 0.8269112 0.1665817 0.8058964 0.1837328 0.8128997 0.1665948 0.8129013 0.1666079 0.8199062 0.1837328 0.8128997 0.1837412 0.8199051 0.1665817 0.8058964 0.1837159 0.7988891 0.1837244 0.8058944 0.1658912 0.7990574 0.1832695 0.8128271 0.165897 0.812826 0.1652248 0.8199074 0.1743671 0.8129013 0.1743741 0.8199062 0.1652057 0.8058984 0.1743531 0.7988914 0.1743601 0.8058964 0.165897 0.812826 0.183273 0.8265967 0.1659029 0.826595 0.1832827 0.8128232 0.1925529 0.8265914 0.1832845 0.8265896 0.164713 0.7990571 0.1739945 0.812826 0.1647174 0.8128251 0.1647435 0.812821 0.1740162 0.8265878 0.1647478 0.826586 0.1740162 0.8265878 0.1832827 0.8128232 0.1832845 0.8265896 0.1647174 0.8128251 0.1739977 0.826595 0.1647218 0.8265932 0.1833146 0.8265824 0.2006557 0.81282 0.2006568 0.8265842 0.1925529 0.8265914 0.2018219 0.8128252 0.2018213 0.8265932 0.1925566 0.8265842 0.2018181 0.812821 0.2018175 0.826586 0.192556 0.81282 0.1925553 0.7990557 0.2018188 0.7990561 0.1925523 0.8128242 0.1925517 0.7990569 0.2018226 0.7990571 0.1740131 0.8128222 0.17401 0.7990564 0.1832808 0.7990567 0.1647391 0.7990561 0.17401 0.7990564 0.1740131 0.8128222 0.1833111 0.812819 0.1833077 0.7990556 0.2006545 0.7990557 0.1652248 0.8199074 0.1743741 0.8199062 0.1743811 0.8269112 0.1652057 0.8058984 0.1743601 0.8058964 0.1743671 0.8129013 0.1832808 0.7990567 0.1925517 0.7990569 0.1925523 0.8128242 0.1666079 0.8199062 0.1837412 0.8199051 0.1837494 0.8269103 0.1665817 0.8058964 0.1837244 0.8058944 0.1837328 0.8128997 0.1666079 0.8199062 0.1665948 0.8129013 0.1837328 0.8128997 0.1665817 0.8058964 0.1665685 0.7988914 0.1837159 0.7988891 0.1658912 0.7990574 0.183266 0.7990576 0.1832695 0.8128271 0.1652248 0.8199074 0.1652153 0.8129029 0.1743671 0.8129013 0.1652057 0.8058984 0.1651961 0.7988938 0.1743531 0.7988914 0.165897 0.812826 0.1832695 0.8128271 0.183273 0.8265967 0.1832827 0.8128232 0.1925523 0.8128242 0.1925529 0.8265914 0.164713 0.7990571 0.1739914 0.7990574 0.1739945 0.812826 0.1647435 0.812821 0.1740131 0.8128222 0.1740162 0.8265878 0.1740162 0.8265878 0.1740131 0.8128222 0.1832827 0.8128232 0.1647174 0.8128251 0.1739945 0.812826 0.1739977 0.826595 0.1833146 0.8265824 0.1833111 0.812819 0.2006557 0.81282 0.1925529 0.8265914 0.1925523 0.8128242 0.2018219 0.8128252 0.1925566 0.8265842 0.192556 0.81282 0.2018181 0.812821</float_array>
          <technique_common>
            <accessor source="#Cubo_023-mesh-map-0-array" count="144" stride="2">
              <param name="S" type="float"/>
              <param name="T" type="float"/>
            </accessor>
          </technique_common>
        </source>
        <vertices id="Cubo_023-mesh-vertices">
          <input semantic="POSITION" source="#Cubo_023-mesh-positions"/>
        </vertices>
        <triangles material="A-textura_Gétulos_General-material" count="48">
          <input semantic="VERTEX" source="#Cubo_023-mesh-vertices" offset="0"/>
          <input semantic="NORMAL" source="#Cubo_023-mesh-normals" offset="1"/>
          <input semantic="TEXCOORD" source="#Cubo_023-mesh-map-0" offset="2" set="0"/>
          <p>7 0 0 1 1 1 22 2 2 30 3 3 3 4 4 23 5 5 27 6 6 5 7 7 26 8 8 1 1 9 27 6 10 22 2 11 32 9 12 29 10 13 7 0 14 10 11 15 24 12 16 3 4 17 8 13 18 21 14 19 5 7 20 5 7 21 30 3 22 26 8 23 11 15 24 17 16 25 24 12 26 13 17 27 18 18 28 21 14 29 11 15 30 18 18 31 20 19 32 13 17 33 15 20 34 19 21 35 24 12 36 31 22 37 9 23 38 10 11 39 21 14 40 11 15 41 8 13 42 29 10 43 13 17 44 9 23 45 16 24 46 28 25 47 26 8 48 12 26 49 4 27 50 3 4 51 9 23 52 23 5 53 22 2 54 6 28 55 0 29 56 6 28 57 26 8 58 4 27 59 23 5 60 28 25 61 2 30 62 14 31 63 7 0 64 25 32 65 12 26 66 23 5 67 2 30 68 25 32 69 22 2 70 0 29 71 7 0 72 29 10 73 1 1 74 30 3 75 10 11 76 3 4 77 27 6 78 8 13 79 5 7 80 1 1 81 8 13 82 27 6 83 32 9 84 15 20 85 29 10 86 10 11 87 11 15 88 24 12 89 8 13 90 13 17 91 21 14 92 5 7 93 10 11 94 30 3 95 11 15 96 20 19 97 17 16 98 13 17 99 19 21 100 18 18 101 11 15 102 21 14 103 18 18 104 13 17 105 29 10 106 15 20 107 24 12 108 17 16 109 31 22 110 10 11 111 5 7 112 21 14 113 8 13 114 1 1 115 29 10 116 9 23 117 31 22 118 16 24 119 26 8 120 30 3 121 12 26 122 3 4 123 24 12 124 9 23 125 22 2 126 27 6 127 6 28 128 6 28 129 27 6 130 26 8 131 23 5 132 9 23 133 28 25 134 14 31 135 32 9 136 7 0 137 12 26 138 30 3 139 23 5 140 25 32 141 7 0 142 22 2 143</p>
        </triangles>
      </mesh>
    </geometry>
  </library_geometries>
  <library_visual_scenes>
    <visual_scene id="Scene" name="Scene">
      <node id="a-hair_gaet_03" name="a-hair_gaet_03" type="NODE">
        <matrix sid="transform">0.2205873 0 0 0 0 0.2065553 0 0 0 0 0.3323436 0.2007711 0 0 0 1</matrix>
        <instance_geometry url="#Cubo_023-mesh" name="a-hair_gaet_03">
          <bind_material>
            <technique_common>
              <instance_material symbol="A-textura_Gétulos_General-material" target="#A-textura_Gétulos_General-material">
                <bind_vertex_input semantic="MapaUV" input_semantic="TEXCOORD" input_set="0"/>
              </instance_material>
            </technique_common>
          </bind_material>
        </instance_geometry>
      </node>
    </visual_scene>
  </library_visual_scenes>
  <scene>
    <instance_visual_scene url="#Scene"/>
  </scene>
</COLLADA>