<?xml version="1.0" encoding="utf-8"?>
<COLLADA xmlns="http://www.collada.org/2005/11/COLLADASchema" version="1.4.1" xmlns:xsi="http://www.w3.org/2001/XMLSchema-instance">
  <asset>
    <contributor>
      <author>Blender User</author>
      <authoring_tool>Blender 4.3.1 commit date:2024-12-10, commit time:07:46, hash:33d812126174</authoring_tool>
    </contributor>
    <created>2026-08-08T10:53:22</created>
    <modified>2026-08-08T10:53:22</modified>
    <unit name="meter" meter="1"/>
    <up_axis>Z_UP</up_axis>
  </asset>
  <library_effects>
    <effect id="caballo-effect">
      <profile_COMMON>
        <newparam sid="hair_afro_ethiop_png-surface">
          <surface type="2D">
            <init_from>hair_afro_ethiop_png</init_from>
          </surface>
        </newparam>
        <newparam sid="hair_afro_ethiop_png-sampler">
          <sampler2D>
            <source>hair_afro_ethiop_png-surface</source>
          </sampler2D>
        </newparam>
        <technique sid="common">
          <lambert>
            <emission>
              <color sid="emission">0 0 0 1</color>
            </emission>
            <diffuse>
              <texture texture="hair_afro_ethiop_png-sampler" texcoord="MapaUV"/>
            </diffuse>
            <reflectivity>
              <float sid="specular">0.5</float>
            </reflectivity>
            <index_of_refraction>
              <float sid="ior">1.45</float>
            </index_of_refraction>
          </lambert>
        </technique>
      </profile_COMMON>
    </effect>
  </library_effects>
  <library_images>
    <image id="hair_afro_ethiop_png" name="hair_afro_ethiop_png">
      <init_from>/home/welton/.var/app/com.play0ad.zeroad/data/0ad/mods/Endovelico/art/textures/skins/props/head/hair_afro_ethiop.png</init_from>
    </image>
  </library_images>
  <library_materials>
    <material id="caballo-material" name="caballo">
      <instance_effect url="#caballo-effect"/>
    </material>
  </library_materials>
  <library_geometries>
    <geometry id="Esfera_010-mesh" name="Esfera.010">
      <mesh>
        <source id="Esfera_010-mesh-positions">
          <float_array id="Esfera_010-mesh-positions-array" count="639">-1.81874e-5 0.03108805 0.5262257 0 0.1935778 0.4293375 0 0.2803595 0.3774227 0 0.3103724 0.3145372 0 0.3201752 0.2398997 0 0.3093913 0.1362825 5.61541e-4 0.03101742 0.5262504 0.02818197 0.1901454 0.4305398 0.03586858 0.2736481 0.378953 0.03992933 0.3024806 0.3163366 0.04436749 0.3114063 0.2418991 0.04710006 0.3000823 0.1384052 0.001118957 0.03080832 0.5263237 0.05528086 0.1799803 0.4341006 0.07035905 0.2537718 0.383485 0.07832425 0.2791086 0.3216658 0.08702945 0.2854368 0.2478205 0.09239006 0.2725132 0.1446912 0.00163269 0.03046876 0.5264426 0.08025544 0.1634732 0.4398831 0.1021456 0.2214945 0.3908447 0.1137094 0.2411545 0.3303198 0.1263473 0.2432644 0.2574364 0.1341296 0.2277432 0.1548994 0.002083003 0.03001177 0.5266027 0.1021458 0.1412583 0.4476649 0.1300069 0.1780565 0.4007491 0.1447248 0.1900768 0.3419662 0.1608095 0.18651 0.2703771 0.1707143 0.1674931 0.1686372 0.002452552 0.02945494 0.5267978 0.1201107 0.1141893 0.4571471 0.152872 0.1251273 0.4128176 0.1701782 0.1278386 0.3561573 0.1890918 0.1173546 0.2861455 0.2007389 0.09407806 0.1853768 0.00272715 0.02881968 0.5270203 0.1334599 0.08330667 0.4679653 0.1698622 0.08516907 0.4265865 0.1997368 0.0800209 0.3723478 0.2101077 0.06805992 0.3041355 0.2142532 0.04974573 0.2044749 0.002896249 0.02813035 0.5272617 0.1416803 0.04979693 0.4797037 0.1803247 0.04251933 0.4415267 0.2120395 0.02987009 0.3899155 0.2230491 0.0123353 0.3236557 0.2367877 -0.009411096 0.2251974 0.00295335 0.02741348 0.5275129 0.1444559 0.01494801 0.4919112 0.1838575 -0.001834928 0.4570639 0.2161936 -0.02228498 0.4081854 0.2274189 -0.04561626 0.3439561 0.2319059 -0.07093226 0.2467482 0.002896249 0.02669662 0.527764 0.1416803 -0.01990091 0.5041188 0.1803247 -0.04618918 0.4726012 0.2120394 -0.07444012 0.4264553 0.2230491 -0.103568 0.3642565 0.22745 -0.1324534 0.2682991 0.00272715 0.02600729 0.5280055 0.1334599 -0.05341058 0.5158572 0.1698622 -0.08883893 0.4875413 0.1997368 -0.1245909 0.444023 0.2101077 -0.1592925 0.3837767 0.2230491 -0.1916103 0.2890216 0.002452552 0.02537196 0.528228 0.1201107 -0.0842933 0.5266754 0.1528719 -0.1281452 0.5013102 0.1797583 -0.1708102 0.4602136 0.1890919 -0.2106486 0.4017667 0.2007389 -0.2461296 0.3081196 0.002083003 0.02481514 0.5284231 0.1021457 -0.1113622 0.5361576 0.1300069 -0.1625974 0.5133788 0.1528719 -0.2113217 0.4744047 0.1608095 -0.2556626 0.417535 0.1707144 -0.2939162 0.3107387 0.00163269 0.02435815 0.5285831 0.08025538 -0.1335771 0.5439394 0.1021457 -0.1908715 0.5232832 0.1201106 -0.2445686 0.486051 0.1263472 -0.2926046 0.4304758 0.1341294 -0.3331336 0.31318 0.001118957 0.02401858 0.5287021 0.05528086 -0.1500843 0.5497218 0.07035917 -0.2118812 0.5306429 0.08273363 -0.2692733 0.494705 0.08702945 -0.3200551 0.4400916 0.09238994 -0.3375627 0.3158574 5.61541e-4 0.02380949 0.5287753 0.02818191 -0.1602494 0.5532826 0.03586876 -0.2248188 0.5351749 0.0421772 -0.2844864 0.5000342 0.04436725 -0.3369589 0.446013 0.04709994 -0.3397693 0.3164955 -1.81871e-5 0.02373892 0.5288001 0 -0.1636817 0.554485 0 -0.2291873 0.5367051 0 -0.2896232 0.5018336 0 -0.3426666 0.4480124 0 -0.3458285 0.3157941 -5.97915e-4 0.02380949 0.5287753 -0.02818191 -0.1602494 0.5532826 -0.03586882 -0.2248188 0.5351749 -0.04217725 -0.2844863 0.5000342 -0.04436713 -0.3369589 0.446013 -0.04709994 -0.3397692 0.3164955 -0.001155316 0.02401858 0.5287021 -0.05528086 -0.1500843 0.5497218 -0.07035917 -0.2118812 0.5306429 -0.08273369 -0.2692732 0.494705 -0.08702939 -0.3200551 0.4400916 -0.09238988 -0.3375626 0.3158574 -0.001669108 0.02435815 0.5285831 -0.08025538 -0.1335771 0.5439394 -0.1021457 -0.1908715 0.5232832 -0.1201106 -0.2445684 0.486051 -0.1263471 -0.2926046 0.4304757 -0.1341294 -0.3331335 0.31318 -0.002119362 0.02481514 0.5284231 -0.1021457 -0.1113622 0.5361576 -0.1300069 -0.1625973 0.5133787 -0.1528719 -0.2113215 0.4744046 -0.1608093 -0.2556626 0.417535 -0.1707143 -0.2939161 0.3107387 -0.00248897 0.02537196 0.528228 -0.1201107 -0.0842933 0.5266754 -0.1528719 -0.1281451 0.5013102 -0.1797583 -0.1708101 0.4602135 -0.1890918 -0.2106486 0.4017667 -0.2007387 -0.2461295 0.3081195 -0.002763569 0.02600729 0.5280055 -0.1334598 -0.05341058 0.5158572 -0.1698622 -0.08883887 0.4875413 -0.1997367 -0.1245908 0.444023 -0.2101076 -0.1592925 0.3837767 -0.2230489 -0.1916102 0.2890215 -0.002932667 0.02669662 0.527764 -0.1416802 -0.01990085 0.5041188 -0.1803247 -0.04618912 0.4726011 -0.2120393 -0.07444 0.4264552 -0.223049 -0.103568 0.3642565 -0.2274499 -0.1324533 0.268299 -0.002989768 0.02741348 0.5275129 -0.1444559 0.01494801 0.4919112 -0.1838575 -0.001834869 0.4570639 -0.2161934 -0.02228492 0.4081854 -0.2274188 -0.04561626 0.3439561 -0.2319059 -0.0709322 0.2467482 -0.002932667 0.02813035 0.5272617 -0.1416802 0.04979693 0.4797037 -0.1803247 0.04251933 0.4415267 -0.2120393 0.02987009 0.3899155 -0.223049 0.0123353 0.3236557 -0.2367874 -0.009411036 0.2251974 -0.002763569 0.02881968 0.5270203 -0.1334598 0.08330661 0.4679653 -0.1698621 0.08516907 0.4265865 -0.1997366 0.0800209 0.3723478 -0.2101076 0.06805986 0.3041355 -0.2142531 0.04974573 0.2044749 -0.00248897 0.02945494 0.5267978 -0.1201106 0.1141893 0.4571471 -0.152872 0.1251273 0.4128176 -0.1701782 0.1278385 0.3561573 -0.1890918 0.1173545 0.2861455 -0.2007389 0.094078 0.1853768 -0.002119362 0.03001177 0.5266027 -0.1021457 0.1412582 0.4476649 -0.1300069 0.1780565 0.4007491 -0.1447243 0.1900767 0.3419662 -0.1608095 0.1865099 0.2703772 -0.1707143 0.1674929 0.1686372 -0.001669108 0.03046876 0.5264426 -0.08025532 0.1634731 0.4398831 -0.1021456 0.2214944 0.3908447 -0.1137094 0.2411543 0.3303198 -0.1263468 0.2432643 0.2574364 -0.1341291 0.227743 0.1548994 -0.001155316 0.03080832 0.5263237 -0.0552808 0.1799802 0.4341007 -0.07035905 0.2537717 0.3834851 -0.07832425 0.2791083 0.3216658 -0.08702945 0.2854365 0.2478206 -0.09238952 0.2725128 0.1446914 -5.97915e-4 0.03101742 0.5262504 -0.02818191 0.1901453 0.4305399 -0.03586858 0.2736479 0.378953 -0.03992933 0.3024802 0.3163367 -0.04436701 0.3114061 0.2418991 -0.04710006 0.300082 0.1384052 0 0.3093914 -0.02459949 0.04710006 0.3000824 -0.02460557 0.09239006 0.2725133 -0.02462351 0.1341296 0.2277433 -0.02465265 0.1707143 0.1674931 -0.02469187 0.2007389 0.09407806 -0.02473968 0.2142532 0.04974573 -0.02479422 0.2367877 -0.009411096 -0.0248534 0.2319059 -0.07093226 -0.02491492 0.22745 -0.1324535 -0.02497649 0.2230491 -0.1916103 -0.02503567 -0.2230489 -0.1916102 -0.02503567 -0.2274499 -0.1324533 -0.02497649 -0.2319059 -0.0709322 -0.02491492 -0.2367874 -0.009411036 -0.0248534 -0.2142531 0.04974573 -0.02479422 -0.2007389 0.094078 -0.02473968 -0.1707143 0.167493 -0.02469187 -0.1341291 0.227743 -0.02465265 -0.09238952 0.2725129 -0.02462351 -0.04710006 0.300082 -0.02460557</float_array>
          <technique_common>
            <accessor source="#Esfera_010-mesh-positions-array" count="213" stride="3">
              <param name="X" type="float"/>
              <param name="Y" type="float"/>
              <param name="Z" type="float"/>
            </accessor>
          </technique_common>
        </source>
        <source id="Esfera_010-mesh-normals">
          <float_array id="Esfera_010-mesh-normals-array" count="669">-4.32467e-6 0.9614801 0.2748747 0.3583884 0.9334073 0.01756578 -3.29841e-6 0.9999497 0.01003968 0.3687021 0.9284557 -0.04504466 -3.7967e-6 0.9987143 -0.0506944 -7.34107e-5 0.5121285 0.8589089 0.06370413 0.5218477 0.8506567 -4.5201e-7 0.5172224 0.8558511 0.1054027 0.5115483 0.8527653 -1.0949e-6 0.5133741 0.8581649 -2.39806e-6 0.9038848 0.4277762 0.3245755 0.9063031 0.2706761 0.3040839 0.859705 0.4104151 0.5750441 0.7758097 0.2596995 0.6243925 0.7802751 0.03612267 0.6385836 0.7689146 -0.03133046 0.05233711 0.5080234 0.8597518 0.1409035 0.531027 0.8355576 0.2168887 0.5073553 0.8339963 0.1022834 0.4959529 0.8623045 0.2426458 0.5339228 0.8099689 0.3469432 0.4990428 0.794095 0.5479656 0.7497543 0.3709479 0.7394981 0.6260617 0.247365 0.7875753 0.6133134 0.05976551 0.8019552 0.5971971 -0.01495492 0.8808882 0.4654726 0.08585739 0.8951178 0.4458276 0.001351535 0.1475123 0.4767689 0.8665631 0.3607361 0.517302 0.7760594 0.68967 0.4985113 0.5252065 0.7156936 0.6156011 0.3298758 0.8400664 0.4863176 0.2403824 0.1861225 0.4517136 0.8725327 0.4377957 0.4972902 0.7490243 0.734568 0.487941 0.4715119 0.8554282 0.4738981 0.2089576 0.9132384 0.397955 0.08733618 0.9416695 0.3362719 0.0134111 0.9325186 0.3563847 0.05830371 0.9422548 0.3348961 -7.52739e-4 0.2170627 0.4220727 0.8801923 0.4772006 0.4289079 0.7670188 0.7477917 0.4264334 0.5088835 0.8785234 0.4250721 0.2179689 0.2395184 0.3893026 0.8894237 0.4984063 0.3577905 0.789669 0.7773367 0.3159564 0.5439846 0.9275646 0.2463893 0.2809203 0.9813714 0.1679406 0.09330749 0.9912707 0.1265897 0.03684419 0.9980396 -0.04696363 0.04136842 0.2530552 0.3547267 0.9000734 0.5032014 0.2870892 0.8150879 0.7840486 0.205105 0.5858325 0.9384489 0.1135182 0.3262321 0.9945325 0.03276753 0.09915405 0.4919531 0.2182077 0.8428331 0.7682755 0.09750509 0.6326497 0.924536 -0.01561176 0.380775 0.9836813 -0.08507645 0.1585346 0.9975539 -0.06292062 0.03045278 0.2530686 0.2844927 0.924673 0.2395453 0.2507986 0.9379329 0.4648392 0.1524428 0.872173 0.7298685 -0.005913317 0.683562 0.8849596 -0.1400769 0.4441003 0.9433836 -0.2207372 0.2475936 0.979844 -0.1600736 0.119508 0.4219282 0.09117084 0.9020336 0.6678161 -0.103829 0.7370491 0.8170218 -0.2591829 0.5150725 0.8819676 -0.3532121 0.3120488 0.8824625 -0.4000638 0.2474042 0.2171583 0.2194243 0.9511548 0.1861864 0.1915156 0.9636682 0.3633733 0.03600287 0.9309477 0.5807138 -0.1940296 0.7906479 0.7172483 -0.3704041 0.5902166 0.7861242 -0.4940172 0.3714241 0.7700231 -0.579218 0.2675275 0.4676412 -0.2730041 0.8407023 0.5827327 -0.4690065 0.6636683 0.637499 -0.6593601 0.3985466 0.4341065 -0.8421872 0.3198004 0.1474624 0.1681778 0.9746646 0.2897128 -0.01107102 0.9570496 0.1022866 0.1505555 0.9832957 0.2023671 -0.04763633 0.9781506 0.3295234 -0.3358484 0.8823946 0.4135506 -0.5480067 0.7270933 0.4649946 -0.8008978 0.3772837 0.146737 -0.9636277 0.2233605 0.1707364 -0.3768692 0.9103948 0.2153887 -0.5993973 0.7709284 0.2326948 -0.6919728 0.6833937 0.1246469 -0.9896081 0.07168757 0.05239397 0.13953 0.9888308 0.1042248 -0.07106769 0.9920114 -1.45764e-5 0.1357757 0.9907396 1.12573e-6 -0.07917308 0.996861 2.44165e-7 -0.3911945 0.9203081 0 -0.6172192 0.7867913 1.2403e-7 -0.7122337 0.7019425 0.2438251 -0.9694717 0.025963 -7.78813e-7 -0.9997049 0.02429348 -0.2326949 -0.691973 0.6833934 -0.2438254 -0.9694716 0.02596271 -0.1246476 -0.989608 0.07168734 -0.1042236 -0.07107156 0.9920113 -0.1707361 -0.3768694 0.9103949 -0.215389 -0.5993973 0.7709283 -0.05240982 0.1395209 0.9888313 -0.2023699 -0.04764479 0.9781496 -0.3295236 -0.3358486 0.8823944 -0.4135513 -0.5480064 0.7270931 -0.4649953 -0.8008974 0.3772835 -0.1467372 -0.9636277 0.2233605 -0.6374995 -0.6593598 0.3985462 -0.4341073 -0.8421867 0.3198008 -0.1023009 0.1505394 0.9832968 -0.2897208 -0.01108217 0.9570472 -0.4676424 -0.273004 0.8407018 -0.5827335 -0.4690066 0.6636676 -0.1474744 0.1681557 0.9746666 -0.3633866 0.03598898 0.9309431 -0.5807143 -0.1940296 0.7906475 -0.7172485 -0.3704044 0.5902162 -0.7861239 -0.4940176 0.371424 -0.7700233 -0.5792177 0.2675275 -0.8824627 -0.400064 0.2474038 -0.1861764 0.191493 0.9636746 -0.4219475 0.09115749 0.9020259 -0.6678158 -0.1038292 0.7370493 -0.8170222 -0.2591829 0.5150721 -0.8819675 -0.3532125 0.3120488 -0.7298685 -0.005913257 0.683562 -0.8849598 -0.1400766 0.4440999 -0.9433837 -0.2207368 0.2475935 -0.979844 -0.160074 0.1195078 -0.2171535 0.2194042 0.9511604 -0.4648609 0.1524313 0.8721634 -0.2395853 0.2507804 0.9379277 -0.4919782 0.2181982 0.8428209 -0.7682758 0.09750461 0.6326494 -0.9245361 -0.01561188 0.3807747 -0.9836812 -0.08507657 0.1585349 -0.9975538 -0.06292122 0.03045296 -0.784049 0.2051056 0.5858318 -0.938449 0.1135187 0.3262316 -0.9945325 0.03276771 0.09915453 -0.9980397 -0.04696285 0.0413683 -0.2531341 0.2844793 0.9246593 -0.5032269 0.2870845 0.8150737 -0.2531172 0.3547316 0.9000541 -0.4984309 0.3577895 0.7896541 -0.7773368 0.315957 0.5439841 -0.9275647 0.2463898 0.2809199 -0.9813712 0.167941 0.09330767 -0.9912707 0.1265907 0.03684371 -0.7477921 0.4264332 0.5088828 -0.8785238 0.4250712 0.2179688 -0.9325188 0.3563839 0.05830413 -0.9422554 0.3348946 -7.5256e-4 -0.2395735 0.3893194 0.8894014 -0.4772229 0.428911 0.767003 -0.2171314 0.4220921 0.880166 -0.437813 0.4972965 0.74901 -0.7345684 0.4879403 0.471512 -0.8554277 0.4738995 0.2089563 -0.9132382 0.3979551 0.08733701 -0.94167 0.3362708 0.01341116 -0.8400666 0.4863175 0.240382 -0.880887 0.4654746 0.08585834 -0.8951165 0.4458305 0.001351058 -0.1861762 0.4517398 0.8725076 -0.3607483 0.5173103 0.7760483 -0.6896709 0.4985124 0.5252042 -0.1475746 0.4767966 0.8665372 -0.2426536 0.533931 0.809961 -0.3469432 0.4990425 0.794095 -0.7156959 0.6156001 0.3298726 -0.739499 0.626061 0.2473638 -0.7875747 0.6133143 0.05976349 -0.8019533 0.5971997 -0.01495605 -0.5750439 0.7758101 0.2596982 -0.6243925 0.7802752 0.03612112 -0.6385843 0.7689139 -0.03133159 -0.1023768 0.4959644 0.8622868 -0.1409052 0.5310338 0.8355531 -0.2168879 0.5073556 0.8339964 -0.5479656 0.7497552 0.370946 -0.05243241 0.5080296 0.8597423 -0.06370413 0.5218516 0.8506543 -0.1054035 0.5115486 0.852765 -0.304085 0.8597056 0.4104127 -0.3245788 0.9063019 0.270676 -0.3583896 0.933407 0.01756489 -0.368708 0.9284534 -0.04504436 -0.9899005 0.1417647 0 0.9899006 0.1417633 0 0.9460593 0.3239939 0 0.9420771 0.3353968 0 0.8929544 0.4501471 0 0.7972874 0.6035999 3.0389e-7 0.6316281 0.7752717 5.75043e-7 -0.9971331 -0.07566803 0 -0.9972442 -0.07418966 0 -0.9973161 -0.07321619 0 0.3625479 0.9319652 7.50035e-7 -0.6316292 0.7752707 2.02436e-7 -4.57349e-6 1 8.60337e-7 -0.8929529 0.4501504 1.63954e-7 -0.9460597 0.3239923 0 -0.7972848 0.6036035 2.14721e-7 0.9972443 -0.07418912 0 0.9973162 -0.07321608 0 -0.3625542 0.9319627 2.99506e-7 -0.9420773 0.3353959 0 0.997133 -0.07566994 0 0.2575878 0.3194379 0.9119254 0 -0.9997142 0.02390766 -0.257647 0.3194342 0.91191</float_array>
          <technique_common>
            <accessor source="#Esfera_010-mesh-normals-array" count="223" stride="3">
              <param name="X" type="float"/>
              <param name="Y" type="float"/>
              <param name="Z" type="float"/>
            </accessor>
          </technique_common>
        </source>
        <source id="Esfera_010-mesh-map-0">
          <float_array id="Esfera_010-mesh-map-0-array" count="2160">0.03830987 0.5516622 0.1553691 0.6694904 0.03830665 0.6695236 0.03830665 0.6695236 0.1553488 0.787351 0.03830903 0.7873883 0.03830099 0.1834897 0.1553472 0.4615678 0.03830987 0.461567 0.03830903 0.3159353 0.1553318 0.4337627 0.0383107 0.4337975 0.0383107 0.4337975 0.1553375 0.5516266 0.03830987 0.5516622 0.1553318 0.4337627 0.2745112 0.5515902 0.1553375 0.5516266 0.1553375 0.5516266 0.2744868 0.6694532 0.1553691 0.6694904 0.1553691 0.6694904 0.2745031 0.7873162 0.1553488 0.787351 0.1554476 0.1834897 0.2745031 0.4615686 0.1553472 0.4615678 0.1553472 0.3158997 0.274516 0.4337279 0.1553318 0.4337627 0.2744286 0.1834889 0.3941535 0.4615702 0.2745031 0.4615686 0.2745031 0.3158633 0.3940887 0.4336915 0.274516 0.4337279 0.274516 0.4337279 0.3941114 0.5515546 0.2745112 0.5515902 0.2745112 0.5515902 0.394236 0.6694176 0.2744868 0.6694532 0.2744868 0.6694532 0.3941567 0.7872798 0.2745031 0.7873162 0.3941114 0.5515546 0.5117963 0.6693803 0.394236 0.6694176 0.394236 0.6694176 0.5117202 0.7872442 0.3941567 0.7872798 0.3945356 0.1834889 0.5117154 0.461571 0.3941535 0.4615702 0.3941535 0.3158285 0.5116522 0.4336567 0.3940887 0.4336915 0.3940887 0.4336915 0.5116749 0.5515173 0.3941114 0.5515546 0.512091 0.1834889 0.6315601 0.4615718 0.5117154 0.461571 0.5117154 0.3157929 0.6315131 0.4336203 0.5116522 0.4336567 0.5116522 0.4336567 0.631531 0.5514825 0.5116749 0.5515173 0.5116749 0.5515173 0.6316232 0.6693455 0.5117963 0.6693803 0.5117202 0.7872442 0.6316232 0.6693455 0.6315633 0.7872077 0.631531 0.5514825 0.7544113 0.6693107 0.6316232 0.6693455 0.6316232 0.6693455 0.7543692 0.7871738 0.6315633 0.7872077 0.631845 0.1834889 0.754366 0.4615734 0.6315601 0.4615718 0.6315601 0.3157572 0.7543304 0.4335838 0.6315131 0.4336203 0.6315131 0.4336203 0.7543433 0.5514469 0.631531 0.5514825 0.7545765 0.1834889 0.8645095 0.4615743 0.754366 0.4615734 0.754366 0.3157208 0.8643428 0.433549 0.7543304 0.4335838 0.7543304 0.4335838 0.8644011 0.5514104 0.7543433 0.5514469 0.7543433 0.5514469 0.8647265 0.6692743 0.7544113 0.6693107 0.8622753 0.6693107 0.9834816 0.7871373 0.8625991 0.7871738 0.8647265 0.6692743 0.9849824 0.7871001 0.8645209 0.7871373 0.8655084 0.1834889 0.9858 0.461575 0.8655684 0.4615743 0.8656267 0.433549 0.9858 0.3156496 0.9858453 0.4335118 0.8644011 0.5514104 0.9848432 0.4335118 0.9848886 0.5513748 0.8644011 0.5514104 0.9851427 0.6692387 0.8647265 0.6692743 0.03745907 0.4048616 0.1554937 0.2869638 0.1555779 0.4048252 0.03700494 0.5227246 0.1555779 0.4048252 0.1552323 0.5226898 0.03655326 0.6405885 0.1552323 0.5226898 0.1548874 0.6405513 0.03655326 0.6405885 0.1549708 0.7584143 0.0366609 0.7584499 0.03734898 0.4624429 0.1555002 0.1834306 0.1554937 0.4624437 0.1554937 0.4624437 0.274257 0.1834306 0.2742586 0.4624445 0.1555779 0.4048252 0.2742586 0.2869274 0.2742343 0.4047904 0.1552323 0.5226898 0.2742343 0.4047904 0.2743363 0.5226526 0.1548874 0.6405513 0.2743363 0.5226526 0.2744383 0.6405181 0.1548874 0.6405513 0.274414 0.7583795 0.1549708 0.7584143 0.2742343 0.4047904 0.3936402 0.2868925 0.3936241 0.4047539 0.2743363 0.5226526 0.3936241 0.4047539 0.3936888 0.5226162 0.2744383 0.6405181 0.3936888 0.5226162 0.3937552 0.6404808 0.2744383 0.6405181 0.393739 0.7583431 0.274414 0.7583795 0.2742586 0.4624445 0.3936386 0.1834306 0.3936402 0.4624461 0.3936402 0.4624461 0.512894 0.1834306 0.512894 0.4624469 0.3936241 0.4047539 0.512894 0.2868561 0.5128762 0.4047183 0.3936888 0.5226162 0.5128762 0.4047183 0.5129572 0.5225813 0.3937552 0.6404808 0.5129572 0.5225813 0.5130397 0.6404444 0.393739 0.7583431 0.5130397 0.6404444 0.5130203 0.7583075 0.5129572 0.5225813 0.6333507 0.4046835 0.6332924 0.5225458 0.5130397 0.6404444 0.6332924 0.5225458 0.6332309 0.640408 0.5130203 0.7583075 0.6332309 0.640408 0.6332455 0.7582718 0.512894 0.4624469 0.6333377 0.1834306 0.6333377 0.4624477 0.5128762 0.4047183 0.6333377 0.2868189 0.6333507 0.4046835 0.6333377 0.4624477 0.7537103 0.1834306 0.7537103 0.4624493 0.6333507 0.4046835 0.7537103 0.2867849 0.7537087 0.4046471 0.6332924 0.5225458 0.7537087 0.4046471 0.7537168 0.5225117 0.6332309 0.640408 0.7537168 0.5225117 0.7537233 0.6403716 0.6332309 0.640408 0.7537216 0.7582353 0.6332455 0.7582718 0.7537168 0.5225117 0.8646811 0.4046106 0.8645468 0.5224745 0.7537233 0.6403716 0.8645468 0.5224745 0.864414 0.6403368 0.7537233 0.6403716 0.8644464 0.7581998 0.7537216 0.7582353 0.7537103 0.4624493 0.864652 0.1834298 0.8646488 0.4624502 0.7537087 0.4046471 0.8646488 0.2867476 0.8646811 0.4046106 0.8646488 0.4624502 0.9819597 0.1834298 0.9819614 0.4624509 0.8646811 0.4046106 0.9819614 0.2867128 0.9819257 0.4045758 0.8645468 0.5224745 0.9819257 0.4045758 0.9820795 0.5224381 0.864414 0.6403368 0.9820795 0.5224381 0.9822333 0.6403011 0.864414 0.6403368 0.9821961 0.758165 0.8644464 0.7581998 0.03891378 0.5301924 0.1549853 0.6480133 0.03764367 0.6480554 0.03865796 0.7659177 0.1549853 0.6480133 0.1557592 0.7658764 0.03815203 0.183446 0.155276 0.4622178 0.0380249 0.4622162 0.0380249 0.2944671 0.1551788 0.4122881 0.03789865 0.4123293 0.03789865 0.4123293 0.1559535 0.5301519 0.03891378 0.5301924 0.1553731 0.183446 0.2745403 0.4622187 0.155276 0.4622178 0.1552751 0.294425 0.2745678 0.4122468 0.1551788 0.4122881 0.1551788 0.4122881 0.2743395 0.5301082 0.1559535 0.5301519 0.1559535 0.5301519 0.2746261 0.6479712 0.1549853 0.6480133 0.1557592 0.7658764 0.2746261 0.6479712 0.2743962 0.7658351 0.2743962 0.7658351 0.3940191 0.6479299 0.3938701 0.765793 0.2745112 0.183446 0.3939625 0.4622203 0.2745403 0.4622187 0.2745403 0.2943837 0.3939802 0.4122047 0.2745678 0.4122468 0.2745678 0.4122468 0.3938329 0.5300669 0.2743395 0.5301082 0.2743395 0.5301082 0.3940191 0.6479299 0.2746261 0.6479712 0.3939446 0.183446 0.513472 0.4622219 0.3939625 0.4622203 0.3939625 0.2943425 0.5134947 0.4121626 0.3939802 0.4122047 0.3939802 0.4122047 0.5133118 0.5300256 0.3938329 0.5300669 0.3938329 0.5300669 0.5135416 0.6478894 0.3940191 0.6479299 0.3940191 0.6479299 0.5133571 0.7657509 0.3938701 0.765793 0.5135416 0.6478894 0.6328731 0.7657129 0.5133571 0.7657509 0.5134493 0.1834452 0.6327889 0.4622226 0.513472 0.4622219 0.513472 0.2943004 0.6327728 0.4121213 0.5134947 0.4121626 0.5134947 0.4121626 0.6329071 0.5299844 0.5133118 0.5300256 0.5133118 0.5300256 0.6327387 0.6478482 0.5135416 0.6478894 0.6327889 0.2942582 0.7537896 0.4120808 0.6327728 0.4121213 0.6327728 0.4121213 0.7537751 0.5299447 0.6329071 0.5299844 0.6329071 0.5299844 0.7537944 0.6478061 0.6327387 0.6478482 0.6328731 0.7657129 0.7537944 0.6478061 0.7537783 0.7656691 0.6328067 0.1834452 0.753788 0.4622243 0.6327889 0.4622226 0.7537864 0.1834452 0.8628614 0.4622251 0.753788 0.4622243 0.753788 0.2942178 0.8628225 0.4120395 0.7537896 0.4120808 0.7537896 0.4120808 0.863122 0.5299001 0.7537751 0.5299447 0.7537751 0.5299447 0.862748 0.6477656 0.7537944 0.6478061 0.7537783 0.7656691 0.862748 0.6477656 0.8630475 0.765627 0.8628614 0.2941757 0.9843996 0.4119974 0.8628225 0.4120395 0.8628225 0.4120395 0.9840547 0.5298613 0.863122 0.5299001 0.863122 0.5299001 0.984487 0.6477235 0.862748 0.6477656 0.8630475 0.765627 0.984487 0.6477235 0.9841405 0.7655857 0.8628986 0.1834452 0.9843559 0.4622267 0.8628614 0.4622251 0.03831231 0.4622267 0.1553512 0.1834452 0.1553334 0.4622275 0.03831231 0.2941352 0.1553383 0.4119545 0.03831231 0.4119966 0.03831231 0.4119966 0.155344 0.52982 0.03831148 0.5298605 0.03830903 0.6477235 0.155344 0.52982 0.1553723 0.6476814 0.0383107 0.7655857 0.1553723 0.6476814 0.1553544 0.7655453 0.155344 0.52982 0.2744917 0.4119165 0.2744868 0.5297779 0.1553723 0.6476814 0.2744868 0.5297779 0.2744658 0.647641 0.1553544 0.7655453 0.2744658 0.647641 0.2744804 0.7655048 0.1553334 0.4622275 0.274482 0.1834452 0.2744966 0.4622291 0.1553383 0.4119545 0.2744966 0.2940534 0.2744917 0.4119165 0.2744966 0.4622291 0.3943591 0.1834452 0.3942878 0.46223 0.2744917 0.4119165 0.3942878 0.2940114 0.3943073 0.4118728 0.2744868 0.5297779 0.3943073 0.4118728 0.3943283 0.5297374 0.2744658 0.647641 0.3943283 0.5297374 0.3944384 0.6475996 0.2744804 0.7655048 0.3944384 0.6475996 0.3943688 0.7654627 0.3944384 0.6475996 0.5119809 0.5296953 0.5120894 0.6475576 0.3944384 0.6475996 0.5120214 0.7654206 0.3943688 0.7654627 0.3942878 0.46223 0.51201 0.1834452 0.511942 0.4622316 0.3943073 0.4118728 0.511942 0.2939684 0.5119615 0.4118315 0.3943283 0.5297374 0.5119615 0.4118315 0.5119809 0.5296953 0.511942 0.4622316 0.6318564 0.1834444 0.6318046 0.4622332 0.5119615 0.4118315 0.6318046 0.2939272 0.6318191 0.411791 0.5119809 0.5296953 0.6318191 0.411791 0.6318337 0.529654 0.5120894 0.6475576 0.6318337 0.529654 0.6319163 0.6475163 0.5120214 0.7654206 0.6319163 0.6475163 0.6318644 0.7653785 0.6319163 0.6475163 0.7546202 0.5296111 0.7546817 0.6474742 0.6318644 0.7653785 0.7546817 0.6474742 0.7546429 0.7653372 0.6318046 0.4622332 0.7546364 0.1834444 0.7545975 0.462234 0.6318191 0.411791 0.7545975 0.2938859 0.7546089 0.4117489 0.6318337 0.529654 0.7546089 0.4117489 0.7546202 0.5296111 0.7545975 0.462234 0.866046 0.1834444 0.8658614 0.4622356 0.7546089 0.4117489 0.8658614 0.2938438 0.8659148 0.411706 0.7546202 0.5296111 0.8659148 0.411706 0.8659667 0.5295699 0.7546817 0.6474742 0.8659667 0.5295699 0.866258 0.6474337 0.7546429 0.7653372 0.866258 0.6474337 0.8660735 0.7652967 0.8660735 0.7652967 0.9865334 0.6473916 0.9863893 0.7652546 0.8658614 0.4622356 0.9863683 0.1834444 0.9862242 0.4622364 0.8659148 0.411706 0.9862242 0.2938017 0.9862663 0.4116647 0.8659667 0.5295699 0.9862663 0.4116647 0.9863068 0.5295294 0.866258 0.6474337 0.9863068 0.5295294 0.9865334 0.6473916 0.2744804 0.3000511 0.1553561 0.8696555 0.1553561 0.3000487 0.8625991 0.3028795 0.9834816 0.868744 0.8625991 0.868961 0.5117202 0.2997823 0.6315633 0.8691633 0.5117202 0.8693803 0.2745031 0.2999726 0.3941567 0.8695924 0.2745031 0.8698093 0.1553561 0.3000487 0.0383107 0.8698968 0.0383107 0.300047 0.8630492 0.3000447 0.7537783 0.870393 0.7537783 0.300043 0.6315633 0.299686 0.7543692 0.868961 0.6315633 0.8691633 0.3941567 0.2998763 0.5117202 0.8693803 0.3941567 0.8695924 0.9841405 0.300047 0.8630492 0.8701428 0.8630492 0.3000447 0.1553504 0.3000641 0.2745031 0.8698093 0.1553504 0.8700166 0.8660735 0.3000608 0.7546429 0.868417 0.7546429 0.3000592 0.03830987 0.3001628 0.1553504 0.8700166 0.03830987 0.8702384 0.6318644 0.3000576 0.5120214 0.868914 0.5120214 0.3000552 0.3943688 0.3000527 0.2744804 0.8694151 0.2744804 0.3000511 0.7546429 0.3000592 0.6318644 0.8686631 0.6318644 0.3000576 0.1549708 0.3004 0.274414 0.8677718 0.1549708 0.8679791 0.9863893 0.3000633 0.8660735 0.8681758 0.8660735 0.3000608 0.5120214 0.3000552 0.3943688 0.8691641 0.3943688 0.3000527 0.8645209 0.2995007 0.9849824 0.8685222 0.8645209 0.868744 0.03666251 0.3003984 0.1549708 0.8679791 0.03666251 0.8681911 0.03830987 0.5516622 0.1553375 0.5516266 0.1553691 0.6694904 0.03830665 0.6695236 0.1553691 0.6694904 0.1553488 0.787351 0.03830099 0.1834897 0.1554476 0.1834897 0.1553472 0.4615678 0.03830903 0.3159353 0.1553472 0.3158997 0.1553318 0.4337627 0.0383107 0.4337975 0.1553318 0.4337627 0.1553375 0.5516266 0.1553318 0.4337627 0.274516 0.4337279 0.2745112 0.5515902 0.1553375 0.5516266 0.2745112 0.5515902 0.2744868 0.6694532 0.1553691 0.6694904 0.2744868 0.6694532 0.2745031 0.7873162 0.1554476 0.1834897 0.2744286 0.1834889 0.2745031 0.4615686 0.1553472 0.3158997 0.2745031 0.3158633 0.274516 0.4337279 0.2744286 0.1834889 0.3945356 0.1834889 0.3941535 0.4615702 0.2745031 0.3158633 0.3941535 0.3158285 0.3940887 0.4336915 0.274516 0.4337279 0.3940887 0.4336915 0.3941114 0.5515546 0.2745112 0.5515902 0.3941114 0.5515546 0.394236 0.6694176 0.2744868 0.6694532 0.394236 0.6694176 0.3941567 0.7872798 0.3941114 0.5515546 0.5116749 0.5515173 0.5117963 0.6693803 0.394236 0.6694176 0.5117963 0.6693803 0.5117202 0.7872442 0.3945356 0.1834889 0.512091 0.1834889 0.5117154 0.461571 0.3941535 0.3158285 0.5117154 0.3157929 0.5116522 0.4336567 0.3940887 0.4336915 0.5116522 0.4336567 0.5116749 0.5515173 0.512091 0.1834889 0.631845 0.1834889 0.6315601 0.4615718 0.5117154 0.3157929 0.6315601 0.3157572 0.6315131 0.4336203 0.5116522 0.4336567 0.6315131 0.4336203 0.631531 0.5514825 0.5116749 0.5515173 0.631531 0.5514825 0.6316232 0.6693455 0.5117202 0.7872442 0.5117963 0.6693803 0.6316232 0.6693455 0.631531 0.5514825 0.7543433 0.5514469 0.7544113 0.6693107 0.6316232 0.6693455 0.7544113 0.6693107 0.7543692 0.7871738 0.631845 0.1834889 0.7545765 0.1834889 0.754366 0.4615734 0.6315601 0.3157572 0.754366 0.3157208 0.7543304 0.4335838 0.6315131 0.4336203 0.7543304 0.4335838 0.7543433 0.5514469 0.7545765 0.1834889 0.8655084 0.1834889 0.8645095 0.4615743 0.754366 0.3157208 0.8645095 0.3156836 0.8643428 0.433549 0.7543304 0.4335838 0.8643428 0.433549 0.8644011 0.5514104 0.7543433 0.5514469 0.8644011 0.5514104 0.8647265 0.6692743 0.8622753 0.6693107 0.9832291 0.6692743 0.9834816 0.7871373 0.8647265 0.6692743 0.9851427 0.6692387 0.9849824 0.7871001 0.8655084 0.1834889 0.9857531 0.1834889 0.9858 0.461575 0.8656267 0.433549 0.8655684 0.3156836 0.9858 0.3156496 0.8644011 0.5514104 0.8643428 0.433549 0.9848432 0.4335118 0.8644011 0.5514104 0.9848886 0.5513748 0.9851427 0.6692387 0.03745907 0.4048616 0.03734898 0.2869994 0.1554937 0.2869638 0.03700494 0.5227246 0.03745907 0.4048616 0.1555779 0.4048252 0.03655326 0.6405885 0.03700494 0.5227246 0.1552323 0.5226898 0.03655326 0.6405885 0.1548874 0.6405513 0.1549708 0.7584143 0.03734898 0.4624429 0.03735786 0.1834306 0.1555002 0.1834306 0.1554937 0.4624437 0.1555002 0.1834306 0.274257 0.1834306 0.1555779 0.4048252 0.1554937 0.2869638 0.2742586 0.2869274 0.1552323 0.5226898 0.1555779 0.4048252 0.2742343 0.4047904 0.1548874 0.6405513 0.1552323 0.5226898 0.2743363 0.5226526 0.1548874 0.6405513 0.2744383 0.6405181 0.274414 0.7583795 0.2742343 0.4047904 0.2742586 0.2869274 0.3936402 0.2868925 0.2743363 0.5226526 0.2742343 0.4047904 0.3936241 0.4047539 0.2744383 0.6405181 0.2743363 0.5226526 0.3936888 0.5226162 0.2744383 0.6405181 0.3937552 0.6404808 0.393739 0.7583431 0.2742586 0.4624445 0.274257 0.1834306 0.3936386 0.1834306 0.3936402 0.4624461 0.3936386 0.1834306 0.512894 0.1834306 0.3936241 0.4047539 0.3936402 0.2868925 0.512894 0.2868561 0.3936888 0.5226162 0.3936241 0.4047539 0.5128762 0.4047183 0.3937552 0.6404808 0.3936888 0.5226162 0.5129572 0.5225813 0.393739 0.7583431 0.3937552 0.6404808 0.5130397 0.6404444 0.5129572 0.5225813 0.5128762 0.4047183 0.6333507 0.4046835 0.5130397 0.6404444 0.5129572 0.5225813 0.6332924 0.5225458 0.5130203 0.7583075 0.5130397 0.6404444 0.6332309 0.640408 0.512894 0.4624469 0.512894 0.1834306 0.6333377 0.1834306 0.5128762 0.4047183 0.512894 0.2868561 0.6333377 0.2868189 0.6333377 0.4624477 0.6333377 0.1834306 0.7537103 0.1834306 0.6333507 0.4046835 0.6333377 0.2868189 0.7537103 0.2867849 0.6332924 0.5225458 0.6333507 0.4046835 0.7537087 0.4046471 0.6332309 0.640408 0.6332924 0.5225458 0.7537168 0.5225117 0.6332309 0.640408 0.7537233 0.6403716 0.7537216 0.7582353 0.7537168 0.5225117 0.7537087 0.4046471 0.8646811 0.4046106 0.7537233 0.6403716 0.7537168 0.5225117 0.8645468 0.5224745 0.7537233 0.6403716 0.864414 0.6403368 0.8644464 0.7581998 0.7537103 0.4624493 0.7537103 0.1834306 0.864652 0.1834298 0.7537087 0.4046471 0.7537103 0.2867849 0.8646488 0.2867476 0.8646488 0.4624502 0.864652 0.1834298 0.9819597 0.1834298 0.8646811 0.4046106 0.8646488 0.2867476 0.9819614 0.2867128 0.8645468 0.5224745 0.8646811 0.4046106 0.9819257 0.4045758 0.864414 0.6403368 0.8645468 0.5224745 0.9820795 0.5224381 0.864414 0.6403368 0.9822333 0.6403011 0.9821961 0.758165 0.03891378 0.5301924 0.1559535 0.5301519 0.1549853 0.6480133 0.03865796 0.7659177 0.03764367 0.6480554 0.1549853 0.6480133 0.03815203 0.183446 0.1553731 0.183446 0.155276 0.4622178 0.0380249 0.2944671 0.1552751 0.294425 0.1551788 0.4122881 0.03789865 0.4123293 0.1551788 0.4122881 0.1559535 0.5301519 0.1553731 0.183446 0.2745112 0.183446 0.2745403 0.4622187 0.1552751 0.294425 0.2745403 0.2943837 0.2745678 0.4122468 0.1551788 0.4122881 0.2745678 0.4122468 0.2743395 0.5301082 0.1559535 0.5301519 0.2743395 0.5301082 0.2746261 0.6479712 0.1557592 0.7658764 0.1549853 0.6480133 0.2746261 0.6479712 0.2743962 0.7658351 0.2746261 0.6479712 0.3940191 0.6479299 0.2745112 0.183446 0.3939446 0.183446 0.3939625 0.4622203 0.2745403 0.2943837 0.3939625 0.2943425 0.3939802 0.4122047 0.2745678 0.4122468 0.3939802 0.4122047 0.3938329 0.5300669 0.2743395 0.5301082 0.3938329 0.5300669 0.3940191 0.6479299 0.3939446 0.183446 0.5134493 0.1834452 0.513472 0.4622219 0.3939625 0.2943425 0.513472 0.2943004 0.5134947 0.4121626 0.3939802 0.4122047 0.5134947 0.4121626 0.5133118 0.5300256 0.3938329 0.5300669 0.5133118 0.5300256 0.5135416 0.6478894 0.3940191 0.6479299 0.5135416 0.6478894 0.5133571 0.7657509 0.5135416 0.6478894 0.6327387 0.6478482 0.6328731 0.7657129 0.5134493 0.1834452 0.6328067 0.1834452 0.6327889 0.4622226 0.513472 0.2943004 0.6327889 0.2942582 0.6327728 0.4121213 0.5134947 0.4121626 0.6327728 0.4121213 0.6329071 0.5299844 0.5133118 0.5300256 0.6329071 0.5299844 0.6327387 0.6478482 0.6327889 0.2942582 0.753788 0.2942178 0.7537896 0.4120808 0.6327728 0.4121213 0.7537896 0.4120808 0.7537751 0.5299447 0.6329071 0.5299844 0.7537751 0.5299447 0.7537944 0.6478061 0.6328731 0.7657129 0.6327387 0.6478482 0.7537944 0.6478061 0.6328067 0.1834452 0.7537864 0.1834452 0.753788 0.4622243 0.7537864 0.1834452 0.8628986 0.1834452 0.8628614 0.4622251 0.753788 0.2942178 0.8628614 0.2941757 0.8628225 0.4120395 0.7537896 0.4120808 0.8628225 0.4120395 0.863122 0.5299001 0.7537751 0.5299447 0.863122 0.5299001 0.862748 0.6477656 0.7537783 0.7656691 0.7537944 0.6478061 0.862748 0.6477656 0.8628614 0.2941757 0.9843559 0.2941352 0.9843996 0.4119974 0.8628225 0.4120395 0.9843996 0.4119974 0.9840547 0.5298613 0.863122 0.5299001 0.9840547 0.5298613 0.984487 0.6477235 0.8630475 0.765627 0.862748 0.6477656 0.984487 0.6477235 0.8628986 0.1834452 0.9843122 0.1834452 0.9843559 0.4622267 0.03831231 0.4622267 0.0383107 0.1834452 0.1553512 0.1834452 0.03831231 0.2941352 0.1553334 0.2940939 0.1553383 0.4119545 0.03831231 0.4119966 0.1553383 0.4119545 0.155344 0.52982 0.03830903 0.6477235 0.03831148 0.5298605 0.155344 0.52982 0.0383107 0.7655857 0.03830903 0.6477235 0.1553723 0.6476814 0.155344 0.52982 0.1553383 0.4119545 0.2744917 0.4119165 0.1553723 0.6476814 0.155344 0.52982 0.2744868 0.5297779 0.1553544 0.7655453 0.1553723 0.6476814 0.2744658 0.647641 0.1553334 0.4622275 0.1553512 0.1834452 0.274482 0.1834452 0.1553383 0.4119545 0.1553334 0.2940939 0.2744966 0.2940534 0.2744966 0.4622291 0.274482 0.1834452 0.3943591 0.1834452 0.2744917 0.4119165 0.2744966 0.2940534 0.3942878 0.2940114 0.2744868 0.5297779 0.2744917 0.4119165 0.3943073 0.4118728 0.2744658 0.647641 0.2744868 0.5297779 0.3943283 0.5297374 0.2744804 0.7655048 0.2744658 0.647641 0.3944384 0.6475996 0.3944384 0.6475996 0.3943283 0.5297374 0.5119809 0.5296953 0.3944384 0.6475996 0.5120894 0.6475576 0.5120214 0.7654206 0.3942878 0.46223 0.3943591 0.1834452 0.51201 0.1834452 0.3943073 0.4118728 0.3942878 0.2940114 0.511942 0.2939684 0.3943283 0.5297374 0.3943073 0.4118728 0.5119615 0.4118315 0.511942 0.4622316 0.51201 0.1834452 0.6318564 0.1834444 0.5119615 0.4118315 0.511942 0.2939684 0.6318046 0.2939272 0.5119809 0.5296953 0.5119615 0.4118315 0.6318191 0.411791 0.5120894 0.6475576 0.5119809 0.5296953 0.6318337 0.529654 0.5120214 0.7654206 0.5120894 0.6475576 0.6319163 0.6475163 0.6319163 0.6475163 0.6318337 0.529654 0.7546202 0.5296111 0.6318644 0.7653785 0.6319163 0.6475163 0.7546817 0.6474742 0.6318046 0.4622332 0.6318564 0.1834444 0.7546364 0.1834444 0.6318191 0.411791 0.6318046 0.2939272 0.7545975 0.2938859 0.6318337 0.529654 0.6318191 0.411791 0.7546089 0.4117489 0.7545975 0.462234 0.7546364 0.1834444 0.866046 0.1834444 0.7546089 0.4117489 0.7545975 0.2938859 0.8658614 0.2938438 0.7546202 0.5296111 0.7546089 0.4117489 0.8659148 0.411706 0.7546817 0.6474742 0.7546202 0.5296111 0.8659667 0.5295699 0.7546429 0.7653372 0.7546817 0.6474742 0.866258 0.6474337 0.8660735 0.7652967 0.866258 0.6474337 0.9865334 0.6473916 0.8658614 0.4622356 0.866046 0.1834444 0.9863683 0.1834444 0.8659148 0.411706 0.8658614 0.2938438 0.9862242 0.2938017 0.8659667 0.5295699 0.8659148 0.411706 0.9862663 0.4116647 0.866258 0.6474337 0.8659667 0.5295699 0.9863068 0.5295294 0.2744804 0.3000511 0.2744804 0.8694151 0.1553561 0.8696555 0.8625991 0.3028795 0.9834816 0.3027832 0.9834816 0.868744 0.5117202 0.2997823 0.6315633 0.299686 0.6315633 0.8691633 0.2745031 0.2999726 0.3941567 0.2998763 0.3941567 0.8695924 0.1553561 0.3000487 0.1553561 0.8696555 0.0383107 0.8698968 0.8630492 0.3000447 0.8630492 0.8701428 0.7537783 0.870393 0.6315633 0.299686 0.7543692 0.299597 0.7543692 0.868961 0.3941567 0.2998763 0.5117202 0.2997823 0.5117202 0.8693803 0.9841405 0.300047 0.9841405 0.8698968 0.8630492 0.8701428 0.1553504 0.3000641 0.2745031 0.2999726 0.2745031 0.8698093 0.8660735 0.3000608 0.8660735 0.8681758 0.7546429 0.868417 0.03830987 0.3001628 0.1553504 0.3000641 0.1553504 0.8700166 0.6318644 0.3000576 0.6318644 0.8686631 0.5120214 0.868914 0.3943688 0.3000527 0.3943688 0.8691641 0.2744804 0.8694151 0.7546429 0.3000592 0.7546429 0.868417 0.6318644 0.8686631 0.1549708 0.3004 0.274414 0.3004016 0.274414 0.8677718 0.9863893 0.3000633 0.9863893 0.8679256 0.8660735 0.8681758 0.5120214 0.3000552 0.5120214 0.868914 0.3943688 0.8691641 0.8645209 0.2995007 0.9849824 0.2994019 0.9849824 0.8685222 0.03666251 0.3003984 0.1549708 0.3004 0.1549708 0.8679791</float_array>
          <technique_common>
            <accessor source="#Esfera_010-mesh-map-0-array" count="1080" stride="2">
              <param name="S" type="float"/>
              <param name="T" type="float"/>
            </accessor>
          </technique_common>
        </source>
        <vertices id="Esfera_010-mesh-vertices">
          <input semantic="POSITION" source="#Esfera_010-mesh-positions"/>
        </vertices>
        <triangles material="caballo-material" count="360">
          <input semantic="VERTEX" source="#Esfera_010-mesh-vertices" offset="0"/>
          <input semantic="NORMAL" source="#Esfera_010-mesh-normals" offset="1"/>
          <input semantic="TEXCOORD" source="#Esfera_010-mesh-map-0" offset="2" set="0"/>
          <p>3 0 0 10 1 1 4 2 2 4 2 3 11 3 4 5 4 5 0 5 6 7 6 7 1 7 8 1 7 9 8 8 10 2 9 11 2 10 12 9 11 13 3 0 14 8 12 15 15 13 16 9 11 17 9 11 18 16 14 19 10 1 20 10 1 21 17 15 22 11 3 23 6 16 24 13 17 25 7 6 26 7 6 27 14 18 28 8 8 29 12 19 30 19 20 31 13 17 32 13 17 33 20 21 34 14 18 35 14 22 36 21 23 37 15 13 38 15 13 39 22 24 40 16 14 41 16 14 42 23 25 43 17 15 44 21 23 45 28 26 46 22 24 47 22 24 48 29 27 49 23 25 50 18 28 51 25 29 52 19 20 53 19 20 54 26 30 55 20 21 56 20 31 57 27 32 58 21 23 59 24 33 60 31 34 61 25 29 62 25 29 63 32 35 64 26 30 65 26 30 66 33 36 67 27 32 68 27 32 69 34 37 70 28 26 71 29 27 72 34 37 73 35 38 74 33 36 75 40 39 76 34 37 77 34 37 78 41 40 79 35 38 80 30 41 81 37 42 82 31 34 83 31 34 84 38 43 85 32 35 86 32 35 87 39 44 88 33 36 89 36 45 90 43 46 91 37 42 92 37 42 93 44 47 94 38 43 95 38 43 96 45 48 97 39 44 98 39 44 99 46 49 100 40 39 101 40 39 102 47 50 103 41 40 104 46 49 105 53 51 106 47 50 107 42 52 108 49 53 109 43 46 110 44 47 111 49 53 112 50 54 113 45 48 114 50 54 115 51 55 116 45 48 117 52 56 118 46 49 119 50 54 120 55 57 121 56 58 122 51 55 123 56 58 124 57 59 125 52 56 126 57 59 127 58 60 128 52 56 129 59 61 130 53 51 131 49 53 132 54 62 133 55 57 134 55 57 135 60 63 136 61 64 137 56 58 138 61 64 139 62 65 140 57 59 141 62 65 142 63 66 143 58 60 144 63 66 145 64 67 146 58 60 147 65 68 148 59 61 149 62 65 150 67 69 151 68 70 152 63 66 153 68 70 154 69 71 155 64 67 156 69 71 157 70 72 158 64 67 159 71 73 160 65 68 161 61 64 162 66 74 163 67 69 164 67 69 165 72 75 166 73 76 167 68 70 168 73 76 169 74 77 170 69 71 171 74 77 172 75 78 173 70 72 174 75 78 175 76 79 176 71 73 177 76 79 178 77 80 179 75 78 180 80 81 181 81 82 182 76 79 183 81 82 184 82 83 185 77 80 186 82 83 187 83 84 188 73 76 189 78 85 190 79 86 191 74 77 192 79 86 193 80 81 194 79 86 195 84 87 196 85 88 197 80 81 198 85 88 199 86 89 200 81 82 201 86 89 202 87 90 203 82 83 204 87 90 205 88 91 206 82 83 207 89 92 208 83 84 209 87 90 210 92 93 211 93 94 212 88 91 213 93 94 214 94 95 215 88 91 216 95 96 217 89 92 218 85 88 219 90 97 220 91 98 221 86 89 222 91 98 223 92 93 224 91 98 225 96 99 226 97 100 227 92 93 228 97 100 229 98 101 230 93 94 231 98 101 232 99 102 233 94 95 234 99 102 235 100 103 236 94 104 237 101 105 238 95 96 239 99 102 240 106 106 241 100 103 242 101 105 243 106 107 244 107 108 245 96 99 246 103 109 247 97 100 248 97 100 249 104 110 250 98 101 251 98 101 252 105 111 253 99 102 254 102 112 255 109 113 256 103 109 257 103 109 258 110 114 259 104 110 260 104 110 261 111 115 262 105 111 263 105 111 264 112 116 265 106 106 266 107 108 267 112 116 268 113 117 269 113 117 270 118 118 271 119 119 272 108 120 273 115 121 274 109 113 275 109 113 276 116 122 277 110 114 278 110 114 279 117 123 280 111 115 281 111 115 282 118 118 283 112 116 284 114 124 285 121 125 286 115 121 287 115 121 288 122 126 289 116 122 290 116 122 291 123 127 292 117 123 293 117 123 294 124 128 295 118 118 296 118 118 297 125 129 298 119 119 299 124 128 300 131 130 301 125 129 302 120 131 303 127 132 304 121 125 305 121 125 306 128 133 307 122 126 308 122 126 309 129 134 310 123 127 311 123 127 312 130 135 313 124 128 314 127 132 315 134 136 316 128 133 317 128 133 318 135 137 319 129 134 320 129 134 321 136 138 322 130 135 323 131 130 324 136 138 325 137 139 326 126 140 327 133 141 328 127 132 329 132 142 330 139 143 331 133 141 332 133 141 333 140 144 334 134 136 335 134 136 336 141 145 337 135 137 338 135 137 339 142 146 340 136 138 341 137 139 342 142 146 343 143 147 344 139 143 345 146 148 346 140 144 347 140 144 348 147 149 349 141 145 350 141 145 351 148 150 352 142 146 353 143 147 354 148 150 355 149 151 356 138 152 357 145 153 358 139 143 359 145 153 360 150 154 361 151 155 362 145 153 363 152 156 364 146 148 365 146 148 366 153 157 367 147 149 368 148 150 369 153 157 370 154 158 371 149 151 372 154 158 373 155 159 374 153 157 375 158 160 376 159 161 377 154 158 378 159 161 379 160 162 380 155 159 381 160 162 382 161 163 383 151 155 384 156 164 385 157 165 386 152 156 387 157 165 388 158 160 389 157 165 390 162 166 391 163 167 392 158 160 393 163 167 394 164 168 395 159 161 396 164 168 397 165 169 398 160 162 399 165 169 400 166 170 401 161 163 402 166 170 403 167 171 404 166 170 405 171 172 406 172 173 407 166 170 408 173 174 409 167 171 410 163 167 411 168 175 412 169 176 413 164 168 414 169 176 415 170 177 416 165 169 417 170 177 418 171 172 419 169 176 420 174 178 421 175 179 422 170 177 423 175 179 424 176 180 425 171 172 426 176 181 427 177 182 428 172 173 429 177 182 430 178 183 431 173 174 432 178 183 433 179 184 434 178 183 435 183 185 436 184 186 437 179 184 438 184 186 439 185 187 440 175 179 441 180 188 442 181 189 443 176 180 444 181 189 445 182 190 446 177 182 447 182 191 448 183 185 449 181 189 450 186 192 451 187 193 452 182 190 453 187 193 454 188 194 455 183 185 456 188 195 457 189 196 458 184 186 459 189 196 460 190 197 461 185 187 462 190 197 463 191 198 464 191 198 465 4 2 466 5 4 467 187 193 468 0 5 469 1 7 470 188 194 471 1 7 472 2 9 473 189 196 474 2 10 475 3 0 476 190 197 477 3 0 478 4 2 479 161 163 480 206 199 481 155 159 482 41 40 483 199 200 484 198 201 485 29 27 486 197 202 487 196 203 488 17 15 489 195 204 490 194 205 491 155 159 492 205 206 493 149 151 494 143 147 495 203 207 496 137 139 497 35 38 498 198 201 499 197 202 500 23 25 501 196 203 502 195 204 503 149 151 504 204 208 505 143 147 506 11 3 507 194 205 508 193 209 509 191 198 510 211 210 511 185 187 512 5 4 513 193 209 514 192 211 515 179 184 516 209 212 517 173 174 518 167 171 519 207 213 520 161 163 521 185 187 522 210 214 523 179 184 524 59 61 525 202 215 526 201 216 527 5 4 528 212 217 529 191 198 530 173 174 531 208 218 532 167 171 533 47 50 534 200 219 535 199 200 536 53 51 537 201 216 538 200 219 539 3 0 540 9 11 541 10 1 542 4 2 543 10 1 544 11 3 545 0 5 546 6 16 547 7 6 548 1 7 549 7 6 550 8 8 551 2 10 552 8 12 553 9 11 554 8 12 555 14 22 556 15 13 557 9 11 558 15 13 559 16 14 560 10 1 561 16 14 562 17 15 563 6 16 564 12 19 565 13 17 566 7 6 567 13 17 568 14 18 569 12 19 570 18 28 571 19 20 572 13 17 573 19 20 574 20 21 575 14 22 576 20 31 577 21 23 578 15 13 579 21 23 580 22 24 581 16 14 582 22 24 583 23 25 584 21 23 585 27 32 586 28 26 587 22 24 588 28 26 589 29 27 590 18 28 591 24 33 592 25 29 593 19 20 594 25 29 595 26 30 596 20 31 597 26 30 598 27 32 599 24 33 600 30 41 601 31 34 602 25 29 603 31 34 604 32 35 605 26 30 606 32 35 607 33 36 608 27 32 609 33 36 610 34 37 611 29 27 612 28 26 613 34 37 614 33 36 615 39 44 616 40 39 617 34 37 618 40 39 619 41 40 620 30 41 621 36 45 622 37 42 623 31 34 624 37 42 625 38 43 626 32 35 627 38 43 628 39 44 629 36 45 630 42 52 631 43 46 632 37 42 633 43 46 634 44 47 635 38 43 636 44 47 637 45 48 638 39 44 639 45 48 640 46 49 641 40 39 642 46 49 643 47 50 644 46 49 645 52 56 646 53 51 647 42 52 648 48 220 649 49 53 650 44 47 651 43 46 652 49 53 653 45 48 654 44 47 655 50 54 656 45 48 657 51 55 658 52 56 659 50 54 660 49 53 661 55 57 662 51 55 663 50 54 664 56 58 665 52 56 666 51 55 667 57 59 668 52 56 669 58 60 670 59 61 671 49 53 672 48 220 673 54 62 674 55 57 675 54 62 676 60 63 677 56 58 678 55 57 679 61 64 680 57 59 681 56 58 682 62 65 683 58 60 684 57 59 685 63 66 686 58 60 687 64 67 688 65 68 689 62 65 690 61 64 691 67 69 692 63 66 693 62 65 694 68 70 695 64 67 696 63 66 697 69 71 698 64 67 699 70 72 700 71 73 701 61 64 702 60 63 703 66 74 704 67 69 705 66 74 706 72 75 707 68 70 708 67 69 709 73 76 710 69 71 711 68 70 712 74 77 713 70 72 714 69 71 715 75 78 716 71 73 717 70 72 718 76 79 719 75 78 720 74 77 721 80 81 722 76 79 723 75 78 724 81 82 725 77 80 726 76 79 727 82 83 728 73 76 729 72 75 730 78 85 731 74 77 732 73 76 733 79 86 734 79 86 735 78 85 736 84 87 737 80 81 738 79 86 739 85 88 740 81 82 741 80 81 742 86 89 743 82 83 744 81 82 745 87 90 746 82 83 747 88 91 748 89 92 749 87 90 750 86 89 751 92 93 752 88 91 753 87 90 754 93 94 755 88 91 756 94 104 757 95 96 758 85 88 759 84 87 760 90 97 761 86 89 762 85 88 763 91 98 764 91 98 765 90 97 766 96 99 767 92 93 768 91 98 769 97 100 770 93 94 771 92 93 772 98 101 773 94 95 774 93 94 775 99 102 776 94 104 777 100 221 778 101 105 779 99 102 780 105 111 781 106 106 782 101 105 783 100 221 784 106 107 785 96 99 786 102 112 787 103 109 788 97 100 789 103 109 790 104 110 791 98 101 792 104 110 793 105 111 794 102 112 795 108 120 796 109 113 797 103 109 798 109 113 799 110 114 800 104 110 801 110 114 802 111 115 803 105 111 804 111 115 805 112 116 806 107 108 807 106 107 808 112 116 809 113 117 810 112 116 811 118 118 812 108 120 813 114 124 814 115 121 815 109 113 816 115 121 817 116 122 818 110 114 819 116 122 820 117 123 821 111 115 822 117 123 823 118 118 824 114 124 825 120 131 826 121 125 827 115 121 828 121 125 829 122 126 830 116 122 831 122 126 832 123 127 833 117 123 834 123 127 835 124 128 836 118 118 837 124 128 838 125 129 839 124 128 840 130 135 841 131 130 842 120 131 843 126 140 844 127 132 845 121 125 846 127 132 847 128 133 848 122 126 849 128 133 850 129 134 851 123 127 852 129 134 853 130 135 854 127 132 855 133 141 856 134 136 857 128 133 858 134 136 859 135 137 860 129 134 861 135 137 862 136 138 863 131 130 864 130 135 865 136 138 866 126 140 867 132 142 868 133 141 869 132 142 870 138 152 871 139 143 872 133 141 873 139 143 874 140 144 875 134 136 876 140 144 877 141 145 878 135 137 879 141 145 880 142 146 881 137 139 882 136 138 883 142 146 884 139 143 885 145 153 886 146 148 887 140 144 888 146 148 889 147 149 890 141 145 891 147 149 892 148 150 893 143 147 894 142 146 895 148 150 896 138 152 897 144 222 898 145 153 899 145 153 900 144 222 901 150 154 902 145 153 903 151 155 904 152 156 905 146 148 906 152 156 907 153 157 908 148 150 909 147 149 910 153 157 911 149 151 912 148 150 913 154 158 914 153 157 915 152 156 916 158 160 917 154 158 918 153 157 919 159 161 920 155 159 921 154 158 922 160 162 923 151 155 924 150 154 925 156 164 926 152 156 927 151 155 928 157 165 929 157 165 930 156 164 931 162 166 932 158 160 933 157 165 934 163 167 935 159 161 936 158 160 937 164 168 938 160 162 939 159 161 940 165 169 941 161 163 942 160 162 943 166 170 944 166 170 945 165 169 946 171 172 947 166 170 948 172 173 949 173 174 950 163 167 951 162 166 952 168 175 953 164 168 954 163 167 955 169 176 956 165 169 957 164 168 958 170 177 959 169 176 960 168 175 961 174 178 962 170 177 963 169 176 964 175 179 965 171 172 966 170 177 967 176 181 968 172 173 969 171 172 970 177 182 971 173 174 972 172 173 973 178 183 974 178 183 975 177 182 976 183 185 977 179 184 978 178 183 979 184 186 980 175 179 981 174 178 982 180 188 983 176 180 984 175 179 985 181 189 986 177 182 987 176 181 988 182 191 989 181 189 990 180 188 991 186 192 992 182 190 993 181 189 994 187 193 995 183 185 996 182 191 997 188 195 998 184 186 999 183 185 1000 189 196 1001 185 187 1002 184 186 1003 190 197 1004 191 198 1005 190 197 1006 4 2 1007 187 193 1008 186 192 1009 0 5 1010 188 194 1011 187 193 1012 1 7 1013 189 196 1014 188 195 1015 2 10 1016 190 197 1017 189 196 1018 3 0 1019 161 163 1020 207 213 1021 206 199 1022 41 40 1023 47 50 1024 199 200 1025 29 27 1026 35 38 1027 197 202 1028 17 15 1029 23 25 1030 195 204 1031 155 159 1032 206 199 1033 205 206 1034 143 147 1035 204 208 1036 203 207 1037 35 38 1038 41 40 1039 198 201 1040 23 25 1041 29 27 1042 196 203 1043 149 151 1044 205 206 1045 204 208 1046 11 3 1047 17 15 1048 194 205 1049 191 198 1050 212 217 1051 211 210 1052 5 4 1053 11 3 1054 193 209 1055 179 184 1056 210 214 1057 209 212 1058 167 171 1059 208 218 1060 207 213 1061 185 187 1062 211 210 1063 210 214 1064 59 61 1065 65 68 1066 202 215 1067 5 4 1068 192 211 1069 212 217 1070 173 174 1071 209 212 1072 208 218 1073 47 50 1074 53 51 1075 200 219 1076 53 51 1077 59 61 1078 201 216 1079</p>
        </triangles>
      </mesh>
    </geometry>
  </library_geometries>
  <library_visual_scenes>
    <visual_scene id="Scene" name="Scene">
      <node id="a-hair_lib_01" name="a-hair_lib_01" type="NODE">
        <matrix sid="transform">1 0 0 0 0 1 0 0 0 0 1 0 0 0 0 1</matrix>
        <instance_geometry url="#Esfera_010-mesh" name="a-hair_lib_01">
          <bind_material>
            <technique_common>
              <instance_material symbol="caballo-material" target="#caballo-material">
                <bind_vertex_input semantic="MapaUV" input_semantic="TEXCOORD" input_set="0"/>
              </instance_material>
            </technique_common>
          </bind_material>
        </instance_geometry>
      </node>
    </visual_scene>
  </library_visual_scenes>
  <scene>
    <instance_visual_scene url="#Scene"/>
  </scene>
</COLLADA>