<?xml version="1.0" encoding="utf-8"?>
<COLLADA xmlns="http://www.collada.org/2005/11/COLLADASchema" version="1.4.1" xmlns:xsi="http://www.w3.org/2001/XMLSchema-instance">
  <asset>
    <contributor>
      <author>Blender User</author>
      <authoring_tool>Blender 4.3.1 commit date:2024-12-10, commit time:07:46, hash:33d812126174</authoring_tool>
    </contributor>
    <created>2026-09-22T21:37:31</created>
    <modified>2026-09-22T21:37:31</modified>
    <unit name="meter" meter="1"/>
    <up_axis>Z_UP</up_axis>
  </asset>
  <library_effects>
    <effect id="A-textura_auxiliar_libi_cyrene_General-effect">
      <profile_COMMON>
        <technique sid="common">
          <lambert>
            <emission>
              <color sid="emission">0 0 0 1</color>
            </emission>
            <diffuse>
              <color sid="diffuse">0.8 0.8 0.8 1</color>
            </diffuse>
            <index_of_refraction>
              <float sid="ior">1.45</float>
            </index_of_refraction>
          </lambert>
        </technique>
      </profile_COMMON>
    </effect>
  </library_effects>
  <library_images/>
  <library_materials>
    <material id="A-textura_auxiliar_libi_cyrene_General-material" name="A-textura auxiliar libi cyrene General">
      <instance_effect url="#A-textura_auxiliar_libi_cyrene_General-effect"/>
    </material>
  </library_materials>
  <library_geometries>
    <geometry id="Cubo_001-mesh" name="Cubo.001">
      <mesh>
        <source id="Cubo_001-mesh-positions">
          <float_array id="Cubo_001-mesh-positions-array" count="696">-0.1932669 -0.0918942 -0.00111854 -0.1932669 -0.0918942 0.07885581 -0.1931142 -0.01130121 -0.00111854 -0.1931142 -0.01130121 0.07885581 -0.1631227 -0.09195137 -0.00111854 -0.1631227 -0.09195137 0.07885581 -0.1629699 -0.01135838 -0.00111854 -0.1629699 -0.01135838 0.07885581 -0.1931906 -0.05159771 -0.0173664 -0.1931906 -0.05159771 0.09510368 -0.1630462 -0.05165487 -0.0173664 -0.1630462 -0.05165487 0.09510368 -0.193299 -0.1088104 0.0388686 -0.1930822 0.005614876 0.0388686 -0.1629378 0.005557775 0.0388686 -0.1631547 -0.1088675 0.0388686 -0.1931906 -0.05159771 -0.0430839 -0.1933013 -0.1100013 -0.01953506 -0.1933481 -0.1347084 0.0388686 -0.1933013 -0.1100013 0.09727239 -0.1931906 -0.05159771 0.1208212 -0.1930799 0.006805837 0.09727239 -0.193033 0.03151297 0.0388686 -0.1930799 0.006805837 -0.01953506 -0.1628887 0.03145581 0.0388686 -0.1629356 0.006748735 -0.01953506 -0.1630462 -0.05165487 -0.0430839 -0.1630462 -0.05165487 0.1208212 -0.163157 -0.1100585 0.09727239 -0.1632038 -0.1347656 0.0388686 -0.163157 -0.1100585 -0.01953506 -0.1629356 0.006748735 0.09727239 0.1673108 -0.0918942 -0.00111854 0.1673108 -0.0918942 0.07885581 0.1674636 -0.01130121 -0.00111854 0.1674636 -0.01130121 0.07885581 0.1974552 -0.09195137 -0.00111854 0.1974552 -0.09195137 0.07885581 0.197608 -0.01135838 -0.00111854 0.197608 -0.01135838 0.07885581 0.1673873 -0.05159771 -0.0173664 0.1673873 -0.05159771 0.09510368 0.1975316 -0.05165487 -0.0173664 0.1975316 -0.05165487 0.09510368 0.1672788 -0.1088104 0.0388686 0.1674957 0.005614876 0.0388686 0.1976401 0.005557775 0.0388686 0.1974232 -0.1088675 0.0388686 0.1673873 -0.05159771 -0.0430839 0.1672765 -0.1100013 -0.01953506 0.1672297 -0.1347084 0.0388686 0.1672765 -0.1100013 0.09727239 0.1673873 -0.05159771 0.1208212 0.1674979 0.006805837 0.09727239 0.1675447 0.03151297 0.0388686 0.1674979 0.006805837 -0.01953506 0.1976891 0.03145581 0.0388686 0.1976423 0.006748735 -0.01953506 0.1975316 -0.05165487 -0.0430839 0.1975316 -0.05165487 0.1208212 0.1974209 -0.1100585 0.09727239 0.1973741 -0.1347656 0.0388686 0.1974209 -0.1100585 -0.01953506 0.1976423 0.006748735 0.09727239 0.03283405 -0.3918807 0.2797576 0.03283405 -0.3746023 0.3322372 -0.03284949 -0.3913797 0.2795927 -0.03284949 -0.3741014 0.3320724 0.03303122 -0.368545 0.2720747 0.03303122 -0.3512666 0.3245542 -0.03265225 -0.3680443 0.2719098 -0.03265225 -0.3507659 0.3243894 -7.71245e-6 -0.3708415 0.3428168 1.89481e-4 -0.3475059 0.3351337 0.04662078 -0.3833466 0.306032 -0.04663622 -0.3826356 0.3057979 -0.04643899 -0.3592999 0.298115 0.04681795 -0.3600109 0.2983491 0.04759138 -0.3959719 0.2677096 0.0677278 -0.3835074 0.306085 0.04759138 -0.370736 0.3443593 -7.71262e-6 -0.3652852 0.3596928 -0.04760682 -0.3700101 0.3441203 -0.06774324 -0.3824746 0.305745 -0.04760682 -0.3952463 0.2674707 -0.06754601 -0.3591392 0.298062 -0.04740965 -0.3719106 0.2597876 1.89481e-4 -0.3419498 0.3520097 0.04778861 -0.3474003 0.3366763 0.06792497 -0.3601719 0.298402 0.04778861 -0.3726365 0.2600266 -0.04740965 -0.3466745 0.3364374 0.01582789 -0.3956732 0.2473996 -0.0157411 -0.3954324 0.2473204 0.01592266 -0.3844577 0.243707 -0.01564633 -0.3842169 0.2436277 0.0229206 -0.3976395 0.241609 -0.02283382 -0.3972908 0.2414941 -0.02273905 -0.3860753 0.2378016 0.02301537 -0.3864239 0.2379164 0.1150636 -0.1443747 0.5140099 0.1150636 -0.1443747 0.4504155 0.1150636 -0.2079691 0.5140099 0.1150636 -0.2079691 0.4504155 0.0514692 -0.1443747 0.5140099 0.0514692 -0.1443747 0.4504155 0.0514692 -0.2079691 0.5140099 0.0514692 -0.2079691 0.4504155 0.1150636 0.09162485 0.5328831 0.1150636 0.09162485 0.4692887 0.1150636 0.02803045 0.5328831 0.1150636 0.02803045 0.4692887 0.0514692 0.09162485 0.5328831 0.0514692 0.09162485 0.4692887 0.0514692 0.02803045 0.5328831 0.0514692 0.02803045 0.4692887 0.1150636 0.2395451 0.3837656 0.1150636 0.2395451 0.3201712 0.1150636 0.1759508 0.3837656 0.1150636 0.1759508 0.3201712 0.0514692 0.2395451 0.3837656 0.0514692 0.2395451 0.3201712 0.0514692 0.1759508 0.3837656 0.0514692 0.1759508 0.3201712 0.03283405 0.38421 -0.1788298 0.03283405 0.3821144 -0.1236187 -0.03284949 0.384737 -0.1788097 -0.03284949 0.3826411 -0.1235987 0.03303122 0.4087601 -0.1778978 0.03303122 0.4066645 -0.1226868 -0.03265225 0.409287 -0.1778778 -0.03265225 0.4071912 -0.1226668 -7.71192e-6 0.3819518 -0.1123918 1.89481e-4 0.4065019 -0.1114599 0.04662078 0.3830516 -0.1512284 -0.04663622 0.3837997 -0.1512 -0.04643899 0.4083497 -0.1502681 0.04681795 0.4076017 -0.1502965 0.04759138 0.3845744 -0.1915483 0.0677278 0.3828824 -0.1512349 0.04759138 0.3815132 -0.1109091 -7.71204e-6 0.381278 -0.09463751 -0.04760682 0.382277 -0.1108801 -0.06774324 0.383969 -0.1511936 -0.04760682 0.3853378 -0.1915192 -0.06754601 0.408519 -0.1502617 -0.04740965 0.4098879 -0.1905875 1.89481e-4 0.4058281 -0.09370559 0.04778861 0.4060633 -0.1099773 0.06792497 0.4074324 -0.1503029 0.04778861 0.4091244 -0.1906164 -0.04740965 0.406827 -0.1099483 0.01582789 0.391933 -0.2104806 -0.0157411 0.3921864 -0.210471 0.01592266 0.4037325 -0.2100327 -0.01564633 0.4039856 -0.2100232 0.0229206 0.3921082 -0.2165934 -0.02283382 0.3924752 -0.2165796 -0.02273905 0.4042745 -0.2161316 0.02301537 0.4039076 -0.2161455 -0.04965782 -0.1443747 0.5140099 -0.04965782 -0.1443747 0.4504155 -0.04965782 -0.2079691 0.5140099 -0.04965782 -0.2079691 0.4504155 -0.1132522 -0.1443747 0.5140099 -0.1132522 -0.1443747 0.4504155 -0.1132522 -0.2079691 0.5140099 -0.1132522 -0.2079691 0.4504155 -0.04965782 0.09162485 0.5328831 -0.04965782 0.09162485 0.4692887 -0.04965782 0.02803045 0.5328831 -0.04965782 0.02803045 0.4692887 -0.1132522 0.09162485 0.5328831 -0.1132522 0.09162485 0.4692887 -0.1132522 0.02803045 0.5328831 -0.1132522 0.02803045 0.4692887 -0.04965782 0.2395451 0.3837656 -0.04965782 0.2395451 0.3201712 -0.04965782 0.1759508 0.3837656 -0.04965782 0.1759508 0.3201712 -0.1132522 0.2395451 0.3837656 -0.1132522 0.2395451 0.3201712 -0.1132522 0.1759508 0.3837656 -0.1132522 0.1759508 0.3201712 0.02376925 -0.2815201 0.01816588 0.02376925 -0.2742445 0.0644508 -0.02344501 -0.2811457 0.01810705 -0.02344501 -0.27387 0.06439191 0.02391099 -0.2640748 0.01542353 0.02391099 -0.256799 0.06170845 -0.02330327 -0.2637003 0.0153647 -0.02330327 -0.2564246 0.06164962 1.62111e-4 -0.2828111 0.008733034 1.62111e-4 -0.272579 0.07382482 3.03861e-4 -0.2653658 0.005990684 3.03861e-4 -0.2551337 0.07108241 0.03367936 -0.2779608 0.04132068 -0.03335511 -0.2774294 0.04123711 -0.03321337 -0.2599839 0.03849482 0.0338211 -0.2605153 0.03857839 1.62111e-4 -0.2851508 -0.006150841 0.03437703 -0.2832797 0.007520556 0.04885137 -0.2780812 0.04133963 0.03437703 -0.2726529 0.07512259 1.62111e-4 -0.2702394 0.08870869 -0.03405284 -0.2721103 0.0750373 -0.04852718 -0.277309 0.04121822 -0.03405284 -0.2827373 0.007435262 -0.04838538 -0.2598635 0.03847587 -0.0339111 -0.2652918 0.004692912 3.03861e-4 -0.2677054 -0.008893132 3.03861e-4 -0.2527939 0.08596634 0.03451877 -0.2552075 0.07238018 0.04899311 -0.2606357 0.03859722 0.03451877 -0.2658345 0.004778206 -0.0339111 -0.2546651 0.07229489 0.1150636 0.2817454 0.1540066 0.1150636 0.2817454 0.09041231 0.1150636 0.2181511 0.1540066 0.1150636 0.2181511 0.09041231 0.0514692 0.2817454 0.1540066 0.0514692 0.2817454 0.09041231 0.0514692 0.2181511 0.1540066 0.0514692 0.2181511 0.09041231 -0.04965782 0.2817454 0.1540066 -0.04965782 0.2817454 0.09041231 -0.04965782 0.2181511 0.1540066 -0.04965782 0.2181511 0.09041231 -0.1132522 0.2817454 0.1540066 -0.1132522 0.2817454 0.09041231 -0.1132522 0.2181511 0.1540066 -0.1132522 0.2181511 0.09041231</float_array>
          <technique_common>
            <accessor source="#Cubo_001-mesh-positions-array" count="232" stride="3">
              <param name="X" type="float"/>
              <param name="Y" type="float"/>
              <param name="Z" type="float"/>
            </accessor>
          </technique_common>
        </source>
        <source id="Cubo_001-mesh-normals">
          <float_array id="Cubo_001-mesh-normals-array" count="711">-0.6275721 0.7785585 0 0.631138 0.543204 0.5537095 0.6305048 0.7761854 0 -0.9278883 0.3436613 -0.1446385 0.8072786 0.5901705 -1.82837e-7 -0.8050419 0.5932181 -2.31595e-7 0.6275727 -0.778558 0 -0.6311379 -0.543204 0.5537098 -0.6305049 -0.7761853 0 -0.6318181 0.001203298 0.7751157 0.6290734 -0.5456017 0.5537016 0.6318184 -0.001203179 0.7751157 -0.6290737 0.5456014 0.5537015 -0.8036479 0.4179993 0.4235881 0.8052269 0.414946 0.4235915 -0.8017103 0.001521885 0.5977109 0.8017105 -0.001522243 0.5977107 -0.8052268 -0.4149463 0.4235911 0.8036478 -0.417999 0.4235882 -0.8072787 -0.5901705 -1.70913e-7 -0.8328157 -0.5095689 -0.2162352 0.830868 -0.512736 -0.2162412 0.9278883 -0.343661 -0.144639 0.805042 -0.5932179 -1.82838e-7 0.8328157 0.509569 -0.2162351 -0.8308684 0.5127353 -0.2162413 -0.9999982 0.001895189 0 -0.9291872 -0.3401348 -0.1446353 0.9999983 -0.001895606 -1.67987e-7 0.9291874 0.3401347 -0.1446356 -0.9999982 0.001895487 0 0.9999982 -0.001895487 0 -0.6275728 0.778558 0 0.631137 0.5432046 0.5537102 0.6305051 0.7761851 1.60145e-7 -0.9278882 0.3436616 -0.1446386 0.8072779 0.5901715 -2.19404e-7 -0.805042 0.5932179 -2.07217e-7 0.6275731 -0.7785577 0 -0.6311381 -0.5432036 0.5537099 -0.6305049 -0.7761853 -1.28116e-7 -0.631818 0.001203298 0.775116 0.6290737 -0.545601 0.5537021 0.6318181 -0.00120306 0.7751158 -0.6290737 0.5456013 0.5537018 -0.8036479 0.4179995 0.4235879 0.8052271 0.4149464 0.4235907 -0.8017103 0.001522064 0.597711 0.8017103 -0.001521944 0.597711 -0.8052264 -0.4149467 0.4235915 0.803649 -0.4179991 0.4235863 -0.8072785 -0.5901709 0 -0.8328158 -0.5095685 -0.2162353 0.830868 -0.5127357 -0.2162418 0.9278892 -0.3436598 -0.1446364 0.8050411 -0.5932191 -1.70649e-7 0.8328149 0.5095691 -0.2162371 -0.8308686 0.5127351 -0.2162415 -0.9999982 0.001895546 0 -0.929187 -0.3401353 -0.1446357 0.9999983 -0.00189507 4.79554e-7 0.929187 0.3401357 -0.144635 0.9999982 -0.001895189 0 -0.3985416 -0.900179 -0.1756199 0.006319999 0.5554334 -0.8315371 -0.3856503 0.6257565 -0.6780139 -0.7902967 -0.5819934 0.1916118 -0.5057331 0.7857179 0.3562046 -0.7224901 0.6749132 -0.1500007 -0.6238102 -0.7423768 0.2444126 0.5158606 0.7779284 0.358769 0.7803597 -0.593968 0.195553 0.7902955 0.5819944 -0.1916128 0.005145609 0.848898 0.5285319 0.5057381 -0.4204266 0.7533065 -0.5158641 -0.4126399 0.7507413 -0.469294 0.8162616 -0.3368682 -0.8974245 0.1386009 0.4188306 0.6238096 0.7423768 -0.2444142 0.8887981 0.1365274 0.4374911 0.8887982 0.1365279 0.4374907 0.8202913 -0.1851062 -0.5411635 0.8202946 -0.1851048 -0.541159 0.3985499 0.6197744 -0.6760458 0.5619179 -0.7857051 0.2586813 -0.7990615 -0.1856271 -0.5718768 -0.8947291 -0.1328266 -0.4263999 -0.8329472 -0.1631216 -0.5287631 0.3856471 -0.9061573 -0.173653 -0.005144834 -0.3688501 0.9294747 0.04744416 -0.9668775 0.2507928 0.04172039 -0.9654673 0.2571621 -0.009167432 0.9563573 -0.2920562 -0.05414021 0.923438 -0.3799094 -0.04170697 0.9294024 -0.3667039 -0.00632447 -0.9407978 -0.3389095 0.008117675 -0.9432289 0.3320443 0.8918142 -0.450793 -0.03812372 0.8344089 0.4371857 -0.3356048 0.01593333 0.2277062 -0.9735996 -0.8259539 0.4498432 -0.3397666 -0.08667665 -0.9708637 0.2234075 -0.7490828 -0.6536715 -0.1076513 0.00756663 -0.7617334 -0.6478464 -0.7153766 -0.2130517 -0.6654663 0.1081949 -0.9776749 0.1801274 -0.8895319 0.1496388 0.4316728 -0.8819411 0.1541116 0.4454542 -0.8867755 0.1520278 0.4364824 0.0867272 0.9133751 -0.3977744 -0.007577836 0.2278741 -0.9736611 0.1527574 -0.8067455 -0.5708126 0.7071268 0.7070868 0 0.5773285 0.5773612 0.5773611 0.5773721 -0.5773394 0.5773394 0.7070868 -0.7071269 0 -0.5773285 -0.5773612 0.5773611 -0.7071268 -0.7070868 0 -0.5773721 0.5773394 0.5773394 -0.7070868 0.7071269 0 0.7071269 0.7070868 0 0.5773285 0.5773611 0.5773612 0.5773721 -0.5773394 0.5773394 0.7070868 -0.7071268 0 -0.5773285 -0.5773611 0.5773612 -0.7071269 -0.7070868 0 -0.5773721 0.5773394 0.5773394 -0.7070868 0.7071268 0 0.5773285 0.5773612 0.5773612 -0.5773285 -0.5773612 0.5773612 -0.3856395 0.8228331 -0.4174063 -0.006319522 -0.7636811 -0.6455628 0.006320595 0.8104218 -0.5858128 -0.5158625 -0.6484162 0.5598593 -0.7803571 0.6248844 0.02371555 -0.790296 -0.6122846 -0.02323639 -0.39855 -0.7825217 -0.478349 -0.5619183 0.8265977 0.03137218 -0.6238142 -0.7810104 -0.02964127 0.7902947 0.6122861 0.02324026 0.5057324 -0.6566134 0.5595478 0.7224882 -0.6900796 0.0424391 -0.005144894 -0.6696864 0.7426263 0.5158672 0.6041085 0.6073995 0.005144774 0.6114513 0.7912653 -0.5057383 0.6123076 0.6077073 -0.8887976 -0.01025485 0.4581855 0.8866711 -0.02511912 0.461718 0.8947293 -0.02411466 0.4459574 0.889673 -0.02431571 0.4559504 0.7980771 0.01652067 -0.6023288 0.8947286 0.009762048 -0.4465037 0.8334907 0.01354008 -0.5523677 0.6238132 0.7810113 0.02963888 0.3856476 -0.788817 -0.4785851 0.4692971 -0.8775788 -0.09806108 -0.820292 0.0282706 -0.571246 -0.8202962 0.02827054 -0.5712398 0.3985413 0.8165364 -0.4176519 0.04733878 -0.9936639 -0.1019369 0.04171395 -0.9945592 -0.09545642 -0.008642852 0.9983215 0.05726724 -0.04740291 0.9985272 -0.02639049 -0.04171621 0.9989336 -0.01978456 0.00877124 -0.9997916 -0.018435 0.8819445 -0.02495098 0.4706927 -0.1081905 0.9893682 -0.09718793 -0.08657753 -0.9878839 -0.1288015 -0.8344112 -0.5129289 -0.201648 0.007574975 -0.488188 -0.8727056 -0.00756514 0.5529357 -0.8331896 -0.01593434 -0.4879953 -0.8727009 0.1081919 -0.9791525 -0.1719151 0.7153734 0.02076596 -0.6984337 -0.8887974 -0.0102548 0.4581858 -0.8918138 0.4226791 -0.1612787 0.08655607 0.9948131 -0.05343383 0.7490866 0.5984272 -0.2841731 0.8918119 -0.4092321 -0.1928746 -0.1527515 0.6174839 -0.7716091 0.5773285 0.5773611 0.5773612 -0.5773285 -0.5773611 0.5773612 -0.4229095 -0.8571354 -0.2940522 0.006436586 0.6991401 -0.7149558 -0.4100115 0.7321742 -0.5438856 -0.7824156 -0.615203 0.09670215 -0.5393257 0.7127435 0.4484691 -0.7723132 0.627537 -0.09863936 -0.5981575 -0.7916576 0.1244423 0.549436 0.7041152 0.4498242 0.7723136 -0.6275364 0.09864044 0.7824144 0.6152043 -0.09670227 -0.00507164 -0.7445263 -0.6675738 0.5494499 0.5321393 -0.6441526 0.5393256 -0.712743 -0.44847 0.005071282 0.7445269 0.6675732 0.5393356 -0.5407713 0.6455104 -0.5494502 -0.5321378 0.6441537 -0.5393355 0.5407723 -0.6455096 -0.5494354 -0.704115 -0.4498254 -0.5852136 0.8010426 -0.1259205 -0.4229182 -0.7255752 0.5428453 -0.4099988 0.8637384 0.2930138 -0.006436347 -0.6991412 0.7149547 0.4229084 0.8571357 0.2940527 0.006436944 0.8847832 0.4659587 0.5981585 0.791657 -0.1244425 0.4100148 -0.7321727 0.5438851 0.4229137 0.7255775 -0.5428456 0.5852114 -0.8010442 0.1259203 0.4099993 -0.8637377 -0.293015 -0.005071997 -0.503786 0.8638136 0.005071103 0.5037857 -0.8638138 -0.006436467 -0.8847827 -0.4659596 0.5773285 0.5773612 0.5773612 0.7070868 -0.7071268 0 -0.5773285 -0.5773612 0.5773612 -0.7070868 0.7071268 0 -0.8947294 0.1464681 0.4219081 -0.914557 -0.03802543 -0.4026658 0.008030533 0.9498133 -0.3127145 0.05771934 0.9286435 -0.3664556 -0.008019387 -0.9498142 0.312712 -0.05770915 -0.964712 0.2569057 -0.6643396 -0.2958352 -0.6863924 0.1232319 -0.9790934 0.1618337 -0.8789071 0.1625377 0.4484462 0.9000887 -0.01955389 0.4352676 0.9422749 -0.05527597 -0.3302464 0.008024334 0.9992483 0.03792947 0.05771458 0.9981364 -0.01982086 -0.008018434 -0.9992483 -0.03793114 -0.05770969 -0.9937618 -0.09543073 0.8759346 -0.02961277 0.4815202 -0.122583 0.9858981 -0.1139228 0.1226134 -0.9743527 -0.1886877 0.613992 0.08057332 -0.7851891</float_array>
          <technique_common>
            <accessor source="#Cubo_001-mesh-normals-array" count="237" stride="3">
              <param name="X" type="float"/>
              <param name="Y" type="float"/>
              <param name="Z" type="float"/>
            </accessor>
          </technique_common>
        </source>
        <source id="Cubo_001-mesh-map-0">
          <float_array id="Cubo_001-mesh-map-0-array" count="2352">0.8433323 0.4860293 0.882026 0.4148592 0.8819176 0.4860159 0.8123096 0.8192526 0.850969 0.8723594 0.8123837 0.8723728 0.1368205 0.6849312 0.1755135 0.6080327 0.1754058 0.6849409 0.4051262 0.7885602 0.4437089 0.7153378 0.4437118 0.7885603 0.4051234 0.864681 0.4437118 0.7885603 0.443709 0.8646813 0.850969 0.8723594 0.8123096 0.9210915 0.8123837 0.8723728 0.8894959 0.5749467 0.8509085 0.6274673 0.8509104 0.5749465 0.8894941 0.6274675 0.8509103 0.6779883 0.8509085 0.6274673 0.8818761 0.3553126 0.9205352 0.3026657 0.9204614 0.3553224 0.1368205 0.6849312 0.1755135 0.7571328 0.1369282 0.757123 0.8818761 0.2532285 0.9205352 0.3026657 0.8819498 0.3026559 0.8433323 0.4860293 0.882026 0.5636013 0.8434406 0.5636147 0.08596575 0.3788078 0.05544453 0.3105089 0.08596569 0.3231927 0.1808784 0.2849223 0.1129345 0.2532285 0.1940703 0.2546125 0.219444 0.324987 0.2499653 0.3932858 0.219444 0.3806021 0.1245313 0.4188725 0.1924753 0.4505662 0.1113394 0.4491822 0.1808799 0.22153 0.1129351 0.2532285 0.1253281 0.222482 0.219446 0.181463 0.194072 0.251838 0.1808799 0.22153 0.08596611 0.1276538 0.1113401 0.05727887 0.1245322 0.08758687 0.219446 0.1258491 0.1924769 0.05588847 0.2499676 0.1131631 0.08596575 0.3788078 0.1113394 0.4491822 0.05544453 0.3911145 0.219444 0.324987 0.1940703 0.2546125 0.2499653 0.3126803 0.219446 0.181463 0.2499676 0.1131631 0.2499676 0.1937671 0.08596611 0.1276538 0.05544447 0.1959537 0.05544447 0.1153498 0.08596569 0.3231927 0.1129345 0.2532285 0.1253273 0.2839746 0.219444 0.3806021 0.1924753 0.4505662 0.1800824 0.4198201 0.08596611 0.1832678 0.1129351 0.2532285 0.05544447 0.1959537 0.1245322 0.08758687 0.1924769 0.05588847 0.1800839 0.08663487 0.8431823 0.3243985 0.881876 0.2532285 0.8817678 0.3243851 0.7694036 0.8192526 0.808063 0.8723594 0.7694777 0.8723728 0.4051234 0.6431359 0.4438166 0.5662375 0.4437088 0.6431457 0.8425315 0.1426151 0.8811143 0.0693928 0.881117 0.1426153 0.8425287 0.218736 0.881117 0.1426153 0.8811141 0.2187362 0.808063 0.8723594 0.7694035 0.9210916 0.7694777 0.8723728 0.8895565 0.737806 0.8509691 0.7903267 0.8509709 0.7378059 0.8895546 0.7903268 0.8509709 0.8408477 0.8509691 0.7903267 0.881117 0.1714767 0.9197761 0.1188298 0.9197024 0.1714864 0.4051234 0.6431359 0.4438166 0.7153376 0.4052312 0.7153277 0.881117 0.06939256 0.9197761 0.1188298 0.8811908 0.11882 0.8431823 0.3243985 0.881876 0.4019706 0.8432908 0.401984 0.2804888 0.3788078 0.2499676 0.3105089 0.2804888 0.3231927 0.3754015 0.2849223 0.3074576 0.2532285 0.3885934 0.2546125 0.4139671 0.324987 0.4444884 0.3932858 0.413967 0.3806021 0.3190544 0.4188725 0.3869984 0.4505662 0.3058626 0.4491822 0.3754031 0.22153 0.3074583 0.2532285 0.3198512 0.222482 0.4139691 0.181463 0.3885951 0.251838 0.3754031 0.22153 0.2804892 0.1276538 0.3058632 0.05727887 0.3190553 0.08758687 0.4139691 0.1258491 0.387 0.05588847 0.4444907 0.1131631 0.2804888 0.3788078 0.3058626 0.4491822 0.2499676 0.3911145 0.4139671 0.324987 0.3885934 0.2546125 0.4444884 0.3126803 0.4139691 0.181463 0.4444907 0.1131631 0.4444907 0.1937671 0.2804892 0.1276538 0.2499676 0.1959537 0.2499676 0.1153498 0.2804888 0.3231927 0.3074576 0.2532285 0.3198504 0.2839746 0.413967 0.3806021 0.3869984 0.4505662 0.3746055 0.4198201 0.2804893 0.1832678 0.3074583 0.2532285 0.2499676 0.1959537 0.3190553 0.08758687 0.387 0.05588847 0.374607 0.08663493 0.599471 0.567429 0.6329279 0.5272047 0.6304471 0.5703217 0.2922989 0.8730486 0.3235131 0.8207495 0.3237458 0.8730413 0.9211025 0.5749465 0.8894959 0.6098505 0.8896554 0.574954 0.1784495 0.6080228 0.2098994 0.6602787 0.1784511 0.6602789 0.1755135 0.8181057 0.1396505 0.7571508 0.16996 0.7571328 0.1396505 0.8790106 0.1755135 0.8181057 0.16996 0.8789926 0.9209431 0.6098431 0.8896554 0.645653 0.8894959 0.6098505 0.882026 0.4497829 0.9134753 0.4855608 0.8820271 0.4855608 0.1784511 0.6602789 0.2098976 0.7112869 0.1784495 0.711287 0.8820271 0.4148592 0.9134745 0.449783 0.882026 0.4497829 0.2920659 0.9240173 0.3237458 0.8730413 0.3235131 0.9240099 0.6329279 0.5272047 0.599471 0.4962736 0.6304468 0.4991663 0.4685121 0.1010363 0.4903242 0.05588847 0.4998928 0.07859271 0.5746459 0.1170798 0.553736 0.06580442 0.5986673 0.1116697 0.5746458 0.1556801 0.5528337 0.2008278 0.5432651 0.1781235 0.07950925 0.4960483 0.05544447 0.5404008 0.05544447 0.4837653 0.1858346 0.511542 0.1648869 0.4601551 0.2098993 0.505966 0.1858346 0.5503184 0.1639831 0.5958005 0.1543973 0.5730486 0.4998928 0.07859271 0.553736 0.06580442 0.5436449 0.08543437 0.1109467 0.4733179 0.1648869 0.4601551 0.1547775 0.479934 0.4685121 0.1010363 0.4444907 0.1450465 0.4444907 0.08866864 0.5746458 0.1556801 0.5986673 0.1116697 0.5986673 0.1680476 0.07950925 0.4960483 0.1013607 0.4505662 0.1109467 0.4733179 0.1858346 0.5503184 0.2098993 0.505966 0.2098993 0.5626015 0.8820271 0.4855608 0.9053099 0.5269371 0.8901951 0.5269372 0.1543973 0.5730486 0.1221724 0.6080228 0.1175652 0.5970878 0.4444907 0.1450465 0.4688758 0.18664 0.4573305 0.1892402 0.6867693 0.3346428 0.6622382 0.3787563 0.6556584 0.3346428 0.5528337 0.2008278 0.5048038 0.2051378 0.5432651 0.1781235 0.1784495 0.711287 0.201729 0.7429125 0.1866142 0.7429125 0.9211025 0.6456455 0.8980191 0.6870577 0.8896554 0.645653 0.05544447 0.5404008 0.08157235 0.5787166 0.07000631 0.5813965 0.8901951 0.5269372 0.9053094 0.5345426 0.8901948 0.5345425 0.4444906 0.21605 0.456356 0.2312517 0.4444906 0.2310025 0.2912912 0.729 0.2099152 0.729 0.2099152 0.6475977 0.5258659 0.7378379 0.6070417 0.7378059 0.6070417 0.8192071 0.4444884 0.5750034 0.5258659 0.5749892 0.5258659 0.6563895 0.8509085 0.6563915 0.7699277 0.6563477 0.7699277 0.5749465 0.6800448 0.2187052 0.6800448 0.1373029 0.7613529 0.1373029 0.6886194 0.6563915 0.6072434 0.6563915 0.6072434 0.5749891 0.6886177 0.7378379 0.7697935 0.7378059 0.7697934 0.8192071 0.3237458 0.5662419 0.4051234 0.5662277 0.4051234 0.647628 0.1364253 0.8522725 0.05544453 0.8522288 0.05544453 0.7708275 0.6806984 0.3346308 0.6806984 0.2532285 0.7620067 0.2532285 0.5258643 0.7378059 0.4444884 0.7378059 0.4444884 0.6564036 0.6074421 0.7378379 0.6886178 0.7378059 0.6886178 0.8192071 0.5986673 0.05590265 0.6800448 0.05588847 0.6800448 0.1372887 0.2908961 0.8918475 0.2099153 0.8918038 0.2099153 0.8104025 0.6886195 0.6563915 0.6886195 0.5749891 0.7699276 0.5749891 0.6328544 0.4059252 0.5993209 0.3658167 0.6302472 0.3627909 0.8509691 0.8408479 0.882418 0.8931088 0.8509698 0.8931087 0.8895569 0.7378061 0.9210048 0.7727258 0.8895564 0.7727259 0.2922988 0.6184914 0.3235139 0.5661975 0.3237459 0.6184843 0.1767779 0.8038302 0.2098993 0.7429127 0.20811 0.8038284 0.2098993 0.8647727 0.1767779 0.8038302 0.20811 0.8038284 0.9210051 0.8085071 0.8895564 0.7727259 0.9210048 0.7727258 0.2922987 0.7717552 0.3235869 0.7359489 0.3237458 0.771748 0.2920669 0.6694656 0.3237459 0.6184843 0.3235139 0.6694584 0.2921399 0.7359561 0.3237458 0.7010486 0.3235869 0.7359489 0.8509698 0.8931087 0.8824175 0.9441115 0.8509691 0.9441114 0.6328544 0.3346429 0.5993209 0.3658167 0.601928 0.3376687 0.4686354 0.461276 0.4905616 0.4148592 0.5001803 0.4377945 0.575324 0.4755129 0.5543048 0.423702 0.599471 0.4695264 0.575324 0.5148283 0.5533978 0.5612451 0.5437791 0.5383098 0.468612 0.2994608 0.4444882 0.3445743 0.4444884 0.2872939 0.5751972 0.3140004 0.5541984 0.2622511 0.5993208 0.3081051 0.5751972 0.3532184 0.5532923 0.3994508 0.5436829 0.3765419 0.5001803 0.4377945 0.5543048 0.423702 0.5441609 0.4438956 0.5001262 0.2761374 0.5541984 0.2622511 0.5440643 0.2823627 0.4686354 0.461276 0.4444884 0.506578 0.4444884 0.4491555 0.575324 0.5148283 0.599471 0.4695264 0.599471 0.5269489 0.468612 0.2994608 0.4905169 0.2532285 0.5001262 0.2761374 0.5751972 0.3532184 0.5993208 0.3081051 0.5993208 0.3653854 0.3237458 0.771748 0.3006618 0.8131558 0.2922987 0.7717552 0.5532923 0.3994508 0.5054489 0.4038486 0.5436829 0.3765419 0.4444884 0.506578 0.4703165 0.5458375 0.458711 0.5487148 0.6567133 0.4962736 0.6813107 0.5403649 0.6663759 0.540365 0.5533978 0.5612451 0.5064324 0.5639659 0.5437791 0.5383098 0.3235139 0.6694584 0.2999485 0.7010486 0.2920669 0.6694656 0.8895569 0.8085074 0.9128392 0.8498877 0.8977243 0.8498877 0.4444882 0.3445743 0.4693681 0.3856508 0.4577737 0.3884842 0.3005801 0.8207495 0.3157758 0.8131523 0.3156942 0.8207461 0.4444906 0.2464534 0.4563523 0.2312518 0.4563523 0.2461868 0.4051218 0.7290445 0.3237459 0.7290445 0.3237459 0.6476422 0.4446901 0.7378379 0.5258659 0.7378059 0.5258659 0.8192071 0.5986673 0.1373171 0.6800448 0.1373029 0.6800448 0.2187032 0.525671 0.9006841 0.4446901 0.9006403 0.4446901 0.8192391 0.6808484 0.4962615 0.6808484 0.4148592 0.7621566 0.4148592 0.1368205 0.6894252 0.05544453 0.6894252 0.05544453 0.6080229 0.761353 0.137335 0.8425288 0.1373029 0.8425287 0.2187041 0.2099136 0.5661975 0.2912912 0.5661975 0.291277 0.6475978 0.4047267 0.8918918 0.3237459 0.8918481 0.3237459 0.8104469 0.6886177 0.7378059 0.6886177 0.6564036 0.769926 0.6564036 0.6072418 0.7378059 0.5258659 0.7378059 0.5258659 0.6564036 0.7620067 0.2532606 0.8431823 0.2532285 0.8431823 0.3346297 0.5258659 0.5750033 0.6072434 0.5749891 0.6072434 0.6563894 0.6884228 0.9006841 0.607442 0.9006403 0.607442 0.8192391 0.05544447 0.7708274 0.05544447 0.6894251 0.1367526 0.6894251 0.7094362 0.3858321 0.7321782 0.3538964 0.7320404 0.3859681 0.9135658 0.4591175 0.9360802 0.4148592 0.936171 0.4591146 0.7094362 0.3346429 0.6867691 0.3642992 0.6868309 0.3346457 0.9139309 0.8498901 0.9366118 0.8941377 0.9140064 0.89414 0.6328543 0.381126 0.6556582 0.4089699 0.6330544 0.4088338 0.913931 0.8937003 0.8895565 0.8498899 0.9120308 0.8498877 0.8895565 0.9374845 0.913931 0.8937003 0.9120306 0.9374825 0.6556582 0.334779 0.6328543 0.381126 0.6330541 0.334643 0.7093744 0.3642964 0.6868309 0.3945995 0.6867691 0.3642992 0.6567133 0.4962736 0.632928 0.5264839 0.6342391 0.4962757 0.6567133 0.556711 0.632928 0.5264839 0.655402 0.5264819 0.6877874 0.5259338 0.7104443 0.5562278 0.687839 0.5562302 0.9140064 0.89414 0.936536 0.9374548 0.9139309 0.9374571 0.6878389 0.4962759 0.7103927 0.5259314 0.6877874 0.5259338 0.9134753 0.5024284 0.936171 0.4591146 0.9360805 0.5024254 0.7321782 0.3538964 0.7094362 0.3346429 0.7320404 0.334779 0.3415802 0.4915077 0.3237459 0.5312488 0.3237459 0.4840436 0.3645801 0.4685868 0.4047483 0.4514726 0.3970399 0.4692074 0.4195747 0.5252862 0.437409 0.485545 0.437409 0.5327503 0.3965748 0.5482071 0.3564066 0.5653213 0.3641149 0.5475865 0.2507994 0.5481816 0.2910324 0.5653489 0.2435462 0.5661975 0.2833116 0.5476006 0.3237458 0.5313087 0.2910324 0.5653489 0.2503336 0.4691631 0.2098994 0.485455 0.2426128 0.4514148 0.2828457 0.4685821 0.3237459 0.4840925 0.3058828 0.4915364 0.3641149 0.5475865 0.3237459 0.5312488 0.3415801 0.5240777 0.3970399 0.4692074 0.437409 0.485545 0.4195747 0.4927162 0.3058828 0.4915364 0.3237458 0.5313087 0.3058828 0.524114 0.2277624 0.5252273 0.2098994 0.485455 0.2277624 0.4926497 0.3645801 0.4685868 0.3237459 0.4840436 0.3573387 0.4505662 0.3965748 0.5482071 0.437409 0.5327503 0.4038162 0.5662277 0.2507994 0.5481816 0.2098994 0.5326712 0.2277624 0.5252273 0.2828457 0.4685821 0.2426128 0.4514148 0.2900989 0.4505662 0.6072419 0.6564037 0.6886177 0.6564037 0.6886177 0.7378059 0.7621566 0.4148913 0.8433323 0.4148592 0.8433323 0.4962604 0.599471 0.4148734 0.6808484 0.4148592 0.6808485 0.4962594 0.6074421 0.9006841 0.5264614 0.9006403 0.5264614 0.8192391 0.2099152 0.8104025 0.2099152 0.7290001 0.2912233 0.7290001 0.6800448 0.05588847 0.7614206 0.05588847 0.7614206 0.1372907 0.7697934 0.7378379 0.8509691 0.7378059 0.8509691 0.8192071 0.599321 0.2532427 0.6806984 0.2532285 0.6806984 0.3346287 0.7694036 0.9006841 0.6884228 0.9006403 0.6884228 0.8192391 0.3237459 0.8104467 0.3237459 0.7290444 0.405054 0.7290444 0.8433323 0.4860293 0.8434406 0.4148726 0.882026 0.4148592 0.8123096 0.8192526 0.8508948 0.8192391 0.850969 0.8723594 0.1368205 0.6849312 0.1369282 0.6080228 0.1755135 0.6080327 0.4051262 0.7885602 0.4051234 0.7153376 0.4437089 0.7153378 0.4051234 0.864681 0.4051262 0.7885602 0.4437118 0.7885603 0.850969 0.8723594 0.8508948 0.9210781 0.8123096 0.9210915 0.8894959 0.5749467 0.8894941 0.6274675 0.8509085 0.6274673 0.8894941 0.6274675 0.8894959 0.6779885 0.8509103 0.6779883 0.8818761 0.3553126 0.8819498 0.3026559 0.9205352 0.3026657 0.1368205 0.6849312 0.1754058 0.6849409 0.1755135 0.7571328 0.8818761 0.2532285 0.9204614 0.2532383 0.9205352 0.3026657 0.8433323 0.4860293 0.8819176 0.4860159 0.882026 0.5636013 0.08596575 0.3788078 0.05544453 0.3911145 0.05544453 0.3105089 0.1808784 0.2849223 0.1253273 0.2839746 0.1129345 0.2532285 0.219444 0.324987 0.2499653 0.3126803 0.2499653 0.3932858 0.1245313 0.4188725 0.1800824 0.4198201 0.1924753 0.4505662 0.1808799 0.22153 0.194072 0.251838 0.1129351 0.2532285 0.219446 0.181463 0.2499676 0.1937671 0.194072 0.251838 0.08596611 0.1276538 0.05544447 0.1153498 0.1113401 0.05727887 0.219446 0.1258491 0.1800839 0.08663487 0.1924769 0.05588847 0.08596575 0.3788078 0.1245313 0.4188725 0.1113394 0.4491822 0.219444 0.324987 0.1808784 0.2849223 0.1940703 0.2546125 0.219446 0.181463 0.219446 0.1258491 0.2499676 0.1131631 0.08596611 0.1276538 0.08596611 0.1832678 0.05544447 0.1959537 0.08596569 0.3231927 0.05544453 0.3105089 0.1129345 0.2532285 0.219444 0.3806021 0.2499653 0.3932858 0.1924753 0.4505662 0.08596611 0.1832678 0.1253281 0.222482 0.1129351 0.2532285 0.1245322 0.08758687 0.1113401 0.05727887 0.1924769 0.05588847 0.8431823 0.3243985 0.8432908 0.2532419 0.881876 0.2532285 0.7694036 0.8192526 0.8079889 0.8192391 0.808063 0.8723594 0.4051234 0.6431359 0.4052312 0.5662277 0.4438166 0.5662375 0.8425315 0.1426151 0.8425287 0.06939256 0.8811143 0.0693928 0.8425287 0.218736 0.8425315 0.1426151 0.881117 0.1426153 0.808063 0.8723594 0.8079888 0.9210781 0.7694035 0.9210916 0.8895565 0.737806 0.8895546 0.7903268 0.8509691 0.7903267 0.8895546 0.7903268 0.8895565 0.8408479 0.8509709 0.8408477 0.881117 0.1714767 0.8811908 0.11882 0.9197761 0.1188298 0.4051234 0.6431359 0.4437088 0.6431457 0.4438166 0.7153376 0.881117 0.06939256 0.9197024 0.06940239 0.9197761 0.1188298 0.8431823 0.3243985 0.8817678 0.3243851 0.881876 0.4019706 0.2804888 0.3788078 0.2499676 0.3911145 0.2499676 0.3105089 0.3754015 0.2849223 0.3198504 0.2839746 0.3074576 0.2532285 0.4139671 0.324987 0.4444884 0.3126803 0.4444884 0.3932858 0.3190544 0.4188725 0.3746055 0.4198201 0.3869984 0.4505662 0.3754031 0.22153 0.3885951 0.251838 0.3074583 0.2532285 0.4139691 0.181463 0.4444907 0.1937671 0.3885951 0.251838 0.2804892 0.1276538 0.2499676 0.1153498 0.3058632 0.05727887 0.4139691 0.1258491 0.374607 0.08663493 0.387 0.05588847 0.2804888 0.3788078 0.3190544 0.4188725 0.3058626 0.4491822 0.4139671 0.324987 0.3754015 0.2849223 0.3885934 0.2546125 0.4139691 0.181463 0.4139691 0.1258491 0.4444907 0.1131631 0.2804892 0.1276538 0.2804893 0.1832678 0.2499676 0.1959537 0.2804888 0.3231927 0.2499676 0.3105089 0.3074576 0.2532285 0.413967 0.3806021 0.4444884 0.3932858 0.3869984 0.4505662 0.2804893 0.1832678 0.3198512 0.222482 0.3074583 0.2532285 0.3190553 0.08758687 0.3058632 0.05727887 0.387 0.05588847 0.599471 0.567429 0.6019518 0.524312 0.6329279 0.5272047 0.2922989 0.8730486 0.2920659 0.8207569 0.3235131 0.8207495 0.9211025 0.5749465 0.9209431 0.6098431 0.8894959 0.6098505 0.1784495 0.6080228 0.209898 0.6080228 0.2098994 0.6602787 0.1755135 0.8181057 0.1452044 0.8181237 0.1396505 0.7571508 0.1396505 0.8790106 0.1452044 0.8181237 0.1755135 0.8181057 0.9209431 0.6098431 0.9211025 0.6456455 0.8896554 0.645653 0.882026 0.4497829 0.9134745 0.449783 0.9134753 0.4855608 0.1784511 0.6602789 0.2098994 0.6602787 0.2098976 0.7112869 0.8820271 0.4148592 0.9134753 0.4148591 0.9134745 0.449783 0.2920659 0.9240173 0.2922989 0.8730486 0.3237458 0.8730413 0.6329279 0.5272047 0.6019518 0.524312 0.599471 0.4962736 0.4685121 0.1010363 0.4444907 0.08866864 0.4903242 0.05588847 0.5746459 0.1170798 0.5436449 0.08543437 0.553736 0.06580442 0.5746458 0.1556801 0.5986673 0.1680476 0.5528337 0.2008278 0.07950925 0.4960483 0.07950931 0.5348247 0.05544447 0.5404008 0.1858346 0.511542 0.1547775 0.479934 0.1648869 0.4601551 0.1858346 0.5503184 0.2098993 0.5626015 0.1639831 0.5958005 0.4998928 0.07859271 0.4903242 0.05588847 0.553736 0.06580442 0.1109467 0.4733179 0.1013607 0.4505662 0.1648869 0.4601551 0.4685121 0.1010363 0.4685121 0.1396365 0.4444907 0.1450465 0.5746458 0.1556801 0.5746459 0.1170798 0.5986673 0.1116697 0.07950925 0.4960483 0.05544447 0.4837653 0.1013607 0.4505662 0.1858346 0.5503184 0.1858346 0.511542 0.2098993 0.505966 0.8820271 0.4855608 0.9134753 0.4855608 0.9053099 0.5269371 0.1543973 0.5730486 0.1639831 0.5958005 0.1221724 0.6080228 0.4444907 0.1450465 0.4685121 0.1396365 0.4688758 0.18664 0.6867693 0.3346428 0.6771907 0.3787562 0.6622382 0.3787563 0.5528337 0.2008278 0.5094026 0.2160501 0.5048038 0.2051378 0.1784495 0.711287 0.2098976 0.7112869 0.201729 0.7429125 0.9211025 0.6456455 0.9131332 0.6870542 0.8980191 0.6870577 0.05544447 0.5404008 0.07950931 0.5348247 0.08157235 0.5787166 0.8901951 0.5269372 0.9053099 0.5269371 0.9053094 0.5345426 0.4444906 0.21605 0.456356 0.2162992 0.456356 0.2312517 0.2912912 0.729 0.2099152 0.6475977 0.2912912 0.6475977 0.5258659 0.7378379 0.6070417 0.8192071 0.5258659 0.8192391 0.4444884 0.5750034 0.5258659 0.6563895 0.4444884 0.6564037 0.8509085 0.6563915 0.7699277 0.5749465 0.8509085 0.5749903 0.6800448 0.2187052 0.7613529 0.1373029 0.7613529 0.2187052 0.6886194 0.6563915 0.6072434 0.5749891 0.6886194 0.5749891 0.6886177 0.7378379 0.7697934 0.8192071 0.6886177 0.8192391 0.3237458 0.5662419 0.4051234 0.647628 0.3237458 0.6476422 0.1364253 0.8522725 0.05544453 0.7708275 0.1364253 0.7708714 0.6806984 0.3346308 0.7620067 0.2532285 0.7620065 0.3346308 0.5258643 0.7378059 0.4444884 0.6564036 0.5258643 0.6564037 0.6074421 0.7378379 0.6886178 0.8192071 0.6074421 0.8192391 0.5986673 0.05590265 0.6800448 0.1372887 0.5986673 0.1373029 0.2908961 0.8918475 0.2099153 0.8104025 0.2908961 0.8104463 0.6886195 0.6563915 0.7699276 0.5749891 0.7699276 0.6563915 0.6328544 0.4059252 0.6019279 0.4089511 0.5993209 0.3658167 0.8509691 0.8408479 0.8824174 0.8408479 0.882418 0.8931088 0.8895569 0.7378061 0.9210051 0.7378059 0.9210048 0.7727258 0.2922988 0.6184914 0.2920669 0.5662048 0.3235139 0.5661975 0.1767779 0.8038302 0.1785674 0.7429144 0.2098993 0.7429127 0.2098993 0.8647727 0.1785673 0.8647745 0.1767779 0.8038302 0.9210051 0.8085071 0.8895569 0.8085074 0.8895564 0.7727259 0.2922987 0.7717552 0.2921399 0.7359561 0.3235869 0.7359489 0.2920669 0.6694656 0.2922988 0.6184914 0.3237459 0.6184843 0.2921399 0.7359561 0.2922987 0.7010559 0.3237458 0.7010486 0.8509698 0.8931087 0.882418 0.8931088 0.8824175 0.9441115 0.6328544 0.3346429 0.6302472 0.3627909 0.5993209 0.3658167 0.4686354 0.461276 0.4444884 0.4491555 0.4905616 0.4148592 0.575324 0.4755129 0.5441609 0.4438956 0.5543048 0.423702 0.575324 0.5148283 0.599471 0.5269489 0.5533978 0.5612451 0.468612 0.2994608 0.4686119 0.3386789 0.4444882 0.3445743 0.5751972 0.3140004 0.5440643 0.2823627 0.5541984 0.2622511 0.5751972 0.3532184 0.5993208 0.3653854 0.5532923 0.3994508 0.5001803 0.4377945 0.4905616 0.4148592 0.5543048 0.423702 0.5001262 0.2761374 0.4905169 0.2532285 0.5541984 0.2622511 0.4686354 0.461276 0.4686353 0.5005915 0.4444884 0.506578 0.575324 0.5148283 0.575324 0.4755129 0.599471 0.4695264 0.468612 0.2994608 0.4444884 0.2872939 0.4905169 0.2532285 0.5751972 0.3532184 0.5751972 0.3140004 0.5993208 0.3081051 0.3237458 0.771748 0.3157758 0.8131523 0.3006618 0.8131558 0.5532923 0.3994508 0.5100674 0.4148592 0.5054489 0.4038486 0.4444884 0.506578 0.4686353 0.5005915 0.4703165 0.5458375 0.6567133 0.4962736 0.6877874 0.4962736 0.6813107 0.5403649 0.5533978 0.5612451 0.5110552 0.5749892 0.5064324 0.5639659 0.3235139 0.6694584 0.3150629 0.701045 0.2999485 0.7010486 0.8895569 0.8085074 0.9210051 0.8085071 0.9128392 0.8498877 0.4444882 0.3445743 0.4686119 0.3386789 0.4693681 0.3856508 0.3005801 0.8207495 0.3006618 0.8131558 0.3157758 0.8131523 0.4444906 0.2464534 0.4444906 0.2315182 0.4563523 0.2312518 0.4051218 0.7290445 0.3237459 0.6476422 0.4051218 0.6476422 0.4446901 0.7378379 0.5258659 0.8192071 0.4446901 0.8192391 0.5986673 0.1373171 0.6800448 0.2187032 0.5986673 0.2187173 0.525671 0.9006841 0.4446901 0.8192391 0.525671 0.8192829 0.6808484 0.4962615 0.7621566 0.4148592 0.7621566 0.4962615 0.1368205 0.6894252 0.05544453 0.6080229 0.1368205 0.6080229 0.761353 0.137335 0.8425287 0.2187041 0.761353 0.2187362 0.2099136 0.5661975 0.291277 0.6475978 0.2098993 0.6475978 0.4047267 0.8918918 0.3237459 0.8104469 0.4047267 0.8104907 0.6886177 0.7378059 0.769926 0.6564036 0.7699258 0.7378059 0.6072418 0.7378059 0.5258659 0.6564036 0.6072419 0.6564036 0.7620067 0.2532606 0.8431823 0.3346297 0.7620067 0.3346617 0.5258659 0.5750033 0.6072434 0.6563894 0.5258659 0.6564036 0.6884228 0.9006841 0.607442 0.8192391 0.6884228 0.8192829 0.05544447 0.7708274 0.1367526 0.6894251 0.1367526 0.7708274 0.7094362 0.3858321 0.7095744 0.3537603 0.7321782 0.3538964 0.9135658 0.4591175 0.9134753 0.414862 0.9360802 0.4148592 0.7094362 0.3346429 0.7093744 0.3642964 0.6867691 0.3642992 0.9139309 0.8498901 0.9365363 0.8498877 0.9366118 0.8941377 0.6328543 0.381126 0.6554584 0.3812621 0.6556582 0.4089699 0.913931 0.8937003 0.8914567 0.8937024 0.8895565 0.8498899 0.8895565 0.9374845 0.8914567 0.8937024 0.913931 0.8937003 0.6556582 0.334779 0.6554584 0.3812621 0.6328543 0.381126 0.7093744 0.3642964 0.7094362 0.3945968 0.6868309 0.3945995 0.6567133 0.4962736 0.655402 0.5264819 0.632928 0.5264839 0.6567133 0.556711 0.6342391 0.5567131 0.632928 0.5264839 0.6877874 0.5259338 0.7103927 0.5259314 0.7104443 0.5562278 0.9140064 0.89414 0.9366118 0.8941377 0.936536 0.9374548 0.6878389 0.4962759 0.7104443 0.4962735 0.7103927 0.5259314 0.9134753 0.5024284 0.9135658 0.4591175 0.936171 0.4591146 0.7321782 0.3538964 0.7095744 0.3537603 0.7094362 0.3346429 0.3415802 0.4915077 0.3415801 0.5240777 0.3237459 0.5312488 0.3645801 0.4685868 0.3573387 0.4505662 0.4047483 0.4514726 0.4195747 0.5252862 0.4195747 0.4927162 0.437409 0.485545 0.3965748 0.5482071 0.4038162 0.5662277 0.3564066 0.5653213 0.2507994 0.5481816 0.2833116 0.5476006 0.2910324 0.5653489 0.2833116 0.5476006 0.3058828 0.524114 0.3237458 0.5313087 0.2503336 0.4691631 0.2277624 0.4926497 0.2098994 0.485455 0.2828457 0.4685821 0.2900989 0.4505662 0.3237459 0.4840925 0.3641149 0.5475865 0.3564066 0.5653213 0.3237459 0.5312488 0.3970399 0.4692074 0.4047483 0.4514726 0.437409 0.485545 0.3058828 0.4915364 0.3237459 0.4840925 0.3237458 0.5313087 0.2277624 0.5252273 0.2098994 0.5326712 0.2098994 0.485455 0.3645801 0.4685868 0.3415802 0.4915077 0.3237459 0.4840436 0.3965748 0.5482071 0.4195747 0.5252862 0.437409 0.5327503 0.2507994 0.5481816 0.2435462 0.5661975 0.2098994 0.5326712 0.2828457 0.4685821 0.2503336 0.4691631 0.2426128 0.4514148 0.6072419 0.6564037 0.6886177 0.7378059 0.6072419 0.7378059 0.7621566 0.4148913 0.8433323 0.4962604 0.7621566 0.4962925 0.599471 0.4148734 0.6808485 0.4962594 0.599471 0.4962736 0.6074421 0.9006841 0.5264614 0.8192391 0.6074421 0.8192829 0.2099152 0.8104025 0.2912233 0.7290001 0.2912233 0.8104025 0.6800448 0.05588847 0.7614206 0.1372907 0.6800448 0.1372907 0.7697934 0.7378379 0.8509691 0.8192071 0.7697934 0.8192391 0.599321 0.2532427 0.6806984 0.3346287 0.599321 0.3346429 0.7694036 0.9006841 0.6884228 0.8192391 0.7694036 0.8192829 0.3237459 0.8104467 0.405054 0.7290444 0.405054 0.8104467</float_array>
          <technique_common>
            <accessor source="#Cubo_001-mesh-map-0-array" count="1176" stride="2">
              <param name="S" type="float"/>
              <param name="T" type="float"/>
            </accessor>
          </technique_common>
        </source>
        <vertices id="Cubo_001-mesh-vertices">
          <input semantic="POSITION" source="#Cubo_001-mesh-positions"/>
        </vertices>
        <triangles material="A-textura_auxiliar_libi_cyrene_General-material" count="392">
          <input semantic="VERTEX" source="#Cubo_001-mesh-vertices" offset="0"/>
          <input semantic="NORMAL" source="#Cubo_001-mesh-normals" offset="1"/>
          <input semantic="TEXCOORD" source="#Cubo_001-mesh-map-0" offset="2" set="0"/>
          <p>22 0 0 31 1 1 24 2 2 1 3 3 15 4 4 12 5 5 29 6 6 19 7 7 18 8 8 20 9 9 28 10 10 27 11 11 21 12 12 27 11 13 31 1 14 15 4 15 0 13 16 12 5 17 4 14 18 8 15 19 0 13 20 10 16 21 2 17 22 8 15 23 6 18 24 13 19 25 2 17 26 29 6 27 17 20 28 30 21 29 7 22 30 13 19 31 14 23 32 22 0 33 25 24 34 23 25 35 8 15 36 17 20 37 0 13 38 1 3 39 18 8 40 19 7 41 9 26 42 21 12 43 3 27 44 2 17 45 22 0 46 23 25 47 6 18 48 24 2 49 14 23 50 10 16 51 25 24 52 6 18 53 11 28 54 28 10 55 5 29 56 4 14 57 29 6 58 30 21 59 8 15 60 23 25 61 16 30 62 9 26 63 19 7 64 20 9 65 10 16 66 30 21 67 26 31 68 11 28 69 31 1 70 27 11 71 0 13 72 18 8 73 12 5 74 3 27 75 22 0 76 13 19 77 7 22 78 24 2 79 31 1 80 5 29 81 29 6 82 15 4 83 54 32 84 63 33 85 56 34 86 33 35 87 47 36 88 44 37 89 61 38 90 51 39 91 50 40 92 52 41 93 60 42 94 59 43 95 53 44 96 59 43 97 63 33 98 47 36 99 32 45 100 44 37 101 36 46 102 40 47 103 32 45 104 42 48 105 34 49 106 40 47 107 38 50 108 45 51 109 34 49 110 61 38 111 49 52 112 62 53 113 39 54 114 45 51 115 46 55 116 54 32 117 57 56 118 55 57 119 40 47 120 49 52 121 32 45 122 33 35 123 50 40 124 51 39 125 41 58 126 53 44 127 35 59 128 34 49 129 54 32 130 55 57 131 38 50 132 56 34 133 46 55 134 42 48 135 57 56 136 38 50 137 43 60 138 60 42 139 37 61 140 36 46 141 61 38 142 62 53 143 40 47 144 55 57 145 48 30 146 41 58 147 51 39 148 52 41 149 42 48 150 62 53 151 58 62 152 43 60 153 63 33 154 59 43 155 32 45 156 50 40 157 44 37 158 35 59 159 54 32 160 45 51 161 39 54 162 56 34 163 63 33 164 37 61 165 61 38 166 47 36 167 65 63 168 73 64 169 69 65 170 83 66 171 91 67 172 85 68 173 69 65 174 74 69 175 65 63 176 88 70 177 79 71 178 89 72 179 87 73 180 80 74 181 88 70 182 82 75 183 87 73 184 91 67 185 77 76 186 64 77 187 74 69 188 76 78 189 66 79 190 70 80 191 89 72 192 78 81 193 90 82 194 71 83 195 75 84 196 76 78 197 84 85 198 85 86 199 86 87 200 73 64 201 67 88 202 71 83 203 74 69 204 80 74 205 65 63 206 67 88 207 81 89 208 82 75 209 75 84 210 84 90 211 66 91 212 76 78 213 86 92 214 85 68 215 69 65 216 87 73 217 88 70 218 77 76 219 90 93 220 68 94 221 65 63 222 81 89 223 72 95 224 71 83 225 87 73 226 73 64 227 74 69 228 78 96 229 79 71 230 75 84 231 82 75 232 83 66 233 76 78 234 91 67 235 71 83 236 77 76 237 88 70 238 89 72 239 70 80 240 93 97 241 95 98 242 68 94 243 99 99 244 94 100 245 78 101 246 92 102 247 96 103 248 86 87 249 97 104 250 84 85 251 84 90 252 93 105 253 66 91 254 90 82 255 96 103 256 99 99 257 68 106 258 92 107 259 64 108 260 86 109 261 95 98 262 98 110 263 95 98 264 97 111 265 98 110 266 96 103 267 94 100 268 99 99 269 101 112 270 100 113 271 102 114 272 103 115 273 102 114 274 106 116 275 107 117 276 106 116 277 104 118 278 105 119 279 104 118 280 100 113 281 106 116 282 102 114 283 100 113 284 109 120 285 108 121 286 110 122 287 111 123 288 110 122 289 114 124 290 115 125 291 114 124 292 112 126 293 113 127 294 112 126 295 108 121 296 114 124 297 110 122 298 108 121 299 117 120 300 116 128 301 118 122 302 119 115 303 118 122 304 122 129 305 123 125 306 122 129 307 120 126 308 121 119 309 120 126 310 116 128 311 122 129 312 118 122 313 116 128 314 129 130 315 132 131 316 133 132 317 142 133 318 145 134 319 143 135 320 125 136 321 137 137 322 134 138 323 149 139 324 140 140 325 139 141 326 141 142 327 148 143 328 147 144 329 151 145 330 141 142 331 147 144 332 128 146 333 134 138 334 137 137 335 130 147 336 135 148 337 126 149 338 150 150 339 139 151 340 138 152 341 136 153 342 127 154 343 135 155 344 143 135 345 146 156 346 144 157 347 131 158 348 132 131 349 127 154 350 134 138 351 140 140 352 125 136 353 127 154 354 141 142 355 142 133 356 135 155 357 144 159 358 126 160 359 136 153 360 146 161 361 145 134 362 129 130 363 147 144 364 148 143 365 137 137 366 150 162 367 128 163 368 125 136 369 141 142 370 132 131 371 131 158 372 147 144 373 133 132 374 134 138 375 138 164 376 139 141 377 135 155 378 142 133 379 143 135 380 136 153 381 151 145 382 131 158 383 137 137 384 148 143 385 149 139 386 126 149 387 155 165 388 130 147 389 150 162 390 154 166 391 128 163 392 138 167 393 152 168 394 156 169 395 144 157 396 158 170 397 157 171 398 144 159 399 153 172 400 126 160 401 138 152 402 159 173 403 150 150 404 124 174 405 154 175 406 152 168 407 146 176 408 155 177 409 158 170 410 158 170 411 153 178 412 157 171 413 159 179 414 152 168 415 154 175 416 161 112 417 160 180 418 162 114 419 163 123 420 162 114 421 166 181 422 167 117 423 166 181 424 164 118 425 165 127 426 164 118 427 160 180 428 166 181 429 162 114 430 160 180 431 169 120 432 168 121 433 170 122 434 171 123 435 170 122 436 174 124 437 175 125 438 174 124 439 172 126 440 173 127 441 172 126 442 168 121 443 174 124 444 170 122 445 168 121 446 177 120 447 176 121 448 178 122 449 179 123 450 178 122 451 182 124 452 183 125 453 182 124 454 180 126 455 181 127 456 180 126 457 176 121 458 182 124 459 178 122 460 176 121 461 185 182 462 195 183 463 189 184 464 206 185 465 215 186 466 208 187 467 189 184 468 196 188 469 185 182 470 212 189 471 202 190 472 213 191 473 200 192 474 214 193 475 201 194 476 211 195 477 203 196 478 212 189 479 205 197 480 211 195 481 215 186 482 209 198 483 200 192 484 207 199 485 199 200 486 184 201 487 196 188 488 188 202 489 192 203 490 184 201 491 190 204 492 192 203 493 194 205 494 198 206 495 186 207 496 190 204 497 213 191 498 201 194 499 214 193 500 191 208 501 197 209 502 198 206 503 207 199 504 208 187 505 209 198 506 195 183 507 187 210 508 191 208 509 184 201 510 200 192 511 201 194 512 196 188 513 203 196 514 185 182 515 187 210 516 204 211 517 205 197 518 197 209 519 207 199 520 186 207 521 198 206 522 209 198 523 208 187 524 190 204 525 210 212 526 209 198 527 189 184 528 211 195 529 212 189 530 199 200 531 214 193 532 188 202 533 186 207 534 200 192 535 192 203 536 185 182 537 204 211 538 193 213 539 188 202 540 210 212 541 194 205 542 191 208 543 211 195 544 195 183 545 196 188 546 201 194 547 202 190 548 197 209 549 205 197 550 206 185 551 198 206 552 215 186 553 191 208 554 199 200 555 212 189 556 213 191 557 217 120 558 216 214 559 218 122 560 219 215 561 218 122 562 222 216 563 223 125 564 222 216 565 220 126 566 221 217 567 220 126 568 216 214 569 222 216 570 218 122 571 216 214 572 225 120 573 224 113 574 226 122 575 227 115 576 226 122 577 230 116 578 231 125 579 230 116 580 228 126 581 229 119 582 228 126 583 224 113 584 230 116 585 226 122 586 224 113 587 22 0 588 21 12 589 31 1 590 1 3 591 5 29 592 15 4 593 29 6 594 28 10 595 19 7 596 20 9 597 19 7 598 28 10 599 21 12 600 20 9 601 27 11 602 15 4 603 4 14 604 0 13 605 4 14 606 10 16 607 8 15 608 10 16 609 6 18 610 2 17 611 6 18 612 14 23 613 13 19 614 29 6 615 18 8 616 17 20 617 7 22 618 3 27 619 13 19 620 22 0 621 24 2 622 25 24 623 8 15 624 16 30 625 17 20 626 1 3 627 12 5 628 18 8 629 9 26 630 20 9 631 21 12 632 2 17 633 13 19 634 22 0 635 6 18 636 25 24 637 24 2 638 10 16 639 26 31 640 25 24 641 11 28 642 27 11 643 28 10 644 4 14 645 15 4 646 29 6 647 8 15 648 2 17 649 23 25 650 9 26 651 1 3 652 19 7 653 10 16 654 4 14 655 30 21 656 11 28 657 7 22 658 31 1 659 0 13 660 17 20 661 18 8 662 3 27 663 21 12 664 22 0 665 7 22 666 14 23 667 24 2 668 5 29 669 28 10 670 29 6 671 54 32 672 53 44 673 63 33 674 33 35 675 37 61 676 47 36 677 61 38 678 60 42 679 51 39 680 52 41 681 51 39 682 60 42 683 53 44 684 52 41 685 59 43 686 47 36 687 36 46 688 32 45 689 36 46 690 42 48 691 40 47 692 42 48 693 38 50 694 34 49 695 38 50 696 46 55 697 45 51 698 61 38 699 50 40 700 49 52 701 39 54 702 35 59 703 45 51 704 54 32 705 56 34 706 57 56 707 40 47 708 48 30 709 49 52 710 33 35 711 44 37 712 50 40 713 41 58 714 52 41 715 53 44 716 34 49 717 45 51 718 54 32 719 38 50 720 57 56 721 56 34 722 42 48 723 58 62 724 57 56 725 43 60 726 59 43 727 60 42 728 36 46 729 47 36 730 61 38 731 40 47 732 34 49 733 55 57 734 41 58 735 33 35 736 51 39 737 42 48 738 36 46 739 62 53 740 43 60 741 39 54 742 63 33 743 32 45 744 49 52 745 50 40 746 35 59 747 53 44 748 54 32 749 39 54 750 46 55 751 56 34 752 37 61 753 60 42 754 61 38 755 65 63 756 72 95 757 73 64 758 83 66 759 82 75 760 91 67 761 69 65 762 77 76 763 74 69 764 88 70 765 80 74 766 79 71 767 87 73 768 81 89 769 80 74 770 82 75 771 81 89 772 87 73 773 77 218 774 68 106 775 64 108 776 76 78 777 75 84 778 66 79 779 89 72 780 79 71 781 78 81 782 71 83 783 67 88 784 75 84 785 84 219 786 83 66 787 85 68 788 73 64 789 72 95 790 67 88 791 74 69 792 79 71 793 80 74 794 67 88 795 72 95 796 81 89 797 75 84 798 83 66 799 84 90 800 76 220 801 70 221 802 86 109 803 69 65 804 73 64 805 87 73 806 77 76 807 89 72 808 90 93 809 65 63 810 80 74 811 81 89 812 71 83 813 91 67 814 87 73 815 74 222 816 64 223 817 78 101 818 75 84 819 67 88 820 82 75 821 76 78 822 85 68 823 91 67 824 77 76 825 69 65 826 88 70 827 70 80 828 66 79 829 93 97 830 68 94 831 90 93 832 99 99 833 78 101 834 64 223 835 92 102 836 86 224 837 98 110 838 97 111 839 84 225 840 97 111 841 93 97 842 90 82 843 78 81 844 96 103 845 68 226 846 94 100 847 92 102 848 86 109 849 70 221 850 95 98 851 95 98 852 93 97 853 97 111 854 96 103 855 92 102 856 94 100 857 101 112 858 102 114 859 103 115 860 103 115 861 106 116 862 107 117 863 107 117 864 104 118 865 105 119 866 105 119 867 100 113 868 101 112 869 106 116 870 100 113 871 104 118 872 109 120 873 110 122 874 111 123 875 111 123 876 114 124 877 115 125 878 115 125 879 112 126 880 113 127 881 113 127 882 108 121 883 109 120 884 114 124 885 108 121 886 112 126 887 117 120 888 118 122 889 119 115 890 119 115 891 122 129 892 123 125 893 123 125 894 120 126 895 121 119 896 121 119 897 116 128 898 117 120 899 122 129 900 116 128 901 120 126 902 129 130 903 125 136 904 132 131 905 142 133 906 151 145 907 145 134 908 125 136 909 129 130 910 137 137 911 149 139 912 148 143 913 140 140 914 141 142 915 140 140 916 148 143 917 151 145 918 142 133 919 141 142 920 128 146 921 124 174 922 134 138 923 130 227 924 136 153 925 135 155 926 150 228 927 149 139 928 139 141 929 136 153 930 131 158 931 127 154 932 143 135 933 145 134 934 146 156 935 131 158 936 133 132 937 132 131 938 134 138 939 139 141 940 140 140 941 127 154 942 132 131 943 141 142 944 135 155 945 143 135 946 144 159 947 136 229 948 130 230 949 146 176 950 129 130 951 133 132 952 147 144 953 137 137 954 149 139 955 150 162 956 125 136 957 140 140 958 141 142 959 131 158 960 151 145 961 147 144 962 134 231 963 124 232 964 138 167 965 135 155 966 127 154 967 142 133 968 136 153 969 145 134 970 151 145 971 137 137 972 129 130 973 148 143 974 126 233 975 153 178 976 155 177 977 150 234 978 159 179 979 154 175 980 138 167 981 124 232 982 152 168 983 144 157 984 146 156 985 158 170 986 144 235 987 157 171 988 153 178 989 138 236 990 156 169 991 159 179 992 124 174 993 128 146 994 154 175 995 146 176 996 130 230 997 155 177 998 158 170 999 155 177 1000 153 178 1001 159 179 1002 156 169 1003 152 168 1004 161 112 1005 162 114 1006 163 123 1007 163 123 1008 166 181 1009 167 117 1010 167 117 1011 164 118 1012 165 127 1013 165 127 1014 160 180 1015 161 112 1016 166 181 1017 160 180 1018 164 118 1019 169 120 1020 170 122 1021 171 123 1022 171 123 1023 174 124 1024 175 125 1025 175 125 1026 172 126 1027 173 127 1028 173 127 1029 168 121 1030 169 120 1031 174 124 1032 168 121 1033 172 126 1034 177 120 1035 178 122 1036 179 123 1037 179 123 1038 182 124 1039 183 125 1040 183 125 1041 180 126 1042 181 127 1043 181 127 1044 176 121 1045 177 120 1046 182 124 1047 176 121 1048 180 126 1049 185 182 1050 193 213 1051 195 183 1052 206 185 1053 205 197 1054 215 186 1055 189 184 1056 199 200 1057 196 188 1058 212 189 1059 203 196 1060 202 190 1061 200 192 1062 210 212 1063 214 193 1064 211 195 1065 204 211 1066 203 196 1067 205 197 1068 204 211 1069 211 195 1070 209 198 1071 210 212 1072 200 192 1073 199 200 1074 188 202 1075 184 201 1076 188 202 1077 194 205 1078 192 203 1079 190 204 1080 186 207 1081 192 203 1082 198 206 1083 197 209 1084 186 207 1085 213 191 1086 202 190 1087 201 194 1088 191 208 1089 187 210 1090 197 209 1091 207 199 1092 206 185 1093 208 187 1094 195 183 1095 193 213 1096 187 210 1097 184 201 1098 192 203 1099 200 192 1100 196 188 1101 202 190 1102 203 196 1103 187 210 1104 193 213 1105 204 211 1106 197 209 1107 206 185 1108 207 199 1109 198 206 1110 190 204 1111 209 198 1112 190 204 1113 194 205 1114 210 212 1115 189 184 1116 195 183 1117 211 195 1118 199 200 1119 213 191 1120 214 193 1121 186 207 1122 207 199 1123 200 192 1124 185 182 1125 203 196 1126 204 211 1127 188 202 1128 214 193 1129 210 212 1130 191 208 1131 215 186 1132 211 195 1133 196 188 1134 184 201 1135 201 194 1136 197 209 1137 187 210 1138 205 197 1139 198 206 1140 208 187 1141 215 186 1142 199 200 1143 189 184 1144 212 189 1145 217 120 1146 218 122 1147 219 215 1148 219 215 1149 222 216 1150 223 125 1151 223 125 1152 220 126 1153 221 217 1154 221 217 1155 216 214 1156 217 120 1157 222 216 1158 216 214 1159 220 126 1160 225 120 1161 226 122 1162 227 115 1163 227 115 1164 230 116 1165 231 125 1166 231 125 1167 228 126 1168 229 119 1169 229 119 1170 224 113 1171 225 120 1172 230 116 1173 224 113 1174 228 126 1175</p>
        </triangles>
      </mesh>
    </geometry>
  </library_geometries>
  <library_visual_scenes>
    <visual_scene id="Scene" name="Scene">
      <node id="liby_hair_elite_001" name="liby_hair_elite.001" type="NODE">
        <matrix sid="transform">1 0 0 0 0 1 0 0 0 0 1 0 0 0 0 1</matrix>
        <instance_geometry url="#Cubo_001-mesh" name="liby_hair_elite.001">
          <bind_material>
            <technique_common>
              <instance_material symbol="A-textura_auxiliar_libi_cyrene_General-material" target="#A-textura_auxiliar_libi_cyrene_General-material">
                <bind_vertex_input semantic="Cubo_144-mesh-map-0" input_semantic="TEXCOORD" input_set="0"/>
              </instance_material>
            </technique_common>
          </bind_material>
        </instance_geometry>
      </node>
    </visual_scene>
  </library_visual_scenes>
  <scene>
    <instance_visual_scene url="#Scene"/>
  </scene>
</COLLADA>