<?xml version="1.0" encoding="utf-8"?>
<COLLADA xmlns="http://www.collada.org/2005/11/COLLADASchema" version="1.4.1" xmlns:xsi="http://www.w3.org/2001/XMLSchema-instance">
  <asset>
    <contributor>
      <author>Blender User</author>
      <authoring_tool>Blender 4.3.1 commit date:2024-12-10, commit time:07:46, hash:33d812126174</authoring_tool>
    </contributor>
    <created>2026-08-08T10:53:35</created>
    <modified>2026-08-08T10:53:35</modified>
    <unit name="meter" meter="1"/>
    <up_axis>Z_UP</up_axis>
  </asset>
  <library_effects>
    <effect id="A-textura_libios_General-effect">
      <profile_COMMON>
        <newparam sid="hair_male_old_png-surface">
          <surface type="2D">
            <init_from>hair_male_old_png</init_from>
          </surface>
        </newparam>
        <newparam sid="hair_male_old_png-sampler">
          <sampler2D>
            <source>hair_male_old_png-surface</source>
          </sampler2D>
        </newparam>
        <technique sid="common">
          <lambert>
            <emission>
              <color sid="emission">0 0 0 1</color>
            </emission>
            <diffuse>
              <texture texture="hair_male_old_png-sampler" texcoord="MapaUV"/>
            </diffuse>
            <index_of_refraction>
              <float sid="ior">1.45</float>
            </index_of_refraction>
          </lambert>
        </technique>
      </profile_COMMON>
    </effect>
  </library_effects>
  <library_images>
    <image id="hair_male_old_png" name="hair_male_old_png">
      <init_from>/home/welton/.var/app/com.play0ad.zeroad/data/0ad/mods/Endovelico/art/textures/skins/props/head/hair_male_old.png</init_from>
    </image>
  </library_images>
  <library_materials>
    <material id="A-textura_libios_General-material" name="A-textura libios General">
      <instance_effect url="#A-textura_libios_General-effect"/>
    </material>
  </library_materials>
  <library_geometries>
    <geometry id="Esfera_011-mesh" name="Esfera.011">
      <mesh>
        <source id="Esfera_011-mesh-positions">
          <float_array id="Esfera_011-mesh-positions-array" count="615">-1.81874e-5 0.03108805 0.5262257 0 0.1935778 0.4293375 0 0.2803595 0.3774227 0 0.3103724 0.3145372 0 0.3201752 0.2398997 0 0.3093913 0.1362825 5.61541e-4 0.03101742 0.5262504 0.02818197 0.1901454 0.4305398 0.03586888 0.2736481 0.378953 0.03992944 0.3024806 0.3163366 0.04436725 0.3114063 0.2418991 0.04709994 0.3000823 0.1384052 0.001118957 0.03080832 0.5263237 0.05528086 0.1799803 0.4341006 0.07035928 0.2537718 0.383485 0.07832443 0.2791086 0.3216658 0.08702945 0.2854368 0.2478205 0.09239006 0.2725132 0.1446912 0.00163269 0.03046876 0.5264426 0.08025544 0.1634732 0.4398831 0.1021457 0.2214945 0.3908447 0.1137095 0.2411545 0.3303198 0.1263472 0.2432644 0.2574364 0.1341295 0.2277432 0.1548994 0.002083003 0.03001177 0.5266027 0.1021458 0.1412583 0.4476649 0.1300069 0.1780565 0.4007491 0.1447248 0.1900768 0.3419662 0.1608095 0.18651 0.2703771 0.1707143 0.1674931 0.1686372 0.002452552 0.02945494 0.5267978 0.1201107 0.1141893 0.4571471 0.1528719 0.1251273 0.4128176 0.1701782 0.1278386 0.3561573 0.1890919 0.1173546 0.2861455 0.2007389 0.09407806 0.1853768 0.00272715 0.02881968 0.5270203 0.1334599 0.08330667 0.4679653 0.1698622 0.08516907 0.4265865 0.1997368 0.0800209 0.3723478 0.2101077 0.06805992 0.3041355 0.2142532 0.04974573 0.2044749 0.002896249 0.02813035 0.5272617 0.1416803 0.04979693 0.4797037 0.1803247 0.04251933 0.4415267 0.2120395 0.02987009 0.3899155 0.2230491 0.0123353 0.3236557 0.2367877 -0.009411096 0.2251974 0.00295335 0.02741348 0.5275129 0.1444559 0.01494801 0.4919112 0.1838575 -0.001834928 0.4570639 0.2161936 -0.02228498 0.4081854 0.2274189 -0.04561626 0.3439561 0.002896249 0.02669662 0.527764 0.1416803 -0.01990091 0.5041188 0.1803247 -0.04618918 0.4726012 0.2120394 -0.07444012 0.4264553 0.2230491 -0.103568 0.3642565 0.22745 -0.1324534 0.2682991 0.00272715 0.02600729 0.5280055 0.1334599 -0.05341058 0.5158572 0.1698622 -0.08883893 0.4875413 0.1997368 -0.1245909 0.444023 0.2101077 -0.1592925 0.3837767 0.2230491 -0.1916103 0.2890216 0.002452552 0.02537196 0.528228 0.1201107 -0.0842933 0.5266754 0.1528719 -0.1281452 0.5013102 0.1797583 -0.1708102 0.4602136 0.002083003 0.02481514 0.5284231 0.1021457 -0.1113622 0.5361576 0.1300069 -0.1625974 0.5133788 0.1528719 -0.2113217 0.4744047 0.1608095 -0.2556626 0.417535 0.1707144 -0.2939162 0.3107387 0.00163269 0.02435815 0.5285831 0.08025538 -0.1335771 0.5439394 0.1021457 -0.1908715 0.5232832 0.1201106 -0.2445686 0.486051 0.1263472 -0.2926046 0.4304758 0.1341294 -0.3331336 0.31318 0.001118957 0.02401858 0.5287021 0.05528086 -0.1500843 0.5497218 0.07035917 -0.2118812 0.5306429 0.08273363 -0.2692733 0.494705 0.08702945 -0.3200551 0.4400916 0.09238994 -0.3375627 0.3158574 5.61541e-4 0.02380949 0.5287753 0.02818191 -0.1602494 0.5532826 0.03586876 -0.2248188 0.5351749 0.0421772 -0.2844864 0.5000342 0.04436725 -0.3369589 0.446013 0.04709994 -0.3397693 0.3164955 -1.81871e-5 0.02373892 0.5288001 0 -0.1636817 0.554485 0 -0.2291873 0.5367051 0 -0.2896232 0.5018336 0 -0.3426666 0.4480124 0 -0.3458285 0.3157941 -5.97915e-4 0.02380949 0.5287753 -0.02818191 -0.1602494 0.5532826 -0.03586882 -0.2248188 0.5351749 -0.04217725 -0.2844863 0.5000342 -0.04436713 -0.3369589 0.446013 -0.04709994 -0.3397692 0.3164955 -0.001155316 0.02401858 0.5287021 -0.05528086 -0.1500843 0.5497218 -0.07035917 -0.2118812 0.5306429 -0.08273369 -0.2692732 0.494705 -0.08702939 -0.3200551 0.4400916 -0.09238988 -0.3375626 0.3158574 -0.001669108 0.02435815 0.5285831 -0.08025538 -0.1335771 0.5439394 -0.1021457 -0.1908715 0.5232832 -0.1201106 -0.2445684 0.486051 -0.1263471 -0.2926046 0.4304757 -0.1341294 -0.3331335 0.31318 -0.002119362 0.02481514 0.5284231 -0.1021457 -0.1113622 0.5361576 -0.1300069 -0.1625973 0.5133787 -0.1528719 -0.2113215 0.4744046 -0.1608093 -0.2556626 0.417535 -0.1707143 -0.2939161 0.3107387 -0.00248897 0.02537196 0.528228 -0.1201107 -0.0842933 0.5266754 -0.1528719 -0.1281451 0.5013102 -0.1797583 -0.1708101 0.4602135 -0.002763569 0.02600729 0.5280055 -0.1334598 -0.05341058 0.5158572 -0.1698622 -0.08883887 0.4875413 -0.1997367 -0.1245908 0.444023 -0.2101076 -0.1592925 0.3837767 -0.2230489 -0.1916102 0.2890215 -0.002932667 0.02669662 0.527764 -0.1416802 -0.01990085 0.5041188 -0.1803247 -0.04618912 0.4726011 -0.2120393 -0.07444 0.4264552 -0.223049 -0.103568 0.3642565 -0.2274499 -0.1324533 0.268299 -0.002989768 0.02741348 0.5275129 -0.1444559 0.01494801 0.4919112 -0.1838575 -0.001834869 0.4570639 -0.2161934 -0.02228492 0.4081854 -0.2274188 -0.04561626 0.3439561 -0.002932667 0.02813035 0.5272617 -0.1416802 0.04979693 0.4797037 -0.1803247 0.04251933 0.4415267 -0.2120393 0.02987009 0.3899155 -0.223049 0.0123353 0.3236557 -0.2367874 -0.009411036 0.2251974 -0.002763569 0.02881968 0.5270203 -0.1334598 0.08330661 0.4679653 -0.1698621 0.08516907 0.4265865 -0.1997366 0.0800209 0.3723478 -0.2101076 0.06805986 0.3041355 -0.2142531 0.04974573 0.2044749 -0.00248897 0.02945494 0.5267978 -0.1201106 0.1141893 0.4571471 -0.1528719 0.1251273 0.4128176 -0.170178 0.1278385 0.3561573 -0.1890918 0.1173545 0.2861455 -0.2007386 0.094078 0.1853768 -0.002119362 0.03001177 0.5266027 -0.1021457 0.1412582 0.4476649 -0.1300069 0.1780565 0.4007491 -0.1447245 0.1900767 0.3419662 -0.1608093 0.1865099 0.2703772 -0.1707142 0.1674929 0.1686372 -0.001669108 0.03046876 0.5264426 -0.08025532 0.1634731 0.4398831 -0.1021456 0.2214944 0.3908447 -0.1137093 0.2411543 0.3303198 -0.1263471 0.2432643 0.2574364 -0.1341292 0.227743 0.1548994 -0.001155316 0.03080832 0.5263237 -0.0552808 0.1799802 0.4341007 -0.07035917 0.2537717 0.3834851 -0.07832425 0.2791083 0.3216658 -0.08702933 0.2854365 0.2478206 -0.09238982 0.2725128 0.1446914 -5.97915e-4 0.03101742 0.5262504 -0.02818191 0.1901453 0.4305399 -0.03586876 0.2736479 0.378953 -0.03992933 0.3024802 0.3163367 -0.04436713 0.3114061 0.2418991 -0.04709982 0.300082 0.1384052 0 0.3093914 -0.02459949 0.04709994 0.3000824 -0.02460557 0.09239006 0.2725133 -0.02462351 0.1341295 0.2277433 -0.02465265 0.1707143 0.1674931 -0.02469187 0.2007389 0.09407806 -0.02473968 0.2142532 0.04974573 -0.02479422 0.2367877 -0.009411096 -0.0248534 0.22745 -0.1324535 -0.02497649 0.2230491 -0.1916103 -0.02503567 -0.2230489 -0.1916102 -0.02503567 -0.2274499 -0.1324533 -0.02497649 -0.2367874 -0.009411036 -0.0248534 -0.2142531 0.04974573 -0.02479422 -0.2007386 0.094078 -0.02473968 -0.1707142 0.167493 -0.02469187 -0.1341292 0.227743 -0.02465265 -0.09238982 0.2725129 -0.02462351 -0.04709982 0.300082 -0.02460557</float_array>
          <technique_common>
            <accessor source="#Esfera_011-mesh-positions-array" count="205" stride="3">
              <param name="X" type="float"/>
              <param name="Y" type="float"/>
              <param name="Z" type="float"/>
            </accessor>
          </technique_common>
        </source>
        <source id="Esfera_011-mesh-normals">
          <float_array id="Esfera_011-mesh-normals-array" count="645">-4.3743e-6 0.9614801 0.2748746 0.3583875 0.9334077 0.01756525 -2.69107e-6 0.9999497 0.01003956 0.3687018 0.9284558 -0.04504448 -4.01806e-6 0.9987142 -0.05069446 -7.34107e-5 0.5121285 0.8589089 0.06370407 0.5218476 0.8506568 -4.61501e-7 0.5172223 0.8558512 0.1054025 0.5115483 0.8527655 -1.15931e-6 0.513374 0.858165 -2.70172e-6 0.9038848 0.427776 0.3245753 0.9063034 0.2706754 0.3040837 0.859705 0.4104148 0.5750445 0.7758098 0.2596983 0.6243923 0.7802752 0.03612184 0.6385835 0.7689145 -0.03133034 0.05233711 0.5080234 0.8597518 0.1409034 0.5310267 0.8355578 0.2168887 0.5073549 0.8339967 0.1022834 0.4959529 0.8623045 0.2426458 0.5339226 0.8099691 0.3469434 0.499042 0.7940953 0.5479664 0.749754 0.3709473 0.7394988 0.6260612 0.2473638 0.7875754 0.6133134 0.05976438 0.8019552 0.597197 -0.01495498 0.8808876 0.4654735 0.08585685 0.8951176 0.4458283 0.001351237 0.1475123 0.4767689 0.8665631 0.3607364 0.5173019 0.7760593 0.6896705 0.4985103 0.5252068 0.7156949 0.6155998 0.3298755 0.8400667 0.486317 0.2403826 0.1861225 0.4517136 0.8725327 0.437796 0.4972905 0.749024 0.7345679 0.4879411 0.471512 0.855428 0.4738978 0.2089589 0.9132385 0.3979548 0.08733659 0.9416695 0.3362717 0.01341056 0.9325187 0.356384 0.05830413 0.9422549 0.3348959 -7.52927e-4 0.2170627 0.4220727 0.8801923 0.4772006 0.4289079 0.7670188 0.7477915 0.4264342 0.5088829 0.8785232 0.4250723 0.217969 0.2395184 0.3893026 0.8894237 0.4984063 0.3577905 0.789669 0.7773367 0.3159564 0.5439846 0.9275646 0.2463893 0.2809203 0.9717245 0.2127879 0.1023371 0.9427322 0.3334991 0.005869567 0.2530552 0.3547267 0.9000734 0.5032014 0.2870892 0.8150879 0.7840486 0.205105 0.5858325 0.9384489 0.1135182 0.3262321 0.9864793 0.05369877 0.1548395 0.4919531 0.2182077 0.8428331 0.7682755 0.09750509 0.6326497 0.924536 -0.01561176 0.380775 0.9773017 -0.09505641 0.1893303 0.2530686 0.2844927 0.924673 0.2395453 0.2507986 0.9379329 0.4648392 0.1524428 0.872173 0.7298685 -0.005913317 0.683562 0.8719051 -0.09530472 0.480311 0.9652679 -0.1489944 0.2146126 0.9947868 -0.08305078 0.05917626 0.9975346 -0.06463086 0.02734619 0.4219282 0.09117084 0.9020336 0.6678161 -0.103829 0.7370491 0.7309232 -0.1748274 0.6596868 0.2171583 0.2194243 0.9511548 0.1861864 0.1915156 0.9636682 0.3633733 0.03600287 0.9309477 0.5807138 -0.1940296 0.7906479 0.6642575 -0.3566178 0.6569518 0.4676412 -0.2730041 0.8407023 0.5827327 -0.4690065 0.6636683 0.7329469 -0.5508628 0.3991729 0.637499 -0.6593601 0.3985466 0.7214117 -0.6358758 0.2742758 0.4341065 -0.8421872 0.3198004 0.1474624 0.1681778 0.9746646 0.2897128 -0.01107102 0.9570496 0.1022866 0.1505555 0.9832957 0.2023671 -0.04763633 0.9781506 0.3295234 -0.3358484 0.8823946 0.4135506 -0.5480067 0.7270933 0.4649946 -0.8008978 0.3772837 0.146737 -0.9636277 0.2233605 0.1707364 -0.3768692 0.9103948 0.2153887 -0.5993973 0.7709284 0.2326948 -0.6919728 0.6833937 0.1246469 -0.9896081 0.07168757 0.05239397 0.13953 0.9888308 0.1042248 -0.07106769 0.9920114 -1.45764e-5 0.1357757 0.9907396 1.12573e-6 -0.07917308 0.996861 2.44165e-7 -0.3911945 0.9203081 0 -0.6172192 0.7867913 1.2403e-7 -0.7122337 0.7019425 0.2438251 -0.9694717 0.025963 -7.78813e-7 -0.9997049 0.02429348 -0.2326949 -0.691973 0.6833934 -0.2438254 -0.9694716 0.02596271 -0.1246476 -0.989608 0.07168734 -0.1042236 -0.07107156 0.9920113 -0.1707361 -0.3768694 0.9103949 -0.215389 -0.5993973 0.7709283 -0.05240982 0.1395209 0.9888313 -0.2023699 -0.04764479 0.9781496 -0.3295236 -0.3358486 0.8823944 -0.4135513 -0.5480064 0.7270931 -0.4649953 -0.8008974 0.3772835 -0.1467372 -0.9636277 0.2233605 -0.6374995 -0.6593598 0.3985462 -0.4341073 -0.8421867 0.3198008 -0.1023009 0.1505394 0.9832968 -0.2897208 -0.01108217 0.9570472 -0.4676424 -0.273004 0.8407018 -0.5827335 -0.4690066 0.6636676 -0.1474744 0.1681557 0.9746666 -0.3633866 0.03598898 0.9309431 -0.5807143 -0.1940296 0.7906475 -0.6642581 -0.3566181 0.6569512 -0.732947 -0.5508629 0.3991727 -0.7214122 -0.6358752 0.274276 -0.1861764 0.191493 0.9636746 -0.4219475 0.09115749 0.9020259 -0.6678158 -0.1038292 0.7370493 -0.7309241 -0.1748278 0.6596857 -0.7298685 -0.005913257 0.683562 -0.8719053 -0.09530466 0.4803105 -0.2171535 0.2194042 0.9511604 -0.4648609 0.1524313 0.8721634 -0.2395853 0.2507804 0.9379277 -0.4919782 0.2181982 0.8428209 -0.7682758 0.09750461 0.6326494 -0.9245361 -0.01561188 0.3807747 -0.9773015 -0.09505635 0.1893305 -0.965268 -0.1489939 0.2146127 -0.9947867 -0.0830515 0.05917644 -0.9975345 -0.06463187 0.02734643 -0.784049 0.2051056 0.5858318 -0.938449 0.1135187 0.3262316 -0.9864791 0.05369931 0.1548399 -0.2531341 0.2844793 0.9246593 -0.5032269 0.2870845 0.8150737 -0.2531172 0.3547316 0.9000541 -0.4984309 0.3577895 0.7896541 -0.7773368 0.315957 0.5439841 -0.9275647 0.2463898 0.2809199 -0.9717244 0.2127881 0.1023374 -0.747792 0.4264341 0.5088824 -0.8785233 0.4250726 0.2179683 -0.9325186 0.3563845 0.05830448 -0.9427325 0.3334984 0.005869507 -0.9422548 0.3348962 -7.53232e-4 -0.2395735 0.3893194 0.8894014 -0.4772229 0.428911 0.767003 -0.2171314 0.4220921 0.880166 -0.4378133 0.4972968 0.7490097 -0.7345686 0.4879409 0.4715111 -0.8554282 0.4738981 0.2089575 -0.9132382 0.3979554 0.08733713 -0.9416693 0.3362724 0.01340997 -0.8400667 0.4863173 0.2403817 -0.8808873 0.4654742 0.08585751 -0.8951174 0.4458287 0.00135076 -0.1861762 0.4517398 0.8725076 -0.3607487 0.5173103 0.776048 -0.6896713 0.498511 0.525205 -0.1475746 0.4767966 0.8665372 -0.2426536 0.533931 0.809961 -0.3469436 0.4990422 0.7940952 -0.7156956 0.6156005 0.3298727 -0.7394987 0.6260613 0.2473639 -0.7875749 0.613314 0.05976426 -0.8019545 0.5971981 -0.01495581 -0.575044 0.7758103 0.2596979 -0.6243919 0.7802757 0.03612136 -0.6385836 0.7689145 -0.03133112 -0.1023768 0.4959644 0.8622868 -0.1409052 0.5310338 0.8355531 -0.2168881 0.5073553 0.8339966 -0.547967 0.7497546 0.370945 -0.05243241 0.5080296 0.8597423 -0.06370407 0.5218517 0.8506543 -0.1054034 0.5115485 0.8527652 -0.3040851 0.8597059 0.4104122 -0.324579 0.9063019 0.270676 -0.3583902 0.9334066 0.01756507 -0.3687059 0.9284541 -0.04504495 -0.9344961 0.3559736 0 0.9344958 0.3559746 0 0.9460593 0.3239939 0 0.9420771 0.3353968 0 0.8929542 0.4501477 0 0.7972874 0.6035999 3.4089e-7 0.6316281 0.7752715 5.75043e-7 -0.9972442 -0.07418966 0 0.3625476 0.9319654 6.50199e-7 -0.6316279 0.7752718 2.23396e-7 -4.79588e-6 1 7.37435e-7 -0.8929539 0.4501481 1.72115e-7 -0.946059 0.3239947 0 -0.7972862 0.6036016 2.14722e-7 0.9972443 -0.07418912 0 0.9972442 -0.07418924 0 -0.3625523 0.9319635 2.99508e-7 -0.9420767 0.3353977 0 0.2575878 0.3194379 0.9119254 0 -0.9997142 0.02390766 -0.257647 0.3194342 0.91191 -0.9972442 -0.07418972 0</float_array>
          <technique_common>
            <accessor source="#Esfera_011-mesh-normals-array" count="215" stride="3">
              <param name="X" type="float"/>
              <param name="Y" type="float"/>
              <param name="Z" type="float"/>
            </accessor>
          </technique_common>
        </source>
        <source id="Esfera_011-mesh-map-0">
          <float_array id="Esfera_011-mesh-map-0-array" count="1968">0.03830987 0.5516622 0.1553691 0.6694904 0.03830665 0.6695236 0.03830665 0.6695236 0.1553488 0.787351 0.03830903 0.7873883 0.03830099 0.1834897 0.1553472 0.4615678 0.03830987 0.461567 0.03830903 0.3159353 0.1553318 0.4337627 0.0383107 0.4337975 0.0383107 0.4337975 0.1553375 0.5516266 0.03830987 0.5516622 0.1553318 0.4337627 0.2745112 0.5515902 0.1553375 0.5516266 0.1553375 0.5516266 0.2744868 0.6694532 0.1553691 0.6694904 0.1553691 0.6694904 0.2745031 0.7873162 0.1553488 0.787351 0.1554476 0.1834897 0.2745031 0.4615686 0.1553472 0.4615678 0.1553472 0.3158997 0.274516 0.4337279 0.1553318 0.4337627 0.2744286 0.1834889 0.3941535 0.4615702 0.2745031 0.4615686 0.2745031 0.3158633 0.3940887 0.4336915 0.274516 0.4337279 0.274516 0.4337279 0.3941114 0.5515546 0.2745112 0.5515902 0.2745112 0.5515902 0.394236 0.6694176 0.2744868 0.6694532 0.2744868 0.6694532 0.3941567 0.7872798 0.2745031 0.7873162 0.3941114 0.5515546 0.5117963 0.6693803 0.394236 0.6694176 0.394236 0.6694176 0.5117202 0.7872442 0.3941567 0.7872798 0.3945356 0.1834889 0.5117154 0.461571 0.3941535 0.4615702 0.3941535 0.3158285 0.5116522 0.4336567 0.3940887 0.4336915 0.3940887 0.4336915 0.5116749 0.5515173 0.3941114 0.5515546 0.512091 0.1834889 0.6315601 0.4615718 0.5117154 0.461571 0.5117154 0.3157929 0.6315131 0.4336203 0.5116522 0.4336567 0.5116522 0.4336567 0.631531 0.5514825 0.5116749 0.5515173 0.5116749 0.5515173 0.6316232 0.6693455 0.5117963 0.6693803 0.5117202 0.7872442 0.6316232 0.6693455 0.6315633 0.7872077 0.631531 0.5514825 0.7544113 0.6693107 0.6316232 0.6693455 0.6316232 0.6693455 0.7543692 0.7871738 0.6315633 0.7872077 0.631845 0.1834889 0.754366 0.4615734 0.6315601 0.4615718 0.6315601 0.3157572 0.7543304 0.4335838 0.6315131 0.4336203 0.6315131 0.4336203 0.7543433 0.5514469 0.631531 0.5514825 0.7545765 0.1834889 0.8645095 0.4615743 0.754366 0.4615734 0.754366 0.3157208 0.8643428 0.433549 0.7543304 0.4335838 0.7543304 0.4335838 0.8644011 0.5514104 0.7543433 0.5514469 0.7543433 0.5514469 0.8647265 0.6692743 0.7544113 0.6693107 0.8622753 0.6693107 0.9834816 0.7871373 0.8625991 0.7871738 0.8655084 0.1834889 0.9858 0.461575 0.8655684 0.4615743 0.8656267 0.433549 0.9858 0.3156496 0.9858453 0.4335118 0.8644011 0.5514104 0.9848432 0.4335118 0.9848886 0.5513748 0.8644011 0.5514104 0.9851427 0.6692387 0.8647265 0.6692743 0.03745907 0.4048616 0.1554937 0.2869638 0.1555779 0.4048252 0.03700494 0.5227246 0.1555779 0.4048252 0.1552323 0.5226898 0.03655326 0.6405885 0.1552323 0.5226898 0.1548874 0.6405513 0.03734898 0.4624429 0.1555002 0.1834306 0.1554937 0.4624437 0.1554937 0.4624437 0.274257 0.1834306 0.2742586 0.4624445 0.1555779 0.4048252 0.2742586 0.2869274 0.2742343 0.4047904 0.1552323 0.5226898 0.2742343 0.4047904 0.2743363 0.5226526 0.1548874 0.6405513 0.2743363 0.5226526 0.2744383 0.6405181 0.1548874 0.6405513 0.274414 0.7583795 0.1549708 0.7584143 0.2742343 0.4047904 0.3936402 0.2868925 0.3936241 0.4047539 0.2743363 0.5226526 0.3936241 0.4047539 0.3936888 0.5226162 0.2742586 0.4624445 0.3936386 0.1834306 0.3936402 0.4624461 0.3936402 0.4624461 0.512894 0.1834306 0.512894 0.4624469 0.3936241 0.4047539 0.512894 0.2868561 0.5128762 0.4047183 0.3936888 0.5226162 0.5128762 0.4047183 0.5129572 0.5225813 0.5129572 0.5225813 0.6333507 0.4046835 0.6332924 0.5225458 0.5130397 0.6404444 0.6332924 0.5225458 0.6332309 0.640408 0.5130203 0.7583075 0.6332309 0.640408 0.6332455 0.7582718 0.512894 0.4624469 0.6333377 0.1834306 0.6333377 0.4624477 0.5128762 0.4047183 0.6333377 0.2868189 0.6333507 0.4046835 0.6333377 0.4624477 0.7537103 0.1834306 0.7537103 0.4624493 0.6333507 0.4046835 0.7537103 0.2867849 0.7537087 0.4046471 0.6332924 0.5225458 0.7537087 0.4046471 0.7537168 0.5225117 0.6332309 0.640408 0.7537168 0.5225117 0.7537233 0.6403716 0.6332309 0.640408 0.7537216 0.7582353 0.6332455 0.7582718 0.7537168 0.5225117 0.8646811 0.4046106 0.8645468 0.5224745 0.7537233 0.6403716 0.8645468 0.5224745 0.864414 0.6403368 0.7537233 0.6403716 0.8644464 0.7581998 0.7537216 0.7582353 0.7537103 0.4624493 0.864652 0.1834298 0.8646488 0.4624502 0.7537087 0.4046471 0.8646488 0.2867476 0.8646811 0.4046106 0.8646488 0.4624502 0.9819597 0.1834298 0.9819614 0.4624509 0.8646811 0.4046106 0.9819614 0.2867128 0.9819257 0.4045758 0.8645468 0.5224745 0.9819257 0.4045758 0.9820795 0.5224381 0.864414 0.6403368 0.9820795 0.5224381 0.9822333 0.6403011 0.864414 0.6403368 0.9821961 0.758165 0.8644464 0.7581998 0.03891378 0.5301924 0.1549853 0.6480133 0.03764367 0.6480554 0.03865796 0.7659177 0.1549853 0.6480133 0.1557592 0.7658764 0.03815203 0.183446 0.155276 0.4622178 0.0380249 0.4622162 0.0380249 0.2944671 0.1551788 0.4122881 0.03789865 0.4123293 0.03789865 0.4123293 0.1559535 0.5301519 0.03891378 0.5301924 0.1553731 0.183446 0.2745403 0.4622187 0.155276 0.4622178 0.1552751 0.294425 0.2745678 0.4122468 0.1551788 0.4122881 0.1551788 0.4122881 0.2743395 0.5301082 0.1559535 0.5301519 0.1559535 0.5301519 0.2746261 0.6479712 0.1549853 0.6480133 0.1557592 0.7658764 0.2746261 0.6479712 0.2743962 0.7658351 0.2743962 0.7658351 0.3940191 0.6479299 0.3938701 0.765793 0.2745112 0.183446 0.3939625 0.4622203 0.2745403 0.4622187 0.2745403 0.2943837 0.3939802 0.4122047 0.2745678 0.4122468 0.2745678 0.4122468 0.3938329 0.5300669 0.2743395 0.5301082 0.2743395 0.5301082 0.3940191 0.6479299 0.2746261 0.6479712 0.3939446 0.183446 0.513472 0.4622219 0.3939625 0.4622203 0.3939625 0.2943425 0.5134947 0.4121626 0.3939802 0.4122047 0.3939802 0.4122047 0.5133118 0.5300256 0.3938329 0.5300669 0.3938329 0.5300669 0.5135416 0.6478894 0.3940191 0.6479299 0.3940191 0.6479299 0.5133571 0.7657509 0.3938701 0.765793 0.5134493 0.1834452 0.6327889 0.4622226 0.513472 0.4622219 0.513472 0.2943004 0.6327728 0.4121213 0.5134947 0.4121626 0.5134947 0.4121626 0.6329071 0.5299844 0.5133118 0.5300256 0.6327889 0.2942582 0.7537896 0.4120808 0.6327728 0.4121213 0.6327728 0.4121213 0.7537751 0.5299447 0.6329071 0.5299844 0.6328067 0.1834452 0.753788 0.4622243 0.6327889 0.4622226 0.7537864 0.1834452 0.8628614 0.4622251 0.753788 0.4622243 0.753788 0.2942178 0.8628225 0.4120395 0.7537896 0.4120808 0.7537896 0.4120808 0.863122 0.5299001 0.7537751 0.5299447 0.7537751 0.5299447 0.862748 0.6477656 0.7537944 0.6478061 0.7537783 0.7656691 0.862748 0.6477656 0.8630475 0.765627 0.8628614 0.2941757 0.9843996 0.4119974 0.8628225 0.4120395 0.8628225 0.4120395 0.9840547 0.5298613 0.863122 0.5299001 0.863122 0.5299001 0.984487 0.6477235 0.862748 0.6477656 0.8628986 0.1834452 0.9843559 0.4622267 0.8628614 0.4622251 0.03831231 0.4622267 0.1553512 0.1834452 0.1553334 0.4622275 0.03831231 0.2941352 0.1553383 0.4119545 0.03831231 0.4119966 0.03831231 0.4119966 0.155344 0.52982 0.03831148 0.5298605 0.03830903 0.6477235 0.155344 0.52982 0.1553723 0.6476814 0.155344 0.52982 0.2744917 0.4119165 0.2744868 0.5297779 0.1553723 0.6476814 0.2744868 0.5297779 0.2744658 0.647641 0.1553544 0.7655453 0.2744658 0.647641 0.2744804 0.7655048 0.1553334 0.4622275 0.274482 0.1834452 0.2744966 0.4622291 0.1553383 0.4119545 0.2744966 0.2940534 0.2744917 0.4119165 0.2744966 0.4622291 0.3943591 0.1834452 0.3942878 0.46223 0.2744917 0.4119165 0.3942878 0.2940114 0.3943073 0.4118728 0.2744868 0.5297779 0.3943073 0.4118728 0.3943283 0.5297374 0.2744658 0.647641 0.3943283 0.5297374 0.3944384 0.6475996 0.2744804 0.7655048 0.3944384 0.6475996 0.3943688 0.7654627 0.3944384 0.6475996 0.5119809 0.5296953 0.5120894 0.6475576 0.3944384 0.6475996 0.5120214 0.7654206 0.3943688 0.7654627 0.3942878 0.46223 0.51201 0.1834452 0.511942 0.4622316 0.3943073 0.4118728 0.511942 0.2939684 0.5119615 0.4118315 0.3943283 0.5297374 0.5119615 0.4118315 0.5119809 0.5296953 0.511942 0.4622316 0.6318564 0.1834444 0.6318046 0.4622332 0.5119615 0.4118315 0.6318046 0.2939272 0.6318191 0.411791 0.5119809 0.5296953 0.6318191 0.411791 0.6318337 0.529654 0.5120894 0.6475576 0.6318337 0.529654 0.6319163 0.6475163 0.5120214 0.7654206 0.6319163 0.6475163 0.6318644 0.7653785 0.6319163 0.6475163 0.7546202 0.5296111 0.7546817 0.6474742 0.6318644 0.7653785 0.7546817 0.6474742 0.7546429 0.7653372 0.6318046 0.4622332 0.7546364 0.1834444 0.7545975 0.462234 0.6318191 0.411791 0.7545975 0.2938859 0.7546089 0.4117489 0.6318337 0.529654 0.7546089 0.4117489 0.7546202 0.5296111 0.7545975 0.462234 0.866046 0.1834444 0.8658614 0.4622356 0.7546089 0.4117489 0.8658614 0.2938438 0.8659148 0.411706 0.7546202 0.5296111 0.8659148 0.411706 0.8659667 0.5295699 0.7546817 0.6474742 0.8659667 0.5295699 0.866258 0.6474337 0.7546429 0.7653372 0.866258 0.6474337 0.8660735 0.7652967 0.8660735 0.7652967 0.9865334 0.6473916 0.9863893 0.7652546 0.8658614 0.4622356 0.9863683 0.1834444 0.9862242 0.4622364 0.8659148 0.411706 0.9862242 0.2938017 0.9862663 0.4116647 0.8659667 0.5295699 0.9862663 0.4116647 0.9863068 0.5295294 0.866258 0.6474337 0.9863068 0.5295294 0.9865334 0.6473916 0.2744804 0.3000511 0.1553561 0.8696555 0.1553561 0.3000487 0.8625991 0.3028795 0.9834816 0.868744 0.8625991 0.868961 0.5117202 0.2997823 0.6315633 0.8691633 0.5117202 0.8693803 0.2745031 0.2999726 0.3941567 0.8695924 0.2745031 0.8698093 0.8630492 0.3000447 0.7537783 0.870393 0.7537783 0.300043 0.6315633 0.299686 0.7543692 0.868961 0.6315633 0.8691633 0.3941567 0.2998763 0.5117202 0.8693803 0.3941567 0.8695924 0.1553504 0.3000641 0.2745031 0.8698093 0.1553504 0.8700166 0.8660735 0.3000608 0.7546429 0.868417 0.7546429 0.3000592 0.03830987 0.3001628 0.1553504 0.8700166 0.03830987 0.8702384 0.6318644 0.3000576 0.5120214 0.868914 0.5120214 0.3000552 0.3943688 0.3000527 0.2744804 0.8694151 0.2744804 0.3000511 0.7546429 0.3000592 0.6318644 0.8686631 0.6318644 0.3000576 0.1549708 0.3004 0.274414 0.8677718 0.1549708 0.8679791 0.9863893 0.3000633 0.8660735 0.8681758 0.8660735 0.3000608 0.5120214 0.3000552 0.3943688 0.8691641 0.3943688 0.3000527 0.03830987 0.5516622 0.1553375 0.5516266 0.1553691 0.6694904 0.03830665 0.6695236 0.1553691 0.6694904 0.1553488 0.787351 0.03830099 0.1834897 0.1554476 0.1834897 0.1553472 0.4615678 0.03830903 0.3159353 0.1553472 0.3158997 0.1553318 0.4337627 0.0383107 0.4337975 0.1553318 0.4337627 0.1553375 0.5516266 0.1553318 0.4337627 0.274516 0.4337279 0.2745112 0.5515902 0.1553375 0.5516266 0.2745112 0.5515902 0.2744868 0.6694532 0.1553691 0.6694904 0.2744868 0.6694532 0.2745031 0.7873162 0.1554476 0.1834897 0.2744286 0.1834889 0.2745031 0.4615686 0.1553472 0.3158997 0.2745031 0.3158633 0.274516 0.4337279 0.2744286 0.1834889 0.3945356 0.1834889 0.3941535 0.4615702 0.2745031 0.3158633 0.3941535 0.3158285 0.3940887 0.4336915 0.274516 0.4337279 0.3940887 0.4336915 0.3941114 0.5515546 0.2745112 0.5515902 0.3941114 0.5515546 0.394236 0.6694176 0.2744868 0.6694532 0.394236 0.6694176 0.3941567 0.7872798 0.3941114 0.5515546 0.5116749 0.5515173 0.5117963 0.6693803 0.394236 0.6694176 0.5117963 0.6693803 0.5117202 0.7872442 0.3945356 0.1834889 0.512091 0.1834889 0.5117154 0.461571 0.3941535 0.3158285 0.5117154 0.3157929 0.5116522 0.4336567 0.3940887 0.4336915 0.5116522 0.4336567 0.5116749 0.5515173 0.512091 0.1834889 0.631845 0.1834889 0.6315601 0.4615718 0.5117154 0.3157929 0.6315601 0.3157572 0.6315131 0.4336203 0.5116522 0.4336567 0.6315131 0.4336203 0.631531 0.5514825 0.5116749 0.5515173 0.631531 0.5514825 0.6316232 0.6693455 0.5117202 0.7872442 0.5117963 0.6693803 0.6316232 0.6693455 0.631531 0.5514825 0.7543433 0.5514469 0.7544113 0.6693107 0.6316232 0.6693455 0.7544113 0.6693107 0.7543692 0.7871738 0.631845 0.1834889 0.7545765 0.1834889 0.754366 0.4615734 0.6315601 0.3157572 0.754366 0.3157208 0.7543304 0.4335838 0.6315131 0.4336203 0.7543304 0.4335838 0.7543433 0.5514469 0.7545765 0.1834889 0.8655084 0.1834889 0.8645095 0.4615743 0.754366 0.3157208 0.8645095 0.3156836 0.8643428 0.433549 0.7543304 0.4335838 0.8643428 0.433549 0.8644011 0.5514104 0.7543433 0.5514469 0.8644011 0.5514104 0.8647265 0.6692743 0.8622753 0.6693107 0.9832291 0.6692743 0.9834816 0.7871373 0.8655084 0.1834889 0.9857531 0.1834889 0.9858 0.461575 0.8656267 0.433549 0.8655684 0.3156836 0.9858 0.3156496 0.8644011 0.5514104 0.8643428 0.433549 0.9848432 0.4335118 0.8644011 0.5514104 0.9848886 0.5513748 0.9851427 0.6692387 0.03745907 0.4048616 0.03734898 0.2869994 0.1554937 0.2869638 0.03700494 0.5227246 0.03745907 0.4048616 0.1555779 0.4048252 0.03655326 0.6405885 0.03700494 0.5227246 0.1552323 0.5226898 0.03734898 0.4624429 0.03735786 0.1834306 0.1555002 0.1834306 0.1554937 0.4624437 0.1555002 0.1834306 0.274257 0.1834306 0.1555779 0.4048252 0.1554937 0.2869638 0.2742586 0.2869274 0.1552323 0.5226898 0.1555779 0.4048252 0.2742343 0.4047904 0.1548874 0.6405513 0.1552323 0.5226898 0.2743363 0.5226526 0.1548874 0.6405513 0.2744383 0.6405181 0.274414 0.7583795 0.2742343 0.4047904 0.2742586 0.2869274 0.3936402 0.2868925 0.2743363 0.5226526 0.2742343 0.4047904 0.3936241 0.4047539 0.2742586 0.4624445 0.274257 0.1834306 0.3936386 0.1834306 0.3936402 0.4624461 0.3936386 0.1834306 0.512894 0.1834306 0.3936241 0.4047539 0.3936402 0.2868925 0.512894 0.2868561 0.3936888 0.5226162 0.3936241 0.4047539 0.5128762 0.4047183 0.5129572 0.5225813 0.5128762 0.4047183 0.6333507 0.4046835 0.5130397 0.6404444 0.5129572 0.5225813 0.6332924 0.5225458 0.5130203 0.7583075 0.5130397 0.6404444 0.6332309 0.640408 0.512894 0.4624469 0.512894 0.1834306 0.6333377 0.1834306 0.5128762 0.4047183 0.512894 0.2868561 0.6333377 0.2868189 0.6333377 0.4624477 0.6333377 0.1834306 0.7537103 0.1834306 0.6333507 0.4046835 0.6333377 0.2868189 0.7537103 0.2867849 0.6332924 0.5225458 0.6333507 0.4046835 0.7537087 0.4046471 0.6332309 0.640408 0.6332924 0.5225458 0.7537168 0.5225117 0.6332309 0.640408 0.7537233 0.6403716 0.7537216 0.7582353 0.7537168 0.5225117 0.7537087 0.4046471 0.8646811 0.4046106 0.7537233 0.6403716 0.7537168 0.5225117 0.8645468 0.5224745 0.7537233 0.6403716 0.864414 0.6403368 0.8644464 0.7581998 0.7537103 0.4624493 0.7537103 0.1834306 0.864652 0.1834298 0.7537087 0.4046471 0.7537103 0.2867849 0.8646488 0.2867476 0.8646488 0.4624502 0.864652 0.1834298 0.9819597 0.1834298 0.8646811 0.4046106 0.8646488 0.2867476 0.9819614 0.2867128 0.8645468 0.5224745 0.8646811 0.4046106 0.9819257 0.4045758 0.864414 0.6403368 0.8645468 0.5224745 0.9820795 0.5224381 0.864414 0.6403368 0.9822333 0.6403011 0.9821961 0.758165 0.03891378 0.5301924 0.1559535 0.5301519 0.1549853 0.6480133 0.03865796 0.7659177 0.03764367 0.6480554 0.1549853 0.6480133 0.03815203 0.183446 0.1553731 0.183446 0.155276 0.4622178 0.0380249 0.2944671 0.1552751 0.294425 0.1551788 0.4122881 0.03789865 0.4123293 0.1551788 0.4122881 0.1559535 0.5301519 0.1553731 0.183446 0.2745112 0.183446 0.2745403 0.4622187 0.1552751 0.294425 0.2745403 0.2943837 0.2745678 0.4122468 0.1551788 0.4122881 0.2745678 0.4122468 0.2743395 0.5301082 0.1559535 0.5301519 0.2743395 0.5301082 0.2746261 0.6479712 0.1557592 0.7658764 0.1549853 0.6480133 0.2746261 0.6479712 0.2743962 0.7658351 0.2746261 0.6479712 0.3940191 0.6479299 0.2745112 0.183446 0.3939446 0.183446 0.3939625 0.4622203 0.2745403 0.2943837 0.3939625 0.2943425 0.3939802 0.4122047 0.2745678 0.4122468 0.3939802 0.4122047 0.3938329 0.5300669 0.2743395 0.5301082 0.3938329 0.5300669 0.3940191 0.6479299 0.3939446 0.183446 0.5134493 0.1834452 0.513472 0.4622219 0.3939625 0.2943425 0.513472 0.2943004 0.5134947 0.4121626 0.3939802 0.4122047 0.5134947 0.4121626 0.5133118 0.5300256 0.3938329 0.5300669 0.5133118 0.5300256 0.5135416 0.6478894 0.3940191 0.6479299 0.5135416 0.6478894 0.5133571 0.7657509 0.5134493 0.1834452 0.6328067 0.1834452 0.6327889 0.4622226 0.513472 0.2943004 0.6327889 0.2942582 0.6327728 0.4121213 0.5134947 0.4121626 0.6327728 0.4121213 0.6329071 0.5299844 0.6327889 0.2942582 0.753788 0.2942178 0.7537896 0.4120808 0.6327728 0.4121213 0.7537896 0.4120808 0.7537751 0.5299447 0.6328067 0.1834452 0.7537864 0.1834452 0.753788 0.4622243 0.7537864 0.1834452 0.8628986 0.1834452 0.8628614 0.4622251 0.753788 0.2942178 0.8628614 0.2941757 0.8628225 0.4120395 0.7537896 0.4120808 0.8628225 0.4120395 0.863122 0.5299001 0.7537751 0.5299447 0.863122 0.5299001 0.862748 0.6477656 0.7537783 0.7656691 0.7537944 0.6478061 0.862748 0.6477656 0.8628614 0.2941757 0.9843559 0.2941352 0.9843996 0.4119974 0.8628225 0.4120395 0.9843996 0.4119974 0.9840547 0.5298613 0.863122 0.5299001 0.9840547 0.5298613 0.984487 0.6477235 0.8628986 0.1834452 0.9843122 0.1834452 0.9843559 0.4622267 0.03831231 0.4622267 0.0383107 0.1834452 0.1553512 0.1834452 0.03831231 0.2941352 0.1553334 0.2940939 0.1553383 0.4119545 0.03831231 0.4119966 0.1553383 0.4119545 0.155344 0.52982 0.03830903 0.6477235 0.03831148 0.5298605 0.155344 0.52982 0.155344 0.52982 0.1553383 0.4119545 0.2744917 0.4119165 0.1553723 0.6476814 0.155344 0.52982 0.2744868 0.5297779 0.1553544 0.7655453 0.1553723 0.6476814 0.2744658 0.647641 0.1553334 0.4622275 0.1553512 0.1834452 0.274482 0.1834452 0.1553383 0.4119545 0.1553334 0.2940939 0.2744966 0.2940534 0.2744966 0.4622291 0.274482 0.1834452 0.3943591 0.1834452 0.2744917 0.4119165 0.2744966 0.2940534 0.3942878 0.2940114 0.2744868 0.5297779 0.2744917 0.4119165 0.3943073 0.4118728 0.2744658 0.647641 0.2744868 0.5297779 0.3943283 0.5297374 0.2744804 0.7655048 0.2744658 0.647641 0.3944384 0.6475996 0.3944384 0.6475996 0.3943283 0.5297374 0.5119809 0.5296953 0.3944384 0.6475996 0.5120894 0.6475576 0.5120214 0.7654206 0.3942878 0.46223 0.3943591 0.1834452 0.51201 0.1834452 0.3943073 0.4118728 0.3942878 0.2940114 0.511942 0.2939684 0.3943283 0.5297374 0.3943073 0.4118728 0.5119615 0.4118315 0.511942 0.4622316 0.51201 0.1834452 0.6318564 0.1834444 0.5119615 0.4118315 0.511942 0.2939684 0.6318046 0.2939272 0.5119809 0.5296953 0.5119615 0.4118315 0.6318191 0.411791 0.5120894 0.6475576 0.5119809 0.5296953 0.6318337 0.529654 0.5120214 0.7654206 0.5120894 0.6475576 0.6319163 0.6475163 0.6319163 0.6475163 0.6318337 0.529654 0.7546202 0.5296111 0.6318644 0.7653785 0.6319163 0.6475163 0.7546817 0.6474742 0.6318046 0.4622332 0.6318564 0.1834444 0.7546364 0.1834444 0.6318191 0.411791 0.6318046 0.2939272 0.7545975 0.2938859 0.6318337 0.529654 0.6318191 0.411791 0.7546089 0.4117489 0.7545975 0.462234 0.7546364 0.1834444 0.866046 0.1834444 0.7546089 0.4117489 0.7545975 0.2938859 0.8658614 0.2938438 0.7546202 0.5296111 0.7546089 0.4117489 0.8659148 0.411706 0.7546817 0.6474742 0.7546202 0.5296111 0.8659667 0.5295699 0.7546429 0.7653372 0.7546817 0.6474742 0.866258 0.6474337 0.8660735 0.7652967 0.866258 0.6474337 0.9865334 0.6473916 0.8658614 0.4622356 0.866046 0.1834444 0.9863683 0.1834444 0.8659148 0.411706 0.8658614 0.2938438 0.9862242 0.2938017 0.8659667 0.5295699 0.8659148 0.411706 0.9862663 0.4116647 0.866258 0.6474337 0.8659667 0.5295699 0.9863068 0.5295294 0.2744804 0.3000511 0.2744804 0.8694151 0.1553561 0.8696555 0.8625991 0.3028795 0.9834816 0.3027832 0.9834816 0.868744 0.5117202 0.2997823 0.6315633 0.299686 0.6315633 0.8691633 0.2745031 0.2999726 0.3941567 0.2998763 0.3941567 0.8695924 0.8630492 0.3000447 0.8630492 0.8701428 0.7537783 0.870393 0.6315633 0.299686 0.7543692 0.299597 0.7543692 0.868961 0.3941567 0.2998763 0.5117202 0.2997823 0.5117202 0.8693803 0.1553504 0.3000641 0.2745031 0.2999726 0.2745031 0.8698093 0.8660735 0.3000608 0.8660735 0.8681758 0.7546429 0.868417 0.03830987 0.3001628 0.1553504 0.3000641 0.1553504 0.8700166 0.6318644 0.3000576 0.6318644 0.8686631 0.5120214 0.868914 0.3943688 0.3000527 0.3943688 0.8691641 0.2744804 0.8694151 0.7546429 0.3000592 0.7546429 0.868417 0.6318644 0.8686631 0.1549708 0.3004 0.274414 0.3004016 0.274414 0.8677718 0.9863893 0.3000633 0.9863893 0.8679256 0.8660735 0.8681758 0.5120214 0.3000552 0.5120214 0.868914 0.3943688 0.8691641</float_array>
          <technique_common>
            <accessor source="#Esfera_011-mesh-map-0-array" count="984" stride="2">
              <param name="S" type="float"/>
              <param name="T" type="float"/>
            </accessor>
          </technique_common>
        </source>
        <vertices id="Esfera_011-mesh-vertices">
          <input semantic="POSITION" source="#Esfera_011-mesh-positions"/>
        </vertices>
        <triangles material="A-textura_libios_General-material" count="328">
          <input semantic="VERTEX" source="#Esfera_011-mesh-vertices" offset="0"/>
          <input semantic="NORMAL" source="#Esfera_011-mesh-normals" offset="1"/>
          <input semantic="TEXCOORD" source="#Esfera_011-mesh-map-0" offset="2" set="0"/>
          <p>3 0 0 10 1 1 4 2 2 4 2 3 11 3 4 5 4 5 0 5 6 7 6 7 1 7 8 1 7 9 8 8 10 2 9 11 2 10 12 9 11 13 3 0 14 8 12 15 15 13 16 9 11 17 9 11 18 16 14 19 10 1 20 10 1 21 17 15 22 11 3 23 6 16 24 13 17 25 7 6 26 7 6 27 14 18 28 8 8 29 12 19 30 19 20 31 13 17 32 13 17 33 20 21 34 14 18 35 14 22 36 21 23 37 15 13 38 15 13 39 22 24 40 16 14 41 16 14 42 23 25 43 17 15 44 21 23 45 28 26 46 22 24 47 22 24 48 29 27 49 23 25 50 18 28 51 25 29 52 19 20 53 19 20 54 26 30 55 20 21 56 20 31 57 27 32 58 21 23 59 24 33 60 31 34 61 25 29 62 25 29 63 32 35 64 26 30 65 26 30 66 33 36 67 27 32 68 27 32 69 34 37 70 28 26 71 29 27 72 34 37 73 35 38 74 33 36 75 40 39 76 34 37 77 34 37 78 41 40 79 35 38 80 30 41 81 37 42 82 31 34 83 31 34 84 38 43 85 32 35 86 32 35 87 39 44 88 33 36 89 36 45 90 43 46 91 37 42 92 37 42 93 44 47 94 38 43 95 38 43 96 45 48 97 39 44 98 39 44 99 46 49 100 40 39 101 40 39 102 47 50 103 41 40 104 42 51 105 49 52 106 43 46 107 44 47 108 49 52 109 50 53 110 45 48 111 50 53 112 51 54 113 45 48 114 52 55 115 46 49 116 50 53 117 54 56 118 55 57 119 51 54 120 55 57 121 56 58 122 52 55 123 56 58 124 57 59 125 49 52 126 53 60 127 54 56 128 54 56 129 59 61 130 60 62 131 55 57 132 60 62 133 61 63 134 56 58 135 61 63 136 62 64 137 57 59 138 62 64 139 63 65 140 57 59 141 64 66 142 58 67 143 61 63 144 66 68 145 67 69 146 62 64 147 67 69 148 68 70 149 60 62 150 65 71 151 66 68 152 66 68 153 69 72 154 70 73 155 67 69 156 70 73 157 71 74 158 68 70 159 71 74 160 72 75 161 72 75 162 77 76 163 78 77 164 73 78 165 78 77 166 79 79 167 74 80 168 79 79 169 80 81 170 70 73 171 75 82 172 76 83 173 71 74 174 76 83 175 77 76 176 76 83 177 81 84 178 82 85 179 77 76 180 82 85 181 83 86 182 78 77 183 83 86 184 84 87 185 79 79 186 84 87 187 85 88 188 79 79 189 86 89 190 80 81 191 84 87 192 89 90 193 90 91 194 85 88 195 90 91 196 91 92 197 85 88 198 92 93 199 86 89 200 82 85 201 87 94 202 88 95 203 83 86 204 88 95 205 89 90 206 88 95 207 93 96 208 94 97 209 89 90 210 94 97 211 95 98 212 90 91 213 95 98 214 96 99 215 91 92 216 96 99 217 97 100 218 91 101 219 98 102 220 92 93 221 96 99 222 103 103 223 97 100 224 98 102 225 103 104 226 104 105 227 93 96 228 100 106 229 94 97 230 94 97 231 101 107 232 95 98 233 95 98 234 102 108 235 96 99 236 99 109 237 106 110 238 100 106 239 100 106 240 107 111 241 101 107 242 101 107 243 108 112 244 102 108 245 102 108 246 109 113 247 103 103 248 104 105 249 109 113 250 110 114 251 110 114 252 115 115 253 116 116 254 105 117 255 112 118 256 106 110 257 106 110 258 113 119 259 107 111 260 107 111 261 114 120 262 108 112 263 108 112 264 115 115 265 109 113 266 111 121 267 118 122 268 112 118 269 112 118 270 119 123 271 113 119 272 113 119 273 120 124 274 114 120 275 114 120 276 121 125 277 115 115 278 115 115 279 122 126 280 116 116 281 117 127 282 124 128 283 118 122 284 118 122 285 125 129 286 119 123 287 119 123 288 126 130 289 120 124 290 124 128 291 129 131 292 125 129 293 125 129 294 130 132 295 126 130 296 123 133 297 128 134 298 124 128 299 127 135 300 134 136 301 128 134 302 128 134 303 135 137 304 129 131 305 129 131 306 136 138 307 130 132 308 130 132 309 137 139 310 131 140 311 132 141 312 137 139 313 138 142 314 134 136 315 141 143 316 135 137 317 135 137 318 142 144 319 136 138 320 136 138 321 143 145 322 137 139 323 133 146 324 140 147 325 134 136 326 140 147 327 144 148 328 145 149 329 140 147 330 146 150 331 141 143 332 141 143 333 147 151 334 142 144 335 143 145 336 147 151 337 148 152 338 147 151 339 152 153 340 153 154 341 148 152 342 153 154 343 154 155 344 149 156 345 154 155 346 155 157 347 145 149 348 150 158 349 151 159 350 146 150 351 151 159 352 152 153 353 151 159 354 156 160 355 157 161 356 152 153 357 157 161 358 158 162 359 153 154 360 158 162 361 159 163 362 154 155 363 159 163 364 160 164 365 155 157 366 160 164 367 161 165 368 160 164 369 165 166 370 166 167 371 160 164 372 167 168 373 161 165 374 157 161 375 162 169 376 163 170 377 158 162 378 163 170 379 164 171 380 159 163 381 164 171 382 165 166 383 163 170 384 168 172 385 169 173 386 164 171 387 169 173 388 170 174 389 165 166 390 170 175 391 171 176 392 166 167 393 171 176 394 172 177 395 167 168 396 172 177 397 173 178 398 172 177 399 177 179 400 178 180 401 173 178 402 178 180 403 179 181 404 169 173 405 174 182 406 175 183 407 170 174 408 175 183 409 176 184 410 171 176 411 176 185 412 177 179 413 175 183 414 180 186 415 181 187 416 176 184 417 181 187 418 182 188 419 177 179 420 182 189 421 183 190 422 178 180 423 183 190 424 184 191 425 179 181 426 184 191 427 185 192 428 185 192 429 4 2 430 5 4 431 181 187 432 0 5 433 1 7 434 182 188 435 1 7 436 2 9 437 183 190 438 2 10 439 3 0 440 184 191 441 3 0 442 4 2 443 155 157 444 198 193 445 149 156 446 41 40 447 193 194 448 192 195 449 29 27 450 191 196 451 190 197 452 17 15 453 189 198 454 188 199 455 138 142 456 196 200 457 132 141 458 35 38 459 192 195 460 191 196 461 23 25 462 190 197 463 189 198 464 11 3 465 188 199 466 187 201 467 185 192 468 203 202 469 179 181 470 5 4 471 187 201 472 186 203 473 173 178 474 201 204 475 167 168 476 161 165 477 199 205 478 155 157 479 179 181 480 202 206 481 173 178 482 58 67 483 195 207 484 194 208 485 5 4 486 204 209 487 185 192 488 167 168 489 200 210 490 161 165 491 3 0 492 9 11 493 10 1 494 4 2 495 10 1 496 11 3 497 0 5 498 6 16 499 7 6 500 1 7 501 7 6 502 8 8 503 2 10 504 8 12 505 9 11 506 8 12 507 14 22 508 15 13 509 9 11 510 15 13 511 16 14 512 10 1 513 16 14 514 17 15 515 6 16 516 12 19 517 13 17 518 7 6 519 13 17 520 14 18 521 12 19 522 18 28 523 19 20 524 13 17 525 19 20 526 20 21 527 14 22 528 20 31 529 21 23 530 15 13 531 21 23 532 22 24 533 16 14 534 22 24 535 23 25 536 21 23 537 27 32 538 28 26 539 22 24 540 28 26 541 29 27 542 18 28 543 24 33 544 25 29 545 19 20 546 25 29 547 26 30 548 20 31 549 26 30 550 27 32 551 24 33 552 30 41 553 31 34 554 25 29 555 31 34 556 32 35 557 26 30 558 32 35 559 33 36 560 27 32 561 33 36 562 34 37 563 29 27 564 28 26 565 34 37 566 33 36 567 39 44 568 40 39 569 34 37 570 40 39 571 41 40 572 30 41 573 36 45 574 37 42 575 31 34 576 37 42 577 38 43 578 32 35 579 38 43 580 39 44 581 36 45 582 42 51 583 43 46 584 37 42 585 43 46 586 44 47 587 38 43 588 44 47 589 45 48 590 39 44 591 45 48 592 46 49 593 40 39 594 46 49 595 47 50 596 42 51 597 48 211 598 49 52 599 44 47 600 43 46 601 49 52 602 45 48 603 44 47 604 50 53 605 45 48 606 51 54 607 52 55 608 50 53 609 49 52 610 54 56 611 51 54 612 50 53 613 55 57 614 52 55 615 51 54 616 56 58 617 49 52 618 48 211 619 53 60 620 54 56 621 53 60 622 59 61 623 55 57 624 54 56 625 60 62 626 56 58 627 55 57 628 61 63 629 57 59 630 56 58 631 62 64 632 57 59 633 63 65 634 64 66 635 61 63 636 60 62 637 66 68 638 62 64 639 61 63 640 67 69 641 60 62 642 59 61 643 65 71 644 66 68 645 65 71 646 69 72 647 67 69 648 66 68 649 70 73 650 68 70 651 67 69 652 71 74 653 72 75 654 71 74 655 77 76 656 73 78 657 72 75 658 78 77 659 74 80 660 73 78 661 79 79 662 70 73 663 69 72 664 75 82 665 71 74 666 70 73 667 76 83 668 76 83 669 75 82 670 81 84 671 77 76 672 76 83 673 82 85 674 78 77 675 77 76 676 83 86 677 79 79 678 78 77 679 84 87 680 79 79 681 85 88 682 86 89 683 84 87 684 83 86 685 89 90 686 85 88 687 84 87 688 90 91 689 85 88 690 91 101 691 92 93 692 82 85 693 81 84 694 87 94 695 83 86 696 82 85 697 88 95 698 88 95 699 87 94 700 93 96 701 89 90 702 88 95 703 94 97 704 90 91 705 89 90 706 95 98 707 91 92 708 90 91 709 96 99 710 91 101 711 97 212 712 98 102 713 96 99 714 102 108 715 103 103 716 98 102 717 97 212 718 103 104 719 93 96 720 99 109 721 100 106 722 94 97 723 100 106 724 101 107 725 95 98 726 101 107 727 102 108 728 99 109 729 105 117 730 106 110 731 100 106 732 106 110 733 107 111 734 101 107 735 107 111 736 108 112 737 102 108 738 108 112 739 109 113 740 104 105 741 103 104 742 109 113 743 110 114 744 109 113 745 115 115 746 105 117 747 111 121 748 112 118 749 106 110 750 112 118 751 113 119 752 107 111 753 113 119 754 114 120 755 108 112 756 114 120 757 115 115 758 111 121 759 117 127 760 118 122 761 112 118 762 118 122 763 119 123 764 113 119 765 119 123 766 120 124 767 114 120 768 120 124 769 121 125 770 115 115 771 121 125 772 122 126 773 117 127 774 123 133 775 124 128 776 118 122 777 124 128 778 125 129 779 119 123 780 125 129 781 126 130 782 124 128 783 128 134 784 129 131 785 125 129 786 129 131 787 130 132 788 123 133 789 127 135 790 128 134 791 127 135 792 133 146 793 134 136 794 128 134 795 134 136 796 135 137 797 129 131 798 135 137 799 136 138 800 130 132 801 136 138 802 137 139 803 132 141 804 131 140 805 137 139 806 134 136 807 140 147 808 141 143 809 135 137 810 141 143 811 142 144 812 136 138 813 142 144 814 143 145 815 133 146 816 139 213 817 140 147 818 140 147 819 139 213 820 144 148 821 140 147 822 145 149 823 146 150 824 141 143 825 146 150 826 147 151 827 143 145 828 142 144 829 147 151 830 147 151 831 146 150 832 152 153 833 148 152 834 147 151 835 153 154 836 149 156 837 148 152 838 154 155 839 145 149 840 144 148 841 150 158 842 146 150 843 145 149 844 151 159 845 151 159 846 150 158 847 156 160 848 152 153 849 151 159 850 157 161 851 153 154 852 152 153 853 158 162 854 154 155 855 153 154 856 159 163 857 155 157 858 154 155 859 160 164 860 160 164 861 159 163 862 165 166 863 160 164 864 166 167 865 167 168 866 157 161 867 156 160 868 162 169 869 158 162 870 157 161 871 163 170 872 159 163 873 158 162 874 164 171 875 163 170 876 162 169 877 168 172 878 164 171 879 163 170 880 169 173 881 165 166 882 164 171 883 170 175 884 166 167 885 165 166 886 171 176 887 167 168 888 166 167 889 172 177 890 172 177 891 171 176 892 177 179 893 173 178 894 172 177 895 178 180 896 169 173 897 168 172 898 174 182 899 170 174 900 169 173 901 175 183 902 171 176 903 170 175 904 176 185 905 175 183 906 174 182 907 180 186 908 176 184 909 175 183 910 181 187 911 177 179 912 176 185 913 182 189 914 178 180 915 177 179 916 183 190 917 179 181 918 178 180 919 184 191 920 185 192 921 184 191 922 4 2 923 181 187 924 180 186 925 0 5 926 182 188 927 181 187 928 1 7 929 183 190 930 182 189 931 2 10 932 184 191 933 183 190 934 3 0 935 155 157 936 199 205 937 198 193 938 41 40 939 47 50 940 193 194 941 29 27 942 35 38 943 191 196 944 17 15 945 23 25 946 189 198 947 138 142 948 197 214 949 196 200 950 35 38 951 41 40 952 192 195 953 23 25 954 29 27 955 190 197 956 11 3 957 17 15 958 188 199 959 185 192 960 204 209 961 203 202 962 5 4 963 11 3 964 187 201 965 173 178 966 202 206 967 201 204 968 161 165 969 200 210 970 199 205 971 179 181 972 203 202 973 202 206 974 58 67 975 64 66 976 195 207 977 5 4 978 186 203 979 204 209 980 167 168 981 201 204 982 200 210 983</p>
        </triangles>
      </mesh>
    </geometry>
  </library_geometries>
  <library_visual_scenes>
    <visual_scene id="Scene" name="Scene">
      <node id="a-hair_lib_02" name="a-hair_lib_02" type="NODE">
        <matrix sid="transform">1 0 0 0 0 1 0 0 0 0 1 0 0 0 0 1</matrix>
        <instance_geometry url="#Esfera_011-mesh" name="a-hair_lib_02">
          <bind_material>
            <technique_common>
              <instance_material symbol="A-textura_libios_General-material" target="#A-textura_libios_General-material">
                <bind_vertex_input semantic="MapaUV" input_semantic="TEXCOORD" input_set="0"/>
              </instance_material>
            </technique_common>
          </bind_material>
        </instance_geometry>
      </node>
    </visual_scene>
  </library_visual_scenes>
  <scene>
    <instance_visual_scene url="#Scene"/>
  </scene>
</COLLADA>