<?xml version="1.0" encoding="utf-8"?>
<COLLADA xmlns="http://www.collada.org/2005/11/COLLADASchema" version="1.4.1" xmlns:xsi="http://www.w3.org/2001/XMLSchema-instance">
  <asset>
    <contributor>
      <author>Blender User</author>
      <authoring_tool>Blender 4.3.1 commit date:2024-12-10, commit time:07:46, hash:33d812126174</authoring_tool>
    </contributor>
    <created>2026-09-22T21:26:08</created>
    <modified>2026-09-22T21:26:08</modified>
    <unit name="meter" meter="1"/>
    <up_axis>Z_UP</up_axis>
  </asset>
  <library_effects>
    <effect id="A-textura_auxiliar_libi_cyrene_General-effect">
      <profile_COMMON>
        <technique sid="common">
          <lambert>
            <emission>
              <color sid="emission">0 0 0 1</color>
            </emission>
            <diffuse>
              <color sid="diffuse">0.8 0.8 0.8 1</color>
            </diffuse>
            <index_of_refraction>
              <float sid="ior">1.45</float>
            </index_of_refraction>
          </lambert>
        </technique>
      </profile_COMMON>
    </effect>
  </library_effects>
  <library_images/>
  <library_materials>
    <material id="A-textura_auxiliar_libi_cyrene_General-material" name="A-textura auxiliar libi cyrene General">
      <instance_effect url="#A-textura_auxiliar_libi_cyrene_General-effect"/>
    </material>
  </library_materials>
  <library_geometries>
    <geometry id="Cubo_144-mesh" name="Cubo.144">
      <mesh>
        <source id="Cubo_144-mesh-positions">
          <float_array id="Cubo_144-mesh-positions-array" count="135">0.05973112 0.3307256 0.06876605 0.05973112 0.2117869 0.07919669 0.006756305 -0.400937 0.2905184 0.006756305 -0.3742486 0.3035134 -0.05966413 0.3307256 0.06876605 -0.05966413 0.2117869 0.07919669 -0.00669068 -0.400937 0.2905184 -0.00669068 -0.3742486 0.3035134 0.05973112 0.3396556 0.2843042 0.05973112 0.2003527 0.2383709 -0.05966413 0.3396556 0.2843042 -0.05966413 0.2003527 0.2383709 0.05973112 -0.008217096 0.4635931 -0.05966413 -0.008217096 0.6120854 0.05973112 -0.008217096 0.6120854 -0.05966413 -0.008217096 0.4635931 0.05973112 0.2602173 0.4974705 -0.05966413 0.1656256 0.4106492 0.05973112 0.1656256 0.4106492 -0.05966413 0.2602173 0.4974705 0.05973112 -0.2681336 0.3562874 -0.05966413 -0.3186888 0.4713376 0.05973112 -0.3186888 0.4713376 -0.05966413 -0.2681336 0.3562874 0.05973112 0.3682514 -0.04316818 0.05973112 0.2762855 -0.06100153 -0.05966413 0.2762855 -0.06100153 -0.05966413 0.3682514 -0.04316818 0.05973112 -0.239877 0.5484733 -0.05966413 -0.2208066 0.4147318 0.05973112 -0.2208066 0.4147318 -0.05966413 -0.239877 0.5484733 0.0199663 0.4609475 -0.1471046 0.0199663 0.4302403 -0.1530591 -0.0198993 0.4302403 -0.1530591 -0.0198993 0.4609475 -0.1471046 3.27903e-5 -0.400937 0.2905184 3.34979e-5 0.3307256 0.06876605 3.34979e-5 0.3396556 0.2843042 3.34979e-5 -0.008217096 0.6120854 3.34979e-5 0.2602173 0.4974705 3.34979e-5 -0.3186888 0.4713376 3.34979e-5 0.3682514 -0.04316818 3.34979e-5 -0.239877 0.5484733 3.34979e-5 0.4609475 -0.1471046</float_array>
          <technique_common>
            <accessor source="#Cubo_144-mesh-positions-array" count="45" stride="3">
              <param name="X" type="float"/>
              <param name="Y" type="float"/>
              <param name="Z" type="float"/>
            </accessor>
          </technique_common>
        </source>
        <source id="Cubo_144-mesh-normals">
          <float_array id="Cubo_144-mesh-normals-array" count="153">0.6782302 -0.6343506 0.3709489 0.3833654 -0.877874 0.2869987 0.9493805 0.03703379 -0.3119376 -1 0 0 -0.6651948 0.7374094 0.1172323 -0.9174639 0.3969975 -0.02555322 0 0.9875983 0.1570025 0 0.9900713 0.1405666 -0.628205 0.5628871 0.5371375 0 0.7234657 0.6903604 -1 0 0 0.7503337 0.6544954 0.09292507 0.6651942 0.7374109 0.1172258 1 0 0 -0.6548148 -0.3764049 0.6553908 -0.6399127 0.05204033 0.7666835 -1 0 0 0 -0.4980255 0.8671625 -4.8256e-7 -0.264791 0.9643059 0.6282017 0.5628968 0.5371313 0.6399147 0.05204874 0.7666813 1 0 0 1 0 0 -7.45359e-7 0.3926787 0.9196758 -0.3833662 -0.877873 0.2870008 0 -0.9102572 0.4140433 0 -0.8187786 0.5741094 -0.9493829 0.0370326 -0.3119307 -0.6782342 -0.6343478 0.3709467 1 0 0 0.6548115 -0.3764013 0.6553961 0 0.8648796 0.5019795 0 0.7463097 0.6655989 0 0.7463097 0.6655989 -1 0 0 -0.9819974 0.03595918 -0.1854405 1 0 0 0.9955791 0.01788055 -0.09220969 0.9819974 0.03595924 -0.1854405 0.04997885 0.9469522 0.3174646 -1 0 0 0.94899 0.06002336 -0.3095406 0.9489901 0.06002348 -0.3095402 -0.9968215 0.01447159 -0.07834273 -0.9489904 0.06002354 -0.3095396 0 0.8747121 0.4846431 0.9685867 -0.2276659 -0.1000407 -0.9685882 -0.2276607 -0.1000383 0 0.8747135 0.4846403 -0.9732219 -0.05236178 -0.2238249 -0.94899 0.0600233 -0.3095406</float_array>
          <technique_common>
            <accessor source="#Cubo_144-mesh-normals-array" count="51" stride="3">
              <param name="X" type="float"/>
              <param name="Y" type="float"/>
              <param name="Z" type="float"/>
            </accessor>
          </technique_common>
        </source>
        <source id="Cubo_144-mesh-map-0">
          <float_array id="Cubo_144-mesh-map-0-array" count="384">0.5063417 0.4440068 0.5063417 0.4449482 0.5173102 0.4449482 0.504733 0.4511073 0.5047494 0.4699295 0.4933917 0.4699344 0.5063417 0.4725875 0.5008574 0.4725875 0.5008574 0.4890246 0.5063417 0.4560132 0.5008574 0.4560132 0.5008574 0.4725875 0.5162144 0.4511023 0.5162166 0.4699245 0.5047494 0.4699295 0.4933887 0.4698144 0.5047641 0.4698194 0.5047804 0.4509971 0.52477 0.4699032 0.5086719 0.4699196 0.5084268 0.4510973 0.5063417 0.4457885 0.5008574 0.4457884 0.5008574 0.4685163 0.5162187 0.4698243 0.527661 0.4698293 0.5276181 0.4510071 0.5047641 0.4698194 0.5162187 0.4698243 0.5162211 0.4510021 0.5277416 0.4510973 0.5276989 0.4699196 0.5162166 0.4699245 0.5063417 0.4394392 0.5008574 0.4394392 0.5008574 0.4560132 0.5063417 0.4336895 0.5008574 0.4336895 0.5008574 0.4507606 0.5173102 0.4559167 0.5063417 0.4559167 0.5063417 0.4568581 0.5252336 0.4510235 0.5249879 0.4698457 0.5301882 0.469851 0.5008574 0.4890246 0.5008574 0.4890246 0.5063417 0.4890246 0.4933948 0.4511122 0.4933917 0.4699344 0.4933917 0.4699344 0.4933854 0.4509922 0.4933854 0.4509922 0.4933887 0.4698144 0.5063417 0.4890246 0.5008574 0.4890246 0.5008574 0.4890246 0.5091358 0.4510071 0.5088902 0.4698293 0.5249879 0.4698457 0.5063417 0.4384465 0.5008574 0.4384465 0.5008574 0.4457884 0.5299698 0.4698979 0.52477 0.4699032 0.5245241 0.4510809 0.4945477 0.4509922 0.4945477 0.4509922 0.4943022 0.4698144 0.4938383 0.4511122 0.4940837 0.4699344 0.4940837 0.4699344 0.5008574 0.4384465 0.4953731 0.4384465 0.4953731 0.4457883 0.5008574 0.4890246 0.4953731 0.4890246 0.4953731 0.4890246 0.5008574 0.4890246 0.4953731 0.4890246 0.4953731 0.4890246 0.4953731 0.4336895 0.4953731 0.4507606 0.5008574 0.4507606 0.5008574 0.4394392 0.4953731 0.4394392 0.4953731 0.4560132 0.5008574 0.4457884 0.4953731 0.4457883 0.4953731 0.4685162 0.5008574 0.4560132 0.4953731 0.4560132 0.4953731 0.4725875 0.5008574 0.4725875 0.4953731 0.4725875 0.4953731 0.4890246 0.5063417 0.4440068 0.5173102 0.4449482 0.5173102 0.4440068 0.504733 0.4511073 0.4933917 0.4699344 0.4933948 0.4511122 0.5063417 0.4725875 0.5008574 0.4890246 0.5063417 0.4890246 0.5063417 0.4560132 0.5008574 0.4725875 0.5063417 0.4725875 0.5162144 0.4511023 0.5047494 0.4699295 0.504733 0.4511073 0.4933887 0.4698144 0.5047804 0.4509971 0.4933854 0.4509922 0.52477 0.4699032 0.5084268 0.4510973 0.5245241 0.4510809 0.5063417 0.4457885 0.5008574 0.4685163 0.5063417 0.4685162 0.5162187 0.4698243 0.5276181 0.4510071 0.5162211 0.4510021 0.5047641 0.4698194 0.5162211 0.4510021 0.5047804 0.4509971 0.5277416 0.4510973 0.5162166 0.4699245 0.5162144 0.4511023 0.5063417 0.4394392 0.5008574 0.4560132 0.5063417 0.4560132 0.5063417 0.4336895 0.5008574 0.4507606 0.5063417 0.4507606 0.5173102 0.4559167 0.5063417 0.4568581 0.5173102 0.4568581 0.5252336 0.4510235 0.5301882 0.469851 0.5304341 0.4510288 0.5008574 0.4890246 0.5063417 0.4890246 0.5063417 0.4890246 0.4933948 0.4511122 0.4933917 0.4699344 0.4933948 0.4511122 0.4933854 0.4509922 0.4933887 0.4698144 0.4933887 0.4698144 0.5063417 0.4890246 0.5008574 0.4890246 0.5063417 0.4890246 0.5091358 0.4510071 0.5249879 0.4698457 0.5252336 0.4510235 0.5063417 0.4384465 0.5008574 0.4457884 0.5063417 0.4457885 0.5299698 0.4698979 0.5245241 0.4510809 0.5297244 0.4510756 0.4945477 0.4509922 0.4943022 0.4698144 0.4943022 0.4698144 0.4938383 0.4511122 0.4940837 0.4699344 0.4938383 0.4511122 0.5008574 0.4384465 0.4953731 0.4457883 0.5008574 0.4457884 0.5008574 0.4890246 0.4953731 0.4890246 0.5008574 0.4890246 0.5008574 0.4890246 0.4953731 0.4890246 0.5008574 0.4890246 0.4953731 0.4336895 0.5008574 0.4507606 0.5008574 0.4336895 0.5008574 0.4394392 0.4953731 0.4560132 0.5008574 0.4560132 0.5008574 0.4457884 0.4953731 0.4685162 0.5008574 0.4685163 0.5008574 0.4560132 0.4953731 0.4725875 0.5008574 0.4725875 0.5008574 0.4725875 0.4953731 0.4890246 0.5008574 0.4890246</float_array>
          <technique_common>
            <accessor source="#Cubo_144-mesh-map-0-array" count="192" stride="2">
              <param name="S" type="float"/>
              <param name="T" type="float"/>
            </accessor>
          </technique_common>
        </source>
        <vertices id="Cubo_144-mesh-vertices">
          <input semantic="POSITION" source="#Cubo_144-mesh-positions"/>
        </vertices>
        <triangles material="A-textura_auxiliar_libi_cyrene_General-material" count="64">
          <input semantic="VERTEX" source="#Cubo_144-mesh-vertices" offset="0"/>
          <input semantic="NORMAL" source="#Cubo_144-mesh-normals" offset="1"/>
          <input semantic="TEXCOORD" source="#Cubo_144-mesh-map-0" offset="2" set="0"/>
          <p>22 0 0 2 1 1 3 2 2 11 3 3 10 4 4 4 5 5 10 4 6 38 6 7 37 7 8 19 8 9 40 9 10 38 6 11 17 10 12 19 8 13 10 4 14 0 11 15 8 12 16 9 13 17 31 14 18 13 15 19 15 16 20 31 14 21 43 17 22 39 18 23 16 19 24 14 20 25 12 21 26 8 12 27 16 19 28 18 22 29 15 16 30 13 15 31 19 8 32 13 15 33 39 23 34 40 9 35 6 24 36 36 25 37 41 26 38 7 27 39 6 24 40 21 28 41 30 29 42 28 30 43 22 0 44 42 31 45 44 32 46 35 33 47 5 34 48 4 5 49 27 35 50 1 36 51 25 37 52 24 38 53 4 39 54 37 7 55 42 31 56 12 21 57 14 20 58 28 30 59 21 28 60 41 26 61 43 17 62 21 28 63 31 14 64 29 40 65 25 37 66 33 41 67 32 42 68 26 43 69 27 35 70 35 44 71 41 26 72 22 0 73 28 30 74 37 7 75 0 11 76 24 45 77 42 31 78 24 45 79 32 32 80 2 1 81 22 0 82 41 26 83 39 23 84 14 20 85 16 19 86 43 17 87 28 30 88 14 20 89 40 9 90 16 19 91 8 12 92 38 6 93 8 12 94 0 11 95 22 0 96 3 2 97 20 46 98 11 3 99 4 5 100 5 34 101 10 4 102 37 7 103 4 5 104 19 8 105 38 6 106 10 4 107 17 10 108 10 4 109 11 3 110 0 11 111 9 13 112 1 36 113 31 14 114 15 16 115 29 40 116 31 14 117 39 18 118 13 15 119 16 19 120 12 21 121 18 22 122 8 12 123 18 22 124 9 13 125 15 16 126 19 8 127 17 10 128 13 15 129 40 9 130 19 8 131 6 24 132 41 26 133 21 28 134 7 27 135 21 28 136 23 47 137 30 29 138 22 0 139 20 46 140 42 31 141 35 33 142 27 48 143 5 34 144 27 35 145 26 43 146 1 36 147 24 38 148 0 11 149 4 39 150 42 31 151 27 48 152 12 21 153 28 30 154 30 29 155 21 28 156 43 17 157 31 14 158 21 28 159 29 40 160 23 47 161 25 37 162 32 42 163 24 38 164 26 49 165 35 50 166 34 50 167 41 26 168 28 30 169 43 17 170 37 7 171 24 45 172 42 31 173 42 31 174 32 33 175 44 32 176 2 1 177 41 26 178 36 25 179 39 23 180 16 19 181 40 9 182 43 17 183 14 20 184 39 18 185 40 9 186 8 12 187 38 6 188 38 6 189 0 11 190 37 7 191</p>
        </triangles>
      </mesh>
    </geometry>
  </library_geometries>
  <library_visual_scenes>
    <visual_scene id="Scene" name="Scene">
      <node id="liby_hair_elite" name="liby_hair_elite" type="NODE">
        <matrix sid="transform">1 0 0 0 0 1 0 0 0 0 1 0 0 0 0 1</matrix>
        <instance_geometry url="#Cubo_144-mesh" name="liby_hair_elite">
          <bind_material>
            <technique_common>
              <instance_material symbol="A-textura_auxiliar_libi_cyrene_General-material" target="#A-textura_auxiliar_libi_cyrene_General-material">
                <bind_vertex_input semantic="Cubo_144-mesh-map-0" input_semantic="TEXCOORD" input_set="0"/>
              </instance_material>
            </technique_common>
          </bind_material>
        </instance_geometry>
      </node>
    </visual_scene>
  </library_visual_scenes>
  <scene>
    <instance_visual_scene url="#Scene"/>
  </scene>
</COLLADA>