<?xml version="1.0" encoding="utf-8"?>
<COLLADA xmlns="http://www.collada.org/2005/11/COLLADASchema" version="1.4.1" xmlns:xsi="http://www.w3.org/2001/XMLSchema-instance">
  <asset>
    <contributor>
      <author>Blender User</author>
      <authoring_tool>Blender 4.3.1 commit date:2024-12-10, commit time:07:46, hash:33d812126174</authoring_tool>
    </contributor>
    <created>2026-08-08T11:12:08</created>
    <modified>2026-08-08T11:12:08</modified>
    <unit name="meter" meter="1"/>
    <up_axis>Z_UP</up_axis>
  </asset>
  <library_effects>
    <effect id="A-textura_Gétulos_General-effect">
      <profile_COMMON>
        <newparam sid="A-catálogo_unis_Gaetul-_FINAIS_png-surface">
          <surface type="2D">
            <init_from>A-catálogo_unis_Gaetul-_FINAIS_png</init_from>
          </surface>
        </newparam>
        <newparam sid="A-catálogo_unis_Gaetul-_FINAIS_png-sampler">
          <sampler2D>
            <source>A-catálogo_unis_Gaetul-_FINAIS_png-surface</source>
          </sampler2D>
        </newparam>
        <technique sid="common">
          <lambert>
            <emission>
              <color sid="emission">0 0 0 1</color>
            </emission>
            <diffuse>
              <texture texture="A-catálogo_unis_Gaetul-_FINAIS_png-sampler" texcoord="MapaUV"/>
            </diffuse>
            <index_of_refraction>
              <float sid="ior">1.45</float>
            </index_of_refraction>
          </lambert>
        </technique>
      </profile_COMMON>
    </effect>
  </library_effects>
  <library_images/>
  <library_materials>
    <material id="A-textura_Gétulos_General-material" name="A-textura Gétulos General">
      <instance_effect url="#A-textura_Gétulos_General-effect"/>
    </material>
  </library_materials>
  <library_geometries>
    <geometry id="Cubo_022-mesh" name="Cubo.022">
      <mesh>
        <source id="Cubo_022-mesh-positions">
          <float_array id="Cubo_022-mesh-positions-array" count="114">-1.327404 -1.201115 -0.03565168 -1.092053 -1.213996 0.7173814 -1.327404 0.6680657 -0.04488837 -1.092053 0.614237 0.7173814 1.327403 -1.201115 -0.03565168 1.092053 -1.213996 0.7173814 1.327403 0.6680657 -0.04488837 1.092053 0.614237 0.7173814 -6.07875e-7 1.362166 -0.04488837 0 0.8303453 0.9110816 0 -1.213996 0.9084126 -0.6637023 1.211227 -0.04374325 -0.5996296 -1.161935 1.106605 -0.5996296 0.6808794 1.106605 -1.119582 -1.198077 -0.03352904 0.5996296 0.6808794 1.106605 1.119576 -1.198077 -0.03352904 0.6637011 1.211227 -0.04374325 0.5996296 -1.161935 1.106605 -1.697135 0.002216637 -0.04865807 -1.299206 0 0.8642948 1.697132 0.002216637 -0.04865807 1.299205 0 0.8642948 -4.10415e-7 0 0.9753547 -0.7666488 0 1.253518 0.7666479 0 1.253518 -1.46602 -1.198604 -0.03787863 -1.46602 0.8150087 -0.03787857 1.46602 0.8150087 -0.03787857 1.46602 -1.198604 -0.03787857 -2.04441e-6 -1.18827 0.7835212 -3.24424e-7 1.135553 0.5594981 -0.6191937 1.135553 0.5831678 -0.7929608 -1.17906 0.6661391 0.7929572 -1.17906 0.6661391 0.6191931 1.135553 0.5831678 1.629532 -0.004037559 0.428282 -1.629534 -0.004037559 0.428282</float_array>
          <technique_common>
            <accessor source="#Cubo_022-mesh-positions-array" count="38" stride="3">
              <param name="X" type="float"/>
              <param name="Y" type="float"/>
              <param name="Z" type="float"/>
            </accessor>
          </technique_common>
        </source>
        <source id="Cubo_022-mesh-normals">
          <float_array id="Cubo_022-mesh-normals-array" count="243">-0.7495968 0.407902 0.5212684 -0.6389657 0.4970539 0.5870777 -0.6953802 0.5300909 0.4852321 0.5627776 0.643911 0.5183243 0.638966 0.4970536 0.5870776 0.6953805 0.5300904 0.4852321 0.8129019 -0.2336342 0.5334844 0.7349336 -0.2308864 0.6376238 0.8619843 -0.2822996 0.4210584 0.0704357 -0.9974809 -0.008409798 0.106907 -0.9928601 -0.05291247 0.02953094 -0.9994142 0.01729565 -0.5843364 -0.1916249 0.7885626 -0.7349334 -0.2308871 0.6376238 -0.5973702 -0.1845455 0.7804434 -0.3248732 0.0168417 0.9456077 -0.3204823 -0.05859339 0.9454407 -0.3410038 0.02029454 0.9398429 -5.76089e-4 -0.9999122 0.0132392 -8.3254e-7 -0.9939197 -0.1101076 -0.07043457 -0.9974811 -0.008408844 0.01547318 0.9153581 0.4023435 0 0.7552943 0.6553858 0 0.8895526 0.4568328 -0.5627779 0.6439106 0.5183245 0.3248732 0.01684165 0.9456076 0.3204823 -0.05859315 0.9454407 0.3092945 -0.05235844 0.9495238 5.75792e-4 -0.9999122 0.01323926 -0.1069058 -0.9928604 -0.05291152 -0.02953082 -0.9994143 0.01729297 0.5843364 -0.1916245 0.7885627 0.6880571 -0.2017614 0.6970437 -0.01547312 0.915358 0.4023435 0.5817176 0.3377073 0.7399719 0.6543025 0.3774055 0.6553269 0.3151603 0.09553945 0.9442172 0.2924881 0.07379937 0.9534173 -0.3151604 0.09553986 0.9442173 -0.5817174 0.337708 0.7399718 -0.5883986 0.4586965 0.6658714 0.7495976 0.4079008 0.5212681 -0.8129013 -0.233635 0.5334849 -0.861984 -0.2823007 0.4210583 -0.1944423 -0.04621869 -0.9798245 -0.9986019 0.0451743 0.02745515 0.0159561 -0.005904376 -0.9998553 0.4793506 0.1477737 -0.8650932 0.9986019 0.04517382 0.02745276 0.02803713 0.02122622 -0.9993816 0.1054762 0.9657196 0.2371928 0 0.9363452 0.3510808 -0.001104116 -0.9994506 0.03312617 0.01262629 0.1759702 0.9843146 -0.2183234 0.4291186 -0.8764659 -0.442818 0.8965918 -0.005951941 -0.0210452 0.02782255 -0.9993913 -0.1054762 0.9657196 0.2371929 0.001104116 -0.9994505 0.03313052 -0.01262676 0.1759709 0.9843145 0.1944429 -0.04621857 -0.9798244 -0.01595574 -0.005904555 -0.9998553 0.4428176 0.896592 -0.005952894 0.2183235 0.4291194 -0.8764654 0.02104508 0.02782249 -0.9993914 -0.4793506 0.1477751 -0.8650928 -0.02803719 0.02122634 -0.9993816 -0.6543021 0.3774062 0.6553269 0.5883986 0.4586963 0.6658715 -0.6880566 -0.2017618 0.697044 -0.3092946 -0.05235868 0.9495239 2.02863e-6 -0.9794365 -0.2017526 0.02534717 0.7551811 0.6550261 0.3410037 0.02029442 0.9398429 0.5973703 -0.184545 0.7804435 -0.02534711 0.7551809 0.6550262 -0.292488 0.07379966 0.9534173 -0.9896938 0.02699261 0.140633 0.9896941 0.02699226 0.1406311 -0.4377219 0.8884078 0.1383159 0.4377214 0.888408 0.1383155</float_array>
          <technique_common>
            <accessor source="#Cubo_022-mesh-normals-array" count="81" stride="3">
              <param name="X" type="float"/>
              <param name="Y" type="float"/>
              <param name="Z" type="float"/>
            </accessor>
          </technique_common>
        </source>
        <source id="Cubo_022-mesh-map-0">
          <float_array id="Cubo_022-mesh-map-0-array" count="360">0.1832938 0.812819 0.2018188 0.7990561 0.2018181 0.812821 0.1925523 0.8128242 0.2018226 0.7990571 0.2018219 0.8128252 0.1832716 0.8128271 0.2018264 0.7990581 0.2018257 0.8128293 0.1925521 0.8128324 0.2018228 0.7990592 0.2018222 0.8128333 0.1835145 0.8058944 0.201824 0.7988844 0.2018233 0.8058905 0.183519 0.8128997 0.2018221 0.8199027 0.1835235 0.8199051 0.1740088 0.7990584 0.183282 0.8128313 0.1740119 0.8128303 0.1740131 0.8128222 0.1832808 0.7990567 0.1832827 0.8128232 0.1647391 0.7990561 0.1740131 0.8128222 0.1647435 0.812821 0.183519 0.8128997 0.2018233 0.8058905 0.2018227 0.8128966 0.183282 0.8128313 0.1925514 0.7990589 0.1925521 0.8128324 0.1647374 0.7990581 0.1740119 0.8128303 0.1647418 0.8128293 0.1835235 0.8199051 0.2018215 0.8269087 0.1835279 0.8269103 0.1832808 0.7990567 0.1925523 0.8128242 0.1832827 0.8128232 0.1652343 0.826912 0.1835235 0.8199051 0.1835279 0.8269103 0.1652057 0.8058984 0.183519 0.8128997 0.1652153 0.8129029 0.1652248 0.8199074 0.183519 0.8128997 0.1835235 0.8199051 0.1651961 0.7988938 0.1835145 0.8058944 0.1652057 0.8058984 0.164713 0.7990571 0.1832716 0.8128271 0.1647174 0.8128251 0.1647652 0.7990551 0.1832938 0.812819 0.1647695 0.812817 0.1647695 0.812817 0.1832957 0.8265824 0.1647739 0.8265788 0.1647174 0.8128251 0.1832734 0.8265967 0.1647218 0.8265932 0.1832827 0.8128232 0.1925529 0.8265914 0.1832845 0.8265896 0.1647418 0.8128293 0.174015 0.8266022 0.1647461 0.8266004 0.1647435 0.812821 0.1740162 0.8265878 0.1647478 0.826586 0.1740162 0.8265878 0.1832827 0.8128232 0.1832845 0.8265896 0.1925527 0.8266057 0.2018222 0.8128333 0.2018216 0.8266075 0.1832734 0.8265967 0.2018257 0.8128293 0.2018251 0.8266004 0.1925529 0.8265914 0.2018219 0.8128252 0.2018213 0.8265932 0.1832957 0.8265824 0.2018181 0.812821 0.2018175 0.826586 0.1832938 0.812819 0.183292 0.7990556 0.2018188 0.7990561 0.1925523 0.8128242 0.1925517 0.7990569 0.2018226 0.7990571 0.1832716 0.8128271 0.1832697 0.7990576 0.2018264 0.7990581 0.1925521 0.8128324 0.1925514 0.7990589 0.2018228 0.7990592 0.1835145 0.8058944 0.18351 0.7988891 0.201824 0.7988844 0.183519 0.8128997 0.2018227 0.8128966 0.2018221 0.8199027 0.1740088 0.7990584 0.1832801 0.7990587 0.183282 0.8128313 0.1740131 0.8128222 0.17401 0.7990564 0.1832808 0.7990567 0.1647391 0.7990561 0.17401 0.7990564 0.1740131 0.8128222 0.183519 0.8128997 0.1835145 0.8058944 0.2018233 0.8058905 0.183282 0.8128313 0.1832801 0.7990587 0.1925514 0.7990589 0.1647374 0.7990581 0.1740088 0.7990584 0.1740119 0.8128303 0.1835235 0.8199051 0.2018221 0.8199027 0.2018215 0.8269087 0.1832808 0.7990567 0.1925517 0.7990569 0.1925523 0.8128242 0.1652343 0.826912 0.1652248 0.8199074 0.1835235 0.8199051 0.1652057 0.8058984 0.1835145 0.8058944 0.183519 0.8128997 0.1652248 0.8199074 0.1652153 0.8129029 0.183519 0.8128997 0.1651961 0.7988938 0.18351 0.7988891 0.1835145 0.8058944 0.164713 0.7990571 0.1832697 0.7990576 0.1832716 0.8128271 0.1647652 0.7990551 0.183292 0.7990556 0.1832938 0.812819 0.1647695 0.812817 0.1832938 0.812819 0.1832957 0.8265824 0.1647174 0.8128251 0.1832716 0.8128271 0.1832734 0.8265967 0.1832827 0.8128232 0.1925523 0.8128242 0.1925529 0.8265914 0.1647418 0.8128293 0.1740119 0.8128303 0.174015 0.8266022 0.1647435 0.812821 0.1740131 0.8128222 0.1740162 0.8265878 0.1740162 0.8265878 0.1740131 0.8128222 0.1832827 0.8128232 0.1925527 0.8266057 0.1925521 0.8128324 0.2018222 0.8128333 0.1832734 0.8265967 0.1832716 0.8128271 0.2018257 0.8128293 0.1925529 0.8265914 0.1925523 0.8128242 0.2018219 0.8128252 0.1832957 0.8265824 0.1832938 0.812819 0.2018181 0.812821</float_array>
          <technique_common>
            <accessor source="#Cubo_022-mesh-map-0-array" count="180" stride="2">
              <param name="S" type="float"/>
              <param name="T" type="float"/>
            </accessor>
          </technique_common>
        </source>
        <vertices id="Cubo_022-mesh-vertices">
          <input semantic="POSITION" source="#Cubo_022-mesh-positions"/>
        </vertices>
        <triangles material="A-textura_Gétulos_General-material" count="60">
          <input semantic="VERTEX" source="#Cubo_022-mesh-vertices" offset="0"/>
          <input semantic="NORMAL" source="#Cubo_022-mesh-normals" offset="1"/>
          <input semantic="TEXCOORD" source="#Cubo_022-mesh-map-0" offset="2" set="0"/>
          <p>37 0 0 3 1 1 27 2 2 35 3 3 7 4 4 28 5 5 36 6 6 5 7 7 29 8 8 33 9 9 1 10 10 26 11 11 24 12 12 1 13 13 12 14 14 23 15 15 18 16 16 25 17 17 18 18 18 30 19 19 34 20 20 32 21 21 9 22 22 31 23 23 3 1 24 32 24 25 27 2 26 23 25 27 12 26 28 10 27 29 30 19 30 12 28 31 33 9 32 5 29 33 34 20 34 29 30 35 25 31 36 5 7 37 22 32 38 9 22 39 35 33 40 31 23 41 7 4 42 25 34 43 22 35 44 13 36 45 23 25 46 9 37 47 15 38 48 23 15 49 25 17 50 3 1 51 24 39 52 13 40 53 7 4 54 36 41 55 28 5 56 1 13 57 37 42 58 26 43 59 26 44 60 19 45 61 0 46 62 28 47 63 21 48 64 6 49 65 31 23 66 17 50 67 8 51 68 29 30 69 16 52 70 4 53 71 27 54 72 11 55 73 2 56 74 11 57 75 31 23 76 8 51 77 14 58 78 26 11 79 0 59 80 21 48 81 29 60 82 4 61 83 17 62 84 28 63 85 6 64 86 19 45 87 27 65 88 2 66 89 37 0 90 20 67 91 3 1 92 35 3 93 15 68 94 7 4 95 36 6 96 22 32 97 5 7 98 33 9 99 12 28 100 1 10 101 24 12 102 20 69 103 1 13 104 23 15 105 10 70 106 18 16 107 18 18 108 10 71 109 30 19 110 32 21 111 13 72 112 9 22 113 3 1 114 13 40 115 32 24 116 23 25 117 24 73 118 12 26 119 30 19 120 10 71 121 12 28 122 5 29 123 18 18 124 34 20 125 25 31 126 18 74 127 5 7 128 9 22 129 15 75 130 35 33 131 7 4 132 15 68 133 25 34 134 13 36 135 24 73 136 23 25 137 15 38 138 9 76 139 23 15 140 3 1 141 20 67 142 24 39 143 7 4 144 22 35 145 36 41 146 1 13 147 20 69 148 37 42 149 26 44 150 37 77 151 19 45 152 28 47 153 36 78 154 21 48 155 31 23 156 35 33 157 17 50 158 29 30 159 34 20 160 16 52 161 27 54 162 32 79 163 11 55 164 11 57 165 32 21 166 31 23 167 14 58 168 33 9 169 26 11 170 21 48 171 36 78 172 29 60 173 17 62 174 35 80 175 28 63 176 19 45 177 37 77 178 27 65 179</p>
        </triangles>
      </mesh>
    </geometry>
  </library_geometries>
  <library_visual_scenes>
    <visual_scene id="Scene" name="Scene">
      <node id="a-hair_gaet_02" name="a-hair_gaet_02" type="NODE">
        <matrix sid="transform">0.2205873 0 0 0 0 0.2065553 0 0 0 0 0.3323436 0.1803372 0 0 0 1</matrix>
        <instance_geometry url="#Cubo_022-mesh" name="a-hair_gaet_02">
          <bind_material>
            <technique_common>
              <instance_material symbol="A-textura_Gétulos_General-material" target="#A-textura_Gétulos_General-material">
                <bind_vertex_input semantic="MapaUV" input_semantic="TEXCOORD" input_set="0"/>
              </instance_material>
            </technique_common>
          </bind_material>
        </instance_geometry>
      </node>
    </visual_scene>
  </library_visual_scenes>
  <scene>
    <instance_visual_scene url="#Scene"/>
  </scene>
</COLLADA>