<?xml version="1.0" encoding="utf-8"?>
<COLLADA xmlns="http://www.collada.org/2005/11/COLLADASchema" version="1.4.1" xmlns:xsi="http://www.w3.org/2001/XMLSchema-instance">
  <asset>
    <contributor>
      <author>Blender User</author>
      <authoring_tool>Blender 4.3.1 commit date:2024-12-10, commit time:07:46, hash:33d812126174</authoring_tool>
    </contributor>
    <created>2026-09-26T16:43:53</created>
    <modified>2026-09-26T16:43:53</modified>
    <unit name="meter" meter="1"/>
    <up_axis>Z_UP</up_axis>
  </asset>
  <library_effects>
    <effect id="Materiais-effect">
      <profile_COMMON>
        <newparam sid="moch_ship_png-surface">
          <surface type="2D">
            <init_from>moch_ship_png</init_from>
          </surface>
        </newparam>
        <newparam sid="moch_ship_png-sampler">
          <sampler2D>
            <source>moch_ship_png-surface</source>
          </sampler2D>
        </newparam>
        <technique sid="common">
          <lambert>
            <emission>
              <color sid="emission">0 0 0 1</color>
            </emission>
            <diffuse>
              <texture texture="moch_ship_png-sampler" texcoord="Cubo_371-mesh-map-0"/>
            </diffuse>
            <index_of_refraction>
              <float sid="ior">1.5</float>
            </index_of_refraction>
          </lambert>
        </technique>
      </profile_COMMON>
    </effect>
  </library_effects>
  <library_images>
    <image id="moch_ship_png" name="moch_ship_png">
      <init_from>/home/welton/Downloads/moch_ship.png</init_from>
    </image>
  </library_images>
  <library_materials>
    <material id="Materiais-material" name="Materiais">
      <instance_effect url="#Materiais-effect"/>
    </material>
  </library_materials>
  <library_geometries>
    <geometry id="Cubo_371-mesh" name="Cubo.371">
      <mesh>
        <source id="Cubo_371-mesh-positions">
          <float_array id="Cubo_371-mesh-positions-array" count="312">-0.08579218 -3.786545 2.349538 -0.08579218 -3.622636 2.423625 -0.4073918 3.101618 -0.2001755 -0.4073918 3.101618 0.6800996 0.08696073 -3.786545 2.349538 0.08696073 -3.622636 2.423625 0.4085606 3.101618 -0.2001755 0.4085606 3.101618 0.6800996 5.84381e-4 3.101618 -0.2986986 5.84381e-4 3.101618 0.7786173 5.84381e-4 -3.804896 2.341243 5.84381e-4 -3.60429 2.431916 -0.1339765 -3.70459 2.386582 -0.6349768 3.101618 0.2399593 0.6361455 3.101618 0.2399593 0.1351453 -3.70459 2.386582 5.84381e-4 3.101618 0.2399593 -0.4649273 -1.790503 -0.2622473 -0.4649273 -1.790503 0.7421714 0.4660961 -1.790503 -0.2622473 0.4660961 -1.790503 0.7421714 5.84381e-4 -1.790503 0.8545851 5.84381e-4 -1.790503 -0.3746668 0.7257804 -1.790503 0.2399593 -0.7246116 -1.790503 0.2399593 -0.417752 -2.326922 -0.06823289 0.4189208 -2.165295 0.8185129 5.84381e-4 -2.147205 0.9177615 5.84381e-4 -2.345013 -0.1674761 0.6522948 -2.246109 0.3751376 -0.417752 -2.165295 0.8185129 0.4189208 -2.326922 -0.06823289 -0.6511259 -2.246109 0.3751376 -0.3939985 -2.610496 0.127034 0.3951672 -2.421388 0.9525917 5.84381e-4 -2.400221 1.044986 5.84381e-4 -2.631663 0.03464066 0.6152926 -2.515942 0.5398157 -0.3939985 -2.421388 0.9525917 0.3951672 -2.610496 0.127034 -0.6141238 -2.515942 0.5398157 -0.3019334 -2.938904 0.5783417 0.3031021 -2.626128 1.104958 5.84381e-4 -2.591122 1.163897 5.84381e-4 -2.973909 0.5194029 0.471861 -2.782513 0.8416493 -0.3019334 -2.626128 1.104958 0.3031021 -2.938904 0.5783417 -0.4706922 -2.782513 0.8416493 -0.2551681 -3.155219 0.938777 0.2563369 -2.757648 1.245144 5.84381e-4 -2.713148 1.279434 5.84381e-4 -3.199714 0.9044879 0.3990146 -2.95643 1.091961 -0.2551681 -2.757648 1.245144 0.2563369 -3.155219 0.938777 -0.3978459 -2.95643 1.091961 -0.2049776 -3.325164 1.266544 0.2061464 -2.973277 1.463416 5.84381e-4 -2.933897 1.485449 5.84381e-4 -3.364549 1.244511 0.3208193 -3.149218 1.36498 -0.2049776 -2.973277 1.463416 0.2061464 -3.325164 1.266544 -0.3196505 -3.149218 1.36498 -0.6415377 0.6040802 0.9327002 0.6427065 0.6040802 -0.4527817 -0.9997396 0.6040802 0.2399593 -0.6415377 0.6040802 -0.4527817 0.6427065 0.6040802 0.9327002 5.84381e-4 0.6040802 1.08777 5.84381e-4 0.6040802 -0.6078463 1.000908 0.6040802 0.2399593 -0.5848225 1.938644 0.8715224 0.5859912 1.938644 -0.3915994 -0.9113952 1.938644 0.2399593 -0.5848225 1.938644 -0.3915994 0.5859912 1.938644 0.8715224 5.84381e-4 1.938644 1.01289 5.84381e-4 1.938644 -0.5329719 0.912564 1.938644 0.2399593 0.5859912 1.940368 0.3949372 0.6427065 0.6057997 0.4069632 5.84381e-4 1.940368 0.3940786 5.84381e-4 0.6057997 0.4081795 -0.6415377 0.6057997 0.4069632 -0.5848225 1.940368 0.3949372 -0.05173051 -3.96571 2.929579 -0.03299719 -3.933848 2.943982 0.0528993 -3.96571 2.929579 0.03416585 -3.997575 2.915177 5.84381e-4 -4.004707 2.911951 5.84381e-4 -3.926714 2.947207 -0.03299719 -3.997575 2.915177 0.03416585 -3.933848 2.943982 5.84381e-4 -3.96571 2.929579 -0.2004428 -4.302748 3.088942 -0.2004428 -4.180276 3.174876 0.2670046 -4.251747 3.161057 0.08531743 -4.251747 3.161057 -0.2724571 -3.983378 3.212942 -0.0907706 -3.983378 3.212942 0.1499376 -3.914101 3.288594 0.1499376 -4.036573 3.202659</float_array>
          <technique_common>
            <accessor source="#Cubo_371-mesh-positions-array" count="104" stride="3">
              <param name="X" type="float"/>
              <param name="Y" type="float"/>
              <param name="Z" type="float"/>
            </accessor>
          </technique_common>
        </source>
        <source id="Cubo_371-mesh-normals">
          <float_array id="Cubo_371-mesh-normals-array" count="732">-0.8807718 0.1296966 0.4554339 -0.8691179 0.2065726 0.4494017 -0.8691192 0.2065743 0.4493984 0 1 0 0 1 4.56818e-7 0 1 0 0.850655 0.3210216 0.4163306 0.8709456 0.3638846 0.3302146 0.8551065 0.3202245 0.4077366 0.226592 -0.9118781 -0.3422491 0.3901394 -0.6960764 -0.6027179 0.2257862 -0.9123051 -0.3416431 0.2138804 -0.8930684 -0.3958334 0.2127677 -0.8937024 -0.3950012 0 0.7508923 0.6604247 -0.2235202 0.8105429 0.5413492 -0.2240978 0.810688 0.540893 0.2235208 0.810543 0.5413489 0.2114586 0.7327152 0.6468492 -0.2138804 -0.8930687 -0.3958327 -0.2257856 -0.912305 -0.3416436 -0.2265328 -0.9118689 -0.3423128 -0.8712869 0.3629525 0.3303402 -0.8203071 0.5687505 0.06016182 -0.8739378 0.372924 0.3117057 0 1 -4.56818e-7 0 1 0 0 1 4.56824e-7 0.8712858 0.3629541 0.3303413 0.7695606 0.6365131 0.05126172 -0.2268414 -0.911719 -0.3425079 -0.54347 -0.715882 -0.438353 -0.2261779 -0.9193654 -0.3218867 0.8602288 -0.4976858 -0.1109748 0.8738937 -0.4759104 -0.09909117 0.8581212 -0.499782 -0.1176692 0 1 -4.56824e-7 -0.8808676 0.1274214 -0.4558905 -0.8691141 0.2065699 -0.4494104 -0.8806518 0.1307144 -0.4553747 -0.8639366 -0.2876902 -0.4133377 -0.8779134 -0.1787745 -0.4441935 -0.8764351 -0.1627228 -0.4531919 0.8880817 -0.02090197 -0.4592105 0.8764351 -0.1627228 -0.4531919 0.8880792 -0.02108144 -0.4592072 -0.2346957 -0.01971501 -0.971869 -0.2311527 -0.2190322 -0.9479416 -0.2346958 -0.01940298 -0.9718752 0.2337034 -0.09423559 0.9677306 0.2356277 0.02191704 0.9715963 -0.233702 -0.09423589 0.9677309 -0.234654 0.02675265 0.9717108 -0.2354152 0.03793859 0.9711542 0.2346957 -0.01971501 -0.971869 0.2311527 -0.2190322 -0.9479417 0.229241 -0.2153351 -0.949252 0.887912 -0.03410863 0.4587473 0.8856847 -0.0541045 0.461124 0.8866454 -0.06056004 0.4584675 -0.8890237 0.05368882 0.4547026 -0.8856849 -0.05410462 0.461124 -0.8866455 -0.06056016 0.4584674 -0.8870729 0.1155443 0.4469354 -0.8880943 0.07515466 0.4534758 -0.8308176 -0.4345574 -0.3477098 -0.8652336 -0.307722 -0.3958258 0.8779134 -0.1787745 -0.4441936 0.8639366 -0.2876902 -0.4133378 0 -0.4642857 -0.8856855 -0.2246528 -0.4597051 -0.859187 0.2354152 0.03793859 0.9711542 0.2317468 0.2925714 0.9277368 0.2345016 0.02948498 0.9716685 -0.2317468 0.2925714 0.9277367 -0.2327286 0.3088654 0.9221928 0.8890237 0.05368894 0.4547026 -0.7951656 -0.568396 -0.2112763 -0.8172729 -0.4965773 -0.2923631 -0.8777337 0.106931 0.4670647 -0.8758001 0.07585173 0.4766769 0.8652335 -0.3077222 -0.3958259 0.8308175 -0.4345573 -0.34771 0 -0.6982649 -0.7158395 -0.2030338 -0.6965732 -0.6881592 0.2327286 0.3088654 0.9221929 0.224505 0.4686042 0.8544049 -0.224505 0.4686042 0.8544048 -0.2242717 0.4787878 0.8488017 0.2246528 -0.4597052 -0.859187 0.8880944 0.07515472 0.4534757 0.8870728 0.1155443 0.4469355 -0.8603088 0.2523585 0.4429267 -0.8590121 0.1448367 0.4910405 -0.8426212 -0.5173176 -0.1495727 -0.8133607 -0.5581823 -0.1639425 0.8172727 -0.4965773 -0.2923633 0.7951656 -0.568396 -0.2112764 0 -0.8424918 -0.5387092 -0.2008864 -0.8293329 -0.5213941 0.2242717 0.4787878 0.8488018 0.2200653 0.582179 0.7827126 -0.2200652 0.5821785 0.782713 -0.2182084 0.5987004 0.770677 0.2030339 -0.6965733 -0.6881591 0.8758 0.07585167 0.4766771 0.8777335 0.1069309 0.4670649 -0.8581214 -0.4997819 -0.1176691 -0.8502247 -0.5127897 -0.1190163 -0.8551066 0.3202243 0.4077365 -0.8451437 0.2515668 0.4716424 0.8133606 -0.5581823 -0.1639423 0.8426213 -0.5173177 -0.1495726 0 -0.8835075 -0.4684171 -0.2121359 -0.8644217 -0.4558219 0.2182083 0.5987002 0.7706772 0.213356 0.6725097 0.7086678 -0.2133562 0.67251 0.7086674 -1.50487e-7 0.6860964 0.7275108 0.2008863 -0.8293328 -0.5213943 0.8590121 0.1448368 0.4910404 0.8603089 0.2523586 0.4429265 -0.8709467 0.363883 0.3302136 -0.8506553 0.3210212 0.4163306 -0.874396 -0.4756112 -0.09605163 -0.860339 -0.4975153 -0.1108848 0.8502246 -0.5127897 -0.1190165 -0.2127677 -0.8937025 -0.3950009 -0.2114586 0.7327153 0.646849 0.2121358 -0.8644214 -0.4558223 0.8451436 0.251567 0.4716421 0.8806529 0.1307139 0.4553727 0.8883337 -0.008137822 0.4591266 0.8807718 0.1296966 0.4554339 0.2330346 0.1205087 -0.9649729 0.2333279 0.1203954 -0.9649161 -0.9990981 -0.04246133 -1.50141e-4 -0.999098 -0.04246413 -1.42077e-4 -0.999098 -0.04246526 -1.38876e-4 1.74242e-4 -0.9999963 -0.002762496 0 -0.9999929 -0.003770768 5.30591e-6 -0.9999935 -0.003617286 -0.2330344 0.1205086 -0.9649729 0.8806518 0.1307143 -0.4553747 -0.8880816 -0.02090203 -0.4592105 -0.8880792 -0.0210815 -0.4592072 -0.8880819 -0.02090215 0.4592099 0.8691161 0.2065724 -0.4494053 0.8807704 0.1296966 -0.4554365 -0.2303697 0.1921647 -0.9539406 -0.2329843 0.1222843 -0.9647617 0.2303594 0.1921645 0.953943 0.2303628 0.1921632 0.9539425 0.2303643 0.1921626 0.9539422 -0.2303594 0.1921645 0.9539431 -0.2303627 0.1921632 0.9539426 -0.2303575 0.1921653 0.9539434 0.2303691 0.192165 -0.9539407 0.2312971 0.1257005 -0.9647285 0.8691179 0.2065726 0.4494016 0.8691192 0.2065744 0.4493984 -0.880653 0.1307139 0.4553728 -7.46546e-4 0.01177853 0.9999305 1.38888e-7 0.007368385 0.9999729 -2.15011e-7 0.008888483 0.9999605 7.46605e-4 0.01177847 0.9999304 0.001894116 0.009091198 0.999957 6.98828e-4 0.9999945 0.003254055 0 0.9999977 0.002182364 0 0.9999946 0.003297328 -1.74248e-4 -0.9999962 -0.002762496 0 -0.9999982 -0.001923263 0.9990981 -0.04246121 -1.50141e-4 0.999098 -0.04246407 -1.42077e-4 0.9990983 -0.04245996 -1.53602e-4 -6.98823e-4 0.9999945 0.003254055 -6.19545e-6 0.9999948 0.003270566 0.03732043 -0.7746821 0.6312487 -1.17033e-6 -0.4119219 0.9112192 0.2090877 -0.1707872 0.9628676 0 -0.4119181 0.9112209 0.03730016 -0.7746809 0.6312514 -0.2776846 -0.1479285 0.9492147 -2.34062e-5 -0.4118714 0.9112421 0.03730291 -0.7746814 0.6312505 0.3071436 -0.1656405 0.9371371 0.03730642 -0.7746843 0.6312469 2.45765e-5 -0.4118718 0.9112418 -0.1591977 -0.05861949 0.9855049 0.2240984 0.810688 0.5408927 0.225089 0.8259724 0.5168216 -0.2250885 0.8259725 0.5168216 -0.3701255 0.9075762 0.1982745 -0.8769377 -0.4710504 -0.09535098 -0.8762764 -0.4724563 -0.09447121 -0.6987718 -0.6503925 -0.2978382 0.8769814 -0.4709774 -0.09531068 0.8762753 -0.472458 -0.09447228 0.8753696 -0.473659 -0.09682697 -0.04061502 -0.7554109 0.6539915 -0.8477334 0.2982255 -0.4386453 -0.8497596 0.3027954 -0.4315363 0.8071025 -0.558703 0.1908838 0 -0.629073 -0.7773463 0.074431 -0.7496125 0.6576786 -0.6315314 -0.6529123 0.4181792 0 -0.9980617 -0.06223237 0 -0.9980617 -0.06223303 0.457936 0.4561195 0.763053 0.8772451 0.2705616 -0.396532 0.101726 -0.762905 0.6384574 0.2261785 -0.9193654 -0.3218861 0.873937 0.3729259 0.311706 -0.5448374 -0.7164995 -0.4356384 0.8621605 -0.494684 -0.1093944 -0.880337 0.1427227 -0.4523682 -0.8691171 0.2065738 -0.4494027 -0.229241 -0.2153351 -0.949252 0.2336924 -0.09423822 0.967733 -0.2337034 -0.09423559 0.9677306 0.2346957 -0.01940298 -0.9718752 0.8878511 -0.03406018 0.4588687 0.8882986 -0.008089125 0.4591953 -0.9990983 -0.04246014 -1.53602e-4 -0.888079 -0.02108174 0.4592072 0.8691171 0.2065738 -0.4494027 -0.2303691 0.192165 -0.9539407 0.2303575 0.1921653 0.9539434 -0.2303641 0.1921625 0.9539424 0.2303713 0.1921642 -0.9539403 -0.001894116 0.009091198 0.999957 6.19545e-6 0.9999948 0.003270566 -5.3059e-6 -0.9999935 -0.003617286 0.999098 -0.04246526 -1.38876e-4 -0.285165 -0.5757588 0.7662786 0.1388136 -0.681572 0.718464 -0.3569437 -0.494178 0.7927038 0.311118 -0.4546008 0.8345919 0.5205746 0.7936651 0.3147985 0.6735358 -0.6347674 -0.3787084 -0.5223749 -0.849517 0.0737943 0 -0.629073 -0.7773464 0.008125364 -0.7629515 0.6464047 0.8767102 0.2762873 -0.3937569</float_array>
          <technique_common>
            <accessor source="#Cubo_371-mesh-normals-array" count="244" stride="3">
              <param name="X" type="float"/>
              <param name="Y" type="float"/>
              <param name="Z" type="float"/>
            </accessor>
          </technique_common>
        </source>
        <source id="Cubo_371-mesh-map-0">
          <float_array id="Cubo_371-mesh-map-0-array" count="1176">0.3246782 0.8616482 0.351602 0.882295 0.351602 0.8616482 0.5697521 0.5528038 0.5870756 0.5994217 0.5967394 0.5528038 0.08275681 0.7289085 0.06033998 0.7607182 0.07951438 0.7221536 0.2741962 0.8640709 0.2868812 0.8696818 0.2740091 0.8696819 0.2497698 0.8563289 0.2740091 0.8696819 0.2492728 0.8696819 0.254707 0.8696819 0.2758672 0.8752928 0.2760542 0.8696819 0.254707 0.8696819 0.2758672 0.8640709 0.2542102 0.8563289 0.2497698 0.883035 0.2740091 0.8696819 0.2741962 0.8752928 0.06190949 0.7634687 0.05090427 0.781667 0.05151444 0.7827365 0.5524285 0.5994217 0.5697521 0.5528038 0.5427649 0.5528038 0.5524285 0.5061865 0.5697521 0.5528038 0.5697521 0.4957512 0.06190949 0.7634687 0.05090427 0.781667 0.06033998 0.7607182 0.2741962 0.8752928 0.2868812 0.8696818 0.2869539 0.8718633 0.07951438 0.7221536 0.05877047 0.7579676 0.07627177 0.7153986 0.5697521 0.5528038 0.5870756 0.5061865 0.5697521 0.4957512 0.3246782 0.8616482 0.351602 0.8410016 0.3246782 0.832022 0.2259271 0.8471909 0.2383456 0.8616482 0.2383456 0.8380898 0.293782 0.8616482 0.2383456 0.8380898 0.293782 0.8291519 0.2938513 0.8696818 0.2375026 0.8999211 0.2938513 0.9113935 0.2938513 0.8696818 0.2375026 0.8394426 0.2938513 0.8279702 0.2938513 0.8696818 0.2375026 0.8999211 0.2375026 0.8696819 0.2938513 0.8696818 0.2375026 0.8394426 0.2375026 0.8696819 0.293782 0.8616482 0.2383456 0.8852068 0.2383456 0.8616482 0.227798 0.8679894 0.2383456 0.8852068 0.2383456 0.8616482 0.2215511 0.8757144 0.2296689 0.8887879 0.227798 0.8679894 0.2193621 0.8563509 0.227798 0.8679894 0.2259271 0.8471909 0.2383456 0.8616482 0.2259271 0.8471909 0.2383456 0.8380898 0.2375026 0.8999211 0.2244541 0.8696819 0.2248798 0.8968567 0.2375026 0.8696819 0.2286831 0.8425071 0.2375026 0.8394426 0.2375026 0.8696819 0.2286831 0.8968567 0.2291089 0.8696819 0.2375026 0.8394426 0.2244541 0.8696819 0.2375026 0.8696819 0.2383456 0.8852068 0.227798 0.8679894 0.2383456 0.8616482 0.2117593 0.8775216 0.2215511 0.8757144 0.2193621 0.8563509 0.2153798 0.8898733 0.2237402 0.8950776 0.2215511 0.8757144 0.227798 0.8679894 0.2193621 0.8563509 0.2259271 0.8471909 0.2248798 0.8968567 0.2177087 0.8696819 0.2182068 0.8953136 0.2291089 0.8696819 0.2226569 0.8440502 0.2286831 0.8425071 0.2291089 0.8696819 0.2226569 0.8953136 0.2231549 0.8696819 0.2248798 0.8425071 0.2177087 0.8696819 0.2244541 0.8696819 0.2296689 0.8887879 0.2215511 0.8757144 0.227798 0.8679894 0.2113535 0.9016154 0.2190003 0.9022251 0.2153798 0.8898733 0.08224081 0.7029165 0.09116035 0.7034871 0.08945769 0.6895801 0.2215511 0.8757144 0.2117593 0.8775216 0.2193621 0.8563509 0.2240686 0.8953136 0.2329183 0.8696819 0.2342476 0.8893332 0.2231549 0.8696819 0.217839 0.8500306 0.2226569 0.8440502 0.2231549 0.8696819 0.217839 0.8893332 0.2186627 0.8696819 0.2240686 0.8440502 0.2329183 0.8696819 0.2219848 0.8696819 0.2237402 0.8950776 0.2153798 0.8898733 0.2215511 0.8757144 0.07627177 0.7153986 0.08562278 0.712435 0.08224081 0.7029165 0.07951438 0.7221536 0.08900475 0.7219533 0.08562278 0.712435 0.09116035 0.7034871 0.08224081 0.7029165 0.08945769 0.6895801 0.2342476 0.8893332 0.2416037 0.8696819 0.2423771 0.8862953 0.2186627 0.8696819 0.2147441 0.8530684 0.217839 0.8500306 0.2186627 0.8696819 0.2147441 0.8862953 0.2157912 0.8696819 0.2342476 0.8500306 0.2416037 0.8696819 0.2329183 0.8696819 0.2190003 0.9022251 0.2113535 0.9016154 0.2153798 0.8898733 0.06033998 0.7607182 0.08275681 0.7289085 0.07951438 0.7221536 0.05877047 0.7579676 0.07951438 0.7221536 0.07627177 0.7153986 0.08562278 0.712435 0.07627177 0.7153986 0.08224081 0.7029165 0.2423771 0.8862953 0.2492728 0.8696819 0.2497698 0.883035 0.09444248 0.6843748 0.09048688 0.6680777 0.0958153 0.6678565 0.09444248 0.6843748 0.08666718 0.6936678 0.08946496 0.6814029 0.2423771 0.8530684 0.2492728 0.8696819 0.2416037 0.8696819 0.08900475 0.7219533 0.07951438 0.7221536 0.08562278 0.712435 0.3246782 0.8912746 0.293782 0.8616482 0.3246782 0.8616482 0.3252558 0.8316543 0.2938513 0.8696818 0.3252558 0.8696818 0.3246782 0.8912746 0.2938218 0.8694823 0.293782 0.8941445 0.2557833 0.8912746 0.244774 0.8688779 0.2557833 0.8689181 0.3252558 0.9077094 0.2938513 0.8696818 0.2938513 0.9113935 0.3246782 0.832022 0.293782 0.8616482 0.293782 0.8291519 0.2383456 0.8380898 0.293782 0.8616482 0.293782 0.8291519 0.2383456 0.8852068 0.293782 0.8616482 0.2383456 0.8616482 0.351602 0.8410016 0.3246782 0.8616482 0.3246782 0.832022 0.3526225 0.8961836 0.3252558 0.8696818 0.3252558 0.9077094 0.3526225 0.8431801 0.3252558 0.8696818 0.3252558 0.8316543 0.3526225 0.8961836 0.3252558 0.8696818 0.3526225 0.8696818 0.3526225 0.8431801 0.3252558 0.8696818 0.3526225 0.8696818 0.351602 0.882295 0.3246782 0.8616482 0.351602 0.8616482 0.293782 0.8616482 0.3246782 0.832022 0.293782 0.8291519 0.293782 0.8616482 0.3246782 0.8912746 0.3246782 0.8616482 0.3252963 0.9077094 0.2938917 0.8696818 0.3252963 0.8696818 0.3252963 0.8316543 0.2938917 0.8696818 0.2938917 0.8279702 0.2568499 0.8941445 0.244774 0.8695393 0.244774 0.9014188 0.2337647 0.8912746 0.244774 0.8688779 0.244774 0.8979062 0.3246782 0.8912746 0.2938218 0.8694823 0.3247181 0.8689181 0.2326981 0.8941445 0.244774 0.8695393 0.2326981 0.8694823 0.07945406 0.7109389 0.07818591 0.711809 0.0778259 0.7099668 0.08027619 0.7130571 0.07945406 0.7109389 0.08108222 0.711911 0.08072227 0.7100685 0.07945406 0.7109389 0.07972705 0.70911 0.07945406 0.7109389 0.07863199 0.7088205 0.07972705 0.70911 0.2760542 0.8696819 0.2876036 0.8675004 0.2758672 0.8640709 0.2760542 0.8696819 0.2876036 0.8718633 0.2876764 0.8696818 0.06033998 0.7607182 0.05029404 0.7805976 0.05090427 0.781667 0.06033998 0.7607182 0.05029404 0.7805976 0.05877047 0.7579676 0.09087806 0.7097185 0.07689619 0.7091723 0.08101183 0.7158365 0.08108222 0.711911 0.08409345 0.6990993 0.07945406 0.7109389 0.2872787 0.8730802 0.2936699 0.8756163 0.2936699 0.8874184 0.09225374 0.711403 0.08633089 0.7203725 0.09087806 0.7097185 0.3246782 0.8616482 0.3246782 0.8912746 0.351602 0.882295 0.5697521 0.5528038 0.5697521 0.6098563 0.5870756 0.5994217 0.08275681 0.7289085 0.06190949 0.7634687 0.06033998 0.7607182 0.2741962 0.8640709 0.2869539 0.8675004 0.2868812 0.8696818 0.2497698 0.8563289 0.2741962 0.8640709 0.2740091 0.8696819 0.254707 0.8696819 0.2542102 0.883035 0.2758672 0.8752928 0.254707 0.8696819 0.2760542 0.8696819 0.2758672 0.8640709 0.2497698 0.883035 0.2492728 0.8696819 0.2740091 0.8696819 0.06190949 0.7634687 0.06033998 0.7607182 0.05090427 0.781667 0.5524285 0.5994217 0.5697521 0.6098563 0.5697521 0.5528038 0.5524285 0.5061865 0.5427649 0.5528038 0.5697521 0.5528038 0.06190949 0.7634687 0.05151444 0.7827365 0.05090427 0.781667 0.2741962 0.8752928 0.2740091 0.8696819 0.2868812 0.8696818 0.07951438 0.7221536 0.06033998 0.7607182 0.05877047 0.7579676 0.5697521 0.5528038 0.5967394 0.5528038 0.5870756 0.5061865 0.3246782 0.8616482 0.351602 0.8616482 0.351602 0.8410016 0.2259271 0.8471909 0.227798 0.8679894 0.2383456 0.8616482 0.293782 0.8616482 0.2383456 0.8616482 0.2383456 0.8380898 0.2938513 0.8696818 0.2375026 0.8696819 0.2375026 0.8999211 0.2938513 0.8696818 0.2375026 0.8696819 0.2375026 0.8394426 0.2938513 0.8696818 0.2938513 0.9113935 0.2375026 0.8999211 0.2938513 0.8696818 0.2938513 0.8279702 0.2375026 0.8394426 0.293782 0.8616482 0.293782 0.8941445 0.2383456 0.8852068 0.227798 0.8679894 0.2296689 0.8887879 0.2383456 0.8852068 0.2215511 0.8757144 0.2237402 0.8950776 0.2296689 0.8887879 0.2193621 0.8563509 0.2215511 0.8757144 0.227798 0.8679894 0.2383456 0.8616482 0.227798 0.8679894 0.2259271 0.8471909 0.2375026 0.8999211 0.2375026 0.8696819 0.2244541 0.8696819 0.2375026 0.8696819 0.2291089 0.8696819 0.2286831 0.8425071 0.2375026 0.8696819 0.2375026 0.8999211 0.2286831 0.8968567 0.2375026 0.8394426 0.2248798 0.8425071 0.2244541 0.8696819 0.2383456 0.8852068 0.2296689 0.8887879 0.227798 0.8679894 0.2117593 0.8775216 0.2153798 0.8898733 0.2215511 0.8757144 0.2153798 0.8898733 0.2190003 0.9022251 0.2237402 0.8950776 0.227798 0.8679894 0.2215511 0.8757144 0.2193621 0.8563509 0.2248798 0.8968567 0.2244541 0.8696819 0.2177087 0.8696819 0.2291089 0.8696819 0.2231549 0.8696819 0.2226569 0.8440502 0.2291089 0.8696819 0.2286831 0.8968567 0.2226569 0.8953136 0.2248798 0.8425071 0.2182068 0.8440502 0.2177087 0.8696819 0.2296689 0.8887879 0.2237402 0.8950776 0.2215511 0.8757144 0.2113535 0.9016154 0.2159555 0.9088011 0.2190003 0.9022251 0.08224081 0.7029165 0.08562278 0.712435 0.09116035 0.7034871 0.2215511 0.8757144 0.2153798 0.8898733 0.2117593 0.8775216 0.2240686 0.8953136 0.2219848 0.8696819 0.2329183 0.8696819 0.2231549 0.8696819 0.2186627 0.8696819 0.217839 0.8500306 0.2231549 0.8696819 0.2226569 0.8953136 0.217839 0.8893332 0.2240686 0.8440502 0.2342476 0.8500306 0.2329183 0.8696819 0.2237402 0.8950776 0.2190003 0.9022251 0.2153798 0.8898733 0.07627177 0.7153986 0.07951438 0.7221536 0.08562278 0.712435 0.07951438 0.7221536 0.08275681 0.7289085 0.08900475 0.7219533 0.09116035 0.7034871 0.08562278 0.712435 0.08224081 0.7029165 0.2342476 0.8893332 0.2329183 0.8696819 0.2416037 0.8696819 0.2186627 0.8696819 0.2157912 0.8696819 0.2147441 0.8530684 0.2186627 0.8696819 0.217839 0.8893332 0.2147441 0.8862953 0.2342476 0.8500306 0.2423771 0.8530684 0.2416037 0.8696819 0.2190003 0.9022251 0.2159555 0.9088011 0.2113535 0.9016154 0.06033998 0.7607182 0.06190949 0.7634687 0.08275681 0.7289085 0.05877047 0.7579676 0.06033998 0.7607182 0.07951438 0.7221536 0.08562278 0.712435 0.07951438 0.7221536 0.07627177 0.7153986 0.2423771 0.8862953 0.2416037 0.8696819 0.2492728 0.8696819 0.09444248 0.6843748 0.08946496 0.6814029 0.09048688 0.6680777 0.09444248 0.6843748 0.0910629 0.6996949 0.08666718 0.6936678 0.2423771 0.8530684 0.2497698 0.8563289 0.2492728 0.8696819 0.08900475 0.7219533 0.08275681 0.7289085 0.07951438 0.7221536 0.3246782 0.8912746 0.293782 0.8941445 0.293782 0.8616482 0.3252558 0.8316543 0.2938513 0.8279702 0.2938513 0.8696818 0.3246782 0.8912746 0.3247181 0.8689181 0.2938218 0.8694823 0.2557833 0.8912746 0.244774 0.8979062 0.244774 0.8688779 0.3252558 0.9077094 0.3252558 0.8696818 0.2938513 0.8696818 0.3246782 0.832022 0.3246782 0.8616482 0.293782 0.8616482 0.2383456 0.8380898 0.2383456 0.8616482 0.293782 0.8616482 0.2383456 0.8852068 0.293782 0.8941445 0.293782 0.8616482 0.351602 0.8410016 0.351602 0.8616482 0.3246782 0.8616482 0.3526225 0.8961836 0.3526225 0.8696818 0.3252558 0.8696818 0.3526225 0.8431801 0.3526225 0.8696818 0.3252558 0.8696818 0.3526225 0.8961836 0.3252558 0.9077094 0.3252558 0.8696818 0.3526225 0.8431801 0.3252558 0.8316543 0.3252558 0.8696818 0.351602 0.882295 0.3246782 0.8912746 0.3246782 0.8616482 0.293782 0.8616482 0.3246782 0.8616482 0.3246782 0.832022 0.293782 0.8616482 0.293782 0.8941445 0.3246782 0.8912746 0.3252963 0.9077094 0.2938917 0.9113935 0.2938917 0.8696818 0.3252963 0.8316543 0.3252963 0.8696818 0.2938917 0.8696818 0.2568499 0.8941445 0.2568499 0.8694823 0.244774 0.8695393 0.2337647 0.8912746 0.2337647 0.8689181 0.244774 0.8688779 0.3246782 0.8912746 0.293782 0.8941445 0.2938218 0.8694823 0.2326981 0.8941445 0.244774 0.9014188 0.244774 0.8695393 0.07945406 0.7109389 0.07918113 0.7127676 0.07818591 0.711809 0.08027619 0.7130571 0.07918113 0.7127676 0.07945406 0.7109389 0.08072227 0.7100685 0.08108222 0.711911 0.07945406 0.7109389 0.07945406 0.7109389 0.0778259 0.7099668 0.07863199 0.7088205 0.2760542 0.8696819 0.2876764 0.8696818 0.2876036 0.8675004 0.2760542 0.8696819 0.2758672 0.8752928 0.2876036 0.8718633 0.06033998 0.7607182 0.05877047 0.7579676 0.05029404 0.7805976 0.06033998 0.7607182 0.05090427 0.781667 0.05029404 0.7805976 0.09087806 0.7097185 0.08950227 0.7080342 0.07689619 0.7091723 0.08108222 0.711911 0.08974802 0.7024753 0.08409345 0.6990993 0.2872787 0.8730802 0.2872787 0.8696818 0.2936699 0.8756163 0.09225374 0.711403 0.09044647 0.7270367 0.08633089 0.7203725</float_array>
          <technique_common>
            <accessor source="#Cubo_371-mesh-map-0-array" count="588" stride="2">
              <param name="S" type="float"/>
              <param name="T" type="float"/>
            </accessor>
          </technique_common>
        </source>
        <source id="Cubo_371-mesh-map-1">
          <float_array id="Cubo_371-mesh-map-1-array" count="1176">0.1870706 0.8386805 0.3049366 0.9657005 0.2444764 0.9827545 0.9322896 0.06537473 0.9802688 0.09461236 0.9459605 0.1307494 0.442175 0.1852791 0.3606348 0.05816662 0.4566086 0.1691285 0.8069896 0.4342445 0.824405 0.3602058 0.8165257 0.4354951 0.7785264 0.5787611 0.8165257 0.4354951 0.8011764 0.5821634 0.8766747 0.5807847 0.8644757 0.4344102 0.8736631 0.4353584 0.8766747 0.5807847 0.883539 0.4344102 0.9001505 0.5791249 0.8240878 0.5830676 0.8165257 0.4354951 0.8261343 0.4360541 0.2547162 0.06554251 0.3012316 0.003375232 0.3049367 0.006766021 0.9627179 0.01068288 0.9322896 0.06537473 0.9186187 0 0.8843104 0.03613704 0.9322896 0.06537473 0.8843104 0.08095067 0.3547928 0.06610751 0.3078117 0.003577113 0.3606348 0.05816662 0.8261343 0.4360541 0.824405 0.3602058 0.8281406 0.3604232 0.4566086 0.1691285 0.3697331 0.0489661 0.4787922 0.1499797 0.9322896 0.06537473 0.9018613 0.1200665 0.8843104 0.08095067 0.1870706 0.8386805 0.2028785 1 0.1273809 0.8634263 0.003253698 0.3228857 0.04746443 0.3771483 0 0.3968258 0.4304403 0.68239 0.5970901 0.4019807 0.5257577 0.7051721 0.6708083 0.3258396 0.6146411 0.6374379 0.5976939 0.3256692 0.812195 0 0.760352 0.3137071 0.7406834 0.004352927 0.812195 0 0.864038 0.313707 0.8121951 0.3105514 0.6708083 0.3258396 0.7178649 0.6374379 0.6676461 0.6375615 0.4304403 0.68239 0.4764374 0.3621585 0.5279887 0.3854647 0.04818046 0.3155152 0.1164512 0.3576891 0.04746443 0.3771483 0.05814421 0.275713 0.1124485 0.3083409 0.04818046 0.3155152 0.0156728 0.2801846 0.04818046 0.3155152 0.003253698 0.3228857 0.5279887 0.3854647 0.5951479 0.3279624 0.5970901 0.4019807 0.6146411 0.6374379 0.6650155 0.7095779 0.6174056 0.707112 0.8121951 0.3105514 0.7656054 0.3591457 0.760352 0.3137071 0.8121951 0.3105514 0.8587846 0.3591457 0.8121951 0.3540632 0.7178649 0.6374379 0.6650155 0.7095779 0.6676461 0.6375615 0.4764374 0.3621585 0.5310249 0.3233343 0.5279887 0.3854647 0.05883604 0.2219874 0.05814421 0.275713 0.0156728 0.2801846 0.08854943 0.2310152 0.1188588 0.2714265 0.05814421 0.275713 0.5310249 0.3233343 0.5829454 0.2851727 0.5951479 0.3279624 0.6174056 0.707112 0.662478 0.7467023 0.6175869 0.7438433 0.8734322 0.7032982 0.9201397 0.6750531 0.9210723 0.7104378 0.8734322 0.7032982 0.8330541 0.6750531 0.8751658 0.668803 0.7101696 0.7071121 0.662478 0.7467023 0.6650155 0.7095779 0.4826735 0.3126043 0.522439 0.283268 0.5310249 0.3233343 0.113717 0.1997641 0.1322492 0.2401848 0.08854943 0.2310152 0.09401506 0.1811863 0.08854943 0.2310152 0.05883604 0.2219874 0.522439 0.283268 0.5439481 0.225848 0.5829454 0.2851727 0.8281406 0.7464866 0.7906617 0.6826353 0.8247958 0.6799871 0.8751658 0.668803 0.9107661 0.6427587 0.9201397 0.6750531 0.8751658 0.668803 0.8440002 0.6427587 0.8761879 0.6407449 0.7406834 0.7382199 0.7906617 0.6826353 0.7833335 0.752659 0.4768087 0.2756077 0.5008531 0.2367719 0.522439 0.283268 0.1273807 0.1473997 0.113717 0.1997641 0.09401506 0.1811863 0.1409932 0.1652948 0.1452434 0.2184621 0.113717 0.1997641 0.5008531 0.2367719 0.5102044 0.1844485 0.5439481 0.225848 0.8247958 0.6799871 0.7963134 0.6286312 0.8249219 0.6287755 0.8761879 0.6407449 0.905583 0.6182622 0.9107661 0.6427587 0.8761879 0.6407449 0.8491373 0.6182622 0.876348 0.6193045 0.7577451 0.6736494 0.7963134 0.6286312 0.7906617 0.6826353 0.4691632 0.2432832 0.4796566 0.204591 0.5008531 0.2367719 0.2451863 0.05682057 0.1641095 0.1832867 0.1409932 0.1652948 0.2396501 0.04813957 0.1409932 0.1652948 0.1273807 0.1473997 0.4796566 0.204591 0.4787922 0.1499797 0.5102044 0.1844485 0.8249219 0.6287755 0.8011764 0.5821634 0.8240878 0.5830676 0.876348 0.6193045 0.9001505 0.5791249 0.905583 0.6182622 0.876348 0.6193045 0.8547828 0.5791249 0.8766747 0.5807847 0.7682353 0.6234175 0.8011764 0.5821634 0.7963134 0.6286312 0.4587511 0.2210032 0.4566086 0.1691285 0.4796566 0.204591 0.3194114 0.8154062 0.4304403 0.68239 0.3842405 0.8447152 0.7331857 0.151728 0.6708083 0.3258396 0.6700322 0.1518833 0.942786 0.9256727 0.8843104 0.7575028 0.9488176 0.7532328 0.9821212 0.3597196 0.921676 0.4216793 0.9217846 0.3597196 0.603375 0.151728 0.6708083 0.3258396 0.5976939 0.3256692 0.4711399 0.8654851 0.4304403 0.68239 0.5257577 0.7051721 0 0.3968258 0.1306782 0.6734446 0.06520622 0.7005876 0.1164512 0.3576891 0.1306782 0.6734446 0.04746443 0.3771483 0.4112806 0.9980363 0.3842405 0.8447152 0.4711399 0.8654851 0.6208075 0 0.6700322 0.1518833 0.603375 0.151728 0.6174545 0.7500419 0.6628898 0.8883456 0.5976939 0.8923141 0.7083252 0.7500419 0.6628898 0.8883456 0.6628898 0.7472763 0.7112731 0 0.6700322 0.1518833 0.6672613 1.08245e-4 0.3055405 0.963136 0.3842405 0.8447152 0.3507201 0.9835615 0.1306782 0.6734446 0.1273809 0.8634263 0.06520622 0.7005876 0.1306782 0.6734446 0.2738259 0.8142093 0.1870706 0.8386805 0.877391 0.7532327 0.812195 0.9222918 0.812195 0.7532569 0.746999 0.7532327 0.812195 0.9222918 0.7406834 0.922326 0.9708905 0.6188946 0.9217896 0.5577538 0.9853571 0.5497145 0.9821212 0.4836391 0.921676 0.4216793 1 0.4216793 0.8905513 0.3557484 0.9510613 0.1878198 0.9510613 0.3591458 0.9708905 0.4842129 0.9217896 0.5577538 0.921676 0.4904273 0.7340114 0.7527871 0.7393331 0.7501695 0.7393331 0.7550408 0.732501 0.7472761 0.7340114 0.7527871 0.7286897 0.7505334 0.7286897 0.7554047 0.7340114 0.7527871 0.7316791 0.7577612 0.7340114 0.7527871 0.7355218 0.758298 0.7316791 0.7577612 0.8736631 0.4353584 0.8753044 0.3597195 0.883539 0.4344102 0.8736631 0.4353584 0.8678929 0.3597196 0.8714647 0.3600882 0.2451863 0.05682057 0.2990792 0 0.3012316 0.003375232 0.3606348 0.05816662 0.311349 0 0.3697331 0.0489661 0.9252993 0.6736677 0.9216761 0.6256829 0.9365889 0.6373682 0.8843104 0.1806815 0.9016816 0.146351 0.8893122 0.1835208 0.9190675 0.1783069 0.9022853 0.1472332 0.9190675 0.1364902 0.9196712 0.179009 0.9348542 0.1448557 0.9246429 0.1814004 0.1870706 0.8386805 0.2738259 0.8142093 0.3049366 0.9657005 0.9322896 0.06537473 0.9802688 0.04979866 0.9802688 0.09461236 0.442175 0.1852791 0.3547928 0.06610751 0.3606348 0.05816662 0.8069896 0.4342445 0.8206975 0.3597196 0.824405 0.3602058 0.7785264 0.5787611 0.8069896 0.4342445 0.8165257 0.4354951 0.8766747 0.5807847 0.8547828 0.5791249 0.8644757 0.4344102 0.8766747 0.5807847 0.8736631 0.4353584 0.883539 0.4344102 0.8240878 0.5830676 0.8011764 0.5821634 0.8165257 0.4354951 0.2547162 0.06554251 0.2451863 0.05682057 0.3012316 0.003375232 0.9627179 0.01068288 0.9802688 0.04979866 0.9322896 0.06537473 0.8843104 0.03613704 0.9186187 0 0.9322896 0.06537473 0.3547928 0.06610751 0.3055405 0.006664276 0.3078117 0.003577113 0.8261343 0.4360541 0.8165257 0.4354951 0.824405 0.3602058 0.4566086 0.1691285 0.3606348 0.05816662 0.3697331 0.0489661 0.9322896 0.06537473 0.9459605 0.1307494 0.9018613 0.1200665 0.1870706 0.8386805 0.2444764 0.9827545 0.2028785 1 0.003253698 0.3228857 0.04818046 0.3155152 0.04746443 0.3771483 0.4304403 0.68239 0.5279887 0.3854647 0.5970901 0.4019807 0.6708083 0.3258396 0.6676461 0.6375615 0.6146411 0.6374379 0.812195 0 0.8121951 0.3105514 0.760352 0.3137071 0.812195 0 0.8837066 0.004352807 0.864038 0.313707 0.6708083 0.3258396 0.7400795 0.3256693 0.7178649 0.6374379 0.4304403 0.68239 0.3593311 0.6502419 0.4764374 0.3621585 0.04818046 0.3155152 0.1124485 0.3083409 0.1164512 0.3576891 0.05814421 0.275713 0.1188588 0.2714265 0.1124485 0.3083409 0.0156728 0.2801846 0.05814421 0.275713 0.04818046 0.3155152 0.5279887 0.3854647 0.5310249 0.3233343 0.5951479 0.3279624 0.6146411 0.6374379 0.6676461 0.6375615 0.6650155 0.7095779 0.8121951 0.3105514 0.8121951 0.3540632 0.7656054 0.3591457 0.8121951 0.3105514 0.864038 0.313707 0.8587846 0.3591457 0.7178649 0.6374379 0.7101696 0.7071121 0.6650155 0.7095779 0.4764374 0.3621585 0.4826735 0.3126043 0.5310249 0.3233343 0.05883604 0.2219874 0.08854943 0.2310152 0.05814421 0.275713 0.08854943 0.2310152 0.1322492 0.2401848 0.1188588 0.2714265 0.5310249 0.3233343 0.522439 0.283268 0.5829454 0.2851727 0.6174056 0.707112 0.6650155 0.7095779 0.662478 0.7467023 0.8734322 0.7032982 0.8751658 0.668803 0.9201397 0.6750531 0.8734322 0.7032982 0.8287444 0.7104378 0.8330541 0.6750531 0.7101696 0.7071121 0.7050839 0.7438433 0.662478 0.7467023 0.4826735 0.3126043 0.4768087 0.2756077 0.522439 0.283268 0.113717 0.1997641 0.1452434 0.2184621 0.1322492 0.2401848 0.09401506 0.1811863 0.113717 0.1997641 0.08854943 0.2310152 0.522439 0.283268 0.5008531 0.2367719 0.5439481 0.225848 0.8281406 0.7464866 0.7833335 0.752659 0.7906617 0.6826353 0.8751658 0.668803 0.8761879 0.6407449 0.9107661 0.6427587 0.8751658 0.668803 0.8330541 0.6750531 0.8440002 0.6427587 0.7406834 0.7382199 0.7577451 0.6736494 0.7906617 0.6826353 0.4768087 0.2756077 0.4691632 0.2432832 0.5008531 0.2367719 0.1273807 0.1473997 0.1409932 0.1652948 0.113717 0.1997641 0.1409932 0.1652948 0.1641095 0.1832867 0.1452434 0.2184621 0.5008531 0.2367719 0.4796566 0.204591 0.5102044 0.1844485 0.8247958 0.6799871 0.7906617 0.6826353 0.7963134 0.6286312 0.8761879 0.6407449 0.876348 0.6193045 0.905583 0.6182622 0.8761879 0.6407449 0.8440002 0.6427587 0.8491373 0.6182622 0.7577451 0.6736494 0.7682353 0.6234175 0.7963134 0.6286312 0.4691632 0.2432832 0.4587511 0.2210032 0.4796566 0.204591 0.2451863 0.05682057 0.2547162 0.06554251 0.1641095 0.1832867 0.2396501 0.04813957 0.2451863 0.05682057 0.1409932 0.1652948 0.4796566 0.204591 0.4566086 0.1691285 0.4787922 0.1499797 0.8249219 0.6287755 0.7963134 0.6286312 0.8011764 0.5821634 0.876348 0.6193045 0.8766747 0.5807847 0.9001505 0.5791249 0.876348 0.6193045 0.8491373 0.6182622 0.8547828 0.5791249 0.7682353 0.6234175 0.7785264 0.5787611 0.8011764 0.5821634 0.4587511 0.2210032 0.442175 0.1852791 0.4566086 0.1691285 0.3194114 0.8154062 0.3593311 0.6502419 0.4304403 0.68239 0.7331857 0.151728 0.7400795 0.3256693 0.6708083 0.3258396 0.942786 0.9256727 0.8843103 0.9295643 0.8843104 0.7575028 0.9821212 0.3597196 1 0.4216793 0.921676 0.4216793 0.603375 0.151728 0.6700322 0.1518833 0.6708083 0.3258396 0.4711399 0.8654851 0.3842405 0.8447152 0.4304403 0.68239 0 0.3968258 0.04746443 0.3771483 0.1306782 0.6734446 0.1164512 0.3576891 0.2258375 0.6466029 0.1306782 0.6734446 0.4112806 0.9980363 0.3507201 0.9835615 0.3842405 0.8447152 0.6208075 0 0.6672613 1.08245e-4 0.6700322 0.1518833 0.6174545 0.7500419 0.6628898 0.7472763 0.6628898 0.8883456 0.7083252 0.7500419 0.7280858 0.8923141 0.6628898 0.8883456 0.7112731 0 0.7331857 0.151728 0.6700322 0.1518833 0.3055405 0.963136 0.3194114 0.8154062 0.3842405 0.8447152 0.1306782 0.6734446 0.1870706 0.8386805 0.1273809 0.8634263 0.1306782 0.6734446 0.2258375 0.6466029 0.2738259 0.8142093 0.877391 0.7532327 0.8837066 0.922326 0.812195 0.9222918 0.746999 0.7532327 0.812195 0.7532569 0.812195 0.9222918 0.9708905 0.6188946 0.921676 0.625109 0.9217896 0.5577538 0.9821212 0.4836391 0.9217846 0.4836391 0.921676 0.4216793 0.8905513 0.3557484 0.8843104 0.1840946 0.9510613 0.1878198 0.9708905 0.4842129 0.9853571 0.5497145 0.9217896 0.5577538 0.7340114 0.7527871 0.7363437 0.7478129 0.7393331 0.7501695 0.732501 0.7472761 0.7363437 0.7478129 0.7340114 0.7527871 0.7286897 0.7554047 0.7286897 0.7505334 0.7340114 0.7527871 0.7340114 0.7527871 0.7393331 0.7550408 0.7355218 0.758298 0.8736631 0.4353584 0.8714647 0.3600882 0.8753044 0.3597195 0.8736631 0.4353584 0.8644757 0.4344102 0.8678929 0.3597196 0.2451863 0.05682057 0.2396501 0.04813957 0.2990792 0 0.3606348 0.05816662 0.3078117 0.003577113 0.311349 0 0.9252993 0.6736677 0.9216761 0.6695579 0.9216761 0.6256829 0.8843104 0.1806815 0.8843104 0.1364903 0.9016816 0.146351 0.9190675 0.1783069 0.9142352 0.1814002 0.9022853 0.1472332 0.9196712 0.179009 0.9196712 0.1336733 0.9348542 0.1448557</float_array>
          <technique_common>
            <accessor source="#Cubo_371-mesh-map-1-array" count="588" stride="2">
              <param name="S" type="float"/>
              <param name="T" type="float"/>
            </accessor>
          </technique_common>
        </source>
        <vertices id="Cubo_371-mesh-vertices">
          <input semantic="POSITION" source="#Cubo_371-mesh-positions"/>
        </vertices>
        <triangles material="Materiais-material" count="196">
          <input semantic="VERTEX" source="#Cubo_371-mesh-vertices" offset="0"/>
          <input semantic="NORMAL" source="#Cubo_371-mesh-normals" offset="1"/>
          <input semantic="TEXCOORD" source="#Cubo_371-mesh-map-0" offset="2" set="0"/>
          <input semantic="TEXCOORD" source="#Cubo_371-mesh-map-1" offset="2" set="1"/>
          <p>75 0 0 3 1 1 13 2 2 16 3 3 7 4 4 14 5 5 58 6 6 15 7 7 61 8 8 4 9 9 91 10 10 10 11 11 63 12 12 10 11 13 60 13 14 59 14 15 1 15 16 11 16 17 59 14 18 5 17 19 58 18 20 57 19 21 10 20 22 0 21 23 1 22 24 87 23 25 88 24 26 3 25 27 16 3 28 13 26 29 2 27 30 16 3 31 8 3 32 5 28 33 89 29 34 15 7 35 0 30 36 91 31 37 93 32 38 61 33 39 4 34 40 63 35 41 16 3 42 6 36 43 8 3 44 75 37 45 2 38 46 76 39 47 25 40 48 24 41 49 17 42 50 72 43 51 19 44 52 66 45 53 71 46 54 17 47 55 68 48 56 70 49 57 20 50 58 69 49 59 70 51 60 18 52 61 21 53 62 71 54 63 19 55 64 22 56 65 72 57 66 20 58 67 23 59 68 32 60 69 18 61 70 24 62 71 40 63 72 30 64 73 32 60 74 33 65 75 32 66 76 25 40 77 23 67 78 31 68 79 19 44 80 17 47 81 28 69 82 25 70 83 21 71 84 26 72 85 20 73 86 21 53 87 30 74 88 27 75 89 19 55 90 28 69 91 22 56 92 20 58 93 29 76 94 23 59 95 41 77 96 40 78 97 33 65 98 48 79 99 38 80 100 40 63 101 29 81 102 39 82 103 31 68 104 25 70 105 36 83 106 33 84 107 27 85 108 34 86 109 26 72 110 27 75 111 38 87 112 35 88 113 31 89 114 36 83 115 28 69 116 26 90 117 37 91 118 29 76 119 56 92 120 46 93 121 48 79 122 49 94 123 48 95 124 41 77 125 37 96 126 47 97 127 39 82 128 33 84 129 44 98 130 41 99 131 35 100 132 42 101 133 34 86 134 35 88 135 46 102 136 43 103 137 39 104 138 44 98 139 36 83 140 34 105 141 45 106 142 37 91 143 57 107 144 56 108 145 49 94 146 64 109 147 54 110 148 56 92 149 45 111 150 55 112 151 47 97 152 41 99 153 52 113 154 49 114 155 43 115 156 50 116 157 42 101 158 43 103 159 54 117 160 51 118 161 47 119 162 52 113 163 44 98 164 42 120 165 53 121 166 45 106 167 12 122 168 62 123 169 64 109 170 0 124 171 64 125 172 57 107 173 53 126 174 63 35 175 55 112 176 49 114 177 60 127 178 57 19 179 51 118 180 58 18 181 50 116 182 51 118 183 62 128 184 59 14 185 55 129 186 60 13 187 52 113 188 50 130 189 61 8 190 53 121 191 77 131 192 72 132 193 80 133 194 74 134 195 71 54 196 79 135 197 77 136 198 82 137 199 69 138 200 77 139 201 83 140 202 81 141 203 76 142 204 71 46 205 68 48 206 74 143 207 72 43 208 66 45 209 17 42 210 67 144 211 68 145 212 18 61 213 67 146 214 24 62 215 6 147 216 80 148 217 74 143 218 2 149 219 79 150 220 76 142 221 7 151 222 78 152 223 77 153 224 3 154 225 78 155 226 9 156 227 6 157 228 79 158 229 8 157 230 7 159 231 80 133 232 14 160 233 67 144 234 76 39 235 68 145 236 67 146 237 73 161 238 75 0 239 86 162 240 84 163 241 83 164 242 81 165 243 84 163 244 82 166 245 69 167 246 84 168 247 70 169 248 73 170 249 83 140 250 78 171 251 73 172 252 85 173 253 86 174 254 65 175 255 84 168 256 85 176 257 95 177 258 88 178 259 87 179 260 94 180 261 95 181 262 89 182 263 90 183 264 95 184 265 91 185 266 95 186 267 93 187 268 91 188 269 11 189 270 94 190 271 5 17 272 11 16 273 88 191 274 92 192 275 12 193 276 93 194 277 87 195 278 15 196 279 90 197 280 4 198 281 95 199 282 96 200 283 97 201 284 89 202 285 99 203 286 95 204 287 87 205 288 101 206 289 100 207 290 92 208 291 103 209 292 95 210 293 75 0 294 73 161 295 3 1 296 16 3 297 9 3 298 7 4 299 58 6 300 5 28 301 15 7 302 4 9 303 90 211 304 91 10 305 63 12 306 4 9 307 10 11 308 59 14 309 62 128 310 1 15 311 59 14 312 11 189 313 5 17 314 57 19 315 60 127 316 10 20 317 1 22 318 12 122 319 87 23 320 3 25 321 9 3 322 16 3 323 2 27 324 13 26 325 16 3 326 5 28 327 94 212 328 89 29 329 0 21 330 10 20 331 91 213 332 61 214 333 15 196 334 4 198 335 16 3 336 14 5 337 6 36 338 75 215 339 13 216 340 2 216 341 25 40 342 32 66 343 24 41 344 72 43 345 23 67 346 19 44 347 71 46 348 22 217 349 17 47 350 70 218 351 21 71 352 20 73 353 70 51 354 65 219 355 18 52 356 71 54 357 66 220 358 19 55 359 72 57 360 69 221 361 20 58 362 32 60 363 30 64 364 18 61 365 40 63 366 38 80 367 30 64 368 33 65 369 40 78 370 32 66 371 23 67 372 29 81 373 31 68 374 17 47 375 22 217 376 28 69 377 21 71 378 27 85 379 26 72 380 21 53 381 18 52 382 30 74 383 19 55 384 31 89 385 28 69 386 20 58 387 26 90 388 29 76 389 41 77 390 48 95 391 40 78 392 48 79 393 46 93 394 38 80 395 29 81 396 37 96 397 39 82 398 25 70 399 28 69 400 36 83 401 27 85 402 35 100 403 34 86 404 27 75 405 30 74 406 38 87 407 31 89 408 39 104 409 36 83 410 26 90 411 34 105 412 37 91 413 56 92 414 54 110 415 46 93 416 49 94 417 56 108 418 48 95 419 37 96 420 45 111 421 47 97 422 33 84 423 36 83 424 44 98 425 35 100 426 43 115 427 42 101 428 35 88 429 38 87 430 46 102 431 39 104 432 47 119 433 44 98 434 34 105 435 42 120 436 45 106 437 57 107 438 64 125 439 56 108 440 64 109 441 62 123 442 54 110 443 45 111 444 53 126 445 55 112 446 41 99 447 44 98 448 52 113 449 43 115 450 51 118 451 50 116 452 43 103 453 46 102 454 54 117 455 47 119 456 55 129 457 52 113 458 42 120 459 50 130 460 53 121 461 12 122 462 1 22 463 62 123 464 0 124 465 12 193 466 64 125 467 53 126 468 61 33 469 63 35 470 49 114 471 52 113 472 60 127 473 51 118 474 59 14 475 58 18 476 51 118 477 54 117 478 62 128 479 55 129 480 63 12 481 60 13 482 50 130 483 58 6 484 61 8 485 77 131 486 69 222 487 72 132 488 74 134 489 66 220 490 71 54 491 77 136 492 81 223 493 82 137 494 77 139 495 78 171 496 83 140 497 76 142 498 79 150 499 71 46 500 74 143 501 80 148 502 72 43 503 17 42 504 24 41 505 67 144 506 18 61 507 65 224 508 67 146 509 6 147 510 14 225 511 80 148 512 2 149 513 8 226 514 79 150 515 7 151 516 9 227 517 78 152 518 3 154 519 73 228 520 78 155 521 6 229 522 74 134 523 79 135 524 7 159 525 77 131 526 80 133 527 67 144 528 75 37 529 76 39 530 67 146 531 65 224 532 73 161 533 86 162 534 85 230 535 84 163 536 81 165 537 83 164 538 84 163 539 69 167 540 82 231 541 84 168 542 73 170 543 86 232 544 83 140 545 73 172 546 65 233 547 85 173 548 65 175 549 70 169 550 84 168 551 95 177 552 92 234 553 88 178 554 94 180 555 92 235 556 95 181 557 90 183 558 89 236 559 95 184 560 95 186 561 87 237 562 93 187 563 11 189 564 92 238 565 94 190 566 11 16 567 1 15 568 88 191 569 12 193 570 0 124 571 93 194 572 15 196 573 89 239 574 90 197 575 95 199 576 91 240 577 96 200 578 89 202 579 98 241 580 99 203 581 87 205 582 95 242 583 101 206 584 92 208 585 102 243 586 103 209 587</p>
        </triangles>
      </mesh>
    </geometry>
  </library_geometries>
  <library_visual_scenes>
    <visual_scene id="Scene" name="Scene">
      <node id="ship_fisher" name="ship_fisher" type="NODE">
        <matrix sid="transform">1 0 0 0 0 1.407775 0 0 0 0 1 0 0 0 0 1</matrix>
        <instance_geometry url="#Cubo_371-mesh" name="ship_fisher">
          <bind_material>
            <technique_common>
              <instance_material symbol="Materiais-material" target="#Materiais-material">
                <bind_vertex_input semantic="Cubo_371-mesh-map-0" input_semantic="TEXCOORD" input_set="0"/>
                <bind_vertex_input semantic="Cubo_371-mesh-map-1" input_semantic="TEXCOORD" input_set="1"/>
              </instance_material>
            </technique_common>
          </bind_material>
        </instance_geometry>
        <node id="prop-fish_a" name="prop-fish_a" type="NODE">
          <matrix sid="transform">0.4300701 -0.2226459 -0.00742826 -0.1276982 0.2227677 0.4298978 0.01220831 0.486442 9.81257e-4 -0.01425689 0.4841307 0.872233 0 0 0 0.9999999</matrix>
        </node>
        <node id="prop-fish_b" name="prop-fish_b" type="NODE">
          <matrix sid="transform">0.4359433 0.2109781 0.005329359 0.1424103 -0.2110431 0.4357426 0.01325966 0.7091566 9.81266e-4 -0.01425685 0.4841307 0.8655878 0 0 0 0.9999999</matrix>
        </node>
        <node id="prop-fish_c" name="prop-fish_c" type="NODE">
          <matrix sid="transform">0.2957651 0.3833998 0.01069103 0.1939971 -0.3835476 0.2956147 0.009482788 0.3674625 9.81281e-4 -0.01425687 0.4841307 0.8655878 0 0 0 0.9999999</matrix>
        </node>
        <node id="prop-fisherman" name="prop-fisherman" type="NODE">
          <matrix sid="transform">0.4843416 0 0 -0.007788163 0 0.4843416 0 0.9052468 0 0 0.4843416 0.6079742 0 0 0 0.9999999</matrix>
        </node>
        <node id="prop_basket" name="prop_basket" type="NODE">
          <matrix sid="transform">-0.2264102 -0.4281649 0 0.0420932 0.4281649 -0.2264102 0 -0.3287505 0 0 0.4843416 0.8378331 0 0 0 0.9999999</matrix>
        </node>
        <node id="prop-row" name="prop-row" type="NODE">
          <matrix sid="transform">-0.009278413 0.4339201 -0.2149743 -0.2031058 -0.01067823 -0.2151448 -0.4338034 -0.0473209 -0.484135 -0.003570751 0.01368807 0.9506779 0 0 0 0.9999999</matrix>
        </node>
      </node>
    </visual_scene>
  </library_visual_scenes>
  <scene>
    <instance_visual_scene url="#Scene"/>
  </scene>
</COLLADA>