<?xml version="1.0" encoding="utf-8"?>
<COLLADA xmlns="http://www.collada.org/2005/11/COLLADASchema" version="1.4.1" xmlns:xsi="http://www.w3.org/2001/XMLSchema-instance">
  <asset>
    <contributor>
      <author>Blender User</author>
      <authoring_tool>Blender 4.3.1 commit date:2024-12-10, commit time:07:46, hash:33d812126174</authoring_tool>
    </contributor>
    <created>2026-09-10T18:31:00</created>
    <modified>2026-09-10T18:31:00</modified>
    <unit name="meter" meter="1"/>
    <up_axis>Z_UP</up_axis>
  </asset>
  <library_effects>
    <effect id="A_A__-_text_mandé_FINAIS_021-effect">
      <profile_COMMON>
        <technique sid="common">
          <lambert>
            <emission>
              <color sid="emission">0 0 0 1</color>
            </emission>
            <diffuse>
              <color sid="diffuse">0.8 0.8 0.8 1</color>
            </diffuse>
            <index_of_refraction>
              <float sid="ior">1.45</float>
            </index_of_refraction>
          </lambert>
        </technique>
      </profile_COMMON>
    </effect>
  </library_effects>
  <library_images/>
  <library_materials>
    <material id="A_A__-_text_mandé_FINAIS_021-material" name="A A  - text mandé FINAIS.021">
      <instance_effect url="#A_A__-_text_mandé_FINAIS_021-effect"/>
    </material>
  </library_materials>
  <library_geometries>
    <geometry id="Esfera_2375-mesh" name="Esfera.2375">
      <mesh>
        <source id="Esfera_2375-mesh-positions">
          <float_array id="Esfera_2375-mesh-positions-array" count="768">-3.704716 -4.477019 -4.980065 -4.435999 -3.744338 -4.980065 -4.221783 -4.191067 -4.980065 -4.436789 3.837038 -4.980065 -3.705643 4.569736 -4.980065 -4.22267 4.283774 -4.980065 -3.042561 -2.868861 12.96859 -2.769819 -3.145676 12.96859 -2.956146 -3.049067 12.96859 4.33746 -3.744159 -4.980065 3.606314 -4.476857 -4.980065 4.123341 -4.190895 -4.980065 2.671291 -3.145549 12.96859 2.94389 -2.868815 12.96859 2.857544 -3.048967 12.96859 2.943237 2.961744 12.96859 2.670496 3.238559 12.96859 2.856823 3.141951 12.96859 -2.770615 3.238432 12.96859 -3.043213 2.961698 12.96859 -2.956867 3.141851 12.96859 3.605392 4.569898 -4.980065 4.336676 3.837217 -4.980065 4.122459 4.283946 -4.980065 -2.946533 -3.691895 12.96859 -3.4636 -3.423803 12.96859 -3.677816 -2.977075 12.96859 3.365055 -3.423662 12.96859 2.848028 -3.691764 12.96859 3.579174 -2.976926 12.96859 -3.464378 3.516545 12.96859 -2.947357 3.784647 12.96859 -3.678497 3.06981 12.96859 3.364277 3.516686 12.96859 3.578493 3.069958 12.96859 2.84721 3.784779 12.96859 -2.769819 -3.145676 12.01266 -2.956146 -3.049067 12.01266 -3.042561 -2.868861 12.01266 2.857544 -3.048967 12.01266 2.671291 -3.145549 12.01266 2.94389 -2.868815 12.01266 -2.956867 3.141851 12.01266 -2.770615 3.238432 12.01266 -3.043213 2.961698 12.01266 2.856823 3.141951 12.01266 2.943237 2.961744 12.01266 2.670496 3.238559 12.01266 -2.855598 -3.410817 13.20865 -3.202469 -3.230967 13.20865 -3.350922 -2.921389 13.20865 3.103895 -3.230849 13.20865 2.757082 -3.410687 13.20865 3.252262 -2.921293 13.20865 -3.203218 3.323732 13.20865 -2.856405 3.503571 13.20865 -3.351585 3.014176 13.20865 3.103146 3.323852 13.20865 3.251598 3.014272 13.20865 2.756275 3.5037 13.20865 3.003485 3.335838 12.01266 3.003473 -3.242997 12.01266 -3.125542 3.335833 12.01266 -3.125553 -3.243002 12.01266 3.022511 -4.808856 -4.980065 3.022402 -3.12134 -4.980065 3.568617 -4.249137 14.20729 4.669081 -4.808821 -4.980065 4.122934 -4.249125 14.20729 4.122894 -3.681026 14.20729 3.568583 -3.681038 14.20729 4.668978 -3.121305 -4.980065 3.217432 -4.609065 12.95752 4.474131 -4.609038 12.95752 3.217352 -3.321118 12.95752 4.47405 -3.321093 12.95752 3.451961 -0.6746986 -4.980062 3.451893 0.3612471 -4.980062 3.78721 -0.331094 14.20729 4.462772 -0.6746771 -4.980062 4.127495 -0.3310869 14.20729 4.127472 0.01766252 14.20729 3.787188 0.01765537 14.20729 4.462704 0.3612685 -4.980062 3.571621 -0.5520494 13.44007 4.34309 -0.552033 13.44007 3.571569 0.2386057 13.44007 4.343044 0.2386214 13.44007 -4.446568 -2.115855 4.965804 4.344131 -2.11566 4.965803 -4.446562 -2.307317 5.289111 -4.446413 -2.510437 4.96593 4.344286 -2.510243 4.96593 4.344137 -2.307122 5.289152 -0.3170185 3.666116 -4.980062 -0.3170815 4.702063 -4.980062 0.01823031 4.009721 14.20729 0.6937924 3.666138 -4.980062 0.3585205 4.009728 14.20729 0.3584976 4.358477 14.20729 0.01820755 4.358471 14.20729 0.6937294 4.702084 -4.980062 -0.1973533 3.788765 13.44007 0.5741158 3.788781 13.44007 -0.1974048 4.579421 13.44007 0.5740643 4.579436 13.44007 1.017826 -4.477025 4.965804 1.017786 4.590651 4.965803 1.209286 -4.477025 5.289111 1.412407 -4.476888 4.96593 1.412367 4.590789 4.96593 1.209246 4.590651 5.289152 -4.77416 -4.808856 -4.980065 -4.774269 -3.12134 -4.980065 -4.228054 -4.249137 14.20729 -3.12759 -4.808821 -4.980065 -3.673742 -4.249125 14.20729 -3.673777 -3.681026 14.20729 -4.228094 -3.681038 14.20729 -3.127699 -3.121305 -4.980065 -4.579239 -4.609065 12.95752 -3.32254 -4.609038 12.95752 -4.579319 -3.321118 12.95752 -3.322626 -3.321093 12.95752 3.022511 3.238137 -4.980065 3.022402 4.925652 -4.980065 3.568617 3.797855 14.20729 4.669081 3.23817 -4.980065 4.122934 3.797866 14.20729 4.122894 4.365965 14.20729 3.568583 4.365954 14.20729 4.668978 4.925686 -4.980065 3.217432 3.437927 12.95752 4.474131 3.437954 12.95752 3.217352 4.725873 12.95752 4.47405 4.725899 12.95752 -4.77416 3.238137 -4.980065 -4.774269 4.925652 -4.980065 -4.228054 3.797855 14.20729 -3.12759 3.23817 -4.980065 -3.673742 3.797866 14.20729 -3.673777 4.365965 14.20729 -4.228094 4.365954 14.20729 -3.127699 4.925686 -4.980065 -4.579239 3.437927 12.95752 -3.32254 3.437954 12.95752 -4.579319 4.725873 12.95752 -3.322626 4.725899 12.95752 -4.594305 -0.6746986 -4.980062 -4.594374 0.3612471 -4.980062 -4.259056 -0.331094 14.20729 -3.583494 -0.6746771 -4.980062 -3.918772 -0.3310869 14.20729 -3.918795 0.01766252 14.20729 -4.259079 0.01765537 14.20729 -3.583563 0.3612685 -4.980062 -4.474646 -0.5520494 13.44007 -3.703176 -0.552033 13.44007 -4.474697 0.2386057 13.44007 -3.703228 0.2386214 13.44007 -4.446568 1.241562 4.965804 4.344131 1.241758 4.965803 -4.446562 1.050101 5.289111 -4.446413 0.8469801 4.96593 4.344286 0.8471747 4.96593 4.344137 1.050296 5.289152 -1.116302 -4.477025 4.965804 -1.116348 4.590651 4.965803 -0.9248428 -4.477025 5.289111 -0.7217217 -4.476888 4.96593 -0.7217617 4.590789 4.96593 -0.9248829 4.590651 5.289152 -4.446568 -2.115855 11.5877 4.344131 -2.11566 11.5877 -4.446562 -2.307317 11.91101 -4.446413 -2.510437 11.58783 4.344286 -2.510243 11.58783 4.344137 -2.307122 11.91105 1.017826 -4.477025 11.5877 1.017786 4.590651 11.5877 1.209286 -4.477025 11.91101 1.412407 -4.476888 11.58783 1.412367 4.590789 11.58783 1.209246 4.590651 11.91105 -4.446568 1.241562 11.5877 4.344131 1.241758 11.5877 -4.446562 1.050101 11.91101 -4.446413 0.8469801 11.58783 4.344286 0.8471747 11.58783 4.344137 1.050296 11.91105 -1.116302 -4.477025 11.5877 -1.116348 4.590651 11.5877 -0.9248428 -4.477025 11.91101 -0.7217217 -4.476888 11.58783 -0.7217617 4.590789 11.58783 -0.9248829 4.590651 11.91105 -0.3170185 -4.62562 -4.980062 -0.3170815 -3.589675 -4.980062 0.01823031 -4.282016 14.20729 0.6937924 -4.625599 -4.980062 0.3585205 -4.282009 14.20729 0.3584976 -3.93326 14.20729 0.01820755 -3.933266 14.20729 0.6937294 -3.589653 -4.980062 -0.1973533 -4.502971 13.44007 0.5741158 -4.502955 13.44007 -0.1974048 -3.712316 13.44007 0.5740643 -3.7123 13.44007 -2.34375 -4.477025 4.965804 -2.34379 4.590651 4.965803 -2.152285 -4.477025 5.289111 -1.949163 -4.476888 4.96593 -1.949203 4.590789 4.96593 -2.152325 4.590651 5.289152 -2.34375 -4.477025 11.5877 -2.34379 4.590651 11.5877 -2.152285 -4.477025 11.91101 -1.949163 -4.476888 11.58783 -1.949203 4.590789 11.58783 -2.152325 4.590651 11.91105 2.100861 -4.477025 4.965804 2.100821 4.590651 4.965803 2.29232 -4.477025 5.289111 2.495441 -4.476888 4.96593 2.495401 4.590789 4.96593 2.29228 4.590651 5.289152 2.100861 -4.477025 11.5877 2.100821 4.590651 11.5877 2.29232 -4.477025 11.91101 2.495441 -4.476888 11.58783 2.495401 4.590789 11.58783 2.29228 4.590651 11.91105 -4.446568 2.270448 4.965804 4.344131 2.270642 4.965803 -4.446562 2.078985 5.289111 -4.446413 1.875865 4.96593 4.344286 1.87606 4.96593 4.344137 2.079181 5.289152 -4.446568 2.270448 11.5877 4.344131 2.270642 11.5877 -4.446562 2.078985 11.91101 -4.446413 1.875865 11.58783 4.344286 1.87606 11.58783 4.344137 2.079181 11.91105 -4.446568 -1.08697 4.965804 4.344131 -1.086775 4.965803 -4.446562 -1.278432 5.289111 -4.446413 -1.481552 4.96593 4.344286 -1.481358 4.96593 4.344137 -1.278237 5.289152 -4.446568 -1.08697 11.5877 4.344131 -1.086775 11.5877 -4.446562 -1.278432 11.91101 -4.446413 -1.481552 11.58783 4.344286 -1.481358 11.58783 4.344137 -1.278237 11.91105</float_array>
          <technique_common>
            <accessor source="#Esfera_2375-mesh-positions-array" count="256" stride="3">
              <param name="X" type="float"/>
              <param name="Y" type="float"/>
              <param name="Z" type="float"/>
            </accessor>
          </technique_common>
        </source>
        <source id="Esfera_2375-mesh-normals">
          <float_array id="Esfera_2375-mesh-normals-array" count="1458">0.9728357 0.2258659 0.05074822 0.9749103 -0.2168044 0.05045658 0.9728819 -0.2256671 0.05074816 0.9751265 -0.2216492 2.42144e-7 0.9017713 -0.4322139 0 -0.2320717 0.9712922 0.05228948 0.2538376 0.9658198 0.05252212 -0.2538727 0.9658105 0.05252307 -0.2538373 -0.9658199 0.05252236 0.2320696 -0.9712928 0.05228966 -0.2320225 -0.971304 0.05228859 -0.4600066 -0.886008 0.05816996 -0.4831429 -0.8736345 0.05775469 -0.9002515 -0.4316911 0.05648195 -0.9728358 -0.2258653 0.05074834 -0.9002519 -0.4316902 0.05648189 0.2538724 -0.9658106 0.05252319 0.4600481 -0.8859864 0.05817186 0.9003311 -0.4315247 0.05648273 -0.4600519 0.8859844 0.05817174 -0.9003303 0.4315267 0.05648291 -0.972882 0.225666 0.0507484 -0.9749101 0.2168054 0.0504567 0.9002521 0.4316897 0.05648189 0.9748665 0.2170014 0.05045634 0.4600083 0.8860072 0.05816972 0.2320234 0.9713039 0.05228829 -0.9748664 -0.217002 0.0504564 -0.4185306 -0.4294654 0.8002448 -0.1541079 -0.6123825 0.7753956 -0.1432942 -0.6155267 0.7749799 -0.5729506 -0.1270729 0.8096791 -0.4360462 -0.4080478 0.8020977 0.4185665 -0.4294095 0.800256 0.1541352 -0.612373 0.7753978 0.4360843 -0.4079883 0.8021074 0.5729683 -0.1269519 0.8096855 0.5715523 -0.1344048 0.8094834 -0.4185671 0.4294077 0.8002567 -0.154138 0.6123712 0.7753987 -0.4360845 0.4079878 0.8021076 -0.572968 0.1269522 0.8096857 -0.571551 0.1344045 0.8094843 0.4185296 0.4294657 0.8002453 0.5729498 0.127072 0.8096797 0.4360457 0.4080485 0.8020976 0.1541069 0.6123822 0.7753961 0.1432942 0.6155257 0.7749806 -0.5715338 -0.1345301 0.8094757 0.1433178 -0.6155178 0.7749825 -0.1433188 0.6155166 0.7749833 0.5715326 0.1345281 0.8094768 -0.4603415 0.8877419 0 -0.2369239 0.9715283 0 -0.2369286 0.9715271 0 0.2368826 0.9715383 0 0.2368025 0.9715579 0 -0.90169 -0.4323832 0 -0.9751008 -0.2217622 0 -0.9751003 -0.2217648 0 -0.9751265 0.2216494 1.60187e-7 -0.9017712 0.4322138 0 0.2369272 -0.9715275 0 -0.2368806 -0.9715389 0 -0.236802 -0.9715579 0 0.2369858 0.9715132 -8.75443e-7 0.4602978 0.8877646 0 -0.2369817 -0.9715142 -8.97795e-7 -0.4602941 -0.8877665 0 0.4603388 -0.8877434 0 0.2369223 -0.9715286 0 -0.9751456 0.2215653 0 -0.9751694 0.2214609 0 0.9016864 0.4323907 0 0.9751003 0.2217646 0 0.9750992 0.221769 0 0.9751464 -0.2215622 0 0.9751694 -0.2214606 0 -0.5933991 0.1394267 0.7927406 -0.5948262 -0.1319798 0.7929459 -0.5933749 -0.1395526 0.7927366 -0.1484701 -0.636911 0.7565058 0.159412 -0.6337528 0.7569314 0.1485006 -0.6369007 0.7565085 0.1484698 0.6369106 0.7565063 -0.1594121 0.6337532 0.7569312 -0.1484996 0.6369016 0.7565081 0.5934004 -0.1394269 0.7927396 0.5948256 0.1319813 0.7929461 0.5933731 0.1395553 0.7927375 -0.4344441 -0.4450905 0.7830407 -0.1593805 -0.6337643 0.7569284 -0.4522556 -0.4234772 0.7849408 0.4344878 -0.4450309 0.7830504 0.5948518 -0.1318553 0.7929474 0.4522995 -0.4234126 0.7849503 -0.4344876 0.4450307 0.7830507 -0.5948497 0.1318552 0.792949 -0.4522988 0.4234125 0.7849507 0.4344449 0.4450921 0.7830394 0.4522592 0.4234775 0.7849386 0.1593823 0.6337637 0.7569286 4.22584e-7 0 1 0.9916691 7.54483e-5 0.1288119 0.9627158 6.04612e-5 0.2705148 0.9918218 -1.07992e-4 0.1276307 -2.47653e-6 0 1 -1.97942e-5 0.9911828 0.132502 -2.12163e-5 0.9999381 0.01113688 -2.12863e-5 0.999938 0.01113688 3.31961e-5 -0.9912239 0.1321941 2.04223e-5 -0.9609445 0.2767416 2.1272e-5 -0.9911827 0.1325024 -0.9918203 1.08206e-4 0.127642 -0.999941 -6.24114e-5 0.01086664 -0.9916679 -7.2415e-5 0.1288214 -0.9627094 -5.81908e-5 0.2705379 -0.9913377 -5.97574e-5 0.131338 2.11617e-5 -0.9999381 0.01113724 -1.96216e-5 0.9609432 0.2767459 -1.98002e-5 0.9911824 0.1325053 0.999941 6.09913e-5 0.01086688 0.9919072 0.001684665 0.1269544 0.9919365 6.66203e-5 0.1267368 0.9627155 5.60009e-5 0.2705159 0.9920237 -1.45547e-6 0.1260524 0 0 1 3.84797e-5 0.9915961 0.1293725 -2.03338e-5 0.9999778 0.006657958 -2.02442e-5 0.9914806 0.1302548 2.83606e-5 -0.9915069 0.1300544 2.09022e-5 -0.9609447 0.2767409 -3.71072e-5 -0.9915944 0.1293851 -0.9920221 -5.36021e-6 0.1260645 -0.999979 -6.60042e-5 0.006496429 -0.991935 -7.18748e-5 0.1267474 -0.9627094 -6.00479e-5 0.270538 -0.9917483 -6.15083e-5 0.1282008 2.12301e-5 -0.9999779 0.006658136 9.85605e-4 -0.9916483 0.1289684 -1.95038e-5 0.9609434 0.2767453 0.9999789 6.55685e-5 0.006496727 0.9920716 0.001010179 0.1256702 1.87183e-5 -0.8466928 0.5320822 0 -3.19034e-4 -1 -2.14738e-5 0.8604398 0.5095521 0.9999999 3.92493e-4 2.13425e-4 -0.9999999 -3.91621e-4 -2.13452e-4 0.9919366 7.08867e-5 0.1267361 0.9627164 6.27169e-5 0.2705132 0.9920174 5.73236e-6 0.1261013 -2.45287e-6 0 1 3.89706e-5 0.9915961 0.1293731 -1.91595e-5 0.9999779 0.006657958 -1.8973e-5 0.9914805 0.1302555 2.76463e-5 -0.9915069 0.1300542 2.01281e-5 -0.9609445 0.2767412 -3.77655e-5 -0.9915944 0.1293855 -0.9920226 -4.84861e-6 0.1260604 -0.9999789 -6.51529e-5 0.006496727 -0.9919355 -7.09826e-5 0.126744 -0.9627106 -6.29433e-5 0.2705336 -0.9917427 -6.46189e-5 0.1282439 2.17039e-5 -0.9999779 0.006658136 9.86052e-4 -0.9916483 0.1289684 -1.70144e-5 0.9609432 0.2767455 0.9999789 6.08707e-5 0.006496489 0.9920716 0.00102818 0.1256698 0.8466926 3.73653e-6 0.5320824 3.18041e-4 0 -1 -0.8604428 -6.08793e-6 0.509547 -3.49313e-4 1 2.07462e-4 3.46894e-4 -1 -2.07488e-4 0.991669 7.6985e-5 0.128813 0.9627152 6.44538e-5 0.2705174 0.9918217 -1.04157e-4 0.1276319 -2.4765e-6 0 1 -1.97943e-5 0.9911828 0.1325023 -2.12164e-5 0.9999381 0.01113688 -2.12864e-5 0.999938 0.01113688 3.31923e-5 -0.9912239 0.1321942 2.04223e-5 -0.9609444 0.2767419 2.1272e-5 -0.9911827 0.1325026 -0.991827 1.09943e-4 0.1275897 -0.999941 -6.20812e-5 0.01086664 -0.9916681 -7.44704e-5 0.1288197 -0.9627087 -6.85357e-5 0.2705407 -0.9913374 -7.00317e-5 0.1313408 2.11617e-5 -0.9999381 0.01113718 -1.96215e-5 0.9609432 0.276746 -1.98003e-5 0.9911824 0.1325055 0.999941 6.47718e-5 0.01086682 0.9919072 0.00168842 0.1269544 0.9916691 7.54371e-5 0.1288118 0.9627158 6.04611e-5 0.2705148 0.9918218 -1.07992e-4 0.1276307 -3.73208e-6 0 1 -2.06659e-5 0.9911828 0.1325018 -2.05751e-5 0.9999381 0.01113694 -2.05615e-5 0.999938 0.01113694 3.10056e-5 -0.9912239 0.1321939 2.10058e-5 -0.9609445 0.2767413 2.14337e-5 -0.9911828 0.1325023 -0.9918204 1.08206e-4 0.1276419 -0.9999411 -6.24115e-5 0.01086664 -0.9916679 -7.24169e-5 0.1288214 -0.9913377 -5.97611e-5 0.131338 2.00468e-5 -0.9999381 0.01113724 -1.99343e-5 0.960943 0.2767467 -2.06525e-5 0.9911824 0.1325053 0.9999411 6.09913e-5 0.01086688 0.9919071 0.001684665 0.1269544 0.991669 7.69757e-5 0.1288129 0.9627152 6.44538e-5 0.2705173 0.9918282 -1.05721e-4 0.1275818 -3.73203e-6 0 1 -2.0666e-5 0.9911828 0.132502 -2.05752e-5 0.9999381 0.01113694 -2.05615e-5 0.999938 0.01113694 3.10009e-5 -0.9912239 0.1321939 2.10058e-5 -0.9609445 0.2767413 2.14337e-5 -0.9911828 0.1325023 -0.991827 1.09944e-4 0.1275897 -0.9999411 -6.20813e-5 0.01086664 -0.9916681 -7.44695e-5 0.1288197 -0.9913374 -7.00392e-5 0.1313408 2.00468e-5 -0.9999381 0.01113724 -1.99342e-5 0.9609431 0.2767462 -2.06525e-5 0.9911824 0.1325054 0.9999411 6.47718e-5 0.01086688 0.9919071 0.00168842 0.1269544 0.9919365 7.08345e-5 0.1267367 0.9627158 6.28118e-5 0.2705149 0.9920173 5.36264e-6 0.1261022 0 0 1 3.848e-5 0.9915961 0.1293728 -2.03339e-5 0.9999778 0.006657958 -2.02443e-5 0.9914806 0.1302548 2.83597e-5 -0.9915069 0.1300545 2.09022e-5 -0.9609445 0.2767412 -3.71071e-5 -0.9915944 0.1293852 -0.9920221 -4.78583e-6 0.1260641 -0.999979 -6.49565e-5 0.006496369 -0.9919351 -7.09258e-5 0.1267471 -0.9627088 -6.34792e-5 0.2705398 -0.991748 -6.48908e-5 0.1282027 2.12301e-5 -0.9999779 0.006658136 9.85599e-4 -0.9916483 0.1289684 -1.95039e-5 0.9609434 0.2767452 0.9999789 6.71677e-5 0.006496727 0.9920716 0.001034557 0.12567 1.87647e-5 -0.846692 0.5320836 -1.3747e-7 -3.19034e-4 -1 -2.14378e-5 0.8604416 0.5095492 -0.9999999 -3.91622e-4 -2.13451e-4 0.8466924 3.75374e-6 0.5320828 3.18041e-4 0 -1 -0.8604438 -6.08793e-6 0.5095454 -3.49308e-4 1 2.08394e-4 3.46895e-4 -1 -2.05619e-4 1.86862e-5 -0.8466914 0.5320844 0 -3.28702e-4 -1 -2.1221e-5 0.8604419 0.5095487 1 3.90625e-4 2.13425e-4 -1 -3.91081e-4 -2.13451e-4 0.8466902 3.75377e-6 0.5320864 3.23501e-4 0 -1 -0.8604447 -6.01792e-6 0.5095441 -3.49313e-4 1 2.07462e-4 3.46897e-4 -1 -2.07488e-4 1.8818e-5 -0.8466904 0.5320858 0 -3.28702e-4 -1 -2.12211e-5 0.8604436 0.5095458 -0.9999999 -3.91084e-4 -2.13451e-4 0.8466898 3.73655e-6 0.5320868 3.23501e-4 0 -1 -0.8604456 -6.03542e-6 0.5095424 -3.49308e-4 1 2.08394e-4 3.46898e-4 -1 -2.05619e-4 0.9919365 7.08699e-5 0.1267362 0.9627162 6.27171e-5 0.2705138 0.9920302 3.89373e-6 0.1260012 4.75026e-6 0 1 3.83783e-5 0.9915961 0.129373 -2.10218e-5 0.9999779 0.006657958 -2.08364e-5 0.9914806 0.1302552 2.78447e-5 -0.9915069 0.1300542 -3.79408e-5 -0.9915944 0.1293856 -0.9920225 -4.84855e-6 0.1260607 -0.999979 -6.5153e-5 0.006496727 -0.9919355 -7.09957e-5 0.1267443 -0.9627112 -6.29432e-5 0.2705315 -0.991743 -6.45034e-5 0.1282417 2.07563e-5 -0.9999779 0.006658017 9.85112e-4 -0.9916483 0.1289683 -1.78826e-5 0.9609431 0.276746 0.9999789 6.08707e-5 0.006496489 0.9920716 0.00102818 0.1256698 0.8466915 3.75374e-6 0.5320841 3.18036e-4 0 -1 -0.8604372 -6.0529e-6 0.5095567 -3.49308e-4 1 2.07459e-4 3.46889e-4 -1 -2.05616e-4 0.846689 3.71933e-6 0.5320881 3.23496e-4 0 -1 -0.8604389 -6.01788e-6 0.5095537 -3.49308e-4 1 2.07459e-4 3.46892e-4 -1 -2.05615e-4 0.8466926 3.71931e-6 0.5320824 3.18042e-4 0 -1 -0.8604441 -6.08794e-6 0.5095449 -3.49313e-4 1 2.07462e-4 3.46896e-4 -1 -2.0562e-4 3.23502e-4 0 -1 -0.8604459 -6.05291e-6 0.5095419 -3.49314e-4 1 2.07463e-4 3.46898e-4 -1 -2.05619e-4 1.88087e-5 -0.8466928 0.5320822 0 -3.19033e-4 -1 -2.15821e-5 0.860439 0.5095536 1 3.92495e-4 2.13424e-4 -0.9999999 -3.91621e-4 -2.13453e-4 1.87784e-5 -0.8466914 0.5320844 0 -3.28701e-4 -1 -2.13654e-5 0.860441 0.5095502 0.9999999 3.90626e-4 2.13425e-4 -1 -3.91081e-4 -2.13452e-4 1.86448e-5 -0.846692 0.5320833 0 -3.19034e-4 -1 -2.14738e-5 0.8604401 0.5095518 1 3.92493e-4 2.13425e-4 -0.9999999 -3.91621e-4 -2.13453e-4 1.8799e-5 -0.8466906 0.5320857 0 -3.28701e-4 -1 -2.1221e-5 0.8604421 0.5095484 0.9999999 3.90626e-4 2.13426e-4 -1 -3.91081e-4 -2.13451e-4 0.9017731 -0.4322098 0 0.4831848 -0.8736113 0.05775666 0.9003306 -0.431526 0.05648267 -0.4831851 0.8736112 0.05775672 -0.9003312 0.4315248 0.05648291 0.9002512 0.4316918 0.05648189 0.4831436 0.8736343 0.05775451 -0.4603423 0.8877415 0 -0.9016888 -0.4323859 0 -0.9017702 0.4322158 0 0.4602988 0.8877642 0 -0.460295 -0.887766 0 0.4603396 -0.8877429 0 0.9016868 0.4323899 0 -3.78425e-7 0 1 0.9913402 7.07656e-5 0.1313196 0.9627144 6.85362e-5 0.27052 0 0 1 1.64397e-5 -0.9908812 0.1347385 2.00838e-5 -0.9609441 0.2767427 -0.991901 -0.001688838 0.127002 -0.999941 -6.45197e-5 0.01086688 -0.962709 -5.98902e-5 0.2705392 2.114e-5 -0.999938 0.01113724 -1.98429e-5 0.9609434 0.2767452 0.9999411 6.34022e-5 0.01086705 0.9917446 6.5729e-5 0.1282286 0.9627147 6.34796e-5 0.2705187 -9.8555e-4 0.9916483 0.1289683 -2.11715e-5 0.9999778 0.006658017 1.62758e-5 -0.9913029 0.1316011 2.04767e-5 -0.9609446 0.2767412 -0.9920716 -0.001031994 0.1256697 -0.9999789 -6.47688e-5 0.006496429 -0.9627082 -6.35681e-5 0.270542 2.12485e-5 -0.9999778 0.006658136 -1.93063e-5 0.9609435 0.2767449 0.9999789 5.86705e-5 0.006496369 1.63421e-5 -0.8466629 0.5321297 0 -3.2145e-4 -1 -1.905e-5 0.8604695 0.5095021 0.9917455 6.5811e-5 0.1282222 0.9627165 6.34797e-5 0.2705125 -9.85111e-4 0.9916483 0.1289683 -2.07562e-5 0.9999779 0.006658017 1.59182e-5 -0.9913025 0.131603 1.96898e-5 -0.9609441 0.2767429 -0.9920716 -0.00102812 0.1256698 -0.9999789 -6.08207e-5 0.006496489 -0.9627107 -6.27165e-5 0.270533 2.07025e-5 -0.9999779 0.006658077 -1.57958e-5 0.9609436 0.2767447 0.999979 6.50875e-5 0.006496727 0.8466626 1.3432e-6 0.5321301 3.19852e-4 0 -1 -0.8604714 -3.71835e-6 0.5094989 0.9913409 6.181e-5 0.1313136 0.962716 5.94843e-5 0.2705141 1.66483e-5 -0.9908813 0.1347378 2.0084e-5 -0.9609444 0.276742 -0.991901 -0.001688838 0.127002 -0.999941 -6.45197e-5 0.01086688 -0.9627103 -5.98903e-5 0.2705346 2.114e-5 -0.999938 0.01113718 -1.98427e-5 0.9609434 0.2767454 0.9999411 6.70346e-5 0.01086705 0.9913402 7.08774e-5 0.1313189 0.9627145 6.85361e-5 0.2705194 1.60113e-5 -0.9908815 0.1347365 1.96725e-5 -0.9609447 0.2767409 -0.9919011 -0.001688838 0.127002 -0.9999411 -6.45198e-5 0.01086682 -0.9627091 -5.98903e-5 0.270539 1.99817e-5 -0.999938 0.01113724 -1.98429e-5 0.9609428 0.2767474 0.999941 6.34022e-5 0.01086705 0.991341 6.19516e-5 0.1313129 0.9627162 5.94842e-5 0.2705136 1.62423e-5 -0.9908816 0.1347357 1.96726e-5 -0.9609448 0.2767401 -0.9919011 -0.001688838 0.127002 -0.9999411 -6.45198e-5 0.01086688 -0.9627103 -5.98903e-5 0.2705346 1.99817e-5 -0.999938 0.01113724 -1.98427e-5 0.9609431 0.2767463 0.999941 6.70346e-5 0.01086705 0.9917454 6.58333e-5 0.128223 0.9627162 6.34797e-5 0.2705133 -9.85522e-4 0.9916483 0.1289683 1.63577e-5 -0.9913028 0.1316011 2.04768e-5 -0.9609445 0.2767411 -0.9920716 -0.001033604 0.1256697 -0.9999789 -6.63681e-5 0.006496489 -0.9627085 -6.28113e-5 0.2705412 2.12485e-5 -0.9999778 0.006658136 0.9999789 6.49566e-5 0.006496667 1.63421e-5 -0.8466618 0.5321314 0 -3.2145e-4 -1 -1.91419e-5 0.8604692 0.5095025 0.8466627 1.32598e-6 0.5321303 3.19848e-4 0 -1 -0.8604654 -4.30796e-6 0.509509 1.63422e-5 -0.8466622 0.5321308 0 -3.28701e-4 -1 -1.90917e-5 0.8604702 0.5095009 0.8466629 1.37764e-6 0.5321297 3.28381e-4 0 -1 -0.8604714 -3.77836e-6 0.5094989 1.63422e-5 -0.8466611 0.5321325 -1.9721e-7 -3.287e-4 -1 -1.91854e-5 0.8604699 0.5095013 0.8466629 1.39486e-6 0.5321298 3.28377e-4 0 -1 -0.8604654 -4.37307e-6 0.509509 0.9917455 6.59898e-5 0.1282222 0.9627165 6.34797e-5 0.2705126 -8.03595e-6 0 1 -9.86043e-4 0.9916483 0.1289682 -2.16953e-5 0.9999779 0.006658017 1.52141e-5 -0.9913027 0.1316013 1.89622e-5 -0.9609445 0.2767413 -0.9920716 -0.00102812 0.1256698 -0.9999789 -6.08208e-5 0.006496489 -0.9627106 -6.27167e-5 0.2705336 2.10193e-5 -0.9999779 0.006658196 -1.57958e-5 0.9609431 0.2767463 0.999979 6.50875e-5 0.006496667 0.8466614 1.30876e-6 0.5321322 3.19847e-4 0 -1 -0.8604654 -3.72584e-6 0.509509 0.8466616 1.41208e-6 0.5321317 3.28376e-4 0 -1 -0.8604654 -3.77833e-6 0.509509 0.8466628 1.3432e-6 0.5321299 3.19853e-4 0 -1 -0.8604726 -3.76484e-6 0.5094968 0.8466631 1.37764e-6 0.5321295 3.28382e-4 0 -1 -0.8604726 -3.81335e-6 0.5094968 1.64132e-5 -0.8466631 0.5321296 0 -3.21451e-4 -1 -1.89581e-5 0.86047 0.5095012 1.64843e-5 -0.8466624 0.5321307 0 -3.28701e-4 -1 -1.89979e-5 0.8604707 0.5095002 1.63421e-5 -0.846663 0.5321294 0 -3.2145e-4 -1 1.63422e-5 -0.8466623 0.5321305 0 -3.28701e-4 -1</float_array>
          <technique_common>
            <accessor source="#Esfera_2375-mesh-normals-array" count="486" stride="3">
              <param name="X" type="float"/>
              <param name="Y" type="float"/>
              <param name="Z" type="float"/>
            </accessor>
          </technique_common>
        </source>
        <source id="Esfera_2375-mesh-map-0">
          <float_array id="Esfera_2375-mesh-map-0-array" count="2220">0.1231807 0.09445697 0.2539244 0.9930285 0.2563661 0.09457975 0.3079709 0.4864329 0.3064034 0.4730949 0.3064034 0.4730949 0.1208425 0.9931378 0.2596876 0.09443902 0.1198762 0.0943101 0.2596818 0.09472656 0.1208392 0.9930199 0.2587177 0.9929678 0.2596818 0.09472656 0.2677336 0.9929644 0.2677321 0.1083043 0.1118323 0.9932002 0.123193 0.09416949 0.1118316 0.1077417 0.119873 0.09459763 0.1118234 0.9930233 0.1208392 0.9930199 0.2677283 0.9930233 0.2563661 0.09457975 0.2539244 0.9930285 0.1198762 0.0943101 0.1118265 0.9931412 0.1208425 0.9931378 0.2677506 0.9931412 0.2563876 0.09429222 0.2539457 0.9931464 0.1231807 0.09445697 0.1118206 0.9930823 0.1256245 0.9930771 0.2677395 0.9930823 0.2596876 0.09443902 0.2587236 0.9930857 0.2539457 0.9931464 0.123193 0.09416949 0.1256371 0.993195 0.3108739 0.9527751 0.3062295 0.9833808 0.3045785 0.9631285 0.3108739 0.9527751 0.319501 0.9341393 0.3156138 0.9689582 0.09862369 0.9527762 0.1032685 0.9833807 0.09388405 0.9689581 0.09862369 0.9527762 0.08999693 0.9341391 0.09593015 0.929011 0.3108743 0.4578305 0.3062295 0.427226 0.3156139 0.4416486 0.3108743 0.4578305 0.319501 0.4764676 0.3135678 0.4815956 0.09862399 0.4578316 0.08999693 0.4764675 0.09388405 0.4416485 0.09862399 0.4578316 0.1032685 0.427226 0.1049194 0.4474784 0.3135678 0.4815956 0.319501 0.9341393 0.3135677 0.9290078 0.3045785 0.9631285 0.1032685 0.9833807 0.1049185 0.9631285 0.1049194 0.4474784 0.3062295 0.427226 0.3045793 0.4474784 0.09593015 0.929011 0.08999693 0.4764675 0.09593021 0.4815989 0.1030945 0.9375118 0.1064752 0.9440245 0.1064752 0.9440245 0.1064752 0.9112274 0.3030211 0.9933319 0.3030211 0.9112274 0.1030952 0.4730971 0.1015271 0.4864392 0.1015271 0.4864392 0.101527 0.9241738 0.1030945 0.9375118 0.1030945 0.9375118 0.3030227 0.992922 0.1064769 0.9108174 0.1064769 0.992922 0.3030211 0.9440245 0.3064028 0.9375097 0.3064028 0.9375097 0.1064769 0.4665824 0.1030952 0.4730971 0.1030952 0.4730971 0.3064034 0.4730949 0.3030227 0.4665824 0.3030227 0.4665824 0.2085393 0.9931023 0.1067872 0.9103741 0.1067988 0.993126 0.3064028 0.9375097 0.3079708 0.9241674 0.3079708 0.9241674 0.1068013 0.9097805 0.2085536 0.9933589 0.208542 0.9097569 0.101527 0.9241738 0.09593021 0.4815989 0.1015271 0.4864392 0.1064769 0.4665824 0.3045793 0.4474784 0.3030227 0.4665824 0.3030211 0.9440245 0.1049185 0.9631285 0.1064752 0.9440245 0.3079709 0.4864329 0.3135677 0.9290078 0.3079708 0.9241674 0.1030952 0.4730971 0.1049194 0.4474784 0.1064769 0.4665824 0.1030952 0.4730971 0.09593021 0.4815989 0.09862399 0.4578316 0.3064034 0.4730949 0.3135678 0.4815956 0.3079709 0.4864329 0.3064034 0.4730949 0.3045793 0.4474784 0.3108743 0.4578305 0.1030945 0.9375118 0.09593015 0.929011 0.101527 0.9241738 0.1030945 0.9375118 0.1049185 0.9631285 0.09862369 0.9527762 0.3064028 0.9375097 0.3135677 0.9290078 0.3108739 0.9527751 0.3064028 0.9375097 0.3045785 0.9631285 0.3030211 0.9440245 0.4668548 0.3061023 0.466809 0.5425471 0.5700386 0.5425198 0.1093134 0.8985474 0.1574718 0.9884376 0.1574717 0.8985206 0.1573668 0.9881377 0.1095298 0.8985604 0.1573668 0.8985604 0.1093147 0.8985742 0.157473 0.09444648 0.1093147 0.09430271 0.1093141 0.8985206 0.1574724 0.9884358 0.1574724 0.8984938 0.1574745 0.8985742 0.1093161 0.094159 0.1093162 0.8986011 0.1574745 0.9884413 0.1093162 0.8986011 0.1093162 0.9884431 0.1574723 0.09473395 0.1093141 0.8985206 0.1574724 0.8984938 0.1093149 0.9884413 0.1574731 0.8985474 0.1093147 0.8985742 0.1093133 0.09444648 0.1574717 0.8985206 0.1574715 0.09459024 0.1093134 0.8985474 0.1574718 0.9884376 0.1574717 0.8985206 0.1573668 0.9881377 0.1095298 0.8985604 0.1573668 0.8985604 0.1574731 0.8985474 0.1093147 0.09430271 0.1093147 0.8985742 0.1093141 0.8985206 0.1574724 0.9884358 0.1574724 0.8984938 0.1574745 0.8985742 0.1093161 0.094159 0.1093162 0.8986011 0.1574745 0.9884413 0.1093162 0.8986011 0.1093162 0.9884431 0.1093139 0.09459024 0.1574724 0.8984938 0.1574723 0.09473395 0.1093149 0.9884413 0.1574731 0.8985474 0.1093147 0.8985742 0.1093133 0.09444648 0.1574717 0.8985206 0.1574715 0.09459024 0.005576789 0.0819267 0.2477366 0.01197493 0.005576014 0.01197916 0.005574584 0.08188945 0.2477366 0.01197493 0.2477375 0.0818839 0.005573928 0.01202172 0.2477375 0.0818839 0.2477387 0.0120154 0.4577882 0.2096518 0.4393698 0.2342139 0.4393697 0.1862689 0.4554548 0.2342097 0.4370365 0.2119305 0.4554549 0.186266 0.1093134 0.8985474 0.1574718 0.9884376 0.1574717 0.8985206 0.1573668 0.9881377 0.1095298 0.8985604 0.1573668 0.8985604 0.1574731 0.8985474 0.1093147 0.09430271 0.1093147 0.8985742 0.1093141 0.8985206 0.1574724 0.9884358 0.1574724 0.8984938 0.1574745 0.8985742 0.1093161 0.094159 0.1093162 0.8986011 0.1574745 0.9884413 0.1093162 0.8986011 0.1093162 0.9884431 0.1093139 0.09459024 0.1574724 0.8984938 0.1574723 0.09473395 0.1093149 0.9884413 0.1574731 0.8985474 0.1093147 0.8985742 0.1093133 0.09444648 0.1574717 0.8985206 0.1574715 0.09459024 0.005576789 0.0819267 0.2477366 0.01197493 0.005576014 0.01197916 0.005574584 0.08188945 0.2477366 0.01197493 0.2477375 0.0818839 0.005573928 0.01202172 0.2477375 0.0818839 0.2477387 0.0120154 0.4577882 0.2096518 0.4393698 0.2342139 0.4393697 0.1862689 0.4554548 0.2342097 0.4370365 0.2119305 0.4554549 0.186266 0.1093134 0.8985474 0.1574718 0.9884376 0.1574717 0.8985206 0.1573668 0.9881377 0.1095298 0.8985604 0.1573668 0.8985604 0.1093147 0.8985742 0.157473 0.09444648 0.1093147 0.09430271 0.1093141 0.8985206 0.1574724 0.9884358 0.1574724 0.8984938 0.1574745 0.8985742 0.1093161 0.094159 0.1093162 0.8986011 0.1574745 0.9884413 0.1093162 0.8986011 0.1093162 0.9884431 0.1574723 0.09473395 0.1093141 0.8985206 0.1574724 0.8984938 0.1093149 0.9884413 0.1574731 0.8985474 0.1093147 0.8985742 0.1093133 0.09444648 0.1574717 0.8985206 0.1574715 0.09459024 0.1093134 0.8985474 0.1574718 0.9884376 0.1574717 0.8985206 0.1573668 0.9881377 0.1095298 0.8985604 0.1573668 0.8985604 0.1093147 0.8985742 0.157473 0.09444648 0.1093147 0.09430271 0.1093141 0.8985206 0.1574724 0.9884358 0.1574724 0.8984938 0.1574745 0.8985742 0.1093161 0.094159 0.1093162 0.8986011 0.1574745 0.9884413 0.1093162 0.8986011 0.1093162 0.9884431 0.1574723 0.09473395 0.1093141 0.8985206 0.1574724 0.8984938 0.1093149 0.9884413 0.1574731 0.8985474 0.1093147 0.8985742 0.1093133 0.09444648 0.1574717 0.8985206 0.1574715 0.09459024 0.1093134 0.8985474 0.1574718 0.9884376 0.1574717 0.8985206 0.1573668 0.9881377 0.1095298 0.8985604 0.1573668 0.8985604 0.1093147 0.8985742 0.157473 0.09444648 0.1093147 0.09430271 0.1093141 0.8985206 0.1574724 0.9884358 0.1574724 0.8984938 0.1574745 0.8985742 0.1093161 0.094159 0.1093162 0.8986011 0.1574745 0.9884413 0.1093162 0.8986011 0.1093162 0.9884431 0.1574723 0.09473395 0.1093141 0.8985206 0.1574724 0.8984938 0.1093149 0.9884413 0.1574731 0.8985474 0.1093147 0.8985742 0.1093133 0.09444648 0.1574717 0.8985206 0.1574715 0.09459024 0.1093134 0.8985474 0.1574718 0.9884376 0.1574717 0.8985206 0.1573668 0.9881377 0.1095298 0.8985604 0.1573668 0.8985604 0.1574731 0.8985474 0.1093147 0.09430271 0.1093147 0.8985742 0.1093141 0.8985206 0.1574724 0.9884358 0.1574724 0.8984938 0.1574745 0.8985742 0.1093161 0.094159 0.1093162 0.8986011 0.1574745 0.9884413 0.1093162 0.8986011 0.1093162 0.9884431 0.1093139 0.09459024 0.1574724 0.8984938 0.1574723 0.09473395 0.1093149 0.9884413 0.1574731 0.8985474 0.1093147 0.8985742 0.1093133 0.09444648 0.1574717 0.8985206 0.1574715 0.09459024 0.005576789 0.0819267 0.2477366 0.01197493 0.005576014 0.01197916 0.005574584 0.08188945 0.2477366 0.01197493 0.2477375 0.0818839 0.005573928 0.01202172 0.2477375 0.0818839 0.2477387 0.0120154 0.4577882 0.2096518 0.4393698 0.2342139 0.4393697 0.1862689 0.4554548 0.2342097 0.4370365 0.2119305 0.4554549 0.186266 0.005576789 0.0819267 0.2477366 0.01197493 0.005576014 0.01197916 0.005574584 0.08188945 0.2477366 0.01197493 0.2477375 0.0818839 0.005573928 0.01202172 0.2477375 0.0818839 0.2477387 0.0120154 0.4577882 0.2096518 0.4393698 0.2342139 0.4393697 0.1862689 0.4554548 0.2342097 0.4370365 0.2119305 0.4554549 0.186266 0.005576789 0.0819267 0.2477366 0.01197493 0.005576014 0.01197916 0.005574584 0.08188945 0.2477366 0.01197493 0.2477375 0.0818839 0.005573928 0.01202172 0.2477375 0.0818839 0.2477387 0.0120154 0.4577882 0.2096518 0.4393698 0.2342139 0.4393697 0.1862689 0.4554548 0.2342097 0.4370365 0.2119305 0.4554549 0.186266 0.005576789 0.0819267 0.2477366 0.01197493 0.005576014 0.01197916 0.005574584 0.08188945 0.2477366 0.01197493 0.2477375 0.0818839 0.005573928 0.01202172 0.2477375 0.0818839 0.2477387 0.0120154 0.4577882 0.2096518 0.4393698 0.2342139 0.4393697 0.1862689 0.4554548 0.2342097 0.4370365 0.2119305 0.4554549 0.186266 0.005576789 0.0819267 0.2477366 0.01197493 0.005576014 0.01197916 0.005574584 0.08188945 0.2477366 0.01197493 0.2477375 0.0818839 0.005573928 0.01202172 0.2477375 0.0818839 0.2477387 0.0120154 0.4577882 0.2096518 0.4393698 0.2342139 0.4393697 0.1862689 0.4554548 0.2342097 0.4370365 0.2119305 0.4554549 0.186266 0.005576789 0.0819267 0.2477366 0.01197493 0.005576014 0.01197916 0.005574584 0.08188945 0.2477366 0.01197493 0.2477375 0.0818839 0.005573928 0.01202172 0.2477375 0.0818839 0.2477387 0.0120154 0.4577882 0.2096518 0.4393698 0.2342139 0.4393697 0.1862689 0.4554548 0.2342097 0.4370365 0.2119305 0.4554549 0.186266 0.1093134 0.8985474 0.1574718 0.9884376 0.1574717 0.8985206 0.1573668 0.9881377 0.1095298 0.8985604 0.1573668 0.8985604 0.1574731 0.8985474 0.1093147 0.09430271 0.1093147 0.8985742 0.1093141 0.8985206 0.1574724 0.9884358 0.1574724 0.8984938 0.1574745 0.8985742 0.1093161 0.094159 0.1093162 0.8986011 0.1574745 0.9884413 0.1093162 0.8986011 0.1093162 0.9884431 0.1093139 0.09459024 0.1574724 0.8984938 0.1574723 0.09473395 0.1093149 0.9884413 0.1574731 0.8985474 0.1093147 0.8985742 0.1093133 0.09444648 0.1574717 0.8985206 0.1574715 0.09459024 0.005576789 0.0819267 0.2477366 0.01197493 0.005576014 0.01197916 0.005574584 0.08188945 0.2477366 0.01197493 0.2477375 0.0818839 0.005573928 0.01202172 0.2477375 0.0818839 0.2477387 0.0120154 0.4577882 0.2096518 0.4393698 0.2342139 0.4393697 0.1862689 0.4554548 0.2342097 0.4370365 0.2119305 0.4554549 0.186266 0.005576789 0.0819267 0.2477366 0.01197493 0.005576014 0.01197916 0.005574584 0.08188945 0.2477366 0.01197493 0.2477375 0.0818839 0.005573928 0.01202172 0.2477375 0.0818839 0.2477387 0.0120154 0.4577882 0.2096518 0.4393698 0.2342139 0.4393697 0.1862689 0.4554548 0.2342097 0.4370365 0.2119305 0.4554549 0.186266 0.005576789 0.0819267 0.2477366 0.01197493 0.005576014 0.01197916 0.005574584 0.08188945 0.2477366 0.01197493 0.2477375 0.0818839 0.005573928 0.01202172 0.2477375 0.0818839 0.2477387 0.0120154 0.4577882 0.2096518 0.4393698 0.2342139 0.4393697 0.1862689 0.4554548 0.2342097 0.4370365 0.2119305 0.4554549 0.186266 0.005576789 0.0819267 0.2477366 0.01197493 0.005576014 0.01197916 0.005574584 0.08188945 0.2477366 0.01197493 0.2477375 0.0818839 0.005573928 0.01202172 0.2477375 0.0818839 0.2477387 0.0120154 0.4577882 0.2096518 0.4393698 0.2342139 0.4393697 0.1862689 0.4554548 0.2342097 0.4370365 0.2119305 0.4554549 0.186266 0.005576789 0.0819267 0.2477366 0.01197493 0.005576014 0.01197916 0.005574584 0.08188945 0.2477366 0.01197493 0.2477375 0.0818839 0.005573928 0.01202172 0.2477375 0.0818839 0.2477387 0.0120154 0.4577882 0.2096518 0.4393698 0.2342139 0.4393697 0.1862689 0.4554548 0.2342097 0.4370365 0.2119305 0.4554549 0.186266 0.005576789 0.0819267 0.2477366 0.01197493 0.005576014 0.01197916 0.005574584 0.08188945 0.2477366 0.01197493 0.2477375 0.0818839 0.005573928 0.01202172 0.2477375 0.0818839 0.2477387 0.0120154 0.4577882 0.2096518 0.4393698 0.2342139 0.4393697 0.1862689 0.4554548 0.2342097 0.4370365 0.2119305 0.4554549 0.186266 0.005576789 0.0819267 0.2477366 0.01197493 0.005576014 0.01197916 0.005574584 0.08188945 0.2477366 0.01197493 0.2477375 0.0818839 0.005573928 0.01202172 0.2477375 0.0818839 0.2477387 0.0120154 0.4577882 0.2096518 0.4393698 0.2342139 0.4393697 0.1862689 0.4554548 0.2342097 0.4370365 0.2119305 0.4554549 0.186266 0.005576789 0.0819267 0.2477366 0.01197493 0.005576014 0.01197916 0.005574584 0.08188945 0.2477366 0.01197493 0.2477375 0.0818839 0.005573928 0.01202172 0.2477375 0.0818839 0.2477387 0.0120154 0.4577882 0.2096518 0.4393698 0.2342139 0.4393697 0.1862689 0.4554548 0.2342097 0.4370365 0.2119305 0.4554549 0.186266 0.1231807 0.09445697 0.1256245 0.9930771 0.2539244 0.9930285 0.3079709 0.4864329 0.3079709 0.4864329 0.3064034 0.4730949 0.1208425 0.9931378 0.2587236 0.9930857 0.2596876 0.09443902 0.2596818 0.09472656 0.119873 0.09459763 0.1208392 0.9930199 0.2596818 0.09472656 0.2587177 0.9929678 0.2677336 0.9929644 0.1118323 0.9932002 0.1256371 0.993195 0.123193 0.09416949 0.119873 0.09459763 0.1118227 0.1081652 0.1118234 0.9930233 0.2677283 0.9930233 0.2677269 0.1081652 0.2563661 0.09457975 0.1198762 0.0943101 0.1118257 0.1078837 0.1118265 0.9931412 0.2677506 0.9931412 0.2677492 0.1078837 0.2563876 0.09429222 0.1231807 0.09445697 0.11182 0.108023 0.1118206 0.9930823 0.2677395 0.9930823 0.2677381 0.1080229 0.2596876 0.09443902 0.2539457 0.9931464 0.2563876 0.09429222 0.123193 0.09416949 0.3108739 0.9527751 0.3156138 0.9689582 0.3062295 0.9833808 0.3108739 0.9527751 0.3135677 0.9290078 0.319501 0.9341393 0.09862369 0.9527762 0.1049185 0.9631285 0.1032685 0.9833807 0.09862369 0.9527762 0.09388405 0.9689581 0.08999693 0.9341391 0.3108743 0.4578305 0.3045793 0.4474784 0.3062295 0.427226 0.3108743 0.4578305 0.3156139 0.4416486 0.319501 0.4764676 0.09862399 0.4578316 0.09593021 0.4815989 0.08999693 0.4764675 0.09862399 0.4578316 0.09388405 0.4416485 0.1032685 0.427226 0.3135678 0.4815956 0.319501 0.4764676 0.319501 0.9341393 0.3045785 0.9631285 0.3062295 0.9833808 0.1032685 0.9833807 0.1049194 0.4474784 0.1032685 0.427226 0.3062295 0.427226 0.09593015 0.929011 0.08999693 0.9341391 0.08999693 0.4764675 0.1030945 0.9375118 0.1030945 0.9375118 0.1064752 0.9440245 0.1064752 0.9112274 0.1064752 0.993332 0.3030211 0.9933319 0.1030952 0.4730971 0.1030952 0.4730971 0.1015271 0.4864392 0.101527 0.9241738 0.101527 0.9241738 0.1030945 0.9375118 0.3030227 0.992922 0.3030227 0.9108174 0.1064769 0.9108174 0.3030211 0.9440245 0.3030211 0.9440245 0.3064028 0.9375097 0.1064769 0.4665824 0.1064769 0.4665824 0.1030952 0.4730971 0.3064034 0.4730949 0.3064034 0.4730949 0.3030227 0.4665824 0.2085393 0.9931023 0.2085278 0.9103505 0.1067872 0.9103741 0.3064028 0.9375097 0.3064028 0.9375097 0.3079708 0.9241674 0.1068013 0.9097805 0.106813 0.9933822 0.2085536 0.9933589 0.101527 0.9241738 0.09593015 0.929011 0.09593021 0.4815989 0.1064769 0.4665824 0.1049194 0.4474784 0.3045793 0.4474784 0.3030211 0.9440245 0.3045785 0.9631285 0.1049185 0.9631285 0.3079709 0.4864329 0.3135678 0.4815956 0.3135677 0.9290078 0.1030952 0.4730971 0.09862399 0.4578316 0.1049194 0.4474784 0.1030952 0.4730971 0.1015271 0.4864392 0.09593021 0.4815989 0.3064034 0.4730949 0.3108743 0.4578305 0.3135678 0.4815956 0.3064034 0.4730949 0.3030227 0.4665824 0.3045793 0.4474784 0.1030945 0.9375118 0.09862369 0.9527762 0.09593015 0.929011 0.1030945 0.9375118 0.1064752 0.9440245 0.1049185 0.9631285 0.3064028 0.9375097 0.3079708 0.9241674 0.3135677 0.9290078 0.3064028 0.9375097 0.3108739 0.9527751 0.3045785 0.9631285 0.4668548 0.3061023 0.5700386 0.5425198 0.5701221 0.3062708 0.1093134 0.8985474 0.1093135 0.9884395 0.1574718 0.9884376 0.1573668 0.9881377 0.1095298 0.9881377 0.1095298 0.8985604 0.1093147 0.8985742 0.1574731 0.8985474 0.157473 0.09444648 0.1093141 0.8985206 0.1093142 0.9884376 0.1574724 0.9884358 0.1574745 0.8985742 0.1574743 0.09430271 0.1093161 0.094159 0.1574745 0.9884413 0.1574745 0.8985742 0.1093162 0.8986011 0.1574723 0.09473395 0.1093139 0.09459024 0.1093141 0.8985206 0.1093149 0.9884413 0.1574732 0.9884395 0.1574731 0.8985474 0.1093133 0.09444648 0.1093134 0.8985474 0.1574717 0.8985206 0.1093134 0.8985474 0.1093135 0.9884395 0.1574718 0.9884376 0.1573668 0.9881377 0.1095298 0.9881377 0.1095298 0.8985604 0.1574731 0.8985474 0.157473 0.09444648 0.1093147 0.09430271 0.1093141 0.8985206 0.1093142 0.9884376 0.1574724 0.9884358 0.1574745 0.8985742 0.1574743 0.09430271 0.1093161 0.094159 0.1574745 0.9884413 0.1574745 0.8985742 0.1093162 0.8986011 0.1093139 0.09459024 0.1093141 0.8985206 0.1574724 0.8984938 0.1093149 0.9884413 0.1574732 0.9884395 0.1574731 0.8985474 0.1093133 0.09444648 0.1093134 0.8985474 0.1574717 0.8985206 0.005576789 0.0819267 0.2477353 0.0819205 0.2477366 0.01197493 0.005574584 0.08188945 0.005576014 0.01197916 0.2477366 0.01197493 0.005573928 0.01202172 0.005574584 0.08188945 0.2477375 0.0818839 0.1093134 0.8985474 0.1093135 0.9884395 0.1574718 0.9884376 0.1573668 0.9881377 0.1095298 0.9881377 0.1095298 0.8985604 0.1574731 0.8985474 0.157473 0.09444648 0.1093147 0.09430271 0.1093141 0.8985206 0.1093142 0.9884376 0.1574724 0.9884358 0.1574745 0.8985742 0.1574743 0.09430271 0.1093161 0.094159 0.1574745 0.9884413 0.1574745 0.8985742 0.1093162 0.8986011 0.1093139 0.09459024 0.1093141 0.8985206 0.1574724 0.8984938 0.1093149 0.9884413 0.1574732 0.9884395 0.1574731 0.8985474 0.1093133 0.09444648 0.1093134 0.8985474 0.1574717 0.8985206 0.005576789 0.0819267 0.2477353 0.0819205 0.2477366 0.01197493 0.005574584 0.08188945 0.005576014 0.01197916 0.2477366 0.01197493 0.005573928 0.01202172 0.005574584 0.08188945 0.2477375 0.0818839 0.1093134 0.8985474 0.1093135 0.9884395 0.1574718 0.9884376 0.1573668 0.9881377 0.1095298 0.9881377 0.1095298 0.8985604 0.1093147 0.8985742 0.1574731 0.8985474 0.157473 0.09444648 0.1093141 0.8985206 0.1093142 0.9884376 0.1574724 0.9884358 0.1574745 0.8985742 0.1574743 0.09430271 0.1093161 0.094159 0.1574745 0.9884413 0.1574745 0.8985742 0.1093162 0.8986011 0.1574723 0.09473395 0.1093139 0.09459024 0.1093141 0.8985206 0.1093149 0.9884413 0.1574732 0.9884395 0.1574731 0.8985474 0.1093133 0.09444648 0.1093134 0.8985474 0.1574717 0.8985206 0.1093134 0.8985474 0.1093135 0.9884395 0.1574718 0.9884376 0.1573668 0.9881377 0.1095298 0.9881377 0.1095298 0.8985604 0.1093147 0.8985742 0.1574731 0.8985474 0.157473 0.09444648 0.1093141 0.8985206 0.1093142 0.9884376 0.1574724 0.9884358 0.1574745 0.8985742 0.1574743 0.09430271 0.1093161 0.094159 0.1574745 0.9884413 0.1574745 0.8985742 0.1093162 0.8986011 0.1574723 0.09473395 0.1093139 0.09459024 0.1093141 0.8985206 0.1093149 0.9884413 0.1574732 0.9884395 0.1574731 0.8985474 0.1093133 0.09444648 0.1093134 0.8985474 0.1574717 0.8985206 0.1093134 0.8985474 0.1093135 0.9884395 0.1574718 0.9884376 0.1573668 0.9881377 0.1095298 0.9881377 0.1095298 0.8985604 0.1093147 0.8985742 0.1574731 0.8985474 0.157473 0.09444648 0.1093141 0.8985206 0.1093142 0.9884376 0.1574724 0.9884358 0.1574745 0.8985742 0.1574743 0.09430271 0.1093161 0.094159 0.1574745 0.9884413 0.1574745 0.8985742 0.1093162 0.8986011 0.1574723 0.09473395 0.1093139 0.09459024 0.1093141 0.8985206 0.1093149 0.9884413 0.1574732 0.9884395 0.1574731 0.8985474 0.1093133 0.09444648 0.1093134 0.8985474 0.1574717 0.8985206 0.1093134 0.8985474 0.1093135 0.9884395 0.1574718 0.9884376 0.1573668 0.9881377 0.1095298 0.9881377 0.1095298 0.8985604 0.1574731 0.8985474 0.157473 0.09444648 0.1093147 0.09430271 0.1093141 0.8985206 0.1093142 0.9884376 0.1574724 0.9884358 0.1574745 0.8985742 0.1574743 0.09430271 0.1093161 0.094159 0.1574745 0.9884413 0.1574745 0.8985742 0.1093162 0.8986011 0.1093139 0.09459024 0.1093141 0.8985206 0.1574724 0.8984938 0.1093149 0.9884413 0.1574732 0.9884395 0.1574731 0.8985474 0.1093133 0.09444648 0.1093134 0.8985474 0.1574717 0.8985206 0.005576789 0.0819267 0.2477353 0.0819205 0.2477366 0.01197493 0.005574584 0.08188945 0.005576014 0.01197916 0.2477366 0.01197493 0.005573928 0.01202172 0.005574584 0.08188945 0.2477375 0.0818839 0.005576789 0.0819267 0.2477353 0.0819205 0.2477366 0.01197493 0.005574584 0.08188945 0.005576014 0.01197916 0.2477366 0.01197493 0.005573928 0.01202172 0.005574584 0.08188945 0.2477375 0.0818839 0.005576789 0.0819267 0.2477353 0.0819205 0.2477366 0.01197493 0.005574584 0.08188945 0.005576014 0.01197916 0.2477366 0.01197493 0.005573928 0.01202172 0.005574584 0.08188945 0.2477375 0.0818839 0.005576789 0.0819267 0.2477353 0.0819205 0.2477366 0.01197493 0.005574584 0.08188945 0.005576014 0.01197916 0.2477366 0.01197493 0.005573928 0.01202172 0.005574584 0.08188945 0.2477375 0.0818839 0.005576789 0.0819267 0.2477353 0.0819205 0.2477366 0.01197493 0.005574584 0.08188945 0.005576014 0.01197916 0.2477366 0.01197493 0.005573928 0.01202172 0.005574584 0.08188945 0.2477375 0.0818839 0.005576789 0.0819267 0.2477353 0.0819205 0.2477366 0.01197493 0.005574584 0.08188945 0.005576014 0.01197916 0.2477366 0.01197493 0.005573928 0.01202172 0.005574584 0.08188945 0.2477375 0.0818839 0.1093134 0.8985474 0.1093135 0.9884395 0.1574718 0.9884376 0.1573668 0.9881377 0.1095298 0.9881377 0.1095298 0.8985604 0.1574731 0.8985474 0.157473 0.09444648 0.1093147 0.09430271 0.1093141 0.8985206 0.1093142 0.9884376 0.1574724 0.9884358 0.1574745 0.8985742 0.1574743 0.09430271 0.1093161 0.094159 0.1574745 0.9884413 0.1574745 0.8985742 0.1093162 0.8986011 0.1093139 0.09459024 0.1093141 0.8985206 0.1574724 0.8984938 0.1093149 0.9884413 0.1574732 0.9884395 0.1574731 0.8985474 0.1093133 0.09444648 0.1093134 0.8985474 0.1574717 0.8985206 0.005576789 0.0819267 0.2477353 0.0819205 0.2477366 0.01197493 0.005574584 0.08188945 0.005576014 0.01197916 0.2477366 0.01197493 0.005573928 0.01202172 0.005574584 0.08188945 0.2477375 0.0818839 0.005576789 0.0819267 0.2477353 0.0819205 0.2477366 0.01197493 0.005574584 0.08188945 0.005576014 0.01197916 0.2477366 0.01197493 0.005573928 0.01202172 0.005574584 0.08188945 0.2477375 0.0818839 0.005576789 0.0819267 0.2477353 0.0819205 0.2477366 0.01197493 0.005574584 0.08188945 0.005576014 0.01197916 0.2477366 0.01197493 0.005573928 0.01202172 0.005574584 0.08188945 0.2477375 0.0818839 0.005576789 0.0819267 0.2477353 0.0819205 0.2477366 0.01197493 0.005574584 0.08188945 0.005576014 0.01197916 0.2477366 0.01197493 0.005573928 0.01202172 0.005574584 0.08188945 0.2477375 0.0818839 0.005576789 0.0819267 0.2477353 0.0819205 0.2477366 0.01197493 0.005574584 0.08188945 0.005576014 0.01197916 0.2477366 0.01197493 0.005573928 0.01202172 0.005574584 0.08188945 0.2477375 0.0818839 0.005576789 0.0819267 0.2477353 0.0819205 0.2477366 0.01197493 0.005574584 0.08188945 0.005576014 0.01197916 0.2477366 0.01197493 0.005573928 0.01202172 0.005574584 0.08188945 0.2477375 0.0818839 0.005576789 0.0819267 0.2477353 0.0819205 0.2477366 0.01197493 0.005574584 0.08188945 0.005576014 0.01197916 0.2477366 0.01197493 0.005573928 0.01202172 0.005574584 0.08188945 0.2477375 0.0818839 0.005576789 0.0819267 0.2477353 0.0819205 0.2477366 0.01197493 0.005574584 0.08188945 0.005576014 0.01197916 0.2477366 0.01197493 0.005573928 0.01202172 0.005574584 0.08188945 0.2477375 0.0818839</float_array>
          <technique_common>
            <accessor source="#Esfera_2375-mesh-map-0-array" count="1110" stride="2">
              <param name="S" type="float"/>
              <param name="T" type="float"/>
            </accessor>
          </technique_common>
        </source>
        <source id="Esfera_2375-mesh-map-1">
          <float_array id="Esfera_2375-mesh-map-1-array" count="2220">0.4339181 0.6482098 0.6052402 0.3261001 0.6245325 0.6482098 0.5891013 0.6542572 0.5651334 0.6497339 0.5886552 0.6497339 0.03206634 0.007327318 0.196817 0.329755 0.01299971 0.329755 0.4081599 0.329504 0.2434093 0.00736165 0.3890987 0.00736165 0.4081599 0.329504 0.4020986 0.0059641 0.4211598 0.3280133 0.4419739 0 0.4339182 0.3234711 0.4226858 0.3223986 0.2243427 0.329504 0.2304095 0.0059641 0.2434093 0.00736165 0.6164717 0.3249954 0.6245325 0.6482098 0.6052402 0.3261001 0.01299971 0.329755 0.01906675 0.005969703 0.03206634 0.007327318 0.6164712 0 0.6245325 0.3234707 0.6052398 0.001072466 0.4339181 0.6482098 0.4419744 0.3249951 0.4532068 0.3260998 0.1907558 0.005969583 0.196817 0.329755 0.1777559 0.007327318 0.6052398 0.001072466 0.4339182 0.3234711 0.4532063 0.001072466 0.5272184 0.6613083 0.5336518 0.6497339 0.535939 0.6567912 0.5272184 0.6613083 0.5152678 0.6676848 0.5206523 0.6564671 0.3509938 0.5093156 0.3445593 0.4977431 0.3575595 0.5044734 0.3509938 0.5093156 0.3629443 0.51569 0.3547251 0.5170879 0.5272201 0.8258929 0.5336545 0.8374654 0.5206545 0.8307352 0.5272201 0.8258929 0.5152696 0.8195186 0.5234888 0.8181206 0.3509956 0.6739003 0.3629461 0.6675237 0.3575616 0.6787415 0.3509956 0.6739003 0.3445621 0.6854748 0.3422749 0.6784173 0.5234888 0.8181206 0.5152678 0.6676848 0.5234869 0.6690821 0.386812 0 0.2434093 0.00736165 0.2456955 0 0.1754692 0 0.03206634 0.007327318 0.03435266 0 0.3547251 0.5170879 0.3629461 0.6675237 0.354727 0.6661265 0.4902011 0.6497339 0.5132519 0.6544109 0.4897114 0.6544107 0.4897114 0.6544107 0.5132519 0.7910339 0.4897114 0.7910338 0.5631742 0.8051842 0.5400558 0.8006591 0.5636073 0.8006591 0.5636073 0.6542571 0.5396227 0.6497339 0.5631743 0.6497339 0.4569141 0.6544107 0.480425 0.791034 0.4569142 0.7910338 0.4897114 0.7910338 0.5137418 0.7957124 0.4902012 0.7957122 0.4569142 0.7910338 0.4809293 0.7957124 0.4574185 0.7957122 0.4574183 0.6497339 0.480425 0.6544109 0.4569141 0.6544107 0.5636073 0.8006591 0.5400558 0.6542572 0.5636073 0.6542571 0.5886552 0.8051842 0.5655796 0.8006592 0.5891014 0.8006591 0.5891014 0.8006591 0.5655795 0.6542572 0.5891013 0.6542572 0.3469721 0.5184066 0.354727 0.6661265 0.3469739 0.6648085 0.4569142 0.7910338 0.449626 0.652257 0.4569141 0.6544107 0.4897114 0.7910338 0.4824552 0.6522569 0.4897114 0.6544107 0.5312419 0.816802 0.5234869 0.6690821 0.5312401 0.6704 0.3448018 0.6693336 0.3422749 0.6784173 0.3401174 0.67176 0.3448018 0.6693336 0.354727 0.6661265 0.3509956 0.6739003 0.5334134 0.8213253 0.5234888 0.8181206 0.5312419 0.816802 0.5334134 0.8213253 0.5359404 0.8304075 0.5272201 0.8258929 0.3448005 0.5138834 0.3547251 0.5170879 0.3469721 0.5184066 0.3448005 0.5138834 0.3422735 0.5048011 0.3509938 0.5093156 0.5334122 0.6658749 0.5234869 0.6690821 0.5272184 0.6613083 0.5334122 0.6658749 0.535939 0.6567912 0.5380965 0.6634485 0.2113429 0.4962187 0.2113429 0.331028 0.3654416 0.3310284 0.09293365 0.3638021 0.116266 0.331279 0.1253157 0.3638021 0.7385456 0.7224022 0.7524824 0.7366662 0.7385456 0.7366667 0.6861482 0.3858973 0.7226433 0.7050884 0.6812443 0.7050884 0.2162468 0.5303167 0.2390134 0.4977431 0.2478433 0.5303167 0.6746971 0.03250926 0.63729 0.3518145 0.6423149 0.03250932 0.6656472 0 0.6423149 0.03250932 0.6513637 0 0.2527417 0.8491359 0.2162468 0.5303167 0.2478433 0.5303167 0.6949787 0.3533385 0.7177447 0.3858973 0.6861482 0.3858973 0.0879085 0.6827343 0.1253157 0.3638021 0.1303368 0.6827343 0.8682492 0.373304 0.8825727 0.3533384 0.8881282 0.373304 0.7818455 0.7832938 0.790401 0.7920503 0.7818455 0.7920506 0.9696565 0.373326 0.9472483 0.7039939 0.9502598 0.373326 0.9772002 0.373335 0.9911762 0.3533385 0.9965968 0.373335 0.8329836 0.3732956 0.8100191 0.7040969 0.8131045 0.3732956 0.8274279 0.3533384 0.8131045 0.3732956 0.8186596 0.3533384 0.9741885 0.7036047 0.9965968 0.373335 0.9996028 0.7036047 0.9556808 0.3533385 0.9696565 0.373326 0.9502598 0.373326 0.8651636 0.703706 0.8881282 0.373304 0.8912097 0.703706 0.8860686 0.9259594 0.8950773 0.7052336 0.8950784 0.9259629 0.1550633 0.9049876 0.1451424 0.684262 0.1550633 0.6842583 0.6372901 0.7063179 0.6462226 0.9270471 0.6372901 0.9270471 0.7689878 0.7595303 0.7610326 0.7547208 0.7689878 0.7496226 0.759515 0.7432882 0.7515514 0.7480986 0.7515514 0.7381909 0.8692779 0.01996558 0.8836013 0 0.8891569 0.01996552 0.7321834 0.7828418 0.7407391 0.7915983 0.7321834 0.7915987 0.9427161 0.373326 0.9203081 0.703994 0.9233195 0.3733261 0.9775974 0.01999646 0.9915735 0 0.996994 0.01999646 0.1987819 0.3512361 0.1758171 0.6820374 0.1789029 0.3512361 0.1932263 0.3312789 0.1789029 0.3512361 0.1844578 0.3312789 0.9745858 0.3502662 0.996994 0.01999646 1 0.3502662 0.9287403 0.3533385 0.9427161 0.373326 0.9233195 0.3733261 0.8661927 0.3503676 0.8891569 0.01996552 0.8922389 0.3503676 0.3880244 0.9120506 0.3970258 0.6843696 0.3970268 0.9120537 0.6234419 0.8774179 0.6135212 0.6497372 0.6234419 0.6497338 0.8651635 0.7052304 0.874089 0.9329141 0.8651635 0.9329144 0.7618179 0.7811659 0.7618179 0.7718734 0.7703065 0.7760381 0.7803912 0.7496226 0.7887395 0.7537046 0.7803912 0.7590574 0.1368876 0.3638021 0.16022 0.3312789 0.1692697 0.3638021 0.7230829 0.7224022 0.7370197 0.7366663 0.7230828 0.7366669 0.7719981 0.3858973 0.8084929 0.7050884 0.7670941 0.7050884 0.7730273 0.03257346 0.7957939 0 0.8046238 0.03257346 0.4043747 0.3635373 0.3669677 0.6828424 0.3719926 0.3635373 0.3953248 0.331028 0.3719926 0.3635373 0.3810414 0.3310279 0.8095222 0.3513928 0.7730273 0.03257346 0.8046238 0.03257346 0.7808284 0.3533385 0.8035944 0.3858973 0.7719981 0.3858973 0.1318628 0.6827343 0.1692697 0.3638021 0.1742911 0.6827343 0.6423152 0.3858616 0.6656476 0.3533385 0.6746972 0.3858616 0.7385455 0.706613 0.7524823 0.7208771 0.7385455 0.7208776 0.7290732 0.3858973 0.7655682 0.7050884 0.7241693 0.7050884 0.2591717 0.5303166 0.2819383 0.4977431 0.2907682 0.5303166 0.08136129 0.3637883 0.04395425 0.6830935 0.04897916 0.3637883 0.07231134 0.331279 0.04897916 0.3637883 0.05802798 0.331279 0.2956665 0.8491359 0.2591717 0.5303166 0.2907682 0.5303166 0.7379037 0.3533385 0.7606697 0.3858973 0.7290732 0.3858973 0.63729 0.7047938 0.6746972 0.3858616 0.6797183 0.7047938 0.6862691 0.03252315 0.7096015 0 0.7186512 0.03252315 0.7230829 0.706613 0.7370197 0.7208771 0.7230827 0.7208777 0.7301024 0.03255885 0.7665974 0.35175 0.7251986 0.35175 0.3020964 0.5303166 0.324863 0.4977431 0.3336929 0.5303166 0.03740698 0.3637883 0 0.6830934 0.00502485 0.3637883 0.02835702 0.331279 0.00502485 0.3637883 0.01407366 0.3312789 0.3385913 0.8491359 0.3020964 0.5303166 0.3336929 0.5303166 0.7389328 0 0.7616988 0.03255885 0.7301024 0.03255885 0.6812443 0.3514553 0.7186512 0.03252315 0.7236726 0.3514553 0.8958212 0.373304 0.9101446 0.3533384 0.9157002 0.373304 0.7519406 0.782988 0.7604961 0.7917445 0.7519406 0.791745 0.9161731 0.01998758 0.893765 0.3506555 0.8967764 0.01998758 0.9506573 0.01999652 0.9646333 0 0.9700539 0.01999652 0.8340128 0.01995718 0.8110483 0.3507584 0.8141338 0.01995718 0.8284572 0 0.8141338 0.01995718 0.8196887 0 0.9476456 0.3502662 0.9700539 0.01999652 0.9730598 0.3502662 0.9021975 0 0.9161731 0.01998758 0.8967764 0.01998758 0.8927357 0.703706 0.9157002 0.373304 0.9187819 0.703706 0.810019 0.9263502 0.8190277 0.7056244 0.8190287 0.9263536 0.1092761 0.9049876 0.09935534 0.684262 0.1092761 0.6842582 0.7021635 0.7066125 0.7110961 0.9273417 0.7021635 0.9273417 0.7595067 0.7595304 0.7515514 0.7547208 0.7595067 0.7496226 0.7500255 0.7432882 0.7420619 0.7480986 0.7420619 0.7381909 0.377496 0.9120506 0.3864974 0.6843696 0.3864984 0.9120537 0.6005483 0.8774179 0.5906274 0.6497372 0.6005482 0.6497339 0.3401173 0.6869989 0.3490428 0.9146827 0.3401173 0.914683 0.7519405 0.7651518 0.760292 0.7610545 0.760292 0.7704997 0.7897933 0.7610545 0.7897933 0.7703374 0.7813084 0.7652033 0.8416261 0.9263502 0.8506349 0.7056243 0.8506358 0.9263536 0.1665101 0.9049876 0.1565893 0.6842619 0.1665101 0.6842582 0.6477496 0.7063179 0.6566823 0.9270471 0.6477496 0.9270471 0.7689963 0.7480986 0.7610411 0.743289 0.7689963 0.7381908 0.7321833 0.7610545 0.7405359 0.7651547 0.7321833 0.7705008 0 0.9123015 0.009001374 0.6846206 0.009002327 0.9123046 0.6348887 0.8774179 0.6249679 0.6497372 0.6348887 0.6497338 0.06485944 0.6846178 0.073785 0.9123015 0.06485944 0.9123017 0.7405359 0.7595304 0.7325743 0.7547208 0.7405359 0.7496227 0.7809207 0.7231414 0.7729709 0.7279519 0.7729709 0.7180442 0.8205549 0.9263502 0.8295635 0.7056244 0.8295645 0.9263537 0.1207229 0.9049876 0.1108021 0.6842619 0.1207229 0.6842582 0.6582093 0.7063179 0.6671419 0.9270471 0.6582093 0.9270471 0.7619637 0.7165203 0.7540084 0.7117106 0.7619637 0.7066125 0.7420619 0.7610545 0.7504144 0.7651547 0.7420619 0.7705008 0.01052826 0.9123015 0.0195297 0.6846206 0.01953071 0.9123046 0.6119951 0.8774179 0.6020743 0.6497372 0.611995 0.6497339 0.04395425 0.6846178 0.05287981 0.9123015 0.04395425 0.9123017 0.7735044 0.7165181 0.7735044 0.7072255 0.7819931 0.71139 0.7799981 0.7381908 0.7883464 0.7422729 0.7799981 0.7476256 0.8417065 0.01996552 0.8560299 0 0.8615854 0.01996552 0.7835191 0.7072258 0.7920749 0.7159823 0.7835191 0.7159827 0.9431133 0.01998758 0.9207052 0.3506555 0.9237167 0.01998758 0.4256974 0.6697304 0.4396736 0.6497339 0.445094 0.6697304 0.8605564 0.3732956 0.8375914 0.7040969 0.8406774 0.3732956 0.8550008 0.3533385 0.8406774 0.3732956 0.8462324 0.3533385 0.4226858 1 0.445094 0.6697304 0.4481 1 0.9291375 0 0.9431133 0.01998758 0.9237167 0.01998758 0.8386205 0.3503676 0.8615854 0.01996552 0.8646668 0.3503676 0.3669676 0.9120505 0.375969 0.6843695 0.37597 0.9120536 0.4208428 0.5587121 0.4109219 0.3310315 0.4208428 0.3310281 0.3505699 0.6869989 0.3594954 0.9146827 0.3505699 0.9146829 0.7310442 0.7595304 0.7230826 0.7547208 0.7310442 0.7496226 0.7797824 0.7661519 0.7718327 0.7709624 0.7718327 0.7610545 0.02105671 0.9123015 0.03005808 0.6846206 0.03005903 0.9123046 0.4208428 0.7879235 0.4109219 0.5602428 0.4208428 0.5602395 0.05440682 0.6846177 0.06333243 0.9123014 0.05440688 0.9123017 0.7500233 0.7595305 0.7420617 0.7547208 0.7500233 0.7496226 0.778472 0.743288 0.7705222 0.7480986 0.7705222 0.7381908 0.3985528 0.9120505 0.4075542 0.6843695 0.4075552 0.9120536 0.1857378 0.9112454 0.1758171 0.6835648 0.1857378 0.6835615 0.8756161 0.7052304 0.8845415 0.9329141 0.8756161 0.9329144 0.7321834 0.7813173 0.7321834 0.7720248 0.740672 0.7761895 0.7909315 0.7180442 0.7909315 0.7273272 0.7824467 0.7221931 0.03158503 0.9123015 0.04058647 0.6846206 0.04058748 0.9123046 0.1971845 0.9112454 0.1872639 0.6835648 0.1971845 0.6835615 0.07531201 0.6846178 0.08423757 0.9123015 0.07531201 0.9123018 0.7705139 0.7537198 0.7788653 0.7496225 0.7788653 0.7590676 0.7903302 0.7724864 0.7903302 0.7817694 0.7818455 0.7766352 0.8966044 0.9259593 0.9056131 0.7052335 0.9056142 0.9259628 0.1321697 0.9049876 0.1222489 0.684262 0.1321697 0.6842583 0.7126231 0.7066125 0.7215557 0.9273418 0.7126231 0.9273418 0.7714449 0.727952 0.7634897 0.7231424 0.7714449 0.7180442 0.7405359 0.7432881 0.7325723 0.7480986 0.7325723 0.7381908 0.8521618 0.9263502 0.8611705 0.7056243 0.8611716 0.9263536 0.1436164 0.9049876 0.1336957 0.684262 0.1436164 0.6842583 0.6686689 0.7063179 0.6776015 0.9270471 0.6686689 0.9270471 0.7718328 0.7817735 0.7718328 0.7724863 0.7803196 0.7766425 0.7703067 0.7610546 0.7703067 0.7703495 0.7618179 0.7652216 0.9071403 0.9259595 0.916149 0.7052336 0.91615 0.9259629 0.2086313 0.9042907 0.1987105 0.683565 0.2086313 0.6835614 0.6812443 0.7066124 0.6901769 0.9273416 0.6812443 0.9273417 0.7519405 0.7761127 0.76029 0.7720237 0.76029 0.7814636 0.7719785 0.7072256 0.7719785 0.7165203 0.7634898 0.7113927 0.8310905 0.9263502 0.8400992 0.7056244 0.8401002 0.9263536 0.09782928 0.9049876 0.0879085 0.684262 0.09782928 0.6842582 0.6917039 0.7066125 0.7006366 0.9273418 0.6917039 0.9273418 0.7619636 0.727952 0.7540084 0.7231424 0.7619636 0.7180442 0.7310463 0.7432881 0.7230827 0.7480986 0.7230827 0.7381909 0.4339181 0.6482098 0.4532068 0.3260998 0.6052402 0.3261001 0.5891013 0.6542572 0.5655795 0.6542572 0.5651334 0.6497339 0.03206634 0.007327318 0.1777559 0.007327318 0.196817 0.329755 0.4081599 0.329504 0.2243427 0.329504 0.2434093 0.00736165 0.4081599 0.329504 0.3890987 0.00736165 0.4020986 0.0059641 0.4419739 0 0.4532063 0.001072466 0.4339182 0.3234711 0.2243427 0.329504 0.2113429 0.3280134 0.2304095 0.0059641 0.6164717 0.3249954 0.635764 0.6471051 0.6245325 0.6482098 0.01299971 0.329755 0 0.3283068 0.01906675 0.005969703 0.6164712 0 0.635764 0.3223983 0.6245325 0.3234707 0.4339181 0.6482098 0.4226858 0.647105 0.4419744 0.3249951 0.1907558 0.005969583 0.2098169 0.3283068 0.196817 0.329755 0.6052398 0.001072466 0.6245325 0.3234707 0.4339182 0.3234711 0.5272184 0.6613083 0.5206523 0.6564671 0.5336518 0.6497339 0.5272184 0.6613083 0.5234869 0.6690821 0.5152678 0.6676848 0.3509938 0.5093156 0.3422735 0.5048011 0.3445593 0.4977431 0.3509938 0.5093156 0.3575595 0.5044734 0.3629443 0.51569 0.5272201 0.8258929 0.5359404 0.8304075 0.5336545 0.8374654 0.5272201 0.8258929 0.5206545 0.8307352 0.5152696 0.8195186 0.3509956 0.6739003 0.354727 0.6661265 0.3629461 0.6675237 0.3509956 0.6739003 0.3575616 0.6787415 0.3445621 0.6854748 0.5234888 0.8181206 0.5152696 0.8195186 0.5152678 0.6676848 0.386812 0 0.3890987 0.00736165 0.2434093 0.00736165 0.1754692 0 0.1777559 0.007327318 0.03206634 0.007327318 0.3547251 0.5170879 0.3629443 0.51569 0.3629461 0.6675237 0.4902011 0.6497339 0.5137416 0.649734 0.5132519 0.6544109 0.4897114 0.6544107 0.5132519 0.6544109 0.5132519 0.7910339 0.5631742 0.8051842 0.5396226 0.8051843 0.5400558 0.8006591 0.5636073 0.6542571 0.5400558 0.6542572 0.5396227 0.6497339 0.4569141 0.6544107 0.480425 0.6544109 0.480425 0.791034 0.4897114 0.7910338 0.5132519 0.7910339 0.5137418 0.7957124 0.4569142 0.7910338 0.480425 0.791034 0.4809293 0.7957124 0.4574183 0.6497339 0.480929 0.6497341 0.480425 0.6544109 0.5636073 0.8006591 0.5400558 0.8006591 0.5400558 0.6542572 0.5886552 0.8051842 0.5651334 0.8051843 0.5655796 0.8006592 0.5891014 0.8006591 0.5655796 0.8006592 0.5655795 0.6542572 0.3469721 0.5184066 0.3547251 0.5170879 0.354727 0.6661265 0.4569142 0.7910338 0.449626 0.793188 0.449626 0.652257 0.4897114 0.7910338 0.4824552 0.793188 0.4824552 0.6522569 0.5312419 0.816802 0.5234888 0.8181206 0.5234869 0.6690821 0.3448018 0.6693336 0.3509956 0.6739003 0.3422749 0.6784173 0.3448018 0.6693336 0.3469739 0.6648085 0.354727 0.6661265 0.5334134 0.8213253 0.5272201 0.8258929 0.5234888 0.8181206 0.5334134 0.8213253 0.5380965 0.8237497 0.5359404 0.8304075 0.3448005 0.5138834 0.3509938 0.5093156 0.3547251 0.5170879 0.3448005 0.5138834 0.3401173 0.5114588 0.3422735 0.5048011 0.5334122 0.6658749 0.5312401 0.6704 0.5234869 0.6690821 0.5334122 0.6658749 0.5272184 0.6613083 0.535939 0.6567912 0.2113429 0.4962187 0.3654416 0.3310284 0.3654416 0.496219 0.09293365 0.3638021 0.1019827 0.331279 0.116266 0.331279 0.7385456 0.7224022 0.7524825 0.7224016 0.7524824 0.7366662 0.6861482 0.3858973 0.7177447 0.3858973 0.7226433 0.7050884 0.2162468 0.5303167 0.2250764 0.4977431 0.2390134 0.4977431 0.6746971 0.03250926 0.6797183 0.3518145 0.63729 0.3518145 0.6656472 0 0.6746971 0.03250926 0.6423149 0.03250932 0.2527417 0.8491359 0.2113429 0.8491359 0.2162468 0.5303167 0.6949787 0.3533385 0.7089154 0.3533385 0.7177447 0.3858973 0.0879085 0.6827343 0.09293365 0.3638021 0.1253157 0.3638021 0.8682492 0.373304 0.8738042 0.3533385 0.8825727 0.3533384 0.7818455 0.7832938 0.7904011 0.7832934 0.790401 0.7920503 0.9696565 0.373326 0.9726625 0.7039939 0.9472483 0.7039939 0.9772002 0.373335 0.9826207 0.3533385 0.9911762 0.3533385 0.8329836 0.3732956 0.8360652 0.7040969 0.8100191 0.7040969 0.8274279 0.3533384 0.8329836 0.3732956 0.8131045 0.3732956 0.9741885 0.7036047 0.9772002 0.373335 0.9965968 0.373335 0.9556808 0.3533385 0.9642363 0.3533385 0.9696565 0.373326 0.8651636 0.703706 0.8682492 0.373304 0.8881282 0.373304 0.8860686 0.9259594 0.8860686 0.7052301 0.8950773 0.7052336 0.1550633 0.9049876 0.1451424 0.9049913 0.1451424 0.684262 0.6372901 0.7063179 0.6462236 0.7063179 0.6462226 0.9270471 0.8692779 0.01996558 0.8748329 0 0.8836013 0 0.7321834 0.7828418 0.7407391 0.7828414 0.7407391 0.7915983 0.9427161 0.373326 0.9457223 0.703994 0.9203081 0.703994 0.9775974 0.01999646 0.9830178 0 0.9915735 0 0.1987819 0.3512361 0.2018634 0.6820374 0.1758171 0.6820374 0.1932263 0.3312789 0.1987819 0.3512361 0.1789029 0.3512361 0.9745858 0.3502662 0.9775974 0.01999646 0.996994 0.01999646 0.9287403 0.3533385 0.9372961 0.3533385 0.9427161 0.373326 0.8661927 0.3503676 0.8692779 0.01996558 0.8891569 0.01996552 0.3880244 0.9120506 0.3880245 0.6843665 0.3970258 0.6843696 0.6234419 0.8774179 0.6135212 0.8774213 0.6135212 0.6497372 0.8651635 0.7052304 0.87409 0.7052301 0.874089 0.9329141 0.1368876 0.3638021 0.1459366 0.3312789 0.16022 0.3312789 0.7230829 0.7224022 0.7370197 0.7224017 0.7370197 0.7366663 0.7719981 0.3858973 0.8035944 0.3858973 0.8084929 0.7050884 0.7730273 0.03257346 0.7818571 0 0.7957939 0 0.4043747 0.3635373 0.4093959 0.6828424 0.3669677 0.6828424 0.3953248 0.331028 0.4043747 0.3635373 0.3719926 0.3635373 0.8095222 0.3513928 0.7681234 0.3513928 0.7730273 0.03257346 0.7808284 0.3533385 0.7947654 0.3533385 0.8035944 0.3858973 0.1318628 0.6827343 0.1368876 0.3638021 0.1692697 0.3638021 0.6423152 0.3858616 0.6513642 0.3533385 0.6656476 0.3533385 0.7385455 0.706613 0.7524825 0.7066124 0.7524823 0.7208771 0.7290732 0.3858973 0.7606697 0.3858973 0.7655682 0.7050884 0.2591717 0.5303166 0.2680014 0.4977431 0.2819383 0.4977431 0.08136129 0.3637883 0.0863825 0.6830935 0.04395425 0.6830935 0.07231134 0.331279 0.08136129 0.3637883 0.04897916 0.3637883 0.2956665 0.8491359 0.2542677 0.8491359 0.2591717 0.5303166 0.7379037 0.3533385 0.7518404 0.3533385 0.7606697 0.3858973 0.63729 0.7047938 0.6423152 0.3858616 0.6746972 0.3858616 0.6862691 0.03252315 0.6953181 0 0.7096015 0 0.7230829 0.706613 0.7370197 0.7066124 0.7370197 0.7208771 0.7301024 0.03255885 0.7616988 0.03255885 0.7665974 0.35175 0.3020964 0.5303166 0.3109263 0.4977431 0.324863 0.4977431 0.03740698 0.3637883 0.04242825 0.6830934 0 0.6830934 0.02835702 0.331279 0.03740698 0.3637883 0.00502485 0.3637883 0.3385913 0.8491359 0.2971925 0.8491359 0.3020964 0.5303166 0.7389328 0 0.7528697 0 0.7616988 0.03255885 0.6812443 0.3514553 0.6862691 0.03252315 0.7186512 0.03252315 0.8958212 0.373304 0.9013763 0.3533385 0.9101446 0.3533384 0.7519406 0.782988 0.7604961 0.7829876 0.7604961 0.7917445 0.9161731 0.01998758 0.9191792 0.3506555 0.893765 0.3506555 0.9506573 0.01999652 0.9560777 0 0.9646333 0 0.8340128 0.01995718 0.8370945 0.3507584 0.8110483 0.3507584 0.8284572 0 0.8340128 0.01995718 0.8141338 0.01995718 0.9476456 0.3502662 0.9506573 0.01999652 0.9700539 0.01999652 0.9021975 0 0.910753 0 0.9161731 0.01998758 0.8927357 0.703706 0.8958212 0.373304 0.9157002 0.373304 0.810019 0.9263502 0.810019 0.7056209 0.8190277 0.7056244 0.1092761 0.9049876 0.09935534 0.9049913 0.09935534 0.684262 0.7021635 0.7066125 0.7110971 0.7066124 0.7110961 0.9273417 0.377496 0.9120506 0.377496 0.6843665 0.3864974 0.6843696 0.6005483 0.8774179 0.5906274 0.8774213 0.5906274 0.6497372 0.3401173 0.6869989 0.3490439 0.6869987 0.3490428 0.9146827 0.8416261 0.9263502 0.8416261 0.7056209 0.8506349 0.7056243 0.1665101 0.9049876 0.1565893 0.9049913 0.1565893 0.6842619 0.6477496 0.7063179 0.6566832 0.7063179 0.6566823 0.9270471 0 0.9123015 0 0.6846175 0.009001374 0.6846206 0.6348887 0.8774179 0.6249679 0.8774213 0.6249679 0.6497372 0.06485944 0.6846178 0.07378596 0.6846175 0.073785 0.9123015 0.8205549 0.9263502 0.8205549 0.705621 0.8295635 0.7056244 0.1207229 0.9049876 0.1108021 0.9049912 0.1108021 0.6842619 0.6582093 0.7063179 0.6671429 0.7063179 0.6671419 0.9270471 0.01052826 0.9123015 0.01052832 0.6846175 0.0195297 0.6846206 0.6119951 0.8774179 0.6020743 0.8774213 0.6020743 0.6497372 0.04395425 0.6846178 0.05288082 0.6846175 0.05287981 0.9123015 0.8417065 0.01996552 0.8472616 0 0.8560299 0 0.7835191 0.7072258 0.7920749 0.7072255 0.7920749 0.7159823 0.9431133 0.01998758 0.9461195 0.3506555 0.9207052 0.3506555 0.4256974 0.6697304 0.4311178 0.6497339 0.4396736 0.6497339 0.8605564 0.3732956 0.8636375 0.7040969 0.8375914 0.7040969 0.8550008 0.3533385 0.8605564 0.3732956 0.8406774 0.3732956 0.4226858 1 0.4256974 0.6697304 0.445094 0.6697304 0.9291375 0 0.9376932 0 0.9431133 0.01998758 0.8386205 0.3503676 0.8417065 0.01996552 0.8615854 0.01996552 0.3669676 0.9120505 0.3669676 0.6843665 0.375969 0.6843695 0.4208428 0.5587121 0.4109219 0.5587155 0.4109219 0.3310315 0.3505699 0.6869989 0.3594964 0.6869986 0.3594954 0.9146827 0.02105671 0.9123015 0.02105671 0.6846175 0.03005808 0.6846206 0.4208428 0.7879235 0.4109219 0.7879269 0.4109219 0.5602428 0.05440682 0.6846177 0.06333345 0.6846175 0.06333243 0.9123014 0.3985528 0.9120505 0.3985528 0.6843665 0.4075542 0.6843695 0.1857378 0.9112454 0.1758171 0.9112488 0.1758171 0.6835648 0.8756161 0.7052304 0.8845426 0.7052301 0.8845415 0.9329141 0.03158503 0.9123015 0.03158503 0.6846175 0.04058647 0.6846206 0.1971845 0.9112454 0.1872639 0.9112488 0.1872639 0.6835648 0.07531201 0.6846178 0.08423858 0.6846175 0.08423757 0.9123015 0.8966044 0.9259593 0.8966044 0.70523 0.9056131 0.7052335 0.1321697 0.9049876 0.122249 0.9049913 0.1222489 0.684262 0.7126231 0.7066125 0.7215567 0.7066125 0.7215557 0.9273418 0.8521618 0.9263502 0.8521618 0.7056209 0.8611705 0.7056243 0.1436164 0.9049876 0.1336957 0.9049913 0.1336957 0.684262 0.6686689 0.7063179 0.6776025 0.7063178 0.6776015 0.9270471 0.9071403 0.9259595 0.9071403 0.7052302 0.916149 0.7052336 0.2086313 0.9042907 0.1987106 0.9042944 0.1987105 0.683565 0.6812443 0.7066124 0.6901779 0.7066124 0.6901769 0.9273416 0.8310905 0.9263502 0.8310905 0.7056209 0.8400992 0.7056244 0.09782928 0.9049876 0.0879085 0.9049913 0.0879085 0.684262 0.6917039 0.7066125 0.7006375 0.7066125 0.7006366 0.9273418</float_array>
          <technique_common>
            <accessor source="#Esfera_2375-mesh-map-1-array" count="1110" stride="2">
              <param name="S" type="float"/>
              <param name="T" type="float"/>
            </accessor>
          </technique_common>
        </source>
        <vertices id="Esfera_2375-mesh-vertices">
          <input semantic="POSITION" source="#Esfera_2375-mesh-positions"/>
        </vertices>
        <triangles material="A_A__-_text_mandé_FINAIS_021-material" count="370">
          <input semantic="VERTEX" source="#Esfera_2375-mesh-vertices" offset="0"/>
          <input semantic="NORMAL" source="#Esfera_2375-mesh-normals" offset="1"/>
          <input semantic="TEXCOORD" source="#Esfera_2375-mesh-map-0" offset="2" set="0"/>
          <input semantic="TEXCOORD" source="#Esfera_2375-mesh-map-1" offset="2" set="1"/>
          <p>22 0 0 29 1 1 9 2 2 19 3 3 42 4 4 20 4 5 31 5 6 21 6 7 4 7 8 0 8 9 28 9 10 24 10 11 0 8 12 25 11 13 2 12 14 25 13 15 1 14 16 2 15 17 10 16 18 27 17 19 28 9 20 27 18 21 9 2 22 29 1 23 4 7 24 30 19 25 31 5 26 30 20 27 3 21 28 32 22 29 22 0 30 33 23 31 34 24 32 33 25 33 21 6 34 35 26 35 32 22 36 1 14 37 26 27 38 49 28 39 24 29 40 48 30 41 49 28 42 26 31 43 25 32 44 51 33 45 28 34 46 27 35 47 51 33 48 29 36 49 53 37 50 54 38 51 31 39 52 30 40 53 54 38 54 32 41 55 56 42 56 57 43 57 34 44 58 33 45 59 57 43 60 35 46 61 59 47 62 56 42 63 26 31 64 50 48 65 48 30 66 28 34 67 52 49 68 59 47 69 31 39 70 55 50 71 53 37 72 34 44 73 58 51 74 14 52 75 40 53 76 12 54 77 12 54 78 36 55 79 7 56 80 17 57 81 46 58 82 15 59 83 13 60 84 39 61 85 14 61 86 18 62 87 47 63 88 16 64 89 7 65 90 37 66 91 8 66 92 16 67 93 45 68 94 17 68 95 20 69 96 43 70 97 18 62 98 15 59 99 41 71 100 13 72 101 8 73 102 38 74 103 6 75 104 6 75 105 44 76 106 19 77 107 13 78 108 58 79 109 15 80 110 16 81 111 55 82 112 18 83 113 7 84 114 52 85 115 12 86 116 19 87 117 50 88 118 6 89 119 17 90 120 59 91 121 16 81 122 17 90 123 58 79 124 57 92 125 20 93 126 56 94 127 19 87 128 20 93 129 55 82 130 54 95 131 14 96 132 53 97 133 13 78 134 14 96 135 52 85 136 51 98 137 8 99 138 50 88 139 49 100 140 8 99 141 48 101 142 7 84 143 62 102 144 63 102 145 61 102 146 75 103 147 68 104 148 73 105 149 66 106 150 69 106 151 70 106 152 74 107 153 71 108 154 65 109 155 73 110 156 66 111 157 72 112 158 74 113 159 64 114 160 72 115 161 70 116 162 72 117 163 66 116 164 64 118 165 73 110 166 72 112 167 70 119 168 75 120 169 74 107 170 71 121 171 73 122 172 67 121 173 87 123 174 80 124 175 85 125 176 78 126 177 81 126 178 82 126 179 87 127 180 77 128 181 86 129 182 85 130 183 78 131 184 84 132 185 86 133 186 76 134 187 84 135 188 82 136 189 84 137 190 78 136 191 79 138 192 84 139 193 76 138 194 82 140 195 87 127 196 86 129 197 83 141 198 85 142 199 79 141 200 93 143 201 91 143 202 92 143 203 89 144 204 91 144 205 88 144 206 93 145 207 88 145 208 90 145 209 89 146 210 93 146 211 92 146 212 90 147 213 88 147 214 91 147 215 105 148 216 98 149 217 103 150 218 96 151 219 99 151 220 100 151 221 105 152 222 95 153 223 104 154 224 103 155 225 96 156 226 102 157 227 104 158 228 94 159 229 102 160 230 100 161 231 102 162 232 96 161 233 97 163 234 102 164 235 94 163 236 100 165 237 105 152 238 104 154 239 101 166 240 103 167 241 97 166 242 111 168 243 109 168 244 110 168 245 107 169 246 109 169 247 106 169 248 111 170 249 106 170 250 108 170 251 107 171 252 111 171 253 110 171 254 108 172 255 106 172 256 109 172 257 123 173 258 116 174 259 121 175 260 114 176 261 117 176 262 118 176 263 122 177 264 119 178 265 113 179 266 121 180 267 114 181 268 120 182 269 122 183 270 112 184 271 120 185 272 118 186 273 120 187 274 114 186 275 112 188 276 121 180 277 120 182 278 118 189 279 123 190 280 122 177 281 119 191 282 121 192 283 115 191 284 135 193 285 128 194 286 133 195 287 126 196 288 129 196 289 130 196 290 134 197 291 131 198 292 125 199 293 133 200 294 126 201 295 132 202 296 134 203 297 124 204 298 132 205 299 130 116 300 132 206 301 126 116 302 124 207 303 133 200 304 132 202 305 130 208 306 135 209 307 134 197 308 131 210 309 133 211 310 127 210 311 147 212 312 140 213 313 145 214 314 138 215 315 141 215 316 142 215 317 146 216 318 143 217 319 137 218 320 145 219 321 138 220 322 144 221 323 146 222 324 136 223 325 144 224 326 142 186 327 144 225 328 138 186 329 136 226 330 145 219 331 144 221 332 142 227 333 147 228 334 146 216 335 143 229 336 145 230 337 139 229 338 159 231 339 152 232 340 157 233 341 150 234 342 153 234 343 154 234 344 159 235 345 149 236 346 158 237 347 157 238 348 150 239 349 156 240 350 158 241 351 148 242 352 156 243 353 154 244 354 156 245 355 150 244 356 151 246 357 156 247 358 148 246 359 154 248 360 159 235 361 158 237 362 155 249 363 157 250 364 151 249 365 165 251 366 163 251 367 164 251 368 161 252 369 163 252 370 160 252 371 165 253 372 160 253 373 162 253 374 161 146 375 165 146 376 164 146 377 162 254 378 160 254 379 163 254 380 171 255 381 169 255 382 170 255 383 167 256 384 169 256 385 166 256 386 171 257 387 166 257 388 168 257 389 167 258 390 171 258 391 170 258 392 168 259 393 166 259 394 169 259 395 177 260 396 175 260 397 176 260 398 173 261 399 175 261 400 172 261 401 177 262 402 172 262 403 174 262 404 173 263 405 177 263 406 176 263 407 174 264 408 172 264 409 175 264 410 183 265 411 181 265 412 182 265 413 179 266 414 181 266 415 178 266 416 183 267 417 178 267 418 180 267 419 179 268 420 183 268 421 182 268 422 180 269 423 178 269 424 181 269 425 189 270 426 187 270 427 188 270 428 185 271 429 187 271 430 184 271 431 189 272 432 184 272 433 186 272 434 185 263 435 189 263 436 188 263 437 186 273 438 184 273 439 187 273 440 195 274 441 193 274 442 194 274 443 191 275 444 193 275 445 190 275 446 195 276 447 190 276 448 192 276 449 191 277 450 195 277 451 194 277 452 192 278 453 190 278 454 193 278 455 207 279 456 200 280 457 205 281 458 198 282 459 201 282 460 202 282 461 207 283 462 197 284 463 206 285 464 205 286 465 198 156 466 204 287 467 206 288 468 196 289 469 204 290 470 202 291 471 204 292 472 198 291 473 199 293 474 204 294 475 196 293 476 202 295 477 207 283 478 206 285 479 203 296 480 205 297 481 199 296 482 213 298 483 211 298 484 212 298 485 209 299 486 211 299 487 208 299 488 213 300 489 208 300 490 210 300 491 209 301 492 213 301 493 212 301 494 210 302 495 208 302 496 211 302 497 219 303 498 217 303 499 218 303 500 215 304 501 217 304 502 214 304 503 219 305 504 214 305 505 216 305 506 215 306 507 219 306 508 218 306 509 216 307 510 214 307 511 217 307 512 225 308 513 223 308 514 224 308 515 221 309 516 223 309 517 220 309 518 225 310 519 220 310 520 222 310 521 221 311 522 225 311 523 224 311 524 222 312 525 220 312 526 223 312 527 231 265 528 229 265 529 230 265 530 227 313 531 229 313 532 226 313 533 231 314 534 226 314 535 228 314 536 227 315 537 231 315 538 230 315 539 228 316 540 226 316 541 229 316 542 237 317 543 235 317 544 236 317 545 233 318 546 235 318 547 232 318 548 237 319 549 232 319 550 234 319 551 233 320 552 237 320 553 236 320 554 234 321 555 232 321 556 235 321 557 243 322 558 241 322 559 242 322 560 239 323 561 241 323 562 238 323 563 243 324 564 238 324 565 240 324 566 239 325 567 243 325 568 242 325 569 240 326 570 238 326 571 241 326 572 249 327 573 247 327 574 248 327 575 245 328 576 247 328 577 244 328 578 249 329 579 244 329 580 246 329 581 245 330 582 249 330 583 248 330 584 246 331 585 244 331 586 247 331 587 255 332 588 253 332 589 254 332 590 251 333 591 253 333 592 250 333 593 255 334 594 250 334 595 252 334 596 251 335 597 255 335 598 254 335 599 252 336 600 250 336 601 253 336 602 22 0 603 34 24 604 29 1 605 19 77 606 44 76 607 42 337 608 31 5 609 35 26 610 21 6 611 0 8 612 10 16 613 28 9 614 0 8 615 24 10 616 25 11 617 25 13 618 26 27 619 1 14 620 10 16 621 11 338 622 27 17 623 27 18 624 11 339 625 9 2 626 4 7 627 5 340 628 30 19 629 30 20 630 5 341 631 3 21 632 22 0 633 23 342 634 33 23 635 33 25 636 23 343 637 21 6 638 32 22 639 3 21 640 1 14 641 49 28 642 25 32 643 24 29 644 49 28 645 50 48 646 26 31 647 51 33 648 52 49 649 28 34 650 51 33 651 27 35 652 29 36 653 54 38 654 55 50 655 31 39 656 54 38 657 30 40 658 32 41 659 57 43 660 58 51 661 34 44 662 57 43 663 33 45 664 35 46 665 56 42 666 32 41 667 26 31 668 48 30 669 24 29 670 28 34 671 59 47 672 35 46 673 31 39 674 53 37 675 29 36 676 34 44 677 14 52 678 39 344 679 40 53 680 12 54 681 40 53 682 36 55 683 17 57 684 45 345 685 46 58 686 13 72 687 41 71 688 39 346 689 18 62 690 43 70 691 47 63 692 7 56 693 36 55 694 37 347 695 16 64 696 47 63 697 45 348 698 20 69 699 42 349 700 43 70 701 15 59 702 46 58 703 41 71 704 8 73 705 37 350 706 38 74 707 6 75 708 38 74 709 44 76 710 13 78 711 53 97 712 58 79 713 16 81 714 59 91 715 55 82 716 7 84 717 48 101 718 52 85 719 19 87 720 56 94 721 50 88 722 17 90 723 57 92 724 59 91 725 17 90 726 15 80 727 58 79 728 20 93 729 54 95 730 56 94 731 20 93 732 18 83 733 55 82 734 14 96 735 51 98 736 53 97 737 14 96 738 12 86 739 52 85 740 8 99 741 6 89 742 50 88 743 8 99 744 49 100 745 48 101 746 62 351 747 61 351 748 60 351 749 75 352 750 69 353 751 68 353 752 66 354 753 68 354 754 69 354 755 74 107 756 75 120 757 71 108 758 73 355 759 68 356 760 66 356 761 74 357 762 65 358 763 64 358 764 70 359 765 74 113 766 72 115 767 64 118 768 67 360 769 73 110 770 70 119 771 69 361 772 75 120 773 71 362 774 75 103 775 73 105 776 87 363 777 81 364 778 80 364 779 78 354 780 80 354 781 81 354 782 87 365 783 83 366 784 77 366 785 85 367 786 80 368 787 78 368 788 86 369 789 77 370 790 76 370 791 82 371 792 86 133 793 84 135 794 79 372 795 85 130 796 84 132 797 82 140 798 81 373 799 87 127 800 83 374 801 87 123 802 85 125 803 93 375 804 90 375 805 91 375 806 89 376 807 92 376 808 91 376 809 93 377 810 89 377 811 88 377 812 105 378 813 99 379 814 98 379 815 96 354 816 98 354 817 99 354 818 105 380 819 101 381 820 95 381 821 103 382 822 98 383 823 96 383 824 104 384 825 95 385 826 94 385 827 100 386 828 104 158 829 102 160 830 97 387 831 103 155 832 102 157 833 100 165 834 99 388 835 105 152 836 101 389 837 105 148 838 103 150 839 111 390 840 108 390 841 109 390 842 107 391 843 110 391 844 109 391 845 111 392 846 107 392 847 106 392 848 123 393 849 117 394 850 116 394 851 114 354 852 116 354 853 117 354 854 122 177 855 123 190 856 119 178 857 121 395 858 116 396 859 114 396 860 122 397 861 113 398 862 112 398 863 118 399 864 122 183 865 120 185 866 112 188 867 115 400 868 121 180 869 118 189 870 117 401 871 123 190 872 119 402 873 123 173 874 121 175 875 135 403 876 129 404 877 128 404 878 126 354 879 128 354 880 129 354 881 134 197 882 135 209 883 131 198 884 133 405 885 128 406 886 126 406 887 134 407 888 125 408 889 124 408 890 130 409 891 134 203 892 132 205 893 124 207 894 127 410 895 133 200 896 130 208 897 129 411 898 135 209 899 131 412 900 135 193 901 133 195 902 147 413 903 141 414 904 140 414 905 138 354 906 140 354 907 141 354 908 146 216 909 147 228 910 143 217 911 145 415 912 140 416 913 138 416 914 146 417 915 137 418 916 136 418 917 142 419 918 146 222 919 144 224 920 136 226 921 139 420 922 145 219 923 142 227 924 141 421 925 147 228 926 143 422 927 147 212 928 145 214 929 159 423 930 153 424 931 152 424 932 150 354 933 152 354 934 153 354 935 159 425 936 155 366 937 149 366 938 157 426 939 152 427 940 150 427 941 158 428 942 149 429 943 148 429 944 154 430 945 158 241 946 156 243 947 151 431 948 157 238 949 156 240 950 154 248 951 153 373 952 159 235 953 155 432 954 159 231 955 157 233 956 165 433 957 162 433 958 163 433 959 161 434 960 164 434 961 163 434 962 165 435 963 161 435 964 160 435 965 171 436 966 168 436 967 169 436 968 167 437 969 170 437 970 169 437 971 171 438 972 167 438 973 166 438 974 177 439 975 174 439 976 175 439 977 173 440 978 176 440 979 175 440 980 177 441 981 173 441 982 172 441 983 183 442 984 180 442 985 181 442 986 179 443 987 182 443 988 181 443 989 183 444 990 179 444 991 178 444 992 189 445 993 186 445 994 187 445 995 185 446 996 188 446 997 187 446 998 189 447 999 185 447 1000 184 447 1001 195 448 1002 192 448 1003 193 448 1004 191 449 1005 194 449 1006 193 449 1007 195 450 1008 191 450 1009 190 450 1010 207 451 1011 201 452 1012 200 452 1013 198 453 1014 200 453 1015 201 453 1016 207 454 1017 203 455 1018 197 455 1019 205 456 1020 200 457 1021 198 457 1022 206 458 1023 197 459 1024 196 459 1025 202 460 1026 206 288 1027 204 290 1028 199 461 1029 205 286 1030 204 287 1031 202 295 1032 201 462 1033 207 283 1034 203 463 1035 207 279 1036 205 281 1037 213 464 1038 210 464 1039 211 464 1040 209 465 1041 212 465 1042 211 465 1043 213 466 1044 209 466 1045 208 466 1046 219 467 1047 216 467 1048 217 467 1049 215 468 1050 218 468 1051 217 468 1052 219 469 1053 215 469 1054 214 469 1055 225 470 1056 222 470 1057 223 470 1058 221 471 1059 224 471 1060 223 471 1061 225 472 1062 221 472 1063 220 472 1064 231 473 1065 228 473 1066 229 473 1067 227 474 1068 230 474 1069 229 474 1070 231 475 1071 227 475 1072 226 475 1073 237 476 1074 234 476 1075 235 476 1076 233 477 1077 236 477 1078 235 477 1079 237 478 1080 233 478 1081 232 478 1082 243 479 1083 240 479 1084 241 479 1085 239 480 1086 242 480 1087 241 480 1088 243 481 1089 239 481 1090 238 481 1091 249 482 1092 246 482 1093 247 482 1094 245 483 1095 248 483 1096 247 483 1097 249 377 1098 245 377 1099 244 377 1100 255 484 1101 252 484 1102 253 484 1103 251 485 1104 254 485 1105 253 485 1106 255 441 1107 251 441 1108 250 441 1109</p>
        </triangles>
      </mesh>
    </geometry>
  </library_geometries>
  <library_visual_scenes>
    <visual_scene id="Scene" name="Scene">
      <node id="wall_tower" name="wall_tower" type="NODE">
        <matrix sid="transform">1 0 0 0 0 1 0 0 0 0 1 0 0 0 0 1</matrix>
        <instance_geometry url="#Esfera_2375-mesh" name="wall_tower">
          <bind_material>
            <technique_common>
              <instance_material symbol="A_A__-_text_mandé_FINAIS_021-material" target="#A_A__-_text_mandé_FINAIS_021-material">
                <bind_vertex_input semantic="Esfera_2375-mesh-map-0" input_semantic="TEXCOORD" input_set="0"/>
                <bind_vertex_input semantic="Esfera_2375-mesh-map-1" input_semantic="TEXCOORD" input_set="1"/>
              </instance_material>
            </technique_common>
          </bind_material>
        </instance_geometry>
        <node id="prop_projectile" name="prop_projectile" type="NODE">
          <matrix sid="transform">1 0 0 -0.05259395 0 1 0 0.05841494 0 0 1 12.88046 0 0 0 1</matrix>
        </node>
        <node id="prop_garrisoned" name="prop_garrisoned" type="NODE">
          <matrix sid="transform">1 0 0 -0.05259395 0 1 0 0.05841494 0 0 1 12.55931 0 0 0 1</matrix>
        </node>
      </node>
    </visual_scene>
  </library_visual_scenes>
  <scene>
    <instance_visual_scene url="#Scene"/>
  </scene>
</COLLADA>