<?xml version="1.0" encoding="utf-8"?>
<COLLADA xmlns="http://www.collada.org/2005/11/COLLADASchema" version="1.4.1" xmlns:xsi="http://www.w3.org/2001/XMLSchema-instance">
  <asset>
    <contributor>
      <author>Blender User</author>
      <authoring_tool>Blender 4.3.1 commit date:2024-12-10, commit time:07:46, hash:33d812126174</authoring_tool>
    </contributor>
    <created>2026-09-14T18:10:34</created>
    <modified>2026-09-14T18:10:34</modified>
    <unit name="meter" meter="1"/>
    <up_axis>Z_UP</up_axis>
  </asset>
  <library_effects>
    <effect id="armas_zapot_006-effect">
      <profile_COMMON>
        <newparam sid="_526619962_X-texturacoronaviejazapo_png_0e27c27199050212e2815a1-surface">
          <surface type="2D">
            <init_from>_526619962_X-texturacoronaviejazapo_png_0e27c27199050212e2815a1</init_from>
          </surface>
        </newparam>
        <newparam sid="_526619962_X-texturacoronaviejazapo_png_0e27c27199050212e2815a1-sampler">
          <sampler2D>
            <source>_526619962_X-texturacoronaviejazapo_png_0e27c27199050212e2815a1-surface</source>
          </sampler2D>
        </newparam>
        <technique sid="common">
          <lambert>
            <emission>
              <color sid="emission">0 0 0 1</color>
            </emission>
            <diffuse>
              <texture texture="_526619962_X-texturacoronaviejazapo_png_0e27c27199050212e2815a1-sampler" texcoord="Cubo_038-mesh-map-0"/>
            </diffuse>
            <index_of_refraction>
              <float sid="ior">1.45</float>
            </index_of_refraction>
          </lambert>
        </technique>
      </profile_COMMON>
    </effect>
  </library_effects>
  <library_images>
    <image id="_526619962_X-texturacoronaviejazapo_png_0e27c27199050212e2815a1" name="_526619962_X-texturacoronaviejazapo_png_0e27c27199050212e2815a1">
      <init_from>/home/welton/Downloads/1526619962_X-texturacoronaviejazapo.png.0e27c27199050212e2815a19543a44f0.png</init_from>
    </image>
  </library_images>
  <library_materials>
    <material id="armas_zapot_006-material" name="armas zapot.006">
      <instance_effect url="#armas_zapot_006-effect"/>
    </material>
  </library_materials>
  <library_geometries>
    <geometry id="Cubo_009-mesh" name="Cubo.009">
      <mesh>
        <source id="Cubo_009-mesh-positions">
          <float_array id="Cubo_009-mesh-positions-array" count="180">3.99478e-4 0.1629495 -0.3256365 0.06418746 0.1039047 -0.309995 -0.003376722 0.8540911 2.320534 -0.06041109 0.09943443 -0.3174037 0.003376781 0.04038995 -0.3017621 -0.06418734 0.7905759 2.328766 -3.99305e-4 0.7315314 2.344408 0.06041121 0.7950465 2.336176 -9.17805e-4 0.4040453 0.5974457 -0.06172835 0.3405303 0.6056783 0.002059519 0.2814857 0.6213201 0.0628702 0.3450006 0.6130872 -0.003376722 1.145277 2.30457 -9.17864e-4 0.807752 2.277559 -0.003376901 1.92516 1.926265 -9.17934e-4 1.05508 2.020136 -0.003376722 0.7878279 0.9542066 -9.17808e-4 0.450303 0.9271963 -0.003376901 1.567711 0.575901 -9.17878e-4 0.697631 0.6697728 -9.17861e-4 0.6181975 0.3202669 -0.003376901 1.488278 0.2263952 -9.17796e-4 0.3708697 0.5776904 -0.003376722 0.7083948 0.6047007 -0.003376722 0.891091 1.263996 -9.17825e-4 0.5535662 1.236986 -0.003376901 1.670974 0.8856902 -9.17896e-4 0.800894 0.9795618 -9.17906e-4 0.8803271 1.329068 -0.003376901 1.750407 1.235196 -9.17837e-4 0.6329994 1.586492 -0.003376722 0.9705241 1.613502 -9.17923e-4 0.9756471 1.67063 -0.003376901 1.845727 1.576759 -9.17855e-4 0.7283192 1.928054 -0.003376722 1.065844 1.955064 -0.004601538 1.141091 2.277821 -0.004595816 1.920862 1.898785 -0.002142727 1.050894 1.993388 -0.004601538 0.7836418 0.9274585 -0.004595816 1.563413 0.5484215 -0.002142608 0.6934449 0.6430247 -0.004601538 0.7042087 0.5779526 -0.004595816 1.48398 0.1989156 -0.002142608 0.6140118 0.2935187 -0.004601538 0.8869049 1.237248 -0.004595816 1.666676 0.8582107 -0.002142608 0.796708 0.9528136 -0.004601538 0.9663384 1.586754 -0.004595816 1.746109 1.207717 -0.002142608 0.8761415 1.30232 -0.004601538 1.061658 1.928316 -0.004595816 1.841429 1.549279 -0.002142727 0.9714611 1.643882 -0.002148211 0.80368 2.25155 -0.002148151 0.4462305 0.9011865 -0.002148151 0.3667973 0.5516808 -0.002148151 0.5494937 1.210976 -0.002148211 0.6289269 1.560482 -0.002148211 0.7242467 1.902044</float_array>
          <technique_common>
            <accessor source="#Cubo_009-mesh-positions-array" count="60" stride="3">
              <param name="X" type="float"/>
              <param name="Y" type="float"/>
              <param name="Z" type="float"/>
            </accessor>
          </technique_common>
        </source>
        <source id="Cubo_009-mesh-normals">
          <float_array id="Cubo_009-mesh-normals-array" count="312">0.06504803 -0.1892756 -0.9797672 0.6916128 0.6990662 -0.1815989 -0.7223564 0.6688233 -0.1757178 -0.6916132 -0.6990658 0.1815989 -0.06505823 0.1892735 0.9797669 0.7223564 -0.6688233 0.1757178 0.7223554 -0.6688243 0.1757181 -0.6916121 -0.6990668 0.1815992 -0.7223569 0.6688228 -0.1757178 0.6916138 0.6990653 -0.1815989 0.9999625 0.005054116 0.007041633 0.9996526 -0.01312452 -0.02285677 0.9993951 -0.001327574 -0.03475159 0.9999625 0.005054116 0.007041633 0.9996526 -0.0131241 -0.02285647 0.9994033 -9.00739e-4 -0.03452867 0.9999625 0.005054116 0.007041692 0.9996527 -0.01312464 -0.02285695 0.9994034 -9.00695e-4 -0.03452855 0.9999625 0.005054116 0.007041573 0.9996526 -0.01312404 -0.02285617 0.9993857 -0.001794934 -0.03500157 0.9999625 0.005054056 0.007041513 0.9996526 -0.0131244 -0.02285653 0.9994032 -9.01022e-4 -0.03453093 0.9999625 0.005054175 0.007041633 0.9996527 -0.01312464 -0.02285712 0.9994033 -9.00623e-4 -0.03452807 0.06504786 -0.1892779 -0.9797667 0.6916133 0.6990659 -0.1815989 -0.7223567 0.668823 -0.1757177 -0.6916126 -0.6990665 0.1815991 -0.06505435 0.1892734 0.9797671 0.7223569 -0.6688227 0.1757177 0.722356 -0.6688236 0.175718 -0.6916131 -0.6990659 0.1815991 -0.7223563 0.6688233 -0.1757178 0.6916131 0.6990659 -0.181599 0.9996796 -0.01825159 -0.01753604 0.9996798 -0.01825094 -0.01753544 0.9996796 -0.01825135 -0.0175358 0.9996798 -0.01825046 -0.01753491 0.9996796 -0.01825147 -0.01753592 0.9996796 -0.01825106 -0.01753556 -0.9997272 8.98456e-4 0.02333891 -0.9993627 0.01462876 0.03256124 -0.9999626 -0.005006611 -0.007056772 -0.9997272 8.98461e-4 0.02333927 -0.9994115 0.01497226 0.03086411 -0.9999626 -0.005006611 -0.007056772 -0.9997272 8.98463e-4 0.02333939 -0.9994115 0.01497215 0.03086394 -0.9999626 -0.005006611 -0.007056772 -0.9997272 8.98461e-4 0.0233395 -0.9994115 0.01497209 0.03086382 -0.9999626 -0.005006611 -0.007056772 -0.9997272 8.98613e-4 0.02333927 -0.9994115 0.01497322 0.03086608 -0.9999626 -0.005006551 -0.007056772 -0.9997273 8.98555e-4 0.02333962 -0.999397 0.01192373 0.03261131 -0.9999626 -0.005006611 -0.007056772 -0.9995946 -0.009428262 0.02686685 -0.9995946 -0.009428143 0.02686607 -0.9995946 -0.009428143 0.02686631 -0.9995947 -0.009428024 0.02686536 -0.9995946 -0.009428083 0.02686655 -0.9996002 -0.009105026 0.02676653 -0.9989739 0.004468262 0.04507011 -0.9987362 -0.01119703 0.0489977 -0.9989739 0.004468381 0.04507118 -0.9989739 0.004468321 0.0450707 -0.9987362 -0.01119685 0.04899752 0.999028 -0.001928746 -0.04403972 0.998301 -0.04175549 -0.04064214 0.9989293 -0.01677703 -0.04311537 0.9983116 -0.04194408 -0.04018306 0.9989293 -0.01677656 -0.04311496 -0.9989739 0.004468381 0.04507088 -0.9989739 0.004468381 0.04507058 -0.9987363 -0.01119685 0.04899662 0.9990582 -0.003515779 -0.04324811 0.9991692 -0.002817869 -0.0406574 -0.9987363 -0.01119691 0.0489968 0.9982842 -0.04222726 -0.04056715 0.9989293 -0.01677668 -0.04311507 0.9983118 -0.04193347 -0.04019004 0.9989292 -0.01677721 -0.04311609 0.999028 -0.001928806 -0.04403966 -0.9989739 0.004468381 0.04507082 -0.9987363 -0.01119685 0.04899698 0.9983033 -0.04203456 -0.04029464 0.9989293 -0.01677691 -0.04311579 0.9990279 -0.001928806 -0.04403984 -0.9987363 -0.01119667 0.04899537 0.9990278 -0.001929104 -0.04404258 0.9982843 -0.04222643 -0.0405662 0.9989293 -0.0167765 -0.04311448 -0.9989728 0.0194683 0.04091906 -0.9989641 0.01968121 0.04102879 -0.9989848 0.01916933 0.04076814 -0.9989518 0.01997828 0.04118603 -0.9989516 0.01997953 0.04118853 -0.9989519 0.01997816 0.04118579</float_array>
          <technique_common>
            <accessor source="#Cubo_009-mesh-normals-array" count="104" stride="3">
              <param name="X" type="float"/>
              <param name="Y" type="float"/>
              <param name="Z" type="float"/>
            </accessor>
          </technique_common>
        </source>
        <source id="Cubo_009-mesh-map-0">
          <float_array id="Cubo_009-mesh-map-0-array" count="552">0.3129895 0.1760925 0.3002053 0.1341789 0.3130332 0.1341884 0.196666 0.6421386 0.2108861 0.7294718 0.2092864 0.642045 0.1861323 0.729656 0.196666 0.6421386 0.1845325 0.6422292 0.1985737 0.7295622 0.1845325 0.6422292 0.1968899 0.6421377 0.2745058 0.1760643 0.2873774 0.1341695 0.2873337 0.1760737 0.2092864 0.642045 0.1985737 0.7295622 0.1968899 0.6421377 0.2084295 0.5952091 0.1968899 0.6421377 0.195988 0.5953032 0.1968899 0.6421377 0.1836755 0.5953935 0.195988 0.5953032 0.1845325 0.6422292 0.1958999 0.5947845 0.1836755 0.5953935 0.1956253 0.5958347 0.2092864 0.642045 0.2084295 0.5952091 0.2663698 0.171543 0.2644624 0.2010949 0.2824353 0.1908544 0.2663698 0.171543 0.2644624 0.2010949 0.2824353 0.1908544 0.2663698 0.171543 0.2644624 0.2010949 0.2824353 0.1908544 0.2663698 0.171543 0.2644624 0.2010949 0.2824353 0.1908544 0.2663698 0.171543 0.2644624 0.2010949 0.2824353 0.1908544 0.2663698 0.171543 0.2644624 0.2010949 0.2824353 0.1908544 0.3129895 0.1760925 0.3001615 0.1760832 0.3002053 0.1341789 0.196666 0.6421386 0.198211 0.7300937 0.2108861 0.7294718 0.1861323 0.729656 0.1984855 0.7290434 0.196666 0.6421386 0.1985737 0.7295622 0.1861323 0.729656 0.1845325 0.6422292 0.2745058 0.1760643 0.2745495 0.1341602 0.2873774 0.1341695 0.2092864 0.642045 0.2108861 0.7294718 0.1985737 0.7295622 0.2084295 0.5952091 0.2092864 0.642045 0.1968899 0.6421377 0.1968899 0.6421377 0.1845325 0.6422292 0.1836755 0.5953935 0.1845325 0.6422292 0.196666 0.6421386 0.1958999 0.5947845 0.1956253 0.5958347 0.196666 0.6421386 0.2092864 0.642045 0.2663698 0.171543 0.2523295 0.1827874 0.2644624 0.2010949 0.2663698 0.171543 0.2523295 0.1827874 0.2644624 0.2010949 0.2663698 0.171543 0.2523295 0.1827874 0.2644624 0.2010949 0.2663698 0.171543 0.2523295 0.1827874 0.2644624 0.2010949 0.2663698 0.171543 0.2523295 0.1827874 0.2644624 0.2010949 0.2663698 0.171543 0.2523295 0.1827874 0.2644624 0.2010949 0.2663698 0.171543 0.2824353 0.1908544 0.2644624 0.2010949 0.2663698 0.171543 0.2824353 0.1908544 0.2644624 0.2010949 0.2663698 0.171543 0.2824353 0.1908544 0.2644624 0.2010949 0.2663698 0.171543 0.2824353 0.1908544 0.2644624 0.2010949 0.2663698 0.171543 0.2824353 0.1908544 0.2644624 0.2010949 0.2663698 0.171543 0.2824353 0.1908544 0.2644624 0.2010949 0.2663698 0.171543 0.2644624 0.2010949 0.2523295 0.1827874 0.2663698 0.171543 0.2644624 0.2010949 0.2523295 0.1827874 0.2663698 0.171543 0.2644624 0.2010949 0.2523295 0.1827874 0.2663698 0.171543 0.2644624 0.2010949 0.2523295 0.1827874 0.2663698 0.171543 0.2644624 0.2010949 0.2523295 0.1827874 0.2663698 0.171543 0.2644624 0.2010949 0.2523295 0.1827874 0.2663698 0.171543 0.2523295 0.1827874 0.2523295 0.1827874 0.2663698 0.171543 0.2824353 0.1908544 0.2663698 0.171543 0.2663698 0.171543 0.2824353 0.1908544 0.2663698 0.171543 0.2663698 0.171543 0.2523295 0.1827874 0.2523295 0.1827874 0.2644624 0.2010949 0.2824353 0.1908544 0.2824353 0.1908544 0.2644624 0.2010949 0.2523295 0.1827874 0.2644624 0.2010949 0.2644624 0.2010949 0.2523295 0.1827874 0.2644624 0.2010949 0.2663698 0.171543 0.2824353 0.1908544 0.2663698 0.171543 0.2663698 0.171543 0.2523295 0.1827874 0.2523295 0.1827874 0.2644624 0.2010949 0.2824353 0.1908544 0.2824353 0.1908544 0.2644624 0.2010949 0.2824353 0.1908544 0.2824353 0.1908544 0.2663698 0.171543 0.2523295 0.1827874 0.2523295 0.1827874 0.2644624 0.2010949 0.2523295 0.1827874 0.2644624 0.2010949 0.2663698 0.171543 0.2824353 0.1908544 0.2663698 0.171543 0.2644624 0.2010949 0.2523295 0.1827874 0.2644624 0.2010949 0.2644624 0.2010949 0.2824353 0.1908544 0.2824353 0.1908544 0.2663698 0.171543 0.2523295 0.1827874 0.2523295 0.1827874 0.2663698 0.171543 0.2824353 0.1908544 0.2663698 0.171543 0.2644624 0.2010949 0.2523295 0.1827874 0.2644624 0.2010949 0.2644624 0.2010949 0.2824353 0.1908544 0.2824353 0.1908544 0.2663698 0.171543 0.2523295 0.1827874 0.2523295 0.1827874 0.2663698 0.171543 0.2824353 0.1908544 0.2663698 0.171543 0.2644624 0.2010949 0.2824353 0.1908544 0.2824353 0.1908544 0.2644624 0.2010949 0.2523295 0.1827874 0.2644624 0.2010949 0.2663698 0.171543 0.2663698 0.171543 0.2523295 0.1827874 0.2663698 0.171543 0.2824353 0.1908544 0.2824353 0.1908544 0.2663698 0.171543 0.2824353 0.1908544 0.2824353 0.1908544 0.2663698 0.171543 0.2663698 0.171543 0.2523295 0.1827874 0.2644624 0.2010949 0.2644624 0.2010949 0.2824353 0.1908544 0.2644624 0.2010949 0.2523295 0.1827874 0.2523295 0.1827874 0.2644624 0.2010949 0.2523295 0.1827874 0.2523295 0.1827874 0.2663698 0.171543 0.2824353 0.1908544 0.2824353 0.1908544 0.2663698 0.171543 0.2663698 0.171543 0.2523295 0.1827874 0.2644624 0.2010949 0.2644624 0.2010949 0.2824353 0.1908544 0.2644624 0.2010949 0.2644624 0.2010949 0.2824353 0.1908544 0.2663698 0.171543 0.2663698 0.171543 0.2523295 0.1827874 0.2644624 0.2010949 0.2523295 0.1827874 0.2523295 0.1827874 0.2663698 0.171543 0.2824353 0.1908544 0.2824353 0.1908544 0.2644624 0.2010949 0.2523295 0.1827874 0.2523295 0.1827874 0.2644624 0.2010949 0.2644624 0.2010949 0.2824353 0.1908544 0.2663698 0.171543 0.2663698 0.171543 0.2523295 0.1827874 0.2663698 0.171543 0.2824353 0.1908544 0.2824353 0.1908544 0.2644624 0.2010949 0.2523295 0.1827874 0.2523295 0.1827874 0.2644624 0.2010949 0.2644624 0.2010949 0.2824353 0.1908544 0.2663698 0.171543 0.2663698 0.171543 0.2523295 0.1827874 0.2663698 0.171543 0.2824353 0.1908544 0.2824353 0.1908544 0.2644624 0.2010949 0.2644624 0.2010949 0.2824353 0.1908544 0.2644624 0.2010949 0.2523295 0.1827874 0.2523295 0.1827874</float_array>
          <technique_common>
            <accessor source="#Cubo_009-mesh-map-0-array" count="276" stride="2">
              <param name="S" type="float"/>
              <param name="T" type="float"/>
            </accessor>
          </technique_common>
        </source>
        <vertices id="Cubo_009-mesh-vertices">
          <input semantic="POSITION" source="#Cubo_009-mesh-positions"/>
        </vertices>
        <triangles material="armas_zapot_006-material" count="92">
          <input semantic="VERTEX" source="#Cubo_009-mesh-vertices" offset="0"/>
          <input semantic="NORMAL" source="#Cubo_009-mesh-normals" offset="1"/>
          <input semantic="TEXCOORD" source="#Cubo_009-mesh-map-0" offset="2" set="0"/>
          <p>1 0 0 3 0 1 0 0 2 8 1 3 7 1 4 11 1 5 5 2 6 8 2 7 9 2 8 6 3 9 9 3 10 10 3 11 7 4 12 5 4 13 6 4 14 11 5 15 6 5 16 10 5 17 1 6 18 10 6 19 4 6 20 10 7 21 3 7 22 4 7 23 9 8 24 0 8 25 3 8 26 0 9 27 11 9 28 1 9 29 12 10 30 15 11 31 14 12 32 16 13 33 19 14 34 18 15 35 23 16 36 20 17 37 21 18 38 24 19 39 27 20 40 26 21 41 31 22 42 28 23 43 29 24 44 35 25 45 32 26 46 33 27 47 1 28 48 4 28 49 3 28 50 8 29 51 2 29 52 7 29 53 5 30 54 2 30 55 8 30 56 6 31 57 5 31 58 9 31 59 7 32 60 2 32 61 5 32 62 11 33 63 7 33 64 6 33 65 1 34 66 11 34 67 10 34 68 10 35 69 9 35 70 3 35 71 9 36 72 8 36 73 0 36 74 0 37 75 8 37 76 11 37 77 12 10 78 13 38 79 15 11 80 16 13 81 17 39 82 19 14 83 23 16 84 22 40 85 20 17 86 24 19 87 25 41 88 27 20 89 31 22 90 30 42 91 28 23 92 35 25 93 34 43 94 32 26 95 36 44 96 37 45 97 38 46 98 39 47 99 40 48 100 41 49 101 42 50 102 43 51 103 44 52 104 45 53 105 46 54 106 47 55 107 48 56 108 49 57 109 50 58 110 51 59 111 52 60 112 53 61 113 36 44 114 38 46 115 54 62 116 39 47 117 41 49 118 55 63 119 42 50 120 44 52 121 56 64 122 45 53 123 47 55 124 57 65 125 48 56 126 50 58 127 58 66 128 51 59 129 53 61 130 59 67 131 12 68 132 54 62 133 13 69 134 12 68 135 37 45 136 36 44 137 35 70 138 52 60 139 51 59 140 31 71 141 58 66 142 30 72 143 20 17 144 43 73 145 21 18 146 15 11 147 54 74 148 38 75 149 28 23 150 58 76 151 50 77 152 24 78 153 46 54 154 45 53 155 16 79 156 55 63 157 17 80 158 15 11 159 37 81 160 14 12 161 32 26 162 52 82 163 33 27 164 35 70 165 59 67 166 34 83 167 19 14 168 55 84 169 41 85 170 16 79 171 40 48 172 39 47 173 32 26 174 59 86 175 53 87 176 27 20 177 46 88 178 26 21 179 23 89 180 56 64 181 22 90 182 31 71 183 49 57 184 48 56 185 20 17 186 56 91 187 44 92 188 19 14 189 40 93 190 18 15 191 24 78 192 57 65 193 25 94 194 23 89 195 43 51 196 42 50 197 28 23 198 49 95 199 29 24 200 27 20 201 57 96 202 47 97 203 12 68 204 36 44 205 54 62 206 12 68 207 14 98 208 37 45 209 35 70 210 33 99 211 52 60 212 31 71 213 48 56 214 58 66 215 20 17 216 44 92 217 43 73 218 15 11 219 13 38 220 54 74 221 28 23 222 30 42 223 58 76 224 24 78 225 26 100 226 46 54 227 16 79 228 39 47 229 55 63 230 15 11 231 38 75 232 37 81 233 32 26 234 53 87 235 52 82 236 35 70 237 51 59 238 59 67 239 19 14 240 17 39 241 55 84 242 16 79 243 18 101 244 40 48 245 32 26 246 34 43 247 59 86 248 27 20 249 47 97 250 46 88 251 23 89 252 42 50 253 56 64 254 31 71 255 29 102 256 49 57 257 20 17 258 22 40 259 56 91 260 19 14 261 41 85 262 40 93 263 24 78 264 45 53 265 57 65 266 23 89 267 21 103 268 43 51 269 28 23 270 50 77 271 49 95 272 27 20 273 25 41 274 57 96 275</p>
        </triangles>
      </mesh>
    </geometry>
  </library_geometries>
  <library_visual_scenes>
    <visual_scene id="Scene" name="Scene">
      <node id="a_back_zapo_01" name="a_back_zapo_01" type="NODE">
        <matrix sid="transform">1 0 0 0 0 1 0 0 0 0 1 0 0 0 0 1</matrix>
        <instance_geometry url="#Cubo_009-mesh" name="a_back_zapo_01">
          <bind_material>
            <technique_common>
              <instance_material symbol="armas_zapot_006-material" target="#armas_zapot_006-material">
                <bind_vertex_input semantic="Cubo_038-mesh-map-0" input_semantic="TEXCOORD" input_set="0"/>
              </instance_material>
            </technique_common>
          </bind_material>
        </instance_geometry>
      </node>
    </visual_scene>
  </library_visual_scenes>
  <scene>
    <instance_visual_scene url="#Scene"/>
  </scene>
</COLLADA>