<?xml version="1.0" encoding="utf-8"?>
<COLLADA xmlns="http://www.collada.org/2005/11/COLLADASchema" version="1.4.1" xmlns:xsi="http://www.w3.org/2001/XMLSchema-instance">
  <asset>
    <contributor>
      <author>Blender User</author>
      <authoring_tool>Blender 4.3.1 commit date:2024-12-10, commit time:07:46, hash:33d812126174</authoring_tool>
    </contributor>
    <created>2026-09-14T18:08:40</created>
    <modified>2026-09-14T18:08:40</modified>
    <unit name="meter" meter="1"/>
    <up_axis>Z_UP</up_axis>
  </asset>
  <library_effects>
    <effect id="coronas_viejas_zapo_001-effect">
      <profile_COMMON>
        <newparam sid="_526619962_X-texturacoronaviejazapo_png_0e27c27199050212e2815a1-surface">
          <surface type="2D">
            <init_from>_526619962_X-texturacoronaviejazapo_png_0e27c27199050212e2815a1</init_from>
          </surface>
        </newparam>
        <newparam sid="_526619962_X-texturacoronaviejazapo_png_0e27c27199050212e2815a1-sampler">
          <sampler2D>
            <source>_526619962_X-texturacoronaviejazapo_png_0e27c27199050212e2815a1-surface</source>
          </sampler2D>
        </newparam>
        <technique sid="common">
          <lambert>
            <emission>
              <color sid="emission">0 0 0 1</color>
            </emission>
            <diffuse>
              <texture texture="_526619962_X-texturacoronaviejazapo_png_0e27c27199050212e2815a1-sampler" texcoord="Cubo_002-mesh-map-0"/>
            </diffuse>
            <index_of_refraction>
              <float sid="ior">1.45</float>
            </index_of_refraction>
          </lambert>
        </technique>
      </profile_COMMON>
    </effect>
  </library_effects>
  <library_images>
    <image id="_526619962_X-texturacoronaviejazapo_png_0e27c27199050212e2815a1" name="_526619962_X-texturacoronaviejazapo_png_0e27c27199050212e2815a1">
      <init_from>/home/welton/Downloads/1526619962_X-texturacoronaviejazapo.png.0e27c27199050212e2815a19543a44f0.png</init_from>
    </image>
  </library_images>
  <library_materials>
    <material id="coronas_viejas_zapo_001-material" name="coronas viejas zapo.001">
      <instance_effect url="#coronas_viejas_zapo_001-effect"/>
    </material>
  </library_materials>
  <library_geometries>
    <geometry id="Cubo_008-mesh" name="Cubo.008">
      <mesh>
        <source id="Cubo_008-mesh-positions">
          <float_array id="Cubo_008-mesh-positions-array" count="588">-3.316895 -5.957979 -0.08263897 -1.918993 -4.534857 -0.07995527 -9.527146 -5.948899 1.069771 -1.888437 -7.357294 -0.08334869 -0.4905396 -5.934171 -0.08066481 -8.09869 -7.348214 1.069061 -6.70079 -5.925091 1.071745 -8.129248 -4.525777 1.072455 -5.483261 -5.954812 0.3193644 -4.054806 -7.354125 0.3186548 -2.656906 -5.931003 0.3213386 -4.085361 -4.531689 0.3220482 -3.128172 6.268154 -0.0826345 -1.73027 7.691274 -0.0799508 -9.338423 6.277234 1.069775 -1.699717 4.868844 -0.0833441 -0.3018169 6.291964 -0.08066028 -7.909969 4.877924 1.069066 -6.51207 6.301044 1.07175 -7.940525 7.700354 1.072459 -5.29454 6.271324 0.319369 -3.866083 4.872004 0.3186594 -2.468185 6.295134 0.3213431 -3.896639 7.694444 0.3220527 -9.52759 -5.978818 1.067605 -9.338871 6.247315 1.067608 -5.483707 -5.98473 0.3171979 -5.294985 6.241405 0.3172025 -30.77024 -5.636526 0.8955467 -26.4763 -5.659021 0.864409 -39.51415 -5.501482 0.814998 -29.96581 -5.605092 0.7974295 -28.19789 -5.675726 0.4333649 -23.90394 -5.698224 0.4022273 -36.94179 -5.540684 0.3528164 -27.39345 -5.644292 0.3352476 -26.95757 -5.650891 0.2162961 -36.50591 -5.547283 0.2338649 -23.46806 -5.704823 0.2832758 -27.76201 -5.682325 0.3144136 -29.16161 -5.660968 0.5404871 -24.86767 -5.683465 0.5093494 -37.90552 -5.525926 0.4599384 -28.35718 -5.629535 0.4423696 -28.79306 -5.622935 0.5613211 -38.3414 -5.519327 0.5788899 -25.30354 -5.676867 0.6283009 -29.59749 -5.654369 0.6594386 -29.52993 -5.61169 0.678478 -39.07827 -5.50808 0.6960467 -26.04041 -5.66562 0.7454577 -30.33436 -5.643125 0.7765952 -7.257846 -10.58979 1.102373 -7.408988 -6.349529 1.068877 -5.922673 -13.86989 1.272218 -6.648864 -6.36222 1.16131 -7.024428 -1.320661 1.105491 -5.637962 1.136995 1.276993 -7.393025 -5.895685 1.068367 -6.744637 -5.9543 1.15363 -6.806109 -3.296741 1.13612 -5.489396 -5.674949 1.308204 -7.456231 -6.306156 1.062426 -6.936402 -8.603155 1.136442 -30.58152 6.589603 0.8955513 -26.28758 6.567113 0.8644136 -39.32543 6.724654 0.8150026 -29.77709 6.621044 0.7974339 -28.00917 6.550404 0.4333696 -23.71522 6.527914 0.4022318 -36.75308 6.685453 0.3528209 -27.20473 6.581843 0.3352522 -26.76886 6.575243 0.2163007 -36.3172 6.678853 0.2338694 -23.27934 6.521314 0.2832804 -27.57329 6.543804 0.3144181 -28.97289 6.565164 0.5404915 -24.67895 6.542664 0.5093539 -37.7168 6.700213 0.4599429 -28.16846 6.596603 0.4423742 -28.60434 6.603193 0.5613257 -38.15268 6.706803 0.5788944 -25.11483 6.549263 0.6283054 -29.40877 6.571763 0.659443 -29.34121 6.614443 0.6784825 -38.88955 6.718053 0.6960511 -25.8517 6.560513 0.7454621 -30.14564 6.583014 0.7766 -7.069123 1.636347 1.102378 -7.220265 5.876604 1.068882 -5.733952 -1.643753 1.272222 -6.460141 5.863914 1.161314 -6.835706 10.90547 1.105495 -5.449241 13.36313 1.276997 -7.204305 6.330453 1.068371 -6.555917 6.271833 1.153634 -6.617389 8.929393 1.136124 -5.300673 6.551184 1.308209 -7.267508 5.919973 1.062431 -6.74768 3.622982 1.136446 -30.77052 -5.664372 0.8843836 -39.51447 -5.529182 0.8034853 -29.96609 -5.632938 0.7862663 -28.19817 -5.703575 0.4222018 -36.94211 -5.568385 0.3413036 -27.39373 -5.672141 0.3240844 -27.76229 -5.710173 0.3032504 -36.50623 -5.574984 0.2223521 -26.95785 -5.678739 0.205133 -29.16189 -5.688816 0.5293239 -37.90584 -5.553627 0.4484255 -28.35746 -5.657382 0.4312065 -29.59777 -5.682218 0.6482754 -38.34172 -5.547028 0.5673772 -28.79334 -5.650784 0.550158 -30.33464 -5.67097 0.7654321 -39.07859 -5.535781 0.684534 -29.53021 -5.639536 0.6673148 -7.261432 -10.58969 1.132158 -5.926227 -13.86979 1.302007 -6.65245 -6.362119 1.191095 -6.7485 -5.954225 1.18338 -5.641784 1.137074 1.306749 -7.028291 -1.320585 1.135241 -7.459981 -6.30606 1.092191 -6.940156 -8.603044 1.166206 -5.493145 -5.674853 1.337968 -30.5818 6.561758 0.8843868 -39.32575 6.696953 0.8034884 -29.77737 6.593197 0.7862694 -28.00945 6.522556 0.4222049 -36.7534 6.657753 0.3413065 -27.20501 6.553997 0.3240875 -27.57357 6.515957 0.3032535 -36.31752 6.651154 0.2223552 -26.76914 6.547398 0.2051362 -28.97317 6.537316 0.5293266 -37.71712 6.672513 0.4484285 -28.16874 6.568758 0.4312093 -29.40905 6.543917 0.6482809 -38.153 6.679102 0.5673826 -28.60462 6.575346 0.5501635 -30.14592 6.555165 0.7654377 -38.88987 6.690351 0.6845394 -29.34149 6.586596 0.6673203 -7.072709 1.636449 1.132163 -5.737504 -1.643656 1.302011 -6.463727 5.864015 1.191099 -6.559779 6.271911 1.183384 -5.453058 13.36321 1.306753 -6.839568 10.90555 1.135245 -7.271258 5.920069 1.092196 -6.751435 3.623091 1.16621 -5.304422 6.551278 1.337973 -26.47653 -5.687005 0.8535991 -23.90417 -5.726208 0.3914173 -23.46829 -5.732807 0.2724658 -24.8679 -5.711449 0.4985395 -25.30377 -5.704851 0.617491 -26.04064 -5.693604 0.7346476 -7.412608 -6.349422 1.098658 -7.39693 -5.895611 1.098112 -6.809855 -3.296661 1.165885 -26.28781 6.539129 0.8536025 -23.71545 6.499929 0.3914204 -23.27957 6.49333 0.2724692 -24.67918 6.51468 0.498542 -25.11506 6.521278 0.6174964 -25.85193 6.532529 0.7346532 -7.223885 5.876709 1.098663 -7.208209 6.330526 1.098116 -6.621133 8.929473 1.165889 -4.382669 -6.449618 0.3668065 -7.923473 -6.39572 1.061416 -23.14786 -6.159822 0.2155074 -26.7696 -6.104655 0.8924406 -4.374153 -5.897882 0.3668066 -7.914957 -5.843984 1.061416 -23.13935 -5.608086 0.2155076 -26.76109 -5.552919 0.8924407 -13.59161 -6.307403 0.2935802 -17.13242 -6.253504 0.9881896 -13.58309 -5.755667 0.2935804 -17.1239 -5.701768 0.9881898 -4.181548 6.581009 0.3668113 -7.722351 6.634907 1.061421 -22.94674 6.870805 0.2155123 -26.56849 6.925972 0.8924455 -4.190063 6.029273 0.3668112 -7.730867 6.083171 1.061421 -22.95526 6.319069 0.215512 -26.577 6.374236 0.8924453 -13.39048 6.723224 0.2935851 -16.93129 6.777123 0.9881945 -13.399 6.171488 0.2935849 -16.93981 6.225387 0.9881944</float_array>
          <technique_common>
            <accessor source="#Cubo_008-mesh-positions-array" count="196" stride="3">
              <param name="X" type="float"/>
              <param name="Y" type="float"/>
              <param name="Z" type="float"/>
            </accessor>
          </technique_common>
        </source>
        <source id="Cubo_008-mesh-normals">
          <float_array id="Cubo_008-mesh-normals-array" count="1416">-0.06107562 0.06187194 -0.9962137 -0.06010079 -0.06084716 -0.9963361 -0.136328 -0.00221455 -0.9906614 -0.1823357 0.02840209 -0.9828261 -0.179288 0.177935 -0.9675717 -0.179288 0.1779351 -0.9675717 -0.1796324 -0.1828829 -0.9665848 -0.1796323 -0.1828832 -0.9665847 0.1363292 0.002214729 0.9906612 0.179288 -0.1779353 0.9675717 0.1824539 0.002515375 0.9832112 0.06010085 0.0608471 0.9963361 0.0610758 -0.06187206 0.9962137 0.1796322 0.182883 0.9665848 0.1796324 0.182883 0.9665847 0.182451 1.30885e-5 0.983215 0.1792877 -0.1779347 0.9675719 -0.0610755 0.06187188 -0.9962137 -0.06010073 -0.06084734 -0.9963361 -0.1363279 -0.00221455 -0.9906614 -0.1823358 0.0284025 -0.9828261 -0.179288 0.1779353 -0.9675717 -0.1792877 0.1779353 -0.9675717 -0.1796323 -0.1828836 -0.9665847 -0.1796324 -0.182883 -0.9665848 0.1363289 0.002215087 0.9906612 0.1792883 -0.1779342 0.9675717 0.1824541 0.002515852 0.9832112 0.06010049 0.06084746 0.9963361 0.06107544 -0.06187182 0.9962137 0.1796323 0.1828835 0.9665847 0.1796324 0.1828836 0.9665846 0.182451 1.289e-5 0.983215 0.1792882 -0.1779349 0.9675717 6.88362e-4 0.001209735 -0.9999991 0.6516535 0.2785986 -0.7055003 0.5534356 -0.5351288 -0.6382369 0.7354916 0.2816722 0.6162085 6.88359e-4 0.001209676 -0.9999991 0.6516534 0.278599 -0.7055002 0.5534363 -0.5351285 -0.6382365 0.7354915 0.2816723 0.6162087 -0.1260582 0.05484879 -0.9905054 0.02878397 -0.3739725 0.926993 -0.2007417 0.01706367 -0.9794957 0.1366507 0.233825 0.962628 -0.2007554 0.01708036 -0.9794925 -0.1260606 0.05487602 -0.9905036 0.1364745 0.2323282 0.9630153 0.0290327 -0.3731324 0.9273238 0.01059949 0.9237533 0.3828416 0.007633388 0.9324131 0.3613139 0.01072567 0.9233732 0.3837537 0.01059931 0.9237534 0.3828412 0.007634103 0.9324163 0.3613054 0.01072549 0.9233732 0.3837537 0.01059925 0.9237485 0.3828529 0.007634162 0.9324162 0.3613058 0.01072543 0.9233682 0.3837659 0.01059949 0.9237563 0.3828341 0.007633864 0.9324194 0.3612975 0.01072561 0.9233762 0.3837466 0.01059931 0.9237511 0.3828469 0.007634103 0.9324138 0.3613119 0.01072543 0.9233709 0.3837593 0.01059949 0.923748 0.3828539 0.007633447 0.9324131 0.3613137 0.01072567 0.9233679 0.3837667 0.1190706 -0.002272427 -0.9928833 0.1206108 -0.002579391 -0.9926966 0.1184149 -0.003214716 -0.9929591 0.1300446 -0.003636479 -0.9915015 0.1272379 -0.001228809 -0.9918715 0.1273275 -0.002616047 -0.9918573 0.1248979 -0.003426373 -0.9921638 0.1254024 -0.003132045 -0.9921011 0.1251484 -0.003647267 -0.9921314 0.01059931 0.9237269 0.3829054 0.007632672 0.9323951 0.3613603 0.01072549 0.9233464 0.3838183 0.01059937 0.923735 0.3828854 0.007632613 0.9324041 0.3613371 0.01072555 0.9233547 0.3837985 0.01059937 0.9237349 0.3828861 0.007632553 0.9324014 0.3613442 0.01072555 0.9233545 0.3837988 0.01059949 0.9237372 0.3828803 0.007634758 0.9323982 0.3613523 0.01072561 0.9233571 0.3837925 0.01059961 0.9237668 0.382809 0.007634341 0.9324253 0.3612822 0.01072579 0.9233869 0.3837211 0.01059967 0.9237726 0.3827949 0.00763458 0.9324343 0.3612588 0.01072585 0.9233925 0.3837074 0.1190146 -0.002350389 -0.9928898 0.1205646 -0.002592742 -0.9927022 0.1184144 -0.003214836 -0.9929591 0.1299998 -0.00361979 -0.9915075 0.1272696 -0.001467049 -0.9918671 0.1273272 -0.002616107 -0.9918574 0.1247354 -0.003409445 -0.9921843 0.1253058 -0.003093957 -0.9921134 0.1251484 -0.003646969 -0.9921314 0.007499516 0.9327915 0.3603385 0.00750029 0.9327949 0.3603297 0.00750035 0.9327949 0.3603295 0.007500052 0.932798 0.3603217 0.00750029 0.9327924 0.3603362 0.007499575 0.9327918 0.3603377 0.1189915 -0.002259373 -0.9928928 0.1206542 -0.003541111 -0.9926884 0.1206166 -0.002631068 -0.9926958 0.1300452 -0.003585875 -0.9915016 0.13016 -0.002441167 -0.99149 0.127219 -0.001088678 -0.991874 0.1247892 -0.00300461 -0.9921788 0.124841 -0.002673149 -0.9921731 0.1253542 -0.00292468 -0.9921078 0.0074988 0.932774 0.360384 0.007498741 0.932783 0.3603608 0.007498681 0.9327801 0.360368 0.007500946 0.9327767 0.3603768 0.007500469 0.9328038 0.3603068 0.007500767 0.932813 0.360283 0.1190658 -0.002317368 -0.9928837 0.1206526 -0.003541111 -0.9926885 0.120622 -0.002774715 -0.9926947 0.1300391 -0.003633439 -0.9915023 0.1301606 -0.002441227 -0.99149 0.1272881 -0.00129342 -0.991865 0.1247028 -0.002978563 -0.9921897 0.1248412 -0.002673327 -0.9921731 0.1252393 -0.002935469 -0.9921222 -0.01059937 -0.9237498 -0.3828499 -0.01072567 -0.9233693 -0.3837632 -0.007633745 -0.9324138 -0.3613119 -0.01059943 -0.9237528 -0.3828428 -0.01072573 -0.9233722 -0.3837564 -0.007633805 -0.93242 -0.3612959 -0.01059937 -0.9237527 -0.3828431 -0.01072561 -0.9233722 -0.3837564 -0.007633984 -0.932417 -0.3613036 -0.01059937 -0.9237527 -0.3828427 -0.01072561 -0.9233723 -0.3837561 -0.007633745 -0.9324169 -0.3613041 -0.01059943 -0.92375 -0.3828493 -0.01072567 -0.9233695 -0.3837625 -0.007633745 -0.9324141 -0.3613111 -0.01059937 -0.9237523 -0.3828437 -0.01072561 -0.9233721 -0.3837565 -0.007633924 -0.9324111 -0.361319 -0.1177805 0.002635002 0.9930362 -0.1184149 0.003214716 0.9929591 -0.11939 0.003813743 0.9928401 -0.1286525 0.001964509 0.9916879 -0.1273276 0.002616047 0.9918573 -0.128443 0.00157243 0.9917157 -0.1251478 0.003647208 0.9921315 -0.1245779 0.003139078 0.992205 -0.01059925 -0.9237338 -0.3828883 -0.01072555 -0.9233532 -0.3838019 -0.007633149 -0.9324017 -0.3613429 -0.01059925 -0.9237287 -0.382901 -0.01072555 -0.9233481 -0.3838144 -0.007632732 -0.9323957 -0.3613588 -0.01059919 -0.9237259 -0.3829076 -0.01072549 -0.9233449 -0.3838216 -0.007632732 -0.9323987 -0.3613511 -0.01059925 -0.9237255 -0.3829085 -0.01072543 -0.923345 -0.3838216 -0.007634818 -0.9323893 -0.3613749 -0.01059955 -0.9237662 -0.3828102 -0.01072579 -0.9233859 -0.3837235 -0.007634878 -0.932429 -0.3612728 -0.01059937 -0.9237607 -0.3828236 -0.01072561 -0.9233803 -0.3837367 -0.007634282 -0.932423 -0.361288 -0.1177801 0.002634525 0.9930362 -0.1184141 0.003214836 0.9929592 -0.1193483 0.003789186 0.9928452 -0.1286951 0.001943051 0.9916824 -0.1273278 0.002616107 0.9918573 -0.1284162 0.001613795 0.9917191 -0.1251476 0.00364691 0.9921315 -0.1246983 0.003151834 0.9921897 -0.007499873 -0.9327926 -0.3603357 -0.007499933 -0.9327989 -0.3603193 -0.007500112 -0.9327958 -0.3603273 -0.007499873 -0.9327956 -0.3603278 -0.007499873 -0.9327929 -0.3603349 -0.007500052 -0.9327896 -0.3603432 -0.1177557 0.002598166 0.9930393 -0.1195009 0.003836512 0.9928267 -0.1206541 0.003541052 0.9926883 -0.1288148 0.001963675 0.9916667 -0.1285932 0.001534759 0.9916963 -0.1301597 0.002441227 0.9914901 -0.1251905 0.003127515 0.9921278 -0.1248404 0.002673268 0.9921733 -0.007499217 -0.9327807 -0.3603663 -0.0074988 -0.9327746 -0.3603823 -0.0074988 -0.9327779 -0.3603739 -0.007500946 -0.9327682 -0.3603988 -0.007501065 -0.9328077 -0.3602966 -0.00750041 -0.9328018 -0.3603119 -0.1177552 0.002597093 0.9930393 -0.1195002 0.003836929 0.9928269 -0.1206532 0.003541111 0.9926884 -0.1287691 0.001947641 0.9916727 -0.1284275 0.00164926 0.9917176 -0.1301589 0.002441287 0.9914902 -0.1254995 0.003296434 0.9920882 -0.1245468 0.003050744 0.9922091 -0.1248405 0.002673506 0.9921733 -0.9694655 0.2124356 -0.1225071 -0.9922171 -0.005358636 -0.1244053 -0.9694657 0.2124356 -0.1225051 0.01686489 0.999857 -0.001328229 -0.9478906 0.2931708 -0.1247169 -0.8621138 0.4941678 -0.1120626 -0.8621149 0.4941677 -0.112055 0.8664598 0.4875118 0.1076095 -0.08883368 -0.9960045 -0.009152293 0.9878833 0.09896576 0.1195513 0.9882889 0.09732878 0.1175246 -0.9673017 -0.2228109 -0.121173 -0.9921451 -0.005315423 -0.1249791 -0.9921451 -0.005319952 -0.1249798 -0.988236 0.08067429 -0.1299287 -0.947369 0.2956425 -0.1228309 0.9791574 -0.1571188 0.1287029 0.9797907 -0.1551054 0.1263032 0.9795385 -0.1539498 0.1296301 -0.9694561 0.2124372 -0.1225783 -0.9694563 0.2124372 -0.1225768 0.8880338 -0.4455088 0.1136575 0.8882757 -0.4451129 0.1133174 -0.004821777 -0.372047 0.9282014 -0.01443028 -0.3835764 0.9233964 -0.004823505 -0.3720604 0.928196 0.8664683 0.4875074 0.1075612 -0.9478588 0.293321 -0.1246055 -0.8621317 0.4941723 -0.1119052 -0.862133 0.4941722 -0.1118963 -0.9672964 -0.2228111 -0.1212142 -0.9921442 -0.005320787 -0.1249862 0.01302123 0.3719401 -0.9281654 0.002465009 0.3837487 -0.9234343 0.002465188 0.3837722 -0.9234246 -0.00482136 -0.3720082 0.928217 -0.01443028 -0.3835723 0.9233981 -0.004823029 -0.3720214 0.9282116 0.8880318 -0.4455102 0.1136677 0.8884884 -0.4447415 0.1131084 -0.004822313 -0.3720975 0.9281812 -0.01443159 -0.3836211 0.9233778 -0.004823267 -0.3721109 0.9281758 0.01302075 0.3719054 -0.9281793 0.002464771 0.3837367 -0.9234394 0.002465009 0.3837605 -0.9234294 0.01302069 0.371958 -0.9281584 0.002465307 0.3837735 -0.923424 0.002465486 0.3837974 -0.9234141 -0.00482124 -0.37202 0.9282122 -0.01443052 -0.3835803 0.9233948 -0.004822969 -0.3720332 0.9282069 0.004875659 -0.3604558 0.9327637 0.004876494 -0.3604032 0.932784 -0.004821777 -0.3720633 0.9281948 -0.01443123 -0.3836305 0.9233739 -0.004823505 -0.3720766 0.9281895 0.02346837 0.3601757 -0.9325893 0.01301705 0.3719782 -0.9281502 0.01302063 0.3719058 -0.9281792 0.002464771 0.3837327 -0.9234409 0.00246495 0.3837563 -0.9234312 0.004875719 -0.3604578 0.9327628 0.004876554 -0.3604055 0.932783 0.01302176 0.3719882 -0.9281462 0.002465486 0.3837833 -0.9234199 0.002465665 0.3838065 -0.9234104 -0.00482136 -0.3720242 0.9282106 -0.01443028 -0.3835739 0.9233974 -0.004823088 -0.3720375 0.9282052 0.02346819 0.3601786 -0.9325882 0.01301711 0.3720088 -0.928138 0.004875659 -0.3604267 0.9327749 0.004876494 -0.3603741 0.9327951 -0.004821896 -0.3720691 0.9281926 -0.01443105 -0.3836312 0.9233738 -0.004823625 -0.3720824 0.9281872 0.00487554 -0.3604544 0.9327641 0.004876375 -0.3604019 0.9327844 0.0234667 0.3601255 -0.9326087 0.01301658 0.3719606 -0.9281573 0.01302051 0.371927 -0.9281707 0.00246483 0.383728 -0.9234429 0.002465009 0.3837518 -0.9234331 0.01302105 0.3719815 -0.9281489 0.023467 0.360163 -0.9325943 0.0130164 0.3720019 -0.9281408 0.004875123 -0.3604202 0.9327774 0.004875957 -0.3603679 0.9327976 0.002465605 0.3837918 -0.9234164 0.002465784 0.3838153 -0.9234066 -0.004821181 -0.3720027 0.9282191 -0.01443028 -0.383573 0.9233978 -0.004822909 -0.372016 0.9282138 -0.004822373 -0.3720834 0.9281868 0.004874467 -0.3604699 0.9327582 0.004875242 -0.3604174 0.9327785 0.02346712 0.3601298 -0.932607 0.01301628 0.3719256 -0.9281713 -0.01443094 -0.3836273 0.9233753 -0.004823982 -0.3720966 0.9281815 0.01302194 0.3720044 -0.9281396 0.02346861 0.3601893 -0.932584 0.01301741 0.3720248 -0.9281315 0.004875123 -0.3604161 0.9327789 0.004875898 -0.3603636 0.9327993 0.01302087 0.3719058 -0.9281792 0.002464711 0.3837269 -0.9234434 0.00246489 0.3837501 -0.9234337 -0.00482124 -0.3720089 0.9282167 0.004875183 -0.3603781 0.9327936 0.004876017 -0.3603255 0.9328139 0.02346831 0.3601499 -0.9325992 0.01301598 0.371926 -0.9281712 0.002465486 0.3837863 -0.9234188 0.002465724 0.3838099 -0.9234089 -0.004822075 -0.3720471 0.9282014 -0.01443088 -0.3835856 0.9233927 -0.004823029 -0.3720604 0.928196 0.01302039 0.371891 -0.9281851 0.02346712 0.360098 -0.9326193 0.0130158 0.3719115 -0.9281771 0.004875242 -0.3604144 0.9327796 0.004876077 -0.360362 0.9327998 -0.01442962 -0.3835386 0.9234122 -0.004822969 -0.3720223 0.9282113 -0.004821062 -0.3719725 0.9282313 0.004875361 -0.3603972 0.9327862 0.004876196 -0.3603449 0.9328064 0.02346748 0.3601368 -0.9326043 0.01301604 0.3719472 -0.9281627 0.01302075 0.3719373 -0.9281666 0.00246495 0.3837465 -0.9234352 0.002465128 0.3837697 -0.9234256 0.01302117 0.3719036 -0.92818 0.02346748 0.3601107 -0.9326145 0.01301658 0.371924 -0.928172 0.004875183 -0.3604178 0.9327784 0.004876017 -0.3603654 0.9327986 0.002464592 0.3837143 -0.9234486 0.00246483 0.3837375 -0.9234389 -0.9703964 -0.212066 -0.1155806 -0.9187813 -0.3796021 -0.1083657 -0.9706223 -0.2103928 -0.1167356 -0.9703814 -0.2121981 -0.1154642 -0.992054 -0.03631281 -0.120459 -0.9920533 -0.03631275 -0.120464 0.02346789 0.360137 -0.9326043 0.01301622 0.3719261 -0.9281712 -0.01442945 -0.3835248 0.9234179 -0.004822731 -0.3719857 0.9282261 0.01686239 0.999857 -0.001369714 0.004875361 -0.3604255 0.9327753 0.004876196 -0.360373 0.9327956 0.9878746 0.09900146 0.1195937 0.9882804 0.09732973 0.1175956 -0.08883571 -0.9960041 -0.009184956 0.02346712 0.3601344 -0.9326053 0.01301699 0.3719578 -0.9281585 0.002464413 0.3836987 -0.9234551 0.002464652 0.3837222 -0.9234454 0.9791477 -0.1571628 0.128723 0.9798033 -0.1551023 0.1262093 0.979538 -0.1539197 0.1296688 -0.9882408 0.0806747 -0.1298913 -0.9474112 0.2954441 -0.1229829 -0.9920541 -0.03631263 -0.120458 -0.9920535 -0.03631258 -0.120463 -0.9187858 -0.3796036 -0.1083226 -0.9706372 -0.2103006 -0.116778 0.01688003 0.9998565 -0.001503348 0.8664541 0.4875121 0.1076539 -0.08884543 -0.9960043 -0.009053111 0.9878852 0.09894245 0.1195541 0.9880527 0.09639835 0.1202462 0.9882701 0.09733259 0.1176813 -0.9673016 -0.2228109 -0.1211732 -0.9882352 0.08067423 -0.1299345 0.9791472 -0.157177 0.1287096 0.9798178 -0.1551049 0.126094 0.8880859 -0.4454985 0.1132895 0.8880963 -0.4456204 0.1127275 -0.01443052 -0.3836017 0.9233858 0.8664451 0.4875128 0.1077228 -0.9672964 -0.2228111 -0.1212148 -0.01443046 -0.3835979 0.9233876 0.8880886 -0.4454987 0.1132683 0.8880969 -0.445601 0.1128 0.8883081 -0.4450774 0.1132033 -0.01443177 -0.3836464 0.9233674 -0.0144307 -0.3836058 0.9233842 -0.01443141 -0.3836558 0.9233634 0.0234673 0.3601115 -0.9326141 -0.01443046 -0.3835994 0.9233869 0.02346712 0.3601143 -0.9326131 -0.01443123 -0.3836565 0.9233632 0.02346557 0.3600611 -0.9326336 0.02346587 0.3600986 -0.9326191 -0.01443052 -0.3835988 0.9233871 0.02346599 0.3600657 -0.9326319 -0.01443117 -0.3836527 0.9233648 0.02346754 0.360125 -0.9326089 0.02346718 0.3600859 -0.932624 -0.01443105 -0.383611 0.9233821 0.02346599 0.3600338 -0.9326442 -0.01442986 -0.3835639 0.9234016 0.0234664 0.3600727 -0.9326292 0.02346634 0.3600463 -0.9326393 -0.918782 -0.3796021 -0.1083604 0.02346676 0.3600729 -0.932629 -0.01442962 -0.3835503 0.9234073 0.01687121 0.9998567 -0.001470327 0.9878861 0.09894382 0.1195462 0.9880539 0.09639477 0.1202406 0.9882821 0.09733009 0.117582 -0.08886051 -0.9960043 -0.008907914 0.02346599 0.3600701 -0.9326302 0.9791383 -0.1572032 0.1287451 0.9797947 -0.1551048 0.1262739 -0.9882401 0.08067464 -0.1298969 -0.9187865 -0.3796036 -0.1083172 -0.01543271 -0.9998803 -0.001082301 -0.1836841 0.002836644 -0.9829813 0.01543265 0.9998804 0.001084208 0.007949471 -1.22547e-4 -0.9999684 -0.007949411 1.22439e-4 0.9999684 -0.009932458 1.53037e-4 0.9999507 0.008167564 -1.25755e-4 -0.9999668 0.01543265 0.9998803 0.001082837 -0.01543265 -0.9998803 -0.00108534 0.01543265 0.9998803 0.001081764 -0.1836837 0.002836644 -0.9829814 -0.01543277 -0.9998804 -0.001084208 0.007949471 -1.22412e-4 -0.9999685 -0.007949531 1.22534e-4 0.9999685 -0.009932458 1.52948e-4 0.9999507 0.008167564 -1.25803e-4 -0.9999668 -0.01543265 -0.9998803 -0.001083672 0.01543271 0.9998804 0.001084208 -0.01543265 -0.9998804 -0.001082003 -0.1836841 0.002832233 -0.9829813 0.01543277 0.9998803 0.001079618 0.007949471 -1.22369e-4 -0.9999684 -0.007949531 1.22722e-4 0.9999684 -0.009932518 1.53024e-4 0.9999507 0.008167564 -1.25629e-4 -0.9999667 0.01543265 0.9998803 0.001081407 -0.01543277 -0.9998803 -0.001080214 0.01543265 0.9998803 0.001083672 -0.1836839 0.002833783 -0.9829813 -0.01543265 -0.9998803 -0.001082479 0.007949471 -1.22534e-4 -0.9999684 -0.007949531 1.22721e-4 0.9999684 -0.009932458 1.53168e-4 0.9999507 0.008167564 -1.25765e-4 -0.9999668 -0.01543271 -0.9998803 -0.001080632 0.01543277 0.9998803 0.00108534</float_array>
          <technique_common>
            <accessor source="#Cubo_008-mesh-normals-array" count="472" stride="3">
              <param name="X" type="float"/>
              <param name="Y" type="float"/>
              <param name="Z" type="float"/>
            </accessor>
          </technique_common>
        </source>
        <source id="Cubo_008-mesh-map-0">
          <float_array id="Cubo_008-mesh-map-0-array" count="1776">0.9330679 0.9046848 0.9202837 0.8627712 0.9331116 0.8627806 0.3131771 0.4239938 0.2529513 0.4366585 0.3132416 0.4352338 0.2528243 0.4146123 0.3131771 0.4239938 0.3131145 0.4131876 0.252889 0.4256929 0.3131145 0.4131876 0.3131777 0.4241933 0.8945842 0.9046565 0.9074558 0.8627618 0.9074121 0.904666 0.3132416 0.4352338 0.252889 0.4256929 0.3131777 0.4241933 0.34554 0.4344705 0.3131777 0.4241933 0.3454751 0.42339 0.3131777 0.4241933 0.3454129 0.4124243 0.3454751 0.42339 0.3131145 0.4131876 0.3458328 0.4233115 0.3454129 0.4124243 0.3451086 0.423067 0.3132416 0.4352338 0.34554 0.4344705 0.9330679 0.9046848 0.9202837 0.8627712 0.9331116 0.8627806 0.3131771 0.4239938 0.2529513 0.4366585 0.3132416 0.4352338 0.2528243 0.4146123 0.3131771 0.4239938 0.3131145 0.4131876 0.252889 0.4256929 0.3131145 0.4131876 0.3131777 0.4241933 0.8945842 0.9046565 0.9074558 0.8627618 0.9074121 0.904666 0.3132416 0.4352338 0.252889 0.4256929 0.3131777 0.4241933 0.34554 0.4344705 0.3131777 0.4241933 0.3454751 0.42339 0.3131777 0.4241933 0.3454129 0.4124243 0.3454751 0.42339 0.3131145 0.4131876 0.3458328 0.4233115 0.3454129 0.4124243 0.3451086 0.423067 0.3132416 0.4352338 0.34554 0.4344705 0.9330679 0.9046848 0.9202399 0.9046754 0.9202837 0.8627712 0.3131771 0.4239938 0.2525225 0.4253699 0.2529513 0.4366585 0.2528243 0.4146123 0.2532467 0.4256144 0.3131771 0.4239938 0.252889 0.4256929 0.2528243 0.4146123 0.3131145 0.4131876 0.8945842 0.9046565 0.8946279 0.8627524 0.9074558 0.8627618 0.3132416 0.4352338 0.2529513 0.4366585 0.252889 0.4256929 0.34554 0.4344705 0.3132416 0.4352338 0.3131777 0.4241933 0.3131777 0.4241933 0.3131145 0.4131876 0.3454129 0.4124243 0.3131145 0.4131876 0.3131771 0.4239938 0.3458328 0.4233115 0.3451086 0.423067 0.3131771 0.4239938 0.3132416 0.4352338 0.9330679 0.9046848 0.9202399 0.9046754 0.9202837 0.8627712 0.3131771 0.4239938 0.2525225 0.4253699 0.2529513 0.4366585 0.2528243 0.4146123 0.2532467 0.4256144 0.3131771 0.4239938 0.252889 0.4256929 0.2528243 0.4146123 0.3131145 0.4131876 0.8945842 0.9046565 0.8946279 0.8627524 0.9074558 0.8627618 0.3132416 0.4352338 0.2529513 0.4366585 0.252889 0.4256929 0.34554 0.4344705 0.3132416 0.4352338 0.3131777 0.4241933 0.3131777 0.4241933 0.3131145 0.4131876 0.3454129 0.4124243 0.3131145 0.4131876 0.3131771 0.4239938 0.3458328 0.4233115 0.3451086 0.423067 0.3131771 0.4239938 0.3132416 0.4352338 0.3131771 0.4239938 0.2525225 0.4253699 0.3131771 0.4239938 0.2525225 0.4253699 0.3131771 0.4239938 0.3131771 0.4239938 0.3131771 0.4239938 0.2525225 0.4253699 0.2525225 0.4253699 0.2525225 0.4253699 0.2525225 0.4253699 0.3131771 0.4239938 0.3040634 0.1571587 0.2716931 0.1973799 0.3075936 0.200812 0.3040634 0.1571587 0.2716931 0.1973799 0.3075936 0.200812 0.3040634 0.1571587 0.2716931 0.1973799 0.3075936 0.200812 0.3040634 0.1571587 0.2716931 0.1973799 0.3075936 0.200812 0.3040634 0.1571587 0.2716931 0.1973799 0.3075936 0.200812 0.3040634 0.1571587 0.2716931 0.1973799 0.3075936 0.200812 0.3040634 0.1571587 0.2716931 0.1973799 0.3075936 0.200812 0.3040634 0.1571587 0.2716931 0.1973799 0.3075936 0.200812 0.2727628 0.1591037 0.3075936 0.200812 0.3040634 0.1571587 0.3040634 0.1571587 0.2716931 0.1973799 0.3075936 0.200812 0.3040634 0.1571587 0.2716931 0.1973799 0.3075936 0.200812 0.3040634 0.1571587 0.2716931 0.1973799 0.3075936 0.200812 0.3040634 0.1571587 0.2716931 0.1973799 0.3075936 0.200812 0.3040634 0.1571587 0.2716931 0.1973799 0.3075936 0.200812 0.3040634 0.1571587 0.2716931 0.1973799 0.3075936 0.200812 0.3040634 0.1571587 0.2716931 0.1973799 0.3075936 0.200812 0.3040634 0.1571587 0.2716931 0.1973799 0.3075936 0.200812 0.2727628 0.1591037 0.3075936 0.200812 0.3040634 0.1571587 0.3040634 0.1571587 0.2727628 0.1591037 0.2716931 0.1973799 0.3040634 0.1571587 0.2727628 0.1591037 0.2716931 0.1973799 0.3040634 0.1571587 0.2727628 0.1591037 0.2716931 0.1973799 0.3040634 0.1571587 0.2727628 0.1591037 0.2716931 0.1973799 0.3040634 0.1571587 0.2727628 0.1591037 0.2716931 0.1973799 0.3040634 0.1571587 0.2727628 0.1591037 0.2716931 0.1973799 0.3040634 0.1571587 0.2727628 0.1591037 0.2716931 0.1973799 0.3040634 0.1571587 0.2727628 0.1591037 0.2716931 0.1973799 0.2727628 0.1591037 0.2716931 0.1973799 0.3075936 0.200812 0.3040634 0.1571587 0.2727628 0.1591037 0.2716931 0.1973799 0.3040634 0.1571587 0.2727628 0.1591037 0.2716931 0.1973799 0.3040634 0.1571587 0.2727628 0.1591037 0.2716931 0.1973799 0.3040634 0.1571587 0.2727628 0.1591037 0.2716931 0.1973799 0.3040634 0.1571587 0.2727628 0.1591037 0.2716931 0.1973799 0.3040634 0.1571587 0.2727628 0.1591037 0.2716931 0.1973799 0.3040634 0.1571587 0.2727628 0.1591037 0.2716931 0.1973799 0.3040634 0.1571587 0.2727628 0.1591037 0.2716931 0.1973799 0.2727628 0.1591037 0.2716931 0.1973799 0.3075936 0.200812 0.3040634 0.1571587 0.3075936 0.200812 0.2716931 0.1973799 0.3040634 0.1571587 0.3075936 0.200812 0.2716931 0.1973799 0.3040634 0.1571587 0.3075936 0.200812 0.2716931 0.1973799 0.3040634 0.1571587 0.3075936 0.200812 0.2716931 0.1973799 0.3040634 0.1571587 0.3075936 0.200812 0.2716931 0.1973799 0.3040634 0.1571587 0.3075936 0.200812 0.2716931 0.1973799 0.3040634 0.1571587 0.3075936 0.200812 0.2716931 0.1973799 0.3040634 0.1571587 0.3075936 0.200812 0.2716931 0.1973799 0.2727628 0.1591037 0.3040634 0.1571587 0.3075936 0.200812 0.3040634 0.1571587 0.3075936 0.200812 0.2716931 0.1973799 0.3040634 0.1571587 0.3075936 0.200812 0.2716931 0.1973799 0.3040634 0.1571587 0.3075936 0.200812 0.2716931 0.1973799 0.3040634 0.1571587 0.3075936 0.200812 0.2716931 0.1973799 0.3040634 0.1571587 0.3075936 0.200812 0.2716931 0.1973799 0.3040634 0.1571587 0.3075936 0.200812 0.2716931 0.1973799 0.3040634 0.1571587 0.3075936 0.200812 0.2716931 0.1973799 0.3040634 0.1571587 0.3075936 0.200812 0.2716931 0.1973799 0.2727628 0.1591037 0.3040634 0.1571587 0.3075936 0.200812 0.3040634 0.1571587 0.2716931 0.1973799 0.2727628 0.1591037 0.3040634 0.1571587 0.2716931 0.1973799 0.2727628 0.1591037 0.3040634 0.1571587 0.2716931 0.1973799 0.2727628 0.1591037 0.3040634 0.1571587 0.2716931 0.1973799 0.2727628 0.1591037 0.3040634 0.1571587 0.2716931 0.1973799 0.2727628 0.1591037 0.3040634 0.1571587 0.2716931 0.1973799 0.2727628 0.1591037 0.3040634 0.1571587 0.2716931 0.1973799 0.2727628 0.1591037 0.3040634 0.1571587 0.2716931 0.1973799 0.2727628 0.1591037 0.2727628 0.1591037 0.3075936 0.200812 0.2716931 0.1973799 0.3040634 0.1571587 0.2716931 0.1973799 0.2727628 0.1591037 0.3040634 0.1571587 0.2716931 0.1973799 0.2727628 0.1591037 0.3040634 0.1571587 0.2716931 0.1973799 0.2727628 0.1591037 0.3040634 0.1571587 0.2716931 0.1973799 0.2727628 0.1591037 0.3040634 0.1571587 0.2716931 0.1973799 0.2727628 0.1591037 0.3040634 0.1571587 0.2716931 0.1973799 0.2727628 0.1591037 0.3040634 0.1571587 0.2716931 0.1973799 0.2727628 0.1591037 0.3040634 0.1571587 0.2716931 0.1973799 0.2727628 0.1591037 0.2727628 0.1591037 0.3075936 0.200812 0.2716931 0.1973799 0.2716931 0.1973799 0.2727628 0.1591037 0.2716931 0.1973799 0.2716931 0.1973799 0.2727628 0.1591037 0.2716931 0.1973799 0.2716931 0.1973799 0.3075936 0.200812 0.3075936 0.200812 0.2716931 0.1973799 0.3075936 0.200812 0.3075936 0.200812 0.3040634 0.1571587 0.2727628 0.1591037 0.2727628 0.1591037 0.2716931 0.1973799 0.3075936 0.200812 0.3075936 0.200812 0.3040634 0.1571587 0.2727628 0.1591037 0.2727628 0.1591037 0.2716931 0.1973799 0.2727628 0.1591037 0.2716931 0.1973799 0.3040634 0.1571587 0.3075936 0.200812 0.3040634 0.1571587 0.2716931 0.1973799 0.2727628 0.1591037 0.2716931 0.1973799 0.3040634 0.1571587 0.3075936 0.200812 0.3040634 0.1571587 0.3040634 0.1571587 0.3075936 0.200812 0.3040634 0.1571587 0.2716931 0.1973799 0.3075936 0.200812 0.3075936 0.200812 0.2716931 0.1973799 0.3075936 0.200812 0.3075936 0.200812 0.3040634 0.1571587 0.2727628 0.1591037 0.2727628 0.1591037 0.2716931 0.1973799 0.3075936 0.200812 0.3075936 0.200812 0.3040634 0.1571587 0.3075936 0.200812 0.3040634 0.1571587 0.3040634 0.1571587 0.3075936 0.200812 0.3040634 0.1571587 0.3040634 0.1571587 0.3075936 0.200812 0.3040634 0.1571587 0.2716931 0.1973799 0.3075936 0.200812 0.3075936 0.200812 0.2716931 0.1973799 0.3075936 0.200812 0.3075936 0.200812 0.3040634 0.1571587 0.3075936 0.200812 0.3040634 0.1571587 0.3040634 0.1571587 0.2727628 0.1591037 0.2727628 0.1591037 0.3040634 0.1571587 0.3075936 0.200812 0.3040634 0.1571587 0.2716931 0.1973799 0.2727628 0.1591037 0.2716931 0.1973799 0.2716931 0.1973799 0.3075936 0.200812 0.3075936 0.200812 0.3040634 0.1571587 0.2727628 0.1591037 0.2727628 0.1591037 0.2716931 0.1973799 0.3075936 0.200812 0.3075936 0.200812 0.3040634 0.1571587 0.3075936 0.200812 0.3040634 0.1571587 0.2716931 0.1973799 0.2727628 0.1591037 0.2716931 0.1973799 0.3040634 0.1571587 0.2727628 0.1591037 0.2727628 0.1591037 0.3040634 0.1571587 0.3075936 0.200812 0.3040634 0.1571587 0.3040634 0.1571587 0.2727628 0.1591037 0.2727628 0.1591037 0.2716931 0.1973799 0.2727628 0.1591037 0.2716931 0.1973799 0.2716931 0.1973799 0.3075936 0.200812 0.3075936 0.200812 0.2716931 0.1973799 0.2727628 0.1591037 0.2716931 0.1973799 0.3040634 0.1571587 0.2727628 0.1591037 0.2727628 0.1591037 0.2716931 0.1973799 0.3075936 0.200812 0.3075936 0.200812 0.3040634 0.1571587 0.3075936 0.200812 0.3040634 0.1571587 0.3040634 0.1571587 0.2727628 0.1591037 0.2727628 0.1591037 0.2716931 0.1973799 0.2727628 0.1591037 0.2716931 0.1973799 0.3040634 0.1571587 0.3075936 0.200812 0.3040634 0.1571587 0.2716931 0.1973799 0.2727628 0.1591037 0.2716931 0.1973799 0.3040634 0.1571587 0.2727628 0.1591037 0.2727628 0.1591037 0.2716931 0.1973799 0.3075936 0.200812 0.3075936 0.200812 0.3040634 0.1571587 0.2727628 0.1591037 0.2727628 0.1591037 0.2716931 0.1973799 0.2727628 0.1591037 0.2716931 0.1973799 0.2716931 0.1973799 0.3075936 0.200812 0.3075936 0.200812 0.3040634 0.1571587 0.3075936 0.200812 0.3040634 0.1571587 0.2716931 0.1973799 0.2727628 0.1591037 0.2716931 0.1973799 0.3040634 0.1571587 0.2727628 0.1591037 0.2727628 0.1591037 0.3040634 0.1571587 0.3075936 0.200812 0.3040634 0.1571587 0.3040634 0.1571587 0.2727628 0.1591037 0.2727628 0.1591037 0.2716931 0.1973799 0.2727628 0.1591037 0.2716931 0.1973799 0.2716931 0.1973799 0.3075936 0.200812 0.3075936 0.200812 0.2716931 0.1973799 0.2727628 0.1591037 0.2716931 0.1973799 0.3040634 0.1571587 0.2727628 0.1591037 0.2727628 0.1591037 0.2716931 0.1973799 0.3075936 0.200812 0.3075936 0.200812 0.3040634 0.1571587 0.3075936 0.200812 0.3040634 0.1571587 0.3040634 0.1571587 0.2727628 0.1591037 0.2727628 0.1591037 0.2716931 0.1973799 0.2727628 0.1591037 0.2716931 0.1973799 0.3040634 0.1571587 0.3075936 0.200812 0.3040634 0.1571587 0.2716931 0.1973799 0.2727628 0.1591037 0.2716931 0.1973799 0.3040634 0.1571587 0.2727628 0.1591037 0.2727628 0.1591037 0.2716931 0.1973799 0.3075936 0.200812 0.3075936 0.200812 0.3040634 0.1571587 0.2727628 0.1591037 0.2727628 0.1591037 0.2716931 0.1973799 0.2727628 0.1591037 0.2716931 0.1973799 0.2716931 0.1973799 0.3075936 0.200812 0.3075936 0.200812 0.3040634 0.1571587 0.3075936 0.200812 0.3040634 0.1571587 0.2716931 0.1973799 0.2727628 0.1591037 0.2716931 0.1973799 0.3040634 0.1571587 0.2727628 0.1591037 0.2727628 0.1591037 0.3040634 0.1571587 0.3075936 0.200812 0.3040634 0.1571587 0.2716931 0.1973799 0.2727628 0.1591037 0.2727628 0.1591037 0.2716931 0.1973799 0.2727628 0.1591037 0.2727628 0.1591037 0.2716931 0.1973799 0.2716931 0.1973799 0.3075936 0.200812 0.2716931 0.1973799 0.2716931 0.1973799 0.3075936 0.200812 0.3040634 0.1571587 0.3040634 0.1571587 0.2727628 0.1591037 0.2716931 0.1973799 0.2716931 0.1973799 0.3075936 0.200812 0.3040634 0.1571587 0.3040634 0.1571587 0.2727628 0.1591037 0.2716931 0.1973799 0.2727628 0.1591037 0.2727628 0.1591037 0.3040634 0.1571587 0.3075936 0.200812 0.3075936 0.200812 0.2716931 0.1973799 0.2727628 0.1591037 0.2727628 0.1591037 0.3040634 0.1571587 0.3075936 0.200812 0.3075936 0.200812 0.3040634 0.1571587 0.3075936 0.200812 0.3075936 0.200812 0.2716931 0.1973799 0.2716931 0.1973799 0.3075936 0.200812 0.2716931 0.1973799 0.2716931 0.1973799 0.3075936 0.200812 0.3040634 0.1571587 0.3040634 0.1571587 0.2727628 0.1591037 0.2716931 0.1973799 0.2716931 0.1973799 0.3075936 0.200812 0.3040634 0.1571587 0.3075936 0.200812 0.3075936 0.200812 0.3040634 0.1571587 0.3075936 0.200812 0.3075936 0.200812 0.3040634 0.1571587 0.3075936 0.200812 0.3075936 0.200812 0.2716931 0.1973799 0.2716931 0.1973799 0.3075936 0.200812 0.2716931 0.1973799 0.2716931 0.1973799 0.3075936 0.200812 0.3040634 0.1571587 0.3075936 0.200812 0.3075936 0.200812 0.3040634 0.1571587 0.3040634 0.1571587 0.2727628 0.1591037 0.3040634 0.1571587 0.3075936 0.200812 0.3075936 0.200812 0.2716931 0.1973799 0.2727628 0.1591037 0.2727628 0.1591037 0.2716931 0.1973799 0.2716931 0.1973799 0.3075936 0.200812 0.3040634 0.1571587 0.3040634 0.1571587 0.2727628 0.1591037 0.2716931 0.1973799 0.2716931 0.1973799 0.3075936 0.200812 0.3040634 0.1571587 0.3075936 0.200812 0.3075936 0.200812 0.2716931 0.1973799 0.2727628 0.1591037 0.2727628 0.1591037 0.3040634 0.1571587 0.3040634 0.1571587 0.2727628 0.1591037 0.3040634 0.1571587 0.3075936 0.200812 0.3075936 0.200812 0.3040634 0.1571587 0.3040634 0.1571587 0.2727628 0.1591037 0.2716931 0.1973799 0.2727628 0.1591037 0.2727628 0.1591037 0.2716931 0.1973799 0.2716931 0.1973799 0.3075936 0.200812 0.2716931 0.1973799 0.2727628 0.1591037 0.2727628 0.1591037 0.3040634 0.1571587 0.3040634 0.1571587 0.2727628 0.1591037 0.2716931 0.1973799 0.2716931 0.1973799 0.3075936 0.200812 0.3040634 0.1571587 0.3075936 0.200812 0.3075936 0.200812 0.3040634 0.1571587 0.3040634 0.1571587 0.2727628 0.1591037 0.2716931 0.1973799 0.2727628 0.1591037 0.2727628 0.1591037 0.3040634 0.1571587 0.3075936 0.200812 0.3075936 0.200812 0.2716931 0.1973799 0.2727628 0.1591037 0.2727628 0.1591037 0.3040634 0.1571587 0.3040634 0.1571587 0.2727628 0.1591037 0.2716931 0.1973799 0.2716931 0.1973799 0.3075936 0.200812 0.3040634 0.1571587 0.3040634 0.1571587 0.2727628 0.1591037 0.2716931 0.1973799 0.2727628 0.1591037 0.2727628 0.1591037 0.2716931 0.1973799 0.2716931 0.1973799 0.3075936 0.200812 0.3040634 0.1571587 0.3075936 0.200812 0.3075936 0.200812 0.2716931 0.1973799 0.2727628 0.1591037 0.2727628 0.1591037 0.3040634 0.1571587 0.3040634 0.1571587 0.2727628 0.1591037 0.3040634 0.1571587 0.3075936 0.200812 0.3075936 0.200812 0.3040634 0.1571587 0.3040634 0.1571587 0.2727628 0.1591037 0.2716931 0.1973799 0.2727628 0.1591037 0.2727628 0.1591037 0.2716931 0.1973799 0.2716931 0.1973799 0.3075936 0.200812 0.2716931 0.1973799 0.2727628 0.1591037 0.2727628 0.1591037 0.3040634 0.1571587 0.3040634 0.1571587 0.2727628 0.1591037 0.2716931 0.1973799 0.2716931 0.1973799 0.3075936 0.200812 0.3040634 0.1571587 0.3075936 0.200812 0.3075936 0.200812 0.3040634 0.1571587 0.3040634 0.1571587 0.2727628 0.1591037 0.2716931 0.1973799 0.2727628 0.1591037 0.2727628 0.1591037 0.3040634 0.1571587 0.3075936 0.200812 0.3075936 0.200812 0.2716931 0.1973799 0.2727628 0.1591037 0.2727628 0.1591037 0.3040634 0.1571587 0.3040634 0.1571587 0.2727628 0.1591037 0.2716931 0.1973799 0.2716931 0.1973799 0.3075936 0.200812 0.3040634 0.1571587 0.3040634 0.1571587 0.2727628 0.1591037 0.2716931 0.1973799 0.2727628 0.1591037 0.2727628 0.1591037 0.2716931 0.1973799 0.2716931 0.1973799 0.3075936 0.200812 0.3040634 0.1571587 0.3075936 0.200812 0.3075936 0.200812 0.2716931 0.1973799 0.2727628 0.1591037 0.2727628 0.1591037 0.3040634 0.1571587 0.3040634 0.1571587 0.2727628 0.1591037 0.3040634 0.1571587 0.3075936 0.200812 0.3075936 0.200812 0.662326 0.02740323 0.7344568 0.1641902 0.6855846 0.1591536 0.691577 0.1837913 0.68465 0.04457539 0.738486 0.1623484 0.6855846 0.1591536 0.6150736 0.03154325 0.6383324 0.1632937 0.6650199 0.1256942 0.730511 0.1449019 0.6836019 0.1663448 0.6510425 0.09511691 0.7165334 0.1143245 0.6979514 0.07367408 0.6334339 0.0565961 0.6979514 0.07367408 0.6803429 0.03515321 0.6474114 0.08717352 0.7119289 0.1042514 0.6650199 0.1256942 0.7344568 0.1641902 0.662326 0.02740323 0.6855846 0.1591536 0.6150736 0.03154325 0.6855846 0.1591536 0.6383324 0.1632937 0.7344568 0.1641902 0.662326 0.02740323 0.6855846 0.1591536 0.738486 0.1623484 0.637741 0.06601828 0.691577 0.1837913 0.6855846 0.1591536 0.6150736 0.03154325 0.662326 0.02740323 0.6836019 0.1663448 0.7119289 0.1042514 0.6650199 0.1256942 0.6979514 0.07367408 0.6696245 0.1357674 0.6510425 0.09511691 0.6803429 0.03515321 0.6510425 0.09511691 0.6334339 0.0565961 0.6650199 0.1256942 0.6943203 0.06573063 0.6474114 0.08717352 0.7344568 0.1641902 0.662326 0.02740323 0.7111981 0.0324397 0.6855846 0.1591536 0.6150736 0.03154325 0.6383324 0.1632937 0.662326 0.02740323 0.7111981 0.0324397 0.7344568 0.1641902 0.691577 0.1837913 0.637741 0.06601828 0.68465 0.04457539 0.6855846 0.1591536 0.662326 0.02740323 0.6150736 0.03154325 0.6650199 0.1256942 0.7119289 0.1042514 0.730511 0.1449019 0.6510425 0.09511691 0.6696245 0.1357674 0.7165334 0.1143245 0.6334339 0.0565961 0.6510425 0.09511691 0.6979514 0.07367408 0.6474114 0.08717352 0.6943203 0.06573063 0.7119289 0.1042514 0.7344568 0.1641902 0.7111981 0.0324397 0.662326 0.02740323 0.6150736 0.03154325 0.662326 0.02740323 0.6855846 0.1591536 0.7344568 0.1641902 0.7111981 0.0324397 0.662326 0.02740323 0.738486 0.1623484 0.68465 0.04457539 0.637741 0.06601828 0.6855846 0.1591536 0.6383324 0.1632937 0.6150736 0.03154325 0.6836019 0.1663448 0.730511 0.1449019 0.7119289 0.1042514 0.6979514 0.07367408 0.7165334 0.1143245 0.6696245 0.1357674 0.6803429 0.03515321 0.6979514 0.07367408 0.6510425 0.09511691 0.6650199 0.1256942 0.7119289 0.1042514 0.6943203 0.06573063 0.7344568 0.1641902 0.6855846 0.1591536 0.662326 0.02740323 0.6855846 0.1591536 0.662326 0.02740323 0.6150736 0.03154325</float_array>
          <technique_common>
            <accessor source="#Cubo_008-mesh-map-0-array" count="888" stride="2">
              <param name="S" type="float"/>
              <param name="T" type="float"/>
            </accessor>
          </technique_common>
        </source>
        <vertices id="Cubo_008-mesh-vertices">
          <input semantic="POSITION" source="#Cubo_008-mesh-positions"/>
        </vertices>
        <triangles material="coronas_viejas_zapo_001-material" count="296">
          <input semantic="VERTEX" source="#Cubo_008-mesh-vertices" offset="0"/>
          <input semantic="NORMAL" source="#Cubo_008-mesh-normals" offset="1"/>
          <input semantic="TEXCOORD" source="#Cubo_008-mesh-map-0" offset="2" set="0"/>
          <p>1 0 0 3 1 1 0 2 2 8 3 3 7 4 4 11 5 5 5 6 6 8 3 7 9 7 8 6 8 9 9 9 10 10 10 11 7 11 12 5 12 13 6 8 14 11 13 15 6 8 16 10 10 17 1 14 18 10 10 19 4 15 20 10 10 21 3 16 22 4 15 23 9 7 24 0 2 25 3 1 26 0 2 27 11 5 28 1 0 29 13 17 30 15 18 31 12 19 32 20 20 33 19 21 34 23 22 35 17 23 36 20 20 37 21 24 38 18 25 39 21 26 40 22 27 41 19 28 42 17 29 43 18 25 44 23 30 45 18 25 46 22 27 47 13 31 48 22 27 49 16 32 50 22 27 51 15 33 52 16 32 53 21 24 54 12 19 55 15 18 56 12 19 57 23 22 58 13 17 59 1 0 60 4 34 61 3 1 62 8 3 63 2 35 64 7 4 65 5 6 66 2 36 67 8 3 68 6 8 69 5 12 70 9 9 71 7 11 72 2 37 73 5 12 74 11 13 75 7 11 76 6 8 77 1 14 78 11 13 79 10 10 80 10 10 81 9 9 82 3 16 83 9 7 84 8 3 85 0 2 86 0 2 87 8 3 88 11 5 89 13 17 90 16 38 91 15 18 92 20 20 93 14 39 94 19 21 95 17 23 96 14 40 97 20 20 98 18 25 99 17 29 100 21 26 101 19 28 102 14 41 103 17 29 104 23 30 105 19 28 106 18 25 107 13 31 108 23 30 109 22 27 110 22 27 111 21 26 112 15 33 113 21 24 114 20 20 115 12 19 116 12 19 117 20 20 118 23 22 119 20 42 120 25 43 121 27 44 122 2 45 123 26 46 124 8 47 125 20 42 126 14 48 127 25 43 128 2 45 129 24 49 130 26 46 131 28 50 132 31 51 133 30 52 134 32 53 135 35 54 136 34 55 137 39 56 138 36 57 139 37 58 140 40 59 141 43 60 142 42 61 143 47 62 144 44 63 145 45 64 146 51 65 147 48 66 148 49 67 149 52 68 150 55 69 151 54 70 152 59 71 153 56 72 154 57 73 155 62 74 156 61 75 157 63 76 158 64 77 159 67 78 160 66 79 161 68 80 162 71 81 163 70 82 164 75 83 165 72 84 166 73 85 167 76 86 168 79 87 169 78 88 170 83 89 171 80 90 172 81 91 173 87 92 174 84 93 175 85 94 176 88 95 177 91 96 178 90 97 179 95 98 180 92 99 181 93 100 182 98 101 183 97 102 184 99 103 185 28 50 186 29 104 187 31 51 188 32 53 189 33 105 190 35 54 191 39 56 192 38 106 193 36 57 194 40 59 195 41 107 196 43 60 197 47 62 198 46 108 199 44 63 200 51 65 201 50 109 202 48 66 203 52 110 204 53 111 205 55 112 206 59 113 207 58 114 208 56 115 209 62 116 210 60 117 211 61 118 212 64 77 213 65 119 214 67 78 215 68 80 216 69 120 217 71 81 218 75 83 219 74 121 220 72 84 221 76 86 222 77 122 223 79 87 224 83 89 225 82 123 226 80 90 227 87 92 228 86 124 229 84 93 230 88 125 231 89 126 232 91 127 233 95 128 234 94 129 235 92 130 236 98 131 237 96 132 238 97 133 239 100 134 240 101 135 241 102 136 242 103 137 243 104 138 244 105 139 245 106 140 246 107 141 247 108 142 248 109 143 249 110 144 250 111 145 251 112 146 252 113 147 253 114 148 254 115 149 255 116 150 256 117 151 257 118 152 258 119 153 259 120 154 260 121 155 261 122 156 262 123 157 263 124 158 264 125 158 265 126 159 266 127 160 267 128 161 268 129 162 269 130 163 270 131 164 271 132 165 272 133 166 273 134 167 274 135 168 275 136 169 276 137 170 277 138 171 278 139 172 279 140 173 280 141 174 281 142 175 282 143 176 283 144 177 284 145 178 285 146 179 286 147 180 287 148 181 288 149 182 289 150 183 290 151 184 291 152 184 292 153 185 293 100 134 294 102 136 295 154 186 296 103 137 297 105 139 298 155 187 299 106 140 300 108 142 301 156 188 302 109 143 303 111 145 304 157 189 305 112 146 306 114 148 307 158 190 308 115 149 309 117 151 310 159 191 311 118 192 312 120 193 313 160 194 314 121 195 315 123 196 316 161 197 317 124 198 318 126 199 319 162 199 320 127 160 321 129 162 322 163 200 323 130 163 324 132 165 325 164 201 326 133 166 327 135 168 328 165 202 329 136 169 330 138 171 331 166 203 332 139 172 333 141 174 334 167 204 335 142 175 336 144 177 337 168 205 338 145 206 339 147 207 340 169 208 341 148 209 342 150 210 343 170 211 344 151 212 345 153 213 346 171 214 347 96 215 348 151 216 349 171 217 350 55 218 351 160 218 352 120 218 353 56 219 354 122 220 355 57 221 356 96 222 357 153 222 358 97 222 359 59 223 360 161 223 361 58 223 362 91 224 363 146 225 364 90 225 365 63 226 366 124 227 367 62 228 368 56 219 369 161 229 370 123 230 371 95 231 372 149 232 373 148 233 374 60 234 375 124 227 376 162 235 377 63 236 378 126 237 379 125 236 380 28 238 381 101 239 382 100 240 383 60 241 384 126 241 385 61 241 386 92 242 387 149 243 388 93 244 389 99 245 390 151 216 391 98 246 392 31 247 393 101 248 394 30 249 395 32 250 396 104 251 397 103 252 398 99 253 399 153 254 400 152 253 401 64 255 402 128 256 403 127 257 404 35 258 405 104 259 406 34 260 407 67 261 408 128 262 409 66 263 410 39 264 411 107 265 412 106 266 413 64 255 414 163 267 415 65 268 416 68 269 417 131 270 418 130 271 419 67 261 420 163 272 421 129 273 422 36 274 423 107 275 424 37 276 425 68 269 426 164 277 427 69 278 428 71 279 429 131 280 430 70 281 431 40 282 432 110 283 433 109 284 434 71 279 435 164 285 436 132 286 437 28 238 438 154 287 439 29 288 440 75 289 441 134 290 442 133 291 443 75 289 444 165 292 445 74 293 446 31 247 447 154 294 448 102 295 449 43 296 450 110 297 451 42 298 452 72 299 453 165 300 454 135 301 455 32 250 456 155 302 457 33 303 458 72 299 459 134 304 460 73 305 461 47 306 462 113 307 463 112 308 464 76 309 465 166 310 466 77 311 467 35 258 468 155 312 469 105 313 470 76 309 471 137 314 472 136 315 473 79 316 474 166 317 475 138 318 476 39 264 477 156 319 478 38 320 479 44 321 480 113 322 481 45 323 482 83 324 483 167 325 484 82 326 485 36 274 486 156 327 487 108 328 488 79 316 489 137 329 490 78 330 491 51 331 492 116 332 493 115 333 494 80 334 495 167 335 496 141 336 497 40 282 498 157 337 499 41 338 500 83 324 501 140 339 502 139 340 503 87 341 504 168 342 505 86 343 506 43 296 507 157 344 508 111 345 509 48 346 510 116 347 511 49 348 512 84 349 513 168 350 514 144 351 515 47 306 516 158 352 517 46 353 518 80 334 519 140 354 520 81 355 521 52 356 522 119 357 523 118 358 524 88 359 525 169 360 526 89 361 527 44 321 528 158 362 529 114 363 530 87 341 531 143 364 532 142 365 533 91 366 534 169 366 535 147 366 536 51 331 537 159 367 538 50 368 539 55 369 540 119 370 541 54 370 542 95 371 543 170 371 544 94 371 545 48 346 546 159 372 547 117 373 548 84 349 549 143 374 550 85 375 551 59 376 552 122 377 553 121 378 554 92 242 555 170 379 556 150 380 557 52 356 558 160 381 559 53 382 560 88 359 561 146 383 562 145 384 563 96 215 564 98 246 565 151 216 566 55 385 567 53 385 568 160 385 569 56 219 570 123 230 571 122 220 572 96 386 573 171 386 574 153 386 575 59 387 576 121 387 577 161 387 578 91 388 579 147 389 580 146 390 581 63 226 582 125 391 583 124 227 584 56 219 585 58 392 586 161 229 587 95 393 588 93 394 589 149 394 590 60 234 591 62 228 592 124 227 593 63 395 594 61 396 595 126 395 596 28 238 597 30 397 598 101 239 599 60 398 600 162 398 601 126 398 602 92 242 603 150 380 604 149 243 605 99 245 606 152 399 607 151 216 608 31 247 609 102 295 610 101 248 611 32 250 612 34 400 613 104 251 614 99 401 615 97 402 616 153 403 617 64 255 618 66 404 619 128 256 620 35 258 621 105 313 622 104 259 623 67 261 624 129 273 625 128 262 626 39 264 627 37 405 628 107 265 629 64 255 630 127 257 631 163 267 632 68 269 633 70 406 634 131 270 635 67 261 636 65 407 637 163 272 638 36 274 639 108 328 640 107 275 641 68 269 642 130 271 643 164 277 644 71 279 645 132 286 646 131 280 647 40 282 648 42 408 649 110 283 650 71 279 651 69 409 652 164 285 653 28 238 654 100 240 655 154 287 656 75 289 657 73 410 658 134 290 659 75 289 660 133 291 661 165 292 662 31 247 663 29 411 664 154 294 665 43 296 666 111 345 667 110 297 668 72 299 669 74 412 670 165 300 671 32 250 672 103 252 673 155 302 674 72 299 675 135 301 676 134 304 677 47 306 678 45 413 679 113 307 680 76 309 681 136 315 682 166 310 683 35 258 684 33 414 685 155 312 686 76 309 687 78 415 688 137 314 689 79 316 690 77 416 691 166 317 692 39 264 693 106 266 694 156 319 695 44 321 696 114 363 697 113 322 698 83 324 699 139 340 700 167 325 701 36 274 702 38 417 703 156 327 704 79 316 705 138 318 706 137 329 707 51 331 708 49 418 709 116 332 710 80 334 711 82 419 712 167 335 713 40 282 714 109 284 715 157 337 716 83 324 717 81 420 718 140 339 719 87 341 720 142 365 721 168 342 722 43 296 723 41 421 724 157 344 725 48 346 726 117 373 727 116 347 728 84 349 729 86 422 730 168 350 731 47 306 732 112 308 733 158 352 734 80 334 735 141 336 736 140 354 737 52 356 738 54 423 739 119 357 740 88 359 741 145 384 742 169 360 743 44 321 744 46 424 745 158 362 746 87 341 747 85 425 748 143 364 749 91 426 750 89 426 751 169 426 752 51 331 753 115 333 754 159 367 755 55 427 756 120 428 757 119 429 758 95 430 759 148 430 760 170 430 761 48 346 762 50 431 763 159 372 764 84 349 765 144 351 766 143 374 767 59 432 768 57 433 769 122 433 770 92 242 771 94 434 772 170 379 773 52 356 774 118 358 775 160 381 776 88 359 777 90 435 778 146 383 779 181 436 780 174 436 781 180 436 782 174 437 783 179 437 784 178 437 785 182 438 786 177 438 787 176 438 788 180 439 789 176 439 790 172 439 791 181 440 792 177 440 793 183 440 794 175 441 795 183 441 796 179 441 797 174 442 798 182 442 799 180 442 800 178 443 801 183 443 802 182 443 803 173 444 804 180 444 805 172 444 806 186 445 807 193 445 808 192 445 809 190 446 810 187 446 811 186 446 812 194 447 813 189 447 814 195 447 815 184 448 816 194 448 817 192 448 818 195 449 819 185 449 820 193 449 821 191 450 822 193 450 823 187 450 824 192 451 825 190 451 826 186 451 827 190 452 828 195 452 829 191 452 830 192 453 831 185 453 832 184 453 833 181 454 834 175 454 835 174 454 836 174 455 837 175 455 838 179 455 839 182 456 840 183 456 841 177 456 842 180 457 843 182 457 844 176 457 845 181 458 846 173 458 847 177 458 848 175 459 849 181 459 850 183 459 851 174 460 852 178 460 853 182 460 854 178 461 855 179 461 856 183 461 857 173 462 858 181 462 859 180 462 860 186 463 861 187 463 862 193 463 863 190 464 864 191 464 865 187 464 866 194 465 867 188 465 868 189 465 869 184 466 870 188 466 871 194 466 872 195 467 873 189 467 874 185 467 875 191 468 876 195 468 877 193 468 878 192 469 879 194 469 880 190 469 881 190 470 882 194 470 883 195 470 884 192 471 885 193 471 886 185 471 887</p>
        </triangles>
      </mesh>
    </geometry>
  </library_geometries>
  <library_visual_scenes>
    <visual_scene id="Scene" name="Scene">
      <node id="a_back_zapo_03_001" name="a_back_zapo_03.001" type="NODE">
        <matrix sid="transform">6.81493e-4 0.04415308 4.77594e-5 0 -0.04362347 6.7318e-4 0.3646467 0 0.006818459 -1.06124e-4 2.33295 -0.02589136 0 0 0 1</matrix>
        <instance_geometry url="#Cubo_008-mesh" name="a_back_zapo_03.001">
          <bind_material>
            <technique_common>
              <instance_material symbol="coronas_viejas_zapo_001-material" target="#coronas_viejas_zapo_001-material">
                <bind_vertex_input semantic="Cubo_002-mesh-map-0" input_semantic="TEXCOORD" input_set="0"/>
              </instance_material>
            </technique_common>
          </bind_material>
        </instance_geometry>
      </node>
    </visual_scene>
  </library_visual_scenes>
  <scene>
    <instance_visual_scene url="#Scene"/>
  </scene>
</COLLADA>