<?xml version="1.0" encoding="utf-8"?>
<COLLADA xmlns="http://www.collada.org/2005/11/COLLADASchema" version="1.4.1" xmlns:xsi="http://www.w3.org/2001/XMLSchema-instance">
  <asset>
    <contributor>
      <author>Blender User</author>
      <authoring_tool>Blender 4.3.1 commit date:2024-12-10, commit time:07:46, hash:33d812126174</authoring_tool>
    </contributor>
    <created>2026-09-14T18:08:05</created>
    <modified>2026-09-14T18:08:05</modified>
    <unit name="meter" meter="1"/>
    <up_axis>Z_UP</up_axis>
  </asset>
  <library_effects>
    <effect id="armas_zapot_003-effect">
      <profile_COMMON>
        <newparam sid="_526619962_X-texturacoronaviejazapo_png_0e27c27199050212e2815a1-surface">
          <surface type="2D">
            <init_from>_526619962_X-texturacoronaviejazapo_png_0e27c27199050212e2815a1</init_from>
          </surface>
        </newparam>
        <newparam sid="_526619962_X-texturacoronaviejazapo_png_0e27c27199050212e2815a1-sampler">
          <sampler2D>
            <source>_526619962_X-texturacoronaviejazapo_png_0e27c27199050212e2815a1-surface</source>
          </sampler2D>
        </newparam>
        <technique sid="common">
          <lambert>
            <emission>
              <color sid="emission">0 0 0 1</color>
            </emission>
            <diffuse>
              <texture texture="_526619962_X-texturacoronaviejazapo_png_0e27c27199050212e2815a1-sampler" texcoord="Cubo_005-mesh-map-0"/>
            </diffuse>
            <index_of_refraction>
              <float sid="ior">1.45</float>
            </index_of_refraction>
          </lambert>
        </technique>
      </profile_COMMON>
    </effect>
  </library_effects>
  <library_images>
    <image id="_526619962_X-texturacoronaviejazapo_png_0e27c27199050212e2815a1" name="_526619962_X-texturacoronaviejazapo_png_0e27c27199050212e2815a1">
      <init_from>/home/welton/Downloads/1526619962_X-texturacoronaviejazapo.png.0e27c27199050212e2815a19543a44f0.png</init_from>
    </image>
  </library_images>
  <library_materials>
    <material id="armas_zapot_003-material" name="armas zapot.003">
      <instance_effect url="#armas_zapot_003-effect"/>
    </material>
  </library_materials>
  <library_geometries>
    <geometry id="Cubo_007-mesh" name="Cubo.007">
      <mesh>
        <source id="Cubo_007-mesh-positions">
          <float_array id="Cubo_007-mesh-positions-array" count="78">3.99501e-4 0.07164978 -0.3256366 0.06418746 0.01260507 -0.3099951 -0.003376603 0.7627911 2.320533 -0.06041091 0.008134782 -0.3174039 0.003376722 -0.05090945 -0.301762 -0.06418722 0.6992761 2.328765 -3.99237e-4 0.6402316 2.344407 0.06041133 0.7037467 2.336175 -9.17761e-4 0.3127456 0.5974456 -0.06172817 0.2492307 0.6056785 0.002059638 0.1901861 0.6213202 0.06287026 0.253701 0.6130873 -0.004698038 0.7620005 2.315479 -0.002239108 0.3119549 0.5923915 -0.01438486 0.2076871 0.3546957 -0.01438486 0.706475 2.275846 -0.01438486 1.499154 -0.2502804 -0.01438486 1.997942 1.670871 0.01438486 0.2076871 0.3546957 0.01438486 0.706475 2.275846 0.01438486 1.499154 -0.2502804 0.01438486 1.997942 1.670871 -0.01438486 0.8707911 0.1191122 -0.01438486 1.369579 2.040263 0.01438486 0.8707911 0.1191122 0.01438486 1.369579 2.040263</float_array>
          <technique_common>
            <accessor source="#Cubo_007-mesh-positions-array" count="26" stride="3">
              <param name="X" type="float"/>
              <param name="Y" type="float"/>
              <param name="Z" type="float"/>
            </accessor>
          </technique_common>
        </source>
        <source id="Cubo_007-mesh-normals">
          <float_array id="Cubo_007-mesh-normals-array" count="177">0.06504935 -0.1892788 -0.9797664 0.06504917 -0.1892746 -0.9797672 0.7063856 0.6900565 -0.157612 0.6916117 0.6990672 -0.1815992 0.6916127 0.6990663 -0.1815991 -0.7223574 0.6688222 -0.1757176 -0.7364746 0.648624 -0.1920735 -0.7223572 0.6688224 -0.1757177 -0.6916131 -0.699066 0.181599 -0.6916134 -0.6990656 0.1815989 -0.6916134 -0.6990657 0.1815989 -0.06505829 0.1892738 0.9797668 -0.06505829 0.1892738 0.9797668 -0.06505829 0.1892757 0.9797664 0.7223564 -0.6688233 0.1757178 0.7223566 -0.6688231 0.1757178 0.7223563 -0.6688233 0.1757178 0.7223542 -0.6688255 0.1757181 0.7223541 -0.6688256 0.1757181 -0.6916132 -0.6990659 0.181599 -0.6916131 -0.6990659 0.181599 -0.7223572 0.6688225 -0.1757177 0.6916134 0.6990657 -0.181599 0.6916134 0.6990656 -0.181599 0.06504952 -0.189283 -0.9797655 0.6632306 0.0301662 -0.7478069 -0.7223547 0.668825 -0.1757182 -0.9239526 -0.1678079 -0.3437328 -0.7364729 0.6486262 -0.1920729 -0.6916131 -0.699066 0.181599 0.2525194 -0.5980896 0.7606069 -0.2503307 0.956609 -0.1491107 -0.7320488 -0.6781009 -0.0654515 -0.334658 0.8533884 0.3996652 -0.9710685 0.2185536 0.09623175 -1 0 0 -1 0 0 -1 0 0 0 0.9679098 -0.2512981 0 0.9679098 -0.2512981 1 0 0 1 0 0 1 0 0 0 -0.4226856 -0.9062765 0 -0.334774 -0.9422985 0 -0.4226868 -0.9062758 0 0.4226848 0.9062768 0 0.3347734 0.9422987 0 0.4226861 0.9062762 0 0.5067822 0.8620741 0 -0.506783 -0.8620737 1 0 0 1 0 0 -1 0 0 -1 0 0 1 0 0 0 -0.334774 -0.9422985 0 0.3347734 0.9422987 -1 0 0</float_array>
          <technique_common>
            <accessor source="#Cubo_007-mesh-normals-array" count="59" stride="3">
              <param name="X" type="float"/>
              <param name="Y" type="float"/>
              <param name="Z" type="float"/>
            </accessor>
          </technique_common>
        </source>
        <source id="Cubo_007-mesh-map-0">
          <float_array id="Cubo_007-mesh-map-0-array" count="240">0.374091 0.9479317 0.3638194 0.9142559 0.3741261 0.9142634 0.1970148 0.6355691 0.2031685 0.7625856 0.2024763 0.6354331 0.1924562 0.7628538 0.1970148 0.6355691 0.1917639 0.6357011 0.1978403 0.7627172 0.1917639 0.6357011 0.1971117 0.635568 0.3431709 0.947909 0.3535127 0.9142483 0.3534775 0.9479166 0.2024763 0.6354331 0.1978403 0.7627172 0.1971117 0.635568 0.2021054 0.5673156 0.1971117 0.635568 0.1967213 0.5674524 0.1971117 0.635568 0.1913931 0.5675836 0.1967213 0.5674524 0.1917639 0.6357011 0.1966832 0.566698 0.1913931 0.5675836 0.1965644 0.5682253 0.2024763 0.6354331 0.2021054 0.5673156 0.374091 0.9479317 0.3637842 0.9479242 0.3638194 0.9142559 0.1970148 0.6355691 0.1976833 0.7634902 0.2031685 0.7625856 0.1924562 0.7628538 0.1978022 0.7619627 0.1970148 0.6355691 0.1978403 0.7627172 0.1924562 0.7628538 0.1917639 0.6357011 0.3431709 0.947909 0.343206 0.9142408 0.3535127 0.9142483 0.2024763 0.6354331 0.2031685 0.7625856 0.1978403 0.7627172 0.2021054 0.5673156 0.2024763 0.6354331 0.1971117 0.635568 0.1971117 0.635568 0.1917639 0.6357011 0.1913931 0.5675836 0.1917639 0.6357011 0.1970148 0.6355691 0.1966832 0.566698 0.1965644 0.5682253 0.1970148 0.6355691 0.2024763 0.6354331 0.1970148 0.6355691 0.1976833 0.7634902 0.1970148 0.6355691 0.1970148 0.6355691 0.1976833 0.7634902 0.1976833 0.7634902 0.6855846 0.1591536 0.7111981 0.0324397 0.7344568 0.1641902 0.637741 0.06601828 0.738486 0.1623484 0.691577 0.1837913 0.662326 0.02740323 0.6383324 0.1632937 0.6855846 0.1591536 0.7119289 0.1042514 0.6836019 0.1663448 0.6650199 0.1256942 0.6510425 0.09511691 0.7165334 0.1143245 0.6979514 0.07367408 0.6334339 0.0565961 0.6979514 0.07367408 0.6803429 0.03515321 0.6943203 0.06573063 0.6650199 0.1256942 0.6474114 0.08717352 0.7111981 0.0324397 0.6855846 0.1591536 0.7344568 0.1641902 0.6383324 0.1632937 0.662326 0.02740323 0.6855846 0.1591536 0.6855846 0.1591536 0.662326 0.02740323 0.7111981 0.0324397 0.637741 0.06601828 0.68465 0.04457539 0.738486 0.1623484 0.662326 0.02740323 0.6150736 0.03154325 0.6383324 0.1632937 0.7119289 0.1042514 0.730511 0.1449019 0.6836019 0.1663448 0.6510425 0.09511691 0.6696245 0.1357674 0.7165334 0.1143245 0.6334339 0.0565961 0.6510425 0.09511691 0.6979514 0.07367408 0.6943203 0.06573063 0.7119289 0.1042514 0.6650199 0.1256942 0.7111981 0.0324397 0.662326 0.02740323 0.6855846 0.1591536 0.6383324 0.1632937 0.6150736 0.03154325 0.662326 0.02740323</float_array>
          <technique_common>
            <accessor source="#Cubo_007-mesh-map-0-array" count="120" stride="2">
              <param name="S" type="float"/>
              <param name="T" type="float"/>
            </accessor>
          </technique_common>
        </source>
        <vertices id="Cubo_007-mesh-vertices">
          <input semantic="POSITION" source="#Cubo_007-mesh-positions"/>
        </vertices>
        <triangles material="armas_zapot_003-material" count="40">
          <input semantic="VERTEX" source="#Cubo_007-mesh-vertices" offset="0"/>
          <input semantic="NORMAL" source="#Cubo_007-mesh-normals" offset="1"/>
          <input semantic="TEXCOORD" source="#Cubo_007-mesh-map-0" offset="2" set="0"/>
          <p>1 0 0 3 0 1 0 1 2 8 2 3 7 3 4 11 4 5 5 5 6 8 6 7 9 7 8 6 8 9 9 9 10 10 10 11 7 11 12 5 12 13 6 13 14 11 14 15 6 15 16 10 16 17 1 17 18 10 16 19 4 18 20 10 10 21 3 19 22 4 20 23 9 7 24 0 21 25 3 21 26 0 22 27 11 4 28 1 23 29 1 0 30 4 24 31 3 0 32 8 2 33 2 25 34 7 3 35 5 26 36 2 27 37 8 28 38 6 8 39 5 29 40 9 9 41 7 11 42 2 30 43 5 12 44 11 14 45 7 15 46 6 15 47 1 17 48 11 14 49 10 16 50 10 10 51 9 9 52 3 19 53 9 7 54 8 6 55 0 21 56 0 22 57 8 2 58 11 4 59 8 31 60 12 32 61 13 33 62 8 31 63 2 34 64 12 32 65 22 35 66 17 36 67 16 37 68 17 38 69 20 38 70 16 39 71 25 40 72 18 41 73 24 42 74 24 43 75 14 44 76 22 45 77 23 46 78 19 47 79 25 48 80 17 49 81 25 48 82 21 49 83 20 50 84 22 45 85 16 50 86 21 51 87 24 42 88 20 52 89 14 53 90 23 54 91 22 35 92 22 35 93 23 54 94 17 36 95 17 38 96 21 39 97 20 38 98 25 40 99 19 55 100 18 41 101 24 43 102 18 56 103 14 44 104 23 46 105 15 57 106 19 47 107 17 49 108 23 46 109 25 48 110 20 50 111 24 43 112 22 45 113 21 51 114 25 40 115 24 42 116 14 53 117 15 58 118 23 54 119</p>
        </triangles>
      </mesh>
    </geometry>
  </library_geometries>
  <library_visual_scenes>
    <visual_scene id="Scene" name="Scene">
      <node id="a_back_zapo_02" name="a_back_zapo_02" type="NODE">
        <matrix sid="transform">1 0 0 0 0 1 0 0 0 0 1 0 0 0 0 1</matrix>
        <instance_geometry url="#Cubo_007-mesh" name="a_back_zapo_02">
          <bind_material>
            <technique_common>
              <instance_material symbol="armas_zapot_003-material" target="#armas_zapot_003-material">
                <bind_vertex_input semantic="Cubo_005-mesh-map-0" input_semantic="TEXCOORD" input_set="0"/>
              </instance_material>
            </technique_common>
          </bind_material>
        </instance_geometry>
      </node>
    </visual_scene>
  </library_visual_scenes>
  <scene>
    <instance_visual_scene url="#Scene"/>
  </scene>
</COLLADA>