<?xml version="1.0" encoding="utf-8"?>
<COLLADA xmlns="http://www.collada.org/2005/11/COLLADASchema" version="1.4.1" xmlns:xsi="http://www.w3.org/2001/XMLSchema-instance">
  <asset>
    <contributor>
      <author>Blender User</author>
      <authoring_tool>Blender 4.3.1 commit date:2024-12-10, commit time:07:46, hash:33d812126174</authoring_tool>
    </contributor>
    <created>2026-09-14T18:06:25</created>
    <modified>2026-09-14T18:06:25</modified>
    <unit name="meter" meter="1"/>
    <up_axis>Z_UP</up_axis>
  </asset>
  <library_effects>
    <effect id="coronas_viejas_zapo-effect">
      <profile_COMMON>
        <newparam sid="_526619962_X-texturacoronaviejazapo_png_0e27c27199050212e2815a1-surface">
          <surface type="2D">
            <init_from>_526619962_X-texturacoronaviejazapo_png_0e27c27199050212e2815a1</init_from>
          </surface>
        </newparam>
        <newparam sid="_526619962_X-texturacoronaviejazapo_png_0e27c27199050212e2815a1-sampler">
          <sampler2D>
            <source>_526619962_X-texturacoronaviejazapo_png_0e27c27199050212e2815a1-surface</source>
          </sampler2D>
        </newparam>
        <technique sid="common">
          <lambert>
            <emission>
              <color sid="emission">0 0 0 1</color>
            </emission>
            <diffuse>
              <texture texture="_526619962_X-texturacoronaviejazapo_png_0e27c27199050212e2815a1-sampler" texcoord="UVMap"/>
            </diffuse>
            <index_of_refraction>
              <float sid="ior">1.45</float>
            </index_of_refraction>
          </lambert>
        </technique>
      </profile_COMMON>
    </effect>
  </library_effects>
  <library_images>
    <image id="_526619962_X-texturacoronaviejazapo_png_0e27c27199050212e2815a1" name="_526619962_X-texturacoronaviejazapo_png_0e27c27199050212e2815a1">
      <init_from>/home/welton/Downloads/1526619962_X-texturacoronaviejazapo.png.0e27c27199050212e2815a19543a44f0.png</init_from>
    </image>
  </library_images>
  <library_materials>
    <material id="coronas_viejas_zapo-material" name="coronas viejas zapo">
      <instance_effect url="#coronas_viejas_zapo-effect"/>
    </material>
  </library_materials>
  <library_geometries>
    <geometry id="Cube_004-mesh" name="Cube.004">
      <mesh>
        <source id="Cube_004-mesh-positions">
          <float_array id="Cube_004-mesh-positions-array" count="915">0.1833745 0.2324908 0.2309312 0.3351487 0.7051863 2.168333 0.4106205 0.9402403 -0.05894672 0.5623946 1.412936 1.878455 0.2454521 0.2125589 0.2309312 0.3972262 0.6852543 2.168333 0.4726979 0.9203084 -0.05894672 0.6244721 1.393004 1.878455 0.3324363 0.6967384 0.006588697 0.2579054 0.4646146 0.11876 0.4096795 0.93731 2.056161 0.4842104 1.169433 1.94399 0.3199829 0.4446827 0.11876 0.3945137 0.6768064 0.006588697 0.5462878 1.149502 1.94399 0.4717571 0.917378 2.056161 -0.1833745 0.2324908 0.2309312 -0.3351487 0.7051863 2.168333 -0.4106205 0.9402403 -0.05894672 -0.5623946 1.412936 1.878455 -0.2454521 0.2125589 0.2309312 -0.3972262 0.6852543 2.168333 -0.4726979 0.9203084 -0.05894672 -0.6244721 1.393004 1.878455 -0.3324363 0.6967384 0.006588697 -0.2579054 0.4646146 0.11876 -0.4096795 0.93731 2.056161 -0.4842104 1.169433 1.94399 -0.3199829 0.4446827 0.11876 -0.3945137 0.6768064 0.006588697 -0.5462878 1.149502 1.94399 -0.4717571 0.917378 2.056161 -0.004069566 1.638154 1.769198 -0.002138137 1.439468 1.725836 -0.004069685 1.990313 1.521648 -0.002138137 1.567305 1.545777 -0.004069507 1.35738 0.7084949 -0.002138078 1.158693 0.6651328 -0.004069626 1.709538 0.4609448 -0.002138078 1.28653 0.4850735 -0.002138078 1.224136 0.2105387 -0.004069626 1.647144 0.1864097 -0.002138078 1.096299 0.3905976 -0.004069507 1.294986 0.43396 -0.004069566 1.438492 0.9518328 -0.002138078 1.239806 0.9084706 -0.004069626 1.790651 0.7042824 -0.002138137 1.367643 0.7284114 -0.002138137 1.430037 1.002947 -0.004069626 1.853045 0.9788177 -0.002138078 1.3022 1.183006 -0.004069566 1.500887 1.226368 -0.002138137 1.504911 1.271242 -0.004069685 1.927919 1.247113 -0.002138078 1.377073 1.451301 -0.004069566 1.57576 1.494663 -0.2067381 0.6845462 2.412559 -0.01962232 0.6817798 2.332933 -0.3506467 0.6860268 2.81825 -0.01966023 0.6823174 2.55376 0.2026816 0.6817404 2.420441 0.3121477 0.6854501 2.829739 4.27163e-4 0.681203 2.331804 -0.001714944 0.6839695 2.535146 0.1155817 0.6820551 2.493595 0.01148205 0.6857645 2.904289 -0.01773977 0.6815175 2.317557 -0.1188015 0.6842842 2.494021 -0.534147 0.5977137 2.41256 -0.3645218 0.6767533 2.332935 -0.664322 0.5363426 2.818251 -0.36479 0.6772205 2.55376 -0.1644124 0.7735791 2.42044 -0.06749999 0.8246144 2.829739 -0.346224 0.6849696 2.331803 -0.3493576 0.6865264 2.535145 -0.2429465 0.7359116 2.493595 -0.3382613 0.6938924 2.904289 -0.3627129 0.6773373 2.317558 -0.4548823 0.6357932 2.494021 0.1731563 0.7687754 2.412559 0.3414683 0.6869764 2.332933 0.04343515 0.8310996 2.81825 0.3416616 0.6874796 2.55376 0.5428082 0.5927363 2.420441 0.6435316 0.5497085 2.829738 0.3593841 0.6779574 2.331803 0.3586162 0.6813713 2.535145 0.4640487 0.6299312 2.493595 0.3713305 0.6774049 2.90429 0.3430624 0.685941 2.317556 0.2526957 0.7312734 2.49402 -0.6593019 1.566157 1.769198 -0.5934941 1.378675 1.725836 -0.7727004 1.899559 1.521648 -0.6346589 1.499703 1.545777 -0.5688893 1.300338 0.7084952 -0.5030823 1.112856 0.6651329 -0.6822882 1.633739 0.4609451 -0.5442473 1.233884 0.485074 -0.5241554 1.174813 0.210539 -0.6621968 1.574668 0.1864095 -0.4829909 1.053785 0.3905978 -0.5487984 1.241267 0.4339602 -0.5950089 1.37713 0.951833 -0.5292014 1.189648 0.9084708 -0.7084068 1.710531 0.7042826 -0.5703654 1.310677 0.7284117 -0.5904578 1.369747 1.002947 -0.7284988 1.769602 0.9788179 -0.5492929 1.248719 1.183006 -0.6151003 1.436201 1.226368 -0.6145675 1.440633 1.271242 -0.7526084 1.840487 1.247113 -0.5734026 1.319604 1.451301 -0.6392101 1.507086 1.494663 0.6594623 1.567615 1.769198 0.596796 1.37906 1.725836 0.7737721 1.900705 1.521648 0.6382916 1.499975 1.545777 0.5683234 1.302044 0.7084949 0.5056571 1.113489 0.6651326 0.6826332 1.635134 0.4609446 0.5471527 1.234404 0.4850738 0.5268998 1.175388 0.2105386 0.6623803 1.576118 0.1864097 0.4854043 1.054473 0.3905975 0.5480705 1.243028 0.43396 0.5946527 1.378764 0.9518327 0.531986 1.190209 0.9084707 0.7089626 1.711854 0.7042824 0.5734816 1.311125 0.7284116 0.593735 1.370141 1.002947 0.7292155 1.77087 0.9788177 0.5522393 1.249225 1.183006 0.6149056 1.43778 1.226368 0.6180388 1.440959 1.271242 0.7535192 1.841689 1.247113 0.5765427 1.320044 1.451301 0.6392093 1.508599 1.494663 -0.005299806 1.634077 1.743156 -0.005293548 1.98611 1.49479 -0.003368377 1.563228 1.519735 -0.005299806 1.353303 0.6824528 -0.005293488 1.705336 0.4340867 -0.003368377 1.282453 0.4590315 -0.005299746 1.290908 0.4079179 -0.005293488 1.642941 0.1595516 -0.003368318 1.220059 0.1844966 -0.005299806 1.434415 0.9257907 -0.005293488 1.786449 0.6774243 -0.003368377 1.363566 0.7023695 -0.005299806 1.496809 1.200326 -0.005293488 1.848842 0.9519596 -0.003368377 1.42596 0.9769047 -0.005299806 1.571682 1.468621 -0.005293488 1.923716 1.220255 -0.003368377 1.500833 1.2452 -0.2067347 0.6955634 2.482019 -0.3506435 0.6970439 2.88772 -0.01965677 0.6933345 2.623219 -0.001712799 0.6949863 2.604525 0.31215 0.6964668 2.89913 0.2026837 0.6927572 2.48982 -0.01773667 0.6925346 2.38697 -0.1187978 0.6953011 2.563431 0.01148509 0.6967814 2.973701 -0.5342205 0.6087132 2.481909 -0.6643951 0.5473423 2.88761 -0.3648636 0.6882199 2.623108 -0.3494393 0.6975213 2.604377 -0.06758052 0.8356099 2.898987 -0.1644941 0.7845742 2.489672 -0.362791 0.6883346 2.386839 -0.4549599 0.6467906 2.563303 -0.3383392 0.7048895 2.973571 0.1732352 0.7797737 2.4819 0.043513 0.8420986 2.887605 0.3417405 0.6984779 2.623101 0.3586997 0.6923666 2.60438 0.6436144 0.5607046 2.898991 0.5428918 0.6037316 2.489675 0.3431444 0.6969375 2.386833 0.2527787 0.7422694 2.563292 0.3714125 0.6884013 2.973567 -0.6596921 1.555626 1.702689 -0.7730892 1.889024 1.455106 -0.6350491 1.489173 1.479267 -0.5692799 1.289807 0.6419859 -0.682677 1.623205 0.3944031 -0.5446375 1.223353 0.4185646 -0.5491884 1.230736 0.3674507 -0.6625856 1.564134 0.1198676 -0.5245456 1.164283 0.1440292 -0.595399 1.366599 0.8853232 -0.7087961 1.699997 0.6377404 -0.5707561 1.300146 0.6619019 -0.6154904 1.425671 1.159858 -0.7288876 1.759068 0.9122757 -0.590848 1.359217 0.9364374 -0.6396002 1.496555 1.428154 -0.7529973 1.829953 1.180571 -0.6149577 1.430102 1.204733 0.6589597 1.577802 1.833287 0.7732669 1.910883 1.585667 0.6377891 1.510163 1.609866 0.5678208 1.312231 0.772584 0.682128 1.645312 0.5249632 0.5466502 1.244591 0.5491627 0.547568 1.253215 0.4980491 0.6618751 1.586296 0.2504283 0.5263974 1.185575 0.2746278 0.5941501 1.388952 1.015922 0.7084574 1.722032 0.7683013 0.5729791 1.321312 0.792501 0.6144031 1.447968 1.290457 0.7287102 1.781048 1.042836 0.5932324 1.380328 1.067036 0.6387068 1.518786 1.558752 0.753014 1.851867 1.311132 0.6175363 1.451147 1.335331 -0.003374338 1.435517 1.700618 -0.003374338 1.154743 0.639915 -0.003374278 1.092349 0.3653798 -0.003374338 1.235856 0.8832527 -0.003374338 1.298249 1.157788 -0.003374338 1.373123 1.426083 -0.01961869 0.692797 2.402384 4.29155e-4 0.6922195 2.401169 0.1155841 0.6930723 2.563009 -0.364596 0.6877525 2.402271 -0.3463069 0.6959639 2.401016 -0.2430251 0.7469086 2.562876 0.3415481 0.6979743 2.402261 0.3594684 0.6889523 2.40102 0.4641301 0.6409281 2.562876 -0.5938864 1.368149 1.659359 -0.5034743 1.102329 0.5986565 -0.4833828 1.043258 0.3241208 -0.5295934 1.179121 0.8419938 -0.5496848 1.238193 1.116529 -0.5737946 1.309078 1.384825 0.5962962 1.389256 1.789995 0.5051572 1.123685 0.7292911 0.4849044 1.064669 0.4547563 0.5314862 1.200406 0.9726296 0.5517395 1.259421 1.247164 0.5760428 1.33024 1.51546 3.99487e-4 0.08363527 -0.3256365 0.06418746 0.02459055 -0.3099951 -0.003376722 0.7747767 2.320534 -0.06041109 0.02012026 -0.3174039 0.003376841 -0.03892415 -0.3017619 -0.06418728 0.7112618 2.328766 -3.99298e-4 0.6522172 2.344408 0.06041127 0.7157323 2.336176 -9.17797e-4 0.3247311 0.5974456 -0.06172835 0.2612161 0.6056783 0.002059578 0.2021715 0.6213202 0.0628702 0.2656865 0.6130872 -0.1545011 0.09587621 -0.3256366 -0.07509773 0.06051677 -0.3099951 -0.3806301 0.7489891 2.320533 -0.1916204 0.01616275 -0.3174037 -0.112217 -0.01919651 -0.3017619 -0.4177492 0.6692755 2.328766 -0.3383459 0.6339162 2.344407 -0.3012266 0.7136298 2.336175 -0.2333832 0.3237063 0.5974458 -0.2705026 0.2439928 0.6056787 -0.1910991 0.2086335 0.6213203 -0.15398 0.2883469 0.6130874 0.1590959 0.09581923 -0.3256365 0.2002641 0.01926618 -0.3099949 0.3798673 0.7507628 2.320534 0.08096122 0.0554825 -0.3174036 0.1221295 -0.02107036 -0.3017621 0.3017326 0.710426 2.328767 0.3429009 0.6338729 2.344408 0.4210355 0.6742097 2.336175 0.2361091 0.3242878 0.5974457 0.1579744 0.2839511 0.6056784 0.1991428 0.2073981 0.6213201 0.2772774 0.2477349 0.6130875 -0.004698097 0.7739858 2.315478 0.3794199 0.7611288 2.385871 -0.002239167 0.3239403 0.5923914 -0.2338159 0.3132888 0.5317367 0.2356618 0.3346538 0.6627827 -0.03259944 0.2150965 0.2309312 -0.03259944 0.7115602 2.168333 -0.03259944 0.9584335 -0.05894672 -0.03259944 1.454897 1.878455 0.03259944 0.2150965 0.2309312 0.03259944 0.7115602 2.168333 0.03259944 0.9584335 -0.05894672 0.03259944 1.454897 1.878455 -0.03259944 0.7026875 0.006588697 -0.03259944 0.458892 0.11876 -0.03259944 0.9553558 2.056161 -0.03259944 1.199151 1.94399 0.03259944 0.4588921 0.11876 0.03259944 0.7026876 0.006588697 0.03259944 1.199151 1.94399 0.03259944 0.9553557 2.056161</float_array>
          <technique_common>
            <accessor source="#Cube_004-mesh-positions-array" count="305" stride="3">
              <param name="X" type="float"/>
              <param name="Y" type="float"/>
              <param name="Z" type="float"/>
            </accessor>
          </technique_common>
        </source>
        <source id="Cube_004-mesh-normals">
          <float_array id="Cube_004-mesh-normals-array" count="2007">-0.9521246 0.3057103 0 0.2961407 0.9223241 -0.2482317 0.9521246 -0.3057104 0 0.07588607 0.2363476 0.9687008 -0.1277817 -0.3979724 -0.9084547 0.1277804 0.3979726 0.9084548 0.1277806 0.3979732 0.9084545 -0.0758869 -0.2363474 -0.9687008 -0.1277816 -0.3979729 -0.9084545 0.9521246 -0.3057105 0 0.9521246 -0.3057103 0 -0.9521247 0.3057103 0 -0.9521247 0.3057103 0 0.9521246 0.3057104 0 -0.2961408 0.9223241 -0.2482316 -0.9521246 -0.3057104 0 -0.07588607 0.2363476 0.9687008 0.1277809 -0.3979723 -0.9084548 -0.12778 0.3979727 0.9084548 -0.1277819 0.3979731 0.9084543 0.07588672 -0.2363476 -0.9687008 0.1277818 -0.3979721 -0.9084547 -0.9521247 -0.3057103 0 -0.9521247 -0.3057102 0 0.9521246 0.3057106 0 0.9521245 0.3057106 0 0.01389902 0.1895565 0.9817715 0.9995321 -0.01789826 -0.02480399 0.02710688 0.956016 0.2920593 0.01388657 0.1895517 0.9817726 0.9995322 -0.01789814 -0.02480387 0.02711647 0.9560106 0.2920764 0.01390087 0.1895567 0.9817714 0.9995322 -0.01789808 -0.02480381 0.02710324 0.9560142 0.2920656 0.01392549 0.189553 0.9817717 0.9995322 -0.01789826 -0.02480405 0.02710962 0.9560104 0.2920775 0.013897 0.1895573 0.9817713 0.9995322 -0.01789772 -0.02480363 0.02711039 0.9560142 0.2920649 0.01390272 0.1895551 0.9817717 0.9995322 -0.01789742 -0.02480334 0.02710729 0.9560185 0.2920514 -0.01156991 -0.999933 -4.54674e-4 -0.0112071 -0.9999363 0.00137937 -0.005788683 -0.9999021 0.01274943 -0.005059599 -0.9999331 0.01041603 -0.01355683 -0.9998769 0.007912814 -0.01322317 -0.999881 0.007948338 0.4252741 -0.9050645 -4.55604e-4 0.4257057 -0.90486 0.001795291 0.4302668 -0.9026033 0.01333492 0.4311343 -0.9022277 0.01041615 0.4234617 -0.9058795 0.007912576 0.4237567 -0.9057408 0.007992446 -0.4342159 -0.9008088 -4.55604e-4 -0.4337766 -0.9010186 0.001842319 -0.4291868 -0.9031167 0.01337426 -0.4283187 -0.9035677 0.01041579 -0.4355629 -0.9001264 0.00759232 -0.4349991 -0.900396 0.007936239 -0.4359915 -0.8999161 0.007913231 0.9451009 0.3267024 0.007070362 0.9446834 0.3279513 0.004621505 0.9451013 0.326701 0.007065415 0.944682 0.3279551 0.004619598 0.9451008 0.3267025 0.007069408 0.9446761 0.327973 0.004578351 0.9451008 0.3267027 0.007071614 0.9446692 0.3279935 0.004537701 0.9451012 0.3267014 0.007067859 0.944683 0.3279524 0.004620254 0.945101 0.3267022 0.007068216 0.9446755 0.3279744 0.004578173 0.9474728 -0.3197652 0.006758034 0.9480932 -0.3179801 0.002825736 0.9474297 -0.3198859 0.007068216 0.9474298 -0.3198855 0.007067561 0.9480932 -0.3179803 0.002824842 0.9474729 -0.3197646 0.006758868 0.9480931 -0.3179806 0.002826035 0.9474298 -0.3198859 0.007068812 0.9474294 -0.3198869 0.007066965 0.9480867 -0.3179994 0.002868413 0.9475038 -0.3196781 0.006537437 0.9480927 -0.3179817 0.002825438 0.9474298 -0.3198857 0.007068812 0.94743 -0.3198852 0.00706911 0.9480931 -0.3179806 0.002826035 0.0306999 -0.6948537 0.7184955 0.0306999 -0.6948616 0.7184879 0.03070026 -0.6948595 0.71849 0.03070127 -0.694858 0.7184913 0.03070133 -0.6948556 0.7184937 0.03070211 -0.6948603 0.7184892 -0.01379847 -0.9999048 3.70482e-4 -0.01374828 -0.9999026 0.002431213 -0.003289759 -0.9999026 0.01356947 -0.003046691 -0.9999366 0.01084804 -0.006391227 -0.9999516 0.007491469 -0.005913615 -0.9999542 0.007532417 -0.006356537 -0.9999501 0.007715761 0.4232276 -0.9060234 -6.12729e-5 0.4232997 -0.9059866 0.0024302 0.4232518 -0.9060097 0.002098858 0.4324745 -0.9015499 0.0131722 0.4327131 -0.9014295 0.01357018 0.4330435 -0.9013167 0.01008814 0.4303736 -0.9026194 0.007532358 -0.436273 -0.8998143 -3.46037e-4 -0.436177 -0.8998577 0.002432346 -0.4359034 -0.8999915 0.001944363 -0.4266466 -0.9043215 0.01324117 -0.4267028 -0.9042901 0.01357048 -0.426432 -0.9044607 0.01032644 -0.430055 -0.9027711 0.007555902 -0.429103 -0.9032243 0.007533133 0.9445678 0.3282147 0.008182048 0.9439751 0.3299627 0.005976021 0.9445481 0.3282731 0.008108854 0.9439768 0.3299583 0.005972385 0.9445493 0.3282697 0.008109569 0.9439765 0.3299587 0.005976557 0.9440162 0.3298347 0.0065369 0.9445594 0.3282397 0.00814712 0.9439761 0.3299598 0.005979061 0.9445478 0.3282738 0.008110463 0.9439762 0.3299596 0.00597459 0.9445584 0.3282425 0.008146047 0.9439762 0.3299594 0.005975067 0.9440155 0.3298366 0.006535708 0.9463934 -0.3200424 0.04373067 -0.2686555 -0.9358253 -0.2281565 0.8104194 -0.5555984 -0.1858245 0.9463866 -0.3200598 0.04375237 -0.2685242 -0.9357758 -0.2285139 0.8104132 -0.555609 -0.1858207 0.9463907 -0.3200581 0.04367494 -0.2687526 -0.9361137 -0.2268549 0.8103665 -0.5556108 -0.1860185 0.9463734 -0.3201109 0.04366284 -0.2684803 -0.9357609 -0.2286264 0.8103986 -0.5556124 -0.1858736 0.9463912 -0.3200572 0.04367268 -0.2686386 -0.935966 -0.2275986 0.8102721 -0.5556465 -0.1863231 0.9463794 -0.3200784 0.04377114 -0.2682773 -0.93553 -0.2298063 0.8102703 -0.5556499 -0.1863204 -0.9996392 9.6819e-4 0.0268439 -0.02651256 0.6843295 -0.7286908 -0.01394623 -0.4257263 -0.9047445 -0.9996392 9.68043e-4 0.0268442 -0.02480465 0.6836687 -0.7293708 -0.01394444 -0.4257271 -0.9047442 -0.9996392 9.67923e-4 0.02684414 -0.02476716 0.6840067 -0.7290552 -0.01394402 -0.4257277 -0.9047439 -0.9996392 9.68237e-4 0.02684426 -0.02471262 0.6840131 -0.729051 -0.01394289 -0.4257273 -0.9047442 -0.9996392 9.67835e-4 0.02684426 -0.02828162 0.6843286 -0.7286251 -0.01394736 -0.4257294 -0.9047431 -0.9996392 9.67955e-4 0.0268442 -0.0282275 0.6845541 -0.7284154 -0.01394462 -0.4257309 -0.9047424 0.01156985 0.9999331 4.54665e-4 0.01188182 0.9999285 -0.001388669 0.00491476 0.999906 -0.01280736 0.005059778 0.999933 -0.01041495 0.0135554 0.9998769 -0.007912397 0.01325529 0.9998821 -0.007762372 -0.4252738 0.9050648 4.55905e-4 -0.4248973 0.9052398 -0.001807332 -0.4313141 0.9021012 -0.01347517 -0.4311346 0.9022276 -0.01041501 -0.4238477 0.9056955 -0.008296966 -0.4234617 0.9058795 -0.007912158 -0.4237136 0.9057633 -0.007723331 0.4343416 0.900748 7.60212e-4 0.4342162 0.9008086 4.54971e-4 0.4346047 0.9006194 -0.001902639 0.4280873 0.9036362 -0.01352268 0.4283191 0.9035676 -0.01041609 0.4357797 0.9000149 -0.008331716 0.4359914 0.8999161 -0.007913112 0.4350304 0.9003847 -0.007488131 -0.9451007 -0.3267028 -0.007069945 -0.9445168 -0.3284257 -0.004967212 -0.9451011 -0.3267017 -0.007067441 -0.9445179 -0.3284224 -0.004962801 -0.9451009 -0.3267024 -0.007068693 -0.944517 -0.3284253 -0.00496596 -0.9451006 -0.3267031 -0.007069945 -0.944517 -0.3284254 -0.004966676 -0.945101 -0.3267021 -0.007067143 -0.9445278 -0.3283939 -0.004999339 -0.9451344 -0.3265952 -0.007534742 -0.9451009 -0.3267026 -0.007068693 -0.9445071 -0.3284539 -0.004928588 -0.9473999 0.3199669 -0.007392644 -0.9474297 0.3198862 -0.007068336 -0.9484802 0.3168152 -0.003671824 -0.9474299 0.3198856 -0.007068276 -0.948481 0.3168131 -0.003673255 -0.94743 0.3198854 -0.007068932 -0.9484699 0.3168458 -0.003707051 -0.9474295 0.3198868 -0.007067382 -0.9484797 0.3168168 -0.003669857 -0.9473876 0.3200002 -0.007532298 -0.9474298 0.319886 -0.007068634 -0.9484804 0.3168145 -0.003672599 -0.9474301 0.319885 -0.007068932 -0.948481 0.3168131 -0.003673374 -0.03372454 -0.9737275 -0.2252056 -0.03372675 -0.9737249 -0.2252164 -0.03372168 -0.9737258 -0.225213 -0.033724 -0.9737261 -0.2252117 -0.03337424 -0.9737666 -0.2250885 -0.03372865 -0.9737254 -0.2252137 0.01320135 0.9999128 -4.44529e-4 0.01374816 0.9999026 -0.002431988 0.003289461 0.9999026 -0.01357066 0.003798782 0.9999336 -0.01088625 0.006252586 0.9999495 -0.007870614 0.006191492 0.9999539 -0.007345438 0.00591284 0.9999542 -0.007532477 -0.4239182 0.9057005 -3.3183e-5 -0.4235102 0.9058874 -0.002673447 -0.4233002 0.9059863 -0.002431154 -0.4322844 0.901636 -0.01352548 -0.4321128 0.9017627 -0.01013696 -0.4327147 0.9014289 -0.01356816 -0.4303737 0.9026195 -0.007532238 0.4354807 0.9001981 2.38374e-4 0.4357463 0.9000661 -0.002474963 0.4361761 0.8998581 -0.002432107 0.426702 0.9042906 -0.01356941 0.4272922 0.9040541 -0.01037222 0.4297745 0.9028997 -0.008132696 0.4291012 0.9032251 -0.007532775 -0.9446294 -0.3280414 -0.008018672 -0.9439656 -0.3299981 -0.005499899 -0.9439761 -0.3299599 -0.00597763 -0.9446198 -0.3280701 -0.007978856 -0.9439764 -0.3299589 -0.005974352 -0.9446086 -0.3281028 -0.007949233 -0.9439768 -0.3299579 -0.005976855 -0.9446187 -0.3280729 -0.007984578 -0.9439659 -0.3299973 -0.005499482 -0.9439764 -0.329959 -0.005977272 -0.9446092 -0.3281011 -0.007943451 -0.9439685 -0.3299873 -0.00563991 -0.9439763 -0.3299592 -0.005974173 -0.9446194 -0.3280712 -0.007980942 -0.9439655 -0.3299987 -0.00549817 -0.9439763 -0.3299595 -0.005975782 -0.296869 -0.3255891 0.8976975 -0.9608498 0.2746432 -0.03659272 -0.2505487 -0.6512312 0.7163262 -0.2968263 -0.3256087 0.8977044 -0.9608504 0.2746412 -0.0365917 -0.2506392 -0.6514879 0.7160612 -0.2968258 -0.3256083 0.8977047 -0.9607455 0.2749896 -0.03673017 -0.2504569 -0.6502302 0.7172672 -0.2968246 -0.3256072 0.8977054 -0.9607457 0.2749886 -0.0367304 -0.2507511 -0.6514969 0.7160137 -0.2968257 -0.325607 0.8977052 -0.9607461 0.274987 -0.03673154 -0.2505741 -0.6507775 0.7167297 -0.2968711 -0.3255886 0.8976969 -0.9607451 0.2749902 -0.03673171 -0.2508585 -0.6524709 0.7150887 0.06832659 0.9855174 -0.1551998 0.06597036 0.9854746 -0.1564856 0.06403899 0.9858995 -0.1545999 0.1989477 0.9678942 -0.153625 0.1993528 0.9678957 -0.15309 0.5037454 -0.853176 0.1353935 0.503472 -0.8533159 0.1355288 0.5035357 -0.853333 0.1351837 -0.4688313 0.8723092 -0.1388315 -0.4710312 0.8711444 -0.1386985 0.9999986 -7.59247e-4 0.001480221 0.9999988 -9.63705e-4 0.001214146 0.9999994 -9.77834e-4 7.35001e-4 -0.9954444 0.0939247 -0.01639068 -0.9954821 0.09358233 -0.01605725 -0.3722184 0.916854 -0.144334 -0.3750568 0.9154592 -0.1458323 -0.3774445 0.9148708 -0.1433425 -0.2445161 0.9576135 -0.1522775 0.7447761 -0.6589332 0.105431 0.3784351 0.9140781 -0.145767 0.3758777 0.9151577 -0.1456111 0.9999983 -0.001802265 -3.02418e-4 0.9999982 -0.00169301 -8.67208e-4 0.9999983 -0.001407921 -0.001252591 -0.9993709 0.03515487 -0.004698932 -0.999373 0.03513592 -0.004363894 0.4742323 0.8696497 -0.1371617 0.4716824 0.8707665 -0.1388578 0.4697777 0.8721516 -0.1366039 0.5659205 0.8141628 -0.1298959 0.5666811 0.8137416 -0.1292178 -0.3961191 0.9068659 -0.143819 0.9561015 -0.2880808 0.05366057 0.9560139 -0.2884299 0.05334395 0.1845118 -0.9707121 0.1538624 0.1120728 -0.9812337 0.1569082 0.1133547 -0.9812923 0.1556152 -0.9453353 0.3210112 -0.05738437 -0.9467909 0.3166154 -0.05780869 -0.1434073 -0.9772905 0.1560059 -0.1411231 -0.9777416 0.1552602 -0.1412703 -0.9773352 0.1576666 0.9560145 -0.2884279 0.05334597 -0.956458 -0.2873604 0.05110889 0.4839307 0.8643299 -0.1369129 0.4838513 0.8643227 -0.1372388 -0.9451908 0.3211095 -0.05918627 -0.9468388 0.3167821 -0.0560851 -0.9467911 0.3166148 -0.05780768 -0.2394778 0.9589005 -0.1521858 0.9560955 -0.288097 0.05367934 0.9560141 -0.2884293 0.05334365 0.9560881 -0.2882322 0.05308234 0.9438753 0.3253099 -0.0572105 0.9447888 0.3227523 -0.05661481 -0.9365321 -0.3455463 0.0592063 -0.9375149 -0.3428186 0.05951064 -0.9374681 -0.3429483 0.05950087 -0.9564586 -0.2873574 0.05111491 0.9649023 0.2583432 -0.04714339 0.9648142 0.2587652 -0.04662907 -0.4345628 -0.889503 0.1412086 -0.4346883 -0.8895148 0.1407461 -0.9453206 0.3210558 -0.057379 -0.9467911 0.3166146 -0.05780881 -0.9366919 -0.345228 0.05853128 -0.9374678 -0.3428924 0.05982518 -0.6913545 0.7134815 -0.1138995 0.9560139 -0.2884299 0.05334568 0.9438955 0.3253282 -0.056773 0.9447892 0.3227508 -0.05661571 0.9648132 0.2587682 -0.04663079 -0.9564573 -0.2873632 0.05110669 -0.9366918 -0.3452288 0.05852979 -0.9374671 -0.3428943 0.05982577 0.5149283 -0.8463585 0.1361113 0.5165898 -0.8455803 0.1346445 -0.9451866 0.321317 -0.05811846 -0.9468371 0.3167785 -0.05613356 -0.9467909 0.3166155 -0.05780857 0.9649001 0.2583698 -0.04704141 0.9648147 0.2587631 -0.04663038 0.9648939 0.2585428 -0.04621201 0.301558 -0.9414458 0.1508069 0.3043468 -0.9407156 0.1497569 0.3039888 -0.940345 0.1527814 0.9561395 -0.2879329 0.05377775 0.9560142 -0.2884293 0.05334383 0.9561486 -0.2880868 0.05278253 0.9438636 0.3254193 -0.05677855 0.944789 0.3227517 -0.05661475 -0.9366919 -0.3452286 0.05852884 -0.9374672 -0.342894 0.05982476 -0.9564577 -0.2873615 0.05110889 0.9648166 0.258755 -0.04663628 0.1401186 0.9779094 -0.1551135 -0.9453358 0.3210105 -0.05738091 -0.9467911 0.3166148 -0.05780857 -0.9366917 -0.3452288 0.05853134 -0.937468 -0.3428923 0.05982315 -0.5983691 0.7912091 -0.1262651 -0.5979182 0.7915223 -0.1264366 -0.5986377 0.7909568 -0.1265718 0.9560964 -0.2880946 0.05367767 0.9560148 -0.2884275 0.05334252 0.9438593 0.3253546 -0.05722111 0.9447913 0.3228266 -0.05614691 0.9448009 0.3227994 -0.05614352 0.9648812 0.2584312 -0.04709279 0.9648135 0.2587674 -0.04663091 -0.9366773 -0.3452708 0.05851274 -0.9374675 -0.3428933 0.05982536 -0.05915606 -0.9859157 0.1564316 -0.05926847 -0.985982 0.1559703 -0.9453208 0.3210551 -0.05737853 -0.9467914 0.316614 -0.05780827 0.9649049 0.2583346 -0.04713547 0.96474 0.2589996 -0.04686009 0.9648137 0.2587667 -0.04663002 -0.01535922 0.9875401 -0.1566164 0.9438796 0.3253731 -0.05677825 0.9447893 0.3227507 -0.05661487 -0.9565653 -0.2870674 0.0507459 -0.9563707 -0.2876151 0.05131071 -0.9565643 -0.2869391 0.05148458 -0.3203234 -0.9352773 0.1504968 -0.3188153 -0.9360627 0.1488075 -0.5289755 -0.8378856 0.134658 -0.5264967 -0.839556 0.1339667 -0.5265338 -0.8390444 0.1369916 0.9438605 0.3253509 -0.05722111 0.9447898 0.3227491 -0.05661511 0.7287129 0.6762113 -0.1082402 0.1855899 0.9704432 -0.1542612 0.1853008 0.9704193 -0.154758 -0.7051774 -0.7001318 0.1119834 -0.7054677 -0.6999995 0.1109781 -0.04994028 0.9864037 -0.156569 -0.0519967 0.9863151 -0.1564575 0.9999991 -0.001423239 1.76095e-4 -0.9972989 0.07254683 -0.01149332 0.06346964 0.9854596 -0.1576108 0.06597256 0.9854699 -0.1565146 0.1989511 0.9678925 -0.1536315 0.1992848 0.9677726 -0.1539541 0.1985095 0.9679554 -0.153807 0.5037541 -0.8531709 0.1353932 0.5038759 -0.853188 0.1348313 -0.4729208 0.8703172 -0.1374551 -0.4695793 0.872185 -0.137072 -0.4710311 0.8711485 -0.138673 0.9999992 -9.08733e-4 8.81755e-4 0.9999989 -9.26459e-4 0.001216828 -0.9954966 0.0935232 -0.01549452 -0.9954359 0.09399163 -0.01652491 -0.9954742 0.09366804 -0.01605081 -0.3779321 0.9140452 -0.1472713 -0.3750532 0.915455 -0.1458675 -0.2445135 0.9576136 -0.1522803 0.7447864 -0.658921 0.1054349 0.3736349 0.9162709 -0.1443764 0.3778017 0.9146781 -0.1436311 0.3758808 0.9151608 -0.1455824 0.9999983 -0.001355111 -0.001280128 0.9999982 -0.001760125 -8.71604e-4 -0.9993687 0.03528946 -0.004100918 -0.9993748 0.03508454 -0.004366636 0.4689747 0.8720132 -0.1401993 0.4716849 0.8707597 -0.1388916 0.565924 0.8141592 -0.1299029 0.5665129 0.8136588 -0.1304703 0.565207 0.8145811 -0.1303796 -0.3960661 0.9068916 -0.1438031 0.9561507 -0.2880126 0.0531488 0.9560195 -0.2884019 0.05339586 0.1845064 -0.9707131 0.1538614 0.1151554 -0.9809762 0.1562852 0.1133522 -0.9809791 0.1575794 0.1133771 -0.9812861 0.1556382 -0.9481278 0.3131107 -0.05491286 -0.9461143 0.319305 -0.05396461 -0.9467964 0.3166094 -0.05775129 -0.1393097 -0.9777387 0.1569079 -0.1410927 -0.9777499 0.1552351 0.956019 -0.2884035 0.05339616 -0.9565372 -0.287139 0.05087012 -0.9564524 -0.287384 0.05108314 0.4839275 0.8642772 -0.1372558 -0.9461066 0.3193163 -0.05403375 -0.2394782 0.9589004 -0.1521849 0.956111 -0.2881307 0.05322223 0.9560192 -0.2884033 0.05339503 0.945553 0.3202477 -0.05806148 0.9441946 0.324013 -0.05926531 0.9447894 0.3227457 -0.05664348 -0.9383608 -0.3406861 0.0584141 -0.9371688 -0.3441174 0.0574283 -0.9374762 -0.3428758 0.05978852 -0.9564519 -0.2873851 0.05108553 0.9648929 0.2585068 -0.0464307 0.9648206 0.2587345 -0.04666644 -0.4345383 -0.8895162 0.1411994 -0.4342206 -0.8897388 0.1407746 -0.4341108 -0.8897095 0.1412977 -0.9481273 0.3131127 -0.05490988 -0.9461135 0.3193072 -0.05396348 -0.9467961 0.3166106 -0.05774945 -0.9383606 -0.3407434 0.05808007 -0.9372067 -0.3440548 0.0571841 -0.9374755 -0.3428767 0.0597943 -0.6913118 0.7135251 -0.1138856 0.9560193 -0.2884028 0.05339479 0.9455317 0.3203073 -0.05807793 0.9442018 0.3239898 -0.05927646 0.9447897 0.3227446 -0.05664253 0.9648191 0.2587409 -0.04666084 -0.956452 -0.2873846 0.05108451 -0.9383619 -0.3406828 0.05841422 -0.9371746 -0.3440952 0.0574674 -0.9374768 -0.3428747 0.05978482 0.5184518 -0.8443368 0.1352892 0.5164962 -0.8452681 0.1369441 0.516609 -0.8455653 0.1346651 -0.9461129 0.3193085 -0.05396586 0.9648908 0.2585171 -0.04641777 0.9648197 0.2587392 -0.04665911 0.3063607 -0.939736 0.1517879 0.3043845 -0.9407091 0.1497218 0.9561504 -0.2880131 0.05315047 0.9560191 -0.2884033 0.05339598 0.9455489 0.3202704 -0.058003 0.9441975 0.3240147 -0.05921024 0.9447894 0.3227453 -0.05664318 -0.9383385 -0.3407509 0.05839371 -0.9371774 -0.3440963 0.05741411 -0.9374758 -0.3428772 0.05978721 -0.9564532 -0.2873798 0.0510897 0.9649207 0.2584252 -0.04630923 0.9648203 0.2587369 -0.04665935 0.1402674 0.9778839 -0.1551395 -0.9481265 0.3130974 -0.05501061 -0.946114 0.319288 -0.05407035 -0.9467959 0.3166107 -0.05775088 -0.9383543 -0.3407106 0.05837315 -0.9371846 -0.3440701 0.05745255 -0.9374755 -0.3428779 0.0597862 -0.5983681 0.79121 -0.1262634 -0.5987161 0.7910125 -0.1258502 0.956019 -0.2884035 0.0533958 0.9455446 0.3203384 -0.05769777 0.9442037 0.3240489 -0.05892139 0.944789 0.3227456 -0.05664861 0.9648894 0.2585228 -0.04641699 0.9648187 0.2587429 -0.04666012 -0.956452 -0.287385 0.05108243 -0.9383615 -0.3406832 0.05841869 -0.9371692 -0.3441167 0.05742496 -0.937476 -0.3428769 0.0597862 -0.05914098 -0.985917 0.1564293 -0.05880588 -0.9859901 0.1560944 -0.05868911 -0.9859186 0.1565895 -0.9481267 0.3130972 -0.05500882 -0.9461143 0.3192873 -0.0540691 -0.9467963 0.3166101 -0.05774968 0.9648892 0.2585237 -0.04641675 0.9648185 0.2587437 -0.04666018 -0.01536417 0.9875938 -0.1562775 -0.01527136 0.9875446 -0.1565962 0.9455314 0.3203359 -0.05792462 0.9441995 0.3240187 -0.05915349 0.9447894 0.3227455 -0.05664271 -0.956452 -0.2873845 0.05108636 -0.3166381 -0.9366579 0.1497077 -0.318682 -0.935724 0.1512032 -0.3187902 -0.9360671 0.1488334 -0.5244027 -0.8405275 0.1360707 -0.5264678 -0.8395786 0.1339389 0.9455406 0.3202886 -0.05803751 0.9441943 0.324014 -0.05926305 0.9447894 0.3227459 -0.05664163 0.7287827 0.6761329 -0.1082599 0.9135721 -0.3368195 0.2279006 0.1855838 0.9704433 -0.1542675 0.1855067 0.9704064 -0.154592 0.9135676 -0.3367968 0.2279524 -0.705147 -0.7001647 0.1119695 -0.7047895 -0.700644 0.1112202 -0.704371 -0.700904 0.1122283 0.9135845 -0.336818 0.2278528 0.9135802 -0.3367959 0.2279029 0.9136054 -0.3367916 0.2278085 0.9135553 -0.336801 0.2279953 -0.05378675 0.9863833 -0.1554191 -0.05051839 0.986617 -0.1550318 -0.05199587 0.9863182 -0.1564378 0.9999989 -0.001435935 1.75239e-4 -0.9972974 0.07256579 -0.01149207 0.8367963 -0.1083769 -0.536681 -0.7947694 -0.1566422 -0.5863488 -0.00441724 0.6702516 -0.7421209 0.01297646 0.9674653 -0.2526712 0.05562609 0.4874721 0.8713649 0.9997627 0.02138751 -0.00415939 -0.0815193 0.469783 0.8790099 -0.9997627 -0.0213837 0.004158377 0.04514664 -0.951699 0.3036956 0.02174097 -0.9673063 0.2526775 0.03247743 -0.9227126 -0.384118 0.8271241 0.1668512 -0.5366809 -0.7019976 -0.4042219 -0.5863482 -0.2200086 0.6331288 -0.7421213 -0.2905159 0.9229217 -0.2526185 0.1448762 0.6353754 0.7584913 0.939625 0.3421807 -0.004159212 -0.01297652 0.4064925 0.9135619 -0.9396261 -0.3421776 0.004158437 0.4067791 -0.8644528 0.2953847 0.3320654 -0.9087832 0.2526775 0.3278686 -0.8631078 -0.3841187 -0.2687864 -0.8832808 -0.3841472 0.2133802 0.6353739 -0.7421382 0.7563211 -0.3741319 -0.5366599 0.3306535 0.9093061 -0.2526475 5.67671e-4 0.4122651 0.9110639 0.9525699 -0.3042917 -0.004159331 -0.2178131 0.6161084 0.7569465 -0.9525688 0.304295 0.004158377 -0.328454 -0.8990098 0.289654 -0.2934214 -0.9219859 0.2526775 -0.8025961 0.1098297 -0.5863252 0.6095553 -0.2413156 0.7551221 0.8422319 0.4850908 -0.2352287 -0.06675207 -0.6522459 0.7550627 0.9782878 -0.1118724 0.1744643 0.959761 0.2805656 0.01190841 0.2100459 0.9069172 -0.365215 -0.01427549 -0.9979683 0.06209242 0.45723 0.1801737 0.8709066 0.3328569 0.003456711 -0.9429711 -0.6723301 0.2404749 -0.700103 -0.9476975 -0.3159923 0.04492455 0.2376694 0.2987716 0.9242558 0.8580877 -0.2622337 -0.4414964 -0.4456643 -0.8064621 0.3885899 0.4508387 -0.1341547 -0.8824664 0.4156121 -0.8912854 0.18132 0.3168694 -0.3521776 0.8806616 -1 0 0 0 0.9687007 -0.2482317 1 0 0 0 0.2482315 0.9687008 0 -0.4179835 -0.9084547 0 0.4179831 0.9084548 3.82636e-7 0.4179838 0.9084544 2.62051e-7 -0.2482313 -0.9687008 3.83308e-7 -0.4179837 -0.9084545 1 0 0 1 0 0 -1 0 0 -0.9521247 0.3057102 0 0.2961375 0.9223251 -0.2482321 0.9521245 -0.3057106 0 0.07588481 0.2363478 0.9687008 -0.1277809 -0.3979723 -0.9084548 0.1277834 0.3979715 0.9084548 0.1277809 0.3979728 0.9084545 -0.07588672 -0.2363476 -0.9687008 -0.1277818 -0.3979721 -0.9084547 0.9521247 -0.3057103 0 0.9521245 -0.3057106 0 -0.9521246 0.3057106 0 -0.9521245 0.3057106 0 0.9521247 0.3057102 0 -0.2961375 0.9223251 -0.2482321 -0.9521246 -0.3057105 0 -0.07588613 0.2363477 0.9687007 0.1277817 -0.3979724 -0.9084547 -0.1277838 0.3979715 0.9084548 -0.1277805 0.3979729 0.9084547 0.0758869 -0.2363474 -0.9687008 0.1277816 -0.3979729 -0.9084545 -0.9521245 -0.3057104 0 0.9521247 0.3057103 0 0.9521247 0.3057103 0 0 0.9687007 -0.2482319 4.25821e-7 -0.4179834 -0.9084547 0 0.4179835 0.9084547 0 -0.2482317 -0.9687008 4.25821e-7 -0.417984 -0.9084544 -1 0 0 -1 0 0</float_array>
          <technique_common>
            <accessor source="#Cube_004-mesh-normals-array" count="669" stride="3">
              <param name="X" type="float"/>
              <param name="Y" type="float"/>
              <param name="Z" type="float"/>
            </accessor>
          </technique_common>
        </source>
        <source id="Cube_004-mesh-map-0">
          <float_array id="Cube_004-mesh-map-0-array" count="2766">0.6988076 0.2058535 0.7051358 0.0350992 0.6749888 0.03941351 0.6385135 0.2144821 0.7051358 0.0350992 0.6146946 0.04804205 0.6686605 0.2101678 0.6146946 0.04804205 0.6448417 0.04372775 0.6385135 0.2144821 0.721015 0.1460592 0.7289547 0.2015392 0.6226342 0.103522 0.7051358 0.0350992 0.6146946 0.04804205 0.6226342 0.1035221 0.7051358 0.0350992 0.7130754 0.09057921 0.6305738 0.1590021 0.7130754 0.09057921 0.721015 0.1460592 0.6385135 0.2144821 0.721015 0.1460592 0.6305738 0.159002 0.6305738 0.159002 0.7130754 0.09057921 0.6226342 0.103522 0.7051358 0.0350992 0.6988076 0.2058535 0.6749888 0.03941351 0.6988076 0.2058535 0.6448417 0.04372775 0.6749888 0.03941351 0.6146946 0.04804205 0.6686605 0.2101678 0.6448417 0.04372775 0.6448417 0.04372775 0.6988076 0.2058535 0.6749888 0.03941351 0.7051358 0.0350992 0.6988076 0.2058535 0.6749888 0.03941351 0.7051358 0.0350992 0.6385135 0.2144821 0.6146946 0.04804205 0.6146946 0.04804205 0.6686605 0.2101678 0.6448417 0.04372775 0.721015 0.1460592 0.6385135 0.2144821 0.7289547 0.2015392 0.6226342 0.103522 0.7051358 0.0350992 0.7130754 0.09057921 0.7051358 0.0350992 0.6226342 0.1035221 0.7130754 0.09057921 0.7130754 0.09057921 0.6305738 0.1590021 0.721015 0.1460592 0.6385135 0.2144821 0.721015 0.1460592 0.7289547 0.2015392 0.6305738 0.159002 0.7130754 0.09057921 0.721015 0.1460592 0.7051358 0.0350992 0.6988076 0.2058535 0.7289547 0.2015392 0.6448417 0.04372775 0.6988076 0.2058535 0.6749888 0.03941351 0.6146946 0.04804205 0.6686605 0.2101678 0.6385135 0.2144821 0.6448417 0.04372775 0.6988076 0.2058535 0.6686605 0.2101678 0.2895328 0.2006949 0.2473338 0.1769457 0.2701982 0.2167798 0.2895328 0.2006949 0.2473338 0.1769457 0.2701982 0.2167798 0.2895328 0.2006949 0.2473338 0.1769457 0.2701982 0.2167798 0.2895328 0.2006949 0.2473338 0.1769457 0.2701982 0.2167798 0.2895328 0.2006949 0.2473338 0.1769457 0.2701982 0.2167798 0.2895328 0.2006949 0.2473338 0.1769457 0.2701982 0.2167798 0.2895328 0.2006949 0.2473338 0.1769457 0.2701982 0.2167798 0.2895328 0.2006949 0.2473338 0.1769457 0.2701982 0.2167798 0.2656635 0.1647983 0.2701982 0.2167798 0.2895328 0.2006949 0.2895328 0.2006949 0.2473338 0.1769457 0.2701982 0.2167798 0.2895328 0.2006949 0.2473338 0.1769457 0.2701982 0.2167798 0.2656635 0.1647983 0.2701982 0.2167798 0.2895328 0.2006949 0.2895328 0.2006949 0.2473338 0.1769457 0.2701982 0.2167798 0.2895328 0.2006949 0.2473338 0.1769457 0.2701982 0.2167798 0.2656635 0.1647983 0.2701982 0.2167798 0.2895328 0.2006949 0.2895328 0.2006949 0.2473338 0.1769457 0.2701982 0.2167798 0.2895328 0.2006949 0.2473338 0.1769457 0.2701982 0.2167798 0.2895328 0.2006949 0.2473338 0.1769457 0.2701982 0.2167798 0.2895328 0.2006949 0.2473338 0.1769457 0.2701982 0.2167798 0.2895328 0.2006949 0.2473338 0.1769457 0.2701982 0.2167798 0.2895328 0.2006949 0.2473338 0.1769457 0.2701982 0.2167798 0.2895328 0.2006949 0.2473338 0.1769457 0.2701982 0.2167798 0.2895328 0.2006949 0.2473338 0.1769457 0.2701982 0.2167798 0.2895328 0.2006949 0.2473338 0.1769457 0.2701982 0.2167798 0.2895328 0.2006949 0.2473338 0.1769457 0.2701982 0.2167798 0.2895328 0.2006949 0.2473338 0.1769457 0.2701982 0.2167798 0.2895328 0.2006949 0.2473338 0.1769457 0.2701982 0.2167798 0.2895328 0.2006949 0.2656635 0.1647983 0.2473338 0.1769457 0.2895328 0.2006949 0.2656635 0.1647983 0.2473338 0.1769457 0.2895328 0.2006949 0.2656635 0.1647983 0.2473338 0.1769457 0.2895328 0.2006949 0.2656635 0.1647983 0.2473338 0.1769457 0.2895328 0.2006949 0.2656635 0.1647983 0.2473338 0.1769457 0.2895328 0.2006949 0.2656635 0.1647983 0.2473338 0.1769457 0.2895328 0.2006949 0.2656635 0.1647983 0.2473338 0.1769457 0.2895328 0.2006949 0.2656635 0.1647983 0.2473338 0.1769457 0.2656635 0.1647983 0.2473338 0.1769457 0.2701982 0.2167798 0.2895328 0.2006949 0.2656635 0.1647983 0.2473338 0.1769457 0.2895328 0.2006949 0.2656635 0.1647983 0.2473338 0.1769457 0.2656635 0.1647983 0.2473338 0.1769457 0.2701982 0.2167798 0.2895328 0.2006949 0.2656635 0.1647983 0.2473338 0.1769457 0.2895328 0.2006949 0.2656635 0.1647983 0.2473338 0.1769457 0.2656635 0.1647983 0.2473338 0.1769457 0.2701982 0.2167798 0.2895328 0.2006949 0.2656635 0.1647983 0.2473338 0.1769457 0.2895328 0.2006949 0.2656635 0.1647983 0.2473338 0.1769457 0.2895328 0.2006949 0.2656635 0.1647983 0.2473338 0.1769457 0.2895328 0.2006949 0.2656635 0.1647983 0.2473338 0.1769457 0.2895328 0.2006949 0.2656635 0.1647983 0.2473338 0.1769457 0.2895328 0.2006949 0.2656635 0.1647983 0.2473338 0.1769457 0.2895328 0.2006949 0.2656635 0.1647983 0.2473338 0.1769457 0.2895328 0.2006949 0.2656635 0.1647983 0.2473338 0.1769457 0.2895328 0.2006949 0.2656635 0.1647983 0.2473338 0.1769457 0.2895328 0.2006949 0.2656635 0.1647983 0.2473338 0.1769457 0.2895328 0.2006949 0.2656635 0.1647983 0.2473338 0.1769457 0.2895328 0.2006949 0.2656635 0.1647983 0.2473338 0.1769457 0.2895328 0.2006949 0.2701982 0.2167798 0.2473338 0.1769457 0.2895328 0.2006949 0.2701982 0.2167798 0.2473338 0.1769457 0.2895328 0.2006949 0.2701982 0.2167798 0.2473338 0.1769457 0.2895328 0.2006949 0.2701982 0.2167798 0.2473338 0.1769457 0.2895328 0.2006949 0.2701982 0.2167798 0.2473338 0.1769457 0.2895328 0.2006949 0.2701982 0.2167798 0.2473338 0.1769457 0.2895328 0.2006949 0.2701982 0.2167798 0.2473338 0.1769457 0.2895328 0.2006949 0.2701982 0.2167798 0.2473338 0.1769457 0.2656635 0.1647983 0.2895328 0.2006949 0.2701982 0.2167798 0.2895328 0.2006949 0.2701982 0.2167798 0.2473338 0.1769457 0.2895328 0.2006949 0.2701982 0.2167798 0.2473338 0.1769457 0.2656635 0.1647983 0.2895328 0.2006949 0.2701982 0.2167798 0.2895328 0.2006949 0.2701982 0.2167798 0.2473338 0.1769457 0.2895328 0.2006949 0.2701982 0.2167798 0.2473338 0.1769457 0.2656635 0.1647983 0.2895328 0.2006949 0.2701982 0.2167798 0.2895328 0.2006949 0.2701982 0.2167798 0.2473338 0.1769457 0.2895328 0.2006949 0.2701982 0.2167798 0.2473338 0.1769457 0.2895328 0.2006949 0.2701982 0.2167798 0.2473338 0.1769457 0.2895328 0.2006949 0.2701982 0.2167798 0.2473338 0.1769457 0.2895328 0.2006949 0.2701982 0.2167798 0.2473338 0.1769457 0.2895328 0.2006949 0.2701982 0.2167798 0.2473338 0.1769457 0.2895328 0.2006949 0.2701982 0.2167798 0.2473338 0.1769457 0.2895328 0.2006949 0.2701982 0.2167798 0.2473338 0.1769457 0.2895328 0.2006949 0.2701982 0.2167798 0.2473338 0.1769457 0.2895328 0.2006949 0.2701982 0.2167798 0.2473338 0.1769457 0.2895328 0.2006949 0.2701982 0.2167798 0.2473338 0.1769457 0.2895328 0.2006949 0.2701982 0.2167798 0.2473338 0.1769457 0.2895328 0.2006949 0.2473338 0.1769457 0.2656635 0.1647983 0.2895328 0.2006949 0.2473338 0.1769457 0.2656635 0.1647983 0.2895328 0.2006949 0.2473338 0.1769457 0.2656635 0.1647983 0.2895328 0.2006949 0.2473338 0.1769457 0.2656635 0.1647983 0.2895328 0.2006949 0.2473338 0.1769457 0.2656635 0.1647983 0.2895328 0.2006949 0.2473338 0.1769457 0.2656635 0.1647983 0.2895328 0.2006949 0.2473338 0.1769457 0.2656635 0.1647983 0.2895328 0.2006949 0.2473338 0.1769457 0.2656635 0.1647983 0.2656635 0.1647983 0.2701982 0.2167798 0.2473338 0.1769457 0.2895328 0.2006949 0.2473338 0.1769457 0.2656635 0.1647983 0.2895328 0.2006949 0.2473338 0.1769457 0.2656635 0.1647983 0.2656635 0.1647983 0.2701982 0.2167798 0.2473338 0.1769457 0.2895328 0.2006949 0.2473338 0.1769457 0.2656635 0.1647983 0.2895328 0.2006949 0.2473338 0.1769457 0.2656635 0.1647983 0.2656635 0.1647983 0.2701982 0.2167798 0.2473338 0.1769457 0.2895328 0.2006949 0.2473338 0.1769457 0.2656635 0.1647983 0.2895328 0.2006949 0.2473338 0.1769457 0.2656635 0.1647983 0.2895328 0.2006949 0.2473338 0.1769457 0.2656635 0.1647983 0.2895328 0.2006949 0.2473338 0.1769457 0.2656635 0.1647983 0.2895328 0.2006949 0.2473338 0.1769457 0.2656635 0.1647983 0.2895328 0.2006949 0.2473338 0.1769457 0.2656635 0.1647983 0.2895328 0.2006949 0.2473338 0.1769457 0.2656635 0.1647983 0.2895328 0.2006949 0.2473338 0.1769457 0.2656635 0.1647983 0.2895328 0.2006949 0.2473338 0.1769457 0.2656635 0.1647983 0.2895328 0.2006949 0.2473338 0.1769457 0.2656635 0.1647983 0.2895328 0.2006949 0.2473338 0.1769457 0.2656635 0.1647983 0.2895328 0.2006949 0.2473338 0.1769457 0.2656635 0.1647983 0.2473338 0.1769457 0.2656635 0.1647983 0.2473338 0.1769457 0.2473338 0.1769457 0.2701982 0.2167798 0.2701982 0.2167798 0.2473338 0.1769457 0.2656635 0.1647983 0.2473338 0.1769457 0.2895328 0.2006949 0.2701982 0.2167798 0.2895328 0.2006949 0.2473338 0.1769457 0.2701982 0.2167798 0.2701982 0.2167798 0.2895328 0.2006949 0.2656635 0.1647983 0.2656635 0.1647983 0.2473338 0.1769457 0.2701982 0.2167798 0.2701982 0.2167798 0.2473338 0.1769457 0.2656635 0.1647983 0.2473338 0.1769457 0.2895328 0.2006949 0.2701982 0.2167798 0.2895328 0.2006949 0.2895328 0.2006949 0.2656635 0.1647983 0.2656635 0.1647983 0.2473338 0.1769457 0.2656635 0.1647983 0.2473338 0.1769457 0.2473338 0.1769457 0.2701982 0.2167798 0.2701982 0.2167798 0.2473338 0.1769457 0.2656635 0.1647983 0.2473338 0.1769457 0.2895328 0.2006949 0.2701982 0.2167798 0.2895328 0.2006949 0.2473338 0.1769457 0.2701982 0.2167798 0.2701982 0.2167798 0.2895328 0.2006949 0.2656635 0.1647983 0.2656635 0.1647983 0.2473338 0.1769457 0.2701982 0.2167798 0.2701982 0.2167798 0.2473338 0.1769457 0.2656635 0.1647983 0.2473338 0.1769457 0.2895328 0.2006949 0.2701982 0.2167798 0.2895328 0.2006949 0.2895328 0.2006949 0.2656635 0.1647983 0.2656635 0.1647983 0.2473338 0.1769457 0.2656635 0.1647983 0.2473338 0.1769457 0.2473338 0.1769457 0.2701982 0.2167798 0.2701982 0.2167798 0.2473338 0.1769457 0.2656635 0.1647983 0.2473338 0.1769457 0.2895328 0.2006949 0.2701982 0.2167798 0.2895328 0.2006949 0.2895328 0.2006949 0.2701982 0.2167798 0.2895328 0.2006949 0.2473338 0.1769457 0.2701982 0.2167798 0.2701982 0.2167798 0.2473338 0.1769457 0.2701982 0.2167798 0.2701982 0.2167798 0.2473338 0.1769457 0.2701982 0.2167798 0.2701982 0.2167798 0.2895328 0.2006949 0.2701982 0.2167798 0.2895328 0.2006949 0.2895328 0.2006949 0.2701982 0.2167798 0.2895328 0.2006949 0.2895328 0.2006949 0.2701982 0.2167798 0.2895328 0.2006949 0.2473338 0.1769457 0.2701982 0.2167798 0.2701982 0.2167798 0.2473338 0.1769457 0.2701982 0.2167798 0.2701982 0.2167798 0.2895328 0.2006949 0.2656635 0.1647983 0.2656635 0.1647983 0.2895328 0.2006949 0.2701982 0.2167798 0.2895328 0.2006949 0.2473338 0.1769457 0.2701982 0.2167798 0.2701982 0.2167798 0.2895328 0.2006949 0.2656635 0.1647983 0.2656635 0.1647983 0.2895328 0.2006949 0.2701982 0.2167798 0.2895328 0.2006949 0.2473338 0.1769457 0.2656635 0.1647983 0.2473338 0.1769457 0.2895328 0.2006949 0.2701982 0.2167798 0.2895328 0.2006949 0.2473338 0.1769457 0.2701982 0.2167798 0.2701982 0.2167798 0.2895328 0.2006949 0.2656635 0.1647983 0.2656635 0.1647983 0.2895328 0.2006949 0.2701982 0.2167798 0.2895328 0.2006949 0.2895328 0.2006949 0.2701982 0.2167798 0.2895328 0.2006949 0.2473338 0.1769457 0.2701982 0.2167798 0.2701982 0.2167798 0.2473338 0.1769457 0.2656635 0.1647983 0.2473338 0.1769457 0.2895328 0.2006949 0.2701982 0.2167798 0.2895328 0.2006949 0.2895328 0.2006949 0.2656635 0.1647983 0.2656635 0.1647983 0.2473338 0.1769457 0.2701982 0.2167798 0.2701982 0.2167798 0.2473338 0.1769457 0.2701982 0.2167798 0.2701982 0.2167798 0.2473338 0.1769457 0.2656635 0.1647983 0.2473338 0.1769457 0.2895328 0.2006949 0.2701982 0.2167798 0.2895328 0.2006949 0.2895328 0.2006949 0.2701982 0.2167798 0.2895328 0.2006949 0.2473338 0.1769457 0.2701982 0.2167798 0.2701982 0.2167798 0.2895328 0.2006949 0.2656635 0.1647983 0.2656635 0.1647983 0.2895328 0.2006949 0.2701982 0.2167798 0.2895328 0.2006949 0.2473338 0.1769457 0.2656635 0.1647983 0.2473338 0.1769457 0.2473338 0.1769457 0.2701982 0.2167798 0.2701982 0.2167798 0.2473338 0.1769457 0.2701982 0.2167798 0.2701982 0.2167798 0.2895328 0.2006949 0.2656635 0.1647983 0.2656635 0.1647983 0.2895328 0.2006949 0.2656635 0.1647983 0.2656635 0.1647983 0.2895328 0.2006949 0.2701982 0.2167798 0.2895328 0.2006949 0.2473338 0.1769457 0.2701982 0.2167798 0.2701982 0.2167798 0.2473338 0.1769457 0.2656635 0.1647983 0.2473338 0.1769457 0.2895328 0.2006949 0.2701982 0.2167798 0.2895328 0.2006949 0.2895328 0.2006949 0.2656635 0.1647983 0.2656635 0.1647983 0.2895328 0.2006949 0.2701982 0.2167798 0.2895328 0.2006949 0.2473338 0.1769457 0.2701982 0.2167798 0.2701982 0.2167798 0.2473338 0.1769457 0.2656635 0.1647983 0.2473338 0.1769457 0.2895328 0.2006949 0.2701982 0.2167798 0.2895328 0.2006949 0.2473338 0.1769457 0.2701982 0.2167798 0.2701982 0.2167798 0.2895328 0.2006949 0.2701982 0.2167798 0.2895328 0.2006949 0.2473338 0.1769457 0.2701982 0.2167798 0.2701982 0.2167798 0.2895328 0.2006949 0.2701982 0.2167798 0.2895328 0.2006949 0.2473338 0.1769457 0.2701982 0.2167798 0.2701982 0.2167798 0.2473338 0.1769457 0.2701982 0.2167798 0.2701982 0.2167798 0.2895328 0.2006949 0.2656635 0.1647983 0.2656635 0.1647983 0.2895328 0.2006949 0.2656635 0.1647983 0.2656635 0.1647983 0.2895328 0.2006949 0.2656635 0.1647983 0.2656635 0.1647983 0.2473338 0.1769457 0.2656635 0.1647983 0.2473338 0.1769457 0.2473338 0.1769457 0.2656635 0.1647983 0.2473338 0.1769457 0.2895328 0.2006949 0.2656635 0.1647983 0.2656635 0.1647983 0.2895328 0.2006949 0.2656635 0.1647983 0.2656635 0.1647983 0.2895328 0.2006949 0.2701982 0.2167798 0.2895328 0.2006949 0.2473338 0.1769457 0.2656635 0.1647983 0.2473338 0.1769457 0.2473338 0.1769457 0.2656635 0.1647983 0.2473338 0.1769457 0.2895328 0.2006949 0.2656635 0.1647983 0.2656635 0.1647983 0.2895328 0.2006949 0.2656635 0.1647983 0.2656635 0.1647983 0.2473338 0.1769457 0.2656635 0.1647983 0.2473338 0.1769457 0.2473338 0.1769457 0.2656635 0.1647983 0.2473338 0.1769457 0.2895328 0.2006949 0.2656635 0.1647983 0.2656635 0.1647983 0.2895328 0.2006949 0.2656635 0.1647983 0.2656635 0.1647983 0.2473338 0.1769457 0.2656635 0.1647983 0.2473338 0.1769457 0.2473338 0.1769457 0.2656635 0.1647983 0.2473338 0.1769457 0.2895328 0.2006949 0.2656635 0.1647983 0.2656635 0.1647983 0.2895328 0.2006949 0.2656635 0.1647983 0.2656635 0.1647983 0.2473338 0.1769457 0.2656635 0.1647983 0.2473338 0.1769457 0.2473338 0.1769457 0.2656635 0.1647983 0.2473338 0.1769457 0.2895328 0.2006949 0.2656635 0.1647983 0.2656635 0.1647983 0.2895328 0.2006949 0.2701982 0.2167798 0.2895328 0.2006949 0.2895328 0.2006949 0.2656635 0.1647983 0.2656635 0.1647983 0.2473338 0.1769457 0.2656635 0.1647983 0.2473338 0.1769457 0.2473338 0.1769457 0.2656635 0.1647983 0.2473338 0.1769457 0.2895328 0.2006949 0.2656635 0.1647983 0.2656635 0.1647983 0.2473338 0.1769457 0.2701982 0.2167798 0.2701982 0.2167798 0.2473338 0.1769457 0.2656635 0.1647983 0.2473338 0.1769457 0.2895328 0.2006949 0.2701982 0.2167798 0.2895328 0.2006949 0.2895328 0.2006949 0.2656635 0.1647983 0.2656635 0.1647983 0.2473338 0.1769457 0.2656635 0.1647983 0.2656635 0.1647983 0.2473338 0.1769457 0.2473338 0.1769457 0.2701982 0.2167798 0.2473338 0.1769457 0.2656635 0.1647983 0.2656635 0.1647983 0.2895328 0.2006949 0.2701982 0.2167798 0.2701982 0.2167798 0.2473338 0.1769457 0.2473338 0.1769457 0.2701982 0.2167798 0.2895328 0.2006949 0.2895328 0.2006949 0.2656635 0.1647983 0.2473338 0.1769457 0.2473338 0.1769457 0.2701982 0.2167798 0.2473338 0.1769457 0.2656635 0.1647983 0.2656635 0.1647983 0.2895328 0.2006949 0.2701982 0.2167798 0.2701982 0.2167798 0.2895328 0.2006949 0.2895328 0.2006949 0.2656635 0.1647983 0.2473338 0.1769457 0.2656635 0.1647983 0.2656635 0.1647983 0.2473338 0.1769457 0.2473338 0.1769457 0.2701982 0.2167798 0.2473338 0.1769457 0.2656635 0.1647983 0.2656635 0.1647983 0.2895328 0.2006949 0.2701982 0.2167798 0.2701982 0.2167798 0.2473338 0.1769457 0.2473338 0.1769457 0.2701982 0.2167798 0.2895328 0.2006949 0.2895328 0.2006949 0.2656635 0.1647983 0.2473338 0.1769457 0.2473338 0.1769457 0.2701982 0.2167798 0.2473338 0.1769457 0.2656635 0.1647983 0.2656635 0.1647983 0.2895328 0.2006949 0.2701982 0.2167798 0.2701982 0.2167798 0.2895328 0.2006949 0.2895328 0.2006949 0.2656635 0.1647983 0.2473338 0.1769457 0.2656635 0.1647983 0.2656635 0.1647983 0.2473338 0.1769457 0.2473338 0.1769457 0.2701982 0.2167798 0.2473338 0.1769457 0.2656635 0.1647983 0.2656635 0.1647983 0.2895328 0.2006949 0.2701982 0.2167798 0.2701982 0.2167798 0.2895328 0.2006949 0.2701982 0.2167798 0.2701982 0.2167798 0.2473338 0.1769457 0.2473338 0.1769457 0.2701982 0.2167798 0.2473338 0.1769457 0.2473338 0.1769457 0.2701982 0.2167798 0.2473338 0.1769457 0.2473338 0.1769457 0.2701982 0.2167798 0.2895328 0.2006949 0.2701982 0.2167798 0.2701982 0.2167798 0.2895328 0.2006949 0.2701982 0.2167798 0.2701982 0.2167798 0.2895328 0.2006949 0.2701982 0.2167798 0.2701982 0.2167798 0.2473338 0.1769457 0.2473338 0.1769457 0.2701982 0.2167798 0.2473338 0.1769457 0.2473338 0.1769457 0.2701982 0.2167798 0.2895328 0.2006949 0.2895328 0.2006949 0.2656635 0.1647983 0.2895328 0.2006949 0.2701982 0.2167798 0.2701982 0.2167798 0.2473338 0.1769457 0.2473338 0.1769457 0.2701982 0.2167798 0.2895328 0.2006949 0.2895328 0.2006949 0.2656635 0.1647983 0.2895328 0.2006949 0.2701982 0.2167798 0.2701982 0.2167798 0.2473338 0.1769457 0.2656635 0.1647983 0.2656635 0.1647983 0.2895328 0.2006949 0.2701982 0.2167798 0.2701982 0.2167798 0.2473338 0.1769457 0.2473338 0.1769457 0.2701982 0.2167798 0.2895328 0.2006949 0.2895328 0.2006949 0.2656635 0.1647983 0.2895328 0.2006949 0.2701982 0.2167798 0.2701982 0.2167798 0.2895328 0.2006949 0.2701982 0.2167798 0.2701982 0.2167798 0.2473338 0.1769457 0.2473338 0.1769457 0.2701982 0.2167798 0.2473338 0.1769457 0.2656635 0.1647983 0.2656635 0.1647983 0.2895328 0.2006949 0.2701982 0.2167798 0.2701982 0.2167798 0.2895328 0.2006949 0.2895328 0.2006949 0.2656635 0.1647983 0.2473338 0.1769457 0.2473338 0.1769457 0.2701982 0.2167798 0.2473338 0.1769457 0.2473338 0.1769457 0.2701982 0.2167798 0.2473338 0.1769457 0.2656635 0.1647983 0.2656635 0.1647983 0.2895328 0.2006949 0.2701982 0.2167798 0.2701982 0.2167798 0.2895328 0.2006949 0.2701982 0.2167798 0.2701982 0.2167798 0.2473338 0.1769457 0.2473338 0.1769457 0.2701982 0.2167798 0.2895328 0.2006949 0.2895328 0.2006949 0.2656635 0.1647983 0.2895328 0.2006949 0.2701982 0.2167798 0.2701982 0.2167798 0.2473338 0.1769457 0.2656635 0.1647983 0.2656635 0.1647983 0.2473338 0.1769457 0.2473338 0.1769457 0.2701982 0.2167798 0.2473338 0.1769457 0.2473338 0.1769457 0.2701982 0.2167798 0.2895328 0.2006949 0.2895328 0.2006949 0.2656635 0.1647983 0.2895328 0.2006949 0.2895328 0.2006949 0.2656635 0.1647983 0.2895328 0.2006949 0.2701982 0.2167798 0.2701982 0.2167798 0.2473338 0.1769457 0.2473338 0.1769457 0.2701982 0.2167798 0.2473338 0.1769457 0.2656635 0.1647983 0.2656635 0.1647983 0.2895328 0.2006949 0.2701982 0.2167798 0.2701982 0.2167798 0.2895328 0.2006949 0.2895328 0.2006949 0.2656635 0.1647983 0.2895328 0.2006949 0.2701982 0.2167798 0.2701982 0.2167798 0.2473338 0.1769457 0.2473338 0.1769457 0.2701982 0.2167798 0.2473338 0.1769457 0.2656635 0.1647983 0.2656635 0.1647983 0.2895328 0.2006949 0.2701982 0.2167798 0.2701982 0.2167798 0.2473338 0.1769457 0.2473338 0.1769457 0.2701982 0.2167798 0.2895328 0.2006949 0.2701982 0.2167798 0.2701982 0.2167798 0.2473338 0.1769457 0.2473338 0.1769457 0.2701982 0.2167798 0.2895328 0.2006949 0.2701982 0.2167798 0.2701982 0.2167798 0.2473338 0.1769457 0.2473338 0.1769457 0.2701982 0.2167798 0.2473338 0.1769457 0.2473338 0.1769457 0.2701982 0.2167798 0.2895328 0.2006949 0.2895328 0.2006949 0.2656635 0.1647983 0.2895328 0.2006949 0.2895328 0.2006949 0.2656635 0.1647983 0.2895328 0.2006949 0.2895328 0.2006949 0.2656635 0.1647983 0.2473338 0.1769457 0.2656635 0.1647983 0.2656635 0.1647983 0.2473338 0.1769457 0.2656635 0.1647983 0.2656635 0.1647983 0.2895328 0.2006949 0.2895328 0.2006949 0.2656635 0.1647983 0.2895328 0.2006949 0.2895328 0.2006949 0.2656635 0.1647983 0.2895328 0.2006949 0.2701982 0.2167798 0.2701982 0.2167798 0.2473338 0.1769457 0.2656635 0.1647983 0.2656635 0.1647983 0.2473338 0.1769457 0.2656635 0.1647983 0.2656635 0.1647983 0.2895328 0.2006949 0.2895328 0.2006949 0.2656635 0.1647983 0.2895328 0.2006949 0.2895328 0.2006949 0.2656635 0.1647983 0.2473338 0.1769457 0.2656635 0.1647983 0.2656635 0.1647983 0.2473338 0.1769457 0.2656635 0.1647983 0.2656635 0.1647983 0.2895328 0.2006949 0.2895328 0.2006949 0.2656635 0.1647983 0.2895328 0.2006949 0.2895328 0.2006949 0.2656635 0.1647983 0.2473338 0.1769457 0.2656635 0.1647983 0.2656635 0.1647983 0.2473338 0.1769457 0.2656635 0.1647983 0.2656635 0.1647983 0.2895328 0.2006949 0.2895328 0.2006949 0.2656635 0.1647983 0.2895328 0.2006949 0.2895328 0.2006949 0.2656635 0.1647983 0.2473338 0.1769457 0.2656635 0.1647983 0.2656635 0.1647983 0.2473338 0.1769457 0.2656635 0.1647983 0.2656635 0.1647983 0.2895328 0.2006949 0.2895328 0.2006949 0.2656635 0.1647983 0.2895328 0.2006949 0.2701982 0.2167798 0.2701982 0.2167798 0.2895328 0.2006949 0.2895328 0.2006949 0.2656635 0.1647983 0.2473338 0.1769457 0.2656635 0.1647983 0.2656635 0.1647983 0.2473338 0.1769457 0.2656635 0.1647983 0.2656635 0.1647983 0.2895328 0.2006949 0.2895328 0.2006949 0.2656635 0.1647983 0.2473338 0.1769457 0.2473338 0.1769457 0.2701982 0.2167798 0.2473338 0.1769457 0.2656635 0.1647983 0.2656635 0.1647983 0.2895328 0.2006949 0.2701982 0.2167798 0.2701982 0.2167798 0.2895328 0.2006949 0.2895328 0.2006949 0.2656635 0.1647983 0.2382887 0.3973688 0.2218863 0.4023717 0.22189 0.3973516 0.1965821 0.6237387 0.212408 0.7209342 0.2106277 0.6236345 0.1848588 0.7211393 0.1965821 0.6237387 0.1830784 0.6238396 0.1987053 0.7210347 0.1830784 0.6238396 0.1968313 0.6237378 0.2106277 0.6236345 0.1987053 0.7210347 0.1968313 0.6237378 0.209674 0.5715098 0.1968313 0.6237378 0.1958276 0.5716145 0.1968313 0.6237378 0.1821247 0.5717149 0.1958276 0.5716145 0.1830784 0.6238396 0.1957294 0.5710372 0.1821247 0.5717149 0.1954239 0.572206 0.2106277 0.6236345 0.209674 0.5715098 0.2382887 0.3973688 0.2218863 0.4023717 0.22189 0.3973516 0.1965821 0.6237387 0.212408 0.7209342 0.2106277 0.6236345 0.1848588 0.7211393 0.1965821 0.6237387 0.1830784 0.6238396 0.1987053 0.7210347 0.1830784 0.6238396 0.1968313 0.6237378 0.2106277 0.6236345 0.1987053 0.7210347 0.1968313 0.6237378 0.209674 0.5715098 0.1968313 0.6237378 0.1958276 0.5716145 0.1968313 0.6237378 0.1821247 0.5717149 0.1958276 0.5716145 0.1830784 0.6238396 0.1957294 0.5710372 0.1821247 0.5717149 0.1954239 0.572206 0.2106277 0.6236345 0.209674 0.5715098 0.2382851 0.4023889 0.22189 0.3973516 0.2382887 0.3973688 0.1965821 0.6237387 0.212408 0.7209342 0.2106277 0.6236345 0.1848588 0.7211393 0.1965821 0.6237387 0.1830784 0.6238396 0.1987053 0.7210347 0.1830784 0.6238396 0.1968313 0.6237378 0.2106277 0.6236345 0.1987053 0.7210347 0.1968313 0.6237378 0.209674 0.5715098 0.1968313 0.6237378 0.1958276 0.5716145 0.1968313 0.6237378 0.1821247 0.5717149 0.1958276 0.5716145 0.1830784 0.6238396 0.1957294 0.5710372 0.1821247 0.5717149 0.1954239 0.572206 0.2106277 0.6236345 0.209674 0.5715098 0.2382887 0.3973688 0.2382851 0.4023889 0.2218863 0.4023717 0.1965821 0.6237387 0.1983016 0.7216263 0.212408 0.7209342 0.1848588 0.7211393 0.1986072 0.7204574 0.1965821 0.6237387 0.1987053 0.7210347 0.1848588 0.7211393 0.1830784 0.6238396 0.2106277 0.6236345 0.212408 0.7209342 0.1987053 0.7210347 0.209674 0.5715098 0.2106277 0.6236345 0.1968313 0.6237378 0.1968313 0.6237378 0.1830784 0.6238396 0.1821247 0.5717149 0.1830784 0.6238396 0.1965821 0.6237387 0.1957294 0.5710372 0.1954239 0.572206 0.1965821 0.6237387 0.2106277 0.6236345 0.2382887 0.3973688 0.2382851 0.4023889 0.2218863 0.4023717 0.1965821 0.6237387 0.1983016 0.7216263 0.212408 0.7209342 0.1848588 0.7211393 0.1986072 0.7204574 0.1965821 0.6237387 0.1987053 0.7210347 0.1848588 0.7211393 0.1830784 0.6238396 0.2106277 0.6236345 0.212408 0.7209342 0.1987053 0.7210347 0.209674 0.5715098 0.2106277 0.6236345 0.1968313 0.6237378 0.1968313 0.6237378 0.1830784 0.6238396 0.1821247 0.5717149 0.1830784 0.6238396 0.1965821 0.6237387 0.1957294 0.5710372 0.1954239 0.572206 0.1965821 0.6237387 0.2106277 0.6236345 0.2382851 0.4023889 0.2218863 0.4023717 0.22189 0.3973516 0.1965821 0.6237387 0.1983016 0.7216263 0.212408 0.7209342 0.1848588 0.7211393 0.1986072 0.7204574 0.1965821 0.6237387 0.1987053 0.7210347 0.1848588 0.7211393 0.1830784 0.6238396 0.2106277 0.6236345 0.212408 0.7209342 0.1987053 0.7210347 0.209674 0.5715098 0.2106277 0.6236345 0.1968313 0.6237378 0.1968313 0.6237378 0.1830784 0.6238396 0.1821247 0.5717149 0.1830784 0.6238396 0.1965821 0.6237387 0.1957294 0.5710372 0.1954239 0.572206 0.1965821 0.6237387 0.2106277 0.6236345 0.1983016 0.7216263 0.1965821 0.6237387 0.1965821 0.6237387 0.1965821 0.6237387 0.1983016 0.7216263 0.1965821 0.6237387 0.1983016 0.7216263 0.1965821 0.6237387 0.1965821 0.6237387 0.1965821 0.6237387 0.1983016 0.7216263 0.1983016 0.7216263 0.1983016 0.7216263 0.1983016 0.7216263 0.1965821 0.6237387 0.6988076 0.2058535 0.7051358 0.0350992 0.6749888 0.03941351 0.6385135 0.2144821 0.7051358 0.0350992 0.6146946 0.04804205 0.6686605 0.2101678 0.6146946 0.04804205 0.6448417 0.04372775 0.6385135 0.2144821 0.721015 0.1460592 0.7289547 0.2015392 0.6226342 0.103522 0.7051358 0.0350992 0.6146946 0.04804205 0.7130754 0.09057921 0.6146946 0.04804205 0.7051358 0.0350992 0.721015 0.1460592 0.6226342 0.1035221 0.7130754 0.09057921 0.6385135 0.2144821 0.721015 0.1460592 0.6305738 0.159002 0.6305738 0.159002 0.7130754 0.09057921 0.6226342 0.103522 0.7051358 0.0350992 0.6988076 0.2058535 0.6749888 0.03941351 0.6988076 0.2058535 0.6448417 0.04372775 0.6749888 0.03941351 0.6146946 0.04804205 0.6686605 0.2101678 0.6448417 0.04372775 0.6448417 0.04372775 0.6988076 0.2058535 0.6749888 0.03941351 0.6988076 0.2058535 0.7289547 0.2015392 0.7051358 0.0350992 0.6385135 0.2144821 0.7289547 0.2015392 0.7051358 0.0350992 0.6686605 0.2101678 0.6385135 0.2144821 0.6146946 0.04804205 0.6385135 0.2144821 0.6305738 0.1590021 0.721015 0.1460592 0.6226342 0.103522 0.7130754 0.09057921 0.7051358 0.0350992 0.6226342 0.1035221 0.6146946 0.04804205 0.7051358 0.0350992 0.6305738 0.1590021 0.6226342 0.1035221 0.7130754 0.09057921 0.6385135 0.2144821 0.7289547 0.2015392 0.721015 0.1460592 0.6305738 0.159002 0.721015 0.1460592 0.7130754 0.09057921 0.7051358 0.0350992 0.7289547 0.2015392 0.6988076 0.2058535 0.6988076 0.2058535 0.6686605 0.2101678 0.6448417 0.04372775 0.6146946 0.04804205 0.6385135 0.2144821 0.6686605 0.2101678 0.6448417 0.04372775 0.6686605 0.2101678 0.6988076 0.2058535 0.7051358 0.0350992 0.7289547 0.2015392 0.6988076 0.2058535 0.7051358 0.0350992 0.7289547 0.2015392 0.6385135 0.2144821 0.6146946 0.04804205 0.6385135 0.2144821 0.6686605 0.2101678 0.721015 0.1460592 0.6305738 0.1590021 0.6385135 0.2144821 0.6226342 0.103522 0.6146946 0.04804205 0.7051358 0.0350992 0.7051358 0.0350992 0.6146946 0.04804205 0.6226342 0.1035221 0.7130754 0.09057921 0.6226342 0.1035221 0.6305738 0.1590021 0.6385135 0.2144821 0.6305738 0.159002 0.721015 0.1460592 0.6305738 0.159002 0.6226342 0.103522 0.7130754 0.09057921 0.7051358 0.0350992 0.6749888 0.03941351 0.6988076 0.2058535 0.6448417 0.04372775 0.6686605 0.2101678 0.6988076 0.2058535 0.6146946 0.04804205 0.6448417 0.04372775 0.6686605 0.2101678 0.6448417 0.04372775 0.6749888 0.03941351 0.6988076 0.2058535 0.6988076 0.2058535 0.7289547 0.2015392 0.7051358 0.0350992 0.6385135 0.2144821 0.7289547 0.2015392 0.7051358 0.0350992 0.6686605 0.2101678 0.6385135 0.2144821 0.6146946 0.04804205 0.6385135 0.2144821 0.6305738 0.1590021 0.721015 0.1460592 0.6226342 0.103522 0.7130754 0.09057921 0.7051358 0.0350992 0.7130754 0.09057921 0.6226342 0.1035221 0.6146946 0.04804205 0.721015 0.1460592 0.6305738 0.1590021 0.6226342 0.1035221 0.6385135 0.2144821 0.7289547 0.2015392 0.721015 0.1460592 0.6305738 0.159002 0.721015 0.1460592 0.7130754 0.09057921 0.7051358 0.0350992 0.7289547 0.2015392 0.6988076 0.2058535 0.6988076 0.2058535 0.6686605 0.2101678 0.6448417 0.04372775 0.6146946 0.04804205 0.6385135 0.2144821 0.6686605 0.2101678 0.6448417 0.04372775 0.6686605 0.2101678 0.6988076 0.2058535</float_array>
          <technique_common>
            <accessor source="#Cube_004-mesh-map-0-array" count="1383" stride="2">
              <param name="S" type="float"/>
              <param name="T" type="float"/>
            </accessor>
          </technique_common>
        </source>
        <vertices id="Cube_004-mesh-vertices">
          <input semantic="POSITION" source="#Cube_004-mesh-positions"/>
        </vertices>
        <triangles material="coronas_viejas_zapo-material" count="461">
          <input semantic="VERTEX" source="#Cube_004-mesh-vertices" offset="0"/>
          <input semantic="NORMAL" source="#Cube_004-mesh-normals" offset="1"/>
          <input semantic="TEXCOORD" source="#Cube_004-mesh-map-0" offset="2" set="0"/>
          <p>11 0 0 2 0 1 8 0 2 3 1 3 6 1 4 2 1 5 15 2 6 4 2 7 12 2 8 3 3 9 14 3 10 7 3 11 9 4 12 4 4 13 0 4 14 10 5 15 5 5 16 15 5 17 11 6 18 15 6 19 14 6 20 2 7 21 13 7 22 8 7 23 8 8 24 12 8 25 9 8 26 6 9 27 14 9 28 13 9 29 14 10 30 12 10 31 13 10 32 0 11 33 10 11 34 9 11 35 9 12 36 11 12 37 8 12 38 18 13 39 27 13 40 24 13 41 22 14 42 19 14 43 18 14 44 20 15 45 31 15 46 28 15 47 30 16 48 19 16 49 23 16 50 25 17 51 20 17 52 28 17 53 21 18 54 26 18 55 31 18 56 31 19 57 27 19 58 30 19 59 18 20 60 29 20 61 22 20 62 24 21 63 28 21 64 29 21 65 22 22 66 30 22 67 23 22 68 28 23 69 30 23 70 29 23 71 16 24 72 26 24 73 17 24 74 25 25 75 27 25 76 26 25 77 32 26 78 35 27 79 34 28 80 36 29 81 39 30 82 38 31 83 43 32 84 40 33 85 41 34 86 44 35 87 47 36 88 46 37 89 51 38 90 48 39 91 49 40 92 55 41 93 52 42 94 53 43 95 56 44 96 59 45 97 58 44 98 63 46 99 60 47 100 61 47 101 66 48 102 65 49 103 67 48 104 68 50 105 71 51 106 70 50 107 75 52 108 72 53 109 73 53 110 78 54 111 77 55 112 79 54 113 80 56 114 83 57 115 82 56 116 87 58 117 84 59 118 85 59 119 90 60 120 89 61 121 91 62 122 92 63 123 95 64 124 94 63 125 96 65 126 99 66 127 98 65 128 103 67 129 100 68 130 101 67 131 104 69 132 107 70 133 106 69 134 111 71 135 108 72 136 109 71 137 115 73 138 112 74 139 113 73 140 116 75 141 119 76 142 118 77 143 120 78 144 123 79 145 122 78 146 127 80 147 124 81 148 125 82 149 128 83 150 131 84 151 130 83 152 135 85 153 132 86 154 133 87 155 139 88 156 136 89 157 137 88 158 32 26 159 33 90 160 35 27 161 36 29 162 37 91 163 39 30 164 43 32 165 42 92 166 40 33 167 44 35 168 45 93 169 47 36 170 51 38 171 50 94 172 48 39 173 55 41 174 54 95 175 52 42 176 56 96 177 57 97 178 59 97 179 63 98 180 62 98 181 60 99 182 66 100 183 64 101 184 65 102 185 68 103 186 69 104 187 71 105 188 75 106 189 74 107 190 72 108 191 78 109 192 76 109 193 77 109 194 80 110 195 81 111 196 83 112 197 87 113 198 86 114 199 84 115 200 90 116 201 88 117 202 89 117 203 92 118 204 93 119 205 95 119 206 96 120 207 97 121 208 99 121 209 103 122 210 102 123 211 100 124 212 104 125 213 105 126 214 107 126 215 111 127 216 110 128 217 108 128 218 115 129 219 114 130 220 112 131 221 116 132 222 117 133 223 119 134 224 120 135 225 121 136 226 123 137 227 127 138 228 126 139 229 124 140 230 128 141 231 129 142 232 131 143 233 135 144 234 134 145 235 132 146 236 139 147 237 138 148 238 136 149 239 140 150 240 141 151 241 142 152 242 143 153 243 144 154 244 145 155 245 146 156 246 147 157 247 148 158 248 149 159 249 150 160 250 151 161 251 152 162 252 153 163 253 154 164 254 155 165 255 156 166 256 157 167 257 158 168 258 159 168 259 160 169 260 161 170 261 162 171 262 163 171 263 164 172 264 165 172 265 166 173 266 167 174 267 168 174 268 169 175 269 170 176 270 171 177 271 172 177 272 173 178 273 174 179 274 175 180 275 176 181 276 177 182 277 178 183 278 179 184 279 180 185 280 181 185 281 182 186 282 183 187 283 184 188 284 185 189 285 186 189 286 187 190 287 188 191 288 189 191 289 190 192 290 191 193 291 192 193 292 193 194 293 194 195 294 195 195 295 196 196 296 197 197 297 198 197 298 199 198 299 200 199 300 201 200 301 202 201 302 203 202 303 204 203 304 205 204 305 206 205 306 207 205 307 208 206 308 209 207 309 210 207 310 211 208 311 212 209 312 213 209 313 214 210 314 215 211 315 216 212 316 217 213 317 218 214 318 219 214 319 220 215 320 140 150 321 142 152 322 221 216 323 143 153 324 145 155 325 222 217 326 146 156 327 148 158 328 223 218 329 149 159 330 151 161 331 224 219 332 152 162 333 154 164 334 225 220 335 155 165 336 157 167 337 226 221 338 158 222 339 160 223 340 227 223 341 161 224 342 163 225 343 228 224 344 164 226 345 166 227 346 229 228 347 167 229 348 169 230 349 230 231 350 170 232 351 172 233 352 231 234 353 173 235 354 175 235 355 232 235 356 176 236 357 178 237 358 233 238 359 179 239 360 181 240 361 234 239 362 182 241 363 184 242 364 235 242 365 185 243 366 187 244 367 236 245 368 188 246 369 190 247 370 237 247 371 191 248 372 193 249 373 238 249 374 194 250 375 196 251 376 239 252 377 197 253 378 199 254 379 240 255 380 200 256 381 202 257 382 241 258 383 203 259 384 205 260 385 242 261 386 206 262 387 208 263 388 243 264 389 209 265 390 211 266 391 244 267 392 212 268 393 214 269 394 245 270 395 215 271 396 217 272 397 246 273 398 218 274 399 220 275 400 247 276 401 60 277 402 228 278 403 163 279 404 39 30 405 144 154 406 38 31 407 64 280 408 164 281 409 229 280 410 43 32 411 147 157 412 146 156 413 64 282 414 166 283 415 65 284 416 68 285 417 230 286 418 69 286 419 40 33 420 147 157 421 41 34 422 71 287 423 230 288 424 169 289 425 44 35 426 150 160 427 149 159 428 75 290 429 231 291 430 74 291 431 72 292 432 231 293 433 172 294 434 47 36 435 150 160 436 46 37 437 76 295 438 173 295 439 232 295 440 51 38 441 153 163 442 152 162 443 76 296 444 175 296 445 77 296 446 80 297 447 233 298 448 81 298 449 48 39 450 153 163 451 49 40 452 83 299 453 233 300 454 178 301 455 55 41 456 156 166 457 155 165 458 87 302 459 234 303 460 86 303 461 84 304 462 234 305 463 181 306 464 52 42 465 156 166 466 53 43 467 88 307 468 182 308 469 235 307 470 56 309 471 159 309 472 158 309 473 116 310 474 204 311 475 203 311 476 88 312 477 184 312 478 89 312 479 59 313 480 159 314 481 58 314 482 119 315 483 204 316 484 118 316 485 63 317 486 162 318 487 161 319 488 120 320 489 207 320 490 206 320 491 92 321 492 186 321 493 185 321 494 60 322 495 162 323 496 61 323 497 123 324 498 207 325 499 122 326 500 67 327 501 164 327 502 66 327 503 127 328 504 210 329 505 209 330 506 95 331 507 186 332 508 94 332 509 92 333 510 236 334 511 93 335 512 96 336 513 189 336 514 188 336 515 95 337 516 236 338 517 187 338 518 67 339 519 166 340 520 165 339 521 124 341 522 210 342 523 125 342 524 96 343 525 237 344 526 97 344 527 68 345 528 168 345 529 167 345 530 128 346 531 213 346 532 212 346 533 99 347 534 189 348 535 98 348 536 99 349 537 237 349 538 190 349 539 103 350 540 192 350 541 191 350 542 103 351 543 238 352 544 102 352 545 71 353 546 168 354 547 70 354 548 131 355 549 213 356 550 130 357 551 100 358 552 238 359 553 193 360 554 75 361 555 171 362 556 170 363 557 135 364 558 216 365 559 215 366 560 100 367 561 192 368 562 101 368 563 104 369 564 239 370 565 105 370 566 104 371 567 195 371 568 194 371 569 107 372 570 239 372 571 196 372 572 72 373 573 171 373 574 73 373 575 132 374 576 216 375 577 133 375 578 111 376 579 240 377 580 110 377 581 79 378 582 173 379 583 78 380 584 139 381 585 219 382 586 218 382 587 107 383 588 195 384 589 106 385 590 108 386 591 240 387 592 199 387 593 111 371 594 198 371 595 197 371 596 115 388 597 241 389 598 114 389 599 79 390 600 175 391 601 174 390 602 136 392 603 219 393 604 137 393 605 112 394 606 241 395 607 202 396 608 80 397 609 177 397 610 176 397 611 108 398 612 198 399 613 109 399 614 115 400 615 201 401 616 200 402 617 83 403 618 177 404 619 82 404 620 87 405 621 180 406 622 179 407 623 112 408 624 201 409 625 113 409 626 84 410 627 180 410 628 85 410 629 32 26 630 221 216 631 33 90 632 116 132 633 242 261 634 117 133 635 91 411 636 182 411 637 90 412 638 35 27 639 221 216 640 142 152 641 119 134 642 242 261 643 205 260 644 36 29 645 222 217 646 37 91 647 120 135 648 243 264 649 121 136 650 91 413 651 184 414 652 183 413 653 39 30 654 222 217 655 145 155 656 123 137 657 243 264 658 208 263 659 43 32 660 223 218 661 42 92 662 127 138 663 244 267 664 126 139 665 40 33 666 223 218 667 148 158 668 124 140 669 244 267 670 211 266 671 44 35 672 224 219 673 45 93 674 128 141 675 245 270 676 129 142 677 47 36 678 224 219 679 151 161 680 131 143 681 245 270 682 214 269 683 51 38 684 225 220 685 50 94 686 135 144 687 246 273 688 134 145 689 48 39 690 225 220 691 154 164 692 132 146 693 246 273 694 217 272 695 55 41 696 226 221 697 54 95 698 32 26 699 141 151 700 140 150 701 139 147 702 247 276 703 138 148 704 52 42 705 226 221 706 157 167 707 136 149 708 247 276 709 220 275 710 56 415 711 227 416 712 57 416 713 35 27 714 141 151 715 34 28 716 59 417 717 227 417 718 160 417 719 36 29 720 144 154 721 143 153 722 63 418 723 228 418 724 62 418 725 60 419 726 62 420 727 228 420 728 39 30 729 145 155 730 144 154 731 64 421 732 66 422 733 164 423 734 43 32 735 41 34 736 147 157 737 64 424 738 229 424 739 166 425 740 68 426 741 167 427 742 230 428 743 40 33 744 148 158 745 147 157 746 71 429 747 69 430 748 230 430 749 44 35 750 46 37 751 150 160 752 75 431 753 170 432 754 231 433 755 72 434 756 74 435 757 231 435 758 47 36 759 151 161 760 150 160 761 76 436 762 78 436 763 173 436 764 51 38 765 49 40 766 153 163 767 76 437 768 232 437 769 175 437 770 80 438 771 176 439 772 233 440 773 48 39 774 154 164 775 153 163 776 83 441 777 81 442 778 233 442 779 55 41 780 53 43 781 156 166 782 87 443 783 179 444 784 234 444 785 84 445 786 86 446 787 234 446 788 52 42 789 157 167 790 156 166 791 88 447 792 90 448 793 182 449 794 56 450 795 58 450 796 159 450 797 116 451 798 118 452 799 204 452 800 88 453 801 235 453 802 184 453 803 59 454 804 160 455 805 159 456 806 119 457 807 205 458 808 204 459 809 63 460 810 61 461 811 162 461 812 120 462 813 122 462 814 207 462 815 92 463 816 94 464 817 186 464 818 60 465 819 163 465 820 162 465 821 123 324 822 208 466 823 207 325 824 67 467 825 165 467 826 164 467 827 127 468 828 125 469 829 210 469 830 95 470 831 187 471 832 186 472 833 92 473 834 185 474 835 236 475 836 96 476 837 98 476 838 189 476 839 95 477 840 93 478 841 236 478 842 67 479 843 65 480 844 166 481 845 124 482 846 211 483 847 210 484 848 96 485 849 188 486 850 237 487 851 68 488 852 70 488 853 168 488 854 128 489 855 130 489 856 213 489 857 99 490 858 190 491 859 189 492 860 99 493 861 97 493 862 237 493 863 103 494 864 101 494 865 192 494 866 103 495 867 191 496 868 238 497 869 71 498 870 169 499 871 168 500 872 131 355 873 214 501 874 213 356 875 100 502 876 102 503 877 238 503 878 75 504 879 73 505 880 171 505 881 135 506 882 133 507 883 216 507 884 100 508 885 193 509 886 192 510 887 104 511 888 194 512 889 239 513 890 104 514 891 106 514 892 195 514 893 107 515 894 105 516 895 239 516 896 72 517 897 172 517 898 171 517 899 132 518 900 217 519 901 216 520 902 111 521 903 197 522 904 240 523 905 79 524 906 174 524 907 173 525 908 139 526 909 137 526 910 219 526 911 107 527 912 196 528 913 195 529 914 108 530 915 110 531 916 240 531 917 111 532 918 109 532 919 198 532 920 115 533 921 200 534 922 241 535 923 79 536 924 77 537 925 175 538 926 136 539 927 220 540 928 219 541 929 112 542 930 114 543 931 241 543 932 80 544 933 82 545 934 177 545 935 108 546 936 199 547 937 198 548 938 115 549 939 113 549 940 201 549 941 83 550 942 178 551 943 177 552 944 87 553 945 85 554 946 180 554 947 112 555 948 202 556 949 201 557 950 84 558 951 181 558 952 180 558 953 32 26 954 140 150 955 221 216 956 116 132 957 203 559 958 242 261 959 91 560 960 183 560 961 182 561 962 35 27 963 33 90 964 221 216 965 119 134 966 117 133 967 242 261 968 36 29 969 143 153 970 222 217 971 120 135 972 206 562 973 243 264 974 91 563 975 89 564 976 184 565 977 39 30 978 37 91 979 222 217 980 123 137 981 121 136 982 243 264 983 43 32 984 146 156 985 223 218 986 127 138 987 209 566 988 244 267 989 40 33 990 42 92 991 223 218 992 124 140 993 126 139 994 244 267 995 44 35 996 149 159 997 224 219 998 128 141 999 212 567 1000 245 270 1001 47 36 1002 45 93 1003 224 219 1004 131 143 1005 129 142 1006 245 270 1007 51 38 1008 152 162 1009 225 220 1010 135 144 1011 215 568 1012 246 273 1013 48 39 1014 50 94 1015 225 220 1016 132 146 1017 134 145 1018 246 273 1019 55 41 1020 155 165 1021 226 221 1022 32 26 1023 34 28 1024 141 151 1025 139 147 1026 218 569 1027 247 276 1028 52 42 1029 54 95 1030 226 221 1031 136 149 1032 138 148 1033 247 276 1034 56 570 1035 158 571 1036 227 572 1037 35 27 1038 142 152 1039 141 151 1040 59 573 1041 57 573 1042 227 573 1043 36 29 1044 38 31 1045 144 154 1046 63 574 1047 161 574 1048 228 574 1049 249 575 1050 251 576 1051 248 577 1052 256 578 1053 255 579 1054 259 580 1055 253 581 1056 256 578 1057 257 582 1058 254 583 1059 257 582 1060 258 584 1061 259 580 1062 254 583 1063 258 584 1064 249 575 1065 258 584 1066 252 585 1067 258 584 1068 251 576 1069 252 585 1070 257 582 1071 248 577 1072 251 576 1073 248 577 1074 259 580 1075 249 575 1076 261 586 1077 263 587 1078 260 588 1079 268 589 1080 267 590 1081 271 591 1082 265 592 1083 268 589 1084 269 593 1085 266 594 1086 269 593 1087 270 595 1088 271 591 1089 266 594 1090 270 595 1091 261 586 1092 270 595 1093 264 596 1094 270 595 1095 263 587 1096 264 596 1097 269 593 1098 260 588 1099 263 587 1100 260 588 1101 271 591 1102 261 586 1103 276 597 1104 272 598 1105 273 599 1106 280 600 1107 279 601 1108 283 602 1109 277 603 1110 280 600 1111 281 604 1112 278 605 1113 281 604 1114 282 606 1115 283 602 1116 278 605 1117 282 606 1118 273 599 1119 282 606 1120 276 597 1121 282 606 1122 275 607 1123 276 597 1124 281 604 1125 272 598 1126 275 607 1127 272 598 1128 283 602 1129 273 599 1130 249 575 1131 252 585 1132 251 576 1133 256 578 1134 250 608 1135 255 579 1136 253 581 1137 250 609 1138 256 578 1139 254 583 1140 253 581 1141 257 582 1142 259 580 1143 255 579 1144 254 583 1145 249 575 1146 259 580 1147 258 584 1148 258 584 1149 257 582 1150 251 576 1151 257 582 1152 256 578 1153 248 577 1154 248 577 1155 256 578 1156 259 580 1157 261 586 1158 264 596 1159 263 587 1160 268 589 1161 262 610 1162 267 590 1163 265 592 1164 262 611 1165 268 589 1166 266 594 1167 265 592 1168 269 593 1169 271 591 1170 267 590 1171 266 594 1172 261 586 1173 271 591 1174 270 595 1175 270 595 1176 269 593 1177 263 587 1178 269 593 1179 268 589 1180 260 588 1181 260 588 1182 268 589 1183 271 591 1184 276 597 1185 275 607 1186 272 598 1187 280 600 1188 274 612 1189 279 601 1190 277 603 1191 274 613 1192 280 600 1193 278 605 1194 277 603 1195 281 604 1196 283 602 1197 279 601 1198 278 605 1199 273 599 1200 283 602 1201 282 606 1202 282 606 1203 281 604 1204 275 607 1205 281 604 1206 280 600 1207 272 598 1208 272 598 1209 280 600 1210 283 602 1211 262 614 1212 287 615 1213 268 616 1214 256 617 1215 284 618 1216 286 619 1217 274 620 1218 288 621 1219 280 622 1220 256 617 1221 250 623 1222 284 618 1223 274 620 1224 285 624 1225 288 621 1226 300 625 1227 291 625 1228 297 625 1229 292 626 1230 295 626 1231 291 626 1232 304 627 1233 293 627 1234 301 627 1235 292 628 1236 303 628 1237 296 628 1238 298 629 1239 293 629 1240 289 629 1241 304 630 1242 290 630 1243 294 630 1244 303 631 1245 299 631 1246 304 631 1247 291 632 1248 302 632 1249 297 632 1250 297 633 1251 301 633 1252 298 633 1253 295 634 1254 303 634 1255 302 634 1256 303 635 1257 301 635 1258 302 635 1259 289 636 1260 299 636 1261 298 636 1262 298 636 1263 300 636 1264 297 636 1265 11 637 1266 3 637 1267 2 637 1268 3 638 1269 7 638 1270 6 638 1271 15 639 1272 5 639 1273 4 639 1274 3 640 1275 11 640 1276 14 640 1277 9 641 1278 12 641 1279 4 641 1280 10 642 1281 1 642 1282 5 642 1283 11 643 1284 10 643 1285 15 643 1286 2 644 1287 6 644 1288 13 644 1289 8 645 1290 13 645 1291 12 645 1292 6 646 1293 7 646 1294 14 646 1295 14 647 1296 15 647 1297 12 647 1298 0 648 1299 1 648 1300 10 648 1301 9 649 1302 10 649 1303 11 649 1304 18 650 1305 19 650 1306 27 650 1307 22 651 1308 23 651 1309 19 651 1310 20 652 1311 21 652 1312 31 652 1313 30 653 1314 27 653 1315 19 653 1316 25 654 1317 16 654 1318 20 654 1319 21 655 1320 17 655 1321 26 655 1322 31 656 1323 26 656 1324 27 656 1325 18 657 1326 24 657 1327 29 657 1328 24 658 1329 25 658 1330 28 658 1331 22 652 1332 29 652 1333 30 652 1334 28 659 1335 31 659 1336 30 659 1337 16 660 1338 25 660 1339 26 660 1340 25 661 1341 24 661 1342 27 661 1343 300 636 1344 292 636 1345 291 636 1346 292 662 1347 296 662 1348 295 662 1349 304 634 1350 294 634 1351 293 634 1352 292 628 1353 300 628 1354 303 628 1355 298 663 1356 301 663 1357 293 663 1358 304 630 1359 299 630 1360 290 630 1361 303 664 1362 300 664 1363 299 664 1364 291 665 1365 295 665 1366 302 665 1367 297 666 1368 302 666 1369 301 666 1370 295 635 1371 296 635 1372 303 635 1373 303 634 1374 304 634 1375 301 634 1376 289 667 1377 290 667 1378 299 667 1379 298 668 1380 299 668 1381 300 668 1382</p>
        </triangles>
      </mesh>
    </geometry>
  </library_geometries>
  <library_visual_scenes>
    <visual_scene id="Scene" name="Scene">
      <node id="Cube_002" name="Cube.002" type="NODE">
        <matrix sid="transform">1 0 0 0 0 1 0 0 0 0 1 0 0 0 0 1</matrix>
        <instance_geometry url="#Cube_004-mesh" name="Cube.002">
          <bind_material>
            <technique_common>
              <instance_material symbol="coronas_viejas_zapo-material" target="#coronas_viejas_zapo-material">
                <bind_vertex_input semantic="UVMap" input_semantic="TEXCOORD" input_set="0"/>
              </instance_material>
            </technique_common>
          </bind_material>
        </instance_geometry>
      </node>
    </visual_scene>
  </library_visual_scenes>
  <scene>
    <instance_visual_scene url="#Scene"/>
  </scene>
</COLLADA>