<?xml version="1.0" encoding="utf-8"?>
<COLLADA xmlns="http://www.collada.org/2005/11/COLLADASchema" version="1.4.1" xmlns:xsi="http://www.w3.org/2001/XMLSchema-instance">
  <asset>
    <contributor>
      <author>Blender User</author>
      <authoring_tool>Blender 4.3.1 commit date:2024-12-10, commit time:07:46, hash:33d812126174</authoring_tool>
    </contributor>
    <created>2026-09-13T12:07:46</created>
    <modified>2026-09-13T12:07:46</modified>
    <unit name="meter" meter="1"/>
    <up_axis>Z_UP</up_axis>
  </asset>
  <library_effects>
    <effect id="coronas_viejas_zapo-effect">
      <profile_COMMON>
        <newparam sid="_526619962_X-texturacoronaviejazapo_png_0e27c27199050212e2815a1-surface">
          <surface type="2D">
            <init_from>_526619962_X-texturacoronaviejazapo_png_0e27c27199050212e2815a1</init_from>
          </surface>
        </newparam>
        <newparam sid="_526619962_X-texturacoronaviejazapo_png_0e27c27199050212e2815a1-sampler">
          <sampler2D>
            <source>_526619962_X-texturacoronaviejazapo_png_0e27c27199050212e2815a1-surface</source>
          </sampler2D>
        </newparam>
        <technique sid="common">
          <lambert>
            <emission>
              <color sid="emission">0 0 0 1</color>
            </emission>
            <diffuse>
              <texture texture="_526619962_X-texturacoronaviejazapo_png_0e27c27199050212e2815a1-sampler" texcoord="rome_helmet_b-Geometry_008-mesh-map-0"/>
            </diffuse>
            <index_of_refraction>
              <float sid="ior">1.45</float>
            </index_of_refraction>
          </lambert>
        </technique>
      </profile_COMMON>
    </effect>
  </library_effects>
  <library_images>
    <image id="_526619962_X-texturacoronaviejazapo_png_0e27c27199050212e2815a1" name="_526619962_X-texturacoronaviejazapo_png_0e27c27199050212e2815a1">
      <init_from>/home/welton/Downloads/1526619962_X-texturacoronaviejazapo.png.0e27c27199050212e2815a19543a44f0.png</init_from>
    </image>
  </library_images>
  <library_materials>
    <material id="coronas_viejas_zapo-material" name="coronas viejas zapo">
      <instance_effect url="#coronas_viejas_zapo-effect"/>
    </material>
  </library_materials>
  <library_geometries>
    <geometry id="rome_helmet_b-Geometry_081-mesh" name="rome_helmet_b-Geometry.081">
      <mesh>
        <source id="rome_helmet_b-Geometry_081-mesh-positions">
          <float_array id="rome_helmet_b-Geometry_081-mesh-positions-array" count="384">-0.1565834 0.4787688 0.3997179 -0.223797 0.2642346 0.4093162 -0.1292297 0.4710262 0.5749103 -0.1611536 0.4654221 0.4044833 0.1499955 0.4717408 0.4040554 0.1555432 0.4587181 0.4086208 0.226387 0.2547104 0.4151956 0.1287344 0.463998 0.5792488 0.1898981 0.2469673 0.5903887 0.1231741 0.4513323 0.5757344 0.1815333 0.2443108 0.5863603 0.1588993 0.07641994 0.5980908 0.1519664 0.08162873 0.5937072 0.007236063 -0.01855742 0.6004713 0.007297754 -0.008968293 0.5959782 -0.140384 0.08898097 0.5891663 -0.1475858 0.0841276 0.5933309 -0.1751655 0.2533962 0.5807526 -0.1840463 0.2564919 0.584509 -0.1228933 0.4580361 0.5715965 -0.1775607 0.0918703 0.4181373 -0.2136101 0.2607818 0.413639 -0.1695061 0.09636664 0.4220532 0.006438016 -0.01081466 0.4252783 0.006006777 -0.001582622 0.428865 0.1779392 0.08901464 0.4265939 0.186683 0.08416283 0.4228975 0.215812 0.2516967 0.4192473 -0.178891 0.50203 0.1552358 -0.2539648 0.2377197 0.1714215 -0.1004124 0.4215804 0.6960977 0.1636877 0.4933713 0.1625503 0.2490817 0.2259853 0.1813357 0.103099 0.4155486 0.701193 0.1532716 0.2292869 0.7142793 2.80857e-4 0.4054611 0.6948458 -0.1455668 0.2374608 0.7073729 -0.1148744 0.08953297 0.7177343 0.007266521 0.001405656 0.726123 0.1269155 0.08291816 0.7233262 0.003305315 -0.1011468 0.1983379 0.2047154 0.01586741 0.1943233 -0.2022994 0.0253635 0.186296 -0.2782344 0.037503 0.6310732 -0.2039461 0.03648924 0.7011714 -0.2059562 -0.1107541 0.6392073 -0.2782344 0.037503 0.3823031 -0.3067993 -0.10974 0.5137389 -0.2071763 -0.2001367 0.4823364 -0.2802441 -0.10974 0.382303 -0.2814644 -0.1991224 0.4122365 -0.2814644 -0.1991226 0.3823031 -0.2819671 -0.235962 0.4122363 -0.207679 -0.2369759 0.4823365 -0.2819671 -0.235962 0.3823031 -0.1330974 -0.2379941 0.2464569 0.1609274 0.03150844 0.2509666 -0.1293645 0.03547102 0.2464569 0.157194 -0.2419567 0.2509662 0.307787 -0.1177669 0.3914402 0.3065667 -0.2071498 0.3914402 0.306064 -0.2439891 0.3914402 0.2317755 -0.2429746 0.4891669 0.306064 -0.2439889 0.421378 0.3065667 -0.2071496 0.4213777 0.2322784 -0.2061356 0.489167 0.01377153 -0.1137535 0.5707905 0.3343419 -0.117767 0.5228763 0.2334987 -0.1167532 0.646034 0.3097965 0.02947622 0.6402108 0.2355086 0.03049039 0.7079998 0.3097965 0.02947616 0.3914402 -0.1985371 -0.09928911 0.2994156 0.2193152 -0.09480464 0.3018792 -0.1929449 -0.2109541 0.2994154 -0.2018417 -0.1473769 0.3834856 -0.1962492 -0.2590423 0.3834857 -0.1198353 -0.2329267 0.6038604 0.2160114 -0.1428933 0.3859491 0.2249078 -0.2064701 0.3018793 0.2216033 -0.2545587 0.3859489 0.1323467 -0.2374498 0.6063225 0.1767414 -0.347005 0.4532749 0.1055585 -0.3508747 0.6273369 -0.08367133 -0.3429296 0.6248748 -0.1212857 -0.3449746 0.4508104 -0.07535797 -0.4958454 0.6248747 -0.1445707 -0.3462405 0.4508103 0.1390147 -0.349056 0.4532749 -0.1099827 -0.4977279 0.4508106 0.1645781 -0.5010341 0.4532749 -0.1485659 -0.4998255 0.4508106 -0.04766356 -0.6169281 0.4030927 0.1397185 -0.572619 0.3879685 0.1771239 -0.500352 0.4532749 -0.09760123 -0.5707082 0.3926289 -0.09578567 -0.6195442 0.3576726 -0.09760123 -0.5707083 0.347211 0.1397185 -0.5726191 0.3425483 0.1415339 -0.621455 0.3530104 0.09565919 -0.623949 0.3984305 0.1138718 -0.5037907 0.6273368 -3.1317e-4 0.61447 -0.5273796 -0.01391261 0.5217419 0.6479359 -0.2058411 0.5844419 -0.5239058 0.2177181 0.5585658 -0.5128359 0.1448119 0.4707159 0.6584945 -0.1704483 0.4756361 0.6572945 0.547957 0.5607022 0.5741406 0.2931186 0.4893008 0.7643007 0.3444839 0.5079853 0.5177775 0.455431 0.5587374 0.8867188 0.1808159 0.190841 0.4628545 0.5444454 0.563115 0.3670258 0.3430157 0.5090188 0.4291196 0.28328 0.4960611 0.184001 0.4413773 0.5683944 0.05780231 0.1811412 0.1906173 0.4820473 -0.5351111 0.5388664 0.4037234 -0.2788802 0.4833499 0.210164 -0.3290796 0.4938572 0.4574108 -0.4450466 0.5484521 0.09056764 -0.1511924 0.1830307 0.503531 -0.5300824 0.5364874 0.6108073 -0.3269621 0.4928379 0.5460557 -0.2647907 0.476684 0.7903773 -0.4249207 0.5389308 0.9193603 -0.1516584 0.1832512 0.4843413</float_array>
          <technique_common>
            <accessor source="#rome_helmet_b-Geometry_081-mesh-positions-array" count="128" stride="3">
              <param name="X" type="float"/>
              <param name="Y" type="float"/>
              <param name="Z" type="float"/>
            </accessor>
          </technique_common>
        </source>
        <source id="rome_helmet_b-Geometry_081-mesh-normals">
          <float_array id="rome_helmet_b-Geometry_081-mesh-normals-array" count="384">0.9528965 -0.2950093 0.07041239 -0.7174391 -0.02573221 -0.6961459 -0.5330624 0.8320735 0.1532921 -0.4470254 0.8008232 0.3985608 0.5329498 0.8340883 0.1423417 0.7229055 -0.001306831 -0.6909458 -0.9257336 -0.3147106 0.2097014 0.4724076 0.7947924 0.3809674 0.526888 0.03574872 0.8491826 -0.4139968 -0.07009083 0.9075759 -0.4434821 0.03855645 0.8954536 0.49246 -0.3747781 0.7855092 -0.3626222 0.2684078 0.8924475 0.007467687 -0.6957271 0.7182675 -0.00500673 0.4243175 0.9054997 0.3346599 0.2764269 0.9008834 -0.5021378 -0.3449461 0.7930131 0.4053773 0.05573666 0.9124488 -0.5394005 0.01877999 0.8418399 0.3735424 -0.05401182 0.9260393 -0.5823582 -0.4067652 -0.7038473 0.3857339 -0.01683646 -0.9224566 0.3200966 0.2275246 -0.9196581 0.01099097 -0.692299 -0.7215271 0.02665334 0.3630843 -0.9313751 -0.2793583 0.2103068 -0.9368725 0.593661 -0.4264844 -0.6824058 -0.3485965 -0.03595483 -0.9365831 -0.9804976 0.03696441 0.1930235 -0.4433867 0.6376789 0.6299 -0.5775339 0.7911154 0.2014726 0.5692008 0.8024166 0.1792715 0.9834532 0.06373459 0.1695808 0.4465163 0.6261388 0.6391975 0.6726423 0.07128894 0.7365258 -0.02089858 0.062307 0.9978383 -0.6812771 0.05268865 0.7301271 -0.6052451 -0.345588 0.7171105 -0.008714079 -0.7133093 0.7007952 0.595349 -0.3606637 0.7179704 -0.01757073 -0.9796869 0.1997621 0.804467 -0.5616608 0.193314 -0.8129695 -0.5484921 0.1955435 -0.710642 0.5637974 0.4208568 -0.2354591 -0.6103971 0.75629 -0.2304169 0.4595647 0.8577345 -0.9204656 -0.3107895 0.2369665 -0.6760984 0.6528375 -0.3416051 -0.8751032 -0.001982927 -0.4839324 -0.3576651 -0.4896564 0.7951808 -0.9554142 -0.146021 0.2566354 -0.9148002 0.0124861 -0.4037138 -0.7231753 -0.6180641 0.3082438 -0.2997407 -0.6299539 0.7164591 -0.7215456 -0.6167352 -0.3146581 -0.2828615 -0.6289783 -0.7241379 -0.2656098 0.636456 -0.7241376 0.2997319 0.6299504 -0.716466 0.2824181 -0.6379052 -0.7164614 0.8787704 -0.02592217 -0.4765402 0.9181372 -0.01253241 -0.3960647 0.7060357 -0.6375673 -0.3082556 0.265592 -0.6364563 0.7241439 0.7044493 -0.6361888 0.3146667 0.9488955 -0.1740472 0.2632586 0.3240072 -0.5016138 0.8021242 -0.02012467 -0.690382 0.7231652 0.2037469 -0.6180405 0.7592847 0.9108977 -0.336387 0.2389757 0.7235497 0.5410967 0.4285911 0.2244996 0.4519085 0.8633531 0.6954261 0.635488 -0.3354665 0.5670756 0.02840059 -0.823176 -0.5701556 -0.4162346 -0.7082877 -0.5446311 -0.02727317 -0.8382322 -0.9357233 0.2863929 0.2059156 -0.7745999 -0.6021764 -0.1933356 -0.5733402 0.3971423 0.7166303 0.8852236 0.3604072 0.2940847 0.6477956 -0.3778186 -0.661524 0.8240748 -0.5326042 -0.1929602 0.5148407 0.4389129 0.7364066 0.7837923 -0.5661986 0.2551255 0.5238986 0.06768995 0.8490868 -0.5539718 -0.0172879 0.8323559 -0.297395 -0.4161144 -0.859305 -0.5219731 -0.446461 0.7267852 -0.7969161 -0.1243271 -0.5911578 0.7494194 -0.01275479 -0.6619728 -0.6249961 -0.03532648 0.7798281 -0.01344895 0.2473282 0.9688385 -3.05174e-4 0.005613863 0.9999843 0.9151384 -0.05997335 -0.3986538 -0.2986274 -0.8791448 0.371384 -0.9410578 0.2923485 0.1701259 0.9521942 0.2974073 -0.0698229 -0.6405269 -0.6973079 -0.321694 -0.5812438 0.5137558 -0.6310395 0.552439 0.5215885 -0.6501974 0.6619578 -0.6634485 -0.3487808 0.2790614 -0.9172255 0.2842926 0.4924803 -0.4301823 0.7565754 0.247711 0.9655204 0.08006018 0.04867821 0.995676 0.07911837 0.0147385 0.995346 0.09523344 -0.154649 0.9848837 0.07802575 0.2993868 0.9498894 0.08987617 -0.2759177 0.956339 0.09636014 -0.5239168 0.8472681 -0.0874533 -0.2894011 0.9567812 -0.02858126 -0.6180038 0.7831049 -0.06941342 -0.3319437 0.938767 -0.09235763 -0.8687677 0.4734768 -0.1451295 -0.2878936 0.9557396 0.06065726 -0.520313 0.8447932 0.1248957 -0.614999 0.7810151 0.1085892 -0.3282527 0.9362299 0.1253952 -0.8631371 0.4696559 0.1855204 0.4868084 0.8672519 0.1043642 0.2472469 0.9676743 0.04975408 0.5834828 0.8077552 0.08413898 0.2910403 0.9500396 0.1127845 0.8482116 0.5077856 0.1506356 0.2450864 0.9686975 -0.03947186 0.4816491 0.8696898 -0.107953 0.5791748 0.8097845 -0.09383904 0.2857543 0.9525405 -0.1049343 0.840157 0.5116143 -0.1799641</float_array>
          <technique_common>
            <accessor source="#rome_helmet_b-Geometry_081-mesh-normals-array" count="128" stride="3">
              <param name="X" type="float"/>
              <param name="Y" type="float"/>
              <param name="Z" type="float"/>
            </accessor>
          </technique_common>
        </source>
        <source id="rome_helmet_b-Geometry_081-mesh-map-0">
          <float_array id="rome_helmet_b-Geometry_081-mesh-map-0-array" count="1080">0.8377863 0.8287924 0.7936891 0.8512666 0.8407093 0.8314367 0.8487696 0.933929 0.9040606 0.8912124 0.8527187 0.8855557 0.9009847 0.5526343 0.8484381 0.5172405 0.8496428 0.5522467 0.7936902 0.6856351 0.8377863 0.7122735 0.8407093 0.7092843 0.9190202 0.04706376 0.9200669 0.09529316 0.9734881 0.09027743 0.9190202 0.04706376 0.9734881 0.09027743 0.9724414 0.04204833 0.8378739 0.6421671 0.7936496 0.6689551 0.840639 0.6447921 0.8378739 0.6421671 0.7930516 0.6652157 0.7936496 0.6689551 0.7930516 0.6652157 0.756312 0.654609 0.7936496 0.6689551 0.7930516 0.6652157 0.757436 0.6515312 0.756312 0.654609 0.757436 0.6515312 0.7347896 0.5876278 0.756312 0.654609 0.757436 0.6515312 0.7369062 0.5876391 0.7347896 0.5876278 0.7347896 0.5876278 0.7369062 0.5876391 0.7574355 0.5218964 0.7347896 0.5876278 0.7574355 0.5218964 0.7563114 0.5187065 0.7563114 0.5187065 0.7574355 0.5218964 0.7930505 0.5049945 0.7563114 0.5187065 0.7930505 0.5049945 0.7936484 0.5009875 0.7936484 0.5009875 0.7930505 0.5049945 0.8378739 0.5240047 0.7936484 0.5009875 0.8378739 0.5240047 0.840639 0.5209169 0.8487696 0.933929 0.9001115 0.9395857 0.9040606 0.8912124 0.8527185 0.9711023 0.9040606 0.976759 0.9001115 0.9395857 0.8527185 0.9711023 0.9001115 0.9395857 0.8487696 0.933929 0.7929347 0.8477078 0.7563284 0.8339361 0.7936891 0.8512666 0.7929347 0.8477078 0.757297 0.8311765 0.7563284 0.8339361 0.757297 0.8311765 0.734793 0.7660554 0.7563284 0.8339361 0.9025597 0.6354858 0.8486281 0.5699835 0.8491651 0.6389559 0.9025597 0.6354858 0.9020226 0.5665134 0.8486281 0.5699835 0.757297 0.8311765 0.7367548 0.7664264 0.734793 0.7660554 0.734793 0.7660554 0.7367548 0.7664264 0.7572976 0.7033448 0.734793 0.7660554 0.7572976 0.7033448 0.756329 0.6999239 0.8491652 0.5030292 0.8486281 0.5699835 0.9020226 0.5665134 0.8491652 0.5030292 0.9020226 0.5665134 0.9025597 0.499559 0.756329 0.6999239 0.7572976 0.7033448 0.7929357 0.689715 0.756329 0.6999239 0.7929357 0.689715 0.7936902 0.6856351 0.9200669 0.009553492 0.9724414 0.04204833 0.9734881 0.004537761 0.9200669 0.009553492 0.9190202 0.04706376 0.9724414 0.04204833 0.7936902 0.6856351 0.7929357 0.689715 0.8377863 0.7122735 0.8377863 0.8287924 0.7929347 0.8477078 0.7936891 0.8512666 0.8101668 0.3246118 0.852498 0.3710081 0.854083 0.3219225 0.852498 0.3710081 0.8526443 0.3231378 0.854083 0.3219225 0.8082171 0.3262591 0.8526443 0.3231378 0.8510593 0.3722234 0.8082171 0.3262591 0.8510593 0.3722234 0.8066321 0.3753448 0.8485107 0.3645201 0.8365436 0.4089474 0.8120193 0.4065413 0.788002 0.410386 0.7772317 0.3664699 0.8120193 0.4065413 0.7772317 0.3664699 0.7845525 0.331186 0.8120193 0.4065413 0.7845525 0.331186 0.8136855 0.3101659 0.8120193 0.4065413 0.8136855 0.3101659 0.8422242 0.3296083 0.8120193 0.4065413 0.8422242 0.3296083 0.8485107 0.3645201 0.8120193 0.4065413 0.8293337 0.3775026 0.8007949 0.3781698 0.8025272 0.3290841 0.8293337 0.3775026 0.8025272 0.3290841 0.831066 0.3284171 0.7733052 0.3284171 0.8066321 0.3753448 0.7717202 0.3775026 0.7733052 0.3284171 0.8082171 0.3262591 0.8066321 0.3753448 0.7733942 0.3270833 0.8025272 0.3290841 0.8007949 0.3781698 0.774883 0.3270833 0.773298 0.376169 0.8085817 0.3736975 0.774883 0.3270833 0.8085817 0.3736975 0.8101668 0.3246118 0.7733942 0.3270833 0.8007949 0.3781698 0.7716617 0.376169 0.8101668 0.3246118 0.8085817 0.3736975 0.852498 0.3710081 0.9722321 0.9170169 0.9429071 0.9163184 0.9718117 0.9040716 0.9722321 0.9170169 0.9434066 0.9399088 0.9429071 0.9163184 0.9722321 0.9664058 0.9434066 0.9399088 0.9722321 0.9170169 0.9722321 0.9664058 0.9433275 0.9663503 0.9434066 0.9399088 0.931768 0.4989634 0.9378038 0.5196042 0.9074506 0.5193718 0.931768 0.4989634 0.9513361 0.5046318 0.9378038 0.5196042 0.9433275 0.9663503 0.9257813 0.9603731 0.9434066 0.9399088 0.9433275 0.9663503 0.9257813 0.9663167 0.9257813 0.9603731 0.9257813 0.9663167 0.9185495 0.9603592 0.9257813 0.9603731 0.9253609 0.9474277 0.9257813 0.9603731 0.9185495 0.9603592 0.9253609 0.9474277 0.9185495 0.9603592 0.9181292 0.9474138 0.9177505 0.7931432 0.9312828 0.7781709 0.9371591 0.7780842 0.9257813 0.9663167 0.9185495 0.9663028 0.9185495 0.9603592 0.6565345 0.9595404 0.6571187 0.9893789 0.6498857 0.9893789 0.9642772 0.8072873 0.9177505 0.7931432 0.9371591 0.7780842 0.6565345 0.9595404 0.6498857 0.9893789 0.6323366 0.989379 0.6028428 0.9595404 0.6565345 0.9595404 0.6323366 0.989379 0.6028725 0.9017872 0.6565345 0.9595404 0.6028428 0.9595404 0.6028725 0.9017872 0.6565642 0.9017872 0.6565345 0.9595404 0.9642772 0.8072873 0.9642772 0.8650134 0.9177505 0.7931432 0.6914525 0.9499887 0.7089836 0.9499887 0.7173749 0.9833093 0.6914525 0.9499887 0.7173749 0.9833093 0.6637384 0.9833092 0.7089836 0.9499887 0.7162091 0.9499887 0.7173749 0.9833093 0.9642772 0.8650134 0.937159 0.8950172 0.9177504 0.8805311 0.9177504 0.8805311 0.9177505 0.7931432 0.9642772 0.8650134 0.937159 0.8950172 0.9312828 0.8951039 0.9177504 0.8805311 0.4090529 0.7409435 0.4013727 0.7576436 0.4018237 0.7409322 0.4090529 0.7409435 0.4086019 0.7576549 0.4013727 0.7576436 0.4090529 0.843806 0.4013727 0.7576436 0.4086019 0.7576549 0.4090529 0.843806 0.4018237 0.8437947 0.4013727 0.7576436 0.9215495 0.5628576 0.9378038 0.5196042 0.9378037 0.606992 0.9378037 0.606992 0.9074506 0.6067597 0.9215495 0.5628576 0.9319335 0.6264477 0.9378037 0.606992 0.9513361 0.6215648 0.9319335 0.6264477 0.9074506 0.6067597 0.9378037 0.606992 0.8333729 0.8740553 0.8045014 0.8887911 0.8054228 0.8651372 0.8333729 0.8740553 0.8329219 0.8907666 0.8045014 0.8887911 0.8045014 0.8887911 0.8329219 0.8907666 0.8052762 0.9296289 0.8329219 0.8907666 0.8333729 0.9769177 0.8052762 0.9296289 0.6625726 0.9499887 0.6630667 0.9014982 0.6913847 0.9233097 0.6625726 0.9499887 0.6913847 0.9233097 0.6914525 0.9499887 0.6637384 0.9833092 0.6625726 0.9499887 0.6914525 0.9499887 0.6914525 0.9499887 0.6913847 0.9233097 0.709043 0.9441532 0.8333729 0.9769177 0.8049523 0.9749422 0.8052762 0.9296289 0.9215495 0.5628576 0.9074506 0.5193718 0.9378038 0.5196042 0.6914525 0.9499887 0.709043 0.9441532 0.7089836 0.9499887 0.709043 0.9441532 0.7162091 0.9499887 0.7089836 0.9499887 0.709043 0.9441532 0.7162685 0.9441533 0.7162091 0.9499887 0.6034269 0.9893789 0.6028428 0.9595404 0.6323366 0.989379 0.005360305 0.8609934 0.08955341 0.8606632 0.07645857 0.790058 0.9446774 0.3482732 0.9380573 0.3467907 0.9380649 0.3485616 0.9444469 0.3412845 0.9454602 0.3426161 0.9462178 0.3412845 0.9444469 0.3412845 0.9436892 0.3426161 0.9454602 0.3426161 0.9436892 0.3426161 0.9440366 0.3461066 0.9454602 0.3426161 0.9445838 0.3426551 0.9379712 0.3426161 0.9391947 0.3461066 0.9441586 0.3413235 0.9451717 0.3426551 0.9434009 0.3426551 0.9441586 0.3413235 0.9459294 0.3413235 0.9451717 0.3426551 0.9434009 0.3426551 0.9451717 0.3426551 0.9437482 0.3461456 0.9445838 0.3426551 0.9391947 0.3461066 0.9431793 0.3461456 0.9434009 0.3426551 0.9437482 0.3461456 0.9419774 0.3437215 0.9419774 0.3437215 0.9437482 0.3461456 0.9419774 0.3464784 0.9431793 0.346092 0.9391947 0.3463804 0.9396721 0.3446095 0.9431793 0.346092 0.9396721 0.3446095 0.9426581 0.3443211 0.9422658 0.3436825 0.9422658 0.3464394 0.9440366 0.3461066 0.9396721 0.3421839 0.9426581 0.3443211 0.9396721 0.3446095 0.9398401 0.3464394 0.9422658 0.3464394 0.9422658 0.3436825 0.9390755 0.3446095 0.9431887 0.3443211 0.938706 0.3446095 0.9391228 0.3421839 0.938706 0.3446095 0.9390755 0.3446095 0.9398401 0.3464394 0.9422658 0.3436825 0.9398401 0.3436825 0.9434624 0.3418955 0.9391228 0.3421839 0.9385108 0.3421839 0.9434624 0.3418955 0.9436613 0.3418955 0.9391228 0.3421839 0.9391228 0.3421839 0.9390755 0.3446095 0.9385108 0.3421839 0.9398401 0.3436825 0.9379013 0.3429266 0.9398401 0.3464394 0.9398401 0.3436825 0.9386753 0.3427609 0.9379013 0.3429266 0.9430076 0.3407847 0.9391228 0.3421839 0.9436613 0.3418955 0.9430076 0.3407847 0.939256 0.341019 0.9391228 0.3421839 0.939256 0.341019 0.9392426 0.3402451 0.9400059 0.3402451 0.9386753 0.3427609 0.9386753 0.3420415 0.9379013 0.3422073 0.9430076 0.3426871 0.939256 0.3420415 0.939256 0.3427609 0.9430076 0.3407847 0.9392426 0.3402451 0.939256 0.341019 0.9430076 0.3426871 0.9430076 0.3419677 0.939256 0.3420415 0.9430076 0.3407847 0.9429944 0.3400108 0.9392426 0.3402451 0.937667 0.3421334 0.9384409 0.3419677 0.9384409 0.3426871 0.9429944 0.3400108 0.9430076 0.3407847 0.9422667 0.3400108 0.9392426 0.3422073 0.9429944 0.3421334 0.9422667 0.3428528 0.937667 0.3428528 0.9395517 0.3437215 0.9395517 0.3464784 0.9400059 0.3429266 0.9422667 0.3428528 0.9426581 0.3464784 0.937667 0.3428528 0.9384409 0.3426871 0.9395517 0.3437215 0.9392426 0.3422073 0.9422667 0.3428528 0.9400059 0.3429266 0.9419774 0.3464784 0.9395517 0.3464784 0.9395517 0.3437215 0.9400059 0.3429266 0.9426581 0.3464784 0.9396721 0.3464394 0.9396721 0.3421839 0.9426581 0.3418955 0.9426581 0.3443211 0.9419774 0.3464784 0.9395517 0.3437215 0.9419774 0.3437215 0.9437871 0.3443211 0.9431887 0.3443211 0.9436613 0.3418955 0.9437871 0.3443211 0.9436613 0.3418955 0.9434624 0.3418955 0.9390755 0.3446095 0.9437871 0.3443211 0.9431887 0.3443211 0.9436892 0.3426161 0.9422658 0.3436825 0.9440366 0.3461066 0.9445762 0.3457447 0.9390755 0.3446095 0.9379637 0.346033 0.9445762 0.3457447 0.9437871 0.3443211 0.9390755 0.3446095 0.9380573 0.3412845 0.9446697 0.3413235 0.9445762 0.3426551 0.9380573 0.3412845 0.9445762 0.3426551 0.9379637 0.3426161 0.9446774 0.3482732 0.9446697 0.3465024 0.9380573 0.3467907 0.6116085 0.01117777 0.6722698 0.01066619 0.6859262 0.221951 0.6722698 0.01066619 0.7290309 0.01216506 0.6859262 0.221951 0.6116085 0.01117777 0.6859262 0.221951 0.6417214 0.2221788 0.7290309 0.01216506 0.7290309 0.22399 0.6859262 0.221951 0.4053815 0.1032556 0.2900611 0.2513573 0.2542489 0.1700804 0.4053815 0.1032556 0.3833496 0.2066082 0.2900611 0.2513573 0.3617402 0.03749603 0.4053815 0.1032556 0.2542489 0.1700804 0.2900611 0.2513573 0.4053815 0.1032556 0.2542489 0.1700804 0.2900611 0.2513573 0.3833496 0.2066082 0.4053815 0.1032556 0.2542489 0.1700804 0.4053815 0.1032556 0.3617402 0.03749603 0.4053815 0.1032556 0.2900611 0.2513573 0.2542489 0.1700804 0.4053815 0.1032556 0.3833496 0.2066082 0.2900611 0.2513573 0.3617402 0.03749603 0.4053815 0.1032556 0.2542489 0.1700804 0.2900611 0.2513573 0.4053815 0.1032556 0.2542489 0.1700804 0.2900611 0.2513573 0.3833496 0.2066082 0.4053815 0.1032556 0.2542489 0.1700804 0.4053815 0.1032556 0.3617402 0.03749603 0.9009847 0.5526343 0.9018593 0.5168969 0.8484381 0.5172405 0.852498 0.3710081 0.8510593 0.3722234 0.8526443 0.3231378 0.08955341 0.8606632 0.08955341 0.8138614 0.07645857 0.790058 0.07645857 0.790058 0.06268393 0.7792205 0.00536704 0.8062654 0.06268393 0.7792205 0.02641105 0.7801126 0.01311486 0.7904186 0.00536704 0.8062654 0.06268393 0.7792205 0.01311486 0.7904186 0.00536704 0.8062654 0.005360305 0.8609934 0.07645857 0.790058</float_array>
          <technique_common>
            <accessor source="#rome_helmet_b-Geometry_081-mesh-map-0-array" count="540" stride="2">
              <param name="S" type="float"/>
              <param name="T" type="float"/>
            </accessor>
          </technique_common>
        </source>
        <source id="rome_helmet_b-Geometry_081-mesh-map-1">
          <float_array id="rome_helmet_b-Geometry_081-mesh-map-1-array" count="1080">0 0 0 0 0 0 0 0 0 0 0 0 0 0 0 0 0 0 0 0 0 0 0 0 0 0 0 0 0 0 0 0 0 0 0 0 0 0 0 0 0 0 0 0 0 0 0 0 0 0 0 0 0 0 0 0 0 0 0 0 0 0 0 0 0 0 0 0 0 0 0 0 0 0 0 0 0 0 0 0 0 0 0 0 0 0 0 0 0 0 0 0 0 0 0 0 0 0 0 0 0 0 0 0 0 0 0 0 0 0 0 0 0 0 0 0 0 0 0 0 0 0 0 0 0 0 0 0 0 0 0 0 0 0 0 0 0 0 0 0 0 0 0 0 0 0 0 0 0 0 0 0 0 0 0 0 0 0 0 0 0 0 0 0 0 0 0 0 0 0 0 0 0 0 0 0 0 0 0 0 0 0 0 0 0 0 0 0 0 0 0 0 0 0 0 0 0 0 0 0 0 0 0 0 0 0 0 0 0 0 0 0 0 0 0 0 0 0 0 0 0 0 0 0 0 0 0 0 0 0 0 0 0 0 0 0 0 0 0 0 0 0 0 0 0 0 0 0 0 0 0 0 0 0 0 0 0 0 0 0 0 0 0 0 0 0 0 0 0 0 0 0 0 0 0 0 0 0 0 0 0 0 0 0 0 0 0 0 0 0 0 0 0 0 0 0 0 0 0 0 0 0 0 0 0 0 0 0 0 0 0 0 0 0 0 0 0 0 0 0 0 0 0 0 0 0 0 0 0 0 0 0 0 0 0 0 0 0 0 0 0 0 0 0 0 0 0 0 0 0 0 0 0 0 0 0 0 0 0 0 0 0 0 0 0 0 0 0 0 0 0 0 0 0 0 0 0 0 0 0 0 0 0 0 0 0 0 0 0 0 0 0 0 0 0 0 0 0 0 0 0 0 0 0 0 0 0 0 0 0 0 0 0 0 0 0 0 0 0 0 0 0 0 0 0 0 0 0 0 0 0 0 0 0 0 0 0 0 0 0 0 0 0 0 0 0 0 0 0 0 0 0 0 0 0 0 0 0 0 0 0 0 0 0 0 0 0 0 0 0 0 0 0 0 0 0 0 0 0 0 0 0 0 0 0 0 0 0 0 0 0 0 0 0 0 0 0 0 0 0 0 0 0 0 0 0 0 0 0 0 0 0 0 0 0 0 0 0 0 0 0 0 0 0 0 0 0 0 0 0 0 0 0 0 0 0 0 0 0 0 0 0 0 0 0 0 0 0 0 0 0 0 0 0 0 0 0 0 0 0 0 0 0 0 0 0 0 0 0 0 0 0 0 0 0 0 0 0 0 0 0 0 0 0 0 0 0 0 0 0 0 0 0 0 0 0 0 0 0 0 0 0 0 0 0 0 0 0 0 0 0 0 0 0 0 0 0 0 0 0 0 0 0 0 0 0 0 0 0 0 0 0 0 0 0 0 0 0 0 0 0 0 0 0 0 0 0 0 0 0 0 0 0 0 0 0 0 0 0 0 0 0 0 0 0 0 0 0 0 0 0 0 0 0 0 0 0 0 0 0 0 0 0 0 0 0 0 0 0 0 0 0 0 0 0 0 0 0 0 0 0 0 0 0 0 0 0 0 0 0 0 0 0 0 0 0 0 0 0 0 0 0 0 0 0 0 0 0 0 0 0 0 0 0 0 0 0 0 0 0 0 0 0 0 0 0 0 0 0 0 0 0 0 0 0 0 0 0 0 0 0 0 0 0 0 0 0 0 0 0 0 0 0 0 0 0 0 0 0 0 0 0 0 0 0 0 0 0 0 0 0 0 0 0 0 0 0 0 0 0 0 0 0 0 0 0 0 0 0 0 0 0 0 0 0 0 0 0 0 0 0 0 0 0 0 0 0 0 0 0 0 0 0 0 0 0 0 0 0 0 0 0 0 0 0 0 0 0 0 0 0 0 0 0 0 0 0 0 0 0 0 0 0 0 0 0 0 0 0 0 0 0 0 0 0 0 0 0 0 0 0 0 0 0 0 0 0 0 0 0 0 0 0 0 0 0 0 0 0 0 0 0 0 0 0 0 0 0 0 0 0 0 0 0 0 0 0 0 0 0 0 0 0 0 0 0 0 0 0 0 0 0 0 0 0 0 0 0 0 0 0 0 0 0 0 0 0 0 0 0 0 0 0 0 0 0 0 0 0 0 0 0 0 0 0 0 0 0 0 0 0 0 0 0 0 0 0 0 0 0 0 0 0 0 0 0 0 0 0 0 0 0 0 0 0 0 0 0 0 0 0 0 0 0 0 0 0 0 0 0 0 0 0 0 0 0 0 0 0 0 0 0 0 0 0 0 0 0 0 0 0 0 0 0 0 0 0 0 0 0 0 0 0 0 0 0 0 0 0 0 0 0 0 0 0 0 0 0 0 0 0 0 0 0 0 0 0 0 0 0 0 0 0 0 0 0 0 0 0 0</float_array>
          <technique_common>
            <accessor source="#rome_helmet_b-Geometry_081-mesh-map-1-array" count="540" stride="2">
              <param name="S" type="float"/>
              <param name="T" type="float"/>
            </accessor>
          </technique_common>
        </source>
        <source id="rome_helmet_b-Geometry_081-mesh-map-2">
          <float_array id="rome_helmet_b-Geometry_081-mesh-map-2-array" count="1080">0 0 0 0 0 0 0 0 0 0 0 0 0 0 0 0 0 0 0 0 0 0 0 0 0 0 0 0 0 0 0 0 0 0 0 0 0 0 0 0 0 0 0 0 0 0 0 0 0 0 0 0 0 0 0 0 0 0 0 0 0 0 0 0 0 0 0 0 0 0 0 0 0 0 0 0 0 0 0 0 0 0 0 0 0 0 0 0 0 0 0 0 0 0 0 0 0 0 0 0 0 0 0 0 0 0 0 0 0 0 0 0 0 0 0 0 0 0 0 0 0 0 0 0 0 0 0 0 0 0 0 0 0 0 0 0 0 0 0 0 0 0 0 0 0 0 0 0 0 0 0 0 0 0 0 0 0 0 0 0 0 0 0 0 0 0 0 0 0 0 0 0 0 0 0 0 0 0 0 0 0 0 0 0 0 0 0 0 0 0 0 0 0 0 0 0 0 0 0 0 0 0 0 0 0 0 0 0 0 0 0 0 0 0 0 0 0 0 0 0 0 0 0 0 0 0 0 0 0 0 0 0 0 0 0 0 0 0 0 0 0 0 0 0 0 0 0 0 0 0 0 0 0 0 0 0 0 0 0 0 0 0 0 0 0 0 0 0 0 0 0 0 0 0 0 0 0 0 0 0 0 0 0 0 0 0 0 0 0 0 0 0 0 0 0 0 0 0 0 0 0 0 0 0 0 0 0 0 0 0 0 0 0 0 0 0 0 0 0 0 0 0 0 0 0 0 0 0 0 0 0 0 0 0 0 0 0 0 0 0 0 0 0 0 0 0 0 0 0 0 0 0 0 0 0 0 0 0 0 0 0 0 0 0 0 0 0 0 0 0 0 0 0 0 0 0 0 0 0 0 0 0 0 0 0 0 0 0 0 0 0 0 0 0 0 0 0 0 0 0 0 0 0 0 0 0 0 0 0 0 0 0 0 0 0 0 0 0 0 0 0 0 0 0 0 0 0 0 0 0 0 0 0 0 0 0 0 0 0 0 0 0 0 0 0 0 0 0 0 0 0 0 0 0 0 0 0 0 0 0 0 0 0 0 0 0 0 0 0 0 0 0 0 0 0 0 0 0 0 0 0 0 0 0 0 0 0 0 0 0 0 0 0 0 0 0 0 0 0 0 0 0 0 0 0 0 0 0 0 0 0 0 0 0 0 0 0 0 0 0 0 0 0 0 0 0 0 0 0 0 0 0 0 0 0 0 0 0 0 0 0 0 0 0 0 0 0 0 0 0 0 0 0 0 0 0 0 0 0 0 0 0 0 0 0 0 0 0 0 0 0 0 0 0 0 0 0 0 0 0 0 0 0 0 0 0 0 0 0 0 0 0 0 0 0 0 0 0 0 0 0 0 0 0 0 0 0 0 0 0 0 0 0 0 0 0 0 0 0 0 0 0 0 0 0 0 0 0 0 0 0 0 0 0 0 0 0 0 0 0 0 0 0 0 0 0 0 0 0 0 0 0 0 0 0 0 0 0 0 0 0 0 0 0 0 0 0 0 0 0 0 0 0 0 0 0 0 0 0 0 0 0 0 0 0 0 0 0 0 0 0 0 0 0 0 0 0 0 0 0 0 0 0 0 0 0 0 0 0 0 0 0 0 0 0 0 0 0 0 0 0 0 0 0 0 0 0 0 0 0 0 0 0 0 0 0 0 0 0 0 0 0 0 0 0 0 0 0 0 0 0 0 0 0 0 0 0 0 0 0 0 0 0 0 0 0 0 0 0 0 0 0 0 0 0 0 0 0 0 0 0 0 0 0 0 0 0 0 0 0 0 0 0 0 0 0 0 0 0 0 0 0 0 0 0 0 0 0 0 0 0 0 0 0 0 0 0 0 0 0 0 0 0 0 0 0 0 0 0 0 0 0 0 0 0 0 0 0 0 0 0 0 0 0 0 0 0 0 0 0 0 0 0 0 0 0 0 0 0 0 0 0 0 0 0 0 0 0 0 0 0 0 0 0 0 0 0 0 0 0 0 0 0 0 0 0 0 0 0 0 0 0 0 0 0 0 0 0 0 0 0 0 0 0 0 0 0 0 0 0 0 0 0 0 0 0 0 0 0 0 0 0 0 0 0 0 0 0 0 0 0 0 0 0 0 0 0 0 0 0 0 0 0 0 0 0 0 0 0 0 0 0 0 0 0 0 0 0 0 0 0 0 0 0 0 0 0 0 0 0 0 0 0 0 0 0 0 0 0 0 0 0 0 0 0 0 0 0 0 0 0 0 0 0 0 0 0 0 0 0 0 0 0 0 0 0 0 0 0 0 0 0 0 0 0 0 0 0 0 0 0 0 0 0 0 0 0 0 0 0 0 0 0 0 0 0 0 0 0 0 0 0 0 0 0 0 0 0 0 0 0 0 0 0 0 0 0 0 0 0 0 0 0 0 0 0 0 0 0 0 0 0 0 0 0 0 0 0 0 0</float_array>
          <technique_common>
            <accessor source="#rome_helmet_b-Geometry_081-mesh-map-2-array" count="540" stride="2">
              <param name="S" type="float"/>
              <param name="T" type="float"/>
            </accessor>
          </technique_common>
        </source>
        <source id="rome_helmet_b-Geometry_081-mesh-map-3">
          <float_array id="rome_helmet_b-Geometry_081-mesh-map-3-array" count="1080">0 0 0 0 0 0 0 0 0 0 0 0 0 0 0 0 0 0 0 0 0 0 0 0 0 0 0 0 0 0 0 0 0 0 0 0 0 0 0 0 0 0 0 0 0 0 0 0 0 0 0 0 0 0 0 0 0 0 0 0 0 0 0 0 0 0 0 0 0 0 0 0 0 0 0 0 0 0 0 0 0 0 0 0 0 0 0 0 0 0 0 0 0 0 0 0 0 0 0 0 0 0 0 0 0 0 0 0 0 0 0 0 0 0 0 0 0 0 0 0 0 0 0 0 0 0 0 0 0 0 0 0 0 0 0 0 0 0 0 0 0 0 0 0 0 0 0 0 0 0 0 0 0 0 0 0 0 0 0 0 0 0 0 0 0 0 0 0 0 0 0 0 0 0 0 0 0 0 0 0 0 0 0 0 0 0 0 0 0 0 0 0 0 0 0 0 0 0 0 0 0 0 0 0 0 0 0 0 0 0 0 0 0 0 0 0 0 0 0 0 0 0 0 0 0 0 0 0 0 0 0 0 0 0 0 0 0 0 0 0 0 0 0 0 0 0 0 0 0 0 0 0 0 0 0 0 0 0 0 0 0 0 0 0 0 0 0 0 0 0 0 0 0 0 0 0 0 0 0 0 0 0 0 0 0 0 0 0 0 0 0 0 0 0 0 0 0 0 0 0 0 0 0 0 0 0 0 0 0 0 0 0 0 0 0 0 0 0 0 0 0 0 0 0 0 0 0 0 0 0 0 0 0 0 0 0 0 0 0 0 0 0 0 0 0 0 0 0 0 0 0 0 0 0 0 0 0 0 0 0 0 0 0 0 0 0 0 0 0 0 0 0 0 0 0 0 0 0 0 0 0 0 0 0 0 0 0 0 0 0 0 0 0 0 0 0 0 0 0 0 0 0 0 0 0 0 0 0 0 0 0 0 0 0 0 0 0 0 0 0 0 0 0 0 0 0 0 0 0 0 0 0 0 0 0 0 0 0 0 0 0 0 0 0 0 0 0 0 0 0 0 0 0 0 0 0 0 0 0 0 0 0 0 0 0 0 0 0 0 0 0 0 0 0 0 0 0 0 0 0 0 0 0 0 0 0 0 0 0 0 0 0 0 0 0 0 0 0 0 0 0 0 0 0 0 0 0 0 0 0 0 0 0 0 0 0 0 0 0 0 0 0 0 0 0 0 0 0 0 0 0 0 0 0 0 0 0 0 0 0 0 0 0 0 0 0 0 0 0 0 0 0 0 0 0 0 0 0 0 0 0 0 0 0 0 0 0 0 0 0 0 0 0 0 0 0 0 0 0 0 0 0 0 0 0 0 0 0 0 0 0 0 0 0 0 0 0 0 0 0 0 0 0 0 0 0 0 0 0 0 0 0 0 0 0 0 0 0 0 0 0 0 0 0 0 0 0 0 0 0 0 0 0 0 0 0 0 0 0 0 0 0 0 0 0 0 0 0 0 0 0 0 0 0 0 0 0 0 0 0 0 0 0 0 0 0 0 0 0 0 0 0 0 0 0 0 0 0 0 0 0 0 0 0 0 0 0 0 0 0 0 0 0 0 0 0 0 0 0 0 0 0 0 0 0 0 0 0 0 0 0 0 0 0 0 0 0 0 0 0 0 0 0 0 0 0 0 0 0 0 0 0 0 0 0 0 0 0 0 0 0 0 0 0 0 0 0 0 0 0 0 0 0 0 0 0 0 0 0 0 0 0 0 0 0 0 0 0 0 0 0 0 0 0 0 0 0 0 0 0 0 0 0 0 0 0 0 0 0 0 0 0 0 0 0 0 0 0 0 0 0 0 0 0 0 0 0 0 0 0 0 0 0 0 0 0 0 0 0 0 0 0 0 0 0 0 0 0 0 0 0 0 0 0 0 0 0 0 0 0 0 0 0 0 0 0 0 0 0 0 0 0 0 0 0 0 0 0 0 0 0 0 0 0 0 0 0 0 0 0 0 0 0 0 0 0 0 0 0 0 0 0 0 0 0 0 0 0 0 0 0 0 0 0 0 0 0 0 0 0 0 0 0 0 0 0 0 0 0 0 0 0 0 0 0 0 0 0 0 0 0 0 0 0 0 0 0 0 0 0 0 0 0 0 0 0 0 0 0 0 0 0 0 0 0 0 0 0 0 0 0 0 0 0 0 0 0 0 0 0 0 0 0 0 0 0 0 0 0 0 0 0 0 0 0 0 0 0 0 0 0 0 0 0 0 0 0 0 0 0 0 0 0 0 0 0 0 0 0 0 0 0 0 0 0 0 0 0 0 0 0 0 0 0 0 0 0 0 0 0 0 0 0 0 0 0 0 0 0 0 0 0 0 0 0 0 0 0 0 0 0 0 0 0 0 0 0 0 0 0 0 0 0 0 0 0 0 0 0 0 0 0 0 0 0 0 0 0 0 0 0 0 0 0 0 0 0 0 0 0</float_array>
          <technique_common>
            <accessor source="#rome_helmet_b-Geometry_081-mesh-map-3-array" count="540" stride="2">
              <param name="S" type="float"/>
              <param name="T" type="float"/>
            </accessor>
          </technique_common>
        </source>
        <vertices id="rome_helmet_b-Geometry_081-mesh-vertices">
          <input semantic="POSITION" source="#rome_helmet_b-Geometry_081-mesh-positions"/>
        </vertices>
        <triangles material="coronas_viejas_zapo-material" count="180">
          <input semantic="VERTEX" source="#rome_helmet_b-Geometry_081-mesh-vertices" offset="0"/>
          <input semantic="NORMAL" source="#rome_helmet_b-Geometry_081-mesh-normals" offset="1"/>
          <input semantic="TEXCOORD" source="#rome_helmet_b-Geometry_081-mesh-map-0" offset="2" set="0"/>
          <input semantic="TEXCOORD" source="#rome_helmet_b-Geometry_081-mesh-map-1" offset="2" set="1"/>
          <input semantic="TEXCOORD" source="#rome_helmet_b-Geometry_081-mesh-map-2" offset="2" set="2"/>
          <input semantic="TEXCOORD" source="#rome_helmet_b-Geometry_081-mesh-map-3" offset="2" set="3"/>
          <p>3 0 0 1 1 1 0 2 2 1 1 3 2 3 4 0 2 5 2 3 6 4 4 7 0 2 8 6 5 9 5 6 10 4 4 11 6 5 12 4 4 13 7 7 14 6 5 15 7 7 16 8 8 17 9 9 18 8 8 19 7 7 20 9 9 21 10 10 22 8 8 23 10 10 24 11 11 25 8 8 26 10 10 27 12 12 28 11 11 29 12 12 30 13 13 31 11 11 32 12 12 33 14 14 34 13 13 35 13 13 36 14 14 37 15 15 38 13 13 39 15 15 40 16 16 41 16 16 42 15 15 43 17 17 44 16 16 45 17 17 46 18 18 47 18 18 48 17 17 49 19 19 50 18 18 51 19 19 52 2 3 53 1 1 54 18 18 55 2 3 56 20 20 57 16 16 58 18 18 59 20 20 60 18 18 61 1 1 62 21 21 63 20 20 64 1 1 65 21 21 66 22 22 67 20 20 68 22 22 69 23 23 70 20 20 71 20 20 72 13 13 73 16 16 74 20 20 75 23 23 76 13 13 77 22 22 78 24 24 79 23 23 80 23 23 81 24 24 82 25 25 83 23 23 84 25 25 85 26 26 86 11 11 87 13 13 88 23 23 89 11 11 90 23 23 91 26 26 92 26 26 93 25 25 94 27 27 95 26 26 96 27 27 97 6 5 98 26 26 99 8 8 100 11 11 101 26 26 102 6 5 103 8 8 104 6 5 105 27 27 106 5 6 107 3 0 108 21 21 109 1 1 110 29 28 111 30 29 112 28 30 113 30 29 114 31 31 115 28 30 116 32 32 117 31 31 118 33 33 119 32 32 120 33 33 121 34 34 122 34 34 123 33 33 124 35 35 125 30 29 126 36 36 127 35 35 128 36 36 129 37 37 130 35 35 131 37 37 132 38 38 133 35 35 134 38 38 135 39 39 136 35 35 137 39 39 138 34 34 139 35 35 140 39 39 141 38 38 142 40 40 143 39 39 144 40 40 145 41 41 146 41 41 147 34 34 148 39 39 149 41 41 150 32 32 151 34 34 152 42 42 153 40 40 154 38 38 155 42 42 156 37 37 157 36 36 158 42 42 159 36 36 160 29 28 161 42 42 162 38 38 163 37 37 164 29 28 165 36 36 166 30 29 167 43 43 168 45 44 169 44 45 170 43 43 171 47 46 172 45 44 173 46 47 174 47 46 175 43 43 176 46 47 177 49 48 178 47 46 179 47 46 180 48 49 181 45 44 182 47 46 183 50 50 184 48 49 185 49 48 186 50 50 187 47 46 188 49 48 189 51 51 190 50 50 191 51 51 192 52 52 193 50 50 194 48 49 195 50 50 196 52 52 197 48 49 198 52 52 199 53 53 200 53 53 201 52 52 202 54 54 203 51 51 204 54 54 205 52 52 206 55 55 207 54 54 208 51 51 209 55 55 210 53 53 211 54 54 212 55 55 213 51 51 214 49 48 215 57 56 216 55 55 217 49 48 218 56 57 219 55 55 220 57 56 221 56 57 222 58 58 223 55 55 224 55 55 225 58 58 226 53 53 227 59 59 228 60 60 229 58 58 230 59 59 231 58 58 232 56 57 233 60 60 234 61 61 235 58 58 236 58 58 237 61 61 238 62 62 239 62 62 240 53 53 241 58 58 242 61 61 243 63 63 244 62 62 245 64 64 246 62 62 247 63 63 248 64 64 249 65 65 250 62 62 251 48 49 252 62 62 253 65 65 254 48 49 255 53 53 256 62 62 257 66 66 258 48 49 259 65 65 260 65 65 261 68 67 262 66 66 263 67 68 264 65 65 265 64 64 266 67 68 267 68 67 268 65 65 269 69 69 270 68 67 271 67 68 272 69 69 273 70 70 274 68 67 275 68 67 276 70 70 277 66 66 278 70 70 279 44 45 280 66 66 281 71 71 282 69 69 283 67 68 284 71 71 285 67 68 286 59 59 287 56 57 288 71 71 289 59 59 290 59 59 291 67 68 292 64 64 293 44 45 294 45 44 295 66 66 296 66 66 297 45 44 298 48 49 299 59 59 300 64 64 301 60 60 302 64 64 303 61 61 304 60 60 305 64 64 306 63 63 307 61 61 308 46 47 309 57 56 310 49 48 311 57 56 312 46 47 313 44 45 314 73 72 315 74 73 316 72 74 317 74 73 318 75 75 319 72 74 320 74 73 321 76 76 322 75 75 323 76 76 324 77 77 325 75 75 326 78 78 327 75 75 328 77 77 329 79 79 330 78 78 331 80 80 332 79 79 333 73 72 334 78 78 335 80 80 336 78 78 337 81 81 338 78 78 339 77 77 340 81 81 341 80 80 342 81 81 343 82 82 344 82 82 345 81 81 346 83 83 347 81 81 348 77 77 349 84 84 350 81 81 351 84 84 352 83 83 353 85 85 354 84 84 355 77 77 356 86 86 357 83 83 358 84 84 359 86 86 360 84 84 361 87 87 362 85 85 363 88 88 364 87 87 365 89 89 366 87 87 367 85 85 368 86 86 369 87 87 370 89 89 371 90 90 372 89 89 373 91 91 374 90 90 375 94 92 376 89 89 377 89 89 378 85 85 379 91 91 380 89 89 381 92 93 382 86 86 383 89 89 384 95 94 385 92 93 386 93 95 387 89 89 388 94 92 389 93 95 390 95 94 391 89 89 392 95 94 393 96 96 394 92 93 395 95 94 396 97 97 397 96 96 398 93 95 399 97 97 400 95 94 401 98 98 402 96 96 403 97 97 404 93 95 405 98 98 406 97 97 407 98 98 408 99 99 409 96 96 410 99 99 411 98 98 412 93 95 413 99 99 414 93 95 415 100 100 416 96 96 417 99 99 418 100 100 419 100 100 420 94 92 421 101 101 422 92 93 423 100 100 424 101 101 425 100 100 426 93 95 427 94 92 428 96 96 429 100 100 430 92 93 431 83 83 432 101 101 433 94 92 434 92 93 435 101 101 436 86 86 437 86 86 438 101 101 439 83 83 440 83 83 441 94 92 442 88 88 443 82 82 444 88 88 445 94 92 446 82 82 447 94 92 448 90 90 449 85 85 450 82 82 451 88 88 452 76 76 453 85 85 454 77 77 455 80 80 456 85 85 457 76 76 458 80 80 459 82 82 460 85 85 461 74 73 462 79 79 463 80 80 464 74 73 465 80 80 466 76 76 467 73 72 468 79 79 469 74 73 470 105 102 471 102 103 472 103 104 473 102 103 474 104 105 475 103 104 476 105 102 477 103 104 478 106 106 479 104 105 480 107 107 481 103 104 482 109 108 483 108 109 484 110 110 485 109 108 486 111 111 487 108 109 488 112 112 489 109 108 490 110 110 491 113 113 492 115 114 493 114 115 494 113 113 495 116 116 496 115 114 497 114 115 498 115 114 499 117 117 500 119 118 501 118 119 502 120 120 503 119 118 504 121 121 505 118 119 506 122 122 507 119 118 508 120 120 509 123 123 510 125 124 511 124 125 512 123 123 513 126 126 514 125 124 515 124 125 516 125 124 517 127 127 518 2 3 519 7 7 520 4 4 521 30 29 522 33 33 523 31 31 524 46 47 525 43 43 526 44 45 527 44 45 528 70 70 529 56 57 530 70 70 531 69 69 532 71 71 533 56 57 534 70 70 535 71 71 536 56 57 537 57 56 538 44 45 539</p>
        </triangles>
      </mesh>
    </geometry>
  </library_geometries>
  <library_visual_scenes>
    <visual_scene id="Scene" name="Scene">
      <node id="a_helmet_zapo_champ_02" name="a_helmet_zapo_champ_02" type="NODE">
        <matrix sid="transform">1 0 0 0 0 1 0 0 0 0 1 0.07562811 0 0 0 1</matrix>
        <instance_geometry url="#rome_helmet_b-Geometry_081-mesh" name="a_helmet_zapo_champ_02">
          <bind_material>
            <technique_common>
              <instance_material symbol="coronas_viejas_zapo-material" target="#coronas_viejas_zapo-material">
                <bind_vertex_input semantic="rome_helmet_b-Geometry_008-mesh-map-0" input_semantic="TEXCOORD" input_set="0"/>
                <bind_vertex_input semantic="rome_helmet_b-Geometry_008-mesh-map-1" input_semantic="TEXCOORD" input_set="1"/>
                <bind_vertex_input semantic="rome_helmet_b-Geometry_008-mesh-map-2" input_semantic="TEXCOORD" input_set="2"/>
                <bind_vertex_input semantic="MapaUV" input_semantic="TEXCOORD" input_set="3"/>
              </instance_material>
            </technique_common>
          </bind_material>
        </instance_geometry>
      </node>
    </visual_scene>
  </library_visual_scenes>
  <scene>
    <instance_visual_scene url="#Scene"/>
  </scene>
</COLLADA>