<?xml version="1.0" encoding="utf-8"?>
<COLLADA xmlns="http://www.collada.org/2005/11/COLLADASchema" version="1.4.1" xmlns:xsi="http://www.w3.org/2001/XMLSchema-instance">
  <asset>
    <contributor>
      <author>Blender User</author>
      <authoring_tool>Blender 4.3.1 commit date:2024-12-10, commit time:07:46, hash:33d812126174</authoring_tool>
    </contributor>
    <created>2026-08-08T10:50:48</created>
    <modified>2026-08-08T10:50:48</modified>
    <unit name="meter" meter="1"/>
    <up_axis>Z_UP</up_axis>
  </asset>
  <library_effects>
    <effect id="pluma__-effect">
      <profile_COMMON>
        <newparam sid="feather_png-surface">
          <surface type="2D">
            <init_from>feather_png</init_from>
          </surface>
        </newparam>
        <newparam sid="feather_png-sampler">
          <sampler2D>
            <source>feather_png-surface</source>
          </sampler2D>
        </newparam>
        <technique sid="common">
          <lambert>
            <emission>
              <color sid="emission">0 0 0 1</color>
            </emission>
            <diffuse>
              <texture texture="feather_png-sampler" texcoord="Circle_028-mesh-map-0"/>
            </diffuse>
            <index_of_refraction>
              <float sid="ior">1.45</float>
            </index_of_refraction>
          </lambert>
        </technique>
      </profile_COMMON>
    </effect>
  </library_effects>
  <library_images>
    <image id="feather_png" name="feather_png">
      <init_from>/home/welton/Downloads/feather.png</init_from>
    </image>
  </library_images>
  <library_materials>
    <material id="pluma__-material" name="pluma  ">
      <instance_effect url="#pluma__-effect"/>
    </material>
  </library_materials>
  <library_geometries>
    <geometry id="Circle_019-mesh" name="Circle.019">
      <mesh>
        <source id="Circle_019-mesh-positions">
          <float_array id="Circle_019-mesh-positions-array" count="144">-0.5628868 0.6187329 0.3931885 -0.5249784 0.8526758 0.4867106 -0.4594359 0.4625449 0.4917944 -0.334011 0.563287 0.6353903 -0.3062599 0.2308708 0.4765756 -0.02217584 0.09143924 0.4907241 -0.1679713 0.02148377 0.3400245 -0.1603255 0.3003183 0.6224215 -0.04096931 0.4050651 0.4761894 0.09525096 0.2000996 0.3422632 -0.1952826 0.6392599 0.4940019 -0.2967376 0.7954402 0.3935127 0.3438721 0.7943472 0.393188 0.5773116 0.835242 0.4867106 0.2302395 0.645403 0.4917944 0.3665377 0.5599443 0.6353905 0.06159806 0.4247316 0.4765751 0.02302306 0.1106347 0.4907239 -0.09086972 0.2254322 0.3400245 0.1750565 0.3096361 0.6224215 0.3131482 0.2312238 0.4761894 0.1641794 0.03532832 0.3422632 0.4837981 0.4537963 0.4940024 0.5980781 0.6008522 0.3935132 -0.524206 0.8514922 0.4838111 -0.457846 0.4631701 0.490124 -0.5610663 0.6190198 0.3917327 -0.3337193 0.5628139 0.6322222 -0.3051834 0.2321546 0.4748838 -0.02300459 0.092673 0.4879525 -0.1607953 0.3010062 0.6192858 -0.1671287 0.02304422 0.3384848 -0.04257786 0.4045764 0.474505 0.09347915 0.1999225 0.3407321 -0.1964898 0.6380441 0.4923341 -0.2977209 0.7938718 0.3920674 0.5764467 0.8341243 0.4838111 0.2313514 0.644106 0.490124 0.3447401 0.7927213 0.3917322 0.3661862 0.5595136 0.6322222 0.06316381 0.4241355 0.4748838 0.02391695 0.1118221 0.4879527 0.1755524 0.3103056 0.6192858 -0.08911925 0.2251479 0.3384853 0.3121592 0.2325832 0.4745054 0.1634311 0.03694403 0.3407316 0.4822538 0.4545381 0.4923339 0.5962738 0.601267 0.3920679</float_array>
          <technique_common>
            <accessor source="#Circle_019-mesh-positions-array" count="48" stride="3">
              <param name="X" type="float"/>
              <param name="Y" type="float"/>
              <param name="Z" type="float"/>
            </accessor>
          </technique_common>
        </source>
        <source id="Circle_019-mesh-normals">
          <float_array id="Circle_019-mesh-normals-array" count="372">-0.7412088 -0.115908 0.661192 -0.7751984 -0.1221576 0.6197944 -0.6468026 -0.255584 0.7185564 -0.6297474 -0.2638 0.7306352 -0.450587 -0.5425169 0.7089759 -0.357162 -0.6607022 0.6602331 -0.4621104 -0.5269318 0.7133 -0.3587797 -0.6644729 0.6555555 0.6800202 0.2042651 0.7041651 0.6703299 0.2238692 0.7074889 0.7507641 0.07540154 0.656253 0.4923545 0.473784 0.7301477 0.7544824 0.07542598 0.6519719 0.4904844 0.4932121 0.7184476 0.3981845 0.6376646 0.6594187 0.418729 0.6678952 0.6152903 -0.3525353 0.6622273 0.6611913 -0.3695847 0.6922888 0.6197932 -0.453535 0.5272414 0.7185559 -0.4557046 0.5084353 0.7306347 -0.660268 0.2477913 0.7089752 -0.7412858 0.1207797 0.660233 -0.6493231 0.2637883 0.7132989 -0.7453778 0.1210715 0.655556 0.4159435 -0.57545 0.7041651 0.4312869 -0.5598675 0.7074886 0.3174005 -0.6845355 0.656253 0.609029 -0.3097862 0.7301481 0.3186426 -0.68804 0.6519724 0.6267693 -0.3016492 0.7184484 0.7329722 -0.1670865 0.6594193 0.7682678 -0.1765828 0.6152912 0.7414613 0.1159636 -0.6608991 0.646797 0.255573 -0.7185654 0.7753843 0.1224336 -0.6195074 0.6297799 0.2637798 -0.7306145 0.4505439 0.5425869 -0.7089497 0.3571689 0.6607131 -0.6602187 0.4621295 0.526898 -0.7133126 0.3588135 0.6644796 -0.6555302 -0.6800605 -0.2042067 -0.7041429 -0.7507725 -0.07540768 -0.6562426 -0.6703003 -0.2239194 -0.707501 -0.4923005 -0.4737653 -0.7301964 -0.7545012 -0.07545644 -0.6519466 -0.4904094 -0.4931758 -0.7185237 -0.3983059 -0.637857 -0.6591594 -0.4190579 -0.6679551 -0.6150013 0.3526706 -0.6624475 -0.6608985 0.4535222 -0.52724 -0.7185651 0.369906 -0.6923739 -0.6195062 0.4556956 -0.5084723 -0.7306146 0.660319 -0.2477274 -0.7089499 0.7412978 -0.1207823 -0.6602191 0.6492964 -0.2638168 -0.7133128 0.7453951 -0.121101 -0.6555308 -0.4159021 0.5755065 -0.7041434 -0.3174092 0.6845422 -0.6562419 -0.4313238 0.5598219 -0.7075023 -0.6089941 0.3097411 -0.7301962 -0.3186784 0.6880499 -0.6519445 -0.6267119 0.3015896 -0.7185235 -0.7331933 0.1671392 -0.6591601 -0.7684313 0.1768747 -0.6150031 -0.3992097 0.7062687 -0.5846505 -0.474458 0.5949367 -0.6487988 -0.3993048 0.706285 -0.5845659 -0.4208068 -0.8472545 -0.3241627 -0.5263463 -0.7072409 -0.471985 -0.5254473 -0.7074747 -0.4726359 -0.6167753 0.3724662 -0.6934387 -0.8897767 0.2862569 -0.3554641 -0.6146494 0.372781 -0.695155 0.510195 0.5625413 -0.6505754 0.6792874 0.2646668 -0.6844853 0.678715 0.2654257 -0.6847593 0.1496685 0.7047998 -0.6934383 -0.02131426 0.9344552 -0.3554422 0.150662 0.7028968 -0.6951526 0.6986911 -0.2974815 -0.6506424 0.4728869 -0.5550341 -0.6843356 0.4734345 -0.5542226 -0.6846145 -0.400412 -0.6639228 -0.631567 -0.5136027 -0.5192617 -0.6830663 -0.5140162 -0.518525 -0.6833149 -0.7585182 0.1605923 -0.6315538 -0.6589614 0.3149456 -0.683066 -0.6584008 0.3155785 -0.6833144 0.7712818 0.09621727 -0.6291793 0.7712802 0.09621471 -0.6291817 0.3437486 -0.6970899 -0.629208 0.3437443 -0.6970888 -0.6292114 -0.7174809 -0.2532957 -0.6488933 -0.7176766 -0.2532159 -0.648708 -0.1016532 0.7100028 -0.6968233 0.08699738 0.9296852 -0.3579344 0.08775287 0.9302181 -0.356362 0.4407176 0.6777359 -0.5885933 0.5100558 0.5629583 -0.6503238 -0.4744629 0.5947347 -0.6489803 0.6374099 0.3288418 -0.6968298 0.906805 0.2226452 -0.3579578 0.9075558 0.2221066 -0.3563866 0.3737834 -0.8650995 -0.3344979 0.4955902 -0.7291611 -0.4719263 0.3747729 -0.8650078 -0.3336271 0.7848229 -0.1942448 -0.5884913 0.6990315 -0.2972233 -0.6503947 -0.6946923 -0.6368244 -0.3344509 -0.6942806 -0.6377297 -0.3335794 -0.7981697 -0.1456393 -0.5845634 -0.7982162 -0.1457236 -0.584479 0.662416 -0.6753864 -0.324127 0.4960968 -0.7283946 -0.4725773 -0.4218451 -0.8470932 -0.3232331 -0.8905482 0.2857806 -0.3539115 -0.02201724 0.935028 -0.3538896 -0.4004043 -0.6639215 -0.6315732 -0.7585147 0.1605855 -0.6315599 -0.1027973 0.7081397 -0.6985492 0.4408008 0.677745 -0.5885206 0.6352746 0.3293118 -0.6985557 0.7848592 -0.1943214 -0.5884177 0.661923 -0.6763148 -0.323197</float_array>
          <technique_common>
            <accessor source="#Circle_019-mesh-normals-array" count="124" stride="3">
              <param name="X" type="float"/>
              <param name="Y" type="float"/>
              <param name="Z" type="float"/>
            </accessor>
          </technique_common>
        </source>
        <source id="Circle_019-mesh-map-0">
          <float_array id="Circle_019-mesh-map-0-array" count="528">0.4961408 0.9516549 0.953041 0.9516549 0.953041 0.6456935 0.4961408 0.9516549 0.953041 0.6456935 0.4961408 0.6456935 0.4961408 0.6456935 0.953041 0.6456935 0.953041 0.3397324 0.4961408 0.03377139 0.4961408 0.3397324 0.953041 0.3397324 0.4961408 0.03377139 0.953041 0.3397324 0.953041 0.03377139 0.4961408 0.6456935 0.953041 0.3397324 0.4961408 0.3397324 0.03923982 0.3397324 0.4961408 0.3397324 0.4961408 0.03377139 0.03923982 0.3397324 0.4961408 0.6456935 0.4961408 0.3397324 0.03923982 0.3397324 0.4961408 0.03377139 0.03923982 0.03377139 0.03923982 0.3397324 0.03923982 0.6456935 0.4961408 0.6456935 0.03923982 0.6456935 0.4961408 0.9516549 0.4961408 0.6456935 0.03923982 0.6456935 0.03923982 0.9516549 0.4961408 0.9516549 0.4961408 0.9516549 0.953041 0.9516549 0.953041 0.6456935 0.4961408 0.9516549 0.953041 0.6456935 0.4961408 0.6456935 0.4961408 0.6456935 0.953041 0.6456935 0.953041 0.3397324 0.4961408 0.03377139 0.4961408 0.3397324 0.953041 0.3397324 0.4961408 0.03377139 0.953041 0.3397324 0.953041 0.03377139 0.4961408 0.6456935 0.953041 0.3397324 0.4961408 0.3397324 0.03923982 0.3397324 0.4961408 0.3397324 0.4961408 0.03377139 0.03923982 0.3397324 0.4961408 0.6456935 0.4961408 0.3397324 0.03923982 0.3397324 0.4961408 0.03377139 0.03923982 0.03377139 0.03923982 0.3397324 0.03923982 0.6456935 0.4961408 0.6456935 0.03923982 0.6456935 0.4961408 0.9516549 0.4961408 0.6456935 0.03923982 0.6456935 0.03923982 0.9516549 0.4961408 0.9516549 0.4961408 0.9516549 0.953041 0.6456935 0.953041 0.9516549 0.4961408 0.9516549 0.4961408 0.6456935 0.953041 0.6456935 0.4961408 0.6456935 0.953041 0.3397324 0.953041 0.6456935 0.4961408 0.03377139 0.953041 0.3397324 0.4961408 0.3397324 0.4961408 0.03377139 0.953041 0.03377139 0.953041 0.3397324 0.4961408 0.6456935 0.4961408 0.3397324 0.953041 0.3397324 0.03923982 0.3397324 0.4961408 0.03377139 0.4961408 0.3397324 0.03923982 0.3397324 0.4961408 0.3397324 0.4961408 0.6456935 0.03923982 0.3397324 0.03923982 0.03377139 0.4961408 0.03377139 0.03923982 0.3397324 0.4961408 0.6456935 0.03923982 0.6456935 0.03923982 0.6456935 0.4961408 0.6456935 0.4961408 0.9516549 0.03923982 0.6456935 0.4961408 0.9516549 0.03923982 0.9516549 0.4961408 0.9516549 0.953041 0.6456935 0.953041 0.9516549 0.4961408 0.9516549 0.4961408 0.6456935 0.953041 0.6456935 0.4961408 0.6456935 0.953041 0.3397324 0.953041 0.6456935 0.4961408 0.03377139 0.953041 0.3397324 0.4961408 0.3397324 0.4961408 0.03377139 0.953041 0.03377139 0.953041 0.3397324 0.4961408 0.6456935 0.4961408 0.3397324 0.953041 0.3397324 0.03923982 0.3397324 0.4961408 0.03377139 0.4961408 0.3397324 0.03923982 0.3397324 0.4961408 0.3397324 0.4961408 0.6456935 0.03923982 0.3397324 0.03923982 0.03377139 0.4961408 0.03377139 0.03923982 0.3397324 0.4961408 0.6456935 0.03923982 0.6456935 0.03923982 0.6456935 0.4961408 0.6456935 0.4961408 0.9516549 0.03923982 0.6456935 0.4961408 0.9516549 0.03923982 0.9516549 0.953041 0.03377139 0.953041 0.3397324 0.953041 0.03377139 0.953041 0.03377139 0.4961408 0.03377139 0.4961408 0.03377139 0.953041 0.9516549 0.4961408 0.9516549 0.953041 0.9516549 0.03923982 0.3397324 0.03923982 0.6456935 0.03923982 0.6456935 0.953041 0.9516549 0.4961408 0.9516549 0.953041 0.9516549 0.03923982 0.3397324 0.03923982 0.6456935 0.03923982 0.6456935 0.953041 0.9516549 0.953041 0.6456935 0.953041 0.6456935 0.953041 0.9516549 0.953041 0.6456935 0.953041 0.6456935 0.03923982 0.9516549 0.03923982 0.6456935 0.03923982 0.9516549 0.03923982 0.9516549 0.03923982 0.6456935 0.03923982 0.9516549 0.953041 0.3397324 0.953041 0.6456935 0.953041 0.3397324 0.03923982 0.9516549 0.4961408 0.9516549 0.4961408 0.9516549 0.03923982 0.03377139 0.03923982 0.3397324 0.03923982 0.3397324 0.953041 0.3397324 0.953041 0.6456935 0.953041 0.3397324 0.03923982 0.9516549 0.4961408 0.9516549 0.4961408 0.9516549 0.03923982 0.03377139 0.4961408 0.03377139 0.03923982 0.03377139 0.03923982 0.03377139 0.03923982 0.3397324 0.03923982 0.3397324 0.03923982 0.03377139 0.4961408 0.03377139 0.03923982 0.03377139 0.953041 0.03377139 0.953041 0.3397324 0.953041 0.03377139 0.953041 0.03377139 0.4961408 0.03377139 0.4961408 0.03377139 0.953041 0.03377139 0.953041 0.3397324 0.953041 0.3397324 0.953041 0.03377139 0.953041 0.03377139 0.4961408 0.03377139 0.953041 0.9516549 0.4961408 0.9516549 0.4961408 0.9516549 0.03923982 0.3397324 0.03923982 0.3397324 0.03923982 0.6456935 0.953041 0.9516549 0.4961408 0.9516549 0.4961408 0.9516549 0.03923982 0.3397324 0.03923982 0.3397324 0.03923982 0.6456935 0.953041 0.9516549 0.953041 0.9516549 0.953041 0.6456935 0.953041 0.9516549 0.953041 0.9516549 0.953041 0.6456935 0.03923982 0.9516549 0.03923982 0.6456935 0.03923982 0.6456935 0.03923982 0.9516549 0.03923982 0.6456935 0.03923982 0.6456935 0.953041 0.3397324 0.953041 0.6456935 0.953041 0.6456935 0.03923982 0.9516549 0.03923982 0.9516549 0.4961408 0.9516549 0.03923982 0.03377139 0.03923982 0.03377139 0.03923982 0.3397324 0.953041 0.3397324 0.953041 0.6456935 0.953041 0.6456935 0.03923982 0.9516549 0.03923982 0.9516549 0.4961408 0.9516549 0.03923982 0.03377139 0.4961408 0.03377139 0.4961408 0.03377139 0.03923982 0.03377139 0.03923982 0.03377139 0.03923982 0.3397324 0.03923982 0.03377139 0.4961408 0.03377139 0.4961408 0.03377139 0.953041 0.03377139 0.953041 0.3397324 0.953041 0.3397324 0.953041 0.03377139 0.953041 0.03377139 0.4961408 0.03377139</float_array>
          <technique_common>
            <accessor source="#Circle_019-mesh-map-0-array" count="264" stride="2">
              <param name="S" type="float"/>
              <param name="T" type="float"/>
            </accessor>
          </technique_common>
        </source>
        <vertices id="Circle_019-mesh-vertices">
          <input semantic="POSITION" source="#Circle_019-mesh-positions"/>
        </vertices>
        <triangles material="pluma__-material" count="88">
          <input semantic="VERTEX" source="#Circle_019-mesh-vertices" offset="0"/>
          <input semantic="NORMAL" source="#Circle_019-mesh-normals" offset="1"/>
          <input semantic="TEXCOORD" source="#Circle_019-mesh-map-0" offset="2" set="0"/>
          <p>1 0 0 0 1 1 2 2 2 1 0 3 2 2 4 3 3 5 3 3 6 2 2 7 4 4 8 5 5 9 7 6 10 4 4 11 5 5 12 4 4 13 6 7 14 3 3 15 4 4 16 7 6 17 8 8 18 7 9 19 5 10 20 8 8 21 3 11 22 7 9 23 8 8 24 5 10 25 9 12 26 8 8 27 10 13 28 3 11 29 10 13 30 1 14 31 3 11 32 10 13 33 11 15 34 1 14 35 13 16 36 12 17 37 14 18 38 13 16 39 14 18 40 15 19 41 15 19 42 14 18 43 16 20 44 17 21 45 19 22 46 16 20 47 17 21 48 16 20 49 18 23 50 15 19 51 16 20 52 19 22 53 20 24 54 19 25 55 17 26 56 20 24 57 15 27 58 19 25 59 20 24 60 17 26 61 21 28 62 20 24 63 22 29 64 15 27 65 22 29 66 13 30 67 15 27 68 22 29 69 23 31 70 13 30 71 24 32 72 25 33 73 26 34 74 24 32 75 27 35 76 25 33 77 27 35 78 28 36 79 25 33 80 29 37 81 28 36 82 30 38 83 29 37 84 31 39 85 28 36 86 27 35 87 30 38 88 28 36 89 32 40 90 29 41 91 30 42 92 32 40 93 30 42 94 27 43 95 32 40 96 33 44 97 29 41 98 32 40 99 27 43 100 34 45 101 34 45 102 27 43 103 24 46 104 34 45 105 24 46 106 35 47 107 36 48 108 37 49 109 38 50 110 36 48 111 39 51 112 37 49 113 39 51 114 40 52 115 37 49 116 41 53 117 40 52 118 42 54 119 41 53 120 43 55 121 40 52 122 39 51 123 42 54 124 40 52 125 44 56 126 41 57 127 42 58 128 44 56 129 42 58 130 39 59 131 44 56 132 45 60 133 41 57 134 44 56 135 39 59 136 46 61 137 46 61 138 39 59 139 36 62 140 46 61 141 36 62 142 47 63 143 18 64 144 40 65 145 43 66 146 18 67 147 41 68 148 17 69 149 0 70 150 24 71 151 26 72 152 8 73 153 34 74 154 10 75 155 12 76 156 36 77 157 38 78 158 20 79 159 46 80 160 22 81 161 0 82 162 25 83 163 2 84 164 12 85 165 37 86 166 14 87 167 11 88 168 34 74 169 35 89 170 23 90 171 46 80 172 47 91 173 4 92 174 25 83 175 28 93 176 11 94 177 24 95 178 1 96 179 9 97 180 32 98 181 8 73 182 16 99 183 37 86 184 40 65 185 23 100 186 36 101 187 13 102 188 9 103 189 29 104 190 33 105 191 21 106 192 44 107 193 20 79 194 21 108 195 41 68 196 45 109 197 6 110 198 28 93 199 31 111 200 6 112 201 29 104 202 5 113 203 18 64 204 16 99 205 40 65 206 18 67 207 43 114 208 41 68 209 0 70 210 1 115 211 24 71 212 8 73 213 32 98 214 34 74 215 12 76 216 13 116 217 36 77 218 20 79 219 44 107 220 46 80 221 0 82 222 26 117 223 25 83 224 12 85 225 38 118 226 37 86 227 11 88 228 10 75 229 34 74 230 23 90 231 22 81 232 46 80 233 4 92 234 2 84 235 25 83 236 11 94 237 35 119 238 24 95 239 9 97 240 33 120 241 32 98 242 16 99 243 14 87 244 37 86 245 23 100 246 47 121 247 36 101 248 9 103 249 5 113 250 29 104 251 21 106 252 45 122 253 44 107 254 21 108 255 17 69 256 41 68 257 6 110 258 4 92 259 28 93 260 6 112 261 31 123 262 29 104 263</p>
        </triangles>
      </mesh>
    </geometry>
  </library_geometries>
  <library_visual_scenes>
    <visual_scene id="Scene" name="Scene">
      <node id="a-feathers_lib_02_03" name="a-feathers_lib_02_03" type="NODE">
        <matrix sid="transform">1 0 0 0 0 1 0 0 0 0 1 0 0 0 0 1</matrix>
        <instance_geometry url="#Circle_019-mesh" name="a-feathers_lib_02_03">
          <bind_material>
            <technique_common>
              <instance_material symbol="pluma__-material" target="#pluma__-material">
                <bind_vertex_input semantic="Circle_028-mesh-map-0" input_semantic="TEXCOORD" input_set="0"/>
              </instance_material>
            </technique_common>
          </bind_material>
        </instance_geometry>
      </node>
    </visual_scene>
  </library_visual_scenes>
  <scene>
    <instance_visual_scene url="#Scene"/>
  </scene>
</COLLADA>