<?xml version="1.0" encoding="utf-8"?>
<COLLADA xmlns="http://www.collada.org/2005/11/COLLADASchema" version="1.4.1" xmlns:xsi="http://www.w3.org/2001/XMLSchema-instance">
  <asset>
    <contributor>
      <author>Blender User</author>
      <authoring_tool>Blender 4.3.1 commit date:2024-12-10, commit time:07:46, hash:33d812126174</authoring_tool>
    </contributor>
    <created>2026-08-08T10:49:59</created>
    <modified>2026-08-08T10:49:59</modified>
    <unit name="meter" meter="1"/>
    <up_axis>Z_UP</up_axis>
  </asset>
  <library_effects>
    <effect id="pluma__-effect">
      <profile_COMMON>
        <newparam sid="feather_png-surface">
          <surface type="2D">
            <init_from>feather_png</init_from>
          </surface>
        </newparam>
        <newparam sid="feather_png-sampler">
          <sampler2D>
            <source>feather_png-surface</source>
          </sampler2D>
        </newparam>
        <technique sid="common">
          <lambert>
            <emission>
              <color sid="emission">0 0 0 1</color>
            </emission>
            <diffuse>
              <texture texture="feather_png-sampler" texcoord="Circle_028-mesh-map-0"/>
            </diffuse>
            <index_of_refraction>
              <float sid="ior">1.45</float>
            </index_of_refraction>
          </lambert>
        </technique>
      </profile_COMMON>
    </effect>
  </library_effects>
  <library_images>
    <image id="feather_png" name="feather_png">
      <init_from>/home/welton/Downloads/feather.png</init_from>
    </image>
  </library_images>
  <library_materials>
    <material id="pluma__-material" name="pluma  ">
      <instance_effect url="#pluma__-effect"/>
    </material>
  </library_materials>
  <library_geometries>
    <geometry id="Circle_016-mesh" name="Circle.016">
      <mesh>
        <source id="Circle_016-mesh-positions">
          <float_array id="Circle_016-mesh-positions-array" count="72">-0.1601018 -0.1138194 0.4735837 5.12307e-4 0.07813346 0.4259405 -0.1599137 -0.1865059 0.6724219 2.69478e-4 -0.07908654 0.7688718 -0.1598625 -0.4025977 0.8475554 2.59992e-4 -0.5954372 1.041253 -0.1599428 -0.6802599 0.9147601 1.76232e-4 -0.3214034 0.9707875 0.1575046 -0.4035602 0.8479066 0.1581365 -0.6758812 0.9138148 0.1578943 -0.1837041 0.672863 0.1593672 -0.113102 0.473372 5.04191e-4 0.07513976 0.4247398 -0.1582426 -0.1878904 0.6714223 -0.1584249 -0.1153631 0.4730179 2.52064e-4 -0.08162474 0.7668963 -0.1582566 -0.4033791 0.8459814 2.48846e-4 -0.5961958 1.038201 1.63602e-4 -0.3228904 0.9679039 -0.1583796 -0.6806727 0.9130569 0.1558932 -0.4043354 0.8463361 0.1565607 -0.6762944 0.9121232 0.1562169 -0.1850821 0.6718607 0.1576821 -0.1146398 0.4728155</float_array>
          <technique_common>
            <accessor source="#Circle_016-mesh-positions-array" count="24" stride="3">
              <param name="X" type="float"/>
              <param name="Y" type="float"/>
              <param name="Z" type="float"/>
            </accessor>
          </technique_common>
        </source>
        <source id="Circle_016-mesh-normals">
          <float_array id="Circle_016-mesh-normals-array" count="186">-0.682271 0.6750569 0.2807216 -0.7140736 0.6572974 0.2409543 -0.680524 0.5885965 0.4363958 -0.6708257 0.5846522 0.4562618 -0.6750348 0.3245258 0.6625791 -0.662257 0.1805385 0.7272012 -0.6760562 0.3417753 0.6527923 -0.6656846 0.1757296 0.725247 0.6799407 0.3210231 0.6592608 0.6826658 0.3393383 0.6471607 0.6679083 0.1802584 0.7220841 0.6719822 0.5818403 0.4581503 0.6710236 0.1758804 0.7202732 0.6811339 0.5867661 0.4379066 0.6837784 0.674202 0.2791037 0.7175862 0.6548811 0.2370672 0.6825117 -0.6749294 -0.2804427 0.6805129 -0.5886075 -0.4363982 0.7143799 -0.6570108 -0.2408285 0.6708411 -0.5846647 -0.456223 0.6750366 -0.3244478 -0.6626155 0.6622679 -0.1805247 -0.7271946 0.6760519 -0.3418138 -0.6527765 0.6657165 -0.1757211 -0.7252197 -0.6799427 -0.3209559 -0.6592915 -0.6679194 -0.1802521 -0.7220754 -0.6826691 -0.3393896 -0.6471303 -0.6719278 -0.5818827 -0.4581765 -0.671057 -0.1758745 -0.7202435 -0.6810518 -0.586825 -0.4379555 -0.683985 -0.6740972 -0.2788503 -0.7178915 -0.6545907 -0.2369449 -0.7461848 -0.1562158 -0.6471514 -0.7382448 -0.2987343 -0.6047747 -0.7462706 -0.1561921 -0.6470582 -0.1651321 -0.9122673 0.3748331 0.01140415 -0.9702298 0.2419174 -0.1642569 -0.9120306 0.3757925 -0.3090783 0.01691186 -0.9508863 -0.5844738 0.3021031 -0.7530765 -0.3071351 0.01508969 -0.9515463 -0.7381256 -0.298991 -0.6047934 -0.7147752 -0.5696825 -0.4056578 0.1802659 -0.9059586 0.3830708 0.01224195 -0.9703998 0.2411937 0.6964116 -0.6781243 -0.2348583 0.712663 -0.5733637 -0.4041852 0.6964079 -0.6781277 -0.2348595 -0.7000783 -0.6708682 -0.2445939 -0.7147144 -0.5692378 -0.4063889 0.7358317 -0.2972867 -0.6084179 0.7126041 -0.5728421 -0.4050276 0.7413813 -0.1560684 -0.652684 0.7359457 -0.2968152 -0.6085103 0.3065325 0.01279258 -0.9517742 0.5851983 0.2991561 -0.7536901 0.5861221 0.3002319 -0.7525435 -0.5853804 0.3031663 -0.7519443 0.1793437 -0.9057072 0.3840968 -0.7000709 -0.670875 -0.2445966 0.741456 -0.1560479 -0.6526041 0.3045483 0.01094758 -0.952434</float_array>
          <technique_common>
            <accessor source="#Circle_016-mesh-normals-array" count="62" stride="3">
              <param name="X" type="float"/>
              <param name="Y" type="float"/>
              <param name="Z" type="float"/>
            </accessor>
          </technique_common>
        </source>
        <source id="Circle_016-mesh-map-0">
          <float_array id="Circle_016-mesh-map-0-array" count="264">0.4961408 0.9516549 0.953041 0.9516549 0.953041 0.6456935 0.4961408 0.9516549 0.953041 0.6456935 0.4961408 0.6456935 0.4961408 0.6456935 0.953041 0.6456935 0.953041 0.3397324 0.4961408 0.03377139 0.4961408 0.3397324 0.953041 0.3397324 0.4961408 0.03377139 0.953041 0.3397324 0.953041 0.03377139 0.4961408 0.6456935 0.953041 0.3397324 0.4961408 0.3397324 0.03923982 0.3397324 0.4961408 0.3397324 0.4961408 0.03377139 0.03923982 0.3397324 0.4961408 0.6456935 0.4961408 0.3397324 0.03923982 0.3397324 0.4961408 0.03377139 0.03923982 0.03377139 0.03923982 0.3397324 0.03923982 0.6456935 0.4961408 0.6456935 0.03923982 0.6456935 0.4961408 0.9516549 0.4961408 0.6456935 0.03923982 0.6456935 0.03923982 0.9516549 0.4961408 0.9516549 0.4961408 0.9516549 0.953041 0.6456935 0.953041 0.9516549 0.4961408 0.9516549 0.4961408 0.6456935 0.953041 0.6456935 0.4961408 0.6456935 0.953041 0.3397324 0.953041 0.6456935 0.4961408 0.03377139 0.953041 0.3397324 0.4961408 0.3397324 0.4961408 0.03377139 0.953041 0.03377139 0.953041 0.3397324 0.4961408 0.6456935 0.4961408 0.3397324 0.953041 0.3397324 0.03923982 0.3397324 0.4961408 0.03377139 0.4961408 0.3397324 0.03923982 0.3397324 0.4961408 0.3397324 0.4961408 0.6456935 0.03923982 0.3397324 0.03923982 0.03377139 0.4961408 0.03377139 0.03923982 0.3397324 0.4961408 0.6456935 0.03923982 0.6456935 0.03923982 0.6456935 0.4961408 0.6456935 0.4961408 0.9516549 0.03923982 0.6456935 0.4961408 0.9516549 0.03923982 0.9516549 0.953041 0.03377139 0.953041 0.3397324 0.953041 0.03377139 0.03923982 0.03377139 0.4961408 0.03377139 0.03923982 0.03377139 0.953041 0.9516549 0.4961408 0.9516549 0.953041 0.9516549 0.953041 0.3397324 0.953041 0.6456935 0.953041 0.3397324 0.953041 0.03377139 0.4961408 0.03377139 0.4961408 0.03377139 0.03923982 0.9516549 0.03923982 0.6456935 0.03923982 0.9516549 0.953041 0.9516549 0.953041 0.6456935 0.953041 0.6456935 0.03923982 0.3397324 0.03923982 0.6456935 0.03923982 0.6456935 0.03923982 0.03377139 0.03923982 0.3397324 0.03923982 0.3397324 0.03923982 0.9516549 0.4961408 0.9516549 0.4961408 0.9516549 0.953041 0.03377139 0.953041 0.3397324 0.953041 0.3397324 0.03923982 0.03377139 0.4961408 0.03377139 0.4961408 0.03377139 0.953041 0.9516549 0.4961408 0.9516549 0.4961408 0.9516549 0.953041 0.3397324 0.953041 0.6456935 0.953041 0.6456935 0.953041 0.03377139 0.953041 0.03377139 0.4961408 0.03377139 0.03923982 0.9516549 0.03923982 0.6456935 0.03923982 0.6456935 0.953041 0.9516549 0.953041 0.9516549 0.953041 0.6456935 0.03923982 0.3397324 0.03923982 0.3397324 0.03923982 0.6456935 0.03923982 0.03377139 0.03923982 0.03377139 0.03923982 0.3397324 0.03923982 0.9516549 0.03923982 0.9516549 0.4961408 0.9516549</float_array>
          <technique_common>
            <accessor source="#Circle_016-mesh-map-0-array" count="132" stride="2">
              <param name="S" type="float"/>
              <param name="T" type="float"/>
            </accessor>
          </technique_common>
        </source>
        <vertices id="Circle_016-mesh-vertices">
          <input semantic="POSITION" source="#Circle_016-mesh-positions"/>
        </vertices>
        <triangles material="pluma__-material" count="44">
          <input semantic="VERTEX" source="#Circle_016-mesh-vertices" offset="0"/>
          <input semantic="NORMAL" source="#Circle_016-mesh-normals" offset="1"/>
          <input semantic="TEXCOORD" source="#Circle_016-mesh-map-0" offset="2" set="0"/>
          <p>1 0 0 0 1 1 2 2 2 1 0 3 2 2 4 3 3 5 3 3 6 2 2 7 4 4 8 5 5 9 7 6 10 4 4 11 5 5 12 4 4 13 6 7 14 3 3 15 4 4 16 7 6 17 8 8 18 7 9 19 5 10 20 8 8 21 3 11 22 7 9 23 8 8 24 5 10 25 9 12 26 8 8 27 10 13 28 3 11 29 10 13 30 1 14 31 3 11 32 10 13 33 11 15 34 1 14 35 12 16 36 13 17 37 14 18 38 12 16 39 15 19 40 13 17 41 15 19 42 16 20 43 13 17 44 17 21 45 16 20 46 18 22 47 17 21 48 19 23 49 16 20 50 15 19 51 18 22 52 16 20 53 20 24 54 17 25 55 18 26 56 20 24 57 18 26 58 15 27 59 20 24 60 21 28 61 17 25 62 20 24 63 15 27 64 22 29 65 22 29 66 15 27 67 12 30 68 22 29 69 12 30 70 23 31 71 6 32 72 16 33 73 19 34 74 9 35 75 17 36 76 21 37 77 0 38 78 12 39 79 14 40 80 4 41 81 13 42 82 16 33 83 6 43 84 17 36 85 5 44 86 11 45 87 22 46 88 23 47 89 0 48 90 13 42 91 2 49 92 8 50 93 22 46 94 10 51 95 9 52 96 20 53 97 8 50 98 11 54 99 12 55 100 1 56 101 6 32 102 4 41 103 16 33 104 9 35 105 5 44 106 17 36 107 0 38 108 1 57 109 12 39 110 4 41 111 2 49 112 13 42 113 6 43 114 19 58 115 17 36 116 11 45 117 10 51 118 22 46 119 0 48 120 14 59 121 13 42 122 8 50 123 20 53 124 22 46 125 9 52 126 21 60 127 20 53 128 11 54 129 23 61 130 12 55 131</p>
        </triangles>
      </mesh>
    </geometry>
  </library_geometries>
  <library_visual_scenes>
    <visual_scene id="Scene" name="Scene">
      <node id="a-feathers_lib_01_04" name="a-feathers_lib_01_04" type="NODE">
        <matrix sid="transform">1 0 0 0 0 1 0 0 0 0 1 0 0 0 0 1</matrix>
        <instance_geometry url="#Circle_016-mesh" name="a-feathers_lib_01_04">
          <bind_material>
            <technique_common>
              <instance_material symbol="pluma__-material" target="#pluma__-material">
                <bind_vertex_input semantic="Circle_028-mesh-map-0" input_semantic="TEXCOORD" input_set="0"/>
              </instance_material>
            </technique_common>
          </bind_material>
        </instance_geometry>
      </node>
    </visual_scene>
  </library_visual_scenes>
  <scene>
    <instance_visual_scene url="#Scene"/>
  </scene>
</COLLADA>