<?xml version="1.0" encoding="utf-8"?>
<COLLADA xmlns="http://www.collada.org/2005/11/COLLADASchema" version="1.4.1" xmlns:xsi="http://www.w3.org/2001/XMLSchema-instance">
  <asset>
    <contributor>
      <author>Blender User</author>
      <authoring_tool>Blender 4.3.1 commit date:2024-12-10, commit time:07:46, hash:33d812126174</authoring_tool>
    </contributor>
    <created>2026-08-08T10:52:35</created>
    <modified>2026-08-08T10:52:35</modified>
    <unit name="meter" meter="1"/>
    <up_axis>Z_UP</up_axis>
  </asset>
  <library_effects>
    <effect id="PLUMA_AZUL-effect">
      <profile_COMMON>
        <newparam sid="feather_png-surface">
          <surface type="2D">
            <init_from>feather_png</init_from>
          </surface>
        </newparam>
        <newparam sid="feather_png-sampler">
          <sampler2D>
            <source>feather_png-surface</source>
          </sampler2D>
        </newparam>
        <technique sid="common">
          <lambert>
            <emission>
              <color sid="emission">0 0 0 1</color>
            </emission>
            <diffuse>
              <texture texture="feather_png-sampler" texcoord="Circle_028-mesh-map-0"/>
            </diffuse>
            <index_of_refraction>
              <float sid="ior">1.45</float>
            </index_of_refraction>
          </lambert>
        </technique>
      </profile_COMMON>
    </effect>
  </library_effects>
  <library_images>
    <image id="feather_png" name="feather_png">
      <init_from>/home/welton/Downloads/feather.png</init_from>
    </image>
  </library_images>
  <library_materials>
    <material id="PLUMA_AZUL-material" name="PLUMA AZUL">
      <instance_effect url="#PLUMA_AZUL-effect"/>
    </material>
  </library_materials>
  <library_geometries>
    <geometry id="Circle_106-mesh" name="Circle.106">
      <mesh>
        <source id="Circle_106-mesh-positions">
          <float_array id="Circle_106-mesh-positions-array" count="144">-0.4359977 0.7444543 0.4007965 -0.3547395 0.9670827 0.494319 -0.3637893 0.571588 0.4994027 -0.2216463 0.6469255 0.6429988 -0.2569504 0.3152265 0.4841837 -0.004183113 0.1248228 0.4983326 -0.1605387 0.08355551 0.347633 -0.1005539 0.3559687 0.63003 0.03638237 0.4363815 0.4837978 0.131595 0.2094424 0.3498714 -0.07109904 0.6954328 0.5016105 -0.1413485 0.8679158 0.4011213 -0.726877 0.4203342 0.4007967 -0.7832196 0.6505337 0.4943192 -0.5706995 0.3168676 0.4994028 -0.4945029 0.458552 0.6429989 -0.3392921 0.1632888 0.4841839 -0.02332413 0.1457067 0.4983327 -0.130286 0.02442526 0.3476331 -0.2320041 0.2841569 0.6300302 -0.1629576 0.4271617 0.483798 0.04241937 0.2915627 0.3498716 -0.3963953 0.5826179 0.5016106 -0.550732 0.6868559 0.4011214 0.1754113 0.8882435 0.4007965 0.3959345 0.9750524 0.494319 0.09390336 0.7195627 0.4994027 0.244553 0.6631261 0.6429988 -0.0271368 0.4695925 0.4841837 -0.002037882 0.1541326 0.4983326 -0.1366105 0.2438001 0.347633 0.1070699 0.3795461 0.63003 0.2580657 0.3303724 0.4837978 0.1513386 0.1086155 0.3498714 0.3806931 0.5826072 0.5016105 0.4632132 0.7495678 0.4011213 0.5357256 0.6436281 0.4007965 0.7672641 0.5930693 0.4943191 0.3741493 0.5488132 0.4994028 0.4679303 0.4181017 0.6429988 0.1344975 0.4084465 0.4841837 -0.02015805 0.1323549 0.4983326 -0.08209139 0.2817347 0.347633 0.1959161 0.2589555 0.63003 0.2940255 0.1340863 0.4837979 0.08196407 0.009199619 0.3498715 0.5362561 0.2754517 0.5016106 0.6977164 0.368274 0.4011214</float_array>
          <technique_common>
            <accessor source="#Circle_106-mesh-positions-array" count="48" stride="3">
              <param name="X" type="float"/>
              <param name="Y" type="float"/>
              <param name="Z" type="float"/>
            </accessor>
          </technique_common>
        </source>
        <source id="Circle_106-mesh-normals">
          <float_array id="Circle_106-mesh-normals-array" count="192">-0.7497786 0.02565556 0.6611913 -0.7843375 0.02591425 0.6197929 -0.6833456 -0.1292917 0.7185558 -0.6681415 -0.1405706 0.7306346 -0.5446363 -0.4480242 0.7089751 -0.4751226 -0.5816795 0.6602329 -0.5530211 -0.430549 0.7132989 -0.4774206 -0.5850781 0.6555557 0.7063114 0.07263779 0.7041648 0.7004835 0.09371548 0.7074888 0.7515398 -0.06723654 0.6562525 0.5727211 0.372659 0.7301478 0.7551965 -0.06791239 0.6519711 0.5745406 0.3920916 0.718448 0.5110754 0.5513337 0.6594187 0.5369421 0.5771576 0.6152905 -0.6372926 -0.3958337 0.6611912 -0.6661524 -0.4148465 0.6197931 -0.4958834 -0.487624 0.718556 -0.4769746 -0.4885367 0.7306347 -0.2032924 -0.6752972 0.7089752 -0.07116967 -0.7476814 0.6602329 -0.2199823 -0.6654413 0.7132991 -0.0711885 -0.7517842 0.6555554 0.5464867 0.4533256 0.7041649 0.5299172 0.4675975 0.7074889 0.6618902 0.3622623 0.6562525 0.26856 0.6282989 0.7301479 0.6653047 0.3637351 0.6519712 0.2592603 0.6454585 0.7184479 0.1179275 0.742469 0.6594187 0.1250534 0.7783186 0.6152901 -0.4779961 0.5782264 0.6611914 -0.5007197 0.6042655 0.6197928 -0.5499213 0.4257509 0.7185561 -0.5482812 0.406891 0.730635 -0.6965123 0.1105656 0.7089752 -0.7504577 -0.03009611 0.6602329 -0.6889923 0.1284299 0.7132989 -0.7545254 -0.03062957 0.6555556 0.522745 -0.4805098 0.7041648 0.5346572 -0.4621704 0.7074886 0.4480405 -0.6071182 0.6562524 0.6587252 -0.1815643 0.7301477 0.4499594 -0.6103034 0.6519712 0.6744771 -0.1700398 0.7184478 0.7515853 -0.01693767 0.6594185 0.7880675 -0.01917439 0.6152904 -0.0754792 0.7464108 0.6611913 -0.07987368 0.7806904 0.6197926 -0.2200766 0.65973 0.718556 -0.2292068 0.6431461 0.730635 -0.5172428 0.479389 0.7089754 -0.6403278 0.3925212 0.6602328 -0.5010549 0.4900491 0.7132993 -0.6440047 0.3943413 0.6555555 0.1670285 -0.6901112 0.7041649 0.1871302 -0.6814998 0.7074888 0.03451311 -0.7537517 0.6562525 0.446343 -0.5173609 0.7301477 0.03433555 -0.7574661 0.6519711 0.4658434 -0.5165486 0.7184479 0.6150965 -0.4322308 0.6594187 0.6441661 -0.4543868 0.6152907</float_array>
          <technique_common>
            <accessor source="#Circle_106-mesh-normals-array" count="64" stride="3">
              <param name="X" type="float"/>
              <param name="Y" type="float"/>
              <param name="Z" type="float"/>
            </accessor>
          </technique_common>
        </source>
        <source id="Circle_106-mesh-map-0">
          <float_array id="Circle_106-mesh-map-0-array" count="288">0.4961408 0.9516549 0.953041 0.9516549 0.953041 0.6456935 0.4961408 0.9516549 0.953041 0.6456935 0.4961408 0.6456935 0.4961408 0.6456935 0.953041 0.6456935 0.953041 0.3397324 0.4961408 0.03377139 0.4961408 0.3397324 0.953041 0.3397324 0.4961408 0.03377139 0.953041 0.3397324 0.953041 0.03377139 0.4961408 0.6456935 0.953041 0.3397324 0.4961408 0.3397324 0.03923982 0.3397324 0.4961408 0.3397324 0.4961408 0.03377139 0.03923982 0.3397324 0.4961408 0.6456935 0.4961408 0.3397324 0.03923982 0.3397324 0.4961408 0.03377139 0.03923982 0.03377139 0.03923982 0.3397324 0.03923982 0.6456935 0.4961408 0.6456935 0.03923982 0.6456935 0.4961408 0.9516549 0.4961408 0.6456935 0.03923982 0.6456935 0.03923982 0.9516549 0.4961408 0.9516549 0.4961408 0.9516549 0.953041 0.9516549 0.953041 0.6456935 0.4961408 0.9516549 0.953041 0.6456935 0.4961408 0.6456935 0.4961408 0.6456935 0.953041 0.6456935 0.953041 0.3397324 0.4961408 0.03377139 0.4961408 0.3397324 0.953041 0.3397324 0.4961408 0.03377139 0.953041 0.3397324 0.953041 0.03377139 0.4961408 0.6456935 0.953041 0.3397324 0.4961408 0.3397324 0.03923982 0.3397324 0.4961408 0.3397324 0.4961408 0.03377139 0.03923982 0.3397324 0.4961408 0.6456935 0.4961408 0.3397324 0.03923982 0.3397324 0.4961408 0.03377139 0.03923982 0.03377139 0.03923982 0.3397324 0.03923982 0.6456935 0.4961408 0.6456935 0.03923982 0.6456935 0.4961408 0.9516549 0.4961408 0.6456935 0.03923982 0.6456935 0.03923982 0.9516549 0.4961408 0.9516549 0.4961408 0.9516549 0.953041 0.9516549 0.953041 0.6456935 0.4961408 0.9516549 0.953041 0.6456935 0.4961408 0.6456935 0.4961408 0.6456935 0.953041 0.6456935 0.953041 0.3397324 0.4961408 0.03377139 0.4961408 0.3397324 0.953041 0.3397324 0.4961408 0.03377139 0.953041 0.3397324 0.953041 0.03377139 0.4961408 0.6456935 0.953041 0.3397324 0.4961408 0.3397324 0.03923982 0.3397324 0.4961408 0.3397324 0.4961408 0.03377139 0.03923982 0.3397324 0.4961408 0.6456935 0.4961408 0.3397324 0.03923982 0.3397324 0.4961408 0.03377139 0.03923982 0.03377139 0.03923982 0.3397324 0.03923982 0.6456935 0.4961408 0.6456935 0.03923982 0.6456935 0.4961408 0.9516549 0.4961408 0.6456935 0.03923982 0.6456935 0.03923982 0.9516549 0.4961408 0.9516549 0.4961408 0.9516549 0.953041 0.9516549 0.953041 0.6456935 0.4961408 0.9516549 0.953041 0.6456935 0.4961408 0.6456935 0.4961408 0.6456935 0.953041 0.6456935 0.953041 0.3397324 0.4961408 0.03377139 0.4961408 0.3397324 0.953041 0.3397324 0.4961408 0.03377139 0.953041 0.3397324 0.953041 0.03377139 0.4961408 0.6456935 0.953041 0.3397324 0.4961408 0.3397324 0.03923982 0.3397324 0.4961408 0.3397324 0.4961408 0.03377139 0.03923982 0.3397324 0.4961408 0.6456935 0.4961408 0.3397324 0.03923982 0.3397324 0.4961408 0.03377139 0.03923982 0.03377139 0.03923982 0.3397324 0.03923982 0.6456935 0.4961408 0.6456935 0.03923982 0.6456935 0.4961408 0.9516549 0.4961408 0.6456935 0.03923982 0.6456935 0.03923982 0.9516549 0.4961408 0.9516549</float_array>
          <technique_common>
            <accessor source="#Circle_106-mesh-map-0-array" count="144" stride="2">
              <param name="S" type="float"/>
              <param name="T" type="float"/>
            </accessor>
          </technique_common>
        </source>
        <vertices id="Circle_106-mesh-vertices">
          <input semantic="POSITION" source="#Circle_106-mesh-positions"/>
        </vertices>
        <triangles material="PLUMA_AZUL-material" count="48">
          <input semantic="VERTEX" source="#Circle_106-mesh-vertices" offset="0"/>
          <input semantic="NORMAL" source="#Circle_106-mesh-normals" offset="1"/>
          <input semantic="TEXCOORD" source="#Circle_106-mesh-map-0" offset="2" set="0"/>
          <p>1 0 0 0 1 1 2 2 2 1 0 3 2 2 4 3 3 5 3 3 6 2 2 7 4 4 8 5 5 9 7 6 10 4 4 11 5 5 12 4 4 13 6 7 14 3 3 15 4 4 16 7 6 17 8 8 18 7 9 19 5 10 20 8 8 21 3 11 22 7 9 23 8 8 24 5 10 25 9 12 26 8 8 27 10 13 28 3 11 29 10 13 30 1 14 31 3 11 32 10 13 33 11 15 34 1 14 35 13 16 36 12 17 37 14 18 38 13 16 39 14 18 40 15 19 41 15 19 42 14 18 43 16 20 44 17 21 45 19 22 46 16 20 47 17 21 48 16 20 49 18 23 50 15 19 51 16 20 52 19 22 53 20 24 54 19 25 55 17 26 56 20 24 57 15 27 58 19 25 59 20 24 60 17 26 61 21 28 62 20 24 63 22 29 64 15 27 65 22 29 66 13 30 67 15 27 68 22 29 69 23 31 70 13 30 71 25 32 72 24 33 73 26 34 74 25 32 75 26 34 76 27 35 77 27 35 78 26 34 79 28 36 80 29 37 81 31 38 82 28 36 83 29 37 84 28 36 85 30 39 86 27 35 87 28 36 88 31 38 89 32 40 90 31 41 91 29 42 92 32 40 93 27 43 94 31 41 95 32 40 96 29 42 97 33 44 98 32 40 99 34 45 100 27 43 101 34 45 102 25 46 103 27 43 104 34 45 105 35 47 106 25 46 107 37 48 108 36 49 109 38 50 110 37 48 111 38 50 112 39 51 113 39 51 114 38 50 115 40 52 116 41 53 117 43 54 118 40 52 119 41 53 120 40 52 121 42 55 122 39 51 123 40 52 124 43 54 125 44 56 126 43 57 127 41 58 128 44 56 129 39 59 130 43 57 131 44 56 132 41 58 133 45 60 134 44 56 135 46 61 136 39 59 137 46 61 138 37 62 139 39 59 140 46 61 141 47 63 142 37 62 143</p>
        </triangles>
      </mesh>
    </geometry>
  </library_geometries>
  <library_visual_scenes>
    <visual_scene id="Scene" name="Scene">
      <node id="a-feathers_lib_03_02" name="a-feathers_lib_03_02" type="NODE">
        <matrix sid="transform">1 0 0 0 0 1 0 0 0 0 1 0 0 0 0 1</matrix>
        <instance_geometry url="#Circle_106-mesh" name="a-feathers_lib_03_02">
          <bind_material>
            <technique_common>
              <instance_material symbol="PLUMA_AZUL-material" target="#PLUMA_AZUL-material">
                <bind_vertex_input semantic="Circle_028-mesh-map-0" input_semantic="TEXCOORD" input_set="0"/>
              </instance_material>
            </technique_common>
          </bind_material>
        </instance_geometry>
      </node>
    </visual_scene>
  </library_visual_scenes>
  <scene>
    <instance_visual_scene url="#Scene"/>
  </scene>
</COLLADA>