<?xml version="1.0" encoding="utf-8"?>
<COLLADA xmlns="http://www.collada.org/2005/11/COLLADASchema" version="1.4.1" xmlns:xsi="http://www.w3.org/2001/XMLSchema-instance">
  <asset>
    <contributor>
      <author>Blender User</author>
      <authoring_tool>Blender 4.3.1 commit date:2024-12-10, commit time:07:46, hash:33d812126174</authoring_tool>
    </contributor>
    <created>2026-08-08T10:51:58</created>
    <modified>2026-08-08T10:51:58</modified>
    <unit name="meter" meter="1"/>
    <up_axis>Z_UP</up_axis>
  </asset>
  <library_effects>
    <effect id="PLUMA_ROJA-effect">
      <profile_COMMON>
        <newparam sid="feather_png-surface">
          <surface type="2D">
            <init_from>feather_png</init_from>
          </surface>
        </newparam>
        <newparam sid="feather_png-sampler">
          <sampler2D>
            <source>feather_png-surface</source>
          </sampler2D>
        </newparam>
        <technique sid="common">
          <lambert>
            <emission>
              <color sid="emission">0 0 0 1</color>
            </emission>
            <diffuse>
              <texture texture="feather_png-sampler" texcoord="Circle_028-mesh-map-0"/>
            </diffuse>
            <index_of_refraction>
              <float sid="ior">1.45</float>
            </index_of_refraction>
          </lambert>
        </technique>
      </profile_COMMON>
    </effect>
  </library_effects>
  <library_images>
    <image id="feather_png" name="feather_png">
      <init_from>/home/welton/Downloads/feather.png</init_from>
    </image>
  </library_images>
  <library_materials>
    <material id="PLUMA_ROJA-material" name="PLUMA ROJA">
      <instance_effect url="#PLUMA_ROJA-effect"/>
    </material>
  </library_materials>
  <library_geometries>
    <geometry id="Circle_110-mesh" name="Circle.110">
      <mesh>
        <source id="Circle_110-mesh-positions">
          <float_array id="Circle_110-mesh-positions-array" count="144">0.4113946 0.2614994 1.103876 0.4414541 0.103722 1.301652 0.2385789 0.2290575 0.9859684 0.1507502 0.04971867 1.067355 0.1219112 0.2072331 0.7344136 0.0114454 0.02373152 0.5010266 0.1226712 0.2074567 0.4487352 0.01461863 0.02440893 0.7839568 0.1800223 -0.1047684 0.7333951 0.1809009 -0.1052474 0.4532132 0.2958042 -0.08355784 0.9885852 0.4700354 -0.05254149 1.104623 -0.4746302 -0.04869049 1.103875 -0.4445282 0.1090786 1.301652 -0.3020009 -0.0821107 0.9859681 -0.1543473 0.05233162 1.067355 -0.1854876 -0.1047441 0.7344132 -0.0152533 0.02523976 0.5010262 -0.1862764 -0.1046723 0.4487348 -0.018453 0.02577733 0.7839561 -0.1247239 0.2067517 0.7333951 -0.1253647 0.2075206 0.4532127 -0.2401876 0.2296301 0.9885845 -0.4136088 0.2648965 1.104623 -0.3057059 0.3877716 1.103876 -0.1552496 0.4439864 1.301652 -0.2446089 0.2228931 0.9859681 -0.05303514 0.1665384 1.067355 -0.2034384 0.1115711 0.7344134 -0.003947019 0.03360414 0.5010262 -0.2037866 0.1122823 0.4487352 -0.005149483 0.03661775 0.7839565 0.09431076 0.2214227 0.7333951 0.09463477 0.2223697 0.4532127 0.05389451 0.3319752 0.988585 -0.006036043 0.4984892 1.104623 0.009638071 0.5015524 1.103875 0.1600792 0.4452971 1.301651 -0.05239188 0.3370227 0.9859674 0.05524897 0.1688269 1.067355 -0.09433388 0.2259889 0.7344127 0.005107402 0.03628647 0.5010252 -0.09413015 0.2267543 0.4487343 0.006176352 0.03934991 0.7839558 0.2024695 0.1136077 0.7333944 0.2033355 0.1141097 0.4532123 0.2444763 0.2235657 0.9885843 0.3084595 0.3885647 1.104622</float_array>
          <technique_common>
            <accessor source="#Circle_110-mesh-positions-array" count="48" stride="3">
              <param name="X" type="float"/>
              <param name="Y" type="float"/>
              <param name="Z" type="float"/>
            </accessor>
          </technique_common>
        </source>
        <source id="Circle_110-mesh-normals">
          <float_array id="Circle_110-mesh-normals-array" count="192">-0.5510822 0.5912087 0.588881 -0.5147928 0.6303328 0.5810928 -0.6791772 0.5655267 0.4678653 -0.6954438 0.5526251 0.4593077 -0.8323677 0.5313546 0.1575636 -0.8580479 0.5135644 0.002335727 -0.8272454 0.5333487 0.1766471 -0.8556854 0.5174931 -0.001871347 -0.5798105 -0.7998812 0.1549515 -0.572041 -0.8012033 0.1756201 -0.6090781 -0.7931035 0.003282546 -0.4502522 -0.7676071 0.4561275 -0.6057533 -0.7956524 -5.39194e-4 -0.4303965 -0.7732114 0.4657285 -0.298736 -0.7513317 0.5884366 -0.2478778 -0.7762327 0.5796718 0.2948921 -0.752501 0.5888811 0.2467522 -0.7755286 0.5810928 0.4234516 -0.775752 0.4678652 0.4433243 -0.7697402 0.4593077 0.5784695 -0.8003417 0.1575633 0.6088938 -0.7932484 0.002335429 0.5729728 -0.8003114 0.1766465 0.6052517 -0.796032 -0.001871466 0.8334455 0.5304326 0.1549514 0.8267078 0.5345204 0.1756193 0.8581661 0.5133616 0.003282248 0.7011004 0.5480931 0.4561275 0.8560124 0.5169551 -5.39365e-4 0.6847001 0.5606098 0.4657279 0.5542255 0.5887081 0.588436 0.5160986 0.6305741 0.5796711 -0.4898997 -0.6428202 0.5888808 -0.5345792 -0.6136419 0.5810927 -0.4430011 -0.7647565 0.4678649 -0.4275431 -0.7786164 0.4593075 -0.3835052 -0.9099987 0.1575635 -0.3616422 -0.932314 0.002335667 -0.3863341 -0.9052856 0.1766468 -0.3659124 -0.9306474 -0.001871109 0.8861415 -0.436742 0.1549513 0.8861354 -0.4288611 0.1756199 0.8843923 -0.4667329 0.00328195 0.8324984 -0.3144738 0.4561279 0.8863448 -0.4630258 -5.40052e-4 0.8346771 -0.2939577 0.4657287 0.7909254 -0.1678663 0.588437 0.8069007 -0.1135402 0.5796722 -0.7914301 -0.163882 0.5888812 -0.8060167 -0.1125516 0.5810931 -0.8360108 -0.2866848 0.4678653 -0.8334338 -0.3072857 0.4593077 -0.8863697 -0.4353421 0.1575633 -0.8845041 -0.4665267 0.002335429 -0.8854136 -0.4299287 0.1766467 -0.8866341 -0.4624678 -0.001871287 0.3824153 -0.9109054 0.1549514 0.3875801 -0.9049528 0.1756197 0.3614228 -0.9323964 0.003282666 0.422123 -0.7834283 0.4561275 0.3653278 -0.9308788 -5.38896e-4 0.4372241 -0.7693712 0.4657285 0.4869047 -0.6454966 0.588437 0.534596 -0.614969 0.5796726</float_array>
          <technique_common>
            <accessor source="#Circle_110-mesh-normals-array" count="64" stride="3">
              <param name="X" type="float"/>
              <param name="Y" type="float"/>
              <param name="Z" type="float"/>
            </accessor>
          </technique_common>
        </source>
        <source id="Circle_110-mesh-map-0">
          <float_array id="Circle_110-mesh-map-0-array" count="288">0.4961408 0.9516549 0.953041 0.9516549 0.953041 0.6456935 0.4961408 0.9516549 0.953041 0.6456935 0.4961408 0.6456935 0.4961408 0.6456935 0.953041 0.6456935 0.953041 0.3397324 0.4961408 0.03377139 0.4961408 0.3397324 0.953041 0.3397324 0.4961408 0.03377139 0.953041 0.3397324 0.953041 0.03377139 0.4961408 0.6456935 0.953041 0.3397324 0.4961408 0.3397324 0.03923982 0.3397324 0.4961408 0.3397324 0.4961408 0.03377139 0.03923982 0.3397324 0.4961408 0.6456935 0.4961408 0.3397324 0.03923982 0.3397324 0.4961408 0.03377139 0.03923982 0.03377139 0.03923982 0.3397324 0.03923982 0.6456935 0.4961408 0.6456935 0.03923982 0.6456935 0.4961408 0.9516549 0.4961408 0.6456935 0.03923982 0.6456935 0.03923982 0.9516549 0.4961408 0.9516549 0.4961408 0.9516549 0.953041 0.9516549 0.953041 0.6456935 0.4961408 0.9516549 0.953041 0.6456935 0.4961408 0.6456935 0.4961408 0.6456935 0.953041 0.6456935 0.953041 0.3397324 0.4961408 0.03377139 0.4961408 0.3397324 0.953041 0.3397324 0.4961408 0.03377139 0.953041 0.3397324 0.953041 0.03377139 0.4961408 0.6456935 0.953041 0.3397324 0.4961408 0.3397324 0.03923982 0.3397324 0.4961408 0.3397324 0.4961408 0.03377139 0.03923982 0.3397324 0.4961408 0.6456935 0.4961408 0.3397324 0.03923982 0.3397324 0.4961408 0.03377139 0.03923982 0.03377139 0.03923982 0.3397324 0.03923982 0.6456935 0.4961408 0.6456935 0.03923982 0.6456935 0.4961408 0.9516549 0.4961408 0.6456935 0.03923982 0.6456935 0.03923982 0.9516549 0.4961408 0.9516549 0.4961408 0.9516549 0.953041 0.9516549 0.953041 0.6456935 0.4961408 0.9516549 0.953041 0.6456935 0.4961408 0.6456935 0.4961408 0.6456935 0.953041 0.6456935 0.953041 0.3397324 0.4961408 0.03377139 0.4961408 0.3397324 0.953041 0.3397324 0.4961408 0.03377139 0.953041 0.3397324 0.953041 0.03377139 0.4961408 0.6456935 0.953041 0.3397324 0.4961408 0.3397324 0.03923982 0.3397324 0.4961408 0.3397324 0.4961408 0.03377139 0.03923982 0.3397324 0.4961408 0.6456935 0.4961408 0.3397324 0.03923982 0.3397324 0.4961408 0.03377139 0.03923982 0.03377139 0.03923982 0.3397324 0.03923982 0.6456935 0.4961408 0.6456935 0.03923982 0.6456935 0.4961408 0.9516549 0.4961408 0.6456935 0.03923982 0.6456935 0.03923982 0.9516549 0.4961408 0.9516549 0.4961408 0.9516549 0.953041 0.9516549 0.953041 0.6456935 0.4961408 0.9516549 0.953041 0.6456935 0.4961408 0.6456935 0.4961408 0.6456935 0.953041 0.6456935 0.953041 0.3397324 0.4961408 0.03377139 0.4961408 0.3397324 0.953041 0.3397324 0.4961408 0.03377139 0.953041 0.3397324 0.953041 0.03377139 0.4961408 0.6456935 0.953041 0.3397324 0.4961408 0.3397324 0.03923982 0.3397324 0.4961408 0.3397324 0.4961408 0.03377139 0.03923982 0.3397324 0.4961408 0.6456935 0.4961408 0.3397324 0.03923982 0.3397324 0.4961408 0.03377139 0.03923982 0.03377139 0.03923982 0.3397324 0.03923982 0.6456935 0.4961408 0.6456935 0.03923982 0.6456935 0.4961408 0.9516549 0.4961408 0.6456935 0.03923982 0.6456935 0.03923982 0.9516549 0.4961408 0.9516549</float_array>
          <technique_common>
            <accessor source="#Circle_110-mesh-map-0-array" count="144" stride="2">
              <param name="S" type="float"/>
              <param name="T" type="float"/>
            </accessor>
          </technique_common>
        </source>
        <vertices id="Circle_110-mesh-vertices">
          <input semantic="POSITION" source="#Circle_110-mesh-positions"/>
        </vertices>
        <triangles material="PLUMA_ROJA-material" count="48">
          <input semantic="VERTEX" source="#Circle_110-mesh-vertices" offset="0"/>
          <input semantic="NORMAL" source="#Circle_110-mesh-normals" offset="1"/>
          <input semantic="TEXCOORD" source="#Circle_110-mesh-map-0" offset="2" set="0"/>
          <p>1 0 0 0 1 1 2 2 2 1 0 3 2 2 4 3 3 5 3 3 6 2 2 7 4 4 8 5 5 9 7 6 10 4 4 11 5 5 12 4 4 13 6 7 14 3 3 15 4 4 16 7 6 17 8 8 18 7 9 19 5 10 20 8 8 21 3 11 22 7 9 23 8 8 24 5 10 25 9 12 26 8 8 27 10 13 28 3 11 29 10 13 30 1 14 31 3 11 32 10 13 33 11 15 34 1 14 35 13 16 36 12 17 37 14 18 38 13 16 39 14 18 40 15 19 41 15 19 42 14 18 43 16 20 44 17 21 45 19 22 46 16 20 47 17 21 48 16 20 49 18 23 50 15 19 51 16 20 52 19 22 53 20 24 54 19 25 55 17 26 56 20 24 57 15 27 58 19 25 59 20 24 60 17 26 61 21 28 62 20 24 63 22 29 64 15 27 65 22 29 66 13 30 67 15 27 68 22 29 69 23 31 70 13 30 71 25 32 72 24 33 73 26 34 74 25 32 75 26 34 76 27 35 77 27 35 78 26 34 79 28 36 80 29 37 81 31 38 82 28 36 83 29 37 84 28 36 85 30 39 86 27 35 87 28 36 88 31 38 89 32 40 90 31 41 91 29 42 92 32 40 93 27 43 94 31 41 95 32 40 96 29 42 97 33 44 98 32 40 99 34 45 100 27 43 101 34 45 102 25 46 103 27 43 104 34 45 105 35 47 106 25 46 107 37 48 108 36 49 109 38 50 110 37 48 111 38 50 112 39 51 113 39 51 114 38 50 115 40 52 116 41 53 117 43 54 118 40 52 119 41 53 120 40 52 121 42 55 122 39 51 123 40 52 124 43 54 125 44 56 126 43 57 127 41 58 128 44 56 129 39 59 130 43 57 131 44 56 132 41 58 133 45 60 134 44 56 135 46 61 136 39 59 137 46 61 138 37 62 139 39 59 140 46 61 141 47 63 142 37 62 143</p>
        </triangles>
      </mesh>
    </geometry>
  </library_geometries>
  <library_visual_scenes>
    <visual_scene id="Scene" name="Scene">
      <node id="a-feathers_lib_03_01" name="a-feathers_lib_03_01" type="NODE">
        <matrix sid="transform">1 0 0 0 0 1 0 0 0 0 1 0 0 0 0 1</matrix>
        <instance_geometry url="#Circle_110-mesh" name="a-feathers_lib_03_01">
          <bind_material>
            <technique_common>
              <instance_material symbol="PLUMA_ROJA-material" target="#PLUMA_ROJA-material">
                <bind_vertex_input semantic="Circle_028-mesh-map-0" input_semantic="TEXCOORD" input_set="0"/>
              </instance_material>
            </technique_common>
          </bind_material>
        </instance_geometry>
      </node>
    </visual_scene>
  </library_visual_scenes>
  <scene>
    <instance_visual_scene url="#Scene"/>
  </scene>
</COLLADA>