<?xml version="1.0" encoding="utf-8"?>
<COLLADA xmlns="http://www.collada.org/2005/11/COLLADASchema" version="1.4.1" xmlns:xsi="http://www.w3.org/2001/XMLSchema-instance">
  <asset>
    <contributor>
      <author>Blender User</author>
      <authoring_tool>Blender 4.3.1 commit date:2024-12-10, commit time:07:46, hash:33d812126174</authoring_tool>
    </contributor>
    <created>2026-08-08T10:46:30</created>
    <modified>2026-08-08T10:46:30</modified>
    <unit name="meter" meter="1"/>
    <up_axis>Z_UP</up_axis>
  </asset>
  <library_effects>
    <effect id="pluma__-effect">
      <profile_COMMON>
        <newparam sid="feather_ostrich_white_png-surface">
          <surface type="2D">
            <init_from>feather_ostrich_white_png</init_from>
          </surface>
        </newparam>
        <newparam sid="feather_ostrich_white_png-sampler">
          <sampler2D>
            <source>feather_ostrich_white_png-surface</source>
          </sampler2D>
        </newparam>
        <technique sid="common">
          <lambert>
            <emission>
              <color sid="emission">0 0 0 1</color>
            </emission>
            <diffuse>
              <texture texture="feather_ostrich_white_png-sampler" texcoord="Circle_028-mesh-map-0"/>
            </diffuse>
            <index_of_refraction>
              <float sid="ior">1.45</float>
            </index_of_refraction>
          </lambert>
        </technique>
      </profile_COMMON>
    </effect>
  </library_effects>
  <library_images/>
  <library_materials>
    <material id="pluma__-material" name="pluma  ">
      <instance_effect url="#pluma__-effect"/>
    </material>
  </library_materials>
  <library_geometries>
    <geometry id="Circle_012-mesh" name="Circle.012">
      <mesh>
        <source id="Circle_012-mesh-positions">
          <float_array id="Circle_012-mesh-positions-array" count="72">-0.1595254 0.3248544 1.036331 0.001088678 0.3254595 1.234107 -0.1593371 0.1490199 0.9184237 8.45984e-4 0.02978229 0.9998107 -0.1592857 0.03032863 0.6668687 8.36807e-4 -0.1119257 0.4334817 -0.1593659 0.0311166 0.3811903 7.52968e-4 -0.1086822 0.7164118 0.1580812 0.03021693 0.6658504 0.1587134 0.03099298 0.3856683 0.1584708 0.1479249 0.9210403 0.1599437 0.3248893 1.037079 0.001080572 0.327338 1.231486 -0.157666 0.1503204 0.9173172 -0.1578484 0.3257712 1.034966 8.2863e-4 0.03230488 0.9978154 -0.1576797 0.03204369 0.6664844 8.25661e-4 -0.1087807 0.4334712 7.40279e-4 -0.1055278 0.7156534 -0.1578026 0.0328691 0.3811946 0.1564701 0.03192651 0.6654711 0.1571377 0.03273415 0.3856697 0.1567935 0.1492264 0.9199405 0.1582584 0.325796 1.035717</float_array>
          <technique_common>
            <accessor source="#Circle_012-mesh-positions-array" count="24" stride="3">
              <param name="X" type="float"/>
              <param name="Y" type="float"/>
              <param name="Z" type="float"/>
            </accessor>
          </technique_common>
        </source>
        <source id="Circle_012-mesh-normals">
          <float_array id="Circle_012-mesh-normals-array" count="186">-0.6822708 -0.433273 0.5888813 -0.7140731 -0.3904229 0.5810934 -0.6805239 -0.5639054 0.4678654 -0.6708256 -0.5822625 0.4593077 -0.6750345 -0.7207651 0.1575633 -0.6622571 -0.7492731 0.002335369 -0.6760551 -0.7153639 0.1766467 -0.6656855 -0.74623 -0.001871466 0.6799408 -0.7167082 0.1549514 0.6826658 -0.7093132 0.17562 0.667909 -0.7442358 0.003282129 0.6719818 -0.583428 0.4561277 0.6710246 -0.7414349 -5.39522e-4 0.6811332 -0.5649378 0.4657285 0.6837775 -0.4314984 0.5884366 0.7175852 -0.3860728 0.5796719 0.682512 0.4329708 -0.588824 0.6805129 0.5639104 -0.4678754 0.7143809 0.3902297 -0.5808449 0.6708409 0.5822283 -0.4593288 0.6750369 0.7207814 -0.1574786 0.6622684 0.7492631 -0.002323448 0.6760523 0.7153567 -0.1766868 0.665717 0.7462021 0.001872241 -0.6799421 0.7167227 -0.1548785 -0.6679188 0.7442269 -0.003277122 -0.6826683 0.7092967 -0.1756765 -0.6719269 0.5834637 -0.4561628 -0.6710566 0.7414059 5.38858e-4 -0.6810516 0.5649982 -0.4657744 -0.6839855 0.4312254 -0.5883948 -0.7178934 0.3858801 -0.5794183 -0.3090736 0.9195591 0.2426614 -0.5844896 0.6595444 0.4726238 -0.3071268 0.9206358 0.2410455 -0.7381532 0.6585344 -0.1465004 -0.7147411 0.529564 -0.4568447 -0.7382724 0.6584516 -0.1462716 0.1802398 -0.1565197 -0.9710897 0.01141571 -0.004035353 -0.9999268 0.01225471 -0.003291666 -0.9999195 0.6965043 0.3894137 -0.602693 0.7127087 0.5289494 -0.4607155 0.696501 0.3894155 -0.6026956 -0.7001017 0.3971673 -0.5933934 -0.71468 0.5301904 -0.4562134 0.7358306 0.6616784 -0.1439971 0.7126502 0.5296604 -0.459989 0.7413779 0.6710776 0.003705084 0.7359442 0.6616572 -0.1435128 0.3065758 0.9213741 0.2389166 0.5852202 0.6608433 0.4698973 0.5861459 0.6594709 0.470671 -0.7461614 0.6657614 0.002246379 -0.746247 0.6656654 0.002247214 -0.1652022 -0.1469254 -0.9752544 -0.1643257 -0.147915 -0.9752529 -0.5853962 0.6581915 0.4733871 0.1793172 -0.1575762 -0.9710897 -0.7000951 0.397171 -0.5933989 0.7414525 0.6709952 0.003705978 0.3045919 0.9224539 0.2372818</float_array>
          <technique_common>
            <accessor source="#Circle_012-mesh-normals-array" count="62" stride="3">
              <param name="X" type="float"/>
              <param name="Y" type="float"/>
              <param name="Z" type="float"/>
            </accessor>
          </technique_common>
        </source>
        <source id="Circle_012-mesh-map-0">
          <float_array id="Circle_012-mesh-map-0-array" count="264">0.4961408 0.9516549 0.953041 0.9516549 0.953041 0.6456935 0.4961408 0.9516549 0.953041 0.6456935 0.4961408 0.6456935 0.4961408 0.6456935 0.953041 0.6456935 0.953041 0.3397324 0.4961408 0.03377139 0.4961408 0.3397324 0.953041 0.3397324 0.4961408 0.03377139 0.953041 0.3397324 0.953041 0.03377139 0.4961408 0.6456935 0.953041 0.3397324 0.4961408 0.3397324 0.03923982 0.3397324 0.4961408 0.3397324 0.4961408 0.03377139 0.03923982 0.3397324 0.4961408 0.6456935 0.4961408 0.3397324 0.03923982 0.3397324 0.4961408 0.03377139 0.03923982 0.03377139 0.03923982 0.3397324 0.03923982 0.6456935 0.4961408 0.6456935 0.03923982 0.6456935 0.4961408 0.9516549 0.4961408 0.6456935 0.03923982 0.6456935 0.03923982 0.9516549 0.4961408 0.9516549 0.4961408 0.9516549 0.953041 0.6456935 0.953041 0.9516549 0.4961408 0.9516549 0.4961408 0.6456935 0.953041 0.6456935 0.4961408 0.6456935 0.953041 0.3397324 0.953041 0.6456935 0.4961408 0.03377139 0.953041 0.3397324 0.4961408 0.3397324 0.4961408 0.03377139 0.953041 0.03377139 0.953041 0.3397324 0.4961408 0.6456935 0.4961408 0.3397324 0.953041 0.3397324 0.03923982 0.3397324 0.4961408 0.03377139 0.4961408 0.3397324 0.03923982 0.3397324 0.4961408 0.3397324 0.4961408 0.6456935 0.03923982 0.3397324 0.03923982 0.03377139 0.4961408 0.03377139 0.03923982 0.3397324 0.4961408 0.6456935 0.03923982 0.6456935 0.03923982 0.6456935 0.4961408 0.6456935 0.4961408 0.9516549 0.03923982 0.6456935 0.4961408 0.9516549 0.03923982 0.9516549 0.953041 0.9516549 0.4961408 0.9516549 0.953041 0.9516549 0.953041 0.3397324 0.953041 0.6456935 0.953041 0.3397324 0.953041 0.03377139 0.4961408 0.03377139 0.4961408 0.03377139 0.03923982 0.9516549 0.03923982 0.6456935 0.03923982 0.9516549 0.953041 0.9516549 0.953041 0.6456935 0.953041 0.6456935 0.03923982 0.3397324 0.03923982 0.6456935 0.03923982 0.6456935 0.03923982 0.03377139 0.03923982 0.3397324 0.03923982 0.3397324 0.03923982 0.9516549 0.4961408 0.9516549 0.4961408 0.9516549 0.953041 0.03377139 0.953041 0.3397324 0.953041 0.03377139 0.03923982 0.03377139 0.4961408 0.03377139 0.03923982 0.03377139 0.953041 0.9516549 0.4961408 0.9516549 0.4961408 0.9516549 0.953041 0.3397324 0.953041 0.6456935 0.953041 0.6456935 0.953041 0.03377139 0.953041 0.03377139 0.4961408 0.03377139 0.03923982 0.9516549 0.03923982 0.6456935 0.03923982 0.6456935 0.953041 0.9516549 0.953041 0.9516549 0.953041 0.6456935 0.03923982 0.3397324 0.03923982 0.3397324 0.03923982 0.6456935 0.03923982 0.03377139 0.03923982 0.03377139 0.03923982 0.3397324 0.03923982 0.9516549 0.03923982 0.9516549 0.4961408 0.9516549 0.953041 0.03377139 0.953041 0.3397324 0.953041 0.3397324 0.03923982 0.03377139 0.4961408 0.03377139 0.4961408 0.03377139</float_array>
          <technique_common>
            <accessor source="#Circle_012-mesh-map-0-array" count="132" stride="2">
              <param name="S" type="float"/>
              <param name="T" type="float"/>
            </accessor>
          </technique_common>
        </source>
        <vertices id="Circle_012-mesh-vertices">
          <input semantic="POSITION" source="#Circle_012-mesh-positions"/>
        </vertices>
        <triangles material="pluma__-material" count="44">
          <input semantic="VERTEX" source="#Circle_012-mesh-vertices" offset="0"/>
          <input semantic="NORMAL" source="#Circle_012-mesh-normals" offset="1"/>
          <input semantic="TEXCOORD" source="#Circle_012-mesh-map-0" offset="2" set="0"/>
          <p>1 0 0 0 1 1 2 2 2 1 0 3 2 2 4 3 3 5 3 3 6 2 2 7 4 4 8 5 5 9 7 6 10 4 4 11 5 5 12 4 4 13 6 7 14 3 3 15 4 4 16 7 6 17 8 8 18 7 9 19 5 10 20 8 8 21 3 11 22 7 9 23 8 8 24 5 10 25 9 12 26 8 8 27 10 13 28 3 11 29 10 13 30 1 14 31 3 11 32 10 13 33 11 15 34 1 14 35 12 16 36 13 17 37 14 18 38 12 16 39 15 19 40 13 17 41 15 19 42 16 20 43 13 17 44 17 21 45 16 20 46 18 22 47 17 21 48 19 23 49 16 20 50 15 19 51 18 22 52 16 20 53 20 24 54 17 25 55 18 26 56 20 24 57 18 26 58 15 27 59 20 24 60 21 28 61 17 25 62 20 24 63 15 27 64 22 29 65 22 29 66 15 27 67 12 30 68 22 29 69 12 30 70 23 31 71 0 32 72 12 33 73 14 34 74 4 35 75 13 36 76 16 37 77 6 38 78 17 39 79 5 40 80 11 41 81 22 42 82 23 43 83 0 44 84 13 36 85 2 45 86 8 46 87 22 42 88 10 47 89 9 48 90 20 49 91 8 46 92 11 50 93 12 51 94 1 52 95 6 53 96 16 37 97 19 54 98 9 55 99 17 39 100 21 56 101 0 32 102 1 57 103 12 33 104 4 35 105 2 45 106 13 36 107 6 38 108 19 58 109 17 39 110 11 41 111 10 47 112 22 42 113 0 44 114 14 59 115 13 36 116 8 46 117 20 49 118 22 42 119 9 48 120 21 60 121 20 49 122 11 50 123 23 61 124 12 51 125 6 53 126 4 35 127 16 37 128 9 55 129 5 40 130 17 39 131</p>
        </triangles>
      </mesh>
    </geometry>
  </library_geometries>
  <library_visual_scenes>
    <visual_scene id="Scene" name="Scene">
      <node id="a-feathers_lib_01_02" name="a-feathers_lib_01_02" type="NODE">
        <matrix sid="transform">1 0 0 0 0 1 0 0 0 0 1 0 0 0 0 1</matrix>
        <instance_geometry url="#Circle_012-mesh" name="a-feathers_lib_01_02">
          <bind_material>
            <technique_common>
              <instance_material symbol="pluma__-material" target="#pluma__-material">
                <bind_vertex_input semantic="Circle_028-mesh-map-0" input_semantic="TEXCOORD" input_set="0"/>
              </instance_material>
            </technique_common>
          </bind_material>
        </instance_geometry>
      </node>
    </visual_scene>
  </library_visual_scenes>
  <scene>
    <instance_visual_scene url="#Scene"/>
  </scene>
</COLLADA>