<?xml version="1.0" encoding="utf-8"?>
<COLLADA xmlns="http://www.collada.org/2005/11/COLLADASchema" version="1.4.1" xmlns:xsi="http://www.w3.org/2001/XMLSchema-instance">
  <asset>
    <contributor>
      <author>Blender User</author>
      <authoring_tool>Blender 4.3.1 commit date:2024-12-10, commit time:07:46, hash:33d812126174</authoring_tool>
    </contributor>
    <created>2026-08-22T18:58:26</created>
    <modified>2026-08-22T18:58:26</modified>
    <unit name="meter" meter="1"/>
    <up_axis>Z_UP</up_axis>
  </asset>
  <library_effects>
    <effect id="hierva_choza_gaetuli-effect">
      <profile_COMMON>
        <technique sid="common">
          <lambert>
            <emission>
              <color sid="emission">0 0 0 1</color>
            </emission>
            <diffuse>
              <color sid="diffuse">0.8 0.8 0.8 1</color>
            </diffuse>
            <index_of_refraction>
              <float sid="ior">1.45</float>
            </index_of_refraction>
          </lambert>
        </technique>
      </profile_COMMON>
    </effect>
  </library_effects>
  <library_images/>
  <library_materials>
    <material id="hierva_choza_gaetuli-material" name="hierva choza gaetuli">
      <instance_effect url="#hierva_choza_gaetuli-effect"/>
    </material>
  </library_materials>
  <library_geometries>
    <geometry id="Cube_011-mesh" name="Cube.011">
      <mesh>
        <source id="Cube_011-mesh-positions">
          <float_array id="Cube_011-mesh-positions-array" count="192">8.634688 -6.95705 3.902888 8.634688 -6.95705 0.4004871 11.3154 -10.66644 3.902888 11.3154 -10.66644 0.4004871 8.662317 -10.68855 3.902889 8.662317 -10.68855 0.4004871 11.28733 -7.100542 3.902889 11.28733 -7.100542 0.4004871 5.145239 -0.4849079 3.902888 5.145239 -0.4849079 0.4004871 1.544161 -3.309448 3.902888 1.544161 -3.309448 0.4004871 1.417709 -0.6592832 3.902889 1.417709 -0.6592832 0.4004871 5.106191 -3.141142 3.902889 5.106191 -3.141142 0.4004871 -5.188459 -0.5027845 3.902888 -5.188459 -0.5027845 0.4004871 -5.626121 -5.058467 3.902888 -5.626121 -5.058467 0.4004871 -7.632599 -3.322548 3.902889 -7.632599 -3.322548 0.4004871 -3.291713 -2.362744 3.902889 -3.291713 -2.362744 0.4004871 -11.47541 -6.957051 3.902888 -11.47541 -6.957051 0.4004871 -8.794693 -10.66644 3.902888 -8.794693 -10.66644 0.4004871 -11.44778 -10.68855 3.902889 -11.44778 -10.68855 0.4004871 -8.82277 -7.100543 3.902889 -8.82277 -7.100543 0.4004871 5.145238 -7.78861 3.902888 5.145238 -7.78861 0.4004871 1.54416 -10.61315 3.902888 1.54416 -10.61315 0.4004871 1.417708 -7.962986 3.902889 1.417708 -7.962986 0.4004871 5.10619 -10.44484 3.902889 5.10619 -10.44484 0.4004871 -2.934395 -7.610645 3.902888 -2.934395 -7.610645 0.4004871 -6.535472 -10.43519 3.902888 -6.535472 -10.43519 0.4004871 -6.661924 -7.785021 3.902889 -6.661924 -7.785021 0.4004871 -2.973443 -10.26688 3.902889 -2.973443 -10.26688 0.4004871 11.37548 10.93867 3.902888 11.37548 10.93867 0.4004871 7.63396 8.302979 3.902888 7.63396 8.302979 0.4004871 7.64391 10.95614 3.902889 7.64391 10.95614 0.4004871 11.19993 8.287953 3.902889 11.19993 8.287953 0.4004871 -7.716658 10.93866 3.902888 -7.716658 10.93866 0.4004871 -11.45817 8.302977 3.902888 -11.45817 8.302977 0.4004871 -11.44822 10.95614 3.902889 -11.44822 10.95614 0.4004871 -7.8922 8.28795 3.902889 -7.8922 8.28795 0.4004871</float_array>
          <technique_common>
            <accessor source="#Cube_011-mesh-positions-array" count="64" stride="3">
              <param name="X" type="float"/>
              <param name="Y" type="float"/>
              <param name="Z" type="float"/>
            </accessor>
          </technique_common>
        </source>
        <source id="Cube_011-mesh-normals">
          <float_array id="Cube_011-mesh-normals-array" count="153">-0.810502 -0.585736 0 -0.8105019 -0.585736 0 -0.8105019 -0.585736 0 -0.8105019 -0.5857359 0 -0.8070688 0.5904574 0 -0.8070688 0.5904576 0 -0.807069 0.5904573 0 -0.8070687 0.5904577 0 -0.6171624 0.786836 0 -0.6171624 0.7868359 0 0.5582567 0.8296684 0 0.5582567 0.8296683 0 0.5582566 0.8296685 0 -0.9954171 0.09562915 0 -0.9954171 0.09562915 0 -0.9954171 0.09562915 0 -0.2158934 0.976417 0 -0.2158935 0.976417 0 -0.2158934 0.976417 0 -0.8105016 -0.5857365 0 -0.8105017 -0.5857364 0 -0.8105016 -0.5857366 0 -0.8105015 -0.5857366 0 -0.8070691 0.5904571 0 -0.807069 0.5904572 0 -0.8070693 0.5904568 0 -0.8070688 0.5904574 0 -0.6171622 0.786836 0 -0.6171623 0.7868359 0 -0.5582559 -0.8296688 0 -0.5582559 -0.8296688 0 -0.6171632 0.7868353 0 -0.6171632 0.7868353 0 -0.5582569 -0.8296683 0 -0.5582568 -0.8296683 0 -0.5582569 -0.8296682 0 -0.5758981 0.8175215 0 -0.575898 0.8175216 0 -0.5758981 0.8175215 0 -0.5758982 0.8175215 0 0.6001687 0.7998735 0 0.6001686 0.7998735 0 0.6001688 0.7998734 0 0.6001684 0.7998737 0 -0.5758978 0.8175218 0 -0.5758978 0.8175218 0 -0.5758978 0.8175217 0 0.6001693 0.7998731 0 0.6001692 0.7998731 0 0.6001694 0.7998731 0 0.6001691 0.7998732 0</float_array>
          <technique_common>
            <accessor source="#Cube_011-mesh-normals-array" count="51" stride="3">
              <param name="X" type="float"/>
              <param name="Y" type="float"/>
              <param name="Z" type="float"/>
            </accessor>
          </technique_common>
        </source>
        <source id="Cube_011-mesh-map-0">
          <float_array id="Cube_011-mesh-map-0-array" count="192">0.9984335 0.6838312 1.000765 0.001214206 0.001161634 6.92369e-4 0.9984335 0.6838312 0.001161634 6.92369e-4 5.39125e-4 0.6833093 0.9984335 0.6838312 0.001161634 6.92369e-4 1.000765 0.001214206 0.9984335 0.6838312 5.39125e-4 0.6833093 0.001161634 6.92369e-4 0.9984335 0.6838312 1.000765 0.001214206 0.001161634 6.92369e-4 0.9984335 0.6838312 0.001161634 6.92369e-4 5.39125e-4 0.6833093 0.9984335 0.6838312 0.001161634 6.92369e-4 1.000765 0.001214206 0.9984335 0.6838312 5.39125e-4 0.6833093 0.001161634 6.92369e-4 0.9984335 0.6838312 1.000765 0.001214206 0.001161634 6.92369e-4 0.9984335 0.6838312 0.001161634 6.92369e-4 5.39125e-4 0.6833093 0.9984335 0.6838312 0.001161634 6.92369e-4 1.000765 0.001214206 0.9984335 0.6838312 5.39125e-4 0.6833093 0.001161634 6.92369e-4 0.9984335 0.6838312 1.000765 0.001214206 0.001161634 6.92369e-4 0.9984335 0.6838312 0.001161634 6.92369e-4 5.39125e-4 0.6833093 0.9984335 0.6838312 0.001161634 6.92369e-4 1.000765 0.001214206 0.9984335 0.6838312 5.39125e-4 0.6833093 0.001161634 6.92369e-4 0.9984335 0.6838312 1.000765 0.001214206 0.001161634 6.92369e-4 0.9984335 0.6838312 0.001161634 6.92369e-4 5.39125e-4 0.6833093 0.9984335 0.6838312 1.000765 0.001214206 0.001161634 6.92369e-4 0.9984335 0.6838312 0.001161634 6.92369e-4 5.39125e-4 0.6833093 0.9984335 0.6838312 1.000765 0.001214206 0.001161634 6.92369e-4 0.9984335 0.6838312 0.001161634 6.92369e-4 5.39125e-4 0.6833093 0.9984335 0.6838312 1.000765 0.001214206 0.001161634 6.92369e-4 0.9984335 0.6838312 0.001161634 6.92369e-4 5.39125e-4 0.6833093 0.9984335 0.6838312 1.000765 0.001214206 0.001161634 6.92369e-4 0.9984335 0.6838312 0.001161634 6.92369e-4 5.39125e-4 0.6833093 0.9984335 0.6838312 0.001161634 6.92369e-4 1.000765 0.001214206 0.9984335 0.6838312 5.39125e-4 0.6833093 0.001161634 6.92369e-4 0.9984335 0.6838312 1.000765 0.001214206 0.001161634 6.92369e-4 0.9984335 0.6838312 0.001161634 6.92369e-4 5.39125e-4 0.6833093 0.9984335 0.6838312 0.001161634 6.92369e-4 1.000765 0.001214206 0.9984335 0.6838312 5.39125e-4 0.6833093 0.001161634 6.92369e-4</float_array>
          <technique_common>
            <accessor source="#Cube_011-mesh-map-0-array" count="96" stride="2">
              <param name="S" type="float"/>
              <param name="T" type="float"/>
            </accessor>
          </technique_common>
        </source>
        <source id="Cube_011-mesh-map-1">
          <float_array id="Cube_011-mesh-map-1-array" count="192">0.4002844 0.5261616 0.5997155 0.5261616 0.5997155 0.78647 0.4002844 0.5261616 0.5997155 0.78647 0.4002844 0.78647 0.8005688 0.5008953 1 0.2535831 1 0.5008953 0.8005688 0.5008953 0.8005689 0.2535831 1 0.2535831 0 0.2651315 0.1994311 0.2651315 0.1994311 0.5295414 0 0.2651315 0.1994311 0.5295414 0 0.5295414 0.6004266 0.5142244 0.7998578 0.2575295 0.7998577 0.5142244 0.6004266 0.5142244 0.6004266 0.2575295 0.7998578 0.2575295 0.3995733 0.5299037 0.3995733 0.7322499 0.2197313 0.7322499 0.3995733 0.5299037 0.2197313 0.7322499 0.2197313 0.5299037 0.6004266 1 0.7998578 0.7685291 0.7998578 1 0.6004266 1 0.6004266 0.7685291 0.7998578 0.7685291 0.4002845 0.2651314 0.5997155 0.2651314 0.5997155 0.52544 0.4002845 0.2651314 0.5997155 0.52544 0.4002844 0.52544 0.8005688 0.7489289 1 0.5016168 1 0.7489289 0.8005688 0.7489289 0.8005688 0.5016167 1 0.5016168 0.2001422 0 0.3995733 0 0.3995733 0.2644099 0.2001422 0 0.3995733 0.2644099 0.2001422 0.2644098 0.8005689 0 1 0 1 0.2528616 0.8005689 0 1 0.2528616 0.8005689 0.2528616 0 0 0.1994311 0 0.1994311 0.26441 0 0 0.1994311 0.26441 0 0.26441 0.6004266 0.5149459 0.7998578 0.5149459 0.7998578 0.7678077 0.6004266 0.5149459 0.7998578 0.7678077 0.6004266 0.7678077 0.2001422 0.2651314 0.3995733 0.2651314 0.3995733 0.5291822 0.2001422 0.2651314 0.3995733 0.5291822 0.2001422 0.5291822 0 0.7870709 0.1994311 0.5302628 0.1994311 0.7870709 0 0.7870709 0 0.5302628 0.1994311 0.5302628 0.4002844 0 0.5997155 0 0.5997155 0.26405 0.4002844 0 0.5997155 0.26405 0.4002844 0.26405 0.6004266 0.256808 0.7998577 0 0.7998577 0.256808 0.6004266 0.256808 0.6004266 0 0.7998577 0</float_array>
          <technique_common>
            <accessor source="#Cube_011-mesh-map-1-array" count="96" stride="2">
              <param name="S" type="float"/>
              <param name="T" type="float"/>
            </accessor>
          </technique_common>
        </source>
        <vertices id="Cube_011-mesh-vertices">
          <input semantic="POSITION" source="#Cube_011-mesh-positions"/>
        </vertices>
        <triangles material="hierva_choza_gaetuli-material" count="32">
          <input semantic="VERTEX" source="#Cube_011-mesh-vertices" offset="0"/>
          <input semantic="NORMAL" source="#Cube_011-mesh-normals" offset="1"/>
          <input semantic="TEXCOORD" source="#Cube_011-mesh-map-0" offset="2" set="0"/>
          <input semantic="TEXCOORD" source="#Cube_011-mesh-map-1" offset="2" set="1"/>
          <p>0 0 0 1 1 1 3 2 2 0 0 3 3 2 4 2 3 5 4 4 6 7 5 7 5 6 8 4 4 9 6 7 10 7 5 11 8 8 12 9 9 13 11 8 14 8 8 15 11 8 16 10 9 17 12 10 18 15 10 19 13 11 20 12 10 21 14 12 22 15 10 23 16 13 24 17 14 25 19 13 26 16 13 27 19 13 28 18 15 29 20 16 30 23 16 31 21 17 32 20 16 33 22 18 34 23 16 35 24 19 36 25 20 37 27 21 38 24 19 39 27 21 40 26 22 41 28 23 42 31 24 43 29 25 44 28 23 45 30 26 46 31 24 47 32 27 48 33 28 49 35 27 50 32 27 51 35 27 52 34 27 53 36 29 54 37 30 55 39 29 56 36 29 57 39 29 58 38 30 59 40 31 60 41 32 61 43 31 62 40 31 63 43 31 64 42 32 65 44 33 66 45 34 67 47 33 68 44 33 69 47 33 70 46 35 71 48 36 72 49 37 73 51 38 74 48 36 75 51 38 76 50 39 77 52 40 78 55 41 79 53 42 80 52 40 81 54 43 82 55 41 83 56 44 84 57 45 85 59 44 86 56 44 87 59 44 88 58 46 89 60 47 90 63 48 91 61 49 92 60 47 93 62 50 94 63 48 95</p>
        </triangles>
      </mesh>
    </geometry>
  </library_geometries>
  <library_visual_scenes>
    <visual_scene id="Scene" name="Scene">
      <node id="barracks_f" name="barracks_f" type="NODE">
        <matrix sid="transform">1 0 0 0 0 1 0 0 0 0 1 0 0 0 0 1</matrix>
        <instance_geometry url="#Cube_011-mesh" name="barracks_f">
          <bind_material>
            <technique_common>
              <instance_material symbol="hierva_choza_gaetuli-material" target="#hierva_choza_gaetuli-material">
                <bind_vertex_input semantic="Cube_011-mesh-map-0" input_semantic="TEXCOORD" input_set="0"/>
                <bind_vertex_input semantic="Cube_011-mesh-map-1" input_semantic="TEXCOORD" input_set="1"/>
              </instance_material>
            </technique_common>
          </bind_material>
        </instance_geometry>
        <node id="prop_garrisoned" name="prop_garrisoned" type="NODE">
          <matrix sid="transform">-0.7829416 1.18221e-7 0 5.35037e-14 -1.18221e-7 -0.7829416 0 5.033843 0 0 0.7829416 9.013988 0 0 0 1</matrix>
        </node>
        <node id="prop_projectile" name="prop_projectile" type="NODE">
          <matrix sid="transform">-0.7829416 1.18221e-7 0 5.35037e-14 -1.18221e-7 -0.7829416 0 5.033842 0 0 0.7829416 9.013988 0 0 0 1</matrix>
        </node>
      </node>
    </visual_scene>
  </library_visual_scenes>
  <scene>
    <instance_visual_scene url="#Scene"/>
  </scene>
</COLLADA>