<?xml version="1.0" encoding="utf-8"?>
<COLLADA xmlns="http://www.collada.org/2005/11/COLLADASchema" version="1.4.1" xmlns:xsi="http://www.w3.org/2001/XMLSchema-instance">
  <asset>
    <contributor>
      <author>Blender User</author>
      <authoring_tool>Blender 4.3.1 commit date:2024-12-10, commit time:07:46, hash:33d812126174</authoring_tool>
    </contributor>
    <created>2026-08-22T19:01:18</created>
    <modified>2026-08-22T19:01:18</modified>
    <unit name="meter" meter="1"/>
    <up_axis>Z_UP</up_axis>
  </asset>
  <library_effects>
    <effect id="hierva_choza_gaetuli-effect">
      <profile_COMMON>
        <technique sid="common">
          <lambert>
            <emission>
              <color sid="emission">0 0 0 1</color>
            </emission>
            <diffuse>
              <color sid="diffuse">0.8 0.8 0.8 1</color>
            </diffuse>
            <index_of_refraction>
              <float sid="ior">1.45</float>
            </index_of_refraction>
          </lambert>
        </technique>
      </profile_COMMON>
    </effect>
  </library_effects>
  <library_images/>
  <library_materials>
    <material id="hierva_choza_gaetuli-material" name="hierva choza gaetuli">
      <instance_effect url="#hierva_choza_gaetuli-effect"/>
    </material>
  </library_materials>
  <library_geometries>
    <geometry id="Cube_036-mesh" name="Cube.036">
      <mesh>
        <source id="Cube_036-mesh-positions">
          <float_array id="Cube_036-mesh-positions-array" count="384">8.809247 -4.697747 3.799092 8.809247 -4.697747 0.2966908 8.371585 -9.25343 3.799092 8.371585 -9.25343 0.2966908 6.365107 -7.517511 3.799092 6.365107 -7.517511 0.2966908 10.70599 -6.557707 3.799092 10.70599 -6.557707 0.2966908 -9.312805 6.523329 3.799091 -9.312805 6.523329 0.296691 -9.461232 1.949081 3.799091 -9.461232 1.949081 0.296691 -11.57356 3.554518 3.799091 -11.57356 3.554518 0.296691 -7.302128 4.787156 3.799091 -7.302128 4.787156 0.296691 -11.23224 -7.380035 3.799091 -11.23224 -7.380035 0.296691 -6.791656 -8.487746 3.799091 -6.791656 -8.487746 0.296691 -8.805661 -10.21493 3.799091 -8.805661 -10.21493 0.296691 -9.111816 -5.779748 3.799091 -9.111816 -5.779748 0.296691 5.777492 4.36624 3.799092 5.777492 4.36624 0.296691 10.34601 4.093384 3.799092 10.34601 4.093384 0.296691 8.683681 2.025528 3.799092 8.683681 2.025528 0.296691 7.567742 6.328923 3.799092 7.567742 6.328923 0.296691 12.90932 -10.28411 3.532159 12.90932 -10.28411 0.02975827 12.47166 -14.83979 3.532159 12.47166 -14.83979 0.02975827 10.46518 -13.10387 3.532159 10.46518 -13.10387 0.02975827 14.80607 -12.14407 3.532159 14.80607 -12.14407 0.02975827 -12.53137 12.22859 3.532159 -12.53137 12.22859 0.02975863 -12.67979 7.65434 3.532159 -12.67979 7.65434 0.02975863 -14.79213 9.259779 3.532159 -14.79213 9.259779 0.02975863 -10.52069 10.49241 3.532159 -10.52069 10.49241 0.02975863 -14.52149 -13.40979 3.532159 -14.52149 -13.40979 0.02975863 -9.950741 -13.64213 3.532159 -9.950741 -13.64213 0.02975863 -11.59467 -15.72465 3.532159 -11.59467 -15.72465 0.02975863 -12.74871 -11.43131 3.532159 -12.74871 -11.43131 0.02975863 9.877572 10.0715 3.532159 9.877572 10.0715 0.02975863 14.44609 9.798645 3.532159 14.44609 9.798645 0.02975863 12.78376 7.730788 3.532159 12.78376 7.730788 0.02975863 11.66782 12.03418 3.532159 11.66782 12.03418 0.02975863 8.840106 -4.700712 3.799092 8.402443 -9.256395 0.2966908 8.840106 -4.700712 0.2966908 8.402443 -9.256395 3.799092 6.371799 -7.54778 3.799092 6.371799 -7.54778 0.2966908 10.71269 -6.587976 0.2966908 10.71269 -6.587976 3.799092 -9.28182 6.522324 3.799091 -9.430248 1.948076 0.296691 -9.28182 6.522324 0.296691 -9.430248 1.948076 3.799091 -11.56497 3.524734 3.799091 -11.56497 3.524734 0.296691 -7.293533 4.757371 0.296691 -7.293533 4.757371 3.799091 -11.22473 -7.349956 3.799091 -6.784152 -8.457667 0.296691 -11.22473 -7.349956 0.296691 -6.784152 -8.457667 3.799091 -8.774734 -10.21279 3.799091 -8.774734 -10.21279 0.296691 -9.080889 -5.777613 0.296691 -9.080889 -5.777613 3.799091 5.775643 4.335296 3.799092 5.775643 4.335296 0.296691 10.34416 4.062438 0.296691 10.34416 4.062438 3.799092 8.653675 2.017747 3.799092 7.537735 6.321141 0.296691 8.653675 2.017747 0.296691 7.537735 6.321141 3.799092 12.87847 -10.28114 3.532159 12.87847 -10.28114 0.02975827 12.44081 -14.83682 0.02975827 12.44081 -14.83682 3.532159 10.45849 -13.0736 3.532159 14.79938 -12.1138 0.02975827 10.45849 -13.0736 0.02975827 14.79938 -12.1138 3.532159 -12.50038 12.22759 3.532159 -12.64881 7.653335 0.02975863 -12.50038 12.22759 0.02975863 -12.64881 7.653335 3.532159 -14.78353 9.229994 3.532159 -14.78353 9.229994 0.02975863 -10.5121 10.46263 0.02975863 -10.5121 10.46263 3.532159 -14.51992 -13.37883 3.532159 -9.949169 -13.61117 0.02975863 -14.51992 -13.37883 0.02975863 -9.949169 -13.61117 3.532159 -11.56473 -15.7166 3.532159 -11.56473 -15.7166 0.02975863 -12.71877 -11.42327 0.02975863 -12.71877 -11.42327 3.532159 9.875721 10.04056 3.532159 9.875721 10.04056 0.02975863 14.44424 9.7677 0.02975863 14.44424 9.7677 3.532159 12.75375 7.723007 3.532159 11.63781 12.0264 0.02975863 12.75375 7.723007 0.02975863 11.63781 12.0264 3.532159</float_array>
          <technique_common>
            <accessor source="#Cube_036-mesh-positions-array" count="128" stride="3">
              <param name="X" type="float"/>
              <param name="Y" type="float"/>
              <param name="Z" type="float"/>
            </accessor>
          </technique_common>
        </source>
        <source id="Cube_036-mesh-normals">
          <float_array id="Cube_036-mesh-normals-array" count="981">-0.9954171 0.09562927 0 -0.9954171 0.09562939 0 -0.9954171 0.09562921 0 -0.9954171 0.09562915 0 -0.2158936 0.9764169 0 -0.2158936 0.976417 0 -0.9994741 0.03243118 0 -0.9994739 0.03243136 0 -0.9994741 0.03243106 0 -0.9994741 0.03243088 0 -0.2772633 0.960794 0 -0.2772634 0.960794 0 -0.2772633 0.960794 0 -0.2772634 0.960794 0 -0.2420347 -0.9702676 0 -0.2420347 -0.9702676 0 -0.2420347 -0.9702676 0 -0.997626 -0.06886488 0 -0.997626 -0.06886482 0 -0.9976261 -0.06886506 0 -0.997626 -0.06886458 0 0.05961906 0.9982213 0 0.05961906 0.9982213 0 0.05961906 0.9982213 0 0.05961906 0.9982212 0 0.9679836 0.2510135 0 0.9679836 0.2510133 0 0.9679836 0.2510135 0 0.9679836 0.2510136 0 0.9954171 -0.09562873 0 0.9954171 -0.09562873 0 0.9954172 -0.09562873 0 0.2158924 -0.9764173 0 0.2158924 -0.9764172 0 0.2158923 -0.9764172 0 -0.9994741 0.03242969 0 -0.9994741 0.03242993 0 -0.9994741 0.03242963 0 -0.9994741 0.03242945 0 -0.2772613 0.9607946 0 -0.2772613 0.9607946 0 -0.2772614 0.9607946 0 -0.2772612 0.9607946 0 -0.05076634 -0.9987106 0 -0.05076634 -0.9987106 0 -0.05076634 -0.9987106 0 -0.05076634 -0.9987106 0 -0.9657207 -0.2595837 0 -0.9657207 -0.2595836 0 -0.9657207 -0.2595838 0 -0.9657207 -0.2595834 0 0.05961894 0.9982213 0 0.05961894 0.9982213 0 0.05961894 0.9982213 0 0.05961894 0.9982212 0 0.9679835 0.2510141 0 0.9954171 -0.09562915 0 0.9954171 -0.09562915 0 0.9954171 -0.09562915 0 0.2158932 -0.976417 0 0.2158932 -0.976417 0 0.9994741 -0.03243166 0 0.9994741 -0.03243154 0 0.9994739 -0.03243184 0 0.9994739 -0.03243136 0 0.2772627 -0.9607942 0 0.2772628 -0.9607942 0 0.2772626 -0.9607942 0 0.242035 0.9702675 0 0.242035 0.9702675 0 0.242035 0.9702676 0 0.242035 0.9702675 0 0.997626 0.068865 0 0.9976261 0.06886494 0 0.997626 0.06886506 0 0.9976261 0.06886518 0 -0.05961948 -0.9982213 0 -0.05961948 -0.9982212 0 -0.9679836 -0.2510136 0 -0.9679836 -0.2510137 0 -0.9679837 -0.2510135 0 -0.9679836 -0.2510139 0 -0.9954171 0.09562897 0 -0.9954171 0.09562921 0 -0.9954171 0.09562891 0 -0.9954172 0.09562873 0 -0.2158923 0.9764173 0 -0.2158924 0.9764173 0 -0.2158922 0.9764173 0 -0.2158924 0.9764172 0 0.9994739 -0.03243196 0 0.9994739 -0.03243207 0 0.9994739 -0.03243178 0 0.9994739 -0.03243225 0 0.2772628 -0.9607942 0 0.2772629 -0.9607942 0 0.277263 -0.9607941 0 0.05076628 0.9987106 0 0.05076628 0.9987106 0 0.05076628 0.9987106 0 0.9657205 0.2595842 0 0.9657205 0.2595844 0 0.9657205 0.2595841 0 0.9657205 0.259584 0 -0.05962002 -0.9982212 0 -0.05961996 -0.9982212 0 -0.05961996 -0.9982212 0 -0.05962002 -0.9982212 0 -0.9679835 -0.251014 0 -0.9987193 0.05059468 0 -0.9987123 0.05073326 0 -0.9987123 0.05073404 0 0 0 -1 0 0 -1 0 0 -1 0.9763639 0.2161331 0 0.9763786 0.2160668 0 0.9763787 0.2160665 0 0 0 1 2.09154e-7 0 1 2.1006e-7 0 1 0.2510092 -0.9679847 0 0 0 -1 0 0 -1 0 0 -1 0 0 1 8.15403e-6 0 1 0 0 1 0.03240633 0.9994748 0 0.03240859 0.9994747 0 0.03240859 0.9994747 0 0.9987087 -0.05080336 0 0.9987157 -0.05066472 0 0.9987158 -0.05066394 0 -2.66957e-5 0 1 1.71815e-5 0 1 -2.68865e-5 0 1 0 0 -1 0 0 -1 0 0 -1 -0.251038 0.9679773 0 -0.2510296 0.9679795 0 -0.2510295 0.9679794 0 0.2596566 -0.9657011 0 0 0 -1 0 0 -1 0 0 -1 -0.03241628 -0.9994745 0 -0.03241854 -0.9994744 0 -0.03241854 -0.9994744 0 0 0 1 6.18882e-7 0 1 0.09585285 0.9953956 0 0.09585285 0.9953956 0 0.09585285 0.9953956 0 1.6724e-6 0 -1 -1.68818e-7 0 -1 -1.76825e-7 0 -1 0 0 1 -9.04783e-6 0 1 -0.9608439 -0.2770903 0 -0.9608439 -0.2770904 0 -0.9608439 -0.2770904 0 -0.2593696 0.9657782 0 -0.2593697 0.9657782 0 -0.2593696 0.9657782 0 0 0 1 6.35114e-6 0 1 0 0 -1 0 0 -1 0 0 -1 -0.09600961 -0.9953805 2.77844e-4 -0.09553813 -0.9954258 1.86731e-4 -0.09548163 -0.9954313 0 -0.9982184 0.05966728 0 -0.9982184 0.05966728 0 0 0 -1 0 0 -1 0 0 -1 0.9607908 0.2772746 0 0.9608 0.2772425 0 0.9608001 0.2772423 0 0 0 1 -8.366e-7 0 1 -8.40227e-7 0 1 -0.9764386 -0.2157957 0 -0.9764239 -0.2158619 0 -0.9764239 -0.2158623 0 0 0 -1 0 0 -1 0 0 -1 0 0 1 3.22932e-7 0 1 -0.9702096 0.2422672 0 -0.970226 0.2422018 0 -0.970226 0.2422014 0 0.998219 -0.05965811 0 0.9982189 -0.05965811 0 0 0 1 -2.19583e-6 0 1 -2.20536e-6 0 1 0 0 -1 0 0 -1 0.976424 0.2158615 0 0.9764533 0.2157291 0 0.9764534 0.2157283 0 0.2509776 -0.967993 0 0.2509607 -0.9679973 0 0.2509607 -0.9679973 0 0 0 -1 0 0 -1 0 0 -1 0.9702672 -0.2420364 0 0.9702509 -0.2421019 0 0.9702508 -0.2421022 0 0 0 1 -1.64145e-6 0 1 -1.64875e-6 0 1 0.03246253 0.999473 -1.33379e-4 0.03213149 0.9994837 -1.98518e-4 0.03226578 0.9994794 0 0 0 -1 0 0 -1 0 0 1 -1.16518e-5 0 1 0.06902945 -0.9976146 0 0.06903421 -0.9976143 0 0.06903421 -0.9976144 0 -0.2509464 0.9680011 0 -0.2509632 0.9679967 0 -0.2509633 0.9679966 0 -2.75396e-5 0 1 3.53693e-6 0 1 3.67611e-6 0 1 0.09566169 0.9954139 0 0.09565842 0.9954143 0 0.09565836 0.9954143 0 0 0 -1 0 0 -1 -0.03241539 -0.9994745 0 -0.03241318 -0.9994747 0 -0.03241312 -0.9994746 0 0 0 1 -8.33994e-6 0 1 0 0 -1 0 0 -1 0 0 -1 -0.06886583 0.997626 0 -0.06886345 0.9976261 0 -0.06886345 0.9976262 0 -0.9607533 -0.2774044 0 1.71607e-6 0 -1 -1.37565e-6 0 -1 -1.38951e-6 0 -1 -0.09564644 -0.9954154 0 -0.09563982 -0.995416 0 -0.09563976 -0.9954161 0 0 0 1 3.66036e-6 0 1 3.6767e-6 0 1 -0.9982209 0.05962514 0 -0.9982188 0.05965971 0 -0.9982188 0.05965995 0 -1.67534e-6 0 -1 -4.98254e-7 0 -1 -4.93141e-7 0 -1 0 0 1 2.09155e-7 0 1 2.10062e-7 0 1 -0.9764232 -0.2158655 0 -0.9764232 -0.2158655 0 -0.9764232 -0.2158655 0 0.9608165 0.2771856 0 0.960835 0.2771214 0 0.960835 0.277121 0 0 0 1 -4.30562e-7 0 1 -4.32479e-7 0 1 0 0 -1 0 0 -1 0.9982149 -0.05972588 0 0.998219 -0.05965667 0 0.9982191 -0.05965626 0 -0.9987194 0.05059385 0 0 0 -1 0.9763638 0.2161334 0 0 0 -1 8.19034e-6 0 1 0.03240633 0.9994748 0 0.9987087 -0.05080413 0 1.73724e-5 0 1 0 0 -1 -0.2510381 0.9679772 0 -0.03241628 -0.9994745 0 6.21642e-7 0 1 0.09585285 0.9953956 0 1.68041e-6 0 -1 -9.08707e-6 0 1 6.37953e-6 0 1 -0.0954883 -0.9954307 0 0.9607907 0.2772747 0 -0.9764387 -0.2157953 0 3.2437e-7 0 1 -0.9702095 0.2422676 0 0 0 -1 0.9764239 0.2158623 0 0.2509777 -0.9679929 0 0.9702673 -0.2420361 0 0.03274261 0.9994639 0 0 0 -1 -1.17023e-5 0 1 0.06902939 -0.9976148 0 -0.2509462 0.968001 0 -2.76788e-5 0 1 0.09566169 0.9954139 0 0 0 -1 -0.03241539 -0.9994745 0 -8.37601e-6 0 1 -0.06886583 0.997626 0 1.72994e-6 0 -1 -0.0956465 -0.9954155 0 -0.9982209 0.05962491 0 -1.68046e-6 0 -1 -0.9764232 -0.2158655 0 0.9608163 0.2771859 0 0 0 -1 0.9982149 -0.05972629 0</float_array>
          <technique_common>
            <accessor source="#Cube_036-mesh-normals-array" count="327" stride="3">
              <param name="X" type="float"/>
              <param name="Y" type="float"/>
              <param name="Z" type="float"/>
            </accessor>
          </technique_common>
        </source>
        <source id="Cube_036-mesh-map-0">
          <float_array id="Cube_036-mesh-map-0-array" count="1152">0.9984335 0.6838312 1.000765 0.001214206 0.001161634 6.92369e-4 0.9984335 0.6838312 0.001161634 6.92369e-4 5.39125e-4 0.6833093 0.9984335 0.6838312 0.001161634 6.92369e-4 1.000765 0.001214206 0.9984335 0.6838312 5.39125e-4 0.6833093 0.001161634 6.92369e-4 0.9984335 0.6838312 1.000765 0.001214206 0.001161634 6.92369e-4 0.9984335 0.6838312 0.001161634 6.92369e-4 5.39125e-4 0.6833093 0.9984335 0.6838312 0.001161634 6.92369e-4 1.000765 0.001214206 0.9984335 0.6838312 5.39125e-4 0.6833093 0.001161634 6.92369e-4 0.9984335 0.6838312 1.000765 0.001214206 0.001161634 6.92369e-4 0.9984335 0.6838312 0.001161634 6.92369e-4 5.39125e-4 0.6833093 0.9984335 0.6838312 0.001161634 6.92369e-4 1.000765 0.001214206 0.9984335 0.6838312 5.39125e-4 0.6833093 0.001161634 6.92369e-4 0.9984335 0.6838312 0.001161634 6.92369e-4 1.000765 0.001214206 0.9984335 0.6838312 5.39125e-4 0.6833093 0.001161634 6.92369e-4 0.9984335 0.6838312 1.000765 0.001214206 0.001161634 6.92369e-4 0.9984335 0.6838312 0.001161634 6.92369e-4 5.39125e-4 0.6833093 0.9984335 0.6838312 0.001161634 6.92369e-4 1.000765 0.001214206 0.9984335 0.6838312 5.39125e-4 0.6833093 0.001161634 6.92369e-4 0.9984335 0.6838312 1.000765 0.001214206 0.001161634 6.92369e-4 0.9984335 0.6838312 0.001161634 6.92369e-4 5.39125e-4 0.6833093 0.9984335 0.6838312 1.000765 0.001214206 0.001161634 6.92369e-4 0.9984335 0.6838312 0.001161634 6.92369e-4 5.39125e-4 0.6833093 0.9984335 0.6838312 0.001161634 6.92369e-4 1.000765 0.001214206 0.9984335 0.6838312 5.39125e-4 0.6833093 0.001161634 6.92369e-4 0.9984335 0.6838312 1.000765 0.001214206 0.001161634 6.92369e-4 0.9984335 0.6838312 0.001161634 6.92369e-4 5.39125e-4 0.6833093 0.9984335 0.6838312 0.001161634 6.92369e-4 1.000765 0.001214206 0.9984335 0.6838312 5.39125e-4 0.6833093 0.001161634 6.92369e-4 0.9984335 0.6838312 0.001161634 6.92369e-4 1.000765 0.001214206 0.9984335 0.6838312 5.39125e-4 0.6833093 0.001161634 6.92369e-4 0.9984335 0.6838312 1.000765 0.001214206 0.001161634 6.92369e-4 0.9984335 0.6838312 0.001161634 6.92369e-4 5.39125e-4 0.6833093 0.9984335 0.6838312 0.001161634 6.92369e-4 1.000765 0.001214206 0.9984335 0.6838312 5.39125e-4 0.6833093 0.001161634 6.92369e-4 0.9984335 0.6838312 1.000765 0.001214206 0.001161634 6.92369e-4 0.9984335 0.6838312 0.001161634 6.92369e-4 5.39125e-4 0.6833093 0.9984335 0.6838312 0.001161634 6.92369e-4 1.000765 0.001214206 0.9984335 0.6838312 5.39125e-4 0.6833093 0.001161634 6.92369e-4 0.9984335 0.6838312 1.000765 0.001214206 0.001161634 6.92369e-4 0.9984335 0.6838312 0.001161634 6.92369e-4 5.39125e-4 0.6833093 0.9984335 0.6838312 0.001161634 6.92369e-4 1.000765 0.001214206 0.9984335 0.6838312 5.39125e-4 0.6833093 0.001161634 6.92369e-4 0.9984335 0.6838312 1.000765 0.001214206 0.001161634 6.92369e-4 0.9984335 0.6838312 0.001161634 6.92369e-4 5.39125e-4 0.6833093 0.9984335 0.6838312 1.000765 0.001214206 0.001161634 6.92369e-4 0.9984335 0.6838312 0.001161634 6.92369e-4 5.39125e-4 0.6833093 0.9984335 0.6838312 0.001161634 6.92369e-4 1.000765 0.001214206 0.9984335 0.6838312 5.39125e-4 0.6833093 0.001161634 6.92369e-4 0.9984335 0.6838312 1.000765 0.001214206 0.001161634 6.92369e-4 0.9984335 0.6838312 0.001161634 6.92369e-4 5.39125e-4 0.6833093 0.9984335 0.6838312 0.001161634 6.92369e-4 1.000765 0.001214206 0.9984335 0.6838312 5.39125e-4 0.6833093 0.001161634 6.92369e-4 0.9984335 0.6838312 0.001161634 6.92369e-4 1.000765 0.001214206 0.9984335 0.6838312 5.39125e-4 0.6833093 0.001161634 6.92369e-4 0.9984335 0.6838312 1.000765 0.001214206 0.001161634 6.92369e-4 0.9984335 0.6838312 0.001161634 6.92369e-4 5.39125e-4 0.6833093 0.9984335 0.6838312 0.001161634 6.92369e-4 1.000765 0.001214206 0.9984335 0.6838312 5.39125e-4 0.6833093 0.001161634 6.92369e-4 0.9984335 0.6838312 1.000765 0.001214206 0.001161634 6.92369e-4 0.9984335 0.6838312 0.001161634 6.92369e-4 5.39125e-4 0.6833093 0.9984335 0.6838312 1.000765 0.001214206 0.001161634 6.92369e-4 0.9984335 0.6838312 0.001161634 6.92369e-4 5.39125e-4 0.6833093 0.9984335 0.6838312 0.001161634 6.92369e-4 1.000765 0.001214206 0.9984335 0.6838312 5.39125e-4 0.6833093 0.001161634 6.92369e-4 0.9984335 0.6838312 1.000765 0.001214206 1.000765 0.001214206 0.001161634 6.92369e-4 1.000765 0.001214206 1.000765 0.001214206 5.39125e-4 0.6833093 0.001161634 6.92369e-4 0.001161634 6.92369e-4 5.39125e-4 0.6833093 0.9984335 0.6838312 0.9984335 0.6838312 0.9984335 0.6838312 1.000765 0.001214206 1.000765 0.001214206 1.000765 0.001214206 0.001161634 6.92369e-4 1.000765 0.001214206 0.9984335 0.6838312 5.39125e-4 0.6833093 0.9984335 0.6838312 0.9984335 0.6838312 1.000765 0.001214206 1.000765 0.001214206 0.001161634 6.92369e-4 5.39125e-4 0.6833093 5.39125e-4 0.6833093 0.9984335 0.6838312 5.39125e-4 0.6833093 0.9984335 0.6838312 0.001161634 6.92369e-4 1.000765 0.001214206 0.001161634 6.92369e-4 0.001161634 6.92369e-4 5.39125e-4 0.6833093 5.39125e-4 0.6833093 1.000765 0.001214206 0.9984335 0.6838312 0.9984335 0.6838312 1.000765 0.001214206 0.001161634 6.92369e-4 0.001161634 6.92369e-4 0.001161634 6.92369e-4 5.39125e-4 0.6833093 5.39125e-4 0.6833093 5.39125e-4 0.6833093 0.9984335 0.6838312 5.39125e-4 0.6833093 1.000765 0.001214206 0.9984335 0.6838312 0.9984335 0.6838312 1.000765 0.001214206 0.001161634 6.92369e-4 0.001161634 6.92369e-4 5.39125e-4 0.6833093 0.9984335 0.6838312 5.39125e-4 0.6833093 1.000765 0.001214206 0.9984335 0.6838312 0.9984335 0.6838312 5.39125e-4 0.6833093 0.001161634 6.92369e-4 0.001161634 6.92369e-4 5.39125e-4 0.6833093 0.9984335 0.6838312 5.39125e-4 0.6833093 0.001161634 6.92369e-4 1.000765 0.001214206 1.000765 0.001214206 5.39125e-4 0.6833093 0.001161634 6.92369e-4 0.001161634 6.92369e-4 1.000765 0.001214206 0.9984335 0.6838312 0.9984335 0.6838312 0.001161634 6.92369e-4 1.000765 0.001214206 1.000765 0.001214206 5.39125e-4 0.6833093 0.001161634 6.92369e-4 0.001161634 6.92369e-4 0.9984335 0.6838312 5.39125e-4 0.6833093 5.39125e-4 0.6833093 0.9984335 0.6838312 1.000765 0.001214206 1.000765 0.001214206 0.001161634 6.92369e-4 1.000765 0.001214206 1.000765 0.001214206 0.9984335 0.6838312 5.39125e-4 0.6833093 0.9984335 0.6838312 0.9984335 0.6838312 1.000765 0.001214206 1.000765 0.001214206 5.39125e-4 0.6833093 0.001161634 6.92369e-4 0.001161634 6.92369e-4 5.39125e-4 0.6833093 0.9984335 0.6838312 0.9984335 0.6838312 1.000765 0.001214206 0.001161634 6.92369e-4 1.000765 0.001214206 0.001161634 6.92369e-4 5.39125e-4 0.6833093 5.39125e-4 0.6833093 0.9984335 0.6838312 1.000765 0.001214206 1.000765 0.001214206 1.000765 0.001214206 0.001161634 6.92369e-4 0.001161634 6.92369e-4 0.001161634 6.92369e-4 5.39125e-4 0.6833093 5.39125e-4 0.6833093 5.39125e-4 0.6833093 0.9984335 0.6838312 0.9984335 0.6838312 0.9984335 0.6838312 1.000765 0.001214206 1.000765 0.001214206 0.001161634 6.92369e-4 1.000765 0.001214206 0.001161634 6.92369e-4 0.9984335 0.6838312 5.39125e-4 0.6833093 0.9984335 0.6838312 1.000765 0.001214206 0.9984335 0.6838312 0.9984335 0.6838312 0.001161634 6.92369e-4 5.39125e-4 0.6833093 5.39125e-4 0.6833093 0.9984335 0.6838312 5.39125e-4 0.6833093 5.39125e-4 0.6833093 0.9984335 0.6838312 1.000765 0.001214206 1.000765 0.001214206 0.001161634 6.92369e-4 1.000765 0.001214206 0.001161634 6.92369e-4 0.001161634 6.92369e-4 5.39125e-4 0.6833093 5.39125e-4 0.6833093 0.9984335 0.6838312 5.39125e-4 0.6833093 0.9984335 0.6838312 1.000765 0.001214206 0.001161634 6.92369e-4 0.001161634 6.92369e-4 5.39125e-4 0.6833093 0.001161634 6.92369e-4 0.001161634 6.92369e-4 1.000765 0.001214206 0.9984335 0.6838312 0.9984335 0.6838312 0.001161634 6.92369e-4 1.000765 0.001214206 1.000765 0.001214206 0.001161634 6.92369e-4 5.39125e-4 0.6833093 5.39125e-4 0.6833093 0.9984335 0.6838312 5.39125e-4 0.6833093 5.39125e-4 0.6833093 1.000765 0.001214206 0.9984335 0.6838312 0.9984335 0.6838312 1.000765 0.001214206 0.001161634 6.92369e-4 0.001161634 6.92369e-4 0.9984335 0.6838312 5.39125e-4 0.6833093 5.39125e-4 0.6833093 1.000765 0.001214206 0.9984335 0.6838312 0.9984335 0.6838312 5.39125e-4 0.6833093 0.001161634 6.92369e-4 0.001161634 6.92369e-4 0.9984335 0.6838312 5.39125e-4 0.6833093 5.39125e-4 0.6833093 1.000765 0.001214206 0.001161634 6.92369e-4 1.000765 0.001214206 5.39125e-4 0.6833093 0.001161634 6.92369e-4 0.001161634 6.92369e-4 0.9984335 0.6838312 0.9984335 0.6838312 1.000765 0.001214206 0.001161634 6.92369e-4 0.001161634 6.92369e-4 1.000765 0.001214206 5.39125e-4 0.6833093 5.39125e-4 0.6833093 0.001161634 6.92369e-4 5.39125e-4 0.6833093 5.39125e-4 0.6833093 0.9984335 0.6838312 0.9984335 0.6838312 0.9984335 0.6838312 1.000765 0.001214206 1.000765 0.001214206 0.001161634 6.92369e-4 0.001161634 6.92369e-4 0.9984335 0.6838312 5.39125e-4 0.6833093 5.39125e-4 0.6833093 0.9984335 0.6838312 0.9984335 0.6838312 1.000765 0.001214206 0.001161634 6.92369e-4 0.001161634 6.92369e-4 5.39125e-4 0.6833093 0.9984335 0.6838312 5.39125e-4 0.6833093 5.39125e-4 0.6833093 0.001161634 6.92369e-4 1.000765 0.001214206 1.000765 0.001214206 0.001161634 6.92369e-4 0.001161634 6.92369e-4 5.39125e-4 0.6833093 1.000765 0.001214206 1.000765 0.001214206 0.9984335 0.6838312 1.000765 0.001214206 1.000765 0.001214206 0.001161634 6.92369e-4 0.001161634 6.92369e-4 0.001161634 6.92369e-4 5.39125e-4 0.6833093 5.39125e-4 0.6833093 0.9984335 0.6838312 0.9984335 0.6838312 1.000765 0.001214206 1.000765 0.001214206 0.9984335 0.6838312 1.000765 0.001214206 1.000765 0.001214206 0.001161634 6.92369e-4 5.39125e-4 0.6833093 0.9984335 0.6838312 0.9984335 0.6838312 1.000765 0.001214206 1.000765 0.001214206 0.9984335 0.6838312 5.39125e-4 0.6833093 5.39125e-4 0.6833093 0.001161634 6.92369e-4 5.39125e-4 0.6833093 0.9984335 0.6838312 0.9984335 0.6838312 0.001161634 6.92369e-4 0.001161634 6.92369e-4 1.000765 0.001214206 5.39125e-4 0.6833093 5.39125e-4 0.6833093 0.001161634 6.92369e-4 1.000765 0.001214206 1.000765 0.001214206 0.9984335 0.6838312 0.001161634 6.92369e-4 0.001161634 6.92369e-4 1.000765 0.001214206 5.39125e-4 0.6833093 5.39125e-4 0.6833093 0.001161634 6.92369e-4 0.9984335 0.6838312 0.9984335 0.6838312 5.39125e-4 0.6833093 0.9984335 0.6838312 0.9984335 0.6838312 1.000765 0.001214206 0.001161634 6.92369e-4 0.001161634 6.92369e-4 1.000765 0.001214206 0.9984335 0.6838312 5.39125e-4 0.6833093 5.39125e-4 0.6833093 0.9984335 0.6838312 0.9984335 0.6838312 1.000765 0.001214206 5.39125e-4 0.6833093 5.39125e-4 0.6833093 0.001161634 6.92369e-4 5.39125e-4 0.6833093 5.39125e-4 0.6833093 0.9984335 0.6838312 1.000765 0.001214206 0.001161634 6.92369e-4 0.001161634 6.92369e-4 0.001161634 6.92369e-4 0.001161634 6.92369e-4 5.39125e-4 0.6833093 0.9984335 0.6838312 0.9984335 0.6838312 1.000765 0.001214206 1.000765 0.001214206 1.000765 0.001214206 0.001161634 6.92369e-4 0.001161634 6.92369e-4 0.001161634 6.92369e-4 5.39125e-4 0.6833093 5.39125e-4 0.6833093 5.39125e-4 0.6833093 0.9984335 0.6838312 0.9984335 0.6838312 0.9984335 0.6838312 1.000765 0.001214206 0.001161634 6.92369e-4 1.000765 0.001214206 1.000765 0.001214206 0.9984335 0.6838312 5.39125e-4 0.6833093 5.39125e-4 0.6833093 1.000765 0.001214206 1.000765 0.001214206 0.9984335 0.6838312 0.001161634 6.92369e-4 0.001161634 6.92369e-4 5.39125e-4 0.6833093 0.9984335 0.6838312 0.9984335 0.6838312 5.39125e-4 0.6833093 0.9984335 0.6838312 0.9984335 0.6838312 1.000765 0.001214206 0.001161634 6.92369e-4 1.000765 0.001214206 1.000765 0.001214206 0.001161634 6.92369e-4 0.001161634 6.92369e-4 5.39125e-4 0.6833093 0.9984335 0.6838312 5.39125e-4 0.6833093 5.39125e-4 0.6833093 1.000765 0.001214206 1.000765 0.001214206 0.001161634 6.92369e-4 5.39125e-4 0.6833093 5.39125e-4 0.6833093 0.001161634 6.92369e-4 1.000765 0.001214206 1.000765 0.001214206 0.9984335 0.6838312 0.001161634 6.92369e-4 0.001161634 6.92369e-4 1.000765 0.001214206 0.001161634 6.92369e-4 0.001161634 6.92369e-4 5.39125e-4 0.6833093 0.9984335 0.6838312 0.9984335 0.6838312 5.39125e-4 0.6833093 1.000765 0.001214206 1.000765 0.001214206 0.9984335 0.6838312 1.000765 0.001214206 1.000765 0.001214206 0.001161634 6.92369e-4 0.9984335 0.6838312 0.9984335 0.6838312 5.39125e-4 0.6833093 1.000765 0.001214206 1.000765 0.001214206 0.9984335 0.6838312 5.39125e-4 0.6833093 5.39125e-4 0.6833093 0.001161634 6.92369e-4 0.9984335 0.6838312 0.9984335 0.6838312 5.39125e-4 0.6833093 1.000765 0.001214206 0.001161634 6.92369e-4 0.001161634 6.92369e-4 5.39125e-4 0.6833093 5.39125e-4 0.6833093 0.001161634 6.92369e-4</float_array>
          <technique_common>
            <accessor source="#Cube_036-mesh-map-0-array" count="576" stride="2">
              <param name="S" type="float"/>
              <param name="T" type="float"/>
            </accessor>
          </technique_common>
        </source>
        <source id="Cube_036-mesh-map-1">
          <float_array id="Cube_036-mesh-map-1-array" count="1152">0.5721167 0 0.7139416 0 0.7139416 0.1997641 0.5721167 0 0.7139416 0.1997641 0.5721167 0.199764 0.715146 0.390885 0.8569708 0.1961011 0.8569708 0.390885 0.715146 0.390885 0.715146 0.1961011 0.8569708 0.1961011 0.1430292 0 0.2848539 0 0.2848539 0.2015163 0.1430292 0 0.2848539 0.2015163 0.1430292 0.2015163 0.8581752 0.5978382 1 0.4052416 1 0.5978382 0.8581752 0.5978382 0.8581752 0.4052416 1 0.4052416 0.8581752 0.7929929 1 0.7929929 1 0.9855128 0.8581752 0.7929929 1 0.9855128 0.8581752 0.9855127 0.1430292 0.3996742 0.2848539 0.2028334 0.2848539 0.3996742 0.1430292 0.3996742 0.1430292 0.2028334 0.2848539 0.2028334 0 0.6065288 0.1418249 0.4056666 0.1418248 0.6065288 0 0.6065288 0 0.4056666 0.1418249 0.4056666 0.715146 0.4052416 0.8569707 0.4052416 0.8569707 0.598874 0.715146 0.4052416 0.8569707 0.598874 0.715146 0.598874 0.5721167 0.8060854 0.7139416 0.606322 0.7139416 0.8060854 0.5721167 0.8060854 0.5721167 0.606322 0.7139416 0.606322 0 0.6078457 0.1418248 0.6078457 0.1418248 0.8026306 0 0.6078457 0.1418248 0.8026306 0 0.8026306 0 0 0.1418248 0 0.1418247 0.2015165 0 0 0.1418247 0.2015165 0 0.2015165 0.8581751 0.388698 1 0.1961011 1 0.388698 0.8581751 0.388698 0.8581752 0.1961011 1 0.1961011 0.2860584 0.4052416 0.4278832 0.4052416 0.4278832 0.6063324 0.2860584 0.4052416 0.4278832 0.6063324 0.2860584 0.6063324 0.4290875 0.9988881 0.5709124 0.8055775 0.5709124 0.9988881 0.4290875 0.9988881 0.4290875 0.8055775 0.5709124 0.8055775 0.4290875 0.2008622 0.5709123 0 0.5709123 0.2008622 0.4290875 0.2008622 0.4290875 0 0.5709123 0 0.715146 0.6001909 0.8569708 0.6001909 0.8569708 0.7938232 0.715146 0.6001909 0.8569708 0.7938232 0.715146 0.7938232 0.5721168 0.605005 0.7139416 0.4052415 0.7139416 0.605005 0.5721168 0.605005 0.5721168 0.4052415 0.7139416 0.4052415 0.2860584 0.6076493 0.4278832 0.6076493 0.4278832 0.8024341 0.2860584 0.6076493 0.4278832 0.8024341 0.2860584 0.8024341 0.2860583 0.201516 0.4278832 0 0.4278831 0.201516 0.2860583 0.201516 0.2860584 0 0.4278832 0 0.5721167 0.8074024 0.7139415 0.8074024 0.7139415 1 0.5721167 0.8074024 0.7139415 1 0.5721167 1 0.8581752 0.7916761 1 0.5991551 1 0.7916761 0.8581752 0.7916761 0.8581752 0.5991551 1 0.5991551 0.4290875 0.60742 0.5709123 0.60742 0.5709123 0.8042606 0.4290875 0.60742 0.5709123 0.8042606 0.4290875 0.8042606 0.4290875 0.4052416 0.5709124 0.4052416 0.5709124 0.6061031 0.4290875 0.4052416 0.5709124 0.6061031 0.4290875 0.6061031 0.715146 0.9887719 0.8569708 0.7951402 0.8569708 0.9887719 0.715146 0.9887719 0.715146 0.7951402 0.8569708 0.7951402 0.5721168 0.2028332 0.7139416 0.2028333 0.7139416 0.4025973 0.5721168 0.2028332 0.7139416 0.4025973 0.5721168 0.4025973 0.715146 0.1947842 0.8569707 0 0.8569707 0.1947842 0.715146 0.1947842 0.715146 0 0.8569707 0 0 0.4043497 0.1418248 0.2028334 0.1418248 0.4043498 0 0.4043497 0 0.2028334 0.1418248 0.2028334 0.8581752 0 1 0 1 0.1925974 0.8581752 0 1 0.1925974 0.8581752 0.1925974 0.2860583 0.4039247 0.4278832 0.2028332 0.4278832 0.4039247 0.2860583 0.4039247 0.2860583 0.2028332 0.4278832 0.2028332 0 0.8039476 0.1418248 0.8039476 0.1418247 0.9972583 0 0.8039476 0.1418247 0.9972583 0 0.9972583 0.4290876 0.2028332 0.5709124 0.2028332 0.5709124 0.4036949 0.4290876 0.2028332 0.5709124 0.4036949 0.4290875 0.4036948 0.2860583 0.9973828 0.4278831 0.8037511 0.427883 0.9973829 0.2860583 0.9973828 0.2860583 0.8037511 0.4278831 0.8037511 0.1901662 0.400991 0.1914119 0.5560656 0.1901662 0.5560656 0.2712994 0.400991 0.2725548 0.6036302 0.2712995 0.6036301 0.1730284 0.400991 0.1742706 0.5560656 0.1730284 0.5560656 0.2590008 0.400991 0.2602561 0.60363 0.2590008 0.6036298 0.1510506 0.400991 0.1522854 0.5560656 0.1510506 0.5560656 0.2331995 0.400991 0.2319442 0.5978333 0.2319443 0.400991 0.2086022 0.4009909 0.2073469 0.597833 0.2073469 0.4009909 0.1975218 0.400991 0.1987701 0.5560656 0.1975218 0.5560656 0.1889618 0.5560656 0.1877161 0.400991 0.1889618 0.400991 0.2614604 0.60363 0.2627158 0.400991 0.2627158 0.6036301 0.2528771 0.400991 0.2516217 0.60363 0.2516217 0.400991 0.1498462 0.5560656 0.1486114 0.400991 0.1498462 0.400991 0.147407 0.5560656 0.1461741 0.400991 0.147407 0.400991 0.2098066 0.400991 0.2110618 0.597833 0.2098066 0.597833 0.1963173 0.5560656 0.195069 0.400991 0.1963173 0.400991 0.2393236 0.5978333 0.240579 0.4009911 0.2405789 0.597833 0.1596056 0.5560656 0.1583684 0.400991 0.1596056 0.400991 0.2750145 0.60363 0.2737591 0.400991 0.2750145 0.400991 0.2504174 0.4009909 0.2491623 0.6036301 0.2491623 0.4009912 0.1498396 0.7124571 0.1486114 0.5573825 0.1498396 0.5573825 0.1437368 0.400991 0.1449697 0.5560656 0.1437368 0.5560656 0.2245649 0.5978333 0.2258203 0.4009909 0.2258203 0.5978333 0.2454985 0.5978334 0.2442431 0.4009911 0.2454985 0.400991 0.1608099 0.400991 0.1620472 0.5560656 0.1608099 0.5560656 0.1791657 0.5560656 0.1779217 0.400991 0.1791657 0.400991 0.2467029 0.400991 0.2479579 0.6036302 0.2467029 0.6036299 0.1461741 0.5573825 0.1474024 0.7124571 0.1461741 0.7124571 0.2577962 0.6036301 0.2565411 0.400991 0.2577964 0.400991 0.1681352 0.400991 0.1693774 0.5560656 0.1681352 0.5560656 0.2233605 0.5978332 0.2221052 0.4009909 0.2233604 0.4009911 0.218441 0.400991 0.2171857 0.5978333 0.2171857 0.4009911 0.1534898 0.5573825 0.1546824 0.7124571 0.1534898 0.7124571 0.1828187 0.400991 0.184063 0.5560656 0.1828187 0.5560656 0.2786788 0.400991 0.2799341 0.6036299 0.2786787 0.6036302 0.2540816 0.6036301 0.2553367 0.400991 0.2553367 0.6036302 0.1767172 0.5560656 0.175475 0.400991 0.1767172 0.400991 0.155929 0.400991 0.157164 0.5560656 0.155929 0.5560656 0.214726 0.400991 0.2159813 0.5978333 0.214726 0.5978332 0.1522854 0.7124571 0.1510928 0.5573825 0.1522854 0.5573825 0.22828 0.597833 0.2270246 0.400991 0.22828 0.400991 0.1999745 0.400991 0.2012231 0.5560656 0.1999745 0.5560656 0.2774743 0.400991 0.2762189 0.6036299 0.276219 0.400991 0.2811384 0.6036301 0.2823939 0.400991 0.2823939 0.6036303 0.2061426 0.5560656 0.2048872 0.400991 0.2061426 0.400991 0.1547247 0.5560656 0.1534898 0.400991 0.1547247 0.400991 0.2122663 0.400991 0.2135217 0.5978334 0.2122663 0.5978334 0.1656934 0.400991 0.1669309 0.5560656 0.1656934 0.5560656 0.2417833 0.597833 0.2430387 0.400991 0.2430387 0.5978331 0.1938646 0.5560656 0.1926164 0.400991 0.1938646 0.400991 0.2639202 0.60363 0.2651755 0.4009909 0.2651755 0.60363 0.2848539 0.6036301 0.2835988 0.400991 0.2848539 0.400991 0.2024275 0.400991 0.2036828 0.5560656 0.2024275 0.5560656 0.1449651 0.7124571 0.1437368 0.5573825 0.1449651 0.5573825 0.2209008 0.5978333 0.2196455 0.4009912 0.2209008 0.400991 0.164489 0.5560656 0.1632515 0.400991 0.164489 0.400991 0.2368638 0.400991 0.2381189 0.5978333 0.2368638 0.5978334 0.1816143 0.5560656 0.1803701 0.400991 0.1816143 0.400991 0.2676352 0.6036301 0.26638 0.400991 0.2676352 0.400991 0.2700949 0.6036302 0.2688397 0.4009911 0.270095 0.400991 0.171824 0.5560656 0.1705819 0.400991 0.171824 0.400991 0.155929 0.5573825 0.1571571 0.7124571 0.155929 0.7124571 0.2294844 0.400991 0.2307398 0.5978333 0.2294844 0.597833 0.2356593 0.400991 0.2344042 0.5978332 0.2344039 0.4009912 0.1852674 0.400991 0.1865117 0.5560656 0.1852674 0.5560656 0.1901662 0.400991 0.1914119 0.400991 0.1914119 0.5560656 0.2712994 0.400991 0.2725548 0.400991 0.2725548 0.6036302 0.1730284 0.400991 0.1742706 0.400991 0.1742706 0.5560656 0.2590008 0.400991 0.2602561 0.400991 0.2602561 0.60363 0.1510506 0.400991 0.1522854 0.400991 0.1522854 0.5560656 0.2331995 0.400991 0.2331995 0.5978329 0.2319442 0.5978333 0.2086022 0.4009909 0.2086022 0.597833 0.2073469 0.597833 0.1975218 0.400991 0.1987701 0.400991 0.1987701 0.5560656 0.1889618 0.5560656 0.1877161 0.5560656 0.1877161 0.400991 0.2614604 0.60363 0.2614605 0.400991 0.2627158 0.400991 0.2528771 0.400991 0.2528771 0.6036298 0.2516217 0.60363 0.1498462 0.5560656 0.1486114 0.5560656 0.1486114 0.400991 0.147407 0.5560656 0.1461741 0.5560656 0.1461741 0.400991 0.2098066 0.400991 0.2110618 0.400991 0.2110618 0.597833 0.1963173 0.5560656 0.195069 0.5560656 0.195069 0.400991 0.2393236 0.5978333 0.2393236 0.400991 0.240579 0.4009911 0.1596056 0.5560656 0.1583684 0.5560656 0.1583684 0.400991 0.2750145 0.60363 0.2737591 0.6036301 0.2737591 0.400991 0.2504174 0.4009909 0.2504174 0.6036299 0.2491623 0.6036301 0.1498396 0.7124571 0.1486114 0.7124571 0.1486114 0.5573825 0.1437368 0.400991 0.1449697 0.400991 0.1449697 0.5560656 0.2245649 0.5978333 0.224565 0.4009912 0.2258203 0.4009909 0.2454985 0.5978334 0.2442432 0.597833 0.2442431 0.4009911 0.1608099 0.400991 0.1620472 0.400991 0.1620472 0.5560656 0.1791657 0.5560656 0.1779217 0.5560656 0.1779217 0.400991 0.2467029 0.400991 0.2479579 0.4009912 0.2479579 0.6036302 0.1461741 0.5573825 0.1474024 0.5573825 0.1474024 0.7124571 0.2577962 0.6036301 0.2565411 0.6036303 0.2565411 0.400991 0.1681352 0.400991 0.1693774 0.400991 0.1693774 0.5560656 0.2233605 0.5978332 0.2221052 0.5978332 0.2221052 0.4009909 0.218441 0.400991 0.218441 0.5978332 0.2171857 0.5978333 0.1534898 0.5573825 0.1546824 0.5573825 0.1546824 0.7124571 0.1828187 0.400991 0.184063 0.400991 0.184063 0.5560656 0.2786788 0.400991 0.2799341 0.400991 0.2799341 0.6036299 0.2540816 0.6036301 0.2540814 0.4009909 0.2553367 0.400991 0.1767172 0.5560656 0.175475 0.5560656 0.175475 0.400991 0.155929 0.400991 0.157164 0.400991 0.157164 0.5560656 0.214726 0.400991 0.2159813 0.4009911 0.2159813 0.5978333 0.1522854 0.7124571 0.1510928 0.7124571 0.1510928 0.5573825 0.22828 0.597833 0.2270246 0.597833 0.2270246 0.400991 0.1999745 0.400991 0.2012231 0.400991 0.2012231 0.5560656 0.2774743 0.400991 0.2774743 0.6036301 0.2762189 0.6036299 0.2811384 0.6036301 0.2811388 0.400991 0.2823939 0.400991 0.2061426 0.5560656 0.2048872 0.5560656 0.2048872 0.400991 0.1547247 0.5560656 0.1534898 0.5560656 0.1534898 0.400991 0.2122663 0.400991 0.2135217 0.4009913 0.2135217 0.5978334 0.1656934 0.400991 0.1669309 0.400991 0.1669309 0.5560656 0.2417833 0.597833 0.2417833 0.400991 0.2430387 0.400991 0.1938646 0.5560656 0.1926164 0.5560656 0.1926164 0.400991 0.2639202 0.60363 0.2639202 0.4009909 0.2651755 0.4009909 0.2848539 0.6036301 0.2835984 0.6036303 0.2835988 0.400991 0.2024275 0.400991 0.2036828 0.400991 0.2036828 0.5560656 0.1449651 0.7124571 0.1437368 0.7124571 0.1437368 0.5573825 0.2209008 0.5978333 0.2196455 0.5978333 0.2196455 0.4009912 0.164489 0.5560656 0.1632515 0.5560656 0.1632515 0.400991 0.2368638 0.400991 0.2381192 0.4009912 0.2381189 0.5978333 0.1816143 0.5560656 0.1803701 0.5560656 0.1803701 0.400991 0.2676352 0.6036301 0.26638 0.6036301 0.26638 0.400991 0.2700949 0.6036302 0.2688397 0.6036303 0.2688397 0.4009911 0.171824 0.5560656 0.1705819 0.5560656 0.1705819 0.400991 0.155929 0.5573825 0.1571571 0.5573825 0.1571571 0.7124571 0.2294844 0.400991 0.2307397 0.400991 0.2307398 0.5978333 0.2356593 0.400991 0.2356593 0.5978333 0.2344042 0.5978332 0.1852674 0.400991 0.1865117 0.400991 0.1865117 0.5560656</float_array>
          <technique_common>
            <accessor source="#Cube_036-mesh-map-1-array" count="576" stride="2">
              <param name="S" type="float"/>
              <param name="T" type="float"/>
            </accessor>
          </technique_common>
        </source>
        <vertices id="Cube_036-mesh-vertices">
          <input semantic="POSITION" source="#Cube_036-mesh-positions"/>
        </vertices>
        <triangles material="hierva_choza_gaetuli-material" count="192">
          <input semantic="VERTEX" source="#Cube_036-mesh-vertices" offset="0"/>
          <input semantic="NORMAL" source="#Cube_036-mesh-normals" offset="1"/>
          <input semantic="TEXCOORD" source="#Cube_036-mesh-map-0" offset="2" set="0"/>
          <input semantic="TEXCOORD" source="#Cube_036-mesh-map-1" offset="2" set="1"/>
          <p>0 0 0 1 1 1 3 2 2 0 0 3 3 2 4 2 3 5 4 4 6 7 4 7 5 5 8 4 4 9 6 5 10 7 4 11 8 6 12 9 7 13 11 8 14 8 6 15 11 8 16 10 9 17 12 10 18 15 11 19 13 12 20 12 10 21 14 13 22 15 11 23 16 14 24 17 15 25 19 14 26 16 14 27 19 14 28 18 16 29 20 17 30 23 18 31 21 19 32 20 17 33 22 20 34 23 18 35 24 21 36 27 22 37 25 23 38 24 21 39 26 24 40 27 22 41 28 25 42 29 26 43 31 27 44 28 25 45 31 27 46 30 28 47 32 29 48 35 29 49 33 30 50 32 29 51 34 31 52 35 29 53 36 32 54 37 33 55 39 32 56 36 32 57 39 32 58 38 34 59 40 35 60 41 36 61 43 37 62 40 35 63 43 37 64 42 38 65 44 39 66 47 40 67 45 41 68 44 39 69 46 42 70 47 40 71 48 43 72 49 44 73 51 45 74 48 43 75 51 45 76 50 46 77 52 47 78 55 48 79 53 49 80 52 47 81 54 50 82 55 48 83 56 51 84 59 52 85 57 53 86 56 51 87 58 54 88 59 52 89 60 55 90 61 55 91 63 55 92 60 55 93 63 55 94 62 55 95 64 56 96 65 56 97 66 57 98 64 56 99 67 58 100 65 56 101 68 59 102 69 60 103 70 59 104 68 59 105 70 59 106 71 60 107 72 61 108 73 62 109 74 63 110 72 61 111 75 64 112 73 62 113 76 65 114 77 66 115 78 65 116 76 65 117 78 65 118 79 67 119 80 68 120 81 69 121 82 70 122 80 68 123 83 71 124 81 69 125 84 72 126 85 73 127 86 74 128 84 72 129 86 74 130 87 75 131 88 76 132 89 77 133 90 76 134 88 76 135 90 76 136 91 77 137 92 78 138 93 79 139 94 80 140 92 78 141 95 81 142 93 79 143 96 82 144 97 83 145 98 84 146 96 82 147 98 84 148 99 85 149 100 86 150 101 87 151 102 88 152 100 86 153 103 89 154 101 87 155 104 90 156 105 91 157 106 92 158 104 90 159 107 93 160 105 91 161 108 94 162 109 65 163 110 95 164 108 94 165 110 95 166 111 96 167 112 97 168 113 97 169 114 98 170 112 97 171 115 99 172 113 97 173 116 100 174 117 101 175 118 102 176 116 100 177 118 102 178 119 103 179 120 104 180 121 105 181 122 106 182 120 104 183 122 106 184 123 107 185 124 108 186 125 108 187 126 108 188 124 108 189 127 108 190 125 108 191 48 109 192 114 110 193 49 111 194 27 112 195 89 113 196 25 114 197 6 115 198 70 116 199 7 117 200 50 118 201 112 119 202 48 120 203 28 121 204 94 121 205 29 121 206 5 122 207 70 123 208 69 124 209 28 125 210 95 126 211 92 127 212 8 128 213 74 129 214 9 130 215 51 131 216 115 132 217 50 133 218 8 134 219 75 135 220 72 136 221 51 137 222 114 138 223 113 139 224 31 140 225 95 141 226 30 142 227 53 143 228 116 143 229 52 143 230 29 144 231 93 145 232 31 146 233 11 147 234 75 148 235 10 149 236 54 150 237 116 151 238 119 127 239 33 152 240 96 153 241 32 154 242 9 155 243 73 156 244 11 157 245 34 158 246 96 159 247 99 127 248 13 160 249 76 161 250 12 162 251 54 163 252 118 164 253 55 165 254 14 166 255 76 167 256 79 127 257 55 168 258 117 169 259 53 170 260 34 171 261 98 172 262 35 173 263 57 174 264 120 174 265 56 175 266 35 176 267 97 177 268 33 178 269 14 179 270 78 180 271 15 181 272 56 182 273 123 183 274 58 184 275 36 185 276 102 186 277 37 187 278 15 188 279 77 189 280 13 190 281 36 191 282 103 192 283 100 127 284 16 193 285 82 194 286 17 195 287 58 196 288 122 196 289 59 197 290 18 198 291 80 199 292 16 200 293 57 201 294 122 202 295 121 124 296 39 203 297 103 204 298 38 205 299 60 206 300 126 207 301 61 208 302 37 209 303 101 210 304 39 211 305 19 212 306 83 213 307 18 214 308 62 215 309 124 216 310 60 217 311 40 218 312 106 219 313 41 220 314 19 221 315 82 222 316 81 124 317 40 223 318 107 224 319 104 127 320 21 225 321 84 226 322 20 227 323 63 228 324 127 229 325 62 230 326 20 231 327 87 232 328 22 233 329 0 234 330 66 235 331 1 236 332 63 237 333 126 238 334 125 124 335 43 239 336 107 240 337 42 241 338 0 242 339 67 243 340 64 127 341 41 244 342 105 245 343 43 246 344 22 247 345 86 248 346 23 249 347 45 250 348 108 250 349 44 250 350 23 251 351 85 252 352 21 253 353 3 254 354 67 255 355 2 256 356 44 257 357 111 258 358 46 259 359 25 260 360 88 261 361 24 262 362 1 263 363 65 264 364 3 265 365 24 266 366 91 267 367 26 268 368 5 269 369 68 270 370 4 271 371 46 272 372 110 273 373 47 274 374 4 275 375 71 276 376 6 277 377 45 278 378 110 279 379 109 124 380 26 280 381 90 281 382 27 282 383 48 109 384 112 283 385 114 110 386 27 112 387 90 284 388 89 113 389 6 115 390 71 285 391 70 116 392 50 118 393 115 127 394 112 119 395 28 121 396 92 121 397 94 121 398 5 122 399 7 286 400 70 123 401 28 125 402 30 287 403 95 126 404 8 128 405 72 288 406 74 129 407 51 131 408 113 289 409 115 132 410 8 134 411 10 290 412 75 135 413 51 137 414 49 291 415 114 138 416 31 140 417 93 292 418 95 141 419 53 143 420 117 143 421 116 143 422 29 144 423 94 124 424 93 145 425 11 147 426 73 293 427 75 148 428 54 150 429 52 294 430 116 151 431 33 152 432 97 295 433 96 153 434 9 155 435 74 296 436 73 156 437 34 158 438 32 297 439 96 159 440 13 160 441 77 160 442 76 161 443 54 163 444 119 163 445 118 164 446 14 166 447 12 298 448 76 167 449 55 168 450 118 124 451 117 169 452 34 171 453 99 299 454 98 172 455 57 174 456 121 175 457 120 174 458 35 176 459 98 124 460 97 177 461 14 179 462 79 300 463 78 180 464 56 182 465 120 127 466 123 183 467 36 185 468 100 301 469 102 186 470 15 188 471 78 124 472 77 189 473 36 191 474 38 302 475 103 192 476 16 193 477 80 303 478 82 194 479 58 196 480 123 197 481 122 196 482 18 198 483 83 127 484 80 199 485 57 201 486 59 304 487 122 202 488 39 203 489 101 305 490 103 204 491 60 206 492 124 306 493 126 207 494 37 209 495 102 124 496 101 210 497 19 212 498 81 307 499 83 213 500 62 215 501 127 127 502 124 216 503 40 218 504 104 308 505 106 219 506 19 221 507 17 309 508 82 222 509 40 223 510 42 310 511 107 224 512 21 225 513 85 311 514 84 226 515 63 228 516 125 312 517 127 229 518 20 231 519 84 313 520 87 232 521 0 234 522 64 314 523 66 235 524 63 237 525 61 315 526 126 238 527 43 239 528 105 316 529 107 240 530 0 242 531 2 317 532 67 243 533 41 244 534 106 124 535 105 245 536 22 247 537 87 318 538 86 248 539 45 250 540 109 250 541 108 250 542 23 251 543 86 319 544 85 252 545 3 254 546 65 320 547 67 255 548 44 257 549 108 127 550 111 258 551 25 260 552 89 321 553 88 261 554 1 263 555 66 322 556 65 264 557 24 266 558 88 127 559 91 267 560 5 269 561 69 323 562 68 270 563 46 272 564 111 324 565 110 273 566 4 275 567 68 127 568 71 276 569 45 278 570 47 325 571 110 279 572 26 280 573 91 326 574 90 281 575</p>
        </triangles>
      </mesh>
    </geometry>
  </library_geometries>
  <library_visual_scenes>
    <visual_scene id="Scene" name="Scene">
      <node id="cc_f" name="cc_f" type="NODE">
        <matrix sid="transform">1 0 0 0 0 1 0 0 0 0 1 0 0 0 0 1</matrix>
        <instance_geometry url="#Cube_036-mesh" name="cc_f">
          <bind_material>
            <technique_common>
              <instance_material symbol="hierva_choza_gaetuli-material" target="#hierva_choza_gaetuli-material">
                <bind_vertex_input semantic="Cube_036-mesh-map-0" input_semantic="TEXCOORD" input_set="0"/>
                <bind_vertex_input semantic="Cube_036-mesh-map-1" input_semantic="TEXCOORD" input_set="1"/>
              </instance_material>
            </technique_common>
          </bind_material>
        </instance_geometry>
        <node id="prop_garrisoned" name="prop_garrisoned" type="NODE">
          <matrix sid="transform">-0.7829416 1.18221e-7 0 5.35037e-14 -1.18221e-7 -0.7829416 0 5.033843 0 0 0.7829416 9.013988 0 0 0 1</matrix>
        </node>
        <node id="prop_projectile" name="prop_projectile" type="NODE">
          <matrix sid="transform">-0.7829416 1.18221e-7 0 5.35037e-14 -1.18221e-7 -0.7829416 0 5.033842 0 0 0.7829416 9.013988 0 0 0 1</matrix>
        </node>
      </node>
    </visual_scene>
  </library_visual_scenes>
  <scene>
    <instance_visual_scene url="#Scene"/>
  </scene>
</COLLADA>