<?xml version="1.0" encoding="utf-8"?>
<COLLADA xmlns="http://www.collada.org/2005/11/COLLADASchema" version="1.4.1" xmlns:xsi="http://www.w3.org/2001/XMLSchema-instance">
  <asset>
    <contributor>
      <author>Blender User</author>
      <authoring_tool>Blender 4.3.1 commit date:2024-12-10, commit time:07:46, hash:33d812126174</authoring_tool>
    </contributor>
    <created>2026-08-22T19:04:18</created>
    <modified>2026-08-22T19:04:18</modified>
    <unit name="meter" meter="1"/>
    <up_axis>Z_UP</up_axis>
  </asset>
  <library_effects>
    <effect id="hierva_choza_gaetuli-effect">
      <profile_COMMON>
        <technique sid="common">
          <lambert>
            <emission>
              <color sid="emission">0 0 0 1</color>
            </emission>
            <diffuse>
              <color sid="diffuse">0.8 0.8 0.8 1</color>
            </diffuse>
            <index_of_refraction>
              <float sid="ior">1.45</float>
            </index_of_refraction>
          </lambert>
        </technique>
      </profile_COMMON>
    </effect>
  </library_effects>
  <library_images/>
  <library_materials>
    <material id="hierva_choza_gaetuli-material" name="hierva choza gaetuli">
      <instance_effect url="#hierva_choza_gaetuli-effect"/>
    </material>
  </library_materials>
  <library_geometries>
    <geometry id="Cube_047-mesh" name="Cube.047">
      <mesh>
        <source id="Cube_047-mesh-positions">
          <float_array id="Cube_047-mesh-positions-array" count="336">-9.24399 -0.08318191 3.902888 -9.24399 -0.08318191 0.4004871 -11.79497 3.716594 3.902888 -11.79497 3.716594 0.4004871 -9.142702 3.647049 3.902889 -9.142702 3.647049 0.4004871 -11.89009 0.1518594 3.902889 -11.89009 0.1518594 0.4004871 3.94324 -6.354093 3.902888 3.94324 -6.354093 0.4004871 0.07739609 -8.803792 3.902888 0.07739609 -8.803792 0.4004871 0.216988 -6.154287 3.902888 0.216988 -6.154287 0.4004871 3.638374 -8.993062 3.902888 3.638374 -8.993062 0.4004871 -2.709456 -10.84594 3.902888 -2.709456 -10.84594 0.4004871 -5.260434 -7.046168 3.902888 -5.260434 -7.046168 0.4004871 -2.608165 -7.115713 3.902888 -2.608165 -7.115713 0.4004871 -5.355559 -10.6109 3.902888 -5.355559 -10.6109 0.4004871 6.207523 11.6146 3.902888 6.207523 11.6146 0.4004871 2.341678 9.164903 3.902888 2.341678 9.164903 0.4004871 2.48127 11.81441 3.902888 2.48127 11.81441 0.4004871 5.902655 8.975633 3.902888 5.902655 8.975633 0.4004871 12.66989 -1.022392 3.902888 12.66989 -1.022392 0.4004871 10.11891 2.777384 3.902888 10.11891 2.777384 0.4004871 12.77118 2.70784 3.902888 12.77118 2.70784 0.4004871 10.02379 -0.78735 3.902888 10.02379 -0.78735 0.4004871 2.917906 7.199169 3.902888 2.917906 7.199169 0.4004871 0.3669287 10.99895 3.902888 0.3669287 10.99895 0.4004871 3.019197 10.9294 3.902888 3.019197 10.9294 0.4004871 0.2718032 7.434209 3.902888 0.2718032 7.434209 0.4004871 -6.964069 8.847032 3.902888 -6.964069 8.847032 0.4004871 -10.82991 6.397332 3.902888 -10.82991 6.397332 0.4004871 -10.69032 9.046837 3.902888 -10.69032 9.046837 0.4004871 -7.268937 6.208062 3.902888 -7.268937 6.208062 0.4004871 -9.269728 -0.100461 3.902888 -11.82071 3.699315 0.4004871 -9.269728 -0.100461 0.4004871 -11.82071 3.699315 3.902888 -9.167073 3.666207 3.902889 -9.167073 3.666207 0.4004871 -11.91446 0.1710169 0.4004871 -11.91446 0.1710169 3.902889 3.926647 -6.327908 3.902888 3.926647 -6.327908 0.4004871 0.06080293 -8.777607 0.4004871 0.06080293 -8.777607 3.902888 0.1971932 -6.178145 3.902888 0.1971932 -6.178145 0.4004871 3.618579 -9.016921 0.4004871 3.618579 -9.016921 3.902888 -2.683718 -10.82866 3.902888 -2.683718 -10.82866 0.4004871 -5.234696 -7.028889 0.4004871 -5.234696 -7.028889 3.902888 -2.632537 -7.096555 3.902888 -2.632537 -7.096555 0.4004871 -5.379931 -10.59174 0.4004871 -5.379931 -10.59174 3.902888 6.19093 11.64079 3.902888 6.19093 11.64079 0.4004871 2.325085 9.191088 0.4004871 2.325085 9.191088 3.902888 2.461475 11.79055 3.902888 2.461475 11.79055 0.4004871 5.88286 8.951776 0.4004871 5.88286 8.951776 3.902888 12.64415 -1.039671 3.902888 10.09317 2.760105 0.4004871 12.64415 -1.039671 0.4004871 10.09317 2.760105 3.902888 12.74681 2.726997 3.902888 12.74681 2.726997 0.4004871 9.999418 -0.7681925 0.4004871 9.999418 -0.7681925 3.902888 2.892169 7.181889 3.902888 0.3411909 10.98167 0.4004871 2.892169 7.181889 0.4004871 0.3411909 10.98167 3.902888 2.994825 10.94856 3.902888 2.994825 10.94856 0.4004871 0.2474312 7.453366 0.4004871 0.2474312 7.453366 3.902888 -6.947476 8.820846 3.902888 -10.81332 6.371147 0.4004871 -6.947476 8.820846 0.4004871 -10.81332 6.371147 3.902888 -10.71012 9.02298 3.902888 -10.71012 9.02298 0.4004871 -7.288731 6.184205 0.4004871 -7.288731 6.184205 3.902888</float_array>
          <technique_common>
            <accessor source="#Cube_047-mesh-positions-array" count="112" stride="3">
              <param name="X" type="float"/>
              <param name="Y" type="float"/>
              <param name="Z" type="float"/>
            </accessor>
          </technique_common>
        </source>
        <source id="Cube_047-mesh-normals">
          <float_array id="Cube_047-mesh-normals-array" count="816">0.8302515 0.5573891 0 0.8302515 0.557389 0 0.8302513 0.5573892 0 0.8302513 0.5573893 0 0.7861908 -0.6179841 0 0.5352597 -0.8446877 0 0.5352597 -0.8446876 0 0.5352596 -0.8446877 0 0.6385396 0.769589 0 0.6385396 0.7695891 0 -0.8302512 -0.5573893 0 -0.8302512 -0.5573894 0 -0.8302513 -0.5573894 0 0.7861898 -0.6179851 0 0.7861899 -0.6179851 0 0.5352594 -0.8446879 0 0.5352593 -0.8446878 0 0.5352593 -0.8446879 0 0.6385399 0.7695887 0 0.6385399 0.7695888 0 0.8302514 0.5573891 0 0.8302516 0.557389 0 0.8302514 0.5573891 0 0.8302513 0.5573893 0 0.7861905 -0.6179843 0 0.7861905 -0.6179843 0 0.7861905 -0.6179844 0 0.7861906 -0.6179841 0 0.8302519 0.5573884 0 0.8302519 0.5573884 0 0.7861902 -0.6179846 0 0.7861903 -0.6179847 0 -0.5352602 0.8446873 0 -0.5352601 0.8446873 0 0.6385398 0.7695888 0 0.6385397 0.769589 0 0.63854 0.7695888 0 -0.8302511 -0.5573896 0 -0.830251 -0.5573896 0 -0.7861909 0.6179838 0 -0.786191 0.6179837 0 -0.7861908 0.6179838 0 -0.7861907 0.6179839 0 -0.5352597 0.8446876 0 -0.5352597 0.8446877 0 -0.6385396 -0.769589 0 -0.6385396 -0.7695891 0 -0.6385397 -0.769589 0 0.8302512 0.5573895 0 0.8302511 0.5573896 0 0.8302512 0.5573894 0 -0.7861897 0.6179853 0 -0.7861896 0.6179853 0 -0.7861897 0.6179853 0 -0.7861898 0.6179852 0 -0.53526 0.8446874 0 -0.5352601 0.8446874 0 -0.6385394 -0.7695893 0 -0.6385395 -0.7695891 0 -0.6385394 -0.7695891 0 -0.8302514 -0.5573893 0 -0.8302513 -0.5573893 0 -0.8302513 -0.5573893 0 -0.7861902 0.6179847 0 -0.7861901 0.6179848 0 -0.7861902 0.6179846 0 -0.7861903 0.6179845 0 -0.8302518 -0.5573886 0 -0.8302518 -0.5573886 0 -0.7861905 0.6179842 0 -0.7861905 0.6179842 0 -0.7861906 0.6179842 0 0.5352596 -0.8446877 0 0.5352596 -0.8446877 0 0.5352596 -0.8446878 0 -0.6385391 -0.7695894 0 -0.6385392 -0.7695893 0 -0.6385391 -0.7695894 0 0 0 1 7.94819e-6 0 1 7.98265e-6 0 1 0.6180078 0.786172 0 0.6180079 0.7861719 0 0.6180079 0.786172 0 -0.6179712 -0.7862008 0 -0.6179712 -0.7862008 0 0 0 1 -5.49019e-6 0 1 -5.51461e-6 0 1 1.71838e-6 0 -1 -8.73613e-7 0 -1 -8.85222e-7 0 -1 -0.8446871 -0.5352606 0 -0.8446792 -0.5352729 0 -0.8446792 -0.535273 0 0.8446881 0.5352589 0 0.8447038 0.5352341 0 0.844704 0.535234 0 0 0 -1 1.83018e-7 0 -1 0 0 -1 -0.6180294 -0.7861552 0 -0.6179955 -0.7861816 0 -0.6179954 -0.7861818 0 0 0 1 6.6927e-6 0 1 6.72172e-6 0 1 -0.7696197 0.6385027 0 -0.7696196 0.6385027 0 -1.71599e-6 0 -1 1.40526e-6 0 -1 -1.72997e-6 0 -1 0 0 1 -8.93424e-6 0 1 -8.97412e-6 0 1 0.8446792 0.5352729 0 0.8446871 0.5352606 0 0.8446872 0.5352605 0 -0.844727 -0.5351974 0 -0.8447584 -0.535148 0 -0.8447586 -0.5351477 0 0 0 1 5.43805e-6 0 1 0 0 1 0 0 -1 -6.79728e-7 0 -1 0.7695734 -0.6385584 0 0.7695904 -0.6385378 0 0.7695906 -0.6385377 0 -0.7694872 0.6386623 0 -0.7695213 0.6386212 0 -0.7695215 0.6386209 0 1.71964e-6 0 -1 -5.43975e-7 0 -1 1.72977e-6 0 -1 -0.8446843 -0.535265 0 -0.8446844 -0.5352647 0 -0.8446845 -0.5352647 0 0 0 1 -4.84333e-6 0 1 0.557365 -0.8302676 0 0 0 -1 -1.83011e-7 0 -1 -1.83804e-7 0 -1 0 0 1 -6.69257e-6 0 1 -6.72156e-6 0 1 -0.7695983 0.6385284 0 -0.7695989 0.6385278 0 -0.7695988 0.6385278 0 0.7695907 -0.6385375 0 0.7696077 -0.638517 0 0.7696079 -0.6385169 0 1.37443e-5 0 1 -7.4731e-6 0 1 -7.56812e-6 0 1 0 0 -1 5.51601e-7 0 -1 5.54061e-7 0 -1 -0.5573379 0.8302858 0 -0.5573701 0.8302642 0 -0.5573704 0.8302641 0 0 0 -1 0 0 -1 0.7695859 -0.6385434 0 0.7695945 -0.638533 0 0.7695945 -0.6385329 0 0.6180179 0.7861641 0 0.6179842 0.7861905 0 0.617984 0.7861907 0 0 0 -1 -2.01818e-7 0 -1 0 0 1 6.35096e-6 0 1 6.37921e-6 0 1 0.5573972 -0.830246 0 0.5573971 -0.830246 0 0.5573972 -0.830246 0 1.33604e-5 0 1 -5.69365e-6 0 1 1.34434e-5 0 1 -0.6179945 -0.7861825 0 -0.6179608 -0.7862091 0 -0.6179605 -0.7862091 0 0 0 -1 -1.34554e-7 0 -1 -0.5573599 0.830271 0 -0.5573921 0.8302494 0 -0.5573923 0.8302493 0 0.5574321 -0.8302226 0 0.557416 -0.8302333 0 0.557416 -0.8302335 0 0 0 -1 6.79745e-7 0 -1 6.82693e-7 0 -1 0 0 1 4.39231e-6 0 1 0.6179955 0.7861816 0 0.6180039 0.7861751 0 0.6180039 0.786175 0 0 0 1 -1.61465e-6 0 1 0.5574015 -0.8302431 0 0.5574015 -0.830243 0 0.5574015 -0.8302431 0 -0.5574225 0.830229 0 -0.5574235 0.8302285 0 0 0 1 -3.13727e-6 0 1 -3.15085e-6 0 1 0 0 -1 6.53617e-7 0 -1 6.56444e-7 0 -1 -0.6180504 -0.7861385 0 -0.6180335 -0.7861518 0 -0.6180334 -0.7861518 0 0.6180419 0.7861452 0 0.6180335 0.7861518 0 0.6180334 0.7861518 0 0 0 -1 1.41282e-7 0 -1 1.41912e-7 0 -1 -0.5573327 0.8302893 0 -0.5573648 0.8302677 0 -0.557365 0.8302676 0 0 0 1 1.07639e-6 0 1 0.844739 0.5351785 0 0.8447233 0.5352033 0 0.8447233 0.5352035 0 0 0 -1 0 0 -1 0 0 -1 0.6180078 0.786172 0 1.72996e-6 0 -1 -0.8446872 -0.5352605 0 0.844688 0.5352591 0 1.83811e-7 0 -1 -0.6180295 -0.7861549 0 -0.7696197 0.6385027 0 1.4192e-6 0 -1 0.8446792 0.535273 0 -0.8447269 -0.5351977 0 5.4616e-6 0 1 -6.82675e-7 0 -1 0.7695733 -0.6385585 0 -0.7694871 0.6386625 0 -5.54125e-7 0 -1 -4.86492e-6 0 1 -0.7695984 0.6385284 0 1.38393e-5 0 1 -0.5573378 0.830286 0 0 0 -1 0.7695859 -0.6385434 0 0.6180181 0.7861639 0 -2.02717e-7 0 -1 0.5573973 -0.830246 0 -5.77663e-6 0 1 -0.6179947 -0.7861823 0 -1.35153e-7 0 -1 -0.5573597 0.8302712 0 0.5574322 -0.8302225 0 4.4113e-6 0 1 0.6179955 0.7861817 0 -1.62185e-6 0 1 0.5574015 -0.8302432 0 -0.5574225 0.8302291 0 -0.6180505 -0.7861384 0 0.618042 0.7861452 0 -0.5573325 0.8302894 0 1.08119e-6 0 1 0.8447391 0.5351783 0</float_array>
          <technique_common>
            <accessor source="#Cube_047-mesh-normals-array" count="272" stride="3">
              <param name="X" type="float"/>
              <param name="Y" type="float"/>
              <param name="Z" type="float"/>
            </accessor>
          </technique_common>
        </source>
        <source id="Cube_047-mesh-map-0">
          <float_array id="Cube_047-mesh-map-0-array" count="1008">0.9984335 0.6838312 1.000765 0.001214206 0.001161634 6.92369e-4 0.9984335 0.6838312 0.001161634 6.92369e-4 5.39125e-4 0.6833093 0.9984335 0.6838312 0.001161634 6.92369e-4 1.000765 0.001214206 0.9984335 0.6838312 5.39125e-4 0.6833093 0.001161634 6.92369e-4 0.9984335 0.6838312 0.001161634 6.92369e-4 1.000765 0.001214206 0.9984335 0.6838312 5.39125e-4 0.6833093 0.001161634 6.92369e-4 0.9984335 0.6838312 0.001161634 6.92369e-4 1.000765 0.001214206 0.9984335 0.6838312 5.39125e-4 0.6833093 0.001161634 6.92369e-4 0.9984335 0.6838312 0.001161634 6.92369e-4 1.000765 0.001214206 0.9984335 0.6838312 5.39125e-4 0.6833093 0.001161634 6.92369e-4 0.9984335 0.6838312 0.001161634 6.92369e-4 1.000765 0.001214206 0.9984335 0.6838312 5.39125e-4 0.6833093 0.001161634 6.92369e-4 0.9984335 0.6838312 0.001161634 6.92369e-4 1.000765 0.001214206 0.9984335 0.6838312 5.39125e-4 0.6833093 0.001161634 6.92369e-4 0.9984335 0.6838312 0.001161634 6.92369e-4 1.000765 0.001214206 0.9984335 0.6838312 5.39125e-4 0.6833093 0.001161634 6.92369e-4 0.9984335 0.6838312 1.000765 0.001214206 0.001161634 6.92369e-4 0.9984335 0.6838312 0.001161634 6.92369e-4 5.39125e-4 0.6833093 0.9984335 0.6838312 0.001161634 6.92369e-4 1.000765 0.001214206 0.9984335 0.6838312 5.39125e-4 0.6833093 0.001161634 6.92369e-4 0.9984335 0.6838312 1.000765 0.001214206 0.001161634 6.92369e-4 0.9984335 0.6838312 0.001161634 6.92369e-4 5.39125e-4 0.6833093 0.9984335 0.6838312 0.001161634 6.92369e-4 1.000765 0.001214206 0.9984335 0.6838312 5.39125e-4 0.6833093 0.001161634 6.92369e-4 0.9984335 0.6838312 1.000765 0.001214206 0.001161634 6.92369e-4 0.9984335 0.6838312 0.001161634 6.92369e-4 5.39125e-4 0.6833093 0.9984335 0.6838312 0.001161634 6.92369e-4 1.000765 0.001214206 0.9984335 0.6838312 5.39125e-4 0.6833093 0.001161634 6.92369e-4 0.9984335 0.6838312 0.001161634 6.92369e-4 1.000765 0.001214206 0.9984335 0.6838312 5.39125e-4 0.6833093 0.001161634 6.92369e-4 0.9984335 0.6838312 1.000765 0.001214206 0.001161634 6.92369e-4 0.9984335 0.6838312 0.001161634 6.92369e-4 5.39125e-4 0.6833093 0.9984335 0.6838312 1.000765 0.001214206 0.001161634 6.92369e-4 0.9984335 0.6838312 0.001161634 6.92369e-4 5.39125e-4 0.6833093 0.9984335 0.6838312 1.000765 0.001214206 0.001161634 6.92369e-4 0.9984335 0.6838312 0.001161634 6.92369e-4 5.39125e-4 0.6833093 0.9984335 0.6838312 1.000765 0.001214206 0.001161634 6.92369e-4 0.9984335 0.6838312 0.001161634 6.92369e-4 5.39125e-4 0.6833093 0.9984335 0.6838312 1.000765 0.001214206 0.001161634 6.92369e-4 0.9984335 0.6838312 0.001161634 6.92369e-4 5.39125e-4 0.6833093 0.9984335 0.6838312 1.000765 0.001214206 0.001161634 6.92369e-4 0.9984335 0.6838312 0.001161634 6.92369e-4 5.39125e-4 0.6833093 0.9984335 0.6838312 1.000765 0.001214206 0.001161634 6.92369e-4 0.9984335 0.6838312 0.001161634 6.92369e-4 5.39125e-4 0.6833093 0.9984335 0.6838312 0.001161634 6.92369e-4 1.000765 0.001214206 0.9984335 0.6838312 5.39125e-4 0.6833093 0.001161634 6.92369e-4 0.9984335 0.6838312 1.000765 0.001214206 0.001161634 6.92369e-4 0.9984335 0.6838312 0.001161634 6.92369e-4 5.39125e-4 0.6833093 0.9984335 0.6838312 0.001161634 6.92369e-4 1.000765 0.001214206 0.9984335 0.6838312 5.39125e-4 0.6833093 0.001161634 6.92369e-4 0.9984335 0.6838312 1.000765 0.001214206 0.001161634 6.92369e-4 0.9984335 0.6838312 0.001161634 6.92369e-4 5.39125e-4 0.6833093 0.9984335 0.6838312 0.001161634 6.92369e-4 1.000765 0.001214206 0.9984335 0.6838312 5.39125e-4 0.6833093 0.001161634 6.92369e-4 0.9984335 0.6838312 1.000765 0.001214206 0.001161634 6.92369e-4 0.9984335 0.6838312 0.001161634 6.92369e-4 5.39125e-4 0.6833093 0.9984335 0.6838312 5.39125e-4 0.6833093 5.39125e-4 0.6833093 1.000765 0.001214206 0.9984335 0.6838312 0.9984335 0.6838312 5.39125e-4 0.6833093 0.001161634 6.92369e-4 0.001161634 6.92369e-4 0.9984335 0.6838312 5.39125e-4 0.6833093 5.39125e-4 0.6833093 0.001161634 6.92369e-4 1.000765 0.001214206 1.000765 0.001214206 5.39125e-4 0.6833093 0.001161634 6.92369e-4 0.001161634 6.92369e-4 0.9984335 0.6838312 1.000765 0.001214206 1.000765 0.001214206 1.000765 0.001214206 0.001161634 6.92369e-4 1.000765 0.001214206 5.39125e-4 0.6833093 0.001161634 6.92369e-4 0.001161634 6.92369e-4 5.39125e-4 0.6833093 0.9984335 0.6838312 0.9984335 0.6838312 1.000765 0.001214206 0.9984335 0.6838312 0.9984335 0.6838312 1.000765 0.001214206 0.001161634 6.92369e-4 1.000765 0.001214206 0.9984335 0.6838312 5.39125e-4 0.6833093 5.39125e-4 0.6833093 1.000765 0.001214206 0.9984335 0.6838312 0.9984335 0.6838312 0.001161634 6.92369e-4 5.39125e-4 0.6833093 5.39125e-4 0.6833093 5.39125e-4 0.6833093 0.9984335 0.6838312 5.39125e-4 0.6833093 0.001161634 6.92369e-4 1.000765 0.001214206 0.001161634 6.92369e-4 5.39125e-4 0.6833093 0.001161634 6.92369e-4 0.001161634 6.92369e-4 1.000765 0.001214206 0.9984335 0.6838312 0.9984335 0.6838312 1.000765 0.001214206 0.001161634 6.92369e-4 1.000765 0.001214206 5.39125e-4 0.6833093 0.001161634 6.92369e-4 0.001161634 6.92369e-4 5.39125e-4 0.6833093 0.9984335 0.6838312 5.39125e-4 0.6833093 0.9984335 0.6838312 1.000765 0.001214206 1.000765 0.001214206 0.001161634 6.92369e-4 1.000765 0.001214206 1.000765 0.001214206 5.39125e-4 0.6833093 0.9984335 0.6838312 0.9984335 0.6838312 1.000765 0.001214206 0.9984335 0.6838312 0.9984335 0.6838312 5.39125e-4 0.6833093 0.001161634 6.92369e-4 0.001161634 6.92369e-4 0.9984335 0.6838312 5.39125e-4 0.6833093 5.39125e-4 0.6833093 0.001161634 6.92369e-4 1.000765 0.001214206 1.000765 0.001214206 0.001161634 6.92369e-4 5.39125e-4 0.6833093 5.39125e-4 0.6833093 0.001161634 6.92369e-4 1.000765 0.001214206 0.001161634 6.92369e-4 5.39125e-4 0.6833093 0.001161634 6.92369e-4 0.001161634 6.92369e-4 1.000765 0.001214206 0.9984335 0.6838312 0.9984335 0.6838312 1.000765 0.001214206 0.001161634 6.92369e-4 1.000765 0.001214206 0.9984335 0.6838312 5.39125e-4 0.6833093 5.39125e-4 0.6833093 1.000765 0.001214206 0.9984335 0.6838312 0.9984335 0.6838312 5.39125e-4 0.6833093 0.9984335 0.6838312 5.39125e-4 0.6833093 5.39125e-4 0.6833093 0.001161634 6.92369e-4 0.001161634 6.92369e-4 1.000765 0.001214206 0.001161634 6.92369e-4 1.000765 0.001214206 5.39125e-4 0.6833093 0.001161634 6.92369e-4 0.001161634 6.92369e-4 0.9984335 0.6838312 1.000765 0.001214206 1.000765 0.001214206 0.001161634 6.92369e-4 1.000765 0.001214206 1.000765 0.001214206 0.9984335 0.6838312 5.39125e-4 0.6833093 0.9984335 0.6838312 1.000765 0.001214206 0.9984335 0.6838312 0.9984335 0.6838312 5.39125e-4 0.6833093 0.9984335 0.6838312 5.39125e-4 0.6833093 0.9984335 0.6838312 1.000765 0.001214206 1.000765 0.001214206 0.001161634 6.92369e-4 5.39125e-4 0.6833093 5.39125e-4 0.6833093 5.39125e-4 0.6833093 0.9984335 0.6838312 0.9984335 0.6838312 1.000765 0.001214206 0.001161634 6.92369e-4 0.001161634 6.92369e-4 5.39125e-4 0.6833093 0.001161634 6.92369e-4 0.001161634 6.92369e-4 1.000765 0.001214206 0.9984335 0.6838312 0.9984335 0.6838312 0.001161634 6.92369e-4 1.000765 0.001214206 1.000765 0.001214206 0.001161634 6.92369e-4 5.39125e-4 0.6833093 5.39125e-4 0.6833093 5.39125e-4 0.6833093 0.9984335 0.6838312 5.39125e-4 0.6833093 1.000765 0.001214206 0.9984335 0.6838312 0.9984335 0.6838312 1.000765 0.001214206 0.001161634 6.92369e-4 0.001161634 6.92369e-4 0.9984335 0.6838312 0.9984335 0.6838312 5.39125e-4 0.6833093 1.000765 0.001214206 1.000765 0.001214206 0.9984335 0.6838312 5.39125e-4 0.6833093 5.39125e-4 0.6833093 0.001161634 6.92369e-4 0.9984335 0.6838312 0.9984335 0.6838312 5.39125e-4 0.6833093 0.001161634 6.92369e-4 0.001161634 6.92369e-4 1.000765 0.001214206 5.39125e-4 0.6833093 5.39125e-4 0.6833093 0.001161634 6.92369e-4 0.9984335 0.6838312 0.9984335 0.6838312 1.000765 0.001214206 1.000765 0.001214206 0.001161634 6.92369e-4 0.001161634 6.92369e-4 5.39125e-4 0.6833093 5.39125e-4 0.6833093 0.001161634 6.92369e-4 5.39125e-4 0.6833093 5.39125e-4 0.6833093 0.9984335 0.6838312 1.000765 0.001214206 1.000765 0.001214206 0.9984335 0.6838312 1.000765 0.001214206 0.001161634 6.92369e-4 0.001161634 6.92369e-4 0.9984335 0.6838312 0.9984335 0.6838312 5.39125e-4 0.6833093 1.000765 0.001214206 1.000765 0.001214206 0.9984335 0.6838312 0.001161634 6.92369e-4 0.001161634 6.92369e-4 5.39125e-4 0.6833093 5.39125e-4 0.6833093 0.9984335 0.6838312 0.9984335 0.6838312 0.001161634 6.92369e-4 1.000765 0.001214206 1.000765 0.001214206 5.39125e-4 0.6833093 5.39125e-4 0.6833093 0.001161634 6.92369e-4 1.000765 0.001214206 1.000765 0.001214206 0.9984335 0.6838312 1.000765 0.001214206 0.001161634 6.92369e-4 0.001161634 6.92369e-4 5.39125e-4 0.6833093 5.39125e-4 0.6833093 0.001161634 6.92369e-4 5.39125e-4 0.6833093 0.9984335 0.6838312 0.9984335 0.6838312 0.9984335 0.6838312 0.9984335 0.6838312 1.000765 0.001214206 0.001161634 6.92369e-4 0.001161634 6.92369e-4 1.000765 0.001214206 5.39125e-4 0.6833093 5.39125e-4 0.6833093 0.9984335 0.6838312 1.000765 0.001214206 1.000765 0.001214206 0.9984335 0.6838312 5.39125e-4 0.6833093 5.39125e-4 0.6833093 0.001161634 6.92369e-4 0.9984335 0.6838312 0.9984335 0.6838312 5.39125e-4 0.6833093 0.001161634 6.92369e-4 0.001161634 6.92369e-4 1.000765 0.001214206 0.001161634 6.92369e-4 0.001161634 6.92369e-4 5.39125e-4 0.6833093 0.001161634 6.92369e-4 1.000765 0.001214206 1.000765 0.001214206 5.39125e-4 0.6833093 5.39125e-4 0.6833093 0.001161634 6.92369e-4 1.000765 0.001214206 1.000765 0.001214206 0.9984335 0.6838312 1.000765 0.001214206 0.001161634 6.92369e-4 0.001161634 6.92369e-4 0.9984335 0.6838312 0.9984335 0.6838312 5.39125e-4 0.6833093 1.000765 0.001214206 1.000765 0.001214206 0.9984335 0.6838312 5.39125e-4 0.6833093 0.9984335 0.6838312 0.9984335 0.6838312 5.39125e-4 0.6833093 5.39125e-4 0.6833093 0.001161634 6.92369e-4 1.000765 0.001214206 0.001161634 6.92369e-4 0.001161634 6.92369e-4 5.39125e-4 0.6833093 5.39125e-4 0.6833093 0.001161634 6.92369e-4 0.9984335 0.6838312 0.9984335 0.6838312 1.000765 0.001214206 0.001161634 6.92369e-4 0.001161634 6.92369e-4 1.000765 0.001214206 0.9984335 0.6838312 5.39125e-4 0.6833093 5.39125e-4 0.6833093 1.000765 0.001214206 1.000765 0.001214206 0.9984335 0.6838312 5.39125e-4 0.6833093 0.9984335 0.6838312 0.9984335 0.6838312 0.9984335 0.6838312 0.9984335 0.6838312 1.000765 0.001214206 0.001161634 6.92369e-4 0.001161634 6.92369e-4 5.39125e-4 0.6833093 5.39125e-4 0.6833093 5.39125e-4 0.6833093 0.9984335 0.6838312 1.000765 0.001214206 1.000765 0.001214206 0.001161634 6.92369e-4 5.39125e-4 0.6833093 5.39125e-4 0.6833093 0.001161634 6.92369e-4 1.000765 0.001214206 1.000765 0.001214206 0.9984335 0.6838312 0.001161634 6.92369e-4 0.001161634 6.92369e-4 1.000765 0.001214206 0.001161634 6.92369e-4 0.001161634 6.92369e-4 5.39125e-4 0.6833093 5.39125e-4 0.6833093 0.9984335 0.6838312 0.9984335 0.6838312 1.000765 0.001214206 1.000765 0.001214206 0.9984335 0.6838312 1.000765 0.001214206 1.000765 0.001214206 0.001161634 6.92369e-4</float_array>
          <technique_common>
            <accessor source="#Cube_047-mesh-map-0-array" count="504" stride="2">
              <param name="S" type="float"/>
              <param name="T" type="float"/>
            </accessor>
          </technique_common>
        </source>
        <source id="Cube_047-mesh-map-1">
          <float_array id="Cube_047-mesh-map-1-array" count="1008">0.1637787 0 0.3263484 0 0.3263483 0.2014974 0.1637787 0 0.3263483 0.2014974 0.1637787 0.2014973 0.8188936 0.7836107 0.9814633 0.5885775 0.9814633 0.7836107 0.8188936 0.7836107 0.8188937 0.5885774 0.9814633 0.5885775 0.6551149 0.200647 0.8176846 0 0.8176845 0.200647 0.6551149 0.200647 0.655115 0 0.8176846 0 0 0.803808 0.1625697 0.6079692 0.1625696 0.803808 0 0.803808 0 0.6079692 0.1625697 0.6079692 0.1637787 0.60681 0.3263483 0.405313 0.3263483 0.60681 0.1637787 0.60681 0.1637787 0.4053129 0.3263483 0.405313 0.8188936 0.3912259 0.9814632 0.1961926 0.9814632 0.3912259 0.8188936 0.3912259 0.8188936 0.1961926 0.9814632 0.1961926 0.4913362 0.6042598 0.6539058 0.4036128 0.6539058 0.6042598 0.4913362 0.6042598 0.4913362 0.4036128 0.6539058 0.4036128 0.3275575 0.8029583 0.4901271 0.6071195 0.4901271 0.8029583 0.3275575 0.8029583 0.3275575 0.6071195 0.4901271 0.6071195 0.1637787 0.2026565 0.3263483 0.2026565 0.3263483 0.4041538 0.1637787 0.2026565 0.3263483 0.4041538 0.1637787 0.4041538 0.8188936 0.5874183 0.9814632 0.392385 0.9814632 0.5874184 0.8188936 0.5874183 0.8188936 0.392385 0.9814632 0.392385 0 0 0.1625697 0 0.1625696 0.2014974 0 0 0.1625696 0.2014974 0 0.2014974 0.8188936 0.1950335 0.9814633 0 0.9814632 0.1950335 0.8188936 0.1950335 0.8188937 0 0.9814633 0 0.4913362 0.2018064 0.6539058 0.2018064 0.6539058 0.4024537 0.4913362 0.2018064 0.6539058 0.4024537 0.4913362 0.4024537 0.4913362 0.8012577 0.6539059 0.6054189 0.6539058 0.8012577 0.4913362 0.8012577 0.4913362 0.6054189 0.6539059 0.6054189 0.3275575 0.2014973 0.4901271 0 0.490127 0.2014973 0.3275575 0.2014973 0.3275575 0 0.4901271 0 0 0.8049671 0.1625697 0.8049671 0.1625697 1 0 0.8049671 0.1625697 1 0 1 0.4913362 0 0.6539059 0 0.6539058 0.2006474 0.4913362 0 0.6539058 0.2006474 0.4913362 0.2006473 0.6551149 0.6006106 0.8176845 0.6006106 0.8176845 0.7964496 0.6551149 0.6006106 0.8176845 0.7964496 0.6551148 0.7964496 0 0.4053129 0.1625696 0.405313 0.1625696 0.60681 0 0.4053129 0.1625696 0.60681 0 0.60681 0.4913362 0.8024168 0.6539058 0.8024168 0.6539058 0.9974498 0.4913362 0.8024168 0.6539058 0.9974498 0.4913362 0.9974498 0.3275576 0.405313 0.4901272 0.405313 0.4901271 0.6059605 0.3275576 0.405313 0.4901271 0.6059605 0.3275575 0.6059605 0.1637787 0.6079692 0.3263484 0.6079692 0.3263483 0.803808 0.1637787 0.6079692 0.3263483 0.803808 0.1637787 0.803808 0.3275575 0.4041537 0.4901271 0.2026565 0.4901271 0.4041537 0.3275575 0.4041537 0.3275575 0.2026565 0.4901271 0.2026565 0.6551149 0.7976084 0.8176845 0.7976084 0.8176845 0.9926415 0.6551149 0.7976084 0.8176845 0.9926415 0.6551148 0.9926415 0 0.4041538 0.1625696 0.2026566 0.1625696 0.4041539 0 0.4041538 0 0.2026565 0.1625696 0.2026566 0.8188936 0.7847698 0.9814632 0.7847698 0.9814631 0.979803 0.8188936 0.7847698 0.9814631 0.979803 0.8188936 0.979803 0.6551149 0.4024535 0.8176845 0.2018065 0.8176845 0.4024535 0.6551149 0.4024535 0.6551149 0.2018064 0.8176845 0.2018065 0.6551149 0.4036125 0.8176845 0.4036125 0.8176845 0.5994515 0.6551149 0.4036125 0.8176845 0.5994515 0.6551149 0.5994515 0.9841116 0.2036446 0.9826724 0 0.9841113 0 0.3737248 0.9599617 0.3723062 0.8041175 0.3737248 0.8041175 0.374934 0.8041175 0.3763527 0.9599617 0.374934 0.9599617 0.9999999 0.6074264 0.998561 0.4096076 0.9999998 0.4096075 0.995913 0.1989782 0.9973519 0.3967973 0.9959129 0.3967972 0.3906989 0.8041175 0.3921166 0.9599617 0.3906989 0.9599617 0.388072 0.8041175 0.3894897 0.9599617 0.388072 0.9599617 0.9826724 0.4084485 0.9841115 0.2048038 0.9841115 0.4084486 0.3801895 0.8041175 0.3816081 0.9599617 0.3801895 0.9599617 0.9879688 2.35315e-7 0.9894077 0.2036446 0.9879688 0.2036447 0.3316159 0.9599617 0.3301913 0.8041175 0.3316159 0.8041175 0.9985611 0.8064044 1 0.6085857 1 0.8064045 0.9947039 0.3967971 0.9932649 0.1989781 0.9947038 0.1989781 0.3947435 0.9599617 0.3933258 0.8041175 0.3947435 0.8041175 0.3999971 0.9599617 0.3985794 0.8041175 0.3999971 0.8041175 0.9894075 0.204804 0.9879687 0.4084485 0.9879687 0.204804 0.9894076 0.4096079 0.9879687 0.6132524 0.9879688 0.4096078 0.3328251 0.8041175 0.3342496 0.9599617 0.3328251 0.9599617 0.3289822 0.9599617 0.3275575 0.8041175 0.3289822 0.8041175 0.993265 0.6074266 0.994704 0.4096077 0.994704 0.6074265 0.3959526 0.8041175 0.3973703 0.9599617 0.3959526 0.9599617 0.9920554 0.4096076 0.9906166 0.6074266 0.9906166 0.4096076 0.3486255 0.8041175 0.3500493 0.9599617 0.3486255 0.9599617 0.9879687 0.6144116 0.9894075 0.8180562 0.9879687 0.8180562 0.9867596 0.2036447 0.9853207 0 0.9867596 0 0.3395169 0.9599617 0.3380924 0.8041175 0.3395169 0.8041175 0.340726 0.8041175 0.3421505 0.9599617 0.340726 0.9599617 0.9973519 0.6074265 0.995913 0.4096075 0.9973519 0.4096075 0.9906168 0.6085857 0.9920557 0.8064048 0.9906166 0.8064045 0.3447835 0.9599617 0.3433597 0.8041175 0.3447835 0.8041175 0.9853205 0.4084485 0.9867594 0.2048038 0.9867594 0.4084485 0.3354587 0.8041175 0.3368833 0.9599617 0.3354587 0.9599617 0.3842358 0.9599617 0.3828172 0.8041175 0.3842358 0.8041175 0.995913 0.8064047 0.9973519 0.6085857 0.9973519 0.8064047 0.9999998 0.1978189 0.9985609 0 0.9999998 0 0.3526822 0.9599617 0.3512584 0.8041175 0.3526822 0.8041175 0.9906167 0.2036445 0.9920557 0 0.9920557 0.2036445 0.3775618 0.8041175 0.3789804 0.9599617 0.3775618 0.9599617 0.998561 0.3967971 0.9999998 0.1989782 0.9999998 0.3967971 0.3591571 0.8041175 0.3605808 0.9599617 0.3591571 0.9599617 0.3565242 0.8041175 0.357948 0.9599617 0.3565242 0.9599617 0.9920556 0.4084485 0.9906166 0.204804 0.9920556 0.2048039 0.9841114 0.6144118 0.9826725 0.8180567 0.9826725 0.6144118 0.3710972 0.9599617 0.3696784 0.8041175 0.3710972 0.8041175 0.9947039 0.6085857 0.9932649 0.8064046 0.9932649 0.6085858 0.36179 0.8041175 0.3632137 0.9599617 0.36179 0.9599617 0.355315 0.9599617 0.3538913 0.8041175 0.355315 0.8041175 0.9867596 0.8180563 0.9853206 0.6144115 0.9867595 0.6144115 0.9826724 0.4096078 0.9841114 0.6132526 0.9826724 0.6132526 0.3644227 0.8041175 0.3658415 0.9599617 0.3644227 0.9599617 0.3684693 0.9599617 0.3670506 0.8041175 0.3684693 0.8041175 0.9959129 0 0.9973519 0.1978189 0.995913 0.1978189 0.3474164 0.9599617 0.3459925 0.8041175 0.3474164 0.8041175 0.9947037 0 0.9932648 0.1978191 0.9932647 0 0.3868628 0.9599617 0.3854449 0.8041175 0.3868628 0.8041175 0.9853207 0.4096078 0.9867596 0.6132526 0.9853206 0.6132525 0.9841116 0.2036446 0.9826724 0.2036447 0.9826724 0 0.3737248 0.9599617 0.3723062 0.9599617 0.3723062 0.8041175 0.374934 0.8041175 0.3763527 0.8041175 0.3763527 0.9599617 0.9999999 0.6074264 0.998561 0.6074264 0.998561 0.4096076 0.995913 0.1989782 0.9973519 0.1989782 0.9973519 0.3967973 0.3906989 0.8041175 0.3921166 0.8041175 0.3921166 0.9599617 0.388072 0.8041175 0.3894897 0.8041175 0.3894897 0.9599617 0.9826724 0.4084485 0.9826726 0.2048038 0.9841115 0.2048038 0.3801895 0.8041175 0.3816081 0.8041175 0.3816081 0.9599617 0.9879688 2.35315e-7 0.9894075 0 0.9894077 0.2036446 0.3316159 0.9599617 0.3301913 0.9599617 0.3301913 0.8041175 0.9985611 0.8064044 0.9985612 0.6085857 1 0.6085857 0.9947039 0.3967971 0.9932649 0.3967971 0.9932649 0.1989781 0.3947435 0.9599617 0.3933258 0.9599617 0.3933258 0.8041175 0.3999971 0.9599617 0.3985794 0.9599617 0.3985794 0.8041175 0.9894075 0.204804 0.9894075 0.4084485 0.9879687 0.4084485 0.9894076 0.4096079 0.9894076 0.6132525 0.9879687 0.6132524 0.3328251 0.8041175 0.3342496 0.8041175 0.3342496 0.9599617 0.3289822 0.9599617 0.3275575 0.9599617 0.3275575 0.8041175 0.993265 0.6074266 0.993265 0.4096077 0.994704 0.4096077 0.3959526 0.8041175 0.3973703 0.8041175 0.3973703 0.9599617 0.9920554 0.4096076 0.9920557 0.6074264 0.9906166 0.6074266 0.3486255 0.8041175 0.3500493 0.8041175 0.3500493 0.9599617 0.9879687 0.6144116 0.9894075 0.6144116 0.9894075 0.8180562 0.9867596 0.2036447 0.9853206 0.2036448 0.9853207 0 0.3395169 0.9599617 0.3380924 0.9599617 0.3380924 0.8041175 0.340726 0.8041175 0.3421505 0.8041175 0.3421505 0.9599617 0.9973519 0.6074265 0.995913 0.6074265 0.995913 0.4096075 0.9906168 0.6085857 0.9920557 0.6085857 0.9920557 0.8064048 0.3447835 0.9599617 0.3433597 0.9599617 0.3433597 0.8041175 0.9853205 0.4084485 0.9853205 0.2048038 0.9867594 0.2048038 0.3354587 0.8041175 0.3368833 0.8041175 0.3368833 0.9599617 0.3842358 0.9599617 0.3828172 0.9599617 0.3828172 0.8041175 0.995913 0.8064047 0.995913 0.6085857 0.9973519 0.6085857 0.9999998 0.1978189 0.998561 0.1978189 0.9985609 0 0.3526822 0.9599617 0.3512584 0.9599617 0.3512584 0.8041175 0.9906167 0.2036445 0.9906167 0 0.9920557 0 0.3775618 0.8041175 0.3789804 0.8041175 0.3789804 0.9599617 0.998561 0.3967971 0.9985609 0.1989783 0.9999998 0.1989782 0.3591571 0.8041175 0.3605808 0.8041175 0.3605808 0.9599617 0.3565242 0.8041175 0.357948 0.8041175 0.357948 0.9599617 0.9920556 0.4084485 0.9906166 0.4084484 0.9906166 0.204804 0.9841114 0.6144118 0.9841114 0.8180567 0.9826725 0.8180567 0.3710972 0.9599617 0.3696784 0.9599617 0.3696784 0.8041175 0.9947039 0.6085857 0.9947038 0.8064045 0.9932649 0.8064046 0.36179 0.8041175 0.3632137 0.8041175 0.3632137 0.9599617 0.355315 0.9599617 0.3538913 0.9599617 0.3538913 0.8041175 0.9867596 0.8180563 0.9853206 0.8180564 0.9853206 0.6144115 0.9826724 0.4096078 0.9841114 0.4096077 0.9841114 0.6132526 0.3644227 0.8041175 0.3658415 0.8041175 0.3658415 0.9599617 0.3684693 0.9599617 0.3670506 0.9599617 0.3670506 0.8041175 0.9959129 0 0.9973519 1.88986e-7 0.9973519 0.1978189 0.3474164 0.9599617 0.3459925 0.9599617 0.3459925 0.8041175 0.9947037 0 0.9947038 0.1978191 0.9932648 0.1978191 0.3868628 0.9599617 0.3854449 0.9599617 0.3854449 0.8041175 0.9853207 0.4096078 0.9867596 0.4096078 0.9867596 0.6132526</float_array>
          <technique_common>
            <accessor source="#Cube_047-mesh-map-1-array" count="504" stride="2">
              <param name="S" type="float"/>
              <param name="T" type="float"/>
            </accessor>
          </technique_common>
        </source>
        <vertices id="Cube_047-mesh-vertices">
          <input semantic="POSITION" source="#Cube_047-mesh-positions"/>
        </vertices>
        <triangles material="hierva_choza_gaetuli-material" count="168">
          <input semantic="VERTEX" source="#Cube_047-mesh-vertices" offset="0"/>
          <input semantic="NORMAL" source="#Cube_047-mesh-normals" offset="1"/>
          <input semantic="TEXCOORD" source="#Cube_047-mesh-map-0" offset="2" set="0"/>
          <input semantic="TEXCOORD" source="#Cube_047-mesh-map-1" offset="2" set="1"/>
          <p>0 0 0 1 1 1 3 2 2 0 0 3 3 2 4 2 3 5 4 4 6 7 4 7 5 4 8 4 4 9 6 4 10 7 4 11 8 5 12 11 5 13 9 6 14 8 5 15 10 7 16 11 5 17 12 8 18 15 8 19 13 9 20 12 8 21 14 8 22 15 8 23 16 10 24 19 11 25 17 10 26 16 10 27 18 12 28 19 11 29 20 13 30 23 13 31 21 14 32 20 13 33 22 14 34 23 13 35 24 15 36 27 16 37 25 15 38 24 15 39 26 17 40 27 16 41 28 18 42 31 18 43 29 18 44 28 18 45 30 19 46 31 18 47 32 20 48 33 21 49 35 22 50 32 20 51 35 22 52 34 23 53 36 24 54 39 25 55 37 26 56 36 24 57 38 27 58 39 25 59 40 28 60 41 28 61 43 28 62 40 28 63 43 28 64 42 29 65 44 30 66 47 30 67 45 31 68 44 30 69 46 30 70 47 30 71 48 32 72 49 32 73 51 32 74 48 32 75 51 32 76 50 33 77 52 34 78 55 19 79 53 35 80 52 34 81 54 36 82 55 19 83 56 37 84 57 37 85 58 38 86 56 37 87 59 37 88 57 37 89 60 39 90 61 40 91 62 41 92 60 39 93 62 41 94 63 42 95 64 43 96 65 43 97 66 44 98 64 43 99 66 44 100 67 44 101 68 45 102 69 46 103 70 45 104 68 45 105 70 45 106 71 47 107 72 48 108 73 49 109 74 48 110 72 48 111 74 48 112 75 50 113 76 51 114 77 52 115 78 53 116 76 51 117 78 53 118 79 54 119 80 55 120 81 56 121 82 55 122 80 55 123 82 55 124 83 56 125 84 57 126 85 58 127 86 57 128 84 57 129 86 57 130 87 59 131 88 60 132 89 61 133 90 62 134 88 60 135 91 61 136 89 61 137 92 63 138 93 64 139 94 65 140 92 63 141 94 65 142 95 66 143 96 67 144 97 67 145 98 68 146 96 67 147 99 67 148 97 67 149 100 69 150 101 69 151 102 70 152 100 69 153 102 70 154 103 71 155 104 72 156 105 73 157 106 5 158 104 72 159 107 74 160 105 73 161 108 75 162 109 76 163 110 75 164 108 75 165 110 75 166 111 77 167 24 78 168 83 79 169 26 80 170 5 81 171 60 82 172 4 83 173 46 84 174 102 84 175 47 85 176 4 86 177 63 87 178 6 88 179 47 89 180 101 90 181 45 91 182 26 92 183 82 93 184 27 94 185 48 95 186 106 96 187 49 97 188 25 98 189 82 99 190 81 100 191 6 101 192 62 102 193 7 103 194 50 104 195 104 105 196 48 106 197 29 107 198 84 107 199 28 108 200 5 109 201 62 110 202 61 111 203 28 112 204 87 113 205 30 114 206 9 115 207 64 116 208 8 117 209 51 118 210 107 119 211 50 120 212 10 121 213 64 122 214 67 123 215 51 124 216 106 125 217 105 100 218 30 126 219 86 127 220 31 128 221 53 129 222 108 130 223 52 131 224 29 132 225 86 133 226 85 134 227 10 135 228 66 136 229 11 137 230 54 138 231 108 139 232 111 123 233 32 140 234 90 140 235 33 140 236 11 141 237 65 142 238 9 143 239 34 144 240 88 145 241 32 146 242 13 147 243 68 148 244 12 149 245 54 150 246 110 151 247 55 152 248 12 153 249 71 154 250 14 155 251 55 156 252 109 157 253 53 158 254 35 159 255 91 160 256 34 161 257 35 162 258 90 163 259 89 100 260 14 164 261 70 165 262 15 166 263 37 167 264 92 168 265 36 169 266 13 170 267 70 171 268 69 100 269 36 172 270 95 173 271 38 174 272 17 175 273 72 176 274 16 177 275 18 178 276 72 179 277 75 180 278 38 181 279 94 182 280 39 183 281 37 184 282 94 185 283 93 100 284 18 186 285 74 187 286 19 188 287 40 189 288 98 190 289 41 191 290 19 192 291 73 193 292 17 194 293 40 195 294 99 196 295 96 123 296 21 197 297 76 198 298 20 199 299 22 200 300 76 201 301 79 123 302 0 202 303 58 203 304 1 204 305 43 205 306 99 206 307 42 206 308 2 207 309 56 208 310 0 209 311 41 210 312 97 211 313 43 212 314 22 213 315 78 214 316 23 215 317 45 216 318 100 217 319 44 218 320 23 219 321 77 220 322 21 221 323 3 222 324 59 223 325 2 224 326 46 225 327 100 226 328 103 123 329 25 227 330 80 228 331 24 229 332 1 230 333 57 231 334 3 232 335 24 78 336 80 123 337 83 79 338 5 81 339 61 233 340 60 82 341 46 84 342 103 84 343 102 84 344 4 86 345 60 123 346 63 87 347 47 89 348 102 234 349 101 90 350 26 92 351 83 235 352 82 93 353 48 95 354 104 236 355 106 96 356 25 98 357 27 237 358 82 99 359 6 101 360 63 238 361 62 102 362 50 104 363 107 123 364 104 105 365 29 107 366 85 239 367 84 107 368 5 109 369 7 240 370 62 110 371 28 112 372 84 123 373 87 113 374 9 115 375 65 241 376 64 116 377 51 118 378 105 242 379 107 119 380 10 121 381 8 243 382 64 122 383 51 124 384 49 244 385 106 125 386 30 126 387 87 245 388 86 127 389 53 129 390 109 246 391 108 130 392 29 132 393 31 247 394 86 133 395 10 135 396 67 135 397 66 136 398 54 138 399 52 248 400 108 139 401 32 140 402 88 140 403 90 140 404 11 141 405 66 100 406 65 142 407 34 144 408 91 123 409 88 145 410 13 147 411 69 249 412 68 148 413 54 150 414 111 128 415 110 151 416 12 153 417 68 250 418 71 154 419 55 156 420 110 100 421 109 157 422 35 159 423 89 251 424 91 160 425 35 162 426 33 252 427 90 163 428 14 164 429 71 253 430 70 165 431 37 167 432 93 254 433 92 168 434 13 170 435 15 255 436 70 171 437 36 172 438 92 123 439 95 173 440 17 175 441 73 256 442 72 176 443 18 178 444 16 257 445 72 179 446 38 181 447 95 258 448 94 182 449 37 184 450 39 259 451 94 185 452 18 186 453 75 260 454 74 187 455 40 189 456 96 261 457 98 190 458 19 192 459 74 100 460 73 193 461 40 195 462 42 262 463 99 196 464 21 197 465 77 263 466 76 198 467 22 200 468 20 264 469 76 201 470 0 202 471 56 265 472 58 203 473 43 205 474 97 266 475 99 206 476 2 207 477 59 123 478 56 208 479 41 210 480 98 100 481 97 211 482 22 213 483 79 267 484 78 214 485 45 216 486 101 268 487 100 217 488 23 219 489 78 100 490 77 220 491 3 222 492 57 269 493 59 223 494 46 225 495 44 270 496 100 226 497 25 227 498 81 271 499 80 228 500 1 230 501 58 100 502 57 231 503</p>
        </triangles>
      </mesh>
    </geometry>
  </library_geometries>
  <library_visual_scenes>
    <visual_scene id="Scene" name="Scene">
      <node id="colony_f" name="colony_f" type="NODE">
        <matrix sid="transform">1 0 0 0 0 1 0 0 0 0 1 0 0 0 0 1</matrix>
        <instance_geometry url="#Cube_047-mesh" name="colony_f">
          <bind_material>
            <technique_common>
              <instance_material symbol="hierva_choza_gaetuli-material" target="#hierva_choza_gaetuli-material">
                <bind_vertex_input semantic="Cube_047-mesh-map-0" input_semantic="TEXCOORD" input_set="0"/>
                <bind_vertex_input semantic="Cube_047-mesh-map-1" input_semantic="TEXCOORD" input_set="1"/>
              </instance_material>
            </technique_common>
          </bind_material>
        </instance_geometry>
        <node id="prop_garrisoned" name="prop_garrisoned" type="NODE">
          <matrix sid="transform">-0.7829416 1.18221e-7 0 5.35037e-14 -1.18221e-7 -0.7829416 0 5.033843 0 0 0.7829416 9.013988 0 0 0 1</matrix>
        </node>
        <node id="prop_projectile" name="prop_projectile" type="NODE">
          <matrix sid="transform">-0.7829416 1.18221e-7 0 5.35037e-14 -1.18221e-7 -0.7829416 0 5.033842 0 0 0.7829416 9.013988 0 0 0 1</matrix>
        </node>
      </node>
    </visual_scene>
  </library_visual_scenes>
  <scene>
    <instance_visual_scene url="#Scene"/>
  </scene>
</COLLADA>