<?xml version="1.0" encoding="utf-8"?>
<COLLADA xmlns="http://www.collada.org/2005/11/COLLADASchema" version="1.4.1" xmlns:xsi="http://www.w3.org/2001/XMLSchema-instance">
  <asset>
    <contributor>
      <author>Blender User</author>
      <authoring_tool>Blender 4.3.1 commit date:2024-12-10, commit time:07:46, hash:33d812126174</authoring_tool>
    </contributor>
    <created>2026-08-22T19:08:19</created>
    <modified>2026-08-22T19:08:19</modified>
    <unit name="meter" meter="1"/>
    <up_axis>Z_UP</up_axis>
  </asset>
  <library_effects>
    <effect id="hierva_choza_gaetuli-effect">
      <profile_COMMON>
        <technique sid="common">
          <lambert>
            <emission>
              <color sid="emission">0 0 0 1</color>
            </emission>
            <diffuse>
              <color sid="diffuse">0.8 0.8 0.8 1</color>
            </diffuse>
            <index_of_refraction>
              <float sid="ior">1.45</float>
            </index_of_refraction>
          </lambert>
        </technique>
      </profile_COMMON>
    </effect>
  </library_effects>
  <library_images/>
  <library_materials>
    <material id="hierva_choza_gaetuli-material" name="hierva choza gaetuli">
      <instance_effect url="#hierva_choza_gaetuli-effect"/>
    </material>
  </library_materials>
  <library_geometries>
    <geometry id="Cube_007-mesh" name="Cube.007">
      <mesh>
        <source id="Cube_007-mesh-positions">
          <float_array id="Cube_007-mesh-positions-array" count="192">-5.490536 -5.195563 3.902888 -5.490536 -5.195563 0.4004871 -2.835197 -8.923158 3.902888 -2.835197 -8.923158 0.4004871 -5.488374 -8.927169 3.902889 -5.488374 -8.927169 0.4004871 -2.838934 -5.357156 3.902889 -2.838934 -5.357156 0.4004871 6.141813 -7.895595 3.507434 6.141813 -7.895595 0.00503242 2.396877 -10.52642 3.507434 2.396877 -10.52642 0.00503242 2.410275 -7.873272 3.507434 2.410275 -7.873272 0.00503242 5.962826 -10.54608 3.507434 5.962826 -10.54608 0.00503242 -2.934711 7.596332 3.507434 -2.934711 7.596332 0.00503242 -6.559107 4.801777 3.507434 -6.559107 4.801777 0.00503242 -6.663559 7.452901 3.507434 -6.663559 7.452901 0.00503242 -2.995803 4.940513 3.507434 -2.995803 4.940513 0.00503242 3.3239 7.556094 3.902888 3.3239 7.556094 0.4004871 5.97924 3.8285 3.902888 5.97924 3.8285 0.4004871 3.326062 3.824488 3.902888 3.326062 3.824488 0.4004871 5.975501 7.394502 3.902888 5.975501 7.394502 0.4004871 -5.465287 -5.177577 3.902888 -2.809948 -8.905173 0.4004871 -5.465287 -5.177577 0.4004871 -2.809948 -8.905173 3.902888 -5.46348 -8.945645 3.902889 -5.46348 -8.945645 0.4004871 -2.81404 -5.37563 0.4004871 -2.81404 -5.37563 3.902889 6.123993 -7.870229 3.507434 6.123993 -7.870229 0.00503242 2.379057 -10.50105 0.00503242 2.379057 -10.50105 3.507434 2.391638 -7.898044 3.507434 2.391638 -7.898044 0.00503242 5.944189 -10.57085 0.00503242 5.944189 -10.57085 3.507434 -2.915782 7.571782 3.507434 -6.540178 4.777227 0.00503242 -2.915782 7.571782 0.00503242 -6.540178 4.777227 3.507434 -6.681078 7.427326 3.507434 -6.681078 7.427326 0.00503242 -3.013322 4.914937 0.00503242 -3.013322 4.914937 3.507434 3.298651 7.538108 3.902888 3.298651 7.538108 0.4004871 5.953991 3.810514 0.4004871 5.953991 3.810514 3.902888 3.350955 3.806014 3.902888 3.350955 3.806014 0.4004871 6.000394 7.376027 0.4004871 6.000394 7.376027 3.902888</float_array>
          <technique_common>
            <accessor source="#Cube_007-mesh-positions-array" count="64" stride="3">
              <param name="X" type="float"/>
              <param name="Y" type="float"/>
              <param name="Z" type="float"/>
            </accessor>
          </technique_common>
        </source>
        <source id="Cube_007-mesh-normals">
          <float_array id="Cube_007-mesh-normals-array" count="453">-0.8144798 -0.5801919 0 -0.8144799 -0.5801919 0 -0.8030205 0.5959514 0 -0.8030205 0.5959515 0 -0.8030205 0.5959514 0 0.5748355 -0.818269 0 0.5748355 -0.818269 0 0.5748356 -0.818269 0 0.6012078 0.7990927 0 0.6012078 0.7990928 0 0.6012079 0.7990927 0 -0.6106107 0.7919309 0 -0.6106106 0.791931 0 -0.6106107 0.7919309 0 -0.6106109 0.7919309 0 0.5651236 0.8250063 0 0.5651237 0.8250062 0 0.5651236 0.8250063 0 0.8144798 0.580192 0 0.8144798 0.580192 0 -0.8030207 0.5959512 0 -0.8030206 0.5959513 0 -0.8030207 0.5959511 0 0.8144799 0.5801918 0 0.81448 0.5801918 0 0.8144799 0.5801919 0 0.81448 0.5801918 0 0.8030207 -0.5959512 0 0.8030207 -0.5959513 0 -0.5748351 0.8182694 0 -0.5748351 0.8182693 0 -0.574835 0.8182694 0 -0.574835 0.8182694 0 -0.6012074 -0.799093 0 -0.6012075 -0.7990931 0 0.6106107 -0.791931 0 0.6106107 -0.7919309 0 0.6106106 -0.791931 0 -0.5651239 -0.8250061 0 -0.5651239 -0.8250061 0 -0.5651239 -0.825006 0 -0.8144797 -0.5801921 0 -0.8144798 -0.580192 0 -0.8144797 -0.5801922 0 -0.8144797 -0.5801922 0 0.8030207 -0.5959514 0 0.8030206 -0.5959513 0 0 0 1 5.8562e-6 0 1 0 0 1 0.8250097 -0.5651186 0 0.8250178 -0.5651068 0 0.8250179 -0.5651068 0 -0.7990989 0.6011996 0 -0.7991073 0.6011885 0 -0.7991073 0.6011884 0 0 0 -1 0 0 -1 0 0 -1 0 0 1 -7.96583e-6 0 1 -8.00134e-6 0 1 0.5801762 -0.814491 0 0.5801762 -0.814491 0 -0.5801966 0.8144764 0 0 0 -1 4.8366e-7 0 -1 4.85754e-7 0 -1 0 0 1 -6.90195e-6 0 1 -6.93187e-6 0 1 0.7990795 -0.6012254 0 0.7990795 -0.6012254 0 0.7990795 -0.6012254 0 -0.5959677 -0.8030084 0 -0.5959678 -0.8030084 0 -0.5959678 -0.8030084 0 0 0 -1 0 0 -1 0 0 -1 0 0 1 2.58343e-6 0 1 2.59495e-6 0 1 0.5801865 -0.8144837 0 0.5802029 -0.814472 0 0.5802031 -0.8144719 0 0.7919285 0.6106138 0 0 0 -1 -8.23532e-7 0 -1 -8.27103e-7 0 -1 0 0 1 -1.56858e-6 0 1 -1.57539e-6 0 1 0.595938 0.8030306 0 0.595938 0.8030305 0 0.595938 0.8030306 0 -0.5959497 -0.8030218 0 -0.5959413 -0.803028 0 -0.5959413 -0.8030281 0 0 0 -1 -1.61462e-7 0 -1 -1.62181e-7 0 -1 0 0 1 4.19803e-6 0 1 4.21677e-6 0 1 -0.7919371 -0.6106028 0 -0.7919371 -0.6106028 0 0.8182532 0.5748581 0 0.8182858 0.5748116 0 0.818286 0.5748114 0 0 0 -1 0 0 -1 0 0 -1 0 0 1 -3.24167e-6 0 1 -3.25569e-6 0 1 0.5959745 0.8030034 0 0.5959745 0.8030034 0 0.5959746 0.8030034 0 -0.8249949 0.5651402 0 -0.8249949 0.5651403 0 0 0 -1 8.40951e-7 0 -1 0 0 -1 1.37684e-5 0 1 -1.98387e-6 0 1 1.38389e-5 0 1 -0.8182969 -0.5747959 0 -0.818305 -0.5747843 0 -0.8183051 -0.5747843 0 -0.5801699 0.8144955 0 -0.5802028 0.814472 0 -0.5802031 0.8144719 0 0 0 -1 0 0 -1 5.88156e-6 0 1 0.8250097 -0.5651187 0 -0.7990989 0.6011997 0 0 0 -1 0.7990795 -0.6012255 0 -0.5959677 -0.8030085 0 0 0 -1 0.5801864 -0.8144838 0 -0.5959498 -0.8030219 0 0.8182529 0.5748584 0 -0.824995 0.5651403 0 8.44705e-7 0 -1 -2.05442e-6 0 1 -0.8182968 -0.574796 0 -0.5801697 0.8144956 0 0 0 -1</float_array>
          <technique_common>
            <accessor source="#Cube_007-mesh-normals-array" count="151" stride="3">
              <param name="X" type="float"/>
              <param name="Y" type="float"/>
              <param name="Z" type="float"/>
            </accessor>
          </technique_common>
        </source>
        <source id="Cube_007-mesh-map-0">
          <float_array id="Cube_007-mesh-map-0-array" count="576">0.9984335 0.6838312 1.000765 0.001214206 0.001161634 6.92369e-4 0.9984335 0.6838312 0.001161634 6.92369e-4 5.39125e-4 0.6833093 0.9984335 0.6838312 0.001161634 6.92369e-4 1.000765 0.001214206 0.9984335 0.6838312 5.39125e-4 0.6833093 0.001161634 6.92369e-4 0.9984335 0.6838312 0.001161634 6.92369e-4 1.000765 0.001214206 0.9984335 0.6838312 5.39125e-4 0.6833093 0.001161634 6.92369e-4 0.9984335 0.6838312 0.001161634 6.92369e-4 1.000765 0.001214206 0.9984335 0.6838312 5.39125e-4 0.6833093 0.001161634 6.92369e-4 0.9984335 0.6838312 1.000765 0.001214206 0.001161634 6.92369e-4 0.9984335 0.6838312 0.001161634 6.92369e-4 5.39125e-4 0.6833093 0.9984335 0.6838312 0.001161634 6.92369e-4 1.000765 0.001214206 0.9984335 0.6838312 5.39125e-4 0.6833093 0.001161634 6.92369e-4 0.9984335 0.6838312 0.001161634 6.92369e-4 1.000765 0.001214206 0.9984335 0.6838312 5.39125e-4 0.6833093 0.001161634 6.92369e-4 0.9984335 0.6838312 0.001161634 6.92369e-4 1.000765 0.001214206 0.9984335 0.6838312 5.39125e-4 0.6833093 0.001161634 6.92369e-4 0.9984335 0.6838312 0.001161634 6.92369e-4 1.000765 0.001214206 0.9984335 0.6838312 5.39125e-4 0.6833093 0.001161634 6.92369e-4 0.9984335 0.6838312 1.000765 0.001214206 0.001161634 6.92369e-4 0.9984335 0.6838312 0.001161634 6.92369e-4 5.39125e-4 0.6833093 0.9984335 0.6838312 1.000765 0.001214206 0.001161634 6.92369e-4 0.9984335 0.6838312 0.001161634 6.92369e-4 5.39125e-4 0.6833093 0.9984335 0.6838312 1.000765 0.001214206 0.001161634 6.92369e-4 0.9984335 0.6838312 0.001161634 6.92369e-4 5.39125e-4 0.6833093 0.9984335 0.6838312 0.001161634 6.92369e-4 1.000765 0.001214206 0.9984335 0.6838312 5.39125e-4 0.6833093 0.001161634 6.92369e-4 0.9984335 0.6838312 1.000765 0.001214206 0.001161634 6.92369e-4 0.9984335 0.6838312 0.001161634 6.92369e-4 5.39125e-4 0.6833093 0.9984335 0.6838312 1.000765 0.001214206 0.001161634 6.92369e-4 0.9984335 0.6838312 0.001161634 6.92369e-4 5.39125e-4 0.6833093 0.9984335 0.6838312 1.000765 0.001214206 0.001161634 6.92369e-4 0.9984335 0.6838312 0.001161634 6.92369e-4 5.39125e-4 0.6833093 0.9984335 0.6838312 5.39125e-4 0.6833093 0.9984335 0.6838312 5.39125e-4 0.6833093 0.001161634 6.92369e-4 0.001161634 6.92369e-4 1.000765 0.001214206 0.9984335 0.6838312 0.9984335 0.6838312 0.001161634 6.92369e-4 1.000765 0.001214206 1.000765 0.001214206 0.9984335 0.6838312 5.39125e-4 0.6833093 5.39125e-4 0.6833093 0.001161634 6.92369e-4 5.39125e-4 0.6833093 5.39125e-4 0.6833093 1.000765 0.001214206 0.9984335 0.6838312 0.9984335 0.6838312 1.000765 0.001214206 0.001161634 6.92369e-4 0.001161634 6.92369e-4 0.9984335 0.6838312 5.39125e-4 0.6833093 5.39125e-4 0.6833093 5.39125e-4 0.6833093 0.001161634 6.92369e-4 0.001161634 6.92369e-4 1.000765 0.001214206 0.9984335 0.6838312 0.9984335 0.6838312 1.000765 0.001214206 0.001161634 6.92369e-4 1.000765 0.001214206 0.9984335 0.6838312 5.39125e-4 0.6833093 5.39125e-4 0.6833093 5.39125e-4 0.6833093 0.001161634 6.92369e-4 0.001161634 6.92369e-4 0.9984335 0.6838312 1.000765 0.001214206 1.000765 0.001214206 0.001161634 6.92369e-4 1.000765 0.001214206 1.000765 0.001214206 5.39125e-4 0.6833093 0.9984335 0.6838312 0.9984335 0.6838312 5.39125e-4 0.6833093 0.001161634 6.92369e-4 0.001161634 6.92369e-4 1.000765 0.001214206 0.9984335 0.6838312 0.9984335 0.6838312 0.001161634 6.92369e-4 1.000765 0.001214206 1.000765 0.001214206 0.9984335 0.6838312 5.39125e-4 0.6833093 5.39125e-4 0.6833093 0.001161634 6.92369e-4 5.39125e-4 0.6833093 5.39125e-4 0.6833093 1.000765 0.001214206 0.9984335 0.6838312 0.9984335 0.6838312 1.000765 0.001214206 0.001161634 6.92369e-4 0.001161634 6.92369e-4 0.9984335 0.6838312 5.39125e-4 0.6833093 5.39125e-4 0.6833093 5.39125e-4 0.6833093 0.001161634 6.92369e-4 0.001161634 6.92369e-4 1.000765 0.001214206 0.9984335 0.6838312 0.9984335 0.6838312 1.000765 0.001214206 0.001161634 6.92369e-4 1.000765 0.001214206 5.39125e-4 0.6833093 0.9984335 0.6838312 5.39125e-4 0.6833093 5.39125e-4 0.6833093 0.001161634 6.92369e-4 0.001161634 6.92369e-4 0.9984335 0.6838312 1.000765 0.001214206 1.000765 0.001214206 1.000765 0.001214206 0.001161634 6.92369e-4 1.000765 0.001214206 0.9984335 0.6838312 5.39125e-4 0.6833093 5.39125e-4 0.6833093 5.39125e-4 0.6833093 5.39125e-4 0.6833093 0.001161634 6.92369e-4 1.000765 0.001214206 1.000765 0.001214206 0.9984335 0.6838312 0.001161634 6.92369e-4 0.001161634 6.92369e-4 1.000765 0.001214206 0.9984335 0.6838312 0.9984335 0.6838312 5.39125e-4 0.6833093 0.001161634 6.92369e-4 0.001161634 6.92369e-4 5.39125e-4 0.6833093 1.000765 0.001214206 1.000765 0.001214206 0.9984335 0.6838312 1.000765 0.001214206 1.000765 0.001214206 0.001161634 6.92369e-4 0.9984335 0.6838312 0.9984335 0.6838312 5.39125e-4 0.6833093 5.39125e-4 0.6833093 5.39125e-4 0.6833093 0.001161634 6.92369e-4 1.000765 0.001214206 1.000765 0.001214206 0.9984335 0.6838312 1.000765 0.001214206 0.001161634 6.92369e-4 0.001161634 6.92369e-4 0.9984335 0.6838312 0.9984335 0.6838312 5.39125e-4 0.6833093 5.39125e-4 0.6833093 5.39125e-4 0.6833093 0.001161634 6.92369e-4 0.9984335 0.6838312 0.9984335 0.6838312 1.000765 0.001214206 0.001161634 6.92369e-4 0.001161634 6.92369e-4 1.000765 0.001214206 5.39125e-4 0.6833093 5.39125e-4 0.6833093 0.9984335 0.6838312 5.39125e-4 0.6833093 5.39125e-4 0.6833093 0.001161634 6.92369e-4 1.000765 0.001214206 1.000765 0.001214206 0.9984335 0.6838312 0.001161634 6.92369e-4 0.001161634 6.92369e-4 1.000765 0.001214206 0.9984335 0.6838312 0.9984335 0.6838312 5.39125e-4 0.6833093 0.001161634 6.92369e-4 0.001161634 6.92369e-4 5.39125e-4 0.6833093 1.000765 0.001214206 1.000765 0.001214206 0.9984335 0.6838312 1.000765 0.001214206 1.000765 0.001214206 0.001161634 6.92369e-4 0.9984335 0.6838312 0.9984335 0.6838312 5.39125e-4 0.6833093 5.39125e-4 0.6833093 5.39125e-4 0.6833093 0.001161634 6.92369e-4 1.000765 0.001214206 1.000765 0.001214206 0.9984335 0.6838312 1.000765 0.001214206 0.001161634 6.92369e-4 0.001161634 6.92369e-4 5.39125e-4 0.6833093 0.9984335 0.6838312 0.9984335 0.6838312 5.39125e-4 0.6833093 5.39125e-4 0.6833093 0.001161634 6.92369e-4 0.9984335 0.6838312 0.9984335 0.6838312 1.000765 0.001214206 1.000765 0.001214206 0.001161634 6.92369e-4 0.001161634 6.92369e-4</float_array>
          <technique_common>
            <accessor source="#Cube_007-mesh-map-0-array" count="288" stride="2">
              <param name="S" type="float"/>
              <param name="T" type="float"/>
            </accessor>
          </technique_common>
        </source>
        <source id="Cube_007-mesh-map-1">
          <float_array id="Cube_007-mesh-map-1-array" count="576">0 0.2586353 0.1993223 0.2586353 0.1993223 0.5149981 0 0.2586353 0.1993223 0.5149981 0 0.5149981 0.6005082 0.751106 0.7998306 0.5014609 0.7998306 0.7511061 0.6005082 0.751106 0.6005082 0.5014609 0.7998306 0.5014609 0 0.7719212 0.1993223 0.5158433 0.1993223 0.7719212 0 0.7719212 0 0.5158433 0.1993223 0.5158433 0.6005083 0.2498853 0.7998306 0 0.7998306 0.2498854 0.6005083 0.2498853 0.6005083 0 0.7998306 0 0.2001694 0 0.3994918 0 0.3994917 0.2577899 0.2001694 0 0.3994917 0.2577899 0.2001694 0.2577899 0.6005083 1 0.7998306 0.7519513 0.7998306 1 0.6005083 1 0.6005083 0.7519513 0.7998306 0.7519513 0.4003388 0.5149978 0.5996611 0.2586353 0.5996611 0.5149978 0.4003388 0.5149978 0.4003388 0.2586352 0.5996611 0.2586353 0.8006777 0.2496452 1 0 1 0.2496452 0.8006777 0.2496452 0.8006777 0 1 0 0.4003388 0.2563626 0.5996612 0 0.5996611 0.2563626 0.4003388 0.2563626 0.4003389 0 0.5996612 0 0.8006777 0.2507306 1 0.2507306 1 0.5003756 0.8006777 0.2507306 1 0.5003756 0.8006777 0.5003756 0.2001694 0.5158433 0.3994918 0.5158433 0.3994917 0.7719209 0.2001694 0.5158433 0.3994917 0.7719209 0.2001694 0.7719208 0.6005083 0.2507306 0.7998306 0.2507306 0.7998306 0.5006156 0.6005083 0.2507306 0.7998306 0.5006156 0.6005083 0.5006156 0 0.25779 0.1993223 0 0.1993223 0.2577901 0 0.25779 0 0 0.1993223 0 0.8006777 0.751951 1 0.7519511 1 0.9999995 0.8006777 0.751951 1 0.9999995 0.8006777 0.9999994 0.2001694 0.2586353 0.3994917 0.2586353 0.3994917 0.5149982 0.2001694 0.2586353 0.3994917 0.5149982 0.2001694 0.5149981 0.8006778 0.5014609 1 0.5014609 1 0.7511059 0.8006778 0.5014609 1 0.7511059 0.8006777 0.7511059 0.5848399 0.7757143 0.5866041 0.515843 0.5866041 0.7757143 0.5198762 0.515843 0.5216097 0.7147161 0.5198762 0.7147161 0.552685 0.7147161 0.5509387 0.515843 0.552685 0.515843 0.5770059 0.515843 0.5787701 0.7682802 0.5770059 0.7682802 0.5683247 0.76828 0.5665605 0.515843 0.5683246 0.515843 0.531956 0.714716 0.5302156 0.515843 0.531956 0.515843 0.5371311 0.714716 0.5353907 0.515843 0.5371311 0.515843 0.5944381 0.7757144 0.592674 0.515843 0.5944381 0.515843 0.5918268 0.7757143 0.5900626 0.515843 0.5918268 0.515843 0.5483453 0.515843 0.5500916 0.7147161 0.5483453 0.7147161 0.5474982 0.7147161 0.5457534 0.515843 0.5474982 0.515843 0.5639491 0.76828 0.5657133 0.5158429 0.5657133 0.7682799 0.5743945 0.5158431 0.5761588 0.7682802 0.5743945 0.7682802 0.5276281 0.515843 0.5293685 0.714716 0.5276281 0.714716 0.5535322 0.515843 0.5552823 0.7147161 0.5535322 0.7147161 0.5874512 0.515843 0.5892155 0.7757143 0.5874512 0.7757143 0.5822286 0.5158429 0.5839928 0.7757142 0.5822286 0.7757142 0.5431617 0.515843 0.5449063 0.7147161 0.5431617 0.7147161 0.5397228 0.714716 0.5379781 0.515843 0.5397228 0.515843 0.570936 0.7682802 0.5691718 0.515843 0.570936 0.5158431 0.5613378 0.515843 0.563102 0.7682801 0.5613378 0.7682802 0.5578794 0.7147161 0.5561293 0.515843 0.5578794 0.515843 0.5241953 0.7147161 0.5224568 0.515843 0.5241953 0.515843 0.5813814 0.7757142 0.5796172 0.5158429 0.5813814 0.5158429 0.599661 0.7757143 0.5978967 0.5158431 0.5996611 0.515843 0.5405699 0.515843 0.5423146 0.714716 0.5405699 0.714716 0.5190291 0.7147161 0.5172955 0.515843 0.5190291 0.515843 0.5604907 0.515843 0.5587266 0.76828 0.5587266 0.515843 0.5735474 0.515843 0.5717831 0.7682802 0.5717831 0.515843 0.5250425 0.515843 0.5267811 0.7147161 0.5250425 0.7147161 0.5328031 0.515843 0.5345435 0.714716 0.5328031 0.714716 0.5952853 0.7757143 0.5970495 0.5158431 0.5970495 0.7757143 0.5848399 0.7757143 0.5848399 0.515843 0.5866041 0.515843 0.5198762 0.515843 0.5216097 0.515843 0.5216097 0.7147161 0.552685 0.7147161 0.5509387 0.7147161 0.5509387 0.515843 0.5770059 0.515843 0.5787701 0.515843 0.5787701 0.7682802 0.5683247 0.76828 0.5665605 0.76828 0.5665605 0.515843 0.531956 0.714716 0.5302156 0.714716 0.5302156 0.515843 0.5371311 0.714716 0.5353907 0.714716 0.5353907 0.515843 0.5944381 0.7757144 0.5926739 0.7757144 0.592674 0.515843 0.5918268 0.7757143 0.5900626 0.7757143 0.5900626 0.515843 0.5483453 0.515843 0.5500916 0.515843 0.5500916 0.7147161 0.5474982 0.7147161 0.5457534 0.7147161 0.5457534 0.515843 0.5639491 0.76828 0.5639492 0.5158429 0.5657133 0.5158429 0.5743945 0.5158431 0.5761588 0.515843 0.5761588 0.7682802 0.5276281 0.515843 0.5293685 0.515843 0.5293685 0.714716 0.5535322 0.515843 0.5552823 0.515843 0.5552823 0.7147161 0.5874512 0.515843 0.5892155 0.515843 0.5892155 0.7757143 0.5822286 0.5158429 0.5839928 0.5158429 0.5839928 0.7757142 0.5431617 0.515843 0.5449063 0.515843 0.5449063 0.7147161 0.5397228 0.714716 0.5379781 0.714716 0.5379781 0.515843 0.570936 0.7682802 0.5691718 0.7682803 0.5691718 0.515843 0.5613378 0.515843 0.563102 0.515843 0.563102 0.7682801 0.5578794 0.7147161 0.5561293 0.7147161 0.5561293 0.515843 0.5241953 0.7147161 0.5224568 0.7147161 0.5224568 0.515843 0.5813814 0.7757142 0.5796172 0.7757142 0.5796172 0.5158429 0.599661 0.7757143 0.5978968 0.7757143 0.5978967 0.5158431 0.5405699 0.515843 0.5423146 0.515843 0.5423146 0.714716 0.5190291 0.7147161 0.5172955 0.7147161 0.5172955 0.515843 0.5604907 0.515843 0.5604908 0.7682801 0.5587266 0.76828 0.5735474 0.515843 0.5735474 0.7682802 0.5717831 0.7682802 0.5250425 0.515843 0.5267811 0.515843 0.5267811 0.7147161 0.5328031 0.515843 0.5345435 0.515843 0.5345435 0.714716 0.5952853 0.7757143 0.5952851 0.515843 0.5970495 0.5158431</float_array>
          <technique_common>
            <accessor source="#Cube_007-mesh-map-1-array" count="288" stride="2">
              <param name="S" type="float"/>
              <param name="T" type="float"/>
            </accessor>
          </technique_common>
        </source>
        <vertices id="Cube_007-mesh-vertices">
          <input semantic="POSITION" source="#Cube_007-mesh-positions"/>
        </vertices>
        <triangles material="hierva_choza_gaetuli-material" count="96">
          <input semantic="VERTEX" source="#Cube_007-mesh-vertices" offset="0"/>
          <input semantic="NORMAL" source="#Cube_007-mesh-normals" offset="1"/>
          <input semantic="TEXCOORD" source="#Cube_007-mesh-map-0" offset="2" set="0"/>
          <input semantic="TEXCOORD" source="#Cube_007-mesh-map-1" offset="2" set="1"/>
          <p>0 0 0 1 0 1 3 1 2 0 0 3 3 1 4 2 1 5 4 2 6 7 2 7 5 3 8 4 2 9 6 4 10 7 2 11 8 5 12 11 6 13 9 6 14 8 5 15 10 7 16 11 6 17 12 8 18 15 9 19 13 10 20 12 8 21 14 8 22 15 9 23 16 11 24 17 12 25 19 13 26 16 11 27 19 13 28 18 14 29 20 15 30 23 15 31 21 16 32 20 15 33 22 17 34 23 15 35 24 18 36 27 18 37 25 19 38 24 18 39 26 19 40 27 18 41 28 20 42 31 20 43 29 21 44 28 20 45 30 22 46 31 20 47 32 23 48 33 24 49 34 25 50 32 23 51 35 26 52 33 24 53 36 27 54 37 27 55 38 27 56 36 27 57 38 27 58 39 28 59 40 29 60 41 30 61 42 31 62 40 29 63 42 31 64 43 32 65 44 33 66 45 34 67 46 33 68 44 33 69 46 33 70 47 34 71 48 35 72 49 35 73 50 36 74 48 35 75 51 37 76 49 35 77 52 38 78 53 39 79 54 38 80 52 38 81 54 38 82 55 40 83 56 41 84 57 42 85 58 43 86 56 41 87 58 43 88 59 44 89 60 45 90 61 45 91 62 45 92 60 45 93 62 45 94 63 46 95 0 47 96 35 48 97 32 49 98 22 50 99 54 51 100 23 52 101 13 53 102 44 54 103 12 55 104 23 56 105 53 57 106 21 58 107 12 59 108 47 60 109 14 61 110 3 62 111 35 63 112 2 63 113 25 64 114 56 64 115 24 64 116 1 65 117 33 66 118 3 67 119 24 68 120 59 69 121 26 70 122 14 71 123 46 72 124 15 73 125 5 74 126 36 75 127 4 76 128 13 77 129 46 78 130 45 79 131 4 80 132 39 81 133 6 82 134 26 83 135 58 84 136 27 85 137 16 86 138 50 86 139 17 86 140 27 87 141 57 88 142 25 89 143 18 90 144 48 91 145 16 92 146 6 93 147 38 94 148 7 95 149 29 96 150 60 97 151 28 98 152 7 99 153 37 100 154 5 101 155 28 102 156 63 103 157 30 104 158 19 105 159 51 105 160 18 106 161 9 107 162 40 108 163 8 109 164 17 110 165 49 111 166 19 112 167 8 113 168 43 114 169 10 115 170 30 116 171 62 117 172 31 118 173 21 119 174 52 120 175 20 120 176 29 121 177 62 122 178 61 123 179 22 124 180 52 125 181 55 126 182 10 127 183 42 128 184 11 129 185 0 130 186 34 131 187 1 132 188 9 133 189 42 134 190 41 123 191 0 47 192 2 135 193 35 48 194 22 50 195 55 136 196 54 51 197 13 53 198 45 137 199 44 54 200 23 56 201 54 138 202 53 57 203 12 59 204 44 49 205 47 60 206 3 62 207 33 62 208 35 63 209 25 64 210 57 64 211 56 64 212 1 65 213 34 123 214 33 66 215 24 68 216 56 49 217 59 69 218 14 71 219 47 139 220 46 72 221 5 74 222 37 140 223 36 75 224 13 77 225 15 141 226 46 78 227 4 80 228 36 49 229 39 81 230 26 83 231 59 142 232 58 84 233 16 86 234 48 86 235 50 86 236 27 87 237 58 123 238 57 88 239 18 90 240 51 49 241 48 91 242 6 93 243 39 93 244 38 94 245 29 96 246 61 143 247 60 97 248 7 99 249 38 123 250 37 100 251 28 102 252 60 49 253 63 103 254 19 105 255 49 106 256 51 105 257 9 107 258 41 144 259 40 108 260 17 110 261 50 123 262 49 111 263 8 113 264 40 49 265 43 114 266 30 116 267 63 116 268 62 117 269 21 119 270 53 145 271 52 120 272 29 121 273 31 146 274 62 122 275 22 124 276 20 147 277 52 125 278 10 127 279 43 148 280 42 128 281 0 130 282 32 149 283 34 131 284 9 133 285 11 150 286 42 134 287</p>
        </triangles>
      </mesh>
    </geometry>
  </library_geometries>
  <library_visual_scenes>
    <visual_scene id="Scene" name="Scene">
      <node id="corral_f" name="corral_f" type="NODE">
        <matrix sid="transform">1 0 0 0 0 1 0 0 0 0 1 0 0 0 0 1</matrix>
        <instance_geometry url="#Cube_007-mesh" name="corral_f">
          <bind_material>
            <technique_common>
              <instance_material symbol="hierva_choza_gaetuli-material" target="#hierva_choza_gaetuli-material">
                <bind_vertex_input semantic="Cube_007-mesh-map-0" input_semantic="TEXCOORD" input_set="0"/>
                <bind_vertex_input semantic="Cube_007-mesh-map-1" input_semantic="TEXCOORD" input_set="1"/>
              </instance_material>
            </technique_common>
          </bind_material>
        </instance_geometry>
        <node id="prop_garrisoned" name="prop_garrisoned" type="NODE">
          <matrix sid="transform">-0.7829416 1.18221e-7 0 5.35037e-14 -1.18221e-7 -0.7829416 0 5.033843 0 0 0.7829416 9.013988 0 0 0 1</matrix>
        </node>
        <node id="prop_projectile" name="prop_projectile" type="NODE">
          <matrix sid="transform">-0.7829416 1.18221e-7 0 5.35037e-14 -1.18221e-7 -0.7829416 0 5.033842 0 0 0.7829416 9.013988 0 0 0 1</matrix>
        </node>
      </node>
    </visual_scene>
  </library_visual_scenes>
  <scene>
    <instance_visual_scene url="#Scene"/>
  </scene>
</COLLADA>