<?xml version="1.0" encoding="utf-8"?>
<COLLADA xmlns="http://www.collada.org/2005/11/COLLADASchema" version="1.4.1" xmlns:xsi="http://www.w3.org/2001/XMLSchema-instance">
  <asset>
    <contributor>
      <author>Blender User</author>
      <authoring_tool>Blender 4.3.1 commit date:2024-12-10, commit time:07:46, hash:33d812126174</authoring_tool>
    </contributor>
    <created>2026-08-22T19:12:23</created>
    <modified>2026-08-22T19:12:23</modified>
    <unit name="meter" meter="1"/>
    <up_axis>Z_UP</up_axis>
  </asset>
  <library_effects>
    <effect id="hierva_choza_gaetuli-effect">
      <profile_COMMON>
        <technique sid="common">
          <lambert>
            <emission>
              <color sid="emission">0 0 0 1</color>
            </emission>
            <diffuse>
              <color sid="diffuse">0.8 0.8 0.8 1</color>
            </diffuse>
            <index_of_refraction>
              <float sid="ior">1.45</float>
            </index_of_refraction>
          </lambert>
        </technique>
      </profile_COMMON>
    </effect>
  </library_effects>
  <library_images/>
  <library_materials>
    <material id="hierva_choza_gaetuli-material" name="hierva choza gaetuli">
      <instance_effect url="#hierva_choza_gaetuli-effect"/>
    </material>
  </library_materials>
  <library_geometries>
    <geometry id="Cube_001-mesh" name="Cube.001">
      <mesh>
        <source id="Cube_001-mesh-positions">
          <float_array id="Cube_001-mesh-positions-array" count="384">4.55324 0.413552 3.902888 4.55324 0.413552 0.4004871 0.6747089 -2.016012 3.902888 0.6747089 -2.016012 0.4004871 0.8280761 0.6327315 3.902889 0.8280761 0.6327315 0.4004871 4.234654 -2.223797 3.902889 4.234654 -2.223797 0.4004871 13.1296 -3.208973 3.902888 13.1296 -3.208973 0.4004871 12.69194 -7.764655 3.902888 12.69194 -7.764655 0.4004871 10.68546 -6.028736 3.902888 10.68546 -6.028736 0.4004871 15.02635 -5.068933 3.902888 15.02635 -5.068933 0.4004871 -8.488865 -5.787664 3.902888 -8.488865 -5.787664 0.4004871 -12.3674 -8.217229 3.902888 -12.3674 -8.217229 0.4004871 -12.21403 -5.568485 3.902888 -12.21403 -5.568485 0.4004871 -8.807454 -8.425014 3.902888 -8.807454 -8.425014 0.4004871 -13.48382 4.938374 3.902888 -13.48382 4.938374 0.4004871 -16.17081 8.643221 3.902888 -16.17081 8.643221 0.4004871 -13.51776 8.669827 3.902888 -13.51776 8.669827 0.4004871 -16.1367 5.077381 3.902888 -16.1367 5.077381 0.4004871 6.845009 7.178477 3.902888 6.845009 7.178477 0.4004871 2.966478 4.748912 3.902888 2.966478 4.748912 0.4004871 3.119845 7.397656 3.902888 3.119845 7.397656 0.4004871 6.526423 4.541128 3.902888 6.526423 4.541128 0.4004871 -3.281516 0.4135512 3.902888 -3.281516 0.4135512 0.4004871 -7.160048 -2.016013 3.902888 -7.160048 -2.016013 0.4004871 -7.006681 0.6327308 3.902888 -7.006681 0.6327308 0.4004871 -3.600103 -2.223798 3.902888 -3.600103 -2.223798 0.4004871 13.81498 7.178477 3.902888 13.81498 7.178477 0.4004871 9.93645 4.748912 3.902888 9.93645 4.748912 0.4004871 10.08981 7.397656 3.902888 10.08981 7.397656 0.4004871 13.49639 4.541128 3.902888 13.49639 4.541128 0.4004871 -13.82429 -8.992057 3.902888 -13.82429 -8.992057 0.4004871 -16.58638 -5.342854 3.902888 -16.58638 -5.342854 0.4004871 -13.93442 -5.262076 3.902888 -13.93442 -5.262076 0.4004871 -16.47946 -8.907256 3.902888 -16.47946 -8.907256 0.4004871 4.569697 0.3872808 3.902888 0.6911656 -2.042284 0.4004871 4.569697 0.3872808 0.4004871 0.6911656 -2.042284 3.902888 0.8081576 0.6089775 3.902889 0.8081576 0.6089775 0.4004871 4.214735 -2.247551 0.4004871 4.214735 -2.247551 3.902889 13.09875 -3.206008 3.902888 13.09875 -3.206008 0.4004871 12.66108 -7.761691 0.4004871 12.66108 -7.761691 3.902888 10.67877 -5.998467 3.902888 15.01966 -5.038664 0.4004871 10.67877 -5.998467 0.4004871 15.01966 -5.038664 3.902888 -8.47241 -5.813936 3.902888 -12.35094 -8.243501 0.4004871 -8.47241 -5.813936 0.4004871 -12.35094 -8.243501 3.902888 -12.19411 -5.544731 3.902888 -8.787533 -8.401262 0.4004871 -12.19411 -5.544731 0.4004871 -8.787533 -8.401262 3.902888 -13.45873 4.956574 3.902888 -13.45873 4.956574 0.4004871 -16.14572 8.661421 0.4004871 -16.14572 8.661421 3.902888 -13.49271 8.651565 3.902888 -16.11166 5.059118 0.4004871 -13.49271 8.651565 0.4004871 -16.11166 5.059118 3.902888 6.861466 7.152205 3.902888 2.982935 4.722641 0.4004871 6.861466 7.152205 0.4004871 2.982935 4.722641 3.902888 3.099926 7.373902 3.902888 3.099926 7.373902 0.4004871 6.506504 4.517374 0.4004871 6.506504 4.517374 3.902888 -3.265059 0.3872799 3.902888 -7.143591 -2.042284 0.4004871 -3.265059 0.3872799 0.4004871 -7.143591 -2.042284 3.902888 -6.986763 0.6564848 3.902888 -3.580184 -2.200044 0.4004871 -6.986763 0.6564848 0.4004871 -3.580184 -2.200044 3.902888 13.83144 7.152205 3.902888 9.952905 4.722641 0.4004871 13.83144 7.152205 0.4004871 9.952905 4.722641 3.902888 10.0699 7.373902 3.902888 10.0699 7.373902 0.4004871 13.47647 4.517374 0.4004871 13.47647 4.517374 3.902888 -13.79957 -8.973348 3.902888 -13.79957 -8.973348 0.4004871 -16.56166 -5.324146 0.4004871 -16.56166 -5.324146 3.902888 -13.90901 -5.279823 3.902888 -16.45404 -8.925003 0.4004871 -13.90901 -5.279823 0.4004871 -16.45404 -8.925003 3.902888</float_array>
          <technique_common>
            <accessor source="#Cube_001-mesh-positions-array" count="128" stride="3">
              <param name="X" type="float"/>
              <param name="Y" type="float"/>
              <param name="Z" type="float"/>
            </accessor>
          </technique_common>
        </source>
        <source id="Cube_001-mesh-normals">
          <float_array id="Cube_001-mesh-normals-array" count="912">-0.5308601 0.8474595 0 -0.53086 0.8474596 0 -0.5308601 0.8474596 0 0.6425328 0.7662581 0 0.6425329 0.7662582 0 0.6425328 0.7662582 0 0.9954171 -0.09562897 0 0.9954171 -0.09562885 0 0.9954171 -0.09562915 0 0.9954172 -0.09562867 0 0.2158931 -0.976417 0 0.2158931 -0.9764171 0 0.2158931 -0.976417 0 0.2158932 -0.9764171 0 -0.5308598 0.8474597 0 -0.5308599 0.8474597 0 -0.6425331 -0.766258 0 -0.642533 -0.7662581 0 -0.6425331 -0.7662579 0 -0.8095092 -0.5871072 0 -0.8095093 -0.5871072 0 -0.8080666 0.5890913 0 -0.8080667 0.5890911 0 -0.8080665 0.5890913 0 -0.8080664 0.5890915 0 -0.5308603 0.8474594 0 -0.5308603 0.8474594 0 -0.5308602 0.8474594 0 -0.5308601 0.8474594 0 0.6425328 0.7662583 0 0.6425327 0.7662584 0 -0.53086 0.8474596 0 -0.5308599 0.8474596 0 -0.6425329 -0.7662581 0 -0.642533 -0.7662581 0 -0.5308603 0.8474594 0 0.6425325 0.7662584 0 0.6425327 0.7662584 0 0.6425324 0.7662586 0 -0.7973505 -0.6035166 0 -0.7973504 -0.6035166 0 -0.8199273 0.5724677 0 -0.8199272 0.5724677 0 -0.8199273 0.5724678 0 0.5308601 -0.8474594 0 0.5308603 -0.8474594 0 0.5308601 -0.8474596 0 -0.642533 -0.766258 0 -0.6425329 -0.7662582 0 -0.9954169 0.095631 0 -0.9954169 0.095631 0 -0.9954169 0.095631 0 -0.2158931 0.9764171 0 -0.2158931 0.9764171 0 -0.215893 0.9764171 0 0.5308602 -0.8474594 0 0.6425333 0.7662578 0 0.6425332 0.766258 0 0.6425335 0.7662577 0 0.642533 0.7662581 0 0.8095091 0.5871074 0 0.8095091 0.5871075 0 0.8095092 0.5871073 0 0.8095092 0.5871072 0 0.8080657 -0.5890926 0 0.8080656 -0.5890926 0 0.5308601 -0.8474595 0 0.53086 -0.8474596 0 0.5308601 -0.8474596 0 -0.6425328 -0.7662582 0 -0.6425328 -0.7662583 0 -0.6425328 -0.7662583 0 0.5308601 -0.8474596 0 0.53086 -0.8474596 0 0.5308599 -0.8474596 0 0.5308596 -0.8474599 0 0.5308596 -0.8474598 0 0.5308595 -0.8474599 0 0.5308597 -0.8474598 0 -0.6425336 -0.7662575 0 -0.6425337 -0.7662575 0 0.7973507 0.6035164 0 0.8199282 -0.5724664 0 0.8199282 -0.5724664 0 0.8199282 -0.5724664 0 0.7662571 -0.6425342 0 0.7662229 -0.6425749 0 0.7662227 -0.6425752 0 0 0 1 4.30558e-7 0 1 0 0 1 -1.7175e-6 0 -1 1.13597e-6 0 -1 -1.7303e-6 0 -1 -0.8474546 -0.5308679 0 -0.8474469 -0.5308803 0 -0.8474467 -0.5308804 0 0.6034916 -0.7973695 0 0.6035249 -0.7973442 0 0.6035251 -0.797344 0 0 0 -1 4.31365e-7 0 -1 4.33233e-7 0 -1 0.976438 0.2157985 0 0.976438 0.2157986 0 0.9764379 0.2157985 0 -1.33877e-5 0 1 -6.8543e-7 0 1 -6.30116e-7 0 1 -0.7662487 0.6425442 0 -0.7662572 0.642534 0 -0.7662572 0.642534 0 4.29246e-7 0 -1 -2.94087e-7 0 -1 -2.9733e-7 0 -1 0 0 1 -1.82988e-6 0 1 -1.83804e-6 0 1 0.8474869 0.5308163 0 0.8474714 0.5308412 0 0.8474713 0.5308414 0 -0.603438 0.7974099 0 -0.6034715 0.7973846 0 -0.6034717 0.7973845 0 0 0 1 3.24178e-6 0 1 3.25586e-6 0 1 0 0 -1 -1.41164e-6 0 -1 0 0 -1 0.7662572 -0.6425341 0 0.7662401 -0.6425545 0 0.76624 -0.6425546 0 0.5726566 0.8197954 1.19111e-4 0.5724925 0.8199101 8.00274e-5 0.5725905 0.8198416 0 -1.71713e-6 0 -1 1.136e-6 0 -1 -1.72991e-6 0 -1 -0.8474239 -0.5309171 0 -0.8474238 -0.5309171 0 0 0 1 2.15325e-6 0 1 2.16284e-6 0 1 0.8474588 0.5308614 0 0.8474509 0.5308738 0 0.8474509 0.530874 0 0 0 -1 0 0 -1 0 0 1 -9.20268e-6 0 1 -9.24248e-6 0 1 -0.7662507 0.6425418 0 -0.7662166 0.6425825 0 -0.7662164 0.6425828 0 -0.5724259 -0.8199565 0 -0.5724911 -0.819911 0 -0.5724915 -0.8199107 0 0 0 1 2.58343e-6 0 1 2.59497e-6 0 1 0.8474498 0.5308756 0 0.8474655 0.5308506 0 0.8474655 0.5308504 0 0 0 -1 5.4504e-7 0 -1 -0.847449 -0.530877 0 1.33741e-5 0 1 -2.55652e-6 0 1 -2.62571e-6 0 1 0 0 -1 7.58177e-7 0 -1 7.6146e-7 0 -1 0.7661974 -0.6426054 0 0.7662144 -0.642585 0 0.7662146 -0.6425849 0 -0.766273 0.6425152 0 0 0 -1 0 0 -1 -0.8474655 -0.5308505 0 -0.8474655 -0.5308505 0 -0.8474655 -0.5308506 0 0 0 1 -4.84395e-6 0 1 -4.86555e-6 0 1 0.5871716 -0.8094626 0 0.5871716 -0.8094626 0 -8.41347e-7 0 -1 -1.10167e-6 0 -1 -8.40215e-7 0 -1 0 0 1 -3.7653e-6 0 1 -3.7816e-6 0 1 -0.766258 0.6425331 0 -0.766258 0.6425332 0 0.7662572 -0.642534 0 0.7662487 -0.6425442 0 0.7662486 -0.6425443 0 0 0 1 9.25727e-6 0 1 1.71971e-6 0 -1 -5.70879e-7 0 -1 -5.8115e-7 0 -1 -0.5871717 0.8094624 0 -0.5872047 0.8094385 0 -0.5872049 0.8094384 0 0.8473924 0.5309673 0 0.8474237 0.5309173 0 0.8474239 0.5309171 0 -1.66739e-6 0 -1 1.39166e-6 0 -1 -1.68069e-6 0 -1 0.7662628 -0.6425275 0 0.766237 -0.6425581 0 0.7662369 -0.6425582 0 0 0 1 -1.88236e-6 0 1 0.5890814 0.8080737 0 0.5891146 0.8080496 0 0.5891147 0.8080494 0 0 0 -1 -4.44026e-7 0 -1 -4.46006e-7 0 -1 0 0 1 -5.59764e-6 0 1 -5.62254e-6 0 1 0.09566992 0.9954131 0 0.09566992 0.9954132 0 -0.8474783 -0.53083 0 -0.8474784 -0.53083 0 0 0 1 2.35281e-6 0 1 2.36301e-6 0 1 0 0 -1 4.31374e-7 0 -1 4.33245e-7 0 -1 -0.5892787 -0.8079299 0 -0.5892786 -0.8079299 0 -0.5892786 -0.80793 0 -0.7663957 0.6423689 0 -0.7663956 0.6423689 0 -0.7663956 0.6423689 0 0 0 -1 7.19889e-7 0 -1 -0.09560596 -0.9954193 0 -0.09561258 -0.9954187 0 -0.09561264 -0.9954186 0 0 0 1 -1.82987e-6 0 1 -1.83804e-6 0 1 0.8474555 0.5308666 0 0.8474555 0.5308665 0 0.8474555 0.5308666 0 -1.6665e-6 0 -1 1.52423e-6 0 -1 1.53811e-6 0 -1 0 0 1 -1.88232e-6 0 1 -0.9764233 -0.2158651 0 -0.9764379 -0.2157989 0 -0.9764379 -0.2157985 0 4.3248e-7 0 1 1.14878e-6 0 -1 -0.8474547 -0.5308678 0 0.6034913 -0.7973696 0 0.9764379 0.2157985 0 -1.3443e-5 0 1 -0.7662487 0.6425443 0 4.3249e-7 0 -1 0.847487 0.5308161 0 -0.6034379 0.7974101 0 -1.41776e-6 0 -1 0.5723153 0.8200337 0 1.14877e-6 0 -1 -0.8474239 -0.5309171 0 0.8474588 0.5308613 0 0 0 -1 -0.766251 0.6425415 0 -0.5724256 -0.8199568 0 0.8474498 0.5308758 0 5.4747e-7 0 -1 1.34434e-5 0 1 0.7661973 -0.6426055 0 0 0 -1 -0.8474655 -0.5308505 0 0.5871715 -0.8094626 0 -1.1028e-6 0 -1 0.7662573 -0.642534 0 9.29854e-6 0 1 1.72997e-6 0 -1 -0.5871716 0.8094626 0 0.8473922 0.5309675 0 1.40497e-6 0 -1 0.7662628 -0.6425273 0 -1.89052e-6 0 1 0.5890812 0.8080739 0 -0.5892786 -0.8079299 0 -0.7663956 0.6423689 0 7.23091e-7 0 -1 -0.09560596 -0.9954193 0 0.8474555 0.5308666 0 -1.68036e-6 0 -1 -1.89047e-6 0 1 -0.9764232 -0.2158655 0</float_array>
          <technique_common>
            <accessor source="#Cube_001-mesh-normals-array" count="304" stride="3">
              <param name="X" type="float"/>
              <param name="Y" type="float"/>
              <param name="Z" type="float"/>
            </accessor>
          </technique_common>
        </source>
        <source id="Cube_001-mesh-map-0">
          <float_array id="Cube_001-mesh-map-0-array" count="1152">0.9984335 0.6838312 1.000765 0.001214206 0.001161634 6.92369e-4 0.9984335 0.6838312 0.001161634 6.92369e-4 5.39125e-4 0.6833093 0.9984335 0.6838312 0.001161634 6.92369e-4 1.000765 0.001214206 0.9984335 0.6838312 5.39125e-4 0.6833093 0.001161634 6.92369e-4 0.9984335 0.6838312 0.001161634 6.92369e-4 1.000765 0.001214206 0.9984335 0.6838312 5.39125e-4 0.6833093 0.001161634 6.92369e-4 0.9984335 0.6838312 1.000765 0.001214206 0.001161634 6.92369e-4 0.9984335 0.6838312 0.001161634 6.92369e-4 5.39125e-4 0.6833093 0.9984335 0.6838312 1.000765 0.001214206 0.001161634 6.92369e-4 0.9984335 0.6838312 0.001161634 6.92369e-4 5.39125e-4 0.6833093 0.9984335 0.6838312 1.000765 0.001214206 0.001161634 6.92369e-4 0.9984335 0.6838312 0.001161634 6.92369e-4 5.39125e-4 0.6833093 0.9984335 0.6838312 0.001161634 6.92369e-4 1.000765 0.001214206 0.9984335 0.6838312 5.39125e-4 0.6833093 0.001161634 6.92369e-4 0.9984335 0.6838312 1.000765 0.001214206 0.001161634 6.92369e-4 0.9984335 0.6838312 0.001161634 6.92369e-4 5.39125e-4 0.6833093 0.9984335 0.6838312 1.000765 0.001214206 0.001161634 6.92369e-4 0.9984335 0.6838312 0.001161634 6.92369e-4 5.39125e-4 0.6833093 0.9984335 0.6838312 0.001161634 6.92369e-4 1.000765 0.001214206 0.9984335 0.6838312 5.39125e-4 0.6833093 0.001161634 6.92369e-4 0.9984335 0.6838312 1.000765 0.001214206 0.001161634 6.92369e-4 0.9984335 0.6838312 0.001161634 6.92369e-4 5.39125e-4 0.6833093 0.9984335 0.6838312 1.000765 0.001214206 0.001161634 6.92369e-4 0.9984335 0.6838312 0.001161634 6.92369e-4 5.39125e-4 0.6833093 0.9984335 0.6838312 1.000765 0.001214206 0.001161634 6.92369e-4 0.9984335 0.6838312 0.001161634 6.92369e-4 5.39125e-4 0.6833093 0.9984335 0.6838312 0.001161634 6.92369e-4 1.000765 0.001214206 0.9984335 0.6838312 5.39125e-4 0.6833093 0.001161634 6.92369e-4 0.9984335 0.6838312 0.001161634 6.92369e-4 1.000765 0.001214206 0.9984335 0.6838312 5.39125e-4 0.6833093 0.001161634 6.92369e-4 0.9984335 0.6838312 1.000765 0.001214206 0.001161634 6.92369e-4 0.9984335 0.6838312 0.001161634 6.92369e-4 5.39125e-4 0.6833093 0.9984335 0.6838312 0.001161634 6.92369e-4 1.000765 0.001214206 0.9984335 0.6838312 5.39125e-4 0.6833093 0.001161634 6.92369e-4 0.9984335 0.6838312 1.000765 0.001214206 0.001161634 6.92369e-4 0.9984335 0.6838312 0.001161634 6.92369e-4 5.39125e-4 0.6833093 0.9984335 0.6838312 1.000765 0.001214206 0.001161634 6.92369e-4 0.9984335 0.6838312 0.001161634 6.92369e-4 5.39125e-4 0.6833093 0.9984335 0.6838312 0.001161634 6.92369e-4 1.000765 0.001214206 0.9984335 0.6838312 5.39125e-4 0.6833093 0.001161634 6.92369e-4 0.9984335 0.6838312 0.001161634 6.92369e-4 1.000765 0.001214206 0.9984335 0.6838312 5.39125e-4 0.6833093 0.001161634 6.92369e-4 0.9984335 0.6838312 0.001161634 6.92369e-4 1.000765 0.001214206 0.9984335 0.6838312 5.39125e-4 0.6833093 0.001161634 6.92369e-4 0.9984335 0.6838312 1.000765 0.001214206 0.001161634 6.92369e-4 0.9984335 0.6838312 0.001161634 6.92369e-4 5.39125e-4 0.6833093 0.9984335 0.6838312 0.001161634 6.92369e-4 1.000765 0.001214206 0.9984335 0.6838312 5.39125e-4 0.6833093 0.001161634 6.92369e-4 0.9984335 0.6838312 0.001161634 6.92369e-4 1.000765 0.001214206 0.9984335 0.6838312 5.39125e-4 0.6833093 0.001161634 6.92369e-4 0.9984335 0.6838312 1.000765 0.001214206 0.001161634 6.92369e-4 0.9984335 0.6838312 0.001161634 6.92369e-4 5.39125e-4 0.6833093 0.9984335 0.6838312 0.001161634 6.92369e-4 1.000765 0.001214206 0.9984335 0.6838312 5.39125e-4 0.6833093 0.001161634 6.92369e-4 0.9984335 0.6838312 0.001161634 6.92369e-4 1.000765 0.001214206 0.9984335 0.6838312 5.39125e-4 0.6833093 0.001161634 6.92369e-4 0.9984335 0.6838312 0.001161634 6.92369e-4 1.000765 0.001214206 0.9984335 0.6838312 5.39125e-4 0.6833093 0.001161634 6.92369e-4 0.9984335 0.6838312 1.000765 0.001214206 0.001161634 6.92369e-4 0.9984335 0.6838312 0.001161634 6.92369e-4 5.39125e-4 0.6833093 0.9984335 0.6838312 1.000765 0.001214206 0.001161634 6.92369e-4 0.9984335 0.6838312 0.001161634 6.92369e-4 5.39125e-4 0.6833093 0.9984335 0.6838312 0.001161634 6.92369e-4 1.000765 0.001214206 0.9984335 0.6838312 5.39125e-4 0.6833093 0.001161634 6.92369e-4 5.39125e-4 0.6833093 0.001161634 6.92369e-4 0.001161634 6.92369e-4 0.9984335 0.6838312 5.39125e-4 0.6833093 0.9984335 0.6838312 1.000765 0.001214206 0.001161634 6.92369e-4 1.000765 0.001214206 0.001161634 6.92369e-4 5.39125e-4 0.6833093 5.39125e-4 0.6833093 1.000765 0.001214206 0.9984335 0.6838312 0.9984335 0.6838312 1.000765 0.001214206 0.001161634 6.92369e-4 0.001161634 6.92369e-4 0.001161634 6.92369e-4 5.39125e-4 0.6833093 5.39125e-4 0.6833093 0.9984335 0.6838312 5.39125e-4 0.6833093 5.39125e-4 0.6833093 1.000765 0.001214206 0.9984335 0.6838312 0.9984335 0.6838312 1.000765 0.001214206 0.001161634 6.92369e-4 0.001161634 6.92369e-4 0.9984335 0.6838312 5.39125e-4 0.6833093 5.39125e-4 0.6833093 0.9984335 0.6838312 1.000765 0.001214206 1.000765 0.001214206 5.39125e-4 0.6833093 0.001161634 6.92369e-4 0.001161634 6.92369e-4 5.39125e-4 0.6833093 0.9984335 0.6838312 0.9984335 0.6838312 1.000765 0.001214206 0.001161634 6.92369e-4 1.000765 0.001214206 5.39125e-4 0.6833093 0.001161634 6.92369e-4 0.001161634 6.92369e-4 0.9984335 0.6838312 1.000765 0.001214206 1.000765 0.001214206 1.000765 0.001214206 0.001161634 6.92369e-4 1.000765 0.001214206 0.001161634 6.92369e-4 5.39125e-4 0.6833093 5.39125e-4 0.6833093 5.39125e-4 0.6833093 0.9984335 0.6838312 0.9984335 0.6838312 0.9984335 0.6838312 1.000765 0.001214206 1.000765 0.001214206 0.001161634 6.92369e-4 1.000765 0.001214206 0.001161634 6.92369e-4 5.39125e-4 0.6833093 0.9984335 0.6838312 0.9984335 0.6838312 0.9984335 0.6838312 1.000765 0.001214206 1.000765 0.001214206 0.001161634 6.92369e-4 5.39125e-4 0.6833093 5.39125e-4 0.6833093 5.39125e-4 0.6833093 0.9984335 0.6838312 0.9984335 0.6838312 0.9984335 0.6838312 1.000765 0.001214206 1.000765 0.001214206 0.001161634 6.92369e-4 1.000765 0.001214206 0.001161634 6.92369e-4 0.001161634 6.92369e-4 5.39125e-4 0.6833093 5.39125e-4 0.6833093 5.39125e-4 0.6833093 0.9984335 0.6838312 0.9984335 0.6838312 1.000765 0.001214206 0.001161634 6.92369e-4 0.001161634 6.92369e-4 0.001161634 6.92369e-4 5.39125e-4 0.6833093 5.39125e-4 0.6833093 0.9984335 0.6838312 1.000765 0.001214206 1.000765 0.001214206 0.001161634 6.92369e-4 1.000765 0.001214206 0.001161634 6.92369e-4 0.001161634 6.92369e-4 5.39125e-4 0.6833093 5.39125e-4 0.6833093 5.39125e-4 0.6833093 0.9984335 0.6838312 0.9984335 0.6838312 1.000765 0.001214206 0.9984335 0.6838312 0.9984335 0.6838312 0.001161634 6.92369e-4 1.000765 0.001214206 0.001161634 6.92369e-4 0.9984335 0.6838312 5.39125e-4 0.6833093 5.39125e-4 0.6833093 1.000765 0.001214206 0.9984335 0.6838312 0.9984335 0.6838312 0.001161634 6.92369e-4 5.39125e-4 0.6833093 5.39125e-4 0.6833093 5.39125e-4 0.6833093 0.9984335 0.6838312 5.39125e-4 0.6833093 1.000765 0.001214206 0.001161634 6.92369e-4 0.001161634 6.92369e-4 5.39125e-4 0.6833093 0.001161634 6.92369e-4 0.001161634 6.92369e-4 0.9984335 0.6838312 1.000765 0.001214206 1.000765 0.001214206 1.000765 0.001214206 0.001161634 6.92369e-4 1.000765 0.001214206 5.39125e-4 0.6833093 0.001161634 6.92369e-4 0.001161634 6.92369e-4 0.9984335 0.6838312 5.39125e-4 0.6833093 0.9984335 0.6838312 0.9984335 0.6838312 1.000765 0.001214206 1.000765 0.001214206 0.001161634 6.92369e-4 1.000765 0.001214206 1.000765 0.001214206 5.39125e-4 0.6833093 0.9984335 0.6838312 0.9984335 0.6838312 1.000765 0.001214206 0.9984335 0.6838312 0.9984335 0.6838312 0.001161634 6.92369e-4 5.39125e-4 0.6833093 5.39125e-4 0.6833093 0.9984335 0.6838312 5.39125e-4 0.6833093 5.39125e-4 0.6833093 1.000765 0.001214206 0.001161634 6.92369e-4 0.001161634 6.92369e-4 0.001161634 6.92369e-4 5.39125e-4 0.6833093 5.39125e-4 0.6833093 1.000765 0.001214206 0.9984335 0.6838312 0.9984335 0.6838312 0.001161634 6.92369e-4 1.000765 0.001214206 0.001161634 6.92369e-4 5.39125e-4 0.6833093 0.001161634 6.92369e-4 0.001161634 6.92369e-4 0.9984335 0.6838312 5.39125e-4 0.6833093 5.39125e-4 0.6833093 0.9984335 0.6838312 1.000765 0.001214206 1.000765 0.001214206 0.001161634 6.92369e-4 1.000765 0.001214206 1.000765 0.001214206 0.9984335 0.6838312 5.39125e-4 0.6833093 0.9984335 0.6838312 0.9984335 0.6838312 1.000765 0.001214206 1.000765 0.001214206 5.39125e-4 0.6833093 5.39125e-4 0.6833093 0.001161634 6.92369e-4 0.9984335 0.6838312 5.39125e-4 0.6833093 5.39125e-4 0.6833093 1.000765 0.001214206 0.001161634 6.92369e-4 0.001161634 6.92369e-4 0.001161634 6.92369e-4 0.001161634 6.92369e-4 5.39125e-4 0.6833093 1.000765 0.001214206 1.000765 0.001214206 0.9984335 0.6838312 1.000765 0.001214206 1.000765 0.001214206 0.001161634 6.92369e-4 0.001161634 6.92369e-4 0.001161634 6.92369e-4 5.39125e-4 0.6833093 0.9984335 0.6838312 0.9984335 0.6838312 5.39125e-4 0.6833093 1.000765 0.001214206 1.000765 0.001214206 0.9984335 0.6838312 1.000765 0.001214206 1.000765 0.001214206 0.001161634 6.92369e-4 0.9984335 0.6838312 0.9984335 0.6838312 5.39125e-4 0.6833093 0.9984335 0.6838312 0.9984335 0.6838312 1.000765 0.001214206 5.39125e-4 0.6833093 5.39125e-4 0.6833093 0.001161634 6.92369e-4 5.39125e-4 0.6833093 5.39125e-4 0.6833093 0.9984335 0.6838312 1.000765 0.001214206 0.001161634 6.92369e-4 0.001161634 6.92369e-4 5.39125e-4 0.6833093 5.39125e-4 0.6833093 0.001161634 6.92369e-4 0.9984335 0.6838312 0.9984335 0.6838312 1.000765 0.001214206 1.000765 0.001214206 0.001161634 6.92369e-4 0.001161634 6.92369e-4 0.001161634 6.92369e-4 0.001161634 6.92369e-4 5.39125e-4 0.6833093 5.39125e-4 0.6833093 5.39125e-4 0.6833093 0.9984335 0.6838312 0.9984335 0.6838312 0.9984335 0.6838312 1.000765 0.001214206 0.001161634 6.92369e-4 1.000765 0.001214206 1.000765 0.001214206 5.39125e-4 0.6833093 5.39125e-4 0.6833093 0.9984335 0.6838312 0.9984335 0.6838312 0.9984335 0.6838312 1.000765 0.001214206 0.001161634 6.92369e-4 0.001161634 6.92369e-4 5.39125e-4 0.6833093 5.39125e-4 0.6833093 5.39125e-4 0.6833093 0.9984335 0.6838312 0.9984335 0.6838312 0.9984335 0.6838312 1.000765 0.001214206 0.001161634 6.92369e-4 1.000765 0.001214206 1.000765 0.001214206 0.001161634 6.92369e-4 0.001161634 6.92369e-4 5.39125e-4 0.6833093 5.39125e-4 0.6833093 5.39125e-4 0.6833093 0.9984335 0.6838312 1.000765 0.001214206 1.000765 0.001214206 0.001161634 6.92369e-4 0.001161634 6.92369e-4 0.001161634 6.92369e-4 5.39125e-4 0.6833093 0.9984335 0.6838312 0.9984335 0.6838312 1.000765 0.001214206 0.001161634 6.92369e-4 1.000765 0.001214206 1.000765 0.001214206 0.001161634 6.92369e-4 0.001161634 6.92369e-4 5.39125e-4 0.6833093 5.39125e-4 0.6833093 5.39125e-4 0.6833093 0.9984335 0.6838312 1.000765 0.001214206 1.000765 0.001214206 0.9984335 0.6838312 0.001161634 6.92369e-4 1.000765 0.001214206 1.000765 0.001214206 0.9984335 0.6838312 0.9984335 0.6838312 5.39125e-4 0.6833093 1.000765 0.001214206 1.000765 0.001214206 0.9984335 0.6838312 0.001161634 6.92369e-4 0.001161634 6.92369e-4 5.39125e-4 0.6833093 5.39125e-4 0.6833093 0.9984335 0.6838312 0.9984335 0.6838312 1.000765 0.001214206 1.000765 0.001214206 0.001161634 6.92369e-4 5.39125e-4 0.6833093 5.39125e-4 0.6833093 0.001161634 6.92369e-4 0.9984335 0.6838312 0.9984335 0.6838312 1.000765 0.001214206 1.000765 0.001214206 0.001161634 6.92369e-4 0.001161634 6.92369e-4 5.39125e-4 0.6833093 5.39125e-4 0.6833093 0.001161634 6.92369e-4 0.9984335 0.6838312 5.39125e-4 0.6833093 5.39125e-4 0.6833093 0.9984335 0.6838312 0.9984335 0.6838312 1.000765 0.001214206 0.001161634 6.92369e-4 0.001161634 6.92369e-4 1.000765 0.001214206 5.39125e-4 0.6833093 5.39125e-4 0.6833093 0.9984335 0.6838312 1.000765 0.001214206 1.000765 0.001214206 0.9984335 0.6838312 0.001161634 6.92369e-4 0.001161634 6.92369e-4 5.39125e-4 0.6833093 0.9984335 0.6838312 0.9984335 0.6838312 5.39125e-4 0.6833093 1.000765 0.001214206 1.000765 0.001214206 0.001161634 6.92369e-4 0.001161634 6.92369e-4 0.001161634 6.92369e-4 5.39125e-4 0.6833093 1.000765 0.001214206 1.000765 0.001214206 0.9984335 0.6838312 0.001161634 6.92369e-4 1.000765 0.001214206 1.000765 0.001214206 5.39125e-4 0.6833093 5.39125e-4 0.6833093 0.001161634 6.92369e-4 0.9984335 0.6838312 0.9984335 0.6838312 5.39125e-4 0.6833093 0.9984335 0.6838312 0.9984335 0.6838312 1.000765 0.001214206 0.001161634 6.92369e-4 0.001161634 6.92369e-4 1.000765 0.001214206 0.9984335 0.6838312 5.39125e-4 0.6833093 5.39125e-4 0.6833093 0.9984335 0.6838312 0.9984335 0.6838312 1.000765 0.001214206</float_array>
          <technique_common>
            <accessor source="#Cube_001-mesh-map-0-array" count="576" stride="2">
              <param name="S" type="float"/>
              <param name="T" type="float"/>
            </accessor>
          </technique_common>
        </source>
        <source id="Cube_001-mesh-map-1">
          <float_array id="Cube_001-mesh-map-1-array" count="1152">0.5721092 0 0.7139454 0 0.7139454 0.2011801 0.5721092 0 0.7139454 0.2011801 0.5721092 0.2011801 0.4290818 0.8039816 0.5709182 0.6092703 0.5709181 0.8039816 0.4290818 0.8039816 0.4290818 0.6092703 0.5709182 0.6092703 0.1430273 0.5652148 0.2760466 0.7208086 0.1430273 0.7208086 0.1430273 0.5652148 0.2760466 0.5652148 0.2760466 0.7208086 0.8581637 0.5780146 0.9999999 0.5780146 0.9999998 0.7525436 0.8581637 0.5780146 0.9999998 0.7525436 0.8581636 0.7525436 0.4290819 0.2042962 0.5709182 0.2042963 0.5709182 0.4054765 0.4290819 0.2042962 0.5709182 0.4054765 0.4290819 0.4054765 0.2860546 0.8052889 0.4278908 0.8052889 0.4278908 1 0.2860546 0.8052889 0.4278908 1 0.2860546 1 0 0.4070078 0.1418362 0.2042963 0.1418362 0.4070078 0 0.4070078 0 0.2042963 0.1418362 0.2042963 0 0.8068196 0.1418362 0.8068196 0.1418362 0.9988406 0 0.8068196 0.1418362 0.9988406 0 0.9988406 0.5721092 0.2042962 0.7139455 0.2042962 0.7139455 0.4054763 0.5721092 0.2042962 0.7139455 0.4054763 0.5721092 0.4054763 0.7151364 0.3907293 0.8569726 0.196018 0.8569726 0.3907293 0.7151364 0.3907293 0.7151364 0.1960179 0.8569726 0.196018 0.4290819 0.4067835 0.5709182 0.4067835 0.5709182 0.6079637 0.4290819 0.4067835 0.5709182 0.6079637 0.4290818 0.6079637 0.7151365 0.3920359 0.8569727 0.3920359 0.8569727 0.5867472 0.7151365 0.3920359 0.8569727 0.5867472 0.7151365 0.5867471 0.5721092 0.4067831 0.7139454 0.4067831 0.7139453 0.6079632 0.5721092 0.4067831 0.7139453 0.6079632 0.5721091 0.6079632 0 0.805513 0.1418362 0.6108016 0.1418362 0.805513 0 0.805513 0 0.6108016 0.1418362 0.6108016 0 0.2029896 0.1418362 0 0.1418362 0.2029896 0 0.2029896 0 0 0.1418362 0 0.8581637 0.193327 1 0.193327 1 0.3843648 0.8581637 0.193327 1 0.3843648 0.8581637 0.3843648 0.2860545 0.4054769 0.4278908 0.2042963 0.4278907 0.405477 0.2860545 0.4054769 0.2860546 0.2042962 0.4278908 0.2042963 0.7151365 0.5880537 0.8569728 0.5880537 0.8569728 0.7827648 0.7151365 0.5880537 0.8569728 0.7827648 0.7151365 0.7827648 0.2760493 0.4083144 0.2760493 0.5639082 0.1430273 0.5639082 0.2760493 0.4083144 0.1430273 0.5639082 0.1430273 0.4083144 0.8581637 0.9283776 1 0.7538503 0.9999999 0.9283776 0.8581637 0.9283776 0.8581637 0.7538503 1 0.7538503 0 0.6094951 0.1418362 0.4083144 0.1418362 0.6094951 0 0.6094951 0 0.4083144 0.1418362 0.4083144 0.2860545 0.8039823 0.4278908 0.6092709 0.4278907 0.8039823 0.2860545 0.8039823 0.2860546 0.6092709 0.4278908 0.6092709 0.1430273 0.2042962 0.2848635 0.2042963 0.2848635 0.4070077 0.1430273 0.2042962 0.2848635 0.4070077 0.1430273 0.4070077 0.8581637 0.1920205 0.9999999 0 0.9999999 0.1920205 0.8581637 0.1920205 0.8581637 0 0.9999999 0 0.4290818 0.2011806 0.5709182 0 0.5709182 0.2011806 0.4290818 0.2011806 0.4290819 0 0.5709182 0 0.7151364 0.7840714 0.8569726 0.7840714 0.8569726 0.9787826 0.7151364 0.7840714 0.8569726 0.9787826 0.7151364 0.9787825 0.2860546 0.6079643 0.4278908 0.4067836 0.4278908 0.6079643 0.2860546 0.6079643 0.2860546 0.4067836 0.4278908 0.4067836 0.7151364 0.1947113 0.8569726 0 0.8569726 0.1947113 0.7151364 0.1947113 0.7151364 0 0.8569726 0 0.2860546 0.2011808 0.4278908 0 0.4278908 0.2011808 0.2860546 0.2011808 0.2860546 0 0.4278908 0 0.4290818 0.8052881 0.5709181 0.8052881 0.5709181 0.9999991 0.4290818 0.8052881 0.5709181 0.9999991 0.4290818 0.9999991 0.1430273 0 0.2848635 0 0.2848635 0.2029895 0.1430273 0 0.2848635 0.2029895 0.1430273 0.2029895 0.8581637 0.576708 0.9999999 0.3856714 0.9999999 0.576708 0.8581637 0.576708 0.8581637 0.3856714 0.9999999 0.3856714 0.6003664 0.6092699 0.6016041 0.7648636 0.6003664 0.7648636 0.6625692 0.6092698 0.6613138 0.8067712 0.6613138 0.6092699 0.6515281 0.806771 0.6527833 0.6092699 0.6527833 0.8067707 0.6161902 0.7648636 0.614948 0.6092699 0.6161902 0.6092699 0.640553 0.7648636 0.6392996 0.6092699 0.640553 0.6092699 0.7017127 0.8125873 0.7004573 0.6092698 0.7017127 0.6092698 0.2783497 0.7685323 0.2772404 0.6129386 0.2783497 0.6129386 0.2821336 0.4083144 0.283389 0.611632 0.2821336 0.6116321 0.6064617 0.7648636 0.605224 0.6092699 0.6064617 0.6092699 0.6588673 0.6092698 0.6601227 0.8067712 0.6588673 0.806771 0.6723552 0.806771 0.6710998 0.6092699 0.6723552 0.6092699 0.6125148 0.6092699 0.613757 0.7648636 0.6125148 0.7648636 0.6417441 0.6092699 0.6429976 0.7648636 0.6417441 0.7648636 0.7102432 0.6092697 0.7114986 0.8125873 0.7102432 0.8125873 0.7139453 0.6092698 0.7126899 0.8125873 0.7126899 0.6092697 0.5979378 0.6092699 0.5991754 0.7648636 0.5979378 0.7648636 0.5761607 0.6092699 0.5773748 0.7648636 0.5761607 0.7648636 0.6686533 0.806771 0.6699087 0.6092699 0.6699087 0.806771 0.63079 0.7648636 0.6295477 0.6092699 0.63079 0.6092699 0.6784391 0.6092699 0.6796947 0.8067709 0.6784395 0.8067712 0.6198146 0.6092699 0.6210568 0.7648636 0.6198146 0.7648636 0.7090523 0.6092699 0.7077969 0.8125874 0.7077968 0.6092699 0.6955643 0.6092699 0.6968197 0.8125874 0.6955643 0.8125874 0.5955091 0.6092699 0.5967468 0.7648636 0.5955091 0.7648636 0.5797802 0.7648636 0.5785658 0.6092699 0.5797802 0.6092699 0.656421 0.6092699 0.6576763 0.806771 0.6564209 0.806771 0.6222478 0.6092699 0.62349 0.7648636 0.6222478 0.7648636 0.6821411 0.6092697 0.6808856 0.8067709 0.6808857 0.6092698 0.6186236 0.7648636 0.6173813 0.6092699 0.6186236 0.6092699 0.6906714 0.6092699 0.6919268 0.8125874 0.6906714 0.8125874 0.6943733 0.8125873 0.6931179 0.6092699 0.6943733 0.6092699 0.6088905 0.7648636 0.6076528 0.6092699 0.6088905 0.6092699 0.5882229 0.6092699 0.5894605 0.7648636 0.5882229 0.7648636 0.6552298 0.60927 0.6539744 0.806771 0.6539744 0.6092699 0.6259233 0.7648636 0.6246811 0.6092699 0.6259233 0.6092699 0.6759927 0.6092699 0.6772481 0.806771 0.6759928 0.806771 0.6381086 0.7648636 0.636857 0.6092699 0.6381086 0.6092699 0.6894804 0.6092699 0.688225 0.8125873 0.6882249 0.6092699 0.6857785 0.6092699 0.6870337 0.8125875 0.6857785 0.8125874 0.5918892 0.7648636 0.5906515 0.6092699 0.5918892 0.6092699 0.594318 0.7648636 0.5930803 0.6092699 0.594318 0.6092699 0.6674621 0.6092699 0.6662067 0.806771 0.6662067 0.6092699 0.6748017 0.806771 0.6735463 0.6092699 0.6748017 0.6092699 0.6344146 0.6092699 0.635666 0.7648636 0.6344146 0.7648636 0.6319811 0.6092699 0.6332235 0.7648636 0.6319811 0.7648636 0.6845875 0.6092698 0.6833323 0.8125874 0.6833322 0.6092699 0.6027953 0.6092699 0.6040329 0.7648636 0.6027953 0.7648636 0.2772404 0.6116318 0.2784958 0.4083143 0.2784959 0.6116319 0.5833827 0.6092699 0.5846033 0.7648636 0.5833827 0.7648636 0.6637603 0.6092699 0.6650157 0.806771 0.6637603 0.806771 0.6441886 0.6092701 0.645444 0.8067712 0.6441886 0.8067712 0.2833891 0.7685325 0.2824883 0.6129387 0.2833891 0.6129387 0.6113237 0.7648636 0.6100815 0.6092699 0.6113237 0.6092699 0.7066053 0.8125874 0.7053503 0.6092699 0.7066057 0.6092699 0.2809425 0.6116318 0.2796871 0.4083143 0.2809425 0.4083143 0.5821917 0.7648636 0.5809713 0.6092699 0.5821917 0.6092699 0.5870317 0.7648636 0.5857943 0.6092699 0.5870317 0.6092699 0.6478905 0.6092702 0.6466351 0.8067712 0.6466354 0.6092699 0.2795408 0.6129386 0.2804419 0.7685323 0.2795408 0.7685323 0.6503369 0.806771 0.6490815 0.6092699 0.6503369 0.6092699 0.6271144 0.6092699 0.6283567 0.7648636 0.6271144 0.7648636 0.7029036 0.6092699 0.7041591 0.8125874 0.7029041 0.8125874 0.6980107 0.8125873 0.6992661 0.6092699 0.6992661 0.8125873 0.5738604 0.6092699 0.5749697 0.7648636 0.5738604 0.7648636 0.6003664 0.6092699 0.6016041 0.6092699 0.6016041 0.7648636 0.6625692 0.6092698 0.6625692 0.806771 0.6613138 0.8067712 0.6515281 0.806771 0.6515278 0.6092699 0.6527833 0.6092699 0.6161902 0.7648636 0.614948 0.7648636 0.614948 0.6092699 0.640553 0.7648636 0.6392996 0.7648636 0.6392996 0.6092699 0.7017127 0.8125873 0.7004573 0.8125873 0.7004573 0.6092698 0.2783497 0.7685323 0.2772404 0.7685323 0.2772404 0.6129386 0.2821336 0.4083144 0.283389 0.4083144 0.283389 0.611632 0.6064617 0.7648636 0.605224 0.7648636 0.605224 0.6092699 0.6588673 0.6092698 0.6601227 0.6092699 0.6601227 0.8067712 0.6723552 0.806771 0.6710998 0.806771 0.6710998 0.6092699 0.6125148 0.6092699 0.613757 0.6092699 0.613757 0.7648636 0.6417441 0.6092699 0.6429976 0.6092699 0.6429976 0.7648636 0.7102432 0.6092697 0.7114987 0.6092699 0.7114986 0.8125873 0.7139453 0.6092698 0.7139453 0.8125874 0.7126899 0.8125873 0.5979378 0.6092699 0.5991754 0.6092699 0.5991754 0.7648636 0.5761607 0.6092699 0.5773748 0.6092699 0.5773748 0.7648636 0.6686533 0.806771 0.6686533 0.6092699 0.6699087 0.6092699 0.63079 0.7648636 0.6295477 0.7648636 0.6295477 0.6092699 0.6784391 0.6092699 0.6796947 0.6092699 0.6796947 0.8067709 0.6198146 0.6092699 0.6210568 0.6092699 0.6210568 0.7648636 0.7090523 0.6092699 0.7090523 0.8125874 0.7077969 0.8125874 0.6955643 0.6092699 0.6968197 0.6092699 0.6968197 0.8125874 0.5955091 0.6092699 0.5967468 0.6092699 0.5967468 0.7648636 0.5797802 0.7648636 0.5785658 0.7648636 0.5785658 0.6092699 0.656421 0.6092699 0.6576763 0.6092698 0.6576763 0.806771 0.6222478 0.6092699 0.62349 0.6092699 0.62349 0.7648636 0.6821411 0.6092697 0.6821408 0.806771 0.6808856 0.8067709 0.6186236 0.7648636 0.6173813 0.7648636 0.6173813 0.6092699 0.6906714 0.6092699 0.6919268 0.6092699 0.6919268 0.8125874 0.6943733 0.8125873 0.6931179 0.8125874 0.6931179 0.6092699 0.6088905 0.7648636 0.6076528 0.7648636 0.6076528 0.6092699 0.5882229 0.6092699 0.5894605 0.6092699 0.5894605 0.7648636 0.6552298 0.60927 0.6552298 0.806771 0.6539744 0.806771 0.6259233 0.7648636 0.6246811 0.7648636 0.6246811 0.6092699 0.6759927 0.6092699 0.6772482 0.6092699 0.6772481 0.806771 0.6381086 0.7648636 0.636857 0.7648636 0.636857 0.6092699 0.6894804 0.6092699 0.6894804 0.8125873 0.688225 0.8125873 0.6857785 0.6092699 0.6870337 0.60927 0.6870337 0.8125875 0.5918892 0.7648636 0.5906515 0.7648636 0.5906515 0.6092699 0.594318 0.7648636 0.5930803 0.7648636 0.5930803 0.6092699 0.6674621 0.6092699 0.6674621 0.806771 0.6662067 0.806771 0.6748017 0.806771 0.6735463 0.806771 0.6735463 0.6092699 0.6344146 0.6092699 0.635666 0.6092699 0.635666 0.7648636 0.6319811 0.6092699 0.6332235 0.6092699 0.6332235 0.7648636 0.6845875 0.6092698 0.6845875 0.8125873 0.6833323 0.8125874 0.6027953 0.6092699 0.6040329 0.6092699 0.6040329 0.7648636 0.2772404 0.6116318 0.2772404 0.4083143 0.2784958 0.4083143 0.5833827 0.6092699 0.5846033 0.6092699 0.5846033 0.7648636 0.6637603 0.6092699 0.6650157 0.6092699 0.6650157 0.806771 0.6441886 0.6092701 0.6454437 0.6092698 0.645444 0.8067712 0.2833891 0.7685325 0.2824883 0.7685325 0.2824883 0.6129387 0.6113237 0.7648636 0.6100815 0.7648636 0.6100815 0.6092699 0.7066053 0.8125874 0.7053503 0.8125874 0.7053503 0.6092699 0.2809425 0.6116318 0.279687 0.6116319 0.2796871 0.4083143 0.5821917 0.7648636 0.5809713 0.7648636 0.5809713 0.6092699 0.5870317 0.7648636 0.5857943 0.7648636 0.5857943 0.6092699 0.6478905 0.6092702 0.6478905 0.8067712 0.6466351 0.8067712 0.2795408 0.6129386 0.2804419 0.6129386 0.2804419 0.7685323 0.6503369 0.806771 0.6490817 0.8067707 0.6490815 0.6092699 0.6271144 0.6092699 0.6283567 0.6092699 0.6283567 0.7648636 0.7029036 0.6092699 0.7041591 0.6092699 0.7041591 0.8125874 0.6980107 0.8125873 0.6980108 0.6092699 0.6992661 0.6092699 0.5738604 0.6092699 0.5749697 0.6092699 0.5749697 0.7648636</float_array>
          <technique_common>
            <accessor source="#Cube_001-mesh-map-1-array" count="576" stride="2">
              <param name="S" type="float"/>
              <param name="T" type="float"/>
            </accessor>
          </technique_common>
        </source>
        <vertices id="Cube_001-mesh-vertices">
          <input semantic="POSITION" source="#Cube_001-mesh-positions"/>
        </vertices>
        <triangles material="hierva_choza_gaetuli-material" count="192">
          <input semantic="VERTEX" source="#Cube_001-mesh-vertices" offset="0"/>
          <input semantic="NORMAL" source="#Cube_001-mesh-normals" offset="1"/>
          <input semantic="TEXCOORD" source="#Cube_001-mesh-map-0" offset="2" set="0"/>
          <input semantic="TEXCOORD" source="#Cube_001-mesh-map-1" offset="2" set="1"/>
          <p>0 0 0 1 1 1 3 0 2 0 0 3 3 0 4 2 2 5 4 3 6 7 3 7 5 4 8 4 3 9 6 5 10 7 3 11 8 6 12 11 7 13 9 8 14 8 6 15 10 9 16 11 7 17 12 10 18 13 11 19 15 12 20 12 10 21 15 12 22 14 13 23 16 14 24 17 15 25 19 14 26 16 14 27 19 14 28 18 14 29 20 16 30 21 17 31 23 16 32 20 16 33 23 16 34 22 18 35 24 19 36 27 19 37 25 20 38 24 19 39 26 19 40 27 19 41 28 21 42 29 22 43 31 23 44 28 21 45 31 23 46 30 24 47 32 25 48 33 26 49 35 27 50 32 25 51 35 27 52 34 28 53 36 29 54 39 29 55 37 5 56 36 29 57 38 30 58 39 29 59 40 31 60 41 32 61 43 31 62 40 31 63 43 31 64 42 1 65 44 33 66 45 33 67 47 33 68 44 33 69 47 33 70 46 34 71 48 35 72 49 26 73 51 35 74 48 35 75 51 35 76 50 25 77 52 36 78 55 36 79 53 37 80 52 36 81 54 38 82 55 36 83 56 39 84 59 39 85 57 40 86 56 39 87 58 39 88 59 39 89 60 41 90 61 42 91 63 41 92 60 41 93 63 41 94 62 43 95 64 44 96 65 44 97 66 45 98 64 44 99 67 46 100 65 44 101 68 34 102 69 47 103 70 33 104 68 34 105 70 33 106 71 48 107 72 49 108 73 50 109 74 49 110 72 49 111 74 49 112 75 51 113 76 52 114 77 53 115 78 52 116 76 52 117 79 54 118 77 53 119 80 55 120 81 45 121 82 55 122 80 55 123 83 45 124 81 45 125 84 56 126 85 57 127 86 58 128 84 56 129 87 59 130 85 57 131 88 60 132 89 61 133 90 62 134 88 60 135 90 62 136 91 63 137 92 64 138 93 64 139 94 65 140 92 64 141 95 65 142 93 64 143 96 66 144 97 66 145 98 67 146 96 66 147 99 68 148 97 66 149 100 69 150 101 70 151 102 69 152 100 69 153 102 69 154 103 71 155 104 72 156 105 73 157 106 68 158 104 72 159 107 74 160 105 73 161 108 29 162 109 29 163 110 29 164 108 29 165 111 29 166 109 29 167 112 75 168 113 76 169 114 77 170 112 75 171 115 78 172 113 76 173 116 79 174 117 80 175 118 79 176 116 79 177 118 79 178 119 79 179 120 81 180 121 81 181 122 81 182 120 81 183 122 81 184 123 81 185 124 82 186 125 82 187 126 83 188 124 82 189 127 84 190 125 82 191 54 85 192 118 86 193 55 87 194 12 88 195 79 89 196 76 90 197 53 91 198 118 92 199 117 93 200 35 94 201 99 95 202 34 96 203 57 97 204 120 98 205 56 99 206 33 100 207 97 101 208 35 102 209 15 103 210 79 104 211 14 105 212 56 106 213 123 107 214 58 108 215 37 109 216 100 110 217 36 111 218 13 112 219 77 113 220 15 114 221 36 115 222 103 116 223 38 117 224 16 118 225 82 119 226 17 120 227 58 121 228 122 122 229 59 123 230 18 124 231 80 125 232 16 126 233 57 127 234 122 128 235 121 129 236 38 130 237 102 131 238 39 132 239 60 133 240 126 134 241 61 135 242 37 136 243 102 137 244 101 138 245 19 139 246 83 140 247 18 140 248 62 141 249 124 142 250 60 143 251 40 144 252 106 145 253 41 146 254 19 147 255 82 148 256 81 129 257 42 149 258 104 150 259 40 151 260 20 152 261 86 153 262 21 154 263 63 155 264 127 156 265 62 157 266 22 158 267 84 159 268 20 160 269 0 161 270 66 162 271 1 163 272 63 164 273 126 165 274 125 129 275 43 166 276 107 166 277 42 166 278 2 167 279 64 168 280 0 169 281 41 170 282 105 171 283 43 172 284 23 173 285 87 174 286 22 175 287 44 176 288 110 176 289 45 176 290 23 177 291 86 178 292 85 129 293 3 179 294 67 180 295 2 181 296 46 182 297 108 183 298 44 184 299 25 185 300 88 185 301 24 186 302 3 187 303 66 188 304 65 189 305 24 190 306 91 191 307 26 192 308 5 193 309 68 193 310 4 194 311 47 195 312 111 196 313 46 197 314 6 198 315 68 199 316 71 90 317 45 200 318 109 201 319 47 202 320 26 203 321 90 204 322 27 205 323 48 206 324 114 207 325 49 208 326 25 209 327 90 210 328 89 211 329 6 212 330 70 213 331 7 214 332 48 215 333 115 216 334 112 90 335 28 217 336 94 218 337 29 219 338 7 220 339 69 221 340 5 222 341 30 223 342 92 224 343 28 225 344 9 226 345 72 226 346 8 227 347 51 228 348 115 228 349 50 229 350 8 230 351 75 231 352 10 232 353 49 233 354 113 234 355 51 235 356 31 236 357 95 237 358 30 238 359 53 239 360 116 240 361 52 241 362 31 242 363 94 243 364 93 129 365 10 244 366 74 245 367 11 246 368 52 247 369 119 248 370 54 249 371 32 250 372 98 251 373 33 252 374 11 253 375 73 254 376 9 255 377 32 256 378 99 257 379 96 90 380 12 258 381 78 259 382 13 260 383 54 85 384 119 195 385 118 86 386 12 88 387 14 261 388 79 89 389 53 91 390 55 262 391 118 92 392 35 94 393 97 263 394 99 95 395 57 97 396 121 264 397 120 98 398 33 100 399 98 129 400 97 101 401 15 103 402 77 265 403 79 104 404 56 106 405 120 266 406 123 107 407 37 109 408 101 267 409 100 110 410 13 112 411 78 268 412 77 113 413 36 115 414 100 90 415 103 116 416 16 118 417 80 269 418 82 119 419 58 121 420 123 270 421 122 122 422 18 124 423 83 90 424 80 125 425 57 127 426 59 271 427 122 128 428 38 130 429 103 195 430 102 131 431 60 133 432 124 272 433 126 134 434 37 136 435 39 273 436 102 137 437 19 139 438 81 274 439 83 140 440 62 141 441 127 90 442 124 142 443 40 144 444 104 275 445 106 145 446 19 147 447 17 276 448 82 148 449 42 149 450 107 90 451 104 150 452 20 152 453 84 277 454 86 153 455 63 155 456 125 278 457 127 156 458 22 158 459 87 90 460 84 159 461 0 161 462 64 279 463 66 162 464 63 164 465 61 280 466 126 165 467 43 166 468 105 166 469 107 166 470 2 167 471 67 281 472 64 168 473 41 170 474 106 129 475 105 171 476 23 173 477 85 282 478 87 174 479 44 176 480 108 176 481 110 176 482 23 177 483 21 283 484 86 178 485 3 179 486 65 284 487 67 180 488 46 182 489 111 90 490 108 183 491 25 185 492 89 285 493 88 185 494 3 187 495 1 286 496 66 188 497 24 190 498 88 90 499 91 191 500 5 193 501 69 194 502 68 193 503 47 195 504 109 287 505 111 196 506 6 198 507 4 288 508 68 199 509 45 200 510 110 289 511 109 201 512 26 203 513 91 290 514 90 204 515 48 206 516 112 291 517 114 207 518 25 209 519 27 292 520 90 210 521 6 212 522 71 293 523 70 213 524 48 215 525 50 294 526 115 216 527 28 217 528 92 295 529 94 218 530 7 220 531 70 129 532 69 221 533 30 223 534 95 90 535 92 224 536 9 226 537 73 227 538 72 226 539 51 228 540 113 229 541 115 228 542 8 230 543 72 90 544 75 231 545 49 233 546 114 129 547 113 234 548 31 236 549 93 296 550 95 237 551 53 239 552 117 297 553 116 240 554 31 242 555 29 298 556 94 243 557 10 244 558 75 299 559 74 245 560 52 247 561 116 90 562 119 248 563 32 250 564 96 300 565 98 251 566 11 253 567 74 301 568 73 254 569 32 256 570 34 302 571 99 257 572 12 258 573 76 303 574 78 259 575</p>
        </triangles>
      </mesh>
    </geometry>
  </library_geometries>
  <library_visual_scenes>
    <visual_scene id="Scene" name="Scene">
      <node id="dock_f" name="dock_f" type="NODE">
        <matrix sid="transform">1 0 0 0 0 1 0 0 0 0 1 0 0 0 0 1</matrix>
        <instance_geometry url="#Cube_001-mesh" name="dock_f">
          <bind_material>
            <technique_common>
              <instance_material symbol="hierva_choza_gaetuli-material" target="#hierva_choza_gaetuli-material">
                <bind_vertex_input semantic="Cube_001-mesh-map-0" input_semantic="TEXCOORD" input_set="0"/>
                <bind_vertex_input semantic="Cube_001-mesh-map-1" input_semantic="TEXCOORD" input_set="1"/>
              </instance_material>
            </technique_common>
          </bind_material>
        </instance_geometry>
        <node id="prop_garrisoned" name="prop_garrisoned" type="NODE">
          <matrix sid="transform">-0.7829416 1.18221e-7 0 5.35037e-14 -1.18221e-7 -0.7829416 0 5.033843 0 0 0.7829416 9.013988 0 0 0 1</matrix>
        </node>
        <node id="prop_projectile" name="prop_projectile" type="NODE">
          <matrix sid="transform">-0.7829416 1.18221e-7 0 5.35037e-14 -1.18221e-7 -0.7829416 0 5.033842 0 0 0.7829416 9.013988 0 0 0 1</matrix>
        </node>
      </node>
    </visual_scene>
  </library_visual_scenes>
  <scene>
    <instance_visual_scene url="#Scene"/>
  </scene>
</COLLADA>