<?xml version="1.0" encoding="utf-8"?>
<COLLADA xmlns="http://www.collada.org/2005/11/COLLADASchema" version="1.4.1" xmlns:xsi="http://www.w3.org/2001/XMLSchema-instance">
  <asset>
    <contributor>
      <author>Blender User</author>
      <authoring_tool>Blender 4.3.1 commit date:2024-12-10, commit time:07:46, hash:33d812126174</authoring_tool>
    </contributor>
    <created>2026-08-22T19:16:25</created>
    <modified>2026-08-22T19:16:25</modified>
    <unit name="meter" meter="1"/>
    <up_axis>Z_UP</up_axis>
  </asset>
  <library_effects>
    <effect id="hierva_choza_gaetuli-effect">
      <profile_COMMON>
        <technique sid="common">
          <lambert>
            <emission>
              <color sid="emission">0 0 0 1</color>
            </emission>
            <diffuse>
              <color sid="diffuse">0.8 0.8 0.8 1</color>
            </diffuse>
            <index_of_refraction>
              <float sid="ior">1.45</float>
            </index_of_refraction>
          </lambert>
        </technique>
      </profile_COMMON>
    </effect>
  </library_effects>
  <library_images/>
  <library_materials>
    <material id="hierva_choza_gaetuli-material" name="hierva choza gaetuli">
      <instance_effect url="#hierva_choza_gaetuli-effect"/>
    </material>
  </library_materials>
  <library_geometries>
    <geometry id="Cube_016-mesh" name="Cube.016">
      <mesh>
        <source id="Cube_016-mesh-positions">
          <float_array id="Cube_016-mesh-positions-array" count="144">2.949034 -4.266951 3.902888 2.949034 -4.266951 0.4004871 -0.916811 -6.716651 3.902888 -0.916811 -6.716651 0.4004871 -0.7772197 -4.067146 3.902889 -0.7772197 -4.067146 0.4004871 2.644166 -6.90592 3.902889 2.644166 -6.90592 0.4004871 -6.276093 5.661664 3.902888 -6.276093 5.661664 0.4004871 -3.518577 2.009008 3.902888 -3.518577 2.009008 0.4004871 -6.170626 1.931548 3.902888 -6.170626 1.931548 0.4004871 -3.621034 5.57354 3.902888 -3.621034 5.57354 0.4004871 6.257847 -2.376395 3.902888 6.257847 -2.376395 0.4004871 3.550972 1.313946 3.902888 3.550972 1.313946 0.4004871 6.203838 1.35482 3.902888 6.203838 1.35482 0.4004871 3.604257 -2.25166 3.902888 3.604257 -2.25166 0.4004871 2.965627 -4.293136 3.902888 -0.900218 -6.742836 0.4004871 2.965627 -4.293136 0.4004871 -0.900218 -6.742836 3.902888 -0.7970144 -4.091003 3.902889 -0.7970144 -4.091003 0.4004871 2.624372 -6.929778 0.4004871 2.624372 -6.929778 3.902889 -6.300835 5.642986 3.902888 -6.300835 5.642986 0.4004871 -3.543319 1.99033 0.4004871 -3.543319 1.99033 3.902888 -6.145231 1.91377 3.902888 -6.145231 1.91377 0.4004871 -3.595639 5.555762 0.4004871 -3.595639 5.555762 3.902888 6.232851 -2.39473 3.902888 3.525976 1.295611 0.4004871 6.232851 -2.39473 0.4004871 3.525976 1.295611 3.902888 6.17869 1.372947 3.902888 6.17869 1.372947 0.4004871 3.579109 -2.233533 0.4004871 3.579109 -2.233533 3.902888</float_array>
          <technique_common>
            <accessor source="#Cube_016-mesh-positions-array" count="48" stride="3">
              <param name="X" type="float"/>
              <param name="Y" type="float"/>
              <param name="Z" type="float"/>
            </accessor>
          </technique_common>
        </source>
        <source id="Cube_016-mesh-normals">
          <float_array id="Cube_016-mesh-normals-array" count="351">-0.5352597 0.8446877 0 -0.5352597 0.8446876 0 0.6385395 0.7695892 0 0.6385394 0.7695893 0 0.6385394 0.7695891 0 0.7981057 0.6025175 0 0.7981058 0.6025174 0 0.7981057 0.6025176 0 -0.819211 0.5734923 0 0.80634 0.5914525 0 0.8063399 0.5914524 0 0.8063399 0.5914525 0 0.8063399 0.5914525 0 0.8112233 -0.5847365 0 0.8112233 -0.5847365 0 0.5352597 -0.8446877 0 0.5352598 -0.8446877 0 0.5352597 -0.8446876 0 -0.6385396 -0.7695891 0 -0.6385395 -0.7695891 0 -0.6385395 -0.7695892 0 -0.7981057 -0.6025175 0 -0.7981057 -0.6025174 0 -0.7981057 -0.6025175 0 -0.7981057 -0.6025176 0 0.8192111 -0.5734922 0 0.819211 -0.5734923 0 0.8192111 -0.5734922 0 0.8192112 -0.5734921 0 -0.80634 -0.5914525 0 -0.8063399 -0.5914525 0 -0.8063399 -0.5914524 0 -0.8063399 -0.5914525 0 -0.8112233 0.5847365 0 -0.8112233 0.5847365 0 -0.5734955 -0.8192088 0 -0.5734792 -0.8192202 0 -0.5734791 -0.8192203 0 0.7696118 -0.638512 0 -0.5914543 0.8063386 0 -0.5914626 0.8063326 0 -0.5914626 0.8063325 0 0 0 1 5.43816e-6 0 1 5.46171e-6 0 1 -1.37591e-5 0 1 4.24438e-6 0 1 4.325e-6 0 1 0 0 -1 5.5167e-7 0 -1 5.5413e-7 0 -1 0 0 -1 1.37259e-7 0 -1 1.37853e-7 0 -1 -0.6025003 0.7981187 0 -0.6025169 0.7981061 0 -0.602517 0.7981061 0 0.5847254 0.8112313 0 0.5847584 0.8112076 0 0.5847585 0.8112075 0 -0.8446851 -0.5352635 0 -0.8446871 -0.5352605 0 -0.8446872 -0.5352605 0 0.5735012 0.8192047 0 0.5734932 0.8192104 0 0.5734931 0.8192104 0 0 0 1 -5.22871e-7 0 1 -5.25132e-7 0 1 0 0 1 2.04519e-6 0 1 2.05431e-6 0 1 0 0 -1 -1.83015e-7 0 -1 0 0 -1 -1.71349e-6 0 -1 1.98369e-6 0 -1 2.00025e-6 0 -1 -0.7695864 0.6385428 0 -0.7695885 0.6385402 0 0.5914518 -0.8063404 0 0.5914683 -0.8063282 0 0.5914685 -0.8063282 0 0.6025036 -0.7981162 0 0.6025037 -0.7981162 0 -0.5847418 -0.8112195 0 -0.5847336 -0.8112255 0 -0.5847334 -0.8112255 0 -1.37988e-5 0 1 -4.58244e-6 0 1 -1.38401e-5 0 1 0 0 1 6.17012e-6 0 1 0 0 1 0 0 -1 1.30717e-7 0 -1 1.31283e-7 0 -1 0 0 -1 0 0 -1 0.8446871 0.5352605 0 0.8446872 0.5352605 0 0.8446872 0.5352604 0 -0.5734956 -0.8192087 0 -0.5914542 0.8063386 0 -1.38397e-5 0 1 -0.6025002 0.7981188 0 0.5847252 0.8112315 0 -0.8446851 -0.5352635 0 0.5735013 0.8192047 0 -1.83807e-7 0 -1 -1.73003e-6 0 -1 -0.7695863 0.6385428 0 0.5914517 -0.8063405 0 -0.5847418 -0.8112195 0 -4.54116e-6 0 1 6.19681e-6 0 1 0 0 -1</float_array>
          <technique_common>
            <accessor source="#Cube_016-mesh-normals-array" count="117" stride="3">
              <param name="X" type="float"/>
              <param name="Y" type="float"/>
              <param name="Z" type="float"/>
            </accessor>
          </technique_common>
        </source>
        <source id="Cube_016-mesh-map-0">
          <float_array id="Cube_016-mesh-map-0-array" count="432">0.9984335 0.6838312 1.000765 0.001214206 0.001161634 6.92369e-4 0.9984335 0.6838312 0.001161634 6.92369e-4 5.39125e-4 0.6833093 0.9984335 0.6838312 0.001161634 6.92369e-4 1.000765 0.001214206 0.9984335 0.6838312 5.39125e-4 0.6833093 0.001161634 6.92369e-4 0.9984335 0.6838312 0.001161634 6.92369e-4 1.000765 0.001214206 0.9984335 0.6838312 5.39125e-4 0.6833093 0.001161634 6.92369e-4 0.9984335 0.6838312 0.001161634 6.92369e-4 1.000765 0.001214206 0.9984335 0.6838312 5.39125e-4 0.6833093 0.001161634 6.92369e-4 0.9984335 0.6838312 1.000765 0.001214206 0.001161634 6.92369e-4 0.9984335 0.6838312 0.001161634 6.92369e-4 5.39125e-4 0.6833093 0.9984335 0.6838312 0.001161634 6.92369e-4 1.000765 0.001214206 0.9984335 0.6838312 5.39125e-4 0.6833093 0.001161634 6.92369e-4 0.9984335 0.6838312 0.001161634 6.92369e-4 1.000765 0.001214206 0.9984335 0.6838312 5.39125e-4 0.6833093 0.001161634 6.92369e-4 0.9984335 0.6838312 1.000765 0.001214206 0.001161634 6.92369e-4 0.9984335 0.6838312 0.001161634 6.92369e-4 5.39125e-4 0.6833093 0.9984335 0.6838312 1.000765 0.001214206 0.001161634 6.92369e-4 0.9984335 0.6838312 0.001161634 6.92369e-4 5.39125e-4 0.6833093 0.9984335 0.6838312 1.000765 0.001214206 0.001161634 6.92369e-4 0.9984335 0.6838312 0.001161634 6.92369e-4 5.39125e-4 0.6833093 0.9984335 0.6838312 0.001161634 6.92369e-4 1.000765 0.001214206 0.9984335 0.6838312 5.39125e-4 0.6833093 0.001161634 6.92369e-4 0.9984335 0.6838312 1.000765 0.001214206 0.001161634 6.92369e-4 0.9984335 0.6838312 0.001161634 6.92369e-4 5.39125e-4 0.6833093 1.000765 0.001214206 0.9984335 0.6838312 0.9984335 0.6838312 5.39125e-4 0.6833093 0.001161634 6.92369e-4 0.001161634 6.92369e-4 0.001161634 6.92369e-4 5.39125e-4 0.6833093 5.39125e-4 0.6833093 5.39125e-4 0.6833093 0.9984335 0.6838312 0.9984335 0.6838312 0.9984335 0.6838312 5.39125e-4 0.6833093 5.39125e-4 0.6833093 0.001161634 6.92369e-4 1.000765 0.001214206 1.000765 0.001214206 1.000765 0.001214206 0.001161634 6.92369e-4 0.001161634 6.92369e-4 1.000765 0.001214206 0.9984335 0.6838312 0.9984335 0.6838312 1.000765 0.001214206 0.9984335 0.6838312 0.9984335 0.6838312 0.001161634 6.92369e-4 5.39125e-4 0.6833093 5.39125e-4 0.6833093 5.39125e-4 0.6833093 0.001161634 6.92369e-4 0.001161634 6.92369e-4 0.9984335 0.6838312 5.39125e-4 0.6833093 5.39125e-4 0.6833093 0.9984335 0.6838312 5.39125e-4 0.6833093 5.39125e-4 0.6833093 0.001161634 6.92369e-4 1.000765 0.001214206 0.001161634 6.92369e-4 0.001161634 6.92369e-4 1.000765 0.001214206 1.000765 0.001214206 1.000765 0.001214206 0.9984335 0.6838312 0.9984335 0.6838312 0.9984335 0.6838312 1.000765 0.001214206 1.000765 0.001214206 5.39125e-4 0.6833093 0.001161634 6.92369e-4 0.001161634 6.92369e-4 5.39125e-4 0.6833093 0.001161634 6.92369e-4 0.001161634 6.92369e-4 5.39125e-4 0.6833093 0.9984335 0.6838312 5.39125e-4 0.6833093 0.9984335 0.6838312 5.39125e-4 0.6833093 0.9984335 0.6838312 0.001161634 6.92369e-4 1.000765 0.001214206 1.000765 0.001214206 1.000765 0.001214206 0.001161634 6.92369e-4 1.000765 0.001214206 0.9984335 0.6838312 1.000765 0.001214206 1.000765 0.001214206 1.000765 0.001214206 1.000765 0.001214206 0.9984335 0.6838312 5.39125e-4 0.6833093 5.39125e-4 0.6833093 0.001161634 6.92369e-4 0.001161634 6.92369e-4 0.001161634 6.92369e-4 5.39125e-4 0.6833093 5.39125e-4 0.6833093 5.39125e-4 0.6833093 0.9984335 0.6838312 0.9984335 0.6838312 0.9984335 0.6838312 5.39125e-4 0.6833093 0.001161634 6.92369e-4 0.001161634 6.92369e-4 1.000765 0.001214206 1.000765 0.001214206 1.000765 0.001214206 0.001161634 6.92369e-4 1.000765 0.001214206 1.000765 0.001214206 0.9984335 0.6838312 1.000765 0.001214206 1.000765 0.001214206 0.9984335 0.6838312 0.001161634 6.92369e-4 0.001161634 6.92369e-4 5.39125e-4 0.6833093 5.39125e-4 0.6833093 5.39125e-4 0.6833093 0.001161634 6.92369e-4 0.9984335 0.6838312 0.9984335 0.6838312 5.39125e-4 0.6833093 0.9984335 0.6838312 0.9984335 0.6838312 5.39125e-4 0.6833093 0.001161634 6.92369e-4 1.000765 0.001214206 1.000765 0.001214206 0.001161634 6.92369e-4 0.001161634 6.92369e-4 1.000765 0.001214206 1.000765 0.001214206 1.000765 0.001214206 0.9984335 0.6838312 0.9984335 0.6838312 0.9984335 0.6838312 1.000765 0.001214206 5.39125e-4 0.6833093 5.39125e-4 0.6833093 0.001161634 6.92369e-4 5.39125e-4 0.6833093 5.39125e-4 0.6833093 0.001161634 6.92369e-4 5.39125e-4 0.6833093 0.9984335 0.6838312 0.9984335 0.6838312 0.9984335 0.6838312 5.39125e-4 0.6833093 5.39125e-4 0.6833093 0.001161634 6.92369e-4 0.001161634 6.92369e-4 1.000765 0.001214206 1.000765 0.001214206 0.001161634 6.92369e-4 0.001161634 6.92369e-4 0.9984335 0.6838312 0.9984335 0.6838312 1.000765 0.001214206</float_array>
          <technique_common>
            <accessor source="#Cube_016-mesh-map-0-array" count="216" stride="2">
              <param name="S" type="float"/>
              <param name="T" type="float"/>
            </accessor>
          </technique_common>
        </source>
        <source id="Cube_016-mesh-map-1">
          <float_array id="Cube_016-mesh-map-1-array" count="432">0.4002543 0 0.5997458 0 0.5997458 0.3276054 0.4002543 0 0.5997458 0.3276054 0.4002543 0.3276053 0 0.9885742 0.1994915 0.6652727 0.1994914 0.9885743 0 0.9885742 0 0.6652727 0.1994915 0.6652727 0 0.3321232 0.1994914 0 0.1994914 0.3321232 0 0.3321232 0 0 0.1994914 0 0.8005086 0.961418 1 0.6420299 1 0.961418 0.8005086 0.961418 0.8005086 0.6420299 1 0.6420299 0 0.3329396 0.1994914 0.3329396 0.1994914 0.6644564 0 0.3329396 0.1994914 0.6644564 0 0.6644564 0.6003815 0.3201988 0.7998729 0 0.7998728 0.3201988 0.6003815 0.3201988 0.6003815 0 0.7998729 0 0.4002543 0.6560264 0.5997458 0.3284217 0.5997457 0.6560264 0.4002543 0.6560264 0.4002543 0.3284216 0.5997458 0.3284217 0.4002544 0.6568428 0.5997458 0.6568428 0.5997458 0.9801444 0.4002544 0.6568428 0.5997458 0.9801444 0.4002543 0.9801444 0.2001271 0 0.3996186 0 0.3996185 0.3321232 0.2001271 0 0.3996185 0.3321232 0.2001271 0.3321231 0.8005086 0 1 0 1 0.3193886 0.8005086 0 1 0.3193886 0.8005086 0.3193886 0.2001271 0.6644563 0.3996185 0.3329396 0.3996185 0.6644563 0.2001271 0.6644563 0.2001271 0.3329396 0.3996185 0.3329396 0.6003815 0.3210151 0.7998729 0.3210151 0.7998729 0.6412135 0.6003815 0.3210151 0.7998729 0.6412135 0.6003815 0.6412135 0.3517253 0.921431 0.3499909 0.6652726 0.3517253 0.6652726 0.3666544 0.6652726 0.3684101 0.9214311 0.3666544 0.9214311 0.3612433 0.9214311 0.3594945 0.6652727 0.3612433 0.6652727 0.39305 0.6652727 0.3948156 1 0.39305 1 0.3738386 0.6652727 0.3756042 0.9904243 0.3738386 0.9904243 0.3786414 0.6652728 0.3804071 0.9904244 0.3786414 0.9904244 0.3882472 0.6652726 0.3900129 0.9999998 0.3882472 0.9999998 0.3660187 0.9214311 0.3642667 0.6652727 0.3660187 0.6652727 0.3540998 0.921431 0.352361 0.6652726 0.3540998 0.6652726 0.3446213 0.921431 0.3428932 0.6652726 0.3446213 0.6652726 0.3476208 0.6652726 0.3493552 0.921431 0.3476208 0.921431 0.3996186 1 0.3978528 0.6652727 0.3996186 0.6652727 0.38521 0.9904243 0.3834443 0.6652727 0.3852101 0.6652727 0.3924142 0.6652727 0.3906485 1 0.3906484 0.6652727 0.3732028 0.9904243 0.3714371 0.6652727 0.3732028 0.6652727 0.3708015 0.9214312 0.3690457 0.6652727 0.3708015 0.6652727 0.3571101 0.6652726 0.3588588 0.921431 0.3571101 0.921431 0.361879 0.6652726 0.363631 0.921431 0.361879 0.921431 0.3547355 0.6652726 0.3564743 0.921431 0.3547355 0.921431 0.3780056 0.6652727 0.3762399 0.9904243 0.3762399 0.6652727 0.3876114 0.6652727 0.3858457 1 0.3858457 0.6652727 0.3954514 0.6652727 0.3972172 1 0.3954514 1 0.3810428 0.9904243 0.3828085 0.6652727 0.3828085 0.9904243 0.3452569 0.6652726 0.3469851 0.921431 0.3452569 0.921431 0.3517253 0.921431 0.3499909 0.921431 0.3499909 0.6652726 0.3666544 0.6652726 0.3684101 0.6652726 0.3684101 0.9214311 0.3612433 0.9214311 0.3594945 0.9214311 0.3594945 0.6652727 0.39305 0.6652727 0.3948157 0.6652727 0.3948156 1 0.3738386 0.6652727 0.3756042 0.6652727 0.3756042 0.9904243 0.3786414 0.6652728 0.3804071 0.6652727 0.3804071 0.9904244 0.3882472 0.6652726 0.3900128 0.6652726 0.3900129 0.9999998 0.3660187 0.9214311 0.3642667 0.9214311 0.3642667 0.6652727 0.3540998 0.921431 0.352361 0.921431 0.352361 0.6652726 0.3446213 0.921431 0.3428932 0.921431 0.3428932 0.6652726 0.3476208 0.6652726 0.3493552 0.6652726 0.3493552 0.921431 0.3996186 1 0.3978528 1 0.3978528 0.6652727 0.38521 0.9904243 0.3834443 0.9904243 0.3834443 0.6652727 0.3924142 0.6652727 0.3924142 1 0.3906485 1 0.3732028 0.9904243 0.3714371 0.9904243 0.3714371 0.6652727 0.3708015 0.9214312 0.3690457 0.9214312 0.3690457 0.6652727 0.3571101 0.6652726 0.3588588 0.6652726 0.3588588 0.921431 0.361879 0.6652726 0.363631 0.6652726 0.363631 0.921431 0.3547355 0.6652726 0.3564743 0.6652726 0.3564743 0.921431 0.3780056 0.6652727 0.3780056 0.9904243 0.3762399 0.9904243 0.3876114 0.6652727 0.3876114 1 0.3858457 1 0.3954514 0.6652727 0.3972172 0.6652727 0.3972172 1 0.3810428 0.9904243 0.3810428 0.6652727 0.3828085 0.6652727 0.3452569 0.6652726 0.3469851 0.6652726 0.3469851 0.921431</float_array>
          <technique_common>
            <accessor source="#Cube_016-mesh-map-1-array" count="216" stride="2">
              <param name="S" type="float"/>
              <param name="T" type="float"/>
            </accessor>
          </technique_common>
        </source>
        <vertices id="Cube_016-mesh-vertices">
          <input semantic="POSITION" source="#Cube_016-mesh-positions"/>
        </vertices>
        <triangles material="hierva_choza_gaetuli-material" count="72">
          <input semantic="VERTEX" source="#Cube_016-mesh-vertices" offset="0"/>
          <input semantic="NORMAL" source="#Cube_016-mesh-normals" offset="1"/>
          <input semantic="TEXCOORD" source="#Cube_016-mesh-map-0" offset="2" set="0"/>
          <input semantic="TEXCOORD" source="#Cube_016-mesh-map-1" offset="2" set="1"/>
          <p>0 0 0 1 1 1 3 0 2 0 0 3 3 0 4 2 1 5 4 2 6 7 3 7 5 2 8 4 2 9 6 4 10 7 3 11 8 5 12 11 5 13 9 6 14 8 5 15 10 7 16 11 5 17 12 8 18 15 8 19 13 8 20 12 8 21 14 8 22 15 8 23 16 9 24 17 10 25 19 11 26 16 9 27 19 11 28 18 12 29 20 13 30 23 14 31 21 13 32 20 13 33 22 14 34 23 14 35 24 15 36 25 15 37 26 16 38 24 15 39 27 17 40 25 15 41 28 18 42 29 19 43 30 18 44 28 18 45 30 18 46 31 20 47 32 21 48 33 22 49 34 23 50 32 21 51 34 23 52 35 24 53 36 25 54 37 26 55 38 27 56 36 25 57 38 27 58 39 28 59 40 29 60 41 30 61 42 31 62 40 29 63 43 32 64 41 30 65 44 33 66 45 34 67 46 33 68 44 33 69 46 33 70 47 33 71 13 35 72 36 36 73 12 37 74 6 38 75 30 38 76 7 38 77 19 39 78 43 40 79 18 41 80 2 42 81 24 43 82 0 44 83 12 45 84 39 46 85 14 47 86 7 48 87 29 49 88 5 50 89 17 51 90 41 52 91 19 53 92 9 54 93 32 55 94 8 56 95 21 57 96 44 58 97 20 59 98 3 60 99 27 61 100 2 62 101 14 63 102 38 64 103 15 65 104 8 66 105 35 67 106 10 68 107 20 69 108 47 70 109 22 71 110 3 72 111 26 73 112 25 74 113 15 75 114 37 76 115 13 77 116 5 78 117 28 79 118 4 79 119 16 80 120 42 81 121 17 82 122 10 83 123 34 83 124 11 84 125 22 85 126 46 86 127 23 87 128 6 88 129 28 89 130 31 90 131 16 91 132 43 92 133 40 93 134 11 94 135 33 95 136 9 96 137 21 97 138 46 98 139 45 74 140 0 99 141 26 100 142 1 101 143 13 35 144 37 102 145 36 36 146 6 38 147 31 38 148 30 38 149 19 39 150 41 103 151 43 40 152 2 42 153 27 93 154 24 43 155 12 45 156 36 104 157 39 46 158 7 48 159 30 74 160 29 49 161 17 51 162 42 74 163 41 52 164 9 54 165 33 105 166 32 55 167 21 57 168 45 106 169 44 58 170 3 60 171 25 107 172 27 61 173 14 63 174 39 108 175 38 64 176 8 66 177 32 93 178 35 67 179 20 69 180 44 93 181 47 70 182 3 72 183 1 109 184 26 73 185 15 75 186 38 110 187 37 76 188 5 78 189 29 111 190 28 79 191 16 80 192 40 112 193 42 81 194 10 83 195 35 84 196 34 83 197 22 85 198 47 113 199 46 86 200 6 88 201 4 114 202 28 89 203 16 91 204 18 115 205 43 92 206 11 94 207 34 74 208 33 95 209 21 97 210 23 116 211 46 98 212 0 99 213 24 100 214 26 100 215</p>
        </triangles>
      </mesh>
    </geometry>
  </library_geometries>
  <library_visual_scenes>
    <visual_scene id="Scene" name="Scene">
      <node id="farmstead_f" name="farmstead_f" type="NODE">
        <matrix sid="transform">1 0 0 0 0 1 0 0 0 0 1 0 0 0 0 1</matrix>
        <instance_geometry url="#Cube_016-mesh" name="farmstead_f">
          <bind_material>
            <technique_common>
              <instance_material symbol="hierva_choza_gaetuli-material" target="#hierva_choza_gaetuli-material">
                <bind_vertex_input semantic="Cube_016-mesh-map-0" input_semantic="TEXCOORD" input_set="0"/>
                <bind_vertex_input semantic="Cube_016-mesh-map-1" input_semantic="TEXCOORD" input_set="1"/>
              </instance_material>
            </technique_common>
          </bind_material>
        </instance_geometry>
        <node id="prop_garrisoned" name="prop_garrisoned" type="NODE">
          <matrix sid="transform">-0.7829416 1.18221e-7 0 5.35037e-14 -1.18221e-7 -0.7829416 0 5.033843 0 0 0.7829416 9.013988 0 0 0 1</matrix>
        </node>
        <node id="prop_projectile" name="prop_projectile" type="NODE">
          <matrix sid="transform">-0.7829416 1.18221e-7 0 5.35037e-14 -1.18221e-7 -0.7829416 0 5.033842 0 0 0.7829416 9.013988 0 0 0 1</matrix>
        </node>
      </node>
    </visual_scene>
  </library_visual_scenes>
  <scene>
    <instance_visual_scene url="#Scene"/>
  </scene>
</COLLADA>