<?xml version="1.0" encoding="utf-8"?>
<COLLADA xmlns="http://www.collada.org/2005/11/COLLADASchema" version="1.4.1" xmlns:xsi="http://www.w3.org/2001/XMLSchema-instance">
  <asset>
    <contributor>
      <author>Blender User</author>
      <authoring_tool>Blender 4.3.1 commit date:2024-12-10, commit time:07:46, hash:33d812126174</authoring_tool>
    </contributor>
    <created>2026-08-22T19:19:51</created>
    <modified>2026-08-22T19:19:51</modified>
    <unit name="meter" meter="1"/>
    <up_axis>Z_UP</up_axis>
  </asset>
  <library_effects>
    <effect id="hierva_choza_gaetuli-effect">
      <profile_COMMON>
        <technique sid="common">
          <lambert>
            <emission>
              <color sid="emission">0 0 0 1</color>
            </emission>
            <diffuse>
              <color sid="diffuse">0.8 0.8 0.8 1</color>
            </diffuse>
            <index_of_refraction>
              <float sid="ior">1.45</float>
            </index_of_refraction>
          </lambert>
        </technique>
      </profile_COMMON>
    </effect>
  </library_effects>
  <library_images/>
  <library_materials>
    <material id="hierva_choza_gaetuli-material" name="hierva choza gaetuli">
      <instance_effect url="#hierva_choza_gaetuli-effect"/>
    </material>
  </library_materials>
  <library_geometries>
    <geometry id="Cube_017-mesh" name="Cube.017">
      <mesh>
        <source id="Cube_017-mesh-positions">
          <float_array id="Cube_017-mesh-positions-array" count="240">-4.272765 -7.267133 3.532159 -4.272765 -7.267133 0.02975809 -8.828104 -6.825903 3.532159 -8.828104 -6.825903 0.02975809 -7.090614 -4.820786 3.532159 -7.090614 -4.820786 0.02975809 -6.13421 -9.162425 3.532159 -6.13421 -9.162425 0.02975809 12.33279 7.668475 3.532159 12.33279 7.668475 0.02975845 8.294308 9.821715 3.532159 8.294308 9.821715 0.02975845 10.66755 11.00791 3.532159 10.66755 11.00791 0.02975845 9.887143 6.631218 3.532159 9.887143 6.631218 0.02975845 -5.162762 10.99066 3.532159 -5.162762 10.99066 0.02975809 -8.784302 8.192399 3.532159 -8.784302 8.192399 0.02975809 -8.891463 10.84342 3.532159 -8.891463 10.84342 0.02975809 -5.221141 8.334776 3.532159 -5.221141 8.334776 0.02975809 3.010548 -7.67373 3.532159 3.010548 -7.67373 0.02975809 -0.6109917 -10.47199 3.532159 -0.6109917 -10.47199 0.02975809 -0.7181527 -7.820971 3.532159 -0.7181527 -7.820971 0.02975809 2.952168 -10.32961 3.532159 2.952168 -10.32961 0.02975809 3.626166 -1.112676 3.532159 3.626166 -1.112676 0.02975809 -0.9291721 -0.6714466 3.532159 -0.9291721 -0.6714466 0.02975809 0.8083171 1.333671 3.532159 0.8083171 1.333671 0.02975809 1.76472 -3.007966 3.532159 1.76472 -3.007966 0.02975809 -4.275753 -7.297989 3.532159 -8.831092 -6.85676 0.02975809 -4.275753 -7.297989 0.02975809 -8.831092 -6.85676 3.532159 -7.120888 -4.827455 3.532159 -7.120888 -4.827455 0.02975809 -6.164484 -9.169094 0.02975809 -6.164484 -9.169094 3.532159 12.31821 7.64112 3.532159 8.279725 9.79436 0.02975845 12.31821 7.64112 0.02975845 8.279725 9.79436 3.532159 10.63703 11.01336 3.532159 10.63703 11.01336 0.02975845 9.856623 6.63666 0.02975845 9.856623 6.63666 3.532159 -5.143807 10.96613 3.532159 -8.765349 8.167869 0.02975809 -5.143807 10.96613 0.02975809 -8.765349 8.167869 3.532159 -8.908955 10.81782 3.532159 -8.908955 10.81782 0.02975809 -5.238634 8.309185 0.02975809 -5.238634 8.309185 3.532159 2.991594 -7.649199 3.532159 2.991594 -7.649199 0.02975809 -0.6299456 -10.44746 0.02975809 -0.6299456 -10.44746 3.532159 -0.7356454 -7.846564 3.532159 -0.7356454 -7.846564 0.02975809 2.934675 -10.3552 0.02975809 2.934675 -10.3552 3.532159 3.623178 -1.143532 3.532159 -0.9321607 -0.7023022 0.02975809 3.623178 -1.143532 0.02975809 -0.9321607 -0.7023022 3.532159 0.7780429 1.327002 3.532159 0.7780429 1.327002 0.02975809 1.734446 -3.014635 0.02975809 1.734446 -3.014635 3.532159</float_array>
          <technique_common>
            <accessor source="#Cube_017-mesh-positions-array" count="80" stride="3">
              <param name="X" type="float"/>
              <param name="Y" type="float"/>
              <param name="Z" type="float"/>
            </accessor>
          </technique_common>
        </source>
        <source id="Cube_017-mesh-normals">
          <float_array id="Cube_017-mesh-normals-array" count="615">0.09640872 0.9953419 0 0.09640872 0.9953418 0 0.09640872 0.9953418 0 0.9765858 0.2151286 0 0.9765858 0.2151286 0 0.9765857 0.2151287 0 0.9765858 0.2151284 0 0.4704831 0.882409 0 0.4704832 0.882409 0 0.4704831 0.882409 0 0.470483 0.882409 0 0.9844721 -0.1755411 0 0.9844722 -0.175541 0 0.984472 -0.1755415 0 0.9844722 -0.1755406 0 -0.6114199 0.7913064 0 -0.6114199 0.7913063 0 -0.6114199 0.7913064 0 -0.6114199 0.7913064 0 0.5642812 0.8255828 0 0.5642811 0.8255828 0 0.5642812 0.8255827 0 0.6114197 -0.7913064 0 0.6114197 -0.7913065 0 0.6114198 -0.7913064 0 0.5642804 0.8255832 0 0.5642805 0.8255832 0 0.5642803 0.8255833 0 0.09640866 0.9953419 0 0.09640866 0.9953418 0 0.9765859 0.2151284 0 0.9765859 0.2151284 0 0.9765858 0.2151284 0 0.9765859 0.2151284 0 -0.09640848 -0.9953418 0 -0.09640854 -0.9953418 0 -0.09640848 -0.9953418 0 -0.09640854 -0.9953418 0 -0.9765858 -0.2151285 0 -0.9765858 -0.2151285 0 -0.9765858 -0.2151284 0 -0.4704828 -0.8824092 0 -0.4704828 -0.8824092 0 -0.4704828 -0.8824092 0 -0.4704827 -0.8824092 0 -0.9844723 0.1755406 0 -0.9844722 0.1755408 0 -0.9844723 0.1755405 0 -0.9844723 0.1755403 0 0.6114197 -0.7913066 0 0.6114197 -0.7913065 0 0.6114196 -0.7913067 0 -0.5642799 -0.8255836 0 -0.5642799 -0.8255836 0 -0.5642799 -0.8255835 0 -0.61142 0.7913063 0 -0.61142 0.7913063 0 -0.61142 0.7913064 0 -0.56428 -0.8255836 0 -0.56428 -0.8255835 0 -0.09640872 -0.9953419 0 -0.09640872 -0.9953419 0 -0.09640872 -0.9953418 0 -0.9765858 -0.2151284 0 -0.9765858 -0.2151284 0 -0.9953423 0.09640377 0 -0.995349 0.09633493 0 -0.9953491 0.09633457 0 0.7913164 0.6114069 0 0.791308 0.6114178 0 0.791308 0.6114179 0 0 0 -1 0 0 -1 0 0 -1 0 0 -1 0 0 -1 0 0 -1 0 0 1 -4.49687e-6 0 1 -4.51631e-6 0 1 -0.1755387 -0.9844725 0 -0.1755267 -0.9844747 0 -0.1755266 -0.9844748 0 -0.2151264 0.9765862 0 -0.2151255 0.9765864 0 -0.2151255 0.9765864 0 -0.2151356 0.9765843 0 -0.2151283 0.9765859 0 -0.2151283 0.9765859 0 -2.14599e-7 0 -1 1.47675e-7 0 -1 -2.16221e-7 0 -1 -1.37405e-5 0 1 8.36153e-6 0 1 8.46063e-6 0 1 0 0 1 -5.3552e-6 0 1 -5.37902e-6 0 1 -0.7912971 -0.611432 0 -0.7912949 -0.6114346 0 -0.791295 -0.6114347 0 0.7912768 0.6114582 0 0.7912936 0.6114365 0 0.7912937 0.6114363 0 0 0 -1 0 0 -1 0 0 -1 1.3339e-5 0 1 -1.07127e-5 0 1 1.34438e-5 0 1 0.2151319 -0.976585 0 0.2151319 -0.976585 0 0.2151319 -0.9765851 0 0.2151283 -0.9765859 0 0.2151283 -0.9765859 0 -0.8255804 0.5642846 0 -0.8255804 0.5642846 0 -0.8255805 0.5642846 0 0 0 -1 0 0 -1 -2.14609e-7 0 -1 1.51256e-7 0 -1 1.52893e-7 0 -1 0 0 1 7.96642e-6 0 1 8.00193e-6 0 1 -0.7913108 -0.6114141 0 -0.7913275 -0.6113924 0 -0.7913277 -0.6113923 0 0.882485 -0.4703407 0 0.8824849 -0.4703407 0 0.8824849 -0.4703407 0 0 0 -1 0 0 -1 0 0 -1 0 0 1 -6.27488e-7 0 1 0 0 1 0.8255529 -0.5643247 0 0.8255368 -0.5643483 0 0.8255367 -0.5643485 0 -0.8256689 0.5641549 0 -0.825669 0.5641549 0 0 0 -1 0 0 -1 0 0 1 -6.7813e-6 0 1 -6.81154e-6 0 1 -0.8824267 0.4704501 0 -0.8824411 0.4704229 0 -0.8824413 0.4704228 0 0.9953454 -0.09637278 0 0.9953436 -0.09639 0 0.9953436 -0.09639006 0 0.9953454 -0.09637242 0 0.9953438 -0.09638965 0 0.9953438 -0.09638971 0 0 0 -1 0 0 -1 0 0 -1 0 0 1 8.3661e-7 0 1 8.40233e-7 0 1 -1.67359e-6 0 1 0 0 1 0 0 1 0.8255645 -0.5643078 0 0.8255646 -0.5643079 0 0.1757829 0.984429 0 0.1758069 0.9844247 0 0.1758071 0.9844247 0 0 0 -1 0 0 -1 0 0 1 -6.88892e-6 0 1 -6.91963e-6 0 1 -0.9953423 0.09640449 0 -0.9953418 0.09640872 0 -0.9953418 0.09640878 0 -0.9953423 0.09640413 0 0.7913165 0.6114069 0 0 0 -1 0 0 -1 -0.1755388 -0.9844726 0 -0.2151265 0.9765863 0 -0.2151356 0.9765842 0 1.49297e-7 0 -1 -1.38396e-5 0 1 0.7912768 0.6114583 0 -1.08174e-5 0 1 0.2151319 -0.9765851 0 -0.8255804 0.5642846 0 0 0 -1 -2.16244e-7 0 -1 -0.7913107 -0.6114143 0 -6.30206e-7 0 1 0.8255531 -0.5643246 0 0 0 -1 -0.8824267 0.4704502 0 0.9953454 -0.09637266 0 0.9953455 -0.0963723 0 -1.68038e-6 0 1 0.1757827 0.984429 0 0 0 -1 -0.9953423 0.09640443 0</float_array>
          <technique_common>
            <accessor source="#Cube_017-mesh-normals-array" count="205" stride="3">
              <param name="X" type="float"/>
              <param name="Y" type="float"/>
              <param name="Z" type="float"/>
            </accessor>
          </technique_common>
        </source>
        <source id="Cube_017-mesh-map-0">
          <float_array id="Cube_017-mesh-map-0-array" count="720">0.9984335 0.6838312 1.000765 0.001214206 0.001161634 6.92369e-4 0.9984335 0.6838312 0.001161634 6.92369e-4 5.39125e-4 0.6833093 0.9984335 0.6838312 0.001161634 6.92369e-4 1.000765 0.001214206 0.9984335 0.6838312 5.39125e-4 0.6833093 0.001161634 6.92369e-4 0.9984335 0.6838312 1.000765 0.001214206 0.001161634 6.92369e-4 0.9984335 0.6838312 0.001161634 6.92369e-4 5.39125e-4 0.6833093 0.9984335 0.6838312 0.001161634 6.92369e-4 1.000765 0.001214206 0.9984335 0.6838312 5.39125e-4 0.6833093 0.001161634 6.92369e-4 0.9984335 0.6838312 1.000765 0.001214206 0.001161634 6.92369e-4 0.9984335 0.6838312 0.001161634 6.92369e-4 5.39125e-4 0.6833093 0.9984335 0.6838312 0.001161634 6.92369e-4 1.000765 0.001214206 0.9984335 0.6838312 5.39125e-4 0.6833093 0.001161634 6.92369e-4 0.9984335 0.6838312 0.001161634 6.92369e-4 1.000765 0.001214206 0.9984335 0.6838312 5.39125e-4 0.6833093 0.001161634 6.92369e-4 0.9984335 0.6838312 0.001161634 6.92369e-4 1.000765 0.001214206 0.9984335 0.6838312 5.39125e-4 0.6833093 0.001161634 6.92369e-4 0.9984335 0.6838312 1.000765 0.001214206 0.001161634 6.92369e-4 0.9984335 0.6838312 0.001161634 6.92369e-4 5.39125e-4 0.6833093 0.9984335 0.6838312 0.001161634 6.92369e-4 1.000765 0.001214206 0.9984335 0.6838312 5.39125e-4 0.6833093 0.001161634 6.92369e-4 0.9984335 0.6838312 0.001161634 6.92369e-4 1.000765 0.001214206 0.9984335 0.6838312 5.39125e-4 0.6833093 0.001161634 6.92369e-4 0.9984335 0.6838312 1.000765 0.001214206 0.001161634 6.92369e-4 0.9984335 0.6838312 0.001161634 6.92369e-4 5.39125e-4 0.6833093 0.9984335 0.6838312 0.001161634 6.92369e-4 1.000765 0.001214206 0.9984335 0.6838312 5.39125e-4 0.6833093 0.001161634 6.92369e-4 0.9984335 0.6838312 1.000765 0.001214206 0.001161634 6.92369e-4 0.9984335 0.6838312 0.001161634 6.92369e-4 5.39125e-4 0.6833093 0.9984335 0.6838312 0.001161634 6.92369e-4 1.000765 0.001214206 0.9984335 0.6838312 5.39125e-4 0.6833093 0.001161634 6.92369e-4 0.9984335 0.6838312 1.000765 0.001214206 0.001161634 6.92369e-4 0.9984335 0.6838312 0.001161634 6.92369e-4 5.39125e-4 0.6833093 0.9984335 0.6838312 1.000765 0.001214206 0.001161634 6.92369e-4 0.9984335 0.6838312 0.001161634 6.92369e-4 5.39125e-4 0.6833093 0.9984335 0.6838312 1.000765 0.001214206 0.001161634 6.92369e-4 0.9984335 0.6838312 0.001161634 6.92369e-4 5.39125e-4 0.6833093 0.9984335 0.6838312 0.001161634 6.92369e-4 1.000765 0.001214206 0.9984335 0.6838312 5.39125e-4 0.6833093 0.001161634 6.92369e-4 0.9984335 0.6838312 1.000765 0.001214206 0.001161634 6.92369e-4 0.9984335 0.6838312 0.001161634 6.92369e-4 5.39125e-4 0.6833093 0.001161634 6.92369e-4 5.39125e-4 0.6833093 5.39125e-4 0.6833093 1.000765 0.001214206 0.9984335 0.6838312 0.9984335 0.6838312 1.000765 0.001214206 0.001161634 6.92369e-4 0.001161634 6.92369e-4 0.001161634 6.92369e-4 1.000765 0.001214206 0.001161634 6.92369e-4 0.9984335 0.6838312 5.39125e-4 0.6833093 5.39125e-4 0.6833093 5.39125e-4 0.6833093 0.001161634 6.92369e-4 0.001161634 6.92369e-4 1.000765 0.001214206 0.9984335 0.6838312 0.9984335 0.6838312 1.000765 0.001214206 0.9984335 0.6838312 0.9984335 0.6838312 1.000765 0.001214206 0.001161634 6.92369e-4 1.000765 0.001214206 0.9984335 0.6838312 5.39125e-4 0.6833093 5.39125e-4 0.6833093 0.9984335 0.6838312 5.39125e-4 0.6833093 5.39125e-4 0.6833093 5.39125e-4 0.6833093 0.001161634 6.92369e-4 0.001161634 6.92369e-4 0.9984335 0.6838312 1.000765 0.001214206 1.000765 0.001214206 0.001161634 6.92369e-4 1.000765 0.001214206 1.000765 0.001214206 0.9984335 0.6838312 5.39125e-4 0.6833093 0.9984335 0.6838312 5.39125e-4 0.6833093 0.001161634 6.92369e-4 0.001161634 6.92369e-4 5.39125e-4 0.6833093 0.001161634 6.92369e-4 0.001161634 6.92369e-4 1.000765 0.001214206 0.9984335 0.6838312 0.9984335 0.6838312 1.000765 0.001214206 0.001161634 6.92369e-4 1.000765 0.001214206 0.001161634 6.92369e-4 1.000765 0.001214206 1.000765 0.001214206 0.9984335 0.6838312 5.39125e-4 0.6833093 5.39125e-4 0.6833093 0.001161634 6.92369e-4 5.39125e-4 0.6833093 5.39125e-4 0.6833093 0.9984335 0.6838312 1.000765 0.001214206 1.000765 0.001214206 1.000765 0.001214206 0.001161634 6.92369e-4 0.001161634 6.92369e-4 0.9984335 0.6838312 5.39125e-4 0.6833093 0.9984335 0.6838312 5.39125e-4 0.6833093 0.001161634 6.92369e-4 0.001161634 6.92369e-4 1.000765 0.001214206 0.9984335 0.6838312 0.9984335 0.6838312 1.000765 0.001214206 0.001161634 6.92369e-4 1.000765 0.001214206 0.9984335 0.6838312 5.39125e-4 0.6833093 5.39125e-4 0.6833093 0.001161634 6.92369e-4 5.39125e-4 0.6833093 5.39125e-4 0.6833093 0.9984335 0.6838312 1.000765 0.001214206 1.000765 0.001214206 0.9984335 0.6838312 1.000765 0.001214206 1.000765 0.001214206 1.000765 0.001214206 0.001161634 6.92369e-4 0.001161634 6.92369e-4 5.39125e-4 0.6833093 0.9984335 0.6838312 0.9984335 0.6838312 5.39125e-4 0.6833093 0.9984335 0.6838312 0.9984335 0.6838312 5.39125e-4 0.6833093 0.001161634 6.92369e-4 0.001161634 6.92369e-4 1.000765 0.001214206 0.9984335 0.6838312 0.9984335 0.6838312 1.000765 0.001214206 0.001161634 6.92369e-4 1.000765 0.001214206 0.9984335 0.6838312 5.39125e-4 0.6833093 5.39125e-4 0.6833093 0.001161634 6.92369e-4 5.39125e-4 0.6833093 5.39125e-4 0.6833093 0.001161634 6.92369e-4 0.001161634 6.92369e-4 5.39125e-4 0.6833093 1.000765 0.001214206 1.000765 0.001214206 0.9984335 0.6838312 1.000765 0.001214206 1.000765 0.001214206 0.001161634 6.92369e-4 0.001161634 6.92369e-4 1.000765 0.001214206 1.000765 0.001214206 0.9984335 0.6838312 0.9984335 0.6838312 5.39125e-4 0.6833093 5.39125e-4 0.6833093 5.39125e-4 0.6833093 0.001161634 6.92369e-4 1.000765 0.001214206 1.000765 0.001214206 0.9984335 0.6838312 1.000765 0.001214206 1.000765 0.001214206 0.9984335 0.6838312 1.000765 0.001214206 0.001161634 6.92369e-4 0.001161634 6.92369e-4 0.9984335 0.6838312 0.9984335 0.6838312 5.39125e-4 0.6833093 0.9984335 0.6838312 0.9984335 0.6838312 5.39125e-4 0.6833093 5.39125e-4 0.6833093 5.39125e-4 0.6833093 0.001161634 6.92369e-4 0.9984335 0.6838312 0.9984335 0.6838312 1.000765 0.001214206 0.001161634 6.92369e-4 0.001161634 6.92369e-4 1.000765 0.001214206 0.9984335 0.6838312 5.39125e-4 0.6833093 5.39125e-4 0.6833093 5.39125e-4 0.6833093 5.39125e-4 0.6833093 0.001161634 6.92369e-4 5.39125e-4 0.6833093 5.39125e-4 0.6833093 0.001161634 6.92369e-4 1.000765 0.001214206 1.000765 0.001214206 0.9984335 0.6838312 1.000765 0.001214206 0.001161634 6.92369e-4 0.001161634 6.92369e-4 0.001161634 6.92369e-4 0.001161634 6.92369e-4 1.000765 0.001214206 0.9984335 0.6838312 0.9984335 0.6838312 5.39125e-4 0.6833093 0.001161634 6.92369e-4 0.001161634 6.92369e-4 5.39125e-4 0.6833093 0.9984335 0.6838312 0.9984335 0.6838312 1.000765 0.001214206 1.000765 0.001214206 1.000765 0.001214206 0.001161634 6.92369e-4 0.9984335 0.6838312 5.39125e-4 0.6833093 5.39125e-4 0.6833093 5.39125e-4 0.6833093 5.39125e-4 0.6833093 0.001161634 6.92369e-4 1.000765 0.001214206 1.000765 0.001214206 0.9984335 0.6838312 1.000765 0.001214206 0.001161634 6.92369e-4 0.001161634 6.92369e-4 0.9984335 0.6838312 0.9984335 0.6838312 5.39125e-4 0.6833093 0.001161634 6.92369e-4 0.001161634 6.92369e-4 5.39125e-4 0.6833093 0.9984335 0.6838312 0.9984335 0.6838312 1.000765 0.001214206 0.9984335 0.6838312 0.9984335 0.6838312 1.000765 0.001214206 1.000765 0.001214206 1.000765 0.001214206 0.001161634 6.92369e-4 5.39125e-4 0.6833093 5.39125e-4 0.6833093 0.9984335 0.6838312 5.39125e-4 0.6833093 5.39125e-4 0.6833093 0.9984335 0.6838312 5.39125e-4 0.6833093 5.39125e-4 0.6833093 0.001161634 6.92369e-4 1.000765 0.001214206 1.000765 0.001214206 0.9984335 0.6838312 1.000765 0.001214206 0.001161634 6.92369e-4 0.001161634 6.92369e-4 0.9984335 0.6838312 0.9984335 0.6838312 5.39125e-4 0.6833093 0.001161634 6.92369e-4 0.001161634 6.92369e-4 5.39125e-4 0.6833093</float_array>
          <technique_common>
            <accessor source="#Cube_017-mesh-map-0-array" count="360" stride="2">
              <param name="S" type="float"/>
              <param name="T" type="float"/>
            </accessor>
          </technique_common>
        </source>
        <source id="Cube_017-mesh-map-1">
          <float_array id="Cube_017-mesh-map-1-array" count="720">0.9713508 0.464307 0.9713508 0.6651794 0.7891142 0.6651794 0.9713508 0.464307 0.7891142 0.6651794 0.7891142 0.464307 0.394557 0.9642746 0.5908481 0.7366254 0.5908481 0.9642746 0.394557 0.9642746 0.394557 0.7366254 0.5908481 0.7366254 0.5918356 0 0.7881267 0 0.7881266 0.2420769 0.5918356 0 0.7881266 0.2420769 0.5918356 0.2420768 0.2046625 0.7286924 0.3935661 0.9295648 0.2046625 0.9295648 0.2046625 0.7286924 0.3935661 0.7286924 0.3935661 0.9295648 0 0.2634049 0.196291 0.2634049 0.196291 0.5257989 0 0.2634049 0.196291 0.5257989 0 0.5257989 0.3945571 0.2445316 0.5908482 0 0.5908482 0.2445316 0.3945571 0.2445316 0.3945571 0 0.5908482 0 0.1972785 0.2623942 0.3935696 0 0.3935696 0.2623943 0.1972785 0.2623942 0.1972785 0 0.3935696 0 0.3945571 0.4900734 0.5908482 0.2455421 0.5908481 0.4900735 0.3945571 0.4900734 0.3945571 0.2455421 0.5908482 0.2455421 0.9713507 0.6661899 0.9713507 0.8670624 0.7891142 0.8670624 0.9713507 0.6661899 0.7891142 0.8670624 0.7891142 0.6661899 0 1 0.196291 0.772351 0.196291 1 0 1 0 0.7723509 0.196291 0.772351 0.7891141 0 0.9713541 0.2008725 0.7891141 0.2008725 0.7891141 0 0.9713541 0 0.9713541 0.2008725 0.5918357 0.2624241 0.7881267 0.2624241 0.7881267 0.4900735 0.5918357 0.2624241 0.7881267 0.4900735 0.5918357 0.4900735 0.5918357 0.7331607 0.7881268 0.491084 0.7881267 0.7331607 0.5918357 0.7331607 0.5918357 0.491084 0.7881268 0.491084 0.3935696 0.5268095 0.3935696 0.7276819 0.2046625 0.7276819 0.3935696 0.5268095 0.2046625 0.7276819 0.2046625 0.5268095 0 0.2623944 0.1962911 0 0.196291 0.2623944 0 0.2623944 0 0 0.1962911 0 0 0.5268095 0.1962911 0.5268095 0.196291 0.7713405 0 0.5268095 0.196291 0.7713405 0 0.7713404 0.1972785 0.2634049 0.3935696 0.2634049 0.3935696 0.525799 0.1972785 0.2634049 0.3935696 0.525799 0.1972785 0.5257989 0.3945571 0.491084 0.5908481 0.491084 0.5908481 0.735615 0.3945571 0.491084 0.5908481 0.735615 0.394557 0.7356149 0.7891141 0.262424 0.9713542 0.4632965 0.7891141 0.4632965 0.7891141 0.262424 0.9713542 0.262424 0.9713542 0.4632965 0.5918357 0.7341712 0.7881268 0.7341712 0.7881267 0.9618206 0.5918357 0.7341712 0.7881267 0.9618206 0.5918357 0.9618205 0.9977677 0.9286742 0.9965332 0.7278017 0.9977677 0.7278017 0.2009502 0.9911767 0.1992134 0.7903043 0.2009502 0.7903043 0.9750665 0 0.976804 0.2624841 0.9750666 0.2624841 0.1992127 0.7892937 0.2009502 0.5268095 0.2009502 0.7892936 0.9740756 0.7267912 0.9723381 0.464307 0.9740755 0.464307 0.9965375 0.4728865 0.9978548 0.6737589 0.9965375 0.6737589 0.9955562 0.4718759 0.994005 0.2710034 0.9955562 0.2710034 0.995556 0.2008725 0.9940048 0 0.995556 0 0.9805167 0.5259782 0.9822542 0.2710034 0.9822543 0.5259786 0.987704 0.5259785 0.9859666 0.2710034 0.987704 0.2710034 0.9849788 0.2549752 0.9832414 0 0.9849788 0 0.9886914 0.2710034 0.990428 0.471876 0.9886914 0.471876 0.988691 0 0.9904278 0.2008725 0.988691 0.2008725 0.9723383 0.7278017 0.9740756 0.9902858 0.9723382 0.9902858 0.2019377 0.7892937 0.2036751 0.5268095 0.2036751 0.7892938 0.9939945 0.7278017 0.9955458 0.9286742 0.9939945 0.9286742 0.9939989 0.4728864 0.99555 0.6737589 0.9939989 0.6737589 0.9930115 0.6737589 0.9913452 0.4728864 0.9930115 0.4728864 0.9859663 0.254975 0.9877037 0 0.9877037 0.254975 0.9832416 0.2710035 0.984979 0.5259786 0.9832417 0.5259786 0.9877 0.9827768 0.9859627 0.7278019 0.9877 0.7278018 0.203675 0.9911767 0.2019382 0.7903043 0.203675 0.7903043 0.9914156 0.2710035 0.9930176 0.4718759 0.9914156 0.4718759 0.9768006 0.990286 0.9750632 0.7278017 0.9768006 0.7278017 0.9795287 2.96754e-7 0.9777914 0.2624841 0.9777915 0 0.9913411 0.7278017 0.9930071 0.9286742 0.9913411 0.9286742 0.9903579 0.6737589 0.9886914 0.4728864 0.9903579 0.4728864 0.9832376 0.9827768 0.984975 0.7278019 0.984975 0.9827768 0.9795292 0.5259788 0.9777915 0.2710036 0.9795289 0.2710036 0.9930174 0.2008724 0.9914152 0 0.9930174 0 0.9965437 0.2710034 0.9977782 0.471876 0.9965437 0.471876 0.9987551 0.7278017 0.9999895 0.9286742 0.9987551 0.9286742 0.9777879 0.7278019 0.9795253 0.9902858 0.9777879 0.9902858 0.976804 0.5259788 0.9750666 0.2634947 0.976804 0.2634947 0.974079 0.2624841 0.9723415 0 0.974079 0 0.9886872 0.7278017 0.9903535 0.9286742 0.9886872 0.9286742 0.9978612 0.2008725 0.9965435 0 0.9978612 0 0.9805162 0.2549754 0.982254 1.70826e-7 0.982254 0.2549751 0.9822502 0.9827765 0.9805128 0.7278017 0.9822502 0.7278017 1 0.471876 0.9987657 0.2710034 1 0.2710034 0.9977677 0.9286742 0.9965332 0.9286742 0.9965332 0.7278017 0.2009502 0.9911767 0.1992134 0.9911767 0.1992134 0.7903043 0.9750665 0 0.9768039 0 0.976804 0.2624841 0.1992127 0.7892937 0.1992127 0.5268095 0.2009502 0.5268095 0.9740756 0.7267912 0.9723381 0.7267912 0.9723381 0.464307 0.9965375 0.4728865 0.9978548 0.4728865 0.9978548 0.6737589 0.9955562 0.4718759 0.994005 0.4718759 0.994005 0.2710034 0.995556 0.2008725 0.9940048 0.2008725 0.9940048 0 0.9805167 0.5259782 0.9805167 0.2710035 0.9822542 0.2710034 0.987704 0.5259785 0.9859666 0.5259785 0.9859666 0.2710034 0.9849788 0.2549752 0.9832414 0.2549752 0.9832414 0 0.9886914 0.2710034 0.990428 0.2710034 0.990428 0.471876 0.988691 0 0.9904278 0 0.9904278 0.2008725 0.9723383 0.7278017 0.9740756 0.7278016 0.9740756 0.9902858 0.2019377 0.7892937 0.2019377 0.5268095 0.2036751 0.5268095 0.9939945 0.7278017 0.9955458 0.7278017 0.9955458 0.9286742 0.9939989 0.4728864 0.99555 0.4728864 0.99555 0.6737589 0.9930115 0.6737589 0.9913452 0.6737589 0.9913452 0.4728864 0.9859663 0.254975 0.9859663 0 0.9877037 0 0.9832416 0.2710035 0.984979 0.2710035 0.984979 0.5259786 0.9877 0.9827768 0.9859626 0.9827769 0.9859627 0.7278019 0.203675 0.9911767 0.2019382 0.9911767 0.2019382 0.7903043 0.9914156 0.2710035 0.9930176 0.2710035 0.9930176 0.4718759 0.9768006 0.990286 0.9750632 0.9902861 0.9750632 0.7278017 0.9795287 2.96754e-7 0.9795288 0.2624842 0.9777914 0.2624841 0.9913411 0.7278017 0.9930071 0.7278017 0.9930071 0.9286742 0.9903579 0.6737589 0.9886914 0.6737589 0.9886914 0.4728864 0.9832376 0.9827768 0.9832378 0.7278017 0.984975 0.7278019 0.9795292 0.5259788 0.9777915 0.5259785 0.9777915 0.2710036 0.9930174 0.2008724 0.9914152 0.2008724 0.9914152 0 0.9965437 0.2710034 0.9977782 0.2710034 0.9977782 0.471876 0.9987551 0.7278017 0.9999895 0.7278017 0.9999895 0.9286742 0.9777879 0.7278019 0.9795252 0.7278017 0.9795253 0.9902858 0.976804 0.5259788 0.9750666 0.5259788 0.9750666 0.2634947 0.974079 0.2624841 0.9723415 0.2624841 0.9723415 0 0.9886872 0.7278017 0.9903535 0.7278017 0.9903535 0.9286742 0.9978612 0.2008725 0.9965435 0.2008725 0.9965435 0 0.9805162 0.2549754 0.9805166 0 0.982254 1.70826e-7 0.9822502 0.9827765 0.9805126 0.9827769 0.9805128 0.7278017 1 0.471876 0.9987657 0.471876 0.9987657 0.2710034</float_array>
          <technique_common>
            <accessor source="#Cube_017-mesh-map-1-array" count="360" stride="2">
              <param name="S" type="float"/>
              <param name="T" type="float"/>
            </accessor>
          </technique_common>
        </source>
        <vertices id="Cube_017-mesh-vertices">
          <input semantic="POSITION" source="#Cube_017-mesh-positions"/>
        </vertices>
        <triangles material="hierva_choza_gaetuli-material" count="120">
          <input semantic="VERTEX" source="#Cube_017-mesh-vertices" offset="0"/>
          <input semantic="NORMAL" source="#Cube_017-mesh-normals" offset="1"/>
          <input semantic="TEXCOORD" source="#Cube_017-mesh-map-0" offset="2" set="0"/>
          <input semantic="TEXCOORD" source="#Cube_017-mesh-map-1" offset="2" set="1"/>
          <p>0 0 0 1 1 1 3 0 2 0 0 3 3 0 4 2 2 5 4 3 6 7 4 7 5 5 8 4 3 9 6 6 10 7 4 11 8 7 12 9 8 13 11 9 14 8 7 15 11 9 16 10 10 17 12 11 18 15 12 19 13 13 20 12 11 21 14 14 22 15 12 23 16 15 24 17 16 25 19 17 26 16 15 27 19 17 28 18 18 29 20 19 30 23 19 31 21 20 32 20 19 33 22 21 34 23 19 35 24 22 36 27 22 37 25 23 38 24 22 39 26 24 40 27 22 41 28 25 42 31 25 43 29 26 44 28 25 45 30 27 46 31 25 47 32 28 48 33 29 49 35 28 50 32 28 51 35 28 52 34 29 53 36 30 54 39 31 55 37 32 56 36 30 57 38 33 58 39 31 59 40 34 60 41 35 61 42 36 62 40 34 63 43 37 64 41 35 65 44 38 66 45 39 67 46 38 68 44 38 69 46 38 70 47 40 71 48 41 72 49 42 73 50 43 74 48 41 75 51 44 76 49 42 77 52 45 78 53 46 79 54 47 80 52 45 81 54 47 82 55 48 83 56 23 84 57 49 85 58 50 86 56 23 87 59 51 88 57 49 89 60 52 90 61 53 91 62 52 92 60 52 93 62 52 94 63 54 95 64 55 96 65 56 97 66 55 98 64 55 99 66 55 100 67 57 101 68 58 102 69 58 103 70 58 104 68 58 105 70 58 106 71 59 107 72 60 108 73 61 109 74 60 110 72 60 111 75 62 112 73 61 113 76 63 114 77 64 115 78 63 116 76 63 117 78 63 118 79 64 119 3 65 120 43 66 121 2 67 122 25 68 123 64 69 124 24 70 125 33 71 126 73 72 127 35 73 128 3 74 129 42 75 130 41 76 131 24 77 132 67 78 133 26 79 134 14 80 135 54 81 136 15 82 137 37 83 138 76 84 139 36 85 140 5 86 141 44 87 142 4 88 143 13 89 144 54 90 145 53 91 146 36 92 147 79 93 148 38 94 149 4 95 150 47 96 151 6 97 152 26 98 153 66 99 154 27 100 155 16 101 156 58 102 157 17 103 158 27 104 159 65 105 160 25 106 161 16 107 162 59 108 163 56 109 164 38 110 165 78 111 166 39 112 167 6 113 168 46 114 169 7 114 170 29 115 171 68 116 172 28 117 173 37 118 174 78 119 175 77 76 176 7 120 177 45 121 178 5 122 179 28 123 180 71 124 181 30 125 182 19 126 183 59 127 184 18 128 185 8 129 186 50 130 187 9 131 188 17 132 189 57 133 190 19 134 191 8 135 192 51 136 193 48 137 194 30 138 195 70 139 196 31 140 197 21 141 198 60 141 199 20 142 200 29 143 201 70 144 202 69 76 203 20 145 204 63 146 205 22 147 206 11 148 207 51 149 208 10 150 209 32 151 210 74 152 211 33 153 212 0 154 213 42 155 214 1 156 215 9 157 216 49 158 217 11 159 218 34 160 219 72 161 220 32 162 221 2 163 222 40 164 223 0 165 224 22 166 225 62 167 226 23 167 227 13 168 228 52 169 229 12 170 230 21 171 231 62 172 232 61 76 233 12 173 234 55 174 235 14 175 236 35 176 237 75 177 238 34 178 239 3 65 240 41 179 241 43 66 242 25 68 243 65 180 244 64 69 245 33 71 246 74 181 247 73 72 248 3 74 249 1 182 250 42 75 251 24 77 252 64 137 253 67 78 254 14 80 255 55 183 256 54 81 257 37 83 258 77 184 259 76 84 260 5 86 261 45 185 262 44 87 263 13 89 264 15 186 265 54 90 266 36 92 267 76 187 268 79 93 269 4 95 270 44 137 271 47 96 272 26 98 273 67 98 274 66 99 275 16 101 276 56 188 277 58 102 278 27 104 279 66 76 280 65 105 281 16 107 282 18 189 283 59 108 284 38 110 285 79 190 286 78 111 287 6 113 288 47 113 289 46 114 290 29 115 291 69 191 292 68 116 293 37 118 294 39 192 295 78 119 296 7 120 297 46 193 298 45 121 299 28 123 300 68 137 301 71 124 302 19 126 303 57 194 304 59 127 305 8 129 306 48 130 307 50 130 308 17 132 309 58 76 310 57 133 311 8 135 312 10 195 313 51 136 314 30 138 315 71 196 316 70 139 317 21 141 318 61 141 319 60 141 320 29 143 321 31 197 322 70 144 323 20 145 324 60 137 325 63 146 326 11 148 327 49 198 328 51 149 329 32 151 330 72 199 331 74 152 332 0 154 333 40 200 334 42 155 335 9 157 336 50 76 337 49 158 338 34 160 339 75 137 340 72 161 341 2 163 342 43 201 343 40 164 344 22 166 345 63 166 346 62 167 347 13 168 348 53 202 349 52 169 350 21 171 351 23 203 352 62 172 353 12 173 354 52 137 355 55 174 356 35 176 357 73 204 358 75 177 359</p>
        </triangles>
      </mesh>
    </geometry>
  </library_geometries>
  <library_visual_scenes>
    <visual_scene id="Scene" name="Scene">
      <node id="forge_f" name="forge_f" type="NODE">
        <matrix sid="transform">1 0 0 0 0 1 0 0 0 0 1 0 0 0 0 1</matrix>
        <instance_geometry url="#Cube_017-mesh" name="forge_f">
          <bind_material>
            <technique_common>
              <instance_material symbol="hierva_choza_gaetuli-material" target="#hierva_choza_gaetuli-material">
                <bind_vertex_input semantic="Cube_017-mesh-map-0" input_semantic="TEXCOORD" input_set="0"/>
                <bind_vertex_input semantic="Cube_017-mesh-map-1" input_semantic="TEXCOORD" input_set="1"/>
              </instance_material>
            </technique_common>
          </bind_material>
        </instance_geometry>
        <node id="prop_garrisoned" name="prop_garrisoned" type="NODE">
          <matrix sid="transform">-0.7829416 1.18221e-7 0 5.35037e-14 -1.18221e-7 -0.7829416 0 5.033843 0 0 0.7829416 9.013988 0 0 0 1</matrix>
        </node>
        <node id="prop_projectile" name="prop_projectile" type="NODE">
          <matrix sid="transform">-0.7829416 1.18221e-7 0 5.35037e-14 -1.18221e-7 -0.7829416 0 5.033842 0 0 0.7829416 9.013988 0 0 0 1</matrix>
        </node>
      </node>
    </visual_scene>
  </library_visual_scenes>
  <scene>
    <instance_visual_scene url="#Scene"/>
  </scene>
</COLLADA>