<?xml version="1.0" encoding="utf-8"?>
<COLLADA xmlns="http://www.collada.org/2005/11/COLLADASchema" version="1.4.1" xmlns:xsi="http://www.w3.org/2001/XMLSchema-instance">
  <asset>
    <contributor>
      <author>Blender User</author>
      <authoring_tool>Blender 4.3.1 commit date:2024-12-10, commit time:07:46, hash:33d812126174</authoring_tool>
    </contributor>
    <created>2026-08-22T19:22:23</created>
    <modified>2026-08-22T19:22:23</modified>
    <unit name="meter" meter="1"/>
    <up_axis>Z_UP</up_axis>
  </asset>
  <library_effects>
    <effect id="hierva_choza_gaetuli-effect">
      <profile_COMMON>
        <technique sid="common">
          <lambert>
            <emission>
              <color sid="emission">0 0 0 1</color>
            </emission>
            <diffuse>
              <color sid="diffuse">0.8 0.8 0.8 1</color>
            </diffuse>
            <index_of_refraction>
              <float sid="ior">1.45</float>
            </index_of_refraction>
          </lambert>
        </technique>
      </profile_COMMON>
    </effect>
  </library_effects>
  <library_images/>
  <library_materials>
    <material id="hierva_choza_gaetuli-material" name="hierva choza gaetuli">
      <instance_effect url="#hierva_choza_gaetuli-effect"/>
    </material>
  </library_materials>
  <library_geometries>
    <geometry id="Cube_057-mesh" name="Cube.057">
      <mesh>
        <source id="Cube_057-mesh-positions">
          <float_array id="Cube_057-mesh-positions-array" count="480">8.84272 11.14829 15.85909 8.84272 11.14829 12.35669 5.146806 8.449029 15.85909 5.146806 8.449029 12.35669 5.111399 11.10197 15.85909 5.111399 11.10197 12.35669 8.712514 8.494964 15.85909 8.712514 8.494964 12.35669 -10.77851 9.244115 15.85909 -10.77851 9.244115 12.35669 -6.734692 7.100905 15.85909 -6.734692 7.100905 12.35669 -9.104987 5.908818 15.85909 -9.104987 5.908818 12.35669 -8.33544 10.28744 15.85909 -8.33544 10.28744 12.35669 12.28066 2.561398 15.85909 12.28066 2.561398 12.35669 8.212813 0.4641718 15.85909 8.212813 0.4641718 12.35669 8.586812 3.09086 15.85909 8.586812 3.09086 12.35669 11.74297 -0.04013806 15.85909 11.74297 -0.04013806 12.35669 -3.026174 -12.27564 15.85909 -3.026174 -12.27564 12.35669 -3.274405 -7.705715 15.85909 -3.274405 -7.705715 12.35669 -1.030988 -9.122206 15.85909 -1.030988 -9.122206 12.35669 -5.179636 -10.7201 15.85909 -5.179636 -10.7201 12.35669 -8.516133 2.546511 15.85909 -8.516133 2.546511 12.35669 -3.942809 2.371828 15.85909 -3.942809 2.371828 12.35669 -5.560342 0.2687477 15.85909 -5.560342 0.2687477 12.35669 -6.768442 4.547184 15.85909 -6.768442 4.547184 12.35669 -13.19037 -3.357789 15.85909 -13.19037 -3.357789 12.35669 -8.617049 -3.532473 15.85909 -8.617049 -3.532473 12.35669 -10.23458 -5.635553 15.85909 -10.23458 -5.635553 12.35669 -11.44268 -1.357115 15.85909 -11.44268 -1.357115 12.35669 5.199069 -9.323594 15.85909 5.199069 -9.323594 12.35669 9.772392 -9.498275 15.85909 9.772392 -9.498275 12.35669 8.154856 -11.60136 15.85909 8.154856 -11.60136 12.35669 6.946756 -7.322919 15.85909 6.946756 -7.322919 12.35669 9.481184 -5.292115 15.85909 9.481184 -5.292115 12.35669 11.09665 -9.574178 15.85909 11.09665 -9.574178 12.35669 8.530405 -8.900566 15.85909 8.530405 -8.900566 12.35669 12.00362 -6.12544 15.85909 12.00362 -6.12544 12.35669 9.481184 9.776151 15.85909 9.481184 9.776151 12.35669 11.09665 5.494089 15.85909 11.09665 5.494089 12.35669 8.530405 6.167702 15.85909 8.530405 6.167702 12.35669 12.00362 8.942827 15.85909 12.00362 8.942827 12.35669 -0.2341853 5.791662 15.85909 -0.2341853 5.791662 12.35669 3.80963 3.648453 15.85909 3.80963 3.648453 12.35669 1.439337 2.456365 15.85909 1.439337 2.456365 12.35669 2.208883 6.834986 15.85909 2.208883 6.834986 12.35669 8.861002 11.12326 15.85909 5.165089 8.423995 12.35669 8.861002 11.12326 12.35669 5.165089 8.423995 15.85909 5.09322 11.07686 15.85909 5.09322 11.07686 12.35669 8.694335 8.469854 12.35669 8.694335 8.469854 15.85909 -10.76399 9.271508 15.85909 -6.720174 7.128296 12.35669 -10.76399 9.271508 12.35669 -6.720174 7.128296 15.85909 -9.074455 5.903452 15.85909 -9.074455 5.903452 12.35669 -8.304908 10.28207 12.35669 -8.304908 10.28207 15.85909 12.26646 2.588952 15.85909 12.26646 2.588952 12.35669 8.198606 0.4917254 12.35669 8.198606 0.4917254 15.85909 8.608643 3.112867 15.85909 11.76481 -0.0181303 12.35669 8.608643 3.112867 12.35669 11.76481 -0.0181303 15.85909 -2.995219 -12.27395 15.85909 -2.995219 -12.27395 12.35669 -3.24345 -7.704034 12.35669 -3.24345 -7.704034 15.85909 -1.04213 -9.093278 15.85909 -1.04213 -9.093278 12.35669 -5.190777 -10.69117 12.35669 -5.190777 -10.69117 15.85909 -8.514948 2.577488 15.85909 -3.941625 2.402805 12.35669 -8.514948 2.577488 12.35669 -3.941625 2.402805 15.85909 -5.530509 0.2771717 15.85909 -5.530509 0.2771717 12.35669 -6.738608 4.555608 12.35669 -6.738608 4.555608 15.85909 -13.18918 -3.326811 15.85909 -8.615865 -3.501495 12.35669 -13.18918 -3.326811 12.35669 -8.615865 -3.501495 15.85909 -10.20475 -5.627129 15.85909 -10.20475 -5.627129 12.35669 -11.41285 -1.348691 12.35669 -11.41285 -1.348691 15.85909 5.200252 -9.292615 15.85909 9.773574 -9.467299 12.35669 5.200252 -9.292615 12.35669 9.773574 -9.467299 15.85909 8.18469 -11.59293 15.85909 8.18469 -11.59293 12.35669 6.976589 -7.314495 12.35669 6.976589 -7.314495 15.85909 9.51019 -5.281173 15.85909 11.12565 -9.563237 12.35669 9.51019 -5.281173 12.35669 11.12565 -9.563237 15.85909 8.511054 -8.876346 15.85909 11.98427 -6.101222 12.35669 8.511054 -8.876346 12.35669 11.98427 -6.101222 15.85909 9.45218 9.76521 15.85909 9.45218 9.76521 12.35669 11.06764 5.483146 12.35669 11.06764 5.483146 15.85909 8.511054 6.191921 15.85909 11.98427 8.967044 12.35669 8.511054 6.191921 12.35669 11.98427 8.967044 15.85909 -0.2196682 5.819053 15.85909 3.824147 3.675844 12.35669 -0.2196682 5.819053 12.35669 3.824147 3.675844 15.85909 1.469869 2.450999 15.85909 1.469869 2.450999 12.35669 2.239415 6.82962 12.35669 2.239415 6.82962 15.85909</float_array>
          <technique_common>
            <accessor source="#Cube_057-mesh-positions-array" count="160" stride="3">
              <param name="X" type="float"/>
              <param name="Y" type="float"/>
              <param name="Z" type="float"/>
            </accessor>
          </technique_common>
        </source>
        <source id="Cube_057-mesh-normals">
          <float_array id="Cube_057-mesh-normals-array" count="1257">-0.5897887 0.8075576 0 -0.5897887 0.8075578 0 -0.5897889 0.8075575 0 -0.589789 0.8075574 0 0.586407 0.8100168 0 0.586407 0.8100166 0 0.5864068 0.8100166 0 -0.4682914 -0.8835741 0 -0.4682913 -0.8835743 0 -0.4682914 -0.8835741 0 -0.4682915 -0.8835741 0 -0.9849047 0.1730977 0 -0.9849047 0.1730977 0 -0.9849047 0.1730977 0 -0.9849047 0.1730977 0 0.4582447 -0.8888261 0 0.4582446 -0.8888261 0 0.4582449 -0.8888261 0 0.4582445 -0.8888263 0 -0.7042714 -0.709931 0 -0.7042713 -0.7099311 0 -0.7042714 -0.7099308 0 -0.7042715 -0.7099308 0 -0.9985281 -0.05423837 0 -0.9985281 -0.05423837 0 -0.9985281 -0.05423843 0 -0.9985281 -0.05423837 0 0.3594219 -0.9331752 0 0.3594219 -0.9331752 0 0.3594218 -0.9331752 0 0.359422 -0.9331752 0 -0.03816819 -0.9992713 0 -0.03816813 -0.9992714 0 -0.03816819 -0.9992713 0 -0.03816825 -0.9992714 0 -0.9623697 -0.271744 0 -0.9623697 -0.271744 0 -0.9623696 -0.2717441 0 -0.9623697 -0.2717438 0 -0.03816843 -0.9992713 0 -0.03816843 -0.9992714 0 -0.03816843 -0.9992713 0 -0.03816848 -0.9992714 0 -0.9623697 -0.2717436 0 -0.9623698 -0.2717436 0 -0.9623697 -0.2717437 0 -0.9623697 -0.2717435 0 -0.03816795 -0.9992714 0 -0.03816789 -0.9992714 0 -0.03816795 -0.9992714 0 -0.03816795 -0.9992714 0 -0.9623697 -0.2717435 0 -0.9623697 -0.2717435 0 -0.9623698 -0.2717435 0 -0.9356312 -0.3529796 0 -0.935631 -0.3529798 0 -0.9356311 -0.3529794 0 -0.9356312 -0.3529791 0 0.6242222 -0.781247 0 0.624222 -0.7812471 0 0.6242224 -0.7812468 0 0.935631 0.3529796 0 0.9356311 0.3529796 0 0.935631 0.3529798 0 0.9356312 0.3529793 0 0.6242219 -0.7812471 0 0.6242217 -0.7812473 0 0.6242219 -0.7812471 0 0.6242221 -0.7812469 0 -0.4682915 -0.8835741 0 -0.4682913 -0.8835742 0 -0.4682917 -0.883574 0 -0.9849047 0.1730977 0 -0.9849047 0.1730979 0 -0.9849048 0.1730976 0 0.5897895 -0.8075571 0 0.5897895 -0.8075571 0 0.5897893 -0.8075572 0 0.5897897 -0.8075569 0 -0.5864068 -0.8100167 0 -0.5864071 -0.8100166 0 -0.5864068 -0.8100168 0 -0.5864067 -0.8100169 0 0.4682916 0.8835741 0 0.4682916 0.883574 0 0.9849047 -0.1730979 0 0.9849046 -0.1730979 0 0.9849047 -0.1730979 0 0.9849047 -0.1730977 0 -0.4582442 0.8888264 0 -0.458244 0.8888264 0 -0.4582443 0.8888264 0 -0.4582443 0.8888263 0 0.7042704 0.7099319 0 0.7042703 0.7099319 0 0.7042705 0.7099318 0 0.7042703 0.709932 0 0.9985281 0.05423849 0 0.9985281 0.05423849 0 0.9985281 0.05423849 0 0.9985281 0.05423843 0 -0.3594216 0.9331753 0 -0.3594214 0.9331754 0 -0.3594216 0.9331754 0 -0.3594216 0.9331753 0 0.03816819 0.9992713 0 0.03816819 0.9992713 0 0.03816813 0.9992714 0 0.03816825 0.9992714 0 0.9623697 0.2717437 0 0.9623697 0.271744 0 0.9623697 0.2717436 0 0.9623697 0.2717434 0 0.03816848 0.9992713 0 0.03816848 0.9992714 0 0.9623697 0.2717438 0 0.9623697 0.2717437 0 0.9623697 0.2717438 0 0.9623697 0.2717439 0 0.03816837 0.9992713 0 0.03816837 0.9992714 0 0.03816837 0.9992714 0 0.9623697 0.271744 0 0.9623696 0.2717441 0 0.9623697 0.271744 0 0.9356316 0.3529781 0 0.9356316 0.352978 0 0.9356316 0.3529782 0 -0.6242218 0.7812473 0 -0.6242218 0.7812472 0 -0.6242217 0.7812473 0 -0.6242219 0.7812472 0 -0.9356316 -0.3529782 0 -0.9356316 -0.3529782 0 -0.9356316 -0.3529782 0 -0.6242217 0.7812473 0 -0.6242216 0.7812474 0 -0.6242216 0.7812473 0 0.4682915 0.8835741 0 0.4682916 0.8835741 0 0.4682913 0.8835741 0 0.4682917 0.883574 0 0.9849047 -0.1730977 0 0.9849047 -0.1730977 0 0.9849047 -0.1730977 0 0.9849048 -0.1730976 0 -5.49753e-5 0 1 3.11874e-5 0 1 -5.53603e-5 0 1 -0.9992706 0.03818982 0 -0.9992719 0.03815519 0 -0.9992719 0.03815501 0 0 0 -1 7.32002e-7 0 -1 7.35175e-7 0 -1 0.8100037 -0.5864248 0 0.81002 -0.5864023 0 0.8100202 -0.5864022 0 0 0 1 8.36552e-7 0 1 8.40175e-7 0 1 0.933173 0.3594278 0 0.9331731 0.3594273 0 0.9331732 0.3594273 0 0 0 -1 -2.23884e-5 0 -1 -2.24882e-5 0 -1 0.7812455 0.6242239 0 0.7812456 0.6242239 0 0 0 1 -6.8892e-6 0 1 -6.91991e-6 0 1 -0.8835355 0.4683642 0 -0.8835356 0.4683643 0 -5.5006e-5 0 -1 2.4298e-5 0 -1 2.46527e-5 0 -1 0.9992718 -0.03815734 0 0.9992718 -0.03815734 0 0.9992718 -0.03815734 0 5.35765e-5 0 1 8.59757e-6 0 1 8.40196e-6 0 1 -0.8835745 0.4682908 0 -0.8835744 0.4682908 0 0 0 -1 -1.25483e-6 0 -1 0 0 -1 -0.9331914 -0.35938 0 -0.9331912 -0.3593803 0 -0.9331912 -0.3593803 0 -5.33611e-5 0 1 4.20154e-5 0 1 -5.37764e-5 0 1 0.2719169 -0.9623208 0 0.27189 -0.9623284 0 0.2718898 -0.9623284 0 0 0 -1 -2.58345e-6 0 -1 0.8835545 -0.4683284 0 0.883569 -0.4683012 0 0.883569 -0.4683011 0 -1.53938e-7 0 1 -3.44429e-5 0 1 0 0 1 -0.9992704 0.03819173 0 -0.9992691 0.03822642 0 -0.9992692 0.0382266 0 0 0 -1 1.08755e-5 0 -1 0.8835691 -0.4683009 0 0.8835836 -0.4682738 0 0.8835836 -0.4682736 0 -0.1730949 -0.9849052 0 -0.1730891 -0.9849062 0 -0.173089 -0.9849062 0 2.66942e-5 0 -1 -1.78705e-5 0 -1 -1.80646e-5 0 -1 -0.2717463 0.962369 0 -0.2717279 0.9623741 0 -0.2717278 0.9623742 0 -1.09783e-4 0 1 9.8325e-5 0 1 -1.10716e-4 0 1 -0.1730993 -0.9849045 0 -0.1730995 -0.9849044 0 0 0 -1 1.07634e-5 0 -1 1.08116e-5 0 -1 0.9992698 -0.03820908 0 0.9992698 -0.03820908 0 0.9992699 -0.03820908 0 -1.10033e-4 0 1 4.26714e-5 0 1 -1.10718e-4 0 1 -0.3529598 0.9356386 0 -0.3529595 0.9356386 0 -0.3529595 0.9356387 0 3.33734e-6 0 -1 -2.07704e-6 0 -1 3.36089e-6 0 -1 0.1732054 0.9848857 0 0.1731874 0.984889 0 0.1731873 0.9848889 0 0 0 1 -1.06664e-5 0 1 -1.07125e-5 0 1 0.2717425 -0.96237 0 0.2717516 -0.9623675 0 0.2717516 -0.9623675 0 0 0 -1 -1.25943e-5 0 -1 -1.26504e-5 0 -1 0.1731085 0.9849029 0 0.1731083 0.9849029 0 0.1731083 0.9849028 0 -1.10024e-4 0 1 4.55801e-5 0 1 4.62753e-5 0 1 0.888895 0.4581109 0 0.8888952 0.4581108 0 0.8888952 0.4581108 0 5.51129e-5 0 -1 2.46316e-7 0 -1 0.3530022 -0.9356225 0 0.3530024 -0.9356224 0 0.3530025 -0.9356225 0 0 0 1 -1.004e-5 0 1 0 0 -1 -8.78408e-6 0 -1 -0.2717371 0.9623715 0 -0.2717187 0.9623768 0 -0.2717186 0.9623768 0 -0.7812693 -0.6241942 0 -0.7812355 -0.6242365 0 -0.7812352 -0.6242368 0 0 0 -1 1.87295e-5 0 -1 -0.8888065 -0.4582828 0 -0.8888206 -0.4582553 0 -0.8888208 -0.4582552 0 -5.49713e-5 0 1 3.1187e-5 0 1 -5.53572e-5 0 1 -0.999258 0.0385161 1.19087e-4 -0.9992684 0.03824681 8.00272e-5 -0.9992638 0.03836578 0 0 0 -1 -4.60168e-6 0 -1 -4.62161e-6 0 -1 0 0 1 -8.36587e-7 0 1 -0.7099356 0.7042666 0 -1.32434e-7 0 1 -2.9704e-5 0 1 0.8075054 0.5898602 0 0.8075384 0.5898151 0 0.8075386 0.5898149 0 -1.36303e-7 0 -1 -3.05718e-5 0 -1 -3.07083e-5 0 -1 0.9992706 -0.03818988 0 0.9992719 -0.03815519 0 0.9992719 -0.03815495 0 0 0 1 1.46408e-5 0 1 -0.3529559 0.93564 0 -0.3529791 0.9356312 0 -0.3529793 0.9356312 0 0 0 -1 -2.09147e-6 0 -1 -2.10051e-6 0 -1 0.7099138 -0.7042887 1.33381e-4 0.7097488 -0.704455 1.98463e-4 0.7098438 -0.7043591 0 0 0 1 -8.78479e-6 0 1 0.2717463 -0.962369 0 0.2717829 -0.9623587 0 0.2717832 -0.9623585 0 -5.50093e-5 0 -1 2.34308e-5 0 -1 2.37829e-5 0 -1 -0.8075645 -0.5897793 0 -0.8075479 -0.589802 0 -0.8075479 -0.5898021 0 -2.05672e-7 0 1 -4.60757e-5 0 1 0.05451184 -0.9985132 0 0.05451095 -0.9985132 0 0.05451095 -0.9985132 0 -1.79324e-7 0 -1 -4.14126e-5 0 -1 -4.15919e-5 0 -1 0.352927 -0.935651 0 0.3529496 -0.9356424 0 0.3529497 -0.9356424 0 3.66568e-5 3.93374e-6 1 -1.45668e-4 -3.48376e-5 1 -5.69771e-6 0 1 -0.8100035 0.5864252 0 -0.8100036 0.5864249 0 0 0 -1 -3.97407e-6 0 -1 -3.99124e-6 0 -1 -0.271772 0.9623617 0 -0.27179 0.9623566 0 -0.2717902 0.9623566 0 0 0 1 2.54023e-5 0 1 -0.7812576 -0.6242089 0 -0.7812234 -0.6242516 0 -0.7812232 -0.6242518 0 1.10153e-4 0 -1 -1.82397e-5 0 -1 -1.88153e-5 0 -1 -0.05423587 0.9985283 0 -0.05423492 0.9985283 0 -0.05423492 0.9985283 0 3.15728e-5 0 1 -0.9992705 0.03819006 0 0.8100036 -0.5864249 0 0.933173 0.3594277 0 -5.53603e-5 0 -1 5.37721e-5 0 1 -1.26026e-6 0 -1 -0.9331914 -0.35938 0 4.24308e-5 0 1 0.2719171 -0.9623208 0 -2.59497e-6 0 -1 0.8835545 -0.4683285 0 -3.4597e-5 0 1 -0.9992704 0.03819149 0 1.09225e-5 0 -1 -0.1730949 -0.9849053 0 2.68882e-5 0 -1 -0.2717464 0.962369 0 9.9257e-5 0 1 4.33569e-5 0 1 -0.3529598 0.9356386 0 -2.10059e-6 0 -1 0.1732055 0.9848857 0 0.2717425 -0.9623701 0 0.1731085 0.9849028 0 -1.1072e-4 0 1 0.888895 0.458111 0 5.53589e-5 0 -1 0.3530022 -0.9356226 0 -1.00835e-5 0 1 -8.82202e-6 0 -1 -0.2717372 0.9623715 0 -0.7812696 -0.6241939 0 1.88128e-5 0 -1 -0.8888064 -0.4582829 0 3.15733e-5 0 1 -0.999274 0.0381006 0 -8.40205e-7 0 1 -2.98368e-5 0 1 0.8075053 0.5898604 0 0.9992706 -0.03819006 0 1.47042e-5 0 1 -0.3529558 0.93564 0 0.7101106 -0.7040902 0 -8.82274e-6 0 1 0.2717461 -0.962369 0 -5.53606e-5 0 -1 -0.8075646 -0.5897791 0 -4.62814e-5 0 1 0.0545119 -0.9985132 0 0.3529268 -0.935651 0 2.2801e-4 0 1 -0.8100035 0.5864252 0 -0.2717719 0.9623618 0 2.55155e-5 0 1 -0.7812578 -0.6242086 0 1.10729e-4 0 -1 -0.05423587 0.9985282 0</float_array>
          <technique_common>
            <accessor source="#Cube_057-mesh-normals-array" count="419" stride="3">
              <param name="X" type="float"/>
              <param name="Y" type="float"/>
              <param name="Z" type="float"/>
            </accessor>
          </technique_common>
        </source>
        <source id="Cube_057-mesh-map-0">
          <float_array id="Cube_057-mesh-map-0-array" count="1440">0.9984335 0.6838312 1.000765 0.001214206 0.001161634 6.92369e-4 0.9984335 0.6838312 0.001161634 6.92369e-4 5.39125e-4 0.6833093 0.9984335 0.6838312 0.001161634 6.92369e-4 1.000765 0.001214206 0.9984335 0.6838312 5.39125e-4 0.6833093 0.001161634 6.92369e-4 0.9984335 0.6838312 1.000765 0.001214206 0.001161634 6.92369e-4 0.9984335 0.6838312 0.001161634 6.92369e-4 5.39125e-4 0.6833093 0.9984335 0.6838312 0.001161634 6.92369e-4 1.000765 0.001214206 0.9984335 0.6838312 5.39125e-4 0.6833093 0.001161634 6.92369e-4 0.9984335 0.6838312 0.001161634 6.92369e-4 1.000765 0.001214206 0.9984335 0.6838312 5.39125e-4 0.6833093 0.001161634 6.92369e-4 0.9984335 0.6838312 1.000765 0.001214206 0.001161634 6.92369e-4 0.9984335 0.6838312 0.001161634 6.92369e-4 5.39125e-4 0.6833093 0.9984335 0.6838312 0.001161634 6.92369e-4 1.000765 0.001214206 0.9984335 0.6838312 5.39125e-4 0.6833093 0.001161634 6.92369e-4 0.9984335 0.6838312 0.001161634 6.92369e-4 1.000765 0.001214206 0.9984335 0.6838312 5.39125e-4 0.6833093 0.001161634 6.92369e-4 0.9984335 0.6838312 1.000765 0.001214206 0.001161634 6.92369e-4 0.9984335 0.6838312 0.001161634 6.92369e-4 5.39125e-4 0.6833093 0.9984335 0.6838312 0.001161634 6.92369e-4 1.000765 0.001214206 0.9984335 0.6838312 5.39125e-4 0.6833093 0.001161634 6.92369e-4 0.9984335 0.6838312 1.000765 0.001214206 0.001161634 6.92369e-4 0.9984335 0.6838312 0.001161634 6.92369e-4 5.39125e-4 0.6833093 0.9984335 0.6838312 0.001161634 6.92369e-4 1.000765 0.001214206 0.9984335 0.6838312 5.39125e-4 0.6833093 0.001161634 6.92369e-4 0.9984335 0.6838312 1.000765 0.001214206 0.001161634 6.92369e-4 0.9984335 0.6838312 0.001161634 6.92369e-4 5.39125e-4 0.6833093 0.9984335 0.6838312 0.001161634 6.92369e-4 1.000765 0.001214206 0.9984335 0.6838312 5.39125e-4 0.6833093 0.001161634 6.92369e-4 0.9984335 0.6838312 1.000765 0.001214206 0.001161634 6.92369e-4 0.9984335 0.6838312 0.001161634 6.92369e-4 5.39125e-4 0.6833093 0.9984335 0.6838312 1.000765 0.001214206 0.001161634 6.92369e-4 0.9984335 0.6838312 0.001161634 6.92369e-4 5.39125e-4 0.6833093 0.9984335 0.6838312 0.001161634 6.92369e-4 1.000765 0.001214206 0.9984335 0.6838312 5.39125e-4 0.6833093 0.001161634 6.92369e-4 0.9984335 0.6838312 1.000765 0.001214206 0.001161634 6.92369e-4 0.9984335 0.6838312 0.001161634 6.92369e-4 5.39125e-4 0.6833093 0.9984335 0.6838312 1.000765 0.001214206 0.001161634 6.92369e-4 0.9984335 0.6838312 0.001161634 6.92369e-4 5.39125e-4 0.6833093 0.9984335 0.6838312 0.001161634 6.92369e-4 1.000765 0.001214206 0.9984335 0.6838312 5.39125e-4 0.6833093 0.001161634 6.92369e-4 0.9984335 0.6838312 0.001161634 6.92369e-4 1.000765 0.001214206 0.9984335 0.6838312 5.39125e-4 0.6833093 0.001161634 6.92369e-4 0.9984335 0.6838312 1.000765 0.001214206 0.001161634 6.92369e-4 0.9984335 0.6838312 0.001161634 6.92369e-4 5.39125e-4 0.6833093 0.9984335 0.6838312 0.001161634 6.92369e-4 1.000765 0.001214206 0.9984335 0.6838312 5.39125e-4 0.6833093 0.001161634 6.92369e-4 0.9984335 0.6838312 1.000765 0.001214206 0.001161634 6.92369e-4 0.9984335 0.6838312 0.001161634 6.92369e-4 5.39125e-4 0.6833093 0.9984335 0.6838312 1.000765 0.001214206 0.001161634 6.92369e-4 0.9984335 0.6838312 0.001161634 6.92369e-4 5.39125e-4 0.6833093 0.9984335 0.6838312 0.001161634 6.92369e-4 1.000765 0.001214206 0.9984335 0.6838312 5.39125e-4 0.6833093 0.001161634 6.92369e-4 0.9984335 0.6838312 1.000765 0.001214206 0.001161634 6.92369e-4 0.9984335 0.6838312 0.001161634 6.92369e-4 5.39125e-4 0.6833093 0.9984335 0.6838312 1.000765 0.001214206 0.001161634 6.92369e-4 0.9984335 0.6838312 0.001161634 6.92369e-4 5.39125e-4 0.6833093 0.9984335 0.6838312 0.001161634 6.92369e-4 1.000765 0.001214206 0.9984335 0.6838312 5.39125e-4 0.6833093 0.001161634 6.92369e-4 0.9984335 0.6838312 1.000765 0.001214206 0.001161634 6.92369e-4 0.9984335 0.6838312 0.001161634 6.92369e-4 5.39125e-4 0.6833093 0.9984335 0.6838312 0.001161634 6.92369e-4 1.000765 0.001214206 0.9984335 0.6838312 5.39125e-4 0.6833093 0.001161634 6.92369e-4 0.9984335 0.6838312 1.000765 0.001214206 0.001161634 6.92369e-4 0.9984335 0.6838312 0.001161634 6.92369e-4 5.39125e-4 0.6833093 0.9984335 0.6838312 0.001161634 6.92369e-4 1.000765 0.001214206 0.9984335 0.6838312 5.39125e-4 0.6833093 0.001161634 6.92369e-4 0.9984335 0.6838312 1.000765 0.001214206 0.001161634 6.92369e-4 0.9984335 0.6838312 0.001161634 6.92369e-4 5.39125e-4 0.6833093 0.9984335 0.6838312 0.001161634 6.92369e-4 1.000765 0.001214206 0.9984335 0.6838312 5.39125e-4 0.6833093 0.001161634 6.92369e-4 0.9984335 0.6838312 0.001161634 6.92369e-4 1.000765 0.001214206 0.9984335 0.6838312 5.39125e-4 0.6833093 0.001161634 6.92369e-4 0.9984335 0.6838312 1.000765 0.001214206 0.001161634 6.92369e-4 0.9984335 0.6838312 0.001161634 6.92369e-4 5.39125e-4 0.6833093 0.9984335 0.6838312 0.001161634 6.92369e-4 1.000765 0.001214206 0.9984335 0.6838312 5.39125e-4 0.6833093 0.001161634 6.92369e-4 0.9984335 0.6838312 0.001161634 6.92369e-4 1.000765 0.001214206 0.9984335 0.6838312 5.39125e-4 0.6833093 0.001161634 6.92369e-4 0.9984335 0.6838312 1.000765 0.001214206 0.001161634 6.92369e-4 0.9984335 0.6838312 0.001161634 6.92369e-4 5.39125e-4 0.6833093 0.9984335 0.6838312 5.39125e-4 0.6833093 0.9984335 0.6838312 0.9984335 0.6838312 1.000765 0.001214206 1.000765 0.001214206 0.001161634 6.92369e-4 1.000765 0.001214206 1.000765 0.001214206 5.39125e-4 0.6833093 0.001161634 6.92369e-4 0.001161634 6.92369e-4 5.39125e-4 0.6833093 0.9984335 0.6838312 0.9984335 0.6838312 1.000765 0.001214206 0.9984335 0.6838312 0.9984335 0.6838312 0.001161634 6.92369e-4 1.000765 0.001214206 1.000765 0.001214206 0.001161634 6.92369e-4 5.39125e-4 0.6833093 5.39125e-4 0.6833093 0.9984335 0.6838312 5.39125e-4 0.6833093 5.39125e-4 0.6833093 0.9984335 0.6838312 1.000765 0.001214206 1.000765 0.001214206 1.000765 0.001214206 0.001161634 6.92369e-4 0.001161634 6.92369e-4 0.001161634 6.92369e-4 5.39125e-4 0.6833093 5.39125e-4 0.6833093 5.39125e-4 0.6833093 0.9984335 0.6838312 0.9984335 0.6838312 0.9984335 0.6838312 1.000765 0.001214206 1.000765 0.001214206 0.001161634 6.92369e-4 1.000765 0.001214206 0.001161634 6.92369e-4 5.39125e-4 0.6833093 0.001161634 6.92369e-4 0.001161634 6.92369e-4 0.9984335 0.6838312 5.39125e-4 0.6833093 0.9984335 0.6838312 1.000765 0.001214206 0.9984335 0.6838312 0.9984335 0.6838312 1.000765 0.001214206 0.001161634 6.92369e-4 1.000765 0.001214206 0.001161634 6.92369e-4 5.39125e-4 0.6833093 5.39125e-4 0.6833093 5.39125e-4 0.6833093 0.9984335 0.6838312 5.39125e-4 0.6833093 0.9984335 0.6838312 1.000765 0.001214206 1.000765 0.001214206 0.001161634 6.92369e-4 1.000765 0.001214206 0.001161634 6.92369e-4 0.001161634 6.92369e-4 5.39125e-4 0.6833093 5.39125e-4 0.6833093 5.39125e-4 0.6833093 0.9984335 0.6838312 0.9984335 0.6838312 1.000765 0.001214206 0.9984335 0.6838312 0.9984335 0.6838312 1.000765 0.001214206 0.001161634 6.92369e-4 0.001161634 6.92369e-4 5.39125e-4 0.6833093 0.001161634 6.92369e-4 0.001161634 6.92369e-4 5.39125e-4 0.6833093 0.9984335 0.6838312 5.39125e-4 0.6833093 1.000765 0.001214206 0.9984335 0.6838312 0.9984335 0.6838312 0.001161634 6.92369e-4 1.000765 0.001214206 1.000765 0.001214206 0.001161634 6.92369e-4 5.39125e-4 0.6833093 5.39125e-4 0.6833093 5.39125e-4 0.6833093 0.9984335 0.6838312 5.39125e-4 0.6833093 0.9984335 0.6838312 1.000765 0.001214206 1.000765 0.001214206 0.001161634 6.92369e-4 1.000765 0.001214206 0.001161634 6.92369e-4 5.39125e-4 0.6833093 0.001161634 6.92369e-4 0.001161634 6.92369e-4 5.39125e-4 0.6833093 0.9984335 0.6838312 0.9984335 0.6838312 1.000765 0.001214206 0.9984335 0.6838312 0.9984335 0.6838312 0.001161634 6.92369e-4 1.000765 0.001214206 1.000765 0.001214206 5.39125e-4 0.6833093 0.001161634 6.92369e-4 0.001161634 6.92369e-4 0.9984335 0.6838312 5.39125e-4 0.6833093 5.39125e-4 0.6833093 1.000765 0.001214206 0.9984335 0.6838312 0.9984335 0.6838312 0.001161634 6.92369e-4 1.000765 0.001214206 1.000765 0.001214206 0.001161634 6.92369e-4 5.39125e-4 0.6833093 5.39125e-4 0.6833093 5.39125e-4 0.6833093 0.9984335 0.6838312 5.39125e-4 0.6833093 0.001161634 6.92369e-4 1.000765 0.001214206 0.001161634 6.92369e-4 5.39125e-4 0.6833093 0.001161634 6.92369e-4 0.001161634 6.92369e-4 0.9984335 0.6838312 1.000765 0.001214206 1.000765 0.001214206 1.000765 0.001214206 0.001161634 6.92369e-4 1.000765 0.001214206 5.39125e-4 0.6833093 0.001161634 6.92369e-4 0.001161634 6.92369e-4 0.9984335 0.6838312 5.39125e-4 0.6833093 0.9984335 0.6838312 0.9984335 0.6838312 1.000765 0.001214206 1.000765 0.001214206 0.001161634 6.92369e-4 1.000765 0.001214206 1.000765 0.001214206 0.9984335 0.6838312 5.39125e-4 0.6833093 0.9984335 0.6838312 0.9984335 0.6838312 1.000765 0.001214206 1.000765 0.001214206 0.001161634 6.92369e-4 5.39125e-4 0.6833093 5.39125e-4 0.6833093 0.9984335 0.6838312 5.39125e-4 0.6833093 0.9984335 0.6838312 0.9984335 0.6838312 1.000765 0.001214206 1.000765 0.001214206 1.000765 0.001214206 0.001161634 6.92369e-4 0.001161634 6.92369e-4 0.001161634 6.92369e-4 5.39125e-4 0.6833093 5.39125e-4 0.6833093 0.9984335 0.6838312 5.39125e-4 0.6833093 0.9984335 0.6838312 1.000765 0.001214206 0.9984335 0.6838312 0.9984335 0.6838312 1.000765 0.001214206 0.001161634 6.92369e-4 0.001161634 6.92369e-4 0.001161634 6.92369e-4 5.39125e-4 0.6833093 5.39125e-4 0.6833093 5.39125e-4 0.6833093 0.9984335 0.6838312 5.39125e-4 0.6833093 1.000765 0.001214206 0.9984335 0.6838312 0.9984335 0.6838312 1.000765 0.001214206 0.001161634 6.92369e-4 0.001161634 6.92369e-4 0.001161634 6.92369e-4 5.39125e-4 0.6833093 5.39125e-4 0.6833093 5.39125e-4 0.6833093 0.9984335 0.6838312 5.39125e-4 0.6833093 1.000765 0.001214206 0.9984335 0.6838312 0.9984335 0.6838312 1.000765 0.001214206 0.001161634 6.92369e-4 0.001161634 6.92369e-4 5.39125e-4 0.6833093 0.001161634 6.92369e-4 0.001161634 6.92369e-4 0.9984335 0.6838312 5.39125e-4 0.6833093 5.39125e-4 0.6833093 1.000765 0.001214206 0.9984335 0.6838312 0.9984335 0.6838312 0.001161634 6.92369e-4 1.000765 0.001214206 1.000765 0.001214206 5.39125e-4 0.6833093 0.001161634 6.92369e-4 0.001161634 6.92369e-4 5.39125e-4 0.6833093 0.9984335 0.6838312 5.39125e-4 0.6833093 0.9984335 0.6838312 1.000765 0.001214206 1.000765 0.001214206 0.001161634 6.92369e-4 1.000765 0.001214206 1.000765 0.001214206 5.39125e-4 0.6833093 0.001161634 6.92369e-4 0.001161634 6.92369e-4 0.9984335 0.6838312 5.39125e-4 0.6833093 5.39125e-4 0.6833093 0.9984335 0.6838312 0.9984335 0.6838312 1.000765 0.001214206 0.001161634 6.92369e-4 0.001161634 6.92369e-4 1.000765 0.001214206 5.39125e-4 0.6833093 5.39125e-4 0.6833093 0.001161634 6.92369e-4 5.39125e-4 0.6833093 5.39125e-4 0.6833093 0.9984335 0.6838312 1.000765 0.001214206 1.000765 0.001214206 0.9984335 0.6838312 0.001161634 6.92369e-4 0.001161634 6.92369e-4 1.000765 0.001214206 0.001161634 6.92369e-4 0.001161634 6.92369e-4 5.39125e-4 0.6833093 0.9984335 0.6838312 0.9984335 0.6838312 5.39125e-4 0.6833093 0.9984335 0.6838312 0.9984335 0.6838312 1.000765 0.001214206 1.000765 0.001214206 1.000765 0.001214206 0.001161634 6.92369e-4 0.001161634 6.92369e-4 0.001161634 6.92369e-4 5.39125e-4 0.6833093 5.39125e-4 0.6833093 5.39125e-4 0.6833093 0.9984335 0.6838312 0.9984335 0.6838312 0.9984335 0.6838312 1.000765 0.001214206 0.001161634 6.92369e-4 1.000765 0.001214206 1.000765 0.001214206 5.39125e-4 0.6833093 5.39125e-4 0.6833093 0.001161634 6.92369e-4 0.9984335 0.6838312 5.39125e-4 0.6833093 5.39125e-4 0.6833093 1.000765 0.001214206 1.000765 0.001214206 0.9984335 0.6838312 1.000765 0.001214206 0.001161634 6.92369e-4 0.001161634 6.92369e-4 0.001161634 6.92369e-4 0.001161634 6.92369e-4 5.39125e-4 0.6833093 5.39125e-4 0.6833093 0.9984335 0.6838312 0.9984335 0.6838312 0.9984335 0.6838312 0.9984335 0.6838312 1.000765 0.001214206 0.001161634 6.92369e-4 1.000765 0.001214206 1.000765 0.001214206 0.001161634 6.92369e-4 0.001161634 6.92369e-4 5.39125e-4 0.6833093 5.39125e-4 0.6833093 5.39125e-4 0.6833093 0.9984335 0.6838312 1.000765 0.001214206 1.000765 0.001214206 0.9984335 0.6838312 1.000765 0.001214206 1.000765 0.001214206 0.001161634 6.92369e-4 5.39125e-4 0.6833093 5.39125e-4 0.6833093 0.001161634 6.92369e-4 5.39125e-4 0.6833093 0.9984335 0.6838312 0.9984335 0.6838312 1.000765 0.001214206 1.000765 0.001214206 0.9984335 0.6838312 0.001161634 6.92369e-4 0.001161634 6.92369e-4 1.000765 0.001214206 0.001161634 6.92369e-4 0.001161634 6.92369e-4 5.39125e-4 0.6833093 5.39125e-4 0.6833093 0.9984335 0.6838312 0.9984335 0.6838312 0.9984335 0.6838312 0.9984335 0.6838312 1.000765 0.001214206 0.001161634 6.92369e-4 1.000765 0.001214206 1.000765 0.001214206 5.39125e-4 0.6833093 5.39125e-4 0.6833093 0.001161634 6.92369e-4 5.39125e-4 0.6833093 5.39125e-4 0.6833093 0.9984335 0.6838312 1.000765 0.001214206 1.000765 0.001214206 0.9984335 0.6838312 0.001161634 6.92369e-4 0.001161634 6.92369e-4 1.000765 0.001214206 5.39125e-4 0.6833093 5.39125e-4 0.6833093 0.001161634 6.92369e-4 0.9984335 0.6838312 0.9984335 0.6838312 5.39125e-4 0.6833093 1.000765 0.001214206 1.000765 0.001214206 0.9984335 0.6838312 0.001161634 6.92369e-4 0.001161634 6.92369e-4 1.000765 0.001214206 0.001161634 6.92369e-4 0.001161634 6.92369e-4 5.39125e-4 0.6833093 5.39125e-4 0.6833093 0.9984335 0.6838312 0.9984335 0.6838312 0.001161634 6.92369e-4 1.000765 0.001214206 1.000765 0.001214206 5.39125e-4 0.6833093 5.39125e-4 0.6833093 0.001161634 6.92369e-4 0.9984335 0.6838312 0.9984335 0.6838312 1.000765 0.001214206 1.000765 0.001214206 0.001161634 6.92369e-4 0.001161634 6.92369e-4 5.39125e-4 0.6833093 5.39125e-4 0.6833093 0.001161634 6.92369e-4 0.9984335 0.6838312 5.39125e-4 0.6833093 5.39125e-4 0.6833093 0.9984335 0.6838312 0.9984335 0.6838312 1.000765 0.001214206 0.001161634 6.92369e-4 0.001161634 6.92369e-4 1.000765 0.001214206 0.9984335 0.6838312 5.39125e-4 0.6833093 5.39125e-4 0.6833093 0.9984335 0.6838312 0.9984335 0.6838312 1.000765 0.001214206 0.001161634 6.92369e-4 0.001161634 6.92369e-4 5.39125e-4 0.6833093 0.9984335 0.6838312 5.39125e-4 0.6833093 5.39125e-4 0.6833093 0.9984335 0.6838312 0.9984335 0.6838312 1.000765 0.001214206 1.000765 0.001214206 1.000765 0.001214206 0.001161634 6.92369e-4 0.001161634 6.92369e-4 0.001161634 6.92369e-4 5.39125e-4 0.6833093 0.9984335 0.6838312 5.39125e-4 0.6833093 5.39125e-4 0.6833093 1.000765 0.001214206 1.000765 0.001214206 0.9984335 0.6838312 1.000765 0.001214206 1.000765 0.001214206 0.001161634 6.92369e-4 0.001161634 6.92369e-4 0.001161634 6.92369e-4 5.39125e-4 0.6833093 5.39125e-4 0.6833093 0.9984335 0.6838312 0.9984335 0.6838312 1.000765 0.001214206 1.000765 0.001214206 0.9984335 0.6838312 1.000765 0.001214206 1.000765 0.001214206 0.001161634 6.92369e-4 0.001161634 6.92369e-4 0.001161634 6.92369e-4 5.39125e-4 0.6833093 5.39125e-4 0.6833093 0.9984335 0.6838312 0.9984335 0.6838312 1.000765 0.001214206 1.000765 0.001214206 0.9984335 0.6838312 1.000765 0.001214206 1.000765 0.001214206 0.001161634 6.92369e-4 5.39125e-4 0.6833093 5.39125e-4 0.6833093 0.001161634 6.92369e-4 0.9984335 0.6838312 0.9984335 0.6838312 5.39125e-4 0.6833093 1.000765 0.001214206 1.000765 0.001214206 0.9984335 0.6838312 0.001161634 6.92369e-4 0.001161634 6.92369e-4 1.000765 0.001214206 5.39125e-4 0.6833093 5.39125e-4 0.6833093 0.001161634 6.92369e-4 5.39125e-4 0.6833093 0.9984335 0.6838312 0.9984335 0.6838312 0.9984335 0.6838312 0.9984335 0.6838312 1.000765 0.001214206 0.001161634 6.92369e-4 0.001161634 6.92369e-4 1.000765 0.001214206 5.39125e-4 0.6833093 5.39125e-4 0.6833093 0.001161634 6.92369e-4</float_array>
          <technique_common>
            <accessor source="#Cube_057-mesh-map-0-array" count="720" stride="2">
              <param name="S" type="float"/>
              <param name="T" type="float"/>
            </accessor>
          </technique_common>
        </source>
        <source id="Cube_057-mesh-map-1">
          <float_array id="Cube_057-mesh-map-1-array" count="1440">0.5676767 0.6866334 0.7081904 0.6866334 0.7081904 0.8478741 0.5676767 0.6866334 0.7081904 0.8478741 0.5676767 0.8478741 0.2838383 0.1764001 0.424352 0 0.424352 0.1764001 0.2838383 0.1764001 0.2838383 0 0.424352 0 0 0.1864398 0.1405137 0.1864398 0.1405137 0.3714604 0 0.1864398 0.1405137 0.3714604 0 0.3714604 0.1419192 0.5473788 0.2824329 0.3728795 0.2824329 0.5473788 0.1419192 0.5473788 0.1419192 0.3728795 0.2824329 0.3728795 0 0.8600314 0.1405137 0.7148256 0.1405137 0.8600314 0 0.8600314 0 0.7148256 0.1405137 0.7148256 0.5676767 0.5165168 0.7081904 0.5165168 0.7081904 0.6852142 0.5676767 0.5165168 0.7081904 0.6852142 0.5676767 0.6852142 0.1419191 0.7134055 0.2824329 0.5487979 0.2824329 0.7134055 0.1419191 0.7134055 0.1419192 0.5487979 0.2824329 0.5487979 0.8515151 0.573189 0.9783971 0.7150672 0.8515151 0.7150672 0.8515151 0.573189 0.9783971 0.573189 0.9783971 0.7150672 0.4257575 0.1759184 0.5662712 0.1759184 0.5662712 0.3477004 0.4257575 0.1759184 0.5662712 0.3477004 0.4257575 0.3477003 0.2838383 0.8513838 0.4203664 0.9932619 0.2838383 0.9932619 0.2838383 0.8513838 0.4203664 0.8513838 0.4203664 0.9932619 0.4257576 0.5315565 0.5662713 0.5315565 0.5662712 0.7033383 0.4257576 0.5315565 0.5662712 0.7033383 0.4257575 0.7033383 0.5676767 0.8492932 0.7042048 0.9911713 0.5676767 0.9911713 0.5676767 0.8492932 0.7042048 0.8492932 0.7042048 0.9911713 0.2838384 0.5315565 0.4243521 0.5315565 0.424352 0.7033383 0.2838384 0.5315565 0.424352 0.7033383 0.2838384 0.7033383 0.4257575 0.8480547 0.5622857 0.9899328 0.4257575 0.9899328 0.4257575 0.8480547 0.5622857 0.8480547 0.5622857 0.9899328 0.9814545 0.2865945 0.9814545 0.4284726 0.8515151 0.4284726 0.9814545 0.2865945 0.8515151 0.4284726 0.8515151 0.2865945 0.7095959 0.4861614 0.8501095 0.4861614 0.8501095 0.6464927 0.7095959 0.4861614 0.8501095 0.6464927 0.7095958 0.6464927 0.8515151 0 0.9814556 0.1418781 0.8515151 0.1418781 0.8515151 0 0.9814556 0 0.9814556 0.1418781 0.7095958 0.6479119 0.8501095 0.6479119 0.8501095 0.8082431 0.7095958 0.6479119 0.8501095 0.8082431 0.7095958 0.8082431 0.1419191 0.1864399 0.2824329 0.1864399 0.2824328 0.3714603 0.1419191 0.1864399 0.2824328 0.3714603 0.1419191 0.3714603 0.4257575 0.1744993 0.5662712 0 0.5662712 0.1744993 0.4257575 0.1744993 0.4257575 0 0.5662712 0 0.7095959 0.16124 0.8501095 0 0.8501095 0.1612401 0.7095959 0.16124 0.7095959 0 0.8501095 0 0.2838383 0.1778192 0.4243519 0.1778193 0.4243519 0.3542185 0.2838383 0.1778192 0.4243519 0.3542185 0.2838382 0.3542185 0.1419192 0.1850206 0.2824329 0 0.2824329 0.1850207 0.1419192 0.1850206 0.1419192 0 0.2824329 0 0 0.3728796 0.1405137 0.3728796 0.1405137 0.5473792 0 0.3728796 0.1405137 0.5473792 0 0.5473792 0.2838384 0.7047575 0.424352 0.7047575 0.424352 0.8499646 0.2838384 0.7047575 0.424352 0.8499646 0.2838383 0.8499646 0.5676767 0.5150976 0.7081905 0.3463984 0.7081904 0.5150976 0.5676767 0.5150976 0.5676767 0.3463984 0.7081905 0.3463984 0 0.5487983 0.1405137 0.5487983 0.1405137 0.7134063 0 0.5487983 0.1405137 0.7134063 0 0.7134063 0.9783983 0.4298918 0.9783983 0.5717699 0.8515151 0.5717699 0.9783983 0.4298918 0.8515151 0.5717699 0.8515151 0.4298918 0.4257575 0.5301374 0.5662712 0.3583571 0.5662711 0.5301374 0.4257575 0.5301374 0.4257575 0.3583571 0.5662712 0.3583571 0.2824329 0.7148245 0.2824329 0.8567026 0.1459037 0.8567026 0.2824329 0.7148245 0.1459037 0.8567026 0.1459037 0.7148245 0.5676767 0.3449792 0.7081905 0.1731994 0.7081905 0.3449792 0.5676767 0.3449792 0.5676768 0.1731994 0.7081905 0.1731994 0.5622867 0.7047574 0.5622867 0.8466355 0.4257575 0.8466355 0.5622867 0.7047574 0.4257575 0.8466355 0.4257575 0.7047574 0.5676768 0.1717802 0.7081905 0 0.7081905 0.1717802 0.5676768 0.1717802 0.5676768 0 0.7081905 0 0.846125 0.8096623 0.846125 0.9515404 0.7095959 0.9515404 0.846125 0.8096623 0.7095959 0.9515404 0.7095959 0.8096623 0.8475304 0.8096623 0.9774711 0.9515404 0.8475304 0.9515404 0.8475304 0.8096623 0.9774711 0.8096623 0.9774711 0.9515404 0.7095959 0.3229911 0.8501095 0.1626592 0.8501095 0.3229911 0.7095959 0.3229911 0.7095959 0.1626592 0.8501095 0.1626592 0.9814546 0.1432973 0.9814546 0.2851754 0.8515151 0.2851754 0.9814546 0.1432973 0.8515151 0.2851754 0.8515151 0.1432973 0.7095959 0.4847423 0.8501095 0.3244104 0.8501095 0.4847423 0.7095959 0.4847423 0.7095959 0.3244104 0.8501095 0.3244104 0 0.1850207 0.1405137 0 0.1405136 0.1850208 0 0.1850207 0 0 0.1405137 0 0.2838383 0.3556377 0.424352 0.3556377 0.4243519 0.5301374 0.2838383 0.3556377 0.4243519 0.5301374 0.2838383 0.5301374 0.9995923 0.792913 0.9983486 0.9730044 0.9983485 0.792913 0.1745859 0.8581219 0.1757383 1 0.1745859 1 0.9841049 0.1853951 0.9828611 3.78264e-7 0.9841049 0 0.1511971 0.8581219 0.1524153 1 0.1511971 1 0.9828612 0.1868143 0.9841049 0.3722093 0.9828611 0.3722093 0.2272081 1 0.2263234 0.8581219 0.2272081 0.8581219 0.99305 0.6114023 0.9942938 0.7914936 0.99305 0.7914936 0.1935078 1 0.1924006 0.8581219 0.1935078 0.8581219 0.9920526 0.361602 0.9908089 0.1815106 0.9920526 0.1815106 0.7056102 0.8492932 0.7068515 0.9911713 0.7056102 0.9911713 0.9956994 0.7929128 0.9969431 0.9730042 0.9956994 0.9730042 0.1859697 1 0.1848174 0.8581219 0.1859697 0.8581219 0.9798038 0.4298918 0.9810476 0.6152868 0.9798037 0.615287 0.1459037 0.8581219 0.1471449 1 0.1459037 1 0.986346 0.4298917 0.9851023 0.6152867 0.9851024 0.4298917 0.2286136 0.8581219 0.2294983 1 0.2286136 1 0.9855104 0.3722093 0.9867541 0.1868143 0.9867541 0.3722093 0.2202031 1 0.2192511 0.8581219 0.2202031 0.8581219 0.9930502 0.6099832 0.9942939 0.4298918 0.9942939 0.6099832 0.4230131 0.9932619 0.4217718 0.8513838 0.4230131 0.8513838 0.9908089 0.1800915 0.9920526 2.0929e-7 0.9920526 0.1800915 0.1771438 0.8581219 0.1782962 1 0.1771438 1 0.9810476 0.6167061 0.9798038 0.802101 0.9798038 0.616706 0.1497916 1 0.1485505 0.8581219 0.1497916 0.8581219 0.9877516 0.6167059 0.9889953 0.8021009 0.9877516 0.8021009 0.1602603 1 0.1590552 0.8581219 0.1602603 0.8581219 0.9889953 0.6152868 0.9877516 0.4298918 0.9889953 0.4298918 0.2145361 0.8581219 0.2154881 1 0.2145361 1 0.9934581 0.1800914 0.9947018 0 0.9947018 0.1800912 0.1628709 1 0.1616658 0.8581219 0.1628709 0.8581219 0.9916444 0.9730042 0.9904007 0.792913 0.9916445 0.7929128 0.1834119 1 0.1822595 0.8581219 0.1834119 0.8581219 0.9983486 0.6099831 0.9995923 0.4298917 0.9995923 0.6099831 0.2331897 0.8581219 0.2340699 1 0.2331897 1 0.9889953 0.8035203 0.9877516 0.9889153 0.9877516 0.8035203 0.1564446 0.8581219 0.1576497 1 0.1564446 1 0.9824531 0.4298917 0.9836968 0.6152867 0.9824531 0.6152867 0.2178457 1 0.2168936 0.8581219 0.2178457 0.8581219 0.997351 0.1800913 0.9961073 0 0.997351 0 0.1642764 0.8581219 0.1654814 1 0.1642764 1 0.993458 0.1815106 0.9947017 0.3616019 0.993458 0.361602 0.2107731 1 0.2097992 0.8581219 0.2107731 0.8581219 0.9995923 0.7914937 0.9983486 0.6114024 0.9995923 0.6114024 0.2386411 1 0.2377611 0.8581219 0.2386411 0.8581219 0.9836968 0.8035203 0.9824531 0.9889152 0.9824531 0.8035202 0.9810475 0.8035203 0.9798037 0.9889153 0.979804 0.8035203 0.2121785 0.8581219 0.2131307 1 0.2121785 1 0.1873752 0.8581219 0.1884825 1 0.1873752 1 0.9969431 0.4298918 0.9956994 0.6099832 0.9956995 0.4298918 0.2074196 0.8581219 0.2083937 1 0.2074196 1 0.9942938 0.7929128 0.9930502 0.9730042 0.99305 0.7929128 0.172028 0.8581219 0.1731805 1 0.172028 1 0.9855104 0 0.9867541 0.185395 0.9855105 0.1853948 0.9851024 0.8021008 0.9863461 0.6167058 0.9863461 0.8021005 0.1694575 0.8581219 0.1706225 1 0.1694575 1 0.1960204 1 0.1949133 0.8581219 0.1960204 0.8581219 0.990401 0.6099832 0.9916446 0.4298918 0.9916446 0.6099832 0.2049325 0.8581219 0.2060141 1 0.2049325 1 0.9956994 0.6114023 0.9969431 0.7914937 0.9956995 0.7914937 0.180854 1 0.1797017 0.8581219 0.180854 0.8581219 0.9881595 0.185395 0.9894032 0 0.9894031 0.1853951 0.2363556 1 0.2354754 0.8581219 0.2363556 0.8581219 0.9863461 0.9889153 0.9851024 0.8035203 0.9863461 0.8035203 0.168052 1 0.1668869 0.8581219 0.168052 0.8581219 0.5649361 0.7047575 0.5636925 0.8901525 0.5636922 0.7047575 0.224918 1 0.223966 0.8581219 0.224918 0.8581219 0.9916446 0.7914937 0.9904007 0.6114023 0.9916446 0.6114025 0.203527 1 0.2024454 0.8581219 0.203527 0.8581219 0.9987565 0.1800914 1 0 1 0.1800915 0.2010399 1 0.1999357 0.8581219 0.2010399 0.8581219 0.9894032 0.3722093 0.9881595 0.1868143 0.9894032 0.1868143 0.2309038 0.8581219 0.2317842 1 0.2309038 1 0.9824531 0.616706 0.9836969 0.8021011 0.9824532 0.8021011 0.155039 1 0.1538208 0.8581219 0.155039 0.8581219 0.1432543 0.7148245 0.144498 0.9002195 0.1432543 0.9002195 0.2216086 0.8581219 0.2225605 1 0.2216086 1 0.997351 0.1815106 0.9961073 0.3616019 0.9961073 0.1815106 0.1898879 0.8581219 0.1909952 1 0.1898879 1 1 0.361602 0.9987564 0.1815106 1 0.1815106 0.197426 0.8581219 0.1985303 1 0.197426 1 0.9995923 0.792913 0.9995922 0.9730044 0.9983486 0.9730044 0.1745859 0.8581219 0.1757383 0.8581219 0.1757383 1 0.9841049 0.1853951 0.9828611 0.1853951 0.9828611 3.78264e-7 0.1511971 0.8581219 0.1524153 0.8581219 0.1524153 1 0.9828612 0.1868143 0.9841049 0.1868144 0.9841049 0.3722093 0.2272081 1 0.2263234 1 0.2263234 0.8581219 0.99305 0.6114023 0.9942938 0.6114023 0.9942938 0.7914936 0.1935078 1 0.1924006 1 0.1924006 0.8581219 0.9920526 0.361602 0.9908089 0.361602 0.9908089 0.1815106 0.7056102 0.8492932 0.7068515 0.8492932 0.7068515 0.9911713 0.9956994 0.7929128 0.9969431 0.7929128 0.9969431 0.9730042 0.1859697 1 0.1848174 1 0.1848174 0.8581219 0.9798038 0.4298918 0.9810476 0.4298918 0.9810476 0.6152868 0.1459037 0.8581219 0.1471449 0.8581219 0.1471449 1 0.986346 0.4298917 0.986346 0.6152867 0.9851023 0.6152867 0.2286136 0.8581219 0.2294983 0.8581219 0.2294983 1 0.9855104 0.3722093 0.9855104 0.1868143 0.9867541 0.1868143 0.2202031 1 0.2192511 1 0.2192511 0.8581219 0.9930502 0.6099832 0.9930502 0.4298918 0.9942939 0.4298918 0.4230131 0.9932619 0.4217718 0.9932619 0.4217718 0.8513838 0.9908089 0.1800915 0.9908088 0 0.9920526 2.0929e-7 0.1771438 0.8581219 0.1782962 0.8581219 0.1782962 1 0.9810476 0.6167061 0.9810476 0.8021011 0.9798038 0.802101 0.1497916 1 0.1485505 1 0.1485505 0.8581219 0.9877516 0.6167059 0.9889953 0.6167059 0.9889953 0.8021009 0.1602603 1 0.1590552 1 0.1590552 0.8581219 0.9889953 0.6152868 0.9877516 0.6152868 0.9877516 0.4298918 0.2145361 0.8581219 0.2154881 0.8581219 0.2154881 1 0.9934581 0.1800914 0.9934581 0 0.9947018 0 0.1628709 1 0.1616658 1 0.1616658 0.8581219 0.9916444 0.9730042 0.9904007 0.9730042 0.9904007 0.792913 0.1834119 1 0.1822595 1 0.1822595 0.8581219 0.9983486 0.6099831 0.9983486 0.4298917 0.9995923 0.4298917 0.2331897 0.8581219 0.2340699 0.8581219 0.2340699 1 0.9889953 0.8035203 0.9889953 0.9889154 0.9877516 0.9889153 0.1564446 0.8581219 0.1576497 0.8581219 0.1576497 1 0.9824531 0.4298917 0.9836965 0.4298918 0.9836968 0.6152867 0.2178457 1 0.2168936 1 0.2168936 0.8581219 0.997351 0.1800913 0.9961072 0.1800912 0.9961073 0 0.1642764 0.8581219 0.1654814 0.8581219 0.1654814 1 0.993458 0.1815106 0.9947018 0.1815106 0.9947017 0.3616019 0.2107731 1 0.2097992 1 0.2097992 0.8581219 0.9995923 0.7914937 0.9983486 0.7914937 0.9983486 0.6114024 0.2386411 1 0.2377611 1 0.2377611 0.8581219 0.9836968 0.8035203 0.9836966 0.988915 0.9824531 0.9889152 0.9810475 0.8035203 0.9810475 0.9889153 0.9798037 0.9889153 0.2121785 0.8581219 0.2131307 0.8581219 0.2131307 1 0.1873752 0.8581219 0.1884825 0.8581219 0.1884825 1 0.9969431 0.4298918 0.9969431 0.6099832 0.9956994 0.6099832 0.2074196 0.8581219 0.2083937 0.8581219 0.2083937 1 0.9942938 0.7929128 0.9942938 0.9730042 0.9930502 0.9730042 0.172028 0.8581219 0.1731805 0.8581219 0.1731805 1 0.9855104 0 0.9867541 0 0.9867541 0.185395 0.9851024 0.8021008 0.9851024 0.6167059 0.9863461 0.6167058 0.1694575 0.8581219 0.1706225 0.8581219 0.1706225 1 0.1960204 1 0.1949133 1 0.1949133 0.8581219 0.990401 0.6099832 0.9904007 0.429892 0.9916446 0.4298918 0.2049325 0.8581219 0.2060141 0.8581219 0.2060141 1 0.9956994 0.6114023 0.9969431 0.6114023 0.9969431 0.7914937 0.180854 1 0.1797017 1 0.1797017 0.8581219 0.9881595 0.185395 0.9881595 0 0.9894032 0 0.2363556 1 0.2354754 1 0.2354754 0.8581219 0.9863461 0.9889153 0.9851024 0.988915 0.9851024 0.8035203 0.168052 1 0.1668869 1 0.1668869 0.8581219 0.5649361 0.7047575 0.5649361 0.8901524 0.5636925 0.8901525 0.224918 1 0.223966 1 0.223966 0.8581219 0.9916446 0.7914937 0.990401 0.7914937 0.9904007 0.6114023 0.203527 1 0.2024454 1 0.2024454 0.8581219 0.9987565 0.1800914 0.9987565 0 1 0 0.2010399 1 0.1999357 1 0.1999357 0.8581219 0.9894032 0.3722093 0.9881597 0.3722093 0.9881595 0.1868143 0.2309038 0.8581219 0.2317842 0.8581219 0.2317842 1 0.9824531 0.616706 0.9836968 0.6167064 0.9836969 0.8021011 0.155039 1 0.1538208 1 0.1538208 0.8581219 0.1432543 0.7148245 0.1444982 0.7148246 0.144498 0.9002195 0.2216086 0.8581219 0.2225605 0.8581219 0.2225605 1 0.997351 0.1815106 0.997351 0.3616019 0.9961073 0.3616019 0.1898879 0.8581219 0.1909952 0.8581219 0.1909952 1 1 0.361602 0.9987564 0.361602 0.9987564 0.1815106 0.197426 0.8581219 0.1985303 0.8581219 0.1985303 1</float_array>
          <technique_common>
            <accessor source="#Cube_057-mesh-map-1-array" count="720" stride="2">
              <param name="S" type="float"/>
              <param name="T" type="float"/>
            </accessor>
          </technique_common>
        </source>
        <vertices id="Cube_057-mesh-vertices">
          <input semantic="POSITION" source="#Cube_057-mesh-positions"/>
        </vertices>
        <triangles material="hierva_choza_gaetuli-material" count="240">
          <input semantic="VERTEX" source="#Cube_057-mesh-vertices" offset="0"/>
          <input semantic="NORMAL" source="#Cube_057-mesh-normals" offset="1"/>
          <input semantic="TEXCOORD" source="#Cube_057-mesh-map-0" offset="2" set="0"/>
          <input semantic="TEXCOORD" source="#Cube_057-mesh-map-1" offset="2" set="1"/>
          <p>0 0 0 1 1 1 3 2 2 0 0 3 3 2 4 2 3 5 4 4 6 7 4 7 5 5 8 4 4 9 6 6 10 7 4 11 8 7 12 9 8 13 11 9 14 8 7 15 11 9 16 10 10 17 12 11 18 15 12 19 13 13 20 12 11 21 14 14 22 15 12 23 16 15 24 19 16 25 17 17 26 16 15 27 18 18 28 19 16 29 20 19 30 21 20 31 23 21 32 20 19 33 23 21 34 22 22 35 24 23 36 27 24 37 25 25 38 24 23 39 26 26 40 27 24 41 28 27 42 31 28 43 29 29 44 28 27 45 30 30 46 31 28 47 32 31 48 33 32 49 35 33 50 32 31 51 35 33 52 34 34 53 36 35 54 39 36 55 37 37 56 36 35 57 38 38 58 39 36 59 40 39 60 41 40 61 43 41 62 40 39 63 43 41 64 42 42 65 44 43 66 47 44 67 45 45 68 44 43 69 46 46 70 47 44 71 48 47 72 49 48 73 51 49 74 48 47 75 51 49 76 50 50 77 52 51 78 55 52 79 53 46 80 52 51 81 54 53 82 55 52 83 56 54 84 57 55 85 59 56 86 56 54 87 59 56 88 58 57 89 60 58 90 61 59 91 63 58 92 60 58 93 63 58 94 62 60 95 64 61 96 67 62 97 65 63 98 64 61 99 66 64 100 67 62 101 68 65 102 69 66 103 71 67 104 68 65 105 71 67 106 70 68 107 72 69 108 73 70 109 75 10 110 72 69 111 75 10 112 74 71 113 76 13 114 79 72 115 77 73 116 76 13 117 78 74 118 79 72 119 80 75 120 81 76 121 82 77 122 80 75 123 83 78 124 81 76 125 84 79 126 85 80 127 86 81 128 84 79 129 86 81 130 87 82 131 88 83 132 89 83 133 90 84 134 88 83 135 91 84 136 89 83 137 92 85 138 93 86 139 94 87 140 92 85 141 94 87 142 95 88 143 96 89 144 97 90 145 98 91 146 96 89 147 98 91 148 99 92 149 100 93 150 101 94 151 102 95 152 100 93 153 103 96 154 101 94 155 104 97 156 105 98 157 106 99 158 104 97 159 106 99 160 107 100 161 108 101 162 109 102 163 110 103 164 108 101 165 110 103 166 111 104 167 112 105 168 113 106 169 114 107 170 112 105 171 115 108 172 113 106 173 116 109 174 117 110 175 118 111 176 116 109 177 118 111 178 119 112 179 120 113 180 121 113 181 122 114 182 120 113 183 123 114 184 121 113 185 124 115 186 125 116 187 126 117 188 124 115 189 126 117 190 127 118 191 128 119 192 129 119 193 130 120 194 128 119 195 131 121 196 129 119 197 132 122 198 133 123 199 134 124 200 132 122 201 134 124 202 135 110 203 136 125 204 137 125 205 138 126 206 136 125 207 139 127 208 137 125 209 140 128 210 141 129 211 142 130 212 140 128 213 143 131 214 141 129 215 144 132 216 145 133 217 146 132 218 144 132 219 146 132 220 147 134 221 148 135 222 149 136 223 150 130 224 148 135 225 151 137 226 149 136 227 152 138 228 153 139 229 154 140 230 152 138 231 155 141 232 153 139 233 156 142 234 157 143 235 158 144 236 156 142 237 158 144 238 159 145 239 68 146 240 151 147 241 148 148 242 48 149 243 130 150 244 49 151 245 27 152 246 105 153 247 25 154 248 6 155 249 86 156 250 7 157 251 50 158 252 128 159 253 48 160 254 29 161 255 108 162 256 28 163 257 7 164 258 85 165 259 5 166 260 71 167 261 151 167 262 70 168 263 28 169 264 111 170 265 30 171 266 8 172 267 90 172 268 9 173 269 69 174 270 149 175 271 71 176 272 51 177 273 131 178 274 50 179 275 10 180 276 88 181 277 8 182 278 72 183 279 154 183 280 73 184 281 51 185 282 130 186 283 129 187 284 30 188 285 110 189 286 31 190 287 72 191 288 155 192 289 152 193 290 53 194 291 132 195 292 52 196 293 29 197 294 110 198 295 109 187 296 11 199 297 91 200 298 10 201 299 54 202 300 132 203 301 135 204 302 32 205 303 114 206 304 33 207 305 11 208 306 90 209 307 89 187 308 75 210 309 155 211 310 74 212 311 34 204 312 112 204 313 32 204 314 13 213 315 92 214 316 12 215 317 73 216 318 153 217 319 75 218 320 54 219 321 134 220 322 55 221 323 14 222 324 92 223 325 95 224 326 77 225 327 156 226 328 76 226 329 55 227 330 133 228 331 53 229 332 35 230 333 115 231 334 34 232 335 78 233 336 156 234 337 159 235 338 56 236 339 138 237 340 57 238 341 35 239 342 114 240 343 113 241 344 14 242 345 94 243 346 15 244 347 58 245 348 136 246 349 56 247 350 37 248 351 116 249 352 36 250 353 15 251 354 93 252 355 13 253 356 78 254 357 158 255 358 79 256 359 36 257 360 119 258 361 38 259 362 17 260 363 96 261 364 16 262 365 79 263 366 157 264 367 77 187 368 59 265 369 139 266 370 58 267 371 18 268 372 96 269 373 99 204 374 59 270 375 138 271 376 137 187 377 38 272 378 118 273 379 39 274 380 60 275 381 142 276 382 61 277 383 37 278 384 118 279 385 117 187 386 18 280 387 98 281 388 19 282 389 60 283 390 143 284 391 140 285 392 40 286 393 122 287 394 41 288 395 19 289 396 97 290 397 17 291 398 40 292 399 123 293 400 120 204 401 20 294 402 102 294 403 21 294 404 63 167 405 143 167 406 62 168 407 20 295 408 103 296 409 100 204 410 0 297 411 82 298 412 1 299 413 61 300 414 141 301 415 63 302 416 43 303 417 123 304 418 42 305 419 0 306 420 83 307 421 80 204 422 65 308 423 144 309 424 64 310 425 41 311 426 121 312 427 43 313 428 23 314 429 103 315 430 22 316 431 66 317 432 144 318 433 147 204 434 45 319 435 124 320 436 44 321 437 21 322 438 101 323 439 23 324 440 3 325 441 83 326 442 2 327 443 46 328 444 124 329 445 127 204 446 25 330 447 104 331 448 24 332 449 1 333 450 81 334 451 3 335 452 66 336 453 146 337 454 67 338 455 24 339 456 107 340 457 26 341 458 5 342 459 84 343 460 4 343 461 67 344 462 145 345 463 65 346 464 46 347 465 126 348 466 47 349 467 6 350 468 84 351 469 87 204 470 68 352 471 150 353 472 69 354 473 47 355 474 125 356 475 45 357 476 26 358 477 106 359 478 27 360 479 68 146 480 70 361 481 151 147 482 48 149 483 128 362 484 130 150 485 27 152 486 106 187 487 105 153 488 6 155 489 87 363 490 86 156 491 50 158 492 131 204 493 128 159 494 29 161 495 109 364 496 108 162 497 7 164 498 86 187 499 85 165 500 71 167 501 149 168 502 151 167 503 28 169 504 108 204 505 111 170 506 8 172 507 88 173 508 90 172 509 69 174 510 150 365 511 149 175 512 51 177 513 129 177 514 131 178 515 10 180 516 91 366 517 88 181 518 72 183 519 152 184 520 154 183 521 51 185 522 49 367 523 130 186 524 30 188 525 111 368 526 110 189 527 72 191 528 74 369 529 155 192 530 53 194 531 133 370 532 132 195 533 29 197 534 31 371 535 110 198 536 11 199 537 89 372 538 91 200 539 54 202 540 52 373 541 132 203 542 32 205 543 112 374 544 114 206 545 11 208 546 9 375 547 90 209 548 75 210 549 153 201 550 155 211 551 34 204 552 115 204 553 112 204 554 13 213 555 93 376 556 92 214 557 73 216 558 154 377 559 153 217 560 54 219 561 135 378 562 134 220 563 14 222 564 12 379 565 92 223 566 77 225 567 157 225 568 156 226 569 55 227 570 134 187 571 133 228 572 35 230 573 113 230 574 115 231 575 78 233 576 76 380 577 156 234 578 56 236 579 136 381 580 138 237 581 35 239 582 33 382 583 114 240 584 14 242 585 95 383 586 94 243 587 58 245 588 139 204 589 136 246 590 37 248 591 117 384 592 116 249 593 15 251 594 94 187 595 93 252 596 78 254 597 159 385 598 158 255 599 36 257 600 116 386 601 119 258 602 17 260 603 97 387 604 96 261 605 79 263 606 158 388 607 157 264 608 59 265 609 137 389 610 139 266 611 18 268 612 16 390 613 96 269 614 59 270 615 57 391 616 138 271 617 38 272 618 119 392 619 118 273 620 60 275 621 140 393 622 142 276 623 37 278 624 39 394 625 118 279 626 18 280 627 99 395 628 98 281 629 60 283 630 62 396 631 143 284 632 40 286 633 120 397 634 122 287 635 19 289 636 98 187 637 97 290 638 40 292 639 42 398 640 123 293 641 20 294 642 100 294 643 102 294 644 63 167 645 141 168 646 143 167 647 20 295 648 22 399 649 103 296 650 0 297 651 80 400 652 82 298 653 61 300 654 142 187 655 141 301 656 43 303 657 121 401 658 123 304 659 0 306 660 2 402 661 83 307 662 65 308 663 145 403 664 144 309 665 41 311 666 122 187 667 121 312 668 23 314 669 101 404 670 103 315 671 66 317 672 64 405 673 144 318 674 45 319 675 125 406 676 124 320 677 21 322 678 102 407 679 101 323 680 3 325 681 81 408 682 83 326 683 46 328 684 44 409 685 124 329 686 25 330 687 105 410 688 104 331 689 1 333 690 82 187 691 81 334 692 66 336 693 147 411 694 146 337 695 24 339 696 104 412 697 107 340 698 5 342 699 85 413 700 84 343 701 67 344 702 146 187 703 145 345 704 46 347 705 127 414 706 126 348 707 6 350 708 4 415 709 84 351 710 68 352 711 148 416 712 150 353 713 47 355 714 126 417 715 125 356 716 26 358 717 107 418 718 106 359 719</p>
        </triangles>
      </mesh>
    </geometry>
  </library_geometries>
  <library_visual_scenes>
    <visual_scene id="Scene" name="Scene">
      <node id="fortress_f" name="fortress_f" type="NODE">
        <matrix sid="transform">1 0 0 0 0 1 0 0 0 0 1 0 0 0 0 1</matrix>
        <instance_geometry url="#Cube_057-mesh" name="fortress_f">
          <bind_material>
            <technique_common>
              <instance_material symbol="hierva_choza_gaetuli-material" target="#hierva_choza_gaetuli-material">
                <bind_vertex_input semantic="Cube_057-mesh-map-0" input_semantic="TEXCOORD" input_set="0"/>
                <bind_vertex_input semantic="Cube_057-mesh-map-1" input_semantic="TEXCOORD" input_set="1"/>
              </instance_material>
            </technique_common>
          </bind_material>
        </instance_geometry>
        <node id="prop_garrisoned" name="prop_garrisoned" type="NODE">
          <matrix sid="transform">-0.7829416 1.18221e-7 0 5.35037e-14 -1.18221e-7 -0.7829416 0 5.033843 0 0 0.7829416 9.013988 0 0 0 1</matrix>
        </node>
        <node id="prop_projectile" name="prop_projectile" type="NODE">
          <matrix sid="transform">-0.7829416 1.18221e-7 0 5.35037e-14 -1.18221e-7 -0.7829416 0 5.033842 0 0 0.7829416 9.013988 0 0 0 1</matrix>
        </node>
      </node>
    </visual_scene>
  </library_visual_scenes>
  <scene>
    <instance_visual_scene url="#Scene"/>
  </scene>
</COLLADA>