<?xml version="1.0" encoding="utf-8"?>
<COLLADA xmlns="http://www.collada.org/2005/11/COLLADASchema" version="1.4.1" xmlns:xsi="http://www.w3.org/2001/XMLSchema-instance">
  <asset>
    <contributor>
      <author>Blender User</author>
      <authoring_tool>Blender 4.3.1 commit date:2024-12-10, commit time:07:46, hash:33d812126174</authoring_tool>
    </contributor>
    <created>2026-08-22T19:27:42</created>
    <modified>2026-08-22T19:27:42</modified>
    <unit name="meter" meter="1"/>
    <up_axis>Z_UP</up_axis>
  </asset>
  <library_effects>
    <effect id="hierva_choza_gaetuli-effect">
      <profile_COMMON>
        <technique sid="common">
          <lambert>
            <emission>
              <color sid="emission">0 0 0 1</color>
            </emission>
            <diffuse>
              <color sid="diffuse">0.8 0.8 0.8 1</color>
            </diffuse>
            <index_of_refraction>
              <float sid="ior">1.45</float>
            </index_of_refraction>
          </lambert>
        </technique>
      </profile_COMMON>
    </effect>
  </library_effects>
  <library_images/>
  <library_materials>
    <material id="hierva_choza_gaetuli-material" name="hierva choza gaetuli">
      <instance_effect url="#hierva_choza_gaetuli-effect"/>
    </material>
  </library_materials>
  <library_geometries>
    <geometry id="Cube_039-mesh" name="Cube.039">
      <mesh>
        <source id="Cube_039-mesh-positions">
          <float_array id="Cube_039-mesh-positions-array" count="192">4.040519 -2.253959 3.532159 4.040519 -2.253959 0.02975827 3.602858 -6.809641 3.532159 3.602858 -6.809641 0.02975827 1.59638 -5.073723 3.53216 1.59638 -5.073723 0.02975827 5.937267 -4.11392 3.53216 5.937267 -4.11392 0.02975827 -6.697739 5.798468 3.532159 -6.697739 5.798468 0.02975827 -3.896646 2.179121 3.532159 -3.896646 2.179121 0.02975827 -6.547576 2.069884 3.532159 -6.547576 2.069884 0.02975827 -4.041814 5.742168 3.532159 -4.041814 5.742168 0.02975827 -6.697737 -3.158255 3.532159 -6.697737 -3.158255 0.02975827 -3.896646 -6.777602 3.532159 -3.896646 -6.777602 0.02975827 -6.547577 -6.886838 3.532159 -6.547577 -6.886838 0.02975827 -4.041813 -3.214554 3.532159 -4.041813 -3.214554 0.02975827 3.119067 5.798467 3.532159 3.119067 5.798467 0.02975827 5.920159 2.17912 3.532159 5.920159 2.17912 0.02975827 3.269229 2.069883 3.532159 3.269229 2.069883 0.02975827 5.774992 5.742168 3.532159 5.774992 5.742168 0.02975827 4.071377 -2.256924 3.532159 3.633716 -6.812606 0.02975827 4.071377 -2.256924 0.02975827 3.633716 -6.812606 3.532159 1.603073 -5.103992 3.53216 1.603073 -5.103992 0.02975827 5.94396 -4.144189 0.02975827 5.94396 -4.144189 3.53216 -6.673223 5.817441 3.532159 -3.872131 2.198094 0.02975827 -6.673223 5.817441 0.02975827 -3.872131 2.198094 3.532159 -6.52197 2.052411 3.532159 -6.52197 2.052411 0.02975827 -4.016207 5.724695 0.02975827 -4.016207 5.724695 3.532159 -6.673221 -3.139282 3.532159 -3.872131 -6.758629 0.02975827 -6.673221 -3.139282 0.02975827 -3.872131 -6.758629 3.532159 -6.52197 -6.904312 3.532159 -6.52197 -6.904312 0.02975827 -4.016206 -3.232027 0.02975827 -4.016206 -3.232027 3.532159 3.094552 5.779494 3.532159 3.094552 5.779494 0.02975827 5.895644 2.160147 0.02975827 5.895644 2.160147 3.532159 3.294836 2.05241 3.532159 3.294836 2.05241 0.02975827 5.800599 5.724695 0.02975827 5.800599 5.724695 3.532159</float_array>
          <technique_common>
            <accessor source="#Cube_039-mesh-positions-array" count="64" stride="3">
              <param name="X" type="float"/>
              <param name="Y" type="float"/>
              <param name="Z" type="float"/>
            </accessor>
          </technique_common>
        </source>
        <source id="Cube_039-mesh-normals">
          <float_array id="Cube_039-mesh-normals-array" count="453">-0.9954171 0.09562891 0 -0.9954171 0.09562891 0 -0.2158932 0.976417 0 -0.2158932 0.976417 0 -0.7908276 -0.612039 0 -0.7908276 -0.6120391 0 -0.7908275 -0.6120391 0 -0.826025 0.5636335 0 -0.826025 0.5636335 0 -0.8260251 0.5636335 0 -0.7908278 -0.6120387 0 -0.7908279 -0.6120387 0 -0.7908279 -0.6120388 0 -0.8260248 0.5636338 0 -0.8260248 0.5636339 0 -0.8260248 0.5636337 0 0.7908277 0.6120389 0 0.7908278 0.6120389 0 0.7908278 0.6120388 0 0.7908276 0.6120389 0 -0.826025 0.5636336 0 -0.8260251 0.5636336 0 -0.826025 0.5636336 0 0.9954171 -0.09562891 0 0.9954171 -0.09562891 0 0.2158932 -0.976417 0 0.2158932 -0.976417 0 0.2158932 -0.976417 0 0.7908276 0.612039 0 0.7908279 0.6120388 0 0.826025 -0.5636335 0 0.8260251 -0.5636335 0 0.7908278 0.6120387 0 0.7908279 0.6120387 0 0.7908279 0.6120386 0 0.7908279 0.6120387 0 0.826025 -0.5636336 0 0.826025 -0.5636336 0 0.8260249 -0.5636336 0 0.8260249 -0.5636337 0 -0.7908278 -0.6120389 0 -0.7908277 -0.6120389 0 -0.7908277 -0.6120389 0 0.826025 -0.5636335 0 0 0 -1 0 0 -1 0 0 -1 0 0 1 -6.24317e-6 0 1 -6.27107e-6 0 1 0.6120528 -0.790817 0 0.6120528 -0.790817 0 -0.6120261 0.7908376 0 0 0 -1 0 0 -1 0 0 -1 -1.33548e-5 0 1 7.15792e-6 0 1 7.24701e-6 0 1 0.5636429 0.8260186 0 0.5636267 0.8260298 0 0.5636266 0.8260298 0 -0.563658 -0.8260083 0 -0.5636581 -0.8260083 0 0 0 -1 0 0 -1 0 0 -1 0 0 1 9.14944e-6 0 1 9.19023e-6 0 1 0.6120431 -0.7908245 0 0.6120432 -0.7908244 0 0.6120432 -0.7908244 0 0.0956431 0.9954157 0 0.09564477 0.9954156 0 0.09564477 0.9954156 0 0 0 -1 0 0 -1 0 0 -1 0 0 1 6.9282e-6 0 1 6.95816e-6 0 1 0.5636319 0.8260262 0 0.56364 0.8260206 0 0.56364 0.8260205 0 -0.5636482 -0.8260149 0 -0.5636482 -0.826015 0 0 0 -1 0 0 -1 0 0 -1 -1.37448e-5 0 1 7.4736e-6 0 1 7.56863e-6 0 1 -0.09564477 -0.9954156 0 -0.0956431 -0.9954157 0 -0.0956431 -0.9954158 0 -0.6120528 0.790817 0 -0.6120528 0.790817 0 0 0 -1 0 0 -1 0 0 -1 1.33461e-5 0 1 -9.24958e-6 0 1 1.34443e-5 0 1 0.5636348 0.8260241 0 0.5636429 0.8260186 0 -0.976414 -0.2159073 0 -0.9764158 -0.2158991 0 -0.9764157 -0.215899 0 0 0 -1 0 0 -1 0 0 -1 0 0 1 2.15291e-7 0 1 2.1625e-7 0 1 0.6120311 -0.7908337 0 0.6120648 -0.7908077 0 0.612065 -0.7908076 0 -0.612031 0.7908339 0 -0.6120309 0.7908338 0 -0.6120309 0.7908339 0 0 0 -1 0 0 -1 0 0 -1 -1.33455e-5 0 1 9.24966e-6 0 1 -1.34438e-5 0 1 0.9764158 0.215899 0 0.9764157 0.215899 0 0.9764157 0.2158989 0 -0.5636371 -0.8260225 0 -0.5636451 -0.826017 0 -0.5636453 -0.8260171 0 0 0 -1 0 0 1 -0.6120262 0.7908376 0 -1.34439e-5 0 1 0.563643 0.8260186 0 0.6120432 -0.7908245 0 0.0956431 0.9954158 0 0.5636318 0.8260262 0 0 0 -1 -1.38397e-5 0 1 -0.09564477 -0.9954156 0 -9.34772e-6 0 1 -0.9764139 -0.2159073 0 0 0 -1 0.6120309 -0.7908338 0 -0.6120309 0.7908338 0 9.34755e-6 0 1 -0.5636371 -0.8260226 0</float_array>
          <technique_common>
            <accessor source="#Cube_039-mesh-normals-array" count="151" stride="3">
              <param name="X" type="float"/>
              <param name="Y" type="float"/>
              <param name="Z" type="float"/>
            </accessor>
          </technique_common>
        </source>
        <source id="Cube_039-mesh-map-0">
          <float_array id="Cube_039-mesh-map-0-array" count="576">0.9984335 0.6838312 1.000765 0.001214206 0.001161634 6.92369e-4 0.9984335 0.6838312 0.001161634 6.92369e-4 5.39125e-4 0.6833093 0.9984335 0.6838312 0.001161634 6.92369e-4 1.000765 0.001214206 0.9984335 0.6838312 5.39125e-4 0.6833093 0.001161634 6.92369e-4 0.9984335 0.6838312 1.000765 0.001214206 0.001161634 6.92369e-4 0.9984335 0.6838312 0.001161634 6.92369e-4 5.39125e-4 0.6833093 0.9984335 0.6838312 0.001161634 6.92369e-4 1.000765 0.001214206 0.9984335 0.6838312 5.39125e-4 0.6833093 0.001161634 6.92369e-4 0.9984335 0.6838312 1.000765 0.001214206 0.001161634 6.92369e-4 0.9984335 0.6838312 0.001161634 6.92369e-4 5.39125e-4 0.6833093 0.9984335 0.6838312 0.001161634 6.92369e-4 1.000765 0.001214206 0.9984335 0.6838312 5.39125e-4 0.6833093 0.001161634 6.92369e-4 0.9984335 0.6838312 0.001161634 6.92369e-4 1.000765 0.001214206 0.9984335 0.6838312 5.39125e-4 0.6833093 0.001161634 6.92369e-4 0.9984335 0.6838312 0.001161634 6.92369e-4 1.000765 0.001214206 0.9984335 0.6838312 5.39125e-4 0.6833093 0.001161634 6.92369e-4 0.9984335 0.6838312 0.001161634 6.92369e-4 1.000765 0.001214206 0.9984335 0.6838312 5.39125e-4 0.6833093 0.001161634 6.92369e-4 0.9984335 0.6838312 1.000765 0.001214206 0.001161634 6.92369e-4 0.9984335 0.6838312 0.001161634 6.92369e-4 5.39125e-4 0.6833093 0.9984335 0.6838312 0.001161634 6.92369e-4 1.000765 0.001214206 0.9984335 0.6838312 5.39125e-4 0.6833093 0.001161634 6.92369e-4 0.9984335 0.6838312 1.000765 0.001214206 0.001161634 6.92369e-4 0.9984335 0.6838312 0.001161634 6.92369e-4 5.39125e-4 0.6833093 0.9984335 0.6838312 0.001161634 6.92369e-4 1.000765 0.001214206 0.9984335 0.6838312 5.39125e-4 0.6833093 0.001161634 6.92369e-4 0.9984335 0.6838312 1.000765 0.001214206 0.001161634 6.92369e-4 0.9984335 0.6838312 0.001161634 6.92369e-4 5.39125e-4 0.6833093 0.9984335 0.6838312 1.000765 0.001214206 0.001161634 6.92369e-4 0.9984335 0.6838312 0.001161634 6.92369e-4 5.39125e-4 0.6833093 0.9984335 0.6838312 1.000765 0.001214206 0.001161634 6.92369e-4 0.9984335 0.6838312 0.001161634 6.92369e-4 5.39125e-4 0.6833093 0.001161634 6.92369e-4 1.000765 0.001214206 1.000765 0.001214206 0.9984335 0.6838312 5.39125e-4 0.6833093 5.39125e-4 0.6833093 0.001161634 6.92369e-4 5.39125e-4 0.6833093 5.39125e-4 0.6833093 0.9984335 0.6838312 1.000765 0.001214206 1.000765 0.001214206 1.000765 0.001214206 0.001161634 6.92369e-4 0.001161634 6.92369e-4 5.39125e-4 0.6833093 0.9984335 0.6838312 0.9984335 0.6838312 5.39125e-4 0.6833093 0.001161634 6.92369e-4 0.001161634 6.92369e-4 1.000765 0.001214206 0.9984335 0.6838312 0.9984335 0.6838312 0.001161634 6.92369e-4 1.000765 0.001214206 1.000765 0.001214206 0.9984335 0.6838312 5.39125e-4 0.6833093 5.39125e-4 0.6833093 0.001161634 6.92369e-4 5.39125e-4 0.6833093 5.39125e-4 0.6833093 0.9984335 0.6838312 1.000765 0.001214206 1.000765 0.001214206 1.000765 0.001214206 0.001161634 6.92369e-4 0.001161634 6.92369e-4 5.39125e-4 0.6833093 0.9984335 0.6838312 0.9984335 0.6838312 5.39125e-4 0.6833093 0.001161634 6.92369e-4 0.001161634 6.92369e-4 1.000765 0.001214206 0.9984335 0.6838312 0.9984335 0.6838312 1.000765 0.001214206 0.001161634 6.92369e-4 1.000765 0.001214206 0.9984335 0.6838312 5.39125e-4 0.6833093 5.39125e-4 0.6833093 0.001161634 6.92369e-4 5.39125e-4 0.6833093 5.39125e-4 0.6833093 1.000765 0.001214206 0.9984335 0.6838312 0.9984335 0.6838312 1.000765 0.001214206 0.001161634 6.92369e-4 0.001161634 6.92369e-4 5.39125e-4 0.6833093 0.9984335 0.6838312 5.39125e-4 0.6833093 5.39125e-4 0.6833093 0.001161634 6.92369e-4 0.001161634 6.92369e-4 1.000765 0.001214206 0.9984335 0.6838312 0.9984335 0.6838312 1.000765 0.001214206 0.001161634 6.92369e-4 1.000765 0.001214206 0.9984335 0.6838312 5.39125e-4 0.6833093 5.39125e-4 0.6833093 5.39125e-4 0.6833093 0.001161634 6.92369e-4 0.001161634 6.92369e-4 0.9984335 0.6838312 1.000765 0.001214206 1.000765 0.001214206 0.001161634 6.92369e-4 1.000765 0.001214206 1.000765 0.001214206 0.9984335 0.6838312 5.39125e-4 0.6833093 0.9984335 0.6838312 5.39125e-4 0.6833093 0.001161634 6.92369e-4 0.001161634 6.92369e-4 1.000765 0.001214206 0.9984335 0.6838312 0.9984335 0.6838312 0.001161634 6.92369e-4 0.001161634 6.92369e-4 1.000765 0.001214206 0.9984335 0.6838312 0.9984335 0.6838312 5.39125e-4 0.6833093 0.001161634 6.92369e-4 0.001161634 6.92369e-4 5.39125e-4 0.6833093 0.9984335 0.6838312 0.9984335 0.6838312 1.000765 0.001214206 1.000765 0.001214206 1.000765 0.001214206 0.001161634 6.92369e-4 5.39125e-4 0.6833093 5.39125e-4 0.6833093 0.9984335 0.6838312 5.39125e-4 0.6833093 5.39125e-4 0.6833093 0.001161634 6.92369e-4 1.000765 0.001214206 1.000765 0.001214206 0.9984335 0.6838312 0.001161634 6.92369e-4 0.001161634 6.92369e-4 1.000765 0.001214206 0.9984335 0.6838312 0.9984335 0.6838312 5.39125e-4 0.6833093 0.001161634 6.92369e-4 0.001161634 6.92369e-4 5.39125e-4 0.6833093 0.9984335 0.6838312 0.9984335 0.6838312 1.000765 0.001214206 1.000765 0.001214206 1.000765 0.001214206 0.001161634 6.92369e-4 5.39125e-4 0.6833093 5.39125e-4 0.6833093 0.9984335 0.6838312 5.39125e-4 0.6833093 5.39125e-4 0.6833093 0.001161634 6.92369e-4 1.000765 0.001214206 1.000765 0.001214206 0.9984335 0.6838312 1.000765 0.001214206 0.001161634 6.92369e-4 0.001161634 6.92369e-4 0.9984335 0.6838312 0.9984335 0.6838312 5.39125e-4 0.6833093 0.001161634 6.92369e-4 0.001161634 6.92369e-4 5.39125e-4 0.6833093 1.000765 0.001214206 1.000765 0.001214206 0.9984335 0.6838312 1.000765 0.001214206 1.000765 0.001214206 0.001161634 6.92369e-4 5.39125e-4 0.6833093 0.9984335 0.6838312 0.9984335 0.6838312 5.39125e-4 0.6833093 5.39125e-4 0.6833093 0.001161634 6.92369e-4 1.000765 0.001214206 1.000765 0.001214206 0.9984335 0.6838312 1.000765 0.001214206 0.001161634 6.92369e-4 0.001161634 6.92369e-4 0.9984335 0.6838312 0.9984335 0.6838312 5.39125e-4 0.6833093 5.39125e-4 0.6833093 5.39125e-4 0.6833093 0.001161634 6.92369e-4 0.9984335 0.6838312 0.9984335 0.6838312 1.000765 0.001214206 0.001161634 6.92369e-4 0.001161634 6.92369e-4 1.000765 0.001214206 0.9984335 0.6838312 5.39125e-4 0.6833093 5.39125e-4 0.6833093 5.39125e-4 0.6833093 5.39125e-4 0.6833093 0.001161634 6.92369e-4 1.000765 0.001214206 1.000765 0.001214206 0.9984335 0.6838312</float_array>
          <technique_common>
            <accessor source="#Cube_039-mesh-map-0-array" count="288" stride="2">
              <param name="S" type="float"/>
              <param name="T" type="float"/>
            </accessor>
          </technique_common>
        </source>
        <source id="Cube_039-mesh-map-1">
          <float_array id="Cube_039-mesh-map-1-array" count="576">0.3995024 0.7159157 0.3995024 0.9176593 0.2076455 0.9176593 0.3995024 0.7159157 0.2076455 0.9176593 0.2076455 0.7159157 0.4003307 1 0.5996692 0.7770817 0.5996692 1 0.4003307 1 0.4003307 0.7770817 0.5996692 0.7770817 0 0 0.1993384 0 0.1993384 0.2629098 0 0 0.1993384 0.2629098 0 0.2629097 0.6004961 0.9975156 0.7998346 0.7487646 0.7998346 0.9975156 0.6004961 0.9975156 0.6004961 0.7487645 0.7998346 0.7487646 0 0.2637467 0.1993384 0.2637467 0.1993384 0.5266564 0 0.2637467 0.1993384 0.5266564 0 0.5266564 0.6004961 0.4983396 0.7998346 0.2495885 0.7998345 0.4983396 0.6004961 0.4983396 0.6004961 0.2495884 0.7998346 0.2495885 0.4003307 0.2629096 0.5996692 0 0.5996692 0.2629097 0.4003307 0.2629096 0.4003307 0 0.5996692 0 0.6004961 0.7479276 0.7998345 0.4991765 0.7998345 0.7479276 0.6004961 0.7479276 0.6004961 0.4991765 0.7998345 0.4991765 0.2076455 0.5133352 0.3995038 0.7150788 0.2076455 0.7150788 0.2076455 0.5133352 0.3995038 0.5133352 0.3995038 0.7150788 0.8006615 0 1 0 1 0.2229174 0.8006615 0 1 0.2229174 0.8006615 0.2229174 0.4003307 0.5266562 0.5996692 0.2637467 0.5996692 0.5266563 0.4003307 0.5266562 0.4003307 0.2637467 0.5996692 0.2637467 0.6004961 0 0.7998346 0 0.7998346 0.2487515 0.6004961 0 0.7998346 0.2487515 0.6004961 0.2487515 0 0.7904028 0.1993384 0.5274933 0.1993384 0.7904028 0 0.7904028 0 0.5274933 0.1993384 0.5274933 0.2001653 0.2637466 0.3995038 0.2637466 0.3995037 0.5124983 0.2001653 0.2637466 0.3995037 0.5124983 0.2001653 0.5124982 0.2001653 0 0.3995038 0 0.3995037 0.2629098 0.2001653 0 0.3995037 0.2629098 0.2001653 0.2629098 0.4003307 0.5274931 0.5996692 0.5274932 0.5996691 0.7762448 0.4003307 0.5274931 0.5996691 0.7762448 0.4003307 0.7762447 0.8153824 0.7367528 0.813618 0.4806721 0.8153824 0.4806721 0.8110268 0.2237544 0.8127911 0.4798352 0.8110268 0.4798352 0.8205601 0.8306589 0.8188006 0.6289153 0.8205601 0.6289153 0.8188006 0.2237544 0.8205602 0.425498 0.8188006 0.425498 0.2068185 0.7769575 0.2050542 0.5133352 0.2068185 0.5133352 0.8006615 0.2237544 0.8024259 0.4873768 0.8006615 0.4873768 0.8239735 0.4263349 0.8256874 0.6280784 0.8239735 0.6280784 0.8256875 0.425498 0.8239735 0.2237544 0.8256875 0.2237544 0.8153824 0.4798352 0.813618 0.2237544 0.8153824 0.2237544 0.8084355 0.2237544 0.8101998 0.4798352 0.8084354 0.4798352 0.8231467 0.6280784 0.8213871 0.4263349 0.8231467 0.4263349 0.2003364 0.5133352 0.2016359 0.7150788 0.2003364 0.7150788 0.8024259 0.751836 0.8006616 0.4882137 0.8024259 0.4882137 0.8032528 0.4882137 0.8050172 0.7518359 0.8032528 0.7518359 0.8239735 0.6289153 0.8256874 0.8306589 0.8239735 0.8306589 0.8282282 0.8306588 0.8265144 0.6289153 0.8282282 0.6289153 0.8101998 0.4806722 0.8084354 0.7367529 0.8084354 0.4806721 0.8162093 0.2237544 0.8179737 0.4798351 0.8162094 0.4798351 0.8327176 0.425498 0.831418 0.2237544 0.8327176 0.2237544 0.8231467 0.425498 0.8213871 0.2237544 0.8231467 0.2237544 0.8076084 0.4873766 0.8058441 0.2237543 0.8076084 0.2237544 0.8050171 0.2237544 0.8032527 0.4873767 0.8032527 0.2237544 0.8265144 0.4263349 0.8282282 0.6280784 0.8265144 0.6280784 0.8305911 0.8306589 0.8290552 0.6289153 0.8305911 0.6289153 0.8179736 0.4806721 0.8162093 0.7367528 0.8162093 0.4806721 0.8110268 0.4806721 0.8127911 0.7367528 0.8110268 0.7367528 0.8213871 0.6289153 0.8231467 0.8306589 0.8213871 0.8306589 0.8188006 0.4263349 0.8205602 0.6280784 0.8188006 0.6280784 0.805844 0.4882137 0.8076083 0.7518359 0.805844 0.751836 0.2024629 0.7769575 0.2042272 0.5133352 0.2042272 0.7769575 0.8290552 0.2237544 0.8305911 0.425498 0.8290552 0.425498 0.8282282 0.425498 0.8265144 0.2237544 0.8282282 0.2237544 0.8153824 0.7367528 0.813618 0.7367529 0.813618 0.4806721 0.8110268 0.2237544 0.8127911 0.2237544 0.8127911 0.4798352 0.8205601 0.8306589 0.8188006 0.8306589 0.8188006 0.6289153 0.8188006 0.2237544 0.8205602 0.2237544 0.8205602 0.425498 0.2068185 0.7769575 0.2050542 0.7769575 0.2050542 0.5133352 0.8006615 0.2237544 0.8024259 0.2237544 0.8024259 0.4873768 0.8239735 0.4263349 0.8256874 0.4263349 0.8256874 0.6280784 0.8256875 0.425498 0.8239735 0.425498 0.8239735 0.2237544 0.8153824 0.4798352 0.813618 0.4798352 0.813618 0.2237544 0.8084355 0.2237544 0.8101999 0.2237544 0.8101998 0.4798352 0.8231467 0.6280784 0.8213871 0.6280784 0.8213871 0.4263349 0.2003364 0.5133352 0.2016359 0.5133352 0.2016359 0.7150788 0.8024259 0.751836 0.8006615 0.751836 0.8006616 0.4882137 0.8032528 0.4882137 0.8050172 0.4882137 0.8050172 0.7518359 0.8239735 0.6289153 0.8256874 0.6289153 0.8256874 0.8306589 0.8282282 0.8306588 0.8265144 0.8306588 0.8265144 0.6289153 0.8101998 0.4806722 0.8101998 0.7367529 0.8084354 0.7367529 0.8162093 0.2237544 0.8179737 0.2237544 0.8179737 0.4798351 0.8327176 0.425498 0.831418 0.425498 0.831418 0.2237544 0.8231467 0.425498 0.8213871 0.425498 0.8213871 0.2237544 0.8076084 0.4873766 0.8058441 0.4873766 0.8058441 0.2237543 0.8050171 0.2237544 0.8050171 0.4873767 0.8032527 0.4873767 0.8265144 0.4263349 0.8282282 0.4263349 0.8282282 0.6280784 0.8305911 0.8306589 0.8290552 0.8306589 0.8290552 0.6289153 0.8179736 0.4806721 0.8179736 0.7367528 0.8162093 0.7367528 0.8110268 0.4806721 0.8127911 0.4806721 0.8127911 0.7367528 0.8213871 0.6289153 0.8231467 0.6289153 0.8231467 0.8306589 0.8188006 0.4263349 0.8205602 0.4263349 0.8205602 0.6280784 0.805844 0.4882137 0.8076083 0.4882136 0.8076083 0.7518359 0.2024629 0.7769575 0.2024629 0.5133352 0.2042272 0.5133352 0.8290552 0.2237544 0.8305911 0.2237544 0.8305911 0.425498 0.8282282 0.425498 0.8265144 0.425498 0.8265144 0.2237544</float_array>
          <technique_common>
            <accessor source="#Cube_039-mesh-map-1-array" count="288" stride="2">
              <param name="S" type="float"/>
              <param name="T" type="float"/>
            </accessor>
          </technique_common>
        </source>
        <vertices id="Cube_039-mesh-vertices">
          <input semantic="POSITION" source="#Cube_039-mesh-positions"/>
        </vertices>
        <triangles material="hierva_choza_gaetuli-material" count="96">
          <input semantic="VERTEX" source="#Cube_039-mesh-vertices" offset="0"/>
          <input semantic="NORMAL" source="#Cube_039-mesh-normals" offset="1"/>
          <input semantic="TEXCOORD" source="#Cube_039-mesh-map-0" offset="2" set="0"/>
          <input semantic="TEXCOORD" source="#Cube_039-mesh-map-1" offset="2" set="1"/>
          <p>0 0 0 1 1 1 3 0 2 0 0 3 3 0 4 2 0 5 4 2 6 7 2 7 5 3 8 4 2 9 6 3 10 7 2 11 8 4 12 9 4 13 11 5 14 8 4 15 11 5 16 10 6 17 12 7 18 15 7 19 13 8 20 12 7 21 14 9 22 15 7 23 16 10 24 17 11 25 19 10 26 16 10 27 19 10 28 18 12 29 20 13 30 23 13 31 21 14 32 20 13 33 22 15 34 23 13 35 24 16 36 27 17 37 25 18 38 24 16 39 26 19 40 27 17 41 28 20 42 31 20 43 29 21 44 28 20 45 30 22 46 31 20 47 32 23 48 33 23 49 34 24 50 32 23 51 35 23 52 33 23 53 36 25 54 37 25 55 38 26 56 36 25 57 38 26 58 39 27 59 40 19 60 41 16 61 42 28 62 40 19 63 43 29 64 41 16 65 44 30 66 45 31 67 46 30 68 44 30 69 46 30 70 47 31 71 48 32 72 49 33 73 50 34 74 48 32 75 51 35 76 49 33 77 52 36 78 53 37 79 54 38 80 52 36 81 54 38 82 55 39 83 56 40 84 57 41 85 58 40 86 56 40 87 58 40 88 59 42 89 60 30 90 61 31 91 62 43 92 60 30 93 62 43 94 63 30 95 7 44 96 37 45 97 5 46 98 28 47 99 63 48 100 30 49 101 19 50 102 51 50 103 18 51 104 8 52 105 42 52 106 9 52 107 17 53 108 49 54 109 19 55 110 10 56 111 40 57 112 8 58 113 30 59 114 62 60 115 31 61 116 21 62 117 52 62 118 20 63 119 31 64 120 61 65 121 29 66 122 20 67 123 55 68 124 22 69 125 11 70 126 43 71 127 10 72 128 0 73 129 34 74 130 1 75 131 9 76 132 41 77 133 11 78 134 2 79 135 32 80 136 0 81 137 22 82 138 54 83 139 23 84 140 13 85 141 44 85 142 12 86 143 21 87 144 54 88 145 53 89 146 12 90 147 47 91 148 14 92 149 3 93 150 35 94 151 2 95 152 25 96 153 56 96 154 24 97 155 1 98 156 33 99 157 3 100 158 26 101 159 56 102 160 59 103 161 14 104 162 46 59 163 15 105 164 5 106 165 36 107 166 4 108 167 13 109 168 46 110 169 45 111 170 4 112 171 39 113 172 6 114 173 26 115 174 58 116 175 27 117 176 16 118 177 50 119 178 17 120 179 27 121 180 57 122 181 25 123 182 16 124 183 51 125 184 48 126 185 6 127 186 38 128 187 7 129 188 29 130 189 60 131 190 28 132 191 7 44 192 38 133 193 37 45 194 28 47 195 60 134 196 63 48 197 19 50 198 49 51 199 51 50 200 8 52 201 40 135 202 42 52 203 17 53 204 50 89 205 49 54 206 10 56 207 43 136 208 40 57 209 30 59 210 63 137 211 62 60 212 21 62 213 53 63 214 52 62 215 31 64 216 62 89 217 61 65 218 20 67 219 52 134 220 55 68 221 11 70 222 41 138 223 43 71 224 0 73 225 32 139 226 34 74 227 9 76 228 42 89 229 41 77 230 2 79 231 35 134 232 32 80 233 22 82 234 55 140 235 54 83 236 13 85 237 45 86 238 44 85 239 21 87 240 23 141 241 54 88 242 12 90 243 44 142 244 47 91 245 3 93 246 33 143 247 35 94 248 25 96 249 57 97 250 56 96 251 1 98 252 34 89 253 33 99 254 26 101 255 24 144 256 56 102 257 14 104 258 47 104 259 46 59 260 5 106 261 37 145 262 36 107 263 13 109 264 15 146 265 46 110 266 4 112 267 36 134 268 39 113 269 26 115 270 59 147 271 58 116 272 16 118 273 48 148 274 50 119 275 27 121 276 58 89 277 57 122 278 16 124 279 18 149 280 51 125 281 6 127 282 39 128 283 38 128 284 29 130 285 61 150 286 60 131 287</p>
        </triangles>
      </mesh>
    </geometry>
  </library_geometries>
  <library_visual_scenes>
    <visual_scene id="Scene" name="Scene">
      <node id="house_2_f" name="house_2_f" type="NODE">
        <matrix sid="transform">1 0 0 0 0 1 0 0 0 0 1 0 0 0 0 1</matrix>
        <instance_geometry url="#Cube_039-mesh" name="house_2_f">
          <bind_material>
            <technique_common>
              <instance_material symbol="hierva_choza_gaetuli-material" target="#hierva_choza_gaetuli-material">
                <bind_vertex_input semantic="Cube_039-mesh-map-0" input_semantic="TEXCOORD" input_set="0"/>
                <bind_vertex_input semantic="Cube_039-mesh-map-1" input_semantic="TEXCOORD" input_set="1"/>
              </instance_material>
            </technique_common>
          </bind_material>
        </instance_geometry>
        <node id="prop_garrisoned" name="prop_garrisoned" type="NODE">
          <matrix sid="transform">-0.7829416 1.18221e-7 0 5.35037e-14 -1.18221e-7 -0.7829416 0 5.033843 0 0 0.7829416 9.013988 0 0 0 1</matrix>
        </node>
        <node id="prop_projectile" name="prop_projectile" type="NODE">
          <matrix sid="transform">-0.7829416 1.18221e-7 0 5.35037e-14 -1.18221e-7 -0.7829416 0 5.033842 0 0 0.7829416 9.013988 0 0 0 1</matrix>
        </node>
      </node>
    </visual_scene>
  </library_visual_scenes>
  <scene>
    <instance_visual_scene url="#Scene"/>
  </scene>
</COLLADA>