<?xml version="1.0" encoding="utf-8"?>
<COLLADA xmlns="http://www.collada.org/2005/11/COLLADASchema" version="1.4.1" xmlns:xsi="http://www.w3.org/2001/XMLSchema-instance">
  <asset>
    <contributor>
      <author>Blender User</author>
      <authoring_tool>Blender 4.3.1 commit date:2024-12-10, commit time:07:46, hash:33d812126174</authoring_tool>
    </contributor>
    <created>2026-08-22T20:04:25</created>
    <modified>2026-08-22T20:04:25</modified>
    <unit name="meter" meter="1"/>
    <up_axis>Z_UP</up_axis>
  </asset>
  <library_effects>
    <effect id="hierva_choza_gaetuli-effect">
      <profile_COMMON>
        <technique sid="common">
          <lambert>
            <emission>
              <color sid="emission">0 0 0 1</color>
            </emission>
            <diffuse>
              <color sid="diffuse">0.8 0.8 0.8 1</color>
            </diffuse>
            <index_of_refraction>
              <float sid="ior">1.45</float>
            </index_of_refraction>
          </lambert>
        </technique>
      </profile_COMMON>
    </effect>
  </library_effects>
  <library_images/>
  <library_materials>
    <material id="hierva_choza_gaetuli-material" name="hierva choza gaetuli">
      <instance_effect url="#hierva_choza_gaetuli-effect"/>
    </material>
  </library_materials>
  <library_geometries>
    <geometry id="Cube_038-mesh" name="Cube.038">
      <mesh>
        <source id="Cube_038-mesh-positions">
          <float_array id="Cube_038-mesh-positions-array" count="192">4.22298 -2.367005 3.532159 4.22298 -2.367005 0.02975827 3.785318 -6.922687 3.532159 3.785318 -6.922687 0.02975827 1.77884 -5.186769 3.53216 1.77884 -5.186769 0.02975827 6.119727 -4.226965 3.53216 6.119727 -4.226965 0.02975827 -6.515279 5.685422 3.532159 -6.515279 5.685422 0.02975827 -3.714186 2.066075 3.532159 -3.714186 2.066075 0.02975827 -6.365116 1.956838 3.532159 -6.365116 1.956838 0.02975827 -3.859354 5.629122 3.532159 -3.859354 5.629122 0.02975827 -6.515276 -3.271301 3.532159 -6.515276 -3.271301 0.02975827 -3.714186 -6.890647 3.532159 -3.714186 -6.890647 0.02975827 -6.365117 -6.999884 3.532159 -6.365117 -6.999884 0.02975827 -3.859353 -3.3276 3.532159 -3.859353 -3.3276 0.02975827 3.301528 5.685421 3.532159 3.301528 5.685421 0.02975827 6.102619 2.066074 3.532159 6.102619 2.066074 0.02975827 3.451689 1.956837 3.532159 3.451689 1.956837 0.02975827 5.957452 5.629122 3.532159 5.957452 5.629122 0.02975827 4.253838 -2.369969 3.532159 3.816176 -6.925652 0.02975827 4.253838 -2.369969 0.02975827 3.816176 -6.925652 3.532159 1.785533 -5.217038 3.53216 1.785533 -5.217038 0.02975827 6.12642 -4.257235 0.02975827 6.12642 -4.257235 3.53216 -6.490763 5.704395 3.532159 -3.68967 2.085048 0.02975827 -6.490763 5.704395 0.02975827 -3.68967 2.085048 3.532159 -6.339509 1.939365 3.532159 -6.339509 1.939365 0.02975827 -3.833747 5.611649 0.02975827 -3.833747 5.611649 3.532159 -6.49076 -3.252327 3.532159 -3.68967 -6.871674 0.02975827 -6.49076 -3.252327 0.02975827 -3.68967 -6.871674 3.532159 -6.33951 -7.017357 3.532159 -6.33951 -7.017357 0.02975827 -3.833746 -3.345073 0.02975827 -3.833746 -3.345073 3.532159 3.277012 5.666448 3.532159 3.277012 5.666448 0.02975827 6.078104 2.047101 0.02975827 6.078104 2.047101 3.532159 3.477296 1.939364 3.532159 3.477296 1.939364 0.02975827 5.983059 5.611649 0.02975827 5.983059 5.611649 3.532159</float_array>
          <technique_common>
            <accessor source="#Cube_038-mesh-positions-array" count="64" stride="3">
              <param name="X" type="float"/>
              <param name="Y" type="float"/>
              <param name="Z" type="float"/>
            </accessor>
          </technique_common>
        </source>
        <source id="Cube_038-mesh-normals">
          <float_array id="Cube_038-mesh-normals-array" count="453">-0.9954171 0.09562921 0 -0.9954171 0.09562927 0 -0.9954171 0.09562921 0 -0.9954171 0.09562915 0 -0.2158934 0.976417 0 -0.2158934 0.976417 0 -0.2158933 0.976417 0 -0.7908276 -0.612039 0 -0.7908276 -0.6120391 0 -0.826025 0.5636335 0 -0.826025 0.5636335 0 -0.8260251 0.5636336 0 -0.8260251 0.5636335 0 -0.7908278 -0.6120388 0 -0.7908278 -0.6120389 0 -0.7908278 -0.6120387 0 -0.8260248 0.5636338 0 -0.8260248 0.5636337 0 -0.8260248 0.5636338 0 -0.8260249 0.5636337 0 0.7908278 0.6120388 0 0.7908279 0.6120387 0 0.7908278 0.6120389 0 -0.826025 0.5636336 0 -0.826025 0.5636336 0 0.9954171 -0.09562921 0 0.9954171 -0.09562915 0 0.9954171 -0.09562927 0 0.9954171 -0.09562915 0 0.2158932 -0.976417 0 0.2158932 -0.976417 0 0.2158932 -0.976417 0 0.2158932 -0.976417 0 0.7908275 0.6120391 0 0.7908275 0.6120392 0 0.7908276 0.6120391 0 0.7908275 0.6120392 0 0.826025 -0.5636335 0 0.8260251 -0.5636335 0 0.7908279 0.6120386 0 0.7908279 0.6120386 0 0.8260249 -0.5636338 0 0.826025 -0.5636337 0 0.8260248 -0.5636339 0 -0.7908277 -0.6120389 0 -0.7908278 -0.6120388 0 -0.7908278 -0.6120389 0 0.8260251 -0.5636335 0 0.826025 -0.5636336 0 -0.5636482 -0.8260151 0 -0.5636319 -0.8260261 0 -0.5636318 -0.8260262 0 0 0 -1 0 0 -1 0 0 -1 0 0 1 -9.14948e-6 0 1 0 0 1 -0.0956431 -0.9954157 0 -0.09564477 -0.9954156 0 -0.09564477 -0.9954156 0 -0.6120346 0.7908311 0 -0.6120262 0.7908376 0 -0.6120262 0.7908376 0 0 0 -1 0 0 -1 0 0 -1 0 0 1 -6.17009e-6 0 1 0.5636348 0.8260242 0 0.5636266 0.8260297 0 0.5636266 0.8260298 0 -0.9764158 -0.2158991 0 -0.976414 -0.2159073 0 -0.9764139 -0.2159073 0 0 0 -1 1.48847e-7 0 -1 1.4951e-7 0 -1 0 0 1 -2.15278e-7 0 1 -2.16236e-7 0 1 0.6120431 -0.7908245 0 0.6120262 -0.7908375 0 0.6120261 -0.7908376 0 -0.6120333 0.7908321 0 -0.6120501 0.7908191 0 -0.6120502 0.790819 0 0 0 -1 0 0 -1 0 0 -1 -1.33884e-5 0 1 -6.85331e-7 0 1 -6.30154e-7 0 1 0.9764172 0.2158925 0 0.9764172 0.2158925 0 0.9764172 0.2158925 0 -0.563632 -0.8260261 0 -0.5636482 -0.826015 0 0 0 -1 0 0 -1 0 0 -1 0 0 1 4.62856e-6 0 1 0.6120262 -0.7908376 0 -0.6120262 0.7908375 0 -0.612043 0.7908246 0 -0.6120432 0.7908245 0 0 0 -1 0 0 -1 0 0 -1 -1.33545e-5 0 1 7.15789e-6 0 1 7.2471e-6 0 1 0.5636267 0.8260297 0 0.5636429 0.8260187 0 0.5636429 0.8260186 0 -0.5636266 -0.8260298 0 -0.5636266 -0.8260297 0 0 0 -1 0 0 -1 0 0 -1 -1.37375e-5 0 1 9.08831e-6 0 1 9.19028e-6 0 1 0.09560501 0.9954194 0 0.09560668 0.9954192 0 0 0 -1 0 0 -1 0 0 1 1.24838e-5 0 1 1.25379e-5 0 1 0.5636319 0.8260262 0 0.56364 0.8260206 0 0.56364 0.8260205 0 0 0 -1 -9.19022e-6 0 1 -0.0956431 -0.9954158 0 -0.6120346 0.7908311 0 -6.19674e-6 0 1 0.5636348 0.8260241 0 -0.9764157 -0.2158989 0 0.6120432 -0.7908244 0 -0.6120332 0.7908322 0 -1.34436e-5 0 1 0.9764171 0.2158925 0 4.6492e-6 0 1 0 0 -1 -1.38397e-5 0 1 0.09560501 0.9954193 0 0 0 -1 0.5636318 0.8260262 0</float_array>
          <technique_common>
            <accessor source="#Cube_038-mesh-normals-array" count="151" stride="3">
              <param name="X" type="float"/>
              <param name="Y" type="float"/>
              <param name="Z" type="float"/>
            </accessor>
          </technique_common>
        </source>
        <source id="Cube_038-mesh-map-0">
          <float_array id="Cube_038-mesh-map-0-array" count="576">0.9984335 0.6838312 1.000765 0.001214206 0.001161634 6.92369e-4 0.9984335 0.6838312 0.001161634 6.92369e-4 5.39125e-4 0.6833093 0.9984335 0.6838312 0.001161634 6.92369e-4 1.000765 0.001214206 0.9984335 0.6838312 5.39125e-4 0.6833093 0.001161634 6.92369e-4 0.9984335 0.6838312 1.000765 0.001214206 0.001161634 6.92369e-4 0.9984335 0.6838312 0.001161634 6.92369e-4 5.39125e-4 0.6833093 0.9984335 0.6838312 0.001161634 6.92369e-4 1.000765 0.001214206 0.9984335 0.6838312 5.39125e-4 0.6833093 0.001161634 6.92369e-4 0.9984335 0.6838312 1.000765 0.001214206 0.001161634 6.92369e-4 0.9984335 0.6838312 0.001161634 6.92369e-4 5.39125e-4 0.6833093 0.9984335 0.6838312 0.001161634 6.92369e-4 1.000765 0.001214206 0.9984335 0.6838312 5.39125e-4 0.6833093 0.001161634 6.92369e-4 0.9984335 0.6838312 0.001161634 6.92369e-4 1.000765 0.001214206 0.9984335 0.6838312 5.39125e-4 0.6833093 0.001161634 6.92369e-4 0.9984335 0.6838312 0.001161634 6.92369e-4 1.000765 0.001214206 0.9984335 0.6838312 5.39125e-4 0.6833093 0.001161634 6.92369e-4 0.9984335 0.6838312 0.001161634 6.92369e-4 1.000765 0.001214206 0.9984335 0.6838312 5.39125e-4 0.6833093 0.001161634 6.92369e-4 0.9984335 0.6838312 1.000765 0.001214206 0.001161634 6.92369e-4 0.9984335 0.6838312 0.001161634 6.92369e-4 5.39125e-4 0.6833093 0.9984335 0.6838312 0.001161634 6.92369e-4 1.000765 0.001214206 0.9984335 0.6838312 5.39125e-4 0.6833093 0.001161634 6.92369e-4 0.9984335 0.6838312 1.000765 0.001214206 0.001161634 6.92369e-4 0.9984335 0.6838312 0.001161634 6.92369e-4 5.39125e-4 0.6833093 0.9984335 0.6838312 0.001161634 6.92369e-4 1.000765 0.001214206 0.9984335 0.6838312 5.39125e-4 0.6833093 0.001161634 6.92369e-4 0.9984335 0.6838312 1.000765 0.001214206 0.001161634 6.92369e-4 0.9984335 0.6838312 0.001161634 6.92369e-4 5.39125e-4 0.6833093 0.9984335 0.6838312 1.000765 0.001214206 0.001161634 6.92369e-4 0.9984335 0.6838312 0.001161634 6.92369e-4 5.39125e-4 0.6833093 0.9984335 0.6838312 1.000765 0.001214206 0.001161634 6.92369e-4 0.9984335 0.6838312 0.001161634 6.92369e-4 5.39125e-4 0.6833093 1.000765 0.001214206 0.9984335 0.6838312 0.9984335 0.6838312 1.000765 0.001214206 0.001161634 6.92369e-4 1.000765 0.001214206 5.39125e-4 0.6833093 0.9984335 0.6838312 5.39125e-4 0.6833093 0.001161634 6.92369e-4 5.39125e-4 0.6833093 5.39125e-4 0.6833093 1.000765 0.001214206 0.9984335 0.6838312 0.9984335 0.6838312 1.000765 0.001214206 0.001161634 6.92369e-4 0.001161634 6.92369e-4 5.39125e-4 0.6833093 0.9984335 0.6838312 5.39125e-4 0.6833093 5.39125e-4 0.6833093 0.001161634 6.92369e-4 0.001161634 6.92369e-4 1.000765 0.001214206 0.9984335 0.6838312 0.9984335 0.6838312 0.001161634 6.92369e-4 1.000765 0.001214206 1.000765 0.001214206 0.9984335 0.6838312 5.39125e-4 0.6833093 5.39125e-4 0.6833093 5.39125e-4 0.6833093 0.001161634 6.92369e-4 0.001161634 6.92369e-4 0.9984335 0.6838312 1.000765 0.001214206 1.000765 0.001214206 0.001161634 6.92369e-4 1.000765 0.001214206 1.000765 0.001214206 5.39125e-4 0.6833093 0.9984335 0.6838312 0.9984335 0.6838312 5.39125e-4 0.6833093 0.001161634 6.92369e-4 0.001161634 6.92369e-4 1.000765 0.001214206 0.9984335 0.6838312 0.9984335 0.6838312 0.001161634 6.92369e-4 1.000765 0.001214206 1.000765 0.001214206 5.39125e-4 0.6833093 0.9984335 0.6838312 5.39125e-4 0.6833093 0.001161634 6.92369e-4 5.39125e-4 0.6833093 5.39125e-4 0.6833093 0.9984335 0.6838312 1.000765 0.001214206 1.000765 0.001214206 0.001161634 6.92369e-4 1.000765 0.001214206 0.001161634 6.92369e-4 5.39125e-4 0.6833093 0.9984335 0.6838312 0.9984335 0.6838312 5.39125e-4 0.6833093 0.001161634 6.92369e-4 0.001161634 6.92369e-4 1.000765 0.001214206 0.9984335 0.6838312 0.9984335 0.6838312 0.001161634 6.92369e-4 1.000765 0.001214206 1.000765 0.001214206 0.9984335 0.6838312 5.39125e-4 0.6833093 5.39125e-4 0.6833093 0.001161634 6.92369e-4 5.39125e-4 0.6833093 5.39125e-4 0.6833093 0.9984335 0.6838312 1.000765 0.001214206 1.000765 0.001214206 0.001161634 6.92369e-4 1.000765 0.001214206 0.001161634 6.92369e-4 5.39125e-4 0.6833093 0.9984335 0.6838312 0.9984335 0.6838312 5.39125e-4 0.6833093 0.001161634 6.92369e-4 0.001161634 6.92369e-4 1.000765 0.001214206 1.000765 0.001214206 0.9984335 0.6838312 1.000765 0.001214206 0.001161634 6.92369e-4 0.001161634 6.92369e-4 5.39125e-4 0.6833093 0.9984335 0.6838312 0.9984335 0.6838312 0.001161634 6.92369e-4 0.001161634 6.92369e-4 5.39125e-4 0.6833093 1.000765 0.001214206 1.000765 0.001214206 0.9984335 0.6838312 1.000765 0.001214206 1.000765 0.001214206 0.001161634 6.92369e-4 5.39125e-4 0.6833093 0.9984335 0.6838312 0.9984335 0.6838312 5.39125e-4 0.6833093 5.39125e-4 0.6833093 0.001161634 6.92369e-4 1.000765 0.001214206 1.000765 0.001214206 0.9984335 0.6838312 0.001161634 6.92369e-4 0.001161634 6.92369e-4 1.000765 0.001214206 0.9984335 0.6838312 0.9984335 0.6838312 5.39125e-4 0.6833093 5.39125e-4 0.6833093 5.39125e-4 0.6833093 0.001161634 6.92369e-4 0.9984335 0.6838312 0.9984335 0.6838312 1.000765 0.001214206 0.001161634 6.92369e-4 0.001161634 6.92369e-4 1.000765 0.001214206 5.39125e-4 0.6833093 5.39125e-4 0.6833093 0.9984335 0.6838312 5.39125e-4 0.6833093 5.39125e-4 0.6833093 0.001161634 6.92369e-4 1.000765 0.001214206 1.000765 0.001214206 0.9984335 0.6838312 0.001161634 6.92369e-4 0.001161634 6.92369e-4 1.000765 0.001214206 5.39125e-4 0.6833093 0.9984335 0.6838312 0.9984335 0.6838312 0.001161634 6.92369e-4 0.001161634 6.92369e-4 5.39125e-4 0.6833093 0.9984335 0.6838312 0.9984335 0.6838312 1.000765 0.001214206 0.001161634 6.92369e-4 1.000765 0.001214206 1.000765 0.001214206 5.39125e-4 0.6833093 5.39125e-4 0.6833093 0.9984335 0.6838312 5.39125e-4 0.6833093 5.39125e-4 0.6833093 0.001161634 6.92369e-4 1.000765 0.001214206 1.000765 0.001214206 0.9984335 0.6838312 0.001161634 6.92369e-4 0.001161634 6.92369e-4 1.000765 0.001214206 0.9984335 0.6838312 0.9984335 0.6838312 5.39125e-4 0.6833093 0.001161634 6.92369e-4 0.001161634 6.92369e-4 5.39125e-4 0.6833093 0.9984335 0.6838312 0.9984335 0.6838312 1.000765 0.001214206 0.001161634 6.92369e-4 1.000765 0.001214206 1.000765 0.001214206 5.39125e-4 0.6833093 5.39125e-4 0.6833093 0.9984335 0.6838312 5.39125e-4 0.6833093 5.39125e-4 0.6833093 0.001161634 6.92369e-4</float_array>
          <technique_common>
            <accessor source="#Cube_038-mesh-map-0-array" count="288" stride="2">
              <param name="S" type="float"/>
              <param name="T" type="float"/>
            </accessor>
          </technique_common>
        </source>
        <source id="Cube_038-mesh-map-1">
          <float_array id="Cube_038-mesh-map-1-array" count="576">0 0 0.1993493 0 0.1993492 0.2635617 0 0 0.1993492 0.2635617 0 0.2635617 0 1 0.1993493 0.7760568 0.1993493 1 0 1 0 0.7760568 0.1993493 0.7760568 0.2001627 0.5202333 0.3995119 0.5202333 0.3995119 0.7484547 0.2001627 0.5202333 0.3995119 0.7484547 0.2001627 0.7484547 0 0.7752088 0.1993492 0.5202334 0.1993492 0.7752088 0 0.7752088 0 0.5202334 0.1993492 0.5202334 0.6004881 0.2290693 0.7998374 0.2290693 0.7998373 0.4572905 0.6004881 0.2290693 0.7998373 0.4572905 0.6004881 0.4572905 0.4003253 0.5107991 0.5996747 0.2558236 0.5996747 0.5107991 0.4003253 0.5107991 0.4003253 0.2558236 0.5996747 0.2558236 0.6004881 0.9154261 0.7998374 0.6872064 0.7998374 0.9154261 0.6004881 0.9154261 0.6004881 0.6872063 0.7998374 0.6872064 0.4003253 0.7666226 0.5996747 0.5116471 0.5996747 0.7666226 0.4003253 0.7666226 0.4003253 0.5116471 0.5996747 0.5116471 0.2001627 0.2635617 0.399512 0 0.3995119 0.2635617 0.2001627 0.2635617 0.2001627 0 0.399512 0 0.8006508 0 1 0 1 0.2239417 0.8006508 0 1 0.2239417 0.8006508 0.2239417 0.6004881 0.6863584 0.7998374 0.4581385 0.7998374 0.6863584 0.6004881 0.6863584 0.6004881 0.4581385 0.7998374 0.4581385 0.2001627 0.2644097 0.3995119 0.2644097 0.3995119 0.5193853 0.2001627 0.2644097 0.3995119 0.5193853 0.2001627 0.5193853 0.4003253 0.9956902 0.5996747 0.7674706 0.5996747 0.9956902 0.4003253 0.9956902 0.4003253 0.7674706 0.5996747 0.7674706 0.4003254 0 0.5996747 0 0.5996747 0.2549756 0.4003254 0 0.5996747 0.2549756 0.4003253 0.2549756 0.6004881 0 0.7998374 0 0.7998374 0.2282213 0.6004881 0 0.7998374 0.2282213 0.6004881 0.2282213 0 0.2644097 0.1993492 0.2644097 0.1993492 0.5193853 0 0.2644097 0.1993492 0.5193853 0 0.5193853 0.8485877 0.622613 0.8468823 0.4147833 0.8485877 0.4147833 0.8281942 0.4147832 0.8264297 0.6785894 0.8264297 0.4147832 0.8315853 0.6785893 0.8333498 0.4147832 0.8333498 0.6785893 0.8410314 0.622613 0.839319 0.4147833 0.8410314 0.4147833 0.8333499 0.8872671 0.831867 0.6794373 0.8333499 0.6794373 0.810149 0.6863585 0.8083845 0.4147832 0.810149 0.4147832 0.8049931 0.4147832 0.8032287 0.6863585 0.8032287 0.4147832 0.8443635 0.623461 0.8460689 0.8312907 0.8443635 0.8312907 0.8256162 0.8872671 0.8241184 0.6794373 0.8256162 0.6794373 0.8256162 0.6785893 0.8238517 0.4147832 0.8256162 0.4147832 0.8186958 0.4147832 0.8204603 0.6785895 0.8186959 0.6785895 0.836741 0.6794375 0.8382238 0.8872672 0.836741 0.8872672 0.8186959 0.6794375 0.8201788 0.8872672 0.8186959 0.8872672 0.8135402 0.4147832 0.8153046 0.6863585 0.8135402 0.6863585 0.8006508 0.6872065 0.8024153 0.9587815 0.8006508 0.9587815 0.8494012 0.4147833 0.8508991 0.6226131 0.8494012 0.6226131 0.8485877 0.8312907 0.8468823 0.623461 0.8485877 0.623461 0.8230384 0.6785895 0.8212739 0.4147833 0.8230384 0.4147833 0.8341632 0.6785894 0.8359277 0.4147832 0.8359277 0.6785895 0.8224749 0.8872672 0.8209921 0.6794375 0.8224749 0.6794375 0.8267113 0.6794375 0.828194 0.8872672 0.8267113 0.8872672 0.8024153 0.4147833 0.8006508 0.6863585 0.8006508 0.4147833 0.816118 0.4147832 0.8178825 0.6863585 0.816118 0.6863585 0.8418447 0.6234609 0.8435502 0.8312907 0.8418447 0.8312907 0.8460689 0.622613 0.8443636 0.4147833 0.8460689 0.4147833 0.8385055 0.6785894 0.836741 0.4147832 0.8385055 0.4147832 0.8290075 0.4147832 0.830772 0.6785894 0.8290075 0.6785894 0.8304902 0.8872672 0.8290075 0.6794375 0.8304902 0.6794375 0.839319 0.6234609 0.8410313 0.8312907 0.839319 0.8312907 0.8075711 0.4147832 0.8058066 0.6863585 0.8058066 0.4147832 0.8109622 0.4147832 0.8127266 0.6863585 0.8109622 0.6863585 0.8418447 0.4147832 0.8435502 0.622613 0.8418447 0.622613 0.8485877 0.622613 0.8468823 0.622613 0.8468823 0.4147833 0.8281942 0.4147832 0.8281942 0.6785894 0.8264297 0.6785894 0.8315853 0.6785893 0.8315853 0.4147832 0.8333498 0.4147832 0.8410314 0.622613 0.839319 0.622613 0.839319 0.4147833 0.8333499 0.8872671 0.831867 0.8872671 0.831867 0.6794373 0.810149 0.6863585 0.8083845 0.6863585 0.8083845 0.4147832 0.8049931 0.4147832 0.8049932 0.6863585 0.8032287 0.6863585 0.8443635 0.623461 0.8460689 0.623461 0.8460689 0.8312907 0.8256162 0.8872671 0.8241184 0.8872671 0.8241184 0.6794373 0.8256162 0.6785893 0.8238517 0.6785893 0.8238517 0.4147832 0.8186958 0.4147832 0.8204603 0.4147833 0.8204603 0.6785895 0.836741 0.6794375 0.8382238 0.6794375 0.8382238 0.8872672 0.8186959 0.6794375 0.8201788 0.6794375 0.8201788 0.8872672 0.8135402 0.4147832 0.8153046 0.4147832 0.8153046 0.6863585 0.8006508 0.6872065 0.8024153 0.6872064 0.8024153 0.9587815 0.8494012 0.4147833 0.8508991 0.4147833 0.8508991 0.6226131 0.8485877 0.8312907 0.8468823 0.8312907 0.8468823 0.623461 0.8230384 0.6785895 0.8212739 0.6785895 0.8212739 0.4147833 0.8341632 0.6785894 0.8341632 0.4147832 0.8359277 0.4147832 0.8224749 0.8872672 0.8209921 0.8872672 0.8209921 0.6794375 0.8267113 0.6794375 0.828194 0.6794375 0.828194 0.8872672 0.8024153 0.4147833 0.8024153 0.6863585 0.8006508 0.6863585 0.816118 0.4147832 0.8178825 0.4147832 0.8178825 0.6863585 0.8418447 0.6234609 0.8435502 0.6234609 0.8435502 0.8312907 0.8460689 0.622613 0.8443636 0.622613 0.8443636 0.4147833 0.8385055 0.6785894 0.836741 0.6785894 0.836741 0.4147832 0.8290075 0.4147832 0.8307719 0.4147832 0.830772 0.6785894 0.8304902 0.8872672 0.8290075 0.8872672 0.8290075 0.6794375 0.839319 0.6234609 0.8410313 0.6234609 0.8410313 0.8312907 0.8075711 0.4147832 0.807571 0.6863585 0.8058066 0.6863585 0.8109622 0.4147832 0.8127266 0.4147832 0.8127266 0.6863585 0.8418447 0.4147832 0.8435502 0.4147832 0.8435502 0.622613</float_array>
          <technique_common>
            <accessor source="#Cube_038-mesh-map-1-array" count="288" stride="2">
              <param name="S" type="float"/>
              <param name="T" type="float"/>
            </accessor>
          </technique_common>
        </source>
        <vertices id="Cube_038-mesh-vertices">
          <input semantic="POSITION" source="#Cube_038-mesh-positions"/>
        </vertices>
        <triangles material="hierva_choza_gaetuli-material" count="96">
          <input semantic="VERTEX" source="#Cube_038-mesh-vertices" offset="0"/>
          <input semantic="NORMAL" source="#Cube_038-mesh-normals" offset="1"/>
          <input semantic="TEXCOORD" source="#Cube_038-mesh-map-0" offset="2" set="0"/>
          <input semantic="TEXCOORD" source="#Cube_038-mesh-map-1" offset="2" set="1"/>
          <p>0 0 0 1 1 1 3 2 2 0 0 3 3 2 4 2 3 5 4 4 6 7 4 7 5 5 8 4 4 9 6 6 10 7 4 11 8 7 12 9 8 13 11 7 14 8 7 15 11 7 16 10 7 17 12 9 18 15 10 19 13 11 20 12 9 21 14 12 22 15 10 23 16 13 24 17 14 25 19 13 26 16 13 27 19 13 28 18 15 29 20 16 30 23 17 31 21 18 32 20 16 33 22 19 34 23 17 35 24 20 36 27 20 37 25 21 38 24 20 39 26 22 40 27 20 41 28 11 42 31 23 43 29 10 44 28 11 45 30 24 46 31 23 47 32 25 48 33 26 49 34 27 50 32 25 51 35 28 52 33 26 53 36 29 54 37 30 55 38 31 56 36 29 57 38 31 58 39 32 59 40 33 60 41 34 61 42 35 62 40 33 63 43 36 64 41 34 65 44 37 66 45 38 67 46 37 68 44 37 69 46 37 70 47 38 71 48 39 72 49 39 73 50 39 74 48 39 75 51 40 76 49 39 77 52 41 78 53 42 79 54 41 80 52 41 81 54 41 82 55 43 83 56 44 84 57 45 85 58 44 86 56 44 87 58 44 88 59 46 89 60 37 90 61 47 91 62 37 92 60 37 93 62 37 94 63 48 95 13 49 96 44 50 97 12 51 98 21 52 99 54 53 100 53 54 101 14 55 102 44 56 103 47 57 104 3 58 105 35 59 106 2 60 107 25 61 108 56 62 109 24 63 110 1 64 111 33 65 112 3 66 113 26 67 114 56 68 115 59 57 116 14 69 117 46 70 118 15 71 119 5 72 120 36 73 121 4 74 122 15 75 123 45 76 124 13 77 125 4 78 126 39 79 127 6 80 128 26 81 129 58 82 130 27 83 131 16 84 132 50 85 133 17 86 134 27 87 135 57 88 136 25 89 137 18 90 138 48 91 139 16 92 140 6 93 141 38 94 142 7 95 143 29 96 144 60 49 145 28 97 146 7 98 147 37 99 148 5 100 149 30 101 150 60 102 151 63 57 152 19 83 153 51 83 154 18 103 155 8 104 156 42 105 157 9 106 158 19 107 159 50 108 160 49 109 161 10 110 162 40 111 163 8 112 164 30 113 165 62 114 166 31 115 167 21 116 168 52 117 169 20 117 170 31 118 171 61 119 172 29 120 173 20 121 174 55 122 175 22 123 176 11 83 177 43 83 178 10 103 179 0 124 180 34 125 181 1 125 182 11 126 183 42 127 184 41 109 185 2 128 186 32 129 187 0 130 188 22 131 189 54 132 190 23 133 191 13 49 192 45 97 193 44 50 194 21 52 195 23 134 196 54 53 197 14 55 198 12 135 199 44 56 200 3 58 201 33 136 202 35 59 203 25 61 204 57 137 205 56 62 206 1 64 207 34 109 208 33 65 209 26 67 210 24 138 211 56 68 212 14 69 213 47 139 214 46 70 215 5 72 216 37 140 217 36 73 218 15 75 219 46 109 220 45 76 221 4 78 222 36 57 223 39 79 224 26 81 225 59 141 226 58 82 227 16 84 228 48 142 229 50 85 230 27 87 231 58 109 232 57 88 233 18 90 234 51 143 235 48 91 236 6 93 237 39 144 238 38 94 239 29 96 240 61 51 241 60 49 242 7 98 243 38 109 244 37 99 245 30 101 246 28 145 247 60 102 248 19 83 249 49 83 250 51 83 251 8 104 252 40 63 253 42 105 254 19 107 255 17 146 256 50 108 257 10 110 258 43 143 259 40 111 260 30 113 261 63 70 262 62 114 263 21 116 264 53 116 265 52 117 266 31 118 267 62 109 268 61 119 269 20 121 270 52 147 271 55 122 272 11 83 273 41 83 274 43 83 275 0 124 276 32 148 277 34 125 278 11 126 279 9 149 280 42 127 281 2 128 282 35 57 283 32 129 284 22 131 285 55 150 286 54 132 287</p>
        </triangles>
      </mesh>
    </geometry>
  </library_geometries>
  <library_visual_scenes>
    <visual_scene id="Scene" name="Scene">
      <node id="house_3_f" name="house_3_f" type="NODE">
        <matrix sid="transform">1 0 0 0 0 1 0 0 0 0 1 0 0 0 0 1</matrix>
        <instance_geometry url="#Cube_038-mesh" name="house_3_f">
          <bind_material>
            <technique_common>
              <instance_material symbol="hierva_choza_gaetuli-material" target="#hierva_choza_gaetuli-material">
                <bind_vertex_input semantic="Cube_038-mesh-map-0" input_semantic="TEXCOORD" input_set="0"/>
                <bind_vertex_input semantic="Cube_038-mesh-map-1" input_semantic="TEXCOORD" input_set="1"/>
              </instance_material>
            </technique_common>
          </bind_material>
        </instance_geometry>
        <node id="prop_garrisoned" name="prop_garrisoned" type="NODE">
          <matrix sid="transform">-0.7829416 1.18221e-7 0 5.35037e-14 -1.18221e-7 -0.7829416 0 5.033843 0 0 0.7829416 9.013988 0 0 0 1</matrix>
        </node>
        <node id="prop_projectile" name="prop_projectile" type="NODE">
          <matrix sid="transform">-0.7829416 1.18221e-7 0 5.35037e-14 -1.18221e-7 -0.7829416 0 5.033842 0 0 0.7829416 9.013988 0 0 0 1</matrix>
        </node>
      </node>
    </visual_scene>
  </library_visual_scenes>
  <scene>
    <instance_visual_scene url="#Scene"/>
  </scene>
</COLLADA>