<?xml version="1.0" encoding="utf-8"?>
<COLLADA xmlns="http://www.collada.org/2005/11/COLLADASchema" version="1.4.1" xmlns:xsi="http://www.w3.org/2001/XMLSchema-instance">
  <asset>
    <contributor>
      <author>Blender User</author>
      <authoring_tool>Blender 4.3.1 commit date:2024-12-10, commit time:07:46, hash:33d812126174</authoring_tool>
    </contributor>
    <created>2026-08-22T20:06:45</created>
    <modified>2026-08-22T20:06:45</modified>
    <unit name="meter" meter="1"/>
    <up_axis>Z_UP</up_axis>
  </asset>
  <library_effects>
    <effect id="hierva_choza_gaetuli-effect">
      <profile_COMMON>
        <technique sid="common">
          <lambert>
            <emission>
              <color sid="emission">0 0 0 1</color>
            </emission>
            <diffuse>
              <color sid="diffuse">0.8 0.8 0.8 1</color>
            </diffuse>
            <index_of_refraction>
              <float sid="ior">1.45</float>
            </index_of_refraction>
          </lambert>
        </technique>
      </profile_COMMON>
    </effect>
  </library_effects>
  <library_images/>
  <library_materials>
    <material id="hierva_choza_gaetuli-material" name="hierva choza gaetuli">
      <instance_effect url="#hierva_choza_gaetuli-effect"/>
    </material>
  </library_materials>
  <library_geometries>
    <geometry id="Cube_040-mesh" name="Cube.040">
      <mesh>
        <source id="Cube_040-mesh-positions">
          <float_array id="Cube_040-mesh-positions-array" count="192">3.975822 -2.139885 3.532159 3.975822 -2.139885 0.02975827 3.538161 -6.695568 3.532159 3.538161 -6.695568 0.02975827 1.531683 -4.95965 3.53216 1.531683 -4.95965 0.02975827 5.87257 -3.999846 3.53216 5.87257 -3.999846 0.02975827 -6.762436 5.912541 3.532159 -6.762436 5.912541 0.02975827 -3.961343 2.293195 3.532159 -3.961343 2.293195 0.02975827 -6.612273 2.183957 3.532159 -6.612273 2.183957 0.02975827 -4.106511 5.856242 3.532159 -4.106511 5.856242 0.02975827 -6.762434 -3.044181 3.532159 -6.762434 -3.044181 0.02975827 -3.961343 -6.663528 3.532159 -3.961343 -6.663528 0.02975827 -6.612274 -6.772765 3.532159 -6.612274 -6.772765 0.02975827 -4.10651 -3.100481 3.532159 -4.10651 -3.100481 0.02975827 3.054371 5.912541 3.532159 3.054371 5.912541 0.02975827 5.855462 2.293194 3.532159 5.855462 2.293194 0.02975827 3.204532 2.183957 3.532159 3.204532 2.183957 0.02975827 5.710295 5.856242 3.532159 5.710295 5.856242 0.02975827 4.00668 -2.14285 3.532159 3.569019 -6.698532 0.02975827 4.00668 -2.14285 0.02975827 3.569019 -6.698532 3.532159 1.538376 -4.989919 3.53216 1.538376 -4.989919 0.02975827 5.879262 -4.030115 0.02975827 5.879262 -4.030115 3.53216 -6.73792 5.931515 3.532159 -3.936828 2.312168 0.02975827 -6.73792 5.931515 0.02975827 -3.936828 2.312168 3.532159 -6.586667 2.166485 3.532159 -6.586667 2.166485 0.02975827 -4.080904 5.838769 0.02975827 -4.080904 5.838769 3.532159 -6.737918 -3.025208 3.532159 -3.936828 -6.644555 0.02975827 -6.737918 -3.025208 0.02975827 -3.936828 -6.644555 3.532159 -6.586668 -6.790238 3.532159 -6.586668 -6.790238 0.02975827 -4.080903 -3.117953 0.02975827 -4.080903 -3.117953 3.532159 3.029855 5.893568 3.532159 3.029855 5.893568 0.02975827 5.830946 2.274221 0.02975827 5.830946 2.274221 3.532159 3.230139 2.166484 3.532159 3.230139 2.166484 0.02975827 5.735902 5.838769 0.02975827 5.735902 5.838769 3.532159</float_array>
          <technique_common>
            <accessor source="#Cube_040-mesh-positions-array" count="64" stride="3">
              <param name="X" type="float"/>
              <param name="Y" type="float"/>
              <param name="Z" type="float"/>
            </accessor>
          </technique_common>
        </source>
        <source id="Cube_040-mesh-normals">
          <float_array id="Cube_040-mesh-normals-array" count="456">-0.9954171 0.09562891 0 -0.9954171 0.09562891 0 -0.2158934 0.976417 0 -0.2158934 0.976417 0 -0.7908275 -0.6120391 0 -0.7908275 -0.6120392 0 -0.7908276 -0.6120391 0 -0.8260252 0.5636333 0 -0.8260251 0.5636333 0 -0.8260253 0.5636333 0 -0.8260251 0.5636334 0 -0.7908279 -0.6120388 0 -0.7908277 -0.6120389 0 -0.7908279 -0.6120387 0 -0.8260248 0.5636337 0 -0.8260247 0.5636339 0 -0.8260249 0.5636336 0 -0.8260247 0.563634 0 0.7908278 0.6120388 0 0.7908278 0.6120389 0 0.7908279 0.6120387 0 -0.826025 0.5636336 0 -0.8260251 0.5636336 0 -0.826025 0.5636336 0 -0.8260251 0.5636335 0 0.9954171 -0.09562897 0 0.9954171 -0.09562897 0 0.9954171 -0.09562903 0 0.9954171 -0.09562891 0 0.2158935 -0.976417 0 0.2158935 -0.976417 0 0.2158935 -0.976417 0 0.7908278 0.6120389 0 0.826025 -0.5636336 0 0.826025 -0.5636337 0 0.826025 -0.5636336 0 0.7908279 0.6120386 0 0.7908279 0.6120386 0 0.8260248 -0.5636338 0 0.8260248 -0.5636338 0 0.8260248 -0.5636339 0 -0.7908279 -0.6120387 0 -0.7908278 -0.6120387 0 0.826025 -0.5636335 0 0.8260251 -0.5636335 0 0.826025 -0.5636336 0 0 0 -1 0 0 -1 0 0 -1 0 0 1 -3.01396e-6 0 1 -3.02741e-6 0 1 0.6120346 -0.790831 0 0.6120432 -0.7908244 0 0.6120432 -0.7908244 0 -0.612055 0.7908152 0 0 0 -1 0 0 -1 0 0 -1 -1.33957e-5 0 1 -2.254e-6 0 1 -2.20554e-6 0 1 0.5636534 0.8260115 0 0.5636371 0.8260225 0 0.5636371 0.8260226 0 -0.5636429 -0.8260186 0 -0.563643 -0.8260186 0 0 0 -1 0 0 -1 0 0 -1 0 0 1 2.69109e-6 0 1 2.7031e-6 0 1 0.0956431 0.9954157 0 0.0956431 0.9954158 0 0 0 -1 0 0 -1 0 0 1 6.92819e-6 0 1 6.95815e-6 0 1 0.5636271 0.8260294 0 0.5636191 0.8260349 0 0.563619 0.8260349 0 -0.5636273 -0.8260293 0 -0.5636435 -0.8260182 0 -0.5636436 -0.8260182 0 0 0 -1 0 0 -1 0 0 1 -3.01394e-6 0 1 -3.02737e-6 0 1 -0.09561431 -0.9954186 0 -0.09561264 -0.9954187 0 -0.09561264 -0.9954186 0 -0.6120346 0.7908311 0 -0.6120262 0.7908376 0 -0.6120262 0.7908376 0 0 0 -1 0 0 -1 0 0 -1 1.33616e-5 0 1 -5.58921e-6 0 1 -5.67153e-6 0 1 0.5636451 0.826017 0 0.5636371 0.8260225 0 -0.976414 -0.2159073 0 -0.9764158 -0.2158991 0 -0.9764157 -0.215899 0 0 0 -1 0 0 -1 0 0 1 2.15281e-7 0 1 2.16242e-7 0 1 0.612031 -0.7908339 0 0.6120309 -0.7908338 0 0.6120309 -0.7908339 0 -0.612031 0.7908339 0 -0.6120309 0.7908338 0 -0.6120309 0.7908339 0 0 0 -1 0 0 -1 0 0 -1 -1.33591e-5 0 1 6.11195e-6 0 1 -1.34439e-5 0 1 0.9764232 0.2158655 0 0.9764232 0.2158655 0 0.9764232 0.2158654 0 -0.5636371 -0.8260225 0 -0.5636451 -0.826017 0 -0.5636453 -0.8260171 0 0 0 -1 0 0 1 0.6120346 -0.7908311 0 -1.34441e-5 0 1 0.5636535 0.8260115 0 -0.5636429 -0.8260186 0 0 0 -1 0 0 -1 0.5636272 0.8260293 0 -0.5636272 -0.8260293 0 0 0 -1 -0.09561431 -0.9954185 0 -0.6120346 0.7908311 0 1.34439e-5 0 1 0.5636453 0.8260171 0 -0.9764139 -0.2159073 0 0 0 -1 0.6120309 -0.7908338 0 -0.6120309 0.7908338 0 6.19675e-6 0 1 -0.5636371 -0.8260226 0</float_array>
          <technique_common>
            <accessor source="#Cube_040-mesh-normals-array" count="152" stride="3">
              <param name="X" type="float"/>
              <param name="Y" type="float"/>
              <param name="Z" type="float"/>
            </accessor>
          </technique_common>
        </source>
        <source id="Cube_040-mesh-map-0">
          <float_array id="Cube_040-mesh-map-0-array" count="576">0.9984335 0.6838312 1.000765 0.001214206 0.001161634 6.92369e-4 0.9984335 0.6838312 0.001161634 6.92369e-4 5.39125e-4 0.6833093 0.9984335 0.6838312 0.001161634 6.92369e-4 1.000765 0.001214206 0.9984335 0.6838312 5.39125e-4 0.6833093 0.001161634 6.92369e-4 0.9984335 0.6838312 1.000765 0.001214206 0.001161634 6.92369e-4 0.9984335 0.6838312 0.001161634 6.92369e-4 5.39125e-4 0.6833093 0.9984335 0.6838312 0.001161634 6.92369e-4 1.000765 0.001214206 0.9984335 0.6838312 5.39125e-4 0.6833093 0.001161634 6.92369e-4 0.9984335 0.6838312 1.000765 0.001214206 0.001161634 6.92369e-4 0.9984335 0.6838312 0.001161634 6.92369e-4 5.39125e-4 0.6833093 0.9984335 0.6838312 0.001161634 6.92369e-4 1.000765 0.001214206 0.9984335 0.6838312 5.39125e-4 0.6833093 0.001161634 6.92369e-4 0.9984335 0.6838312 0.001161634 6.92369e-4 1.000765 0.001214206 0.9984335 0.6838312 5.39125e-4 0.6833093 0.001161634 6.92369e-4 0.9984335 0.6838312 0.001161634 6.92369e-4 1.000765 0.001214206 0.9984335 0.6838312 5.39125e-4 0.6833093 0.001161634 6.92369e-4 0.9984335 0.6838312 0.001161634 6.92369e-4 1.000765 0.001214206 0.9984335 0.6838312 5.39125e-4 0.6833093 0.001161634 6.92369e-4 0.9984335 0.6838312 1.000765 0.001214206 0.001161634 6.92369e-4 0.9984335 0.6838312 0.001161634 6.92369e-4 5.39125e-4 0.6833093 0.9984335 0.6838312 0.001161634 6.92369e-4 1.000765 0.001214206 0.9984335 0.6838312 5.39125e-4 0.6833093 0.001161634 6.92369e-4 0.9984335 0.6838312 1.000765 0.001214206 0.001161634 6.92369e-4 0.9984335 0.6838312 0.001161634 6.92369e-4 5.39125e-4 0.6833093 0.9984335 0.6838312 0.001161634 6.92369e-4 1.000765 0.001214206 0.9984335 0.6838312 5.39125e-4 0.6833093 0.001161634 6.92369e-4 0.9984335 0.6838312 1.000765 0.001214206 0.001161634 6.92369e-4 0.9984335 0.6838312 0.001161634 6.92369e-4 5.39125e-4 0.6833093 0.9984335 0.6838312 1.000765 0.001214206 0.001161634 6.92369e-4 0.9984335 0.6838312 0.001161634 6.92369e-4 5.39125e-4 0.6833093 0.9984335 0.6838312 1.000765 0.001214206 0.001161634 6.92369e-4 0.9984335 0.6838312 0.001161634 6.92369e-4 5.39125e-4 0.6833093 1.000765 0.001214206 0.001161634 6.92369e-4 1.000765 0.001214206 0.9984335 0.6838312 5.39125e-4 0.6833093 5.39125e-4 0.6833093 0.001161634 6.92369e-4 5.39125e-4 0.6833093 5.39125e-4 0.6833093 0.9984335 0.6838312 1.000765 0.001214206 1.000765 0.001214206 1.000765 0.001214206 0.001161634 6.92369e-4 0.001161634 6.92369e-4 5.39125e-4 0.6833093 0.9984335 0.6838312 0.9984335 0.6838312 5.39125e-4 0.6833093 0.001161634 6.92369e-4 0.001161634 6.92369e-4 1.000765 0.001214206 0.9984335 0.6838312 0.9984335 0.6838312 1.000765 0.001214206 0.001161634 6.92369e-4 1.000765 0.001214206 0.9984335 0.6838312 5.39125e-4 0.6833093 5.39125e-4 0.6833093 0.001161634 6.92369e-4 5.39125e-4 0.6833093 5.39125e-4 0.6833093 0.9984335 0.6838312 1.000765 0.001214206 1.000765 0.001214206 0.001161634 6.92369e-4 1.000765 0.001214206 0.001161634 6.92369e-4 5.39125e-4 0.6833093 0.9984335 0.6838312 0.9984335 0.6838312 5.39125e-4 0.6833093 0.001161634 6.92369e-4 0.001161634 6.92369e-4 1.000765 0.001214206 0.9984335 0.6838312 0.9984335 0.6838312 1.000765 0.001214206 0.001161634 6.92369e-4 1.000765 0.001214206 0.9984335 0.6838312 5.39125e-4 0.6833093 5.39125e-4 0.6833093 0.001161634 6.92369e-4 5.39125e-4 0.6833093 5.39125e-4 0.6833093 1.000765 0.001214206 0.9984335 0.6838312 0.9984335 0.6838312 1.000765 0.001214206 0.001161634 6.92369e-4 0.001161634 6.92369e-4 0.9984335 0.6838312 5.39125e-4 0.6833093 5.39125e-4 0.6833093 5.39125e-4 0.6833093 0.001161634 6.92369e-4 0.001161634 6.92369e-4 1.000765 0.001214206 0.9984335 0.6838312 0.9984335 0.6838312 1.000765 0.001214206 0.001161634 6.92369e-4 1.000765 0.001214206 0.9984335 0.6838312 5.39125e-4 0.6833093 5.39125e-4 0.6833093 5.39125e-4 0.6833093 0.001161634 6.92369e-4 0.001161634 6.92369e-4 0.9984335 0.6838312 1.000765 0.001214206 1.000765 0.001214206 0.001161634 6.92369e-4 1.000765 0.001214206 1.000765 0.001214206 0.9984335 0.6838312 5.39125e-4 0.6833093 0.9984335 0.6838312 5.39125e-4 0.6833093 0.001161634 6.92369e-4 0.001161634 6.92369e-4 1.000765 0.001214206 0.9984335 0.6838312 0.9984335 0.6838312 1.000765 0.001214206 0.001161634 6.92369e-4 0.001161634 6.92369e-4 0.9984335 0.6838312 0.9984335 0.6838312 5.39125e-4 0.6833093 0.001161634 6.92369e-4 0.001161634 6.92369e-4 5.39125e-4 0.6833093 0.9984335 0.6838312 0.9984335 0.6838312 1.000765 0.001214206 1.000765 0.001214206 1.000765 0.001214206 0.001161634 6.92369e-4 5.39125e-4 0.6833093 5.39125e-4 0.6833093 0.9984335 0.6838312 5.39125e-4 0.6833093 5.39125e-4 0.6833093 0.001161634 6.92369e-4 1.000765 0.001214206 1.000765 0.001214206 0.9984335 0.6838312 1.000765 0.001214206 0.001161634 6.92369e-4 0.001161634 6.92369e-4 0.9984335 0.6838312 0.9984335 0.6838312 5.39125e-4 0.6833093 0.001161634 6.92369e-4 0.001161634 6.92369e-4 5.39125e-4 0.6833093 0.9984335 0.6838312 0.9984335 0.6838312 1.000765 0.001214206 0.001161634 6.92369e-4 1.000765 0.001214206 1.000765 0.001214206 5.39125e-4 0.6833093 5.39125e-4 0.6833093 0.9984335 0.6838312 5.39125e-4 0.6833093 5.39125e-4 0.6833093 0.001161634 6.92369e-4 1.000765 0.001214206 1.000765 0.001214206 0.9984335 0.6838312 1.000765 0.001214206 0.001161634 6.92369e-4 0.001161634 6.92369e-4 0.9984335 0.6838312 0.9984335 0.6838312 5.39125e-4 0.6833093 0.001161634 6.92369e-4 0.001161634 6.92369e-4 5.39125e-4 0.6833093 1.000765 0.001214206 1.000765 0.001214206 0.9984335 0.6838312 1.000765 0.001214206 1.000765 0.001214206 0.001161634 6.92369e-4 0.9984335 0.6838312 0.9984335 0.6838312 5.39125e-4 0.6833093 5.39125e-4 0.6833093 5.39125e-4 0.6833093 0.001161634 6.92369e-4 1.000765 0.001214206 1.000765 0.001214206 0.9984335 0.6838312 1.000765 0.001214206 0.001161634 6.92369e-4 0.001161634 6.92369e-4 0.9984335 0.6838312 0.9984335 0.6838312 5.39125e-4 0.6833093 5.39125e-4 0.6833093 5.39125e-4 0.6833093 0.001161634 6.92369e-4 0.9984335 0.6838312 0.9984335 0.6838312 1.000765 0.001214206 0.001161634 6.92369e-4 0.001161634 6.92369e-4 1.000765 0.001214206 0.9984335 0.6838312 5.39125e-4 0.6833093 5.39125e-4 0.6833093 5.39125e-4 0.6833093 5.39125e-4 0.6833093 0.001161634 6.92369e-4 1.000765 0.001214206 1.000765 0.001214206 0.9984335 0.6838312</float_array>
          <technique_common>
            <accessor source="#Cube_040-mesh-map-0-array" count="288" stride="2">
              <param name="S" type="float"/>
              <param name="T" type="float"/>
            </accessor>
          </technique_common>
        </source>
        <source id="Cube_040-mesh-map-1">
          <float_array id="Cube_040-mesh-map-1-array" count="576">0 0 0.1993492 0 0.1993492 0.2658447 0 0 0.1993492 0.2658447 0 0.2658447 0.4003254 1 0.5996747 0.7741187 0.5996747 1 0.4003254 1 0.4003254 0.7741187 0.5996747 0.7741187 0.6004881 0.2850263 0.7998373 0.2850263 0.7998373 0.5152239 0.6004881 0.2850263 0.7998373 0.5152239 0.600488 0.5152239 0.4003254 0.7732633 0.5996748 0.5160793 0.5996747 0.7732633 0.4003254 0.7732633 0.4003254 0.5160793 0.5996748 0.5160793 0.6004881 0.7471328 0.7998374 0.7471328 0.7998374 0.9773302 0.6004881 0.7471328 0.7998374 0.9773302 0.6004881 0.9773302 0 0.781924 0.1993493 0.5247399 0.1993492 0.781924 0 0.781924 0 0.5247399 0.1993493 0.5247399 0.600488 0.2301983 0.7998372 0 0.7998372 0.2301983 0.600488 0.2301983 0.600488 0 0.7998372 0 0.4003254 0.5152239 0.5996747 0.2580398 0.5996747 0.5152239 0.4003254 0.5152239 0.4003254 0.2580398 0.5996747 0.2580398 0.2001627 0.2658442 0.399512 0 0.399512 0.2658442 0.2001627 0.2658442 0.2001627 0 0.399512 0 0.8006507 0 1 0 1 0.2258819 0.8006507 0 1 0.2258819 0.8006507 0.2258819 0.2001627 0.7549382 0.399512 0.5247399 0.399512 0.7549382 0.2001627 0.7549382 0.2001627 0.5247399 0.399512 0.5247399 0.4003254 0 0.5996747 0 0.5996747 0.2571845 0.4003254 0 0.5996747 0.2571845 0.4003254 0.2571845 0.6004881 0.7462774 0.7998374 0.5160793 0.7998374 0.7462775 0.6004881 0.7462774 0.6004881 0.5160793 0.7998374 0.5160793 0 0.2666999 0.1993492 0.2667 0.1993492 0.5238845 0 0.2666999 0.1993492 0.5238845 0 0.5238845 0.2001627 0.7557935 0.3995121 0.7557935 0.399512 0.985991 0.2001627 0.7557935 0.399512 0.985991 0.2001627 0.985991 0.2001627 0.2667 0.399512 0.2667 0.3995119 0.5238845 0.2001627 0.2667 0.3995119 0.5238845 0.2001627 0.5238845 0.8178823 0.2850263 0.8161178 0.5511175 0.8161178 0.2850263 0.8109622 0.2850263 0.8127267 0.5511176 0.8109622 0.5511176 0.8397421 0.7051416 0.8382594 0.4955115 0.8397421 0.4955115 0.833667 0.2850263 0.8351499 0.4946563 0.833667 0.4946563 0.8049931 0.8337367 0.8032287 0.5598092 0.8049931 0.5598092 0.8006508 0.5598092 0.8024153 0.8337367 0.8006507 0.8337367 0.8263183 0.4955115 0.8280237 0.7051416 0.8263183 0.7051416 0.8305425 0.4946563 0.828837 0.2850263 0.8305425 0.2850263 0.8127267 0.551973 0.8109623 0.8180642 0.8109623 0.551973 0.8186958 0.5519729 0.8204602 0.8180642 0.8186958 0.8180642 0.837446 0.7051416 0.8359633 0.4955115 0.837446 0.4955115 0.8212737 0.2850264 0.8229861 0.4946563 0.8212737 0.4946563 0.8024151 0.2850263 0.8006507 0.5589539 0.8006507 0.2850263 0.8032286 0.2850264 0.8049931 0.558954 0.8032286 0.558954 0.8237994 0.4955115 0.8255048 0.7051416 0.8237994 0.7051416 0.8305425 0.7051416 0.8288371 0.4955116 0.8305425 0.4955116 0.8204603 0.2850264 0.8186959 0.5511177 0.8186959 0.2850264 0.8135403 0.2850264 0.8153047 0.5511176 0.8135402 0.5511176 0.822986 0.7051414 0.8212736 0.4955115 0.822986 0.4955115 0.8374461 0.4946563 0.8359633 0.2850263 0.8374461 0.2850263 0.8075709 0.558954 0.8058065 0.2850264 0.8075709 0.2850264 0.807571 0.8337367 0.8058065 0.5598093 0.8075709 0.5598093 0.8263184 0.2850264 0.8280238 0.4946563 0.8263184 0.4946563 0.8328536 0.7051416 0.8313558 0.4955116 0.8328536 0.4955116 0.8153046 0.551973 0.8135402 0.8180642 0.8135402 0.5519731 0.816118 0.551973 0.8178824 0.8180641 0.816118 0.8180642 0.8336671 0.4955115 0.8351499 0.7051416 0.8336671 0.7051416 0.8382594 0.2850263 0.8397421 0.4946563 0.8382594 0.4946563 0.8083842 0.2850263 0.8101487 0.5589538 0.8083842 0.5589538 0.8083842 0.8337368 0.8101487 0.5598093 0.8101487 0.8337368 0.8313558 0.2850263 0.8328537 0.4946563 0.8313558 0.4946563 0.825505 0.4946563 0.8237995 0.2850263 0.825505 0.2850263 0.8178823 0.2850263 0.8178823 0.5511176 0.8161178 0.5511175 0.8109622 0.2850263 0.8127267 0.2850263 0.8127267 0.5511176 0.8397421 0.7051416 0.8382594 0.7051416 0.8382594 0.4955115 0.833667 0.2850263 0.8351499 0.2850263 0.8351499 0.4946563 0.8049931 0.8337367 0.8032286 0.8337366 0.8032287 0.5598092 0.8006508 0.5598092 0.8024153 0.5598092 0.8024153 0.8337367 0.8263183 0.4955115 0.8280237 0.4955115 0.8280237 0.7051416 0.8305425 0.4946563 0.828837 0.4946563 0.828837 0.2850263 0.8127267 0.551973 0.8127267 0.8180642 0.8109623 0.8180642 0.8186958 0.5519729 0.8204602 0.5519729 0.8204602 0.8180642 0.837446 0.7051416 0.8359633 0.7051416 0.8359633 0.4955115 0.8212737 0.2850264 0.8229861 0.2850264 0.8229861 0.4946563 0.8024151 0.2850263 0.8024152 0.5589539 0.8006507 0.5589539 0.8032286 0.2850264 0.8049931 0.2850264 0.8049931 0.558954 0.8237994 0.4955115 0.8255048 0.4955115 0.8255048 0.7051416 0.8305425 0.7051416 0.8288371 0.7051416 0.8288371 0.4955116 0.8204603 0.2850264 0.8204603 0.5511177 0.8186959 0.5511177 0.8135403 0.2850264 0.8153047 0.2850264 0.8153047 0.5511176 0.822986 0.7051414 0.8212736 0.7051414 0.8212736 0.4955115 0.8374461 0.4946563 0.8359633 0.4946563 0.8359633 0.2850263 0.8075709 0.558954 0.8058065 0.558954 0.8058065 0.2850264 0.807571 0.8337367 0.8058065 0.8337368 0.8058065 0.5598093 0.8263184 0.2850264 0.8280238 0.2850264 0.8280238 0.4946563 0.8328536 0.7051416 0.8313558 0.7051416 0.8313558 0.4955116 0.8153046 0.551973 0.8153047 0.8180642 0.8135402 0.8180642 0.816118 0.551973 0.8178824 0.551973 0.8178824 0.8180641 0.8336671 0.4955115 0.8351499 0.4955115 0.8351499 0.7051416 0.8382594 0.2850263 0.8397421 0.2850263 0.8397421 0.4946563 0.8083842 0.2850263 0.8101487 0.2850263 0.8101487 0.5589538 0.8083842 0.8337368 0.8083843 0.5598093 0.8101487 0.5598093 0.8313558 0.2850263 0.8328537 0.2850263 0.8328537 0.4946563 0.825505 0.4946563 0.8237995 0.4946563 0.8237995 0.2850263</float_array>
          <technique_common>
            <accessor source="#Cube_040-mesh-map-1-array" count="288" stride="2">
              <param name="S" type="float"/>
              <param name="T" type="float"/>
            </accessor>
          </technique_common>
        </source>
        <vertices id="Cube_040-mesh-vertices">
          <input semantic="POSITION" source="#Cube_040-mesh-positions"/>
        </vertices>
        <triangles material="hierva_choza_gaetuli-material" count="96">
          <input semantic="VERTEX" source="#Cube_040-mesh-vertices" offset="0"/>
          <input semantic="NORMAL" source="#Cube_040-mesh-normals" offset="1"/>
          <input semantic="TEXCOORD" source="#Cube_040-mesh-map-0" offset="2" set="0"/>
          <input semantic="TEXCOORD" source="#Cube_040-mesh-map-1" offset="2" set="1"/>
          <p>0 0 0 1 1 1 3 0 2 0 0 3 3 0 4 2 0 5 4 2 6 7 2 7 5 3 8 4 2 9 6 3 10 7 2 11 8 4 12 9 5 13 11 4 14 8 4 15 11 4 16 10 6 17 12 7 18 15 8 19 13 9 20 12 7 21 14 10 22 15 8 23 16 11 24 17 12 25 19 11 26 16 11 27 19 11 28 18 13 29 20 14 30 23 15 31 21 16 32 20 14 33 22 17 34 23 15 35 24 18 36 27 19 37 25 19 38 24 18 39 26 20 40 27 19 41 28 21 42 31 22 43 29 23 44 28 21 45 30 24 46 31 22 47 32 25 48 33 26 49 34 27 50 32 25 51 35 28 52 33 26 53 36 29 54 37 30 55 38 29 56 36 29 57 38 29 58 39 31 59 40 18 60 41 32 61 42 32 62 40 18 63 43 19 64 41 32 65 44 33 66 45 34 67 46 33 68 44 33 69 46 33 70 47 35 71 48 36 72 49 36 73 50 20 74 48 36 75 51 37 76 49 36 77 52 38 78 53 38 79 54 39 80 52 38 81 54 39 82 55 40 83 56 41 84 57 41 85 58 41 86 56 41 87 58 41 88 59 42 89 60 43 90 61 44 91 62 43 92 60 43 93 62 43 94 63 45 95 5 46 96 38 47 97 37 48 98 28 49 99 63 50 100 30 51 101 19 52 102 51 53 103 18 54 104 8 55 105 42 55 106 9 55 107 17 56 108 49 57 109 19 58 110 10 59 111 40 60 112 8 61 113 30 62 114 62 63 115 31 64 116 21 65 117 52 65 118 20 66 119 29 67 120 62 68 121 61 69 122 20 70 123 55 71 124 22 72 125 11 52 126 43 53 127 10 54 128 0 73 129 34 73 130 1 74 131 11 75 132 42 76 133 41 69 134 2 77 135 32 78 136 0 79 137 22 80 138 54 81 139 23 82 140 13 83 141 44 84 142 12 85 143 21 86 144 54 87 145 53 69 146 12 88 147 47 89 148 14 90 149 3 91 150 35 92 151 2 93 152 25 94 153 56 95 154 24 96 155 1 97 156 33 98 157 3 99 158 24 100 159 59 101 160 26 102 161 14 103 162 46 104 163 15 64 164 5 105 165 36 106 166 4 107 167 13 108 168 46 109 169 45 69 170 4 110 171 39 111 172 6 112 173 26 113 174 58 114 175 27 115 176 16 116 177 50 117 178 17 118 179 27 119 180 57 120 181 25 121 182 16 122 183 51 123 184 48 124 185 6 125 186 38 126 187 7 127 188 29 128 189 60 129 190 28 130 191 5 46 192 7 131 193 38 47 194 28 49 195 60 132 196 63 50 197 19 52 198 49 133 199 51 53 200 8 55 201 40 55 202 42 55 203 17 56 204 50 69 205 49 57 206 10 59 207 43 134 208 40 60 209 30 62 210 63 135 211 62 63 212 21 65 213 53 136 214 52 65 215 29 67 216 31 137 217 62 68 218 20 70 219 52 132 220 55 71 221 11 52 222 41 133 223 43 53 224 0 73 225 32 74 226 34 73 227 11 75 228 9 138 229 42 76 230 2 77 231 35 132 232 32 78 233 22 80 234 55 139 235 54 81 236 13 83 237 45 140 238 44 84 239 21 86 240 23 141 241 54 87 242 12 88 243 44 132 244 47 89 245 3 91 246 33 142 247 35 92 248 25 94 249 57 143 250 56 95 251 1 97 252 34 69 253 33 98 254 24 100 255 56 144 256 59 101 257 14 103 258 47 145 259 46 104 260 5 105 261 37 146 262 36 106 263 13 108 264 15 147 265 46 109 266 4 110 267 36 132 268 39 111 269 26 113 270 59 148 271 58 114 272 16 116 273 48 149 274 50 117 275 27 119 276 58 69 277 57 120 278 16 122 279 18 150 280 51 123 281 6 125 282 39 126 283 38 126 284 29 128 285 61 151 286 60 129 287</p>
        </triangles>
      </mesh>
    </geometry>
  </library_geometries>
  <library_visual_scenes>
    <visual_scene id="Scene" name="Scene">
      <node id="house_4_f" name="house_4_f" type="NODE">
        <matrix sid="transform">1 0 0 0 0 1 0 0 0 0 1 0 0 0 0 1</matrix>
        <instance_geometry url="#Cube_040-mesh" name="house_4_f">
          <bind_material>
            <technique_common>
              <instance_material symbol="hierva_choza_gaetuli-material" target="#hierva_choza_gaetuli-material">
                <bind_vertex_input semantic="Cube_040-mesh-map-0" input_semantic="TEXCOORD" input_set="0"/>
                <bind_vertex_input semantic="Cube_040-mesh-map-1" input_semantic="TEXCOORD" input_set="1"/>
              </instance_material>
            </technique_common>
          </bind_material>
        </instance_geometry>
        <node id="prop_garrisoned" name="prop_garrisoned" type="NODE">
          <matrix sid="transform">-0.7829416 1.18221e-7 0 5.35037e-14 -1.18221e-7 -0.7829416 0 5.033843 0 0 0.7829416 9.013988 0 0 0 1</matrix>
        </node>
        <node id="prop_projectile" name="prop_projectile" type="NODE">
          <matrix sid="transform">-0.7829416 1.18221e-7 0 5.35037e-14 -1.18221e-7 -0.7829416 0 5.033842 0 0 0.7829416 9.013988 0 0 0 1</matrix>
        </node>
      </node>
    </visual_scene>
  </library_visual_scenes>
  <scene>
    <instance_visual_scene url="#Scene"/>
  </scene>
</COLLADA>