<?xml version="1.0" encoding="utf-8"?>
<COLLADA xmlns="http://www.collada.org/2005/11/COLLADASchema" version="1.4.1" xmlns:xsi="http://www.w3.org/2001/XMLSchema-instance">
  <asset>
    <contributor>
      <author>Blender User</author>
      <authoring_tool>Blender 4.3.1 commit date:2024-12-10, commit time:07:46, hash:33d812126174</authoring_tool>
    </contributor>
    <created>2026-08-22T19:25:08</created>
    <modified>2026-08-22T19:25:08</modified>
    <unit name="meter" meter="1"/>
    <up_axis>Z_UP</up_axis>
  </asset>
  <library_effects>
    <effect id="hierva_choza_gaetuli-effect">
      <profile_COMMON>
        <technique sid="common">
          <lambert>
            <emission>
              <color sid="emission">0 0 0 1</color>
            </emission>
            <diffuse>
              <color sid="diffuse">0.8 0.8 0.8 1</color>
            </diffuse>
            <index_of_refraction>
              <float sid="ior">1.45</float>
            </index_of_refraction>
          </lambert>
        </technique>
      </profile_COMMON>
    </effect>
  </library_effects>
  <library_images/>
  <library_materials>
    <material id="hierva_choza_gaetuli-material" name="hierva choza gaetuli">
      <instance_effect url="#hierva_choza_gaetuli-effect"/>
    </material>
  </library_materials>
  <library_geometries>
    <geometry id="Cube_018-mesh" name="Cube.018">
      <mesh>
        <source id="Cube_018-mesh-positions">
          <float_array id="Cube_018-mesh-positions-array" count="192">4.336689 -2.077129 3.532159 4.336689 -2.077129 0.02975827 3.899028 -6.632812 3.532159 3.899028 -6.632812 0.02975827 1.89255 -4.896893 3.53216 1.89255 -4.896893 0.02975827 6.233437 -3.93709 3.53216 6.233437 -3.93709 0.02975827 -6.401569 5.975297 3.532159 -6.401569 5.975297 0.02975827 -3.600476 2.355951 3.532159 -3.600476 2.355951 0.02975827 -6.251407 2.246713 3.532159 -6.251407 2.246713 0.02975827 -3.745644 5.918998 3.532159 -3.745644 5.918998 0.02975827 -6.401567 -2.981425 3.532159 -6.401567 -2.981425 0.02975827 -3.600476 -6.600771 3.532159 -3.600476 -6.600771 0.02975827 -6.251408 -6.710009 3.532159 -6.251408 -6.710009 0.02975827 -3.745643 -3.037724 3.532159 -3.745643 -3.037724 0.02975827 3.415237 5.975297 3.532159 3.415237 5.975297 0.02975827 6.216329 2.35595 3.532159 6.216329 2.35595 0.02975827 3.565398 2.246713 3.532159 3.565398 2.246713 0.02975827 6.071162 5.918998 3.532159 6.071162 5.918998 0.02975827 4.367547 -2.080094 3.532159 3.929886 -6.635776 0.02975827 4.367547 -2.080094 0.02975827 3.929886 -6.635776 3.532159 1.899242 -4.927163 3.53216 1.899242 -4.927163 0.02975827 6.240129 -3.967359 0.02975827 6.240129 -3.967359 3.53216 -6.377053 5.994271 3.532159 -3.575961 2.374924 0.02975827 -6.377053 5.994271 0.02975827 -3.575961 2.374924 3.532159 -6.2258 2.229241 3.532159 -6.2258 2.229241 0.02975827 -3.720037 5.901525 0.02975827 -3.720037 5.901525 3.532159 -6.377051 -2.962452 3.532159 -3.575961 -6.581798 0.02975827 -6.377051 -2.962452 0.02975827 -3.575961 -6.581798 3.532159 -6.2258 -6.727482 3.532159 -6.2258 -6.727482 0.02975827 -3.720036 -3.055197 0.02975827 -3.720036 -3.055197 3.532159 3.390722 5.956324 3.532159 3.390722 5.956324 0.02975827 6.191813 2.336977 0.02975827 6.191813 2.336977 3.532159 3.591005 2.22924 3.532159 3.591005 2.22924 0.02975827 6.096769 5.901525 0.02975827 6.096769 5.901525 3.532159</float_array>
          <technique_common>
            <accessor source="#Cube_018-mesh-positions-array" count="64" stride="3">
              <param name="X" type="float"/>
              <param name="Y" type="float"/>
              <param name="Z" type="float"/>
            </accessor>
          </technique_common>
        </source>
        <source id="Cube_018-mesh-normals">
          <float_array id="Cube_018-mesh-normals-array" count="417">-0.9954171 0.09562897 0 -0.9954171 0.09562903 0 -0.9954171 0.09562891 0 -0.9954171 0.09562891 0 -0.2158932 0.976417 0 -0.2158932 0.976417 0 -0.2158932 0.976417 0 -0.2158932 0.976417 0 -0.7908275 -0.6120391 0 -0.7908275 -0.6120392 0 -0.7908276 -0.6120391 0 -0.826025 0.5636336 0 -0.826025 0.5636336 0 -0.826025 0.5636336 0 -0.826025 0.5636335 0 -0.7908276 -0.6120389 0 -0.7908276 -0.612039 0 -0.7908278 -0.6120389 0 -0.7908278 -0.6120388 0 -0.8260248 0.5636339 0 -0.8260248 0.5636338 0 -0.8260247 0.5636339 0 0.7908277 0.6120389 0 0.7908278 0.6120389 0 -0.826025 0.5636336 0 0.9954171 -0.09562897 0 0.9954171 -0.09562897 0 0.9954171 -0.09562903 0 0.9954171 -0.09562891 0 0.2158934 -0.976417 0 0.2158934 -0.976417 0 0.2158933 -0.976417 0 0.7908277 0.6120389 0 0.826025 -0.5636336 0 0.8260249 -0.5636336 0 0.7908279 0.6120387 0 0.7908278 0.6120387 0 0.8260249 -0.5636337 0 0.8260248 -0.5636338 0 0.8260249 -0.5636337 0 -0.7908279 -0.6120387 0 -0.7908278 -0.6120387 0 0.826025 -0.5636336 0 -0.6120454 0.7908227 0 0 0 -1 0 0 -1 0 0 -1 -1.33818e-5 0 1 8.83198e-7 0 1 9.4524e-7 0 1 0.5636266 0.8260297 0 0.5636266 0.8260298 0 -0.5636265 -0.8260298 0 -0.5636103 -0.8260408 0 -0.5636103 -0.8260409 0 0 0 -1 0 0 -1 0 0 -1 0 0 1 -4.62853e-6 0 1 -4.64919e-6 0 1 0.6120431 -0.7908245 0 0.6120347 -0.7908309 0 0.6120347 -0.790831 0 0.09565073 0.995415 0 0.0956524 0.9954148 0 0.0956524 0.9954149 0 0 0 -1 0 0 -1 0 0 -1 0 0 1 -4.88894e-6 0 1 -4.91008e-6 0 1 0.56364 0.8260205 0 -0.5636271 -0.8260294 0 -0.5636109 -0.8260404 0 -0.5636109 -0.8260405 0 0 0 -1 0 0 -1 0 0 1 -6.24323e-6 0 1 -6.27107e-6 0 1 -0.09561431 -0.9954186 0 -0.09561264 -0.9954187 0 -0.09561264 -0.9954186 0 -0.6120431 0.7908245 0 -0.6120432 0.7908244 0 -0.6120432 0.7908244 0 2.08901e-7 0 -1 0 0 -1 0 0 -1 0 0 1 -6.17016e-6 0 1 0 0 1 0.5636267 0.8260298 0 0.5636347 0.8260242 0 0.5636348 0.8260242 0 -0.9764227 -0.2158674 0 -0.9764228 -0.2158674 0 0 0 -1 0 0 -1 0 0 -1 0 0 1 2.15282e-7 0 1 2.16241e-7 0 1 0.6120261 -0.7908376 0 -0.6120141 0.7908469 0 -0.6120309 0.790834 0 -0.6120309 0.7908339 0 0 0 -1 0 0 -1 0 0 -1 0 0 1 -7.73856e-6 0 1 -7.77202e-6 0 1 0.9764232 0.2158655 0 0.9764232 0.2158655 0 0.9764232 0.2158654 0 -0.5636401 -0.8260206 0 -0.56364 -0.8260205 0 0 0 -1 0 0 -1 0 0 1 -6.2433e-6 0 1 -1.34439e-5 0 1 -0.5636266 -0.8260298 0 0.6120432 -0.7908245 0 0.09565073 0.995415 0 0 0 -1 -0.5636272 -0.8260293 0 0 0 -1 -0.09561431 -0.9954185 0 -0.6120432 0.7908245 0 2.10058e-7 0 -1 -6.19684e-6 0 1 -0.9764227 -0.2158674 0 0.6120262 -0.7908376 0 -0.6120139 0.790847 0 0 0 -1</float_array>
          <technique_common>
            <accessor source="#Cube_018-mesh-normals-array" count="139" stride="3">
              <param name="X" type="float"/>
              <param name="Y" type="float"/>
              <param name="Z" type="float"/>
            </accessor>
          </technique_common>
        </source>
        <source id="Cube_018-mesh-map-0">
          <float_array id="Cube_018-mesh-map-0-array" count="576">0.9984335 0.6838312 1.000765 0.001214206 0.001161634 6.92369e-4 0.9984335 0.6838312 0.001161634 6.92369e-4 5.39125e-4 0.6833093 0.9984335 0.6838312 0.001161634 6.92369e-4 1.000765 0.001214206 0.9984335 0.6838312 5.39125e-4 0.6833093 0.001161634 6.92369e-4 0.9984335 0.6838312 1.000765 0.001214206 0.001161634 6.92369e-4 0.9984335 0.6838312 0.001161634 6.92369e-4 5.39125e-4 0.6833093 0.9984335 0.6838312 0.001161634 6.92369e-4 1.000765 0.001214206 0.9984335 0.6838312 5.39125e-4 0.6833093 0.001161634 6.92369e-4 0.9984335 0.6838312 1.000765 0.001214206 0.001161634 6.92369e-4 0.9984335 0.6838312 0.001161634 6.92369e-4 5.39125e-4 0.6833093 0.9984335 0.6838312 0.001161634 6.92369e-4 1.000765 0.001214206 0.9984335 0.6838312 5.39125e-4 0.6833093 0.001161634 6.92369e-4 0.9984335 0.6838312 0.001161634 6.92369e-4 1.000765 0.001214206 0.9984335 0.6838312 5.39125e-4 0.6833093 0.001161634 6.92369e-4 0.9984335 0.6838312 0.001161634 6.92369e-4 1.000765 0.001214206 0.9984335 0.6838312 5.39125e-4 0.6833093 0.001161634 6.92369e-4 0.9984335 0.6838312 0.001161634 6.92369e-4 1.000765 0.001214206 0.9984335 0.6838312 5.39125e-4 0.6833093 0.001161634 6.92369e-4 0.9984335 0.6838312 1.000765 0.001214206 0.001161634 6.92369e-4 0.9984335 0.6838312 0.001161634 6.92369e-4 5.39125e-4 0.6833093 0.9984335 0.6838312 0.001161634 6.92369e-4 1.000765 0.001214206 0.9984335 0.6838312 5.39125e-4 0.6833093 0.001161634 6.92369e-4 0.9984335 0.6838312 1.000765 0.001214206 0.001161634 6.92369e-4 0.9984335 0.6838312 0.001161634 6.92369e-4 5.39125e-4 0.6833093 0.9984335 0.6838312 0.001161634 6.92369e-4 1.000765 0.001214206 0.9984335 0.6838312 5.39125e-4 0.6833093 0.001161634 6.92369e-4 0.9984335 0.6838312 1.000765 0.001214206 0.001161634 6.92369e-4 0.9984335 0.6838312 0.001161634 6.92369e-4 5.39125e-4 0.6833093 0.9984335 0.6838312 1.000765 0.001214206 0.001161634 6.92369e-4 0.9984335 0.6838312 0.001161634 6.92369e-4 5.39125e-4 0.6833093 0.9984335 0.6838312 1.000765 0.001214206 0.001161634 6.92369e-4 0.9984335 0.6838312 0.001161634 6.92369e-4 5.39125e-4 0.6833093 0.9984335 0.6838312 1.000765 0.001214206 1.000765 0.001214206 1.000765 0.001214206 0.001161634 6.92369e-4 0.001161634 6.92369e-4 5.39125e-4 0.6833093 0.9984335 0.6838312 0.9984335 0.6838312 5.39125e-4 0.6833093 0.001161634 6.92369e-4 0.001161634 6.92369e-4 1.000765 0.001214206 0.9984335 0.6838312 0.9984335 0.6838312 0.001161634 6.92369e-4 1.000765 0.001214206 1.000765 0.001214206 0.9984335 0.6838312 5.39125e-4 0.6833093 5.39125e-4 0.6833093 0.001161634 6.92369e-4 5.39125e-4 0.6833093 5.39125e-4 0.6833093 0.9984335 0.6838312 1.000765 0.001214206 1.000765 0.001214206 0.001161634 6.92369e-4 1.000765 0.001214206 0.001161634 6.92369e-4 5.39125e-4 0.6833093 0.9984335 0.6838312 0.9984335 0.6838312 5.39125e-4 0.6833093 0.001161634 6.92369e-4 0.001161634 6.92369e-4 1.000765 0.001214206 0.9984335 0.6838312 0.9984335 0.6838312 1.000765 0.001214206 0.001161634 6.92369e-4 1.000765 0.001214206 0.9984335 0.6838312 5.39125e-4 0.6833093 5.39125e-4 0.6833093 0.001161634 6.92369e-4 5.39125e-4 0.6833093 5.39125e-4 0.6833093 1.000765 0.001214206 0.9984335 0.6838312 0.9984335 0.6838312 1.000765 0.001214206 0.001161634 6.92369e-4 0.001161634 6.92369e-4 5.39125e-4 0.6833093 0.9984335 0.6838312 5.39125e-4 0.6833093 5.39125e-4 0.6833093 0.001161634 6.92369e-4 0.001161634 6.92369e-4 1.000765 0.001214206 0.9984335 0.6838312 0.9984335 0.6838312 0.001161634 6.92369e-4 1.000765 0.001214206 1.000765 0.001214206 0.9984335 0.6838312 5.39125e-4 0.6833093 5.39125e-4 0.6833093 5.39125e-4 0.6833093 0.001161634 6.92369e-4 0.001161634 6.92369e-4 0.9984335 0.6838312 1.000765 0.001214206 1.000765 0.001214206 0.001161634 6.92369e-4 1.000765 0.001214206 1.000765 0.001214206 5.39125e-4 0.6833093 0.9984335 0.6838312 0.9984335 0.6838312 5.39125e-4 0.6833093 0.001161634 6.92369e-4 0.001161634 6.92369e-4 1.000765 0.001214206 0.9984335 0.6838312 0.9984335 0.6838312 1.000765 0.001214206 0.001161634 6.92369e-4 1.000765 0.001214206 0.9984335 0.6838312 5.39125e-4 0.6833093 5.39125e-4 0.6833093 0.001161634 6.92369e-4 5.39125e-4 0.6833093 5.39125e-4 0.6833093 0.9984335 0.6838312 0.9984335 0.6838312 1.000765 0.001214206 1.000765 0.001214206 1.000765 0.001214206 0.001161634 6.92369e-4 5.39125e-4 0.6833093 5.39125e-4 0.6833093 0.9984335 0.6838312 5.39125e-4 0.6833093 5.39125e-4 0.6833093 0.001161634 6.92369e-4 1.000765 0.001214206 1.000765 0.001214206 0.9984335 0.6838312 0.001161634 6.92369e-4 0.001161634 6.92369e-4 1.000765 0.001214206 0.9984335 0.6838312 0.9984335 0.6838312 5.39125e-4 0.6833093 0.001161634 6.92369e-4 0.001161634 6.92369e-4 5.39125e-4 0.6833093 0.9984335 0.6838312 0.9984335 0.6838312 1.000765 0.001214206 0.001161634 6.92369e-4 1.000765 0.001214206 1.000765 0.001214206 5.39125e-4 0.6833093 5.39125e-4 0.6833093 0.9984335 0.6838312 5.39125e-4 0.6833093 5.39125e-4 0.6833093 0.001161634 6.92369e-4 1.000765 0.001214206 1.000765 0.001214206 0.9984335 0.6838312 1.000765 0.001214206 0.001161634 6.92369e-4 0.001161634 6.92369e-4 0.9984335 0.6838312 0.9984335 0.6838312 5.39125e-4 0.6833093 0.001161634 6.92369e-4 0.001161634 6.92369e-4 5.39125e-4 0.6833093 1.000765 0.001214206 1.000765 0.001214206 0.9984335 0.6838312 1.000765 0.001214206 1.000765 0.001214206 0.001161634 6.92369e-4 5.39125e-4 0.6833093 0.9984335 0.6838312 0.9984335 0.6838312 5.39125e-4 0.6833093 5.39125e-4 0.6833093 0.001161634 6.92369e-4 1.000765 0.001214206 1.000765 0.001214206 0.9984335 0.6838312 0.001161634 6.92369e-4 0.001161634 6.92369e-4 1.000765 0.001214206 0.9984335 0.6838312 0.9984335 0.6838312 5.39125e-4 0.6833093 5.39125e-4 0.6833093 5.39125e-4 0.6833093 0.001161634 6.92369e-4 0.9984335 0.6838312 0.9984335 0.6838312 1.000765 0.001214206 0.001161634 6.92369e-4 0.001161634 6.92369e-4 1.000765 0.001214206 5.39125e-4 0.6833093 5.39125e-4 0.6833093 0.9984335 0.6838312 5.39125e-4 0.6833093 5.39125e-4 0.6833093 0.001161634 6.92369e-4 1.000765 0.001214206 1.000765 0.001214206 0.9984335 0.6838312 1.000765 0.001214206 0.001161634 6.92369e-4 0.001161634 6.92369e-4 0.9984335 0.6838312 0.9984335 0.6838312 5.39125e-4 0.6833093 0.001161634 6.92369e-4 0.001161634 6.92369e-4 5.39125e-4 0.6833093</float_array>
          <technique_common>
            <accessor source="#Cube_018-mesh-map-0-array" count="288" stride="2">
              <param name="S" type="float"/>
              <param name="T" type="float"/>
            </accessor>
          </technique_common>
        </source>
        <source id="Cube_018-mesh-map-1">
          <float_array id="Cube_018-mesh-map-1-array" count="576">0 0 0.1993493 0 0.1993492 0.2658433 0 0 0.1993492 0.2658433 0 0.2658433 0.8006507 0.2258806 1 0 1 0.2258807 0.8006507 0.2258806 0.8006507 0 1 0 0.6004881 0.4621053 0.7998373 0.4621053 0.7998373 0.6923004 0.6004881 0.4621053 0.7998373 0.6923004 0.6004881 0.6923004 0.2001627 0.5238824 0.399512 0.2666987 0.399512 0.5238824 0.2001627 0.5238824 0.2001627 0.2666987 0.399512 0.2666987 0.2001627 0.7557905 0.399512 0.7557906 0.399512 0.9859855 0.2001627 0.7557905 0.399512 0.9859855 0.2001627 0.9859855 0 0.5238825 0.1993493 0.2666987 0.1993492 0.5238825 0 0.5238825 0 0.2666987 0.1993493 0.2666987 0.2001627 0.7549351 0.399512 0.5247377 0.399512 0.7549351 0.2001627 0.7549351 0.2001627 0.5247377 0.399512 0.5247377 0.4003254 0.2571837 0.5996747 0 0.5996747 0.2571837 0.4003254 0.2571837 0.4003254 0 0.5996747 0 0.2001627 0.2658433 0.399512 0 0.399512 0.2658433 0.2001627 0.2658433 0.2001627 0 0.399512 0 0.4003254 0.7741171 0.5996747 0.7741171 0.5996747 1 0.4003254 0.7741171 0.5996747 1 0.4003254 1 0.6004881 0.2301974 0.7998374 0 0.7998374 0.2301974 0.6004881 0.2301974 0.6004881 0 0.7998374 0 0 0.5247378 0.1993493 0.5247378 0.1993492 0.7819215 0 0.5247378 0.1993492 0.7819215 0 0.7819215 0.6004881 0.4612501 0.7998374 0.2310528 0.7998373 0.4612501 0.6004881 0.4612501 0.6004881 0.2310528 0.7998374 0.2310528 0.4003254 0.2580389 0.5996747 0.2580389 0.5996747 0.5152227 0.4003254 0.2580389 0.5996747 0.5152227 0.4003254 0.5152227 0.6004881 0.6931558 0.7998374 0.6931558 0.7998374 0.9233507 0.6004881 0.6931558 0.7998374 0.9233507 0.6004881 0.9233507 0.4003254 0.5160781 0.5996747 0.5160781 0.5996747 0.7732617 0.4003254 0.5160781 0.5996747 0.7732617 0.4003253 0.7732617 0.8263184 0.4372205 0.8278012 0.6468497 0.8263184 0.6468497 0.8075709 0.7754446 0.8058065 0.501518 0.8075709 0.501518 0.8006507 0.2267361 0.8024153 0.5006628 0.8006507 0.5006628 0.8237996 0.226736 0.825505 0.4363652 0.8237996 0.4363652 0.8229793 0.8573343 0.8212738 0.647705 0.8229793 0.647705 0.8204605 0.4928264 0.818696 0.226736 0.8204605 0.226736 0.816118 0.2267359 0.8178825 0.4928264 0.816118 0.4928264 0.8349205 0.8573343 0.8334378 0.647705 0.8349205 0.647705 0.8212739 0.226736 0.8229863 0.4363652 0.8212739 0.4363652 0.8024152 0.501518 0.8006507 0.7754446 0.8006508 0.501518 0.8058065 0.226736 0.8075709 0.5006627 0.8058065 0.5006627 0.8237996 0.4372205 0.825505 0.6468497 0.8237996 0.6468497 0.8280169 0.8573343 0.8263114 0.647705 0.8280169 0.647705 0.8153046 0.2267361 0.8135402 0.4928266 0.8135401 0.2267361 0.8161181 0.4936817 0.8178825 0.7597721 0.8161181 0.7597721 0.8229862 0.6468497 0.8212739 0.4372205 0.8229862 0.4372205 0.8349205 0.6468497 0.8334378 0.4372205 0.8349205 0.4372205 0.8101488 0.5006627 0.8083844 0.226736 0.8101488 0.226736 0.8049931 0.226736 0.8032287 0.5006626 0.8032287 0.226736 0.8237926 0.647705 0.8254981 0.8573343 0.8237926 0.8573343 0.8303282 0.8573343 0.8288303 0.647705 0.8303282 0.647705 0.8153046 0.7597721 0.8135401 0.4936817 0.8153045 0.4936817 0.8109622 0.226736 0.8127267 0.4928264 0.8109622 0.4928264 0.8311416 0.647705 0.8326244 0.8573343 0.8311416 0.8573343 0.8311485 0.226736 0.8326313 0.4363652 0.8311485 0.4363652 0.8083844 0.5015181 0.8101489 0.7754448 0.8083845 0.7754448 0.8032287 0.501518 0.8049932 0.7754446 0.8032287 0.7754446 0.8288372 0.226736 0.8303351 0.4363653 0.8288372 0.4363653 0.8280239 0.4363652 0.8263185 0.226736 0.8280239 0.226736 0.8127267 0.4936818 0.8109622 0.7597721 0.8109622 0.4936817 0.8186959 0.4936818 0.8204604 0.7597722 0.8186959 0.7597722 0.8349274 0.4363652 0.8334447 0.226736 0.8349274 0.226736 0.8263184 0.4372205 0.8278012 0.4372205 0.8278012 0.6468497 0.8075709 0.7754446 0.8058065 0.7754445 0.8058065 0.501518 0.8006507 0.2267361 0.8024151 0.2267361 0.8024153 0.5006628 0.8237996 0.226736 0.825505 0.226736 0.825505 0.4363652 0.8229793 0.8573343 0.8212738 0.8573343 0.8212738 0.647705 0.8204605 0.4928264 0.818696 0.4928264 0.818696 0.226736 0.816118 0.2267359 0.8178825 0.226736 0.8178825 0.4928264 0.8349205 0.8573343 0.8334378 0.8573343 0.8334378 0.647705 0.8212739 0.226736 0.8229863 0.226736 0.8229863 0.4363652 0.8024152 0.501518 0.8024152 0.7754446 0.8006507 0.7754446 0.8058065 0.226736 0.8075709 0.226736 0.8075709 0.5006627 0.8237996 0.4372205 0.825505 0.4372205 0.825505 0.6468497 0.8280169 0.8573343 0.8263114 0.8573343 0.8263114 0.647705 0.8153046 0.2267361 0.8153046 0.4928266 0.8135402 0.4928266 0.8161181 0.4936817 0.8178825 0.4936818 0.8178825 0.7597721 0.8229862 0.6468497 0.8212739 0.6468497 0.8212739 0.4372205 0.8349205 0.6468497 0.8334378 0.6468497 0.8334378 0.4372205 0.8101488 0.5006627 0.8083844 0.5006627 0.8083844 0.226736 0.8049931 0.226736 0.804993 0.5006626 0.8032287 0.5006626 0.8237926 0.647705 0.8254981 0.647705 0.8254981 0.8573343 0.8303282 0.8573343 0.8288303 0.8573343 0.8288303 0.647705 0.8153046 0.7597721 0.8135401 0.7597721 0.8135401 0.4936817 0.8109622 0.226736 0.8127267 0.226736 0.8127267 0.4928264 0.8311416 0.647705 0.8326244 0.647705 0.8326244 0.8573343 0.8311485 0.226736 0.8326313 0.226736 0.8326313 0.4363652 0.8083844 0.5015181 0.8101489 0.5015181 0.8101489 0.7754448 0.8032287 0.501518 0.8049932 0.501518 0.8049932 0.7754446 0.8288372 0.226736 0.8303351 0.226736 0.8303351 0.4363653 0.8280239 0.4363652 0.8263185 0.4363652 0.8263185 0.226736 0.8127267 0.4936818 0.8127266 0.7597722 0.8109622 0.7597721 0.8186959 0.4936818 0.8204604 0.4936818 0.8204604 0.7597722 0.8349274 0.4363652 0.8334447 0.4363652 0.8334447 0.226736</float_array>
          <technique_common>
            <accessor source="#Cube_018-mesh-map-1-array" count="288" stride="2">
              <param name="S" type="float"/>
              <param name="T" type="float"/>
            </accessor>
          </technique_common>
        </source>
        <vertices id="Cube_018-mesh-vertices">
          <input semantic="POSITION" source="#Cube_018-mesh-positions"/>
        </vertices>
        <triangles material="hierva_choza_gaetuli-material" count="96">
          <input semantic="VERTEX" source="#Cube_018-mesh-vertices" offset="0"/>
          <input semantic="NORMAL" source="#Cube_018-mesh-normals" offset="1"/>
          <input semantic="TEXCOORD" source="#Cube_018-mesh-map-0" offset="2" set="0"/>
          <input semantic="TEXCOORD" source="#Cube_018-mesh-map-1" offset="2" set="1"/>
          <p>0 0 0 1 1 1 3 2 2 0 0 3 3 2 4 2 3 5 4 4 6 7 5 7 5 6 8 4 4 9 6 7 10 7 5 11 8 8 12 9 9 13 11 8 14 8 8 15 11 8 16 10 10 17 12 11 18 15 12 19 13 13 20 12 11 21 14 14 22 15 12 23 16 15 24 17 16 25 19 17 26 16 15 27 19 17 28 18 18 29 20 19 30 23 20 31 21 21 32 20 19 33 22 20 34 23 20 35 24 22 36 27 22 37 25 22 38 24 22 39 26 23 40 27 22 41 28 11 42 31 11 43 29 13 44 28 11 45 30 24 46 31 11 47 32 25 48 33 26 49 34 27 50 32 25 51 35 28 52 33 26 53 36 29 54 37 30 55 38 29 56 36 29 57 38 29 58 39 31 59 40 32 60 41 32 61 42 32 62 40 32 63 43 22 64 41 32 65 44 33 66 45 34 67 46 33 68 44 33 69 46 33 70 47 34 71 48 35 72 49 35 73 50 36 74 48 35 75 51 35 76 49 35 77 52 37 78 53 38 79 54 37 80 52 37 81 54 37 82 55 39 83 56 40 84 57 40 85 58 40 86 56 40 87 58 40 88 59 41 89 60 33 90 61 42 91 62 39 92 60 33 93 62 39 94 63 37 95 8 43 96 42 43 97 9 43 98 17 44 99 49 45 100 19 46 101 10 47 102 40 48 103 8 49 104 30 50 105 62 51 106 31 51 107 21 52 108 52 53 109 20 54 110 31 55 111 61 56 112 29 57 113 20 58 114 55 59 115 22 60 116 11 61 117 43 62 118 10 63 119 0 64 120 34 65 121 1 66 122 11 67 123 42 68 124 41 69 125 2 70 126 32 71 127 0 72 128 22 73 129 54 73 130 23 73 131 13 74 132 44 75 133 12 76 134 21 77 135 54 78 136 53 69 137 12 79 138 47 80 139 14 81 140 3 82 141 35 83 142 2 84 143 25 85 144 56 86 145 24 87 146 1 88 147 33 89 148 3 90 149 26 91 150 56 92 151 59 93 152 14 94 153 46 95 154 15 96 155 5 97 156 36 98 157 4 98 158 15 99 159 45 100 160 13 101 161 4 102 162 39 103 163 6 104 164 26 105 165 58 105 166 27 105 167 16 106 168 50 107 169 17 108 170 27 109 171 57 110 172 25 111 173 18 112 174 48 113 175 16 114 176 6 115 177 38 116 178 7 117 179 29 118 180 60 118 181 28 119 182 5 120 183 38 121 184 37 69 185 28 122 186 63 123 187 30 81 188 19 61 189 51 62 190 18 63 191 8 43 192 40 43 193 42 43 194 17 44 195 50 69 196 49 45 197 10 47 198 43 124 199 40 48 200 30 50 201 63 50 202 62 51 203 21 52 204 53 125 205 52 53 206 31 55 207 62 69 208 61 56 209 20 58 210 52 93 211 55 59 212 11 61 213 41 126 214 43 62 215 0 64 216 32 127 217 34 65 218 11 67 219 9 128 220 42 68 221 2 70 222 35 93 223 32 71 224 22 73 225 55 73 226 54 73 227 13 74 228 45 129 229 44 75 230 21 77 231 23 130 232 54 78 233 12 79 234 44 93 235 47 80 236 3 82 237 33 131 238 35 83 239 25 85 240 57 132 241 56 86 242 1 88 243 34 133 244 33 89 245 26 91 246 24 134 247 56 92 248 14 94 249 47 50 250 46 95 251 5 97 252 37 135 253 36 98 254 15 99 255 46 69 256 45 100 257 4 102 258 36 93 259 39 103 260 26 105 261 59 136 262 58 105 263 16 106 264 48 137 265 50 107 266 27 109 267 58 69 268 57 110 269 18 112 270 51 93 271 48 113 272 6 115 273 39 116 274 38 116 275 29 118 276 61 119 277 60 118 278 5 120 279 7 138 280 38 121 281 28 122 282 60 93 283 63 123 284 19 61 285 49 126 286 51 62 287</p>
        </triangles>
      </mesh>
    </geometry>
  </library_geometries>
  <library_visual_scenes>
    <visual_scene id="Scene" name="Scene">
      <node id="house_1_f" name="house_1_f" type="NODE">
        <matrix sid="transform">1 0 0 0 0 1 0 0 0 0 1 0 0 0 0 1</matrix>
        <instance_geometry url="#Cube_018-mesh" name="house_1_f">
          <bind_material>
            <technique_common>
              <instance_material symbol="hierva_choza_gaetuli-material" target="#hierva_choza_gaetuli-material">
                <bind_vertex_input semantic="Cube_018-mesh-map-0" input_semantic="TEXCOORD" input_set="0"/>
                <bind_vertex_input semantic="Cube_018-mesh-map-1" input_semantic="TEXCOORD" input_set="1"/>
              </instance_material>
            </technique_common>
          </bind_material>
        </instance_geometry>
        <node id="prop_garrisoned" name="prop_garrisoned" type="NODE">
          <matrix sid="transform">-0.7829416 1.18221e-7 0 5.35037e-14 -1.18221e-7 -0.7829416 0 5.033843 0 0 0.7829416 9.013988 0 0 0 1</matrix>
        </node>
        <node id="prop_projectile" name="prop_projectile" type="NODE">
          <matrix sid="transform">-0.7829416 1.18221e-7 0 5.35037e-14 -1.18221e-7 -0.7829416 0 5.033842 0 0 0.7829416 9.013988 0 0 0 1</matrix>
        </node>
      </node>
    </visual_scene>
  </library_visual_scenes>
  <scene>
    <instance_visual_scene url="#Scene"/>
  </scene>
</COLLADA>