<?xml version="1.0" encoding="utf-8"?>
<COLLADA xmlns="http://www.collada.org/2005/11/COLLADASchema" version="1.4.1" xmlns:xsi="http://www.w3.org/2001/XMLSchema-instance">
  <asset>
    <contributor>
      <author>Blender User</author>
      <authoring_tool>Blender 4.3.1 commit date:2024-12-10, commit time:07:46, hash:33d812126174</authoring_tool>
    </contributor>
    <created>2026-08-22T20:09:17</created>
    <modified>2026-08-22T20:09:17</modified>
    <unit name="meter" meter="1"/>
    <up_axis>Z_UP</up_axis>
  </asset>
  <library_effects>
    <effect id="hierva_choza_gaetuli-effect">
      <profile_COMMON>
        <technique sid="common">
          <lambert>
            <emission>
              <color sid="emission">0 0 0 1</color>
            </emission>
            <diffuse>
              <color sid="diffuse">0.8 0.8 0.8 1</color>
            </diffuse>
            <index_of_refraction>
              <float sid="ior">1.45</float>
            </index_of_refraction>
          </lambert>
        </technique>
      </profile_COMMON>
    </effect>
  </library_effects>
  <library_images/>
  <library_materials>
    <material id="hierva_choza_gaetuli-material" name="hierva choza gaetuli">
      <instance_effect url="#hierva_choza_gaetuli-effect"/>
    </material>
  </library_materials>
  <library_geometries>
    <geometry id="Cube_032-mesh" name="Cube.032">
      <mesh>
        <source id="Cube_032-mesh-positions">
          <float_array id="Cube_032-mesh-positions-array" count="336">-0.4114159 7.544619 3.902888 -0.4114159 7.544619 0.4004871 -0.8490775 2.988937 3.902888 -0.8490775 2.988937 0.4004871 -2.855555 4.724855 3.902889 -2.855555 4.724855 0.4004871 1.485332 5.684659 3.902889 1.485332 5.684659 0.4004871 -4.995603 -8.061439 3.902888 -4.995603 -8.061439 0.4004871 -5.433264 -12.61712 3.902888 -5.433264 -12.61712 0.4004871 -7.439742 -10.8812 3.902888 -7.439742 -10.8812 0.4004871 -3.098855 -9.921401 3.902888 -3.098855 -9.921401 0.4004871 3.514708 -2.805268 3.902888 3.514708 -2.805268 0.4004871 -0.9919372 -2.00781 3.902888 -0.9919372 -2.00781 0.4004871 0.8975906 -0.1452718 3.902888 0.8975906 -0.1452718 0.4004871 1.510227 -4.548588 3.902888 1.510227 -4.548588 0.4004871 13.00536 -9.702507 3.902888 13.00536 -9.702507 0.4004871 9.232356 -12.29292 3.902888 9.232356 -12.29292 0.4004871 9.274275 -9.640069 3.902888 9.274275 -9.640069 0.4004871 12.79788 -12.35091 3.902888 12.79788 -12.35091 0.4004871 -8.168571 0.8505573 3.902888 -8.168571 0.8505573 0.4004871 -9.959016 5.062457 3.902888 -9.959016 5.062457 0.4004871 -7.367206 4.495101 3.902888 -7.367206 4.495101 0.4004871 -10.72318 1.579293 3.902888 -10.72318 1.579293 0.4004871 11.77539 10.49878 3.902888 11.77539 10.49878 0.4004871 8.002389 7.90837 3.902888 8.002389 7.90837 0.4004871 8.044309 10.56122 3.902888 8.044309 10.56122 0.4004871 11.56792 7.850374 3.902888 11.56792 7.850374 0.4004871 -0.2070863 13.04951 3.902888 -0.2070863 13.04951 0.4004871 -3.980091 10.4591 3.902888 -3.980091 10.4591 0.4004871 -3.938171 13.11194 3.902888 -3.938171 13.11194 0.4004871 -0.4145586 10.4011 3.902888 -0.4145586 10.4011 0.4004871 -0.380558 7.541655 3.902888 -0.8182195 2.985972 0.4004871 -0.380558 7.541655 0.4004871 -0.8182195 2.985972 3.902888 -2.848862 4.694586 3.902889 -2.848862 4.694586 0.4004871 1.492024 5.654389 0.4004871 1.492024 5.654389 3.902889 -4.964745 -8.064403 3.902888 -5.402406 -12.62008 0.4004871 -4.964745 -8.064403 0.4004871 -5.402406 -12.62008 3.902888 -7.446434 -10.85093 3.902888 -3.105547 -9.891132 0.4004871 -7.446434 -10.85093 0.4004871 -3.105547 -9.891132 3.902888 3.520109 -2.774743 3.902888 3.520109 -2.774743 0.4004871 -0.9865356 -1.977284 0.4004871 -0.9865356 -1.977284 3.902888 0.8668863 -0.1495437 3.902888 0.8668863 -0.1495437 0.4004871 1.479523 -4.55286 0.4004871 1.479523 -4.55286 3.902888 12.98781 -9.676952 3.902888 12.98781 -9.676952 0.4004871 9.21481 -12.26736 0.4004871 9.21481 -12.26736 3.902888 9.293177 -9.615499 3.902888 12.81679 -12.32634 0.4004871 9.293177 -9.615499 0.4004871 12.81679 -12.32634 3.902888 -8.140043 0.8626849 3.902888 -8.140043 0.8626849 0.4004871 -9.930487 5.074584 0.4004871 -9.930487 5.074584 3.902888 -7.346874 4.4717 3.902888 -10.70285 1.555892 0.4004871 -7.346874 4.4717 0.4004871 -10.70285 1.555892 3.902888 11.75785 10.52434 3.902888 11.75785 10.52434 0.4004871 7.984843 7.933927 0.4004871 7.984843 7.933927 3.902888 8.025406 10.53665 3.902888 8.025406 10.53665 0.4004871 11.54902 7.825804 0.4004871 11.54902 7.825804 3.902888 -0.1895402 13.02395 3.902888 -3.962545 10.43354 0.4004871 -0.1895402 13.02395 0.4004871 -3.962545 10.43354 3.902888 -3.957074 13.08737 3.902888 -3.957074 13.08737 0.4004871 -0.4334613 10.37653 0.4004871 -0.4334613 10.37653 3.902888</float_array>
          <technique_common>
            <accessor source="#Cube_032-mesh-positions-array" count="112" stride="3">
              <param name="X" type="float"/>
              <param name="Y" type="float"/>
              <param name="Z" type="float"/>
            </accessor>
          </technique_common>
        </source>
        <source id="Cube_032-mesh-normals">
          <float_array id="Cube_032-mesh-normals-array" count="795">-0.9954171 0.09562909 0 -0.9954171 0.09562903 0 -0.9954171 0.09562909 0 -0.9954171 0.09562915 0 -0.2158934 0.976417 0 -0.2158934 0.976417 0 -0.2158934 0.976417 0 -0.9954171 0.09562891 0 -0.9954171 0.09562891 0 0.2158923 -0.9764172 0 0.2158923 -0.9764173 0 0.2158923 -0.9764172 0 0.2158923 -0.9764173 0 -0.1742447 -0.9847025 0 -0.1742447 -0.9847024 0 0.9904597 0.1378033 0 0.9904596 0.1378033 0 0.9904597 0.1378033 0 0.5660053 -0.8244017 0 -0.6097638 -0.7925832 0 -0.6097637 -0.7925833 0 -0.6097638 -0.7925832 0 -0.6097639 -0.7925832 0 -0.9203005 -0.3912125 0 -0.6558675 0.7548761 0 -0.6558676 0.7548761 0 -0.6558675 0.7548762 0 0.5660052 -0.8244017 0 0.5660053 -0.8244016 0 0.609764 0.792583 0 0.609764 0.7925831 0 0.6097641 0.7925829 0 -0.5660049 0.8244019 0 -0.5660049 0.8244019 0 -0.5660048 0.8244019 0 0.6097628 0.792584 0 0.6097628 0.792584 0 0.9954171 -0.09562903 0 0.9954171 -0.09562903 0 0.2158933 -0.976417 0 0.2158933 -0.976417 0 0.2158932 -0.976417 0 0.9954171 -0.09562915 0 0.9954171 -0.09562909 0 0.9954171 -0.09562927 0 0.9954171 -0.09562903 0 -0.2158921 0.9764173 0 -0.2158921 0.9764173 0 -0.2158921 0.9764173 0 -0.2158921 0.9764173 0 0.1742449 0.9847024 0 0.1742449 0.9847024 0 0.1742449 0.9847024 0 -0.9904597 -0.1378033 0 -0.9904596 -0.1378034 0 -0.9904597 -0.1378033 0 -0.5660051 0.8244019 0 0.6097631 0.7925838 0 0.6097632 0.7925838 0 0.6097632 0.7925837 0 0.9203005 0.3912123 0 0.9203004 0.3912125 0 0.9203006 0.3912122 0 0.9203007 0.3912119 0 0.6558672 -0.7548763 0 0.6558672 -0.7548764 0 0.6558672 -0.7548763 0 -0.5660051 0.8244018 0 -0.5660052 0.8244017 0 -0.6097636 -0.7925834 0 -0.6097635 -0.7925834 0 -0.6097633 -0.7925836 0 0.5660049 -0.8244019 0 0.5660049 -0.8244019 0 0.5660049 -0.824402 0 -0.6097629 -0.7925839 0 -0.6097629 -0.792584 0 -0.6097629 -0.792584 0 0 0 1 -6.06518e-6 0 1 -6.09148e-6 0 1 -0.1378023 0.9904597 0 -0.1378028 0.9904597 0 -0.1378029 0.9904597 0 2.74724e-5 0 1 -1.8876e-5 0 1 2.76795e-5 0 1 0.09561371 0.9954186 0 0.09561371 0.9954186 0 0.09561371 0.9954186 0 -0.8244031 -0.5660031 0 0 0 1 -2.35296e-6 0 1 -2.36316e-6 0 1 0 0 -1 6.27432e-7 0 -1 0 0 -1 0.1378063 -0.9904593 0 0.1378075 -0.990459 0 0.1378075 -0.9904591 0 -0.7926077 0.6097322 0 -0.7925573 0.6097976 0 -0.792557 0.609798 0 0 0 -1 7.6695e-7 0 -1 7.70369e-7 0 -1 -0.09564393 -0.9954156 0 -0.09564352 -0.9954157 0 0 0 1 -7.53532e-7 0 1 -7.56892e-7 0 1 0.8243554 0.5660727 0 0.8243229 0.5661199 0 0.8243228 0.5661202 0 1.66662e-6 0 -1 -1.52381e-6 0 -1 -1.53769e-6 0 -1 0 0 1 2.7188e-6 0 1 2.73054e-6 0 1 -0.9764121 -0.2159155 0 -0.9764194 -0.2158824 0 -0.9764195 -0.2158823 0 0.7926361 -0.6096951 0 0.7926361 -0.609695 0 0 0 1 -2.0452e-6 0 1 -2.0543e-6 0 1 0 0 -1 1.02265e-6 0 -1 -0.8245177 -0.5658363 -2.82134e-5 -0.8243889 -0.5660239 0 -0.8242805 -0.5661817 0 0.8244428 0.5659455 0 0.8244433 0.5659447 0 0.8244433 0.5659447 0 0 0 -1 2.61423e-7 0 -1 0.9764228 0.2158674 0 0.9764246 0.215859 0 0.9764246 0.2158589 0 0 0 1 -2.71874e-6 0 1 -2.7305e-6 0 1 -0.7925742 0.6097757 0 -0.7926077 0.609732 0 -0.7926079 0.6097317 0 0 0 -1 0 0 -1 0 0 1 0 0 1 0 0 1 0.09561264 0.9954187 0 0.09561264 0.9954187 0 0.09561264 0.9954186 0 -0.8244458 -0.565941 0 -0.8244377 -0.5659528 0 -0.8244377 -0.5659529 0 0 0 1 7.55587e-6 0 1 0 0 1 0 0 -1 2.61418e-7 0 -1 2.62547e-7 0 -1 0.7924942 -0.6098795 0 0.792427 -0.6099668 0 0.7924266 -0.6099674 0 -0.7925626 0.6097906 0 -0.7925794 0.6097689 0 -0.7925794 0.6097688 0 0 0 -1 0 0 -1 0 0 -1 -0.09549075 -0.9954304 0 -0.09549403 -0.9954301 0 -0.09549403 -0.9954301 0 0 0 1 0 0 1 0 0 1 0.3912214 -0.9202966 0 0.3912338 -0.9202913 0 0.3912339 -0.9202913 0 1.67398e-6 0 -1 1.8208e-7 0 -1 1.756e-7 0 -1 -2.67073e-5 0 1 1.49431e-5 0 1 1.51245e-5 0 1 -0.9764253 -0.2158558 0 -0.9764253 -0.2158558 0 -0.9764253 -0.2158558 0 0.7925888 -0.6097567 0 0.7925867 -0.6097593 0 0.7925866 -0.6097593 0 0 0 1 -2.47567e-6 0 1 -2.48671e-6 0 1 0 0 -1 0 0 -1 0 0 -1 -0.3911907 0.9203097 0 -0.3911908 0.9203097 0 1.67509e-6 0 -1 4.25565e-7 0 -1 1.68053e-6 0 -1 0.9764239 0.2158623 0 0.9764239 0.2158623 0 0.754867 0.655878 0 0.754867 0.6558781 0 0.7548668 0.6558781 0 0 0 -1 1.88366e-7 0 -1 0 0 1 -9.68769e-7 0 1 -9.73088e-7 0 1 0.984704 -0.1742362 0 0.9847069 -0.1742194 0 0.9847069 -0.1742193 0 0 0 1 9.41173e-7 0 1 9.45248e-7 0 1 -0.7548984 -0.6558418 0 -0.7548983 -0.6558418 0 0 0 -1 3.76743e-7 0 -1 -0.9847026 0.1742438 0 -0.9847018 0.174248 0 -0.9847018 0.174248 0 0.8244684 0.5659081 8.00276e-5 0.8245816 0.5657431 1.19076e-4 0.824536 0.5658096 0 0 0 -1 0 0 -1 0 0 -1 -0.1378023 0.9904597 0 -1.90835e-5 0 1 0.09561365 0.9954186 0 6.30153e-7 0 -1 0.1378063 -0.9904593 0 -0.09564393 -0.9954156 0 0.8243557 0.5660724 0 1.68047e-6 0 -1 -0.9764121 -0.2159157 0 0.7926362 -0.6096951 0 1.02721e-6 0 -1 2.62552e-7 0 -1 0.9764227 0.2158674 0 -0.7925739 0.6097759 0 0 0 -1 0.09561264 0.9954186 0 -0.8244459 -0.5659409 0 7.58855e-6 0 1 0.7924947 -0.609879 0 -0.7925625 0.6097908 0 -0.09549069 -0.9954304 0 0.3912213 -0.9202967 0 1.68047e-6 0 -1 -2.68884e-5 0 1 0.7925888 -0.6097566 0 4.20124e-7 0 -1 1.89206e-7 0 -1 0.9847039 -0.1742363 0 -0.7548984 -0.6558418 0 3.78423e-7 0 -1 0.8243461 0.5660862 0</float_array>
          <technique_common>
            <accessor source="#Cube_032-mesh-normals-array" count="265" stride="3">
              <param name="X" type="float"/>
              <param name="Y" type="float"/>
              <param name="Z" type="float"/>
            </accessor>
          </technique_common>
        </source>
        <source id="Cube_032-mesh-map-0">
          <float_array id="Cube_032-mesh-map-0-array" count="1008">0.9984335 0.6838312 1.000765 0.001214206 0.001161634 6.92369e-4 0.9984335 0.6838312 0.001161634 6.92369e-4 5.39125e-4 0.6833093 0.9984335 0.6838312 0.001161634 6.92369e-4 1.000765 0.001214206 0.9984335 0.6838312 5.39125e-4 0.6833093 0.001161634 6.92369e-4 0.9984335 0.6838312 1.000765 0.001214206 0.001161634 6.92369e-4 0.9984335 0.6838312 0.001161634 6.92369e-4 5.39125e-4 0.6833093 0.9984335 0.6838312 1.000765 0.001214206 0.001161634 6.92369e-4 0.9984335 0.6838312 0.001161634 6.92369e-4 5.39125e-4 0.6833093 0.9984335 0.6838312 0.001161634 6.92369e-4 1.000765 0.001214206 0.9984335 0.6838312 5.39125e-4 0.6833093 0.001161634 6.92369e-4 0.9984335 0.6838312 0.001161634 6.92369e-4 1.000765 0.001214206 0.9984335 0.6838312 5.39125e-4 0.6833093 0.001161634 6.92369e-4 0.9984335 0.6838312 0.001161634 6.92369e-4 1.000765 0.001214206 0.9984335 0.6838312 5.39125e-4 0.6833093 0.001161634 6.92369e-4 0.9984335 0.6838312 1.000765 0.001214206 0.001161634 6.92369e-4 0.9984335 0.6838312 0.001161634 6.92369e-4 5.39125e-4 0.6833093 0.9984335 0.6838312 0.001161634 6.92369e-4 1.000765 0.001214206 0.9984335 0.6838312 5.39125e-4 0.6833093 0.001161634 6.92369e-4 0.9984335 0.6838312 1.000765 0.001214206 0.001161634 6.92369e-4 0.9984335 0.6838312 0.001161634 6.92369e-4 5.39125e-4 0.6833093 0.9984335 0.6838312 0.001161634 6.92369e-4 1.000765 0.001214206 0.9984335 0.6838312 5.39125e-4 0.6833093 0.001161634 6.92369e-4 0.9984335 0.6838312 0.001161634 6.92369e-4 1.000765 0.001214206 0.9984335 0.6838312 5.39125e-4 0.6833093 0.001161634 6.92369e-4 0.9984335 0.6838312 1.000765 0.001214206 0.001161634 6.92369e-4 0.9984335 0.6838312 0.001161634 6.92369e-4 5.39125e-4 0.6833093 0.9984335 0.6838312 0.001161634 6.92369e-4 1.000765 0.001214206 0.9984335 0.6838312 5.39125e-4 0.6833093 0.001161634 6.92369e-4 0.9984335 0.6838312 0.001161634 6.92369e-4 1.000765 0.001214206 0.9984335 0.6838312 5.39125e-4 0.6833093 0.001161634 6.92369e-4 0.9984335 0.6838312 1.000765 0.001214206 0.001161634 6.92369e-4 0.9984335 0.6838312 0.001161634 6.92369e-4 5.39125e-4 0.6833093 0.9984335 0.6838312 0.001161634 6.92369e-4 1.000765 0.001214206 0.9984335 0.6838312 5.39125e-4 0.6833093 0.001161634 6.92369e-4 0.9984335 0.6838312 0.001161634 6.92369e-4 1.000765 0.001214206 0.9984335 0.6838312 5.39125e-4 0.6833093 0.001161634 6.92369e-4 0.9984335 0.6838312 1.000765 0.001214206 0.001161634 6.92369e-4 0.9984335 0.6838312 0.001161634 6.92369e-4 5.39125e-4 0.6833093 0.9984335 0.6838312 1.000765 0.001214206 0.001161634 6.92369e-4 0.9984335 0.6838312 0.001161634 6.92369e-4 5.39125e-4 0.6833093 0.9984335 0.6838312 1.000765 0.001214206 0.001161634 6.92369e-4 0.9984335 0.6838312 0.001161634 6.92369e-4 5.39125e-4 0.6833093 0.9984335 0.6838312 0.001161634 6.92369e-4 1.000765 0.001214206 0.9984335 0.6838312 5.39125e-4 0.6833093 0.001161634 6.92369e-4 0.9984335 0.6838312 1.000765 0.001214206 0.001161634 6.92369e-4 0.9984335 0.6838312 0.001161634 6.92369e-4 5.39125e-4 0.6833093 0.9984335 0.6838312 0.001161634 6.92369e-4 1.000765 0.001214206 0.9984335 0.6838312 5.39125e-4 0.6833093 0.001161634 6.92369e-4 0.9984335 0.6838312 1.000765 0.001214206 0.001161634 6.92369e-4 0.9984335 0.6838312 0.001161634 6.92369e-4 5.39125e-4 0.6833093 0.9984335 0.6838312 1.000765 0.001214206 0.001161634 6.92369e-4 0.9984335 0.6838312 0.001161634 6.92369e-4 5.39125e-4 0.6833093 0.9984335 0.6838312 0.001161634 6.92369e-4 1.000765 0.001214206 0.9984335 0.6838312 5.39125e-4 0.6833093 0.001161634 6.92369e-4 0.9984335 0.6838312 1.000765 0.001214206 0.001161634 6.92369e-4 0.9984335 0.6838312 0.001161634 6.92369e-4 5.39125e-4 0.6833093 0.9984335 0.6838312 5.39125e-4 0.6833093 5.39125e-4 0.6833093 1.000765 0.001214206 0.9984335 0.6838312 0.9984335 0.6838312 5.39125e-4 0.6833093 0.9984335 0.6838312 5.39125e-4 0.6833093 0.9984335 0.6838312 1.000765 0.001214206 1.000765 0.001214206 5.39125e-4 0.6833093 0.001161634 6.92369e-4 0.001161634 6.92369e-4 5.39125e-4 0.6833093 0.9984335 0.6838312 0.9984335 0.6838312 1.000765 0.001214206 0.001161634 6.92369e-4 1.000765 0.001214206 5.39125e-4 0.6833093 0.001161634 6.92369e-4 0.001161634 6.92369e-4 1.000765 0.001214206 0.9984335 0.6838312 0.9984335 0.6838312 0.001161634 6.92369e-4 1.000765 0.001214206 1.000765 0.001214206 0.001161634 6.92369e-4 5.39125e-4 0.6833093 5.39125e-4 0.6833093 0.9984335 0.6838312 5.39125e-4 0.6833093 5.39125e-4 0.6833093 1.000765 0.001214206 0.9984335 0.6838312 0.9984335 0.6838312 1.000765 0.001214206 0.001161634 6.92369e-4 0.001161634 6.92369e-4 0.9984335 0.6838312 5.39125e-4 0.6833093 5.39125e-4 0.6833093 1.000765 0.001214206 0.9984335 0.6838312 0.9984335 0.6838312 5.39125e-4 0.6833093 0.001161634 6.92369e-4 0.001161634 6.92369e-4 0.9984335 0.6838312 5.39125e-4 0.6833093 5.39125e-4 0.6833093 1.000765 0.001214206 0.001161634 6.92369e-4 1.000765 0.001214206 5.39125e-4 0.6833093 0.001161634 6.92369e-4 0.001161634 6.92369e-4 0.9984335 0.6838312 1.000765 0.001214206 1.000765 0.001214206 1.000765 0.001214206 0.001161634 6.92369e-4 1.000765 0.001214206 5.39125e-4 0.6833093 0.001161634 6.92369e-4 0.001161634 6.92369e-4 5.39125e-4 0.6833093 0.9984335 0.6838312 0.9984335 0.6838312 0.9984335 0.6838312 1.000765 0.001214206 1.000765 0.001214206 1.000765 0.001214206 0.001161634 6.92369e-4 1.000765 0.001214206 5.39125e-4 0.6833093 0.9984335 0.6838312 0.9984335 0.6838312 0.9984335 0.6838312 1.000765 0.001214206 1.000765 0.001214206 0.001161634 6.92369e-4 5.39125e-4 0.6833093 5.39125e-4 0.6833093 0.9984335 0.6838312 5.39125e-4 0.6833093 0.9984335 0.6838312 1.000765 0.001214206 0.001161634 6.92369e-4 0.001161634 6.92369e-4 0.001161634 6.92369e-4 5.39125e-4 0.6833093 5.39125e-4 0.6833093 1.000765 0.001214206 0.9984335 0.6838312 0.9984335 0.6838312 1.000765 0.001214206 0.001161634 6.92369e-4 0.001161634 6.92369e-4 0.001161634 6.92369e-4 5.39125e-4 0.6833093 5.39125e-4 0.6833093 0.9984335 0.6838312 5.39125e-4 0.6833093 5.39125e-4 0.6833093 1.000765 0.001214206 0.9984335 0.6838312 0.9984335 0.6838312 1.000765 0.001214206 0.001161634 6.92369e-4 0.001161634 6.92369e-4 0.9984335 0.6838312 5.39125e-4 0.6833093 5.39125e-4 0.6833093 0.9984335 0.6838312 1.000765 0.001214206 1.000765 0.001214206 5.39125e-4 0.6833093 0.001161634 6.92369e-4 0.001161634 6.92369e-4 5.39125e-4 0.6833093 0.9984335 0.6838312 0.9984335 0.6838312 0.001161634 6.92369e-4 1.000765 0.001214206 1.000765 0.001214206 5.39125e-4 0.6833093 0.001161634 6.92369e-4 0.001161634 6.92369e-4 1.000765 0.001214206 0.001161634 6.92369e-4 1.000765 0.001214206 0.001161634 6.92369e-4 5.39125e-4 0.6833093 5.39125e-4 0.6833093 0.9984335 0.6838312 1.000765 0.001214206 1.000765 0.001214206 0.001161634 6.92369e-4 1.000765 0.001214206 0.001161634 6.92369e-4 5.39125e-4 0.6833093 0.9984335 0.6838312 0.9984335 0.6838312 1.000765 0.001214206 0.9984335 0.6838312 0.9984335 0.6838312 0.9984335 0.6838312 5.39125e-4 0.6833093 5.39125e-4 0.6833093 0.001161634 6.92369e-4 5.39125e-4 0.6833093 5.39125e-4 0.6833093 0.001161634 6.92369e-4 1.000765 0.001214206 0.001161634 6.92369e-4 5.39125e-4 0.6833093 0.001161634 6.92369e-4 0.001161634 6.92369e-4 1.000765 0.001214206 0.9984335 0.6838312 0.9984335 0.6838312 0.001161634 6.92369e-4 1.000765 0.001214206 1.000765 0.001214206 0.9984335 0.6838312 0.9984335 0.6838312 5.39125e-4 0.6833093 1.000765 0.001214206 1.000765 0.001214206 0.9984335 0.6838312 5.39125e-4 0.6833093 0.9984335 0.6838312 0.9984335 0.6838312 0.9984335 0.6838312 0.9984335 0.6838312 1.000765 0.001214206 5.39125e-4 0.6833093 5.39125e-4 0.6833093 0.001161634 6.92369e-4 5.39125e-4 0.6833093 5.39125e-4 0.6833093 0.9984335 0.6838312 1.000765 0.001214206 0.001161634 6.92369e-4 0.001161634 6.92369e-4 5.39125e-4 0.6833093 5.39125e-4 0.6833093 0.001161634 6.92369e-4 1.000765 0.001214206 1.000765 0.001214206 0.9984335 0.6838312 0.001161634 6.92369e-4 0.001161634 6.92369e-4 1.000765 0.001214206 0.001161634 6.92369e-4 0.001161634 6.92369e-4 5.39125e-4 0.6833093 0.9984335 0.6838312 0.9984335 0.6838312 5.39125e-4 0.6833093 1.000765 0.001214206 1.000765 0.001214206 0.9984335 0.6838312 1.000765 0.001214206 1.000765 0.001214206 0.001161634 6.92369e-4 0.9984335 0.6838312 0.9984335 0.6838312 5.39125e-4 0.6833093 1.000765 0.001214206 1.000765 0.001214206 0.9984335 0.6838312 5.39125e-4 0.6833093 5.39125e-4 0.6833093 0.001161634 6.92369e-4 0.9984335 0.6838312 0.9984335 0.6838312 5.39125e-4 0.6833093 1.000765 0.001214206 0.001161634 6.92369e-4 0.001161634 6.92369e-4 5.39125e-4 0.6833093 5.39125e-4 0.6833093 0.001161634 6.92369e-4 0.9984335 0.6838312 0.9984335 0.6838312 1.000765 0.001214206 1.000765 0.001214206 0.001161634 6.92369e-4 0.001161634 6.92369e-4 5.39125e-4 0.6833093 5.39125e-4 0.6833093 0.001161634 6.92369e-4 5.39125e-4 0.6833093 5.39125e-4 0.6833093 0.9984335 0.6838312 0.9984335 0.6838312 0.9984335 0.6838312 1.000765 0.001214206 1.000765 0.001214206 0.001161634 6.92369e-4 0.001161634 6.92369e-4 5.39125e-4 0.6833093 5.39125e-4 0.6833093 0.9984335 0.6838312 0.9984335 0.6838312 0.9984335 0.6838312 1.000765 0.001214206 0.001161634 6.92369e-4 0.001161634 6.92369e-4 5.39125e-4 0.6833093 0.9984335 0.6838312 5.39125e-4 0.6833093 5.39125e-4 0.6833093 1.000765 0.001214206 1.000765 0.001214206 0.001161634 6.92369e-4 0.001161634 6.92369e-4 0.001161634 6.92369e-4 5.39125e-4 0.6833093 1.000765 0.001214206 1.000765 0.001214206 0.9984335 0.6838312 1.000765 0.001214206 1.000765 0.001214206 0.001161634 6.92369e-4 0.001161634 6.92369e-4 0.001161634 6.92369e-4 5.39125e-4 0.6833093 0.9984335 0.6838312 0.9984335 0.6838312 5.39125e-4 0.6833093 1.000765 0.001214206 1.000765 0.001214206 0.9984335 0.6838312 1.000765 0.001214206 1.000765 0.001214206 0.001161634 6.92369e-4 0.9984335 0.6838312 0.9984335 0.6838312 5.39125e-4 0.6833093 0.9984335 0.6838312 0.9984335 0.6838312 1.000765 0.001214206 5.39125e-4 0.6833093 5.39125e-4 0.6833093 0.001161634 6.92369e-4 5.39125e-4 0.6833093 5.39125e-4 0.6833093 0.9984335 0.6838312 0.001161634 6.92369e-4 0.001161634 6.92369e-4 1.000765 0.001214206 5.39125e-4 0.6833093 5.39125e-4 0.6833093 0.001161634 6.92369e-4 1.000765 0.001214206 0.001161634 6.92369e-4 0.001161634 6.92369e-4 0.001161634 6.92369e-4 0.001161634 6.92369e-4 5.39125e-4 0.6833093 0.9984335 0.6838312 0.9984335 0.6838312 1.000765 0.001214206 0.001161634 6.92369e-4 1.000765 0.001214206 1.000765 0.001214206 5.39125e-4 0.6833093 5.39125e-4 0.6833093 0.9984335 0.6838312 1.000765 0.001214206 1.000765 0.001214206 0.9984335 0.6838312 0.9984335 0.6838312 0.9984335 0.6838312 5.39125e-4 0.6833093 0.001161634 6.92369e-4 0.001161634 6.92369e-4 5.39125e-4 0.6833093 0.001161634 6.92369e-4 1.000765 0.001214206 1.000765 0.001214206 5.39125e-4 0.6833093 5.39125e-4 0.6833093 0.001161634 6.92369e-4 1.000765 0.001214206 1.000765 0.001214206 0.9984335 0.6838312 0.001161634 6.92369e-4 0.001161634 6.92369e-4 1.000765 0.001214206</float_array>
          <technique_common>
            <accessor source="#Cube_032-mesh-map-0-array" count="504" stride="2">
              <param name="S" type="float"/>
              <param name="T" type="float"/>
            </accessor>
          </technique_common>
        </source>
        <source id="Cube_032-mesh-map-1">
          <float_array id="Cube_032-mesh-map-1-array" count="1008">0.8190842 0.5486672 0.9817308 0.5486672 0.9817308 0.7168083 0.8190842 0.5486672 0.9817308 0.7168083 0.8190842 0.7168083 0.6552674 0.9793908 0.817914 0.7846374 0.817914 0.9793908 0.6552674 0.9793908 0.6552674 0.7846374 0.817914 0.7846374 0.8190841 0.7179835 0.9817308 0.7179836 0.9817307 0.8861246 0.8190841 0.7179835 0.9817307 0.8861246 0.8190841 0.8861246 0.1638168 0.4447888 0.3264635 0.4447888 0.3264634 0.6395428 0.1638168 0.4447888 0.3264634 0.6395428 0.1638168 0.6395428 0.1699576 0.6407181 0.3264635 0.8040705 0.1699576 0.8040705 0.1699576 0.6407181 0.3264635 0.6407181 0.3264635 0.8040705 0.8190842 0.1885001 0.9817309 0 0.9817309 0.1885001 0.8190842 0.1885001 0.8190842 0 0.9817309 0 0.1638168 0.2133349 0.3264634 0 0.3264634 0.2133349 0.1638168 0.2133349 0.1638168 0 0.3264634 0 0.6552674 0.3923189 0.817914 0.3923189 0.817914 0.5873029 0.6552674 0.3923189 0.817914 0.5873029 0.6552674 0.5873029 0.3276336 0.6395424 0.4902803 0.4290203 0.4902802 0.6395424 0.3276336 0.6395424 0.3276336 0.4290203 0.4902803 0.4290203 0.4914506 0 0.6540972 0 0.6540971 0.205102 0.4914506 0 0.6540971 0.205102 0.4914506 0.205102 0.3276337 0.2133346 0.4902803 0 0.4902803 0.2133346 0.3276337 0.2133346 0.3276337 0 0.4902803 0 0.4914505 0.8036984 0.6540972 0.6087142 0.6540971 0.8036984 0.4914505 0.8036984 0.4914506 0.6087141 0.6540972 0.6087142 0 0.2145103 0.1626466 0.2145103 0.1626466 0.4278452 0 0.2145103 0.1626466 0.4278452 0 0.4278452 0.6552673 0.7834621 0.817914 0.5884782 0.817914 0.7834621 0.6552673 0.7834621 0.6552673 0.5884782 0.817914 0.5884782 0.4914505 0.9730153 0.6540971 0.8048737 0.6540971 0.9730153 0.4914505 0.9730153 0.4914505 0.8048737 0.6540971 0.8048737 0 0.6407181 0.1626466 0.6407182 0.1626466 0.8354721 0 0.6407181 0.1626466 0.8354721 0 0.8354721 0.8190843 0.5474919 0.9817309 0.3793506 0.9817309 0.5474919 0.8190843 0.5474919 0.8190843 0.3793506 0.9817309 0.3793506 0.3276337 0.8354709 0.4902803 0.6407176 0.4902803 0.8354709 0.3276337 0.8354709 0.3276337 0.6407176 0.4902803 0.6407176 0.326462 0.8052459 0.326462 0.9685984 0.1699576 0.9685984 0.326462 0.8052459 0.1699576 0.9685984 0.1699576 0.8052459 0.8190842 0.1896754 0.9817308 0.1896755 0.9817308 0.3781752 0.8190842 0.1896754 0.9817308 0.3781752 0.8190842 0.3781752 0.3276337 0.2145102 0.4902803 0.2145102 0.4902803 0.427845 0.3276337 0.2145102 0.4902803 0.427845 0.3276337 0.4278449 0.6552674 0.3911435 0.817914 0.1961594 0.817914 0.3911435 0.6552674 0.3911435 0.6552674 0.1961594 0.817914 0.1961594 0 0.4290206 0.1626466 0.4290206 0.1626466 0.6395428 0 0.4290206 0.1626466 0.6395428 0 0.6395427 0.4914505 0.411379 0.6540971 0.2062773 0.6540971 0.4113791 0.4914505 0.411379 0.4914505 0.2062773 0.6540971 0.2062773 0 0 0.1626466 0 0.1626466 0.213335 0 0 0.1626466 0.213335 0 0.213335 0.4914505 0.4125543 0.6540971 0.4125543 0.6540971 0.6075388 0.4914505 0.4125543 0.6540971 0.6075388 0.4914505 0.6075388 0.1638168 0.4278451 0.3264634 0.2145103 0.3264634 0.4278452 0.1638168 0.4278451 0.1638168 0.2145103 0.3264634 0.2145103 0.6552674 0 0.817914 0 0.817914 0.1949842 0.6552674 0 0.817914 0.1949842 0.6552674 0.1949842 0.9843408 0.6427186 0.9829012 0.4292628 0.9843408 0.4292627 0.04982614 0.9999999 0.0485174 0.8366474 0.04982614 0.8366474 0.9973902 0 0.9959506 0.2073496 0.9959506 0 0.05330067 0.8366474 0.05443471 0.9999999 0.05330067 0.9999999 0.007827281 0.8366474 0.009266078 0.9999999 0.007827281 0.9999999 0.985511 0.4292628 0.9869506 0.6427189 0.985511 0.6427189 0.9829012 0.8573502 0.9843408 0.6438944 0.9843408 0.8573505 0.0460385 0.8366474 0.04734718 0.9999999 0.0460385 0.9999999 0.02468276 0.9999999 0.02332895 0.8366474 0.02468276 0.8366474 0.9959506 0.6255749 0.9973902 0.8329244 0.9959506 0.8329244 0.0590431 0.9999999 0.05790913 0.8366474 0.0590431 0.8366474 0.9973901 0.4158747 0.9959505 0.208525 0.99739 0.2085251 0.001438915 0.9999999 0 0.8366473 0.001438915 0.8366473 0.9869506 0.8573503 0.985511 0.6438943 0.9869506 0.6438943 0.9843408 0.2134561 0.982901 1.92559e-7 0.9843408 0 0.04486823 1 0.04351609 0.8366474 0.04486823 0.8366474 0.03342491 0.8366474 0.03477859 0.9999999 0.03342491 0.9999999 0.9907308 0.4170497 0.9921705 0.6243993 0.9907308 0.6243993 0.9959506 0.6243996 0.9973902 0.4170498 0.9973902 0.6243996 0.002609074 0.8366474 0.004047989 0.9999999 0.002609074 0.9999999 0.9907308 0.8340994 0.9921697 0.997452 0.9907308 0.997452 0.9829013 0.4280875 0.9843409 0.2146315 0.9843409 0.4280873 0.04099369 0.8366474 0.04234588 1 0.04099369 1 0.1673476 0.6407182 0.1687873 0.8541741 0.1673476 0.8541741 0.03090095 0.8366474 0.03225469 0.9999999 0.03090095 0.9999999 0.9921705 0.6255747 0.9907308 0.8329242 0.9907308 0.6255747 0.9907306 3.22025e-7 0.9921702 0.2073495 0.9907306 0.2073495 0.05560493 0.8366474 0.05673891 0.9999999 0.05560493 0.9999999 0.9947789 0.997452 0.9933399 0.8340995 0.9947789 0.8340995 0.9881209 0.6427188 0.9895604 0.429263 0.9895604 0.6427189 0.1661774 0.8541742 0.1647377 0.6407181 0.1661774 0.6407182 0.02215874 0.9999999 0.0208047 0.8366474 0.02215874 0.8366474 0.02720671 0.9999999 0.02585297 0.8366474 0.02720671 0.8366474 0.9921705 0.4158745 0.9907307 0.208525 0.9921705 0.2085253 0.05213052 0.9999999 0.05099636 0.8366474 0.05213052 0.8366474 0.9947804 0.4158744 0.9933407 0.2085249 0.9947804 0.2085249 0.01963448 0.9999999 0.01821476 0.8366474 0.01963448 0.8366474 0.9869507 0.4280875 0.9855111 0.2146317 0.9869506 0.2146315 0.9881209 0 0.9895604 0.213456 0.9881209 0.213456 0.03847122 0.8366474 0.03982341 0.9999999 0.03847122 0.9999999 0.02837693 0.8366474 0.02973073 0.9999999 0.02837693 0.9999999 0.9947804 0.2073495 0.9933407 0 0.9947804 0 0.9933407 0.6255747 0.9947804 0.8329242 0.9933407 0.8329241 0.0156247 0.8366474 0.01704454 0.9999999 0.0156247 0.9999999 0.9895603 0.6438943 0.9881207 0.8573503 0.9881207 0.6438944 0.037301 0.9999999 0.03594881 0.8366473 0.037301 0.8366473 0.01043629 0.8366473 0.01186025 0.9999999 0.01043629 0.9999999 0.9933409 0.6243994 0.9947806 0.4170499 0.9947806 0.6243994 0.9985604 0 1 0.2073495 0.9985604 0.2073495 0.06350374 0.9999999 0.06244361 0.8366473 0.06350374 0.8366473 0.9855111 0 0.9869507 0.213456 0.9855111 0.213456 0.01445442 0.9999999 0.01303052 0.8366474 0.01445442 0.8366474 1 0.208525 0.9985604 0.4158744 0.9985605 0.2085249 0.06021332 0.8366474 0.06127339 0.9999999 0.06021332 0.9999999 0.006657063 0.9999999 0.005218267 0.8366473 0.006657063 0.8366473 0.9895604 0.4280874 0.9881208 0.2146314 0.9895603 0.2146313 0.9843408 0.6427186 0.9829012 0.6427189 0.9829012 0.4292628 0.04982614 0.9999999 0.0485174 0.9999999 0.0485174 0.8366474 0.9973902 0 0.9973902 0.2073496 0.9959506 0.2073496 0.05330067 0.8366474 0.05443471 0.8366474 0.05443471 0.9999999 0.007827281 0.8366474 0.009266078 0.8366474 0.009266078 0.9999999 0.985511 0.4292628 0.9869506 0.4292628 0.9869506 0.6427189 0.9829012 0.8573502 0.9829012 0.6438944 0.9843408 0.6438944 0.0460385 0.8366474 0.04734718 0.8366474 0.04734718 0.9999999 0.02468276 0.9999999 0.02332895 0.9999999 0.02332895 0.8366474 0.9959506 0.6255749 0.9973902 0.6255749 0.9973902 0.8329244 0.0590431 0.9999999 0.05790913 0.9999999 0.05790913 0.8366474 0.9973901 0.4158747 0.9959505 0.4158747 0.9959505 0.208525 0.001438915 0.9999999 0 0.9999999 0 0.8366473 0.9869506 0.8573503 0.985511 0.8573503 0.985511 0.6438943 0.9843408 0.2134561 0.9829012 0.213456 0.982901 1.92559e-7 0.04486823 1 0.04351609 1 0.04351609 0.8366474 0.03342491 0.8366474 0.03477859 0.8366474 0.03477859 0.9999999 0.9907308 0.4170497 0.9921705 0.4170497 0.9921705 0.6243993 0.9959506 0.6243996 0.9959507 0.41705 0.9973902 0.4170498 0.002609074 0.8366474 0.004047989 0.8366474 0.004047989 0.9999999 0.9907308 0.8340994 0.9921697 0.8340994 0.9921697 0.997452 0.9829013 0.4280875 0.9829012 0.2146314 0.9843409 0.2146315 0.04099369 0.8366474 0.04234588 0.8366474 0.04234588 1 0.1673476 0.6407182 0.1687873 0.6407181 0.1687873 0.8541741 0.03090095 0.8366474 0.03225469 0.8366474 0.03225469 0.9999999 0.9921705 0.6255747 0.9921705 0.8329242 0.9907308 0.8329242 0.9907306 3.22025e-7 0.9921704 0 0.9921702 0.2073495 0.05560493 0.8366474 0.05673891 0.8366474 0.05673891 0.9999999 0.9947789 0.997452 0.9933399 0.997452 0.9933399 0.8340995 0.9881209 0.6427188 0.9881209 0.4292628 0.9895604 0.429263 0.1661774 0.8541742 0.1647377 0.8541741 0.1647377 0.6407181 0.02215874 0.9999999 0.0208047 0.9999999 0.0208047 0.8366474 0.02720671 0.9999999 0.02585297 0.9999999 0.02585297 0.8366474 0.9921705 0.4158745 0.9907309 0.4158746 0.9907307 0.208525 0.05213052 0.9999999 0.05099636 0.9999999 0.05099636 0.8366474 0.9947804 0.4158744 0.9933408 0.4158744 0.9933407 0.2085249 0.01963448 0.9999999 0.01821476 0.9999999 0.01821476 0.8366474 0.9869507 0.4280875 0.9855111 0.4280875 0.9855111 0.2146317 0.9881209 0 0.9895604 0 0.9895604 0.213456 0.03847122 0.8366474 0.03982341 0.8366474 0.03982341 0.9999999 0.02837693 0.8366474 0.02973073 0.8366474 0.02973073 0.9999999 0.9947804 0.2073495 0.9933407 0.2073496 0.9933407 0 0.9933407 0.6255747 0.9947804 0.6255747 0.9947804 0.8329242 0.0156247 0.8366474 0.01704454 0.8366474 0.01704454 0.9999999 0.9895603 0.6438943 0.9895603 0.8573504 0.9881207 0.8573503 0.037301 0.9999999 0.03594881 0.9999999 0.03594881 0.8366473 0.01043629 0.8366473 0.01186025 0.8366473 0.01186025 0.9999999 0.9933409 0.6243994 0.9933409 0.4170498 0.9947806 0.4170499 0.9985604 0 0.9999999 0 1 0.2073495 0.06350374 0.9999999 0.06244361 0.9999999 0.06244361 0.8366473 0.9855111 0 0.9869506 0 0.9869507 0.213456 0.01445442 0.9999999 0.01303052 0.9999999 0.01303052 0.8366474 1 0.208525 1 0.4158744 0.9985604 0.4158744 0.06021332 0.8366474 0.06127339 0.8366474 0.06127339 0.9999999 0.006657063 0.9999999 0.005218267 0.9999999 0.005218267 0.8366473 0.9895604 0.4280874 0.9881207 0.4280874 0.9881208 0.2146314</float_array>
          <technique_common>
            <accessor source="#Cube_032-mesh-map-1-array" count="504" stride="2">
              <param name="S" type="float"/>
              <param name="T" type="float"/>
            </accessor>
          </technique_common>
        </source>
        <vertices id="Cube_032-mesh-vertices">
          <input semantic="POSITION" source="#Cube_032-mesh-positions"/>
        </vertices>
        <triangles material="hierva_choza_gaetuli-material" count="168">
          <input semantic="VERTEX" source="#Cube_032-mesh-vertices" offset="0"/>
          <input semantic="NORMAL" source="#Cube_032-mesh-normals" offset="1"/>
          <input semantic="TEXCOORD" source="#Cube_032-mesh-map-0" offset="2" set="0"/>
          <input semantic="TEXCOORD" source="#Cube_032-mesh-map-1" offset="2" set="1"/>
          <p>0 0 0 1 1 1 3 2 2 0 0 3 3 2 4 2 3 5 4 4 6 7 4 7 5 5 8 4 4 9 6 6 10 7 4 11 8 7 12 9 8 13 11 7 14 8 7 15 11 7 16 10 8 17 12 9 18 13 10 19 15 11 20 12 9 21 15 11 22 14 12 23 16 13 24 19 13 25 17 14 26 16 13 27 18 13 28 19 13 29 20 15 30 23 15 31 21 16 32 20 15 33 22 17 34 23 15 35 24 18 36 27 18 37 25 18 38 24 18 39 26 18 40 27 18 41 28 19 42 29 20 43 31 21 44 28 19 45 31 21 46 30 22 47 32 23 48 35 23 49 33 23 50 32 23 51 34 23 52 35 23 53 36 24 54 37 25 55 39 24 56 36 24 57 39 24 58 38 26 59 40 18 60 43 18 61 41 27 62 40 18 63 42 28 64 43 18 65 44 29 66 47 29 67 45 30 68 44 29 69 46 31 70 47 29 71 48 32 72 49 33 73 51 32 74 48 32 75 51 32 76 50 34 77 52 35 78 55 35 79 53 36 80 52 35 81 54 36 82 55 35 83 56 37 84 57 38 85 58 37 86 56 37 87 59 38 88 57 38 89 60 39 90 61 40 91 62 41 92 60 39 93 62 41 94 63 41 95 64 42 96 65 43 97 66 44 98 64 42 99 67 45 100 65 43 101 68 46 102 69 47 103 70 48 104 68 46 105 71 49 106 69 47 107 72 50 108 73 51 109 74 50 110 72 50 111 74 50 112 75 52 113 76 53 114 77 54 115 78 53 116 76 53 117 78 53 118 79 55 119 80 56 120 81 56 121 82 56 122 80 56 123 82 56 124 83 56 125 84 57 126 85 58 127 86 59 128 84 57 129 87 58 130 85 58 131 88 60 132 89 61 133 90 62 134 88 60 135 90 62 136 91 63 137 92 64 138 93 64 139 94 65 140 92 64 141 95 66 142 93 64 143 96 67 144 97 68 145 98 33 146 96 67 147 98 33 148 99 32 149 100 69 150 101 21 151 102 70 152 100 69 153 102 70 154 103 71 155 104 72 156 105 72 157 106 73 158 104 72 159 107 74 160 105 72 161 108 75 162 109 76 163 110 75 164 108 75 165 110 75 166 111 77 167 40 78 168 99 79 169 42 80 170 21 81 171 76 82 172 20 83 173 22 84 174 76 85 175 79 86 176 0 87 177 58 88 178 1 89 179 42 90 180 98 90 181 43 90 182 2 91 183 56 92 184 0 93 185 41 94 186 98 95 187 97 96 188 22 97 189 78 98 190 23 99 191 45 100 192 100 101 193 44 102 194 23 103 195 77 104 196 21 105 197 3 106 198 59 107 199 2 107 200 44 108 201 103 109 202 46 110 203 25 111 204 80 112 205 24 113 206 1 114 207 57 115 208 3 116 209 24 117 210 83 118 211 26 119 212 5 120 213 60 121 214 4 122 215 46 123 216 102 124 217 47 124 218 4 125 219 63 126 220 6 127 221 45 128 222 102 129 223 101 96 224 26 130 225 82 131 226 27 132 227 48 133 228 106 134 229 49 135 230 25 136 231 82 137 232 81 96 233 6 138 234 62 139 235 7 140 236 50 141 237 104 142 238 48 143 239 28 144 240 86 145 241 29 146 242 5 147 243 62 148 244 61 96 245 30 149 246 84 150 247 28 151 248 8 152 249 66 153 250 9 154 251 51 155 252 107 156 253 50 157 254 8 158 255 67 159 256 64 160 257 49 161 258 105 162 259 51 163 260 31 164 261 87 165 262 30 166 263 53 167 264 108 168 265 52 169 266 29 170 267 85 171 268 31 172 269 11 173 270 67 174 271 10 175 272 52 176 273 111 177 274 54 178 275 33 179 276 88 180 277 32 181 278 9 182 279 65 183 280 11 184 281 32 185 282 91 186 283 34 187 284 12 188 285 70 189 286 13 190 287 54 191 288 110 192 289 55 193 290 14 194 291 68 195 292 12 196 293 55 197 294 109 198 295 53 199 296 34 200 297 90 200 298 35 201 299 33 202 300 90 203 301 89 204 302 15 205 303 71 205 304 14 206 305 36 207 306 94 208 307 37 209 308 15 210 309 70 211 310 69 96 311 38 212 312 92 213 313 36 214 314 17 215 315 72 216 316 16 217 317 16 218 318 75 219 319 18 220 320 39 221 321 95 222 322 38 222 323 39 223 324 94 224 325 93 96 326 18 225 327 74 226 328 19 227 329 41 228 330 96 229 331 40 230 332 19 231 333 73 232 334 17 233 335 40 78 336 96 160 337 99 79 338 21 81 339 77 234 340 76 82 341 22 84 342 20 235 343 76 85 344 0 87 345 56 236 346 58 88 347 42 90 348 99 90 349 98 90 350 2 91 351 59 160 352 56 92 353 41 94 354 43 237 355 98 95 356 22 97 357 79 238 358 78 98 359 45 100 360 101 146 361 100 101 362 23 103 363 78 96 364 77 104 365 3 106 366 57 239 367 59 107 368 44 108 369 100 160 370 103 109 371 25 111 372 81 240 373 80 112 374 1 114 375 58 241 376 57 115 377 24 117 378 80 160 379 83 118 380 5 120 381 61 242 382 60 121 383 46 123 384 103 243 385 102 124 386 4 125 387 60 160 388 63 126 389 45 128 390 47 244 391 102 129 392 26 130 393 83 157 394 82 131 395 48 133 396 104 133 397 106 134 398 25 136 399 27 245 400 82 137 401 6 138 402 63 246 403 62 139 404 50 141 405 107 160 406 104 142 407 28 144 408 84 247 409 86 145 410 5 147 411 7 248 412 62 148 413 30 149 414 87 160 415 84 150 416 8 152 417 64 249 418 66 153 419 51 155 420 105 250 421 107 156 422 8 158 423 10 251 424 67 159 425 49 161 426 106 96 427 105 162 428 31 164 429 85 252 430 87 165 431 53 167 432 109 253 433 108 168 434 29 170 435 86 96 436 85 171 437 11 173 438 65 254 439 67 174 440 52 176 441 108 160 442 111 177 443 33 179 444 89 255 445 88 180 446 9 182 447 66 256 448 65 183 449 32 185 450 88 257 451 91 186 452 12 188 453 68 188 454 70 189 455 54 191 456 111 258 457 110 192 458 14 194 459 71 160 460 68 195 461 55 197 462 110 96 463 109 198 464 34 200 465 91 201 466 90 200 467 33 202 468 35 259 469 90 203 470 15 205 471 69 206 472 71 205 473 36 207 474 92 208 475 94 208 476 15 210 477 13 260 478 70 211 479 38 212 480 95 160 481 92 213 482 17 215 483 73 261 484 72 216 485 16 218 486 72 160 487 75 219 488 39 221 489 93 262 490 95 222 491 39 223 492 37 263 493 94 224 494 18 225 495 75 225 496 74 226 497 41 228 498 97 264 499 96 229 500 19 231 501 74 96 502 73 232 503</p>
        </triangles>
      </mesh>
    </geometry>
  </library_geometries>
  <library_visual_scenes>
    <visual_scene id="Scene" name="Scene">
      <node id="market_f" name="market_f" type="NODE">
        <matrix sid="transform">1 0 0 0 0 1 0 0 0 0 1 0 0 0 0 1</matrix>
        <instance_geometry url="#Cube_032-mesh" name="market_f">
          <bind_material>
            <technique_common>
              <instance_material symbol="hierva_choza_gaetuli-material" target="#hierva_choza_gaetuli-material">
                <bind_vertex_input semantic="Cube_032-mesh-map-0" input_semantic="TEXCOORD" input_set="0"/>
                <bind_vertex_input semantic="Cube_032-mesh-map-1" input_semantic="TEXCOORD" input_set="1"/>
              </instance_material>
            </technique_common>
          </bind_material>
        </instance_geometry>
        <node id="prop_garrisoned" name="prop_garrisoned" type="NODE">
          <matrix sid="transform">-0.7829416 1.18221e-7 0 5.35037e-14 -1.18221e-7 -0.7829416 0 5.033843 0 0 0.7829416 9.013988 0 0 0 1</matrix>
        </node>
        <node id="prop_projectile" name="prop_projectile" type="NODE">
          <matrix sid="transform">-0.7829416 1.18221e-7 0 5.35037e-14 -1.18221e-7 -0.7829416 0 5.033842 0 0 0.7829416 9.013988 0 0 0 1</matrix>
        </node>
      </node>
    </visual_scene>
  </library_visual_scenes>
  <scene>
    <instance_visual_scene url="#Scene"/>
  </scene>
</COLLADA>