<?xml version="1.0" encoding="utf-8"?>
<COLLADA xmlns="http://www.collada.org/2005/11/COLLADASchema" version="1.4.1" xmlns:xsi="http://www.w3.org/2001/XMLSchema-instance">
  <asset>
    <contributor>
      <author>Blender User</author>
      <authoring_tool>Blender 4.3.1 commit date:2024-12-10, commit time:07:46, hash:33d812126174</authoring_tool>
    </contributor>
    <created>2026-08-22T20:14:35</created>
    <modified>2026-08-22T20:14:35</modified>
    <unit name="meter" meter="1"/>
    <up_axis>Z_UP</up_axis>
  </asset>
  <library_effects>
    <effect id="hierva_choza_gaetuli-effect">
      <profile_COMMON>
        <technique sid="common">
          <lambert>
            <emission>
              <color sid="emission">0 0 0 1</color>
            </emission>
            <diffuse>
              <color sid="diffuse">0.8 0.8 0.8 1</color>
            </diffuse>
            <index_of_refraction>
              <float sid="ior">1.45</float>
            </index_of_refraction>
          </lambert>
        </technique>
      </profile_COMMON>
    </effect>
  </library_effects>
  <library_images/>
  <library_materials>
    <material id="hierva_choza_gaetuli-material" name="hierva choza gaetuli">
      <instance_effect url="#hierva_choza_gaetuli-effect"/>
    </material>
  </library_materials>
  <library_geometries>
    <geometry id="Cube_034-mesh" name="Cube.034">
      <mesh>
        <source id="Cube_034-mesh-positions">
          <float_array id="Cube_034-mesh-positions-array" count="384">-6.379746 8.586675 3.902888 -6.379746 8.586675 0.4004871 -10.24559 6.136974 3.902888 -10.24559 6.136974 0.4004871 -10.106 8.786479 3.902889 -10.106 8.786479 0.4004871 -6.684614 5.947704 3.902889 -6.684614 5.947704 0.4004871 4.527584 -6.614448 3.902888 4.527584 -6.614448 0.4004871 0.6617392 -9.064147 3.902888 0.6617392 -9.064147 0.4004871 0.8013297 -6.414643 3.902888 0.8013297 -6.414643 0.4004871 4.222716 -9.253418 3.902888 4.222716 -9.253418 0.4004871 -8.659665 -0.3435385 3.902888 -8.659665 -0.3435385 0.4004871 -11.21064 3.456238 3.902888 -11.21064 3.456238 0.4004871 -8.558374 3.386693 3.902888 -8.558374 3.386693 0.4004871 -11.30577 -0.1084973 3.902888 -11.30577 -0.1084973 0.4004871 -2.125141 -11.1063 3.902888 -2.125141 -11.1063 0.4004871 -4.67612 -7.306524 3.902888 -4.67612 -7.306524 0.4004871 -2.02385 -7.376069 3.902888 -2.02385 -7.376069 0.4004871 -4.771245 -10.87126 3.902888 -4.771245 -10.87126 0.4004871 6.791849 11.35425 3.902888 6.791849 11.35425 0.4004871 2.926002 8.904546 3.902888 2.926002 8.904546 0.4004871 3.065595 11.55405 3.902888 3.065595 11.55405 0.4004871 6.48698 8.715278 3.902888 6.48698 8.715278 0.4004871 13.25424 -1.28275 3.902888 13.25424 -1.28275 0.4004871 10.70326 2.517026 3.902888 10.70326 2.517026 0.4004871 13.35553 2.447481 3.902888 13.35553 2.447481 0.4004871 10.60813 -1.047708 3.902888 10.60813 -1.047708 0.4004871 3.502217 6.938815 3.902888 3.502217 6.938815 0.4004871 0.9512386 10.73859 3.902888 0.9512386 10.73859 0.4004871 3.603507 10.66905 3.902888 3.603507 10.66905 0.4004871 0.856113 7.173856 3.902888 0.856113 7.173856 0.4004871 7.05746 0.7952247 3.902888 7.05746 0.7952247 0.4004874 7.658642 5.332224 3.902888 7.658642 5.332224 0.4004874 9.601408 3.525284 3.902888 9.601408 3.525284 0.4004874 5.228817 2.722181 3.902888 5.228817 2.722181 0.4004874 -6.363154 8.560489 3.902888 -10.229 6.110788 0.4004871 -6.363154 8.560489 0.4004871 -10.229 6.110788 3.902888 -10.12579 8.762622 3.902889 -10.12579 8.762622 0.4004871 -6.704409 5.923847 0.4004871 -6.704409 5.923847 3.902889 4.51099 -6.588262 3.902888 4.51099 -6.588262 0.4004871 0.6451462 -9.037962 0.4004871 0.6451462 -9.037962 3.902888 0.8211244 -6.390786 3.902888 4.242511 -9.229561 0.4004871 0.8211244 -6.390786 0.4004871 4.242511 -9.229561 3.902888 -8.633927 -0.3262594 3.902888 -8.633927 -0.3262594 0.4004871 -11.1849 3.473516 0.4004871 -11.1849 3.473516 3.902888 -8.582745 3.40585 3.902888 -8.582745 3.40585 0.4004871 -11.33014 -0.08933979 0.4004871 -11.33014 -0.08933979 3.902888 -2.099404 -11.08902 3.902888 -2.099404 -11.08902 0.4004871 -4.650382 -7.289245 0.4004871 -4.650382 -7.289245 3.902888 -2.048222 -7.356911 3.902888 -2.048222 -7.356911 0.4004871 -4.795616 -10.8521 0.4004871 -4.795616 -10.8521 3.902888 6.775256 11.38043 3.902888 6.775256 11.38043 0.4004871 2.909409 8.930732 0.4004871 2.909409 8.930732 3.902888 3.0458 11.5302 3.902888 3.0458 11.5302 0.4004871 6.467185 8.69142 0.4004871 6.467185 8.69142 3.902888 13.2285 -1.30003 3.902888 10.67752 2.499747 0.4004871 13.2285 -1.30003 0.4004871 10.67752 2.499747 3.902888 13.33115 2.466639 3.902888 13.33115 2.466639 0.4004871 10.58376 -1.02855 0.4004871 10.58376 -1.02855 3.902888 3.476479 6.921535 3.902888 0.9255008 10.72131 0.4004871 3.476479 6.921535 0.4004871 0.9255008 10.72131 3.902888 3.579136 10.6882 3.902888 3.579136 10.6882 0.4004871 0.8317411 7.193013 0.4004871 0.8317411 7.193013 3.902888 7.026728 0.7992969 3.902888 7.62791 5.336297 0.4004874 7.026728 0.7992969 0.4004874 7.62791 5.336297 3.902888 9.595808 3.555773 3.902888 9.595808 3.555773 0.4004874 5.223217 2.752671 0.4004874 5.223217 2.752671 3.902888</float_array>
          <technique_common>
            <accessor source="#Cube_034-mesh-positions-array" count="128" stride="3">
              <param name="X" type="float"/>
              <param name="Y" type="float"/>
              <param name="Z" type="float"/>
            </accessor>
          </technique_common>
        </source>
        <source id="Cube_034-mesh-normals">
          <float_array id="Cube_034-mesh-normals-array" count="939">-0.5352599 0.8446874 0 -0.5352599 0.8446875 0 -0.53526 0.8446874 0 -0.53526 0.8446874 0 0.6385395 0.7695892 0 0.6385395 0.7695891 0 0.5352597 -0.8446877 0 0.5352596 -0.8446877 0 0.5352596 -0.8446877 0 -0.6385396 -0.769589 0 -0.6385396 -0.7695891 0 -0.6385396 -0.769589 0 -0.8302517 -0.5573887 0 -0.8302518 -0.5573887 0 -0.8302517 -0.5573888 0 -0.8302518 -0.5573886 0 0.7861899 -0.617985 0 0.7861899 -0.6179851 0 0.7861902 -0.6179848 0 0.7861897 -0.6179853 0 -0.8302514 -0.5573891 0 -0.8302514 -0.5573892 0 0.78619 -0.6179848 0 0.7861901 -0.6179849 0 0.7861901 -0.6179848 0 0.78619 -0.6179849 0 0.5352602 -0.8446873 0 0.5352601 -0.8446873 0 0.5352602 -0.8446872 0 0.5352601 -0.8446874 0 0.6385392 0.7695893 0 0.6385392 0.7695893 0 0.8302513 0.5573893 0 0.8302514 0.5573893 0 0.7861894 -0.6179857 0 0.7861893 -0.6179857 0 0.7861894 -0.6179857 0 0.8302514 0.5573892 0 0.8302514 0.5573891 0 0.8302513 0.5573892 0 0.7861906 -0.6179843 0 0.7861905 -0.6179843 0 0.7861905 -0.6179843 0 0.991335 -0.1313583 0 0.991335 -0.1313583 0 0.1806458 -0.9835482 0 0.1806458 -0.9835482 0 0.1806458 -0.9835483 0 0.1806458 -0.9835483 0 0.5352598 -0.8446875 0 -0.63854 -0.7695886 0 -0.63854 -0.7695887 0 -0.6385402 -0.7695886 0 -0.6385402 -0.7695885 0 -0.5352598 0.8446875 0 -0.5352599 0.8446875 0 0.6385395 0.7695891 0 0.8302521 0.5573882 0 0.8302522 0.5573881 0 0.830252 0.5573883 0 0.8302519 0.5573884 0 -0.7861899 0.617985 0 -0.7861901 0.6179849 0 -0.7861899 0.617985 0 -0.7861899 0.6179851 0 0.8302514 0.5573891 0 0.8302515 0.5573891 0 -0.78619 0.6179849 0 -0.7861902 0.6179848 0 -0.5352591 0.844688 0 -0.5352591 0.8446879 0 -0.5352591 0.8446879 0 -0.5352591 0.8446881 0 -0.6385404 -0.7695885 0 -0.6385403 -0.7695884 0 -0.8302513 -0.5573892 0 -0.8302515 -0.5573892 0 -0.7861905 0.6179843 0 -0.7861903 0.6179845 0 -0.7861906 0.6179842 0 -0.7861898 0.6179851 0 -0.7861899 0.6179851 0 -0.7861899 0.6179852 0 -0.7861898 0.6179852 0 -0.991335 0.1313583 0 -0.991335 0.1313582 0 -0.991335 0.1313585 0 -0.991335 0.131358 0 -0.1806457 0.9835482 0 -0.1806456 0.9835483 0 -0.1313541 -0.9913355 0 -0.1313631 -0.9913343 0 -0.1313632 -0.9913343 0 -8.33811e-7 0 -1 6.76142e-7 0 -1 -8.4037e-7 0 -1 0.7695904 -0.6385378 0 0.7695734 -0.6385584 0 0.7695733 -0.6385585 0 -2.66934e-5 0 1 1.77137e-5 0 1 1.79073e-5 0 1 -0.7696088 0.6385158 1.33379e-4 -0.7693958 0.6387724 1.98518e-4 -0.7697877 0.6383001 0 1.72173e-6 0 -1 -1.26871e-7 0 -1 1.73001e-6 0 -1 -1.37517e-5 0 1 5.75249e-6 0 1 -1.38389e-5 0 1 0.5573855 -0.830254 0 0.5574015 -0.8302432 0 0.5574015 -0.8302432 0 0.1313889 0.9913309 0 0.1313889 0.9913309 0 0 0 1 8.05197e-6 0 1 8.08679e-6 0 1 0 0 -1 -2.45093e-7 0 -1 -2.46155e-7 0 -1 0.769603 -0.6385227 0 0.769586 -0.6385433 0 0.7695859 -0.6385434 0 0.9835444 0.1806665 0 0.9835445 0.1806665 0 0.9835445 0.1806665 0 0 0 -1 0 0 -1 0 0 -1 -0.5573114 0.8303037 0 -0.5573114 0.8303036 0 0 0 1 -2.15286e-7 0 1 -2.16246e-7 0 1 0.5573887 -0.8302518 0 0.5573566 -0.8302733 0 0.5573564 -0.8302733 0 -1.66879e-6 0 -1 9.993e-7 0 -1 1.0109e-6 0 -1 0 0 1 -1.19207e-5 0 1 -1.19722e-5 0 1 0.6179671 0.786204 0 0.6180009 0.7861774 0 0.6180011 0.7861773 0 -0.9835455 -0.1806607 0 -0.9835516 -0.1806272 0 -0.9835518 -0.1806271 0 0 0 1 -5.3823e-6 0 1 -5.40633e-6 0 1 0.844704 0.5352338 0 0.8447197 0.5352091 0 0.8447198 0.5352089 0 0 0 -1 2.69115e-7 0 -1 2.70314e-7 0 -1 -0.5573327 0.8302893 0 -0.5573648 0.8302677 0 -0.557365 0.8302676 0 -1.33574e-5 0 1 6.63482e-6 0 1 6.72177e-6 0 1 0 0 -1 1.013e-6 0 -1 0 0 -1 -0.6179955 -0.7861816 0 -0.6180294 -0.786155 0 -0.6180297 -0.7861549 0 0.6178712 0.7862794 0 0.6178712 0.7862794 0 0 0 -1 -3.4985e-7 0 -1 -0.8447357 -0.5351838 0 -0.8447357 -0.5351839 0 -0.8447356 -0.5351839 0 1.37702e-5 0 1 -1.87581e-6 0 1 1.38401e-5 0 1 0.5574175 -0.8302323 0 0.5574175 -0.8302325 0 0.5574175 -0.8302324 0 0 0 -1 1.56862e-7 0 -1 0 0 1 7.63427e-6 0 1 0 0 1 -0.7696944 0.6384127 -1.43814e-4 -0.7695836 0.6385461 -8.0027e-5 -0.7696598 0.6384544 0 -0.6180394 -0.7861472 0 -0.6180056 -0.7861738 0 -0.6180054 -0.7861739 0 0 0 1 9.25856e-6 0 1 0 0 -1 4.84291e-7 0 -1 4.86448e-7 0 -1 -0.557376 0.8302602 0 -0.5573922 0.8302494 0 -0.5573923 0.8302493 0 0.5574159 -0.8302334 0 0.5574079 -0.8302388 0 0.5574079 -0.8302389 0 0 0 -1 6.79764e-7 0 -1 6.82704e-7 0 -1 0.7695672 -0.6385658 0 0.7695844 -0.6385452 0 0.7695845 -0.6385451 0 1.33525e-5 0 1 -7.57594e-6 0 1 1.34434e-5 0 1 0.6179902 0.7861858 0 0.6179901 0.7861859 0 -1.71989e-6 0 -1 5.44067e-7 0 -1 5.54205e-7 0 -1 1.37734e-5 0 1 -1.01494e-6 0 1 -1.08116e-6 0 1 0.8446722 0.535284 0 0.84468 0.5352717 0 0.84468 0.5352716 0 -0.5574013 0.8302432 0 -0.5574012 0.8302432 0 1.33576e-5 0 1 -6.63453e-6 0 1 1.34445e-5 0 1 0 0 -1 -6.79738e-7 0 -1 -6.82685e-7 0 -1 -0.6180675 -0.7861251 0 -0.6180506 -0.7861384 0 -0.6180505 -0.7861384 0 0.6178604 0.786288 0 0.6178604 0.7862879 0 1.71823e-6 0 -1 -8.87091e-7 0 -1 -8.98744e-7 0 -1 -0.8446851 -0.5352635 0 -0.8446851 -0.5352635 0 0 0 1 3.01401e-6 0 1 3.02745e-6 0 1 0.8446422 0.5353316 0 0.8446264 0.5353562 0 0.8446263 0.5353564 0 0 0 -1 -6.79715e-7 0 -1 -6.82662e-7 0 -1 0 0 1 6.69307e-6 0 1 6.72206e-6 0 1 -0.7695822 0.6385478 0 -0.7695801 0.6385505 0 -0.6179829 -0.7861917 0 -0.6179807 -0.7861933 0 -0.6179807 -0.7861934 0 -1.37359e-5 0 1 9.51854e-6 0 1 9.62268e-6 0 1 0 0 -1 7.73794e-7 0 -1 7.77235e-7 0 -1 -0.8446959 -0.5352465 0 -0.131354 -0.9913355 0 6.82709e-7 0 -1 0.7695906 -0.6385377 0 -2.68867e-5 0 1 -0.7694816 0.638669 0 -1.3515e-7 0 -1 5.83974e-6 0 1 0.5573853 -0.830254 0 0.7696031 -0.6385226 0 0.5573889 -0.8302516 0 -1.68038e-6 0 -1 0.6179669 0.7862042 0 -0.9835456 -0.180661 0 0.8447039 0.535234 0 -0.5573325 0.8302894 0 -1.34445e-5 0 1 1.01738e-6 0 -1 -0.6179954 -0.7861818 0 0.6178712 0.7862793 0 -3.51411e-7 0 -1 -0.8447356 -0.5351838 0 -1.94579e-6 0 1 0.5574176 -0.8302324 0 1.57541e-7 0 -1 7.66729e-6 0 1 -0.7694801 0.6386709 0 -0.6180396 -0.7861471 0 9.29983e-6 0 1 -0.557376 0.8302603 0 0.557416 -0.8302335 0 0.7695671 -0.638566 0 -7.66708e-6 0 1 0.6179902 0.7861859 0 -1.73001e-6 0 -1 1.38397e-5 0 1 0.8446722 0.5352841 0 -0.5574013 0.8302433 0 -6.72159e-6 0 1 -0.6180676 -0.7861251 0 1.72991e-6 0 -1 -0.8446852 -0.5352636 0 0.8446422 0.5353314 0 -0.6179829 -0.7861917 0 -1.38401e-5 0 1</float_array>
          <technique_common>
            <accessor source="#Cube_034-mesh-normals-array" count="313" stride="3">
              <param name="X" type="float"/>
              <param name="Y" type="float"/>
              <param name="Z" type="float"/>
            </accessor>
          </technique_common>
        </source>
        <source id="Cube_034-mesh-map-0">
          <float_array id="Cube_034-mesh-map-0-array" count="1152">0.9984335 0.6838312 1.000765 0.001214206 0.001161634 6.92369e-4 0.9984335 0.6838312 0.001161634 6.92369e-4 5.39125e-4 0.6833093 0.9984335 0.6838312 0.001161634 6.92369e-4 1.000765 0.001214206 0.9984335 0.6838312 5.39125e-4 0.6833093 0.001161634 6.92369e-4 0.9984335 0.6838312 0.001161634 6.92369e-4 1.000765 0.001214206 0.9984335 0.6838312 5.39125e-4 0.6833093 0.001161634 6.92369e-4 0.9984335 0.6838312 1.000765 0.001214206 0.001161634 6.92369e-4 0.9984335 0.6838312 0.001161634 6.92369e-4 5.39125e-4 0.6833093 0.9984335 0.6838312 0.001161634 6.92369e-4 1.000765 0.001214206 0.9984335 0.6838312 5.39125e-4 0.6833093 0.001161634 6.92369e-4 0.9984335 0.6838312 0.001161634 6.92369e-4 1.000765 0.001214206 0.9984335 0.6838312 5.39125e-4 0.6833093 0.001161634 6.92369e-4 0.9984335 0.6838312 0.001161634 6.92369e-4 1.000765 0.001214206 0.9984335 0.6838312 5.39125e-4 0.6833093 0.001161634 6.92369e-4 0.9984335 0.6838312 0.001161634 6.92369e-4 1.000765 0.001214206 0.9984335 0.6838312 5.39125e-4 0.6833093 0.001161634 6.92369e-4 0.9984335 0.6838312 0.001161634 6.92369e-4 1.000765 0.001214206 0.9984335 0.6838312 5.39125e-4 0.6833093 0.001161634 6.92369e-4 0.9984335 0.6838312 0.001161634 6.92369e-4 1.000765 0.001214206 0.9984335 0.6838312 5.39125e-4 0.6833093 0.001161634 6.92369e-4 0.9984335 0.6838312 1.000765 0.001214206 0.001161634 6.92369e-4 0.9984335 0.6838312 0.001161634 6.92369e-4 5.39125e-4 0.6833093 0.9984335 0.6838312 0.001161634 6.92369e-4 1.000765 0.001214206 0.9984335 0.6838312 5.39125e-4 0.6833093 0.001161634 6.92369e-4 0.9984335 0.6838312 1.000765 0.001214206 0.001161634 6.92369e-4 0.9984335 0.6838312 0.001161634 6.92369e-4 5.39125e-4 0.6833093 0.9984335 0.6838312 0.001161634 6.92369e-4 1.000765 0.001214206 0.9984335 0.6838312 5.39125e-4 0.6833093 0.001161634 6.92369e-4 0.9984335 0.6838312 1.000765 0.001214206 0.001161634 6.92369e-4 0.9984335 0.6838312 0.001161634 6.92369e-4 5.39125e-4 0.6833093 0.9984335 0.6838312 0.001161634 6.92369e-4 1.000765 0.001214206 0.9984335 0.6838312 5.39125e-4 0.6833093 0.001161634 6.92369e-4 0.9984335 0.6838312 0.001161634 6.92369e-4 1.000765 0.001214206 0.9984335 0.6838312 5.39125e-4 0.6833093 0.001161634 6.92369e-4 0.9984335 0.6838312 1.000765 0.001214206 0.001161634 6.92369e-4 0.9984335 0.6838312 0.001161634 6.92369e-4 5.39125e-4 0.6833093 0.9984335 0.6838312 1.000765 0.001214206 0.001161634 6.92369e-4 0.9984335 0.6838312 0.001161634 6.92369e-4 5.39125e-4 0.6833093 0.9984335 0.6838312 0.001161634 6.92369e-4 1.000765 0.001214206 0.9984335 0.6838312 5.39125e-4 0.6833093 0.001161634 6.92369e-4 0.9984335 0.6838312 1.000765 0.001214206 0.001161634 6.92369e-4 0.9984335 0.6838312 0.001161634 6.92369e-4 5.39125e-4 0.6833093 0.9984335 0.6838312 1.000765 0.001214206 0.001161634 6.92369e-4 0.9984335 0.6838312 0.001161634 6.92369e-4 5.39125e-4 0.6833093 0.9984335 0.6838312 1.000765 0.001214206 0.001161634 6.92369e-4 0.9984335 0.6838312 0.001161634 6.92369e-4 5.39125e-4 0.6833093 0.9984335 0.6838312 1.000765 0.001214206 0.001161634 6.92369e-4 0.9984335 0.6838312 0.001161634 6.92369e-4 5.39125e-4 0.6833093 0.9984335 0.6838312 1.000765 0.001214206 0.001161634 6.92369e-4 0.9984335 0.6838312 0.001161634 6.92369e-4 5.39125e-4 0.6833093 0.9984335 0.6838312 1.000765 0.001214206 0.001161634 6.92369e-4 0.9984335 0.6838312 0.001161634 6.92369e-4 5.39125e-4 0.6833093 0.9984335 0.6838312 0.001161634 6.92369e-4 1.000765 0.001214206 0.9984335 0.6838312 5.39125e-4 0.6833093 0.001161634 6.92369e-4 0.9984335 0.6838312 1.000765 0.001214206 0.001161634 6.92369e-4 0.9984335 0.6838312 0.001161634 6.92369e-4 5.39125e-4 0.6833093 0.9984335 0.6838312 0.001161634 6.92369e-4 1.000765 0.001214206 0.9984335 0.6838312 5.39125e-4 0.6833093 0.001161634 6.92369e-4 0.9984335 0.6838312 1.000765 0.001214206 0.001161634 6.92369e-4 0.9984335 0.6838312 0.001161634 6.92369e-4 5.39125e-4 0.6833093 0.9984335 0.6838312 0.001161634 6.92369e-4 1.000765 0.001214206 0.9984335 0.6838312 5.39125e-4 0.6833093 0.001161634 6.92369e-4 0.9984335 0.6838312 1.000765 0.001214206 0.001161634 6.92369e-4 0.9984335 0.6838312 0.001161634 6.92369e-4 5.39125e-4 0.6833093 0.9984335 0.6838312 1.000765 0.001214206 1.000765 0.001214206 1.000765 0.001214206 0.001161634 6.92369e-4 1.000765 0.001214206 0.001161634 6.92369e-4 5.39125e-4 0.6833093 5.39125e-4 0.6833093 5.39125e-4 0.6833093 0.9984335 0.6838312 0.9984335 0.6838312 1.000765 0.001214206 0.9984335 0.6838312 0.9984335 0.6838312 0.001161634 6.92369e-4 1.000765 0.001214206 0.001161634 6.92369e-4 5.39125e-4 0.6833093 0.9984335 0.6838312 5.39125e-4 0.6833093 1.000765 0.001214206 0.9984335 0.6838312 0.9984335 0.6838312 0.001161634 6.92369e-4 5.39125e-4 0.6833093 5.39125e-4 0.6833093 0.9984335 0.6838312 5.39125e-4 0.6833093 5.39125e-4 0.6833093 1.000765 0.001214206 0.001161634 6.92369e-4 0.001161634 6.92369e-4 5.39125e-4 0.6833093 0.001161634 6.92369e-4 0.001161634 6.92369e-4 1.000765 0.001214206 0.9984335 0.6838312 0.9984335 0.6838312 0.001161634 6.92369e-4 1.000765 0.001214206 1.000765 0.001214206 5.39125e-4 0.6833093 0.001161634 6.92369e-4 0.001161634 6.92369e-4 0.9984335 0.6838312 5.39125e-4 0.6833093 5.39125e-4 0.6833093 0.9984335 0.6838312 1.000765 0.001214206 1.000765 0.001214206 0.001161634 6.92369e-4 1.000765 0.001214206 1.000765 0.001214206 5.39125e-4 0.6833093 0.9984335 0.6838312 0.9984335 0.6838312 1.000765 0.001214206 0.9984335 0.6838312 0.9984335 0.6838312 5.39125e-4 0.6833093 0.001161634 6.92369e-4 0.001161634 6.92369e-4 0.9984335 0.6838312 5.39125e-4 0.6833093 5.39125e-4 0.6833093 0.9984335 0.6838312 1.000765 0.001214206 1.000765 0.001214206 0.001161634 6.92369e-4 1.000765 0.001214206 1.000765 0.001214206 0.001161634 6.92369e-4 5.39125e-4 0.6833093 5.39125e-4 0.6833093 5.39125e-4 0.6833093 0.9984335 0.6838312 0.9984335 0.6838312 0.001161634 6.92369e-4 1.000765 0.001214206 0.001161634 6.92369e-4 5.39125e-4 0.6833093 0.001161634 6.92369e-4 0.001161634 6.92369e-4 1.000765 0.001214206 0.9984335 0.6838312 0.9984335 0.6838312 1.000765 0.001214206 0.001161634 6.92369e-4 1.000765 0.001214206 0.001161634 6.92369e-4 5.39125e-4 0.6833093 5.39125e-4 0.6833093 5.39125e-4 0.6833093 0.9984335 0.6838312 5.39125e-4 0.6833093 1.000765 0.001214206 0.9984335 0.6838312 0.9984335 0.6838312 0.001161634 6.92369e-4 1.000765 0.001214206 0.001161634 6.92369e-4 5.39125e-4 0.6833093 0.9984335 0.6838312 5.39125e-4 0.6833093 1.000765 0.001214206 0.9984335 0.6838312 0.9984335 0.6838312 5.39125e-4 0.6833093 0.001161634 6.92369e-4 0.001161634 6.92369e-4 5.39125e-4 0.6833093 0.9984335 0.6838312 5.39125e-4 0.6833093 0.001161634 6.92369e-4 1.000765 0.001214206 1.000765 0.001214206 5.39125e-4 0.6833093 0.001161634 6.92369e-4 0.001161634 6.92369e-4 0.9984335 0.6838312 1.000765 0.001214206 1.000765 0.001214206 0.001161634 6.92369e-4 1.000765 0.001214206 1.000765 0.001214206 5.39125e-4 0.6833093 0.001161634 6.92369e-4 0.001161634 6.92369e-4 0.9984335 0.6838312 5.39125e-4 0.6833093 0.9984335 0.6838312 1.000765 0.001214206 0.9984335 0.6838312 0.9984335 0.6838312 0.001161634 6.92369e-4 1.000765 0.001214206 1.000765 0.001214206 0.9984335 0.6838312 5.39125e-4 0.6833093 5.39125e-4 0.6833093 1.000765 0.001214206 0.9984335 0.6838312 0.9984335 0.6838312 0.001161634 6.92369e-4 5.39125e-4 0.6833093 5.39125e-4 0.6833093 5.39125e-4 0.6833093 0.9984335 0.6838312 5.39125e-4 0.6833093 1.000765 0.001214206 0.001161634 6.92369e-4 0.001161634 6.92369e-4 5.39125e-4 0.6833093 0.001161634 6.92369e-4 0.001161634 6.92369e-4 1.000765 0.001214206 0.9984335 0.6838312 0.9984335 0.6838312 0.001161634 6.92369e-4 1.000765 0.001214206 1.000765 0.001214206 5.39125e-4 0.6833093 0.001161634 6.92369e-4 0.001161634 6.92369e-4 0.9984335 0.6838312 5.39125e-4 0.6833093 5.39125e-4 0.6833093 1.000765 0.001214206 0.9984335 0.6838312 0.9984335 0.6838312 0.001161634 6.92369e-4 1.000765 0.001214206 1.000765 0.001214206 0.9984335 0.6838312 5.39125e-4 0.6833093 5.39125e-4 0.6833093 0.9984335 0.6838312 1.000765 0.001214206 1.000765 0.001214206 5.39125e-4 0.6833093 0.001161634 6.92369e-4 0.001161634 6.92369e-4 5.39125e-4 0.6833093 0.9984335 0.6838312 0.9984335 0.6838312 0.001161634 6.92369e-4 1.000765 0.001214206 1.000765 0.001214206 5.39125e-4 0.6833093 0.001161634 6.92369e-4 0.001161634 6.92369e-4 0.9984335 0.6838312 0.9984335 0.6838312 1.000765 0.001214206 1.000765 0.001214206 0.001161634 6.92369e-4 0.001161634 6.92369e-4 0.001161634 6.92369e-4 0.001161634 6.92369e-4 5.39125e-4 0.6833093 5.39125e-4 0.6833093 5.39125e-4 0.6833093 0.9984335 0.6838312 1.000765 0.001214206 1.000765 0.001214206 0.9984335 0.6838312 0.001161634 6.92369e-4 1.000765 0.001214206 1.000765 0.001214206 5.39125e-4 0.6833093 0.9984335 0.6838312 0.9984335 0.6838312 1.000765 0.001214206 1.000765 0.001214206 0.9984335 0.6838312 0.001161634 6.92369e-4 0.001161634 6.92369e-4 5.39125e-4 0.6833093 0.9984335 0.6838312 0.9984335 0.6838312 5.39125e-4 0.6833093 1.000765 0.001214206 1.000765 0.001214206 0.001161634 6.92369e-4 5.39125e-4 0.6833093 5.39125e-4 0.6833093 0.001161634 6.92369e-4 1.000765 0.001214206 1.000765 0.001214206 0.9984335 0.6838312 0.001161634 6.92369e-4 0.001161634 6.92369e-4 1.000765 0.001214206 5.39125e-4 0.6833093 5.39125e-4 0.6833093 0.001161634 6.92369e-4 0.9984335 0.6838312 0.9984335 0.6838312 5.39125e-4 0.6833093 0.9984335 0.6838312 0.9984335 0.6838312 1.000765 0.001214206 0.001161634 6.92369e-4 0.001161634 6.92369e-4 1.000765 0.001214206 5.39125e-4 0.6833093 5.39125e-4 0.6833093 0.9984335 0.6838312 1.000765 0.001214206 1.000765 0.001214206 0.9984335 0.6838312 5.39125e-4 0.6833093 5.39125e-4 0.6833093 0.001161634 6.92369e-4 0.9984335 0.6838312 0.9984335 0.6838312 5.39125e-4 0.6833093 0.9984335 0.6838312 0.9984335 0.6838312 1.000765 0.001214206 0.001161634 6.92369e-4 0.001161634 6.92369e-4 1.000765 0.001214206 0.001161634 6.92369e-4 0.001161634 6.92369e-4 5.39125e-4 0.6833093 5.39125e-4 0.6833093 5.39125e-4 0.6833093 0.9984335 0.6838312 0.001161634 6.92369e-4 1.000765 0.001214206 1.000765 0.001214206 5.39125e-4 0.6833093 5.39125e-4 0.6833093 0.001161634 6.92369e-4 1.000765 0.001214206 1.000765 0.001214206 0.9984335 0.6838312 1.000765 0.001214206 0.001161634 6.92369e-4 0.001161634 6.92369e-4 0.001161634 6.92369e-4 0.001161634 6.92369e-4 5.39125e-4 0.6833093 5.39125e-4 0.6833093 0.9984335 0.6838312 0.9984335 0.6838312 1.000765 0.001214206 1.000765 0.001214206 0.9984335 0.6838312 0.001161634 6.92369e-4 1.000765 0.001214206 1.000765 0.001214206 5.39125e-4 0.6833093 0.9984335 0.6838312 0.9984335 0.6838312 1.000765 0.001214206 1.000765 0.001214206 0.9984335 0.6838312 5.39125e-4 0.6833093 5.39125e-4 0.6833093 0.001161634 6.92369e-4 5.39125e-4 0.6833093 0.9984335 0.6838312 0.9984335 0.6838312 0.001161634 6.92369e-4 0.001161634 6.92369e-4 1.000765 0.001214206 5.39125e-4 0.6833093 5.39125e-4 0.6833093 0.001161634 6.92369e-4 0.9984335 0.6838312 0.9984335 0.6838312 1.000765 0.001214206 0.001161634 6.92369e-4 0.001161634 6.92369e-4 1.000765 0.001214206 5.39125e-4 0.6833093 5.39125e-4 0.6833093 0.001161634 6.92369e-4 0.9984335 0.6838312 5.39125e-4 0.6833093 5.39125e-4 0.6833093 1.000765 0.001214206 1.000765 0.001214206 0.9984335 0.6838312 0.001161634 6.92369e-4 0.001161634 6.92369e-4 1.000765 0.001214206 0.9984335 0.6838312 0.9984335 0.6838312 5.39125e-4 0.6833093 1.000765 0.001214206 1.000765 0.001214206 0.9984335 0.6838312 0.001161634 6.92369e-4 0.001161634 6.92369e-4 5.39125e-4 0.6833093 5.39125e-4 0.6833093 0.9984335 0.6838312 0.9984335 0.6838312 1.000765 0.001214206 1.000765 0.001214206 0.001161634 6.92369e-4 5.39125e-4 0.6833093 5.39125e-4 0.6833093 0.001161634 6.92369e-4 1.000765 0.001214206 1.000765 0.001214206 0.9984335 0.6838312 0.001161634 6.92369e-4 0.001161634 6.92369e-4 1.000765 0.001214206 5.39125e-4 0.6833093 5.39125e-4 0.6833093 0.001161634 6.92369e-4 0.9984335 0.6838312 0.9984335 0.6838312 5.39125e-4 0.6833093 1.000765 0.001214206 1.000765 0.001214206 0.9984335 0.6838312 0.001161634 6.92369e-4 0.001161634 6.92369e-4 1.000765 0.001214206 0.9984335 0.6838312 0.9984335 0.6838312 5.39125e-4 0.6833093 0.9984335 0.6838312 0.9984335 0.6838312 1.000765 0.001214206 5.39125e-4 0.6833093 5.39125e-4 0.6833093 0.001161634 6.92369e-4 5.39125e-4 0.6833093 5.39125e-4 0.6833093 0.9984335 0.6838312 0.001161634 6.92369e-4 0.001161634 6.92369e-4 1.000765 0.001214206 5.39125e-4 0.6833093 5.39125e-4 0.6833093 0.001161634 6.92369e-4</float_array>
          <technique_common>
            <accessor source="#Cube_034-mesh-map-0-array" count="576" stride="2">
              <param name="S" type="float"/>
              <param name="T" type="float"/>
            </accessor>
          </technique_common>
        </source>
        <source id="Cube_034-mesh-map-1">
          <float_array id="Cube_034-mesh-map-1-array" count="1152">0.4311345 0 0.5736488 0 0.5736487 0.201709 0.4311345 0 0.5736487 0.201709 0.4311345 0.201709 0.5748461 0.601351 0.7173603 0.4066945 0.7173603 0.601351 0.5748461 0.601351 0.5748461 0.4066945 0.7173603 0.4066945 0.574846 0.4053853 0.7173602 0.2036765 0.7173602 0.4053853 0.574846 0.4053853 0.5748461 0.2036765 0.7173602 0.2036765 0 0.6110283 0.1425142 0.6110283 0.1425142 0.8056833 0 0.6110283 0.1425142 0.8056833 0 0.8056833 0 0.406044 0.1425142 0.2036765 0.1425142 0.406044 0 0.406044 0 0.2036765 0.1425142 0.2036765 0.7185577 0.6003599 0.8610719 0.4066945 0.8610719 0.6003599 0.7185577 0.6003599 0.7185577 0.4066945 0.8610719 0.4066945 0.1437115 0.2023675 0.2862257 0 0.2862257 0.2023675 0.1437115 0.2023675 0.1437115 0 0.2862257 0 0.7185577 0.7963254 0.8610719 0.60266 0.8610719 0.7963254 0.7185577 0.7963254 0.7185577 0.60266 0.8610719 0.60266 0.4311346 0.609061 0.5736488 0.4073519 0.5736488 0.609061 0.4311346 0.609061 0.4311346 0.4073519 0.5736488 0.4073519 0.287423 0.8050264 0.4299372 0.61037 0.4299372 0.8050264 0.287423 0.8050264 0.287423 0.61037 0.4299372 0.61037 0.287423 0 0.4299372 0 0.4299372 0.2023666 0.287423 0 0.4299372 0.2023666 0.287423 0.2023666 0.1437115 0.8046937 0.2862257 0.6110282 0.2862257 0.8046937 0.1437115 0.8046937 0.1437115 0.6110282 0.2862257 0.6110282 0 0.4073529 0.1425142 0.4073529 0.1425142 0.6097194 0 0.4073529 0.1425142 0.6097194 0 0.6097194 0.7185575 0.3896291 0.8610718 0.1959637 0.8610718 0.3896291 0.7185575 0.3896291 0.7185575 0.1959637 0.8610718 0.1959637 1 0 1 0.1557993 0.8622691 0.1557993 1 0 0.8622691 0.1557993 0.8622691 0 0 0.9787045 0.1425142 0.8069924 0.1425142 0.9787045 0 0.9787045 0 0.8069924 0.1425142 0.8069924 0.5748461 0.2017088 0.7173603 0 0.7173602 0.2017089 0.5748461 0.2017088 0.5748461 0 0.7173603 0 0.7185576 0 0.8610718 0 0.8610718 0.1946548 0.7185576 0 0.8610718 0.1946548 0.7185576 0.1946548 0.4311345 0.2036765 0.5736488 0.2036765 0.5736488 0.4053856 0.4311345 0.2036765 0.5736488 0.4053856 0.4311345 0.4053855 0.5748461 0.7973164 0.7173603 0.60266 0.7173603 0.7973164 0.5748461 0.7973164 0.5748462 0.60266 0.7173603 0.60266 0.1437115 0.4073529 0.2862257 0.4073529 0.2862257 0.6097193 0.1437115 0.4073529 0.2862257 0.6097193 0.1437115 0.6097193 0.7185577 0.7976343 0.8610719 0.7976343 0.8610719 0.9912992 0.7185577 0.7976343 0.8610719 0.9912992 0.7185577 0.9912992 0.287423 0.2036765 0.4299372 0.2036765 0.4299371 0.406043 0.287423 0.2036765 0.4299371 0.406043 0.287423 0.406043 0.574846 0.7986255 0.7173602 0.7986255 0.7173602 0.9922903 0.574846 0.7986255 0.7173602 0.9922903 0.574846 0.9922903 0.287423 0.407352 0.4299373 0.407352 0.4299372 0.6090611 0.287423 0.407352 0.4299372 0.6090611 0.287423 0.6090611 0.4311346 0.6103698 0.5736488 0.6103698 0.5736488 0.8050249 0.4311346 0.6103698 0.5736488 0.8050249 0.4311346 0.8050249 0 0.2023676 0.1425142 0 0.1425142 0.2023676 0 0.2023676 0 0 0.1425142 0 0.287423 0.8063354 0.4299372 0.8063354 0.4299371 1 0.287423 0.8063354 0.4299371 1 0.287423 1 0.1437115 0.406044 0.2862257 0.2036765 0.2862257 0.406044 0.1437115 0.406044 0.1437115 0.2036765 0.2862257 0.2036765 0.1437115 0.8060026 0.2862257 0.8060027 0.2862257 0.9996674 0.1437115 0.8060026 0.2862257 0.9996674 0.1437115 0.9996674 0.8622691 0.1571082 0.9999986 0.3129075 0.8622691 0.3129075 0.8622691 0.1571082 0.9999986 0.1571082 0.9999986 0.3129075 0.4311346 0.8063337 0.5736488 0.8063337 0.5736488 0.9780469 0.4311346 0.8063337 0.5736488 0.9780469 0.4311346 0.9780469 0.9134242 0.4713246 0.9143571 0.627124 0.9134242 0.627124 0.8721045 0.5178026 0.8733658 0.3142164 0.8733657 0.5178025 0.900358 0.4700157 0.8991163 0.3142164 0.900358 0.3142164 0.870907 0.9275925 0.8696456 0.7240065 0.870907 0.7240065 0.9052315 0.627124 0.9039902 0.4713246 0.9052315 0.4713246 0.8856598 0.3142164 0.8843984 0.5119785 0.8843984 0.3142164 0.8782832 0.5132874 0.877022 0.7110495 0.8770218 0.5132874 0.8930209 0.4700157 0.891767 0.3142164 0.8930209 0.3142164 0.9122268 0.627124 0.9112938 0.4713246 0.9122268 0.4713246 0.8671868 0.3142164 0.8684482 0.5178022 0.8671867 0.5178024 0.8647279 0.5191115 0.8659893 0.7226975 0.8647279 0.7226975 0.8991124 0.4713246 0.900354 0.627124 0.8991124 0.627124 0.9123835 0.8798059 0.9112883 0.7240067 0.9123835 0.7240067 0.8770219 0.7240066 0.8782833 0.9217687 0.8770222 0.9217684 0.8893157 0.3142164 0.8905696 0.4700157 0.8893157 0.4700157 0.8807421 0.9217686 0.8794808 0.7240067 0.8807422 0.7240067 0.886857 0.7240067 0.8881109 0.8798061 0.886857 0.8798061 0.8684483 0.7226974 0.8671867 0.5191113 0.8684481 0.5191113 0.8635306 0.7226975 0.8622691 0.5191115 0.8635306 0.5191114 0.9076585 0.8798061 0.9064232 0.7240067 0.9076585 0.7240067 0.9112922 0.3142164 0.9123874 0.4700157 0.9112922 0.4700157 0.8881184 0.5119786 0.886857 0.3142166 0.8881184 0.3142165 0.8966578 0.7240067 0.8979076 0.8798061 0.8966578 0.8798061 0.8819396 0.3142164 0.883201 0.5119784 0.8819396 0.5119784 0.8905622 0.8798061 0.8893083 0.7240067 0.8905622 0.7240067 0.8721044 0.5191118 0.8733658 0.7226978 0.8721044 0.7226979 0.8622692 0.5178025 0.8635307 0.3142164 0.8635306 0.5178025 0.9064289 0.4713246 0.9076641 0.627124 0.9064289 0.627124 0.9052297 0.4700157 0.9039942 0.3142164 0.9052297 0.3142164 0.886857 0.7110495 0.8881184 0.5132875 0.8881184 0.7110495 0.897919 0.4700157 0.8966693 0.3142164 0.897919 0.3142164 0.8758248 0.7240067 0.8745631 0.9217687 0.8745634 0.7240068 0.8930208 0.627124 0.8917669 0.4713246 0.8930208 0.4713246 0.8733657 0.7240068 0.8721043 0.9275927 0.8721044 0.7240067 0.8745631 0.5178025 0.8758245 0.3142165 0.8758245 0.5178025 0.9027932 0.8798061 0.9015518 0.7240067 0.9027932 0.7240067 0.9088558 0.7240067 0.9100911 0.8798061 0.9088558 0.8798061 0.8856597 0.5132875 0.8843985 0.7110493 0.8843984 0.5132875 0.8770219 0.3142165 0.8782836 0.5119785 0.8770219 0.5119786 0.8942182 0.3142164 0.8954719 0.4700157 0.8942182 0.4700157 0.8893158 0.4713246 0.8905697 0.627124 0.8893158 0.627124 0.8758245 0.7226976 0.8745631 0.5191116 0.8758245 0.5191116 0.9015513 0.4713246 0.9027929 0.627124 0.9015513 0.627124 0.8659894 0.7240067 0.864728 0.9275926 0.864728 0.7240066 0.9076623 0.4700157 0.906427 0.3142164 0.9076623 0.3142164 0.8843984 0.7240067 0.8856596 0.9217686 0.8843984 0.9217688 0.8807422 0.5119784 0.8794808 0.3142165 0.8807422 0.3142164 0.8954604 0.8798061 0.8942106 0.7240067 0.8954604 0.7240067 0.8930134 0.8798061 0.8917595 0.7240067 0.8930134 0.7240067 0.8635307 0.7240065 0.8622693 0.9275924 0.8622693 0.7240065 0.8671868 0.7240065 0.8684483 0.9275924 0.8671868 0.9275924 0.9039906 0.7240067 0.9052259 0.8798061 0.9039906 0.8798061 0.9100965 0.627124 0.9088614 0.4713246 0.9100965 0.4713246 0.8696455 0.5249353 0.870907 0.7226973 0.8696456 0.7226973 0.8966652 0.4713246 0.897915 0.627124 0.8966652 0.627124 0.8832009 0.7110496 0.8819395 0.5132874 0.8832009 0.5132874 0.9003545 0.8798061 0.8991049 0.7240067 0.9003545 0.7240067 0.864728 0.3142165 0.8659895 0.5178024 0.864728 0.5178025 0.8709071 0.5178026 0.8696457 0.3142164 0.8709071 0.3142164 0.9015553 0.3142164 0.9027969 0.4700157 0.9015553 0.4700157 0.9088596 0.3142164 0.9100949 0.4700157 0.9088596 0.4700157 0.8794808 0.5132874 0.8807423 0.7110494 0.8794809 0.7110494 0.8819396 0.7240067 0.8832011 0.9217685 0.8819398 0.9217687 0.8942182 0.4713246 0.8954679 0.627124 0.8942182 0.627124 0.9134242 0.4713246 0.9143571 0.4713246 0.9143571 0.627124 0.8721045 0.5178026 0.8721044 0.3142164 0.8733658 0.3142164 0.900358 0.4700157 0.8991163 0.4700157 0.8991163 0.3142164 0.870907 0.9275925 0.8696456 0.9275925 0.8696456 0.7240065 0.9052315 0.627124 0.9039902 0.627124 0.9039902 0.4713246 0.8856598 0.3142164 0.8856598 0.5119785 0.8843984 0.5119785 0.8782832 0.5132874 0.8782832 0.7110493 0.877022 0.7110495 0.8930209 0.4700157 0.891767 0.4700157 0.891767 0.3142164 0.9122268 0.627124 0.9112938 0.627124 0.9112938 0.4713246 0.8671868 0.3142164 0.8684482 0.3142164 0.8684482 0.5178022 0.8647279 0.5191115 0.8659893 0.5191115 0.8659893 0.7226975 0.8991124 0.4713246 0.900354 0.4713246 0.900354 0.627124 0.9123835 0.8798059 0.9112883 0.8798059 0.9112883 0.7240067 0.8770219 0.7240066 0.8782833 0.7240066 0.8782833 0.9217687 0.8893157 0.3142164 0.8905696 0.3142164 0.8905696 0.4700157 0.8807421 0.9217686 0.8794808 0.9217686 0.8794808 0.7240067 0.886857 0.7240067 0.8881109 0.7240067 0.8881109 0.8798061 0.8684483 0.7226974 0.8671867 0.7226973 0.8671867 0.5191113 0.8635306 0.7226975 0.8622692 0.7226975 0.8622691 0.5191115 0.9076585 0.8798061 0.9064232 0.8798061 0.9064232 0.7240067 0.9112922 0.3142164 0.9123874 0.3142164 0.9123874 0.4700157 0.8881184 0.5119786 0.886857 0.5119786 0.886857 0.3142166 0.8966578 0.7240067 0.8979076 0.7240067 0.8979076 0.8798061 0.8819396 0.3142164 0.883201 0.3142164 0.883201 0.5119784 0.8905622 0.8798061 0.8893083 0.8798061 0.8893083 0.7240067 0.8721044 0.5191118 0.8733658 0.5191117 0.8733658 0.7226978 0.8622692 0.5178025 0.8622692 0.3142164 0.8635307 0.3142164 0.9064289 0.4713246 0.9076641 0.4713246 0.9076641 0.627124 0.9052297 0.4700157 0.9039942 0.4700157 0.9039942 0.3142164 0.886857 0.7110495 0.886857 0.5132874 0.8881184 0.5132875 0.897919 0.4700157 0.8966693 0.4700157 0.8966693 0.3142164 0.8758248 0.7240067 0.8758248 0.9217689 0.8745631 0.9217687 0.8930208 0.627124 0.8917669 0.627124 0.8917669 0.4713246 0.8733657 0.7240068 0.8733657 0.9275928 0.8721043 0.9275927 0.8745631 0.5178025 0.8745631 0.3142165 0.8758245 0.3142165 0.9027932 0.8798061 0.9015518 0.8798061 0.9015518 0.7240067 0.9088558 0.7240067 0.9100911 0.7240067 0.9100911 0.8798061 0.8856597 0.5132875 0.8856598 0.7110495 0.8843985 0.7110493 0.8770219 0.3142165 0.8782833 0.3142166 0.8782836 0.5119785 0.8942182 0.3142164 0.8954719 0.3142164 0.8954719 0.4700157 0.8893158 0.4713246 0.8905697 0.4713246 0.8905697 0.627124 0.8758245 0.7226976 0.8745631 0.7226976 0.8745631 0.5191116 0.9015513 0.4713246 0.9027929 0.4713246 0.9027929 0.627124 0.8659894 0.7240067 0.8659894 0.9275926 0.864728 0.9275926 0.9076623 0.4700157 0.906427 0.4700157 0.906427 0.3142164 0.8843984 0.7240067 0.8856597 0.7240068 0.8856596 0.9217686 0.8807422 0.5119784 0.8794808 0.5119784 0.8794808 0.3142165 0.8954604 0.8798061 0.8942106 0.8798061 0.8942106 0.7240067 0.8930134 0.8798061 0.8917595 0.8798061 0.8917595 0.7240067 0.8635307 0.7240065 0.8635307 0.9275925 0.8622693 0.9275924 0.8671868 0.7240065 0.8684483 0.7240064 0.8684483 0.9275924 0.9039906 0.7240067 0.9052259 0.7240067 0.9052259 0.8798061 0.9100965 0.627124 0.9088614 0.627124 0.9088614 0.4713246 0.8696455 0.5249353 0.870907 0.5249354 0.870907 0.7226973 0.8966652 0.4713246 0.897915 0.4713246 0.897915 0.627124 0.8832009 0.7110496 0.8819397 0.7110494 0.8819395 0.5132874 0.9003545 0.8798061 0.8991049 0.8798061 0.8991049 0.7240067 0.864728 0.3142165 0.8659894 0.3142164 0.8659895 0.5178024 0.8709071 0.5178026 0.8696459 0.5178025 0.8696457 0.3142164 0.9015553 0.3142164 0.9027969 0.3142164 0.9027969 0.4700157 0.9088596 0.3142164 0.9100949 0.3142164 0.9100949 0.4700157 0.8794808 0.5132874 0.8807423 0.5132874 0.8807423 0.7110494 0.8819396 0.7240067 0.883201 0.7240066 0.8832011 0.9217685 0.8942182 0.4713246 0.8954679 0.4713246 0.8954679 0.627124</float_array>
          <technique_common>
            <accessor source="#Cube_034-mesh-map-1-array" count="576" stride="2">
              <param name="S" type="float"/>
              <param name="T" type="float"/>
            </accessor>
          </technique_common>
        </source>
        <vertices id="Cube_034-mesh-vertices">
          <input semantic="POSITION" source="#Cube_034-mesh-positions"/>
        </vertices>
        <triangles material="hierva_choza_gaetuli-material" count="192">
          <input semantic="VERTEX" source="#Cube_034-mesh-vertices" offset="0"/>
          <input semantic="NORMAL" source="#Cube_034-mesh-normals" offset="1"/>
          <input semantic="TEXCOORD" source="#Cube_034-mesh-map-0" offset="2" set="0"/>
          <input semantic="TEXCOORD" source="#Cube_034-mesh-map-1" offset="2" set="1"/>
          <p>0 0 0 1 1 1 3 2 2 0 0 3 3 2 4 2 3 5 4 4 6 7 4 7 5 5 8 4 4 9 6 4 10 7 4 11 8 6 12 11 7 13 9 8 14 8 6 15 10 7 16 11 7 17 12 9 18 13 10 19 15 9 20 12 9 21 15 9 22 14 11 23 16 12 24 19 13 25 17 14 26 16 12 27 18 15 28 19 13 29 20 16 30 23 17 31 21 18 32 20 16 33 22 19 34 23 17 35 24 20 36 27 20 37 25 21 38 24 20 39 26 20 40 27 20 41 28 22 42 31 23 43 29 24 44 28 22 45 30 25 46 31 23 47 32 26 48 35 27 49 33 28 50 32 26 51 34 29 52 35 27 53 36 30 54 39 30 55 37 31 56 36 30 57 38 31 58 39 30 59 40 32 60 41 33 61 43 32 62 40 32 63 43 32 64 42 32 65 44 34 66 47 35 67 45 36 68 44 34 69 46 34 70 47 35 71 48 37 72 49 38 73 51 39 74 48 37 75 51 39 76 50 32 77 52 40 78 55 40 79 53 41 80 52 40 81 54 42 82 55 40 83 56 43 84 57 44 85 59 43 86 56 43 87 59 43 88 58 44 89 60 45 90 63 46 91 61 47 92 60 45 93 62 48 94 63 46 95 64 49 96 65 49 97 66 49 98 64 49 99 67 49 100 65 49 101 68 50 102 69 51 103 70 52 104 68 50 105 70 52 106 71 53 107 72 54 108 73 55 109 74 54 110 72 54 111 74 54 112 75 55 113 76 56 114 77 56 115 78 4 116 76 56 117 79 5 118 77 56 119 80 57 120 81 58 121 82 59 122 80 57 123 82 59 124 83 60 125 84 61 126 85 62 127 86 63 128 84 61 129 86 63 130 87 64 131 88 65 132 89 66 133 90 65 134 88 65 135 90 65 136 91 66 137 92 67 138 93 61 139 94 62 140 92 67 141 94 62 142 95 68 143 96 69 144 97 70 145 98 71 146 96 69 147 98 71 148 99 72 149 100 73 150 101 74 151 102 73 152 100 73 153 102 73 154 103 74 155 104 21 156 105 21 157 106 75 158 104 21 159 107 76 160 105 21 161 108 77 162 109 78 163 110 77 164 108 77 165 110 77 166 111 79 167 112 21 168 113 21 169 114 76 170 112 21 171 115 75 172 113 21 173 116 80 174 117 81 175 118 82 176 116 80 177 118 82 178 119 83 179 120 84 180 121 85 181 122 86 182 120 84 183 123 87 184 121 85 185 124 88 186 125 88 187 126 88 188 124 88 189 126 88 190 127 89 191 56 90 192 122 91 193 57 92 194 33 93 195 98 94 196 97 95 197 15 96 198 79 97 199 14 98 200 58 99 201 120 100 202 56 101 203 37 102 204 100 103 205 36 104 206 15 105 207 78 106 208 77 107 209 38 108 210 100 109 211 103 110 212 17 111 213 80 112 214 16 113 215 59 114 216 123 115 217 58 115 218 16 116 219 83 117 220 18 118 221 57 119 222 121 120 223 59 121 224 38 122 225 102 123 226 39 124 227 61 125 228 124 126 229 60 127 230 39 128 231 101 129 232 37 130 233 18 131 234 82 132 235 19 132 236 60 133 237 127 134 238 62 135 239 40 136 240 106 137 241 41 138 242 19 139 243 81 140 244 17 141 245 42 142 246 104 143 247 40 144 248 21 145 249 84 146 250 20 147 251 62 148 252 126 149 253 63 150 254 20 151 255 87 152 256 22 153 257 0 154 258 66 155 259 1 156 260 63 157 261 125 158 262 61 159 263 43 160 264 107 161 265 42 162 266 2 163 267 64 164 268 0 165 269 43 166 270 106 167 271 105 168 272 22 169 273 86 170 274 23 171 275 45 172 276 108 172 277 44 173 278 21 174 279 86 175 280 85 168 281 3 176 282 67 177 283 2 178 284 46 179 285 108 180 286 111 181 287 25 182 288 88 183 289 24 184 290 3 185 291 66 186 292 65 168 293 26 187 294 88 188 295 91 189 296 5 190 297 68 191 298 4 192 299 46 193 300 110 194 301 47 195 302 6 196 303 68 197 304 71 189 305 47 198 306 109 199 307 45 200 308 26 201 309 90 202 310 27 203 311 48 204 312 114 205 313 49 206 314 27 207 315 89 208 316 25 209 317 6 210 318 70 211 319 7 212 320 48 213 321 115 214 322 112 215 323 29 216 324 92 217 325 28 217 326 7 218 327 69 219 328 5 220 329 28 221 330 95 222 331 30 223 332 9 224 333 72 225 334 8 226 335 51 227 336 115 228 337 50 228 338 10 229 339 72 230 340 75 231 341 49 232 342 113 233 343 51 234 344 30 235 345 94 236 346 31 237 347 53 238 348 116 238 349 52 239 350 31 240 351 93 241 352 29 242 353 10 243 354 74 243 355 11 244 356 52 245 357 119 246 358 54 247 359 33 248 360 96 249 361 32 250 362 11 251 363 73 252 364 9 253 365 32 254 366 99 255 367 34 256 368 12 257 369 78 258 370 13 258 371 54 259 372 118 260 373 55 261 374 14 262 375 76 263 376 12 264 377 55 265 378 117 266 379 53 267 380 34 268 381 98 268 382 35 268 383 56 90 384 120 269 385 122 91 386 33 93 387 35 270 388 98 94 389 15 96 390 77 271 391 79 97 392 58 99 393 123 272 394 120 100 395 37 102 396 101 273 397 100 103 398 15 105 399 13 274 400 78 106 401 38 108 402 36 275 403 100 109 404 17 111 405 81 276 406 80 112 407 59 114 408 121 114 409 123 115 410 16 116 411 80 189 412 83 117 413 57 119 414 122 168 415 121 120 416 38 122 417 103 277 418 102 123 419 61 125 420 125 125 421 124 126 422 39 128 423 102 168 424 101 129 425 18 131 426 83 131 427 82 132 428 60 133 429 124 189 430 127 134 431 40 136 432 104 278 433 106 137 434 19 139 435 82 279 436 81 140 437 42 142 438 107 189 439 104 143 440 21 145 441 85 280 442 84 146 443 62 148 444 127 281 445 126 149 446 20 151 447 84 189 448 87 152 449 0 154 450 64 282 451 66 155 452 63 157 453 126 168 454 125 158 455 43 160 456 105 283 457 107 161 458 2 163 459 67 284 460 64 164 461 43 166 462 41 285 463 106 167 464 22 169 465 87 286 466 86 170 467 45 172 468 109 287 469 108 172 470 21 174 471 23 288 472 86 175 473 3 176 474 65 289 475 67 177 476 46 179 477 44 290 478 108 180 479 25 182 480 89 291 481 88 183 482 3 185 483 1 292 484 66 186 485 26 187 486 24 293 487 88 188 488 5 190 489 69 294 490 68 191 491 46 193 492 111 295 493 110 194 494 6 196 495 4 296 496 68 197 497 47 198 498 110 168 499 109 199 500 26 201 501 91 297 502 90 202 503 48 204 504 112 298 505 114 205 506 27 207 507 90 168 508 89 208 509 6 210 510 71 299 511 70 211 512 48 213 513 50 300 514 115 214 515 29 216 516 93 301 517 92 217 518 7 218 519 70 302 520 69 219 521 28 221 522 92 303 523 95 222 524 9 224 525 73 304 526 72 225 527 51 227 528 113 305 529 115 228 530 10 229 531 8 306 532 72 230 533 49 232 534 114 168 535 113 233 536 30 235 537 95 307 538 94 236 539 53 238 540 117 239 541 116 238 542 31 240 543 94 308 544 93 241 545 10 243 546 75 309 547 74 243 548 52 245 549 116 189 550 119 246 551 33 248 552 97 310 553 96 249 554 11 251 555 74 168 556 73 252 557 32 254 558 96 189 559 99 255 560 12 257 561 76 257 562 78 258 563 54 259 564 119 311 565 118 260 566 14 262 567 79 312 568 76 263 569 55 265 570 118 168 571 117 266 572 34 268 573 99 268 574 98 268 575</p>
        </triangles>
      </mesh>
    </geometry>
  </library_geometries>
  <library_visual_scenes>
    <visual_scene id="Scene" name="Scene">
      <node id="oasis_f_2" name="oasis_f_2" type="NODE">
        <matrix sid="transform">1 0 0 0 0 1 0 0 0 0 1 0 0 0 0 1</matrix>
        <instance_geometry url="#Cube_034-mesh" name="oasis_f_2">
          <bind_material>
            <technique_common>
              <instance_material symbol="hierva_choza_gaetuli-material" target="#hierva_choza_gaetuli-material">
                <bind_vertex_input semantic="Cube_034-mesh-map-0" input_semantic="TEXCOORD" input_set="0"/>
                <bind_vertex_input semantic="Cube_034-mesh-map-1" input_semantic="TEXCOORD" input_set="1"/>
              </instance_material>
            </technique_common>
          </bind_material>
        </instance_geometry>
        <node id="prop_garrisoned" name="prop_garrisoned" type="NODE">
          <matrix sid="transform">-0.7829416 1.18221e-7 0 5.35037e-14 -1.18221e-7 -0.7829416 0 5.033843 0 0 0.7829416 9.013988 0 0 0 1</matrix>
        </node>
        <node id="prop_projectile" name="prop_projectile" type="NODE">
          <matrix sid="transform">-0.7829416 1.18221e-7 0 5.35037e-14 -1.18221e-7 -0.7829416 0 5.033842 0 0 0.7829416 9.013988 0 0 0 1</matrix>
        </node>
      </node>
    </visual_scene>
  </library_visual_scenes>
  <scene>
    <instance_visual_scene url="#Scene"/>
  </scene>
</COLLADA>