<?xml version="1.0" encoding="utf-8"?>
<COLLADA xmlns="http://www.collada.org/2005/11/COLLADASchema" version="1.4.1" xmlns:xsi="http://www.w3.org/2001/XMLSchema-instance">
  <asset>
    <contributor>
      <author>Blender User</author>
      <authoring_tool>Blender 4.3.1 commit date:2024-12-10, commit time:07:46, hash:33d812126174</authoring_tool>
    </contributor>
    <created>2026-08-22T20:18:10</created>
    <modified>2026-08-22T20:18:10</modified>
    <unit name="meter" meter="1"/>
    <up_axis>Z_UP</up_axis>
  </asset>
  <library_effects>
    <effect id="hierva_choza_gaetuli-effect">
      <profile_COMMON>
        <technique sid="common">
          <lambert>
            <emission>
              <color sid="emission">0 0 0 1</color>
            </emission>
            <diffuse>
              <color sid="diffuse">0.8 0.8 0.8 1</color>
            </diffuse>
            <index_of_refraction>
              <float sid="ior">1.45</float>
            </index_of_refraction>
          </lambert>
        </technique>
      </profile_COMMON>
    </effect>
  </library_effects>
  <library_images/>
  <library_materials>
    <material id="hierva_choza_gaetuli-material" name="hierva choza gaetuli">
      <instance_effect url="#hierva_choza_gaetuli-effect"/>
    </material>
  </library_materials>
  <library_geometries>
    <geometry id="Cube_010-mesh" name="Cube.010">
      <mesh>
        <source id="Cube_010-mesh-positions">
          <float_array id="Cube_010-mesh-positions-array" count="240">6.019027 -5.602701 3.532159 6.019027 -5.602701 0.02975827 5.581365 -10.15838 3.532159 5.581365 -10.15838 0.02975827 3.574887 -8.422467 3.53216 3.574887 -8.422467 0.02975827 7.915775 -7.462661 3.53216 7.915775 -7.462661 0.02975827 -8.717759 11.2451 3.532159 -8.717759 11.2451 0.02975863 -12.416 8.549029 3.532159 -12.416 8.549029 0.02975863 -12.44911 11.202 3.532159 -12.44911 11.202 0.02975863 -8.850255 8.591883 3.532159 -8.850255 8.591883 0.02975863 -12.23806 -6.506997 3.532159 -12.23806 -6.506997 0.02975827 -9.436967 -10.12634 3.532159 -9.436967 -10.12634 0.02975827 -12.0879 -10.23558 3.532159 -12.0879 -10.23558 0.02975827 -9.582136 -6.563296 3.532159 -9.582136 -6.563296 0.02975827 6.419919 1.680928 3.532159 6.419919 1.680928 0.02975827 9.221013 -1.93842 3.532159 9.221013 -1.93842 0.02975827 6.57008 -2.047657 3.532159 6.57008 -2.047657 0.02975827 9.075844 1.624628 3.532159 9.075844 1.624628 0.02975827 -0.1416147 2.291407 3.532159 -0.1416147 2.291407 0.02975827 -0.5792759 -2.264275 3.532159 -0.5792759 -2.264275 0.02975827 -2.585754 -0.5283573 3.53216 -2.585754 -0.5283573 0.02975827 1.755133 0.4314467 3.53216 1.755133 0.4314467 0.02975827 6.049885 -5.605666 3.532159 5.612223 -10.16135 0.02975827 6.049885 -5.605666 0.02975827 5.612223 -10.16135 3.532159 3.58158 -8.452734 3.53216 3.58158 -8.452734 0.02975827 7.922467 -7.49293 0.02975827 7.922467 -7.49293 3.53216 -8.699497 11.22005 3.532159 -12.39774 8.523978 0.02975863 -8.699497 11.22005 0.02975863 -12.39774 8.523978 3.532159 -12.46732 11.17691 3.532159 -12.46732 11.17691 0.02975863 -8.868454 8.566789 0.02975863 -8.868454 8.566789 3.532159 -12.21354 -6.488024 3.532159 -9.412451 -10.10737 0.02975827 -12.21354 -6.488024 0.02975827 -9.412451 -10.10737 3.532159 -12.06229 -10.25305 3.532159 -12.06229 -10.25305 0.02975827 -9.556529 -6.58077 0.02975827 -9.556529 -6.58077 3.532159 6.395404 1.661955 3.532159 6.395404 1.661955 0.02975827 9.196496 -1.957393 0.02975827 9.196496 -1.957393 3.532159 6.595687 -2.065129 3.532159 6.595687 -2.065129 0.02975827 9.101451 1.607156 0.02975827 9.101451 1.607156 3.532159 -0.1107568 2.288443 3.532159 -0.548418 -2.26724 0.02975827 -0.1107568 2.288443 0.02975827 -0.548418 -2.26724 3.532159 -2.579061 -0.5586262 3.53216 -2.579061 -0.5586262 0.02975827 1.761826 0.4011778 0.02975827 1.761826 0.4011778 3.53216</float_array>
          <technique_common>
            <accessor source="#Cube_010-mesh-positions-array" count="80" stride="3">
              <param name="X" type="float"/>
              <param name="Y" type="float"/>
              <param name="Z" type="float"/>
            </accessor>
          </technique_common>
        </source>
        <source id="Cube_010-mesh-normals">
          <float_array id="Cube_010-mesh-normals-array" count="564">-0.9954171 0.09562927 0 -0.995417 0.09562945 0 -0.9954171 0.09562921 0 -0.9954171 0.09562897 0 -0.2158936 0.9764169 0 -0.2158937 0.976417 0 -0.5890918 0.8080661 0 -0.5890918 0.8080661 0 -0.5890917 0.8080662 0 0.5871074 0.809509 0 0.5871073 0.8095092 0 0.5871075 0.8095091 0 0.5871073 0.8095092 0 -0.7908272 -0.6120395 0 -0.7908271 -0.6120396 0 -0.7908273 -0.6120395 0 -0.7908273 -0.6120393 0 -0.8260247 0.563634 0 -0.8260247 0.5636341 0 -0.8260248 0.5636339 0 -0.8260246 0.5636342 0 0.7908277 0.612039 0 0.7908276 0.612039 0 0.7908276 0.6120389 0 -0.826025 0.5636337 0 -0.826025 0.5636336 0 -0.8260248 0.5636337 0 -0.826025 0.5636336 0 -0.9954171 0.09562897 0 -0.9954171 0.09562903 0 -0.2158934 0.976417 0 -0.2158934 0.976417 0 0.9954171 -0.09562903 0 0.9954171 -0.09562897 0 0.9954171 -0.09562915 0 0.9954171 -0.09562891 0 0.2158934 -0.976417 0 0.2158934 -0.976417 0 0.2158934 -0.976417 0 0.5890918 -0.8080661 0 0.5890918 -0.8080661 0 0.5890918 -0.8080662 0 -0.5871067 -0.8095096 0 -0.5871066 -0.8095096 0 0.7908278 0.6120387 0 0.7908279 0.6120387 0 0.826025 -0.5636336 0 0.826025 -0.5636336 0 -0.7908278 -0.6120389 0 -0.7908276 -0.612039 0 -0.7908277 -0.6120389 0 -0.7908278 -0.6120388 0 0.8260249 -0.5636336 0 0.8260249 -0.5636337 0 0.9954171 -0.09562897 0 0.9954171 -0.09562897 0 0 0 1 2.15284e-7 0 1 2.16244e-7 0 1 0.6120478 -0.7908208 0 0.6120141 -0.790847 0 0.6120139 -0.790847 0 -0.6119847 0.7908696 0 0 0 -1 0 0 -1 0 0 -1 0 0 1 4.0781e-6 0 1 4.09578e-6 0 1 0.9764153 0.2159007 0 0.9764135 0.2159089 0 0.9764136 0.215909 0 0.9764232 0.2158655 0 0.9764232 0.2158655 0 0.9764232 0.2158654 0 -0.5636109 -0.8260406 0 -0.5636109 -0.8260405 0 0 0 -1 0 0 -1 0 0 -1 0 0 -1 0 0 -1 0 0 -1 0 0 1 1.10872e-5 0 1 0 0 1 0.6119612 -0.7908878 0 0.6119949 -0.7908617 0 0.6119951 -0.7908617 0 0.8080643 0.5890944 0 0.8080808 0.5890716 0 0.8080809 0.5890716 0 0 0 -1 0 0 -1 1.33727e-5 0 1 -2.97466e-6 0 1 -3.04566e-6 0 1 0.5636245 0.8260312 0 0.5635921 0.8260533 0 0.5635919 0.8260535 0 -0.5635248 -0.8260992 0 -0.5634925 -0.8261212 0 -0.5634924 -0.8261214 0 0 0 -1 0 0 -1 0 0 -1 0 0 1 3.44461e-6 0 1 3.45997e-6 0 1 -0.8080917 -0.5890569 0 -0.8080917 -0.5890569 0 0.09561377 0.9954186 0 0.09561371 0.9954186 0 0.09561371 0.9954186 0 0.09564316 0.9954157 0 0.09564644 0.9954154 0 0.0956465 0.9954155 0 0 0 -1 0 0 -1 0 0 1 -6.92817e-6 0 1 -2.67053e-5 0 1 1.51914e-5 0 1 -2.68873e-5 0 1 0.5636744 0.8259971 0 0.5636745 0.8259972 0 -0.8094948 0.5871272 2.13409e-4 -0.8092144 0.5875136 3.17569e-4 -0.8096224 0.5869513 0 0 0 -1 0 0 -1 0 0 1 4.09034e-6 0 1 4.10862e-6 0 1 -0.09564417 -0.9954156 0 -0.09564393 -0.9954156 0 -0.09564393 -0.9954156 0 -0.09579557 -0.9954011 0 -0.09579557 -0.9954011 0 -0.09579551 -0.9954011 0 -0.6120286 0.7908356 0 -0.6120455 0.7908226 0 -0.6120456 0.7908225 0 0 0 -1 0 0 -1 0 0 -1 0 0 -1 0 0 -1 0 0 -1 0 0 1 -2.09156e-7 0 1 0.8095064 -0.5871111 0 0.8095394 -0.5870655 0 0.8095396 -0.5870653 0 -0.9764153 -0.2159006 0 -0.9764154 -0.2159006 0 -0.9764136 -0.2159087 0 -0.9764136 -0.2159087 0 0 0 -1 0 0 -1 0 0 -1 0 0 1 1.39934e-6 0 1 0.612048 -0.7908207 0 0.9764154 0.2159006 0 0 0 -1 0 0 -1 1.11366e-5 0 1 0.611961 -0.790888 0 0.8080642 0.5890945 0 0 0 -1 1.34438e-5 0 1 0.5636246 0.8260312 0 -0.563525 -0.826099 0 0.09561377 0.9954186 0 0.0956431 0.9954158 0 0 0 -1 -6.95818e-6 0 1 1.53734e-5 0 1 -0.8095045 0.5871137 0 0 0 -1 -0.09564417 -0.9954156 0 -0.09579551 -0.9954011 0 -0.6120285 0.7908357 0 -2.10062e-7 0 1 0.8095063 -0.5871114 0 0 0 -1 1.40559e-6 0 1</float_array>
          <technique_common>
            <accessor source="#Cube_010-mesh-normals-array" count="188" stride="3">
              <param name="X" type="float"/>
              <param name="Y" type="float"/>
              <param name="Z" type="float"/>
            </accessor>
          </technique_common>
        </source>
        <source id="Cube_010-mesh-map-0">
          <float_array id="Cube_010-mesh-map-0-array" count="720">0.9984335 0.6838312 1.000765 0.001214206 0.001161634 6.92369e-4 0.9984335 0.6838312 0.001161634 6.92369e-4 5.39125e-4 0.6833093 0.9984335 0.6838312 0.001161634 6.92369e-4 1.000765 0.001214206 0.9984335 0.6838312 5.39125e-4 0.6833093 0.001161634 6.92369e-4 0.9984335 0.6838312 1.000765 0.001214206 0.001161634 6.92369e-4 0.9984335 0.6838312 0.001161634 6.92369e-4 5.39125e-4 0.6833093 0.9984335 0.6838312 0.001161634 6.92369e-4 1.000765 0.001214206 0.9984335 0.6838312 5.39125e-4 0.6833093 0.001161634 6.92369e-4 0.9984335 0.6838312 1.000765 0.001214206 0.001161634 6.92369e-4 0.9984335 0.6838312 0.001161634 6.92369e-4 5.39125e-4 0.6833093 0.9984335 0.6838312 0.001161634 6.92369e-4 1.000765 0.001214206 0.9984335 0.6838312 5.39125e-4 0.6833093 0.001161634 6.92369e-4 0.9984335 0.6838312 0.001161634 6.92369e-4 1.000765 0.001214206 0.9984335 0.6838312 5.39125e-4 0.6833093 0.001161634 6.92369e-4 0.9984335 0.6838312 0.001161634 6.92369e-4 1.000765 0.001214206 0.9984335 0.6838312 5.39125e-4 0.6833093 0.001161634 6.92369e-4 0.9984335 0.6838312 1.000765 0.001214206 0.001161634 6.92369e-4 0.9984335 0.6838312 0.001161634 6.92369e-4 5.39125e-4 0.6833093 0.9984335 0.6838312 0.001161634 6.92369e-4 1.000765 0.001214206 0.9984335 0.6838312 5.39125e-4 0.6833093 0.001161634 6.92369e-4 0.9984335 0.6838312 0.001161634 6.92369e-4 1.000765 0.001214206 0.9984335 0.6838312 5.39125e-4 0.6833093 0.001161634 6.92369e-4 0.9984335 0.6838312 1.000765 0.001214206 0.001161634 6.92369e-4 0.9984335 0.6838312 0.001161634 6.92369e-4 5.39125e-4 0.6833093 0.9984335 0.6838312 0.001161634 6.92369e-4 1.000765 0.001214206 0.9984335 0.6838312 5.39125e-4 0.6833093 0.001161634 6.92369e-4 0.9984335 0.6838312 1.000765 0.001214206 0.001161634 6.92369e-4 0.9984335 0.6838312 0.001161634 6.92369e-4 5.39125e-4 0.6833093 0.9984335 0.6838312 0.001161634 6.92369e-4 1.000765 0.001214206 0.9984335 0.6838312 5.39125e-4 0.6833093 0.001161634 6.92369e-4 0.9984335 0.6838312 1.000765 0.001214206 0.001161634 6.92369e-4 0.9984335 0.6838312 0.001161634 6.92369e-4 5.39125e-4 0.6833093 0.9984335 0.6838312 1.000765 0.001214206 0.001161634 6.92369e-4 0.9984335 0.6838312 0.001161634 6.92369e-4 5.39125e-4 0.6833093 0.9984335 0.6838312 1.000765 0.001214206 0.001161634 6.92369e-4 0.9984335 0.6838312 0.001161634 6.92369e-4 5.39125e-4 0.6833093 0.9984335 0.6838312 0.001161634 6.92369e-4 1.000765 0.001214206 0.9984335 0.6838312 5.39125e-4 0.6833093 0.001161634 6.92369e-4 0.9984335 0.6838312 1.000765 0.001214206 0.001161634 6.92369e-4 0.9984335 0.6838312 0.001161634 6.92369e-4 5.39125e-4 0.6833093 0.9984335 0.6838312 5.39125e-4 0.6833093 5.39125e-4 0.6833093 5.39125e-4 0.6833093 0.001161634 6.92369e-4 0.001161634 6.92369e-4 0.9984335 0.6838312 1.000765 0.001214206 1.000765 0.001214206 0.001161634 6.92369e-4 1.000765 0.001214206 1.000765 0.001214206 5.39125e-4 0.6833093 0.9984335 0.6838312 0.9984335 0.6838312 5.39125e-4 0.6833093 0.001161634 6.92369e-4 0.001161634 6.92369e-4 5.39125e-4 0.6833093 0.001161634 6.92369e-4 0.001161634 6.92369e-4 1.000765 0.001214206 0.9984335 0.6838312 0.9984335 0.6838312 0.001161634 6.92369e-4 1.000765 0.001214206 1.000765 0.001214206 1.000765 0.001214206 0.001161634 6.92369e-4 1.000765 0.001214206 5.39125e-4 0.6833093 0.9984335 0.6838312 5.39125e-4 0.6833093 0.001161634 6.92369e-4 5.39125e-4 0.6833093 5.39125e-4 0.6833093 0.9984335 0.6838312 1.000765 0.001214206 1.000765 0.001214206 0.001161634 6.92369e-4 1.000765 0.001214206 0.001161634 6.92369e-4 5.39125e-4 0.6833093 0.9984335 0.6838312 0.9984335 0.6838312 5.39125e-4 0.6833093 0.001161634 6.92369e-4 0.001161634 6.92369e-4 1.000765 0.001214206 0.9984335 0.6838312 0.9984335 0.6838312 0.001161634 6.92369e-4 1.000765 0.001214206 1.000765 0.001214206 0.9984335 0.6838312 5.39125e-4 0.6833093 5.39125e-4 0.6833093 0.001161634 6.92369e-4 5.39125e-4 0.6833093 5.39125e-4 0.6833093 0.9984335 0.6838312 1.000765 0.001214206 1.000765 0.001214206 0.9984335 0.6838312 1.000765 0.001214206 1.000765 0.001214206 0.001161634 6.92369e-4 1.000765 0.001214206 0.001161634 6.92369e-4 0.9984335 0.6838312 5.39125e-4 0.6833093 0.9984335 0.6838312 0.9984335 0.6838312 5.39125e-4 0.6833093 0.9984335 0.6838312 5.39125e-4 0.6833093 0.001161634 6.92369e-4 0.001161634 6.92369e-4 1.000765 0.001214206 0.9984335 0.6838312 0.9984335 0.6838312 1.000765 0.001214206 0.001161634 6.92369e-4 1.000765 0.001214206 0.9984335 0.6838312 5.39125e-4 0.6833093 5.39125e-4 0.6833093 0.001161634 6.92369e-4 5.39125e-4 0.6833093 5.39125e-4 0.6833093 0.001161634 6.92369e-4 5.39125e-4 0.6833093 5.39125e-4 0.6833093 1.000765 0.001214206 0.9984335 0.6838312 0.9984335 0.6838312 1.000765 0.001214206 0.001161634 6.92369e-4 0.001161634 6.92369e-4 1.000765 0.001214206 0.001161634 6.92369e-4 0.001161634 6.92369e-4 5.39125e-4 0.6833093 0.9984335 0.6838312 5.39125e-4 0.6833093 5.39125e-4 0.6833093 0.001161634 6.92369e-4 0.001161634 6.92369e-4 1.000765 0.001214206 0.9984335 0.6838312 0.9984335 0.6838312 1.000765 0.001214206 0.9984335 0.6838312 0.9984335 0.6838312 1.000765 0.001214206 0.001161634 6.92369e-4 1.000765 0.001214206 5.39125e-4 0.6833093 0.9984335 0.6838312 5.39125e-4 0.6833093 0.9984335 0.6838312 0.9984335 0.6838312 5.39125e-4 0.6833093 5.39125e-4 0.6833093 5.39125e-4 0.6833093 0.001161634 6.92369e-4 0.9984335 0.6838312 0.9984335 0.6838312 1.000765 0.001214206 0.001161634 6.92369e-4 0.001161634 6.92369e-4 1.000765 0.001214206 5.39125e-4 0.6833093 5.39125e-4 0.6833093 0.9984335 0.6838312 5.39125e-4 0.6833093 5.39125e-4 0.6833093 0.001161634 6.92369e-4 5.39125e-4 0.6833093 5.39125e-4 0.6833093 0.001161634 6.92369e-4 1.000765 0.001214206 1.000765 0.001214206 0.9984335 0.6838312 0.001161634 6.92369e-4 0.001161634 6.92369e-4 1.000765 0.001214206 1.000765 0.001214206 0.001161634 6.92369e-4 0.001161634 6.92369e-4 5.39125e-4 0.6833093 0.9984335 0.6838312 0.9984335 0.6838312 0.001161634 6.92369e-4 0.001161634 6.92369e-4 5.39125e-4 0.6833093 0.9984335 0.6838312 0.9984335 0.6838312 1.000765 0.001214206 0.001161634 6.92369e-4 1.000765 0.001214206 1.000765 0.001214206 5.39125e-4 0.6833093 5.39125e-4 0.6833093 0.9984335 0.6838312 5.39125e-4 0.6833093 5.39125e-4 0.6833093 0.001161634 6.92369e-4 1.000765 0.001214206 1.000765 0.001214206 0.9984335 0.6838312 0.001161634 6.92369e-4 0.001161634 6.92369e-4 1.000765 0.001214206 0.9984335 0.6838312 0.9984335 0.6838312 5.39125e-4 0.6833093 0.001161634 6.92369e-4 0.001161634 6.92369e-4 5.39125e-4 0.6833093 0.9984335 0.6838312 0.9984335 0.6838312 1.000765 0.001214206 0.9984335 0.6838312 0.9984335 0.6838312 1.000765 0.001214206 0.001161634 6.92369e-4 1.000765 0.001214206 1.000765 0.001214206 0.9984335 0.6838312 5.39125e-4 0.6833093 5.39125e-4 0.6833093 0.9984335 0.6838312 5.39125e-4 0.6833093 5.39125e-4 0.6833093 5.39125e-4 0.6833093 5.39125e-4 0.6833093 0.001161634 6.92369e-4 1.000765 0.001214206 1.000765 0.001214206 0.9984335 0.6838312 1.000765 0.001214206 0.001161634 6.92369e-4 0.001161634 6.92369e-4 0.9984335 0.6838312 0.9984335 0.6838312 5.39125e-4 0.6833093 0.001161634 6.92369e-4 0.001161634 6.92369e-4 5.39125e-4 0.6833093 0.001161634 6.92369e-4 0.001161634 6.92369e-4 5.39125e-4 0.6833093 1.000765 0.001214206 1.000765 0.001214206 0.9984335 0.6838312 1.000765 0.001214206 1.000765 0.001214206 0.001161634 6.92369e-4 1.000765 0.001214206 1.000765 0.001214206 0.001161634 6.92369e-4 5.39125e-4 0.6833093 0.9984335 0.6838312 0.9984335 0.6838312 5.39125e-4 0.6833093 5.39125e-4 0.6833093 0.001161634 6.92369e-4 1.000765 0.001214206 1.000765 0.001214206 0.9984335 0.6838312 1.000765 0.001214206 1.000765 0.001214206 0.9984335 0.6838312 1.000765 0.001214206 0.001161634 6.92369e-4 0.001161634 6.92369e-4 5.39125e-4 0.6833093 0.9984335 0.6838312 0.9984335 0.6838312</float_array>
          <technique_common>
            <accessor source="#Cube_010-mesh-map-0-array" count="360" stride="2">
              <param name="S" type="float"/>
              <param name="T" type="float"/>
            </accessor>
          </technique_common>
        </source>
        <source id="Cube_010-mesh-map-1">
          <float_array id="Cube_010-mesh-map-1-array" count="720">0.7715926 0.5805703 0.7715926 0.7787739 0.5866772 0.7787739 0.7715926 0.5805703 0.5866772 0.7787739 0.5866772 0.5805703 0 0.9878261 0.1945638 0.7605172 0.1945638 0.9878261 0 0.9878261 0 0.7605172 0.1945638 0.7605172 0.3911181 0.2600099 0.5856819 0.2600099 0.5856819 0.518885 0.3911181 0.2600099 0.5856819 0.518885 0.3911181 0.518885 0.195559 0.7442218 0.3901228 0.5026238 0.3901228 0.7442218 0.195559 0.7442218 0.1955591 0.5026238 0.3901228 0.5026238 0 0.2600099 0.1945638 0.26001 0.1945638 0.5190057 0 0.2600099 0.1945638 0.5190057 0 0.5190056 0.5866771 0.4799793 0.781241 0.2404982 0.781241 0.4799794 0.5866771 0.4799793 0.5866771 0.2404982 0.781241 0.2404982 0 0.258996 0.1945638 0 0.1945638 0.2589961 0 0.258996 0 0 0.1945638 0 0.7822362 0.2394812 0.9768 0 0.9768 0.2394812 0.7822362 0.2394812 0.7822362 0 0.9768 0 0.7619483 0.7797877 0.7619483 0.9779912 0.5770328 0.9779912 0.7619483 0.7797877 0.5770328 0.9779912 0.5770328 0.7797877 0.7822363 0.4678038 0.9768001 0.240495 0.9768001 0.4678038 0.7822363 0.4678038 0.7822363 0.240495 0.9768001 0.240495 0.3911181 0.7797877 0.5760375 0.9779912 0.3911181 0.9779912 0.3911181 0.7797877 0.5760375 0.7797877 0.5760375 0.9779912 0.7822363 0.4688177 0.9768001 0.4688177 0.9768001 0.6961222 0.7822363 0.4688177 0.9768001 0.6961222 0.7822362 0.6961222 0.3911181 0.7787739 0.585682 0.519899 0.585682 0.7787739 0.3911181 0.7787739 0.3911181 0.5198989 0.585682 0.519899 0.195559 0.2600099 0.3901228 0.2600099 0.3901228 0.50161 0.195559 0.2600099 0.3901228 0.50161 0.195559 0.50161 0.3911181 0.2589958 0.5856819 0 0.5856819 0.2589958 0.3911181 0.2589958 0.3911181 0 0.5856819 0 0 0.5200195 0.1945638 0.5200195 0.1945638 0.7595034 0 0.5200195 0.1945638 0.7595034 0 0.7595034 0.195559 0 0.3901228 0 0.3901228 0.258996 0.195559 0 0.3901228 0.258996 0.195559 0.258996 0.5866771 0 0.781241 0 0.781241 0.2394843 0.5866771 0 0.781241 0.2394843 0.5866771 0.2394843 0.2052034 0.7452356 0.3901228 0.9434391 0.2052034 0.9434391 0.2052034 0.7452356 0.3901228 0.7452356 0.3901228 0.9434391 0.7822363 0.6971361 0.9768002 0.6971361 0.9768002 0.9244406 0.7822363 0.6971361 0.9768002 0.9244406 0.7822363 0.9244406 0.9805128 0.6897267 0.9822348 0.9413138 0.9805127 0.9413139 0.7656611 0.7797877 0.7673832 0.9779912 0.7656611 0.9779912 0.7629436 0.7797877 0.7646659 0.9779912 0.7629436 0.9779912 0.9805126 0 0.9822347 0.2589965 0.9805126 0.2589965 0.7795189 0.4809934 0.7812409 0.7399895 0.7795186 0.7399896 0.9939342 0.636343 0.9954901 0.8345465 0.9939342 0.8345465 0.9939484 0.4371257 0.9955043 0.6353291 0.9939484 0.6353291 0.9929532 0.3974208 0.9913139 0.1992173 0.9929532 0.1992173 0.9876698 0.6887129 0.9859477 0.4371257 0.9876698 0.4371257 0.9849521 0 0.9832301 0.2515873 0.9832301 0 0.9832302 0.688713 0.9849523 0.4371258 0.9849523 0.688713 0.7728178 0.9779912 0.7710958 0.7797877 0.7728178 0.7797877 0.9886647 0 0.990386 0.1982035 0.9886647 0.1982035 0.7785232 0.4809933 0.7768012 0.7399894 0.7768012 0.4809932 0.9777955 0.4371258 0.9795176 0.6961222 0.9777954 0.6961222 0.9913139 0.4371257 0.9929531 0.6353291 0.9913139 0.6353291 0.9903043 0.8345464 0.9886649 0.636343 0.9903043 0.636343 0.9876695 0.2515873 0.9859474 0 0.9876695 0 0.197051 0.7452355 0.1987732 0.9968227 0.1970511 0.9968228 0.9849522 0.8879302 0.983231 0.6897268 0.9849522 0.6897268 0.9964996 0.1992173 0.9977523 0.3974208 0.9964996 0.3974208 0.9964995 0.3984347 0.9977521 0.5966382 0.9964995 0.5966382 0.7785233 0.7410036 0.7768012 1 0.7768012 0.7410035 0.9777955 0.9561325 0.9795176 0.6971361 0.9795176 0.9561325 0.9777954 0.2589966 0.9795175 0 0.9795175 0.2589966 0.9912995 0.636343 0.9929389 0.8345464 0.9912995 0.8345464 0.9903188 0.3974208 0.9886648 0.1992173 0.9903188 0.1992173 0.9822351 0.4371256 0.9805129 0.6887127 0.9805129 0.4371259 0.2042082 0.9968225 0.2024862 0.7452356 0.2042082 0.7452356 1 0.3974208 0.9987475 0.1992173 1 0.1992173 0.9999998 0.5966382 0.9987474 0.3984347 0.9999998 0.3984347 0.7701006 0.9779912 0.7683785 0.7797877 0.7701006 0.7797877 0.7812408 1 0.7795187 0.7410035 0.7812408 0.7410036 0.7758058 0.7399895 0.7740836 0.4809931 0.7758058 0.4809934 0.775806 0.7410035 0.7740838 0.9999999 0.7740838 0.7410035 0.988665 0.4371257 0.9903186 0.6353291 0.988665 0.6353291 0.9955044 0.3974208 0.9939485 0.1992173 0.9955044 0.1992173 0.9980412 0.8345465 0.9964854 0.636343 0.9980412 0.636343 0.1997684 0.9968225 0.2014907 0.7452356 0.2014907 0.9968231 0.9859477 0.9413141 0.9876698 0.6897269 0.9876698 0.9413141 0.9805128 0.6897267 0.9822348 0.6897267 0.9822348 0.9413138 0.7656611 0.7797877 0.7673832 0.7797877 0.7673832 0.9779912 0.7629436 0.7797877 0.7646659 0.7797877 0.7646659 0.9779912 0.9805126 0 0.9822347 0 0.9822347 0.2589965 0.7795189 0.4809934 0.7812409 0.4809933 0.7812409 0.7399895 0.9939342 0.636343 0.9954901 0.636343 0.9954901 0.8345465 0.9939484 0.4371257 0.9955043 0.4371257 0.9955043 0.6353291 0.9929532 0.3974208 0.9913139 0.3974208 0.9913139 0.1992173 0.9876698 0.6887129 0.9859477 0.6887129 0.9859477 0.4371257 0.9849521 0 0.9849522 0.2515873 0.9832301 0.2515873 0.9832302 0.688713 0.9832302 0.4371257 0.9849523 0.4371258 0.7728178 0.9779912 0.7710958 0.9779912 0.7710958 0.7797877 0.9886647 0 0.990386 0 0.990386 0.1982035 0.7785232 0.4809933 0.7785234 0.7399896 0.7768012 0.7399894 0.9777955 0.4371258 0.9795176 0.4371257 0.9795176 0.6961222 0.9913139 0.4371257 0.9929531 0.4371257 0.9929531 0.6353291 0.9903043 0.8345464 0.9886649 0.8345464 0.9886649 0.636343 0.9876695 0.2515873 0.9859474 0.2515873 0.9859474 0 0.197051 0.7452355 0.1987732 0.7452358 0.1987732 0.9968227 0.9849522 0.8879302 0.983231 0.8879302 0.983231 0.6897268 0.9964996 0.1992173 0.9977523 0.1992173 0.9977523 0.3974208 0.9964995 0.3984347 0.9977521 0.3984347 0.9977521 0.5966382 0.7785233 0.7410036 0.7785233 1 0.7768012 1 0.9777955 0.9561325 0.9777954 0.6971361 0.9795176 0.6971361 0.9777954 0.2589966 0.9777953 3.79935e-7 0.9795175 0 0.9912995 0.636343 0.9929389 0.636343 0.9929389 0.8345464 0.9903188 0.3974208 0.9886648 0.3974208 0.9886648 0.1992173 0.9822351 0.4371256 0.982235 0.6887128 0.9805129 0.6887127 0.2042082 0.9968225 0.202486 0.9968231 0.2024862 0.7452356 1 0.3974208 0.9987475 0.3974208 0.9987475 0.1992173 0.9999998 0.5966382 0.9987474 0.5966382 0.9987474 0.3984347 0.7701006 0.9779912 0.7683785 0.9779912 0.7683785 0.7797877 0.7812408 1 0.7795187 1 0.7795187 0.7410035 0.7758058 0.7399895 0.7740836 0.7399895 0.7740836 0.4809931 0.775806 0.7410035 0.7758059 0.9999999 0.7740838 0.9999999 0.988665 0.4371257 0.9903186 0.4371257 0.9903186 0.6353291 0.9955044 0.3974208 0.9939485 0.3974208 0.9939485 0.1992173 0.9980412 0.8345465 0.9964854 0.8345465 0.9964854 0.636343 0.1997684 0.9968225 0.1997686 0.7452356 0.2014907 0.7452356 0.9859477 0.9413141 0.9859477 0.6897269 0.9876698 0.6897269</float_array>
          <technique_common>
            <accessor source="#Cube_010-mesh-map-1-array" count="360" stride="2">
              <param name="S" type="float"/>
              <param name="T" type="float"/>
            </accessor>
          </technique_common>
        </source>
        <vertices id="Cube_010-mesh-vertices">
          <input semantic="POSITION" source="#Cube_010-mesh-positions"/>
        </vertices>
        <triangles material="hierva_choza_gaetuli-material" count="120">
          <input semantic="VERTEX" source="#Cube_010-mesh-vertices" offset="0"/>
          <input semantic="NORMAL" source="#Cube_010-mesh-normals" offset="1"/>
          <input semantic="TEXCOORD" source="#Cube_010-mesh-map-0" offset="2" set="0"/>
          <input semantic="TEXCOORD" source="#Cube_010-mesh-map-1" offset="2" set="1"/>
          <p>0 0 0 1 1 1 3 2 2 0 0 3 3 2 4 2 3 5 4 4 6 7 4 7 5 5 8 4 4 9 6 5 10 7 4 11 8 6 12 9 7 13 11 6 14 8 6 15 11 6 16 10 8 17 12 9 18 15 10 19 13 11 20 12 9 21 14 12 22 15 10 23 16 13 24 17 14 25 19 15 26 16 13 27 19 15 28 18 16 29 20 17 30 23 18 31 21 19 32 20 17 33 22 20 34 23 18 35 24 21 36 27 22 37 25 22 38 24 21 39 26 23 40 27 22 41 28 24 42 31 25 43 29 26 44 28 24 45 30 27 46 31 25 47 32 28 48 33 29 49 35 28 50 32 28 51 35 28 52 34 28 53 36 30 54 39 30 55 37 31 56 36 30 57 38 31 58 39 30 59 40 32 60 41 33 61 42 34 62 40 32 63 43 35 64 41 33 65 44 36 66 45 37 67 46 36 68 44 36 69 46 36 70 47 38 71 48 39 72 49 40 73 50 39 74 48 39 75 51 41 76 49 40 77 52 42 78 53 42 79 54 43 80 52 42 81 54 43 82 55 43 83 56 44 84 57 44 85 58 45 86 56 44 87 59 44 88 57 44 89 60 46 90 61 47 91 62 46 92 60 46 93 62 46 94 63 47 95 64 48 96 65 49 97 66 50 98 64 48 99 66 50 100 67 51 101 68 47 102 69 46 103 70 52 104 68 47 105 70 52 106 71 53 107 72 54 108 73 54 109 74 55 110 72 54 111 75 54 112 73 54 113 76 36 114 77 38 115 78 36 116 76 36 117 78 36 118 79 38 119 4 56 120 47 57 121 6 58 122 26 59 123 66 60 124 27 61 125 16 62 126 58 62 127 17 62 128 27 63 129 65 64 130 25 65 131 18 66 132 56 67 133 16 68 134 38 69 135 78 70 136 39 71 137 6 72 138 46 73 139 7 74 140 29 75 141 68 75 142 28 76 143 39 77 144 77 78 145 37 79 146 5 80 147 46 81 148 45 82 149 30 83 150 68 84 151 71 85 152 19 86 153 59 87 154 18 88 155 8 89 156 50 90 157 9 91 158 19 92 159 58 93 160 57 82 161 10 94 162 48 95 163 8 96 164 30 97 165 70 98 166 31 99 167 21 100 168 60 101 169 20 102 170 31 103 171 69 104 172 29 105 173 20 106 174 63 107 175 22 108 176 11 109 177 51 110 178 10 110 179 32 111 180 74 112 181 33 113 182 0 114 183 42 115 184 1 116 185 11 117 186 50 118 187 49 82 188 32 119 189 75 120 190 72 85 191 0 121 192 43 122 193 40 123 194 22 124 195 62 124 196 23 125 197 13 126 198 52 127 199 12 128 200 21 129 201 62 130 202 61 82 203 12 131 204 55 132 205 14 133 206 35 134 207 75 135 208 34 136 209 3 137 210 43 138 211 2 139 212 25 140 213 64 141 214 24 142 215 33 143 216 73 144 217 35 145 218 1 146 219 41 147 220 3 148 221 26 149 222 64 150 223 67 85 224 14 151 225 54 152 226 15 153 227 37 154 228 76 154 229 36 155 230 5 156 231 44 156 232 4 157 233 13 158 234 54 159 235 53 160 236 38 161 237 76 162 238 79 85 239 4 56 240 44 85 241 47 57 242 26 59 243 67 163 244 66 60 245 16 62 246 56 62 247 58 62 248 27 63 249 66 82 250 65 64 251 18 66 252 59 85 253 56 67 254 38 69 255 79 164 256 78 70 257 6 72 258 47 73 259 46 73 260 29 75 261 69 76 262 68 75 263 39 77 264 78 165 265 77 78 266 5 80 267 7 166 268 46 81 269 30 83 270 28 167 271 68 84 272 19 86 273 57 168 274 59 87 275 8 89 276 48 169 277 50 90 278 19 92 279 17 170 280 58 93 281 10 94 282 51 171 283 48 95 284 30 97 285 71 172 286 70 98 287 21 100 288 61 173 289 60 101 290 31 103 291 70 82 292 69 104 293 20 106 294 60 85 295 63 107 296 11 109 297 49 109 298 51 110 299 32 111 300 72 174 301 74 112 302 0 114 303 40 175 304 42 115 305 11 117 306 9 176 307 50 118 308 32 119 309 34 177 310 75 120 311 0 121 312 2 178 313 43 122 314 22 124 315 63 125 316 62 124 317 13 126 318 53 179 319 52 127 320 21 129 321 23 180 322 62 130 323 12 131 324 52 85 325 55 132 326 35 134 327 73 181 328 75 135 329 3 137 330 41 182 331 43 138 332 25 140 333 65 183 334 64 141 335 33 143 336 74 82 337 73 144 338 1 146 339 42 82 340 41 147 341 26 149 342 24 184 343 64 150 344 14 151 345 55 185 346 54 152 347 37 154 348 77 154 349 76 154 350 5 156 351 45 157 352 44 156 353 13 158 354 15 186 355 54 159 356 38 161 357 36 187 358 76 162 359</p>
        </triangles>
      </mesh>
    </geometry>
  </library_geometries>
  <library_visual_scenes>
    <visual_scene id="Scene" name="Scene">
      <node id="range_f" name="range_f" type="NODE">
        <matrix sid="transform">1 0 0 0 0 1 0 0 0 0 1 0 0 0 0 1</matrix>
        <instance_geometry url="#Cube_010-mesh" name="range_f">
          <bind_material>
            <technique_common>
              <instance_material symbol="hierva_choza_gaetuli-material" target="#hierva_choza_gaetuli-material">
                <bind_vertex_input semantic="Cube_010-mesh-map-0" input_semantic="TEXCOORD" input_set="0"/>
                <bind_vertex_input semantic="Cube_010-mesh-map-1" input_semantic="TEXCOORD" input_set="1"/>
              </instance_material>
            </technique_common>
          </bind_material>
        </instance_geometry>
        <node id="prop_garrisoned" name="prop_garrisoned" type="NODE">
          <matrix sid="transform">-0.7829416 1.18221e-7 0 5.35037e-14 -1.18221e-7 -0.7829416 0 5.033843 0 0 0.7829416 9.013988 0 0 0 1</matrix>
        </node>
        <node id="prop_projectile" name="prop_projectile" type="NODE">
          <matrix sid="transform">-0.7829416 1.18221e-7 0 5.35037e-14 -1.18221e-7 -0.7829416 0 5.033842 0 0 0.7829416 9.013988 0 0 0 1</matrix>
        </node>
      </node>
    </visual_scene>
  </library_visual_scenes>
  <scene>
    <instance_visual_scene url="#Scene"/>
  </scene>
</COLLADA>