<?xml version="1.0" encoding="utf-8"?>
<COLLADA xmlns="http://www.collada.org/2005/11/COLLADASchema" version="1.4.1" xmlns:xsi="http://www.w3.org/2001/XMLSchema-instance">
  <asset>
    <contributor>
      <author>Blender User</author>
      <authoring_tool>Blender 4.3.1 commit date:2024-12-10, commit time:07:46, hash:33d812126174</authoring_tool>
    </contributor>
    <created>2026-08-22T20:21:56</created>
    <modified>2026-08-22T20:21:56</modified>
    <unit name="meter" meter="1"/>
    <up_axis>Z_UP</up_axis>
  </asset>
  <library_effects>
    <effect id="hierva_choza_gaetuli-effect">
      <profile_COMMON>
        <technique sid="common">
          <lambert>
            <emission>
              <color sid="emission">0 0 0 1</color>
            </emission>
            <diffuse>
              <color sid="diffuse">0.8 0.8 0.8 1</color>
            </diffuse>
            <index_of_refraction>
              <float sid="ior">1.45</float>
            </index_of_refraction>
          </lambert>
        </technique>
      </profile_COMMON>
    </effect>
  </library_effects>
  <library_images/>
  <library_materials>
    <material id="hierva_choza_gaetuli-material" name="hierva choza gaetuli">
      <instance_effect url="#hierva_choza_gaetuli-effect"/>
    </material>
  </library_materials>
  <library_geometries>
    <geometry id="Cube_014-mesh" name="Cube.014">
      <mesh>
        <source id="Cube_014-mesh-positions">
          <float_array id="Cube_014-mesh-positions-array" count="288">-2.808428 -7.642355 3.532159 -2.808428 -7.642355 0.02975863 1.710413 -8.367524 3.532159 1.710413 -8.367524 0.02975863 -0.1490383 -10.26009 3.532159 -0.1490383 -10.26009 0.02975863 -0.8321301 -5.86715 3.532159 -0.8321301 -5.86715 0.02975863 -12.76501 11.05504 3.532159 -12.76501 11.05504 0.02975863 -10.07513 7.352289 3.532159 -10.07513 7.352289 0.02975863 -12.72816 7.323612 3.532159 -12.72816 7.323612 0.02975863 -10.11202 10.9181 3.532159 -10.11202 10.9181 0.02975863 -11.54228 -6.188354 3.532159 -11.54228 -6.188354 0.02975827 -8.741187 -9.807703 3.532159 -8.741187 -9.807703 0.02975827 -11.39212 -9.916938 3.532159 -11.39212 -9.916938 0.02975827 -8.886352 -6.244654 3.532159 -8.886352 -6.244654 0.02975827 6.01228 9.608775 3.532159 6.01228 9.608775 0.02975827 8.813373 5.989426 3.532159 8.813373 5.989426 0.02975827 6.162442 5.88019 3.532159 6.162442 5.88019 0.02975827 8.668207 9.552474 3.532159 8.668207 9.552474 0.02975827 -7.261739 0.4828968 3.532159 -7.261739 0.4828968 0.02975827 -7.6994 -4.072785 3.532159 -7.6994 -4.072785 0.02975827 -9.705881 -2.336867 3.53216 -9.705881 -2.336867 0.02975827 -5.364993 -1.377063 3.53216 -5.364993 -1.377063 0.02975827 3.40003 -1.469792 3.532159 3.40003 -1.469792 0.02975863 7.108173 1.212643 3.532159 7.108173 1.212643 0.02975863 7.13152 -1.440436 3.532159 7.13152 -1.440436 0.02975863 3.542294 1.182916 3.532159 3.542294 1.182916 0.02975863 -2.803516 -7.611747 3.532159 1.715325 -8.336915 0.02975863 -2.803516 -7.611747 0.02975863 1.715325 -8.336915 3.532159 -0.1184064 -10.25532 3.532159 -0.1184064 -10.25532 0.02975863 -0.8014982 -5.862387 0.02975863 -0.8014982 -5.862387 3.532159 -12.73993 11.07326 3.532159 -10.05005 7.370509 0.02975863 -12.73993 11.07326 0.02975863 -10.05005 7.370509 3.532159 -12.7031 7.305369 3.532159 -12.7031 7.305369 0.02975863 -10.08696 10.89986 0.02975863 -10.08696 10.89986 3.532159 -11.51776 -6.169381 3.532159 -8.71667 -9.788728 0.02975827 -11.51776 -6.169381 0.02975827 -8.71667 -9.788728 3.532159 -11.36651 -9.934412 3.532159 -11.36651 -9.934412 0.02975827 -8.860746 -6.262126 0.02975827 -8.860746 -6.262126 3.532159 5.987765 9.5898 3.532159 5.987765 9.5898 0.02975827 8.788857 5.970452 0.02975827 8.788857 5.970452 3.532159 6.188048 5.862717 3.532159 6.188048 5.862717 0.02975827 8.693813 9.535001 0.02975827 8.693813 9.535001 3.532159 -7.230881 0.4799323 3.532159 -7.668542 -4.075749 0.02975827 -7.230881 0.4799323 0.02975827 -7.668542 -4.075749 3.532159 -9.699188 -2.367136 3.53216 -9.699188 -2.367136 0.02975827 -5.3583 -1.407332 0.02975827 -5.3583 -1.407332 3.53216 3.418199 -1.49491 3.532159 3.418199 -1.49491 0.02975863 7.126342 1.187525 0.02975863 7.126342 1.187525 3.532159 7.113228 -1.465463 3.532159 3.524001 1.157889 0.02975863 7.113228 -1.465463 0.02975863 3.524001 1.157889 3.532159</float_array>
          <technique_common>
            <accessor source="#Cube_014-mesh-positions-array" count="96" stride="3">
              <param name="X" type="float"/>
              <param name="Y" type="float"/>
              <param name="Z" type="float"/>
            </accessor>
          </technique_common>
        </source>
        <source id="Cube_014-mesh-normals">
          <float_array id="Cube_014-mesh-normals-array" count="699">-0.1584493 -0.9873672 0 -0.1584493 -0.9873672 0 -0.1584493 -0.9873672 0 -0.9881252 -0.1536511 0 -0.9881252 -0.1536511 0 -0.8090508 -0.5877388 0 -0.8090509 -0.5877387 0 -0.8090507 -0.5877389 0 -0.8090507 -0.587739 0 -0.8085255 0.5884613 0 -0.7908277 -0.612039 0 -0.7908278 -0.6120388 0 -0.7908277 -0.612039 0 -0.7908275 -0.6120392 0 -0.8260244 0.5636343 0 -0.8260244 0.5636344 0 -0.8260246 0.5636342 0 -0.8260243 0.5636345 0 0.7908276 0.6120389 0 0.7908278 0.6120388 0 0.7908276 0.612039 0 0.7908278 0.6120388 0 -0.826025 0.5636337 0 -0.8260248 0.5636337 0 -0.8260249 0.5636336 0 -0.8260248 0.5636338 0 -0.9954171 0.09562903 0 -0.9954171 0.09562915 0 -0.9954171 0.09562903 0 -0.9954171 0.09562891 0 -0.2158934 0.976417 0 -0.2158935 0.976417 0 -0.2158933 0.976417 0 -0.5861125 0.8102298 0 -0.5861126 0.8102298 0 -0.5861125 0.8102297 0 -0.5861124 0.8102298 0 0.5900835 0.8073423 0 0.5900835 0.8073424 0 0.5900835 0.8073422 0 0.5900836 0.8073422 0 0.1584493 0.9873672 0 0.1584493 0.9873672 0 0.9881252 0.1536514 0 0.9881252 0.1536514 0 0.8090508 0.5877387 0 0.8090509 0.5877387 0 0.8090509 0.5877387 0 0.8085259 -0.5884608 0 0.8085258 -0.5884609 0 0.8085259 -0.5884606 0 0.7908279 0.6120386 0 0.7908281 0.6120386 0 0.7908279 0.6120387 0 0.7908281 0.6120385 0 0.826025 -0.5636337 0 0.8260249 -0.5636336 0 0.826025 -0.5636336 0 0.826025 -0.5636336 0 -0.7908278 -0.6120388 0 0.8260247 -0.5636339 0 0.8260248 -0.5636339 0 0.9954171 -0.09562891 0 0.9954171 -0.09562891 0 0.9954171 -0.09562891 0 0.2158935 -0.976417 0 0.2158935 -0.976417 0 0.2158934 -0.976417 0 0.2158933 -0.976417 0 0.5861126 -0.8102298 0 0.5861126 -0.8102297 0 0.5861124 -0.8102298 0 -0.5900834 -0.8073423 0 -0.5900835 -0.8073424 0 0.5877616 -0.8090342 0 0.09562796 0.9954172 0 0.09563452 0.9954166 0 0.09563457 0.9954166 0 -0.987366 0.158457 0 -0.9873659 0.158457 0 0 0 -1 0 0 -1 0 0 -1 0 0 -1 0 0 -1 0 0 -1 0 0 1 3.79096e-6 0 1 3.80735e-6 0 1 0 0 1 -1.35951e-6 0 1 -1.3654e-6 0 1 0.5636219 0.8260329 0 0.5636219 0.8260329 0 0.8073531 -0.5900687 0 0.8073365 -0.5900914 0 0.8073365 -0.5900916 0 -0.5885553 -0.8084571 0 -0.5885223 -0.808481 0 -0.5885221 -0.8084812 0 0 0 -1 0 0 -1 0 0 -1 1.37434e-5 0 1 -7.79668e-6 0 1 -7.89314e-6 0 1 0 0 1 -1.07662e-6 0 1 -1.08142e-6 0 1 -0.09561598 -0.9954184 0 -0.09561264 -0.9954187 0 -0.09561264 -0.9954186 0 0.987366 -0.1584569 0 0.9873673 -0.1584485 0 0.9873673 -0.1584484 0 -0.6120551 0.7908152 0 -0.6120719 0.7908021 0 -0.612072 0.790802 0 0 0 -1 0 0 -1 0 0 -1 0 0 -1 0 0 -1 0 0 -1 0 0 1 -2.19612e-6 0 1 0 0 1 -0.8073363 0.5900917 0 -0.8073198 0.5901142 0 -0.8073197 0.5901144 0 0.5884851 0.8085081 0 -0.9764081 -0.2159337 0 -0.9764227 -0.2158675 0 -0.9764228 -0.2158671 0 0.153954 -0.988078 -1.19088e-4 0.1537564 -0.9881089 -8.00276e-5 0.1538745 -0.9880905 0 0 0 -1 0 0 -1 0 0 -1 0 0 -1 0 0 -1 0 0 1 1.39934e-6 0 1 1.3787e-5 0 1 1.99885e-6 0 1 1.38397e-5 0 1 0.6120381 -0.7908282 0 0.6120718 -0.7908023 0 0.612072 -0.790802 0 -0.6119413 0.7909032 0 -0.611975 0.7908773 0 -0.6119751 0.7908771 0 0 0 -1 0 0 -1 0 0 -1 0 0 1 -6.16939e-6 0 1 -6.19613e-6 0 1 0.9764153 0.2159006 0 -0.1536344 0.9881278 0 -0.1536337 0.9881279 0 -0.5636591 -0.8260076 0 -0.5636431 -0.8260186 0 -0.563643 -0.8260186 0 0 0 -1 0 0 -1 0 0 -1 0 0 -1 1.22986e-7 0 -1 1.23534e-7 0 -1 -1.37308e-5 0 1 1.07029e-5 0 1 1.08123e-5 0 1 0.612055 -0.7908152 0 -0.8102396 -0.5860988 0 -0.8102479 -0.5860874 0 -0.8102479 -0.5860874 0 -0.5877285 0.8090583 0 -0.5877614 0.8090344 0 -0.5877616 0.8090342 0 0 0 -1 0 0 -1 0 0 -1 0 0 1 -5.96081e-6 0 1 -5.98659e-6 0 1 0 0 1 -1.35954e-6 0 1 -1.36544e-6 0 1 0.5636535 0.8260115 0 -0.5636416 -0.8260195 0 -0.5636091 -0.8260416 0 -0.563609 -0.8260417 0 0 0 -1 0 0 -1 0 0 -1 0 0 1 1.07648e-6 0 1 1.08128e-6 0 1 0.8102396 0.5860987 0 0.8102562 0.586076 0 0.8102563 0.5860759 0 0.0956279 0.9954172 0 0 0 -1 0.563622 0.8260329 0 0.8073531 -0.5900686 0 -0.5885555 -0.8084569 0 0 0 -1 1.38397e-5 0 1 -0.09561598 -0.9954183 0 0.9873659 -0.158457 0 -0.612055 0.7908152 0 0 0 -1 -2.20564e-6 0 1 -0.8073365 0.5900916 0 -0.976408 -0.2159341 0 0.1535428 -0.9881421 0 0 0 -1 1.40559e-6 0 1 1.94613e-6 0 1 0.612038 -0.7908284 0 -0.6119411 0.7909033 0 0.9764154 0.2159006 0 -0.1536344 0.9881278 0 -0.5636593 -0.8260074 0 0 0 -1 -1.38404e-5 0 1 -0.8102396 -0.5860989 0 -0.5877283 0.8090585 0 -0.5636417 -0.8260194 0 0 0 -1 0.8102396 0.5860989 0</float_array>
          <technique_common>
            <accessor source="#Cube_014-mesh-normals-array" count="233" stride="3">
              <param name="X" type="float"/>
              <param name="Y" type="float"/>
              <param name="Z" type="float"/>
            </accessor>
          </technique_common>
        </source>
        <source id="Cube_014-mesh-map-0">
          <float_array id="Cube_014-mesh-map-0-array" count="864">0.9984335 0.6838312 1.000765 0.001214206 0.001161634 6.92369e-4 0.9984335 0.6838312 0.001161634 6.92369e-4 5.39125e-4 0.6833093 0.9984335 0.6838312 0.001161634 6.92369e-4 1.000765 0.001214206 0.9984335 0.6838312 5.39125e-4 0.6833093 0.001161634 6.92369e-4 0.9984335 0.6838312 1.000765 0.001214206 0.001161634 6.92369e-4 0.9984335 0.6838312 0.001161634 6.92369e-4 5.39125e-4 0.6833093 0.9984335 0.6838312 0.001161634 6.92369e-4 1.000765 0.001214206 0.9984335 0.6838312 5.39125e-4 0.6833093 0.001161634 6.92369e-4 0.9984335 0.6838312 1.000765 0.001214206 0.001161634 6.92369e-4 0.9984335 0.6838312 0.001161634 6.92369e-4 5.39125e-4 0.6833093 0.9984335 0.6838312 0.001161634 6.92369e-4 1.000765 0.001214206 0.9984335 0.6838312 5.39125e-4 0.6833093 0.001161634 6.92369e-4 0.9984335 0.6838312 0.001161634 6.92369e-4 1.000765 0.001214206 0.9984335 0.6838312 5.39125e-4 0.6833093 0.001161634 6.92369e-4 0.9984335 0.6838312 0.001161634 6.92369e-4 1.000765 0.001214206 0.9984335 0.6838312 5.39125e-4 0.6833093 0.001161634 6.92369e-4 0.9984335 0.6838312 1.000765 0.001214206 0.001161634 6.92369e-4 0.9984335 0.6838312 0.001161634 6.92369e-4 5.39125e-4 0.6833093 0.9984335 0.6838312 0.001161634 6.92369e-4 1.000765 0.001214206 0.9984335 0.6838312 5.39125e-4 0.6833093 0.001161634 6.92369e-4 0.9984335 0.6838312 0.001161634 6.92369e-4 1.000765 0.001214206 0.9984335 0.6838312 5.39125e-4 0.6833093 0.001161634 6.92369e-4 0.9984335 0.6838312 1.000765 0.001214206 0.001161634 6.92369e-4 0.9984335 0.6838312 0.001161634 6.92369e-4 5.39125e-4 0.6833093 0.9984335 0.6838312 0.001161634 6.92369e-4 1.000765 0.001214206 0.9984335 0.6838312 5.39125e-4 0.6833093 0.001161634 6.92369e-4 0.9984335 0.6838312 1.000765 0.001214206 0.001161634 6.92369e-4 0.9984335 0.6838312 0.001161634 6.92369e-4 5.39125e-4 0.6833093 0.9984335 0.6838312 0.001161634 6.92369e-4 1.000765 0.001214206 0.9984335 0.6838312 5.39125e-4 0.6833093 0.001161634 6.92369e-4 0.9984335 0.6838312 1.000765 0.001214206 0.001161634 6.92369e-4 0.9984335 0.6838312 0.001161634 6.92369e-4 5.39125e-4 0.6833093 0.9984335 0.6838312 0.001161634 6.92369e-4 1.000765 0.001214206 0.9984335 0.6838312 5.39125e-4 0.6833093 0.001161634 6.92369e-4 0.9984335 0.6838312 1.000765 0.001214206 0.001161634 6.92369e-4 0.9984335 0.6838312 0.001161634 6.92369e-4 5.39125e-4 0.6833093 0.9984335 0.6838312 1.000765 0.001214206 0.001161634 6.92369e-4 0.9984335 0.6838312 0.001161634 6.92369e-4 5.39125e-4 0.6833093 0.9984335 0.6838312 1.000765 0.001214206 0.001161634 6.92369e-4 0.9984335 0.6838312 0.001161634 6.92369e-4 5.39125e-4 0.6833093 0.9984335 0.6838312 0.001161634 6.92369e-4 1.000765 0.001214206 0.9984335 0.6838312 5.39125e-4 0.6833093 0.001161634 6.92369e-4 0.9984335 0.6838312 1.000765 0.001214206 0.001161634 6.92369e-4 0.9984335 0.6838312 0.001161634 6.92369e-4 5.39125e-4 0.6833093 0.9984335 0.6838312 1.000765 0.001214206 0.001161634 6.92369e-4 0.9984335 0.6838312 0.001161634 6.92369e-4 5.39125e-4 0.6833093 0.9984335 0.6838312 0.001161634 6.92369e-4 1.000765 0.001214206 0.9984335 0.6838312 5.39125e-4 0.6833093 0.001161634 6.92369e-4 0.001161634 6.92369e-4 5.39125e-4 0.6833093 5.39125e-4 0.6833093 0.9984335 0.6838312 1.000765 0.001214206 1.000765 0.001214206 0.9984335 0.6838312 1.000765 0.001214206 1.000765 0.001214206 1.000765 0.001214206 0.001161634 6.92369e-4 1.000765 0.001214206 1.000765 0.001214206 0.001161634 6.92369e-4 0.001161634 6.92369e-4 5.39125e-4 0.6833093 0.9984335 0.6838312 0.9984335 0.6838312 5.39125e-4 0.6833093 0.9984335 0.6838312 0.9984335 0.6838312 5.39125e-4 0.6833093 0.001161634 6.92369e-4 0.001161634 6.92369e-4 0.9984335 0.6838312 1.000765 0.001214206 1.000765 0.001214206 1.000765 0.001214206 0.9984335 0.6838312 0.9984335 0.6838312 1.000765 0.001214206 0.001161634 6.92369e-4 1.000765 0.001214206 5.39125e-4 0.6833093 0.9984335 0.6838312 0.9984335 0.6838312 0.9984335 0.6838312 5.39125e-4 0.6833093 5.39125e-4 0.6833093 0.001161634 6.92369e-4 5.39125e-4 0.6833093 5.39125e-4 0.6833093 0.001161634 6.92369e-4 5.39125e-4 0.6833093 5.39125e-4 0.6833093 1.000765 0.001214206 0.9984335 0.6838312 0.9984335 0.6838312 1.000765 0.001214206 0.001161634 6.92369e-4 0.001161634 6.92369e-4 1.000765 0.001214206 0.001161634 6.92369e-4 0.001161634 6.92369e-4 5.39125e-4 0.6833093 0.9984335 0.6838312 5.39125e-4 0.6833093 0.001161634 6.92369e-4 5.39125e-4 0.6833093 5.39125e-4 0.6833093 5.39125e-4 0.6833093 0.001161634 6.92369e-4 0.001161634 6.92369e-4 1.000765 0.001214206 0.9984335 0.6838312 0.9984335 0.6838312 1.000765 0.001214206 0.9984335 0.6838312 0.9984335 0.6838312 1.000765 0.001214206 0.001161634 6.92369e-4 0.001161634 6.92369e-4 1.000765 0.001214206 0.001161634 6.92369e-4 1.000765 0.001214206 5.39125e-4 0.6833093 0.9984335 0.6838312 5.39125e-4 0.6833093 5.39125e-4 0.6833093 0.9984335 0.6838312 5.39125e-4 0.6833093 5.39125e-4 0.6833093 0.001161634 6.92369e-4 0.001161634 6.92369e-4 0.9984335 0.6838312 1.000765 0.001214206 1.000765 0.001214206 0.001161634 6.92369e-4 1.000765 0.001214206 1.000765 0.001214206 5.39125e-4 0.6833093 0.9984335 0.6838312 0.9984335 0.6838312 5.39125e-4 0.6833093 0.001161634 6.92369e-4 0.001161634 6.92369e-4 5.39125e-4 0.6833093 0.001161634 6.92369e-4 0.001161634 6.92369e-4 1.000765 0.001214206 0.9984335 0.6838312 0.9984335 0.6838312 0.001161634 6.92369e-4 1.000765 0.001214206 1.000765 0.001214206 0.001161634 6.92369e-4 1.000765 0.001214206 1.000765 0.001214206 0.9984335 0.6838312 5.39125e-4 0.6833093 5.39125e-4 0.6833093 0.001161634 6.92369e-4 5.39125e-4 0.6833093 5.39125e-4 0.6833093 1.000765 0.001214206 0.9984335 0.6838312 0.9984335 0.6838312 0.9984335 0.6838312 1.000765 0.001214206 1.000765 0.001214206 1.000765 0.001214206 0.001161634 6.92369e-4 0.001161634 6.92369e-4 0.9984335 0.6838312 5.39125e-4 0.6833093 5.39125e-4 0.6833093 5.39125e-4 0.6833093 0.9984335 0.6838312 0.9984335 0.6838312 5.39125e-4 0.6833093 0.001161634 6.92369e-4 0.001161634 6.92369e-4 1.000765 0.001214206 0.9984335 0.6838312 0.9984335 0.6838312 1.000765 0.001214206 0.001161634 6.92369e-4 1.000765 0.001214206 0.9984335 0.6838312 5.39125e-4 0.6833093 5.39125e-4 0.6833093 5.39125e-4 0.6833093 0.001161634 6.92369e-4 0.001161634 6.92369e-4 0.001161634 6.92369e-4 0.001161634 6.92369e-4 5.39125e-4 0.6833093 0.9984335 0.6838312 0.9984335 0.6838312 1.000765 0.001214206 0.9984335 0.6838312 0.9984335 0.6838312 1.000765 0.001214206 1.000765 0.001214206 0.001161634 6.92369e-4 0.001161634 6.92369e-4 1.000765 0.001214206 1.000765 0.001214206 0.001161634 6.92369e-4 5.39125e-4 0.6833093 5.39125e-4 0.6833093 0.9984335 0.6838312 5.39125e-4 0.6833093 5.39125e-4 0.6833093 0.9984335 0.6838312 5.39125e-4 0.6833093 5.39125e-4 0.6833093 0.001161634 6.92369e-4 0.9984335 0.6838312 0.9984335 0.6838312 1.000765 0.001214206 1.000765 0.001214206 1.000765 0.001214206 0.9984335 0.6838312 1.000765 0.001214206 0.001161634 6.92369e-4 0.001161634 6.92369e-4 5.39125e-4 0.6833093 5.39125e-4 0.6833093 0.9984335 0.6838312 0.9984335 0.6838312 0.9984335 0.6838312 5.39125e-4 0.6833093 0.001161634 6.92369e-4 0.001161634 6.92369e-4 5.39125e-4 0.6833093 0.001161634 6.92369e-4 0.001161634 6.92369e-4 5.39125e-4 0.6833093 1.000765 0.001214206 1.000765 0.001214206 0.9984335 0.6838312 1.000765 0.001214206 1.000765 0.001214206 0.001161634 6.92369e-4 1.000765 0.001214206 1.000765 0.001214206 0.001161634 6.92369e-4 5.39125e-4 0.6833093 0.9984335 0.6838312 0.9984335 0.6838312 0.001161634 6.92369e-4 0.001161634 6.92369e-4 5.39125e-4 0.6833093 5.39125e-4 0.6833093 5.39125e-4 0.6833093 0.001161634 6.92369e-4 1.000765 0.001214206 1.000765 0.001214206 0.9984335 0.6838312 1.000765 0.001214206 1.000765 0.001214206 0.9984335 0.6838312 1.000765 0.001214206 1.000765 0.001214206 0.001161634 6.92369e-4 1.000765 0.001214206 0.001161634 6.92369e-4 0.001161634 6.92369e-4 5.39125e-4 0.6833093 0.9984335 0.6838312 0.9984335 0.6838312 5.39125e-4 0.6833093 0.9984335 0.6838312 0.9984335 0.6838312 5.39125e-4 0.6833093 5.39125e-4 0.6833093 0.001161634 6.92369e-4 0.9984335 0.6838312 0.9984335 0.6838312 1.000765 0.001214206 0.001161634 6.92369e-4 0.001161634 6.92369e-4 1.000765 0.001214206 5.39125e-4 0.6833093 5.39125e-4 0.6833093 0.9984335 0.6838312 5.39125e-4 0.6833093 5.39125e-4 0.6833093 0.001161634 6.92369e-4 5.39125e-4 0.6833093 5.39125e-4 0.6833093 0.001161634 6.92369e-4 1.000765 0.001214206 1.000765 0.001214206 0.9984335 0.6838312 0.001161634 6.92369e-4 0.001161634 6.92369e-4 1.000765 0.001214206 0.001161634 6.92369e-4 0.001161634 6.92369e-4 1.000765 0.001214206 0.9984335 0.6838312 0.9984335 0.6838312 5.39125e-4 0.6833093 0.001161634 6.92369e-4 0.001161634 6.92369e-4 5.39125e-4 0.6833093 1.000765 0.001214206 1.000765 0.001214206 0.9984335 0.6838312 0.9984335 0.6838312 0.9984335 0.6838312 1.000765 0.001214206 1.000765 0.001214206 1.000765 0.001214206 0.001161634 6.92369e-4 0.9984335 0.6838312 0.9984335 0.6838312 5.39125e-4 0.6833093 5.39125e-4 0.6833093 5.39125e-4 0.6833093 0.9984335 0.6838312 5.39125e-4 0.6833093 5.39125e-4 0.6833093 0.001161634 6.92369e-4 1.000765 0.001214206 1.000765 0.001214206 0.9984335 0.6838312 1.000765 0.001214206 0.001161634 6.92369e-4 0.001161634 6.92369e-4 0.9984335 0.6838312 0.9984335 0.6838312 5.39125e-4 0.6833093 5.39125e-4 0.6833093 5.39125e-4 0.6833093 0.001161634 6.92369e-4</float_array>
          <technique_common>
            <accessor source="#Cube_014-mesh-map-0-array" count="432" stride="2">
              <param name="S" type="float"/>
              <param name="T" type="float"/>
            </accessor>
          </technique_common>
        </source>
        <source id="Cube_014-mesh-map-1">
          <float_array id="Cube_014-mesh-map-1-array" count="864">0.6722255 0.8249434 0.6722255 0.9926605 0.5085099 0.9926605 0.6722255 0.8249434 0.5085099 0.9926605 0.5085099 0.8249434 0.1695033 0.8312485 0.3379675 0.6470525 0.3379675 0.8312485 0.1695033 0.8312485 0.1695033 0.6470525 0.3379675 0.6470525 0.3390066 0 0.5074707 0 0.5074707 0.218872 0.3390066 0 0.5074707 0.218872 0.3390066 0.218872 0.5085099 0.6190276 0.6769741 0.4134121 0.6769741 0.6190276 0.5085099 0.6190276 0.5085099 0.4134121 0.6769741 0.4134121 0 0 0.1684642 0 0.1684642 0.2191117 0 0 0.1684642 0.2191117 0 0.2191117 0.6780132 0.4106051 0.8464774 0.2067601 0.8464774 0.4106051 0.6780132 0.4106051 0.6780132 0.2067601 0.8464774 0.2067601 0 0.4392578 0.1684642 0.2201462 0.1684642 0.4392578 0 0.4392578 0 0.2201461 0.1684642 0.2201462 0.6780132 0.6172569 0.8464774 0.413412 0.8464774 0.6172569 0.6780132 0.6172569 0.6780132 0.413412 0.8464774 0.413412 1 0.809909 1 0.9776259 0.8427689 0.9776259 1 0.809909 0.8427689 0.9776259 0.8427689 0.809909 0.6780131 0.8088746 0.8464774 0.6182914 0.8464773 0.8088746 0.6780131 0.8088746 0.6780131 0.6182914 0.8464774 0.6182914 0.3390066 0.6589013 0.5074707 0.4400525 0.5074707 0.6589013 0.3390066 0.6589013 0.3390066 0.4400525 0.5074707 0.4400525 0.1695033 0.4402921 0.3379675 0.4402921 0.3379675 0.646018 0.1695033 0.4402921 0.3379675 0.646018 0.1695033 0.646018 0.6780132 0.809909 0.8417297 0.9776259 0.6780132 0.9776259 0.6780132 0.809909 0.8417297 0.809909 0.8417297 0.9776259 0 0.6601752 0.1684642 0.6601752 0.1684641 0.8443701 0 0.6601752 0.1684641 0.8443701 0 0.8443701 0.3390066 0.439018 0.5074708 0.2201461 0.5074707 0.439018 0.3390066 0.439018 0.3390066 0.2201461 0.5074708 0.2201461 0.5085099 0.2067601 0.6769741 0.2067602 0.6769741 0.4123776 0.5085099 0.2067601 0.6769741 0.4123776 0.5085099 0.4123776 0.1695033 0.4392576 0.3379675 0.2201462 0.3379675 0.4392577 0.1695033 0.4392576 0.1695033 0.2201462 0.3379675 0.2201462 0.5085098 0.6200619 0.6769741 0.620062 0.6769741 0.823909 0.5085098 0.6200619 0.6769741 0.823909 0.5085098 0.823909 0.1695033 0 0.3379675 0 0.3379675 0.2191116 0.1695033 0 0.3379675 0.2191116 0.1695033 0.2191116 0.6780132 0 0.8464774 0 0.8464774 0.2038471 0.6780132 0 0.8464774 0.2038471 0.6780132 0.2038471 0.1695033 0.832283 0.3267334 1 0.1695033 1 0.1695033 0.832283 0.3267334 0.832283 0.3267334 1 0.3390066 0.6599358 0.5074708 0.6599358 0.5074708 0.8505157 0.3390066 0.6599358 0.5074708 0.8505157 0.3390066 0.8505156 0 0.4402922 0.1684641 0.4402922 0.1684641 0.6591407 0 0.4402922 0.1684641 0.6591407 0 0.6591407 0.5085099 0.2057256 0.6769741 0 0.6769741 0.2057257 0.5085099 0.2057256 0.5085099 0 0.6769741 0 0.8717772 0.167717 0.8702881 0 0.8717772 0 0.8801371 0.3375031 0.8812022 0.5052201 0.8801371 0.5052201 0.8801372 0.1687515 0.8812461 0.3364685 0.8801372 0.3364685 0.851538 0.2201938 0.8500469 0.4393528 0.8500469 0.2201938 0.8515378 0.6595467 0.8500467 0.4403874 0.8515377 0.4403874 0.852577 0.2201937 0.8540681 0.4393528 0.852577 0.4393528 0.8551072 0.2201938 0.8565982 0.4393529 0.8551072 0.4393529 0.8752952 0.5062545 0.8767229 0.6739715 0.8752952 0.6739715 0.8728162 0.1687515 0.8742571 0.3364685 0.8728162 0.3364685 0.8742562 0.5052201 0.8728162 0.337503 0.8742562 0.337503 0.8591285 0.2139242 0.8576375 0.426814 0.8576373 0.2139243 0.866719 0.2128896 0.8652279 0 0.866719 0 0.8652281 0.2139242 0.8667191 0.4268139 0.8652283 0.4268139 0.881295 0.167717 0.88023 0 0.881295 0 0.8812014 0.6739715 0.8800924 0.5062545 0.8812014 0.5062545 0.869249 0.6739715 0.8677582 0.5062545 0.869249 0.5062545 0.8565981 0.2191592 0.8551071 1.27898e-7 0.8565981 0 0.8565982 0.6595466 0.8551071 0.4403874 0.8565982 0.4403874 0.8540679 0.4403874 0.8525769 0.6595466 0.8525768 0.4403874 0.8742572 0.167717 0.8728163 0 0.8742572 0 0.8728161 0.5062544 0.874256 0.6739714 0.8728161 0.6739714 0.8790981 0.3364685 0.8777632 0.1687515 0.8790981 0.1687515 0.8767241 0.3364685 0.8754338 0.1687515 0.8767241 0.1687515 0.8626978 0.2139242 0.8641889 0.4268139 0.8626978 0.4268139 0.866719 0.4278486 0.865228 0.6407383 0.865228 0.4278485 0.8601678 0.4268139 0.8616588 0.2139243 0.8616589 0.4268139 0.8576374 0.6407381 0.8591285 0.4278488 0.8591284 0.6407381 0.8677582 0.1687515 0.8692491 0.3364685 0.8677582 0.3364685 0.8677582 0 0.8692491 0.167717 0.8677582 0.167717 0.8475165 0.4403874 0.8490076 0.6595466 0.8475165 0.6595467 0.8475165 0 0.8490077 0.219159 0.8475165 0.2191591 0.8777632 0.337503 0.8790981 0.5052201 0.8777632 0.5052201 0.8777632 0.5062545 0.8790534 0.6739715 0.8777632 0.6739715 0.8791909 0.167717 0.8777633 0 0.8791909 0 0.8616588 0.6407381 0.8601678 0.4278485 0.8616588 0.4278485 0.8616588 0.2128897 0.8601677 4.08924e-7 0.8616588 0 0.862698 1.19333e-7 0.8641889 0.2128896 0.8626979 0.2128897 0.8692491 0.5052201 0.8677582 0.337503 0.8692491 0.337503 0.8717771 0.6739714 0.8702881 0.5062544 0.8717771 0.5062544 0.870288 0.1687515 0.8717771 0.3364685 0.870288 0.3364685 0.8490077 0.4393529 0.8475165 0.2201938 0.8490077 0.2201938 0.8500469 0 0.851538 0.2191591 0.8500469 0.2191591 0.852577 0 0.8540681 0.2191594 0.852577 0.2191594 0.8752954 0.337503 0.8767231 0.5052201 0.8752954 0.5052201 0.8767241 0.167717 0.8752962 0 0.8767241 0 0.864189 0.4278485 0.8626979 0.6407381 0.862698 0.4278485 0.8576374 0 0.8591284 0.2128897 0.8576374 0.2128897 0.8702881 0.337503 0.8717771 0.5052201 0.8702881 0.5052201 0.8717772 0.167717 0.8702881 0.167717 0.8702881 0 0.8801371 0.3375031 0.8812022 0.3375031 0.8812022 0.5052201 0.8801372 0.1687515 0.8812461 0.1687515 0.8812461 0.3364685 0.851538 0.2201938 0.851538 0.4393529 0.8500469 0.4393528 0.8515378 0.6595467 0.8500468 0.6595467 0.8500467 0.4403874 0.852577 0.2201937 0.8540681 0.2201938 0.8540681 0.4393528 0.8551072 0.2201938 0.8565982 0.2201938 0.8565982 0.4393529 0.8752952 0.5062545 0.8767229 0.5062545 0.8767229 0.6739715 0.8728162 0.1687515 0.8742571 0.1687515 0.8742571 0.3364685 0.8742562 0.5052201 0.8728162 0.5052201 0.8728162 0.337503 0.8591285 0.2139242 0.8591285 0.4268139 0.8576375 0.426814 0.866719 0.2128896 0.8652279 0.2128896 0.8652279 0 0.8652281 0.2139242 0.8667191 0.2139241 0.8667191 0.4268139 0.881295 0.167717 0.88023 0.167717 0.88023 0 0.8812014 0.6739715 0.8800924 0.6739715 0.8800924 0.5062545 0.869249 0.6739715 0.8677582 0.6739715 0.8677582 0.5062545 0.8565981 0.2191592 0.8551071 0.2191592 0.8551071 1.27898e-7 0.8565982 0.6595466 0.8551071 0.6595466 0.8551071 0.4403874 0.8540679 0.4403874 0.8540679 0.6595466 0.8525769 0.6595466 0.8742572 0.167717 0.8728163 0.167717 0.8728163 0 0.8728161 0.5062544 0.874256 0.5062544 0.874256 0.6739714 0.8790981 0.3364685 0.8777632 0.3364685 0.8777632 0.1687515 0.8767241 0.3364685 0.8754338 0.3364685 0.8754338 0.1687515 0.8626978 0.2139242 0.8641889 0.2139242 0.8641889 0.4268139 0.866719 0.4278486 0.8667189 0.6407383 0.865228 0.6407383 0.8601678 0.4268139 0.8601678 0.2139243 0.8616588 0.2139243 0.8576374 0.6407381 0.8576374 0.4278484 0.8591285 0.4278488 0.8677582 0.1687515 0.8692491 0.1687515 0.8692491 0.3364685 0.8677582 0 0.8692491 0 0.8692491 0.167717 0.8475165 0.4403874 0.8490077 0.4403874 0.8490076 0.6595466 0.8475165 0 0.8490076 0 0.8490077 0.219159 0.8777632 0.337503 0.8790981 0.337503 0.8790981 0.5052201 0.8777632 0.5062545 0.8790534 0.5062545 0.8790534 0.6739715 0.8791909 0.167717 0.8777633 0.167717 0.8777633 0 0.8616588 0.6407381 0.8601678 0.6407382 0.8601678 0.4278485 0.8616588 0.2128897 0.8601678 0.2128897 0.8601677 4.08924e-7 0.862698 1.19333e-7 0.864189 0 0.8641889 0.2128896 0.8692491 0.5052201 0.8677582 0.5052201 0.8677582 0.337503 0.8717771 0.6739714 0.8702881 0.6739714 0.8702881 0.5062544 0.870288 0.1687515 0.8717771 0.1687515 0.8717771 0.3364685 0.8490077 0.4393529 0.8475165 0.4393528 0.8475165 0.2201938 0.8500469 0 0.851538 0 0.851538 0.2191591 0.852577 0 0.8540681 1.40775e-7 0.8540681 0.2191594 0.8752954 0.337503 0.8767231 0.337503 0.8767231 0.5052201 0.8767241 0.167717 0.8752962 0.167717 0.8752962 0 0.864189 0.4278485 0.864189 0.6407381 0.8626979 0.6407381 0.8576374 0 0.8591286 1.21372e-7 0.8591284 0.2128897 0.8702881 0.337503 0.8717771 0.337503 0.8717771 0.5052201</float_array>
          <technique_common>
            <accessor source="#Cube_014-mesh-map-1-array" count="432" stride="2">
              <param name="S" type="float"/>
              <param name="T" type="float"/>
            </accessor>
          </technique_common>
        </source>
        <vertices id="Cube_014-mesh-vertices">
          <input semantic="POSITION" source="#Cube_014-mesh-positions"/>
        </vertices>
        <triangles material="hierva_choza_gaetuli-material" count="144">
          <input semantic="VERTEX" source="#Cube_014-mesh-vertices" offset="0"/>
          <input semantic="NORMAL" source="#Cube_014-mesh-normals" offset="1"/>
          <input semantic="TEXCOORD" source="#Cube_014-mesh-map-0" offset="2" set="0"/>
          <input semantic="TEXCOORD" source="#Cube_014-mesh-map-1" offset="2" set="1"/>
          <p>0 0 0 1 1 1 3 0 2 0 0 3 3 0 4 2 2 5 4 3 6 7 3 7 5 4 8 4 3 9 6 4 10 7 3 11 8 5 12 9 6 13 11 7 14 8 5 15 11 7 16 10 8 17 12 9 18 15 9 19 13 9 20 12 9 21 14 9 22 15 9 23 16 10 24 17 11 25 19 12 26 16 10 27 19 12 28 18 13 29 20 14 30 23 15 31 21 16 32 20 14 33 22 17 34 23 15 35 24 18 36 27 19 37 25 20 38 24 18 39 26 21 40 27 19 41 28 22 42 31 23 43 29 24 44 28 22 45 30 25 46 31 23 47 32 26 48 33 27 49 35 28 50 32 26 51 35 28 52 34 29 53 36 30 54 39 30 55 37 31 56 36 30 57 38 32 58 39 30 59 40 33 60 43 34 61 41 35 62 40 33 63 42 36 64 43 34 65 44 37 66 45 38 67 47 39 68 44 37 69 47 39 70 46 40 71 48 41 72 49 41 73 50 41 74 48 41 75 51 42 76 49 41 77 52 43 78 53 44 79 54 43 80 52 43 81 54 43 82 55 44 83 56 45 84 57 45 85 58 46 86 56 45 87 59 47 88 57 45 89 60 48 90 61 49 91 62 48 92 60 48 93 62 48 94 63 50 95 64 51 96 65 52 97 66 53 98 64 51 99 67 54 100 65 52 101 68 55 102 69 56 103 70 57 104 68 55 105 70 57 106 71 58 107 72 11 108 73 11 109 74 11 110 72 11 111 74 11 112 75 59 113 76 60 114 77 61 115 78 60 116 76 60 117 78 60 118 79 61 119 80 62 120 81 62 121 82 63 122 80 62 123 83 64 124 81 62 125 84 65 126 85 66 127 86 67 128 84 65 129 86 67 130 87 68 131 88 69 132 89 70 133 90 69 134 88 69 135 90 69 136 91 71 137 92 72 138 93 72 139 94 73 140 92 72 141 95 72 142 93 72 143 11 74 144 59 74 145 10 74 146 32 75 147 82 76 148 33 77 149 0 78 150 50 78 151 1 79 152 41 80 153 90 81 154 89 82 155 9 83 156 57 84 157 11 85 158 34 86 159 80 87 160 32 88 161 2 89 162 48 90 163 0 91 164 22 92 165 70 93 166 23 93 167 44 94 168 94 95 169 45 96 170 13 97 171 60 98 172 12 99 173 21 100 174 70 101 175 69 102 176 46 103 177 92 104 178 44 105 179 12 106 180 63 107 181 14 108 182 35 109 183 83 110 184 34 111 185 3 112 186 51 113 187 2 114 188 25 115 189 72 116 190 24 117 191 33 118 192 81 119 193 35 120 194 1 121 195 49 122 196 3 123 197 26 124 198 72 125 199 75 126 200 47 127 201 95 128 202 46 129 203 14 130 204 62 130 205 15 130 206 37 131 207 84 132 208 36 133 209 5 134 210 52 135 211 4 136 212 45 137 213 93 138 214 47 139 215 13 140 216 62 141 217 61 82 218 38 142 219 84 143 220 87 126 221 6 144 222 52 145 223 55 146 224 26 147 225 74 148 226 27 149 227 16 150 228 66 151 229 17 152 230 27 153 231 73 154 232 25 155 233 18 156 234 64 157 235 16 158 236 38 159 237 86 159 238 39 159 239 6 160 240 54 161 241 7 161 242 29 162 243 76 163 244 28 164 245 39 165 246 85 166 247 37 167 248 7 168 249 53 169 250 5 170 251 28 171 252 79 172 253 30 173 254 19 174 255 67 174 256 18 174 257 41 175 258 88 176 259 40 177 260 8 178 261 58 179 262 9 180 263 17 181 264 65 182 265 19 183 266 40 184 267 91 185 268 42 186 269 10 187 270 56 188 271 8 189 272 30 190 273 78 190 274 31 190 275 21 191 276 68 192 277 20 193 278 29 194 279 78 195 280 77 196 281 20 197 282 71 198 283 22 199 284 42 200 285 90 201 286 43 202 287 11 74 288 57 74 289 59 74 290 32 75 291 80 203 292 82 76 293 0 78 294 48 79 295 50 78 296 41 80 297 43 204 298 90 81 299 9 83 300 58 82 301 57 84 302 34 86 303 83 126 304 80 87 305 2 89 306 51 126 307 48 90 308 22 92 309 71 205 310 70 93 311 44 94 312 92 206 313 94 95 314 13 97 315 61 207 316 60 98 317 21 100 318 23 208 319 70 101 320 46 103 321 95 209 322 92 104 323 12 106 324 60 126 325 63 107 326 35 109 327 81 210 328 83 110 329 3 112 330 49 211 331 51 113 332 25 115 333 73 212 334 72 116 335 33 118 336 82 82 337 81 119 338 1 121 339 50 213 340 49 122 341 26 124 342 24 214 343 72 125 344 47 127 345 93 215 346 95 128 347 14 130 348 63 130 349 62 130 350 37 131 351 85 216 352 84 132 353 5 134 354 53 217 355 52 135 356 45 137 357 94 82 358 93 138 359 13 140 360 15 218 361 62 141 362 38 142 363 36 219 364 84 143 365 6 144 366 4 220 367 52 145 368 26 147 369 75 221 370 74 148 371 16 150 372 64 222 373 66 151 374 27 153 375 74 82 376 73 154 377 18 156 378 67 126 379 64 157 380 38 159 381 87 223 382 86 159 383 6 160 384 55 224 385 54 161 386 29 162 387 77 225 388 76 163 389 39 165 390 86 226 391 85 166 392 7 168 393 54 82 394 53 169 395 28 171 396 76 227 397 79 172 398 19 174 399 65 174 400 67 174 401 41 175 402 89 228 403 88 176 404 8 178 405 56 229 406 58 179 407 17 181 408 66 82 409 65 182 410 40 184 411 88 126 412 91 185 413 10 187 414 59 126 415 56 188 416 30 190 417 79 190 418 78 190 419 21 191 420 69 230 421 68 192 422 29 194 423 31 231 424 78 195 425 20 197 426 68 126 427 71 198 428 42 200 429 91 232 430 90 201 431</p>
        </triangles>
      </mesh>
    </geometry>
  </library_geometries>
  <library_visual_scenes>
    <visual_scene id="Scene" name="Scene">
      <node id="stable_camel_f" name="stable_camel_f" type="NODE">
        <matrix sid="transform">1 0 0 0 0 1 0 0 0 0 1 0 0 0 0 1</matrix>
        <instance_geometry url="#Cube_014-mesh" name="stable_camel_f">
          <bind_material>
            <technique_common>
              <instance_material symbol="hierva_choza_gaetuli-material" target="#hierva_choza_gaetuli-material">
                <bind_vertex_input semantic="Cube_014-mesh-map-0" input_semantic="TEXCOORD" input_set="0"/>
                <bind_vertex_input semantic="Cube_014-mesh-map-1" input_semantic="TEXCOORD" input_set="1"/>
              </instance_material>
            </technique_common>
          </bind_material>
        </instance_geometry>
        <node id="prop_garrisoned" name="prop_garrisoned" type="NODE">
          <matrix sid="transform">-0.7829416 1.18221e-7 0 5.35037e-14 -1.18221e-7 -0.7829416 0 5.033843 0 0 0.7829416 9.013988 0 0 0 1</matrix>
        </node>
        <node id="prop_projectile" name="prop_projectile" type="NODE">
          <matrix sid="transform">-0.7829416 1.18221e-7 0 5.35037e-14 -1.18221e-7 -0.7829416 0 5.033842 0 0 0.7829416 9.013988 0 0 0 1</matrix>
        </node>
      </node>
    </visual_scene>
  </library_visual_scenes>
  <scene>
    <instance_visual_scene url="#Scene"/>
  </scene>
</COLLADA>