<?xml version="1.0" encoding="utf-8"?>
<COLLADA xmlns="http://www.collada.org/2005/11/COLLADASchema" version="1.4.1" xmlns:xsi="http://www.w3.org/2001/XMLSchema-instance">
  <asset>
    <contributor>
      <author>Blender User</author>
      <authoring_tool>Blender 4.3.1 commit date:2024-12-10, commit time:07:46, hash:33d812126174</authoring_tool>
    </contributor>
    <created>2026-08-22T20:25:37</created>
    <modified>2026-08-22T20:25:37</modified>
    <unit name="meter" meter="1"/>
    <up_axis>Z_UP</up_axis>
  </asset>
  <library_effects>
    <effect id="hierva_choza_gaetuli-effect">
      <profile_COMMON>
        <technique sid="common">
          <lambert>
            <emission>
              <color sid="emission">0 0 0 1</color>
            </emission>
            <diffuse>
              <color sid="diffuse">0.8 0.8 0.8 1</color>
            </diffuse>
            <index_of_refraction>
              <float sid="ior">1.45</float>
            </index_of_refraction>
          </lambert>
        </technique>
      </profile_COMMON>
    </effect>
  </library_effects>
  <library_images/>
  <library_materials>
    <material id="hierva_choza_gaetuli-material" name="hierva choza gaetuli">
      <instance_effect url="#hierva_choza_gaetuli-effect"/>
    </material>
  </library_materials>
  <library_geometries>
    <geometry id="Cube_013-mesh" name="Cube.013">
      <mesh>
        <source id="Cube_013-mesh-positions">
          <float_array id="Cube_013-mesh-positions-array" count="288">10.78259 -8.760437 3.532159 10.78259 -8.760437 0.02975863 8.108986 -5.045919 3.532159 8.108986 -5.045919 0.02975863 10.76211 -5.028886 3.532159 10.76211 -5.028886 0.02975863 8.130228 -8.611862 3.532159 8.130228 -8.611862 0.02975863 -11.69019 10.9639 3.532159 -11.69019 10.9639 0.02975863 -8.944103 7.302644 3.532159 -8.944103 7.302644 0.02975863 -11.59638 7.233475 3.532159 -11.59638 7.233475 0.02975863 -9.035419 10.86748 3.532159 -9.035419 10.86748 0.02975863 -6.797379 -6.816265 3.532159 -6.797379 -6.816265 0.02975827 -3.996289 -10.43561 3.532159 -3.996289 -10.43561 0.02975827 -6.647221 -10.54485 3.532159 -6.647221 -10.54485 0.02975827 -4.141455 -6.872564 3.532159 -4.141455 -6.872564 0.02975827 2.972962 -0.1189082 3.532159 2.972962 -0.1189082 0.02975827 5.774053 -3.738255 3.532159 5.774053 -3.738255 0.02975827 3.123122 -3.847492 3.532159 3.123122 -3.847492 0.02975827 5.628886 -0.1752074 3.532159 5.628886 -0.1752074 0.02975827 11.13898 10.95206 3.532159 11.13898 10.95206 0.02975863 7.403318 8.30809 3.532159 7.403318 8.30809 0.02975863 7.40739 10.96127 3.532159 7.40739 10.96127 0.02975863 10.96931 8.300964 3.532159 10.96931 8.300964 0.02975863 10.78259 -8.760437 3.532159 10.78259 -8.760437 0.02975863 8.108986 -5.045919 3.532159 8.108986 -5.045919 0.02975863 10.76211 -5.028886 3.532159 10.76211 -5.028886 0.02975863 8.130228 -8.611862 3.532159 8.130228 -8.611862 0.02975863 10.75743 -8.778547 3.532159 8.083827 -5.064029 0.02975863 10.75743 -8.778547 0.02975863 8.083827 -5.064029 3.532159 10.78709 -5.047238 3.532159 8.15521 -8.630212 0.02975863 10.78709 -5.047238 0.02975863 8.15521 -8.630212 3.532159 -11.66539 10.9825 3.532159 -8.919302 7.321245 0.02975863 -11.66539 10.9825 0.02975863 -8.919302 7.321245 3.532159 -11.57104 7.215617 3.532159 -11.57104 7.215617 0.02975863 -9.01008 10.84962 0.02975863 -9.01008 10.84962 3.532159 -6.772863 -6.797292 3.532159 -3.971774 -10.41664 0.02975827 -6.772863 -6.797292 0.02975827 -3.971774 -10.41664 3.532159 -6.621614 -10.56232 3.532159 -6.621614 -10.56232 0.02975827 -4.115849 -6.890038 0.02975827 -4.115849 -6.890038 3.532159 2.948446 -0.1378813 3.532159 2.948446 -0.1378813 0.02975827 5.749537 -3.757228 0.02975827 5.749537 -3.757228 3.532159 3.148729 -3.864965 3.532159 3.148729 -3.864965 0.02975827 5.654493 -0.1926801 0.02975827 5.654493 -0.1926801 3.532159 11.15689 10.92675 3.532159 7.421227 8.282786 0.02975863 11.15689 10.92675 0.02975863 7.421227 8.282786 3.532159 7.388839 10.93643 3.532159 7.388839 10.93643 0.02975863 10.95076 8.276125 0.02975863 10.95076 8.276125 3.532159 10.75743 -8.778547 3.532159 8.083827 -5.064029 0.02975863 10.75743 -8.778547 0.02975863 8.083827 -5.064029 3.532159 10.78709 -5.047238 3.532159 8.15521 -8.630212 0.02975863 10.78709 -5.047238 0.02975863 8.15521 -8.630212 3.532159</float_array>
          <technique_common>
            <accessor source="#Cube_013-mesh-positions-array" count="96" stride="3">
              <param name="X" type="float"/>
              <param name="Y" type="float"/>
              <param name="Z" type="float"/>
            </accessor>
          </technique_common>
        </source>
        <source id="Cube_013-mesh-normals">
          <float_array id="Cube_013-mesh-normals-array" count="573">0.8116223 0.5841825 0 0.8116224 0.5841825 0 0.8116224 0.5841826 0 -0.8059363 0.5920023 0 -0.8059365 0.5920022 0 -0.8059362 0.5920023 0 -0.8059362 0.5920025 0 -0.7999848 -0.6000204 0 -0.7999848 -0.6000204 0 -0.7999847 -0.6000204 0 -0.7999847 -0.6000205 0 -0.8174148 0.5760496 0 -0.8174147 0.5760496 0 -0.8174149 0.5760495 0 -0.8174147 0.5760499 0 -0.7908278 -0.6120389 0 -0.7908277 -0.6120389 0 -0.8260247 0.5636339 0 -0.8260247 0.563634 0 -0.8260248 0.5636339 0 -0.8260247 0.5636339 0 0.7908278 0.6120388 0 0.7908277 0.6120389 0 0.7908278 0.6120389 0 -0.8260248 0.5636338 0 -0.8260248 0.5636338 0 -0.5777084 0.8162434 0 -0.5777083 0.8162433 0 -0.5777084 0.8162432 0 -0.5777084 0.8162432 0 0.598396 0.8012006 0 0.598396 0.8012005 0 0.5983959 0.8012007 0 -0.8116223 -0.5841825 0 -0.8116224 -0.5841825 0 -0.8116224 -0.5841826 0 -0.8116225 -0.5841825 0 0.8059365 -0.592002 0 0.7999846 0.6000205 0 0.7999846 0.6000205 0 0.7999847 0.6000204 0 0.7999845 0.6000206 0 0.8174145 -0.5760499 0 0.8174145 -0.57605 0 0.8174146 -0.5760498 0 0.7908281 0.6120384 0 0.7908281 0.6120384 0 0.790828 0.6120386 0 0.7908281 0.6120383 0 0.8260246 -0.5636342 0 0.8260245 -0.5636343 0 0.8260247 -0.5636342 0 -0.7908278 -0.6120388 0 -0.7908278 -0.6120389 0 0.826025 -0.5636337 0 0.826025 -0.5636336 0 0.8260249 -0.5636337 0 0.5777074 -0.816244 0 0.5777073 -0.816244 0 0.5777075 -0.8162439 0 0.5777072 -0.8162441 0 -0.5983957 -0.8012008 0 -0.5983958 -0.8012008 0 -0.6000047 0.7999965 0 -0.6000046 0.7999967 0 -0.6000046 0.7999966 0 0 0 -1 0 0 -1 0 0 -1 0 0 1 -2.3008e-6 0 1 -2.31075e-6 0 1 0 0 1 3.13731e-6 0 1 3.15092e-6 0 1 0.5636239 0.8260317 0 0.5636561 0.8260096 0 0.5636563 0.8260095 0 -0.5635903 -0.8260545 0 -0.5635742 -0.8260655 0 -0.5635741 -0.8260655 0 0 0 -1 0 0 -1 0 0 -1 0 0 1 3.44457e-6 0 1 3.45997e-6 0 1 -0.5842043 0.8116067 0 -0.5842372 0.811583 0 -0.5842373 0.8115829 0 0.6000243 -0.7999818 0 0.6000244 -0.7999818 0 0.6000244 -0.7999818 0 0.8162884 0.5776446 0 0.8162884 0.5776447 0 0.5841838 -0.8116215 0 0.5841838 -0.8116216 0 0 0 -1 0 0 -1 0 0 -1 0 0 -1 0 0 -1 0 0 1 4.18229e-7 0 1 4.20038e-7 0 1 0.5636744 0.8259971 0 0.5636745 0.8259972 0 0.5920796 0.8058795 0 0.5920798 0.8058794 0 0.5920797 0.8058794 0 -0.5760828 -0.8173913 0 -0.5760827 -0.8173915 0 -0.5760828 -0.8173915 0 0 0 -1 0 0 -1 0 0 1 -1.39946e-6 0 1 -1.40571e-6 0 1 0 0 1 -7.64243e-6 0 1 0 0 1 -0.8162599 -0.5776849 0 -0.8162435 -0.5777081 0 -0.8162434 -0.5777083 0 -0.6120411 0.790826 0 -0.6120327 0.7908325 0 -0.6120327 0.7908326 0 0 0 -1 0 0 -1 0 0 1 -3.66012e-6 0 1 -0.5919994 -0.8059384 0 -0.5919994 -0.8059384 0 0.5760972 0.8173813 0 0.5761135 0.8173698 0 0.5761136 0.8173696 0 -0.8012194 0.5983706 0 -0.8012195 0.5983707 0 0 0 -1 0 0 -1 0 0 -1 0 0 -1 0 0 -1 0 0 -1 1.37723e-5 0 1 -1.12268e-6 0 1 -1.18922e-6 0 1 0.6120261 -0.7908376 0 -0.6120358 0.7908302 0 -0.6120358 0.7908301 0 0 0 -1 0 0 -1 0 0 -1 0 0 1 3.86957e-6 0 1 0.8012087 -0.5983852 0 0.8012419 -0.5983405 0 0.8012422 -0.5983403 0 -0.56364 -0.8260206 0 -0.5636319 -0.8260262 0 -0.5636318 -0.8260262 0 0 0 -1 0 0 -1 0 0 1 5.92034e-7 0 1 5.94674e-7 0 1 0.6119866 -0.7908682 0 0.6120035 -0.7908551 0 0.6120036 -0.7908551 0 0.5636237 0.8260318 0 -0.5635905 -0.8260545 0 -0.584204 0.8116069 0 0 0 -1 0 0 -1 0.5920796 0.8058795 0 -0.5760828 -0.8173914 0 0 0 -1 -7.67651e-6 0 1 -0.81626 -0.5776848 0 -0.6120411 0.790826 0 0 0 -1 -3.67601e-6 0 1 0.5760971 0.8173813 0 0 0 -1 1.38389e-5 0 1 0.6120262 -0.7908376 0 3.88633e-6 0 1 0.8012085 -0.5983854 0 -0.56364 -0.8260205 0 0 0 -1 0.6119865 -0.7908682 0</float_array>
          <technique_common>
            <accessor source="#Cube_013-mesh-normals-array" count="191" stride="3">
              <param name="X" type="float"/>
              <param name="Y" type="float"/>
              <param name="Z" type="float"/>
            </accessor>
          </technique_common>
        </source>
        <source id="Cube_013-mesh-map-0">
          <float_array id="Cube_013-mesh-map-0-array" count="864">0.9984335 0.6838312 1.000765 0.001214206 0.001161634 6.92369e-4 0.9984335 0.6838312 0.001161634 6.92369e-4 5.39125e-4 0.6833093 0.9984335 0.6838312 1.000765 0.001214206 0.001161634 6.92369e-4 0.9984335 0.6838312 0.001161634 6.92369e-4 5.39125e-4 0.6833093 0.9984335 0.6838312 1.000765 0.001214206 0.001161634 6.92369e-4 0.9984335 0.6838312 0.001161634 6.92369e-4 5.39125e-4 0.6833093 0.9984335 0.6838312 0.001161634 6.92369e-4 1.000765 0.001214206 0.9984335 0.6838312 5.39125e-4 0.6833093 0.001161634 6.92369e-4 0.9984335 0.6838312 1.000765 0.001214206 0.001161634 6.92369e-4 0.9984335 0.6838312 0.001161634 6.92369e-4 5.39125e-4 0.6833093 0.9984335 0.6838312 0.001161634 6.92369e-4 1.000765 0.001214206 0.9984335 0.6838312 5.39125e-4 0.6833093 0.001161634 6.92369e-4 0.9984335 0.6838312 0.001161634 6.92369e-4 1.000765 0.001214206 0.9984335 0.6838312 5.39125e-4 0.6833093 0.001161634 6.92369e-4 0.9984335 0.6838312 0.001161634 6.92369e-4 1.000765 0.001214206 0.9984335 0.6838312 5.39125e-4 0.6833093 0.001161634 6.92369e-4 0.9984335 0.6838312 1.000765 0.001214206 0.001161634 6.92369e-4 0.9984335 0.6838312 0.001161634 6.92369e-4 5.39125e-4 0.6833093 0.9984335 0.6838312 0.001161634 6.92369e-4 1.000765 0.001214206 0.9984335 0.6838312 5.39125e-4 0.6833093 0.001161634 6.92369e-4 0.9984335 0.6838312 1.000765 0.001214206 0.001161634 6.92369e-4 0.9984335 0.6838312 0.001161634 6.92369e-4 5.39125e-4 0.6833093 0.9984335 0.6838312 1.000765 0.001214206 0.001161634 6.92369e-4 0.9984335 0.6838312 0.001161634 6.92369e-4 5.39125e-4 0.6833093 0.9984335 0.6838312 0.001161634 6.92369e-4 1.000765 0.001214206 0.9984335 0.6838312 5.39125e-4 0.6833093 0.001161634 6.92369e-4 0.9984335 0.6838312 0.001161634 6.92369e-4 1.000765 0.001214206 0.9984335 0.6838312 5.39125e-4 0.6833093 0.001161634 6.92369e-4 0.9984335 0.6838312 0.001161634 6.92369e-4 1.000765 0.001214206 0.9984335 0.6838312 5.39125e-4 0.6833093 0.001161634 6.92369e-4 0.9984335 0.6838312 1.000765 0.001214206 0.001161634 6.92369e-4 0.9984335 0.6838312 0.001161634 6.92369e-4 5.39125e-4 0.6833093 0.9984335 0.6838312 0.001161634 6.92369e-4 1.000765 0.001214206 0.9984335 0.6838312 5.39125e-4 0.6833093 0.001161634 6.92369e-4 0.9984335 0.6838312 1.000765 0.001214206 0.001161634 6.92369e-4 0.9984335 0.6838312 0.001161634 6.92369e-4 5.39125e-4 0.6833093 0.9984335 0.6838312 1.000765 0.001214206 0.001161634 6.92369e-4 0.9984335 0.6838312 0.001161634 6.92369e-4 5.39125e-4 0.6833093 0.9984335 0.6838312 1.000765 0.001214206 0.001161634 6.92369e-4 0.9984335 0.6838312 0.001161634 6.92369e-4 5.39125e-4 0.6833093 0.9984335 0.6838312 0.001161634 6.92369e-4 1.000765 0.001214206 0.9984335 0.6838312 5.39125e-4 0.6833093 0.001161634 6.92369e-4 0.9984335 0.6838312 1.000765 0.001214206 0.001161634 6.92369e-4 0.9984335 0.6838312 0.001161634 6.92369e-4 5.39125e-4 0.6833093 0.9984335 0.6838312 0.001161634 6.92369e-4 1.000765 0.001214206 0.9984335 0.6838312 5.39125e-4 0.6833093 0.001161634 6.92369e-4 0.9984335 0.6838312 0.001161634 6.92369e-4 1.000765 0.001214206 0.9984335 0.6838312 5.39125e-4 0.6833093 0.001161634 6.92369e-4 0.9984335 0.6838312 1.000765 0.001214206 1.000765 0.001214206 1.000765 0.001214206 0.001161634 6.92369e-4 0.001161634 6.92369e-4 5.39125e-4 0.6833093 0.9984335 0.6838312 0.9984335 0.6838312 5.39125e-4 0.6833093 0.9984335 0.6838312 0.9984335 0.6838312 5.39125e-4 0.6833093 0.001161634 6.92369e-4 0.001161634 6.92369e-4 1.000765 0.001214206 0.9984335 0.6838312 0.9984335 0.6838312 0.001161634 6.92369e-4 1.000765 0.001214206 1.000765 0.001214206 0.9984335 0.6838312 5.39125e-4 0.6833093 5.39125e-4 0.6833093 0.001161634 6.92369e-4 5.39125e-4 0.6833093 5.39125e-4 0.6833093 0.001161634 6.92369e-4 5.39125e-4 0.6833093 5.39125e-4 0.6833093 0.9984335 0.6838312 1.000765 0.001214206 1.000765 0.001214206 0.9984335 0.6838312 1.000765 0.001214206 1.000765 0.001214206 0.001161634 6.92369e-4 1.000765 0.001214206 0.001161634 6.92369e-4 0.001161634 6.92369e-4 1.000765 0.001214206 0.001161634 6.92369e-4 5.39125e-4 0.6833093 0.9984335 0.6838312 0.9984335 0.6838312 5.39125e-4 0.6833093 0.9984335 0.6838312 0.9984335 0.6838312 5.39125e-4 0.6833093 0.001161634 6.92369e-4 0.001161634 6.92369e-4 0.9984335 0.6838312 1.000765 0.001214206 1.000765 0.001214206 1.000765 0.001214206 0.9984335 0.6838312 0.9984335 0.6838312 1.000765 0.001214206 0.001161634 6.92369e-4 1.000765 0.001214206 5.39125e-4 0.6833093 0.9984335 0.6838312 0.9984335 0.6838312 5.39125e-4 0.6833093 0.9984335 0.6838312 5.39125e-4 0.6833093 0.001161634 6.92369e-4 5.39125e-4 0.6833093 5.39125e-4 0.6833093 0.001161634 6.92369e-4 5.39125e-4 0.6833093 5.39125e-4 0.6833093 1.000765 0.001214206 0.9984335 0.6838312 0.9984335 0.6838312 0.001161634 6.92369e-4 1.000765 0.001214206 0.001161634 6.92369e-4 0.001161634 6.92369e-4 1.000765 0.001214206 0.001161634 6.92369e-4 5.39125e-4 0.6833093 0.9984335 0.6838312 5.39125e-4 0.6833093 0.001161634 6.92369e-4 5.39125e-4 0.6833093 5.39125e-4 0.6833093 5.39125e-4 0.6833093 0.001161634 6.92369e-4 0.001161634 6.92369e-4 1.000765 0.001214206 0.9984335 0.6838312 0.9984335 0.6838312 0.9984335 0.6838312 1.000765 0.001214206 1.000765 0.001214206 0.001161634 6.92369e-4 1.000765 0.001214206 0.001161634 6.92369e-4 0.001161634 6.92369e-4 1.000765 0.001214206 1.000765 0.001214206 0.9984335 0.6838312 5.39125e-4 0.6833093 5.39125e-4 0.6833093 5.39125e-4 0.6833093 0.9984335 0.6838312 0.9984335 0.6838312 5.39125e-4 0.6833093 0.001161634 6.92369e-4 0.001161634 6.92369e-4 0.9984335 0.6838312 1.000765 0.001214206 1.000765 0.001214206 0.001161634 6.92369e-4 1.000765 0.001214206 1.000765 0.001214206 0.9984335 0.6838312 5.39125e-4 0.6833093 0.9984335 0.6838312 5.39125e-4 0.6833093 0.001161634 6.92369e-4 0.001161634 6.92369e-4 0.001161634 6.92369e-4 5.39125e-4 0.6833093 5.39125e-4 0.6833093 1.000765 0.001214206 0.9984335 0.6838312 0.9984335 0.6838312 1.000765 0.001214206 0.001161634 6.92369e-4 1.000765 0.001214206 0.001161634 6.92369e-4 1.000765 0.001214206 0.001161634 6.92369e-4 0.9984335 0.6838312 5.39125e-4 0.6833093 5.39125e-4 0.6833093 0.001161634 6.92369e-4 5.39125e-4 0.6833093 5.39125e-4 0.6833093 0.9984335 0.6838312 1.000765 0.001214206 1.000765 0.001214206 0.9984335 0.6838312 0.9984335 0.6838312 1.000765 0.001214206 1.000765 0.001214206 1.000765 0.001214206 0.001161634 6.92369e-4 5.39125e-4 0.6833093 5.39125e-4 0.6833093 0.9984335 0.6838312 5.39125e-4 0.6833093 5.39125e-4 0.6833093 0.9984335 0.6838312 5.39125e-4 0.6833093 5.39125e-4 0.6833093 0.001161634 6.92369e-4 1.000765 0.001214206 1.000765 0.001214206 0.9984335 0.6838312 0.001161634 6.92369e-4 0.001161634 6.92369e-4 1.000765 0.001214206 0.9984335 0.6838312 0.9984335 0.6838312 5.39125e-4 0.6833093 0.001161634 6.92369e-4 0.001161634 6.92369e-4 5.39125e-4 0.6833093 0.001161634 6.92369e-4 0.001161634 6.92369e-4 5.39125e-4 0.6833093 0.9984335 0.6838312 0.9984335 0.6838312 1.000765 0.001214206 0.9984335 0.6838312 0.9984335 0.6838312 1.000765 0.001214206 0.001161634 6.92369e-4 1.000765 0.001214206 1.000765 0.001214206 0.001161634 6.92369e-4 1.000765 0.001214206 1.000765 0.001214206 5.39125e-4 0.6833093 5.39125e-4 0.6833093 0.9984335 0.6838312 5.39125e-4 0.6833093 5.39125e-4 0.6833093 0.9984335 0.6838312 5.39125e-4 0.6833093 5.39125e-4 0.6833093 0.001161634 6.92369e-4 0.9984335 0.6838312 0.9984335 0.6838312 1.000765 0.001214206 1.000765 0.001214206 1.000765 0.001214206 0.9984335 0.6838312 1.000765 0.001214206 0.001161634 6.92369e-4 0.001161634 6.92369e-4 5.39125e-4 0.6833093 5.39125e-4 0.6833093 0.9984335 0.6838312 5.39125e-4 0.6833093 0.9984335 0.6838312 0.9984335 0.6838312 0.001161634 6.92369e-4 0.001161634 6.92369e-4 5.39125e-4 0.6833093 0.001161634 6.92369e-4 0.001161634 6.92369e-4 5.39125e-4 0.6833093 1.000765 0.001214206 1.000765 0.001214206 0.9984335 0.6838312 0.001161634 6.92369e-4 1.000765 0.001214206 1.000765 0.001214206 0.001161634 6.92369e-4 1.000765 0.001214206 1.000765 0.001214206 5.39125e-4 0.6833093 0.9984335 0.6838312 0.9984335 0.6838312 0.001161634 6.92369e-4 0.001161634 6.92369e-4 5.39125e-4 0.6833093 5.39125e-4 0.6833093 5.39125e-4 0.6833093 0.001161634 6.92369e-4 1.000765 0.001214206 1.000765 0.001214206 0.9984335 0.6838312 0.9984335 0.6838312 0.9984335 0.6838312 1.000765 0.001214206 0.001161634 6.92369e-4 1.000765 0.001214206 1.000765 0.001214206 0.001161634 6.92369e-4 0.001161634 6.92369e-4 1.000765 0.001214206 0.9984335 0.6838312 0.9984335 0.6838312 5.39125e-4 0.6833093 5.39125e-4 0.6833093 5.39125e-4 0.6833093 0.9984335 0.6838312 5.39125e-4 0.6833093 5.39125e-4 0.6833093 0.001161634 6.92369e-4 0.9984335 0.6838312 0.9984335 0.6838312 1.000765 0.001214206 0.001161634 6.92369e-4 0.001161634 6.92369e-4 1.000765 0.001214206 0.9984335 0.6838312 5.39125e-4 0.6833093 5.39125e-4 0.6833093 5.39125e-4 0.6833093 5.39125e-4 0.6833093 0.001161634 6.92369e-4 0.001161634 6.92369e-4 0.001161634 6.92369e-4 5.39125e-4 0.6833093 1.000765 0.001214206 1.000765 0.001214206 0.9984335 0.6838312 1.000765 0.001214206 0.001161634 6.92369e-4 0.001161634 6.92369e-4 0.001161634 6.92369e-4 1.000765 0.001214206 1.000765 0.001214206 0.9984335 0.6838312 0.9984335 0.6838312 5.39125e-4 0.6833093 0.001161634 6.92369e-4 0.001161634 6.92369e-4 5.39125e-4 0.6833093 0.9984335 0.6838312 0.9984335 0.6838312 1.000765 0.001214206</float_array>
          <technique_common>
            <accessor source="#Cube_013-mesh-map-0-array" count="432" stride="2">
              <param name="S" type="float"/>
              <param name="T" type="float"/>
            </accessor>
          </technique_common>
        </source>
        <source id="Cube_013-mesh-map-1">
          <float_array id="Cube_013-mesh-map-1-array" count="864">0 0.4320734 0.1633124 0.4320735 0.1633124 0.6459042 0 0.4320734 0.1633124 0.6459042 0 0.6459042 0.6574143 0.4197871 0.8207268 0.4197871 0.8207268 0.6283901 0.6574143 0.4197871 0.8207268 0.6283901 0.6574143 0.6283901 0.3287072 0.4316063 0.4920196 0.4316063 0.4920196 0.6461167 0.3287072 0.4316063 0.4920196 0.6461167 0.3287071 0.6461167 0.1643536 0.8549346 0.327666 0.6469627 0.327666 0.8549346 0.1643536 0.8549346 0.1643536 0.6469627 0.327666 0.6469627 0.3287072 0 0.4920196 0 0.4920196 0.2149776 0.3287072 0 0.4920196 0.2149776 0.3287071 0.2149776 0.8217679 0.2074323 0.9850803 1.30626e-7 0.9850803 0.2074323 0.8217679 0.2074323 0.8217679 0 0.9850803 1.30626e-7 0 0.2149788 0.1633124 0 0.1633124 0.2149788 0 0.2149788 0 0 0.1633124 0 0.8217678 0.4159229 0.9850802 0.2084908 0.9850801 0.4159229 0.8217678 0.4159229 0.8217678 0.2084907 0.9850802 0.2084908 0.4930607 0.4316062 0.6563732 0.4316062 0.6563731 0.6451361 0.4930607 0.4316062 0.6563731 0.6451361 0.4930607 0.6451361 0.6574143 0.4187285 0.8207267 0.2098941 0.8207267 0.4187286 0.6574143 0.4187285 0.6574143 0.2098941 0.8207267 0.2098941 0.1643536 0.4320735 0.327666 0.4320735 0.327666 0.6459042 0.1643536 0.4320735 0.327666 0.6459042 0.1643536 0.6459042 0.6574143 0.6294487 0.8207268 0.6294487 0.8207268 0.8380518 0.6574143 0.6294487 0.8207268 0.8380518 0.6574143 0.8380518 0.4930607 0.2138293 0.6563732 0 0.6563732 0.2138293 0.4930607 0.2138293 0.4930607 0 0.6563732 0 0.4930607 0.8547972 0.6563731 0.6461946 0.6563731 0.8547973 0.4930607 0.8547972 0.4930607 0.6461946 0.6563731 0.6461946 0.3287071 0.4305478 0.4920195 0.2160361 0.4920195 0.4305478 0.3287071 0.4305478 0.3287072 0.2160361 0.4920195 0.2160361 0.3287071 0.6471752 0.4920195 0.6471752 0.4920195 0.8551467 0.3287071 0.6471752 0.4920195 0.8551467 0.3287071 0.8551466 0.1643536 0.2149787 0.327666 0 0.327666 0.2149788 0.1643536 0.2149787 0.1643536 0 0.327666 0 0.8217678 0.6254716 0.9850803 0.6254716 0.9850802 0.8329033 0.8217678 0.6254716 0.9850802 0.8329033 0.8217678 0.8329033 0 0.2160373 0.1633124 0.2160373 0.1633124 0.431015 0 0.2160373 0.1633124 0.431015 0 0.431015 0.8217678 0.4169814 0.9850801 0.4169814 0.9850801 0.6244131 0.8217678 0.4169814 0.9850801 0.6244131 0.8217678 0.6244131 0.1643536 0.4295675 0.327666 0.2160373 0.327666 0.4295675 0.1643536 0.4295675 0.1643536 0.2160373 0.327666 0.2160373 0.6574143 0 0.8207268 0 0.8207267 0.2088356 0.6574143 0 0.8207267 0.2088356 0.6574143 0.2088356 0.4930607 0.4287173 0.6563732 0.2148879 0.6563732 0.4287173 0.4930607 0.4287173 0.4930607 0.2148879 0.6563732 0.2148879 0 0.8555653 0.1633124 0.6469627 0.1633124 0.8555653 0 0.8555653 0 0.6469627 0.1633124 0.6469627 0.8489649 0.8339617 0.850394 1 0.8489649 1 0.9925403 0.2169655 0.9910949 0 0.9925403 1.76834e-7 0.9900536 0.6530132 0.9886081 0.4360476 0.9900535 0.4360476 0.9861214 0.4360477 0.9875669 0.6530132 0.9861214 0.6530132 0.8736243 0.8339617 0.8750469 1 0.8736243 1 0.8799743 1 0.8785517 0.8339617 0.8799743 0.8339617 0.9950271 0.4349893 0.9935817 0.2242305 0.9950271 0.2242305 0.996068 1.56988e-7 0.9975135 0.2107589 0.996068 0.2107589 0.8627259 1 0.8613014 0.8339617 0.8627259 0.8339617 0.8479238 1 0.8464946 0.8339617 0.8479238 0.8339617 0.8662328 0.8339617 0.8676555 1 0.8662328 1 0.85637 0.8339617 0.8577945 1 0.85637 1 0.9935814 0.2169656 0.9950268 0 0.9950268 0.2169655 0.987567 0.6540718 0.9861215 0.8710373 0.9861215 0.6540718 0.9861217 0.2180238 0.9875672 0.434989 0.9861215 0.4349892 0.9900535 0.8710373 0.9886081 0.6540718 0.9900535 0.6540718 0.8686966 0.8339617 0.8701193 1 0.8686966 1 0.8415513 0.8339617 0.8429818 1 0.8415513 1 0.8528614 1 0.851435 0.8339617 0.8528614 0.8339617 0.9975134 0.4360477 0.9960679 0.6468065 0.996068 0.4360478 0.9985545 0 0.9999999 0.2107586 0.9985546 0.2107588 0.9935817 0.8648306 0.9950271 0.6540719 0.9950271 0.8648305 0.8775106 1 0.876088 0.8339617 0.8775106 0.8339617 0.8651916 1 0.8637671 0.8339617 0.8651916 0.8339617 0.8281469 1 0.8267146 0.8339617 0.8281469 0.8339617 0.9875668 0 0.9861214 0.2169652 0.9861214 0 0.9935814 0.6530133 0.9950268 0.4360477 0.9950268 0.6530132 0.9925402 0.6540718 0.9910947 0.8710373 0.9910947 0.6540718 0.8380386 1 0.836608 0.8339617 0.8380386 0.8339617 0.8539025 0.8339617 0.8553289 1 0.8539025 1 0.8232002 1 0.8217679 0.8339617 0.8232002 0.8339617 0.8440229 0.8339617 0.8454535 1 0.8440229 1 0.9999998 0.4360476 0.9985544 0.6468062 0.9985544 0.4360476 0.9975134 0.8648304 0.9960679 0.6540718 0.9975134 0.6540718 0.9925404 0.4349891 0.9910948 0.2242305 0.9925404 0.2242305 0.9985547 0.2242305 1 0.434989 0.9985548 0.4349892 0.829188 0.8339617 0.8306202 1 0.829188 1 0.8316614 0.8339617 0.8330936 1 0.8316614 1 0.9910947 0.4360477 0.9925402 0.6530132 0.9910947 0.6530132 0.9886084 0.2169655 0.9900537 0 0.9900538 0.2169655 0.8242412 0.8339617 0.8256735 1 0.8242412 1 0.8405103 1 0.8390796 0.8339617 0.8405103 0.8339617 0.8725832 1 0.8711605 0.8339617 0.8725832 0.8339617 0.9886083 0.4349892 0.9900538 0.2242305 0.9900538 0.4349891 0.9999999 0.6540718 0.9985545 0.8648304 0.9985545 0.6540719 0.9960682 0.2242304 0.9975137 0.4349892 0.9960682 0.4349892 0.8355669 1 0.8341347 0.8339617 0.8355669 0.8339617 0.8588357 0.8339617 0.8602602 1 0.8588357 1 0.8489649 0.8339617 0.850394 0.8339617 0.850394 1 0.9925403 0.2169655 0.9910948 0.2169655 0.9910949 0 0.9900536 0.6530132 0.9886081 0.6530132 0.9886081 0.4360476 0.9861214 0.4360477 0.9875669 0.4360477 0.9875669 0.6530132 0.8736243 0.8339617 0.8750469 0.8339617 0.8750469 1 0.8799743 1 0.8785517 1 0.8785517 0.8339617 0.9950271 0.4349893 0.9935817 0.4349893 0.9935817 0.2242305 0.996068 1.56988e-7 0.9975134 2.55802e-7 0.9975135 0.2107589 0.8627259 1 0.8613014 1 0.8613014 0.8339617 0.8479238 1 0.8464946 1 0.8464946 0.8339617 0.8662328 0.8339617 0.8676555 0.8339617 0.8676555 1 0.85637 0.8339617 0.8577945 0.8339617 0.8577945 1 0.9935814 0.2169656 0.9935814 0 0.9950268 0 0.987567 0.6540718 0.987567 0.8710373 0.9861215 0.8710373 0.9861217 0.2180238 0.9875672 0.2180238 0.9875672 0.434989 0.9900535 0.8710373 0.9886081 0.8710373 0.9886081 0.6540718 0.8686966 0.8339617 0.8701193 0.8339617 0.8701193 1 0.8415513 0.8339617 0.8429818 0.8339617 0.8429818 1 0.8528614 1 0.851435 1 0.851435 0.8339617 0.9975134 0.4360477 0.9975134 0.6468065 0.9960679 0.6468065 0.9985545 0 1 1.2014e-7 0.9999999 0.2107586 0.9935817 0.8648306 0.9935817 0.6540719 0.9950271 0.6540719 0.8775106 1 0.876088 1 0.876088 0.8339617 0.8651916 1 0.8637671 1 0.8637671 0.8339617 0.8281469 1 0.8267146 1 0.8267146 0.8339617 0.9875668 0 0.9875671 0.2169653 0.9861214 0.2169652 0.9935814 0.6530133 0.9935814 0.4360477 0.9950268 0.4360477 0.9925402 0.6540718 0.9925402 0.8710373 0.9910947 0.8710373 0.8380386 1 0.836608 1 0.836608 0.8339617 0.8539025 0.8339617 0.8553289 0.8339617 0.8553289 1 0.8232002 1 0.8217679 1 0.8217679 0.8339617 0.8440229 0.8339617 0.8454535 0.8339617 0.8454535 1 0.9999998 0.4360476 0.9999997 0.6468064 0.9985544 0.6468062 0.9975134 0.8648304 0.9960678 0.8648303 0.9960679 0.6540718 0.9925404 0.4349891 0.9910948 0.4349891 0.9910948 0.2242305 0.9985547 0.2242305 1 0.2242305 1 0.434989 0.829188 0.8339617 0.8306202 0.8339617 0.8306202 1 0.8316614 0.8339617 0.8330936 0.8339617 0.8330936 1 0.9910947 0.4360477 0.9925402 0.4360477 0.9925402 0.6530132 0.9886084 0.2169655 0.9886083 1.36195e-7 0.9900537 0 0.8242412 0.8339617 0.8256735 0.8339617 0.8256735 1 0.8405103 1 0.8390796 1 0.8390796 0.8339617 0.8725832 1 0.8711605 1 0.8711605 0.8339617 0.9886083 0.4349892 0.9886083 0.2242305 0.9900538 0.2242305 0.9999999 0.6540718 0.9999998 0.8648305 0.9985545 0.8648304 0.9960682 0.2242304 0.9975137 0.2242304 0.9975137 0.4349892 0.8355669 1 0.8341347 1 0.8341347 0.8339617 0.8588357 0.8339617 0.8602602 0.8339617 0.8602602 1</float_array>
          <technique_common>
            <accessor source="#Cube_013-mesh-map-1-array" count="432" stride="2">
              <param name="S" type="float"/>
              <param name="T" type="float"/>
            </accessor>
          </technique_common>
        </source>
        <vertices id="Cube_013-mesh-vertices">
          <input semantic="POSITION" source="#Cube_013-mesh-positions"/>
        </vertices>
        <triangles material="hierva_choza_gaetuli-material" count="144">
          <input semantic="VERTEX" source="#Cube_013-mesh-vertices" offset="0"/>
          <input semantic="NORMAL" source="#Cube_013-mesh-normals" offset="1"/>
          <input semantic="TEXCOORD" source="#Cube_013-mesh-map-0" offset="2" set="0"/>
          <input semantic="TEXCOORD" source="#Cube_013-mesh-map-1" offset="2" set="1"/>
          <p>0 0 0 1 1 1 3 0 2 0 0 3 3 0 4 2 2 5 4 3 6 5 4 7 7 5 8 4 3 9 7 5 10 6 6 11 8 7 12 9 8 13 11 9 14 8 7 15 11 9 16 10 10 17 12 11 18 15 12 19 13 13 20 12 11 21 14 14 22 15 12 23 16 15 24 17 16 25 19 15 26 16 15 27 19 15 28 18 16 29 20 17 30 23 18 31 21 19 32 20 17 33 22 20 34 23 18 35 24 21 36 27 22 37 25 23 38 24 21 39 26 21 40 27 22 41 28 24 42 31 24 43 29 24 44 28 24 45 30 25 46 31 24 47 32 26 48 33 27 49 35 28 50 32 26 51 35 28 52 34 29 53 36 30 54 39 30 55 37 31 56 36 30 57 38 32 58 39 30 59 40 0 60 41 1 61 43 0 62 40 0 63 43 0 64 42 2 65 44 3 66 45 4 67 47 5 68 44 3 69 47 5 70 46 6 71 48 33 72 49 34 73 50 35 74 48 33 75 51 36 76 49 34 77 52 37 78 53 37 79 54 37 80 52 37 81 55 37 82 53 37 83 56 38 84 57 39 85 58 40 86 56 38 87 59 41 88 57 39 89 60 42 90 61 43 91 62 42 92 60 42 93 62 42 94 63 44 95 64 45 96 65 46 97 66 47 98 64 45 99 67 48 100 65 46 101 68 49 102 69 50 103 70 49 104 68 49 105 70 49 106 71 51 107 72 16 108 73 52 109 74 52 110 72 16 111 74 52 112 75 53 113 76 54 114 77 55 115 78 54 116 76 54 117 78 54 118 79 56 119 80 57 120 81 58 121 82 59 122 80 57 123 83 60 124 81 58 125 84 61 126 85 61 127 86 61 128 84 61 129 86 61 130 87 62 131 88 33 132 89 34 133 90 35 134 88 33 135 91 36 136 89 34 137 92 37 138 93 37 139 94 37 140 92 37 141 95 37 142 93 37 143 8 63 144 58 64 145 9 65 146 17 66 147 65 67 148 19 68 149 42 69 150 88 70 151 40 71 152 10 72 153 56 73 154 8 74 155 30 75 156 78 76 157 31 77 158 21 78 159 68 79 160 20 80 161 31 81 162 77 82 163 29 83 164 20 84 165 71 85 166 22 86 167 43 87 168 91 88 169 42 89 170 11 90 171 59 91 172 10 92 173 32 93 174 82 93 175 33 94 176 0 95 177 50 95 178 1 96 179 43 97 180 90 98 181 89 99 182 11 100 183 58 101 184 57 99 185 34 102 186 80 103 187 32 104 188 2 69 189 48 70 190 0 71 191 22 105 192 70 105 193 23 106 194 44 107 195 94 108 196 45 109 197 13 110 198 60 111 199 12 112 200 21 113 201 70 114 202 69 99 203 46 115 204 92 116 205 44 117 206 14 118 207 60 119 208 63 120 209 35 121 210 83 122 211 34 123 212 3 87 213 51 88 214 2 89 215 25 124 216 72 125 217 24 126 218 35 127 219 82 128 220 81 99 221 3 97 222 50 98 223 49 99 224 26 129 225 72 130 226 75 120 227 47 131 228 95 131 229 46 132 230 14 133 231 62 134 232 15 135 233 37 136 234 84 136 235 36 137 236 4 107 237 54 108 238 5 109 239 47 138 240 94 139 241 93 140 242 15 141 243 61 142 244 13 143 245 36 144 246 87 145 247 38 146 248 6 115 249 52 116 250 4 117 251 26 147 252 74 147 253 27 147 254 16 148 255 66 148 256 17 149 257 27 150 258 73 151 259 25 152 260 16 153 261 67 154 262 64 120 263 38 155 264 86 156 265 39 157 266 7 131 267 55 131 268 6 132 269 29 158 270 76 159 271 28 160 272 37 161 273 86 162 274 85 99 275 7 138 276 54 139 277 53 140 278 28 163 279 79 164 280 30 165 281 19 166 282 67 167 283 18 168 284 40 95 285 90 95 286 41 96 287 8 63 288 56 63 289 58 64 290 17 66 291 66 99 292 65 67 293 42 69 294 91 120 295 88 70 296 10 72 297 59 120 298 56 73 299 30 75 300 79 169 301 78 76 302 21 78 303 69 170 304 68 79 305 31 81 306 78 99 307 77 82 308 20 84 309 68 120 310 71 85 311 43 87 312 89 171 313 91 88 314 11 90 315 57 90 316 59 91 317 32 93 318 80 94 319 82 93 320 0 95 321 48 96 322 50 95 323 43 97 324 41 172 325 90 98 326 11 100 327 9 173 328 58 101 329 34 102 330 83 120 331 80 103 332 2 69 333 51 120 334 48 70 335 22 105 336 71 106 337 70 105 338 44 107 339 92 174 340 94 108 341 13 110 342 61 175 343 60 111 344 21 113 345 23 176 346 70 114 347 46 115 348 95 120 349 92 116 350 14 118 351 12 177 352 60 119 353 35 121 354 81 178 355 83 122 356 3 87 357 49 171 358 51 88 359 25 124 360 73 179 361 72 125 362 35 127 363 33 180 364 82 128 365 3 97 366 1 172 367 50 98 368 26 129 369 24 181 370 72 130 371 47 131 372 93 132 373 95 131 374 14 133 375 63 182 376 62 134 377 37 136 378 85 137 379 84 136 380 4 107 381 52 174 382 54 108 383 47 138 384 45 183 385 94 139 386 15 141 387 62 99 388 61 142 389 36 144 390 84 184 391 87 145 392 6 115 393 55 120 394 52 116 395 26 147 396 75 185 397 74 147 398 16 148 399 64 149 400 66 148 401 27 150 402 74 99 403 73 151 404 16 153 405 18 186 406 67 154 407 38 155 408 87 187 409 86 156 410 7 131 411 53 132 412 55 131 413 29 158 414 77 188 415 76 159 416 37 161 417 39 189 418 86 162 419 7 138 420 5 183 421 54 139 422 28 163 423 76 120 424 79 164 425 19 166 426 65 190 427 67 167 428 40 95 429 88 96 430 90 95 431</p>
        </triangles>
      </mesh>
    </geometry>
  </library_geometries>
  <library_visual_scenes>
    <visual_scene id="Scene" name="Scene">
      <node id="stable_f" name="stable_f" type="NODE">
        <matrix sid="transform">1 0 0 0 0 1 0 0 0 0 1 0 0 0 0 1</matrix>
        <instance_geometry url="#Cube_013-mesh" name="stable_f">
          <bind_material>
            <technique_common>
              <instance_material symbol="hierva_choza_gaetuli-material" target="#hierva_choza_gaetuli-material">
                <bind_vertex_input semantic="Cube_013-mesh-map-0" input_semantic="TEXCOORD" input_set="0"/>
                <bind_vertex_input semantic="Cube_013-mesh-map-1" input_semantic="TEXCOORD" input_set="1"/>
              </instance_material>
            </technique_common>
          </bind_material>
        </instance_geometry>
        <node id="prop_garrisoned" name="prop_garrisoned" type="NODE">
          <matrix sid="transform">-0.7829416 1.18221e-7 0 5.35037e-14 -1.18221e-7 -0.7829416 0 5.033843 0 0 0.7829416 9.013988 0 0 0 1</matrix>
        </node>
        <node id="prop_projectile" name="prop_projectile" type="NODE">
          <matrix sid="transform">-0.7829416 1.18221e-7 0 5.35037e-14 -1.18221e-7 -0.7829416 0 5.033842 0 0 0.7829416 9.013988 0 0 0 1</matrix>
        </node>
      </node>
    </visual_scene>
  </library_visual_scenes>
  <scene>
    <instance_visual_scene url="#Scene"/>
  </scene>
</COLLADA>