<?xml version="1.0" encoding="utf-8"?>
<COLLADA xmlns="http://www.collada.org/2005/11/COLLADASchema" version="1.4.1" xmlns:xsi="http://www.w3.org/2001/XMLSchema-instance">
  <asset>
    <contributor>
      <author>Blender User</author>
      <authoring_tool>Blender 4.3.1 commit date:2024-12-10, commit time:07:46, hash:33d812126174</authoring_tool>
    </contributor>
    <created>2026-08-22T20:24:22</created>
    <modified>2026-08-22T20:24:22</modified>
    <unit name="meter" meter="1"/>
    <up_axis>Z_UP</up_axis>
  </asset>
  <library_effects>
    <effect id="hierva_choza_gaetuli-effect">
      <profile_COMMON>
        <technique sid="common">
          <lambert>
            <emission>
              <color sid="emission">0 0 0 1</color>
            </emission>
            <diffuse>
              <color sid="diffuse">0.8 0.8 0.8 1</color>
            </diffuse>
            <index_of_refraction>
              <float sid="ior">1.45</float>
            </index_of_refraction>
          </lambert>
        </technique>
      </profile_COMMON>
    </effect>
  </library_effects>
  <library_images/>
  <library_materials>
    <material id="hierva_choza_gaetuli-material" name="hierva choza gaetuli">
      <instance_effect url="#hierva_choza_gaetuli-effect"/>
    </material>
  </library_materials>
  <library_geometries>
    <geometry id="Cube_035-mesh" name="Cube.035">
      <mesh>
        <source id="Cube_035-mesh-positions">
          <float_array id="Cube_035-mesh-positions-array" count="384">5.119983 -15.2994 3.643392 5.119983 -15.2994 0.1409906 2.498915 -11.54763 3.643392 2.498915 -11.54763 0.1409906 5.152017 -11.56793 3.643392 5.152017 -11.56793 0.1409906 2.469974 -15.11351 3.643392 2.469974 -15.11351 0.1409906 11.19217 -9.26933 3.643392 11.19217 -9.26933 0.1409906 7.419166 -11.85974 3.643392 7.419166 -11.85974 0.1409906 7.461086 -9.206892 3.643392 7.461086 -9.206892 0.1409906 10.9847 -11.91774 3.643392 10.9847 -11.91774 0.1409906 -7.902399 -9.269331 3.643392 -7.902399 -9.269331 0.1409906 -11.6754 -11.85974 3.643392 -11.6754 -11.85974 0.1409906 -11.63348 -9.206893 3.643392 -11.63348 -9.206893 0.1409906 -8.109871 -11.91774 3.643392 -8.109871 -11.91774 0.1409906 -1.49086 -6.26714 3.643392 -1.49086 -6.26714 0.1409906 -4.111928 -2.515368 3.643392 -4.111928 -2.515368 0.1409906 -1.458826 -2.535671 3.643392 -1.458826 -2.535671 0.1409906 -4.14087 -6.081254 3.643392 -4.14087 -6.081254 0.1409906 3.902354 7.029694 7.313425 3.902354 7.029694 3.811024 1.281285 10.78147 7.313425 1.281285 10.78147 3.811024 3.934387 10.76116 7.313425 3.934387 10.76116 3.811024 1.252343 7.215579 7.313425 1.252343 7.215579 3.811024 -5.874449 10.66489 7.313425 -5.874449 10.66489 3.811024 -9.613688 8.025975 7.313425 -9.613688 8.025975 3.811024 -9.606029 10.67914 7.313425 -9.606029 10.67914 3.811024 -6.047703 8.014027 7.313425 -6.047703 8.014027 3.811024 12.68404 0.4061741 3.643392 12.68404 0.4061741 0.1409906 10.06297 4.157945 3.643392 10.06297 4.157945 0.1409906 12.71608 4.137643 3.643392 12.71608 4.137643 0.1409906 10.03403 0.5920586 3.643392 10.03403 0.5920586 0.1409906 -10.19262 0.4061741 3.643392 -10.19262 0.4061741 0.1409906 -12.81369 4.157945 3.643392 -12.81369 4.157945 0.1409906 -10.16059 4.137641 3.643392 -10.16059 4.137641 0.1409906 -12.84263 0.5920586 3.643392 -12.84263 0.5920586 0.1409906 5.09457 -15.31715 3.643392 2.473502 -11.56538 0.1409906 5.09457 -15.31715 0.1409906 2.473502 -11.56538 3.643392 5.127294 -11.54923 3.643392 5.127294 -11.54923 0.1409906 2.44525 -15.09481 0.1409906 2.44525 -15.09481 3.643392 11.17462 -9.243773 3.643392 11.17462 -9.243773 0.1409906 7.401619 -11.83418 0.1409906 7.401619 -11.83418 3.643392 7.442183 -9.231461 3.643392 7.442183 -9.231461 0.1409906 10.96579 -11.94231 0.1409906 10.96579 -11.94231 3.643392 -7.884852 -9.294888 3.643392 -11.65786 -11.8853 0.1409906 -7.884852 -9.294888 0.1409906 -11.65786 -11.8853 3.643392 -11.61458 -9.182323 3.643392 -8.09097 -11.89317 0.1409906 -11.61458 -9.182323 0.1409906 -8.09097 -11.89317 3.643392 -1.465448 -6.249386 3.643392 -1.465448 -6.249386 0.1409906 -4.086515 -2.497614 0.1409906 -4.086515 -2.497614 3.643392 -1.434103 -2.554373 3.643392 -4.116147 -6.099956 0.1409906 -1.434103 -2.554373 0.1409906 -4.116147 -6.099956 3.643392 3.876941 7.01194 7.313425 1.255872 10.76371 3.811024 3.876941 7.01194 3.811024 1.255872 10.76371 7.313425 3.95911 10.74246 7.313425 1.277066 7.196877 3.811024 3.95911 10.74246 3.811024 1.277066 7.196877 7.313425 -5.856575 10.63956 7.313425 -9.595813 8.000646 3.811024 -5.856575 10.63956 3.811024 -9.595813 8.000646 7.313425 -9.624613 10.65433 7.313425 -9.624613 10.65433 3.811024 -6.066287 7.989214 3.811024 -6.066287 7.989214 7.313425 12.65863 0.3884202 3.643392 10.03756 4.140191 0.1409906 12.65863 0.3884202 0.1409906 10.03756 4.140191 3.643392 12.7408 4.118941 3.643392 10.05876 0.5733568 0.1409906 12.7408 4.118941 0.1409906 10.05876 0.5733568 3.643392 -10.16721 0.4239279 3.643392 -10.16721 0.4239279 0.1409906 -12.78827 4.175698 0.1409906 -12.78827 4.175698 3.643392 -10.13586 4.11894 3.643392 -12.81791 0.5733568 0.1409906 -10.13586 4.11894 0.1409906 -12.81791 0.5733568 3.643392</float_array>
          <technique_common>
            <accessor source="#Cube_035-mesh-positions-array" count="128" stride="3">
              <param name="X" type="float"/>
              <param name="Y" type="float"/>
              <param name="Z" type="float"/>
            </accessor>
          </technique_common>
        </source>
        <source id="Cube_035-mesh-normals">
          <float_array id="Cube_035-mesh-normals-array" count="876">0.8197625 0.5727038 0 0.8197624 0.5727038 0 0.8197623 0.5727038 0 0.7975254 -0.6032856 0 0.7975253 -0.6032857 0 0.7975253 -0.6032856 0 0.5660048 -0.824402 0 0.5660049 -0.824402 0 0.5660048 -0.824402 0 0.5660049 -0.8244019 0 0.609764 0.7925832 0 0.6097639 0.7925831 0 0.6097639 0.7925832 0 -0.5660051 0.8244019 0 -0.5660051 0.8244018 0 -0.5660051 0.8244019 0 -0.6097642 -0.7925829 0 -0.6097642 -0.792583 0 -0.6097641 -0.7925829 0 -0.8197626 -0.5727037 0 -0.8197625 -0.5727036 0 -0.7975254 0.6032854 0 -0.7975255 0.6032853 0 -0.7975255 0.6032854 0 0.8197627 0.5727034 0 0.8197627 0.5727034 0 0.8197627 0.5727034 0 -0.7975252 0.6032856 0 -0.5766034 0.8170243 0 -0.5766034 0.8170242 0 0.5994772 0.8003918 0 0.5994772 0.8003919 0 0.8197623 0.5727041 0 0.8197621 0.5727044 0 0.8197624 0.572704 0 0.8197626 0.5727037 0 -0.7975249 0.6032861 0 -0.7975249 0.603286 0 -0.8197624 -0.572704 0 -0.8197624 -0.572704 0 -0.8197623 -0.572704 0 -0.7975259 0.6032847 0 -0.797526 0.6032848 0 -0.797526 0.6032847 0 -0.8197624 -0.5727039 0 -0.8197624 -0.5727038 0 -0.7975251 0.6032857 0 -0.7975251 0.6032858 0 -0.7975253 0.6032857 0 -0.5660049 0.8244019 0 -0.6097648 -0.7925826 0 0.5660049 -0.8244019 0 0.5660048 -0.8244021 0 0.566005 -0.8244018 0 0.609764 0.7925831 0 0.609764 0.792583 0 0.6097641 0.7925829 0 0.8197627 0.5727035 0 0.8197627 0.5727035 0 0.7975254 -0.6032854 0 0.7975255 -0.6032853 0 0.7975255 -0.6032854 0 -0.8197623 -0.572704 0 -0.8197624 -0.5727038 0 0.7975255 -0.6032854 0 0.5766034 -0.8170242 0 0.5766033 -0.8170243 0 -0.5994775 -0.8003916 0 -0.5994775 -0.8003917 0 -0.8197622 -0.5727041 0 -0.8197621 -0.5727043 0 0.797526 -0.6032847 0 0.7975261 -0.6032846 0 0.7975258 -0.6032848 0 0.8197631 0.5727028 0 0.8197631 0.5727028 0 0.7975249 -0.6032862 0 0.7975248 -0.6032862 0 0.7975248 -0.6032863 0 -1.34019e-5 0 1 -3.5084e-6 0 1 -3.46543e-6 0 1 0.6032646 0.7975412 0 0.6032729 0.797535 0 0.6032729 0.7975349 0 0 0 -1 0 0 -1 0 0 -1 0 0 1 -1.31333e-5 0 1 -1.31918e-5 0 1 0.8243819 0.566034 0 0.8243819 0.5660341 0 0.8243818 0.5660341 0 -0.5725827 0.8198471 0 0 0 1 -1.07715e-5 0 1 0 0 1 0 0 -1 -5.35875e-7 0 -1 -0.6032938 -0.7975192 0 -0.6032897 -0.7975222 0 0.603156 0.7976234 0 0.603156 0.7976233 0 0.603156 0.7976233 0 0 0 -1 -8.71967e-6 0 -1 -0.8244233 -0.5659738 1.33379e-4 -0.8246121 -0.5656987 1.9848e-4 -0.824536 -0.5658095 0 1.37735e-5 0 1 -1.22996e-6 0 1 -1.29724e-6 0 1 0.8170664 0.5765437 0 0.8170502 0.5765668 0 0.81705 0.5765669 0 4.17294e-7 0 -1 -2.33491e-7 0 -1 -2.36318e-7 0 -1 0 0 1 -7.52946e-6 0 1 -7.56211e-6 0 1 -0.7926416 0.6096878 0 -0.7926082 0.6097314 0 -0.792608 0.6097317 0 -0.6033732 -0.797459 0 -0.6033063 -0.7975097 0 -0.6033059 -0.7975099 0 0 0 1 4.8441e-6 0 1 4.8657e-6 0 1 0.5726031 -0.8198328 0 -4.30288e-7 0 -1 0 0 -1 -4.32523e-7 0 -1 -0.8170561 -0.5765582 0 -0.8170233 -0.5766047 0 -0.8170232 -0.576605 0 -1.33756e-5 0 1 2.45213e-6 0 1 2.52088e-6 0 1 0 0 -1 2.09146e-7 0 -1 2.10051e-7 0 -1 0.792608 -0.6097317 0 0.7926079 -0.6097317 0 -0.8003493 0.599534 0 -0.8003828 0.5994894 0 -0.800383 0.5994892 0 0 0 -1 -1.81654e-7 0 -1 -0.572632 0.8198125 0 -0.572632 0.8198126 0 0 0 1 -9.47207e-6 0 1 -9.5142e-6 0 1 0.5727209 -0.8197505 0 0.5727168 -0.8197533 0 0.5727168 -0.8197534 0 0 0 -1 0 0 -1 0 0 1 -2.82359e-6 0 1 0.603245 0.797556 0 0.603245 0.7975561 0 0.8003882 -0.5994821 0 0.8003882 -0.5994822 0 1.37395e-5 0 1 -8.65831e-6 0 1 1.38397e-5 0 1 0 0 -1 -1.07637e-5 0 -1 -0.5727126 0.8197563 0 -0.5726962 0.8197677 0 -0.5726961 0.8197678 0 0.5727417 -0.819736 0 0.5727418 -0.819736 0 0 0 -1 0 0 -1 0 0 -1 -0.6032365 -0.7975625 0 -0.6032281 -0.7975687 0 -0.603228 -0.7975688 0 -1.3301e-5 0 1 1.9708e-5 0 1 1.98513e-5 0 1 0.6032939 0.797519 0 0.6032939 0.797519 0 4.29419e-7 0 -1 -2.57116e-7 0 -1 -2.60186e-7 0 -1 0 0 1 -3.55226e-6 0 1 0.8243101 0.5661386 0 0.824375 0.5660442 0 0.8243754 0.5660436 0 -0.5727455 0.8197333 0 -0.5727128 0.8197561 0 -0.5727127 0.8197563 0 1.33584e-5 0 1 -5.90198e-6 0 1 -5.98585e-6 0 1 0 0 -1 -3.33353e-7 0 -1 -0.6032939 -0.797519 0 -0.603294 -0.797519 0 0.6033113 0.7975059 0 0.603378 0.7974553 0 0.6033784 0.7974551 0 0 0 -1 1.37919e-7 0 -1 1.38534e-7 0 -1 -0.8244115 -0.5659909 0 -0.8244278 -0.5659673 0 -0.8244278 -0.5659672 0 0 0 1 -2.36774e-6 0 1 0.5727044 -0.8197621 0 0.5727043 -0.8197621 0 0.5727043 -0.8197622 0 0 0 -1 0 0 -1 0 0 1 -5.01959e-6 0 1 -5.04135e-6 0 1 -0.792568 0.6097836 0 -0.7925512 0.6098055 0 -0.7925512 0.6098056 0 -0.6031708 -0.797612 0 -0.6032043 -0.7975869 0 -0.6032045 -0.7975867 0 0 0 1 3.98229e-6 0 1 4.00006e-6 0 1 4.29557e-7 0 -1 -2.33514e-7 0 -1 -2.36476e-7 0 -1 -0.5728179 0.8196827 0 -0.5728179 0.8196826 0 0.5727398 -0.8197373 0 0.5727398 -0.8197372 0 0 0 -1 1.4639e-6 0 -1 1.47024e-6 0 -1 0.7924944 -0.6098791 0 0.7924609 -0.6099228 0 0.7924606 -0.6099231 0 -1.34448e-5 0 1 0.6032646 0.7975413 0 0 0 -1 0.824382 0.5660341 0 -1.08181e-5 0 1 -5.38192e-7 0 -1 -0.6032938 -0.797519 0 -8.7585e-6 0 -1 -0.8242647 -0.5662048 0 1.38407e-5 0 1 0.8170665 0.5765436 0 4.20117e-7 0 -1 -0.7926419 0.6096876 0 -0.6033735 -0.7974588 0 0 0 -1 -0.8170563 -0.5765579 0 -1.34445e-5 0 1 0.792608 -0.6097317 0 -0.8003491 0.5995342 0 -1.82464e-7 0 -1 0.5727209 -0.8197506 0 0 0 -1 -2.83583e-6 0 1 0.603245 0.7975561 0 -8.75848e-6 0 1 -1.08116e-5 0 -1 -0.6032365 -0.7975624 0 -1.34444e-5 0 1 0.603294 0.797519 0 4.3249e-7 0 -1 -3.5681e-6 0 1 0.8243097 0.5661391 0 -0.5727456 0.8197333 0 1.34423e-5 0 1 -3.34794e-7 0 -1 -0.6032939 -0.797519 0 0.6033108 0.7975062 0 -0.8244115 -0.565991 0 -2.37827e-6 0 1 0 0 -1 -0.7925681 0.6097835 0 -0.6031707 -0.7976123 0 4.32523e-7 0 -1 0.5727398 -0.8197373 0 0.7924946 -0.6098789 0</float_array>
          <technique_common>
            <accessor source="#Cube_035-mesh-normals-array" count="292" stride="3">
              <param name="X" type="float"/>
              <param name="Y" type="float"/>
              <param name="Z" type="float"/>
            </accessor>
          </technique_common>
        </source>
        <source id="Cube_035-mesh-map-0">
          <float_array id="Cube_035-mesh-map-0-array" count="1152">0.9984335 0.6838312 1.000765 0.001214206 0.001161634 6.92369e-4 0.9984335 0.6838312 0.001161634 6.92369e-4 5.39125e-4 0.6833093 0.9984335 0.6838312 0.001161634 6.92369e-4 1.000765 0.001214206 0.9984335 0.6838312 5.39125e-4 0.6833093 0.001161634 6.92369e-4 0.9984335 0.6838312 0.001161634 6.92369e-4 1.000765 0.001214206 0.9984335 0.6838312 5.39125e-4 0.6833093 0.001161634 6.92369e-4 0.9984335 0.6838312 0.001161634 6.92369e-4 1.000765 0.001214206 0.9984335 0.6838312 5.39125e-4 0.6833093 0.001161634 6.92369e-4 0.9984335 0.6838312 1.000765 0.001214206 0.001161634 6.92369e-4 0.9984335 0.6838312 0.001161634 6.92369e-4 5.39125e-4 0.6833093 0.9984335 0.6838312 1.000765 0.001214206 0.001161634 6.92369e-4 0.9984335 0.6838312 0.001161634 6.92369e-4 5.39125e-4 0.6833093 0.9984335 0.6838312 0.001161634 6.92369e-4 1.000765 0.001214206 0.9984335 0.6838312 5.39125e-4 0.6833093 0.001161634 6.92369e-4 0.9984335 0.6838312 1.000765 0.001214206 0.001161634 6.92369e-4 0.9984335 0.6838312 0.001161634 6.92369e-4 5.39125e-4 0.6833093 0.9984335 0.6838312 1.000765 0.001214206 0.001161634 6.92369e-4 0.9984335 0.6838312 0.001161634 6.92369e-4 5.39125e-4 0.6833093 0.9984335 0.6838312 1.000765 0.001214206 0.001161634 6.92369e-4 0.9984335 0.6838312 0.001161634 6.92369e-4 5.39125e-4 0.6833093 0.9984335 0.6838312 1.000765 0.001214206 0.001161634 6.92369e-4 0.9984335 0.6838312 0.001161634 6.92369e-4 5.39125e-4 0.6833093 0.9984335 0.6838312 0.001161634 6.92369e-4 1.000765 0.001214206 0.9984335 0.6838312 5.39125e-4 0.6833093 0.001161634 6.92369e-4 0.9984335 0.6838312 1.000765 0.001214206 0.001161634 6.92369e-4 0.9984335 0.6838312 0.001161634 6.92369e-4 5.39125e-4 0.6833093 0.9984335 0.6838312 1.000765 0.001214206 0.001161634 6.92369e-4 0.9984335 0.6838312 0.001161634 6.92369e-4 5.39125e-4 0.6833093 0.9984335 0.6838312 0.001161634 6.92369e-4 1.000765 0.001214206 0.9984335 0.6838312 5.39125e-4 0.6833093 0.001161634 6.92369e-4 0.9984335 0.6838312 1.000765 0.001214206 0.001161634 6.92369e-4 0.9984335 0.6838312 0.001161634 6.92369e-4 5.39125e-4 0.6833093 0.9984335 0.6838312 0.001161634 6.92369e-4 1.000765 0.001214206 0.9984335 0.6838312 5.39125e-4 0.6833093 0.001161634 6.92369e-4 0.9984335 0.6838312 1.000765 0.001214206 0.001161634 6.92369e-4 0.9984335 0.6838312 0.001161634 6.92369e-4 5.39125e-4 0.6833093 0.9984335 0.6838312 1.000765 0.001214206 0.001161634 6.92369e-4 0.9984335 0.6838312 0.001161634 6.92369e-4 5.39125e-4 0.6833093 0.9984335 0.6838312 1.000765 0.001214206 0.001161634 6.92369e-4 0.9984335 0.6838312 0.001161634 6.92369e-4 5.39125e-4 0.6833093 0.9984335 0.6838312 0.001161634 6.92369e-4 1.000765 0.001214206 0.9984335 0.6838312 5.39125e-4 0.6833093 0.001161634 6.92369e-4 0.9984335 0.6838312 0.001161634 6.92369e-4 1.000765 0.001214206 0.9984335 0.6838312 5.39125e-4 0.6833093 0.001161634 6.92369e-4 0.9984335 0.6838312 1.000765 0.001214206 0.001161634 6.92369e-4 0.9984335 0.6838312 0.001161634 6.92369e-4 5.39125e-4 0.6833093 0.9984335 0.6838312 0.001161634 6.92369e-4 1.000765 0.001214206 0.9984335 0.6838312 5.39125e-4 0.6833093 0.001161634 6.92369e-4 0.9984335 0.6838312 0.001161634 6.92369e-4 1.000765 0.001214206 0.9984335 0.6838312 5.39125e-4 0.6833093 0.001161634 6.92369e-4 0.9984335 0.6838312 0.001161634 6.92369e-4 1.000765 0.001214206 0.9984335 0.6838312 5.39125e-4 0.6833093 0.001161634 6.92369e-4 0.9984335 0.6838312 0.001161634 6.92369e-4 1.000765 0.001214206 0.9984335 0.6838312 5.39125e-4 0.6833093 0.001161634 6.92369e-4 0.9984335 0.6838312 1.000765 0.001214206 0.001161634 6.92369e-4 0.9984335 0.6838312 0.001161634 6.92369e-4 5.39125e-4 0.6833093 0.9984335 0.6838312 0.001161634 6.92369e-4 1.000765 0.001214206 0.9984335 0.6838312 5.39125e-4 0.6833093 0.001161634 6.92369e-4 0.9984335 0.6838312 0.001161634 6.92369e-4 1.000765 0.001214206 0.9984335 0.6838312 5.39125e-4 0.6833093 0.001161634 6.92369e-4 0.9984335 0.6838312 1.000765 0.001214206 0.001161634 6.92369e-4 0.9984335 0.6838312 0.001161634 6.92369e-4 5.39125e-4 0.6833093 0.9984335 0.6838312 0.001161634 6.92369e-4 1.000765 0.001214206 0.9984335 0.6838312 5.39125e-4 0.6833093 0.001161634 6.92369e-4 0.9984335 0.6838312 5.39125e-4 0.6833093 5.39125e-4 0.6833093 0.9984335 0.6838312 1.000765 0.001214206 1.000765 0.001214206 1.000765 0.001214206 0.001161634 6.92369e-4 1.000765 0.001214206 5.39125e-4 0.6833093 0.9984335 0.6838312 0.9984335 0.6838312 0.9984335 0.6838312 1.000765 0.001214206 1.000765 0.001214206 5.39125e-4 0.6833093 0.001161634 6.92369e-4 0.001161634 6.92369e-4 0.9984335 0.6838312 5.39125e-4 0.6833093 0.9984335 0.6838312 1.000765 0.001214206 0.001161634 6.92369e-4 1.000765 0.001214206 0.001161634 6.92369e-4 5.39125e-4 0.6833093 5.39125e-4 0.6833093 0.9984335 0.6838312 1.000765 0.001214206 1.000765 0.001214206 0.001161634 6.92369e-4 1.000765 0.001214206 0.001161634 6.92369e-4 0.001161634 6.92369e-4 5.39125e-4 0.6833093 5.39125e-4 0.6833093 5.39125e-4 0.6833093 0.9984335 0.6838312 0.9984335 0.6838312 0.9984335 0.6838312 1.000765 0.001214206 1.000765 0.001214206 1.000765 0.001214206 0.001161634 6.92369e-4 0.001161634 6.92369e-4 5.39125e-4 0.6833093 0.9984335 0.6838312 0.9984335 0.6838312 0.9984335 0.6838312 1.000765 0.001214206 1.000765 0.001214206 0.001161634 6.92369e-4 5.39125e-4 0.6833093 5.39125e-4 0.6833093 5.39125e-4 0.6833093 0.9984335 0.6838312 0.9984335 0.6838312 0.9984335 0.6838312 1.000765 0.001214206 1.000765 0.001214206 0.001161634 6.92369e-4 1.000765 0.001214206 0.001161634 6.92369e-4 0.001161634 6.92369e-4 5.39125e-4 0.6833093 5.39125e-4 0.6833093 5.39125e-4 0.6833093 0.9984335 0.6838312 0.9984335 0.6838312 1.000765 0.001214206 0.001161634 6.92369e-4 0.001161634 6.92369e-4 0.001161634 6.92369e-4 5.39125e-4 0.6833093 5.39125e-4 0.6833093 1.000765 0.001214206 0.9984335 0.6838312 0.9984335 0.6838312 0.001161634 6.92369e-4 1.000765 0.001214206 0.001161634 6.92369e-4 0.001161634 6.92369e-4 5.39125e-4 0.6833093 5.39125e-4 0.6833093 0.9984335 0.6838312 5.39125e-4 0.6833093 5.39125e-4 0.6833093 1.000765 0.001214206 0.9984335 0.6838312 0.9984335 0.6838312 0.001161634 6.92369e-4 1.000765 0.001214206 0.001161634 6.92369e-4 5.39125e-4 0.6833093 0.9984335 0.6838312 5.39125e-4 0.6833093 1.000765 0.001214206 0.9984335 0.6838312 0.9984335 0.6838312 5.39125e-4 0.6833093 0.001161634 6.92369e-4 0.001161634 6.92369e-4 5.39125e-4 0.6833093 0.9984335 0.6838312 5.39125e-4 0.6833093 1.000765 0.001214206 0.001161634 6.92369e-4 1.000765 0.001214206 5.39125e-4 0.6833093 0.001161634 6.92369e-4 0.001161634 6.92369e-4 0.9984335 0.6838312 1.000765 0.001214206 1.000765 0.001214206 0.001161634 6.92369e-4 1.000765 0.001214206 1.000765 0.001214206 5.39125e-4 0.6833093 0.001161634 6.92369e-4 0.001161634 6.92369e-4 5.39125e-4 0.6833093 0.9984335 0.6838312 0.9984335 0.6838312 0.9984335 0.6838312 1.000765 0.001214206 1.000765 0.001214206 0.001161634 6.92369e-4 1.000765 0.001214206 1.000765 0.001214206 0.9984335 0.6838312 5.39125e-4 0.6833093 0.9984335 0.6838312 1.000765 0.001214206 0.9984335 0.6838312 0.9984335 0.6838312 0.001161634 6.92369e-4 5.39125e-4 0.6833093 5.39125e-4 0.6833093 0.9984335 0.6838312 5.39125e-4 0.6833093 5.39125e-4 0.6833093 0.001161634 6.92369e-4 1.000765 0.001214206 0.001161634 6.92369e-4 0.001161634 6.92369e-4 5.39125e-4 0.6833093 5.39125e-4 0.6833093 0.9984335 0.6838312 1.000765 0.001214206 1.000765 0.001214206 1.000765 0.001214206 0.001161634 6.92369e-4 0.001161634 6.92369e-4 5.39125e-4 0.6833093 0.001161634 6.92369e-4 0.001161634 6.92369e-4 0.9984335 0.6838312 5.39125e-4 0.6833093 0.9984335 0.6838312 0.9984335 0.6838312 1.000765 0.001214206 1.000765 0.001214206 1.000765 0.001214206 0.001161634 6.92369e-4 1.000765 0.001214206 5.39125e-4 0.6833093 0.9984335 0.6838312 0.9984335 0.6838312 1.000765 0.001214206 0.9984335 0.6838312 0.9984335 0.6838312 0.001161634 6.92369e-4 5.39125e-4 0.6833093 5.39125e-4 0.6833093 0.9984335 0.6838312 5.39125e-4 0.6833093 5.39125e-4 0.6833093 1.000765 0.001214206 0.001161634 6.92369e-4 0.001161634 6.92369e-4 0.001161634 6.92369e-4 5.39125e-4 0.6833093 5.39125e-4 0.6833093 1.000765 0.001214206 0.9984335 0.6838312 0.9984335 0.6838312 1.000765 0.001214206 0.001161634 6.92369e-4 0.001161634 6.92369e-4 5.39125e-4 0.6833093 0.001161634 6.92369e-4 0.001161634 6.92369e-4 0.9984335 0.6838312 0.9984335 0.6838312 5.39125e-4 0.6833093 0.9984335 0.6838312 0.9984335 0.6838312 1.000765 0.001214206 1.000765 0.001214206 0.001161634 6.92369e-4 0.001161634 6.92369e-4 5.39125e-4 0.6833093 5.39125e-4 0.6833093 0.9984335 0.6838312 0.9984335 0.6838312 0.9984335 0.6838312 1.000765 0.001214206 5.39125e-4 0.6833093 5.39125e-4 0.6833093 0.001161634 6.92369e-4 0.9984335 0.6838312 5.39125e-4 0.6833093 5.39125e-4 0.6833093 1.000765 0.001214206 0.001161634 6.92369e-4 0.001161634 6.92369e-4 0.001161634 6.92369e-4 0.001161634 6.92369e-4 5.39125e-4 0.6833093 0.9984335 0.6838312 0.9984335 0.6838312 1.000765 0.001214206 0.001161634 6.92369e-4 1.000765 0.001214206 1.000765 0.001214206 0.001161634 6.92369e-4 0.001161634 6.92369e-4 5.39125e-4 0.6833093 5.39125e-4 0.6833093 5.39125e-4 0.6833093 0.9984335 0.6838312 0.9984335 0.6838312 0.9984335 0.6838312 1.000765 0.001214206 1.000765 0.001214206 1.000765 0.001214206 0.001161634 6.92369e-4 5.39125e-4 0.6833093 5.39125e-4 0.6833093 0.9984335 0.6838312 0.9984335 0.6838312 0.9984335 0.6838312 1.000765 0.001214206 0.001161634 6.92369e-4 0.001161634 6.92369e-4 5.39125e-4 0.6833093 5.39125e-4 0.6833093 5.39125e-4 0.6833093 0.9984335 0.6838312 0.9984335 0.6838312 0.9984335 0.6838312 1.000765 0.001214206 0.001161634 6.92369e-4 1.000765 0.001214206 1.000765 0.001214206 0.001161634 6.92369e-4 0.001161634 6.92369e-4 5.39125e-4 0.6833093 5.39125e-4 0.6833093 5.39125e-4 0.6833093 0.9984335 0.6838312 1.000765 0.001214206 1.000765 0.001214206 0.001161634 6.92369e-4 0.001161634 6.92369e-4 0.001161634 6.92369e-4 5.39125e-4 0.6833093 1.000765 0.001214206 1.000765 0.001214206 0.9984335 0.6838312 0.001161634 6.92369e-4 1.000765 0.001214206 1.000765 0.001214206 0.001161634 6.92369e-4 0.001161634 6.92369e-4 5.39125e-4 0.6833093 0.9984335 0.6838312 0.9984335 0.6838312 5.39125e-4 0.6833093 1.000765 0.001214206 1.000765 0.001214206 0.9984335 0.6838312 0.001161634 6.92369e-4 1.000765 0.001214206 1.000765 0.001214206 5.39125e-4 0.6833093 0.9984335 0.6838312 0.9984335 0.6838312 1.000765 0.001214206 1.000765 0.001214206 0.9984335 0.6838312 5.39125e-4 0.6833093 5.39125e-4 0.6833093 0.001161634 6.92369e-4 5.39125e-4 0.6833093 0.9984335 0.6838312 0.9984335 0.6838312 1.000765 0.001214206 0.001161634 6.92369e-4 0.001161634 6.92369e-4 5.39125e-4 0.6833093 5.39125e-4 0.6833093 0.001161634 6.92369e-4 0.9984335 0.6838312 0.9984335 0.6838312 1.000765 0.001214206 0.001161634 6.92369e-4 0.001161634 6.92369e-4 1.000765 0.001214206 5.39125e-4 0.6833093 5.39125e-4 0.6833093 0.001161634 6.92369e-4 5.39125e-4 0.6833093 5.39125e-4 0.6833093 0.9984335 0.6838312 0.9984335 0.6838312 0.9984335 0.6838312 1.000765 0.001214206 0.001161634 6.92369e-4 0.001161634 6.92369e-4 1.000765 0.001214206 0.9984335 0.6838312 5.39125e-4 0.6833093 5.39125e-4 0.6833093 1.000765 0.001214206 1.000765 0.001214206 0.9984335 0.6838312 0.001161634 6.92369e-4 0.001161634 6.92369e-4 5.39125e-4 0.6833093 0.9984335 0.6838312 0.9984335 0.6838312 5.39125e-4 0.6833093 0.001161634 6.92369e-4 1.000765 0.001214206 1.000765 0.001214206 0.001161634 6.92369e-4 0.001161634 6.92369e-4 5.39125e-4 0.6833093 0.9984335 0.6838312 0.9984335 0.6838312 1.000765 0.001214206 1.000765 0.001214206 1.000765 0.001214206 0.001161634 6.92369e-4 5.39125e-4 0.6833093 5.39125e-4 0.6833093 0.001161634 6.92369e-4 0.9984335 0.6838312 5.39125e-4 0.6833093 5.39125e-4 0.6833093 0.9984335 0.6838312 0.9984335 0.6838312 1.000765 0.001214206 1.000765 0.001214206 0.001161634 6.92369e-4 0.001161634 6.92369e-4 5.39125e-4 0.6833093 5.39125e-4 0.6833093 0.9984335 0.6838312 1.000765 0.001214206 1.000765 0.001214206 0.9984335 0.6838312 0.001161634 6.92369e-4 0.001161634 6.92369e-4 5.39125e-4 0.6833093 0.9984335 0.6838312 0.9984335 0.6838312 5.39125e-4 0.6833093 1.000765 0.001214206 1.000765 0.001214206 0.001161634 6.92369e-4 0.001161634 6.92369e-4 0.001161634 6.92369e-4 5.39125e-4 0.6833093 1.000765 0.001214206 1.000765 0.001214206 0.9984335 0.6838312 1.000765 0.001214206 1.000765 0.001214206 0.001161634 6.92369e-4 5.39125e-4 0.6833093 5.39125e-4 0.6833093 0.001161634 6.92369e-4</float_array>
          <technique_common>
            <accessor source="#Cube_035-mesh-map-0-array" count="576" stride="2">
              <param name="S" type="float"/>
              <param name="T" type="float"/>
            </accessor>
          </technique_common>
        </source>
        <source id="Cube_035-mesh-map-1">
          <float_array id="Cube_035-mesh-map-1-array" count="1152">0.4290881 0.4029567 0.5709119 0.4029567 0.5709119 0.603117 0.4290881 0.4029567 0.5709119 0.603117 0.4290881 0.603117 0.8581762 0.7818301 1 0.5874844 1 0.7818301 0.8581762 0.7818301 0.8581762 0.5874844 1 0.5874844 0.5721174 0.602595 0.7139412 0.4026958 0.7139412 0.602595 0.5721174 0.602595 0.5721174 0.4026958 0.7139412 0.4026958 0 0.7991769 0.1418238 0.6045841 0.1418238 0.7991769 0 0.7991769 0 0.6045841 0.1418238 0.6045841 0.5721175 0.6039128 0.7139413 0.6039129 0.7139413 0.8038117 0.5721175 0.6039128 0.7139413 0.8038117 0.5721175 0.8038117 0.7151468 0.1959107 0.8569706 0.1959107 0.8569706 0.3905027 0.7151468 0.1959107 0.8569706 0.3905027 0.7151467 0.3905027 0.2860587 0.4016403 0.4278825 0.2014791 0.4278825 0.4016403 0.2860587 0.4016403 0.2860587 0.2014791 0.4278825 0.2014791 0.7151468 0.7833947 0.8569707 0.7833948 0.8569707 0.9777409 0.7151468 0.7833947 0.8569707 0.9777409 0.7151468 0.9777408 0.1430293 0.201626 0.2848532 0.201626 0.2848531 0.4017865 0.1430293 0.201626 0.2848531 0.4017865 0.1430293 0.4017865 0.2860587 0.8056539 0.4278826 0.8056539 0.4278825 1 0.2860587 0.8056539 0.4278825 1 0.2860587 1 0.1430293 0 0.2848532 0 0.2848532 0.2003079 0.1430293 0 0.2848532 0.2003079 0.1430293 0.2003079 0.1430293 0.7929647 0.2848532 0.5987681 0.2848532 0.7929648 0.1430293 0.7929647 0.1430293 0.5987681 0.2848532 0.5987681 0.4290881 0 0.5709119 0 0.5709119 0.2001605 0.4290881 0 0.5709119 0.2001605 0.4290881 0.2001605 0.7151468 0.5877304 0.8569706 0.5877304 0.8569706 0.7820768 0.7151468 0.5877304 0.8569706 0.7820768 0.7151468 0.7820768 0 0.4017872 0.1418238 0.201626 0.1418238 0.4017872 0 0.4017872 0 0.201626 0.1418238 0.201626 0.8581762 0 1 0 1 0.1943459 0.8581762 0 1 0.1943459 0.8581762 0.1943459 0 0.6032661 0.1418238 0.4031051 0.1418238 0.6032661 0 0.6032661 0 0.4031051 0.1418238 0.4031051 0.5721175 0.8051297 0.7139413 0.8051297 0.7139413 0.9994757 0.5721175 0.8051297 0.7139413 0.9994757 0.5721175 0.9994757 0.2860587 0.6044372 0.4278826 0.6044372 0.4278826 0.804336 0.2860587 0.6044372 0.4278826 0.804336 0.2860587 0.804336 0.7151468 0.3918206 0.8569706 0.3918206 0.8569706 0.5864126 0.7151468 0.3918206 0.8569706 0.5864126 0.7151468 0.5864125 0.5721175 0.4013777 0.7139413 0.2014783 0.7139413 0.4013777 0.5721175 0.4013777 0.5721175 0.2014783 0.7139413 0.2014783 0.7151468 0.1945927 0.8569706 0 0.8569706 0.1945927 0.7151468 0.1945927 0.7151468 0 0.8569706 0 0.4290881 0.2014784 0.5709119 0.2014784 0.5709118 0.4016388 0.4290881 0.2014784 0.5709118 0.4016388 0.4290881 0.4016388 0.8581761 0.3902566 1 0.1959107 1 0.3902566 0.8581761 0.3902566 0.8581762 0.1959107 1 0.1959107 0.2860587 0.6031193 0.4278826 0.4029582 0.4278825 0.6031193 0.2860587 0.6031193 0.2860587 0.4029582 0.4278826 0.4029582 0.1430293 0.5974501 0.2848532 0.4031044 0.2848532 0.5974501 0.1430293 0.5974501 0.1430293 0.4031043 0.2848532 0.4031044 0 0.200308 0.1418238 0 0.1418238 0.200308 0 0.200308 0 0 0.1418238 0 0.1430294 0.7942828 0.2848532 0.7942828 0.2848532 0.9884787 0.1430294 0.7942828 0.2848532 0.9884787 0.1430293 0.9884787 0.2860587 0.2001612 0.4278826 0 0.4278826 0.2001612 0.2860587 0.2001612 0.2860587 0 0.4278826 0 0.8581762 0.5861664 1 0.3918206 1 0.5861665 0.8581762 0.5861664 0.8581762 0.3918206 1 0.3918206 0.5721175 0 0.7139413 0 0.7139413 0.2001601 0.5721175 0 0.7139413 0.2001601 0.5721175 0.2001601 0 0.9948409 0.1418238 0.8004949 0.1418238 0.9948409 0 0.9948409 0 0.8004949 0.1418238 0.8004949 0.5671955 0.604435 0.5684508 0.8070323 0.5671952 0.8070325 0.4322235 0.604435 0.4334631 0.7594778 0.4322235 0.7594778 0.520438 0.8012368 0.5216932 0.6044352 0.5216932 0.8012368 0.5056724 0.604435 0.5069277 0.8012367 0.5056724 0.8012367 0.439559 0.7607957 0.4407976 0.9158384 0.439559 0.9158384 0.476242 0.6044349 0.4774824 0.7594777 0.476242 0.7594777 0.5524295 0.8070324 0.5536848 0.6044348 0.5536848 0.8070324 0.5709116 0.604435 0.5696564 0.8070323 0.5696564 0.6044351 0.4432438 0.7594778 0.4420041 0.604435 0.4432438 0.604435 0.4517851 0.6044349 0.4530249 0.7594777 0.4517851 0.7594777 0.5044669 0.604435 0.5032117 0.8012366 0.5032117 0.604435 0.4432426 0.9158384 0.4420041 0.7607957 0.4432426 0.7607957 0.5302824 0.6044351 0.5315376 0.8012369 0.5302821 0.8012366 0.4811346 0.604435 0.4823758 0.7594778 0.4811346 0.7594778 0.5487631 0.8070325 0.5475078 0.6044349 0.548763 0.6044352 0.5548905 0.6044349 0.5561458 0.8070322 0.5548905 0.8070324 0.4835813 0.6044349 0.4848223 0.7594777 0.4835813 0.7594777 0.431018 0.7594777 0.4297785 0.6044349 0.431018 0.6044349 0.5007507 0.604435 0.502006 0.8012368 0.5007508 0.8012366 0.4542304 0.6044349 0.4554705 0.7594777 0.4542304 0.7594777 0.529076 0.6044351 0.5278208 0.8012369 0.5278208 0.604435 0.479929 0.7594778 0.478688 0.604435 0.479929 0.604435 0.5389198 0.8070322 0.5376645 0.604435 0.5389198 0.6044348 0.551224 0.8070325 0.5499687 0.604435 0.551224 0.604435 0.4872691 0.7594777 0.486028 0.6044349 0.4872691 0.6044349 0.4359073 0.9158384 0.4346687 0.7607957 0.4359073 0.7607957 0.4995452 0.6044349 0.49829 0.8012367 0.49829 0.604435 0.4603618 0.7594777 0.4591217 0.6044349 0.4603618 0.6044349 0.5143103 0.8012366 0.513055 0.604435 0.5143103 0.604435 0.4676991 0.7594777 0.4664589 0.6044349 0.4676991 0.6044349 0.5401252 0.8070323 0.5413805 0.604435 0.5413805 0.8070324 0.545047 0.8070325 0.5463023 0.6044351 0.5463023 0.8070325 0.4407985 0.7594777 0.4395589 0.6044349 0.4407985 0.6044349 0.4297785 0.7607957 0.4310172 0.9158385 0.4297785 0.9158385 0.4970844 0.604435 0.4958292 0.8012365 0.4958292 0.604435 0.5155159 0.8012367 0.5167712 0.604435 0.5167712 0.8012368 0.4713503 0.6044349 0.4725906 0.7594777 0.4713503 0.7594777 0.4615674 0.6044349 0.4628076 0.7594777 0.4615674 0.7594777 0.5438414 0.8070324 0.5425861 0.604435 0.5438414 0.6044349 0.4371139 0.6044349 0.4383535 0.7594777 0.4371139 0.7594777 0.5364589 0.8070325 0.5352037 0.604435 0.5364589 0.604435 0.4444493 0.6044349 0.4456889 0.7594777 0.4444493 0.7594777 0.4933683 0.604435 0.4946235 0.8012365 0.4933683 0.8012365 0.5105941 0.8012366 0.5118494 0.6044349 0.5118494 0.8012366 0.4334623 0.9158384 0.4322236 0.7607957 0.4334623 0.7607957 0.4652533 0.7594777 0.4640132 0.6044349 0.4652533 0.6044349 0.5659897 0.8070324 0.5647343 0.604435 0.5659897 0.604435 0.532743 0.8070325 0.5339983 0.6044349 0.5339983 0.8070324 0.4481341 0.7594777 0.4468945 0.6044349 0.4481341 0.6044349 0.4346687 0.6044349 0.4359083 0.7594777 0.4346687 0.7594777 0.5093885 0.8012366 0.5081333 0.604435 0.5093885 0.604435 0.4371138 0.7607957 0.4383525 0.9158384 0.4371138 0.9158384 0.5253601 0.8012368 0.5266153 0.6044351 0.5266153 0.8012368 0.4689046 0.604435 0.4701448 0.7594778 0.4689046 0.7594778 0.5622733 0.8070324 0.5635287 0.604435 0.5635287 0.8070322 0.5610677 0.8070325 0.5598124 0.604435 0.5610677 0.604435 0.4897159 0.7594777 0.4884747 0.6044349 0.4897159 0.6044349 0.4505795 0.7594777 0.4493396 0.6044349 0.4505795 0.6044349 0.5192319 0.8012367 0.5179767 0.6044352 0.5192322 0.6044349 0.5241539 0.8012368 0.5228987 0.6044351 0.5241543 0.6044349 0.4750365 0.7594777 0.4737961 0.604435 0.4750365 0.604435 0.4579162 0.7594777 0.4566761 0.6044349 0.4579162 0.6044349 0.5573513 0.6044349 0.5586068 0.8070324 0.5573514 0.8070325 0.4909214 0.6044349 0.4921628 0.7594777 0.4909214 0.7594777 0.5671955 0.604435 0.5684508 0.6044351 0.5684508 0.8070323 0.4322235 0.604435 0.4334631 0.604435 0.4334631 0.7594778 0.520438 0.8012368 0.5204378 0.6044349 0.5216932 0.6044352 0.5056724 0.604435 0.5069277 0.604435 0.5069277 0.8012367 0.439559 0.7607957 0.4407976 0.7607957 0.4407976 0.9158384 0.476242 0.6044349 0.4774824 0.6044349 0.4774824 0.7594777 0.5524295 0.8070324 0.5524296 0.6044352 0.5536848 0.6044348 0.5709116 0.604435 0.5709118 0.8070325 0.5696564 0.8070323 0.4432438 0.7594778 0.4420041 0.7594778 0.4420041 0.604435 0.4517851 0.6044349 0.4530249 0.6044349 0.4530249 0.7594777 0.5044669 0.604435 0.5044669 0.8012366 0.5032117 0.8012366 0.4432426 0.9158384 0.4420041 0.9158384 0.4420041 0.7607957 0.5302824 0.6044351 0.5315376 0.604435 0.5315376 0.8012369 0.4811346 0.604435 0.4823758 0.604435 0.4823758 0.7594778 0.5487631 0.8070325 0.5475078 0.8070325 0.5475078 0.6044349 0.5548905 0.6044349 0.5561458 0.6044349 0.5561458 0.8070322 0.4835813 0.6044349 0.4848223 0.6044349 0.4848223 0.7594777 0.431018 0.7594777 0.4297785 0.7594777 0.4297785 0.6044349 0.5007507 0.604435 0.502006 0.604435 0.502006 0.8012368 0.4542304 0.6044349 0.4554705 0.6044349 0.4554705 0.7594777 0.529076 0.6044351 0.5290763 0.8012366 0.5278208 0.8012369 0.479929 0.7594778 0.478688 0.7594778 0.478688 0.604435 0.5389198 0.8070322 0.5376645 0.8070324 0.5376645 0.604435 0.551224 0.8070325 0.5499687 0.8070324 0.5499687 0.604435 0.4872691 0.7594777 0.486028 0.7594777 0.486028 0.6044349 0.4359073 0.9158384 0.4346687 0.9158384 0.4346687 0.7607957 0.4995452 0.6044349 0.4995452 0.8012365 0.49829 0.8012367 0.4603618 0.7594777 0.4591217 0.7594777 0.4591217 0.6044349 0.5143103 0.8012366 0.513055 0.8012367 0.513055 0.604435 0.4676991 0.7594777 0.4664589 0.7594777 0.4664589 0.6044349 0.5401252 0.8070323 0.5401252 0.6044348 0.5413805 0.604435 0.545047 0.8070325 0.545047 0.6044351 0.5463023 0.6044351 0.4407985 0.7594777 0.4395589 0.7594777 0.4395589 0.6044349 0.4297785 0.7607957 0.4310172 0.7607957 0.4310172 0.9158385 0.4970844 0.604435 0.4970844 0.8012366 0.4958292 0.8012365 0.5155159 0.8012367 0.5155158 0.604435 0.5167712 0.604435 0.4713503 0.6044349 0.4725906 0.6044349 0.4725906 0.7594777 0.4615674 0.6044349 0.4628076 0.6044349 0.4628076 0.7594777 0.5438414 0.8070324 0.542586 0.8070324 0.5425861 0.604435 0.4371139 0.6044349 0.4383535 0.6044349 0.4383535 0.7594777 0.5364589 0.8070325 0.5352037 0.8070325 0.5352037 0.604435 0.4444493 0.6044349 0.4456889 0.6044349 0.4456889 0.7594777 0.4933683 0.604435 0.4946235 0.6044349 0.4946235 0.8012365 0.5105941 0.8012366 0.5105941 0.604435 0.5118494 0.6044349 0.4334623 0.9158384 0.4322236 0.9158384 0.4322236 0.7607957 0.4652533 0.7594777 0.4640132 0.7594777 0.4640132 0.6044349 0.5659897 0.8070324 0.5647343 0.8070323 0.5647343 0.604435 0.532743 0.8070325 0.532743 0.604435 0.5339983 0.6044349 0.4481341 0.7594777 0.4468945 0.7594777 0.4468945 0.6044349 0.4346687 0.6044349 0.4359083 0.6044349 0.4359083 0.7594777 0.5093885 0.8012366 0.5081332 0.8012366 0.5081333 0.604435 0.4371138 0.7607957 0.4383525 0.7607957 0.4383525 0.9158384 0.5253601 0.8012368 0.5253598 0.6044349 0.5266153 0.6044351 0.4689046 0.604435 0.4701448 0.604435 0.4701448 0.7594778 0.5622733 0.8070324 0.5622733 0.604435 0.5635287 0.604435 0.5610677 0.8070325 0.5598123 0.8070324 0.5598124 0.604435 0.4897159 0.7594777 0.4884747 0.7594777 0.4884747 0.6044349 0.4505795 0.7594777 0.4493396 0.7594777 0.4493396 0.6044349 0.5192319 0.8012367 0.5179767 0.8012368 0.5179767 0.6044352 0.5241539 0.8012368 0.5228987 0.8012367 0.5228987 0.6044351 0.4750365 0.7594777 0.4737961 0.7594777 0.4737961 0.604435 0.4579162 0.7594777 0.4566761 0.7594777 0.4566761 0.6044349 0.5573513 0.6044349 0.5586066 0.6044349 0.5586068 0.8070324 0.4909214 0.6044349 0.4921628 0.6044349 0.4921628 0.7594777</float_array>
          <technique_common>
            <accessor source="#Cube_035-mesh-map-1-array" count="576" stride="2">
              <param name="S" type="float"/>
              <param name="T" type="float"/>
            </accessor>
          </technique_common>
        </source>
        <vertices id="Cube_035-mesh-vertices">
          <input semantic="POSITION" source="#Cube_035-mesh-positions"/>
        </vertices>
        <triangles material="hierva_choza_gaetuli-material" count="192">
          <input semantic="VERTEX" source="#Cube_035-mesh-vertices" offset="0"/>
          <input semantic="NORMAL" source="#Cube_035-mesh-normals" offset="1"/>
          <input semantic="TEXCOORD" source="#Cube_035-mesh-map-0" offset="2" set="0"/>
          <input semantic="TEXCOORD" source="#Cube_035-mesh-map-1" offset="2" set="1"/>
          <p>0 0 0 1 1 1 3 0 2 0 0 3 3 0 4 2 2 5 4 3 6 7 3 7 5 4 8 4 3 9 6 5 10 7 3 11 8 6 12 11 7 13 9 8 14 8 6 15 10 9 16 11 7 17 12 10 18 15 11 19 13 10 20 12 10 21 14 12 22 15 11 23 16 13 24 17 13 25 19 14 26 16 13 27 19 14 28 18 15 29 20 16 30 21 17 31 23 16 32 20 16 33 23 16 34 22 18 35 24 19 36 27 19 37 25 20 38 24 19 39 26 20 40 27 19 41 28 21 42 29 21 43 31 22 44 28 21 45 31 22 46 30 23 47 32 24 48 33 25 49 35 24 50 32 24 51 35 24 52 34 26 53 36 27 54 37 27 55 39 27 56 36 27 57 39 27 58 38 27 59 40 28 60 41 29 61 43 28 62 40 28 63 43 28 64 42 29 65 44 30 66 47 30 67 45 31 68 44 30 69 46 31 70 47 30 71 48 32 72 49 33 73 51 34 74 48 32 75 51 34 76 50 35 77 52 36 78 53 36 79 55 36 80 52 36 81 55 36 82 54 37 83 56 38 84 59 38 85 57 39 86 56 38 87 58 40 88 59 38 89 60 41 90 61 42 91 63 41 92 60 41 93 63 41 94 62 43 95 64 44 96 65 44 97 66 38 98 64 44 99 67 45 100 65 44 101 68 46 102 69 47 103 70 46 104 68 46 105 70 46 106 71 48 107 72 49 108 73 49 109 74 49 110 72 49 111 74 49 112 75 49 113 76 50 114 77 50 115 78 50 116 76 50 117 78 50 118 79 50 119 80 6 120 81 51 121 82 52 122 80 6 123 83 53 124 81 51 125 84 54 126 85 55 127 86 11 128 84 54 129 87 56 130 85 55 131 88 57 132 89 57 133 90 57 134 88 57 135 90 57 136 91 58 137 92 59 138 93 60 139 94 59 140 92 59 141 95 61 142 93 60 143 96 44 144 97 45 145 98 62 146 96 44 147 99 63 148 97 45 149 100 60 150 101 60 151 102 64 152 100 60 153 103 64 154 101 60 155 104 65 156 105 65 157 106 66 158 104 65 159 107 65 160 105 65 161 108 67 162 109 68 163 110 67 164 108 67 165 110 67 166 111 68 167 112 69 168 113 69 169 114 39 170 112 69 171 115 70 172 113 69 173 116 71 174 117 71 175 118 72 176 116 71 177 119 73 178 117 71 179 120 74 180 121 75 181 122 74 182 120 74 183 122 74 184 123 75 185 124 76 186 125 77 187 126 76 188 124 76 189 127 78 190 125 77 191 56 79 192 123 80 193 58 81 194 36 82 195 102 83 196 37 84 197 13 85 198 78 86 199 77 87 200 38 88 201 100 89 202 36 90 203 16 91 204 82 92 205 17 93 206 58 94 207 122 94 208 59 94 209 16 95 210 83 96 211 80 97 212 57 98 213 122 99 214 121 87 215 39 100 216 103 101 217 38 101 218 60 102 219 126 103 220 61 104 221 39 105 222 102 106 223 101 87 224 19 107 225 83 108 226 18 109 227 62 110 228 124 111 229 60 112 230 40 113 231 106 114 232 41 115 233 17 116 234 81 117 235 19 118 236 42 119 237 104 120 238 40 121 239 20 122 240 86 123 241 21 124 242 63 125 243 127 126 244 62 127 245 22 128 246 84 129 247 20 130 248 0 131 249 66 131 250 1 131 251 63 132 252 126 133 253 125 134 254 43 135 255 107 136 256 42 137 257 2 138 258 64 139 259 0 140 260 41 141 261 105 142 262 43 143 263 23 144 264 87 145 265 22 145 266 45 146 267 108 147 268 44 148 269 23 149 270 86 150 271 85 87 272 3 151 273 67 151 274 2 152 275 44 153 276 111 154 277 46 155 278 25 156 279 88 157 280 24 158 281 3 159 282 66 160 283 65 87 284 26 161 285 88 162 286 91 97 287 5 163 288 68 163 289 4 164 290 46 165 291 110 165 292 47 166 293 6 167 294 68 168 295 71 169 296 45 170 297 110 171 298 109 87 299 26 172 300 90 173 301 27 174 302 48 175 303 114 176 304 49 176 305 27 177 306 89 178 307 25 179 308 6 180 309 70 181 310 7 182 311 50 183 312 112 184 313 48 185 314 28 186 315 94 186 316 29 187 317 7 188 318 69 189 319 5 190 320 28 191 321 95 192 322 92 97 323 9 193 324 72 194 325 8 195 326 51 196 327 115 197 328 50 198 329 8 199 330 75 200 331 10 201 332 51 202 333 114 203 334 113 87 335 31 204 336 95 204 337 30 205 338 52 206 339 118 207 340 53 208 341 29 209 342 93 210 343 31 211 344 10 212 345 74 213 346 11 214 347 52 215 348 119 216 349 116 97 350 32 217 351 98 218 352 33 219 353 9 220 354 74 221 355 73 87 356 34 222 357 96 223 358 32 224 359 13 225 360 76 226 361 12 227 362 55 228 363 119 229 364 54 230 365 12 231 366 79 232 367 14 233 368 53 234 369 117 235 370 55 236 371 35 237 372 99 237 373 34 238 374 57 239 375 120 240 376 56 240 377 33 241 378 97 242 379 35 243 380 14 244 381 78 245 382 15 246 383 56 79 384 120 247 385 123 80 386 36 82 387 100 248 388 102 83 389 13 85 390 15 249 391 78 86 392 38 88 393 103 97 394 100 89 395 16 91 396 80 250 397 82 92 398 58 94 399 123 94 400 122 94 401 16 95 402 18 251 403 83 96 404 57 98 405 59 252 406 122 99 407 39 100 408 101 253 409 103 101 410 60 102 411 124 103 412 126 103 413 39 105 414 37 254 415 102 106 416 19 107 417 81 255 418 83 108 419 62 110 420 127 256 421 124 111 422 40 113 423 104 257 424 106 114 425 17 116 426 82 258 427 81 117 428 42 119 429 107 97 430 104 120 431 20 122 432 84 259 433 86 123 434 63 125 435 125 260 436 127 126 437 22 128 438 87 97 439 84 129 440 0 131 441 64 131 442 66 131 443 63 132 444 61 261 445 126 133 446 43 135 447 105 262 448 107 136 449 2 138 450 67 263 451 64 139 452 41 141 453 106 87 454 105 142 455 23 144 456 85 264 457 87 145 458 45 146 459 109 265 460 108 147 461 23 149 462 21 266 463 86 150 464 3 151 465 65 152 466 67 151 467 44 153 468 108 97 469 111 154 470 25 156 471 89 267 472 88 157 473 3 159 474 1 268 475 66 160 476 26 161 477 24 269 478 88 162 479 5 163 480 69 270 481 68 163 482 46 165 483 111 166 484 110 165 485 6 167 486 4 271 487 68 168 488 45 170 489 47 272 490 110 171 491 26 172 492 91 198 493 90 173 494 48 175 495 112 175 496 114 176 497 27 177 498 90 87 499 89 178 500 6 180 501 71 273 502 70 181 503 50 183 504 115 274 505 112 184 506 28 186 507 92 275 508 94 186 509 7 188 510 70 276 511 69 189 512 28 191 513 30 277 514 95 192 515 9 193 516 73 278 517 72 194 518 51 196 519 113 279 520 115 197 521 8 199 522 72 280 523 75 200 524 51 202 525 49 281 526 114 203 527 31 204 528 93 282 529 95 204 530 52 206 531 116 283 532 118 207 533 29 209 534 94 87 535 93 210 536 10 212 537 75 284 538 74 213 539 52 215 540 54 285 541 119 216 542 32 217 543 96 217 544 98 218 545 9 220 546 11 286 547 74 221 548 34 222 549 99 97 550 96 223 551 13 225 552 77 287 553 76 226 554 55 228 555 117 288 556 119 229 557 12 231 558 76 97 559 79 232 560 53 234 561 118 289 562 117 235 563 35 237 564 97 238 565 99 237 566 57 239 567 121 290 568 120 240 569 33 241 570 98 87 571 97 242 572 14 244 573 79 291 574 78 245 575</p>
        </triangles>
      </mesh>
    </geometry>
  </library_geometries>
  <library_visual_scenes>
    <visual_scene id="Scene" name="Scene">
      <node id="stable_elephant_f" name="stable_elephant_f" type="NODE">
        <matrix sid="transform">1 0 0 0 0 1 0 0 0 0 1 0 0 0 0 1</matrix>
        <instance_geometry url="#Cube_035-mesh" name="stable_elephant_f">
          <bind_material>
            <technique_common>
              <instance_material symbol="hierva_choza_gaetuli-material" target="#hierva_choza_gaetuli-material">
                <bind_vertex_input semantic="Cube_035-mesh-map-0" input_semantic="TEXCOORD" input_set="0"/>
                <bind_vertex_input semantic="Cube_035-mesh-map-1" input_semantic="TEXCOORD" input_set="1"/>
              </instance_material>
            </technique_common>
          </bind_material>
        </instance_geometry>
        <node id="prop_garrisoned" name="prop_garrisoned" type="NODE">
          <matrix sid="transform">-0.7829416 1.18221e-7 0 5.35037e-14 -1.18221e-7 -0.7829416 0 5.033843 0 0 0.7829416 9.013988 0 0 0 1</matrix>
        </node>
        <node id="prop_projectile" name="prop_projectile" type="NODE">
          <matrix sid="transform">-0.7829416 1.18221e-7 0 5.35037e-14 -1.18221e-7 -0.7829416 0 5.033842 0 0 0.7829416 9.013988 0 0 0 1</matrix>
        </node>
      </node>
    </visual_scene>
  </library_visual_scenes>
  <scene>
    <instance_visual_scene url="#Scene"/>
  </scene>
</COLLADA>