<?xml version="1.0" encoding="utf-8"?>
<COLLADA xmlns="http://www.collada.org/2005/11/COLLADASchema" version="1.4.1" xmlns:xsi="http://www.w3.org/2001/XMLSchema-instance">
  <asset>
    <contributor>
      <author>Blender User</author>
      <authoring_tool>Blender 4.3.1 commit date:2024-12-10, commit time:07:46, hash:33d812126174</authoring_tool>
    </contributor>
    <created>2026-08-22T20:27:54</created>
    <modified>2026-08-22T20:27:54</modified>
    <unit name="meter" meter="1"/>
    <up_axis>Z_UP</up_axis>
  </asset>
  <library_effects>
    <effect id="hierva_choza_gaetuli-effect">
      <profile_COMMON>
        <technique sid="common">
          <lambert>
            <emission>
              <color sid="emission">0 0 0 1</color>
            </emission>
            <diffuse>
              <color sid="diffuse">0.8 0.8 0.8 1</color>
            </diffuse>
            <index_of_refraction>
              <float sid="ior">1.45</float>
            </index_of_refraction>
          </lambert>
        </technique>
      </profile_COMMON>
    </effect>
  </library_effects>
  <library_images/>
  <library_materials>
    <material id="hierva_choza_gaetuli-material" name="hierva choza gaetuli">
      <instance_effect url="#hierva_choza_gaetuli-effect"/>
    </material>
  </library_materials>
  <library_geometries>
    <geometry id="Cube_008-mesh" name="Cube.008">
      <mesh>
        <source id="Cube_008-mesh-positions">
          <float_array id="Cube_008-mesh-positions-array" count="144">3.33968 -4.357675 3.902888 3.33968 -4.357675 0.4004871 -0.5261646 -6.807375 3.902888 -0.5261646 -6.807375 0.4004871 -0.3865733 -4.15787 3.902889 -0.3865733 -4.15787 0.4004871 3.034813 -6.996645 3.902889 3.034813 -6.996645 0.4004871 -5.591862 5.57094 3.902888 -5.591862 5.57094 0.4004871 -2.834347 1.918284 3.902888 -2.834347 1.918284 0.4004871 -5.486396 1.840823 3.902888 -5.486396 1.840823 0.4004871 -2.936803 5.482815 3.902888 -2.936803 5.482815 0.4004871 6.942093 -2.467121 3.902888 6.942093 -2.467121 0.4004871 4.235218 1.223219 3.902888 4.235218 1.223219 0.4004871 6.888083 1.264094 3.902888 6.888083 1.264094 0.4004871 4.288502 -2.342386 3.902888 4.288502 -2.342386 0.4004871 3.356273 -4.383861 3.902888 -0.5095716 -6.83356 0.4004871 3.356273 -4.383861 0.4004871 -0.5095716 -6.83356 3.902888 -0.406368 -4.181727 3.902889 -0.406368 -4.181727 0.4004871 3.015018 -7.020502 0.4004871 3.015018 -7.020502 3.902889 -5.616603 5.552261 3.902888 -5.616603 5.552261 0.4004871 -2.859088 1.899605 0.4004871 -2.859088 1.899605 3.902888 -5.461 1.823045 3.902888 -5.461 1.823045 0.4004871 -2.911408 5.465037 0.4004871 -2.911408 5.465037 3.902888 6.917097 -2.485456 3.902888 4.210221 1.204884 0.4004871 6.917097 -2.485456 0.4004871 4.210221 1.204884 3.902888 6.862936 1.282221 3.902888 6.862936 1.282221 0.4004871 4.263354 -2.324259 0.4004871 4.263354 -2.324259 3.902888</float_array>
          <technique_common>
            <accessor source="#Cube_008-mesh-positions-array" count="48" stride="3">
              <param name="X" type="float"/>
              <param name="Y" type="float"/>
              <param name="Z" type="float"/>
            </accessor>
          </technique_common>
        </source>
        <source id="Cube_008-mesh-normals">
          <float_array id="Cube_008-mesh-normals-array" count="330">-0.5352598 0.8446877 0 0.6385395 0.7695891 0 0.6385396 0.7695891 0 0.6385395 0.7695891 0 0.7981058 0.6025174 0 0.7981058 0.6025174 0 0.7981057 0.6025174 0 -0.819211 0.5734923 0 0.8063399 0.5914525 0 0.8063399 0.5914525 0 0.8063398 0.5914525 0 0.8112233 -0.5847365 0 0.8112234 -0.5847365 0 0.5352596 -0.8446876 0 0.5352596 -0.8446877 0 0.5352596 -0.8446877 0 0.5352596 -0.8446877 0 -0.6385395 -0.7695891 0 -0.6385396 -0.7695891 0 -0.6385395 -0.7695891 0 -0.7981058 -0.6025174 0 -0.7981058 -0.6025174 0 0.819211 -0.5734924 0 0.8192108 -0.5734924 0 0.819211 -0.5734923 0 0.819211 -0.5734922 0 -0.8063398 -0.5914527 0 -0.8063397 -0.5914527 0 -0.8063398 -0.5914528 0 -0.8112232 0.5847367 0 -0.8112232 0.5847367 0 -0.8112232 0.5847367 0 -0.7695885 0.6385402 0 -0.7695874 0.6385415 0 0.5914568 -0.8063367 0 0.5914734 -0.8063247 0 0.5914735 -0.8063246 0 0.6025401 -0.7980887 0 0.6025401 -0.7980886 0 0.6025402 -0.7980887 0 -0.5847334 -0.8112255 0 -0.5847334 -0.8112255 0 0 0 1 4.52102e-6 0 1 4.54118e-6 0 1 0 0 1 -1.27586e-5 0 1 -1.28138e-5 0 1 0 0 -1 5.42475e-7 0 -1 0 0 -1 0 0 -1 0 0 -1 0.8446959 0.5352465 0 -0.5734956 -0.8192086 0 -0.5734956 -0.8192087 0 0.7695906 -0.6385377 0 0.7695821 -0.6385479 0 0.769582 -0.638548 0 -0.5914458 0.8063448 0 -0.5914375 0.8063509 0 -0.5914375 0.806351 0 -1.33511e-5 0 1 7.89025e-6 0 1 -1.34434e-5 0 1 -1.37592e-5 0 1 4.24435e-6 0 1 4.32497e-6 0 1 0 0 -1 5.51684e-7 0 -1 5.54137e-7 0 -1 0 0 -1 1.37253e-7 0 -1 1.37848e-7 0 -1 -0.6025536 0.7980785 0 -0.6025534 0.7980785 0 -0.6025534 0.7980786 0 0.5847584 0.8112075 0 0.584742 0.8112194 0 0.5847418 0.8112195 0 -0.8446861 -0.535262 0 0.5734848 0.8192163 0 0.5734931 0.8192105 0 0.5734931 0.8192104 0 0 0 1 8.36587e-7 0 1 8.40215e-7 0 1 0 0 1 2.04519e-6 0 1 2.05429e-6 0 1 -8.35802e-7 0 -1 1.79398e-7 0 -1 1.83808e-7 0 -1 -1.71345e-6 0 -1 1.9837e-6 0 -1 2.00025e-6 0 -1 0.5914567 -0.8063368 0 0 0 1 5.44827e-7 0 -1 0 0 -1 -0.5734956 -0.8192087 0 0.7695907 -0.6385376 0 -0.5914459 0.8063448 0 7.98252e-6 0 1 -1.38399e-5 0 1 -0.6025535 0.7980785 0 0.5847585 0.8112075 0 0.5734848 0.8192163 0 -8.40212e-7 0 -1 -1.73001e-6 0 -1</float_array>
          <technique_common>
            <accessor source="#Cube_008-mesh-normals-array" count="110" stride="3">
              <param name="X" type="float"/>
              <param name="Y" type="float"/>
              <param name="Z" type="float"/>
            </accessor>
          </technique_common>
        </source>
        <source id="Cube_008-mesh-map-0">
          <float_array id="Cube_008-mesh-map-0-array" count="432">0.9984335 0.6838312 1.000765 0.001214206 0.001161634 6.92369e-4 0.9984335 0.6838312 0.001161634 6.92369e-4 5.39125e-4 0.6833093 0.9984335 0.6838312 0.001161634 6.92369e-4 1.000765 0.001214206 0.9984335 0.6838312 5.39125e-4 0.6833093 0.001161634 6.92369e-4 0.9984335 0.6838312 0.001161634 6.92369e-4 1.000765 0.001214206 0.9984335 0.6838312 5.39125e-4 0.6833093 0.001161634 6.92369e-4 0.9984335 0.6838312 0.001161634 6.92369e-4 1.000765 0.001214206 0.9984335 0.6838312 5.39125e-4 0.6833093 0.001161634 6.92369e-4 0.9984335 0.6838312 1.000765 0.001214206 0.001161634 6.92369e-4 0.9984335 0.6838312 0.001161634 6.92369e-4 5.39125e-4 0.6833093 0.9984335 0.6838312 0.001161634 6.92369e-4 1.000765 0.001214206 0.9984335 0.6838312 5.39125e-4 0.6833093 0.001161634 6.92369e-4 0.9984335 0.6838312 0.001161634 6.92369e-4 1.000765 0.001214206 0.9984335 0.6838312 5.39125e-4 0.6833093 0.001161634 6.92369e-4 0.9984335 0.6838312 1.000765 0.001214206 0.001161634 6.92369e-4 0.9984335 0.6838312 0.001161634 6.92369e-4 5.39125e-4 0.6833093 0.9984335 0.6838312 1.000765 0.001214206 0.001161634 6.92369e-4 0.9984335 0.6838312 0.001161634 6.92369e-4 5.39125e-4 0.6833093 0.9984335 0.6838312 1.000765 0.001214206 0.001161634 6.92369e-4 0.9984335 0.6838312 0.001161634 6.92369e-4 5.39125e-4 0.6833093 0.9984335 0.6838312 0.001161634 6.92369e-4 1.000765 0.001214206 0.9984335 0.6838312 5.39125e-4 0.6833093 0.001161634 6.92369e-4 0.9984335 0.6838312 1.000765 0.001214206 0.001161634 6.92369e-4 0.9984335 0.6838312 0.001161634 6.92369e-4 5.39125e-4 0.6833093 1.000765 0.001214206 0.9984335 0.6838312 0.9984335 0.6838312 0.9984335 0.6838312 1.000765 0.001214206 1.000765 0.001214206 5.39125e-4 0.6833093 0.001161634 6.92369e-4 0.001161634 6.92369e-4 5.39125e-4 0.6833093 0.001161634 6.92369e-4 0.001161634 6.92369e-4 0.9984335 0.6838312 5.39125e-4 0.6833093 5.39125e-4 0.6833093 5.39125e-4 0.6833093 0.9984335 0.6838312 0.9984335 0.6838312 1.000765 0.001214206 0.001161634 6.92369e-4 1.000765 0.001214206 1.000765 0.001214206 0.001161634 6.92369e-4 1.000765 0.001214206 0.9984335 0.6838312 1.000765 0.001214206 1.000765 0.001214206 1.000765 0.001214206 0.9984335 0.6838312 0.9984335 0.6838312 5.39125e-4 0.6833093 0.001161634 6.92369e-4 0.001161634 6.92369e-4 0.001161634 6.92369e-4 5.39125e-4 0.6833093 5.39125e-4 0.6833093 0.9984335 0.6838312 5.39125e-4 0.6833093 0.9984335 0.6838312 0.9984335 0.6838312 5.39125e-4 0.6833093 5.39125e-4 0.6833093 0.001161634 6.92369e-4 1.000765 0.001214206 1.000765 0.001214206 1.000765 0.001214206 0.001161634 6.92369e-4 0.001161634 6.92369e-4 1.000765 0.001214206 0.9984335 0.6838312 0.9984335 0.6838312 1.000765 0.001214206 0.9984335 0.6838312 0.9984335 0.6838312 0.001161634 6.92369e-4 5.39125e-4 0.6833093 5.39125e-4 0.6833093 5.39125e-4 0.6833093 0.001161634 6.92369e-4 0.001161634 6.92369e-4 0.9984335 0.6838312 5.39125e-4 0.6833093 5.39125e-4 0.6833093 0.9984335 0.6838312 5.39125e-4 0.6833093 5.39125e-4 0.6833093 1.000765 0.001214206 0.001161634 6.92369e-4 0.001161634 6.92369e-4 0.001161634 6.92369e-4 1.000765 0.001214206 1.000765 0.001214206 1.000765 0.001214206 1.000765 0.001214206 0.9984335 0.6838312 0.9984335 0.6838312 0.9984335 0.6838312 1.000765 0.001214206 5.39125e-4 0.6833093 5.39125e-4 0.6833093 0.001161634 6.92369e-4 5.39125e-4 0.6833093 5.39125e-4 0.6833093 0.001161634 6.92369e-4 0.9984335 0.6838312 0.9984335 0.6838312 5.39125e-4 0.6833093 5.39125e-4 0.6833093 5.39125e-4 0.6833093 0.9984335 0.6838312 1.000765 0.001214206 0.001161634 6.92369e-4 0.001161634 6.92369e-4 1.000765 0.001214206 0.001161634 6.92369e-4 0.001161634 6.92369e-4 0.9984335 0.6838312 0.9984335 0.6838312 1.000765 0.001214206 1.000765 0.001214206 1.000765 0.001214206 0.9984335 0.6838312 5.39125e-4 0.6833093 5.39125e-4 0.6833093 0.001161634 6.92369e-4 0.001161634 6.92369e-4 0.001161634 6.92369e-4 5.39125e-4 0.6833093 0.9984335 0.6838312 5.39125e-4 0.6833093 5.39125e-4 0.6833093 0.9984335 0.6838312 0.9984335 0.6838312 5.39125e-4 0.6833093 0.001161634 6.92369e-4 0.001161634 6.92369e-4 1.000765 0.001214206 1.000765 0.001214206 1.000765 0.001214206 0.001161634 6.92369e-4 1.000765 0.001214206 1.000765 0.001214206 0.9984335 0.6838312 1.000765 0.001214206 1.000765 0.001214206 0.9984335 0.6838312 0.001161634 6.92369e-4 0.001161634 6.92369e-4 5.39125e-4 0.6833093 5.39125e-4 0.6833093 5.39125e-4 0.6833093 0.001161634 6.92369e-4 0.9984335 0.6838312 0.9984335 0.6838312 5.39125e-4 0.6833093 0.9984335 0.6838312 0.9984335 0.6838312 5.39125e-4 0.6833093 1.000765 0.001214206 1.000765 0.001214206 0.001161634 6.92369e-4 0.001161634 6.92369e-4 0.001161634 6.92369e-4 1.000765 0.001214206</float_array>
          <technique_common>
            <accessor source="#Cube_008-mesh-map-0-array" count="216" stride="2">
              <param name="S" type="float"/>
              <param name="T" type="float"/>
            </accessor>
          </technique_common>
        </source>
        <source id="Cube_008-mesh-map-1">
          <float_array id="Cube_008-mesh-map-1-array" count="432">0.4002543 0.3361739 0.5997457 0.336174 0.5997457 0.6675651 0.4002543 0.3361739 0.5997457 0.6675651 0.4002543 0.6675651 0.6003814 0.3270379 0.7998728 0 0.7998728 0.3270379 0.6003814 0.3270379 0.6003814 0 0.7998728 0 0 0.3359618 0.1994914 0 0.1994913 0.3359618 0 0.3359618 0 0 0.1994914 0 0.8005086 0.6469854 1 0.3239056 1 0.6469854 0.8005086 0.6469854 0.8005086 0.3239056 1 0.3239056 0 0.3367876 0.1994914 0.3367877 0.1994914 0.6721361 0 0.3367876 0.1994914 0.6721361 0 0.6721361 0.6003814 0.651763 0.7998728 0.3278636 0.7998728 0.651763 0.6003814 0.651763 0.6003814 0.3278636 0.7998728 0.3278636 0.4002543 0.9997816 0.5997458 0.6683908 0.5997457 0.9997816 0.4002543 0.9997816 0.4002543 0.6683908 0.5997458 0.6683908 0 0.6729617 0.1994915 0.6729617 0.1994915 1 0 0.6729617 0.1994915 1 0 0.9999999 0.2001271 0 0.3996186 0 0.3996185 0.3359615 0.2001271 0 0.3996185 0.3359615 0.2001271 0.3359615 0.8005086 0 1 0 1 0.32308 0.8005086 0 1 0.32308 0.8005086 0.3230799 0.4002543 0.3353482 0.5997457 0 0.5997457 0.3353482 0.4002543 0.3353482 0.4002543 0 0.5997457 0 0.6003814 0.6525888 0.7998728 0.6525888 0.7998728 0.9764881 0.6003814 0.6525888 0.7998728 0.9764881 0.6003814 0.9764881 0.3708012 0.5959062 0.3690456 0.3367872 0.3708012 0.3367872 0.3571099 0.3367873 0.3588586 0.5959062 0.3571099 0.5959062 0.3642665 0.3367873 0.3660185 0.5959062 0.3642665 0.5959062 0.3547353 0.3367873 0.3564741 0.5959062 0.3547353 0.5959062 0.3804069 0.6656968 0.3786412 0.3367872 0.3804069 0.3367872 0.3996186 0.675383 0.3978528 0.3367872 0.3996185 0.3367873 0.388247 0.6753832 0.3900127 0.3367872 0.3900127 0.675383 0.3834441 0.6656967 0.3852098 0.3367872 0.3852098 0.6656967 0.3452567 0.3367873 0.3469849 0.5959062 0.3452567 0.5959062 0.3517251 0.5959062 0.3499907 0.3367873 0.3517251 0.3367873 0.3666542 0.3367872 0.3684098 0.5959062 0.3666542 0.5959062 0.3612431 0.5959062 0.3594943 0.3367873 0.3612431 0.3367873 0.3930499 0.675383 0.3948156 0.3367873 0.3948156 0.675383 0.371437 0.3367872 0.3732027 0.6656967 0.371437 0.6656967 0.3762397 0.3367872 0.3780055 0.6656967 0.3762397 0.6656967 0.3954514 0.3367873 0.397217 0.675383 0.3954514 0.675383 0.3636308 0.5959062 0.3618788 0.3367873 0.3636308 0.3367873 0.3540996 0.5959062 0.3523608 0.3367873 0.3540996 0.3367873 0.344621 0.5959062 0.3428929 0.3367873 0.344621 0.3367873 0.3476206 0.3367873 0.3493549 0.5959062 0.3476206 0.5959062 0.3876113 0.6753832 0.3858455 0.3367872 0.3876113 0.3367874 0.3828084 0.6656967 0.3810427 0.3367872 0.3828084 0.3367872 0.3924142 0.675383 0.3906485 0.3367872 0.3924142 0.3367872 0.375604 0.6656967 0.3738383 0.3367872 0.375604 0.3367872 0.3708012 0.5959062 0.3690456 0.5959062 0.3690456 0.3367872 0.3571099 0.3367873 0.3588586 0.3367873 0.3588586 0.5959062 0.3642665 0.3367873 0.3660185 0.3367873 0.3660185 0.5959062 0.3547353 0.3367873 0.3564741 0.3367873 0.3564741 0.5959062 0.3804069 0.6656968 0.3786412 0.6656968 0.3786412 0.3367872 0.3996186 0.675383 0.3978528 0.6753832 0.3978528 0.3367872 0.388247 0.6753832 0.388247 0.3367874 0.3900127 0.3367872 0.3834441 0.6656967 0.3834441 0.3367872 0.3852098 0.3367872 0.3452567 0.3367873 0.3469849 0.3367873 0.3469849 0.5959062 0.3517251 0.5959062 0.3499907 0.5959062 0.3499907 0.3367873 0.3666542 0.3367872 0.3684098 0.3367872 0.3684098 0.5959062 0.3612431 0.5959062 0.3594943 0.5959062 0.3594943 0.3367873 0.3930499 0.675383 0.3930499 0.3367873 0.3948156 0.3367873 0.371437 0.3367872 0.3732027 0.3367872 0.3732027 0.6656967 0.3762397 0.3367872 0.3780055 0.3367872 0.3780055 0.6656967 0.3954514 0.3367873 0.397217 0.3367872 0.397217 0.675383 0.3636308 0.5959062 0.3618788 0.5959062 0.3618788 0.3367873 0.3540996 0.5959062 0.3523608 0.5959062 0.3523608 0.3367873 0.344621 0.5959062 0.3428929 0.5959062 0.3428929 0.3367873 0.3476206 0.3367873 0.3493549 0.3367873 0.3493549 0.5959062 0.3876113 0.6753832 0.3858456 0.675383 0.3858455 0.3367872 0.3828084 0.6656967 0.3810427 0.6656967 0.3810427 0.3367872 0.3924142 0.675383 0.3906485 0.675383 0.3906485 0.3367872 0.375604 0.6656967 0.3738384 0.6656967 0.3738383 0.3367872</float_array>
          <technique_common>
            <accessor source="#Cube_008-mesh-map-1-array" count="216" stride="2">
              <param name="S" type="float"/>
              <param name="T" type="float"/>
            </accessor>
          </technique_common>
        </source>
        <vertices id="Cube_008-mesh-vertices">
          <input semantic="POSITION" source="#Cube_008-mesh-positions"/>
        </vertices>
        <triangles material="hierva_choza_gaetuli-material" count="72">
          <input semantic="VERTEX" source="#Cube_008-mesh-vertices" offset="0"/>
          <input semantic="NORMAL" source="#Cube_008-mesh-normals" offset="1"/>
          <input semantic="TEXCOORD" source="#Cube_008-mesh-map-0" offset="2" set="0"/>
          <input semantic="TEXCOORD" source="#Cube_008-mesh-map-1" offset="2" set="1"/>
          <p>0 0 0 1 0 1 3 0 2 0 0 3 3 0 4 2 0 5 4 1 6 7 1 7 5 2 8 4 1 9 6 3 10 7 1 11 8 4 12 11 4 13 9 5 14 8 4 15 10 6 16 11 4 17 12 7 18 15 7 19 13 7 20 12 7 21 14 7 22 15 7 23 16 8 24 17 9 25 19 8 26 16 8 27 19 8 28 18 10 29 20 11 30 23 11 31 21 12 32 20 11 33 22 11 34 23 11 35 24 13 36 25 14 37 26 15 38 24 13 39 27 16 40 25 14 41 28 17 42 29 18 43 30 17 44 28 17 45 30 17 46 31 19 47 32 20 48 33 21 49 34 20 50 32 20 51 34 20 52 35 20 53 36 22 54 37 23 55 38 24 56 36 22 57 38 24 58 39 25 59 40 26 60 41 26 61 42 27 62 40 26 63 43 28 64 41 26 65 44 29 66 45 30 67 46 31 68 44 29 69 46 31 70 47 29 71 5 32 72 28 33 73 4 33 74 16 34 75 42 35 76 17 36 77 10 37 78 34 38 79 11 39 80 22 40 81 46 40 82 23 41 83 4 42 84 31 43 85 6 44 86 18 45 87 40 46 88 16 47 89 9 48 90 34 49 91 33 50 92 21 51 93 46 52 94 45 50 95 0 53 96 26 53 97 1 53 98 13 54 99 36 55 100 12 55 101 6 56 102 30 57 103 7 58 104 19 59 105 43 60 106 18 61 107 0 62 108 27 63 109 24 64 110 12 65 111 39 66 112 14 67 113 7 68 114 29 69 115 5 70 116 17 71 117 41 72 118 19 73 119 9 74 120 32 75 121 8 76 122 21 77 123 44 78 124 20 79 125 3 80 126 27 80 127 2 80 128 14 81 129 38 82 130 15 83 131 8 84 132 35 85 133 10 86 134 20 87 135 47 88 136 22 89 137 1 90 138 25 91 139 3 92 140 15 93 141 37 94 142 13 95 143 5 32 144 29 32 145 28 33 146 16 34 147 40 96 148 42 35 149 10 37 150 35 37 151 34 38 152 22 40 153 47 41 154 46 40 155 4 42 156 28 97 157 31 43 158 18 45 159 43 97 160 40 46 161 9 48 162 11 98 163 34 49 164 21 51 165 23 99 166 46 52 167 0 53 168 24 53 169 26 53 170 13 54 171 37 100 172 36 55 173 6 56 174 31 101 175 30 57 176 19 59 177 41 102 178 43 60 179 0 62 180 2 103 181 27 63 182 12 65 183 36 104 184 39 66 185 7 68 186 30 50 187 29 69 188 17 71 189 42 50 190 41 72 191 9 74 192 33 105 193 32 75 194 21 77 195 45 106 196 44 78 197 3 80 198 25 80 199 27 80 200 14 81 201 39 107 202 38 82 203 8 84 204 32 97 205 35 85 206 20 87 207 44 97 208 47 88 209 1 90 210 26 108 211 25 91 212 15 93 213 38 109 214 37 94 215</p>
        </triangles>
      </mesh>
    </geometry>
  </library_geometries>
  <library_visual_scenes>
    <visual_scene id="Scene" name="Scene">
      <node id="storehouse_f" name="storehouse_f" type="NODE">
        <matrix sid="transform">1 0 0 0 0 1 0 0 0 0 1 0 0 0 0 1</matrix>
        <instance_geometry url="#Cube_008-mesh" name="storehouse_f">
          <bind_material>
            <technique_common>
              <instance_material symbol="hierva_choza_gaetuli-material" target="#hierva_choza_gaetuli-material">
                <bind_vertex_input semantic="Cube_008-mesh-map-0" input_semantic="TEXCOORD" input_set="0"/>
                <bind_vertex_input semantic="Cube_008-mesh-map-1" input_semantic="TEXCOORD" input_set="1"/>
              </instance_material>
            </technique_common>
          </bind_material>
        </instance_geometry>
        <node id="prop_garrisoned" name="prop_garrisoned" type="NODE">
          <matrix sid="transform">-0.7829416 1.18221e-7 0 5.35037e-14 -1.18221e-7 -0.7829416 0 5.033843 0 0 0.7829416 9.013988 0 0 0 1</matrix>
        </node>
        <node id="prop_projectile" name="prop_projectile" type="NODE">
          <matrix sid="transform">-0.7829416 1.18221e-7 0 5.35037e-14 -1.18221e-7 -0.7829416 0 5.033842 0 0 0.7829416 9.013988 0 0 0 1</matrix>
        </node>
      </node>
    </visual_scene>
  </library_visual_scenes>
  <scene>
    <instance_visual_scene url="#Scene"/>
  </scene>
</COLLADA>