<?xml version="1.0" encoding="utf-8"?>
<COLLADA xmlns="http://www.collada.org/2005/11/COLLADASchema" version="1.4.1" xmlns:xsi="http://www.w3.org/2001/XMLSchema-instance">
  <asset>
    <contributor>
      <author>Blender User</author>
      <authoring_tool>Blender 4.3.1 commit date:2024-12-10, commit time:07:46, hash:33d812126174</authoring_tool>
    </contributor>
    <created>2026-08-22T20:30:47</created>
    <modified>2026-08-22T20:30:47</modified>
    <unit name="meter" meter="1"/>
    <up_axis>Z_UP</up_axis>
  </asset>
  <library_effects>
    <effect id="hierva_choza_gaetuli-effect">
      <profile_COMMON>
        <technique sid="common">
          <lambert>
            <emission>
              <color sid="emission">0 0 0 1</color>
            </emission>
            <diffuse>
              <color sid="diffuse">0.8 0.8 0.8 1</color>
            </diffuse>
            <index_of_refraction>
              <float sid="ior">1.45</float>
            </index_of_refraction>
          </lambert>
        </technique>
      </profile_COMMON>
    </effect>
  </library_effects>
  <library_images/>
  <library_materials>
    <material id="hierva_choza_gaetuli-material" name="hierva choza gaetuli">
      <instance_effect url="#hierva_choza_gaetuli-effect"/>
    </material>
  </library_materials>
  <library_geometries>
    <geometry id="Cube_015-mesh" name="Cube.015">
      <mesh>
        <source id="Cube_015-mesh-positions">
          <float_array id="Cube_015-mesh-positions-array" count="432">-2.145037 0.4222674 15.97158 -2.145037 0.4222674 12.46918 -6.510577 1.796261 15.97158 -6.510577 1.796261 12.46918 -4.395893 3.398597 15.97158 -4.395893 3.398597 12.46918 -4.358278 -1.046975 15.97158 -4.358278 -1.046975 12.46918 -1.170647 7.236898 15.97158 -1.170647 7.236898 12.46918 -1.608309 2.681216 15.97158 -1.608309 2.681216 12.46918 -3.614787 4.417134 15.97158 -3.614787 4.417134 12.46918 0.7260999 5.376938 15.97158 0.7260999 5.376938 12.46918 3.079991 -1.795711 15.97158 3.079991 -1.795711 12.46918 2.64233 -6.351393 15.97158 2.64233 -6.351393 12.46918 0.6358523 -4.615475 15.97158 0.6358523 -4.615475 12.46918 4.976739 -3.655671 15.97158 4.976739 -3.655671 12.46918 -3.694464 -4.917276 15.97158 -3.694464 -4.917276 12.46918 -4.132126 -9.472959 15.97158 -4.132126 -9.472959 12.46918 -6.138604 -7.73704 15.97158 -6.138604 -7.73704 12.46918 -1.797717 -6.777236 15.97158 -1.797717 -6.777236 12.46918 -3.792038 7.697212 15.97158 -3.792038 7.697212 12.46918 -8.157578 9.071207 15.97158 -8.157578 9.071207 12.46918 -6.042893 10.67354 15.97158 -6.042893 10.67354 12.46918 -6.005279 6.227969 15.97158 -6.005279 6.227969 12.46918 5.033151 3.055216 8.246053 5.033151 3.055216 4.74365 7.638137 -0.707739 8.246053 7.638137 -0.707739 4.74365 4.985146 -0.6760818 8.246053 4.985146 -0.6760818 4.74365 7.682341 2.85799 8.246053 7.682341 2.85799 4.74365 -10.37179 -0.8190789 8.246053 -10.37179 -0.8190789 4.74365 -7.766801 -4.582034 8.246053 -7.766801 -4.582034 4.74365 -10.41979 -4.550376 8.246053 -10.41979 -4.550376 4.74365 -7.722599 -1.016304 8.246053 -7.722599 -1.016304 4.74365 4.974617 -11.67683 3.90289 4.974617 -11.67683 0.4004874 7.844991 -15.24148 3.90289 7.844991 -15.24148 0.4004874 5.19666 -15.40182 3.90289 5.19666 -15.40182 0.4004874 7.631132 -11.68189 3.90289 7.631132 -11.68189 0.4004874 -10.51787 -11.56979 3.90289 -10.51787 -11.56979 0.4004874 -7.913702 -15.3333 3.90289 -7.913702 -15.3333 0.4004874 -10.56669 -15.30107 3.90289 -10.56669 -15.30107 0.4004874 -7.868728 -11.76758 3.90289 -7.868728 -11.76758 0.4004874 -2.154344 0.3926975 15.97158 -6.519883 1.766691 12.46918 -2.154344 0.3926975 12.46918 -6.519883 1.766691 15.97158 -4.426892 3.398334 15.97158 -4.426892 3.398334 12.46918 -4.389276 -1.047237 12.46918 -4.389276 -1.047237 15.97158 -1.201505 7.239862 15.97158 -1.201505 7.239862 12.46918 -1.639167 2.684181 12.46918 -1.639167 2.684181 15.97158 -3.608094 4.386865 15.97158 -3.608094 4.386865 12.46918 0.7327926 5.346669 12.46918 0.7327926 5.346669 15.97158 3.049133 -1.792746 15.97158 3.049133 -1.792746 12.46918 2.611472 -6.348429 12.46918 2.611472 -6.348429 15.97158 0.6291596 -4.585206 15.97158 4.970046 -3.625402 12.46918 0.6291596 -4.585206 12.46918 4.970046 -3.625402 15.97158 -3.725322 -4.914311 15.97158 -3.725322 -4.914311 12.46918 -4.162984 -9.469994 12.46918 -4.162984 -9.469994 15.97158 -6.145297 -7.706771 15.97158 -1.80441 -6.746967 12.46918 -6.145297 -7.706771 12.46918 -1.80441 -6.746967 15.97158 -3.801345 7.667642 15.97158 -8.166885 9.041636 12.46918 -3.801345 7.667642 12.46918 -8.166885 9.041636 15.97158 -6.011895 10.6738 15.97158 -5.974279 6.228231 12.46918 -6.011895 10.6738 12.46918 -5.974279 6.228231 15.97158 5.007662 3.037571 8.246053 5.007662 3.037571 4.74365 7.612648 -0.7253839 4.74365 7.612648 -0.7253839 8.246053 4.960503 -0.6572743 8.246053 7.657697 2.876798 4.74365 4.960503 -0.6572743 4.74365 7.657697 2.876798 8.246053 -10.3463 -0.801434 8.246053 -7.741313 -4.564389 4.74365 -10.3463 -0.801434 4.74365 -7.741313 -4.564389 8.246053 -10.39515 -4.569184 8.246053 -10.39515 -4.569184 4.74365 -7.697956 -1.035112 4.74365 -7.697956 -1.035112 8.246053 4.998762 -11.65739 3.90289 7.869135 -15.22204 0.4004874 4.998762 -11.65739 0.4004874 7.869135 -15.22204 3.90289 5.170722 -15.38485 3.90289 7.605194 -11.66492 0.4004874 5.170722 -15.38485 0.4004874 7.605194 -11.66492 3.90289 -10.49238 -11.55215 3.90289 -7.88821 -15.31567 0.4004874 -10.49238 -11.55215 0.4004874 -7.88821 -15.31567 3.90289 -10.59133 -15.28226 3.90289 -7.893368 -11.74877 0.4004874 -10.59133 -15.28226 0.4004874 -7.893368 -11.74877 3.90289</float_array>
          <technique_common>
            <accessor source="#Cube_015-mesh-positions-array" count="144" stride="3">
              <param name="X" type="float"/>
              <param name="Y" type="float"/>
              <param name="Z" type="float"/>
            </accessor>
          </technique_common>
        </source>
        <source id="Cube_015-mesh-normals">
          <float_array id="Cube_015-mesh-normals-array" count="1083">0.3002177 0.9538707 0 0.3002177 0.9538708 0 0.3002177 0.9538708 0 0.9999643 0.008460938 0 0.9999643 0.008460938 0 0.9999642 0.008460879 0 0.9999642 0.008460998 0 0.9954171 -0.09562915 0 0.9954171 -0.09562915 0 0.9954171 -0.09562921 0 0.9954171 -0.09562915 0 -0.2158934 0.976417 0 -0.2158933 0.976417 0 -0.2158935 0.976417 0 0.9954171 -0.09562897 0 0.9954171 -0.09562897 0 0.9954171 -0.09562897 0 0.9954171 -0.09562903 0 0.2158935 -0.976417 0 0.2158935 -0.976417 0 0.2158935 -0.976417 0 0.9954171 -0.09562909 0 0.9954171 -0.09562909 0 0.2158934 -0.976417 0 0.2158933 -0.976417 0 0.2158935 -0.976417 0 0.3002178 0.9538707 0 0.3002178 0.9538708 0 0.3002179 0.9538707 0 0.3002179 0.9538707 0 -0.9999643 -0.00846064 0 -0.9999642 -0.00846076 0 -0.9999643 -0.00846064 0 -0.9999642 -0.008460521 0 0.8222063 0.5691897 0 0.8222063 0.5691896 0 0.8222062 0.5691898 0 0.7949361 -0.6066933 0 0.7949361 -0.6066932 0 -0.8222059 -0.5691902 0 -0.822206 -0.5691901 0 -0.8222059 -0.5691903 0 -0.8222059 -0.5691905 0 -0.7949365 0.6066927 0 -0.7949366 0.6066926 0 -0.7949363 0.606693 0 -0.7949368 0.6066923 0 -0.7788766 -0.6271772 0 -0.7788766 -0.6271772 0 -0.7788767 -0.6271772 0 -0.7788768 -0.6271771 0 0.8367418 -0.5475976 0 0.8367419 -0.5475977 0 0.8367419 -0.5475976 0 -0.8223291 -0.5690122 0 -0.8223292 -0.5690122 0 -0.8223291 -0.5690124 0 0.7948047 -0.6068654 0 0.7948046 -0.6068655 0 0.7948047 -0.6068653 0 0.7948048 -0.6068652 0 -0.3002178 -0.9538707 0 -0.3002178 -0.9538707 0 -0.3002178 -0.9538708 0 -0.9999643 -0.008461058 0 -0.9999642 -0.008461117 0 -0.9999643 -0.008461058 0 -0.9999642 -0.008460998 0 -0.9954171 0.09562915 0 -0.9954171 0.09562921 0 -0.9954171 0.09562915 0 -0.9954171 0.09562909 0 0.2158934 -0.976417 0 0.2158935 -0.976417 0 -0.9954171 0.09562897 0 -0.9954171 0.09562903 0 -0.9954171 0.09562897 0 -0.9954171 0.09562891 0 -0.2158934 0.976417 0 -0.2158935 0.976417 0 -0.2158934 0.976417 0 -0.9954171 0.09562915 0 -0.9954171 0.09562915 0 -0.9954171 0.09562927 0 -0.2158935 0.976417 0 -0.3002178 -0.9538708 0 0.9999643 0.008461236 0 0.9999642 0.008461236 0 -0.8222061 -0.5691899 0 -0.8222062 -0.5691899 0 -0.8222062 -0.5691898 0 -0.7949363 0.606693 0 -0.7949362 0.606693 0 -0.7949362 0.6066931 0 0.822206 0.5691901 0 0.822206 0.56919 0 0.8222058 0.5691903 0 0.794936 -0.6066934 0 0.7949361 -0.6066932 0 0.7949363 -0.606693 0 0.7788767 0.6271771 0 0.7788767 0.6271771 0 -0.8367419 0.5475977 0 -0.8367419 0.5475977 0 -0.8367417 0.5475978 0 -0.8367419 0.5475976 0 0.8223296 0.5690115 0 0.8223296 0.5690115 0 0.8223297 0.5690114 0 0.8223295 0.5690117 0 -0.7948047 0.6068654 0 0 0 -1 1.50712e-6 0 -1 1.51385e-6 0 -1 -0.9538807 0.300186 0 -0.9538608 0.3002491 0 -0.9538608 0.3002495 0 -0.6271311 0.7789139 0 -0.6271139 0.7789275 0 -0.6271139 0.7789277 0 2.67788e-5 0 -1 1.78907e-6 0 -1 1.68052e-6 0 -1 0.9764169 0.2158939 0 0.9764169 0.2158941 0 0.9764169 0.2158941 0 0 0 1 -5.54297e-6 0 1 0 0 1 -0.008368015 0.999965 0 -0.008368015 0.999965 0 -0.008368015 0.9999651 0 0 0 -1 -4.3057e-6 0 -1 -4.32492e-6 0 -1 0 0 1 -2.73806e-6 0 1 0.09564858 0.9954152 0 0.09564691 0.9954153 0 0.6271669 -0.7788851 0 0.6271499 -0.7788986 0 0.6271498 -0.7788987 0 0 0 1 -4.23531e-6 0 1 -4.25368e-6 0 1 0 0 -1 -8.6282e-7 0 -1 -8.66552e-7 0 -1 0.00844407 -0.9999644 0 0.008444309 -0.9999644 0 0.008444368 -0.9999644 0 -0.5474731 -0.8368233 0 -0.5474731 -0.8368233 0 0 0 -1 -1.66705e-5 0 -1 -1.67448e-5 0 -1 -0.09559732 -0.9954201 0 -0.09559905 -0.9954199 0 -0.09559905 -0.9954199 0 0 0 1 3.22962e-7 0 1 3.24404e-7 0 1 -0.5691746 0.8222168 0 -0.569191 0.8222055 0 -0.569191 0.8222054 0 0 0 -1 3.18955e-6 0 -1 3.20337e-6 0 -1 0 0 1 -1.31766e-5 0 1 -1.32336e-5 0 1 -0.9764167 -0.2158949 0 -0.9764176 -0.2158907 0 -0.9764176 -0.2158907 0 0.5474892 0.8368129 0 0.5474732 0.8368232 0 0.5474731 0.8368233 0 0 0 1 -8.61156e-7 0 1 -8.65e-7 0 1 0.9538688 -0.300224 0 0.9538663 -0.3002319 0 0.9538663 -0.3002319 0 0 0 -1 3.09511e-7 0 -1 3.10892e-7 0 -1 0.5691871 -0.8222082 0 0.5691871 -0.8222081 0 0 0 1 -1.63142e-5 0 1 -0.569049 0.8223036 0 -0.5690815 0.8222811 0 -0.5690817 0.822281 0 0 0 -1 -9.30726e-6 0 -1 0 0 -1 0.9764153 0.2159005 0 0.9764227 0.2158674 0 0.9764229 0.2158672 0 0 0 1 -3.24196e-6 0 1 -3.25598e-6 0 1 -0.606704 -0.794928 0 -0.6066871 -0.7949407 0 -0.606687 -0.7949408 0 -1.37514e-5 0 -1 5.96639e-6 0 -1 6.0548e-6 0 -1 -0.9538791 0.3001911 0 -0.9538791 0.3001912 0 -0.9538791 0.3001912 0 0 0 1 -7.31946e-6 0 1 0.09564477 0.9954156 0 0.0956431 0.9954157 0 0.0956431 0.9954158 0 0 0 -1 -8.36626e-7 0 -1 -8.40244e-7 0 -1 0.5689837 -0.8223489 1.60056e-4 0.5686709 -0.8225653 2.38245e-4 0.5692765 -0.8221461 0 0 0 1 -4.81053e-6 0 1 -4.83133e-6 0 1 -0.008482933 0.9999641 0 -0.008483231 0.9999641 0 -0.008483231 0.999964 0 0 0 -1 4.70678e-7 0 -1 4.72713e-7 0 -1 0.6066775 0.7949482 0 0.6066944 0.7949352 0 0.6066945 0.7949351 0 -1.09973e-4 0 1 5.68697e-5 0 1 -1.1072e-4 0 1 -0.6067911 -0.7948614 0 -0.6067576 -0.794887 0 -0.6067574 -0.7948872 0 2.75497e-5 0 -1 -1.38409e-6 0 -1 -1.51367e-6 0 -1 -0.0956431 -0.9954157 0 -0.0956431 -0.9954158 0 0 0 1 -8.28877e-6 0 1 -0.5691869 0.8222082 0 -0.5691543 0.8222308 0 -0.5691542 0.8222309 0 5.33878e-5 0 -1 -3.56382e-5 0 -1 5.37745e-5 0 -1 0.008452475 -0.9999644 0 0.008452475 -0.9999643 0 0 0 1 1.3176e-5 0 1 1.32332e-5 0 1 -0.9764158 -0.2158992 0 -0.9764158 -0.2158991 0 -0.9764158 -0.2158991 0 -1.45807e-7 0 -1 -3.27438e-5 0 -1 -3.28896e-5 0 -1 0.6068106 0.7948465 0 0.6067939 0.7948592 0 0.6067938 0.7948594 0 0 0 1 -8.61118e-7 0 1 -8.64952e-7 0 1 0.09561347 0.9954186 0 0.09561342 0.9954186 0 0.09561342 0.9954186 0 0 0 -1 -5.04592e-7 0 -1 -5.06839e-7 0 -1 0.5691963 -0.8222018 0 0.5692126 -0.8221904 0 0.5692127 -0.8221904 0 0 0 1 -4.81057e-6 0 1 -4.83135e-6 0 1 0 0 -1 9.30688e-6 0 -1 0.9764158 0.2158991 0 0.9764139 0.2159075 0 0.9764139 0.2159075 0 -0.6067621 -0.7948835 0 -0.6067623 -0.7948834 0 0 0 -1 6.45838e-6 0 -1 -0.09564477 -0.9954156 0 -0.09564393 -0.9954156 0 -0.09564393 -0.9954156 0 0 0 1 -2.15282e-5 0 1 -2.16243e-5 0 1 0.953868 -0.3002265 0 0.953868 -0.3002265 0 -5.34153e-5 0 -1 2.93638e-5 0 -1 2.97234e-5 0 -1 2.67009e-5 0 1 -1.61988e-5 0 1 2.68875e-5 0 1 -0.976415 -0.2159024 0 -0.976415 -0.2159023 0 -0.976415 -0.2159023 0 0.6067138 0.7949205 0 0.6066969 0.7949334 0 0.6066967 0.7949334 0 0 0 1 4.30591e-7 0 1 4.32513e-7 0 1 -0.9538809 0.3001857 0 -0.6271311 0.7789137 0 2.68875e-5 0 -1 0.9764168 0.2158939 0 -5.56694e-6 0 1 -0.008368015 0.9999651 0 -2.75025e-6 0 1 0.09564858 0.9954152 0 0.6271669 -0.778885 0 0.00844407 -0.9999644 0 -0.09559732 -0.9954202 0 -0.5691745 0.8222168 0 -0.9764166 -0.2158949 0 0.5474892 0.8368127 0 0.9538688 -0.300224 0 0.5691871 -0.8222081 0 -1.63848e-5 0 1 -0.5690488 0.8223037 0 -9.34751e-6 0 -1 0.9764154 0.2159008 0 -0.6067041 -0.7949278 0 -1.38397e-5 0 -1 -0.9538792 0.3001911 0 -7.35209e-6 0 1 0.09564477 0.9954156 0 0.568787 -0.822485 0 -0.008482933 0.9999641 0 0.6066774 0.7949482 0 5.7616e-5 0 1 -0.6067913 -0.7948613 0 2.76793e-5 0 -1 -8.32567e-6 0 1 -0.5691871 0.8222081 0 -3.60249e-5 0 -1 -0.9764157 -0.2158992 0 0.6068107 0.7948464 0 0.09561347 0.9954186 0 0.5691962 -0.8222019 0 9.34724e-6 0 -1 0.9764158 0.2158991 0 -0.6067621 -0.7948836 0 6.48714e-6 0 -1 -0.09564477 -0.9954156 0 -5.37748e-5 0 -1 -1.63851e-5 0 1 -0.976415 -0.2159024 0 0.6067138 0.7949203 0</float_array>
          <technique_common>
            <accessor source="#Cube_015-mesh-normals-array" count="361" stride="3">
              <param name="X" type="float"/>
              <param name="Y" type="float"/>
              <param name="Z" type="float"/>
            </accessor>
          </technique_common>
        </source>
        <source id="Cube_015-mesh-map-0">
          <float_array id="Cube_015-mesh-map-0-array" count="1296">0.9984335 0.6838312 1.000765 0.001214206 0.001161634 6.92369e-4 0.9984335 0.6838312 0.001161634 6.92369e-4 5.39125e-4 0.6833093 0.9984335 0.6838312 0.001161634 6.92369e-4 1.000765 0.001214206 0.9984335 0.6838312 5.39125e-4 0.6833093 0.001161634 6.92369e-4 0.9984335 0.6838312 0.001161634 6.92369e-4 1.000765 0.001214206 0.9984335 0.6838312 5.39125e-4 0.6833093 0.001161634 6.92369e-4 0.9984335 0.6838312 0.001161634 6.92369e-4 1.000765 0.001214206 0.9984335 0.6838312 5.39125e-4 0.6833093 0.001161634 6.92369e-4 0.9984335 0.6838312 0.001161634 6.92369e-4 1.000765 0.001214206 0.9984335 0.6838312 5.39125e-4 0.6833093 0.001161634 6.92369e-4 0.9984335 0.6838312 1.000765 0.001214206 0.001161634 6.92369e-4 0.9984335 0.6838312 0.001161634 6.92369e-4 5.39125e-4 0.6833093 0.9984335 0.6838312 0.001161634 6.92369e-4 1.000765 0.001214206 0.9984335 0.6838312 5.39125e-4 0.6833093 0.001161634 6.92369e-4 0.9984335 0.6838312 1.000765 0.001214206 0.001161634 6.92369e-4 0.9984335 0.6838312 0.001161634 6.92369e-4 5.39125e-4 0.6833093 0.9984335 0.6838312 1.000765 0.001214206 0.001161634 6.92369e-4 0.9984335 0.6838312 0.001161634 6.92369e-4 5.39125e-4 0.6833093 0.9984335 0.6838312 1.000765 0.001214206 0.001161634 6.92369e-4 0.9984335 0.6838312 0.001161634 6.92369e-4 5.39125e-4 0.6833093 0.9984335 0.6838312 0.001161634 6.92369e-4 1.000765 0.001214206 0.9984335 0.6838312 5.39125e-4 0.6833093 0.001161634 6.92369e-4 0.9984335 0.6838312 1.000765 0.001214206 0.001161634 6.92369e-4 0.9984335 0.6838312 0.001161634 6.92369e-4 5.39125e-4 0.6833093 0.9984335 0.6838312 1.000765 0.001214206 0.001161634 6.92369e-4 0.9984335 0.6838312 0.001161634 6.92369e-4 5.39125e-4 0.6833093 0.9984335 0.6838312 0.001161634 6.92369e-4 1.000765 0.001214206 0.9984335 0.6838312 5.39125e-4 0.6833093 0.001161634 6.92369e-4 0.9984335 0.6838312 1.000765 0.001214206 0.001161634 6.92369e-4 0.9984335 0.6838312 0.001161634 6.92369e-4 5.39125e-4 0.6833093 0.9984335 0.6838312 1.000765 0.001214206 0.001161634 6.92369e-4 0.9984335 0.6838312 0.001161634 6.92369e-4 5.39125e-4 0.6833093 0.9984335 0.6838312 1.000765 0.001214206 0.001161634 6.92369e-4 0.9984335 0.6838312 0.001161634 6.92369e-4 5.39125e-4 0.6833093 0.9984335 0.6838312 1.000765 0.001214206 0.001161634 6.92369e-4 0.9984335 0.6838312 0.001161634 6.92369e-4 5.39125e-4 0.6833093 0.9984335 0.6838312 0.001161634 6.92369e-4 1.000765 0.001214206 0.9984335 0.6838312 5.39125e-4 0.6833093 0.001161634 6.92369e-4 0.9984335 0.6838312 1.000765 0.001214206 0.001161634 6.92369e-4 0.9984335 0.6838312 0.001161634 6.92369e-4 5.39125e-4 0.6833093 0.9984335 0.6838312 1.000765 0.001214206 0.001161634 6.92369e-4 0.9984335 0.6838312 0.001161634 6.92369e-4 5.39125e-4 0.6833093 0.9984335 0.6838312 1.000765 0.001214206 0.001161634 6.92369e-4 0.9984335 0.6838312 0.001161634 6.92369e-4 5.39125e-4 0.6833093 0.9984335 0.6838312 1.000765 0.001214206 0.001161634 6.92369e-4 0.9984335 0.6838312 0.001161634 6.92369e-4 5.39125e-4 0.6833093 0.9984335 0.6838312 0.001161634 6.92369e-4 1.000765 0.001214206 0.9984335 0.6838312 5.39125e-4 0.6833093 0.001161634 6.92369e-4 0.9984335 0.6838312 1.000765 0.001214206 0.001161634 6.92369e-4 0.9984335 0.6838312 0.001161634 6.92369e-4 5.39125e-4 0.6833093 0.9984335 0.6838312 0.001161634 6.92369e-4 1.000765 0.001214206 0.9984335 0.6838312 5.39125e-4 0.6833093 0.001161634 6.92369e-4 0.9984335 0.6838312 0.001161634 6.92369e-4 1.000765 0.001214206 0.9984335 0.6838312 5.39125e-4 0.6833093 0.001161634 6.92369e-4 0.9984335 0.6838312 0.001161634 6.92369e-4 1.000765 0.001214206 0.9984335 0.6838312 5.39125e-4 0.6833093 0.001161634 6.92369e-4 0.9984335 0.6838312 1.000765 0.001214206 0.001161634 6.92369e-4 0.9984335 0.6838312 0.001161634 6.92369e-4 5.39125e-4 0.6833093 0.9984335 0.6838312 0.001161634 6.92369e-4 1.000765 0.001214206 0.9984335 0.6838312 5.39125e-4 0.6833093 0.001161634 6.92369e-4 0.9984335 0.6838312 0.001161634 6.92369e-4 1.000765 0.001214206 0.9984335 0.6838312 5.39125e-4 0.6833093 0.001161634 6.92369e-4 0.9984335 0.6838312 1.000765 0.001214206 0.001161634 6.92369e-4 0.9984335 0.6838312 0.001161634 6.92369e-4 5.39125e-4 0.6833093 0.9984335 0.6838312 0.001161634 6.92369e-4 1.000765 0.001214206 0.9984335 0.6838312 5.39125e-4 0.6833093 0.001161634 6.92369e-4 0.9984335 0.6838312 0.001161634 6.92369e-4 1.000765 0.001214206 0.9984335 0.6838312 5.39125e-4 0.6833093 0.001161634 6.92369e-4 0.9984335 0.6838312 0.001161634 6.92369e-4 1.000765 0.001214206 0.9984335 0.6838312 5.39125e-4 0.6833093 0.001161634 6.92369e-4 0.9984335 0.6838312 0.001161634 6.92369e-4 1.000765 0.001214206 0.9984335 0.6838312 5.39125e-4 0.6833093 0.001161634 6.92369e-4 0.001161634 6.92369e-4 1.000765 0.001214206 1.000765 0.001214206 0.001161634 6.92369e-4 5.39125e-4 0.6833093 5.39125e-4 0.6833093 0.9984335 0.6838312 1.000765 0.001214206 1.000765 0.001214206 1.000765 0.001214206 0.001161634 6.92369e-4 0.001161634 6.92369e-4 5.39125e-4 0.6833093 0.001161634 6.92369e-4 0.001161634 6.92369e-4 0.9984335 0.6838312 5.39125e-4 0.6833093 0.9984335 0.6838312 0.9984335 0.6838312 1.000765 0.001214206 1.000765 0.001214206 0.001161634 6.92369e-4 1.000765 0.001214206 1.000765 0.001214206 0.9984335 0.6838312 5.39125e-4 0.6833093 0.9984335 0.6838312 1.000765 0.001214206 0.9984335 0.6838312 0.9984335 0.6838312 0.001161634 6.92369e-4 5.39125e-4 0.6833093 5.39125e-4 0.6833093 0.9984335 0.6838312 5.39125e-4 0.6833093 5.39125e-4 0.6833093 1.000765 0.001214206 0.001161634 6.92369e-4 0.001161634 6.92369e-4 0.001161634 6.92369e-4 5.39125e-4 0.6833093 5.39125e-4 0.6833093 0.9984335 0.6838312 1.000765 0.001214206 1.000765 0.001214206 1.000765 0.001214206 0.001161634 6.92369e-4 0.001161634 6.92369e-4 5.39125e-4 0.6833093 0.001161634 6.92369e-4 0.001161634 6.92369e-4 5.39125e-4 0.6833093 0.9984335 0.6838312 0.9984335 0.6838312 1.000765 0.001214206 0.9984335 0.6838312 0.9984335 0.6838312 0.001161634 6.92369e-4 1.000765 0.001214206 1.000765 0.001214206 0.9984335 0.6838312 5.39125e-4 0.6833093 5.39125e-4 0.6833093 0.9984335 0.6838312 1.000765 0.001214206 1.000765 0.001214206 0.001161634 6.92369e-4 5.39125e-4 0.6833093 5.39125e-4 0.6833093 5.39125e-4 0.6833093 0.9984335 0.6838312 0.9984335 0.6838312 0.9984335 0.6838312 1.000765 0.001214206 1.000765 0.001214206 1.000765 0.001214206 0.001161634 6.92369e-4 0.001161634 6.92369e-4 5.39125e-4 0.6833093 0.001161634 6.92369e-4 0.001161634 6.92369e-4 0.9984335 0.6838312 5.39125e-4 0.6833093 0.9984335 0.6838312 0.9984335 0.6838312 1.000765 0.001214206 1.000765 0.001214206 1.000765 0.001214206 0.001161634 6.92369e-4 1.000765 0.001214206 0.001161634 6.92369e-4 5.39125e-4 0.6833093 5.39125e-4 0.6833093 5.39125e-4 0.6833093 0.9984335 0.6838312 0.9984335 0.6838312 0.9984335 0.6838312 1.000765 0.001214206 1.000765 0.001214206 1.000765 0.001214206 0.001161634 6.92369e-4 0.001161634 6.92369e-4 0.001161634 6.92369e-4 5.39125e-4 0.6833093 5.39125e-4 0.6833093 0.9984335 0.6838312 5.39125e-4 0.6833093 0.9984335 0.6838312 1.000765 0.001214206 0.9984335 0.6838312 0.9984335 0.6838312 1.000765 0.001214206 0.001161634 6.92369e-4 0.001161634 6.92369e-4 0.001161634 6.92369e-4 5.39125e-4 0.6833093 5.39125e-4 0.6833093 0.9984335 0.6838312 5.39125e-4 0.6833093 5.39125e-4 0.6833093 1.000765 0.001214206 0.9984335 0.6838312 0.9984335 0.6838312 1.000765 0.001214206 0.001161634 6.92369e-4 0.001161634 6.92369e-4 0.001161634 6.92369e-4 5.39125e-4 0.6833093 5.39125e-4 0.6833093 5.39125e-4 0.6833093 0.9984335 0.6838312 5.39125e-4 0.6833093 0.9984335 0.6838312 1.000765 0.001214206 1.000765 0.001214206 1.000765 0.001214206 0.001161634 6.92369e-4 0.001161634 6.92369e-4 5.39125e-4 0.6833093 0.001161634 6.92369e-4 0.001161634 6.92369e-4 0.9984335 0.6838312 5.39125e-4 0.6833093 0.9984335 0.6838312 0.9984335 0.6838312 1.000765 0.001214206 1.000765 0.001214206 1.000765 0.001214206 0.001161634 6.92369e-4 1.000765 0.001214206 5.39125e-4 0.6833093 0.001161634 6.92369e-4 0.001161634 6.92369e-4 5.39125e-4 0.6833093 0.9984335 0.6838312 0.9984335 0.6838312 0.9984335 0.6838312 1.000765 0.001214206 1.000765 0.001214206 0.001161634 6.92369e-4 1.000765 0.001214206 1.000765 0.001214206 0.001161634 6.92369e-4 5.39125e-4 0.6833093 5.39125e-4 0.6833093 5.39125e-4 0.6833093 0.9984335 0.6838312 0.9984335 0.6838312 1.000765 0.001214206 0.9984335 0.6838312 0.9984335 0.6838312 1.000765 0.001214206 0.001161634 6.92369e-4 0.001161634 6.92369e-4 0.001161634 6.92369e-4 5.39125e-4 0.6833093 5.39125e-4 0.6833093 0.9984335 0.6838312 5.39125e-4 0.6833093 5.39125e-4 0.6833093 0.001161634 6.92369e-4 1.000765 0.001214206 0.001161634 6.92369e-4 0.001161634 6.92369e-4 5.39125e-4 0.6833093 5.39125e-4 0.6833093 1.000765 0.001214206 0.9984335 0.6838312 0.9984335 0.6838312 0.001161634 6.92369e-4 1.000765 0.001214206 0.001161634 6.92369e-4 5.39125e-4 0.6833093 0.001161634 6.92369e-4 0.001161634 6.92369e-4 0.9984335 0.6838312 5.39125e-4 0.6833093 5.39125e-4 0.6833093 0.9984335 0.6838312 1.000765 0.001214206 1.000765 0.001214206 0.001161634 6.92369e-4 1.000765 0.001214206 1.000765 0.001214206 0.9984335 0.6838312 5.39125e-4 0.6833093 0.9984335 0.6838312 1.000765 0.001214206 0.9984335 0.6838312 0.9984335 0.6838312 5.39125e-4 0.6833093 0.001161634 6.92369e-4 0.001161634 6.92369e-4 0.9984335 0.6838312 5.39125e-4 0.6833093 5.39125e-4 0.6833093 0.001161634 6.92369e-4 0.001161634 6.92369e-4 1.000765 0.001214206 0.001161634 6.92369e-4 0.001161634 6.92369e-4 5.39125e-4 0.6833093 0.9984335 0.6838312 0.9984335 0.6838312 1.000765 0.001214206 1.000765 0.001214206 1.000765 0.001214206 0.001161634 6.92369e-4 5.39125e-4 0.6833093 5.39125e-4 0.6833093 0.001161634 6.92369e-4 0.9984335 0.6838312 5.39125e-4 0.6833093 5.39125e-4 0.6833093 0.9984335 0.6838312 0.9984335 0.6838312 1.000765 0.001214206 0.001161634 6.92369e-4 0.001161634 6.92369e-4 1.000765 0.001214206 0.9984335 0.6838312 5.39125e-4 0.6833093 5.39125e-4 0.6833093 1.000765 0.001214206 1.000765 0.001214206 0.9984335 0.6838312 0.001161634 6.92369e-4 0.001161634 6.92369e-4 5.39125e-4 0.6833093 0.9984335 0.6838312 0.9984335 0.6838312 5.39125e-4 0.6833093 1.000765 0.001214206 1.000765 0.001214206 0.001161634 6.92369e-4 0.001161634 6.92369e-4 0.001161634 6.92369e-4 5.39125e-4 0.6833093 0.9984335 0.6838312 0.9984335 0.6838312 1.000765 0.001214206 1.000765 0.001214206 1.000765 0.001214206 0.001161634 6.92369e-4 5.39125e-4 0.6833093 5.39125e-4 0.6833093 0.001161634 6.92369e-4 5.39125e-4 0.6833093 5.39125e-4 0.6833093 0.9984335 0.6838312 1.000765 0.001214206 1.000765 0.001214206 0.9984335 0.6838312 0.001161634 6.92369e-4 0.001161634 6.92369e-4 1.000765 0.001214206 0.9984335 0.6838312 0.9984335 0.6838312 5.39125e-4 0.6833093 0.9984335 0.6838312 0.9984335 0.6838312 1.000765 0.001214206 0.001161634 6.92369e-4 0.001161634 6.92369e-4 5.39125e-4 0.6833093 5.39125e-4 0.6833093 5.39125e-4 0.6833093 0.9984335 0.6838312 0.9984335 0.6838312 0.9984335 0.6838312 1.000765 0.001214206 1.000765 0.001214206 1.000765 0.001214206 0.001161634 6.92369e-4 5.39125e-4 0.6833093 5.39125e-4 0.6833093 0.001161634 6.92369e-4 0.9984335 0.6838312 5.39125e-4 0.6833093 5.39125e-4 0.6833093 0.9984335 0.6838312 0.9984335 0.6838312 1.000765 0.001214206 1.000765 0.001214206 0.001161634 6.92369e-4 0.001161634 6.92369e-4 0.001161634 6.92369e-4 0.001161634 6.92369e-4 5.39125e-4 0.6833093 5.39125e-4 0.6833093 5.39125e-4 0.6833093 0.9984335 0.6838312 0.9984335 0.6838312 0.9984335 0.6838312 1.000765 0.001214206 1.000765 0.001214206 1.000765 0.001214206 0.001161634 6.92369e-4 0.001161634 6.92369e-4 0.001161634 6.92369e-4 5.39125e-4 0.6833093 0.9984335 0.6838312 5.39125e-4 0.6833093 5.39125e-4 0.6833093 1.000765 0.001214206 1.000765 0.001214206 0.9984335 0.6838312 1.000765 0.001214206 1.000765 0.001214206 0.001161634 6.92369e-4 0.001161634 6.92369e-4 0.001161634 6.92369e-4 5.39125e-4 0.6833093 0.9984335 0.6838312 0.9984335 0.6838312 5.39125e-4 0.6833093 1.000765 0.001214206 1.000765 0.001214206 0.9984335 0.6838312 1.000765 0.001214206 1.000765 0.001214206 0.001161634 6.92369e-4 0.001161634 6.92369e-4 0.001161634 6.92369e-4 5.39125e-4 0.6833093 5.39125e-4 0.6833093 0.9984335 0.6838312 0.9984335 0.6838312 0.9984335 0.6838312 0.9984335 0.6838312 1.000765 0.001214206 1.000765 0.001214206 1.000765 0.001214206 0.001161634 6.92369e-4 5.39125e-4 0.6833093 5.39125e-4 0.6833093 0.001161634 6.92369e-4 0.9984335 0.6838312 5.39125e-4 0.6833093 5.39125e-4 0.6833093 0.9984335 0.6838312 0.9984335 0.6838312 1.000765 0.001214206 1.000765 0.001214206 0.001161634 6.92369e-4 0.001161634 6.92369e-4 5.39125e-4 0.6833093 5.39125e-4 0.6833093 0.001161634 6.92369e-4 5.39125e-4 0.6833093 5.39125e-4 0.6833093 0.9984335 0.6838312 0.9984335 0.6838312 0.9984335 0.6838312 1.000765 0.001214206 0.001161634 6.92369e-4 0.001161634 6.92369e-4 1.000765 0.001214206 0.001161634 6.92369e-4 0.001161634 6.92369e-4 5.39125e-4 0.6833093 5.39125e-4 0.6833093 5.39125e-4 0.6833093 0.9984335 0.6838312 1.000765 0.001214206 1.000765 0.001214206 0.9984335 0.6838312 1.000765 0.001214206 1.000765 0.001214206 0.001161634 6.92369e-4 0.001161634 6.92369e-4 0.001161634 6.92369e-4 5.39125e-4 0.6833093 0.9984335 0.6838312 0.9984335 0.6838312 5.39125e-4 0.6833093 0.001161634 6.92369e-4 1.000765 0.001214206 1.000765 0.001214206 0.001161634 6.92369e-4 0.001161634 6.92369e-4 5.39125e-4 0.6833093 1.000765 0.001214206 1.000765 0.001214206 0.9984335 0.6838312 0.001161634 6.92369e-4 1.000765 0.001214206 1.000765 0.001214206 5.39125e-4 0.6833093 5.39125e-4 0.6833093 0.001161634 6.92369e-4 0.9984335 0.6838312 0.9984335 0.6838312 5.39125e-4 0.6833093 0.9984335 0.6838312 0.9984335 0.6838312 1.000765 0.001214206 0.001161634 6.92369e-4 0.001161634 6.92369e-4 1.000765 0.001214206 0.9984335 0.6838312 5.39125e-4 0.6833093 5.39125e-4 0.6833093 1.000765 0.001214206 1.000765 0.001214206 0.9984335 0.6838312 5.39125e-4 0.6833093 5.39125e-4 0.6833093 0.001161634 6.92369e-4 0.9984335 0.6838312 0.9984335 0.6838312 5.39125e-4 0.6833093</float_array>
          <technique_common>
            <accessor source="#Cube_015-mesh-map-0-array" count="648" stride="2">
              <param name="S" type="float"/>
              <param name="T" type="float"/>
            </accessor>
          </technique_common>
        </source>
        <source id="Cube_015-mesh-map-1">
          <float_array id="Cube_015-mesh-map-1-array" count="1296">0.4304035 0.7038652 0.5725761 0.7038652 0.5725761 0.8546525 0.4304035 0.7038652 0.5725761 0.8546525 0.4304035 0.8546525 0 0.8835281 0.1421725 0.7351121 0.1421725 0.8835281 0 0.8835281 0 0.7351121 0.1421725 0.7351121 0.8608068 0 1 0.1436266 0.8608068 0.1436266 0.8608068 0 1 0 1 0.1436266 0.5738714 0.8550652 0.7160439 0.687899 0.7160438 0.8550652 0.5738714 0.8550652 0.5738714 0.6878989 0.7160439 0.687899 0.8608068 0.144935 1 0.2885616 0.8608068 0.2885616 0.8608068 0.144935 1 0.144935 1 0.2885616 0.5738713 0.5194229 0.7160438 0.5194229 0.7160438 0.6865906 0.5738713 0.5194229 0.7160438 0.6865906 0.5738713 0.6865906 0.857828 0.7744857 0.9970211 0.9181122 0.857828 0.9181122 0.857828 0.7744857 0.9970211 0.7744857 0.9970211 0.9181122 0.2869356 0.553855 0.4291082 0.553855 0.4291082 0.7210227 0.2869356 0.553855 0.4291082 0.7210227 0.2869356 0.7210227 0.7173392 0.1684746 0.8595116 0.1684746 0.8595116 0.3192619 0.7173392 0.1684746 0.8595116 0.3192619 0.7173391 0.3192619 0.2869356 0.7223311 0.4291082 0.7223311 0.4291082 0.8707473 0.2869356 0.7223311 0.4291082 0.8707473 0.2869356 0.8707473 0 0.3765723 0.1421726 0.1889404 0.1421726 0.3765723 0 0.3765723 0 0.1889404 0.1421726 0.1889404 0.4304035 0.5279023 0.5725762 0.5279023 0.5725762 0.7025569 0.4304035 0.5279023 0.5725762 0.7025569 0.4304035 0.7025569 0 0 0.1421726 0 0.1421726 0.187632 0 0 0.1421726 0.187632 0 0.187632 0.4304035 0.5265939 0.5725762 0.3519384 0.5725761 0.5265939 0.4304035 0.5265939 0.4304035 0.3519384 0.5725762 0.3519384 0 0.3778807 0.1421726 0.3778808 0.1421726 0.5653277 0 0.3778807 0.1421726 0.5653277 0 0.5653277 0.5738714 0.3476994 0.716044 0.3476994 0.716044 0.5181145 0.5738714 0.3476994 0.716044 0.5181145 0.5738714 0.5181145 0.2869356 0.1889404 0.4291083 0.1889404 0.4291083 0.3765711 0.2869356 0.1889404 0.4291083 0.3765711 0.2869356 0.3765711 0.4304035 0 0.5725761 0 0.5725761 0.1746659 0.4304035 0 0.5725761 0.1746659 0.4304034 0.1746659 0.717339 0.4713572 0.8595116 0.3205703 0.8595116 0.4713572 0.717339 0.4713572 0.717339 0.3205703 0.8595116 0.3205703 0.717339 0.6247609 0.8595115 0.6247609 0.8595115 0.7731773 0.717339 0.6247609 0.8595115 0.7731773 0.717339 0.7731773 0.7130649 0.8563734 0.7130649 1 0.5738713 1 0.7130649 0.8563734 0.5738713 1 0.5738713 0.8563734 0 0.5666361 0.1421725 0.5666361 0.1421725 0.7338038 0 0.5666361 0.1421725 0.7338038 0 0.7338037 0.8565328 0.7744856 0.8565328 0.9181122 0.717339 0.9181122 0.8565328 0.7744856 0.717339 0.9181122 0.717339 0.7744856 0.7173392 0.1671662 0.8595116 0 0.8595116 0.1671662 0.7173392 0.1671662 0.7173392 0 0.8595116 0 0.5695971 0.8559609 0.5695971 0.9995875 0.4304035 0.9995875 0.5695971 0.8559609 0.4304035 0.9995875 0.4304035 0.8559609 0.1434678 0.7338023 0.2856404 0.5666361 0.2856403 0.7338023 0.1434678 0.7338023 0.1434678 0.5666361 0.2856404 0.5666361 0.717339 0.6234525 0.8595116 0.4726656 0.8595115 0.6234525 0.717339 0.6234525 0.717339 0.4726656 0.8595116 0.4726656 0.1434678 0.8835265 0.2856403 0.7351107 0.2856403 0.8835265 0.1434678 0.8835265 0.1434678 0.7351107 0.2856403 0.7351107 0.1434678 0 0.2856405 0 0.2856405 0.187632 0.1434678 0 0.2856405 0.187632 0.1434678 0.187632 0.4304034 0.35063 0.5725761 0.1759744 0.5725761 0.35063 0.4304034 0.35063 0.4304034 0.1759744 0.5725761 0.1759744 0.1434678 0.3765724 0.2856405 0.1889405 0.2856405 0.3765724 0.1434678 0.3765724 0.1434678 0.1889404 0.2856405 0.1889405 0.5738713 0 0.7160439 0 0.7160439 0.1746545 0.5738713 0 0.7160439 0.1746545 0.5738712 0.1746545 0.1434678 0.5653278 0.2856405 0.3778808 0.2856405 0.5653278 0.1434678 0.5653278 0.1434679 0.3778808 0.2856405 0.3778808 0.5738713 0.3463909 0.716044 0.1759744 0.716044 0.3463909 0.5738713 0.3463909 0.5738713 0.1759744 0.716044 0.1759744 0.2869357 0.187631 0.4291083 0 0.4291083 0.187631 0.2869357 0.187631 0.2869357 0 0.4291083 0 0.2869357 0.5525465 0.4291083 0.3778795 0.4291083 0.5525465 0.2869357 0.5525465 0.2869357 0.3778795 0.4291083 0.3778795 0.8927077 0.6558001 0.8914494 0.4734893 0.8927077 0.4734894 0.9277586 0.5784317 0.9267476 0.4348052 0.9277586 0.4348052 0.9118769 0.28987 0.9131336 0.4334967 0.9118769 0.4334967 0.8608068 0.28987 0.8620652 0.4775499 0.8608068 0.4775499 0.9242986 0.4348052 0.9254524 0.5784317 0.9242986 0.5784317 0.8812351 0.6665381 0.8824934 0.4788582 0.8824934 0.666538 0.9266477 0.28987 0.927672 0.4334966 0.9266477 0.4334966 0.8952611 0.6558 0.8940027 0.4734892 0.8952611 0.4734892 0.8837886 0.4721808 0.885047 0.28987 0.8850469 0.4721807 0.9345408 0.5784317 0.933598 0.4348052 0.9345408 0.4348052 0.9131335 0.5784319 0.9118768 0.4348052 0.9131335 0.4348052 0.8697259 0.4775499 0.8684675 0.28987 0.8697258 0.28987 0.8824934 0.4775497 0.8812351 0.2898699 0.8824934 0.2898699 0.9253234 0.7233669 0.924299 0.5797403 0.9253234 0.5797403 0.9169293 0.4348052 0.9181054 0.5784319 0.9169293 0.5784319 0.8876007 0.6557999 0.8863422 0.4734892 0.8876007 0.4734892 0.9312444 0.5797403 0.9321872 0.7233669 0.9312444 0.7233669 0.9054751 0.6558005 0.9042169 0.4734895 0.9054751 0.4734897 0.9080285 0.5784319 0.9067704 0.4348052 0.9080285 0.4348052 0.8735745 0.28987 0.8748329 0.4775499 0.8735745 0.4775498 0.8671723 0.4775498 0.8659139 0.28987 0.8671723 0.28987 0.9218495 0.4348052 0.9230033 0.5784317 0.9218495 0.5784317 0.9205548 0.723367 0.9193787 0.5797403 0.9205548 0.5797403 0.8901541 0.6558 0.8888958 0.4734892 0.8901541 0.4734892 0.9289382 0.5797403 0.9299492 0.7233669 0.9289382 0.7233669 0.9016636 0.4734894 0.9029217 0.6558 0.9016636 0.6558002 0.9067704 0.5797402 0.9080285 0.723367 0.9067704 0.723367 0.8773864 0.28987 0.876128 0.4775498 0.876128 0.28987 0.9093235 0.4348051 0.9105816 0.5784319 0.9093235 0.5784319 0.8659138 0.6665381 0.8671723 0.4788583 0.8671723 0.6665381 0.9205543 0.5784317 0.9194005 0.4348052 0.9205543 0.4348052 0.8786817 0.4788587 0.8799399 0.6665382 0.8786815 0.6665381 0.9144287 0.28987 0.9156342 0.4334967 0.9144287 0.4334967 0.8965563 0.4734892 0.8978147 0.6558 0.8965563 0.6558 0.9300648 0.5784317 0.9290538 0.4348052 0.9300648 0.4348052 0.8876007 0.28987 0.8863423 0.4721808 0.8863423 0.28987 0.9344543 0.4334966 0.9335114 0.28987 0.9344543 0.28987 0.8761281 0.4788582 0.8773865 0.6665381 0.8761281 0.6665381 0.9105815 0.723367 0.9093236 0.5797403 0.9105815 0.5797403 0.8722793 0.4775499 0.8710209 0.2898701 0.8722793 0.28987 0.9253525 0.4334966 0.924328 0.28987 0.9253525 0.28987 0.8799399 0.4775497 0.8786817 0.28987 0.8799399 0.2898704 0.9130821 0.723367 0.9118765 0.5797403 0.9130821 0.5797403 0.9003682 0.28987 0.8991098 0.4721807 0.8991098 0.28987 0.9144287 0.4348052 0.9156342 0.5784319 0.9144287 0.5784319 0.8837885 0.4734892 0.885047 0.6558 0.8837886 0.6558 0.9312734 0.28987 0.9322162 0.4334966 0.9312734 0.4334966 0.9029217 0.28987 0.9016634 0.4721807 0.9016634 0.2898698 0.9067704 0.28987 0.9080285 0.4334967 0.9067704 0.4334967 0.8710209 0.6665382 0.8722793 0.4788584 0.8722793 0.6665382 0.9266187 0.5797403 0.9276431 0.7233669 0.9266187 0.7233669 0.8608068 0.4788582 0.8620652 0.6665381 0.8608068 0.6665381 0.9218499 0.5797403 0.9230037 0.7233669 0.9218499 0.7233669 0.8991098 0.4734892 0.9003682 0.6557999 0.8991098 0.6557999 0.9180835 0.723367 0.916878 0.5797403 0.9180835 0.5797403 0.8901541 0.4721809 0.8888958 0.28987 0.8901541 0.28987 0.9323028 0.5784317 0.9313599 0.4348052 0.9323028 0.4348052 0.9042168 0.2898701 0.9054752 0.4721809 0.9042168 0.472181 0.9105817 0.4334967 0.9093236 0.28987 0.9105817 0.28987 0.8748329 0.6665381 0.8735745 0.4788583 0.8748329 0.4788582 0.8646188 0.28987 0.8633604 0.4775499 0.8633604 0.28987 0.9230328 0.4334966 0.921879 0.28987 0.9230328 0.28987 0.9181349 0.4334967 0.9169294 0.28987 0.9181349 0.28987 0.8914493 0.4721809 0.8927078 0.28987 0.8927078 0.4721808 0.9334824 0.5797403 0.9344253 0.7233669 0.9334824 0.7233669 0.8940029 0.2898701 0.8952611 0.4721807 0.8940027 0.4721807 0.9289671 0.28987 0.9299781 0.4334966 0.9289671 0.4334966 0.8684676 0.4788583 0.8697259 0.6665381 0.8684675 0.6665381 0.8646187 0.4788583 0.8633604 0.6665382 0.8633604 0.4788583 0.9205838 0.4334966 0.91943 0.28987 0.9205838 0.28987 0.9143773 0.5797403 0.9155828 0.723367 0.9143773 0.723367 0.8965564 0.28987 0.8978148 0.4721808 0.8965564 0.4721808 0.8927077 0.6558001 0.8914493 0.6558001 0.8914494 0.4734893 0.9277586 0.5784317 0.9267476 0.5784317 0.9267476 0.4348052 0.9118769 0.28987 0.9131336 0.28987 0.9131336 0.4334967 0.8608068 0.28987 0.8620652 0.28987 0.8620652 0.4775499 0.9242986 0.4348052 0.9254524 0.4348052 0.9254524 0.5784317 0.8812351 0.6665381 0.8812351 0.4788582 0.8824934 0.4788582 0.9266477 0.28987 0.927672 0.28987 0.927672 0.4334966 0.8952611 0.6558 0.8940027 0.6558 0.8940027 0.4734892 0.8837886 0.4721808 0.8837887 0.28987 0.885047 0.28987 0.9345408 0.5784317 0.933598 0.5784317 0.933598 0.4348052 0.9131335 0.5784319 0.9118768 0.5784319 0.9118768 0.4348052 0.8697259 0.4775499 0.8684675 0.4775499 0.8684675 0.28987 0.8824934 0.4775497 0.8812351 0.4775496 0.8812351 0.2898699 0.9253234 0.7233669 0.924299 0.7233669 0.924299 0.5797403 0.9169293 0.4348052 0.9181054 0.4348052 0.9181054 0.5784319 0.8876007 0.6557999 0.8863424 0.6557998 0.8863422 0.4734892 0.9312444 0.5797403 0.9321872 0.5797403 0.9321872 0.7233669 0.9054751 0.6558005 0.9042169 0.6558003 0.9042169 0.4734895 0.9080285 0.5784319 0.9067704 0.5784319 0.9067704 0.4348052 0.8735745 0.28987 0.8748329 0.28987 0.8748329 0.4775499 0.8671723 0.4775498 0.8659139 0.4775498 0.8659139 0.28987 0.9218495 0.4348052 0.9230033 0.4348052 0.9230033 0.5784317 0.9205548 0.723367 0.9193787 0.723367 0.9193787 0.5797403 0.8901541 0.6558 0.8888958 0.6557999 0.8888958 0.4734892 0.9289382 0.5797403 0.9299492 0.5797403 0.9299492 0.7233669 0.9016636 0.4734894 0.9029217 0.4734892 0.9029217 0.6558 0.9067704 0.5797402 0.9080285 0.5797402 0.9080285 0.723367 0.8773864 0.28987 0.8773864 0.4775499 0.876128 0.4775498 0.9093235 0.4348051 0.9105816 0.4348051 0.9105816 0.5784319 0.8659138 0.6665381 0.8659139 0.4788583 0.8671723 0.4788583 0.9205543 0.5784317 0.9194005 0.5784317 0.9194005 0.4348052 0.8786817 0.4788587 0.8799399 0.4788584 0.8799399 0.6665382 0.9144287 0.28987 0.9156342 0.28987 0.9156342 0.4334967 0.8965563 0.4734892 0.8978147 0.4734892 0.8978147 0.6558 0.9300648 0.5784317 0.9290538 0.5784317 0.9290538 0.4348052 0.8876007 0.28987 0.8876007 0.4721808 0.8863423 0.4721808 0.9344543 0.4334966 0.9335114 0.4334966 0.9335114 0.28987 0.8761281 0.4788582 0.8773865 0.4788583 0.8773865 0.6665381 0.9105815 0.723367 0.9093236 0.723367 0.9093236 0.5797403 0.8722793 0.4775499 0.8710209 0.4775499 0.8710209 0.2898701 0.9253525 0.4334966 0.924328 0.4334966 0.924328 0.28987 0.8799399 0.4775497 0.8786816 0.4775499 0.8786817 0.28987 0.9130821 0.723367 0.9118765 0.723367 0.9118765 0.5797403 0.9003682 0.28987 0.9003682 0.4721808 0.8991098 0.4721807 0.9144287 0.4348052 0.9156342 0.4348052 0.9156342 0.5784319 0.8837885 0.4734892 0.8850469 0.4734892 0.885047 0.6558 0.9312734 0.28987 0.9322162 0.28987 0.9322162 0.4334966 0.9029217 0.28987 0.9029217 0.4721808 0.9016634 0.4721807 0.9067704 0.28987 0.9080285 0.28987 0.9080285 0.4334967 0.8710209 0.6665382 0.8710209 0.4788584 0.8722793 0.4788584 0.9266187 0.5797403 0.9276431 0.5797403 0.9276431 0.7233669 0.8608068 0.4788582 0.8620652 0.4788582 0.8620652 0.6665381 0.9218499 0.5797403 0.9230037 0.5797403 0.9230037 0.7233669 0.8991098 0.4734892 0.9003682 0.4734892 0.9003682 0.6557999 0.9180835 0.723367 0.916878 0.723367 0.916878 0.5797403 0.8901541 0.4721809 0.8888958 0.4721808 0.8888958 0.28987 0.9323028 0.5784317 0.9313599 0.5784317 0.9313599 0.4348052 0.9042168 0.2898701 0.9054752 0.2898699 0.9054752 0.4721809 0.9105817 0.4334967 0.9093236 0.4334967 0.9093236 0.28987 0.8748329 0.6665381 0.8735745 0.6665381 0.8735745 0.4788583 0.8646188 0.28987 0.8646188 0.4775499 0.8633604 0.4775499 0.9230328 0.4334966 0.921879 0.4334966 0.921879 0.28987 0.9181349 0.4334967 0.9169294 0.4334967 0.9169294 0.28987 0.8914493 0.4721809 0.8914493 0.28987 0.8927078 0.28987 0.9334824 0.5797403 0.9344253 0.5797403 0.9344253 0.7233669 0.8940029 0.2898701 0.8952611 0.28987 0.8952611 0.4721807 0.9289671 0.28987 0.9299781 0.28987 0.9299781 0.4334966 0.8684676 0.4788583 0.8697259 0.4788583 0.8697259 0.6665381 0.8646187 0.4788583 0.8646187 0.6665382 0.8633604 0.6665382 0.9205838 0.4334966 0.91943 0.4334966 0.91943 0.28987 0.9143773 0.5797403 0.9155828 0.5797403 0.9155828 0.723367 0.8965564 0.28987 0.8978148 0.28987 0.8978148 0.4721808</float_array>
          <technique_common>
            <accessor source="#Cube_015-mesh-map-1-array" count="648" stride="2">
              <param name="S" type="float"/>
              <param name="T" type="float"/>
            </accessor>
          </technique_common>
        </source>
        <vertices id="Cube_015-mesh-vertices">
          <input semantic="POSITION" source="#Cube_015-mesh-positions"/>
        </vertices>
        <triangles material="hierva_choza_gaetuli-material" count="216">
          <input semantic="VERTEX" source="#Cube_015-mesh-vertices" offset="0"/>
          <input semantic="NORMAL" source="#Cube_015-mesh-normals" offset="1"/>
          <input semantic="TEXCOORD" source="#Cube_015-mesh-map-0" offset="2" set="0"/>
          <input semantic="TEXCOORD" source="#Cube_015-mesh-map-1" offset="2" set="1"/>
          <p>0 0 0 1 1 1 3 0 2 0 0 3 3 0 4 2 2 5 4 3 6 7 4 7 5 5 8 4 3 9 6 6 10 7 4 11 8 7 12 11 8 13 9 9 14 8 7 15 10 10 16 11 8 17 12 11 18 15 11 19 13 12 20 12 11 21 14 13 22 15 11 23 16 14 24 19 15 25 17 16 26 16 14 27 18 17 28 19 15 29 20 18 30 21 19 31 23 20 32 20 18 33 23 20 34 22 20 35 24 21 36 27 22 37 25 17 38 24 21 39 26 10 40 27 22 41 28 23 42 29 24 43 31 23 44 28 23 45 31 23 46 30 25 47 32 26 48 33 27 49 35 28 50 32 26 51 35 28 52 34 29 53 36 30 54 37 31 55 39 32 56 36 30 57 39 32 58 38 33 59 40 34 60 43 34 61 41 35 62 40 34 63 42 36 64 43 34 65 44 37 66 45 38 67 47 37 68 44 37 69 47 37 70 46 38 71 48 39 72 49 40 73 51 41 74 48 39 75 51 41 76 50 42 77 52 43 78 55 44 79 53 45 80 52 43 81 54 46 82 55 44 83 56 47 84 57 48 85 59 49 86 56 47 87 59 49 88 58 50 89 60 51 90 61 52 91 63 51 92 60 51 93 63 51 94 62 53 95 64 54 96 65 55 97 67 54 98 64 54 99 67 54 100 66 56 101 68 57 102 69 58 103 71 59 104 68 57 105 71 59 106 70 60 107 72 61 108 73 61 109 74 62 110 72 61 111 75 63 112 73 61 113 76 64 114 77 65 115 78 66 116 76 64 117 78 66 118 79 67 119 80 68 120 81 69 121 82 70 122 80 68 123 82 70 124 83 71 125 84 72 126 85 24 127 86 25 128 84 72 129 86 25 130 87 73 131 88 74 132 89 75 133 90 76 134 88 74 135 90 76 136 91 77 137 92 78 138 93 79 139 94 80 140 92 78 141 95 13 142 93 79 143 96 81 144 97 75 145 98 82 146 96 81 147 98 82 148 99 83 149 100 11 150 101 11 151 102 12 152 100 11 153 103 84 154 101 11 155 104 61 156 105 61 157 106 85 158 104 61 159 107 63 160 105 61 161 108 86 162 109 86 163 110 87 164 108 86 165 111 87 166 109 86 167 112 88 168 113 89 169 114 88 170 112 88 171 114 88 172 115 90 173 116 91 174 117 92 175 118 93 176 116 91 177 119 45 178 117 92 179 120 94 180 121 95 181 122 96 182 120 94 183 123 36 184 121 95 185 124 38 186 125 97 187 126 98 188 124 38 189 126 98 190 127 99 191 128 100 192 129 100 193 130 101 194 128 100 195 131 100 196 129 100 197 132 102 198 133 103 199 134 104 200 132 102 201 135 105 202 133 103 203 136 106 204 137 107 205 138 108 206 136 106 207 139 109 208 137 107 209 140 110 210 141 110 211 142 110 212 140 110 213 143 110 214 141 110 215 55 111 216 125 112 217 53 113 218 35 114 219 107 115 220 34 116 221 56 117 222 130 118 223 57 119 224 33 120 225 105 121 226 35 122 227 14 123 228 86 124 229 15 125 230 56 126 231 131 127 232 128 128 233 36 129 234 110 130 235 37 131 236 15 132 237 85 133 238 13 134 239 36 135 240 111 136 241 108 128 242 17 137 243 88 138 244 16 138 245 59 139 246 131 140 247 58 141 248 16 142 249 91 143 250 18 144 251 57 145 252 129 146 253 59 147 254 39 148 255 111 149 256 38 150 257 60 151 258 134 151 259 61 152 260 37 153 261 109 154 262 39 155 263 18 156 264 90 157 265 19 158 266 62 159 267 132 160 268 60 161 269 41 162 270 112 163 271 40 164 272 19 165 273 89 166 274 17 167 275 40 168 276 115 169 277 42 170 278 20 171 279 94 172 280 21 173 281 63 174 282 135 175 283 62 176 284 22 177 285 92 178 286 20 179 287 0 180 288 74 181 289 1 182 290 61 183 291 133 184 292 63 185 293 42 186 294 114 187 295 43 187 296 0 188 297 75 189 298 72 128 299 64 190 300 138 191 301 65 192 302 41 193 303 114 194 304 113 195 305 23 196 306 95 197 307 22 198 308 66 199 309 136 200 310 64 201 311 44 202 312 118 203 313 45 204 314 21 205 315 93 206 316 23 207 317 3 208 318 75 209 319 2 210 320 44 211 321 119 212 322 116 128 323 25 213 324 96 214 325 24 215 326 1 216 327 73 217 328 3 218 329 67 219 330 139 220 331 66 221 332 24 222 333 99 223 334 26 224 335 5 225 336 76 226 337 4 227 338 65 228 339 137 229 340 67 230 341 47 231 342 119 232 343 46 233 344 6 234 345 76 235 346 79 236 347 68 237 348 142 238 349 69 239 350 45 240 351 117 241 352 47 242 353 26 243 354 98 243 355 27 244 356 68 245 357 143 246 358 140 128 359 48 247 360 122 248 361 49 249 362 25 250 363 98 251 364 97 252 365 6 253 366 78 253 367 7 254 368 50 255 369 120 256 370 48 257 371 28 258 372 102 259 373 29 260 374 7 261 375 77 262 376 5 263 377 71 264 378 143 265 379 70 266 380 30 267 381 100 268 382 28 269 383 9 270 384 80 271 385 8 272 386 69 273 387 141 274 388 71 275 389 51 276 390 123 277 391 50 278 392 8 279 393 83 280 394 10 281 395 51 282 396 122 283 397 121 195 398 31 284 399 103 285 400 30 286 401 53 287 402 124 288 403 52 288 404 31 289 405 102 290 406 101 195 407 10 291 408 82 292 409 11 293 410 52 294 411 127 295 412 54 296 413 32 297 414 106 297 415 33 298 416 11 299 417 81 300 418 9 301 419 32 302 420 107 303 421 104 304 422 13 305 423 84 306 424 12 307 425 54 308 426 126 309 427 55 310 428 12 311 429 87 312 430 14 313 431 55 111 432 126 195 433 125 112 434 35 114 435 105 314 436 107 115 437 56 117 438 128 315 439 130 118 440 33 120 441 106 316 442 105 121 443 14 123 444 87 317 445 86 124 446 56 126 447 58 318 448 131 127 449 36 129 450 108 319 451 110 130 452 15 132 453 86 195 454 85 133 455 36 135 456 38 320 457 111 136 458 17 137 459 89 321 460 88 138 461 59 139 462 129 322 463 131 140 464 16 142 465 88 128 466 91 143 467 57 145 468 130 195 469 129 146 470 39 148 471 109 323 472 111 149 473 60 151 474 132 152 475 134 151 476 37 153 477 110 195 478 109 154 479 18 156 480 91 324 481 90 157 482 62 159 483 135 128 484 132 160 485 41 162 486 113 325 487 112 163 488 19 165 489 90 195 490 89 166 491 40 168 492 112 128 493 115 169 494 20 171 495 92 326 496 94 172 497 63 174 498 133 327 499 135 175 500 22 177 501 95 128 502 92 178 503 0 180 504 72 328 505 74 181 506 61 183 507 134 195 508 133 184 509 42 186 510 115 329 511 114 187 512 0 188 513 2 330 514 75 189 515 64 190 516 136 331 517 138 191 518 41 193 519 43 332 520 114 194 521 23 196 522 93 333 523 95 197 524 66 199 525 139 128 526 136 200 527 44 202 528 116 334 529 118 203 530 21 205 531 94 335 532 93 206 533 3 208 534 73 336 535 75 209 536 44 211 537 46 337 538 119 212 539 25 213 540 97 338 541 96 214 542 1 216 543 74 195 544 73 217 545 67 219 546 137 339 547 139 220 548 24 222 549 96 128 550 99 223 551 5 225 552 77 340 553 76 226 554 65 228 555 138 195 556 137 229 557 47 231 558 117 341 559 119 232 560 6 234 561 4 342 562 76 235 563 68 237 564 140 343 565 142 238 566 45 240 567 118 344 568 117 241 569 26 243 570 99 244 571 98 243 572 68 245 573 70 345 574 143 246 575 48 247 576 120 346 577 122 248 578 25 250 579 27 347 580 98 251 581 6 253 582 79 254 583 78 253 584 50 255 585 123 128 586 120 256 587 28 258 588 100 348 589 102 259 590 7 261 591 78 195 592 77 262 593 71 264 594 141 349 595 143 265 596 30 267 597 103 128 598 100 268 599 9 270 600 81 350 601 80 271 602 69 273 603 142 195 604 141 274 605 51 276 606 121 351 607 123 277 608 8 279 609 80 128 610 83 280 611 51 282 612 49 352 613 122 283 614 31 284 615 101 353 616 103 285 617 53 287 618 125 354 619 124 288 620 31 289 621 29 355 622 102 290 623 10 291 624 83 356 625 82 292 626 52 294 627 124 128 628 127 295 629 32 297 630 104 298 631 106 297 632 11 299 633 82 357 634 81 300 635 32 302 636 34 358 637 107 303 638 13 305 639 85 359 640 84 306 641 54 308 642 127 360 643 126 309 644 12 311 645 84 128 646 87 312 647</p>
        </triangles>
      </mesh>
    </geometry>
  </library_geometries>
  <library_visual_scenes>
    <visual_scene id="Scene" name="Scene">
      <node id="temple_f" name="temple_f" type="NODE">
        <matrix sid="transform">1 0 0 0 0 1 0 0 0 0 1 0 0 0 0 1</matrix>
        <instance_geometry url="#Cube_015-mesh" name="temple_f">
          <bind_material>
            <technique_common>
              <instance_material symbol="hierva_choza_gaetuli-material" target="#hierva_choza_gaetuli-material">
                <bind_vertex_input semantic="Cube_015-mesh-map-0" input_semantic="TEXCOORD" input_set="0"/>
                <bind_vertex_input semantic="Cube_015-mesh-map-1" input_semantic="TEXCOORD" input_set="1"/>
              </instance_material>
            </technique_common>
          </bind_material>
        </instance_geometry>
        <node id="prop_garrisoned" name="prop_garrisoned" type="NODE">
          <matrix sid="transform">-0.7829416 1.18221e-7 0 5.35037e-14 -1.18221e-7 -0.7829416 0 5.033843 0 0 0.7829416 9.013988 0 0 0 1</matrix>
        </node>
        <node id="prop_projectile" name="prop_projectile" type="NODE">
          <matrix sid="transform">-0.7829416 1.18221e-7 0 5.35037e-14 -1.18221e-7 -0.7829416 0 5.033842 0 0 0.7829416 9.013988 0 0 0 1</matrix>
        </node>
      </node>
    </visual_scene>
  </library_visual_scenes>
  <scene>
    <instance_visual_scene url="#Scene"/>
  </scene>
</COLLADA>