<?xml version="1.0" encoding="utf-8"?>
<COLLADA xmlns="http://www.collada.org/2005/11/COLLADASchema" version="1.4.1" xmlns:xsi="http://www.w3.org/2001/XMLSchema-instance">
  <asset>
    <contributor>
      <author>Blender User</author>
      <authoring_tool>Blender 4.3.1 commit date:2024-12-10, commit time:07:46, hash:33d812126174</authoring_tool>
    </contributor>
    <created>2026-08-22T20:35:54</created>
    <modified>2026-08-22T20:35:54</modified>
    <unit name="meter" meter="1"/>
    <up_axis>Z_UP</up_axis>
  </asset>
  <library_effects>
    <effect id="hierva_choza_gaetuli-effect">
      <profile_COMMON>
        <technique sid="common">
          <lambert>
            <emission>
              <color sid="emission">0 0 0 1</color>
            </emission>
            <diffuse>
              <color sid="diffuse">0.8 0.8 0.8 1</color>
            </diffuse>
            <index_of_refraction>
              <float sid="ior">1.45</float>
            </index_of_refraction>
          </lambert>
        </technique>
      </profile_COMMON>
    </effect>
  </library_effects>
  <library_images/>
  <library_materials>
    <material id="hierva_choza_gaetuli-material" name="hierva choza gaetuli">
      <instance_effect url="#hierva_choza_gaetuli-effect"/>
    </material>
  </library_materials>
  <library_geometries>
    <geometry id="Cube_122-mesh" name="Cube.122">
      <mesh>
        <source id="Cube_122-mesh-positions">
          <float_array id="Cube_122-mesh-positions-array" count="816">-14.55234 -3.283549 22.23512 -14.55234 -3.283549 18.73272 -10.9073 -0.5159822 22.23512 -10.9073 -0.5159822 18.73272 -10.82253 -3.167808 22.23512 -10.82253 -3.167808 18.73272 -14.47153 -0.6282574 22.23512 -14.47153 -0.6282574 18.73272 15.66333 -14.4753 3.572023 15.66333 -14.4753 0.0696215 11.59548 -16.57253 3.572023 11.59548 -16.57253 0.0696215 11.96948 -13.94584 3.572023 11.96948 -13.94584 0.0696215 15.12564 -17.07684 3.572023 15.12564 -17.07684 0.0696215 -11.64226 -16.01778 3.572023 -11.64226 -16.01778 0.0696215 -7.068937 -16.19246 3.572023 -7.068937 -16.19246 0.0696215 -8.686471 -18.29554 3.572023 -8.686471 -18.29554 0.0696215 -9.894572 -14.0171 3.572023 -9.894572 -14.0171 0.0696215 -20.96969 5.509089 3.572023 -20.96969 5.509089 0.0696215 -18.08103 1.959238 3.572023 -18.08103 1.959238 0.0696215 -20.7285 1.785285 3.572023 -20.7285 1.785285 0.0696215 -18.31318 5.517677 3.572023 -18.31318 5.517677 0.0696215 2.389068 -6.451204 22.23512 2.389068 -6.451204 18.73271 6.962388 -6.625888 22.23512 6.962388 -6.625888 18.73271 5.344855 -8.72897 22.23512 5.344855 -8.72897 18.73271 4.136754 -4.450531 22.23512 4.136754 -4.450531 18.73271 0.4439818 -13.36258 3.572023 0.4439818 -13.36258 0.0696215 2.059445 -17.64464 3.572023 2.059445 -17.64464 0.0696215 -0.5067985 -16.97103 3.572023 -0.5067985 -16.97103 0.0696215 2.966416 -14.1959 3.572023 2.966416 -14.1959 0.0696215 21.03897 1.75876 3.572023 21.03897 1.75876 0.0696215 18.29906 5.424635 3.572023 18.29906 5.424635 0.0696215 20.95145 5.489338 3.572023 20.95145 5.489338 0.0696215 18.38437 1.859654 3.572023 18.38437 1.859654 0.0696215 -13.49215 18.23888 3.572023 -13.49215 18.23888 0.0696215 -9.433718 20.35428 3.572023 -9.433718 20.35428 0.0696215 -9.795969 17.72595 3.572023 -9.795969 17.72595 0.0696215 -12.9661 20.8428 3.572023 -12.9661 20.8428 0.0696215 13.80627 19.90344 3.572023 13.80627 19.90344 0.0696215 9.232216 20.05767 3.572023 9.232216 20.05767 0.0696215 10.84033 22.16796 3.572023 10.84033 22.16796 0.0696215 12.06755 17.89497 3.572023 12.06755 17.89497 0.0696215 1.732028 17.19422 3.572023 1.732028 17.19422 0.0696215 0.09743076 21.46902 3.572023 0.09743076 21.46902 0.0696215 2.66666 20.80689 3.572023 2.66666 20.80689 0.0696215 -0.7941087 18.01626 3.572023 -0.7941087 18.01626 0.0696215 -14.18517 -7.818838 22.23512 -14.18517 -7.818838 18.73271 -11.35555 -11.41592 22.23512 -11.35555 -11.41592 18.73271 -14.00553 -11.54612 22.23512 -14.00553 -11.54612 18.73271 -11.52888 -7.854135 22.23512 -11.52888 -7.854135 18.73271 1.075823 1.759011 22.23512 1.075823 1.759011 18.73271 3.063739 5.881386 22.23512 3.063739 5.881386 18.73271 4.345081 3.55813 22.23512 4.345081 3.55813 18.73271 -0.05963039 4.160645 22.23512 -0.05963039 4.160645 18.73271 12.75247 -1.993849 22.23512 12.75247 -1.993849 18.73271 14.06263 -6.378969 22.23512 14.06263 -6.378969 18.73271 11.55014 -5.526455 22.23512 11.55014 -5.526455 18.73271 15.21002 -3.002597 22.23512 15.21002 -3.002597 18.73271 4.862971 17.94432 22.23512 4.862971 17.94432 18.73271 1.245028 15.14141 22.23512 1.245028 15.14141 18.73271 1.134462 17.79229 22.23512 1.134462 17.79229 18.73271 4.808001 15.28836 22.23512 4.808001 15.28836 18.73271 -14.69395 7.927047 22.23512 -14.69395 7.927047 18.73271 -17.09983 11.82031 22.23512 -17.09983 11.82031 18.73271 -14.45207 11.65081 22.23512 -14.45207 11.65081 18.73271 -17.32931 8.261702 22.23512 -17.32931 8.261702 18.73271 11.20832 12.01755 22.23512 11.20832 12.01755 18.73271 8.654528 15.81543 22.23512 8.654528 15.81543 18.73271 11.30685 15.74785 22.23512 11.30685 15.74785 18.73271 8.56204 12.25063 22.23512 8.56204 12.25063 18.73271 -21.38174 -9.940844 3.572023 -21.38174 -9.940844 0.0696215 -17.74724 -7.159447 3.572023 -17.74724 -7.159447 0.0696215 -17.6524 -9.810934 3.572023 -17.6524 -9.810934 0.0696215 -21.31102 -7.285263 3.572023 -21.31102 -7.285263 0.0696215 -14.57109 -3.25886 22.23512 -10.92604 -0.4912924 18.73272 -14.57109 -3.25886 18.73272 -10.92604 -0.4912924 22.23512 -10.80482 -3.142363 22.23512 -10.80482 -3.142363 18.73272 -14.45382 -0.602813 18.73272 -14.45382 -0.602813 22.23512 15.64913 -14.44775 3.572023 15.64913 -14.44775 0.0696215 11.58128 -16.54498 0.0696215 11.58128 -16.54498 3.572023 11.94764 -13.96785 3.572023 11.94764 -13.96785 0.0696215 15.10381 -17.09885 0.0696215 15.10381 -17.09885 3.572023 -11.64108 -15.9868 3.572023 -7.067754 -16.16148 0.0696215 -11.64108 -15.9868 0.0696215 -7.067754 -16.16148 3.572023 -8.656639 -18.28712 3.572023 -8.656639 -18.28712 0.0696215 -9.864737 -14.00868 0.0696215 -9.864737 -14.00868 3.572023 -20.94564 5.528656 3.572023 -18.05698 1.978805 0.0696215 -20.94564 5.528656 0.0696215 -18.05698 1.978805 3.572023 -20.70247 1.768443 3.572023 -20.70247 1.768443 0.0696215 -18.28715 5.500835 0.0696215 -18.28715 5.500835 3.572023 2.390251 -6.420227 22.23512 6.963572 -6.594911 18.73271 2.390251 -6.420227 18.73271 6.963572 -6.594911 22.23512 5.315022 -8.737395 22.23512 4.106921 -4.458955 18.73271 5.315022 -8.737395 18.73271 4.106921 -4.458955 22.23512 0.4149773 -13.37352 3.572023 0.4149773 -13.37352 0.0696215 2.030441 -17.65559 0.0696215 2.030441 -17.65559 3.572023 -0.5261494 -16.94681 3.572023 2.947065 -14.17168 0.0696215 -0.5261494 -16.94681 0.0696215 2.947065 -14.17168 3.572023 21.01414 1.740201 3.572023 18.27423 5.406076 0.0696215 21.01414 1.740201 0.0696215 18.27423 5.406076 3.572023 20.92614 5.507238 3.572023 20.92614 5.507238 0.0696215 18.35906 1.877554 0.0696215 18.35906 1.877554 3.572023 -13.47782 18.21139 3.572023 -13.47782 18.21139 0.0696215 -9.419389 20.32679 0.0696215 -9.419389 20.32679 3.572023 -9.817704 17.70384 3.572023 -12.98783 20.8207 0.0696215 -9.817704 17.70384 0.0696215 -12.98783 20.8207 3.572023 13.80523 19.87245 3.572023 9.231172 20.02668 0.0696215 13.80523 19.87245 0.0696215 9.231172 20.02668 3.572023 10.81053 22.1594 3.572023 10.81053 22.1594 0.0696215 12.03775 17.88641 0.0696215 12.03775 17.88641 3.572023 1.703073 17.18315 3.572023 0.06847542 21.45794 0.0696215 1.703073 17.18315 0.0696215 0.06847542 21.45794 3.572023 2.686119 20.78275 3.572023 -0.7746497 17.99213 0.0696215 2.686119 20.78275 0.0696215 -0.7746497 17.99213 3.572023 -14.16081 -7.799672 22.23512 -11.33119 -11.39676 18.73271 -14.16081 -7.799672 18.73271 -11.33119 -11.39676 22.23512 -14.03128 -11.52885 22.23512 -11.55463 -7.836866 18.73271 -14.03128 -11.52885 18.73271 -11.55463 -7.836866 22.23512 1.0479 1.772476 22.23512 3.035816 5.894852 18.73271 1.0479 1.772476 18.73271 3.035816 5.894852 22.23512 4.340879 3.527417 22.23512 -0.06383168 4.129931 18.73271 4.340879 3.527417 18.73271 -0.06383168 4.129931 22.23512 12.72277 -2.002723 22.23512 12.72277 -2.002723 18.73271 14.03293 -6.387844 18.73271 14.03293 -6.387844 22.23512 11.53255 -5.500935 22.23512 15.19242 -2.977077 18.73271 11.53255 -5.500935 18.73271 15.19242 -2.977077 22.23512 4.881957 17.91981 22.23512 1.264013 15.1169 18.73271 4.881957 17.91981 18.73271 1.264013 15.1169 22.23512 1.117002 17.76667 22.23512 1.117002 17.76667 18.73271 4.790542 15.26275 18.73271 4.790542 15.26275 22.23512 -14.72032 7.91075 22.23512 -17.1262 11.80402 18.73271 -14.72032 7.91075 18.73271 -17.1262 11.80402 22.23512 -14.42844 11.63074 22.23512 -17.30568 8.24164 18.73271 -14.42844 11.63074 18.73271 -17.30568 8.24164 22.23512 11.18259 12.00025 22.23512 8.628804 15.79814 18.73271 11.18259 12.00025 18.73271 8.628804 15.79814 22.23512 11.28246 15.76699 22.23512 11.28246 15.76699 18.73271 8.537654 12.26977 18.73271 8.537654 12.26977 22.23512 -21.40058 -9.916227 3.572023 -17.76607 -7.134829 0.0696215 -21.40058 -9.916227 0.0696215 -17.76607 -7.134829 3.572023 -17.63478 -9.785422 3.572023 -17.63478 -9.785422 0.0696215 -21.29341 -7.259752 0.0696215 -21.29341 -7.259752 3.572023</float_array>
          <technique_common>
            <accessor source="#Cube_122-mesh-positions-array" count="272" stride="3">
              <param name="X" type="float"/>
              <param name="Y" type="float"/>
              <param name="Z" type="float"/>
            </accessor>
          </technique_common>
        </source>
        <source id="Cube_122-mesh-normals">
          <float_array id="Cube_122-mesh-normals-array" count="2022">0.6047143 -0.7964425 0 0.6047145 -0.7964425 0 0.6047143 -0.7964426 0 0.6047142 -0.7964426 0 -0.5712337 -0.8207876 0 -0.5712336 -0.8207876 0 -0.5712339 -0.8207874 0 -0.5712333 -0.8207878 0 0.4582449 -0.888826 0 0.458245 -0.888826 0 0.4582449 -0.888826 0 0.4582451 -0.888826 0 0.7042713 0.709931 0 0.7042714 0.7099308 0 0.7042711 0.7099311 0 -0.03816729 -0.9992714 0 -0.03816729 -0.9992714 0 -0.03816729 -0.9992714 0 -0.9623697 -0.2717436 0 -0.9623698 -0.2717436 0 -0.9623697 -0.2717438 0 -0.9623698 -0.2717434 0 -0.7756425 -0.6311726 0 -0.7756426 -0.6311725 0 -0.7756424 -0.6311727 0 -0.8395452 0.5432898 0 -0.8395453 0.5432897 0 -0.8395451 0.5432901 0 -0.8395456 0.5432894 0 -0.03816848 -0.9992713 0 -0.03816848 -0.9992714 0 -0.03816848 -0.9992713 0 -0.03816848 -0.9992714 0 0.9623697 0.271744 0 0.9623697 0.271744 0 0.9623697 0.2717439 0 0.9623696 0.2717438 0 0.9356312 0.352979 0 0.9356313 0.3529791 0 0.6242229 -0.7812464 0 0.8009951 0.5986711 0 0.8009948 0.5986713 0 0.8009951 0.598671 0 0.8009953 0.5986708 0 0.8164427 -0.5774264 0 0.8164427 -0.5774265 0 -0.462215 0.8867681 0 -0.4622149 0.8867679 0 0.701089 0.7130739 0 0.701089 0.7130739 0 0.03369927 0.9994321 0 0.03369927 0.999432 0 0.03369933 0.9994321 0 0.03369927 0.999432 0 0.9611449 0.2760448 0 0.9611448 0.2760447 0 0.9340435 0.3571594 0 0.9340435 0.3571594 0 0.9340435 0.3571594 0 -0.6277097 0.7784476 0 -0.6277097 0.7784475 0 -0.6277097 0.7784476 0 -0.7859635 -0.618273 0 -0.7859632 -0.6182733 0 -0.7859636 -0.6182729 0 -0.7859639 -0.6182724 0 0.8304557 -0.5570847 0 0.8304554 -0.5570852 0 0.8304558 -0.5570846 0 0.8304562 -0.5570842 0 0.9007396 -0.4343599 0 0.9007393 -0.4343602 0 0.9007395 -0.4343597 0 0.9007397 -0.4343593 0 0.1355267 0.9907738 0 0.1355266 0.9907737 0 0.1355267 0.9907737 0 0.1355268 0.9907737 0 0.958149 0.2862702 0 0.958149 0.2862702 0 0.958149 0.2862701 0 0.9581489 0.2862703 0 0.5677027 -0.8232337 0 0.5677026 -0.8232337 0 0.5677028 -0.8232336 0 0.567703 -0.8232336 0 -0.6124355 0.7905206 0 -0.6124353 0.7905207 0 -0.6124356 0.7905204 0 -0.6124359 0.7905204 0 0.5632208 0.8263066 0 0.5632208 0.8263065 0 0.5632206 0.8263067 0 0.5632209 0.8263065 0 0.850679 0.5256854 0 0.8506791 0.5256855 0 0.8506792 0.5256854 0 -0.7623279 0.647191 0 -0.7623277 0.6471914 0 -0.7623281 0.6471909 0 -0.7623283 0.6471906 0 0.8298381 0.5580043 0 0.8298379 0.5580046 0 0.8298382 0.5580042 0 0.8298385 0.5580039 0 0.7866467 -0.6174035 0 0.7866468 -0.6174034 0 0.7866465 -0.6174038 0 0.786647 -0.6174032 0 0.6077362 -0.7941391 0 0.6077364 -0.7941389 0 0.6077361 -0.7941391 0 0.6077359 -0.7941392 0 -0.5681114 -0.8229518 0 -0.5681114 -0.8229517 0 -0.5681115 -0.8229516 0 -0.5681113 -0.8229518 0 -0.6047134 0.7964432 0 -0.6047134 0.7964432 0 -0.6047136 0.7964431 0 -0.6047133 0.7964433 0 0.5712338 0.8207876 0 0.5712337 0.8207876 0 0.5712338 0.8207874 0 0.5712338 0.8207874 0 -0.458245 0.888826 0 -0.4582451 0.888826 0 -0.4582449 0.888826 0 -0.4582449 0.888826 0 -0.7042704 -0.7099319 0 -0.7042703 -0.709932 0 -0.7042704 -0.7099318 0 -0.7042706 -0.7099317 0 0.03816771 0.9992714 0 0.03816771 0.9992714 0 0.9623699 0.2717432 0 0.9623699 0.2717432 0 0.9623699 0.2717433 0 0.9623697 0.2717434 0 0.7756428 0.6311722 0 0.7756429 0.6311721 0 0.7756426 0.6311725 0 0.7756431 0.6311719 0 0.8395453 -0.5432898 0 0.8395451 -0.5432901 0 0.8395453 -0.5432897 0 0.8395456 -0.5432894 0 0.03816848 0.9992713 0 0.03816848 0.9992714 0 0.03816848 0.9992714 0 -0.9623697 -0.2717438 0 -0.9623697 -0.271744 0 -0.9623697 -0.2717436 0 -0.9356315 -0.3529785 0 -0.9356315 -0.3529785 0 -0.6242231 0.7812462 0 -0.6242231 0.7812463 0 -0.624223 0.7812463 0 -0.8009948 -0.5986713 0 -0.8009948 -0.5986713 0 -0.8009948 -0.5986714 0 -0.816443 0.5774261 0 -0.8164432 0.5774258 0 -0.816443 0.5774262 0 -0.8164427 0.5774265 0 0.4622153 -0.8867678 0 0.4622153 -0.8867678 0 0.4622152 -0.8867678 0 -0.7010906 -0.7130722 0 -0.7010906 -0.7130723 0 -0.7010908 -0.7130721 0 -0.03369927 -0.9994321 0 -0.03369927 -0.999432 0 -0.03369927 -0.999432 0 -0.9611449 -0.2760448 0 -0.9611448 -0.2760447 0 -0.9340432 -0.3571602 0 -0.9340432 -0.3571602 0 -0.9340432 -0.3571602 0 0.6277083 -0.7784487 0 0.6277084 -0.7784487 0 0.7859641 0.6182723 0 0.7859641 0.6182721 0 0.7859639 0.6182724 0 0.7859644 0.618272 0 -0.8304556 0.5570849 0 -0.8304557 0.5570849 0 -0.8304557 0.5570848 0 -0.9007396 0.4343598 0 -0.9007396 0.4343599 0 -0.9007396 0.4343599 0 -0.1355265 -0.9907738 0 -0.1355265 -0.9907737 0 -0.1355265 -0.9907738 0 -0.9581491 -0.2862699 0 -0.9581491 -0.2862699 0 -0.5677038 0.8232329 0 -0.5677039 0.8232328 0 -0.5677036 0.8232331 0 -0.5677041 0.8232327 0 0.6124356 -0.7905206 0 0.6124356 -0.7905204 0 0.6124355 -0.7905206 0 0.6124358 -0.7905205 0 -0.5632193 -0.8263076 0 -0.5632192 -0.8263077 0 -0.5632193 -0.8263075 0 -0.5632194 -0.8263074 0 -0.8506796 -0.5256848 0 -0.8506795 -0.5256847 0 -0.8506794 -0.525685 0 -0.8506796 -0.5256845 0 0.7623273 -0.6471918 0 0.762327 -0.647192 0 0.7623275 -0.6471916 0 -0.8298393 -0.5580027 0 -0.8298392 -0.5580027 0 -0.8298394 -0.5580024 0 -0.8298391 -0.5580029 0 -0.7866472 0.6174028 0 -0.7866472 0.6174029 0 -0.7866473 0.6174028 0 -0.7866474 0.6174027 0 -0.6077351 0.7941399 0 -0.607735 0.7941399 0 -0.6077352 0.7941398 0 -0.6077349 0.79414 0 0.5681104 0.8229525 0 0.5681105 0.8229523 0 0.5681104 0.8229525 0 0.5681102 0.8229525 0 1.61277e-7 0 -1 3.61683e-5 0 -1 3.63294e-5 0 -1 -0.713076 0.7010868 0 -0.7130761 0.7010868 0 0.790565 0.6123782 0 0.7905307 0.6124225 0 0.7905306 0.6124227 0 0 0 -1 0 0 -1 0 0 -1 -0.2714331 0.9624574 2.77953e-4 -0.2718823 0.9623305 1.86731e-4 -0.271937 0.9623152 0 0 0 1 1.08753e-5 0 1 0 0 1 0.9994361 -0.03358173 0 0 0 -1 -3.22109e-7 0 -1 -3.23544e-7 0 -1 -0.6310555 0.7757378 0 -0.7905805 -0.6123582 0 -0.7905767 -0.6123631 0 -0.7905768 -0.6123631 0 0 0 1 -3.13677e-7 0 1 -3.15033e-7 0 1 0 0 -1 -1.84044e-5 0 -1 -1.84841e-5 0 -1 -0.9994336 0.0336523 0 -0.9994314 0.03372174 0 -0.9994313 0.0337221 0 -0.8263474 0.5631607 0 -0.8263435 0.5631664 0 -0.8263435 0.5631664 0 0.6311218 -0.7756838 0 0.6310877 -0.7757115 0 0.6310876 -0.7757117 0 5.51314e-5 0 1 3.68929e-6 0 1 5.53618e-5 0 1 -0.2760744 0.9611363 0 -0.2760928 0.961131 0 -0.276093 0.961131 0 2.08055e-7 0 -1 -2.44164e-7 0 -1 -2.46129e-7 0 -1 0 0 1 -6.59204e-6 0 1 -6.62143e-6 0 1 -0.5432143 -0.8395941 0 -0.5432143 -0.8395941 0 -0.5432143 -0.8395942 0 0.8262746 -0.5632677 0 0.826258 -0.5632919 0 0.8262579 -0.563292 0 0 0 1 1.02251e-6 0 1 1.02706e-6 0 1 0 0 -1 6.45783e-6 0 -1 6.48655e-6 0 -1 0.2760928 -0.961131 0 0.2760744 -0.9611363 0 0.2760743 -0.9611364 0 0.5257036 -0.8506678 0 0.5257339 -0.8506491 0 0.5257341 -0.850649 0 -4.29482e-7 0 -1 2.23421e-7 0 -1 -4.32406e-7 0 -1 0.543275 0.8395549 0 0.5431482 0.8396369 0 0.5431475 0.8396374 0 0 0 1 -2.59384e-5 0 1 0.3571162 -0.93406 0 0.3571163 -0.93406 0 4.29028e-7 0 -1 -3.34414e-7 0 -1 -3.37833e-7 0 -1 1.33722e-5 0 1 -3.1313e-6 0 1 1.34441e-5 0 1 -0.9992718 0.03815674 0 -0.9992711 0.03817409 0 -0.9992712 0.03817421 0 -0.5255358 0.8507716 0 -0.5255362 0.8507713 0 -0.5255362 0.8507713 0 1.5017e-7 0 -1 3.4724e-5 0 -1 3.48744e-5 0 -1 -0.3575058 0.933911 -1.9846e-4 -0.3571942 0.9340302 -1.33379e-4 -0.3569325 0.9341303 0 0.6473686 0.7621772 0 0.6473335 0.7622069 0 0.6473334 0.762207 0 0 0 -1 1.65839e-7 0 -1 1.66558e-7 0 -1 0.9992718 -0.03815704 0 0.9992691 -0.03822642 0 0.9992692 -0.03822684 0 2.55297e-7 0 1 5.72622e-5 0 1 5.75184e-5 0 1 0.778534 0.6276025 0 0.7785425 0.6275919 0 0.7785426 0.6275919 0 0 0 1 -9.36409e-6 0 1 0.2717756 -0.9623607 0 0.271766 -0.9623634 0 0.271766 -0.9623634 0 -0.6472772 -0.7622548 0 -0.6471747 -0.7623418 0 -0.647174 -0.7623423 0 0 0 1 -1.44243e-5 0 1 -1.44885e-5 0 1 0 0 -1 -1.16247e-5 0 -1 -0.7784214 -0.6277421 0 -0.7784213 -0.6277422 0 -0.7784214 -0.6277422 0 0.5579572 -0.8298697 0 0.5579569 -0.8298699 0 0.5579569 -0.82987 0 0 0 -1 0 0 -1 0 0 -1 -0.2717421 0.9623702 0 -0.2717426 0.96237 0 -0.2717426 0.96237 0 -1.07165e-4 0 1 -1.46837e-5 0 1 -1.42809e-5 0 1 -0.6183703 0.785887 0 -0.6183362 0.7859138 0 -0.618336 0.785914 0 3.66207e-7 0 -1 8.22413e-5 0 -1 8.2607e-5 0 -1 1.84545e-7 0 1 4.2674e-5 0 1 4.28588e-5 0 1 -0.3529291 0.9356501 0 -0.352929 0.9356501 0 -0.352929 0.9356502 0 -0.5578263 0.8299578 0 -0.5578432 0.8299465 0 -0.5578432 0.8299463 0 0 0 1 -1.00919e-5 0 1 -2.70157e-7 0 -1 -6.23139e-5 0 -1 -0.7963597 -0.6048235 0 -0.7963931 -0.6047794 0 -0.7963933 -0.6047791 0 0.6182028 -0.7860186 0 0.6182373 -0.7859916 0 0.6182375 -0.7859913 0 0.6173108 0.7867195 0 0.6173786 0.7866662 0 0.617379 0.7866659 0 -5.35247e-5 0 1 3.115e-6 0 1 -5.37714e-5 0 1 0 0 -1 9.62256e-6 0 -1 0.3532099 -0.9355441 0 0.3532013 -0.9355474 0 0.3532012 -0.9355474 0 1.74902e-7 0 1 3.91802e-5 0 1 3.93551e-5 0 1 -0.5569754 -0.8305291 0 -0.557039 -0.8304864 0 -0.5570393 -0.8304862 0 0 0 -1 2.79424e-7 0 -1 2.80632e-7 0 -1 0.7965357 0.6045916 0 0.7965354 0.6045919 0 0.7965355 0.6045919 0 0 0 1 -3.01346e-6 0 1 -3.02686e-6 0 1 -0.7812579 -0.6242085 0 -0.6174301 -0.7866258 0 -0.6174129 -0.7866393 0 -0.6174128 -0.7866394 0 0 0 -1 2.30097e-5 0 -1 2.31094e-5 0 -1 0 0 1 1.29164e-6 0 1 1.29741e-6 0 1 1.09875e-4 0 -1 -7.52852e-5 0 -1 1.10705e-4 0 -1 0.8207691 -0.5712601 0 0.5570183 0.8305003 0 0.5569862 0.8305218 0 0.556986 0.8305219 0 -0.7941504 -0.6077215 0 -0.7940832 -0.607809 0 -0.7940828 -0.6078096 0 0 0 1 1.80833e-5 0 1 1.81639e-5 0 1 0 0 -1 1.85112e-5 0 -1 0.7812646 0.6242001 0 0.781273 0.6241895 0 0.7812731 0.6241894 0 0 0 1 8.36632e-6 0 1 8.40255e-6 0 1 -0.4343512 -0.9007437 0 -0.4343541 -0.9007423 0 -0.4343541 -0.9007422 0 0 0 -1 0 0 -1 -0.8207304 0.5713159 0 -0.8207627 0.5712693 0 -0.8207629 0.571269 0 2.138e-4 0 1 -8.39868e-5 0 1 -8.52836e-5 0 1 0.5987089 -0.8009668 0 0.5987089 -0.8009667 0 0.7943315 0.6074846 0 0.7942979 0.6075285 0 0.7942978 0.6075288 0 -5.51301e-5 0 -1 -4.55096e-6 0 -1 -4.32472e-6 0 -1 0 0 1 4.70603e-6 0 1 0 0 -1 0 0 -1 0.8888661 0.4581671 0 0.4343916 0.9007242 0 0.434392 0.9007239 0 0.434392 0.9007239 0 0.8229758 -0.5680767 1.86732e-4 0.8227105 -0.5684608 2.77925e-4 0.823008 -0.5680299 0 0 0 1 1.35979e-6 0 1 1.36568e-6 0 1 -2.14118e-4 0 -1 1.07838e-5 0 -1 -2.15097e-4 0 -1 -0.5987085 0.800967 0 -0.5986419 0.8010168 0 -0.5986416 0.8010171 0 0 0 1 5.48987e-6 0 1 5.51441e-6 0 1 0.9907703 -0.1355516 0 0.9907703 -0.1355518 0 0 0 -1 0 0 -1 0 0 -1 -0.8888661 -0.4581671 0 -1.37783e-5 0 1 0 0 1 0.5773839 0.8164728 0 0.5774495 0.8164265 0 0.5774499 0.8164263 0 -0.8229113 0.56817 0 -0.8229762 0.5680759 0 -0.8229767 0.5680754 0 0 0 -1 0 0 -1 0 0 1 1.18411e-6 0 1 1.1894e-6 0 1 0 0 -1 0 0 -1 -0.7098411 0.7043619 0 -0.7098411 0.704362 0 -0.9907739 0.1355254 0 -0.9907739 0.1355252 0 -0.990774 0.1355252 0 0 0 1 9.79528e-6 0 1 9.8389e-6 0 1 0 0 -1 -8.61153e-7 0 -1 -0.5773843 -0.8164726 0 -0.5775153 -0.8163799 0 -0.577516 -0.8163794 0 -0.2862864 0.9581442 0 -0.2862866 0.9581441 0 0 0 -1 -1.49695e-7 0 -1 0.7099968 -0.704205 0 0.7099968 -0.7042049 0 0 0 1 -2.09166e-7 0 1 -2.10073e-7 0 1 -0.8867682 -0.4622145 0 -0.8867681 -0.4622146 0 -0.8867682 -0.4622146 0 0 0 -1 0 0 -1 0 0 1 0 0 1 0 0 1 -0.9992747 0.03808128 0 -0.9992747 0.03808128 0 0.2863147 -0.9581357 0 0.2862954 -0.9581415 0 0.2862953 -0.9581415 0 0 0 1 -2.0916e-7 0 1 -2.10067e-7 0 1 1.0687e-4 0 -1 -5.12e-5 0 -1 -5.18884e-5 0 -1 0.8867265 0.4622944 0 0.8867835 0.4621852 0 0.8867838 0.4621846 0 -0.8233625 -0.5675159 0 -0.8233618 -0.5675169 0 -0.8233618 -0.5675169 0 2.0849e-7 0 -1 -1.46152e-7 0 -1 2.10036e-7 0 -1 0.9992719 -0.03815382 0 0.9992719 -0.03815382 0 -5.50138e-5 0 1 2.38668e-5 0 1 -5.53671e-5 0 1 0.7131567 -0.7010046 0 0.713122 -0.70104 0 0.7131218 -0.7010402 0 0 0 -1 0 0 -1 0 0 1 3.01359e-6 0 1 3.02703e-6 0 1 0.2716608 -0.9623931 0 0.2716518 -0.9623957 0 0.2716517 -0.9623957 0 0.8232328 0.5677041 0 0.823201 0.5677502 0 0.8232008 0.5677505 0 -1.3776e-5 0 1 4.49981e-7 0 1 -1.38397e-5 0 1 0.7905653 0.612378 0 0 0 -1 -0.271937 0.9623152 0 1.09224e-5 0 1 -0.7905805 -0.6123581 0 -0.9994337 0.03365194 0 0.631122 -0.7756837 0 3.45949e-6 0 1 -0.2760743 0.9611364 0 2.10022e-7 0 -1 0.8262746 -0.5632675 0 0.276093 -0.961131 0 0.5257035 -0.850668 0 2.26345e-7 0 -1 0.5432757 0.8395544 0 -2.60508e-5 0 1 0.3571162 -0.9340599 0 4.32442e-7 0 -1 -3.20316e-6 0 1 -0.9992719 0.03815662 0 -0.5255358 0.8507716 0 -0.3573803 0.933959 0 0.6473687 0.7621771 0 0.9992719 -0.03815662 0 0.7785341 0.6276025 0 -9.40589e-6 0 1 0.2717757 -0.9623607 0 -0.6472777 -0.7622543 0 -1.16767e-5 0 -1 -0.7784214 -0.6277422 0 0.5579573 -0.8298698 0 -0.2717421 0.9623702 0 -1.07567e-4 0 1 -0.6183705 0.7858868 0 -0.3529291 0.9356502 0 -0.5578262 0.8299579 0 -1.01356e-5 0 1 -6.25841e-5 0 -1 -0.7963595 -0.6048237 0 0.6182027 -0.7860189 0 0.6173104 0.7867198 0 3.36137e-6 0 1 9.66423e-6 0 -1 0.3532099 -0.9355441 0 -0.5569751 -0.8305293 0 0.7965357 0.6045916 0 -0.6174302 -0.7866258 0 -7.61154e-5 0 -1 0.5570185 0.8305002 0 -0.7941507 -0.6077209 0 1.85936e-5 0 -1 0.7812645 0.6242001 0 -0.4343512 -0.9007437 0 0 0 -1 -0.8207301 0.5713161 0 2.15097e-4 0 1 0.5987089 -0.8009667 0 0.7943317 0.6074844 0 -5.5356e-5 0 -1 4.72643e-6 0 1 0 0 -1 0.4343916 0.9007242 0 0.823008 -0.5680299 0 1.17633e-5 0 -1 -0.5987089 0.8009667 0 0.5773835 0.8164732 0 -0.8229109 0.5681706 0 0 0 -1 0 0 -1 -8.64998e-7 0 -1 -0.5773835 -0.8164731 0 -1.50364e-7 0 -1 0.7099968 -0.7042049 0 -0.8867682 -0.4622145 0 0 0 -1 0.2863149 -0.9581357 0 1.07557e-4 0 -1 0.8867263 0.462295 0 -1.47696e-7 0 -1 2.42196e-5 0 1 0.7131569 -0.7010045 0 0 0 -1 0.2716609 -0.9623931 0 0.8232329 0.5677038 0 5.13615e-7 0 1</float_array>
          <technique_common>
            <accessor source="#Cube_122-mesh-normals-array" count="674" stride="3">
              <param name="X" type="float"/>
              <param name="Y" type="float"/>
              <param name="Z" type="float"/>
            </accessor>
          </technique_common>
        </source>
        <source id="Cube_122-mesh-map-0">
          <float_array id="Cube_122-mesh-map-0-array" count="2448">0.9984335 0.6838312 1.000765 0.001214206 0.001161634 6.92369e-4 0.9984335 0.6838312 0.001161634 6.92369e-4 5.39125e-4 0.6833093 0.9984335 0.6838312 0.001161634 6.92369e-4 1.000765 0.001214206 0.9984335 0.6838312 5.39125e-4 0.6833093 0.001161634 6.92369e-4 0.9984335 0.6838312 0.001161634 6.92369e-4 1.000765 0.001214206 0.9984335 0.6838312 5.39125e-4 0.6833093 0.001161634 6.92369e-4 0.9984335 0.6838312 0.001161634 6.92369e-4 1.000765 0.001214206 0.9984335 0.6838312 5.39125e-4 0.6833093 0.001161634 6.92369e-4 0.9984335 0.6838312 1.000765 0.001214206 0.001161634 6.92369e-4 0.9984335 0.6838312 0.001161634 6.92369e-4 5.39125e-4 0.6833093 0.9984335 0.6838312 0.001161634 6.92369e-4 1.000765 0.001214206 0.9984335 0.6838312 5.39125e-4 0.6833093 0.001161634 6.92369e-4 0.9984335 0.6838312 1.000765 0.001214206 0.001161634 6.92369e-4 0.9984335 0.6838312 0.001161634 6.92369e-4 5.39125e-4 0.6833093 0.9984335 0.6838312 0.001161634 6.92369e-4 1.000765 0.001214206 0.9984335 0.6838312 5.39125e-4 0.6833093 0.001161634 6.92369e-4 0.9984335 0.6838312 1.000765 0.001214206 0.001161634 6.92369e-4 0.9984335 0.6838312 0.001161634 6.92369e-4 5.39125e-4 0.6833093 0.9984335 0.6838312 1.000765 0.001214206 0.001161634 6.92369e-4 0.9984335 0.6838312 0.001161634 6.92369e-4 5.39125e-4 0.6833093 0.9984335 0.6838312 0.001161634 6.92369e-4 1.000765 0.001214206 0.9984335 0.6838312 5.39125e-4 0.6833093 0.001161634 6.92369e-4 0.9984335 0.6838312 1.000765 0.001214206 0.001161634 6.92369e-4 0.9984335 0.6838312 0.001161634 6.92369e-4 5.39125e-4 0.6833093 0.9984335 0.6838312 1.000765 0.001214206 0.001161634 6.92369e-4 0.9984335 0.6838312 0.001161634 6.92369e-4 5.39125e-4 0.6833093 0.9984335 0.6838312 0.001161634 6.92369e-4 1.000765 0.001214206 0.9984335 0.6838312 5.39125e-4 0.6833093 0.001161634 6.92369e-4 0.9984335 0.6838312 0.001161634 6.92369e-4 1.000765 0.001214206 0.9984335 0.6838312 5.39125e-4 0.6833093 0.001161634 6.92369e-4 0.9984335 0.6838312 1.000765 0.001214206 0.001161634 6.92369e-4 0.9984335 0.6838312 0.001161634 6.92369e-4 5.39125e-4 0.6833093 0.9984335 0.6838312 1.000765 0.001214206 0.001161634 6.92369e-4 0.9984335 0.6838312 0.001161634 6.92369e-4 5.39125e-4 0.6833093 0.9984335 0.6838312 0.001161634 6.92369e-4 1.000765 0.001214206 0.9984335 0.6838312 5.39125e-4 0.6833093 0.001161634 6.92369e-4 0.9984335 0.6838312 1.000765 0.001214206 0.001161634 6.92369e-4 0.9984335 0.6838312 0.001161634 6.92369e-4 5.39125e-4 0.6833093 0.9984335 0.6838312 1.000765 0.001214206 0.001161634 6.92369e-4 0.9984335 0.6838312 0.001161634 6.92369e-4 5.39125e-4 0.6833093 0.9984335 0.6838312 1.000765 0.001214206 0.001161634 6.92369e-4 0.9984335 0.6838312 0.001161634 6.92369e-4 5.39125e-4 0.6833093 0.9984335 0.6838312 1.000765 0.001214206 0.001161634 6.92369e-4 0.9984335 0.6838312 0.001161634 6.92369e-4 5.39125e-4 0.6833093 0.9984335 0.6838312 1.000765 0.001214206 0.001161634 6.92369e-4 0.9984335 0.6838312 0.001161634 6.92369e-4 5.39125e-4 0.6833093 0.9984335 0.6838312 1.000765 0.001214206 0.001161634 6.92369e-4 0.9984335 0.6838312 0.001161634 6.92369e-4 5.39125e-4 0.6833093 0.9984335 0.6838312 0.001161634 6.92369e-4 1.000765 0.001214206 0.9984335 0.6838312 5.39125e-4 0.6833093 0.001161634 6.92369e-4 0.9984335 0.6838312 1.000765 0.001214206 0.001161634 6.92369e-4 0.9984335 0.6838312 0.001161634 6.92369e-4 5.39125e-4 0.6833093 0.9984335 0.6838312 1.000765 0.001214206 0.001161634 6.92369e-4 0.9984335 0.6838312 0.001161634 6.92369e-4 5.39125e-4 0.6833093 0.9984335 0.6838312 0.001161634 6.92369e-4 1.000765 0.001214206 0.9984335 0.6838312 5.39125e-4 0.6833093 0.001161634 6.92369e-4 0.9984335 0.6838312 1.000765 0.001214206 0.001161634 6.92369e-4 0.9984335 0.6838312 0.001161634 6.92369e-4 5.39125e-4 0.6833093 0.9984335 0.6838312 1.000765 0.001214206 0.001161634 6.92369e-4 0.9984335 0.6838312 0.001161634 6.92369e-4 5.39125e-4 0.6833093 0.9984335 0.6838312 1.000765 0.001214206 0.001161634 6.92369e-4 0.9984335 0.6838312 0.001161634 6.92369e-4 5.39125e-4 0.6833093 0.9984335 0.6838312 0.001161634 6.92369e-4 1.000765 0.001214206 0.9984335 0.6838312 5.39125e-4 0.6833093 0.001161634 6.92369e-4 0.9984335 0.6838312 1.000765 0.001214206 0.001161634 6.92369e-4 0.9984335 0.6838312 0.001161634 6.92369e-4 5.39125e-4 0.6833093 0.9984335 0.6838312 0.001161634 6.92369e-4 1.000765 0.001214206 0.9984335 0.6838312 5.39125e-4 0.6833093 0.001161634 6.92369e-4 0.9984335 0.6838312 0.001161634 6.92369e-4 1.000765 0.001214206 0.9984335 0.6838312 5.39125e-4 0.6833093 0.001161634 6.92369e-4 0.9984335 0.6838312 1.000765 0.001214206 0.001161634 6.92369e-4 0.9984335 0.6838312 0.001161634 6.92369e-4 5.39125e-4 0.6833093 0.9984335 0.6838312 1.000765 0.001214206 0.001161634 6.92369e-4 0.9984335 0.6838312 0.001161634 6.92369e-4 5.39125e-4 0.6833093 0.9984335 0.6838312 1.000765 0.001214206 0.001161634 6.92369e-4 0.9984335 0.6838312 0.001161634 6.92369e-4 5.39125e-4 0.6833093 0.9984335 0.6838312 0.001161634 6.92369e-4 1.000765 0.001214206 0.9984335 0.6838312 5.39125e-4 0.6833093 0.001161634 6.92369e-4 0.9984335 0.6838312 1.000765 0.001214206 0.001161634 6.92369e-4 0.9984335 0.6838312 0.001161634 6.92369e-4 5.39125e-4 0.6833093 0.9984335 0.6838312 0.001161634 6.92369e-4 1.000765 0.001214206 0.9984335 0.6838312 5.39125e-4 0.6833093 0.001161634 6.92369e-4 0.9984335 0.6838312 1.000765 0.001214206 0.001161634 6.92369e-4 0.9984335 0.6838312 0.001161634 6.92369e-4 5.39125e-4 0.6833093 0.9984335 0.6838312 0.001161634 6.92369e-4 1.000765 0.001214206 0.9984335 0.6838312 5.39125e-4 0.6833093 0.001161634 6.92369e-4 0.9984335 0.6838312 0.001161634 6.92369e-4 1.000765 0.001214206 0.9984335 0.6838312 5.39125e-4 0.6833093 0.001161634 6.92369e-4 0.9984335 0.6838312 1.000765 0.001214206 0.001161634 6.92369e-4 0.9984335 0.6838312 0.001161634 6.92369e-4 5.39125e-4 0.6833093 0.9984335 0.6838312 0.001161634 6.92369e-4 1.000765 0.001214206 0.9984335 0.6838312 5.39125e-4 0.6833093 0.001161634 6.92369e-4 0.9984335 0.6838312 0.001161634 6.92369e-4 1.000765 0.001214206 0.9984335 0.6838312 5.39125e-4 0.6833093 0.001161634 6.92369e-4 0.9984335 0.6838312 1.000765 0.001214206 0.001161634 6.92369e-4 0.9984335 0.6838312 0.001161634 6.92369e-4 5.39125e-4 0.6833093 0.9984335 0.6838312 1.000765 0.001214206 0.001161634 6.92369e-4 0.9984335 0.6838312 0.001161634 6.92369e-4 5.39125e-4 0.6833093 0.9984335 0.6838312 0.001161634 6.92369e-4 1.000765 0.001214206 0.9984335 0.6838312 5.39125e-4 0.6833093 0.001161634 6.92369e-4 0.9984335 0.6838312 0.001161634 6.92369e-4 1.000765 0.001214206 0.9984335 0.6838312 5.39125e-4 0.6833093 0.001161634 6.92369e-4 0.9984335 0.6838312 1.000765 0.001214206 0.001161634 6.92369e-4 0.9984335 0.6838312 0.001161634 6.92369e-4 5.39125e-4 0.6833093 0.9984335 0.6838312 0.001161634 6.92369e-4 1.000765 0.001214206 0.9984335 0.6838312 5.39125e-4 0.6833093 0.001161634 6.92369e-4 0.9984335 0.6838312 0.001161634 6.92369e-4 1.000765 0.001214206 0.9984335 0.6838312 5.39125e-4 0.6833093 0.001161634 6.92369e-4 0.9984335 0.6838312 0.001161634 6.92369e-4 1.000765 0.001214206 0.9984335 0.6838312 5.39125e-4 0.6833093 0.001161634 6.92369e-4 0.9984335 0.6838312 0.001161634 6.92369e-4 1.000765 0.001214206 0.9984335 0.6838312 5.39125e-4 0.6833093 0.001161634 6.92369e-4 0.9984335 0.6838312 0.001161634 6.92369e-4 1.000765 0.001214206 0.9984335 0.6838312 5.39125e-4 0.6833093 0.001161634 6.92369e-4 0.9984335 0.6838312 0.001161634 6.92369e-4 1.000765 0.001214206 0.9984335 0.6838312 5.39125e-4 0.6833093 0.001161634 6.92369e-4 0.9984335 0.6838312 1.000765 0.001214206 0.001161634 6.92369e-4 0.9984335 0.6838312 0.001161634 6.92369e-4 5.39125e-4 0.6833093 0.9984335 0.6838312 0.001161634 6.92369e-4 1.000765 0.001214206 0.9984335 0.6838312 5.39125e-4 0.6833093 0.001161634 6.92369e-4 0.9984335 0.6838312 0.001161634 6.92369e-4 1.000765 0.001214206 0.9984335 0.6838312 5.39125e-4 0.6833093 0.001161634 6.92369e-4 0.9984335 0.6838312 1.000765 0.001214206 0.001161634 6.92369e-4 0.9984335 0.6838312 0.001161634 6.92369e-4 5.39125e-4 0.6833093 0.9984335 0.6838312 0.001161634 6.92369e-4 1.000765 0.001214206 0.9984335 0.6838312 5.39125e-4 0.6833093 0.001161634 6.92369e-4 0.9984335 0.6838312 0.001161634 6.92369e-4 1.000765 0.001214206 0.9984335 0.6838312 5.39125e-4 0.6833093 0.001161634 6.92369e-4 0.9984335 0.6838312 0.001161634 6.92369e-4 1.000765 0.001214206 0.9984335 0.6838312 5.39125e-4 0.6833093 0.001161634 6.92369e-4 0.9984335 0.6838312 1.000765 0.001214206 0.001161634 6.92369e-4 0.9984335 0.6838312 0.001161634 6.92369e-4 5.39125e-4 0.6833093 0.9984335 0.6838312 0.001161634 6.92369e-4 1.000765 0.001214206 0.9984335 0.6838312 5.39125e-4 0.6833093 0.001161634 6.92369e-4 0.9984335 0.6838312 1.000765 0.001214206 0.001161634 6.92369e-4 0.9984335 0.6838312 0.001161634 6.92369e-4 5.39125e-4 0.6833093 1.000765 0.001214206 0.001161634 6.92369e-4 0.001161634 6.92369e-4 0.001161634 6.92369e-4 5.39125e-4 0.6833093 5.39125e-4 0.6833093 0.9984335 0.6838312 1.000765 0.001214206 1.000765 0.001214206 0.001161634 6.92369e-4 1.000765 0.001214206 0.001161634 6.92369e-4 5.39125e-4 0.6833093 0.001161634 6.92369e-4 0.001161634 6.92369e-4 0.9984335 0.6838312 5.39125e-4 0.6833093 0.9984335 0.6838312 0.9984335 0.6838312 1.000765 0.001214206 1.000765 0.001214206 0.001161634 6.92369e-4 1.000765 0.001214206 1.000765 0.001214206 5.39125e-4 0.6833093 0.9984335 0.6838312 0.9984335 0.6838312 0.9984335 0.6838312 1.000765 0.001214206 1.000765 0.001214206 0.001161634 6.92369e-4 5.39125e-4 0.6833093 5.39125e-4 0.6833093 5.39125e-4 0.6833093 0.9984335 0.6838312 0.9984335 0.6838312 1.000765 0.001214206 0.001161634 6.92369e-4 0.001161634 6.92369e-4 0.001161634 6.92369e-4 5.39125e-4 0.6833093 5.39125e-4 0.6833093 1.000765 0.001214206 0.9984335 0.6838312 0.9984335 0.6838312 0.001161634 6.92369e-4 1.000765 0.001214206 0.001161634 6.92369e-4 0.001161634 6.92369e-4 5.39125e-4 0.6833093 5.39125e-4 0.6833093 5.39125e-4 0.6833093 0.9984335 0.6838312 5.39125e-4 0.6833093 1.000765 0.001214206 0.9984335 0.6838312 0.9984335 0.6838312 1.000765 0.001214206 0.001161634 6.92369e-4 0.001161634 6.92369e-4 0.9984335 0.6838312 5.39125e-4 0.6833093 5.39125e-4 0.6833093 1.000765 0.001214206 0.9984335 0.6838312 0.9984335 0.6838312 5.39125e-4 0.6833093 0.001161634 6.92369e-4 0.001161634 6.92369e-4 0.9984335 0.6838312 5.39125e-4 0.6833093 5.39125e-4 0.6833093 0.001161634 6.92369e-4 1.000765 0.001214206 1.000765 0.001214206 5.39125e-4 0.6833093 0.001161634 6.92369e-4 0.001161634 6.92369e-4 0.9984335 0.6838312 1.000765 0.001214206 1.000765 0.001214206 1.000765 0.001214206 0.001161634 6.92369e-4 1.000765 0.001214206 5.39125e-4 0.6833093 0.001161634 6.92369e-4 0.001161634 6.92369e-4 0.9984335 0.6838312 5.39125e-4 0.6833093 0.9984335 0.6838312 0.9984335 0.6838312 1.000765 0.001214206 1.000765 0.001214206 0.001161634 6.92369e-4 1.000765 0.001214206 1.000765 0.001214206 0.9984335 0.6838312 5.39125e-4 0.6833093 0.9984335 0.6838312 0.9984335 0.6838312 1.000765 0.001214206 1.000765 0.001214206 0.001161634 6.92369e-4 5.39125e-4 0.6833093 5.39125e-4 0.6833093 0.9984335 0.6838312 5.39125e-4 0.6833093 0.9984335 0.6838312 1.000765 0.001214206 0.001161634 6.92369e-4 0.001161634 6.92369e-4 0.001161634 6.92369e-4 5.39125e-4 0.6833093 5.39125e-4 0.6833093 0.9984335 0.6838312 1.000765 0.001214206 1.000765 0.001214206 1.000765 0.001214206 0.001161634 6.92369e-4 0.001161634 6.92369e-4 0.001161634 6.92369e-4 5.39125e-4 0.6833093 5.39125e-4 0.6833093 5.39125e-4 0.6833093 0.9984335 0.6838312 0.9984335 0.6838312 0.9984335 0.6838312 1.000765 0.001214206 1.000765 0.001214206 1.000765 0.001214206 0.001161634 6.92369e-4 0.001161634 6.92369e-4 0.9984335 0.6838312 5.39125e-4 0.6833093 0.9984335 0.6838312 0.9984335 0.6838312 1.000765 0.001214206 1.000765 0.001214206 0.001161634 6.92369e-4 5.39125e-4 0.6833093 5.39125e-4 0.6833093 5.39125e-4 0.6833093 0.9984335 0.6838312 0.9984335 0.6838312 0.001161634 6.92369e-4 1.000765 0.001214206 0.001161634 6.92369e-4 0.001161634 6.92369e-4 5.39125e-4 0.6833093 5.39125e-4 0.6833093 0.9984335 0.6838312 1.000765 0.001214206 1.000765 0.001214206 1.000765 0.001214206 0.001161634 6.92369e-4 0.001161634 6.92369e-4 0.001161634 6.92369e-4 5.39125e-4 0.6833093 5.39125e-4 0.6833093 5.39125e-4 0.6833093 0.9984335 0.6838312 0.9984335 0.6838312 0.9984335 0.6838312 1.000765 0.001214206 1.000765 0.001214206 1.000765 0.001214206 0.001161634 6.92369e-4 0.001161634 6.92369e-4 5.39125e-4 0.6833093 0.9984335 0.6838312 0.9984335 0.6838312 1.000765 0.001214206 0.9984335 0.6838312 0.9984335 0.6838312 0.001161634 6.92369e-4 5.39125e-4 0.6833093 5.39125e-4 0.6833093 5.39125e-4 0.6833093 0.9984335 0.6838312 5.39125e-4 0.6833093 0.001161634 6.92369e-4 1.000765 0.001214206 0.001161634 6.92369e-4 0.9984335 0.6838312 1.000765 0.001214206 1.000765 0.001214206 0.001161634 6.92369e-4 5.39125e-4 0.6833093 5.39125e-4 0.6833093 1.000765 0.001214206 0.9984335 0.6838312 0.9984335 0.6838312 0.9984335 0.6838312 5.39125e-4 0.6833093 0.9984335 0.6838312 0.001161634 6.92369e-4 1.000765 0.001214206 0.001161634 6.92369e-4 5.39125e-4 0.6833093 0.001161634 6.92369e-4 0.001161634 6.92369e-4 0.9984335 0.6838312 5.39125e-4 0.6833093 5.39125e-4 0.6833093 0.9984335 0.6838312 1.000765 0.001214206 1.000765 0.001214206 0.001161634 6.92369e-4 1.000765 0.001214206 1.000765 0.001214206 0.001161634 6.92369e-4 5.39125e-4 0.6833093 5.39125e-4 0.6833093 5.39125e-4 0.6833093 0.9984335 0.6838312 0.9984335 0.6838312 0.9984335 0.6838312 1.000765 0.001214206 1.000765 0.001214206 5.39125e-4 0.6833093 0.001161634 6.92369e-4 0.001161634 6.92369e-4 1.000765 0.001214206 0.001161634 6.92369e-4 0.001161634 6.92369e-4 5.39125e-4 0.6833093 0.9984335 0.6838312 0.9984335 0.6838312 1.000765 0.001214206 0.001161634 6.92369e-4 1.000765 0.001214206 1.000765 0.001214206 0.9984335 0.6838312 0.9984335 0.6838312 0.001161634 6.92369e-4 5.39125e-4 0.6833093 5.39125e-4 0.6833093 0.9984335 0.6838312 1.000765 0.001214206 1.000765 0.001214206 0.9984335 0.6838312 5.39125e-4 0.6833093 5.39125e-4 0.6833093 0.001161634 6.92369e-4 1.000765 0.001214206 0.001161634 6.92369e-4 0.001161634 6.92369e-4 5.39125e-4 0.6833093 5.39125e-4 0.6833093 5.39125e-4 0.6833093 0.9984335 0.6838312 0.9984335 0.6838312 0.9984335 0.6838312 1.000765 0.001214206 1.000765 0.001214206 0.001161634 6.92369e-4 1.000765 0.001214206 0.001161634 6.92369e-4 5.39125e-4 0.6833093 0.001161634 6.92369e-4 0.001161634 6.92369e-4 5.39125e-4 0.6833093 0.9984335 0.6838312 0.9984335 0.6838312 0.9984335 0.6838312 1.000765 0.001214206 1.000765 0.001214206 0.001161634 6.92369e-4 5.39125e-4 0.6833093 5.39125e-4 0.6833093 0.001161634 6.92369e-4 1.000765 0.001214206 1.000765 0.001214206 0.9984335 0.6838312 5.39125e-4 0.6833093 0.9984335 0.6838312 0.001161634 6.92369e-4 1.000765 0.001214206 0.001161634 6.92369e-4 1.000765 0.001214206 0.9984335 0.6838312 0.9984335 0.6838312 0.001161634 6.92369e-4 5.39125e-4 0.6833093 5.39125e-4 0.6833093 1.000765 0.001214206 0.9984335 0.6838312 0.9984335 0.6838312 0.9984335 0.6838312 5.39125e-4 0.6833093 5.39125e-4 0.6833093 0.001161634 6.92369e-4 1.000765 0.001214206 0.001161634 6.92369e-4 0.001161634 6.92369e-4 5.39125e-4 0.6833093 5.39125e-4 0.6833093 0.9984335 0.6838312 5.39125e-4 0.6833093 5.39125e-4 0.6833093 0.9984335 0.6838312 1.000765 0.001214206 1.000765 0.001214206 1.000765 0.001214206 0.001161634 6.92369e-4 0.001161634 6.92369e-4 5.39125e-4 0.6833093 0.001161634 6.92369e-4 0.001161634 6.92369e-4 5.39125e-4 0.6833093 0.9984335 0.6838312 0.9984335 0.6838312 1.000765 0.001214206 0.9984335 0.6838312 0.9984335 0.6838312 5.39125e-4 0.6833093 0.001161634 6.92369e-4 0.001161634 6.92369e-4 1.000765 0.001214206 0.001161634 6.92369e-4 1.000765 0.001214206 0.9984335 0.6838312 5.39125e-4 0.6833093 5.39125e-4 0.6833093 1.000765 0.001214206 0.001161634 6.92369e-4 1.000765 0.001214206 1.000765 0.001214206 0.9984335 0.6838312 0.9984335 0.6838312 0.001161634 6.92369e-4 5.39125e-4 0.6833093 5.39125e-4 0.6833093 0.9984335 0.6838312 5.39125e-4 0.6833093 5.39125e-4 0.6833093 0.001161634 6.92369e-4 1.000765 0.001214206 0.001161634 6.92369e-4 5.39125e-4 0.6833093 0.001161634 6.92369e-4 0.001161634 6.92369e-4 1.000765 0.001214206 0.9984335 0.6838312 0.9984335 0.6838312 1.000765 0.001214206 0.001161634 6.92369e-4 1.000765 0.001214206 5.39125e-4 0.6833093 0.001161634 6.92369e-4 0.001161634 6.92369e-4 0.9984335 0.6838312 5.39125e-4 0.6833093 5.39125e-4 0.6833093 1.000765 0.001214206 0.9984335 0.6838312 0.9984335 0.6838312 1.000765 0.001214206 0.001161634 6.92369e-4 1.000765 0.001214206 0.9984335 0.6838312 5.39125e-4 0.6833093 5.39125e-4 0.6833093 0.9984335 0.6838312 1.000765 0.001214206 1.000765 0.001214206 5.39125e-4 0.6833093 0.001161634 6.92369e-4 0.001161634 6.92369e-4 5.39125e-4 0.6833093 0.9984335 0.6838312 0.9984335 0.6838312 0.001161634 6.92369e-4 1.000765 0.001214206 1.000765 0.001214206 5.39125e-4 0.6833093 0.001161634 6.92369e-4 0.001161634 6.92369e-4 0.9984335 0.6838312 1.000765 0.001214206 1.000765 0.001214206 1.000765 0.001214206 0.001161634 6.92369e-4 1.000765 0.001214206 0.001161634 6.92369e-4 5.39125e-4 0.6833093 5.39125e-4 0.6833093 0.9984335 0.6838312 5.39125e-4 0.6833093 0.9984335 0.6838312 0.9984335 0.6838312 1.000765 0.001214206 1.000765 0.001214206 0.001161634 6.92369e-4 1.000765 0.001214206 0.001161634 6.92369e-4 5.39125e-4 0.6833093 0.9984335 0.6838312 0.9984335 0.6838312 1.000765 0.001214206 0.9984335 0.6838312 0.9984335 0.6838312 0.001161634 6.92369e-4 5.39125e-4 0.6833093 5.39125e-4 0.6833093 5.39125e-4 0.6833093 0.9984335 0.6838312 5.39125e-4 0.6833093 1.000765 0.001214206 1.000765 0.001214206 0.001161634 6.92369e-4 0.001161634 6.92369e-4 0.001161634 6.92369e-4 5.39125e-4 0.6833093 0.9984335 0.6838312 0.9984335 0.6838312 1.000765 0.001214206 0.001161634 6.92369e-4 1.000765 0.001214206 1.000765 0.001214206 5.39125e-4 0.6833093 5.39125e-4 0.6833093 0.001161634 6.92369e-4 0.9984335 0.6838312 5.39125e-4 0.6833093 5.39125e-4 0.6833093 0.9984335 0.6838312 0.9984335 0.6838312 1.000765 0.001214206 0.001161634 6.92369e-4 0.001161634 6.92369e-4 1.000765 0.001214206 5.39125e-4 0.6833093 5.39125e-4 0.6833093 0.9984335 0.6838312 0.9984335 0.6838312 0.9984335 0.6838312 1.000765 0.001214206 0.001161634 6.92369e-4 0.001161634 6.92369e-4 5.39125e-4 0.6833093 5.39125e-4 0.6833093 5.39125e-4 0.6833093 0.9984335 0.6838312 1.000765 0.001214206 1.000765 0.001214206 0.001161634 6.92369e-4 0.001161634 6.92369e-4 0.001161634 6.92369e-4 5.39125e-4 0.6833093 1.000765 0.001214206 1.000765 0.001214206 0.9984335 0.6838312 0.001161634 6.92369e-4 1.000765 0.001214206 1.000765 0.001214206 0.001161634 6.92369e-4 0.001161634 6.92369e-4 5.39125e-4 0.6833093 5.39125e-4 0.6833093 0.9984335 0.6838312 0.9984335 0.6838312 1.000765 0.001214206 1.000765 0.001214206 0.9984335 0.6838312 1.000765 0.001214206 1.000765 0.001214206 0.001161634 6.92369e-4 0.9984335 0.6838312 0.9984335 0.6838312 5.39125e-4 0.6833093 1.000765 0.001214206 1.000765 0.001214206 0.9984335 0.6838312 5.39125e-4 0.6833093 5.39125e-4 0.6833093 0.001161634 6.92369e-4 0.9984335 0.6838312 0.9984335 0.6838312 5.39125e-4 0.6833093 0.001161634 6.92369e-4 0.001161634 6.92369e-4 1.000765 0.001214206 5.39125e-4 0.6833093 5.39125e-4 0.6833093 0.001161634 6.92369e-4 0.9984335 0.6838312 0.9984335 0.6838312 1.000765 0.001214206 1.000765 0.001214206 0.001161634 6.92369e-4 0.001161634 6.92369e-4 5.39125e-4 0.6833093 5.39125e-4 0.6833093 0.001161634 6.92369e-4 0.9984335 0.6838312 5.39125e-4 0.6833093 5.39125e-4 0.6833093 0.9984335 0.6838312 0.9984335 0.6838312 1.000765 0.001214206 0.001161634 6.92369e-4 0.001161634 6.92369e-4 1.000765 0.001214206 0.9984335 0.6838312 5.39125e-4 0.6833093 5.39125e-4 0.6833093 0.9984335 0.6838312 0.9984335 0.6838312 1.000765 0.001214206 0.001161634 6.92369e-4 0.001161634 6.92369e-4 5.39125e-4 0.6833093 0.9984335 0.6838312 5.39125e-4 0.6833093 5.39125e-4 0.6833093 1.000765 0.001214206 1.000765 0.001214206 0.001161634 6.92369e-4 0.001161634 6.92369e-4 0.001161634 6.92369e-4 5.39125e-4 0.6833093 0.9984335 0.6838312 0.9984335 0.6838312 1.000765 0.001214206 1.000765 0.001214206 1.000765 0.001214206 0.001161634 6.92369e-4 0.001161634 6.92369e-4 0.001161634 6.92369e-4 5.39125e-4 0.6833093 5.39125e-4 0.6833093 5.39125e-4 0.6833093 0.9984335 0.6838312 0.9984335 0.6838312 0.9984335 0.6838312 1.000765 0.001214206 1.000765 0.001214206 1.000765 0.001214206 0.001161634 6.92369e-4 0.9984335 0.6838312 5.39125e-4 0.6833093 5.39125e-4 0.6833093 0.9984335 0.6838312 0.9984335 0.6838312 1.000765 0.001214206 0.001161634 6.92369e-4 0.001161634 6.92369e-4 5.39125e-4 0.6833093 5.39125e-4 0.6833093 5.39125e-4 0.6833093 0.9984335 0.6838312 0.001161634 6.92369e-4 1.000765 0.001214206 1.000765 0.001214206 0.001161634 6.92369e-4 0.001161634 6.92369e-4 5.39125e-4 0.6833093 0.9984335 0.6838312 0.9984335 0.6838312 1.000765 0.001214206 1.000765 0.001214206 1.000765 0.001214206 0.001161634 6.92369e-4 0.001161634 6.92369e-4 0.001161634 6.92369e-4 5.39125e-4 0.6833093 5.39125e-4 0.6833093 5.39125e-4 0.6833093 0.9984335 0.6838312 0.9984335 0.6838312 0.9984335 0.6838312 1.000765 0.001214206 1.000765 0.001214206 1.000765 0.001214206 0.001161634 6.92369e-4 5.39125e-4 0.6833093 5.39125e-4 0.6833093 0.9984335 0.6838312 1.000765 0.001214206 1.000765 0.001214206 0.9984335 0.6838312 0.001161634 6.92369e-4 0.001161634 6.92369e-4 5.39125e-4 0.6833093 5.39125e-4 0.6833093 0.9984335 0.6838312 0.9984335 0.6838312 0.001161634 6.92369e-4 1.000765 0.001214206 1.000765 0.001214206 0.9984335 0.6838312 0.9984335 0.6838312 1.000765 0.001214206 0.001161634 6.92369e-4 0.001161634 6.92369e-4 5.39125e-4 0.6833093 1.000765 0.001214206 1.000765 0.001214206 0.9984335 0.6838312 0.9984335 0.6838312 5.39125e-4 0.6833093 5.39125e-4 0.6833093 0.001161634 6.92369e-4 1.000765 0.001214206 1.000765 0.001214206 5.39125e-4 0.6833093 5.39125e-4 0.6833093 0.001161634 6.92369e-4 0.9984335 0.6838312 0.9984335 0.6838312 5.39125e-4 0.6833093 0.9984335 0.6838312 0.9984335 0.6838312 1.000765 0.001214206 0.001161634 6.92369e-4 0.001161634 6.92369e-4 1.000765 0.001214206 0.001161634 6.92369e-4 0.001161634 6.92369e-4 5.39125e-4 0.6833093 5.39125e-4 0.6833093 5.39125e-4 0.6833093 0.9984335 0.6838312 0.9984335 0.6838312 0.9984335 0.6838312 1.000765 0.001214206 5.39125e-4 0.6833093 5.39125e-4 0.6833093 0.001161634 6.92369e-4 1.000765 0.001214206 1.000765 0.001214206 0.001161634 6.92369e-4 5.39125e-4 0.6833093 5.39125e-4 0.6833093 0.9984335 0.6838312 1.000765 0.001214206 0.001161634 6.92369e-4 0.001161634 6.92369e-4 1.000765 0.001214206 1.000765 0.001214206 0.9984335 0.6838312 0.001161634 6.92369e-4 0.001161634 6.92369e-4 5.39125e-4 0.6833093 0.9984335 0.6838312 0.9984335 0.6838312 1.000765 0.001214206 0.9984335 0.6838312 0.9984335 0.6838312 5.39125e-4 0.6833093 0.001161634 6.92369e-4 1.000765 0.001214206 1.000765 0.001214206 0.001161634 6.92369e-4 0.001161634 6.92369e-4 5.39125e-4 0.6833093 5.39125e-4 0.6833093 5.39125e-4 0.6833093 0.9984335 0.6838312 0.9984335 0.6838312 0.9984335 0.6838312 1.000765 0.001214206 0.001161634 6.92369e-4 1.000765 0.001214206 1.000765 0.001214206 5.39125e-4 0.6833093 5.39125e-4 0.6833093 0.001161634 6.92369e-4 5.39125e-4 0.6833093 5.39125e-4 0.6833093 0.9984335 0.6838312 0.9984335 0.6838312 0.9984335 0.6838312 1.000765 0.001214206 0.001161634 6.92369e-4 0.001161634 6.92369e-4 5.39125e-4 0.6833093 0.001161634 6.92369e-4 0.001161634 6.92369e-4 1.000765 0.001214206 0.9984335 0.6838312 5.39125e-4 0.6833093 5.39125e-4 0.6833093 0.001161634 6.92369e-4 1.000765 0.001214206 1.000765 0.001214206 1.000765 0.001214206 1.000765 0.001214206 0.9984335 0.6838312 0.001161634 6.92369e-4 0.001161634 6.92369e-4 5.39125e-4 0.6833093 1.000765 0.001214206 1.000765 0.001214206 0.9984335 0.6838312 0.9984335 0.6838312 0.9984335 0.6838312 5.39125e-4 0.6833093 0.001161634 6.92369e-4 1.000765 0.001214206 1.000765 0.001214206 0.001161634 6.92369e-4 0.001161634 6.92369e-4 5.39125e-4 0.6833093 0.9984335 0.6838312 0.9984335 0.6838312 5.39125e-4 0.6833093 0.9984335 0.6838312 0.9984335 0.6838312 1.000765 0.001214206 1.000765 0.001214206 1.000765 0.001214206 0.001161634 6.92369e-4 5.39125e-4 0.6833093 5.39125e-4 0.6833093 0.001161634 6.92369e-4 5.39125e-4 0.6833093 5.39125e-4 0.6833093 0.9984335 0.6838312 1.000765 0.001214206 1.000765 0.001214206 0.9984335 0.6838312 5.39125e-4 0.6833093 5.39125e-4 0.6833093 0.001161634 6.92369e-4 1.000765 0.001214206 0.001161634 6.92369e-4 0.001161634 6.92369e-4 0.9984335 0.6838312 0.9984335 0.6838312 5.39125e-4 0.6833093 1.000765 0.001214206 0.001161634 6.92369e-4 0.001161634 6.92369e-4 1.000765 0.001214206 1.000765 0.001214206 0.9984335 0.6838312 0.001161634 6.92369e-4 0.001161634 6.92369e-4 5.39125e-4 0.6833093 0.9984335 0.6838312 0.9984335 0.6838312 5.39125e-4 0.6833093 0.001161634 6.92369e-4 1.000765 0.001214206 1.000765 0.001214206 5.39125e-4 0.6833093 5.39125e-4 0.6833093 0.001161634 6.92369e-4 1.000765 0.001214206 1.000765 0.001214206 0.9984335 0.6838312 1.000765 0.001214206 0.001161634 6.92369e-4 0.001161634 6.92369e-4 5.39125e-4 0.6833093 5.39125e-4 0.6833093 0.001161634 6.92369e-4 0.9984335 0.6838312 0.9984335 0.6838312 5.39125e-4 0.6833093 1.000765 0.001214206 1.000765 0.001214206 0.9984335 0.6838312 1.000765 0.001214206 0.001161634 6.92369e-4 0.001161634 6.92369e-4 0.9984335 0.6838312 0.9984335 0.6838312 5.39125e-4 0.6833093 0.9984335 0.6838312 0.9984335 0.6838312 1.000765 0.001214206 5.39125e-4 0.6833093 5.39125e-4 0.6833093 0.001161634 6.92369e-4 5.39125e-4 0.6833093 5.39125e-4 0.6833093 0.9984335 0.6838312 0.001161634 6.92369e-4 0.001161634 6.92369e-4 1.000765 0.001214206 5.39125e-4 0.6833093 5.39125e-4 0.6833093 0.001161634 6.92369e-4 0.9984335 0.6838312 0.9984335 0.6838312 1.000765 0.001214206 1.000765 0.001214206 0.001161634 6.92369e-4 0.001161634 6.92369e-4 0.001161634 6.92369e-4 0.001161634 6.92369e-4 5.39125e-4 0.6833093 0.9984335 0.6838312 5.39125e-4 0.6833093 5.39125e-4 0.6833093 0.9984335 0.6838312 0.9984335 0.6838312 1.000765 0.001214206 0.001161634 6.92369e-4 1.000765 0.001214206 1.000765 0.001214206 5.39125e-4 0.6833093 5.39125e-4 0.6833093 0.9984335 0.6838312 1.000765 0.001214206 1.000765 0.001214206 0.9984335 0.6838312 0.001161634 6.92369e-4 0.001161634 6.92369e-4 5.39125e-4 0.6833093 5.39125e-4 0.6833093 0.9984335 0.6838312 0.9984335 0.6838312</float_array>
          <technique_common>
            <accessor source="#Cube_122-mesh-map-0-array" count="1224" stride="2">
              <param name="S" type="float"/>
              <param name="T" type="float"/>
            </accessor>
          </technique_common>
        </source>
        <source id="Cube_122-mesh-map-1">
          <float_array id="Cube_122-mesh-map-1-array" count="2448">0.5307734 0 0.6350956 0 0.6350955 0.1253756 0.5307734 0 0.6350955 0.1253756 0.5307734 0.1253756 0.7430825 0.760424 0.8474046 0.6401094 0.8474046 0.760424 0.7430825 0.760424 0.7430825 0.6401094 0.8474046 0.6401094 0.8492366 0.3777129 0.9535588 0.2596468 0.9535588 0.3777129 0.8492366 0.3777129 0.8492366 0.2596468 0.9535588 0.2596468 0.1061547 0.6442444 0.2104769 0.5195338 0.2104769 0.6442444 0.1061547 0.6442444 0.1061547 0.5195338 0.2104769 0.5195338 0.2039806 0.8714947 0.2039806 0.9704186 0.1150514 0.9704186 0.2039806 0.8714947 0.1150514 0.9704186 0.1150514 0.8714947 0.7430824 1 0.8474046 0.884213 0.8474046 1 0.7430824 1 0.7430824 0.884213 0.8474046 0.884213 0 0.1310009 0.1043223 0.1310009 0.1043223 0.2602596 0 0.1310009 0.1043223 0.2602596 0 0.2602596 0.7430823 0.6383719 0.8474045 0.5163804 0.8474045 0.638372 0.7430823 0.6383719 0.7430824 0.5163804 0.8474045 0.5163804 0.4162898 0.8688626 0.4162898 0.9677866 0.3273605 0.9677866 0.4162898 0.8688626 0.3273605 0.9677866 0.3273605 0.8688626 0.8492369 0.6341208 0.9535593 0.6341208 0.9535593 0.7499087 0.8492369 0.6341208 0.9535593 0.7499087 0.8492369 0.7499087 0 0.7693197 0.1043223 0.6462844 0.1043223 0.7693197 0 0.7693197 0 0.6462844 0.1043223 0.6462844 0.7430819 0.1310009 0.8474042 0.1310009 0.8474042 0.2535089 0.7430819 0.1310009 0.8474042 0.2535089 0.7430819 0.2535089 0.2123095 0 0.3166317 0 0.3166317 0.1292049 0.2123095 0 0.3166317 0.1292049 0.2123094 0.1292049 0.5307729 0.2563439 0.6350951 0.131001 0.6350951 0.2563439 0.5307729 0.2563439 0.5307729 0.131001 0.6350951 0.131001 0.6369274 0.3824296 0.7412496 0.2580814 0.7412496 0.3824296 0.6369274 0.3824296 0.6369274 0.2580814 0.7412496 0.2580814 0.6369274 0.1310009 0.7412496 0.1310009 0.7412496 0.2556449 0.6369274 0.1310009 0.7412496 0.2556449 0.6369274 0.2556448 0.4143236 0.3925278 0.4143236 0.4914516 0.3184639 0.4914516 0.4143236 0.3925278 0.3184639 0.4914516 0.3184639 0.3925278 0.8492369 0.5098626 0.9535591 0.3938587 0.9535591 0.5098626 0.8492369 0.5098626 0.8492369 0.3938587 0.9535591 0.3938587 0.530773 0.6432371 0.6350952 0.6432371 0.6350952 0.7664486 0.530773 0.6432371 0.6350952 0.7664486 0.530773 0.7664486 0.5307729 0.2580813 0.6350951 0.2580813 0.6350951 0.3832615 0.5307729 0.2580813 0.6350951 0.3832615 0.5307729 0.3832615 0.1061548 0 0.2104772 0 0.2104772 0.1292634 0.1061548 0 0.2104772 0.1292634 0.1061547 0.1292634 0.530773 0.5163805 0.6350954 0.5163805 0.6350954 0.6414996 0.530773 0.5163805 0.6350954 0.6414996 0.5307729 0.6414996 0.4246182 0.261254 0.5289406 0.261254 0.5289406 0.3872294 0.4246182 0.261254 0.5289406 0.3872294 0.4246181 0.3872294 0.4142314 0.4931891 0.4142314 0.5921132 0.3184639 0.5921132 0.4142314 0.4931891 0.3184639 0.5921132 0.3184639 0.4931891 0.8492369 0.1199408 0.9535593 0 0.9535593 0.1199408 0.8492369 0.1199408 0.8492369 0 0.9535593 0 0.6369276 0.7681391 0.74125 0.7681391 0.74125 0.8884047 0.6369276 0.7681391 0.74125 0.8884047 0.6369276 0.8884047 0.3184639 0 0.4227864 0 0.4227864 0.1286448 0.3184639 0 0.4227864 0.1286448 0.3184639 0.1286448 0.2123093 0.8911084 0.3166317 0.7711497 0.3166317 0.8911084 0.2123093 0.8911084 0.2123093 0.7711496 0.3166317 0.7711497 0.4246187 0 0.5289412 0 0.5289412 0.1283519 0.4246187 0 0.5289412 0.1283519 0.4246187 0.1283519 0.2123092 0.5198268 0.3166316 0.5198268 0.3166316 0.64464 0.2123092 0.5198268 0.3166316 0.64464 0.2123092 0.64464 0.2123091 0.2619433 0.3166316 0.2619433 0.3166316 0.3907903 0.2123091 0.2619433 0.3166316 0.3907903 0.2123091 0.3907902 0.2123093 0.5180893 0.3166317 0.3925278 0.3166317 0.5180893 0.2123093 0.5180893 0.2123093 0.3925277 0.3166317 0.3925278 0.1061547 0.3923019 0.2104769 0.3923019 0.2104769 0.5177962 0.1061547 0.3923019 0.2104769 0.5177962 0.1061547 0.5177962 0.530773 0.8883635 0.6350952 0.7681862 0.6350952 0.8883635 0.530773 0.8883635 0.530773 0.7681862 0.6350952 0.7681862 0.3184637 0.2595165 0.4227859 0.131001 0.4227858 0.2595165 0.3184637 0.2595165 0.3184638 0.131001 0.4227859 0.131001 0.7430823 0.7621616 0.8474044 0.7621616 0.8474044 0.8824755 0.7430823 0.7621616 0.8474044 0.8824755 0.7430823 0.8824755 0.6369276 0.3904539 0.7412498 0.3904539 0.7412498 0.514643 0.6369276 0.3904539 0.7412498 0.514643 0.6369276 0.514643 0 0.5198358 0.1043223 0.5198358 0.1043223 0.644547 0 0.5198358 0.1043223 0.644547 0 0.6445469 0.1150515 0.7708333 0.2104769 0.8697572 0.1150515 0.8697572 0.1150515 0.7708333 0.2104769 0.7708333 0.2104769 0.8697572 0.8492368 0.7516461 0.953559 0.7516461 0.953559 0.867434 0.8492368 0.7516461 0.953559 0.867434 0.8492368 0.867434 0.1061547 0.2602595 0.2104769 0.131001 0.2104769 0.2602595 0.1061547 0.2602595 0.1061547 0.1310009 0.2104769 0.131001 0.530773 0.3897162 0.6350952 0.3897162 0.6350952 0.514643 0.530773 0.3897162 0.6350952 0.514643 0.530773 0.514643 0.3273606 0.7682009 0.4227859 0.8671249 0.3273606 0.8671249 0.3273606 0.7682009 0.4227859 0.7682009 0.4227859 0.8671249 0.8492367 0.9849585 0.9535592 0.8691716 0.9535592 0.9849585 0.8492367 0.9849585 0.8492367 0.8691716 0.9535592 0.8691716 0.2123093 0.6463775 0.3166315 0.6463775 0.3166315 0.7694122 0.2123093 0.6463775 0.3166315 0.7694122 0.2123093 0.7694122 0.4246182 0.6415154 0.5289404 0.5163805 0.5289404 0.6415154 0.4246182 0.6415154 0.4246182 0.5163805 0.5289404 0.5163805 0.2123093 0.2602059 0.3166315 0.131001 0.3166315 0.2602059 0.2123093 0.2602059 0.2123093 0.131001 0.3166315 0.131001 0.1061547 0.6459818 0.2104769 0.6459819 0.2104769 0.7690958 0.1061547 0.6459818 0.2104769 0.7690958 0.1061547 0.7690958 0.3184638 0.6481631 0.4227859 0.6481631 0.4227859 0.7664633 0.3184638 0.6481631 0.4227859 0.7664633 0.3184637 0.7664633 0.6369279 0.1246443 0.7412501 0 0.7412501 0.1246443 0.6369279 0.1246443 0.6369279 0 0.7412501 0 0.530773 0.890101 0.6192393 0.9890248 0.530773 0.9890248 0.530773 0.890101 0.6192393 0.890101 0.6192393 0.9890248 0.8492369 0.5163804 0.9535591 0.5163804 0.9535591 0.6323834 0.8492369 0.5163804 0.9535591 0.6323834 0.8492369 0.6323834 0.4246183 0.7664635 0.5289404 0.643253 0.5289404 0.7664635 0.4246183 0.7664635 0.4246183 0.643253 0.5289404 0.643253 0.7430824 0.1226296 0.8474045 0 0.8474045 0.1226296 0.7430824 0.1226296 0.7430824 0 0.8474045 0 0 0.1292635 0.1043224 0 0.1043224 0.1292635 0 0.1292635 0 0 0.1043224 0 0.7430819 0.3777129 0.8474044 0.2552464 0.8474044 0.3777129 0.7430819 0.3777129 0.7430819 0.2552464 0.8474044 0.2552464 0.7430822 0.514643 0.8474046 0.3938588 0.8474046 0.514643 0.7430822 0.514643 0.7430822 0.3938587 0.8474046 0.3938588 0.3184639 0.2918662 0.4142331 0.3907903 0.3184639 0.3907903 0.3184639 0.2918662 0.4142331 0.2918662 0.4142331 0.3907903 0.8492365 0.131001 0.9535589 0.131001 0.9535589 0.2509407 0.8492365 0.131001 0.9535589 0.2509407 0.8492365 0.2509407 0.6369277 0.7664017 0.7412502 0.6423102 0.7412502 0.7664017 0.6369277 0.7664017 0.6369277 0.6423102 0.7412502 0.6423102 0.4246183 0.514643 0.5289407 0.3889669 0.5289407 0.514643 0.4246183 0.514643 0.4246183 0.3889669 0.5289407 0.3889669 1.19353e-7 0.7710572 0.1043225 0.7710572 0.1043225 0.8910164 1.19353e-7 0.7710572 0.1043225 0.8910164 0 0.8910164 0.4246181 0.2593528 0.5289406 0.131001 0.5289405 0.2593528 0.4246181 0.2593528 0.4246181 0.131001 0.5289406 0.131001 0 0.5180983 0.1043224 0.3925814 0.1043224 0.5180983 0 0.5180983 0 0.3925814 0.1043224 0.3925814 0 0.3908439 0.1043225 0.2619971 0.1043225 0.3908439 0 0.3908439 0 0.2619971 0.1043225 0.2619971 0.6369277 0.5163804 0.7412502 0.5163804 0.7412502 0.6405727 0.6369277 0.5163804 0.7412502 0.6405727 0.6369277 0.6405727 0.1061547 0.3905645 0.2104769 0.261997 0.2104769 0.3905645 0.1061547 0.3905645 0.1061547 0.261997 0.2104769 0.261997 0.4246182 0.7682009 0.5289404 0.7682009 0.5289404 0.8883776 0.4246182 0.7682009 0.5289404 0.8883776 0.4246182 0.8883776 0.9746817 0.2620065 0.975605 0.3875744 0.9746816 0.3875745 0.9838716 0.3342862 0.982949 0.2353622 0.9838716 0.2353622 0.9801928 0.2620064 0.9811162 0.3609305 0.9801928 0.3609305 0.9691701 0.8735162 0.9700933 0.7479484 0.9700933 0.8735162 0.9965878 0.7386693 0.9974058 0.8375932 0.9965878 0.8375932 0.3190933 0.8974668 0.3200168 0.7682009 0.3200168 0.8974667 0.999243 0.4366852 0.9999827 0.5356091 0.999243 0.5356091 0.9783607 0.3875745 0.9774374 0.2620064 0.9783607 0.2620065 0.4227859 0.5215232 0.4218624 0.3922573 0.4227859 0.3922575 0.982949 0.7386693 0.98387 0.8375932 0.982949 0.8375932 0.9811162 0.4615921 0.9801929 0.362668 0.9811162 0.362668 0.4191067 0.2612541 0.4200301 0.3905198 0.4191066 0.3905199 0.1132192 0.9000993 0.1122957 0.7708333 0.1132192 0.7708334 0.6199419 0.9890248 0.6192393 0.890101 0.6199419 0.890101 0.9893473 0.9382549 0.9884452 0.8393307 0.9893473 0.8393307 0.4191066 0.5215232 0.4200301 0.3922574 0.4200301 0.5215232 0.986605 0.9382548 0.9857023 0.8393309 0.986605 0.8393309 0.9728497 0.1347009 0.9719262 0.2602688 0.9719265 0.134701 0.9974069 0.4349476 0.9965867 0.3360236 0.9974069 0.3360236 0.4227859 0.3905199 0.4218624 0.261254 0.4227859 0.2612541 0.9673376 0.5194267 0.966414 0.3938588 0.9673374 0.3938589 0.9947761 0.7369317 0.9939007 0.6380078 0.9947761 0.6380078 0.985704 0 0.9866244 0.0989241 0.985704 0.0989241 0.9691699 0.3938587 0.9700934 0.5194267 0.9691699 0.5194266 0.9719259 0.2620064 0.9728493 0.3875743 0.9719257 0.3875744 0.9991973 0.8393309 0.9999512 0.9382548 0.9991973 0.9382548 0.9939268 0 0.9947966 0.0989241 0.9939268 0.0989241 0.9664139 0.7462108 0.9673374 0.620643 0.9673374 0.7462108 0.9939109 0.4366852 0.9947863 0.5356091 0.9939109 0.5356091 0.9590705 0.3938588 0.9581471 0.5231246 0.9581471 0.3938588 0.9966289 0 0.9974255 0.09892392 0.9966289 0.09892392 0.9700933 0.7462108 0.9691698 0.620643 0.9700933 0.620643 0.1104634 0.7708333 0.1095399 0.900099 0.1095401 0.7708333 0.4162898 0.8688626 0.4169896 0.9677866 0.4162898 0.9677866 0.9893561 0.7369318 0.9884519 0.6380077 0.9893561 0.6380077 0.9581474 0.880912 0.9590707 0.7516463 0.9590707 0.880912 0.9581472 0.620643 0.9590706 0.7499089 0.9581474 0.7499087 0.9947555 0.8375932 0.993902 0.7386693 0.9947555 0.7386693 0.9884569 0.2013229 0.9893629 0.300247 0.9884569 0.300247 0.1067843 0.7708333 0.1077077 0.900099 0.1067842 0.9000992 0.9999777 0.7369318 0.9992355 0.6380077 0.9999777 0.6380077 0.9746816 0 0.975605 0.1255679 0.9746815 0.125568 0.4163508 0.5232607 0.4172743 0.6221846 0.4163508 0.6221846 0.9618264 0.1292658 0.9609031 0 0.9618264 0 0.966414 0.8735162 0.9673374 0.7479483 0.9673376 0.873516 0.9992472 0.1006616 0.9999986 0.1995857 0.9992472 0.1995857 0.9893596 0.4349478 0.9884536 0.3360237 0.9893596 0.3360237 0.9811164 0.1255679 0.9801931 0 0.9811164 0 0.972849 0.7479483 0.9719256 0.8735161 0.9719257 0.7479483 0.9811162 0.5622534 0.980193 0.4633295 0.9811162 0.4633295 0.9911795 0.8393307 0.9920609 0.9382549 0.9911795 0.9382549 0.9700936 0.1255679 0.9691703 0 0.9700936 0 0.9974233 0.3002472 0.9966052 0.2013231 0.9974233 0.2013231 0.4172743 0.3905196 0.4163508 0.261254 0.4172743 0.261254 0.9857043 0.1347009 0.9866237 0.233625 0.9857043 0.233625 0.9801933 0.134701 0.9811167 0.2602689 0.9801933 0.2602689 0.9636588 0.2620067 0.9645819 0.3912724 0.9636587 0.3912723 0.9947729 0.300247 0.9939212 0.2013231 0.9947729 0.2013231 0.9866129 0.8375934 0.9857023 0.7386693 0.9866129 0.7386693 0.9563151 2.99474e-7 0.9553917 0.129266 0.9553917 0 0.4163508 0.5215231 0.4172743 0.3922574 0.417274 0.5215232 0.9801928 0.6646524 0.9811161 0.7635762 0.9801928 0.7635762 0.9920945 0.0989241 0.9911954 0 0.9920945 0 0.992094 0.1995857 0.9911954 0.1006616 0.992094 0.1006616 0.9563151 0.2620071 0.9553918 0.3912729 0.9553917 0.2620069 0.9645817 0.3938589 0.9636585 0.5231246 0.9636586 0.3938587 0.9966085 0.6380078 0.9974033 0.7369317 0.9966085 0.7369317 0.9728491 0.5194267 0.9719256 0.3938589 0.9728491 0.3938589 0.9911883 0.6380078 0.9920685 0.736932 0.9911883 0.736932 0.9553915 0.1310037 0.956315 0.2602695 0.9553917 0.2602694 0.9838718 0.09892386 0.9829488 0 0.9838718 0 0.970094 0.2602689 0.9691704 0.134701 0.9700939 0.134701 0.4218624 0.5232607 0.4227858 0.6221846 0.4218624 0.6221846 0.9911919 0.3360237 0.9920904 0.4349478 0.9911919 0.4349478 0.9553914 0.3938589 0.9563146 0.5231246 0.9553914 0.5231245 0.9756046 0.5194268 0.9746812 0.3938588 0.9756046 0.3938588 0.9719257 0.7462108 0.9728491 0.620643 0.9728492 0.7462108 0.9838703 0.4349475 0.982949 0.3360236 0.9838703 0.3360236 0.9947733 0.9382549 0.9938932 0.8393307 0.9947733 0.8393307 0.9801928 0.563991 0.9811161 0.6629148 0.9801928 0.6629148 0.9774374 0 0.9783608 0.1255678 0.9774374 0.1255679 0.96917 0.3875745 0.9700936 0.2620065 0.9700936 0.3875744 0.4200301 0.6221846 0.4191067 0.5232607 0.4200301 0.5232607 0.9618262 0.5231245 0.9609028 0.3938588 0.9618262 0.3938588 0.9939225 0.3360237 0.9947543 0.4349478 0.9939225 0.4349478 0.9746811 0.7462108 0.9756044 0.6206428 0.9756045 0.7462108 0.9857172 0.4366851 0.9866213 0.5356089 0.9857172 0.5356089 0.9590709 0.1292657 0.9581474 0 0.9590708 0 0.9911951 0.2013229 0.9920889 0.3002468 0.9911951 0.3002468 0.9838718 0.2336248 0.9829488 0.134701 0.9838718 0.134701 0.978361 0.2602689 0.9774376 0.134701 0.978361 0.134701 0.9618264 0.1310033 0.9609031 0.260269 0.9609031 0.1310033 0.9581475 0.3912726 0.9590709 0.2620068 0.9590706 0.3912728 0.9893584 0.6362702 0.9884529 0.5373463 0.9893584 0.5373463 0.9947582 0.1995857 0.9939264 0.1006616 0.9947582 0.1006616 0.9838703 0.5356088 0.982949 0.4366849 0.9838703 0.4366849 0.9645817 0.7499086 0.9636585 0.620643 0.9645817 0.6206429 0.9581473 0.2602693 0.9590707 0.1310034 0.9590707 0.2602693 0.9866196 0.7369317 0.9857024 0.6380078 0.9866196 0.6380078 0.9664146 0.1347011 0.967338 0.2602689 0.9664147 0.2602689 0.9966185 0.4366852 0.9974107 0.5356093 0.9966185 0.5356093 0.9609031 0.2620069 0.9618265 0.3912725 0.9609031 0.3912726 0.9884452 0.7386693 0.9893507 0.8375932 0.9884452 0.8375932 0.9756047 0.873516 0.9746814 0.7479483 0.9756047 0.7479482 0.9920786 0.5356091 0.9911918 0.4366852 0.9920786 0.4366852 0.982949 0.8393306 0.9838522 0.9382545 0.982949 0.9382545 0.9636586 0.880912 0.9645817 0.7516463 0.9645817 0.8809121 0.9756053 0.2602688 0.9746819 0.134701 0.9756053 0.1347009 0.9673377 0.2620066 0.9664141 0.3875744 0.9664141 0.2620064 0.9811161 0.8642374 0.980193 0.7653136 0.9811161 0.7653136 0.999975 0.3002472 0.9992556 0.2013231 0.999975 0.2013231 0.9645822 0.2602688 0.9636588 0.1347009 0.9645822 0.134701 0.9774369 0.8735163 0.9783603 0.7479485 0.9783603 0.8735163 0.991183 0.7386693 0.9920697 0.8375932 0.991183 0.8375932 0.997415 0.1995857 0.9965904 0.1006616 0.997415 0.1006616 0.977437 0.7462106 0.9783604 0.6206429 0.9783604 0.7462106 0.9857023 0.5373463 0.9866205 0.6362702 0.9857023 0.6362702 0.9618263 0.7499089 0.9609029 0.620643 0.9618263 0.620643 0.9893633 0.09892392 0.9884569 0 0.9893633 0 0.9664143 0.125568 0.9673379 0 0.9673379 0.1255681 0.9553914 0.7516462 0.9563148 0.880912 0.9553915 0.880912 0.2039806 0.8714947 0.2046805 0.9704186 0.2039806 0.9704186 0.9966056 0.8393307 0.997365 0.9382549 0.9966056 0.9382549 0.3246047 0.7682009 0.3255282 0.8974667 0.3246047 0.8974667 0.9636586 0 0.9645819 0.1292659 0.9636586 0.1292659 0.9884567 0.1006616 0.9893631 0.1995854 0.9884567 0.1995854 0.982949 0.6380078 0.98387 0.736932 0.982949 0.736932 0.9563149 0.6206429 0.9553916 0.7499087 0.9553915 0.620643 1 0.09892392 0.9992578 0 1 0 0.9783601 0.3938587 0.9774369 0.5194268 0.9774369 0.393859 0.9857025 0.3360236 0.9866213 0.4349476 0.9857025 0.4349476 0.3227726 0.7682009 0.3218491 0.8974667 0.3218492 0.7682009 0.9728492 0.1255678 0.971926 0 0.9728495 1.33644e-7 0.9999905 0.4349476 0.9992392 0.3360236 0.9999905 0.3360236 0.9838702 0.6362704 0.982949 0.5373463 0.9838702 0.5373463 0.9609028 0.8772144 0.9618262 0.7516463 0.9618262 0.8772143 0.9746817 0.2620065 0.975605 0.2620067 0.975605 0.3875744 0.9838716 0.3342862 0.982949 0.3342862 0.982949 0.2353622 0.9801928 0.2620064 0.9811162 0.2620064 0.9811162 0.3609305 0.9691701 0.8735162 0.9691698 0.7479484 0.9700933 0.7479484 0.9965878 0.7386693 0.9974058 0.7386693 0.9974058 0.8375932 0.3190933 0.8974668 0.3190933 0.7682009 0.3200168 0.7682009 0.999243 0.4366852 0.9999827 0.4366852 0.9999827 0.5356091 0.9783607 0.3875745 0.9774373 0.3875744 0.9774374 0.2620064 0.4227859 0.5215232 0.4218624 0.5215232 0.4218624 0.3922573 0.982949 0.7386693 0.98387 0.7386693 0.98387 0.8375932 0.9811162 0.4615921 0.9801929 0.4615921 0.9801929 0.362668 0.4191067 0.2612541 0.4200301 0.261254 0.4200301 0.3905198 0.1132192 0.9000993 0.1122957 0.9000992 0.1122957 0.7708333 0.6199419 0.9890248 0.6192393 0.9890248 0.6192393 0.890101 0.9893473 0.9382549 0.9884452 0.9382549 0.9884452 0.8393307 0.4191066 0.5215232 0.4191066 0.3922575 0.4200301 0.3922574 0.986605 0.9382548 0.9857023 0.9382548 0.9857023 0.8393309 0.9728497 0.1347009 0.9728497 0.2602688 0.9719262 0.2602688 0.9974069 0.4349476 0.9965867 0.4349476 0.9965867 0.3360236 0.4227859 0.3905199 0.4218624 0.3905198 0.4218624 0.261254 0.9673376 0.5194267 0.966414 0.5194266 0.966414 0.3938588 0.9947761 0.7369317 0.9939007 0.7369317 0.9939007 0.6380078 0.985704 0 0.9866244 0 0.9866244 0.0989241 0.9691699 0.3938587 0.9700934 0.3938588 0.9700934 0.5194267 0.9719259 0.2620064 0.972849 0.2620065 0.9728493 0.3875743 0.9991973 0.8393309 0.9999512 0.8393309 0.9999512 0.9382548 0.9939268 0 0.9947966 0 0.9947966 0.0989241 0.9664139 0.7462108 0.9664139 0.620643 0.9673374 0.620643 0.9939109 0.4366852 0.9947863 0.4366852 0.9947863 0.5356091 0.9590705 0.3938588 0.9590704 0.5231245 0.9581471 0.5231246 0.9966289 0 0.9974255 0 0.9974255 0.09892392 0.9700933 0.7462108 0.9691698 0.7462109 0.9691698 0.620643 0.1104634 0.7708333 0.1104634 0.9000992 0.1095399 0.900099 0.4162898 0.8688626 0.4169896 0.8688626 0.4169896 0.9677866 0.9893561 0.7369318 0.9884519 0.7369318 0.9884519 0.6380077 0.9581474 0.880912 0.9581474 0.7516463 0.9590707 0.7516463 0.9581472 0.620643 0.9590706 0.620643 0.9590706 0.7499089 0.9947555 0.8375932 0.993902 0.8375932 0.993902 0.7386693 0.9884569 0.2013229 0.9893629 0.2013229 0.9893629 0.300247 0.1067843 0.7708333 0.1077076 0.7708333 0.1077077 0.900099 0.9999777 0.7369318 0.9992355 0.7369318 0.9992355 0.6380077 0.9746816 0 0.9756048 0 0.975605 0.1255679 0.4163508 0.5232607 0.4172743 0.5232607 0.4172743 0.6221846 0.9618264 0.1292658 0.9609031 0.1292658 0.9609031 0 0.966414 0.8735162 0.966414 0.7479483 0.9673374 0.7479483 0.9992472 0.1006616 0.9999986 0.1006616 0.9999986 0.1995857 0.9893596 0.4349478 0.9884536 0.4349478 0.9884536 0.3360237 0.9811164 0.1255679 0.9801931 0.1255679 0.9801931 0 0.972849 0.7479483 0.972849 0.8735163 0.9719256 0.8735161 0.9811162 0.5622534 0.980193 0.5622534 0.980193 0.4633295 0.9911795 0.8393307 0.9920609 0.8393307 0.9920609 0.9382549 0.9700936 0.1255679 0.9691701 0.1255677 0.9691703 0 0.9974233 0.3002472 0.9966052 0.3002472 0.9966052 0.2013231 0.4172743 0.3905196 0.4163511 0.3905198 0.4163508 0.261254 0.9857043 0.1347009 0.9866237 0.1347009 0.9866237 0.233625 0.9801933 0.134701 0.9811167 0.134701 0.9811167 0.2602689 0.9636588 0.2620067 0.9645819 0.2620066 0.9645819 0.3912724 0.9947729 0.300247 0.9939212 0.300247 0.9939212 0.2013231 0.9866129 0.8375934 0.9857023 0.8375934 0.9857023 0.7386693 0.9563151 2.99474e-7 0.956315 0.129266 0.9553917 0.129266 0.4163508 0.5215231 0.4163508 0.3922573 0.4172743 0.3922574 0.9801928 0.6646524 0.9811161 0.6646524 0.9811161 0.7635762 0.9920945 0.0989241 0.9911954 0.0989241 0.9911954 0 0.992094 0.1995857 0.9911954 0.1995857 0.9911954 0.1006616 0.9563151 0.2620071 0.9563151 0.3912727 0.9553918 0.3912729 0.9645817 0.3938589 0.9645817 0.5231245 0.9636585 0.5231246 0.9966085 0.6380078 0.9974033 0.6380078 0.9974033 0.7369317 0.9728491 0.5194267 0.9719256 0.5194267 0.9719256 0.3938589 0.9911883 0.6380078 0.9920685 0.6380078 0.9920685 0.736932 0.9553915 0.1310037 0.956315 0.1310034 0.956315 0.2602695 0.9838718 0.09892386 0.9829488 0.09892386 0.9829488 0 0.970094 0.2602689 0.9691704 0.2602688 0.9691704 0.134701 0.4218624 0.5232607 0.4227858 0.5232607 0.4227858 0.6221846 0.9911919 0.3360237 0.9920904 0.3360237 0.9920904 0.4349478 0.9553914 0.3938589 0.9563148 0.3938587 0.9563146 0.5231246 0.9756046 0.5194268 0.9746812 0.5194268 0.9746812 0.3938588 0.9719257 0.7462108 0.9719257 0.620643 0.9728491 0.620643 0.9838703 0.4349475 0.982949 0.4349475 0.982949 0.3360236 0.9947733 0.9382549 0.9938932 0.9382549 0.9938932 0.8393307 0.9801928 0.563991 0.9811161 0.563991 0.9811161 0.6629148 0.9774374 0 0.9783608 0 0.9783608 0.1255678 0.96917 0.3875745 0.96917 0.2620066 0.9700936 0.2620065 0.4200301 0.6221846 0.4191067 0.6221846 0.4191067 0.5232607 0.9618262 0.5231245 0.960903 0.5231248 0.9609028 0.3938588 0.9939225 0.3360237 0.9947543 0.3360237 0.9947543 0.4349478 0.9746811 0.7462108 0.9746811 0.6206428 0.9756044 0.6206428 0.9857172 0.4366851 0.9866213 0.4366851 0.9866213 0.5356089 0.9590709 0.1292657 0.9581474 0.1292658 0.9581474 0 0.9911951 0.2013229 0.9920889 0.2013229 0.9920889 0.3002468 0.9838718 0.2336248 0.9829488 0.2336248 0.9829488 0.134701 0.978361 0.2602689 0.9774376 0.2602688 0.9774376 0.134701 0.9618264 0.1310033 0.9618264 0.2602691 0.9609031 0.260269 0.9581475 0.3912726 0.9581474 0.2620069 0.9590709 0.2620068 0.9893584 0.6362702 0.9884529 0.6362702 0.9884529 0.5373463 0.9947582 0.1995857 0.9939264 0.1995857 0.9939264 0.1006616 0.9838703 0.5356088 0.982949 0.5356088 0.982949 0.4366849 0.9645817 0.7499086 0.9636585 0.7499088 0.9636585 0.620643 0.9581473 0.2602693 0.9581474 0.1310034 0.9590707 0.1310034 0.9866196 0.7369317 0.9857024 0.7369317 0.9857024 0.6380078 0.9664146 0.1347011 0.967338 0.1347009 0.967338 0.2602689 0.9966185 0.4366852 0.9974107 0.4366852 0.9974107 0.5356093 0.9609031 0.2620069 0.9618265 0.2620068 0.9618265 0.3912725 0.9884452 0.7386693 0.9893507 0.7386693 0.9893507 0.8375932 0.9756047 0.873516 0.9746813 0.873516 0.9746814 0.7479483 0.9920786 0.5356091 0.9911918 0.5356091 0.9911918 0.4366852 0.982949 0.8393306 0.9838522 0.8393306 0.9838522 0.9382545 0.9636586 0.880912 0.9636586 0.7516462 0.9645817 0.7516463 0.9756053 0.2602688 0.9746819 0.2602688 0.9746819 0.134701 0.9673377 0.2620066 0.9673374 0.3875744 0.9664141 0.3875744 0.9811161 0.8642374 0.980193 0.8642374 0.980193 0.7653136 0.999975 0.3002472 0.9992556 0.3002472 0.9992556 0.2013231 0.9645822 0.2602688 0.9636586 0.2602689 0.9636588 0.1347009 0.9774369 0.8735163 0.977437 0.7479485 0.9783603 0.7479485 0.991183 0.7386693 0.9920697 0.7386693 0.9920697 0.8375932 0.997415 0.1995857 0.9965904 0.1995857 0.9965904 0.1006616 0.977437 0.7462106 0.977437 0.6206429 0.9783604 0.6206429 0.9857023 0.5373463 0.9866205 0.5373463 0.9866205 0.6362702 0.9618263 0.7499089 0.9609029 0.7499089 0.9609029 0.620643 0.9893633 0.09892392 0.9884569 0.09892392 0.9884569 0 0.9664143 0.125568 0.9664145 2.07929e-7 0.9673379 0 0.9553914 0.7516462 0.9563148 0.7516462 0.9563148 0.880912 0.2039806 0.8714947 0.2046805 0.8714947 0.2046805 0.9704186 0.9966056 0.8393307 0.997365 0.8393307 0.997365 0.9382549 0.3246047 0.7682009 0.3255282 0.7682009 0.3255282 0.8974667 0.9636586 0 0.9645819 0 0.9645819 0.1292659 0.9884567 0.1006616 0.9893631 0.1006616 0.9893631 0.1995854 0.982949 0.6380078 0.98387 0.6380078 0.98387 0.736932 0.9563149 0.6206429 0.9563149 0.7499087 0.9553916 0.7499087 1 0.09892392 0.9992578 0.09892392 0.9992578 0 0.9783601 0.3938587 0.9783602 0.5194268 0.9774369 0.5194268 0.9857025 0.3360236 0.9866213 0.3360236 0.9866213 0.4349476 0.3227726 0.7682009 0.3227726 0.8974667 0.3218491 0.8974667 0.9728492 0.1255678 0.971926 0.1255678 0.971926 0 0.9999905 0.4349476 0.9992392 0.4349476 0.9992392 0.3360236 0.9838702 0.6362704 0.982949 0.6362704 0.982949 0.5373463 0.9609028 0.8772144 0.9609029 0.7516464 0.9618262 0.7516463</float_array>
          <technique_common>
            <accessor source="#Cube_122-mesh-map-1-array" count="1224" stride="2">
              <param name="S" type="float"/>
              <param name="T" type="float"/>
            </accessor>
          </technique_common>
        </source>
        <vertices id="Cube_122-mesh-vertices">
          <input semantic="POSITION" source="#Cube_122-mesh-positions"/>
        </vertices>
        <triangles material="hierva_choza_gaetuli-material" count="408">
          <input semantic="VERTEX" source="#Cube_122-mesh-vertices" offset="0"/>
          <input semantic="NORMAL" source="#Cube_122-mesh-normals" offset="1"/>
          <input semantic="TEXCOORD" source="#Cube_122-mesh-map-0" offset="2" set="0"/>
          <input semantic="TEXCOORD" source="#Cube_122-mesh-map-1" offset="2" set="1"/>
          <p>0 0 0 1 1 1 3 2 2 0 0 3 3 2 4 2 3 5 4 4 6 7 5 7 5 6 8 4 4 9 6 7 10 7 5 11 8 8 12 11 9 13 9 10 14 8 8 15 10 11 16 11 9 17 12 12 18 15 12 19 13 13 20 12 12 21 14 14 22 15 12 23 16 15 24 17 16 25 19 15 26 16 15 27 19 15 28 18 17 29 20 18 30 23 19 31 21 20 32 20 18 33 22 21 34 23 19 35 24 22 36 25 23 37 27 22 38 24 22 39 27 22 40 26 24 41 28 25 42 31 26 43 29 27 44 28 25 45 30 28 46 31 26 47 32 29 48 33 30 49 35 31 50 32 29 51 35 31 52 34 32 53 36 33 54 37 34 55 39 35 56 36 33 57 39 35 58 38 36 59 40 37 60 43 37 61 41 38 62 40 37 63 42 38 64 43 37 65 44 39 66 45 39 67 47 39 68 44 39 69 47 39 70 46 39 71 48 40 72 49 41 73 51 42 74 48 40 75 51 42 76 50 43 77 52 44 78 55 44 79 53 44 80 52 44 81 54 45 82 55 44 83 56 46 84 59 46 85 57 47 86 56 46 87 58 46 88 59 46 89 60 48 90 61 48 91 63 48 92 60 48 93 63 48 94 62 49 95 64 50 96 65 51 97 67 52 98 64 50 99 67 52 100 66 53 101 68 54 102 71 54 103 69 55 104 68 54 105 70 55 106 71 54 107 72 56 108 73 57 109 75 58 110 72 56 111 75 58 112 74 58 113 76 59 114 77 60 115 79 61 116 76 59 117 79 61 118 78 59 119 80 62 120 81 63 121 83 64 122 80 62 123 83 64 124 82 65 125 84 66 126 85 67 127 87 68 128 84 66 129 87 68 130 86 69 131 88 70 132 89 71 133 91 72 134 88 70 135 91 72 136 90 73 137 92 74 138 93 75 139 95 76 140 92 74 141 95 76 142 94 77 143 96 78 144 99 79 145 97 80 146 96 78 147 98 81 148 99 79 149 100 82 150 101 83 151 103 84 152 100 82 153 103 84 154 102 85 155 104 86 156 105 87 157 107 88 158 104 86 159 107 88 160 106 89 161 108 90 162 111 91 163 109 92 164 108 90 165 110 93 166 111 91 167 112 94 168 113 95 169 115 96 170 112 94 171 115 96 172 114 96 173 116 97 174 117 98 175 119 99 176 116 97 177 119 99 178 118 100 179 120 101 180 121 102 181 123 103 182 120 101 183 123 103 184 122 104 185 124 105 186 127 106 187 125 107 188 124 105 189 126 108 190 127 106 191 128 109 192 129 110 193 131 111 194 128 109 195 131 111 196 130 112 197 132 113 198 135 114 199 133 115 200 132 113 201 134 116 202 135 114 203 136 117 204 137 118 205 138 119 206 136 117 207 139 120 208 137 118 209 140 121 210 141 122 211 142 123 212 140 121 213 142 123 214 143 124 215 144 125 216 145 126 217 146 127 218 144 125 219 146 127 220 147 128 221 148 129 222 149 130 223 150 131 224 148 129 225 150 131 226 151 132 227 152 133 228 153 133 229 154 134 230 152 133 231 155 133 232 153 133 233 156 135 234 157 136 235 158 137 236 156 135 237 158 137 238 159 138 239 160 139 240 161 140 241 162 141 242 160 139 243 163 142 244 161 140 245 164 143 246 165 144 247 166 145 248 164 143 249 166 145 250 167 146 251 168 147 252 169 147 253 170 148 254 168 147 255 171 149 256 169 147 257 172 20 258 173 150 259 174 151 260 172 20 261 175 152 262 173 150 263 176 153 264 177 154 265 178 153 266 176 153 267 178 153 268 179 153 269 180 155 270 181 156 271 182 157 272 180 155 273 183 156 274 181 156 275 184 158 276 185 158 277 186 159 278 184 158 279 187 160 280 185 158 281 188 161 282 189 162 283 190 163 284 188 161 285 190 163 286 191 164 287 192 165 288 193 165 289 194 166 290 192 165 291 194 166 292 195 167 293 196 168 294 197 168 295 198 169 296 196 168 297 199 170 298 197 168 299 200 171 300 201 171 301 202 172 302 200 171 303 203 173 304 201 171 305 204 174 306 205 175 307 206 174 308 204 174 309 206 174 310 207 175 311 208 176 312 209 176 313 210 177 314 208 176 315 211 178 316 209 176 317 212 179 318 213 179 319 214 179 320 212 179 321 215 180 322 213 179 323 216 181 324 217 182 325 218 183 326 216 181 327 219 184 328 217 182 329 220 185 330 221 185 331 222 186 332 220 185 333 223 187 334 221 185 335 224 188 336 225 189 337 226 188 338 224 188 339 227 190 340 225 189 341 228 191 342 229 191 343 230 192 344 228 191 345 231 193 346 229 191 347 232 194 348 233 195 349 234 194 350 232 194 351 234 194 352 235 195 353 236 196 354 237 197 355 238 198 356 236 196 357 239 199 358 237 197 359 240 200 360 241 201 361 242 202 362 240 200 363 243 203 364 241 201 365 244 204 366 245 205 367 246 206 368 244 204 369 246 206 370 247 207 371 248 208 372 249 209 373 250 210 374 248 208 375 251 211 376 249 209 377 252 212 378 253 212 379 254 213 380 252 212 381 255 214 382 253 212 383 256 215 384 257 216 385 258 217 386 256 215 387 259 218 388 257 216 389 260 219 390 261 220 391 262 221 392 260 219 393 262 221 394 263 222 395 264 223 396 265 224 397 266 225 398 264 223 399 267 226 400 265 224 401 268 227 402 269 228 403 270 229 404 268 227 405 270 229 406 271 230 407 101 231 408 237 232 409 103 233 410 63 234 411 199 235 412 62 235 413 104 236 414 242 237 415 105 238 416 63 239 417 198 240 418 197 241 419 22 242 420 158 243 421 23 244 422 104 245 423 243 246 424 240 247 425 64 248 426 202 248 427 65 248 428 23 249 429 157 250 430 21 251 431 66 247 432 200 247 433 64 247 434 24 252 435 162 252 436 25 252 437 107 253 438 243 254 439 106 255 440 26 256 441 160 257 442 24 258 443 105 259 444 241 260 445 107 261 446 67 262 447 203 263 448 66 264 449 109 265 450 244 266 451 108 267 452 67 241 453 202 241 454 201 241 455 27 268 456 163 269 457 26 270 458 110 271 459 244 272 460 247 273 461 69 274 462 204 275 463 68 276 464 25 277 465 161 278 466 27 279 467 68 280 468 207 281 469 70 282 470 29 283 471 164 284 472 28 285 473 110 286 474 246 287 475 111 288 476 28 289 477 167 290 478 30 291 479 111 292 480 245 293 481 109 294 482 70 295 483 206 296 484 71 297 485 112 298 486 250 299 487 113 300 488 69 301 489 206 302 490 205 303 491 30 304 492 166 305 493 31 306 494 112 307 495 251 308 496 248 247 497 72 309 498 210 310 499 73 310 500 31 311 501 165 312 502 29 313 503 72 314 504 211 315 505 208 316 506 32 317 507 170 318 508 33 319 509 115 320 510 251 321 511 114 322 512 32 247 513 171 247 514 168 247 515 113 323 516 249 324 517 115 325 518 75 326 519 211 327 520 74 328 521 116 329 522 254 330 523 117 331 524 73 332 525 209 333 526 75 334 527 35 335 528 171 336 529 34 337 530 118 338 531 252 339 532 116 340 533 76 341 534 214 342 535 77 343 536 33 241 537 169 241 538 35 241 539 76 344 540 215 345 541 212 247 542 36 346 543 174 347 544 37 348 545 119 349 546 255 350 547 118 351 548 38 352 549 172 353 550 36 354 551 119 355 552 254 356 553 253 241 554 79 357 555 215 358 556 78 359 557 120 360 558 258 361 559 121 362 560 77 363 561 213 364 562 79 365 563 39 366 564 175 367 565 38 368 566 122 369 567 256 370 568 120 371 569 80 372 570 218 373 571 81 374 572 37 375 573 173 376 574 39 377 575 82 378 576 216 379 577 80 380 578 41 381 579 176 382 580 40 383 581 123 384 582 259 385 583 122 386 584 42 387 585 176 388 586 179 247 587 123 389 588 258 390 589 257 241 590 0 391 591 138 392 592 1 393 593 83 394 594 219 395 595 82 396 596 125 397 597 260 398 598 124 399 599 0 400 600 139 401 601 136 402 602 83 403 603 218 404 604 217 241 605 42 405 606 178 406 607 43 407 608 124 408 609 263 409 610 126 410 611 84 411 612 222 412 613 85 413 614 43 414 615 177 415 616 41 416 617 3 417 618 139 418 619 2 419 620 86 420 621 220 421 622 84 422 623 44 423 624 182 423 625 45 423 626 126 424 627 262 425 628 127 426 629 1 427 630 137 428 631 3 429 632 46 430 633 180 431 634 44 432 635 125 433 636 262 434 637 261 435 638 5 436 639 140 436 640 4 436 641 87 437 642 223 438 643 86 439 644 128 440 645 266 441 646 129 442 647 4 443 648 143 444 649 6 445 650 87 446 651 222 447 652 221 241 653 47 448 654 183 449 655 46 450 656 130 451 657 264 452 658 128 453 659 88 454 660 226 455 661 89 456 662 47 457 663 182 458 664 181 241 665 6 459 666 142 460 667 7 461 668 90 462 669 224 463 670 88 464 671 48 465 672 186 466 673 49 466 674 131 467 675 267 468 676 130 469 677 7 470 678 141 471 679 5 472 680 48 473 681 187 474 682 184 247 683 131 475 684 266 476 685 265 241 686 9 477 687 144 477 688 8 477 689 91 478 690 227 479 691 90 480 692 133 481 693 268 482 694 132 483 695 8 484 696 147 485 697 10 486 698 91 487 699 226 488 700 225 489 701 51 490 702 187 491 703 50 492 704 132 493 705 271 494 706 134 495 707 92 496 708 230 497 709 93 497 710 49 498 711 185 499 712 51 500 713 10 501 714 146 501 715 11 501 716 94 502 717 228 503 718 92 247 719 53 504 720 188 505 721 52 506 722 134 507 723 270 508 724 135 509 725 9 510 726 146 511 727 145 241 728 52 512 729 191 513 730 54 514 731 133 515 732 270 516 733 269 241 734 13 517 735 148 518 736 12 518 737 95 519 738 231 520 739 94 521 740 12 522 741 151 523 742 14 524 743 95 525 744 230 526 745 229 241 746 54 527 747 190 528 748 55 529 749 97 530 750 232 531 751 96 531 752 53 532 753 190 533 754 189 241 755 14 534 756 150 535 757 15 535 758 96 536 759 235 537 760 98 538 761 57 539 762 192 540 763 56 541 764 13 542 765 150 543 766 149 241 767 56 544 768 195 545 769 58 546 770 16 547 771 154 547 772 17 548 773 98 549 774 234 550 775 99 551 776 18 552 777 152 553 778 16 554 779 99 555 780 233 556 781 97 557 782 58 558 783 194 559 784 59 560 785 100 561 786 238 562 787 101 563 788 57 564 789 194 565 790 193 566 791 19 567 792 155 567 793 18 568 794 100 569 795 239 570 796 236 571 797 60 572 798 198 573 799 61 574 800 19 575 801 154 576 802 153 241 803 62 577 804 196 578 805 60 579 806 21 580 807 156 581 808 20 582 809 103 583 810 239 584 811 102 585 812 22 586 813 156 587 814 159 588 815 101 231 816 238 241 817 237 232 818 63 234 819 197 234 820 199 235 821 104 236 822 240 589 823 242 237 824 63 239 825 61 590 826 198 240 827 22 242 828 159 591 829 158 243 830 104 245 831 106 592 832 243 246 833 64 248 834 200 248 835 202 248 836 23 249 837 158 241 838 157 250 839 66 247 840 203 247 841 200 247 842 24 252 843 160 252 844 162 252 845 107 253 846 241 593 847 243 254 848 26 256 849 163 247 850 160 257 851 105 259 852 242 241 853 241 260 854 67 262 855 201 594 856 203 263 857 109 265 858 245 265 859 244 266 860 67 241 861 65 241 862 202 241 863 27 268 864 161 595 865 163 269 866 110 271 867 108 596 868 244 272 869 69 274 870 205 597 871 204 275 872 25 277 873 162 598 874 161 278 875 68 280 876 204 247 877 207 281 878 29 283 879 165 283 880 164 284 881 110 286 882 247 599 883 246 287 884 28 289 885 164 247 886 167 290 887 111 292 888 246 241 889 245 293 890 70 295 891 207 600 892 206 296 893 112 298 894 248 601 895 250 299 896 69 301 897 71 602 898 206 302 899 30 304 900 167 603 901 166 305 902 112 307 903 114 604 904 251 308 905 72 309 906 208 605 907 210 310 908 31 311 909 166 606 910 165 312 911 72 314 912 74 607 913 211 315 914 32 317 915 168 608 916 170 318 917 115 320 918 249 609 919 251 321 920 32 247 921 34 247 922 171 247 923 113 323 924 250 241 925 249 324 926 75 326 927 209 610 928 211 327 929 116 329 930 252 611 931 254 330 932 73 332 933 210 241 934 209 333 935 35 335 936 169 612 937 171 336 938 118 338 939 255 247 940 252 339 941 76 341 942 212 613 943 214 342 944 33 241 945 170 241 946 169 241 947 76 344 948 78 614 949 215 345 950 36 346 951 172 615 952 174 347 953 119 349 954 253 616 955 255 350 956 38 352 957 175 247 958 172 353 959 119 355 960 117 617 961 254 356 962 79 357 963 213 618 964 215 358 965 120 360 966 256 619 967 258 361 968 77 363 969 214 241 970 213 364 971 39 366 972 173 620 973 175 367 974 122 369 975 259 621 976 256 370 977 80 372 978 216 622 979 218 373 980 37 375 981 174 241 982 173 376 983 82 378 984 219 247 985 216 379 986 41 381 987 177 623 988 176 382 989 123 384 990 257 624 991 259 385 992 42 387 993 40 625 994 176 388 995 123 389 996 121 626 997 258 390 998 0 391 999 136 627 1000 138 392 1001 83 394 1002 217 628 1003 219 395 1004 125 397 1005 261 629 1006 260 398 1007 0 400 1008 2 630 1009 139 401 1010 83 403 1011 81 631 1012 218 404 1013 42 405 1014 179 632 1015 178 406 1016 124 408 1017 260 247 1018 263 409 1019 84 411 1020 220 633 1021 222 412 1022 43 414 1023 178 241 1024 177 415 1025 3 417 1026 137 634 1027 139 418 1028 86 420 1029 223 247 1030 220 421 1031 44 423 1032 180 423 1033 182 423 1034 126 424 1035 263 635 1036 262 425 1037 1 427 1038 138 241 1039 137 428 1040 46 430 1041 183 247 1042 180 431 1043 125 433 1044 127 636 1045 262 434 1046 5 436 1047 141 436 1048 140 436 1049 87 437 1050 221 637 1051 223 438 1052 128 440 1053 264 638 1054 266 441 1055 4 443 1056 140 247 1057 143 444 1058 87 446 1059 85 639 1060 222 447 1061 47 448 1062 181 640 1063 183 449 1064 130 451 1065 267 247 1066 264 452 1067 88 454 1068 224 641 1069 226 455 1070 47 457 1071 45 642 1072 182 458 1073 6 459 1074 143 643 1075 142 460 1076 90 462 1077 227 644 1078 224 463 1079 48 465 1080 184 645 1081 186 466 1082 131 467 1083 265 646 1084 267 468 1085 7 470 1086 142 647 1087 141 471 1088 48 473 1089 50 648 1090 187 474 1091 131 475 1092 129 649 1093 266 476 1094 9 477 1095 145 477 1096 144 477 1097 91 478 1098 225 650 1099 227 479 1100 133 481 1101 269 651 1102 268 482 1103 8 484 1104 144 247 1105 147 485 1106 91 487 1107 89 652 1108 226 488 1109 51 490 1110 185 653 1111 187 491 1112 132 493 1113 268 247 1114 271 494 1115 92 496 1116 228 496 1117 230 497 1118 49 498 1119 186 241 1120 185 499 1121 10 501 1122 147 501 1123 146 501 1124 94 502 1125 231 588 1126 228 503 1127 53 504 1128 189 654 1129 188 505 1130 134 507 1131 271 655 1132 270 508 1133 9 510 1134 11 656 1135 146 511 1136 52 512 1137 188 247 1138 191 513 1139 133 515 1140 135 657 1141 270 516 1142 13 517 1143 149 517 1144 148 518 1145 95 519 1146 229 519 1147 231 520 1148 12 522 1149 148 247 1150 151 523 1151 95 525 1152 93 658 1153 230 526 1154 54 527 1155 191 659 1156 190 528 1157 97 530 1158 233 530 1159 232 531 1160 53 532 1161 55 660 1162 190 533 1163 14 534 1164 151 661 1165 150 535 1166 96 536 1167 232 247 1168 235 537 1169 57 539 1170 193 662 1171 192 540 1172 13 542 1173 15 663 1174 150 543 1175 56 544 1176 192 247 1177 195 545 1178 16 547 1179 152 547 1180 154 547 1181 98 549 1182 235 664 1183 234 550 1184 18 552 1185 155 247 1186 152 553 1187 99 555 1188 234 665 1189 233 556 1190 58 558 1191 195 666 1192 194 559 1193 100 561 1194 236 561 1195 238 562 1196 57 564 1197 59 667 1198 194 565 1199 19 567 1200 153 568 1201 155 567 1202 100 569 1203 102 668 1204 239 570 1205 60 572 1206 196 669 1207 198 573 1208 19 575 1209 17 670 1210 154 576 1211 62 577 1212 199 247 1213 196 578 1214 21 580 1215 157 671 1216 156 581 1217 103 583 1218 237 672 1219 239 584 1220 22 586 1221 20 673 1222 156 587 1223</p>
        </triangles>
      </mesh>
    </geometry>
  </library_geometries>
  <library_visual_scenes>
    <visual_scene id="Scene" name="Scene">
      <node id="wonder_f" name="wonder_f" type="NODE">
        <matrix sid="transform">1 0 0 0 0 1 0 0 0 0 1 0 0 0 0 1</matrix>
        <instance_geometry url="#Cube_122-mesh" name="wonder_f">
          <bind_material>
            <technique_common>
              <instance_material symbol="hierva_choza_gaetuli-material" target="#hierva_choza_gaetuli-material">
                <bind_vertex_input semantic="Cube_122-mesh-map-0" input_semantic="TEXCOORD" input_set="0"/>
                <bind_vertex_input semantic="Cube_122-mesh-map-1" input_semantic="TEXCOORD" input_set="1"/>
              </instance_material>
            </technique_common>
          </bind_material>
        </instance_geometry>
        <node id="prop_garrisoned" name="prop_garrisoned" type="NODE">
          <matrix sid="transform">-0.7829416 1.18221e-7 0 5.35037e-14 -1.18221e-7 -0.7829416 0 5.033843 0 0 0.7829416 9.013988 0 0 0 1</matrix>
        </node>
        <node id="prop_projectile" name="prop_projectile" type="NODE">
          <matrix sid="transform">-0.7829416 1.18221e-7 0 5.35037e-14 -1.18221e-7 -0.7829416 0 5.033842 0 0 0.7829416 9.013988 0 0 0 1</matrix>
        </node>
      </node>
    </visual_scene>
  </library_visual_scenes>
  <scene>
    <instance_visual_scene url="#Scene"/>
  </scene>
</COLLADA>