<?xml version="1.0" encoding="utf-8"?>
<COLLADA xmlns="http://www.collada.org/2005/11/COLLADASchema" version="1.4.1" xmlns:xsi="http://www.w3.org/2001/XMLSchema-instance">
  <asset>
    <contributor>
      <author>Blender User</author>
      <authoring_tool>Blender 4.3.1 commit date:2024-12-10, commit time:07:46, hash:33d812126174</authoring_tool>
    </contributor>
    <created>2026-08-01T13:25:29</created>
    <modified>2026-08-01T13:25:29</modified>
    <unit name="meter" meter="1"/>
    <up_axis>Z_UP</up_axis>
  </asset>
  <library_effects>
    <effect id="textura_batwa_General_001-effect">
      <profile_COMMON>
        <technique sid="common">
          <lambert>
            <emission>
              <color sid="emission">0 0 0 1</color>
            </emission>
            <diffuse>
              <color sid="diffuse">0.8 0.8 0.8 1</color>
            </diffuse>
            <index_of_refraction>
              <float sid="ior">1.45</float>
            </index_of_refraction>
          </lambert>
        </technique>
      </profile_COMMON>
    </effect>
  </library_effects>
  <library_images/>
  <library_materials>
    <material id="textura_batwa_General_001-material" name="textura batwa General.001">
      <instance_effect url="#textura_batwa_General_001-effect"/>
    </material>
  </library_materials>
  <library_geometries>
    <geometry id="Cubo_032-mesh" name="Cubo.032">
      <mesh>
        <source id="Cubo_032-mesh-positions">
          <float_array id="Cubo_032-mesh-positions-array" count="144">0.001036286 -0.2228877 0.2452132 0.001036286 -0.1320672 0.506574 -6.2482e-4 -0.7990921 0.506816 -6.2482e-4 -0.7082717 0.7681768 0.001257777 -0.2584653 0.2918772 0.001257777 -0.004471719 0.4663794 -5.92242e-4 -0.6026635 0.9068973 -5.92242e-4 -0.3486701 1.081399 0.01329326 -0.2472854 0.4395746 0.01329326 0.02640026 0.480243 0.01163214 -0.2825585 1.0714 0.01163214 -0.008872687 1.112068 -0.001167774 -0.2228813 0.2452139 -0.002829015 -0.7990859 0.5068168 -0.002829015 -0.7082655 0.7681776 -0.001167774 -0.132061 0.5065748 -0.00119704 -0.2584615 0.2918772 -0.003047168 -0.6026599 0.9068973 -0.003047168 -0.3486664 1.0814 -0.00119704 -0.004468142 0.4663795 0.01108902 -0.2472875 0.4395728 0.009427905 -0.2825605 1.071398 0.009427905 -0.008874893 1.112067 0.01108902 0.02639824 0.4802412 -0.001036405 0.1581426 0.156596 -0.001036345 0.1932959 0.4310447 6.2456e-4 0.7905499 0.1340429 6.24589e-4 0.8257033 0.4084916 -0.001257896 0.2107859 0.1825184 -0.001257836 0.06115734 0.451916 5.92045e-4 0.792971 0.5797373 5.92128e-4 0.6433423 0.8491343 -0.01329338 0.2665895 0.3197245 -0.01329326 0.03969693 0.4780834 -0.0116322 0.5797012 0.8696413 -0.01163214 0.3528084 1.028 0.001167714 0.1581372 0.1565995 0.002828717 0.7905447 0.1340464 0.002828776 0.825698 0.4084951 0.001167774 0.1932907 0.4310482 0.00119692 0.2107825 0.1825202 0.003046929 0.7929677 0.5797389 0.003047049 0.6433394 0.8491367 0.00119698 0.06115424 0.4519177 -0.01108914 0.2665906 0.3197219 -0.009427964 0.5797021 0.8696386 -0.009427905 0.35281 1.027998 -0.01108902 0.039698 0.4780809</float_array>
          <technique_common>
            <accessor source="#Cubo_032-mesh-positions-array" count="48" stride="3">
              <param name="X" type="float"/>
              <param name="Y" type="float"/>
              <param name="Z" type="float"/>
            </accessor>
          </technique_common>
        </source>
        <source id="Cubo_032-mesh-normals">
          <float_array id="Cubo_032-mesh-normals-array" count="144">0.5737689 0.3214364 -0.7533047 0.5715787 -0.3246847 0.7535766 0.5804533 -0.7486582 -0.3202887 0.5836895 0.7907897 -0.1842783 0.5809329 -0.7925787 0.1853002 0.5733565 -0.1871438 -0.7976462 0.5830946 0.6303135 -0.5125482 0.5814898 -0.6301339 0.5145881 0.5739517 -0.5175181 -0.6346295 -0.5715465 0.3247136 -0.7535886 -0.5737403 -0.3214758 0.7533097 -0.580446 0.748663 0.3202909 -0.5836912 -0.7907901 0.1842706 -0.5809324 0.792582 -0.1852871 -0.5720198 -0.1855169 -0.7989849 -0.5831338 -0.6302962 0.5125249 -0.5815305 0.6301171 -0.5145629 -0.571426 -0.5181992 -0.6363505 -0.5841726 -0.7456714 -0.3204942 0.5841848 0.7456657 0.3204852 0.5721514 0.1855399 0.7988854 -0.5732246 0.1871178 0.7977471 -0.5738378 0.5174865 0.6347582 0.5715402 0.5182319 0.6362212 -0.5737871 -0.6234303 -0.5311338 -0.571565 0.6264649 0.5299578 -0.5804351 0.5275192 -0.6203377 -0.5836834 -0.7900615 0.187394 -0.5809031 0.7921348 -0.1872807 -0.573361 -0.1878809 -0.7974698 -0.5830909 -0.792668 -0.1779963 -0.5814909 0.7934129 0.1799014 -0.5739521 0.1805194 -0.7987439 0.5715353 -0.6264859 -0.529965 0.5737534 0.6234474 0.5311501 0.5804454 -0.5275162 0.6203305 0.5837193 0.7900331 -0.1874019 0.5809393 -0.7921062 0.1872901 0.5720164 -0.1899365 -0.7979483 0.5831358 0.7926388 0.1779787 0.5815343 -0.7933861 -0.1798796 0.5714244 0.1803591 -0.8005903 0.5841965 0.5247372 -0.6191651 -0.5841883 -0.5247421 0.6191686 -0.572147 0.1898605 0.7978728 0.5732307 0.1879581 0.7975453 0.5738172 -0.1804252 0.7988621 -0.5715613 -0.1804467 0.8004729</float_array>
          <technique_common>
            <accessor source="#Cubo_032-mesh-normals-array" count="48" stride="3">
              <param name="X" type="float"/>
              <param name="Y" type="float"/>
              <param name="Z" type="float"/>
            </accessor>
          </technique_common>
        </source>
        <source id="Cubo_032-mesh-map-0">
          <float_array id="Cubo_032-mesh-map-0-array" count="432">0.199805 0.8996682 0.8905481 0.1296457 0.8908683 0.9020208 0.1982322 0.1344709 0.8908683 0.9020208 0.199805 0.8996682 0.1982322 0.1344709 0.8908683 0.9020208 0.199805 0.8996682 0.199805 0.8996682 0.8905481 0.1296457 0.1982322 0.1344709 0.8908683 0.9020208 0.1982322 0.1344709 0.199805 0.8996682 0.8908683 0.9020208 0.1982322 0.1344709 0.199805 0.8996682 0.199805 0.8996682 0.8908683 0.9020208 0.199805 0.8996682 0.199805 0.8996682 0.1982322 0.1344709 0.1982322 0.1344709 0.8908683 0.9020208 0.199805 0.8996682 0.199805 0.8996682 0.1982322 0.1344709 0.8905481 0.1296457 0.8905481 0.1296457 0.199805 0.8996682 0.8908683 0.9020208 0.199805 0.8996682 0.8905481 0.1296457 0.1982322 0.1344709 0.8905481 0.1296457 0.8905481 0.1296457 0.8908683 0.9020208 0.8908683 0.9020208 0.1982322 0.1344709 0.8905481 0.1296457 0.8905481 0.1296457 0.1982322 0.1344709 0.199805 0.8996682 0.1982322 0.1344709 0.8905481 0.1296457 0.8908683 0.9020208 0.8908683 0.9020208 0.1982322 0.1344709 0.199805 0.8996682 0.1982322 0.1344709 0.8908683 0.9020208 0.8905481 0.1296457 0.8908683 0.9020208 0.199805 0.8996682 0.1982322 0.1344709 0.8905481 0.1296457 0.1982322 0.1344709 0.8905481 0.1296457 0.8908683 0.9020208 0.1982322 0.1344709 0.8905481 0.1296457 0.8908683 0.9020208 0.199805 0.8996682 0.8908683 0.9020208 0.8905481 0.1296457 0.8908683 0.9020208 0.8905481 0.1296457 0.1982322 0.1344709 0.8908683 0.9020208 0.8905481 0.1296457 0.1982322 0.1344709 0.199805 0.8996682 0.8908683 0.9020208 0.8908683 0.9020208 0.199805 0.8996682 0.199805 0.8996682 0.1982322 0.1344709 0.8908683 0.9020208 0.8908683 0.9020208 0.199805 0.8996682 0.1982322 0.1344709 0.1982322 0.1344709 0.8905481 0.1296457 0.199805 0.8996682 0.8908683 0.9020208 0.8908683 0.9020208 0.8905481 0.1296457 0.1982322 0.1344709 0.1982322 0.1344709 0.8905481 0.1296457 0.8905481 0.1296457 0.8908683 0.9020208 0.1982322 0.1344709 0.1982322 0.1344709 0.8905481 0.1296457 0.1982322 0.1344709 0.199805 0.8996682 0.199805 0.8996682 0.8905481 0.1296457 0.8905481 0.1296457 0.8908683 0.9020208 0.1982322 0.1344709 0.199805 0.8996682 0.199805 0.8996682 0.8908683 0.9020208 0.8905481 0.1296457 0.8905481 0.1296457 0.199805 0.8996682 0.8905481 0.1296457 0.8908683 0.9020208 0.1982322 0.1344709 0.8908683 0.9020208 0.199805 0.8996682 0.1982322 0.1344709 0.8908683 0.9020208 0.199805 0.8996682 0.199805 0.8996682 0.8905481 0.1296457 0.1982322 0.1344709 0.8908683 0.9020208 0.1982322 0.1344709 0.199805 0.8996682 0.8908683 0.9020208 0.1982322 0.1344709 0.199805 0.8996682 0.199805 0.8996682 0.8908683 0.9020208 0.199805 0.8996682 0.199805 0.8996682 0.1982322 0.1344709 0.1982322 0.1344709 0.8908683 0.9020208 0.199805 0.8996682 0.199805 0.8996682 0.1982322 0.1344709 0.8905481 0.1296457 0.8905481 0.1296457 0.199805 0.8996682 0.8908683 0.9020208 0.199805 0.8996682 0.8905481 0.1296457 0.1982322 0.1344709 0.8905481 0.1296457 0.8905481 0.1296457 0.8908683 0.9020208 0.8908683 0.9020208 0.1982322 0.1344709 0.8905481 0.1296457 0.8905481 0.1296457 0.1982322 0.1344709 0.199805 0.8996682 0.1982322 0.1344709 0.8905481 0.1296457 0.8908683 0.9020208 0.8908683 0.9020208 0.1982322 0.1344709 0.199805 0.8996682 0.1982322 0.1344709 0.8908683 0.9020208 0.8905481 0.1296457 0.8908683 0.9020208 0.199805 0.8996682 0.1982322 0.1344709 0.8905481 0.1296457 0.1982322 0.1344709 0.8905481 0.1296457 0.8908683 0.9020208 0.1982322 0.1344709 0.8905481 0.1296457 0.8908683 0.9020208 0.199805 0.8996682 0.8908683 0.9020208 0.8905481 0.1296457 0.8908683 0.9020208 0.8905481 0.1296457 0.1982322 0.1344709 0.8908683 0.9020208 0.8905481 0.1296457 0.1982322 0.1344709 0.199805 0.8996682 0.8908683 0.9020208 0.8908683 0.9020208 0.199805 0.8996682 0.199805 0.8996682 0.1982322 0.1344709 0.8908683 0.9020208 0.8908683 0.9020208 0.199805 0.8996682 0.1982322 0.1344709 0.1982322 0.1344709 0.8905481 0.1296457 0.199805 0.8996682 0.8908683 0.9020208 0.8908683 0.9020208 0.8905481 0.1296457 0.1982322 0.1344709 0.1982322 0.1344709 0.8905481 0.1296457 0.8905481 0.1296457 0.8908683 0.9020208 0.1982322 0.1344709 0.1982322 0.1344709 0.8905481 0.1296457 0.1982322 0.1344709 0.199805 0.8996682 0.199805 0.8996682 0.8905481 0.1296457 0.8905481 0.1296457 0.8908683 0.9020208 0.1982322 0.1344709 0.199805 0.8996682 0.199805 0.8996682 0.8908683 0.9020208 0.8905481 0.1296457 0.8905481 0.1296457</float_array>
          <technique_common>
            <accessor source="#Cubo_032-mesh-map-0-array" count="216" stride="2">
              <param name="S" type="float"/>
              <param name="T" type="float"/>
            </accessor>
          </technique_common>
        </source>
        <vertices id="Cubo_032-mesh-vertices">
          <input semantic="POSITION" source="#Cubo_032-mesh-positions"/>
        </vertices>
        <triangles material="textura_batwa_General_001-material" count="72">
          <input semantic="VERTEX" source="#Cubo_032-mesh-vertices" offset="0"/>
          <input semantic="NORMAL" source="#Cubo_032-mesh-normals" offset="1"/>
          <input semantic="TEXCOORD" source="#Cubo_032-mesh-map-0" offset="2" set="0"/>
          <p>0 0 0 3 1 1 2 2 2 5 3 3 6 4 4 4 5 5 9 6 6 10 7 7 8 8 8 12 9 9 14 10 10 15 11 11 17 12 12 19 13 13 16 14 14 21 15 15 23 16 16 20 17 17 0 0 18 13 18 19 12 9 20 8 8 21 23 16 22 9 6 23 6 4 24 16 14 25 4 5 26 1 19 27 14 10 28 3 1 29 8 8 30 21 15 31 20 17 32 7 20 33 19 13 34 18 21 35 3 1 36 13 18 37 2 2 38 9 6 39 22 22 40 11 23 41 1 19 42 12 9 43 15 11 44 7 20 45 17 12 46 6 4 47 5 3 48 16 14 49 19 13 50 10 7 51 22 22 52 21 15 53 0 0 54 1 19 55 3 1 56 5 3 57 7 20 58 6 4 59 9 6 60 11 23 61 10 7 62 12 9 63 13 18 64 14 10 65 17 12 66 18 21 67 19 13 68 21 15 69 22 22 70 23 16 71 0 0 72 2 2 73 13 18 74 8 8 75 20 17 76 23 16 77 6 4 78 17 12 79 16 14 80 1 19 81 15 11 82 14 10 83 8 8 84 10 7 85 21 15 86 7 20 87 5 3 88 19 13 89 3 1 90 14 10 91 13 18 92 9 6 93 23 16 94 22 22 95 1 19 96 0 0 97 12 9 98 7 20 99 18 21 100 17 12 101 5 3 102 4 5 103 16 14 104 10 7 105 11 23 106 22 22 107 24 24 108 27 25 109 26 26 110 29 27 111 30 28 112 28 29 113 33 30 114 34 31 115 32 32 116 36 33 117 38 34 118 39 35 119 41 36 120 43 37 121 40 38 122 45 39 123 47 40 124 44 41 125 24 24 126 37 42 127 36 33 128 32 32 129 47 40 130 33 30 131 30 28 132 40 38 133 28 29 134 25 43 135 38 34 136 27 25 137 32 32 138 45 39 139 44 41 140 31 44 141 43 37 142 42 45 143 27 25 144 37 42 145 26 26 146 33 30 147 46 46 148 35 47 149 25 43 150 36 33 151 39 35 152 31 44 153 41 36 154 30 28 155 29 27 156 40 38 157 43 37 158 34 31 159 46 46 160 45 39 161 24 24 162 25 43 163 27 25 164 29 27 165 31 44 166 30 28 167 33 30 168 35 47 169 34 31 170 36 33 171 37 42 172 38 34 173 41 36 174 42 45 175 43 37 176 45 39 177 46 46 178 47 40 179 24 24 180 26 26 181 37 42 182 32 32 183 44 41 184 47 40 185 30 28 186 41 36 187 40 38 188 25 43 189 39 35 190 38 34 191 32 32 192 34 31 193 45 39 194 31 44 195 29 27 196 43 37 197 27 25 198 38 34 199 37 42 200 33 30 201 47 40 202 46 46 203 25 43 204 24 24 205 36 33 206 31 44 207 42 45 208 41 36 209 29 27 210 28 29 211 40 38 212 34 31 213 35 47 214 46 46 215</p>
        </triangles>
      </mesh>
    </geometry>
  </library_geometries>
  <library_visual_scenes>
    <visual_scene id="Scene" name="Scene">
      <node id="afri_feathers" name="afri_feathers" type="NODE">
        <matrix sid="transform">1 0 0 0 0 1 0 0 0 0 1 0 0 0 0 1</matrix>
        <instance_geometry url="#Cubo_032-mesh" name="afri_feathers">
          <bind_material>
            <technique_common>
              <instance_material symbol="textura_batwa_General_001-material" target="#textura_batwa_General_001-material">
                <bind_vertex_input semantic="Cubo_032-mesh-map-0" input_semantic="TEXCOORD" input_set="0"/>
              </instance_material>
            </technique_common>
          </bind_material>
        </instance_geometry>
      </node>
    </visual_scene>
  </library_visual_scenes>
  <scene>
    <instance_visual_scene url="#Scene"/>
  </scene>
</COLLADA>