<?xml version="1.0" encoding="utf-8"?>
<COLLADA xmlns="http://www.collada.org/2005/11/COLLADASchema" version="1.4.1" xmlns:xsi="http://www.w3.org/2001/XMLSchema-instance">
  <asset>
    <contributor>
      <author>Blender User</author>
      <authoring_tool>Blender 4.3.1 commit date:2024-12-10, commit time:07:46, hash:33d812126174</authoring_tool>
    </contributor>
    <created>2026-07-26T09:41:22</created>
    <modified>2026-07-26T09:41:22</modified>
    <unit name="meter" meter="1"/>
    <up_axis>Z_UP</up_axis>
  </asset>
  <library_effects>
    <effect id="textura_shona_General_Unidades-effect">
      <profile_COMMON>
        <newparam sid="helmet_cheetah_01_png-surface">
          <surface type="2D">
            <init_from>helmet_cheetah_01_png</init_from>
          </surface>
        </newparam>
        <newparam sid="helmet_cheetah_01_png-sampler">
          <sampler2D>
            <source>helmet_cheetah_01_png-surface</source>
          </sampler2D>
        </newparam>
        <technique sid="common">
          <lambert>
            <emission>
              <color sid="emission">0 0 0 1</color>
            </emission>
            <diffuse>
              <texture texture="helmet_cheetah_01_png-sampler" texcoord="Circle_008-mesh-map-0"/>
            </diffuse>
            <index_of_refraction>
              <float sid="ior">1.45</float>
            </index_of_refraction>
          </lambert>
        </technique>
      </profile_COMMON>
    </effect>
  </library_effects>
  <library_images>
    <image id="helmet_cheetah_01_png" name="helmet_cheetah_01_png">
      <init_from>/home/welton/snap/0ad/739/.local/share/0ad/mods/Endovelico/art/textures/skins/props/helmet/helmet_cheetah_01.png</init_from>
    </image>
  </library_images>
  <library_materials>
    <material id="textura_shona_General_Unidades-material" name="textura shona General Unidades">
      <instance_effect url="#textura_shona_General_Unidades-effect"/>
    </material>
  </library_materials>
  <library_geometries>
    <geometry id="Circle_008-mesh" name="Circle.008">
      <mesh>
        <source id="Circle_008-mesh-positions">
          <float_array id="Circle_008-mesh-positions-array" count="195">0.1882786 0.2036784 0.5950186 0.09743219 -0.3727778 0.631523 0.1132451 -0.2293123 0.6060629 0.0886498 -0.2019661 0.6597502 0.1198202 -0.3852266 0.5066296 0.1416975 -0.3367335 0.5796459 0.08597558 -0.1069691 0.6688582 0.09597635 -0.08695584 0.7013292 0.1886658 -0.03282111 0.646225 0.1572743 -0.1004192 0.6073028 0.1308431 -0.01568382 0.7295499 0.1037483 -0.3395412 0.6465945 0.2246801 0.03935372 0.5093416 0.2015081 -0.1349044 0.549457 0.1014871 -0.3809491 0.4772778 0.1417614 -0.3060726 0.4795362 0.1450996 -0.2317822 0.507319 0.2028197 0.1080859 0.5552377 0.2769869 0.1385653 0.4162286 0.2001451 0.002098023 0.2626347 0.1333042 -0.316146 0.4336075 0.1798039 -0.2190574 0.4671097 0.101486 -0.3303611 0.4326649 0.3375202 0.3151153 0.5874946 0.1882768 0.2843367 0.4964139 0.2769861 0.1807867 0.3789938 0.2608355 0.1023217 0.3546873 0 -0.3920332 0.4708521 0 -0.3727149 0.5329743 0 -0.3945957 0.5890457 0 -0.2257261 0.6915869 0 0.1464079 0.6823436 0 -0.3765822 0.6542772 0 0.00775969 0.7318428 0 -0.0993452 0.7274083 0 -0.3192999 0.6721066 0 0.317498 0.5340206 0 -0.3938567 0.6315881 -0.1882786 0.2036784 0.5950186 -0.09743219 -0.3727778 0.631523 -0.1132451 -0.2293123 0.6060629 -0.0886498 -0.2019661 0.6597502 -0.1198202 -0.3852266 0.5066296 -0.1416975 -0.3367335 0.5796459 -0.08597558 -0.1069691 0.6688582 -0.09597635 -0.08695584 0.7013292 -0.1886658 -0.03282111 0.646225 -0.1572743 -0.1004192 0.6073028 -0.1308431 -0.01568382 0.7295499 -0.1037483 -0.3395412 0.6465945 -0.2246801 0.03935372 0.5093416 -0.2015081 -0.1349044 0.549457 -0.1014871 -0.3809491 0.4772778 -0.1417614 -0.3060726 0.4795362 -0.1450996 -0.2317822 0.507319 -0.2028197 0.1080859 0.5552377 -0.2769869 0.1385653 0.4162286 -0.2001451 0.002098023 0.2626347 -0.1333042 -0.316146 0.4336075 -0.1798039 -0.2190574 0.4671097 -0.101486 -0.3303611 0.4326649 -0.3375202 0.3151153 0.5874946 -0.1882768 0.2843367 0.4964139 -0.2769861 0.1807867 0.3789938 -0.2608355 0.1023217 0.3546873</float_array>
          <technique_common>
            <accessor source="#Circle_008-mesh-positions-array" count="65" stride="3">
              <param name="X" type="float"/>
              <param name="Y" type="float"/>
              <param name="Z" type="float"/>
            </accessor>
          </technique_common>
        </source>
        <source id="Circle_008-mesh-normals">
          <float_array id="Circle_008-mesh-normals-array" count="393">0.9859141 -0.1635698 0.03490561 0.9287863 -0.3326879 -0.1633241 0.9454331 -0.3177979 -0.07183831 -0.1342537 -0.9802731 -0.1450541 0 -0.9315814 -0.3635329 0 -0.993793 -0.1112452 0.4111856 -0.1760318 0.8943932 0.4660236 -0.1712502 0.8680412 0.5336536 -0.2306214 0.8136509 0.08870458 -0.2228685 0.9708045 0.1325706 -0.1796897 0.9747495 0.2667979 -0.03986805 0.9629276 0.3396646 -0.8438122 0.4154626 0.4560627 -0.7457075 0.4857234 0.2348365 -0.8581324 0.4565749 0.6401897 -0.5324512 0.5537624 0.5973207 -0.5736026 0.5605248 0.3298466 -0.100398 0.9386808 0 -0.197176 0.9803682 0.217341 -0.2558432 0.9419698 0.3391083 -0.8831075 -0.3242326 0 -0.3296588 0.9441002 0.9836102 -0.130495 -0.1244267 0.7432459 -0.1863778 0.6425333 0.85145 -0.05042588 0.5220058 0.6047411 -0.3607633 0.7100269 0.9123858 0.1187987 0.3917132 0.9594884 -0.05651205 0.2760224 0.5649663 -0.5144244 0.6451208 0.8774476 -0.3540122 -0.3236681 0.9493538 -0.2401747 -0.2025924 0.9408974 -0.02064204 0.3380622 0.9860571 0.07156759 0.1502318 0.9103561 0.01143133 0.4136679 0.8853186 -0.04248601 0.4630399 0.9586911 -0.2658752 -0.101104 0.9724148 -0.1542745 -0.1749539 0.7705431 -0.2533516 0.5848729 0.7405786 -0.4538209 0.4955704 0.7663586 -0.4689688 0.4390477 0.4016144 -0.9072342 0.1250283 0.7510165 -0.5769525 0.3210923 0.7785308 -0.5687392 0.2653781 0.865943 0.1625596 0.4729874 0.5310244 -0.6767427 0.5099338 0.2204419 0.6323745 0.7426357 0 0.7014147 0.7127535 0 0.51238 0.8587589 0.1821422 0.8016584 -0.5693575 0.9818133 -0.1694536 -0.08560615 -0.4792432 0.6793461 0.5557112 -0.06574451 -0.9974528 0.02766966 1 0 0 0.9708582 -0.1585054 -0.1797513 0.176828 0.4041066 0.8974574 0 0.3362275 0.9417808 0.3647549 -0.8222784 0.4368206 -0.04598689 -0.34823 0.9362805 0.898313 0.1351245 0.4180613 0.7480457 0.03515857 0.6627153 0.2206806 -0.437278 0.8718302 0.9110965 0.01046752 0.4120604 0.9191826 0.06371331 0.388644 0.7670532 -0.3973882 -0.5036984 0.9093559 -0.4086771 -0.0778141 0.7860828 -0.408832 -0.4636058 0.9099459 -0.03360539 0.4133633 0.254166 0.7486115 0.6123566 0 -0.9548944 0.2969457 0.0993086 -0.9591572 0.2648684 -0.9859141 -0.1635698 0.03490561 -0.9454331 -0.3177978 -0.07183831 -0.9287863 -0.3326879 -0.1633241 0.1342537 -0.9802731 -0.1450541 -0.4111856 -0.1760318 0.8943932 -0.5336536 -0.2306214 0.8136509 -0.4660236 -0.1712502 0.8680412 -0.08870458 -0.2228685 0.9708045 -0.2667979 -0.03986805 0.9629276 -0.1325706 -0.1796897 0.9747495 -0.3396646 -0.8438122 0.4154626 -0.2348365 -0.8581324 0.4565749 -0.4560627 -0.7457075 0.4857234 -0.6401897 -0.5324512 0.5537624 -0.5973207 -0.5736026 0.5605248 -0.3298466 -0.100398 0.9386808 -0.217341 -0.2558432 0.9419698 -0.3391083 -0.8831075 -0.3242326 -0.9836102 -0.130495 -0.1244267 -0.7432459 -0.1863778 0.6425333 -0.6047411 -0.3607633 0.7100269 -0.85145 -0.05042582 0.5220058 -0.9123858 0.1187987 0.3917132 -0.9594884 -0.05651205 0.2760224 -0.5649663 -0.5144244 0.6451208 -0.8774476 -0.3540122 -0.3236681 -0.9408974 -0.02064204 0.3380622 -0.9493538 -0.2401747 -0.2025924 -0.9860571 0.07156759 0.1502318 -0.9103561 0.01143133 0.413668 -0.8853186 -0.04248601 0.4630399 -0.9586911 -0.2658752 -0.101104 -0.9724148 -0.1542745 -0.1749539 -0.7705431 -0.2533516 0.5848729 -0.7663585 -0.4689688 0.4390477 -0.7405786 -0.4538209 0.4955704 -0.4016144 -0.9072342 0.1250283 -0.7785308 -0.5687392 0.2653781 -0.7510165 -0.5769525 0.3210923 -0.865943 0.1625596 0.4729874 -0.5310244 -0.6767427 0.5099338 -0.2204419 0.6323745 0.7426358 -0.1821422 0.8016584 -0.5693575 -0.9818133 -0.1694536 -0.08560615 0.4792432 0.6793461 0.5557112 0.06574451 -0.9974528 0.02766966 -0.9708582 -0.1585054 -0.1797513 -0.176828 0.4041066 0.8974574 -0.3647549 -0.8222784 0.4368206 0.04598689 -0.34823 0.9362805 -0.7480457 0.03515857 0.6627153 -0.898313 0.1351245 0.4180613 -0.2206806 -0.437278 0.8718302 -0.9191826 0.06371331 0.388644 -0.9110965 0.01046752 0.4120604 -0.7670532 -0.3973882 -0.5036984 -0.9093559 -0.4086771 -0.0778141 -0.7860828 -0.408832 -0.4636058 -0.9099459 -0.03360539 0.4133633 -0.254166 0.7486115 0.6123566 -0.0993086 -0.9591572 0.2648684</float_array>
          <technique_common>
            <accessor source="#Circle_008-mesh-normals-array" count="131" stride="3">
              <param name="X" type="float"/>
              <param name="Y" type="float"/>
              <param name="Z" type="float"/>
            </accessor>
          </technique_common>
        </source>
        <source id="Circle_008-mesh-map-0">
          <float_array id="Circle_008-mesh-map-0-array" count="654">0.7729521 0.5960696 1.008477 0.2547547 1.076526 0.477426 0.5644525 0.2706431 0.5077042 0.3293318 0.5076871 0.270398 0.5076871 0.5819738 0.579524 0.6865003 0.5077605 0.7904397 0.5898491 0.7963687 0.5079144 0.988359 0.5077605 0.7904397 0.579524 0.6865003 0.5898491 0.7963687 0.5077605 0.7904397 0.6694284 0.9226821 0.5898491 0.7963687 0.8717777 0.7700961 0.5695831 0.5872557 0.507692 0.445896 0.5377693 0.4107844 0.5812556 0.3504297 0.5325605 0.3802224 0.5077042 0.3293318 0.5077826 0.3901608 0.5377693 0.4107844 0.507692 0.445896 0.616021 0.502373 0.5377693 0.4107844 0.5325605 0.3802224 0.579524 0.6865003 0.616021 0.502373 0.7729521 0.5960696 0.8717777 0.7700961 0.7729521 0.5960696 0.8739494 0.6130482 0.579524 0.6865003 0.7729521 0.5960696 0.7077767 0.6612568 0.5644525 0.2706431 0.6390994 0.2806944 0.5812556 0.3504297 0.6934459 0.3953663 0.5812556 0.3504297 0.6390994 0.2806944 0.9877343 0.7807848 0.8739494 0.6130482 1.060804 0.6168591 1.060804 0.6168591 1.076526 0.477426 1.13692 0.6278653 0.6390994 0.2806944 0.761067 0.3590806 0.6934459 0.3953663 0.6390994 0.2806944 0.5983447 0.1560573 0.6522732 0.2189183 0.6934459 0.3953663 0.7729521 0.5960696 0.616021 0.502373 0.9877343 0.7807848 0.6694284 0.9226821 0.8717777 0.7700961 1.001216 0.9470304 1.060804 0.6168591 1.063959 0.8001932 1.065641 0.4104171 1.110387 0.6107624 0.9796151 0.6108657 1.063959 0.8001932 1.13692 0.6278653 1.114855 0.9729968 1.076526 0.477426 0.8739494 0.6130482 0.7729521 0.5960696 0.7729521 0.5960696 0.761067 0.3590806 1.008477 0.2547547 1.114855 0.9729968 1.001216 0.9470304 1.063959 0.8001932 0.5076871 0.270398 0.5560447 0.2304599 0.5644525 0.2706431 0.7077767 0.6612568 0.5898491 0.7963687 0.579524 0.6865003 0.5077042 0.3293318 0.5077826 0.3901608 0.502038 0.367833 1.060804 0.6168591 1.13692 0.6278653 1.063959 0.8001932 0.885145 0.4873643 0.9796151 0.6108657 0.8964456 0.6109346 0.5644525 0.2706431 0.5812556 0.3504297 0.5077042 0.3293318 0.5076871 0.5819738 0.5695831 0.5872557 0.579524 0.6865003 0.5898491 0.7963687 0.6694284 0.9226821 0.5079144 0.988359 0.5695831 0.5872557 0.5076871 0.5819738 0.507692 0.445896 0.5812556 0.3504297 0.616021 0.502373 0.5325605 0.3802224 0.5077826 0.3901608 0.5325605 0.3802224 0.5377693 0.4107844 0.616021 0.502373 0.5695831 0.5872557 0.5377693 0.4107844 0.579524 0.6865003 0.5695831 0.5872557 0.616021 0.502373 0.8717777 0.7700961 0.7077767 0.6612568 0.7729521 0.5960696 0.5644525 0.2706431 0.5560447 0.2304599 0.6390994 0.2806944 0.6934459 0.3953663 0.616021 0.502373 0.5812556 0.3504297 0.9877343 0.7807848 0.8717777 0.7700961 0.8739494 0.6130482 1.060804 0.6168591 0.8739494 0.6130482 1.076526 0.477426 0.6390994 0.2806944 0.6522732 0.2189183 0.761067 0.3590806 0.6390994 0.2806944 0.5560447 0.2304599 0.5983447 0.1560573 0.6934459 0.3953663 0.761067 0.3590806 0.7729521 0.5960696 0.9877343 0.7807848 1.001216 0.9470304 0.6694284 0.9226821 1.001216 0.9470304 0.9877343 0.7807848 1.060804 0.6168591 1.065641 0.4104171 1.107286 0.4044727 1.110387 0.6107624 0.5076871 0.270398 0.507709 0.2216368 0.5560447 0.2304599 0.7077767 0.6612568 0.8717777 0.7700961 0.5898491 0.7963687 0.5077042 0.3293318 0.5325605 0.3802224 0.5077826 0.3901608 0.885145 0.4873643 1.065641 0.4104171 0.9796151 0.6108657 0.7729521 0.5960696 1.076526 0.477426 1.008477 0.2547547 0.5644525 0.2706431 0.5076871 0.270398 0.5077042 0.3293318 0.5076871 0.5819738 0.5077605 0.7904397 0.579524 0.6865003 0.5898491 0.7963687 0.5077605 0.7904397 0.5079144 0.988359 0.579524 0.6865003 0.5077605 0.7904397 0.5898491 0.7963687 0.6694284 0.9226821 0.8717777 0.7700961 0.5898491 0.7963687 0.5695831 0.5872557 0.5377693 0.4107844 0.507692 0.445896 0.5812556 0.3504297 0.5077042 0.3293318 0.5325605 0.3802224 0.5077826 0.3901608 0.507692 0.445896 0.5377693 0.4107844 0.616021 0.502373 0.5325605 0.3802224 0.5377693 0.4107844 0.579524 0.6865003 0.7729521 0.5960696 0.616021 0.502373 0.8717777 0.7700961 0.8739494 0.6130482 0.7729521 0.5960696 0.579524 0.6865003 0.7077767 0.6612568 0.7729521 0.5960696 0.5644525 0.2706431 0.5812556 0.3504297 0.6390994 0.2806944 0.6934459 0.3953663 0.6390994 0.2806944 0.5812556 0.3504297 0.9877343 0.7807848 1.060804 0.6168591 0.8739494 0.6130482 1.060804 0.6168591 1.13692 0.6278653 1.076526 0.477426 0.6390994 0.2806944 0.6934459 0.3953663 0.761067 0.3590806 0.6390994 0.2806944 0.6522732 0.2189183 0.5983447 0.1560573 0.6934459 0.3953663 0.616021 0.502373 0.7729521 0.5960696 0.9877343 0.7807848 0.8717777 0.7700961 0.6694284 0.9226821 1.001216 0.9470304 1.063959 0.8001932 1.060804 0.6168591 1.065641 0.4104171 0.9796151 0.6108657 1.110387 0.6107624 1.063959 0.8001932 1.114855 0.9729968 1.13692 0.6278653 1.076526 0.477426 0.7729521 0.5960696 0.8739494 0.6130482 0.7729521 0.5960696 1.008477 0.2547547 0.761067 0.3590806 1.114855 0.9729968 1.063959 0.8001932 1.001216 0.9470304 0.5076871 0.270398 0.5644525 0.2706431 0.5560447 0.2304599 0.7077767 0.6612568 0.579524 0.6865003 0.5898491 0.7963687 1.060804 0.6168591 1.063959 0.8001932 1.13692 0.6278653 0.885145 0.4873643 0.8964456 0.6109346 0.9796151 0.6108657 0.5644525 0.2706431 0.5077042 0.3293318 0.5812556 0.3504297 0.5076871 0.5819738 0.579524 0.6865003 0.5695831 0.5872557 0.5898491 0.7963687 0.5079144 0.988359 0.6694284 0.9226821 0.5695831 0.5872557 0.507692 0.445896 0.5076871 0.5819738 0.5812556 0.3504297 0.5325605 0.3802224 0.616021 0.502373 0.5077826 0.3901608 0.5377693 0.4107844 0.5325605 0.3802224 0.616021 0.502373 0.5377693 0.4107844 0.5695831 0.5872557 0.579524 0.6865003 0.616021 0.502373 0.5695831 0.5872557 0.8717777 0.7700961 0.7729521 0.5960696 0.7077767 0.6612568 0.5644525 0.2706431 0.6390994 0.2806944 0.5560447 0.2304599 0.6934459 0.3953663 0.5812556 0.3504297 0.616021 0.502373 0.9877343 0.7807848 0.8739494 0.6130482 0.8717777 0.7700961 1.060804 0.6168591 1.076526 0.477426 0.8739494 0.6130482 0.6390994 0.2806944 0.761067 0.3590806 0.6522732 0.2189183 0.6390994 0.2806944 0.5983447 0.1560573 0.5560447 0.2304599 0.6934459 0.3953663 0.7729521 0.5960696 0.761067 0.3590806 0.9877343 0.7807848 0.6694284 0.9226821 1.001216 0.9470304 1.001216 0.9470304 1.060804 0.6168591 0.9877343 0.7807848 1.065641 0.4104171 1.110387 0.6107624 1.107286 0.4044727 0.5076871 0.270398 0.5560447 0.2304599 0.507709 0.2216368 0.7077767 0.6612568 0.5898491 0.7963687 0.8717777 0.7700961 0.5077042 0.3293318 0.5077826 0.3901608 0.5325605 0.3802224 0.885145 0.4873643 0.9796151 0.6108657 1.065641 0.4104171</float_array>
          <technique_common>
            <accessor source="#Circle_008-mesh-map-0-array" count="327" stride="2">
              <param name="S" type="float"/>
              <param name="T" type="float"/>
            </accessor>
          </technique_common>
        </source>
        <vertices id="Circle_008-mesh-vertices">
          <input semantic="POSITION" source="#Circle_008-mesh-positions"/>
        </vertices>
        <triangles material="textura_shona_General_Unidades-material" count="109">
          <input semantic="VERTEX" source="#Circle_008-mesh-vertices" offset="0"/>
          <input semantic="NORMAL" source="#Circle_008-mesh-normals" offset="1"/>
          <input semantic="TEXCOORD" source="#Circle_008-mesh-map-0" offset="2" set="0"/>
          <p>13 0 0 19 1 1 26 2 2 4 3 3 29 4 4 28 5 5 30 6 6 6 7 7 34 8 8 7 9 9 33 10 10 34 11 11 6 12 12 7 13 13 34 14 14 10 15 15 7 13 16 8 16 17 3 17 18 35 18 19 11 19 20 5 20 21 1 20 22 29 20 23 32 21 24 11 19 25 35 18 26 2 22 27 11 22 28 1 22 29 6 23 30 2 24 31 13 25 32 8 26 33 13 0 34 12 27 35 6 23 36 13 25 37 9 28 38 4 29 39 15 30 40 5 31 41 16 32 42 5 31 43 15 30 44 17 33 45 12 27 46 18 34 47 18 35 48 26 2 49 25 36 50 15 37 51 21 38 52 16 39 53 15 40 54 22 40 55 20 40 56 16 39 57 13 41 58 2 42 59 17 33 60 10 43 61 8 26 62 0 44 63 18 44 64 23 44 65 0 45 66 36 46 67 31 47 68 23 48 69 25 48 70 24 48 71 26 2 72 12 27 73 13 0 74 13 0 75 21 49 76 19 1 77 24 50 78 0 50 79 23 50 80 28 5 81 14 51 82 4 3 83 9 28 84 7 13 85 6 12 86 29 52 87 32 52 88 37 52 89 18 35 90 25 36 91 23 53 92 10 54 93 31 47 94 33 55 95 4 56 96 5 56 97 29 56 98 30 6 99 3 17 100 6 7 101 7 9 102 10 57 103 33 10 104 3 17 105 30 6 106 35 18 107 5 31 108 2 58 109 1 59 110 32 21 111 1 60 112 11 19 113 2 24 114 3 61 115 11 62 116 6 23 117 3 61 118 2 24 119 8 16 120 9 28 121 13 25 122 4 29 123 14 63 124 15 30 125 16 32 126 2 58 127 5 31 128 17 33 129 8 26 130 12 27 131 18 35 132 12 27 133 26 2 134 15 64 135 20 64 136 21 64 137 15 30 138 14 63 139 22 65 140 16 39 141 21 38 142 13 41 143 17 33 144 0 66 145 10 43 146 0 66 147 17 33 148 18 34 149 0 45 150 24 67 151 36 46 152 28 5 153 27 68 154 14 51 155 9 28 156 8 16 157 7 13 158 29 69 159 1 69 160 32 69 161 10 54 162 0 45 163 31 47 164 51 70 165 64 71 166 57 72 167 42 73 168 28 5 169 29 4 170 30 74 171 34 75 172 44 76 173 45 77 174 34 78 175 33 79 176 44 80 177 34 81 178 45 82 179 48 83 180 46 84 181 45 82 182 41 85 183 49 86 184 35 18 185 43 87 186 29 87 187 39 87 188 32 21 189 35 18 190 49 86 191 40 88 192 39 88 193 49 88 194 44 89 195 51 90 196 40 91 197 46 92 198 50 93 199 51 70 200 44 89 201 47 94 202 51 90 203 42 95 204 43 96 205 53 97 206 54 98 207 53 97 208 43 96 209 55 99 210 56 100 211 50 93 212 56 101 213 63 102 214 64 71 215 53 103 216 54 104 217 59 105 218 53 106 219 58 106 220 60 106 221 54 104 222 40 107 223 51 108 224 55 99 225 46 92 226 48 109 227 38 110 228 61 110 229 56 110 230 38 111 231 31 47 232 36 46 233 61 112 234 62 112 235 63 112 236 64 71 237 51 70 238 50 93 239 51 70 240 57 72 241 59 113 242 62 114 243 61 114 244 38 114 245 28 5 246 42 73 247 52 115 248 47 94 249 44 80 250 45 82 251 56 101 252 61 116 253 63 102 254 48 117 255 33 55 256 31 47 257 42 118 258 29 118 259 43 118 260 30 74 261 44 76 262 41 85 263 45 77 264 33 79 265 48 119 266 41 85 267 35 18 268 30 74 269 43 96 270 39 120 271 40 121 272 32 21 273 49 86 274 39 122 275 40 91 276 49 123 277 41 124 278 44 89 279 40 91 280 41 124 281 46 84 282 51 90 283 47 94 284 42 95 285 53 97 286 52 125 287 54 98 288 43 96 289 40 121 290 55 99 291 50 93 292 46 92 293 56 101 294 64 71 295 50 93 296 53 126 297 59 126 298 58 126 299 53 97 300 60 127 301 52 125 302 54 104 303 51 108 304 59 105 305 55 99 306 48 109 307 38 128 308 38 128 309 56 100 310 55 99 311 38 111 312 36 46 313 62 129 314 28 5 315 52 115 316 27 68 317 47 94 318 45 82 319 46 84 320 29 130 321 32 130 322 39 130 323 48 117 324 31 47 325 38 111 326</p>
        </triangles>
      </mesh>
    </geometry>
  </library_geometries>
  <library_visual_scenes>
    <visual_scene id="Scene" name="Scene">
      <node id="leopardo_003" name="leopardo.003" type="NODE">
        <matrix sid="transform">1 0 0 0 0 1 0 0 0 0 1 0 0 0 0 1</matrix>
        <instance_geometry url="#Circle_008-mesh" name="leopardo.003">
          <bind_material>
            <technique_common>
              <instance_material symbol="textura_shona_General_Unidades-material" target="#textura_shona_General_Unidades-material">
                <bind_vertex_input semantic="Circle_008-mesh-map-0" input_semantic="TEXCOORD" input_set="0"/>
              </instance_material>
            </technique_common>
          </bind_material>
        </instance_geometry>
      </node>
    </visual_scene>
  </library_visual_scenes>
  <scene>
    <instance_visual_scene url="#Scene"/>
  </scene>
</COLLADA>