<?xml version="1.0" encoding="utf-8"?>
<COLLADA xmlns="http://www.collada.org/2005/11/COLLADASchema" version="1.4.1" xmlns:xsi="http://www.w3.org/2001/XMLSchema-instance">
  <asset>
    <contributor>
      <author>Blender User</author>
      <authoring_tool>Blender 4.3.1 commit date:2024-12-10, commit time:07:46, hash:33d812126174</authoring_tool>
    </contributor>
    <created>2026-08-08T11:06:59</created>
    <modified>2026-08-08T11:06:59</modified>
    <unit name="meter" meter="1"/>
    <up_axis>Z_UP</up_axis>
  </asset>
  <library_effects>
    <effect id="guepardo-effect">
      <profile_COMMON>
        <newparam sid="_124026877_texturaguepardo_png_10c14d416af3198d29bd8ffb8fc747ed-surface">
          <surface type="2D">
            <init_from>_124026877_texturaguepardo_png_10c14d416af3198d29bd8ffb8fc747ed</init_from>
          </surface>
        </newparam>
        <newparam sid="_124026877_texturaguepardo_png_10c14d416af3198d29bd8ffb8fc747ed-sampler">
          <sampler2D>
            <source>_124026877_texturaguepardo_png_10c14d416af3198d29bd8ffb8fc747ed-surface</source>
          </sampler2D>
        </newparam>
        <technique sid="common">
          <lambert>
            <emission>
              <color sid="emission">0 0 0 1</color>
            </emission>
            <diffuse>
              <texture texture="_124026877_texturaguepardo_png_10c14d416af3198d29bd8ffb8fc747ed-sampler" texcoord="UVMap"/>
            </diffuse>
            <index_of_refraction>
              <float sid="ior">1.45</float>
            </index_of_refraction>
          </lambert>
        </technique>
      </profile_COMMON>
    </effect>
  </library_effects>
  <library_images>
    <image id="_124026877_texturaguepardo_png_10c14d416af3198d29bd8ffb8fc747ed" name="_124026877_texturaguepardo_png_10c14d416af3198d29bd8ffb8fc747ed">
      <init_from>/home/welton/Downloads/2124026877_texturaguepardo.png.10c14d416af3198d29bd8ffb8fc747ed.png</init_from>
    </image>
  </library_images>
  <library_materials>
    <material id="guepardo-material" name="guepardo">
      <instance_effect url="#guepardo-effect"/>
    </material>
  </library_materials>
  <library_geometries>
    <geometry id="Circle_009-mesh" name="Circle.009">
      <mesh>
        <source id="Circle_009-mesh-positions">
          <float_array id="Circle_009-mesh-positions-array" count="450">0.07821416 0.4848826 -1.236304 0.1974976 0.3047667 0.6916318 0.07953363 -0.3979019 0.6318011 0.1000675 -0.2266889 0.6320322 0.06813251 -0.2061645 0.6997895 0.108604 -0.3864637 0.484762 0.1370092 -0.3454782 0.5792523 0.06466144 -0.1292279 0.7488403 0.07764643 -0.1127966 0.79054 0.1979965 -0.03878009 0.7380018 0.1572371 -0.1089175 0.6789951 0.1229184 -0.03619539 0.8379281 0.08773481 -0.3625754 0.6561103 0.2447605 0.07302284 0.5946007 0.2146709 -0.1368396 0.6049509 0.08480036 -0.375443 0.4516959 0.1370938 -0.2893016 0.4697991 0.1414288 -0.2298318 0.4732864 0.2163768 0.2697202 0.5849755 0.3126786 0.2070432 0.5074232 0.2129065 0.08096945 0.3015282 0.1864898 -0.1860809 0.473428 0.340027 0.3613159 0.7181583 0.1974974 0.3590688 0.6303306 0.3126785 0.263584 0.4730888 0.2917075 0.1778527 0.42874 0.2150502 0.4288998 0.5397387 0.2534212 0.3613654 0.4828124 0.246533 0.2923802 0.3692103 0.2258756 0.03980064 0.183124 0.2183504 0.4273445 0.3588903 0.3919164 0.3194957 -0.5505977 0.198691 0.5071355 -0.374197 0.1927127 0.4861677 -0.008349895 0.3332477 0.4374019 -0.06312751 0.3321519 0.3300848 -0.644023 0.1422623 0.517364 -0.6873589 0.4079096 0.3732772 -0.887332 0.3483963 0.3449524 -1.074747 0.2553965 0.4811692 -0.8090282 0.08013498 0.3907826 -1.203656 0.08013504 0.4865656 -1.072408 0.2272999 0.4572761 0.1430282 0.3000685 0.03652751 0.0413475 0.07683676 0.4742684 -1.313699 0.07549023 0.4609218 -1.421473 0.05803692 0.4452322 -2.347557 0.1997221 0.5104418 -0.2036786 0.3981174 0.2428908 -0.3841734 0.341356 0.1673274 -0.1914901 0.2807542 0.1204999 -0.05888557 0.2215405 0.051041 0.1137022 0.2195376 0.4450524 0.254014 0.07600545 0.4561019 -1.495895 0.0734741 0.4480498 -1.579823 0.06186318 0.4591386 -2.260242 0.357489 -0.5365722 -0.7026787 -0.00126183 0.5688214 -1.357467 -0.07821953 0.4848826 -1.236304 -0.197501 0.3047664 0.6916318 -0.0795359 -0.3979021 0.6318011 -0.1000701 -0.2266892 0.6320322 -0.06813508 -0.2061648 0.6997895 -0.1086063 -0.3864639 0.484762 -0.1370116 -0.3454784 0.5792523 -0.06466412 -0.1292279 0.7488403 -0.07764911 -0.1127969 0.79054 -0.1979994 -0.03878033 0.7380018 -0.1572399 -0.1089178 0.6789951 -0.1229211 -0.03619563 0.8379281 -0.08773714 -0.3625757 0.6561103 -0.2447637 0.07302236 0.5946007 -0.2146737 -0.1368401 0.6049509 -0.08480286 -0.3754432 0.4516959 -0.1370964 -0.2893019 0.4697991 -0.1414315 -0.229832 0.4732864 -0.2163804 0.2697197 0.5849755 -0.312682 0.2070428 0.5074236 -0.2129099 0.08096897 0.3015282 -0.1864926 -0.1860811 0.473428 -0.3400306 0.3613151 0.7181587 -0.1975011 0.3590685 0.6303306 -0.3126821 0.2635836 0.4730892 -0.291711 0.1778522 0.4287405 -0.2150541 0.4288993 0.5397387 -0.253425 0.361365 0.4828124 -0.2465368 0.2923797 0.3692103 -0.2258791 0.03980016 0.183124 -0.2183544 0.427344 0.3588903 -0.391921 0.3194952 -0.5505972 -0.1986958 0.5071353 -0.374197 -0.1927171 0.4861674 -0.008349895 -0.333252 0.4374014 -0.06312704 -0.3321565 0.3300843 -0.6440225 -0.1422674 0.5173636 -0.6873589 -0.4079146 0.3732762 -0.8873315 -0.3484013 0.3449519 -1.074747 -0.2554016 0.4811688 -0.8090282 -0.08014023 0.3907826 -1.203656 -0.08014029 0.4865656 -1.072408 -0.2273042 0.4572756 0.1430282 -0.3000721 0.03652703 0.04134798 -0.07684224 0.4742684 -1.313699 -0.07549571 0.4609218 -1.421473 -0.05804318 0.4452322 -2.347557 -0.1997267 0.5104416 -0.2036786 -0.3981217 0.2428901 -0.3841724 -0.34136 0.1673266 -0.1914896 -0.280758 0.1204994 -0.05888557 -0.2215441 0.05104053 0.1137022 -0.2195417 0.4450519 0.254014 -0.076011 0.4561019 -1.495895 -0.07347971 0.4480498 -1.579823 -0.06186938 0.4591386 -2.260242 -0.3574922 -0.5365727 -0.7026782 0.001256167 0.5688214 -1.357467 -1.2374e-6 -0.3869332 0.4419694 -2.66313e-6 0.3555865 -1.410337 -1.21416e-6 -0.37744 0.5178223 -1.15651e-6 -0.4143499 0.5781529 -2.8446e-6 0.553278 -1.427961 -3.05545e-6 0.3588426 -2.34511 -3.2096e-6 0.5299029 -2.353469 -3.17334e-6 0.4438818 -2.448307 -1.2459e-6 -0.2402327 0.7316985 -1.56388e-6 0.1610639 0.8168578 -1.12999e-6 -0.407009 0.6573327 -1.4017e-6 -0.00955069 0.8454292 -1.30476e-6 -0.132521 0.8181415 -1.17157e-6 -0.344439 0.6898069 -1.82195e-6 0.3896488 0.6806886 -1.94676e-6 0.4745905 0.5606928 -2.03443e-6 0.514248 0.4341021 -2.40147e-6 0.5597125 -0.350759 -2.21526e-6 0.5557784 0.08786678 -2.53e-6 0.5541914 -0.6709414 -2.5774e-6 0.5372481 -0.8205242 -2.58504e-6 0.3612282 -1.210971 -2.70823e-6 0.5423112 -1.123842 -2.13694e-6 0.525415 0.2116575 -2.32696e-6 0.553834 -0.1843342 -2.08169e-6 0.5083348 0.3081722 -2.86895e-6 0.5457778 -1.502275 -2.61539e-6 0.3712339 -1.262684 -2.89778e-6 0.5387254 -1.586393 -3.01895e-6 0.3609276 -2.2531 -3.1869e-6 0.5450688 -2.26692 -1.12895e-6 -0.4222962 0.6275148 -2.69699e-6 0.3552635 -1.492294 -2.72372e-6 0.3449891 -1.578182</float_array>
          <technique_common>
            <accessor source="#Circle_009-mesh-positions-array" count="150" stride="3">
              <param name="X" type="float"/>
              <param name="Y" type="float"/>
              <param name="Z" type="float"/>
            </accessor>
          </technique_common>
        </source>
        <source id="Circle_009-mesh-normals">
          <float_array id="Circle_009-mesh-normals-array" count="444">-6.00944e-7 0.9987969 0.04904073 0.3433237 0.9352408 0.086335 0.4584645 0.8885934 -0.01456642 0.9998562 0.005122125 -0.01616448 6.56617e-7 -0.9999927 0.003823816 0.9979518 0.05791527 -0.02717 0.7999637 0.5895092 0.1119687 -9.62136e-7 0.9806544 0.1957473 -1.02256e-6 0.9967419 0.0806573 8.1396e-7 -0.9980923 0.0617401 0.9997627 0.01501667 -0.01578891 5.03421e-7 -0.9984272 0.05606406 0.8453189 -0.4763886 0.2418468 0.9697607 -0.2279369 -0.08722966 0.9307066 -0.1708363 -0.3234199 0.5470846 -0.7885786 -0.2807888 0.04401779 -0.9889563 -0.1415207 1.08624e-6 -0.9530243 -0.3028938 7.68981e-7 -0.4606423 0.8875859 0.5321213 -0.7047922 0.4691641 3.41813e-7 -0.5260386 0.8504608 0.3880082 -0.7230861 0.571486 -2.76619e-7 -0.07450431 0.9972207 0.4439559 -0.2408732 0.8630662 0.8344805 -0.2831621 0.4727174 0.7161427 -0.282034 0.6384328 5.58721e-7 -0.3486958 0.937236 0.7965173 -0.3230616 0.5110689 0.8899695 -0.3622775 0.2769643 0.5774515 -0.7754417 0.2554214 0.07560193 -0.8110085 0.5801289 0.847049 -0.284447 0.4489967 0.9438593 -0.02849376 0.3291167 0.5301934 -0.6368196 0.5597819 0.9745312 -0.1705501 -0.1456078 0.9115599 -0.3843259 0.146124 0.648506 -0.463905 0.6035165 0.9403657 -0.2878403 0.1812738 0.930891 0.2581813 -0.258427 0.4649156 0.247623 0.8500215 0.6310019 0.3477936 0.6934524 -4.05613e-7 0.6996908 0.7144458 -3.10037e-7 0.3496723 0.9368721 0.2962822 0.849425 0.4366853 0.921706 0.1758981 -0.345714 0.9049811 0.4220442 0.05373972 0.8717978 -0.4898543 -0.003399431 -8.46307e-7 0.8911109 0.4537858 0.7804834 0.6247013 -0.02437639 0.6353666 0.6978018 0.3307296 -1.01967e-6 0.9960844 0.08840841 0.8863732 0.446495 0.1224128 0.5393164 0.8420612 -0.008433222 0.9996345 -0.01851946 -0.01969742 -5.79396e-7 0.9999977 -0.00219196 0.7430922 0.6690998 -0.01092863 0.3973888 0.9175791 -0.01143974 -1.40625e-6 0.9982021 -0.0599386 0.4907468 0.8701294 0.04519581 0.4395137 0.8303474 -0.3425651 0.5477368 0.8170518 -0.18003 0.5578699 0.8281375 -0.05449259 0.834415 0.5297141 0.1521669 -9.86601e-7 0.9948885 -0.1009797 -2.78136e-7 0.9997444 0.02260804 0.9079086 -0.08100688 -0.4112664 -9.32723e-7 0.9986046 -0.05281031 0.7579989 0.6494053 -0.0609135 0.9913781 0.06870466 -0.1115754 0.9653857 -0.02952015 -0.2591506 0.7155449 0.6930587 -0.08755165 0.9168707 -0.02564114 0.39836 0.7465469 0.6220339 0.2360967 -5.47595e-7 0.9138505 -0.4060511 -3.07775e-7 0.9966503 -0.08178228 0.2840912 -0.8884699 -0.360435 -9.72406e-7 0.9964573 -0.08410137 -8.1321e-7 0.9887 -0.1499079 3.71278e-7 -0.9608248 -0.2771565 -4.83198e-7 -0.0210371 -0.9997787 0.9995023 0.02993476 -0.009958028 6.79151e-7 -0.998914 0.04659378 0.9087758 0.4172828 -0.001389265 1 8.8081e-7 -4.16628e-7 0.9768772 -0.1374517 0.1637622 0.8613523 -0.151587 0.4848645 -8.06719e-7 0.9930706 0.1175196 4.20017e-7 -0.9595716 -0.2814647 2.00592e-7 -0.9817914 -0.1899626 -0.3433251 0.9352401 0.08633589 -0.4584661 0.8885926 -0.014566 -0.9998564 0.005120933 -0.0161637 -0.7999649 0.5895077 0.1119693 -0.7465477 0.6220325 0.2360979 -0.9997627 0.01501548 -0.01578795 -0.9995024 0.02993345 -0.009957313 -0.8453178 -0.4763903 0.2418475 -0.9307069 -0.1708379 -0.323418 -0.9697604 -0.2279385 -0.08722847 -0.5470836 -0.7885797 -0.2807878 -0.5321192 -0.7047945 0.4691632 -0.716142 -0.2820346 0.6384334 -0.3880066 -0.7230879 0.5714849 -0.4439554 -0.2408737 0.8630663 -0.8344798 -0.283163 0.472718 -0.7965162 -0.3230631 0.5110697 -0.5774498 -0.775443 0.255421 -0.8899688 -0.3622788 0.276965 -0.8470483 -0.2844482 0.4489973 -0.9438589 -0.0284956 0.3291175 -0.5301921 -0.6368201 0.5597825 -0.974531 -0.1705521 -0.1456066 -0.2840899 -0.8884706 -0.3604344 -0.911559 -0.3843278 0.1461242 -0.6485038 -0.4639061 0.603518 -0.940365 -0.2878416 0.1812757 -0.464914 0.2476219 0.8500227 -0.6310015 0.347791 0.6934541 -0.296284 0.8494243 0.4366853 -0.9308919 0.2581796 -0.2584254 -0.9217067 0.1758959 -0.3457129 -0.8717969 -0.4898558 -0.003400027 -0.7804844 0.6246998 -0.02437585 -0.9049817 0.4220429 0.0537399 -0.6353678 0.6978008 0.3307294 -0.5393175 0.8420602 -0.008432924 -0.8863741 0.4464929 0.1224136 -0.9996345 -0.01852107 -0.01969665 -0.3973907 0.9175783 -0.01143938 -0.7430931 0.6690989 -0.01092833 -0.9168699 -0.02564275 0.3983618 -0.4907481 0.8701285 0.04519629 -0.547738 0.8170511 -0.1800294 -0.4395161 0.8303467 -0.3425641 -0.5578725 0.8281359 -0.05449122 -0.8344157 0.5297126 0.152168 -0.9079086 -0.08100891 -0.4112656 -0.9979519 0.05791419 -0.02716928 -0.7579995 0.6494046 -0.06091314 -0.965386 -0.02952122 -0.2591497 -0.7155458 0.6930576 -0.08755242 -0.8613509 -0.1515884 0.4848665 1.32717e-6 -0.9922592 0.1241846 -0.9087763 0.4172816 -0.00138849 -0.9913784 0.06870347 -0.1115744 -0.9768767 -0.137454 0.163763 0.5224986 -0.7004672 -0.4861492 -0.5225005 -0.7004663 -0.4861484</float_array>
          <technique_common>
            <accessor source="#Circle_009-mesh-normals-array" count="148" stride="3">
              <param name="X" type="float"/>
              <param name="Y" type="float"/>
              <param name="Z" type="float"/>
            </accessor>
          </technique_common>
        </source>
        <source id="Circle_009-mesh-map-0">
          <float_array id="Circle_009-mesh-map-0-array" count="1542">0.5553566 0.3752651 0.6046457 0.2668026 0.5941791 0.3768083 0.5337211 0.8655387 0.5476502 0.961278 0.5268985 0.9539766 0.5900669 0.1485165 0.5553362 0.1771306 0.5553337 0.1497526 0.5585573 0.8553627 0.5345417 0.8435047 0.5598971 0.8438459 0.275536 0.8240079 0.3366686 0.7787507 0.3481791 0.8275772 0.2376536 0.7817083 0.2225862 0.7908124 0.2228358 0.7812597 0.2215861 0.8328446 0.238381 0.8536632 0.2207919 0.863295 0.2395287 0.8647885 0.2199724 0.8953783 0.2207919 0.863295 0.238381 0.8536632 0.2395287 0.8647885 0.2207919 0.863295 0.2558497 0.8856517 0.2395287 0.8647885 0.2634537 0.8614176 0.2374395 0.8341346 0.2220847 0.8097072 0.2337403 0.8042947 0.2396153 0.7947234 0.2331493 0.7993155 0.2225862 0.7908124 0.2223412 0.8006733 0.2337403 0.8042947 0.2220847 0.8097072 0.2437739 0.8206019 0.2337403 0.8042947 0.2331493 0.7993155 0.238381 0.8536632 0.2437739 0.8206019 0.275536 0.8240079 0.2634537 0.8614176 0.275536 0.8240079 0.3095113 0.8485738 0.238381 0.8536632 0.275536 0.8240079 0.255386 0.8429443 0.2376536 0.7817083 0.2474582 0.7803601 0.2396153 0.7947234 0.2542931 0.7958977 0.2396153 0.7947234 0.2474582 0.7803601 0.3301846 0.8763181 0.3095113 0.8485738 0.3446257 0.8501021 0.3446257 0.8501021 0.3481791 0.8275772 0.3588899 0.8522576 0.2542931 0.7958977 0.275536 0.8240079 0.2437739 0.8206019 0.2634537 0.8614176 0.3320072 0.9033317 0.2558497 0.8856517 0.3673315 0.8927547 0.3301846 0.8763181 0.3446257 0.8501021 0.2520375 0.8942249 0.3321669 0.9041852 0.3058149 0.9327855 0.344435 0.8798357 0.3588899 0.8522576 0.3532631 0.9080951 0.5996829 0.1118618 0.6119178 0.1265888 0.5877951 0.1242336 0.3481791 0.8275772 0.3095113 0.8485738 0.275536 0.8240079 0.275536 0.8240079 0.2745537 0.7927872 0.3366686 0.7787507 0.3532631 0.9080951 0.3320072 0.9033317 0.344435 0.8798357 0.5645664 0.1147277 0.555332 0.1265291 0.555331 0.113873 0.5877951 0.1242336 0.5847907 0.1399211 0.5716226 0.1243156 0.5645664 0.1147277 0.5877951 0.1242336 0.5716226 0.1243156 0.5716226 0.1243156 0.5553332 0.1429371 0.555332 0.1265291 0.6895722 0.3890918 0.5930379 0.4057414 0.5941791 0.3768083 0.5827483 0.4533379 0.5858669 0.509145 0.6396639 0.454113 0.5941791 0.3768083 0.5553584 0.4046933 0.5553566 0.3752651 0.6856052 0.4130908 0.5822954 0.5042119 0.5930379 0.4057414 0.6399739 0.138341 0.5900669 0.1485165 0.5847907 0.1399211 0.5930379 0.4057414 0.5553603 0.5039281 0.5553584 0.4046933 0.5846648 0.5792266 0.6255304 0.5947372 0.5700688 0.6031126 0.6255304 0.5947372 0.5846648 0.5792266 0.667064 0.5347678 0.6971578 0.2365032 0.5941791 0.3768083 0.6046457 0.2668026 0.555357 0.5806789 0.5700688 0.6031126 0.5553587 0.6090658 0.5834225 0.6182991 0.5700688 0.6031126 0.6255304 0.5947372 0.5268985 0.9539766 0.5108366 0.8651553 0.5337211 0.8655387 0.5345417 0.8435047 0.5112907 0.7459017 0.5375238 0.7468967 0.5476502 0.961278 0.5232561 0.9637987 0.5268985 0.9539766 0.6762078 0.4733751 0.5846648 0.5792266 0.5822954 0.5042119 0.5686252 0.3979836 0.6650604 0.4461708 0.6396639 0.454113 0.6509178 0.1465752 0.5878064 0.176721 0.5900669 0.1485165 0.5268985 0.9539766 0.5101598 0.960527 0.5102246 0.9518642 0.2228358 0.7812597 0.2366713 0.7751538 0.2376536 0.7817083 0.255386 0.8429443 0.2395287 0.8647885 0.238381 0.8536632 0.5847907 0.1399211 0.5553337 0.1497526 0.5553332 0.1429371 0.5345417 0.8435047 0.5108987 0.8534536 0.5109211 0.8430703 0.5372135 0.9740273 0.5100331 0.9773357 0.5232561 0.9637987 0.5340313 0.8538708 0.5108366 0.8651553 0.5108987 0.8534536 0.5337211 0.8655387 0.5585573 0.8553627 0.5581611 0.8675681 0.5380405 0.7345507 0.5274961 0.7124723 0.5576514 0.7232753 0.6396639 0.454113 0.6492443 0.2767024 0.7047694 0.3342667 0.5232561 0.9637987 0.5100331 0.9773357 0.5101598 0.960527 0.2225862 0.7908124 0.2223412 0.8006733 0.2213565 0.7970258 0.3446257 0.8501021 0.3588899 0.8522576 0.344435 0.8798357 0.5274961 0.7124723 0.5380405 0.7345507 0.5115401 0.7234822 0.5380405 0.7345507 0.5112907 0.7459017 0.5115401 0.7234822 0.5375238 0.7468967 0.5598971 0.8438459 0.5345417 0.8435047 0.5822954 0.5042119 0.555357 0.5806789 0.5553603 0.5039281 0.6971578 0.2365032 0.7702196 0.2497687 0.6895722 0.3890918 0.6971578 0.2365032 0.5878064 0.176721 0.6604481 0.166825 0.555346 0.267752 0.5878064 0.176721 0.6046457 0.2668026 0.2207316 0.9443962 0.3058149 0.9327855 0.2435401 0.9719478 0.6604481 0.166825 0.7702196 0.2497687 0.6971578 0.2365032 0.5576514 0.7232753 0.5375238 0.7468967 0.5380405 0.7345507 0.5632422 0.7491672 0.5576514 0.7232753 0.5751364 0.7283145 0.6046457 0.2668026 0.5553566 0.3752651 0.5941791 0.3768083 0.5337211 0.8655387 0.5476502 0.961278 0.5581611 0.8675681 0.5900669 0.1485165 0.5553362 0.1771306 0.5878064 0.176721 0.5585573 0.8553627 0.5345417 0.8435047 0.5340313 0.8538708 0.275536 0.8240079 0.3481791 0.8275772 0.3366686 0.7787507 0.2225862 0.7908124 0.2376536 0.7817083 0.2228358 0.7812597 0.2215861 0.8328446 0.238381 0.8536632 0.2374395 0.8341346 0.2199724 0.8953783 0.2395287 0.8647885 0.2207919 0.863295 0.238381 0.8536632 0.2207919 0.863295 0.2395287 0.8647885 0.2558497 0.8856517 0.2634537 0.8614176 0.2395287 0.8647885 0.2220847 0.8097072 0.2374395 0.8341346 0.2337403 0.8042947 0.2331493 0.7993155 0.2396153 0.7947234 0.2225862 0.7908124 0.2223412 0.8006733 0.2337403 0.8042947 0.2331493 0.7993155 0.2437739 0.8206019 0.2337403 0.8042947 0.2374395 0.8341346 0.238381 0.8536632 0.2437739 0.8206019 0.2374395 0.8341346 0.275536 0.8240079 0.2634537 0.8614176 0.3095113 0.8485738 0.238381 0.8536632 0.255386 0.8429443 0.275536 0.8240079 0.2376536 0.7817083 0.2474582 0.7803601 0.2366713 0.7751538 0.2542931 0.7958977 0.2396153 0.7947234 0.2437739 0.8206019 0.3301846 0.8763181 0.3095113 0.8485738 0.2634537 0.8614176 0.3446257 0.8501021 0.3481791 0.8275772 0.3095113 0.8485738 0.275536 0.8240079 0.2542931 0.7958977 0.2437739 0.8206019 0.2634537 0.8614176 0.3320072 0.9033317 0.3301846 0.8763181 0.3673315 0.8927547 0.3301846 0.8763181 0.3320072 0.9033317 0.3321669 0.9041852 0.2520375 0.8942249 0.3058149 0.9327855 0.344435 0.8798357 0.3532631 0.9080951 0.3588899 0.8522576 0.5996829 0.1118618 0.6119178 0.1265888 0.6121911 0.1084585 0.3481791 0.8275772 0.275536 0.8240079 0.3095113 0.8485738 0.275536 0.8240079 0.3366686 0.7787507 0.2745537 0.7927872 0.3532631 0.9080951 0.344435 0.8798357 0.3320072 0.9033317 0.555332 0.1265291 0.5645664 0.1147277 0.555331 0.113873 0.5847907 0.1399211 0.5877951 0.1242336 0.5716226 0.1243156 0.5645664 0.1147277 0.5877951 0.1242336 0.5996829 0.1118618 0.5553332 0.1429371 0.5716226 0.1243156 0.555332 0.1265291 0.5930379 0.4057414 0.6895722 0.3890918 0.5941791 0.3768083 0.5827483 0.4533379 0.6396639 0.454113 0.5858669 0.509145 0.5553584 0.4046933 0.5941791 0.3768083 0.5553566 0.3752651 0.5822954 0.5042119 0.6856052 0.4130908 0.5930379 0.4057414 0.6399739 0.138341 0.5900669 0.1485165 0.6509178 0.1465752 0.5553603 0.5039281 0.5930379 0.4057414 0.5553584 0.4046933 0.5846648 0.5792266 0.5700688 0.6031126 0.6255304 0.5947372 0.6255304 0.5947372 0.667064 0.5347678 0.5846648 0.5792266 0.6971578 0.2365032 0.5941791 0.3768083 0.6895722 0.3890918 0.555357 0.5806789 0.5700688 0.6031126 0.5846648 0.5792266 0.5834225 0.6182991 0.6255304 0.5947372 0.5700688 0.6031126 0.5268985 0.9539766 0.5108366 0.8651553 0.5102246 0.9518642 0.5345417 0.8435047 0.5112907 0.7459017 0.5109211 0.8430703 0.5232561 0.9637987 0.5476502 0.961278 0.5268985 0.9539766 0.5846648 0.5792266 0.6762078 0.4733751 0.5822954 0.5042119 0.5686252 0.3979836 0.6396639 0.454113 0.6650604 0.4461708 0.6509178 0.1465752 0.5878064 0.176721 0.6604481 0.166825 0.5101598 0.960527 0.5268985 0.9539766 0.5102246 0.9518642 0.2228358 0.7812597 0.2366713 0.7751538 0.2231341 0.770014 0.2395287 0.8647885 0.255386 0.8429443 0.238381 0.8536632 0.5847907 0.1399211 0.5553337 0.1497526 0.5900669 0.1485165 0.5108987 0.8534536 0.5345417 0.8435047 0.5109211 0.8430703 0.5372135 0.9740273 0.5232561 0.9637987 0.5100331 0.9773357 0.5108366 0.8651553 0.5340313 0.8538708 0.5108987 0.8534536 0.5585573 0.8553627 0.5337211 0.8655387 0.5581611 0.8675681 0.5380405 0.7345507 0.5576514 0.7232753 0.5274961 0.7124723 0.6396639 0.454113 0.7047694 0.3342667 0.6492443 0.2767024 0.5232561 0.9637987 0.5101598 0.960527 0.5100331 0.9773357 0.2225862 0.7908124 0.2223412 0.8006733 0.2331493 0.7993155 0.3446257 0.8501021 0.344435 0.8798357 0.3588899 0.8522576 0.5274961 0.7124723 0.5115401 0.7234822 0.5380405 0.7345507 0.5112907 0.7459017 0.5380405 0.7345507 0.5115401 0.7234822 0.5375238 0.7468967 0.5598971 0.8438459 0.5632422 0.7491672 0.5822954 0.5042119 0.555357 0.5806789 0.5846648 0.5792266 0.6971578 0.2365032 0.6895722 0.3890918 0.7702196 0.2497687 0.6971578 0.2365032 0.5878064 0.176721 0.6046457 0.2668026 0.5878064 0.176721 0.555346 0.267752 0.6046457 0.2668026 0.2207316 0.9443962 0.3058149 0.9327855 0.2520375 0.8942249 0.6604481 0.166825 0.7702196 0.2497687 0.6896535 0.173368 0.5375238 0.7468967 0.5576514 0.7232753 0.5380405 0.7345507 0.5632422 0.7491672 0.5751364 0.7283145 0.5576514 0.7232753 0.5553566 0.3752651 0.555346 0.267752 0.6046457 0.2668026 0.5337211 0.8655387 0.5581611 0.8675681 0.5476502 0.961278 0.5900669 0.1485165 0.5878064 0.176721 0.5553362 0.1771306 0.5585573 0.8553627 0.5340313 0.8538708 0.5345417 0.8435047 0.2376536 0.7817083 0.2396153 0.7947234 0.2225862 0.7908124 0.2215861 0.8328446 0.2374395 0.8341346 0.238381 0.8536632 0.2395287 0.8647885 0.2558497 0.8856517 0.2199724 0.8953783 0.2374395 0.8341346 0.2215861 0.8328446 0.2220847 0.8097072 0.2396153 0.7947234 0.2437739 0.8206019 0.2331493 0.7993155 0.2223412 0.8006733 0.2331493 0.7993155 0.2337403 0.8042947 0.2437739 0.8206019 0.2374395 0.8341346 0.2337403 0.8042947 0.238381 0.8536632 0.2374395 0.8341346 0.2437739 0.8206019 0.2634537 0.8614176 0.255386 0.8429443 0.275536 0.8240079 0.2376536 0.7817083 0.2366713 0.7751538 0.2474582 0.7803601 0.2542931 0.7958977 0.2437739 0.8206019 0.2396153 0.7947234 0.3301846 0.8763181 0.2634537 0.8614176 0.3095113 0.8485738 0.3446257 0.8501021 0.3095113 0.8485738 0.3481791 0.8275772 0.2542931 0.7958977 0.2745537 0.7927872 0.275536 0.8240079 0.2634537 0.8614176 0.3301846 0.8763181 0.3320072 0.9033317 0.3673315 0.8927547 0.3320072 0.9033317 0.3301846 0.8763181 0.2520375 0.8942249 0.2559126 0.8851606 0.3321669 0.9041852 0.5996829 0.1118618 0.6121911 0.1084585 0.6119178 0.1265888 0.5645664 0.1147277 0.5716226 0.1243156 0.555332 0.1265291 0.5877951 0.1242336 0.6119178 0.1265888 0.5847907 0.1399211 0.5645664 0.1147277 0.5996829 0.1118618 0.5877951 0.1242336 0.5716226 0.1243156 0.5847907 0.1399211 0.5553332 0.1429371 0.6895722 0.3890918 0.6856052 0.4130908 0.5930379 0.4057414 0.5941791 0.3768083 0.5930379 0.4057414 0.5553584 0.4046933 0.6856052 0.4130908 0.6762078 0.4733751 0.5822954 0.5042119 0.6399739 0.138341 0.6509178 0.1465752 0.5900669 0.1485165 0.5930379 0.4057414 0.5822954 0.5042119 0.5553603 0.5039281 0.6971578 0.2365032 0.6895722 0.3890918 0.5941791 0.3768083 0.555357 0.5806789 0.5846648 0.5792266 0.5700688 0.6031126 0.5268985 0.9539766 0.5102246 0.9518642 0.5108366 0.8651553 0.5345417 0.8435047 0.5109211 0.8430703 0.5112907 0.7459017 0.5476502 0.961278 0.5372135 0.9740273 0.5232561 0.9637987 0.6762078 0.4733751 0.667064 0.5347678 0.5846648 0.5792266 0.6509178 0.1465752 0.6604481 0.166825 0.5878064 0.176721 0.5268985 0.9539766 0.5232561 0.9637987 0.5101598 0.960527 0.2228358 0.7812597 0.2231341 0.770014 0.2366713 0.7751538 0.255386 0.8429443 0.2634537 0.8614176 0.2395287 0.8647885 0.5847907 0.1399211 0.5900669 0.1485165 0.5553337 0.1497526 0.5345417 0.8435047 0.5340313 0.8538708 0.5108987 0.8534536 0.5340313 0.8538708 0.5337211 0.8655387 0.5108366 0.8651553 0.5337211 0.8655387 0.5340313 0.8538708 0.5585573 0.8553627 0.2225862 0.7908124 0.2331493 0.7993155 0.2223412 0.8006733 0.5380405 0.7345507 0.5375238 0.7468967 0.5112907 0.7459017 0.5375238 0.7468967 0.5632422 0.7491672 0.5598971 0.8438459 0.5822954 0.5042119 0.5846648 0.5792266 0.555357 0.5806789 0.6971578 0.2365032 0.6046457 0.2668026 0.5878064 0.176721 0.555346 0.267752 0.5553362 0.1771306 0.5878064 0.176721 0.2207316 0.9443962 0.2520375 0.8942249 0.3058149 0.9327855 0.6604481 0.166825 0.6896535 0.173368 0.7702196 0.2497687 0.5576514 0.7232753 0.5632422 0.7491672 0.5375238 0.7468967 0.6046457 0.2668026 0.555346 0.267752 0.5553566 0.3752651 0.5337211 0.8655387 0.5268985 0.9539766 0.5476502 0.961278 0.5900669 0.1485165 0.5553337 0.1497526 0.5553362 0.1771306 0.5585573 0.8553627 0.5598971 0.8438459 0.5345417 0.8435047 0.2225862 0.7908124 0.2396153 0.7947234 0.2376536 0.7817083 0.2215861 0.8328446 0.2207919 0.863295 0.238381 0.8536632 0.2199724 0.8953783 0.2558497 0.8856517 0.2395287 0.8647885 0.2220847 0.8097072 0.2215861 0.8328446 0.2374395 0.8341346 0.2331493 0.7993155 0.2437739 0.8206019 0.2396153 0.7947234 0.2223412 0.8006733 0.2220847 0.8097072 0.2337403 0.8042947 0.2437739 0.8206019 0.2331493 0.7993155 0.2337403 0.8042947 0.238381 0.8536632 0.275536 0.8240079 0.2437739 0.8206019 0.275536 0.8240079 0.255386 0.8429443 0.2634537 0.8614176 0.2376536 0.7817083 0.2396153 0.7947234 0.2474582 0.7803601 0.2542931 0.7958977 0.2474582 0.7803601 0.2396153 0.7947234 0.3301846 0.8763181 0.3446257 0.8501021 0.3095113 0.8485738 0.3446257 0.8501021 0.3588899 0.8522576 0.3481791 0.8275772 0.275536 0.8240079 0.2745537 0.7927872 0.2542931 0.7958977 0.2634537 0.8614176 0.2558497 0.8856517 0.3320072 0.9033317 0.3673315 0.8927547 0.3446257 0.8501021 0.3301846 0.8763181 0.3321669 0.9041852 0.2559126 0.8851606 0.2520375 0.8942249 0.5996829 0.1118618 0.5877951 0.1242336 0.6119178 0.1265888 0.555332 0.1265291 0.5716226 0.1243156 0.5645664 0.1147277 0.5847907 0.1399211 0.6119178 0.1265888 0.5877951 0.1242336 0.5645664 0.1147277 0.5716226 0.1243156 0.5877951 0.1242336 0.5553332 0.1429371 0.5847907 0.1399211 0.5716226 0.1243156 0.5930379 0.4057414 0.6856052 0.4130908 0.6895722 0.3890918 0.5553584 0.4046933 0.5930379 0.4057414 0.5941791 0.3768083 0.5822954 0.5042119 0.6762078 0.4733751 0.6856052 0.4130908 0.6399739 0.138341 0.5847907 0.1399211 0.5900669 0.1485165 0.5553603 0.5039281 0.5822954 0.5042119 0.5930379 0.4057414 0.6971578 0.2365032 0.6046457 0.2668026 0.5941791 0.3768083 0.555357 0.5806789 0.5553587 0.6090658 0.5700688 0.6031126 0.5268985 0.9539766 0.5337211 0.8655387 0.5108366 0.8651553 0.5345417 0.8435047 0.5375238 0.7468967 0.5112907 0.7459017 0.5232561 0.9637987 0.5372135 0.9740273 0.5476502 0.961278 0.5846648 0.5792266 0.667064 0.5347678 0.6762078 0.4733751 0.6509178 0.1465752 0.5900669 0.1485165 0.5878064 0.176721 0.5101598 0.960527 0.5232561 0.9637987 0.5268985 0.9539766 0.2228358 0.7812597 0.2376536 0.7817083 0.2366713 0.7751538 0.2395287 0.8647885 0.2634537 0.8614176 0.255386 0.8429443 0.5847907 0.1399211 0.5553332 0.1429371 0.5553337 0.1497526 0.5108987 0.8534536 0.5340313 0.8538708 0.5345417 0.8435047 0.5108366 0.8651553 0.5337211 0.8655387 0.5340313 0.8538708 0.5585573 0.8553627 0.5340313 0.8538708 0.5337211 0.8655387 0.5112907 0.7459017 0.5375238 0.7468967 0.5380405 0.7345507 0.5375238 0.7468967 0.5345417 0.8435047 0.5598971 0.8438459 0.5822954 0.5042119 0.5553603 0.5039281 0.555357 0.5806789 0.6971578 0.2365032 0.6604481 0.166825 0.5878064 0.176721 0.5878064 0.176721 0.5553362 0.1771306 0.555346 0.267752 0.2207316 0.9443962 0.2435401 0.9719478 0.3058149 0.9327855 0.6604481 0.166825 0.6971578 0.2365032 0.7702196 0.2497687 0.5375238 0.7468967 0.5632422 0.7491672 0.5576514 0.7232753</float_array>
          <technique_common>
            <accessor source="#Circle_009-mesh-map-0-array" count="771" stride="2">
              <param name="S" type="float"/>
              <param name="T" type="float"/>
            </accessor>
          </technique_common>
        </source>
        <vertices id="Circle_009-mesh-vertices">
          <input semantic="POSITION" source="#Circle_009-mesh-positions"/>
        </vertices>
        <triangles material="guepardo-material" count="257">
          <input semantic="VERTEX" source="#Circle_009-mesh-vertices" offset="0"/>
          <input semantic="NORMAL" source="#Circle_009-mesh-normals" offset="1"/>
          <input semantic="TEXCOORD" source="#Circle_009-mesh-map-0" offset="2" set="0"/>
          <p>140 0 0 33 1 1 47 2 2 54 3 3 145 4 4 55 5 5 52 6 6 139 7 7 141 8 8 148 9 9 45 10 10 117 11 11 14 12 12 20 13 13 25 14 14 5 15 15 119 16 16 118 17 17 124 18 18 7 19 19 128 20 20 8 21 21 127 22 22 128 20 23 7 19 24 8 21 25 128 20 26 11 23 27 8 21 28 9 24 29 4 25 30 129 26 31 12 27 32 6 28 33 2 29 34 119 16 35 126 30 36 12 27 37 129 26 38 3 31 39 12 27 40 2 29 41 7 19 42 3 31 43 14 12 44 9 24 45 14 12 46 13 32 47 7 19 48 14 12 49 10 33 50 5 15 51 16 34 52 6 28 53 17 35 54 6 28 55 16 34 56 18 36 57 13 32 58 19 37 59 19 37 60 25 14 61 24 38 62 17 35 63 14 12 64 3 31 65 9 24 66 1 39 67 11 23 68 22 40 69 18 36 70 19 37 71 1 39 72 130 41 73 125 42 74 22 40 75 24 38 76 23 43 77 24 38 78 28 44 79 27 45 80 25 14 81 13 32 82 14 12 83 14 12 84 21 46 85 20 13 86 23 43 87 1 39 88 22 40 89 23 43 90 131 47 91 130 41 92 27 45 93 30 48 94 26 49 95 23 43 96 27 45 97 26 49 98 26 49 99 132 50 100 131 47 101 48 51 102 32 52 103 47 2 104 29 53 105 28 44 106 20 13 107 47 2 108 133 54 109 140 0 110 31 55 111 36 56 112 32 52 113 29 53 114 52 6 115 30 48 116 32 52 117 135 57 118 133 54 119 39 58 120 38 59 121 41 60 122 38 59 123 39 58 124 37 61 125 34 62 126 47 2 127 33 1 128 136 63 129 41 60 130 138 64 131 40 65 132 41 60 133 38 59 134 55 5 135 144 66 136 54 3 137 45 10 138 57 67 139 44 68 140 145 4 141 46 69 142 55 5 143 35 70 144 39 58 145 36 56 146 29 53 147 30 48 148 28 44 149 51 71 150 42 72 151 52 6 152 55 5 153 122 73 154 146 74 155 118 17 156 15 75 157 5 15 158 10 33 159 8 21 160 7 19 161 30 48 162 141 8 163 132 50 164 45 10 165 142 76 166 120 77 167 121 78 168 123 79 169 46 69 170 53 80 171 144 66 172 142 76 173 54 3 174 148 9 175 149 81 176 0 82 177 41 60 178 40 65 179 20 13 180 28 44 181 25 14 182 46 69 183 123 79 184 122 73 185 119 16 186 126 30 187 147 83 188 19 37 189 24 38 190 22 40 191 41 60 192 0 82 193 138 64 194 0 82 195 57 67 196 138 64 197 44 68 198 117 11 199 45 10 200 36 56 201 136 63 202 135 57 203 34 62 204 49 84 205 48 51 206 34 62 207 42 72 208 43 85 209 134 86 210 42 72 211 33 1 212 11 23 213 125 42 214 127 22 215 43 85 216 49 84 217 34 62 218 40 65 219 44 68 220 0 82 221 143 87 222 40 65 223 137 88 224 91 89 225 140 0 226 105 90 227 112 91 228 145 4 229 149 81 230 110 92 231 139 7 232 100 93 233 148 9 234 103 94 235 111 95 236 72 96 237 83 97 238 78 98 239 119 16 240 63 99 241 118 17 242 124 18 243 65 100 244 62 101 245 127 22 246 66 102 247 128 20 248 65 100 249 128 20 250 66 102 251 69 103 252 67 104 253 66 102 254 129 26 255 62 101 256 70 105 257 60 106 258 64 107 259 119 16 260 126 30 261 70 105 262 60 106 263 61 108 264 70 105 265 62 101 266 65 100 267 61 108 268 62 101 269 72 96 270 67 104 271 71 109 272 65 100 273 68 110 274 72 96 275 63 99 276 74 111 277 73 112 278 75 113 279 64 107 280 61 108 281 76 114 282 71 109 283 67 104 284 77 115 285 83 97 286 71 109 287 72 96 288 75 113 289 61 108 290 67 104 291 59 116 292 76 114 293 80 117 294 76 114 295 59 116 296 130 41 297 59 116 298 125 42 299 80 117 300 81 118 301 82 119 302 82 119 303 86 120 304 83 97 305 83 97 306 72 96 307 71 109 308 72 96 309 78 98 310 79 121 311 81 118 312 80 117 313 59 116 314 131 47 315 81 118 316 130 41 317 88 122 318 85 123 319 84 124 320 81 118 321 85 123 322 82 119 323 132 50 324 84 124 325 131 47 326 90 125 327 106 126 328 105 90 329 87 127 330 78 98 331 86 120 332 133 54 333 105 90 334 140 0 335 94 128 336 89 129 337 90 125 338 87 127 339 110 92 340 109 130 341 135 57 342 90 125 343 133 54 344 97 131 345 99 132 346 96 133 347 96 133 348 95 134 349 97 131 350 92 135 351 105 90 352 106 126 353 136 63 354 99 132 355 97 131 356 98 136 357 96 133 358 99 132 359 113 137 360 144 66 361 146 74 362 103 94 363 115 138 364 120 77 365 104 139 366 145 4 367 113 137 368 97 131 369 93 140 370 94 128 371 87 127 372 86 120 373 88 122 374 109 130 375 100 93 376 101 141 377 122 73 378 113 137 379 146 74 380 118 17 381 73 112 382 116 142 383 66 102 384 68 110 385 65 100 386 88 122 387 141 8 388 110 92 389 142 76 390 103 94 391 120 77 392 121 78 393 104 139 394 123 79 395 144 66 396 111 95 397 142 76 398 148 9 399 112 91 400 149 81 401 58 143 402 98 136 403 99 132 404 78 98 405 83 97 406 86 120 407 104 139 408 122 73 409 123 79 410 119 16 411 126 30 412 60 106 413 77 115 414 80 117 415 82 119 416 99 132 417 138 64 418 58 143 419 115 138 420 58 143 421 138 64 422 102 144 423 117 11 424 143 87 425 94 128 426 136 63 427 97 131 428 92 135 429 106 126 430 107 145 431 92 135 432 100 93 433 91 89 434 100 93 435 134 86 436 91 89 437 69 103 438 125 42 439 59 116 440 101 141 441 107 145 442 108 146 443 102 144 444 98 136 445 58 143 446 143 87 447 137 88 448 98 136 449 140 0 450 134 86 451 33 1 452 54 3 453 149 81 454 145 4 455 52 6 456 42 72 457 139 7 458 148 9 459 53 80 460 45 10 461 5 15 462 6 28 463 119 16 464 124 18 465 4 25 466 7 19 467 8 21 468 11 23 469 127 22 470 4 25 471 124 18 472 129 26 473 6 28 474 3 31 475 2 29 476 126 30 477 2 29 478 12 27 479 3 31 480 4 25 481 12 27 482 7 19 483 4 25 484 3 31 485 9 24 486 10 33 487 14 12 488 5 15 489 15 75 490 16 34 491 17 35 492 3 31 493 6 28 494 18 36 495 9 24 496 13 32 497 19 37 498 13 32 499 25 14 500 17 35 501 21 46 502 14 12 503 9 24 504 18 36 505 1 39 506 22 40 507 1 39 508 18 36 509 1 39 510 23 43 511 130 41 512 24 38 513 25 14 514 28 44 515 23 43 516 26 49 517 131 47 518 27 45 519 28 44 520 30 48 521 23 43 522 24 38 523 27 45 524 26 49 525 30 48 526 132 50 527 48 51 528 31 55 529 32 52 530 47 2 531 32 52 532 133 54 533 31 55 534 35 70 535 36 56 536 29 53 537 51 71 538 52 6 539 32 52 540 36 56 541 135 57 542 34 62 543 48 51 544 47 2 545 136 63 546 39 58 547 41 60 548 55 5 549 146 74 550 144 66 551 45 10 552 120 77 553 57 67 554 145 4 555 121 78 556 46 69 557 35 70 558 37 61 559 39 58 560 51 71 561 43 85 562 42 72 563 55 5 564 46 69 565 122 73 566 118 17 567 116 142 568 15 75 569 10 33 570 9 24 571 8 21 572 30 48 573 52 6 574 141 8 575 45 10 576 53 80 577 142 76 578 53 80 579 54 3 580 144 66 581 54 3 582 53 80 583 148 9 584 119 16 585 2 29 586 126 30 587 0 82 588 44 68 589 57 67 590 44 68 591 143 87 592 117 11 593 36 56 594 39 58 595 136 63 596 34 62 597 33 1 598 42 72 599 134 86 600 139 7 601 42 72 602 11 23 603 1 39 604 125 42 605 43 85 606 50 147 607 49 84 608 40 65 609 143 87 610 44 68 611 91 89 612 134 86 613 140 0 614 112 91 615 113 137 616 145 4 617 110 92 618 141 8 619 139 7 620 148 9 621 117 11 622 103 94 623 119 16 624 64 107 625 63 99 626 124 18 627 128 20 628 65 100 629 127 22 630 69 103 631 66 102 632 129 26 633 124 18 634 62 101 635 60 106 636 61 108 637 64 107 638 126 30 639 129 26 640 70 105 641 61 108 642 60 106 643 70 105 644 65 100 645 72 96 646 61 108 647 72 96 648 68 110 649 67 104 650 63 99 651 64 107 652 74 111 653 75 113 654 74 111 655 64 107 656 76 114 657 77 115 658 71 109 659 77 115 660 82 119 661 83 97 662 72 96 663 79 121 664 75 113 665 67 104 666 69 103 667 59 116 668 80 117 669 77 115 670 76 114 671 130 41 672 81 118 673 59 116 674 82 119 675 85 123 676 86 120 677 131 47 678 84 124 679 81 118 680 88 122 681 86 120 682 85 123 683 81 118 684 84 124 685 85 123 686 132 50 687 88 122 688 84 124 689 90 125 690 89 129 691 106 126 692 133 54 693 90 125 694 105 90 695 94 128 696 93 140 697 89 129 698 87 127 699 88 122 700 110 92 701 135 57 702 94 128 703 90 125 704 92 135 705 91 89 706 105 90 707 136 63 708 138 64 709 99 132 710 113 137 711 112 91 712 144 66 713 103 94 714 102 144 715 115 138 716 104 139 717 121 78 718 145 4 719 97 131 720 95 134 721 93 140 722 109 130 723 110 92 724 100 93 725 122 73 726 104 139 727 113 137 728 118 17 729 63 99 730 73 112 731 66 102 732 67 104 733 68 110 734 88 122 735 132 50 736 141 8 737 142 76 738 111 95 739 103 94 740 144 66 741 112 91 742 111 95 743 148 9 744 111 95 745 112 91 746 115 138 747 102 144 748 58 143 749 102 144 750 103 94 751 117 11 752 94 128 753 135 57 754 136 63 755 92 135 756 101 141 757 100 93 758 100 93 759 139 7 760 134 86 761 69 103 762 127 22 763 125 42 764 101 141 765 92 135 766 107 145 767 102 144 768 143 87 769 98 136 770</p>
        </triangles>
      </mesh>
    </geometry>
  </library_geometries>
  <library_visual_scenes>
    <visual_scene id="Scene" name="Scene">
      <node id="a-helmet_cheetah" name="a-helmet_cheetah" type="NODE">
        <matrix sid="transform">1 0 0 0 0 1 0 0 0 0 1 0 0 0 0 1</matrix>
        <instance_geometry url="#Circle_009-mesh" name="a-helmet_cheetah">
          <bind_material>
            <technique_common>
              <instance_material symbol="guepardo-material" target="#guepardo-material">
                <bind_vertex_input semantic="UVMap" input_semantic="TEXCOORD" input_set="0"/>
              </instance_material>
            </technique_common>
          </bind_material>
        </instance_geometry>
      </node>
    </visual_scene>
  </library_visual_scenes>
  <scene>
    <instance_visual_scene url="#Scene"/>
  </scene>
</COLLADA>