<?xml version="1.0" encoding="utf-8"?>
<COLLADA xmlns="http://www.collada.org/2005/11/COLLADASchema" version="1.4.1" xmlns:xsi="http://www.w3.org/2001/XMLSchema-instance">
  <asset>
    <contributor>
      <author>Blender User</author>
      <authoring_tool>Blender 4.3.1 commit date:2024-12-10, commit time:07:46, hash:33d812126174</authoring_tool>
    </contributor>
    <created>2026-08-08T11:07:51</created>
    <modified>2026-08-08T11:07:51</modified>
    <unit name="meter" meter="1"/>
    <up_axis>Z_UP</up_axis>
  </asset>
  <library_effects>
    <effect id="text_león-effect">
      <profile_COMMON>
        <newparam sid="_37802845_texturalendegaetul_png_7f0eb6c01f51f1cf095366cadff00b-surface">
          <surface type="2D">
            <init_from>_37802845_texturalendegaetul_png_7f0eb6c01f51f1cf095366cadff00b</init_from>
          </surface>
        </newparam>
        <newparam sid="_37802845_texturalendegaetul_png_7f0eb6c01f51f1cf095366cadff00b-sampler">
          <sampler2D>
            <source>_37802845_texturalendegaetul_png_7f0eb6c01f51f1cf095366cadff00b-surface</source>
          </sampler2D>
        </newparam>
        <technique sid="common">
          <lambert>
            <emission>
              <color sid="emission">0 0 0 1</color>
            </emission>
            <diffuse>
              <texture texture="_37802845_texturalendegaetul_png_7f0eb6c01f51f1cf095366cadff00b-sampler" texcoord="Cylinder_001-mesh-map-channel1"/>
            </diffuse>
            <index_of_refraction>
              <float sid="ior">1.45</float>
            </index_of_refraction>
          </lambert>
        </technique>
      </profile_COMMON>
    </effect>
  </library_effects>
  <library_images>
    <image id="_37802845_texturalendegaetul_png_7f0eb6c01f51f1cf095366cadff00b" name="_37802845_texturalendegaetul_png_7f0eb6c01f51f1cf095366cadff00b">
      <init_from>/home/welton/Downloads/937802845_texturalendegaetul.png.7f0eb6c01f51f1cf095366cadff00b67.png</init_from>
    </image>
  </library_images>
  <library_materials>
    <material id="text_león-material" name="text león">
      <instance_effect url="#text_león-effect"/>
    </material>
  </library_materials>
  <library_geometries>
    <geometry id="mesh_012-mesh" name="mesh.012">
      <mesh>
        <source id="mesh_012-mesh-positions">
          <float_array id="mesh_012-mesh-positions-array" count="159">-0.1909272 0.6345155 -0.4177029 -0.3675523 0.4316557 -0.4407239 -0.5203235 0.4433024 -0.06115317 -0.1967055 0.6854754 -0.4224961 -0.342464 0.1968984 -0.1576728 -0.1993465 0.6694496 -0.4194102 -0.4569125 0.4104755 -0.3031528 -0.1631896 0.253643 -0.4724321 -0.3400986 0.2317147 -0.3292832 -0.1933913 0.09694099 0.768235 -0.06294798 0.08169078 0.8214378 -0.2721307 0.1369173 0.5550118 -0.279587 0.2094018 0.2865217 6.19888e-6 0.06776142 0.8675399 -0.177777 0.7244074 -0.4290161 -0.4738381 0.4569955 0.3333943 -0.4549162 0.3953939 0.2160115 -0.227364 0.2342197 0.04914522 -0.421576 0.3620899 0.4271054 -0.1118865 0.7501016 -0.433202 -0.2892532 0.6525476 0.6220033 -0.3041952 0.4027188 0.7152555 6.19888e-6 0.2073657 0.9240902 -0.06326961 0.7740307 -0.4352322 -0.1457285 0.64746 0.7759318 -0.1607787 0.3062387 0.8687177 4.29153e-6 0.4323149 0.9097321 4.29153e-6 0.7341526 0.7237735 5.48363e-6 0.8130925 -0.4354742 0.1607737 0.3062387 0.8687177 0.1457242 0.64746 0.7759318 0.06327581 0.7740307 -0.4352322 0.3041909 0.4027188 0.7152555 0.2892478 0.6525476 0.6220033 0.1118927 0.7501016 -0.433202 0.4215722 0.3620899 0.4271054 0.2273614 0.2342197 0.04914522 0.4549117 0.3953939 0.2160115 0.4738331 0.4569955 0.3333943 0.1777832 0.7244074 -0.4290161 0.2795837 0.2094018 0.2865217 0.2721276 0.1369204 0.5550118 0.06294322 0.08169078 0.8214378 0.1933858 0.09694099 0.768235 0.3400936 0.2317147 -0.3292832 0.1631851 0.253643 -0.4724321 0.4569082 0.4104757 -0.3031528 0.1993527 0.6694496 -0.4194102 0.3424594 0.1968986 -0.1576728 0.1967115 0.6854758 -0.4224961 0.5203185 0.4433024 -0.06115365 0.3675468 0.4316561 -0.4407244 0.1909329 0.6345155 -0.4177029</float_array>
          <technique_common>
            <accessor source="#mesh_012-mesh-positions-array" count="53" stride="3">
              <param name="X" type="float"/>
              <param name="Y" type="float"/>
              <param name="Z" type="float"/>
            </accessor>
          </technique_common>
        </source>
        <source id="mesh_012-mesh-normals">
          <float_array id="mesh_012-mesh-normals-array" count="159">-0.4971457 -0.3437569 0.7966664 6.80558e-5 -0.3754423 0.9268458 2.93198e-5 -0.2514002 0.9678833 -0.8899045 -0.4042169 0.2113734 -0.8397677 0.02090328 0.5425434 -0.912176 -0.3290902 0.244202 -0.9710507 0.1735753 0.1641104 -0.7780637 -0.6276745 0.02533251 -0.9975547 0.06857275 0.01350891 -0.6556916 -0.7489383 0.09570854 -0.7285664 -0.671182 -0.1367693 -0.9263191 0.01204621 -0.3765473 -0.4056478 0.01431304 -0.9139175 -0.8007472 0.1114596 -0.5885412 -0.2963815 -0.1299869 -0.9461826 -0.4842276 0.87284 0.06061381 -0.3906275 0.9192656 0.04858922 -0.408807 0.6462728 0.6443667 -0.6053452 0.7252225 0.3280389 1.67463e-5 0.9976896 0.0679385 1.52749e-5 0.9182732 0.3959475 -0.5657709 0.8186116 -0.09888678 -0.7539995 0.2837495 -0.5924282 -0.7776173 -0.6111309 0.1477519 -0.7427815 -0.5076764 -0.4365094 -0.5195745 -0.4693032 -0.7140007 -0.5585621 -0.03949981 0.8285218 -0.7053284 -0.303636 0.64056 1.47502e-5 0.2608009 0.9653926 0.9975551 0.06856691 0.01350969 0.5657745 0.8186101 -0.09887856 0.9710504 0.1735764 0.1641113 0.7540142 0.2837571 -0.5924057 0.6556944 -0.7489359 0.09570771 0.7776181 -0.6111304 0.1477491 0.7780671 -0.6276703 0.02533227 0.9121772 -0.3290871 0.2442017 0.7285675 -0.6711813 -0.1367669 0.889903 -0.4042183 0.2113777 0.6053439 0.7252237 0.3280386 0.8397673 0.02090358 0.542544 0.4088127 0.6462669 0.6443688 0.5585747 -0.03950041 0.8285132 0.4972009 -0.343751 0.7966345 0.7053258 -0.3036369 0.6405624 0.8007462 0.1114437 -0.5885457 0.7427805 -0.5076767 -0.4365108 0.5195755 -0.4693025 -0.7140004 0.9263191 0.01203578 -0.3765476 0.2964029 -0.1299794 -0.9461769 0.3906273 0.9192655 0.04859286 0.4842437 0.8728309 0.06061559 0.4056556 0.01430761 -0.913914</float_array>
          <technique_common>
            <accessor source="#mesh_012-mesh-normals-array" count="53" stride="3">
              <param name="X" type="float"/>
              <param name="Y" type="float"/>
              <param name="Z" type="float"/>
            </accessor>
          </technique_common>
        </source>
        <source id="mesh_012-mesh-map-0">
          <float_array id="mesh_012-mesh-map-0-array" count="432">0.9791312 0.799113 0.9994712 0.820617 0.9665372 0.850947 0.8849772 0.707588 0.8519392 0.772681 0.8194572 0.702471 0.7774482 0.696961 0.7802232 0.661032 0.8194572 0.702471 0.7774482 0.696961 0.7265342 0.631775 0.7802232 0.661032 0.7802232 0.661032 0.7920362 0.596267 0.8591952 0.652912 0.6859772 0.59932 0.6293932 0.619204 0.6642832 0.564423 0.6293932 0.619204 0.6859772 0.59932 0.6296082 0.644823 0.5864822 0.88819 0.6107558 0.823706 0.8316332 0.852822 0.6107558 0.823706 0.8141782 0.78369 0.8316332 0.852822 0.5752372 0.957105 0.5864822 0.88819 0.8384462 0.916734 0.5864822 0.88819 0.8316332 0.852822 0.8384462 0.916734 0.7774482 0.696961 0.8141782 0.78369 0.6286891 0.740107 0.8141782 0.78369 0.6107558 0.823706 0.6286891 0.740107 0.7265342 0.631775 0.6452502 0.670464 0.6859772 0.59932 0.6452502 0.670464 0.6296082 0.644823 0.6859772 0.59932 0.7265342 0.631775 0.6859772 0.59932 0.7469272 0.575697 0.6859772 0.59932 0.7142372 0.557092 0.7469272 0.575697 0.6859772 0.59932 0.6642832 0.564423 0.7142372 0.557092 0.6642832 0.564423 0.6972282 0.491953 0.7142372 0.557092 0.9058062 0.813324 0.8519392 0.772681 0.9401832 0.761864 0.8519392 0.772681 0.8849772 0.707588 0.9401832 0.761864 0.9401832 0.761864 0.9791312 0.799113 0.9058062 0.813324 0.9791312 0.799113 0.9665372 0.850947 0.9058062 0.813324 0.9665372 0.850947 0.9079522 0.885462 0.9058062 0.813324 0.8384462 0.916734 0.8316332 0.852822 0.9079522 0.885462 0.8316332 0.852822 0.9058062 0.813324 0.9079522 0.885462 0.8141782 0.78369 0.8519392 0.772681 0.8316332 0.852822 0.8519392 0.772681 0.9058062 0.813324 0.8316332 0.852822 0.8519392 0.772681 0.8141782 0.78369 0.8194572 0.702471 0.8141782 0.78369 0.7774482 0.696961 0.8194572 0.702471 0.8849772 0.707588 0.8194572 0.702471 0.8591952 0.652912 0.8194572 0.702471 0.7802232 0.661032 0.8591952 0.652912 0.7802232 0.661032 0.7265342 0.631775 0.7920362 0.596267 0.7265342 0.631775 0.7469272 0.575697 0.7920362 0.596267 0.6452502 0.670464 0.7265342 0.631775 0.6286891 0.740107 0.7265342 0.631775 0.7774482 0.696961 0.6286891 0.740107 0.7265342 0.631775 0.6286891 0.740107 0.7774482 0.696961 0.6452502 0.670464 0.6286891 0.740107 0.7265342 0.631775 0.7265342 0.631775 0.7920362 0.596267 0.7469272 0.575697 0.7802232 0.661032 0.7920362 0.596267 0.7265342 0.631775 0.8194572 0.702471 0.8591952 0.652912 0.7802232 0.661032 0.8849772 0.707588 0.8591952 0.652912 0.8194572 0.702471 0.8141782 0.78369 0.8194572 0.702471 0.7774482 0.696961 0.8519392 0.772681 0.8194572 0.702471 0.8141782 0.78369 0.8519392 0.772681 0.8316332 0.852822 0.9058062 0.813324 0.8141782 0.78369 0.8316332 0.852822 0.8519392 0.772681 0.8316332 0.852822 0.9079522 0.885462 0.9058062 0.813324 0.8384462 0.916734 0.9079522 0.885462 0.8316332 0.852822 0.9665372 0.850947 0.9058062 0.813324 0.9079522 0.885462 0.9791312 0.799113 0.9058062 0.813324 0.9665372 0.850947 0.9401832 0.761864 0.9058062 0.813324 0.9791312 0.799113 0.8519392 0.772681 0.9401832 0.761864 0.8849772 0.707588 0.9058062 0.813324 0.9401832 0.761864 0.8519392 0.772681 0.6642832 0.564423 0.7142372 0.557092 0.6972282 0.491953 0.6859772 0.59932 0.7142372 0.557092 0.6642832 0.564423 0.6859772 0.59932 0.7469272 0.575697 0.7142372 0.557092 0.7265342 0.631775 0.7469272 0.575697 0.6859772 0.59932 0.6452502 0.670464 0.6859772 0.59932 0.6296082 0.644823 0.7265342 0.631775 0.6859772 0.59932 0.6452502 0.670464 0.8141782 0.78369 0.6286891 0.740107 0.6107558 0.823706 0.7774482 0.696961 0.6286891 0.740107 0.8141782 0.78369 0.5864822 0.88819 0.8384462 0.916734 0.8316332 0.852822 0.5752372 0.957105 0.8384462 0.916734 0.5864822 0.88819 0.6107558 0.823706 0.8316332 0.852822 0.8141782 0.78369 0.5864822 0.88819 0.8316332 0.852822 0.6107558 0.823706 0.6293932 0.619204 0.6296082 0.644823 0.6859772 0.59932 0.6859772 0.59932 0.6642832 0.564423 0.6293932 0.619204 0.7802232 0.661032 0.8591952 0.652912 0.7920362 0.596267 0.7774482 0.696961 0.7802232 0.661032 0.7265342 0.631775 0.7774482 0.696961 0.8194572 0.702471 0.7802232 0.661032 0.8849772 0.707588 0.8194572 0.702471 0.8519392 0.772681 0.9791312 0.799113 0.9665372 0.850947 0.9994712 0.820617</float_array>
          <technique_common>
            <accessor source="#mesh_012-mesh-map-0-array" count="216" stride="2">
              <param name="S" type="float"/>
              <param name="T" type="float"/>
            </accessor>
          </technique_common>
        </source>
        <vertices id="mesh_012-mesh-vertices">
          <input semantic="POSITION" source="#mesh_012-mesh-positions"/>
        </vertices>
        <triangles material="text_león-material" count="72">
          <input semantic="VERTEX" source="#mesh_012-mesh-vertices" offset="0"/>
          <input semantic="NORMAL" source="#mesh_012-mesh-normals" offset="1"/>
          <input semantic="TEXCOORD" source="#mesh_012-mesh-map-0" offset="2" set="0"/>
          <p>10 0 0 13 1 1 22 2 2 11 3 3 21 4 4 18 5 5 15 6 6 16 7 7 18 5 8 15 6 9 2 8 10 16 7 11 16 7 12 17 9 13 12 10 14 6 11 15 0 12 16 1 13 17 0 12 18 6 11 19 5 14 20 23 15 21 19 16 22 24 17 23 19 16 24 20 18 25 24 17 26 28 19 27 23 15 28 27 20 29 23 15 30 24 17 31 27 20 32 15 6 33 20 18 34 14 21 35 20 18 36 19 16 37 14 21 38 2 8 39 3 22 40 6 11 41 3 22 42 5 14 43 6 11 44 2 8 45 6 11 46 4 23 47 6 11 48 8 24 49 4 23 50 6 11 51 1 13 52 8 24 53 1 13 54 7 25 55 8 24 56 25 26 57 21 4 58 9 27 59 21 4 60 11 3 61 9 27 62 9 27 63 10 0 64 25 26 65 10 0 66 22 2 67 25 26 68 22 2 69 26 28 70 25 26 71 27 20 72 24 17 73 26 28 74 24 17 75 25 26 76 26 28 77 20 18 78 21 4 79 24 17 80 21 4 81 25 26 82 24 17 83 21 4 84 20 18 85 18 5 86 20 18 87 15 6 88 18 5 89 11 3 90 18 5 91 12 10 92 18 5 93 16 7 94 12 10 95 16 7 96 2 8 97 17 9 98 2 8 99 4 23 100 17 9 101 3 22 102 2 8 103 14 21 104 2 8 105 15 6 106 14 21 107 50 29 108 39 30 109 38 31 110 49 32 111 39 30 112 50 29 113 50 29 114 36 33 115 48 34 116 37 35 117 36 33 118 50 29 119 35 36 120 40 37 121 37 35 122 41 38 123 40 37 124 35 36 125 33 39 126 35 36 127 38 31 128 32 40 129 35 36 130 33 39 131 32 40 132 30 41 133 29 42 134 33 39 135 30 41 136 32 40 137 30 41 138 26 28 139 29 42 140 27 20 141 26 28 142 30 41 143 22 2 144 29 42 145 26 28 146 42 43 147 29 42 148 22 2 149 43 44 150 29 42 151 42 43 152 32 40 153 43 44 154 41 38 155 29 42 156 43 44 157 32 40 158 51 45 159 44 46 160 45 47 161 46 48 162 44 46 163 51 45 164 46 48 165 48 34 166 44 46 167 50 29 168 48 34 169 46 48 170 49 32 171 46 48 172 47 49 173 50 29 174 46 48 175 49 32 176 33 39 177 39 30 178 34 50 179 38 31 180 39 30 181 33 39 182 31 51 183 27 20 184 30 41 185 28 19 186 27 20 187 31 51 188 34 50 189 30 41 190 33 39 191 31 51 192 30 41 193 34 50 194 52 52 195 47 49 196 46 48 197 46 48 198 51 45 199 52 52 200 37 35 201 40 37 202 36 33 203 38 31 204 37 35 205 50 29 206 38 31 207 35 36 208 37 35 209 41 38 210 35 36 211 32 40 212 42 43 213 22 2 214 13 1 215</p>
        </triangles>
      </mesh>
    </geometry>
  </library_geometries>
  <library_visual_scenes>
    <visual_scene id="Scene" name="Scene">
      <node id="a-helmet_lion_hair" name="a-helmet_lion_hair" type="NODE">
        <matrix sid="transform">1 0 0 0 0 1 0 0 0 0 1 0 0 0 0 1</matrix>
        <instance_geometry url="#mesh_012-mesh" name="a-helmet_lion_hair">
          <bind_material>
            <technique_common>
              <instance_material symbol="text_león-material" target="#text_león-material">
                <bind_vertex_input semantic="Cylinder_001-mesh-map-channel1" input_semantic="TEXCOORD" input_set="0"/>
              </instance_material>
            </technique_common>
          </bind_material>
        </instance_geometry>
      </node>
    </visual_scene>
  </library_visual_scenes>
  <scene>
    <instance_visual_scene url="#Scene"/>
  </scene>
</COLLADA>