<?xml version="1.0" encoding="utf-8"?>
<COLLADA xmlns="http://www.collada.org/2005/11/COLLADASchema" version="1.4.1" xmlns:xsi="http://www.w3.org/2001/XMLSchema-instance">
  <asset>
    <contributor>
      <author>Blender User</author>
      <authoring_tool>Blender 4.3.1 commit date:2024-12-10, commit time:07:46, hash:33d812126174</authoring_tool>
    </contributor>
    <created>2026-08-08T11:07:27</created>
    <modified>2026-08-08T11:07:27</modified>
    <unit name="meter" meter="1"/>
    <up_axis>Z_UP</up_axis>
  </asset>
  <library_effects>
    <effect id="textura_leona-effect">
      <profile_COMMON>
        <newparam sid="_943821645_texturaleonadegaetul_png_d58667de5dd24a3ff43907f823a-surface">
          <surface type="2D">
            <init_from>_943821645_texturaleonadegaetul_png_d58667de5dd24a3ff43907f823a</init_from>
          </surface>
        </newparam>
        <newparam sid="_943821645_texturaleonadegaetul_png_d58667de5dd24a3ff43907f823a-sampler">
          <sampler2D>
            <source>_943821645_texturaleonadegaetul_png_d58667de5dd24a3ff43907f823a-surface</source>
          </sampler2D>
        </newparam>
        <technique sid="common">
          <lambert>
            <emission>
              <color sid="emission">0 0 0 1</color>
            </emission>
            <diffuse>
              <texture texture="_943821645_texturaleonadegaetul_png_d58667de5dd24a3ff43907f823a-sampler" texcoord="Cylinder_001-mesh-map-channel1"/>
            </diffuse>
            <index_of_refraction>
              <float sid="ior">1.45</float>
            </index_of_refraction>
          </lambert>
        </technique>
      </profile_COMMON>
    </effect>
  </library_effects>
  <library_images>
    <image id="_943821645_texturaleonadegaetul_png_d58667de5dd24a3ff43907f823a" name="_943821645_texturaleonadegaetul_png_d58667de5dd24a3ff43907f823a">
      <init_from>/home/welton/Downloads/1943821645_texturaleonadegaetul.png.d58667de5dd24a3ff43907f823acbd61.png</init_from>
    </image>
  </library_images>
  <library_materials>
    <material id="textura_leona-material" name="textura leona">
      <instance_effect url="#textura_leona-effect"/>
    </material>
  </library_materials>
  <library_geometries>
    <geometry id="lioness_012-mesh" name="lioness.012">
      <mesh>
        <source id="lioness_012-mesh-positions">
          <float_array id="lioness_012-mesh-positions-array" count="294">-0.1619413 0.08182197 0.1503736 -0.1575628 0.3870884 0.5972179 -0.3016625 0.3032866 0.5201126 -0.3112294 0.04950672 0.3077068 -0.01124531 0.472872 0.639592 -0.2205974 -0.04461044 -0.155016 -0.4737548 0.1877827 -0.3271247 -0.01124531 0.6178699 -0.2644452 -0.01124531 0.5041301 0.356768 -0.3062896 0.1338404 -0.01174235 -0.3023371 0.381089 -0.2364095 -0.29688 0.404268 0.09811902 -0.1758594 0.521043 -0.2404065 -0.1551535 0.4110926 0.3108004 -0.01124531 0.3812149 0.7354335 -0.2884805 0.04522442 0.4686512 -0.2720345 0.2075138 0.574268 -0.1575628 0.3168027 0.6811219 -0.1619413 -0.03771162 0.3779938 -0.1569945 -0.1268705 0.430157 -0.15276 0.1445258 0.8312292 -0.2273764 0.1256587 0.782045 -0.3014078 -0.06948471 0.5137584 -0.01124531 0.1707188 0.8450482 -0.01124531 -0.004165887 0.8435835 -0.2292929 -0.2434617 0.4760664 -0.2230998 -0.0343219 0.7290998 -0.1516692 -0.02400195 0.736312 -0.109264 -0.2775088 0.7130094 -0.1491712 -0.2561577 0.6681492 -0.1313111 -0.3471159 0.4547508 -0.01124531 -0.243245 0.7484126 -0.01124531 -0.4384096 0.7126798 -0.01124531 -0.4503681 0.602696 -0.01124531 -0.4333609 0.5418841 -0.01124531 -0.3384191 0.7333637 -0.01124531 -0.3922693 0.4622307 -0.184432 -0.2957302 0.5563899 -0.09142154 -0.3255584 0.7359819 -0.1446082 -0.3831822 0.7131786 -0.1324758 -0.4046863 0.6004771 -0.01124531 -0.09929579 0.7778261 -0.01124531 0.09343284 0.8443986 -0.2244094 0.04397338 0.7565506 -0.2692493 -0.1441147 0.5361753 -0.1118252 0.02467066 0.807231 -0.1580187 -0.1794645 0.4504212 -0.2990759 0.2777659 0.7328527 -0.2437038 0.2072395 0.8478907 -0.254199 0.3218938 0.735435 -0.3351886 0.2555546 0.6507944 -0.3702921 0.2916296 0.7147986 -0.3486297 0.3205222 0.8048849 -0.318328 0.2641865 0.8267446 0.2958365 0.2641865 0.8267446 0.3261382 0.3205222 0.8048849 0.3477997 0.2916296 0.7147986 0.3126971 0.2555546 0.6507944 0.2317075 0.3218938 0.735435 0.2212122 0.2072395 0.8478907 0.2765834 0.2777659 0.7328527 0.1355262 -0.1794645 0.4504212 0.08933371 0.02467066 0.807231 0.2467578 -0.1441147 0.5361753 0.2019178 0.04397338 0.7565506 0.1099842 -0.4046863 0.6004771 0.1221167 -0.3831822 0.7131786 0.06892997 -0.3255584 0.7359819 0.1619404 -0.2957302 0.5563899 0.1088187 -0.3471159 0.4547508 0.1266797 -0.2561577 0.6681492 0.0867725 -0.2775088 0.7130094 0.1291776 -0.02400195 0.736312 0.2006074 -0.0343219 0.7290998 0.2068014 -0.2434617 0.4760664 0.2789162 -0.06948471 0.5137584 0.2048849 0.1256587 0.782045 0.1302676 0.1445258 0.8312292 0.134503 -0.1268705 0.430157 0.1394489 -0.03771162 0.3779938 0.1350713 0.3168027 0.6811219 0.249543 0.2075138 0.574268 0.2659881 0.04522442 0.4686512 0.132662 0.4110926 0.3108004 0.1533679 0.521043 -0.2404065 0.2743884 0.404268 0.09811902 0.2798455 0.381089 -0.2364095 0.283798 0.1338404 -0.01174235 0.4512632 0.1877827 -0.3271247 0.198105 -0.04461044 -0.155016 0.2887378 0.04950672 0.3077068 0.2791701 0.3032866 0.5201126 0.1350713 0.3870884 0.5972179 0.1394489 0.08182197 0.1503736 -0.1389321 -0.3396334 0.3144747 -0.1313111 -0.3390411 0.3151779 0.1088187 -0.3390411 0.3151779 0.1164416 -0.3396334 0.3144747</float_array>
          <technique_common>
            <accessor source="#lioness_012-mesh-positions-array" count="98" stride="3">
              <param name="X" type="float"/>
              <param name="Y" type="float"/>
              <param name="Z" type="float"/>
            </accessor>
          </technique_common>
        </source>
        <source id="lioness_012-mesh-normals">
          <float_array id="lioness_012-mesh-normals-array" count="294">-0.6159352 -0.2988777 0.7289006 -0.9093221 -0.3901067 -0.1447413 -0.8449228 -0.5153947 0.1430873 -0.8444087 -0.2035816 0.4955084 -0.6460317 -0.7626999 -0.03053152 1.26806e-6 -0.1185278 0.9929507 -0.2848924 -0.001884877 0.9585577 0 -0.1818192 0.983332 -0.5662351 0.07285821 0.8210175 1.75377e-6 -0.9277729 -0.3731455 -0.6973732 -0.6803148 -0.2254826 1.1392e-6 -0.997039 -0.07689738 -0.3015331 -0.4165323 0.8576589 1.34422e-6 -0.32827 0.944584 1.36325e-6 -0.3457866 0.9383132 -0.9866957 0.02946048 -0.1598871 -0.8483316 -0.175338 -0.4995899 -0.636371 -0.7572152 0.1471641 -0.6573156 0.4789731 0.5818256 -0.5607305 -0.215565 0.7994455 -0.2962477 0.03402602 0.9545049 0.1270142 0.9875895 0.09238117 -0.4125403 0.7677409 0.4902904 -0.9637376 0.1099743 0.2431373 -0.1420595 0.03902059 0.9890888 -0.7706202 -0.3474655 0.53424 -0.6213373 -0.05986124 -0.7812533 -0.8866524 -0.4604358 -0.04297095 -0.6017364 -0.3763368 -0.7044743 -0.9390397 -0.2692759 -0.2137643 -0.6924805 -0.3050152 0.6537864 -0.3700872 -0.4095867 0.8338311 1.42333e-6 -0.008387506 0.9999649 8.18806e-7 0.2792034 0.960232 9.51506e-7 -0.7987412 0.6016747 -0.7320642 -0.4129892 0.5417767 2.21688e-6 -0.8887107 -0.4584684 -0.9731296 -0.2062836 -0.1023027 1.15794e-6 0.6180682 0.7861245 -0.5509131 -0.6745967 -0.491339 -0.8085915 -0.573807 -0.1300978 -0.292323 -0.9435383 -0.1558294 -0.6114467 0.7120102 0.3452166 -0.8424513 0.4052029 0.3550867 1.19436e-6 0.9052976 0.4247781 -0.7176796 -0.6117527 0.3327081 -0.9108507 -0.3544125 0.2115252 -0.877754 0.05658823 0.4757581 -0.5721595 0.8138144 0.1016846 1.40404e-6 0.989683 0.1432747 9.54288e-7 0.9836485 0.1800992 -0.4831452 0.861526 0.1560251 -0.8683382 0.4683276 0.1632729 -0.8060156 0.5822181 0.1065891 0.7176776 -0.6117553 0.3327077 0.91085 -0.3544142 0.211525 0.2923222 -0.9435387 -0.155829 0.8085916 -0.5738072 -0.1300957 0.8424516 0.4052035 0.3550851 0.4831469 0.8615249 0.1560252 0.6114485 0.7120091 0.3452156 0.8060155 0.5822179 0.1065896 0.8683382 0.4683277 0.1632729 0.8777541 0.05658727 0.4757579 0.5721606 0.8138137 0.1016846 0.9731293 -0.2062829 -0.1023072 0.9637386 0.1099753 0.2431325 0.4125415 0.7677405 0.4902899 0.5509125 -0.6745964 -0.4913402 0.601735 -0.3763382 -0.7044748 0.9390397 -0.2692741 -0.213766 0.1420593 0.03902226 0.9890888 0.7706195 -0.347465 0.5342413 0.8444093 -0.2035806 0.4955077 0.3015342 -0.4165321 0.8576585 0.566236 0.07285797 0.8210169 0.6159288 -0.298883 0.7289038 0.6460288 -0.7627022 -0.03053176 0.8449232 -0.5153942 0.1430861 0.7320647 -0.4129884 0.5417767 0.2848926 -0.001885414 0.9585576 0.6973742 -0.6803141 -0.2254818 0.6924801 -0.3050158 0.6537865 0.8866516 -0.4604372 -0.04297 0.9093217 -0.3901078 -0.1447409 0.3700894 -0.4095851 0.8338308 0.621335 -0.0598666 -0.7812547 0.6363728 -0.757214 0.1471626 0.8483334 -0.1753379 -0.4995868 0.2962512 0.03402638 0.9545038 -0.1270139 0.9875897 0.09238111 0.9866957 0.02946102 -0.1598869 0.6573182 0.4789709 0.5818246 0.5607329 -0.2155662 0.7994435 0.2178831 -0.9751477 -0.04017621 -0.2178706 -0.9751502 -0.04018014 0.08263456 -0.9949162 -0.05756086 -0.08261418 -0.9949179 -0.05756056</float_array>
          <technique_common>
            <accessor source="#lioness_012-mesh-normals-array" count="98" stride="3">
              <param name="X" type="float"/>
              <param name="Y" type="float"/>
              <param name="Z" type="float"/>
            </accessor>
          </technique_common>
        </source>
        <source id="lioness_012-mesh-map-0">
          <float_array id="lioness_012-mesh-map-0-array" count="1008">0.454519 0.140112 0.308934 0.154255 0.295684 0.127641 0.454519 0.140112 0.295684 0.127641 0.362305 0.108693 0.308934 0.154255 0.243595 0.09772098 0.295684 0.127641 0.383736 0.01374799 0.344052 0.05935299 0.334287 0.01318198 0.383736 0.01374799 0.362482 0.07518595 0.344052 0.05935299 0.224925 0.03264695 0.282392 0.08841496 0.295684 0.127641 0.224925 0.03264695 0.250676 0.01712799 0.282392 0.08841496 0.467766 0.102838 0.362482 0.07518595 0.456564 0.019189 0.467766 0.102838 0.456564 0.019189 0.514959 0.02458399 0.362482 0.07518595 0.383736 0.01374799 0.456564 0.019189 0.979307 0.080464 0.955409 0.04587495 0.929288 0.09493499 0.977176 0.129922 0.979307 0.080464 0.929288 0.09493499 0.953393 0.16584 0.929288 0.09493499 0.896108 0.170691 0.953393 0.16584 0.977176 0.129922 0.929288 0.09493499 0.406883 0.1595399 0.433456 0.16473 0.408493 0.191105 0.390518 0.162665 0.406883 0.1595399 0.408493 0.191105 0.373332 0.178734 0.408493 0.191105 0.373332 0.1994889 0.373332 0.178734 0.390518 0.162665 0.408493 0.191105 0.408493 0.191105 0.428507 0.217063 0.378521 0.2283419 0.373332 0.1994889 0.408493 0.191105 0.378521 0.2283419 0.433456 0.16473 0.462606 0.178503 0.428507 0.217063 0.408493 0.191105 0.433456 0.16473 0.428507 0.217063 0.896108 0.170691 0.857315 0.092821 0.854167 0.159877 0.896108 0.170691 0.929288 0.09493499 0.857315 0.092821 0.929288 0.09493499 0.923125 0.01681798 0.857315 0.092821 0.929288 0.09493499 0.955409 0.04587495 0.923125 0.01681798 0.2395499 0.1483229 0.308934 0.154255 0.377395 0.173894 0.298089 0.1963649 0.377395 0.173894 0.399788 0.19767 0.298089 0.1963649 0.2395499 0.1483229 0.377395 0.173894 0.493874 0.14506 0.467766 0.102838 0.510509 0.09588998 0.493874 0.14506 0.454519 0.140112 0.467766 0.102838 0.493874 0.14506 0.510509 0.09588998 0.546515 0.129467 0.532275 0.168247 0.493874 0.14506 0.546515 0.129467 0.510509 0.09588998 0.514959 0.02458399 0.559853 0.04338198 0.510509 0.09588998 0.467766 0.102838 0.514959 0.02458399 0.510509 0.09588998 0.559853 0.04338198 0.593707 0.05890995 0.546515 0.129467 0.510509 0.09588998 0.593707 0.05890995 0.377395 0.173894 0.454519 0.140112 0.493874 0.14506 0.377395 0.173894 0.308934 0.154255 0.454519 0.140112 0.399788 0.19767 0.493874 0.14506 0.532275 0.168247 0.399788 0.19767 0.377395 0.173894 0.493874 0.14506 0.282392 0.08841496 0.283372 0.022915 0.324566 0.08089399 0.282392 0.08841496 0.250676 0.01712799 0.283372 0.022915 0.282392 0.08841496 0.324566 0.08089399 0.362305 0.108693 0.295684 0.127641 0.282392 0.08841496 0.362305 0.108693 0.283372 0.022915 0.334287 0.01318198 0.344052 0.05935299 0.324566 0.08089399 0.283372 0.022915 0.344052 0.05935299 0.324566 0.08089399 0.344052 0.05935299 0.362482 0.07518595 0.362305 0.108693 0.324566 0.08089399 0.362482 0.07518595 0.224925 0.03264695 0.295684 0.127641 0.243595 0.09772098 0.201272 0.03422796 0.224925 0.03264695 0.243595 0.09772098 0.362305 0.108693 0.467766 0.102838 0.454519 0.140112 0.362305 0.108693 0.362482 0.07518595 0.467766 0.102838 0.399788 0.19767 0.499235 0.2158409 0.418079 0.222256 0.399788 0.19767 0.532275 0.168247 0.499235 0.2158409 0.593707 0.05890995 0.643566 0.09131097 0.568874 0.162535 0.546515 0.129467 0.593707 0.05890995 0.568874 0.162535 0.399788 0.19767 0.418079 0.222256 0.329659 0.22118 0.298089 0.1963649 0.399788 0.19767 0.329659 0.22118 0.329659 0.22118 0.391148 0.2789 0.32492 0.262177 0.329659 0.22118 0.418079 0.222256 0.391148 0.2789 0.499235 0.2158409 0.593554 0.195623 0.521716 0.253972 0.499235 0.2158409 0.568874 0.162535 0.593554 0.195623 0.643566 0.09131097 0.672933 0.112783 0.593554 0.195623 0.568874 0.162535 0.643566 0.09131097 0.593554 0.195623 0.418079 0.222256 0.521716 0.253972 0.391148 0.2789 0.418079 0.222256 0.499235 0.2158409 0.521716 0.253972 0.702658 0.647565 0.720341 0.71608 0.623715 0.719697 0.648971 0.871563 0.752204 0.941391 0.640769 0.94013 0.648971 0.871563 0.753332 0.879434 0.752204 0.941391 0.648971 0.871563 0.65399 0.803341 0.745253 0.815365 0.753332 0.879434 0.648971 0.871563 0.745253 0.815365 0.65399 0.803341 0.623715 0.719697 0.720341 0.71608 0.745253 0.815365 0.65399 0.803341 0.720341 0.71608 0.810989 0.747785 0.745253 0.815365 0.720341 0.71608 0.810989 0.747785 0.832038 0.834119 0.745253 0.815365 0.839316 0.892294 0.752204 0.941391 0.753332 0.879434 0.839316 0.892294 0.837825 0.949214 0.752204 0.941391 0.832038 0.834119 0.753332 0.879434 0.745253 0.815365 0.832038 0.834119 0.839316 0.892294 0.753332 0.879434 0.811589 0.681041 0.810989 0.747785 0.720341 0.71608 0.702658 0.647565 0.811589 0.681041 0.720341 0.71608 0.702658 0.647565 0.720341 0.71608 0.811589 0.681041 0.811589 0.681041 0.720341 0.71608 0.810989 0.747785 0.832038 0.834119 0.753332 0.879434 0.839316 0.892294 0.832038 0.834119 0.745253 0.815365 0.753332 0.879434 0.839316 0.892294 0.752204 0.941391 0.837825 0.949214 0.839316 0.892294 0.753332 0.879434 0.752204 0.941391 0.810989 0.747785 0.745253 0.815365 0.832038 0.834119 0.810989 0.747785 0.720341 0.71608 0.745253 0.815365 0.745253 0.815365 0.720341 0.71608 0.65399 0.803341 0.65399 0.803341 0.720341 0.71608 0.623715 0.719697 0.753332 0.879434 0.745253 0.815365 0.648971 0.871563 0.648971 0.871563 0.745253 0.815365 0.65399 0.803341 0.648971 0.871563 0.752204 0.941391 0.753332 0.879434 0.648971 0.871563 0.640769 0.94013 0.752204 0.941391 0.702658 0.647565 0.623715 0.719697 0.720341 0.71608 0.418079 0.222256 0.521716 0.253972 0.499235 0.2158409 0.418079 0.222256 0.391148 0.2789 0.521716 0.253972 0.568874 0.162535 0.593554 0.195623 0.643566 0.09131097 0.643566 0.09131097 0.593554 0.195623 0.672933 0.112783 0.499235 0.2158409 0.593554 0.195623 0.568874 0.162535 0.499235 0.2158409 0.521716 0.253972 0.593554 0.195623 0.329659 0.22118 0.391148 0.2789 0.418079 0.222256 0.329659 0.22118 0.32492 0.262177 0.391148 0.2789 0.298089 0.1963649 0.329659 0.22118 0.399788 0.19767 0.399788 0.19767 0.329659 0.22118 0.418079 0.222256 0.546515 0.129467 0.568874 0.162535 0.593707 0.05890995 0.593707 0.05890995 0.568874 0.162535 0.643566 0.09131097 0.399788 0.19767 0.499235 0.2158409 0.532275 0.168247 0.399788 0.19767 0.418079 0.222256 0.499235 0.2158409 0.362305 0.108693 0.467766 0.102838 0.362482 0.07518595 0.362305 0.108693 0.454519 0.140112 0.467766 0.102838 0.201272 0.03422796 0.243595 0.09772098 0.224925 0.03264695 0.224925 0.03264695 0.243595 0.09772098 0.295684 0.127641 0.362305 0.108693 0.362482 0.07518595 0.324566 0.08089399 0.324566 0.08089399 0.362482 0.07518595 0.344052 0.05935299 0.324566 0.08089399 0.344052 0.05935299 0.283372 0.022915 0.283372 0.022915 0.344052 0.05935299 0.334287 0.01318198 0.295684 0.127641 0.362305 0.108693 0.282392 0.08841496 0.282392 0.08841496 0.362305 0.108693 0.324566 0.08089399 0.282392 0.08841496 0.283372 0.022915 0.250676 0.01712799 0.282392 0.08841496 0.324566 0.08089399 0.283372 0.022915 0.399788 0.19767 0.493874 0.14506 0.377395 0.173894 0.399788 0.19767 0.532275 0.168247 0.493874 0.14506 0.377395 0.173894 0.454519 0.140112 0.308934 0.154255 0.377395 0.173894 0.493874 0.14506 0.454519 0.140112 0.546515 0.129467 0.593707 0.05890995 0.510509 0.09588998 0.510509 0.09588998 0.593707 0.05890995 0.559853 0.04338198 0.510509 0.09588998 0.514959 0.02458399 0.467766 0.102838 0.510509 0.09588998 0.559853 0.04338198 0.514959 0.02458399 0.532275 0.168247 0.546515 0.129467 0.493874 0.14506 0.493874 0.14506 0.546515 0.129467 0.510509 0.09588998 0.493874 0.14506 0.467766 0.102838 0.454519 0.140112 0.493874 0.14506 0.510509 0.09588998 0.467766 0.102838 0.298089 0.1963649 0.377395 0.173894 0.2395499 0.1483229 0.298089 0.1963649 0.399788 0.19767 0.377395 0.173894 0.2395499 0.1483229 0.377395 0.173894 0.308934 0.154255 0.929288 0.09493499 0.923125 0.01681798 0.955409 0.04587495 0.929288 0.09493499 0.857315 0.092821 0.923125 0.01681798 0.896108 0.170691 0.857315 0.092821 0.929288 0.09493499 0.896108 0.170691 0.854167 0.159877 0.857315 0.092821 0.408493 0.191105 0.428507 0.217063 0.433456 0.16473 0.433456 0.16473 0.428507 0.217063 0.462606 0.178503 0.373332 0.1994889 0.378521 0.2283419 0.408493 0.191105 0.408493 0.191105 0.378521 0.2283419 0.428507 0.217063 0.373332 0.178734 0.408493 0.191105 0.390518 0.162665 0.373332 0.178734 0.373332 0.1994889 0.408493 0.191105 0.390518 0.162665 0.408493 0.191105 0.406883 0.1595399 0.406883 0.1595399 0.408493 0.191105 0.433456 0.16473 0.953393 0.16584 0.929288 0.09493499 0.977176 0.129922 0.953393 0.16584 0.896108 0.170691 0.929288 0.09493499 0.977176 0.129922 0.929288 0.09493499 0.979307 0.080464 0.979307 0.080464 0.929288 0.09493499 0.955409 0.04587495 0.362482 0.07518595 0.456564 0.019189 0.383736 0.01374799 0.467766 0.102838 0.514959 0.02458399 0.456564 0.019189 0.467766 0.102838 0.456564 0.019189 0.362482 0.07518595 0.224925 0.03264695 0.282392 0.08841496 0.250676 0.01712799 0.224925 0.03264695 0.295684 0.127641 0.282392 0.08841496 0.383736 0.01374799 0.344052 0.05935299 0.362482 0.07518595 0.383736 0.01374799 0.334287 0.01318198 0.344052 0.05935299 0.308934 0.154255 0.295684 0.127641 0.243595 0.09772098 0.454519 0.140112 0.362305 0.108693 0.295684 0.127641 0.454519 0.140112 0.295684 0.127641 0.308934 0.154255 0.2020719 0.03682041 0.1945148 0.08135885 0.2083558 0.07951337 0.1882308 0.03220671 0.2000511 0.07305425 0.1688534 0.04881596 0.2020719 0.03682041 0.1697762 0.04327958 0.1945148 0.08135885 0.1882308 0.03220671 0.2083558 0.05921322 0.2000511 0.07305425</float_array>
          <technique_common>
            <accessor source="#lioness_012-mesh-map-0-array" count="504" stride="2">
              <param name="S" type="float"/>
              <param name="T" type="float"/>
            </accessor>
          </technique_common>
        </source>
        <vertices id="lioness_012-mesh-vertices">
          <input semantic="POSITION" source="#lioness_012-mesh-positions"/>
        </vertices>
        <triangles material="textura_leona-material" count="168">
          <input semantic="VERTEX" source="#lioness_012-mesh-vertices" offset="0"/>
          <input semantic="NORMAL" source="#lioness_012-mesh-normals" offset="1"/>
          <input semantic="TEXCOORD" source="#lioness_012-mesh-map-0" offset="2" set="0"/>
          <p>26 0 0 25 1 1 37 2 2 26 0 3 37 2 4 29 3 5 25 1 6 30 4 7 37 2 8 31 5 9 38 6 10 35 7 11 31 5 12 28 8 13 38 6 14 34 9 15 40 10 16 37 2 17 34 9 18 33 11 19 40 10 20 27 12 21 28 8 22 41 13 23 27 12 24 41 13 25 24 14 26 28 8 27 31 5 28 41 13 29 51 15 30 50 16 31 47 17 32 52 18 33 51 15 34 47 17 35 53 19 36 47 17 37 48 20 38 53 19 39 52 18 40 47 17 41 53 19 42 48 20 43 49 21 44 52 18 45 53 19 46 49 21 47 51 15 48 49 21 49 50 16 50 51 15 51 52 18 52 49 21 53 49 21 54 17 22 55 16 23 56 50 16 57 49 21 58 16 23 59 48 20 60 20 24 61 17 22 62 49 21 63 48 20 64 17 22 65 48 20 66 21 25 67 20 24 68 48 20 69 47 17 70 21 25 71 47 17 72 16 23 73 21 25 74 47 17 75 50 16 76 16 23 77 46 26 78 25 1 79 44 27 80 19 28 81 44 27 82 22 29 83 19 28 84 46 26 85 44 27 86 43 30 87 27 12 88 45 31 89 43 30 90 26 0 91 27 12 92 43 30 93 45 31 94 20 24 95 21 25 96 43 30 97 20 24 98 45 31 99 24 14 100 42 32 101 45 31 102 27 12 103 24 14 104 45 31 105 42 32 106 23 33 107 20 24 108 45 31 109 23 33 110 44 27 111 26 0 112 43 30 113 44 27 114 25 1 115 26 0 116 22 29 117 43 30 118 21 25 119 22 29 120 44 27 121 43 30 122 40 10 123 32 34 124 39 35 125 40 10 126 33 11 127 32 34 128 40 10 129 39 35 130 29 3 131 37 2 132 40 10 133 29 3 134 32 34 135 35 7 136 38 6 137 39 35 138 32 34 139 38 6 140 39 35 141 38 6 142 28 8 143 29 3 144 39 35 145 28 8 146 34 9 147 37 2 148 30 4 149 36 36 150 34 9 151 30 4 152 29 3 153 27 12 154 26 0 155 29 3 156 28 8 157 27 12 158 22 29 159 16 23 160 15 37 161 22 29 162 21 25 163 16 23 164 23 33 165 14 38 166 17 22 167 20 24 168 23 33 169 17 22 170 22 29 171 15 37 172 18 39 173 19 28 174 22 29 175 18 39 176 18 39 177 3 40 178 0 41 179 18 39 180 15 37 181 3 40 182 16 23 183 1 42 184 2 43 185 16 23 186 17 22 187 1 42 188 14 38 189 4 44 190 1 42 191 17 22 192 14 38 193 1 42 194 15 37 195 2 43 196 3 40 197 15 37 198 16 23 199 2 43 200 5 45 201 9 46 202 6 47 203 12 48 204 8 49 205 7 50 206 12 48 207 13 51 208 8 49 209 12 48 210 10 52 211 11 53 212 13 51 213 12 48 214 11 53 215 10 52 216 6 47 217 9 46 218 11 53 219 10 52 220 9 46 221 3 40 222 11 53 223 9 46 224 3 40 225 2 43 226 11 53 227 1 42 228 8 49 229 13 51 230 1 42 231 4 44 232 8 49 233 2 43 234 13 51 235 11 53 236 2 43 237 1 42 238 13 51 239 0 41 240 3 40 241 9 46 242 5 45 243 0 41 244 9 46 245 89 54 246 87 55 247 93 56 248 93 56 249 87 55 250 90 57 251 91 58 252 83 59 253 92 60 254 91 58 255 85 61 256 83 59 257 92 60 258 8 49 259 4 44 260 92 60 261 83 59 262 8 49 263 90 57 264 85 61 265 91 58 266 90 57 267 87 55 268 85 61 269 85 61 270 87 55 271 86 62 272 86 62 273 87 55 274 88 63 275 83 59 276 85 61 277 84 64 278 84 64 279 85 61 280 86 62 281 84 64 282 8 49 283 83 59 284 84 64 285 7 50 286 8 49 287 89 54 288 88 63 289 87 55 290 82 65 291 91 58 292 81 66 293 82 65 294 90 57 295 91 58 296 80 67 297 92 60 298 14 38 299 14 38 300 92 60 301 4 44 302 81 66 303 92 60 304 80 67 305 81 66 306 91 58 307 92 60 308 79 68 309 90 57 310 82 65 311 79 68 312 93 56 313 90 57 314 78 69 315 79 68 316 75 70 317 75 70 318 79 68 319 82 65 320 77 71 321 80 67 322 23 33 323 23 33 324 80 67 325 14 38 326 75 70 327 81 66 328 76 72 329 75 70 330 82 65 331 81 66 332 70 73 333 72 74 334 71 75 335 70 73 336 73 76 337 72 74 338 36 36 339 69 77 340 34 9 341 34 9 342 69 77 343 68 78 344 70 73 345 71 75 346 66 79 347 66 79 348 71 75 349 67 80 350 66 79 351 67 80 352 32 34 353 32 34 354 67 80 355 35 7 356 68 78 357 70 73 358 65 81 359 65 81 360 70 73 361 66 79 362 65 81 363 32 34 364 33 11 365 65 81 366 66 79 367 32 34 368 75 70 369 64 82 370 63 83 371 75 70 372 76 72 373 64 82 374 63 83 375 73 76 376 74 84 377 63 83 378 64 82 379 73 76 380 77 71 381 23 33 382 62 85 383 62 85 384 23 33 385 42 32 386 62 85 387 24 14 388 72 74 389 62 85 390 42 32 391 24 14 392 76 72 393 77 71 394 64 82 395 64 82 396 77 71 397 62 85 398 64 82 399 72 74 400 73 76 401 64 82 402 62 85 403 72 74 404 78 69 405 63 83 406 61 86 407 78 69 408 75 70 409 63 83 410 61 86 411 63 83 412 74 84 413 60 87 414 81 66 415 57 88 416 60 87 417 76 72 418 81 66 419 59 89 420 76 72 421 60 87 422 59 89 423 77 71 424 76 72 425 58 90 426 80 67 427 59 89 428 59 89 429 80 67 430 77 71 431 57 88 432 81 66 433 58 90 434 58 90 435 81 66 436 80 67 437 56 91 438 58 90 439 55 92 440 56 91 441 57 88 442 58 90 443 55 92 444 58 90 445 54 93 446 54 93 447 58 90 448 59 89 449 54 93 450 60 87 451 55 92 452 54 93 453 59 89 454 60 87 455 55 92 456 60 87 457 56 91 458 56 91 459 60 87 460 57 88 461 71 75 462 41 13 463 31 5 464 72 74 465 24 14 466 41 13 467 72 74 468 41 13 469 71 75 470 34 9 471 65 81 472 33 11 473 34 9 474 68 78 475 65 81 476 31 5 477 67 80 478 71 75 479 31 5 480 35 7 481 67 80 482 74 84 483 68 78 484 69 77 485 73 76 486 70 73 487 68 78 488 73 76 489 68 78 490 74 84 491 69 77 492 97 94 493 74 84 494 30 4 495 94 95 496 95 96 497 69 77 498 96 97 499 97 94 500 30 4 501 25 1 502 94 95 503</p>
        </triangles>
      </mesh>
    </geometry>
  </library_geometries>
  <library_visual_scenes>
    <visual_scene id="Scene" name="Scene">
      <node id="a-helmet_lioness" name="a-helmet_lioness" type="NODE">
        <matrix sid="transform">1 0 0 0 0 1 0 0 0 0 1 0 0 0 0 1</matrix>
        <instance_geometry url="#lioness_012-mesh" name="a-helmet_lioness">
          <bind_material>
            <technique_common>
              <instance_material symbol="textura_leona-material" target="#textura_leona-material">
                <bind_vertex_input semantic="Cylinder_001-mesh-map-channel1" input_semantic="TEXCOORD" input_set="0"/>
              </instance_material>
            </technique_common>
          </bind_material>
        </instance_geometry>
      </node>
    </visual_scene>
  </library_visual_scenes>
  <scene>
    <instance_visual_scene url="#Scene"/>
  </scene>
</COLLADA>