<?xml version="1.0" encoding="utf-8"?>
<COLLADA xmlns="http://www.collada.org/2005/11/COLLADASchema" version="1.4.1" xmlns:xsi="http://www.w3.org/2001/XMLSchema-instance">
  <asset>
    <contributor>
      <author>Blender User</author>
      <authoring_tool>Blender 4.3.1 commit date:2024-12-10, commit time:07:46, hash:33d812126174</authoring_tool>
    </contributor>
    <created>2026-08-20T18:01:07</created>
    <modified>2026-08-20T18:01:07</modified>
    <unit name="meter" meter="1"/>
    <up_axis>Z_UP</up_axis>
  </asset>
  <library_effects>
    <effect id="A-textura_nok__General_003-effect">
      <profile_COMMON>
        <newparam sid="nok_headband_02_01_png-surface">
          <surface type="2D">
            <init_from>nok_headband_02_01_png</init_from>
          </surface>
        </newparam>
        <newparam sid="nok_headband_02_01_png-sampler">
          <sampler2D>
            <source>nok_headband_02_01_png-surface</source>
          </sampler2D>
        </newparam>
        <technique sid="common">
          <lambert>
            <emission>
              <color sid="emission">0 0 0 1</color>
            </emission>
            <diffuse>
              <texture texture="nok_headband_02_01_png-sampler" texcoord="Plano_071-mesh-map-0"/>
            </diffuse>
            <index_of_refraction>
              <float sid="ior">1.45</float>
            </index_of_refraction>
          </lambert>
        </technique>
      </profile_COMMON>
    </effect>
  </library_effects>
  <library_images>
    <image id="nok_headband_02_01_png" name="nok_headband_02_01_png">
      <init_from>/home/welton/Downloads/nok/nok_headband_02_01.png</init_from>
    </image>
  </library_images>
  <library_materials>
    <material id="A-textura_nok__General_003-material" name="A-textura nok  General.003">
      <instance_effect url="#A-textura_nok__General_003-effect"/>
    </material>
  </library_materials>
  <library_geometries>
    <geometry id="Plano_001-mesh" name="Plano.001">
      <mesh>
        <source id="Plano_001-mesh-positions">
          <float_array id="Plano_001-mesh-positions-array" count="120">-0.1092349 -0.02760571 0.5290562 0.1159929 -0.02760571 0.5290562 -0.2409588 -0.02760571 0.5290562 0.2477169 -0.02760571 0.5290562 0 0.04280924 0.5290562 0 0.206519 0.5290562 0.08576917 0.006143093 0.5290562 0.1515704 0.1698529 0.5290562 -0.1444008 0.1698529 0.5290562 -0.07781666 0.006143093 0.5290562 0.1163983 -0.02760499 0.5290562 -0.1088296 -0.02760529 0.5290562 0.2481222 -0.02760487 0.5290562 -0.2405534 -0.02760535 0.5290562 -6.184e-6 -0.206516 0.5290562 -6.12102e-6 -0.3702257 0.5290562 -0.07860577 -0.1698499 0.5290562 -0.144407 -0.3335597 0.5290562 0.1515644 -0.3335595 0.5290562 0.08498007 -0.1698498 0.5290562 -0.2409588 -0.02760571 0.377595 0.2477169 -0.02760571 0.377595 0 0.206519 0.377595 0.1515704 0.1698529 0.377595 -0.1444008 0.1698529 0.377595 0.2481222 -0.02760487 0.377595 -0.2405534 -0.02760535 0.377595 -6.12102e-6 -0.3702257 0.377595 -0.144407 -0.3335597 0.377595 0.1515644 -0.3335595 0.377595 0.2312698 -0.159022 0.5290562 0.1006892 -0.1258514 0.5290562 0.2312698 -0.159022 0.377595 -0.09371763 -0.1258516 0.5290562 -0.2239068 -0.1590223 0.5290562 -0.2239068 -0.1590223 0.377595 0.2481222 -0.02760487 0.1377517 -0.2405534 -0.02760535 0.1377517 0.2312698 -0.159022 0.1377517 -0.2239068 -0.1590223 0.1377517</float_array>
          <technique_common>
            <accessor source="#Plano_001-mesh-positions-array" count="40" stride="3">
              <param name="X" type="float"/>
              <param name="Y" type="float"/>
              <param name="Z" type="float"/>
            </accessor>
          </technique_common>
        </source>
        <source id="Plano_001-mesh-normals">
          <float_array id="Plano_001-mesh-normals-array" count="159">0 0 1 -1.24146e-7 0 1 0 0 1 1.34451e-7 0 1 0 0 1 -5.67117e-7 0 1 -2.37673e-7 0 1 -5.63153e-7 0 1 3.49827e-7 0 1 0 0 1 1.73141e-7 0 1 2.70759e-7 0 1 1.53842e-7 0 1 0 0 1 5.76309e-7 0 1 -0.2461082 -0.9692423 0 -0.00566405 -0.999984 0 -0.2461082 -0.9692423 0 -0.005650103 -0.999984 0 0.2351264 -0.9719649 0 0.9742376 -0.2255246 0 0.9918779 -0.1271943 0 0.961616 -0.2743991 0 0.8990818 0.4377807 0 0.8990818 0.4377808 0 0.8990818 0.4377807 0 0.2351261 0.9719649 0 -0.005650579 0.999984 0 0.235126 0.9719649 0 -0.005664587 0.999984 0 -0.2461089 0.9692423 0 -0.8983436 0.4392935 0 -0.8983436 0.4392934 0 -0.9745412 -0.2242087 0 -0.910043 -0.4145142 0 -0.9619622 -0.2731828 0 0.9096384 -0.4154012 0 0.9096384 -0.4154011 0 -1.41351e-7 0 1 -8.60803e-7 0 1 -0.9920727 -0.125666 0 -0.9920726 -0.1256663 0 3.7488e-7 0 1 0.9918779 -0.1271943 0 0.9918779 -0.1271946 0 -0.9920727 -0.125666 0 0.2351264 -0.9719648 0 0.8990817 0.4377808 0 -0.2461089 0.9692422 0 -0.8983437 0.4392935 0 -0.9100429 -0.4145143 0 0.9918779 -0.1271942 0 -0.9920727 -0.1256661 0</float_array>
          <technique_common>
            <accessor source="#Plano_001-mesh-normals-array" count="53" stride="3">
              <param name="X" type="float"/>
              <param name="Y" type="float"/>
              <param name="Z" type="float"/>
            </accessor>
          </technique_common>
        </source>
        <source id="Plano_001-mesh-map-0">
          <float_array id="Plano_001-mesh-map-0-array" count="264">0.7459169 0.3856745 0.9914614 0.614753 0.7459169 0.614753 0.5003716 0.3856745 0.2548258 0.614753 0.2548258 0.3856745 0.5003716 0.3856745 0.7459169 0.614753 0.5003716 0.614753 0.2548258 0.3856745 0.009281694 0.614753 0.009281694 0.3856745 0.9914614 0.3856745 0.8686886 0.614753 0.8686886 0.3856745 0.5003716 0.3856745 0.2548258 0.614753 0.2548258 0.3856745 0.5003716 0.3856745 0.7459169 0.614753 0.5003716 0.614753 0.2548258 0.3856745 0.1320546 0.6147549 0.1320546 0.3856745 0.7459169 0.4550338 0.5003716 0.614753 0.7459169 0.614753 0.5003716 0.4550338 0.2548258 0.614753 0.5003716 0.614753 0.1320546 0.4550338 0.009281694 0.614753 0.1320546 0.6147549 0.9914614 0.4553837 0.7459169 0.614753 0.9914614 0.614753 0.7459169 0.4553837 0.5003716 0.614753 0.7459169 0.614753 0.5003716 0.4553837 0.2548258 0.614753 0.5003716 0.614753 0.2548258 0.4553837 0.009281694 0.614753 0.2548258 0.614753 0.8686886 0.4550338 0.7459169 0.614753 0.8686886 0.614753 0.2548258 0.4550338 0.1320546 0.6147549 0.2548258 0.614753 0.009281694 0.3856745 0.1320546 0.6147549 0.009281694 0.614753 0.9914614 0.4550338 0.8686886 0.614753 0.9914614 0.614753 0.7459169 0.3856745 0.8686886 0.614753 0.7459169 0.614753 0.1320546 0.6164885 0.009281694 0.3740984 0.009281694 0.6164885 0.9914614 0.6164885 0.8686886 0.3740984 0.8686886 0.6164885 0.7459169 0.3856745 0.9914614 0.3856745 0.9914614 0.614753 0.5003716 0.3856745 0.5003716 0.614753 0.2548258 0.614753 0.5003716 0.3856745 0.7459169 0.3856745 0.7459169 0.614753 0.2548258 0.3856745 0.2548258 0.614753 0.009281694 0.614753 0.9914614 0.3856745 0.9914614 0.614753 0.8686886 0.614753 0.5003716 0.3856745 0.5003716 0.614753 0.2548258 0.614753 0.5003716 0.3856745 0.7459169 0.3856745 0.7459169 0.614753 0.2548258 0.3856745 0.2548258 0.614753 0.1320546 0.6147549 0.7459169 0.4550338 0.5003716 0.4550338 0.5003716 0.614753 0.5003716 0.4550338 0.2548258 0.4550338 0.2548258 0.614753 0.1320546 0.4550338 0.009281694 0.4550338 0.009281694 0.614753 0.9914614 0.4553837 0.7459169 0.4553837 0.7459169 0.614753 0.7459169 0.4553837 0.5003716 0.4553837 0.5003716 0.614753 0.5003716 0.4553837 0.2548258 0.4553837 0.2548258 0.614753 0.2548258 0.4553837 0.009281694 0.4553837 0.009281694 0.614753 0.8686886 0.4550338 0.7459169 0.4550338 0.7459169 0.614753 0.2548258 0.4550338 0.1320546 0.4550338 0.1320546 0.6147549 0.009281694 0.3856745 0.1320546 0.3856745 0.1320546 0.6147549 0.9914614 0.4550338 0.8686886 0.4550338 0.8686886 0.614753 0.7459169 0.3856745 0.8686886 0.3856745 0.8686886 0.614753 0.1320546 0.6164885 0.1320546 0.3740984 0.009281694 0.3740984 0.9914614 0.6164885 0.9914614 0.3740984 0.8686886 0.3740984</float_array>
          <technique_common>
            <accessor source="#Plano_001-mesh-map-0-array" count="132" stride="2">
              <param name="S" type="float"/>
              <param name="T" type="float"/>
            </accessor>
          </technique_common>
        </source>
        <vertices id="Plano_001-mesh-vertices">
          <input semantic="POSITION" source="#Plano_001-mesh-positions"/>
        </vertices>
        <triangles material="A-textura_nok__General_003-material" count="44">
          <input semantic="VERTEX" source="#Plano_001-mesh-vertices" offset="0"/>
          <input semantic="NORMAL" source="#Plano_001-mesh-normals" offset="1"/>
          <input semantic="TEXCOORD" source="#Plano_001-mesh-map-0" offset="2" set="0"/>
          <p>6 0 0 3 0 1 7 1 2 4 2 3 8 3 4 9 0 5 4 2 6 7 1 7 5 4 8 9 0 9 2 0 10 0 0 11 11 5 12 34 6 13 33 7 14 14 8 15 18 9 16 19 10 17 14 8 18 17 11 19 15 12 20 19 10 21 30 13 22 31 14 23 28 15 24 15 16 25 17 17 26 27 18 27 18 19 28 15 16 29 32 20 30 12 21 31 30 22 32 21 23 33 7 24 34 3 25 35 23 26 36 5 27 37 7 28 38 22 29 39 8 30 40 5 27 41 24 31 42 2 31 43 8 32 44 35 33 45 17 34 46 34 35 47 29 36 48 30 22 49 18 37 50 10 38 51 30 13 52 12 39 53 26 40 54 34 35 55 13 41 56 16 42 57 34 6 58 17 11 59 32 20 60 36 43 61 25 44 62 26 40 63 39 45 64 35 33 65 6 0 66 1 0 67 3 0 68 4 2 69 5 4 70 8 3 71 4 2 72 6 0 73 7 1 74 9 0 75 8 3 76 2 0 77 11 5 78 13 0 79 34 6 80 14 8 81 15 12 82 18 9 83 14 8 84 16 42 85 17 11 86 19 10 87 18 9 88 30 13 89 28 15 90 27 18 91 15 16 92 27 18 93 29 46 94 18 19 95 32 20 96 25 44 97 12 21 98 21 23 99 23 47 100 7 24 101 23 26 102 22 29 103 5 27 104 22 29 105 24 48 106 8 30 107 24 31 108 20 49 109 2 31 110 35 33 111 28 50 112 17 34 113 29 36 114 32 20 115 30 22 116 10 38 117 31 14 118 30 13 119 26 40 120 35 33 121 34 35 122 16 42 123 33 7 124 34 6 125 32 20 126 38 51 127 36 43 128 26 40 129 37 52 130 39 45 131</p>
        </triangles>
      </mesh>
    </geometry>
  </library_geometries>
  <library_visual_scenes>
    <visual_scene id="Scene" name="Scene">
      <node id="a_helmet_nok_01" name="a_helmet_nok_01" type="NODE">
        <matrix sid="transform">1 0 0 0 0 1 0 0 0 0 1 0 0 0 0 1</matrix>
        <instance_geometry url="#Plano_001-mesh" name="a_helmet_nok_01">
          <bind_material>
            <technique_common>
              <instance_material symbol="A-textura_nok__General_003-material" target="#A-textura_nok__General_003-material">
                <bind_vertex_input semantic="Plano_071-mesh-map-0" input_semantic="TEXCOORD" input_set="0"/>
              </instance_material>
            </technique_common>
          </bind_material>
        </instance_geometry>
      </node>
    </visual_scene>
  </library_visual_scenes>
  <scene>
    <instance_visual_scene url="#Scene"/>
  </scene>
</COLLADA>