<?xml version="1.0" encoding="utf-8"?>
<COLLADA xmlns="http://www.collada.org/2005/11/COLLADASchema" version="1.4.1" xmlns:xsi="http://www.w3.org/2001/XMLSchema-instance">
  <asset>
    <contributor>
      <author>Blender User</author>
      <authoring_tool>Blender 4.3.1 commit date:2024-12-10, commit time:07:46, hash:33d812126174</authoring_tool>
    </contributor>
    <created>2026-08-20T17:55:29</created>
    <modified>2026-08-20T17:55:29</modified>
    <unit name="meter" meter="1"/>
    <up_axis>Z_UP</up_axis>
  </asset>
  <library_effects>
    <effect id="A-textura_nok__General_002-effect">
      <profile_COMMON>
        <newparam sid="nok_helmet_01_01_png-surface">
          <surface type="2D">
            <init_from>nok_helmet_01_01_png</init_from>
          </surface>
        </newparam>
        <newparam sid="nok_helmet_01_01_png-sampler">
          <sampler2D>
            <source>nok_helmet_01_01_png-surface</source>
          </sampler2D>
        </newparam>
        <technique sid="common">
          <lambert>
            <emission>
              <color sid="emission">0 0 0 1</color>
            </emission>
            <diffuse>
              <texture texture="nok_helmet_01_01_png-sampler" texcoord="Plano_117-mesh-map-0"/>
            </diffuse>
            <index_of_refraction>
              <float sid="ior">1.45</float>
            </index_of_refraction>
          </lambert>
        </technique>
      </profile_COMMON>
    </effect>
  </library_effects>
  <library_images>
    <image id="nok_helmet_01_01_png" name="nok_helmet_01_01_png">
      <init_from>/home/welton/Downloads/nok/nok_helmet_01_01.png</init_from>
    </image>
  </library_images>
  <library_materials>
    <material id="A-textura_nok__General_002-material" name="A-textura nok  General.002">
      <instance_effect url="#A-textura_nok__General_002-effect"/>
    </material>
  </library_materials>
  <library_geometries>
    <geometry id="Plano_117-mesh" name="Plano.117">
      <mesh>
        <source id="Plano_117-mesh-positions">
          <float_array id="Plano_117-mesh-positions-array" count="90">0.005668938 -0.002937197 0.7584871 0.005729675 -0.002937197 0.7584871 -0.4796468 -0.002938151 0.3982926 0.4930992 -0.002938151 0.3982926 0.005698442 -0.002910196 0.7584871 0 0.4589353 0.3982926 0.005721569 -0.002918064 0.7584871 0.3017126 0.4002088 0.3982926 -0.2874409 0.4002088 0.3982926 0.005677402 -0.002918064 0.7584871 0.005729854 -0.002937197 0.7584871 0.005669057 -0.002937197 0.7584871 0.4939061 -0.002937078 0.3982926 -0.47884 -0.002937674 0.3982926 0.005698442 -0.002964258 0.7584871 -1.21844e-5 -0.464811 0.3982926 0.005677223 -0.002956271 0.7584871 -0.2874531 -0.4060845 0.3982926 0.3017003 -0.4060842 0.3982926 0.00572139 -0.002956271 0.7584871 -0.4796468 -0.002938151 0.3158589 0.4930992 -0.002938151 0.3158589 0 0.4589353 0.3158589 0.3017126 0.4002088 0.3158589 -0.2874409 0.4002088 0.3158589 0.4939061 -0.002937078 0.3158589 -0.47884 -0.002937674 0.3158589 -1.21844e-5 -0.464811 0.3158589 -0.2874531 -0.4060845 0.3158589 0.3017003 -0.4060842 0.3158589</float_array>
          <technique_common>
            <accessor source="#Plano_117-mesh-positions-array" count="30" stride="3">
              <param name="X" type="float"/>
              <param name="Y" type="float"/>
              <param name="Z" type="float"/>
            </accessor>
          </technique_common>
        </source>
        <source id="Plano_117-mesh-normals">
          <float_array id="Plano_117-mesh-normals-array" count="159">0.5751516 0.2555549 0.777105 0.5720205 0.2715561 0.7739831 -0.1950557 0.6016511 0.7745768 -0.003281831 0.6149585 0.7885527 -0.1244731 0.609243 0.7831535 0.179326 0.6064214 0.7746583 -0.009999454 0.6148766 0.7885599 -0.5757941 0.2625699 0.7742857 -0.5737364 0.2735106 0.7720223 -0.577001 0.2559537 0.7756015 -0.5767456 -0.2559321 0.7757986 -0.5740357 -0.2725133 0.7721526 0.1835351 -0.6059396 0.7740492 -0.003226816 -0.6149604 0.7885515 0.1190295 -0.6115227 0.7822225 -0.1968293 -0.6014406 0.7742917 -0.00783658 -0.614909 0.7885592 0.5735229 -0.2617883 0.7762334 0.5716266 -0.2725257 0.7739334 0.5746216 -0.2552587 0.7775943 -0.2001727 -0.9797607 0 -0.00464195 -0.9999893 0 -0.2001727 -0.9797607 0 -0.004642963 -0.9999892 1.4645e-6 0.1910591 -0.9815785 0 0.9026598 -0.430355 0 0.9033716 0.4288589 0 0.1910583 0.9815787 0 -0.004651427 0.9999893 0 0.1910583 0.9815787 0 -0.004626929 0.9999893 6.63102e-7 -0.200173 0.9797606 0 -0.9026595 0.4303554 0 -0.9033712 -0.4288595 0 0.5768568 0.2459339 0.7789434 0.1792638 0.6064206 0.7746732 0.1190289 0.611522 0.7822232 -0.003212869 0.614954 0.7885566 -0.575343 0.262379 0.7746857 -0.5732844 0.2733212 0.7724251 -0.5783297 -0.2456826 0.7779299 -0.1967502 -0.6014378 0.7743139 -0.1244724 -0.6092399 0.783156 -0.003278076 -0.6149494 0.7885599 0.5731665 -0.2616452 0.7765449 0.5712728 -0.2723619 0.7742522 -0.004594027 -0.9999895 6.01655e-5 0.1910589 -0.9815787 0 0.9026595 -0.4303554 0 0.9033715 0.4288591 0 -0.004699587 0.999989 -6.13762e-6 -0.9026595 0.4303555 0 -0.9033712 -0.4288598 0</float_array>
          <technique_common>
            <accessor source="#Plano_117-mesh-normals-array" count="53" stride="3">
              <param name="X" type="float"/>
              <param name="Y" type="float"/>
              <param name="Z" type="float"/>
            </accessor>
          </technique_common>
        </source>
        <source id="Plano_117-mesh-map-0">
          <float_array id="Plano_117-mesh-map-0-array" count="192">0.7462304 0.9792061 0.9937777 0.01325577 0.7462304 0.01325577 0.2511619 0.9792061 0.4986984 0.01325577 0.2511619 0.01325577 0.7462304 0.9792061 0.4986984 0.01325577 0.4986984 0.9792061 0.2511619 0.9792061 0.003624796 0.01325577 0.003624796 0.9792061 0.7462304 0.9792061 0.9937777 0.01325577 0.7462304 0.01325577 0.2511619 0.9792061 0.4986984 0.01325577 0.2511619 0.01325577 0.7462304 0.9792061 0.4986984 0.01325577 0.4986984 0.9792061 0.2511619 0.9792061 0.003624796 0.01325577 0.003624796 0.9792061 0.7462304 0.1155011 0.4986984 0.01325577 0.7462304 0.01325577 0.4986984 0.1155011 0.2511619 0.01325577 0.4986984 0.01325577 0.2511619 0.1155011 0.003624796 0.01325577 0.2511619 0.01325577 0.9937777 0.1150653 0.7462304 0.01325577 0.9937777 0.01325577 0.7462304 0.1150653 0.4986984 0.01325577 0.7462304 0.01325577 0.4986984 0.1150653 0.2511619 0.01325577 0.4986984 0.01325577 0.2511619 0.1150653 0.003624796 0.01325577 0.2511619 0.01325577 0.9937777 0.1155011 0.7462304 0.01325577 0.9937777 0.01325577 0.7462304 0.9792061 0.9937777 0.9792061 0.9937777 0.01325577 0.2511619 0.9792061 0.4986984 0.9792061 0.4986984 0.01325577 0.7462304 0.9792061 0.7462304 0.01325577 0.4986984 0.01325577 0.2511619 0.9792061 0.2511619 0.01325577 0.003624796 0.01325577 0.7462304 0.9792061 0.9937777 0.9792061 0.9937777 0.01325577 0.2511619 0.9792061 0.4986984 0.9792061 0.4986984 0.01325577 0.7462304 0.9792061 0.7462304 0.01325577 0.4986984 0.01325577 0.2511619 0.9792061 0.2511619 0.01325577 0.003624796 0.01325577 0.7462304 0.1155011 0.4986984 0.1155011 0.4986984 0.01325577 0.4986984 0.1155011 0.2511619 0.1155011 0.2511619 0.01325577 0.2511619 0.1155011 0.003624796 0.1155011 0.003624796 0.01325577 0.9937777 0.1150653 0.7462304 0.1150653 0.7462304 0.01325577 0.7462304 0.1150653 0.4986984 0.1150653 0.4986984 0.01325577 0.4986984 0.1150653 0.2511619 0.1150653 0.2511619 0.01325577 0.2511619 0.1150653 0.003624796 0.1150653 0.003624796 0.01325577 0.9937777 0.1155011 0.7462304 0.1155011 0.7462304 0.01325577</float_array>
          <technique_common>
            <accessor source="#Plano_117-mesh-map-0-array" count="96" stride="2">
              <param name="S" type="float"/>
              <param name="T" type="float"/>
            </accessor>
          </technique_common>
        </source>
        <vertices id="Plano_117-mesh-vertices">
          <input semantic="POSITION" source="#Plano_117-mesh-positions"/>
        </vertices>
        <triangles material="A-textura_nok__General_002-material" count="32">
          <input semantic="VERTEX" source="#Plano_117-mesh-vertices" offset="0"/>
          <input semantic="NORMAL" source="#Plano_117-mesh-normals" offset="1"/>
          <input semantic="TEXCOORD" source="#Plano_117-mesh-map-0" offset="2" set="0"/>
          <p>6 0 0 3 1 1 7 1 2 9 2 3 5 3 4 8 4 5 6 5 6 5 3 7 4 6 8 9 7 9 2 8 10 0 9 11 16 10 12 13 11 13 17 11 14 19 12 15 15 13 16 18 14 17 16 15 18 15 13 19 14 16 20 19 17 21 12 18 22 10 19 23 28 20 24 15 21 25 17 22 26 27 23 27 18 24 28 15 21 29 29 25 30 12 25 31 18 25 32 21 26 33 7 26 34 3 26 35 23 27 36 5 28 37 7 29 38 22 30 39 8 31 40 5 28 41 24 32 42 2 32 43 8 32 44 26 33 45 17 33 46 13 33 47 6 0 48 1 34 49 3 1 50 9 2 51 4 6 52 5 3 53 6 35 54 7 36 55 5 37 56 9 38 57 8 39 58 2 39 59 16 10 60 11 40 61 13 11 62 19 12 63 14 16 64 15 13 65 16 41 66 17 42 67 15 43 68 19 44 69 18 45 70 12 45 71 28 20 72 27 23 73 15 21 74 27 46 75 29 47 76 18 47 77 29 48 78 25 48 79 12 48 80 21 49 81 23 49 82 7 49 83 23 27 84 22 30 85 5 28 86 22 50 87 24 31 88 8 31 89 24 51 90 20 51 91 2 51 92 26 52 93 28 52 94 17 52 95</p>
        </triangles>
      </mesh>
    </geometry>
  </library_geometries>
  <library_visual_scenes>
    <visual_scene id="Scene" name="Scene">
      <node id="a_helmet_nok_02" name="a_helmet_nok_02" type="NODE">
        <matrix sid="transform">1 0 0 0 0 1 0 0 0 0 1 0 0 0 0 1</matrix>
        <instance_geometry url="#Plano_117-mesh" name="a_helmet_nok_02">
          <bind_material>
            <technique_common>
              <instance_material symbol="A-textura_nok__General_002-material" target="#A-textura_nok__General_002-material">
                <bind_vertex_input semantic="Plano_117-mesh-map-0" input_semantic="TEXCOORD" input_set="0"/>
              </instance_material>
            </technique_common>
          </bind_material>
        </instance_geometry>
      </node>
    </visual_scene>
  </library_visual_scenes>
  <scene>
    <instance_visual_scene url="#Scene"/>
  </scene>
</COLLADA>