<?xml version="1.0" encoding="utf-8"?>
<COLLADA xmlns="http://www.collada.org/2005/11/COLLADASchema" version="1.4.1" xmlns:xsi="http://www.w3.org/2001/XMLSchema-instance">
  <asset>
    <contributor>
      <author>Blender User</author>
      <authoring_tool>Blender 4.3.1 commit date:2024-12-10, commit time:07:46, hash:33d812126174</authoring_tool>
    </contributor>
    <created>2026-08-21T08:58:14</created>
    <modified>2026-08-21T08:58:14</modified>
    <unit name="meter" meter="1"/>
    <up_axis>Z_UP</up_axis>
  </asset>
  <library_effects>
    <effect id="A-textura_nok__General-effect">
      <profile_COMMON>
        <newparam sid="nok_headband_02_01_png-surface">
          <surface type="2D">
            <init_from>nok_headband_02_01_png</init_from>
          </surface>
        </newparam>
        <newparam sid="nok_headband_02_01_png-sampler">
          <sampler2D>
            <source>nok_headband_02_01_png-surface</source>
          </sampler2D>
        </newparam>
        <technique sid="common">
          <lambert>
            <emission>
              <color sid="emission">0 0 0 1</color>
            </emission>
            <diffuse>
              <texture texture="nok_headband_02_01_png-sampler" texcoord="Plano_046-mesh-map-0"/>
            </diffuse>
            <index_of_refraction>
              <float sid="ior">1.45</float>
            </index_of_refraction>
          </lambert>
        </technique>
      </profile_COMMON>
    </effect>
  </library_effects>
  <library_images>
    <image id="nok_headband_02_01_png" name="nok_headband_02_01_png">
      <init_from>/home/welton/Downloads/nok/nok_headband_02_01.png</init_from>
    </image>
  </library_images>
  <library_materials>
    <material id="A-textura_nok__General-material" name="A-textura nok  General">
      <instance_effect url="#A-textura_nok__General-effect"/>
    </material>
  </library_materials>
  <library_geometries>
    <geometry id="Plano_046-mesh" name="Plano.046">
      <mesh>
        <source id="Plano_046-mesh-positions">
          <float_array id="Plano_046-mesh-positions-array" count="120">-0.2231428 -4.02331e-7 -0.04378634 0.2251902 -4.02331e-7 -0.04378634 -0.4853493 -4.02331e-7 -0.04378634 0.4873967 -4.02331e-7 -0.04378634 -0.005702495 0.1996666 -0.04378634 -0.005702495 0.4618731 -0.04378634 0.1650274 0.14094 -0.04378634 0.2960101 0.4031466 -0.04378634 -0.2931434 0.4031466 -0.04378634 -0.1606025 0.14094 -0.04378634 0.2259971 5.96046e-7 -0.04378634 -0.2223359 2.98023e-7 -0.04378634 0.4882036 7.00355e-7 -0.04378634 -0.4845425 0 -0.04378634 -0.005714774 -0.1996667 -0.04378634 -0.005714654 -0.4618732 -0.04378634 -0.1621732 -0.1409404 -0.04378634 -0.2931556 -0.4031468 -0.04378634 0.2959978 -0.4031465 -0.04378634 0.1634567 -0.1409401 -0.04378634 -0.2231428 -4.02331e-7 -0.1262201 0.2251902 -4.02331e-7 -0.1262201 -0.4853493 -4.02331e-7 -0.1262201 0.4873967 -4.02331e-7 -0.1262201 -0.005702495 0.1996666 -0.1262201 -0.005702495 0.4618731 -0.1262201 0.1650274 0.14094 -0.1262201 0.2960101 0.4031466 -0.1262201 -0.2931434 0.4031466 -0.1262201 -0.1606025 0.14094 -0.1262201 0.2259971 5.96046e-7 -0.1262201 -0.2223359 2.98023e-7 -0.1262201 0.4882036 7.00355e-7 -0.1262201 -0.4845425 0 -0.1262201 -0.005714774 -0.1996667 -0.1262201 -0.005714654 -0.4618732 -0.1262201 -0.1621732 -0.1409404 -0.1262201 -0.2931556 -0.4031468 -0.1262201 0.2959978 -0.4031465 -0.1262201 0.1634567 -0.1409401 -0.1262201</float_array>
          <technique_common>
            <accessor source="#Plano_046-mesh-positions-array" count="40" stride="3">
              <param name="X" type="float"/>
              <param name="Y" type="float"/>
              <param name="Z" type="float"/>
            </accessor>
          </technique_common>
        </source>
        <source id="Plano_046-mesh-normals">
          <float_array id="Plano_046-mesh-normals-array" count="177">0 0 1 0 0 1 0 0 1 0 0 1 0 0 1 0 0 1 0 0 1 0 0 1 0 0 1 0 0 1 0 0 1 0 0 1 0 0 1 0 0 1 0 0 1 0 0 1 0 0 1 0 0 1 0 0 1 0 0 1 0 0 1 0 0 1 0 0 1 0 0 1 0 0 1 0 0 1 0 0 1 0 0 1 0 0 1 0 0 1 -0.2001727 -0.9797607 0 -0.00464195 -0.9999893 0 -0.2001727 -0.9797607 0 -0.00465089 -0.9999893 0 0.191059 -0.9815786 0 0.9026597 -0.430355 0 0.9026596 -0.4303552 0 0.9026598 -0.430355 0 0.9033716 0.4288589 0 0.9033715 0.4288591 0 0.9033716 0.4288589 0 0.1910583 0.9815787 0 -0.004651427 0.9999893 0 -0.004642546 0.9999893 0 -0.2001731 0.9797605 0 -0.9026596 0.4303555 0 -0.9026596 0.4303554 0 -0.9026595 0.4303554 0 -0.9033712 -0.4288597 0 -0.9033712 -0.4288596 0 -0.9033712 -0.4288597 0 0 0 1 0 0 1 0.1910591 -0.9815787 0 0.9026597 -0.4303553 0 0.9033715 0.4288591 0 -0.2001731 0.9797606 0 -0.9026595 0.4303554 0 -0.9033712 -0.4288595 0</float_array>
          <technique_common>
            <accessor source="#Plano_046-mesh-normals-array" count="59" stride="3">
              <param name="X" type="float"/>
              <param name="Y" type="float"/>
              <param name="Z" type="float"/>
            </accessor>
          </technique_common>
        </source>
        <source id="Plano_046-mesh-map-0">
          <float_array id="Plano_046-mesh-map-0-array" count="288">0.7468969 0.3782895 0.9903209 0.625172 0.7468969 0.625172 0.503472 0.3782895 0.2600468 0.625172 0.2600468 0.3782895 0.7468969 0.3782895 0.503472 0.625172 0.503472 0.3782895 0.2600468 0.3782895 0.01662302 0.625172 0.01662302 0.3782895 0.7468969 0.3782895 0.9903209 0.625172 0.7468969 0.625172 0.2600468 0.3782895 0.503472 0.625172 0.2600468 0.625172 0.503472 0.3782895 0.7468969 0.625172 0.503472 0.625172 0.2600468 0.3782895 0.01662302 0.625172 0.01662302 0.3782895 0.7468969 0.3782895 0.9903209 0.625172 0.7468969 0.625172 0.503472 0.3782895 0.2600468 0.625172 0.2600468 0.3782895 0.7468969 0.3782895 0.503472 0.625172 0.503472 0.3782895 0.2600468 0.3782895 0.01662302 0.625172 0.01662302 0.3782895 0.7468969 0.3782895 0.9903209 0.625172 0.7468969 0.625172 0.2600468 0.3782895 0.503472 0.625172 0.2600468 0.625172 0.503472 0.3782895 0.7468969 0.625172 0.503472 0.625172 0.2600468 0.3782895 0.01662302 0.625172 0.01662302 0.3782895 0.7468969 0.4530394 0.503472 0.625172 0.7468969 0.625172 0.503472 0.4530394 0.2600468 0.625172 0.503472 0.625172 0.2600468 0.4530394 0.01662302 0.625172 0.2600468 0.625172 0.9903209 0.4534164 0.7468969 0.625172 0.9903209 0.625172 0.7468969 0.4534164 0.503472 0.625172 0.7468969 0.625172 0.503472 0.4534164 0.2600468 0.625172 0.503472 0.625172 0.2600468 0.4534164 0.01662302 0.625172 0.2600468 0.625172 0.9903209 0.4530394 0.7468969 0.625172 0.9903209 0.625172 0.7468969 0.3782895 0.9903209 0.3782895 0.9903209 0.625172 0.503472 0.3782895 0.503472 0.625172 0.2600468 0.625172 0.7468969 0.3782895 0.7468969 0.625172 0.503472 0.625172 0.2600468 0.3782895 0.2600468 0.625172 0.01662302 0.625172 0.7468969 0.3782895 0.9903209 0.3782895 0.9903209 0.625172 0.2600468 0.3782895 0.503472 0.3782895 0.503472 0.625172 0.503472 0.3782895 0.7468969 0.3782895 0.7468969 0.625172 0.2600468 0.3782895 0.2600468 0.625172 0.01662302 0.625172 0.7468969 0.3782895 0.9903209 0.3782895 0.9903209 0.625172 0.503472 0.3782895 0.503472 0.625172 0.2600468 0.625172 0.7468969 0.3782895 0.7468969 0.625172 0.503472 0.625172 0.2600468 0.3782895 0.2600468 0.625172 0.01662302 0.625172 0.7468969 0.3782895 0.9903209 0.3782895 0.9903209 0.625172 0.2600468 0.3782895 0.503472 0.3782895 0.503472 0.625172 0.503472 0.3782895 0.7468969 0.3782895 0.7468969 0.625172 0.2600468 0.3782895 0.2600468 0.625172 0.01662302 0.625172 0.7468969 0.4530394 0.503472 0.4530394 0.503472 0.625172 0.503472 0.4530394 0.2600468 0.4530394 0.2600468 0.625172 0.2600468 0.4530394 0.01662302 0.4530394 0.01662302 0.625172 0.9903209 0.4534164 0.7468969 0.4534164 0.7468969 0.625172 0.7468969 0.4534164 0.503472 0.4534164 0.503472 0.625172 0.503472 0.4534164 0.2600468 0.4534164 0.2600468 0.625172 0.2600468 0.4534164 0.01662302 0.4534164 0.01662302 0.625172 0.9903209 0.4530394 0.7468969 0.4530394 0.7468969 0.625172</float_array>
          <technique_common>
            <accessor source="#Plano_046-mesh-map-0-array" count="144" stride="2">
              <param name="S" type="float"/>
              <param name="T" type="float"/>
            </accessor>
          </technique_common>
        </source>
        <vertices id="Plano_046-mesh-vertices">
          <input semantic="POSITION" source="#Plano_046-mesh-positions"/>
        </vertices>
        <triangles material="A-textura_nok__General-material" count="48">
          <input semantic="VERTEX" source="#Plano_046-mesh-vertices" offset="0"/>
          <input semantic="NORMAL" source="#Plano_046-mesh-normals" offset="1"/>
          <input semantic="TEXCOORD" source="#Plano_046-mesh-map-0" offset="2" set="0"/>
          <p>6 0 0 3 1 1 7 2 2 4 3 3 8 4 4 9 5 5 6 0 6 5 3 7 4 3 8 9 5 9 2 6 10 0 3 11 16 7 12 13 8 13 17 9 14 19 10 15 15 11 16 18 12 17 14 13 18 17 9 19 15 11 20 19 10 21 12 14 22 10 15 23 26 16 24 23 3 25 27 17 26 24 18 27 28 19 28 29 3 29 26 16 30 25 20 31 24 18 32 29 3 33 22 3 34 20 3 35 36 21 36 33 22 37 37 23 38 39 24 39 35 25 40 38 26 41 34 27 42 37 23 43 35 25 44 39 24 45 32 28 46 30 29 47 37 30 48 15 31 49 17 32 50 35 33 51 18 34 52 15 31 53 38 35 54 12 36 55 18 37 56 23 38 57 7 39 58 3 40 59 27 41 60 5 42 61 7 41 62 25 43 63 8 44 64 5 42 65 28 45 66 2 46 67 8 47 68 33 48 69 17 49 70 13 50 71 6 0 72 1 3 73 3 1 74 4 3 75 5 3 76 8 4 77 6 0 78 7 2 79 5 3 80 9 5 81 8 4 82 2 6 83 16 7 84 11 51 85 13 8 86 19 10 87 14 13 88 15 11 89 14 13 90 16 7 91 17 9 92 19 10 93 18 12 94 12 14 95 26 16 96 21 3 97 23 3 98 24 18 99 25 20 100 28 19 101 26 16 102 27 17 103 25 20 104 29 3 105 28 19 106 22 3 107 36 21 108 31 52 109 33 22 110 39 24 111 34 27 112 35 25 113 34 27 114 36 21 115 37 23 116 39 24 117 38 26 118 32 28 119 37 30 120 35 33 121 15 31 122 35 33 123 38 53 124 18 34 125 38 35 126 32 54 127 12 36 128 23 38 129 27 55 130 7 39 131 27 41 132 25 43 133 5 42 134 25 43 135 28 56 136 8 44 137 28 45 138 22 57 139 2 46 140 33 48 141 37 58 142 17 49 143</p>
        </triangles>
      </mesh>
    </geometry>
  </library_geometries>
  <library_visual_scenes>
    <visual_scene id="Scene" name="Scene">
      <node id="nok_necklace_01" name="nok_necklace_01" type="NODE">
        <matrix sid="transform">1 0 0 0 0 1 0 0 0 0 1 0 0 0 0 1</matrix>
        <instance_geometry url="#Plano_046-mesh" name="nok_necklace_01">
          <bind_material>
            <technique_common>
              <instance_material symbol="A-textura_nok__General-material" target="#A-textura_nok__General-material">
                <bind_vertex_input semantic="Plano_046-mesh-map-0" input_semantic="TEXCOORD" input_set="0"/>
              </instance_material>
            </technique_common>
          </bind_material>
        </instance_geometry>
      </node>
    </visual_scene>
  </library_visual_scenes>
  <scene>
    <instance_visual_scene url="#Scene"/>
  </scene>
</COLLADA>